<?xml version="1.0" encoding="UTF-8"?>
<svg id="_레이어_2" data-name="레이어 2" xmlns="http://www.w3.org/2000/svg" viewBox="0 0 300 300">
  <g id="_레이어_1-2" data-name="레이어 1">
    <g>
      <path d="m71.32,237.5c-2.34-1.27-4.57-3.25-7.04-3.68-9.52-1.67-13.91-8.02-15.69-17.13-.12-.6-.22-1.2-.36-1.97-.61-.13-1.26-.28-1.91-.41-12.56-2.57-17.7-16.07-10.15-26.91,5.22-7.5,12.55-11.73,21.29-12.11,6.98-.31,11.88-3.33,16.11-8.65,5.56-7,9.83-14.75,13.53-23.63-5.46-2.5-10.71-5.25-16.2-7.36-10.16-3.9-20.43-7.54-31.56-6.65-7.22.58-13.8,3.03-19.96,6.93-8.16,5.17-17.46.88-19.21-8.82-.64-3.54.62-6.53,2.27-9.56,1.61-2.96,3.13-6.12,3.93-9.39,2.16-8.91,11.64-12.15,18.25-6.08.72.66,2.09,1.12,3.02.92,29.92-6.36,58.46-2.38,85.92,11.48,8.77,4.43,17.63,8.54,25.86,15.13.31-2.03.56-3.66.82-5.28,1.55-9.87,3.43-19.7,4.55-29.62,1.3-11.57-.01-23.07-2.63-34.38-1.1-4.78-.43-6.09,4.28-6.99,11.1-2.12,20.65.93,28.45,9.53.61.67,1.16,1.39,1.73,2.1.49.62.97,1.25,1.74,2.26,1.19-3.78.73-7.14-.13-10.41-4.07-15.56-19.8-22-33.04-13.76-1.81,1.13-4.16,1.77-6.28,1.83-8.37.24-15.01,3.9-20.16,10.52-5.66,7.28-8.44,15.8-9.51,25.04-.73,6.29-1.69,12.55-2.68,18.8-.52,3.32-1.99,4.61-4.32,4.22-2.31-.38-3.14-2.19-2.65-5.48,1.26-8.48,2.08-17.06,3.8-25.44,2.26-11.04,7.02-20.82,15.91-27.89,5.64-4.48,12.03-6.83,19.16-7.06,1.12-.04,2.33-.39,3.31-.96,12.13-7.06,22.58-6.56,32.43,1.61,10.56,8.77,14.3,21.23,10.36,34.52-.14.48-.24.96-.41,1.68.81.25,1.53.47,2.24.68,3.87,1.13,6.55,4.53,6.77,8.7.06,1.22-.02,2.46-.13,3.68q-.57,6.43-6.64,7.21c-3.13.41-4.93,2.14-5.11,4.94-.18,2.78,1.13,4.41,4.27,5.33,4.28,1.24,4.86,2.3,3.65,6.78-.35,1.28-.7,2.55-1.13,3.8-1.78,5.1-5.23,7.71-10.47,7.88-2.45.08-4.91.01-8.25.01,1.44,2.54,2.36,4.72,3.75,6.52,4.37,5.66,10.33,9.11,16.97,10.41,8.21,1.6,15.79,4.11,21.98,10.12,4.3-5.93,4.08-14.38-.5-20.34-1.16-1.51-2.47-3.01-3.99-4.06-3.8-2.64-6.59-5.99-8.47-10.35-.67-1.55-2.2-2.83-3.59-3.89-1.79-1.37-2.48-3.01-1.54-5.01.97-2.05,2.83-2.66,4.74-1.55,1.54.89,2.68.55,4.06-.23,21.09-11.9,43.55-19.29,67.47-21.78,1.27-.13,2.56-.24,3.84-.2,2.24.07,3.73-.68,5.06-2.8,2.71-4.29,8.63-4.48,12.08-.73.67.73,1.26,1.78,2.08,2.06,4.14,1.38,6.67,4.29,6.73,8.69.06,4.84-1.28,9.44-5.64,12.11-1.81,1.1-4,1.71-6.09,2.13-20.46,4.12-40.04,10.55-57.33,23.14-2.31,1.68-4.52,1.47-5.68-.48-1.49-2.51-.27-4.19,1.72-5.65,14.19-10.42,30.08-16.81,46.8-21.22,4.67-1.23,9.47-1.93,14.1-3.28,1.67-.49,3.63-1.87,4.37-3.41,1.61-3.37.79-4.07-2.72-5.16-1.61-.5-2.85-2.25-3.86-3.97-.19,0-.51-.07-.55.01-2.58,4.82-6.83,5.69-11.72,6.04-19.96,1.39-38.91,6.97-57.03,15.68-3.39,1.63-6.7,3.45-10.03,5.2-.25.13-.43.39-.7.64.79,3.37,2.9,5.58,5.53,7.57,9.75,7.38,13.39,18.52,9.79,29.37-.03.1-.05.2-.09.29-1.41,4.07-1.77,11.73-.91,15.83,2.39,11.36,1.83,22.15-5.67,31.64-.49.63-.53,1.92-.34,2.8.75,3.59,1.61,7.16,2.55,10.7.95,3.58,3.16,5.98,6.52,7.38,6.48,2.7,12.89,5.57,19.36,8.27,1.16.48,2.49.72,3.74.73,9.84.06,19.68-.18,29.51.09,7.38.2,14.08,2.78,19.68,7.98,2.21,2.06,2.54,4.07,1.06,5.83-1.49,1.77-3.48,1.75-5.7-.27-4.59-4.17-10.06-5.97-16-6.2-5.2-.21-10.41-.04-15.62-.04-.08.36-.16.73-.25,1.09.91.64,1.8,1.29,2.72,1.9,12.27,8.16,23.32,17.79,32.82,29.3.83,1.01,2.07,1.98,2.28,3.14.26,1.48.13,3.47-.67,4.61-1.08,1.56-2.96,1.31-4.48.07-.38-.31-.7-.72-1.01-1.11-17.89-22.25-40.66-37.09-66.56-47.16-1.47-.57-2.97-1.09-4.41-1.75-4.54-2.1-7.88-5.53-9.35-10.47-1.53-5.17-2.83-10.43-3.81-15.73-.27-1.48.54-3.65,1.57-4.83,12.25-14,6.4-37.63-10.87-43.45-.62-.21-1.29-.25-2-.38-.11,2.41.01,4.67-.35,6.85-2.11,12.73-12.97,20.01-26.03,17.57-15.41-2.87-25.92-14.4-28.61-31.34-.15-.97-.32-2.14-.91-2.79-6.42-6.99-14.36-11.56-23.09-15.75-1.05,7.18-4.93,12.37-8.54,17.87-6.98,10.61-3.72,23,7.95,26.28,2.82.79,3.02,2.99,2.66,5.6-1.19,8.82,3.98,15.93,12.53,16.57,3.11.23,6.35-.98,9.48-1.75.54-.13,1.03-1.3,1.21-2.08.28-1.18.27-2.43.38-3.65.21-2.41,1.43-3.81,3.81-3.75,2.15.05,3.52,2.01,3.22,4.59-.9,7.6,1.88,13.75,7.4,18.36,5.25,4.39,11.72,4.21,18.08,3.76.88-.06,2.07-.54,2.58-.12,1.18.97,2.8,2.37,2.8,3.59,0,1.2-1.64,3.17-2.83,3.43-3.22.7-6.6.68-9.91.95,2.93,14.81-2.43,23.95-16.49,28.15-2.46.73-4.9,1.52-7.33,2.35-16.93,5.8-33,13.38-47.11,24.91-9.55,7.8-17.76,16.8-22.6,28.63-.94,2.3-2.68,3.05-4.8,2.16-2.11-.89-2.68-3.01-1.7-4.88,2.75-5.28,5.34-10.76,8.84-15.49,10.17-13.73,23.5-23.59,38.42-30.92,10.98-5.4,22.44-9.75,31.71-13.72-18.1-.64-38.38-.72-58.14,5.56-28.84,9.15-50.26,26.92-61.85,56.4-1.17,2.98-3.02,4.02-5.17,3.12-2.06-.87-2.56-2.98-1.36-6.02,9.56-24.27,25.9-41.9,48.5-53.39,1.05-.54,2.12-1.04,3.18-1.56.13-.4.27-.81.4-1.21Zm6.71-1.97c.64-.13,1.03-.16,1.4-.29,18.65-6.72,37.82-9.29,57.52-8.01,6.43.42,12.8-.19,18.81-2.9,5.63-2.54,6.45-5.54,2.78-10.77-.96-1.37-2.35-2.43-3.64-3.52-1.67-1.42-3.72-2.47-5.09-4.14-2.64-3.22-4.91-6.76-7.45-10.33-1.31.38-2.99.95-4.7,1.36-14.11,3.46-26.25-5.99-27.11-20.95-.06-.99-1.04-2.28-1.93-2.81-7.67-4.53-11.98-11.18-11.71-20.44.09-3.06-1.01-4.46-3.67-5.35-.35.63-.67,1.23-1.02,1.82-4.13,7.04-7.94,14.33-12.5,21.06-5.2,7.68-12.13,12.35-21.83,12.4-6.39.03-11.9,3.39-15.85,8.87-2.43,3.38-2.9,7.2-1.16,11,1.63,3.56,4.9,4.46,8.41,4.59.69.03,1.38,0,2.07.03,2.33.09,3.63,1.39,3.9,3.76.14,1.22.05,2.46.23,3.67,1,6.91,3.88,10.89,9.94,11.91,5.35.9,9.7,3.84,12.6,9.04ZM149.53,60.2c.17.91.26,1.39.35,1.87,3.76,18.95,2.97,37.77-1.31,56.53-1.62,7.09-2.46,14.23-1.57,21.57,1.91,15.76,12.56,26.41,26.89,26.49,1.87.01,3.75-.5,6.08-.84-1.92-2.73-5.03-4.83-2.22-7.79,3.44-3.62,5.34.98,7.85,2.34,2.14-3.45,2.6-6.92,1.91-10.72-.32-1.76-1.04-2.6-2.63-3.18-10.91-4-19.45-10.62-22.72-22.87-.7-.05-1.28-.1-1.86-.12-3.52-.13-5.06-1.24-5.1-3.7-.04-2.6,1.51-3.7,5.28-3.71,5.52-.01,11.03.05,16.55-.03,3.18-.05,4.16-1.17,4.42-4.64-5.26-2.64-7.87-6.9-7.21-13.07.54-5.11,4-9.14,9.34-10.59,1.62-.44,2.63-.88,2.53-2.9-.11-2.02-1.24-2.57-2.84-2.83-3.88-.64-6.48-3.01-8.51-6.43-1.8-3.02-3.71-6.08-6.07-8.62-5.08-5.46-11.41-7.69-19.15-6.78Zm-50.68,81.78c1.09-1.87,1.97-3.46,2.93-5,1.96-3.16,4.38-6.1,5.86-9.48,2.71-6.18,2.31-6.85-3.69-9.43-25.19-10.85-51.08-13.65-77.74-7.07-2.34.58-4.33.55-5.57-1.92-.89-1.77-2.01-3.1-4.14-2.65-2.17.46-2.63,2.23-3.28,4.18-1.22,3.61-2.67,7.19-4.5,10.51-1.92,3.48-2.15,5.45.13,7.99,2,2.24,3.79,2.06,7.17.39,4.85-2.41,9.76-4.9,14.89-6.46,11.63-3.53,23-.95,34.22,2.66,11.9,3.83,23.11,9.22,33.73,16.27Z" fill="#fff"/>
      <path d="m222.1,47.52c-2.28-9.39-4.39-18.41-6.7-27.38-.74-2.87.06-4.65,2.38-6.16,9.16-5.93,19.07-10.13,29.26-13.65,2.95-1.02,4.89.36,5.23,3.51,1.22,11.48,2.37,22.96,3.57,34.44.24,2.33.51,4.67.93,6.98,1.53,8.38-5.85,16.09-13.9,14.47-3.6-.72-6.39-3.95-6.83-7.89-.44-3.95,1.65-7.85,5.33-9.31,2.27-.9,4.72-1.36,7.53-2.14-1.05-10.34-2.12-20.86-3.28-32.34-7.6,3.75-14.76,7.25-21.87,10.86-.48.24-.9,1.34-.79,1.94.37,2.09.98,4.13,1.57,6.48,4.15-.98,8.14-1.93,12.14-2.86,2.94-.69,5.01.27,5.33,2.66.38,2.82-1.31,4-3.71,4.55-3.93.9-7.83,1.9-12.27,2.98,1.59,5.09,3.09,10,4.66,14.89,2.54,7.93-.67,14.29-8.42,16.62-5.07,1.52-10-1.07-11.31-5.96-1.36-5.06,1.29-9.91,6.3-11.45,1.58-.49,3.2-.83,4.84-1.24Zm27.74.43c-1.93.44-3.68.66-5.26,1.3-.6.24-.84,1.47-1.24,2.24.74.29,1.55.95,2.2.8,2.01-.47,3.85-1.37,4.31-4.34Zm-25.1,8.03c-.19-.4-.37-.8-.56-1.21-1.59.35-3.25.5-4.72,1.14-.69.3-1,1.55-1.49,2.37.84.25,1.88.95,2.48.66,1.54-.75,2.87-1.95,4.29-2.96Z" fill="#fff"/>
      <path d="m75.68,51.36c0-1.3,0-2.4,0-3.5,0-10.23.05-20.46-.03-30.69-.02-2.81.9-4.67,3.5-5.68,6.72-2.61,13.35-5.45,20.12-7.91,4.18-1.53,6.34.64,5.51,5.09-1.04,5.62-2.19,11.22-3.06,16.86-.44,2.87-1.84,4.23-4.46,4.9-4.11,1.04-8.13,2.44-12.22,3.51-1.76.46-2.29,1.32-2.27,3.18.09,9.21.05,18.41.03,27.62,0,4.39-1.01,5.41-5.23,5.42-6.31.02-12.61.03-18.92,0-3.55-.02-4.79-1.29-4.95-4.93-.38-8.68,5.47-14.93,13.79-14.63,2.62.09,5.24.47,8.19.75Zm21.11-39.5c-4.54,1.93-8.63,3.63-12.68,5.43-.53.23-1.19.95-1.21,1.47-.12,2.59-.06,5.18-.06,8.25,4.31-1.33,8.96-1.48,11.51-3.96,2.07-2.02,1.63-6.83,2.45-11.19Zm-21.49,50.81c1.16-3.13-.27-3.97-2.66-4.13-2.15-.15-4.3-.55-6.45-.54-2.81.01-4.4,1.7-4.7,4.67h13.81Z" fill="#fff"/>
      <path d="m173.63,79.79c-.59,1.16-.79,2.28-1.42,2.68-2.39,1.54-4.8,3.2-7.44,4.06-1.01.33-3.18-1.05-3.85-2.25-.98-1.74-.07-3.53,1.8-4.53,1.73-.93,3.36-2.1,5.16-2.81,1.07-.42,2.59-.57,3.56-.08.95.48,1.47,1.9,2.18,2.92Z" fill="#fff"/>
    </g>
  </g>
</svg>