<?xml version="1.0" encoding="UTF-8"?>
<svg id="Layer_2" data-name="Layer 2" xmlns="http://www.w3.org/2000/svg" viewBox="0 0 300 300">
  <g id="_레이어_1" data-name="레이어 1">
    <g>
      <path d="m245.85,300h54.15v-54.15c-29.91,0-54.15,24.24-54.15,54.15Z" fill="#fff"/>
      <path d="m0,272.34C0,287.61,12.38,299.99,27.66,299.99h85.05c0-3.76.14-7.48.36-11.19L0,175.73v96.61Z" fill="#fff"/>
      <path d="m299.99,112.72V27.66C299.99,12.38,287.61,0,272.34,0h-96.61l113.08,113.08c3.7-.22,7.43-.36,11.19-.36Z" fill="#fff"/>
      <path d="m27.66,0c-2.73,0-5.44.4-8.05,1.2l157.52,157.53c7.53-6.56,15.57-12.51,24.04-17.79L60.25,0H27.66Z" fill="#fff"/>
      <path d="m0,27.66v32.59l140.92,140.93c5.28-8.47,11.23-16.51,17.79-24.04L1.2,19.61C.4,22.22,0,24.93,0,27.66Z" fill="#fff"/>
      <path d="m0,138.91l117.8,117.8c2.54-10.76,6.04-21.26,10.44-31.4L0,97.07v41.84Z" fill="#fff"/>
      <path d="m138.91,0h-41.84l128.24,128.25c10.14-4.41,20.65-7.9,31.4-10.44L138.91,0Z" fill="#fff"/>
    </g>
  </g>
</svg>