<?xml version="1.0" encoding="UTF-8"?>
<svg id="Layer_2" data-name="Layer 2" xmlns="http://www.w3.org/2000/svg" viewBox="0 0 300 300">
  <g id="_레이어_1" data-name="레이어 1">
    <g>
      <path d="m300,150C300,67.16,232.84,0,150,0S0,67.16,0,150c0,.32.02.63.02.95,0,.22-.02.44-.02.67,0,1.19.05,2.37.13,3.55,2.83,82.77,72.22,147.57,154.99,144.74,78.8-2.69,142.05-65.95,144.74-144.74.08-1.18.13-2.36.13-3.55,0-.22-.02-.45-.02-.67,0-.32.02-.63.02-.95ZM150,10.85h0c62.73.02,117.69,41.99,134.22,102.5-18.09-20.47-50.44-35.98-90.22-42.62-9.56-24.31-37.01-36.26-61.32-26.7-12.22,4.81-21.9,14.48-26.7,26.7-39.78,6.65-72.13,22.15-90.22,42.62C32.3,52.84,87.27,10.86,150,10.85Zm0,278.28h0c-60.91,0-114.74-39.61-132.88-97.76,16.28,17.52,43.14,31.23,76.12,38.62l1.04,2.79,13.17,35.18h85.1l13.17-35.18,1.04-2.79c32.99-7.39,59.85-21.1,76.12-38.62-18.14,58.15-71.97,97.75-132.89,97.76Zm139.04-134.59c-2.05,27.75-33.15,51.54-77.65,63.12l11.52-30.77,3.7-9.89h-41.28c-15.28,0-29.13,9.02-35.31,23-6.19-13.97-20.03-22.98-35.31-22.99h-41.28l3.7,9.89,11.52,30.77c-44.5-11.59-75.59-35.38-77.65-63.12-.04-1.2-.08-2.39-.09-3.59.53-31.64,38.8-58.51,92.18-68.63-.23,1.9-.35,3.8-.35,5.72,0,26.12,21.17,47.29,47.29,47.29s47.29-21.17,47.29-47.29c0-1.91-.12-3.82-.36-5.72,53.38,10.12,91.66,36.99,92.18,68.64,0,1.21-.05,2.39-.09,3.58h0Z" fill="#fff"/>
      <path d="m150,145.64h0c-18.62-.01-36.08-9.02-46.87-24.19l-17.99,45.27h29.55c13.33,0,26.09,5.45,35.31,15.08,9.23-9.63,21.98-15.07,35.31-15.08h29.55l-18-45.26c-10.79,15.17-28.25,24.18-46.87,24.19Z" fill="#fff"/>
    </g>
  </g>
</svg>