<?xml version="1.0" encoding="UTF-8"?>
<svg id="Layer_2" data-name="Layer 2" xmlns="http://www.w3.org/2000/svg" viewBox="0 0 300 300">
  <g id="_레이어_1" data-name="레이어 1">
    <g>
      <g>
        <ellipse cx="92.16" cy="88.43" rx="5.58" ry="15.2" fill="#fff"/>
        <path d="m110.64,92.1c3.08,0,5.58-6.81,5.58-15.2s-2.5-15.21-5.58-15.21-5.58,6.81-5.58,15.2,2.5,15.21,5.58,15.21Z" fill="#fff"/>
        <path d="m129.12,79.96c3.08,0,5.58-6.81,5.58-15.2s-2.5-15.2-5.58-15.2-5.58,6.81-5.58,15.2,2.5,15.2,5.58,15.2Z" fill="#fff"/>
        <path d="m147.6,67.84c3.08,0,5.58-6.81,5.58-15.2s-2.5-15.2-5.58-15.2-5.58,6.81-5.58,15.2,2.5,15.2,5.58,15.2Z" fill="#fff"/>
        <path d="m166.08,55.71h0c3.08,0,5.58-6.8,5.58-15.2s-2.5-15.2-5.58-15.2-5.57,6.81-5.57,15.2,2.5,15.2,5.58,15.2Z" fill="#fff"/>
        <path d="m184.55,43.58h0c3.08,0,5.58-6.8,5.58-15.2s-2.5-15.2-5.58-15.2-5.58,6.81-5.58,15.2,2.5,15.2,5.58,15.2Z" fill="#fff"/>
        <path d="m203.03,30.4h0c3.08,0,5.58-6.8,5.58-15.2s-2.5-15.2-5.58-15.2-5.58,6.81-5.58,15.2,2.5,15.2,5.58,15.2Z" fill="#fff"/>
        <path d="m184.8,102.45h0c-1.08,1.44-1.45,3.29-1,5.03l1.22,4.99c1.19,4.27-.56,8.82-4.31,11.19-33.77,18.74.47,97.96,7.67,113.65.59,1.5,2,2.52,3.61,2.6h21.43V100.89h-25.64c-1.18.04-2.28.61-2.98,1.56Z" fill="#fff"/>
        <path d="m184.29,239.19h0c-1.24-2.69-2.78-6.17-4.46-10.17h-81.5l115.09,70.98v-55.58h-21.42c-3.38-.07-6.4-2.12-7.71-5.23Z" fill="#fff"/>
        <path d="m211.82,20.91c-.8,7.53-3.6,14.01-8.8,14.01-2.98,0-5.17-2.15-6.65-5.39l-2.87,1.6c-.5,8.31-3.32,15.92-8.95,15.92-3.42,0-5.8-2.82-7.26-6.88l-2.19,1.22c-.17,8.99-2.98,17.78-9.03,17.78-3.84,0-6.37-3.54-7.75-8.42l-1.69.94c0,.31.02.62.02.94,0,9.29-2.8,18.66-9.05,18.66-4.25,0-6.89-4.33-8.16-10.02l-1.36.76c.05.9.09,1.81.09,2.72,0,9.29-2.8,18.66-9.05,18.66-4.65,0-7.38-5.18-8.48-11.66l-1.18.66c.15,1.48.23,2.97.23,4.47,0,9.29-2.8,18.67-9.05,18.67-5.05,0-7.84-6.11-8.73-13.35l-1.07.6c.24,1.87.37,3.75.36,5.64,0,7.94-2.05,15.91-6.54,18.08v118h83.31c-12.59-31.28-29.96-87.88.54-104.8,1.94-1.4,2.79-3.87,2.12-6.17l-1.22-4.99c-.77-3.09-.1-6.36,1.83-8.88,1.55-2.05,3.96-3.26,6.53-3.29h25.64V20.02l-1.59.89Z" fill="#fff"/>
      </g>
      <rect width="300" height="300" fill="none"/>
    </g>
  </g>
</svg>