<?xml version="1.0" encoding="UTF-8"?>
<svg id="Layer_2" data-name="Layer 2" xmlns="http://www.w3.org/2000/svg" viewBox="0 0 300 300">
  <g id="_레이어_1" data-name="레이어 1">
    <g>
      <g>
        <path d="m297.23,129.82c-.43-1.73-1.52-3.22-3.03-4.15-.71-.26-1.45-.4-2.19-.4-.04,0-.08.01-.12.01-.21-.02-.43-.04-.64-.04-.87,0-1.73.17-2.53.5-.54.21-10,3.14-26.61,8.27-.13,0-.27.02-.4.02-3.31,0-6.54-1.41-8.8-4-86.42-87.06-88.94-89.86-88.94-89.86-1.53-1.7-5.06-5.49-9.55-5.49-.08,0-.16,0-.24,0-2.53.07-5.01,1.53-7.85,4.36C99.24,85.93,52.17,132.85,5.15,179.81c-6.92,6.91-6.86,11.17.12,18.17,10.66,10.69,21.35,21.35,32.06,32-.02,0-.04-.01-.06-.01-.05,0-.08.01-.11.04-.74.89,11.22,11.21,20.78,20.68,9.27,9.18,20.65,13.41,33.97,14.63,3.87-.03,7.72-.66,11.39-1.88,2.12-.72,6.95-2.86,8.87-3.71-.02,0-.03,0-.04,0-.19,0,9.8-4.61,23.11-10.7,21.8-9.75,43.53-19.67,65.3-29.5.88-.4,1.76-.79,2.64-1.19,35.64-14.39,46.16-20.12,58.66-26.45,3.88-1.79,7.76-3.56,11.62-5.38,21.53-9.78,31.89-34.5,23.75-56.7Zm-76.85,74.17c-6.53,2.92-13.05,5.84-19.57,8.78-1,.41-2.03.82-3.07,1.24-2.22.89-30.71,13.85-45.46,20.58-6.47,2.95-12.89,5.88-18.73,8.55-7.43,3.32-14.87,6.64-22.27,9.89-4.24,1.86-8.87,3.08-13.78,4.37-1.94.51-3.93,1.03-5.91,1.6-6.12-.65-11.47-1.97-16.23-4.01,1.44.12,3.05.21,4.81.21,11.07,0,21.1-3.25,28.99-9.41,12.43-9.71,18.29-21.59,16.52-33.46-1.67-11.2-7.07-19.74-15.79-25.13,83.97-25.8,129.08-39.68,153.28-47.15,1.49-.12,2.95-.43,4.37-.92,8.16-2.29,19.94-6.23,23.12-7.3,0,.02.02.04.03.07,6.98,19.1-2.04,40.7-20.58,49.21-4.33,2.05-8,3.88-11.45,5.63-12.79,5.88-25.69,11.65-38.28,17.28Zm-210.82-10.3c-3.32-3.33-3.5-4.65-3.5-4.88,0-.22.15-1.5,3.37-4.71,46.79-46.72,94.29-94.08,141.18-140.76,2.4-2.38,3.48-2.59,3.75-2.6h.06c1.26,0,2.96,1.17,5.04,3.48.27.3,5.04,5.36,89.02,89.96,1.03,1.15,2.2,2.13,3.47,2.96-34.89,10.75-92.2,28.37-161.48,49.66,2.93.46,5.81,1.16,8.62,2.1,11.9,3.79,18.75,12.04,20.58,24.31,2.22,14.91-11.53,25.65-14.26,27.79-8.52,6.64-18.18,8.13-25.26,8.13-4.57,0-8.07-.62-9.5-.87-3.07-.54-5.96-1.36-8.66-2.36-17.45-17.24-35.09-34.8-52.43-52.2Z" fill="#fff"/>
        <path d="m112.99,259.37s-.31.14-.81.36c.04-.01.11-.04.21-.08.42-.19.6-.28.6-.28Z" fill="#fff"/>
      </g>
      <rect x="0" width="300" height="300" fill="none"/>
    </g>
  </g>
</svg>