<?xml version="1.0" encoding="UTF-8"?>
<svg id="Layer_2" data-name="Layer 2" xmlns="http://www.w3.org/2000/svg" viewBox="0 0 300 300">
  <g id="_레이어_1" data-name="레이어 1">
    <g id="_08교육_shape_08_0001" data-name=" 08교육 shape 08 0001">
      <path id="_패스_180" data-name="패스 180" d="m269.35,106.27h-11.97v41.91c0,28.22-11.74,46.34-46.58,46.34h-98.43v8.11c-.02,16.91,13.66,30.63,30.56,30.66h60.9l37.87,37.89c3.98,3.99,10.45,3.99,14.44,0,1.92-1.92,3-4.52,3-7.24v-30.66h10.22c16.92-.03,30.63-13.74,30.64-30.66v-65.69c-.01-16.92-13.72-30.64-30.64-30.67h0Z" fill="#fff"/>
      <path id="_패스_181" data-name="패스 181" d="m57.01,77.29c-3.02,0-5.98,2.1-8.9,6.31s-5.05,10.86-6.4,19.98h29.74c-1.35-9.12-3.4-15.78-6.16-19.98-2.76-4.2-5.52-6.31-8.28-6.31Z" fill="#fff"/>
      <path id="_패스_182" data-name="패스 182" d="m214.51,25.83H30.64C13.72,25.85.02,39.57,0,56.49v94.96c.01,16.92,13.72,30.64,30.64,30.67h10.22v40.89c0,5.64,4.56,10.22,10.2,10.22,2.72,0,5.32-1.08,7.24-3l48.08-48.11h108.13c16.92-.03,30.63-13.74,30.64-30.66V56.49c-.01-16.92-13.72-30.64-30.64-30.66ZM84.72,126.01c.14,1.96-.33,3.91-1.35,5.59-.93,1.23-2.41,1.92-3.95,1.83h-3.75c-.8.06-1.58-.22-2.17-.77-.54-.68-.79-1.54-.72-2.41v-6.16c0-2.44-.05-4.76-.14-6.98-.1-2.22-.24-4.38-.43-6.5h-31.37c-.19,2.12-.33,4.28-.43,6.5-.1,2.22-.15,4.51-.15,6.88v8.47h-11.93v-10.01c-.1-7.84.66-15.67,2.27-23.35,1.2-5.88,3.29-11.55,6.21-16.8,2.23-4.05,5.36-7.54,9.14-10.21,3.25-2.25,7.11-3.46,11.07-3.47,3.79.04,7.47,1.25,10.54,3.47,3.68,2.67,6.7,6.17,8.8,10.21,2.85,5.27,4.91,10.93,6.11,16.8,1.61,7.68,2.36,15.51,2.26,23.35v3.56Zm63.66-3.23c-1.09,2.33-2.72,4.36-4.76,5.92-2.56,1.92-5.47,3.33-8.57,4.14-4.2,1.11-8.54,1.63-12.89,1.54h-6.93c-.38,0-1.43-.05-3.13-.14-1.79-.12-3.56-.49-5.24-1.11-1.87-.65-3.58-1.7-5-3.08-1.56-1.62-2.36-3.82-2.21-6.07v-44.97c-.1-2.01.55-3.99,1.83-5.54,1.17-1.34,2.61-2.41,4.24-3.13,1.58-.68,3.25-1.15,4.95-1.39,1.23-.19,2.46-.3,3.7-.34h6.35c4.36-.11,8.7.44,12.89,1.64,2.96.87,5.73,2.27,8.18,4.14,1.84,1.47,3.29,3.37,4.23,5.54.8,1.84,1.22,3.82,1.25,5.83.14,3.25-.92,6.44-2.98,8.95-2.28,2.48-5.27,4.2-8.57,4.91,1.82.46,3.58,1.14,5.24,2.02,1.66.87,3.18,2.01,4.47,3.37,1.36,1.37,2.46,2.99,3.22,4.77.82,1.9,1.22,3.95,1.2,6.02,0,2.41-.5,4.79-1.49,6.98h0Zm68.47-39.91c.05.47-.07.95-.34,1.35-.15.21-.37.35-.63.39-.11,0-.23-.01-.34-.05-.11-.05-.2-.13-.24-.24-2.44-1.97-5.19-3.54-8.13-4.62-3.28-1.05-6.71-1.53-10.15-1.44-3.14-.04-6.26.52-9.19,1.64-5.62,2.13-10.01,6.62-12.03,12.28-1.17,3.29-1.75,6.76-1.68,10.26-.06,3.27.51,6.52,1.68,9.58,1.05,2.68,2.67,5.1,4.76,7.08,2.09,1.94,4.56,3.42,7.27,4.33,2.96.99,6.07,1.48,9.19,1.44,3.48.09,6.96-.45,10.25-1.59,2.77-1.05,5.38-2.49,7.75-4.28.14-.07.26-.15.39-.24.14-.1.31-.15.48-.14.29.02.54.18.67.43.2.3.3.65.29,1.01v2.12c.12,1.81-.16,3.62-.82,5.3-.38.83-.96,1.56-1.68,2.12-2.63,1.79-5.59,3.05-8.71,3.71-3.14.72-6.35,1.09-9.58,1.11-4.73.06-9.43-.71-13.9-2.26-4.02-1.39-7.71-3.61-10.83-6.5-3.04-2.8-5.43-6.23-6.98-10.06-1.68-4.18-2.51-8.64-2.45-13.14-.06-4.74.77-9.44,2.45-13.87,1.54-4.02,3.92-7.67,6.98-10.69,3.1-3,6.78-5.33,10.83-6.84,4.45-1.65,9.16-2.47,13.9-2.41,3.24.02,6.47.39,9.62,1.11,3.12.64,6.07,1.94,8.66,3.8.68.66,1.25,1.42,1.68,2.26.66,1.6.94,3.33.82,5.06v2.02Z" fill="#fff"/>
      <path id="_패스_183" data-name="패스 183" d="m129.85,104.45c-2.15-.79-4.4-1.25-6.69-1.35-2.41-.13-4.67-.19-6.79-.19-.2,0-.4-.05-.58-.14-.21-.13-.32-.38-.29-.63v-3.56c-.01-.23.1-.45.29-.58.17-.12.37-.19.58-.19,2.2,0,4.4-.11,6.59-.34,2.05-.18,4.05-.72,5.92-1.59,3.88-1.51,6.31-5.39,5.97-9.53,0-3.27-1.25-5.62-3.75-7.03s-6.13-2.12-10.87-2.12h-5.87c-.78-.04-1.55.23-2.12.77-.51.51-.79,1.21-.77,1.93v43.33c-.05.73.24,1.43.77,1.93.6.48,1.35.72,2.12.67h6.64c2,0,3.99-.16,5.97-.48,1.79-.27,3.52-.86,5.1-1.73,1.39-.81,2.57-1.93,3.47-3.27.95-1.53,1.41-3.3,1.35-5.1,0-3.08-.67-5.46-2.02-7.13-1.31-1.65-3.04-2.91-5.01-3.66Z" fill="#fff"/>
      <rect id="_사각형_5" data-name="사각형 5" width="300" height="300" fill="none"/>
    </g>
  </g>
</svg>