<?xml version="1.0" encoding="UTF-8"?>
<svg id="Layer_2" data-name="Layer 2" xmlns="http://www.w3.org/2000/svg" viewBox="0 0 300 300">
  <g id="_레이어_1" data-name="레이어 1">
    <g id="_08교육_shape_08_0002" data-name=" 08교육 shape 08 0002">
      <rect id="_사각형_5" data-name="사각형 5" x="0" width="300" height="300" fill="none"/>
      <path id="_패스_351" data-name="패스 351" d="m296.16,102.08l-144.64-42.86c-.99-.29-2.05-.29-3.05,0L3.84,102.08c-2.84.84-4.46,3.82-3.62,6.66.51,1.74,1.88,3.11,3.62,3.62l144.64,42.86c.99.29,2.05.29,3.05,0l105.62-31.3v74.37c-2.62,0-4.86,1.89-5.28,4.48l-5.35,32.14c-.49,2.92,1.49,5.68,4.41,6.16.29.05.58.07.88.07h21.43c2.96,0,5.36-2.4,5.36-5.36,0-.29-.02-.59-.07-.88l-5.36-32.14c-.43-2.58-2.66-4.48-5.28-4.48v-77.54l28.31-8.39c2.84-.84,4.46-3.82,3.62-6.66-.51-1.74-1.88-3.11-3.62-3.62h0Z" fill="#fff"/>
      <path id="_패스_352" data-name="패스 352" d="m150,166.14c-1.54,0-3.07-.22-4.55-.66l-75.8-22.46v60.61c0,18.4,41.65,26.78,80.35,26.78s80.35-8.38,80.35-26.78v-60.61l-75.79,22.46c-1.48.44-3.02.66-4.57.66Z" fill="#fff"/>
    </g>
  </g>
</svg>