<?xml version="1.0" encoding="UTF-8"?>
<svg id="Layer_2" data-name="Layer 2" xmlns="http://www.w3.org/2000/svg" viewBox="0 0 300 300">
  <g id="_레이어_1" data-name="레이어 1">
    <g>
      <g>
        <polygon points="233.17 115.45 213.91 86.61 161.36 177.63 216.97 162.19 204.37 138.95 201.9 134.4 206.34 131.71 233.17 115.45" fill="#fff"/>
        <path d="m273.45,86.61h0s-53.59,0-53.59,0l20.98,30.55-31.7,19.2,15.85,29.25-75.01,20.83h0s23.65-40.96,23.65-40.96l-20.71-36.83,12.73-22.04h-31.32l12.73,22.04-20.71,36.83,23.65,40.96-75-20.84,15.85-29.25-31.71-19.19,20.09-30.55H26.55c-14.66,0-26.55,11.89-26.55,26.55h0v123.66c0,14.66,11.89,26.55,26.55,26.55h246.9c14.66,0,26.55-11.89,26.55-26.55v-123.66c0-14.66-11.88-26.55-26.55-26.55Z" fill="#fff"/>
        <polygon points="93.66 131.7 98.1 134.39 95.63 138.95 83.03 162.19 138.64 177.64 86.09 86.6 66.83 115.45 93.66 131.7" fill="#fff"/>
        <path d="m108.49,76.06v-24.91c0-4.51,3.66-8.17,8.17-8.17h65.85c4.51,0,8.17,3.66,8.17,8.17v31.26h6.34v-31.26c0-8.01-6.5-14.51-14.51-14.51h-65.86c-8.01,0-14.51,6.5-14.51,14.51v31.26h6.34v-6.34Z" fill="#fff"/>
        <path d="m106,97.22h0c2.93,0,5.3-2.38,5.3-5.31s-2.37-5.3-5.3-5.3c-2.93,0-5.3,2.37-5.3,5.3h0c0,2.93,2.37,5.31,5.3,5.31Z" fill="#fff"/>
        <path d="m188.69,91.91h0c0,2.93,2.38,5.3,5.3,5.3,2.93,0,5.3-2.38,5.3-5.3,0-2.93-2.37-5.3-5.3-5.3s-5.3,2.37-5.3,5.3Z" fill="#fff"/>
      </g>
      <rect width="300" height="300" fill="none"/>
    </g>
  </g>
</svg>