<?xml version="1.0" encoding="UTF-8"?>
<svg id="Layer_2" data-name="Layer 2" xmlns="http://www.w3.org/2000/svg" viewBox="0 0 300 300">
  <g id="_레이어_1" data-name="레이어 1">
    <g>
      <path id="_합치기_31" data-name="합치기 31" d="m76.02,298.79l-3.06-1.72-3.06-1.72c-4.55-2.56-6.16-8.32-3.61-12.87.12-.21.24-.41.37-.6l26.12-39.36c2.89-4.34,1.7-10.21-2.64-13.09-.19-.13-.39-.25-.6-.36-10.36-5.83-14.03-18.95-8.21-29.31l4.12-7.32,70.43,39.62-4.11,7.32c-5.82,10.36-18.94,14.03-29.3,8.21,0,0,0,0,0,0-4.55-2.56-10.31-.94-12.86,3.61-.11.2-.22.4-.32.61l-20.08,42.77c-1.56,3.32-4.9,5.44-8.57,5.44-1.62,0-3.21-.41-4.63-1.21Zm84.38-90.13c-4.03-1.93-5.73-6.76-3.8-10.79.08-.16.16-.31.24-.46l-2.78,4.95c-2.07,3.8-6.72,5.36-10.66,3.58-4.03-1.93-5.73-6.76-3.8-10.79.08-.16.16-.32.24-.47l4.61-8.19c-2.19,3.89-7.11,5.26-11,3.08-3.89-2.18-5.27-7.11-3.09-10.99,0,0,0,0,0-.01l-.77,1.36c-2.07,3.8-6.72,5.35-10.66,3.57-4.03-1.93-5.73-6.75-3.8-10.78.08-.16.16-.32.25-.47l-2.39,4.25c-2.07,3.8-6.72,5.36-10.66,3.58-4.03-1.92-5.73-6.74-3.81-10.77.08-.16.16-.33.25-.48l9.89-17.59c.25-.43.53-.84.85-1.21.05-.07.11-.13.15-.2.3-.34.64-.65.99-.94.07-.07.15-.12.23-.17.36-.27.75-.51,1.15-.72.04-.03.1-.04.15-.07.37-.18.75-.33,1.14-.45.1-.03.19-.06.29-.09.33-.09.67-.15,1.01-.2,1.25-.16,2.13-1.29,1.98-2.54,0-.08-.02-.15-.04-.23l-2.78-11.7c-.97-4.09-3.6-7.58-7.26-9.64l-58.18-32.75,86.79-51.4.19,17c-.1,5.15,4,9.41,9.16,9.51.47,0,.95-.02,1.42-.08,5.07-.68,8.64-5.32,8-10.4-1.32-10.7.93-21.54,6.41-30.83,13.12-22.09,41.01-30.39,64.07-19.08,24.28,12.03,34.21,41.47,22.18,65.75-.75,1.5-1.57,2.97-2.46,4.39-12.83,20.39-41.99,28.5-63.51,17.67-6.39-3.2-12-7.76-16.44-13.36-2.33-2.94-6.19-4.19-9.8-3.18l-11.85,3.32c-4.06,1.14-6.86,4.86-6.81,9.08l.57,51.07-3.27-1.84c-1.26-.71-2.86-.26-3.57,1-.32.57-.42,1.25-.26,1.89l3.18,13.35c.19.79.7,1.46,1.41,1.87.48.27.93.59,1.34.94,1.19,1.04,2.06,2.4,2.48,3.93.58,2.06.31,4.27-.74,6.14.91-1.61,2.35-2.85,4.07-3.51.48-.19.98-.33,1.48-.43,1.31-.26,2.67-.19,3.95.21.53.17,1.03.39,1.51.66.48.27.92.58,1.33.94,1.19,1.04,2.06,2.4,2.48,3.93.58,2.07.31,4.28-.74,6.14,1.05-1.87,2.8-3.25,4.87-3.82,2.06-.58,4.27-.31,6.14.74.47.27.92.59,1.33.95,1.19,1.04,2.06,2.4,2.48,3.93.58,2.06.31,4.27-.74,6.14.26-.46.56-.9.91-1.3l.04-.06c.33-.37.69-.71,1.08-1.02.03-.02.07-.06.1-.08.38-.29.78-.54,1.2-.76.05-.02.09-.05.14-.07.42-.2.85-.37,1.29-.5l.17-.05c.44-.12.89-.2,1.34-.24.07,0,.13-.01.2-.02.45-.04.91-.03,1.36.02.07,0,.14,0,.21.02.46.06.91.15,1.35.28.07.02.14.05.21.07.45.15.89.34,1.31.57.03,0,.06.02.09.03l.1.08c.12.07.24.13.36.21.15.11.28.23.43.35.22.16.43.33.63.51.15.14.3.3.43.46.24.25.47.52.67.8.03.06.07.12.11.18,1.7,2.52,1.83,5.78.35,8.43l-.13.24-7.88,14c-1.48,2.65-4.27,4.3-7.3,4.33-1.16,0-2.31-.25-3.36-.74Z" fill="#fff"/>
      <rect width="300" height="300" fill="none"/>
    </g>
  </g>
</svg>