<?xml version="1.0" encoding="UTF-8"?>
<svg id="Layer_2" data-name="Layer 2" xmlns="http://www.w3.org/2000/svg" viewBox="0 0 300 300">
  <g id="_레이어_1" data-name="레이어 1">
    <g>
      <g>
        <path d="m159.08,51.09c-2.89-1.49-5.71-3.1-8.57-4.65h-1.03c-.7.46-1.37.99-2.11,1.38-19.17,9.94-38.35,19.86-57.53,29.78-2.71,1.4-5.4,2.84-8.2,4.31.36.51.53.8.75,1.05,7.16,8.28,14.29,16.57,21.53,24.77.84.78,1.95,1.21,3.09,1.21,28.69.06,57.38.06,86.07-.01,1.3-.06,2.53-.61,3.45-1.54,6.19-6.83,12.24-13.78,18.34-20.7,1.35-1.53,2.68-3.08,4.11-4.72-.93-.52-1.59-.92-2.27-1.27-19.21-9.87-38.41-19.74-57.62-29.61Z" fill="#fff"/>
        <path d="m111.2,121.02c-.11.44-.19.89-.23,1.34,0,7.15-.27,14.31.07,21.45,1.03,21.23,13.68,35.35,33.94,38.23,20.5,3.28,39.78-10.69,43.06-31.19.04-.22.07-.44.1-.66,1.2-8.55.65-17.35.9-26.03.03-1.01,0-2.02,0-3.13h-77.83Z" fill="#fff"/>
        <path d="m266.46,37.89c.06-8.36-2.56-12.06-10.87-13.75-33.35-6.77-66.59-14.1-99.84-21.33-4.71-1.07-9.6-1.08-14.31-.03-33.21,7.44-66.41,14.97-99.7,22.06-6.34,1.35-8.23,4.17-8.16,10.32.26,25.18.11,50.37.11,75.56h.03c0,23.77-.43,47.56.1,71.31.75,33.36,15.49,59.27,44.18,76.56,21.12,12.73,42.92,24.33,64.12,36.93,6.02,3.58,10.58,3.09,16.32-.29,20.04-11.78,40.4-23.01,60.53-34.64,30.81-17.81,46.9-44.59,47.21-80.07.41-47.54-.08-95.09.29-142.63Zm-42.71,185.92h-43.42v-11.9h43.42v11.9Zm34.64-40.84c.06,15.78-4.61,31.22-13.41,44.32v-14.27c.02-11.2-5.07-18.95-15.35-23.37-1.12-.48-2.23-.96-3.37-1.46l-21.69-9.56c-.24-.15-.5-.28-.76-.39-1.02-.4-2.02-.84-3.02-1.27l-5.57-2.45-36.13,21.43.2.6c-.16.4-.23.83-.2,1.26.07,4.9.03,9.8.03,14.7v73.37c-.86.49-1.72.98-2.57,1.48-3.75,2.64-8.74,2.73-12.58.22-.58-.33-1.16-.66-1.75-1v-74.08c0-4.9-.05-9.8.03-14.7.03-.43-.04-.86-.2-1.26l.2-.6-36.12-21.43-5.57,2.45c-1,.43-2,.88-3.02,1.27-.26.11-.52.24-.76.39l-21.72,9.56c-1.14.49-2.26.98-3.37,1.46-10.28,4.42-15.37,12.15-15.35,23.37,0,5.39.01,10.78.01,16.16-9.56-13.21-14.52-29.07-14.85-47.3-.4-22.63-.08-45.27-.08-67.91h-.13c0-24.05.14-48.1-.09-72.15-.06-6.39,1.91-9.64,8.6-11.04,31.08-6.52,62.07-13.49,93.08-20.39,4.46-.88,9.06-.76,13.47.35,31.32,6.78,62.61,13.67,93.98,20.21,6.14,1.28,8.38,4,8.36,10.27-.2,47.25.41,94.51-.3,141.75Z" fill="#fff"/>
      </g>
      <rect width="300" height="300" fill="none"/>
    </g>
  </g>
</svg>