<?xml version="1.0" encoding="UTF-8"?>
<svg id="Layer_2" data-name="Layer 2" xmlns="http://www.w3.org/2000/svg" viewBox="0 0 300 300">
  <g id="_레이어_1" data-name="레이어 1">
    <g>
      <g>
        <path d="m242.69,98.86v-18.61h-17.59v114.64l-43.21,17.79c-19.81-38.07-52.44-67.92-92.13-84.28-2.78-1.14-5.59-2.21-8.44-3.21-16.46-5.82-33.68-9.21-51.11-10.06v51.68c17.86,1.23,35.27,6.18,51.11,14.53,2.88,1.52,5.69,3.14,8.44,4.86,18.34,11.5,33.52,27.39,44.18,46.23l42.34-17.43-68.63,28.26c-4.93-8.05-10.95-15.38-17.89-21.77h0c-2.69-2.48-5.5-4.81-8.44-6.98-14.91-11.08-32.6-17.81-51.11-19.46v33.02c18.69,2.49,35.53,12.59,46.53,27.91l-8.08,3.33-21.39,8.81,22.78-9.38c-9.69-12.75-23.99-21.22-39.83-23.58v39.98h0s38.43,0,38.43,0v24.87h201.14V98.86h-27.1Zm18.67,192.7H77.09v-16.43h165.6V107.31h18.66v184.25Z" fill="#fff"/>
        <path d="m89.75,212.14c9.74,7.98,18.02,17.59,24.48,28.39l13.14-5.41c-9.3-16.19-22.17-30.05-37.61-40.54-2.73-1.86-5.54-3.6-8.44-5.24-15.68-8.89-33.14-14.18-51.11-15.49v14.12c18.29,1.52,35.88,7.69,51.11,17.94,2.91,1.95,5.74,4.01,8.44,6.23Z" fill="#fff"/>
        <path d="m89.75,120.83c42.6,16.79,77.65,48.47,98.66,89.16l36.67-15.1V0L30.21,80.25v27.84c17.4.82,34.6,4.07,51.11,9.66,2.84.96,5.66,1.99,8.44,3.09Z" fill="#fff"/>
      </g>
      <rect width="300" height="300" fill="none"/>
    </g>
  </g>
</svg>