<?xml version="1.0" encoding="UTF-8"?>
<svg id="_레이어_2" data-name="레이어 2" xmlns="http://www.w3.org/2000/svg" viewBox="0 0 300 300">
  <g id="_레이어_1-2" data-name="레이어 1">
    <g>
      <path d="m199.95,234.2c9.9,2.54,17.21-2.72,25.18-7.21v3.03c0,14.12.03,28.24,0,42.36-.05,16.17-11.32,27.56-27.49,27.58-55.2.05-110.39.05-165.59,0-16.07-.02-27.32-11.26-27.33-27.31-.04-81.81-.04-163.62,0-245.42C4.72,11.22,16.04.05,32.16.03c55.09-.04,110.18-.04,165.27,0,16.38.01,27.65,11.34,27.69,27.69.04,13.04-.03,26.08.05,39.13.01,1.98-.52,3.02-2.42,3.88-4.81,2.17-9.5,4.62-14.2,7.03-3.71,1.9-8.55-.85-8.55-4.95-.01-8.95-.37-17.91.08-26.83.64-12.57-8.96-21.7-20.85-20.94-5.92.38-11.88.11-17.82.05-6.38-.06-11.48,2.43-15.53,7.29-9.06,10.85-5.25,9.12-20,9.24-9.83.08-19.66-.06-29.49.06-3.41.04-6.18-.82-8.03-3.79-6.3-10.13-15.33-14.26-27.19-12.85-4.05.48-8.2.04-12.3.08-10.78.11-18.57,7.53-19.2,18.27-.05.86-.03,1.72-.03,2.59,0,65.21-.01,130.42.03,195.63,0,2.45.2,4.99.85,7.34,2.24,8.06,9.49,13.5,18.1,13.51,44.18.05,88.36.06,132.54,0,10.74-.02,18.72-8.24,18.8-18.96.02-3.01,0-6.01,0-9.28Zm-85.36,53.16s0-.01,0-.02c2.05,0,4.12.17,6.15-.04,3.36-.36,5.58-2.86,5.64-6.01.05-3.11-2.16-5.97-5.43-6.22-3.97-.3-7.99-.3-11.97-.04-3.44.23-5.73,3.12-5.62,6.37.11,3.13,2.37,5.57,5.74,5.92,1.81.19,3.67.03,5.5.03Z" fill="#fff"/>
      <path d="m278.48,96c4.02.93,7.81,1.73,11.54,2.69,3.87,1,5.27,2.84,5.27,6.99.02,33.62.03,67.24,0,100.86,0,5.48-3.52,8-8.86,6.44-9.97-2.92-20.04-5.14-30.46-5.69-15.59-.83-29.98,2.49-42.8,11.73-6.37,4.59-7.34,4.72-13.82.26-19.87-13.68-41.51-14.11-63.96-8.84-3.25.76-6.44,1.77-9.67,2.63-5.1,1.36-8.71-1.19-8.72-6.41-.05-33.73-.04-67.45,0-101.18,0-3.84,1.7-5.89,5.56-6.85,3.64-.91,7.33-1.65,11.25-2.53,0-3.49.15-6.93-.04-10.35-.22-4.04,1.67-6.41,5.22-8,11.01-4.92,22.29-4.47,33.13-.36,10.54,4,20.61,9.24,30.78,14.17,2.36,1.14,4.06,1.38,6.45.05,11.31-6.28,22.66-12.51,35.39-15.62,9.91-2.42,19.63-2.44,29.1,2,3.2,1.5,4.82,3.72,4.69,7.32-.13,3.53-.03,7.08-.03,10.69Zm-12.69,88.22c.09-.78.18-1.2.19-1.61.02-30.69,0-61.37.09-92.06,0-1.95-.73-2.62-2.47-2.98-6.3-1.3-12.67-1.02-18.48,1.37-10.13,4.16-19.94,9.1-29.93,13.61-2.18.98-2.87,2.31-2.86,4.68.08,31.44.06,62.88.06,94.32v3.79c3.91-2.48,7.2-4.65,10.56-6.68,13.13-7.94,26.17-16.18,42.85-14.43Zm-65.88,20.88v-26.15c0-24.02.02-48.03-.07-72.05,0-1.25-.67-3.15-1.61-3.64-8.4-4.37-16.8-8.79-25.47-12.58-7.16-3.14-14.8-4.62-22.75-3.41-2.54.39-3.84,1.14-3.83,4.24.15,29.72.08,59.45.09,89.17,0,1.13.12,2.25.19,3.42,21.31-1.71,36.54,11.18,53.44,20.99Z" fill="#fff"/>
      <path d="m255.59,107.88c-.13,2.65-1.65,4.6-4.39,5.8-6.09,2.67-12.16,5.38-18.19,8.19-4.14,1.93-7.76,1.15-9.45-2.27-1.64-3.3-.35-6.88,3.57-8.74,6.58-3.13,13.2-6.22,19.98-8.9,4.24-1.68,8.36,1.32,8.49,5.91Z" fill="#fff"/>
      <path d="m249.09,130.49c3.34,0,5.85,2.09,6.41,5.11.52,2.85-1.09,5.67-4.14,6.88-4.51,1.78-9.08,3.38-13.58,5.18-2.2.87-4.24,2.13-6.45,2.99-3.05,1.19-6.28-.11-7.71-2.89-1.45-2.82-.82-6.61,2.08-7.92,7.34-3.33,14.88-6.2,22.35-9.24.38-.16.85-.09,1.05-.11Z" fill="#fff"/>
      <path d="m248.53,159.39c3.7-.03,6.3,2.05,6.94,5.01.58,2.71-.91,5.79-3.64,6.84-6.91,2.64-13.85,5.19-20.82,7.65-2.9,1.02-6.05-.42-7.4-3.06-1.33-2.59-.91-6.01,1.58-7.53,7.4-4.51,15.49-7.34,23.35-8.91Z" fill="#fff"/>
      <path d="m163.59,101.49c.71.19,2.03.36,3.18.88,6.38,2.88,12.78,5.73,19.04,8.85,3.52,1.75,4.55,5.32,2.95,8.45-1.59,3.11-5.11,4.16-8.64,2.57-6.48-2.92-12.95-5.84-19.42-8.78-2.99-1.36-4.38-4.05-3.72-7.09.63-2.88,3.09-4.87,6.61-4.87Z" fill="#fff"/>
      <path d="m163.44,130.49c.44.09,1.44.16,2.32.51,6.49,2.61,13.02,5.12,19.4,7.97,4.01,1.79,5.29,5.37,3.64,8.68-1.65,3.31-5.17,4.15-9.16,2.46-6.14-2.6-12.36-5.03-18.53-7.56-3.24-1.32-4.78-4.01-4.14-7.14.59-2.95,2.92-4.87,6.48-4.93Z" fill="#fff"/>
      <path d="m189.5,171.94c-.12,5.44-4.35,8.31-8.51,6.81-6.66-2.39-13.29-4.86-19.92-7.32-3.3-1.23-4.87-4.15-4.04-7.42.78-3.08,3.65-5.45,6.8-4.45,7.74,2.46,15.37,5.33,22.87,8.45,1.5.63,2.24,3.09,2.8,3.91Z" fill="#fff"/>
      <rect width="300" height="300" fill="none"/>
    </g>
  </g>
</svg>