<?xml version="1.0" encoding="UTF-8"?>
<svg id="Layer_2" data-name="Layer 2" xmlns="http://www.w3.org/2000/svg" viewBox="0 0 300 300">
  <g id="_레이어_1" data-name="레이어 1">
    <g>
      <g>
        <path d="m299.97,151.25c.05-2.38-.69-2.82-2.87-2.82-36.4.07-72.8,0-109.19.08-11.93-.1-23.41,4.54-31.91,12.9-4.35,4.14-7.68,4.16-11.94.07-8.7-8.35-19.07-12.86-30.93-12.92-36.93-.18-73.86-.06-110.79-.11-1.83,0-2.33.53-2.31,2.37.09,7.64.15,15.28-.03,22.92-.06,2.48.59,3.03,2.97,3.01,19-.11,38-.06,57-.06,18.36,0,36.72,0,55.08,0,10.02,0,14.58,3.53,17.28,13.37,2.01,8.13,9.25,13.87,17.62,13.98,8.27.01,15.34-5.54,17.68-13.9,2.82-10.06,7.24-13.46,17.53-13.46,37.15-.04,74.29-.02,111.44.06,2.47,0,3.51-.29,3.41-3.23-.25-7.41-.18-14.84-.02-22.26Z" fill="#fff"/>
        <path d="m155,148.77c11.54-6.76,23.46-8.8,36.01-8.74,31.76.15,63.52,0,95.28.13,3.11.01,3.8-.92,3.66-3.8-.23-4.79-.17-9.6-.02-14.4.11-2.2-.82-4.33-2.52-5.75-3.06-2.86-7.12-4.42-11.31-4.35-15.61-.02-31.17-1.56-46.48-4.58-12.54-2.41-24.62-6.39-36.83-10.02-1.36-.42-2.75-.74-4.15-.96-15.79-2.44-30.57,8.39-33,24.18-1.49,9.17-.22,18.47-.64,28.28Z" fill="#fff"/>
        <path d="m13.43,140.14c31.43-.1,62.86.06,94.29-.12,12.97-.07,25.38,1.67,37.17,8.67,0-8.79.06-17.06-.04-25.34-.09-1.85-.4-3.68-.94-5.46-4.52-16.76-21.45-25.96-38.28-20.22-26.49,9.25-54.32,14.06-82.38,14.24-7.59.01-12.89,5.44-13.1,13.03-.11,3.93.17,7.87-.09,11.78-.18,2.73.64,3.43,3.37,3.42Z" fill="#fff"/>
      </g>
      <rect width="300" height="300" fill="none"/>
    </g>
  </g>
</svg>