<?xml version="1.0" encoding="UTF-8"?>
<svg id="Layer_2" data-name="Layer 2" xmlns="http://www.w3.org/2000/svg" viewBox="0 0 300 300">
  <g id="_레이어_1" data-name="레이어 1">
    <g>
      <g>
        <path d="m237.54,144.48c-29.13-.11-58.26-.05-87.39-.05v.04c-29.79,0-59.58.1-89.38-.07-6.92-.04-11.57,1.05-11.19,8.3.28,5.29-.4,10.42,8.28,11.22,5.22.65,10.36,1.76,15.38,3.34,35.26,9.88,62.07,22.46,42.74,66.86-10.79,24.8-2.64,45.42,16.63,59.39,12.31,8.92,23.07,8.49,34.97-.25,21.09-15.5,25.74-38.04,13.33-68-9.83-23.72-3.74-37.54,21.88-49.66,11.83-5.57,24.44-9.31,37.39-11.12,10.23-1.44,10.57-6.53,10.23-13.31-.39-8.24-7.3-6.67-12.87-6.69Zm-87.41,131.44c-9.92.23-16.21-5.13-16.47-13.81-.29-9.6,6.32-15.29,17.16-14.99.24-.01.48-.02.73-.02,8.32-.04,15.1,6.68,15.13,15h0c-.73,8.71-6.93,13.61-16.55,13.81Z" fill="#fff"/>
        <path d="m250.81,41.32c.17-7.9-3.42-12.69-10.14-17.28-46.83-31.98-133.16-32.07-180.94-.22-6.78,4.52-10.64,9.11-10.48,17.06.56,26.42.87,52.88-.05,79.28-.4,11.33,4.73,13.3,16.21,13.04,27.79-.62,55.6-.2,83.4-.19,29.13,0,58.27-.41,87.38.23,11.38.25,14.86-2.85,14.61-12.64-.66-26.42-.57-52.86,0-79.29ZM94.12,120.53h-21.59c-3.51,0-6.36-2.85-6.36-6.36V38.93c0-3.51,2.85-6.36,6.36-6.37h13.36v45.67c0,3.51,2.85,6.36,6.36,6.36h1.87v35.93Zm27.94-6.36h0s0,6.36,0,6.36h-27.07v-35.93h.99c3.51,0,6.36-2.85,6.36-6.36v-45.67h10.96v45.67c0,3.51,2.85,6.36,6.36,6.36h2.4v29.57Zm27.94,6.35h-27.19v-35.93h.59c3.51,0,6.36-2.85,6.36-6.36v-45.66h12.76v45.67c0,3.51,2.85,6.36,6.36,6.36h1.12v29.57h0s0,6.35,0,6.35Zm27.95-6.35h0s0,6.36,0,6.36h-27.19v-35.93h1.87c3.51,0,6.36-2.85,6.36-6.36v-45.66h10.73v45.67c0,3.51,2.85,6.36,6.36,6.36h1.87v29.57Zm27.95,6.36h-27.07v-35.93h1c3.51,0,6.36-2.85,6.36-6.36v-45.66h12.36v45.67c0,3.51,2.85,6.36,6.36,6.36h1v29.57h0s0,6.36,0,6.36Zm27.95-81.59v75.23c0,3.51-2.85,6.36-6.36,6.36h-20.71v-35.93h1.87c3.51,0,6.36-2.85,6.36-6.36v-45.66h12.48c3.51,0,6.36,2.85,6.36,6.36h0Z" fill="#fff"/>
      </g>
      <rect y="0" width="300" height="300" fill="none"/>
    </g>
  </g>
</svg>