<?xml version="1.0" encoding="UTF-8"?>
<svg id="_레이어_2" data-name="레이어 2" xmlns="http://www.w3.org/2000/svg" viewBox="0 0 300 300">
  <g id="_레이어_1-2" data-name="레이어 1">
    <g>
      <path d="m264.86,0c2.23.69,4.53,1.19,6.66,2.08,16.89,7.05,21.63,28.76,9.1,42.15-5.94,6.34-12.23,12.35-18.37,18.5-22.1,22.1-44.19,44.2-66.33,66.25-1.42,1.42-2.03,2.81-2.02,4.83.07,28.22.05,56.44.04,84.66,0,8.2-3.04,11.21-11.35,11.21-10.54,0-21.09,0-32.06,0,.38,1.19.67,2.15.98,3.11,6.07,18.22,12.16,36.43,18.22,54.65,1.71,5.14,0,9.68-4.29,11.69-4.81,2.25-10.14,0-12.05-5.3-2.05-5.68-3.89-11.43-5.83-17.19H58.67c-1.89,5.61-3.74,11.33-5.74,16.99-1.75,4.95-6.22,7.33-10.84,5.96-5.1-1.52-7.49-6.43-5.67-11.94,4.35-13.14,8.77-26.26,13.15-39.39,2.03-6.09,4.04-12.18,6.16-18.58-1.36,0-2.41,0-3.46,0-10.25,0-20.51.04-30.76-.02-5.51-.03-9.21-3.71-9.21-9.21-.02-58.68-.02-117.37,0-176.05,0-5.63,3.73-9.23,9.48-9.24,16.99-.03,33.99-.01,50.98-.01,1.17,0,2.34,0,3.81,0,.06-.9.17-1.73.17-2.56.01-6.93.24-13.88-.07-20.79C76.44,6.35,78.12,2.33,83.2,0h39.85c5.07,2.34,6.76,6.34,6.52,11.79-.3,6.91-.08,13.85-.07,20.77,0,.83.11,1.67.17,2.59,15.68,0,31.1.25,46.5-.07,16.36-.34,18.42,1.45,17.79,17.7-.04,1,0,2.01,0,3.02.31.15.61.29.92.44.63-.86,1.17-1.82,1.92-2.56,13.85-13.88,27.81-27.64,41.53-41.65C243.89,6.34,249.73,1.42,257.83,0,260.17,0,262.52,0,264.86,0Zm-88.65,148.4c-3.71,3.84-6.92,7.05-9.99,10.4-.87.95-1.62,2.2-1.95,3.45-3.26,12.55-11.16,20.56-23.57,23.99-12.5,3.45-25.05,6.67-37.6,9.92-8.03,2.08-13.67-3.46-11.61-11.44,3.26-12.65,6.48-25.3,9.99-37.88,3.46-12.39,11.5-20.29,24.1-23.44,1.15-.29,2.36-.98,3.2-1.81,15.44-15.35,30.83-30.75,46.2-46.16.58-.58,1.3-1.41,1.31-2.13.1-6.79.06-13.59.06-20.35H30.1v159.02h146.12v-63.56Zm-34.54,110.5c-3.05-9.17-6.05-18.01-8.9-26.9-.58-1.8-1.4-2.38-3.28-2.37-17.57.07-35.13.07-52.7,0-1.85,0-2.73.48-3.31,2.32-2.63,8.26-5.44,16.46-8.17,24.69-.23.69-.31,1.42-.49,2.25h76.86Zm78.44-178.96c.32-.28.62-.52.89-.8,15.26-15.25,30.52-30.5,45.76-45.76.62-.62,1.21-1.28,1.71-2,3.42-4.9,1.23-11.44-4.45-13.32-4.07-1.35-7.16.31-9.97,3.12-15.03,15.06-30.09,30.1-45.14,45.15-.45.45-.84.95-1.13,1.28,4.17,4.17,8.16,8.16,12.32,12.33Zm-58.86,58.17c15.03-15.05,30.36-30.39,45.42-45.47-3.84-3.83-7.89-7.87-11.54-11.52-15.14,15.13-30.47,30.47-45.44,45.43,3.71,3.71,7.67,7.66,11.56,11.55Zm-49.08,36.71c.23.24.45.48.68.73,8.77-2.46,17.67-4.55,26.27-7.51,5.91-2.03,9.24-8.93,8.37-14.96-.98-6.79-6.1-11.93-12.86-12.9-6.16-.88-13.09,2.57-15.12,8.6-2.87,8.54-4.94,17.34-7.35,26.04Zm-17.71-139.88h17.22v-17.22h-17.22v17.22Z" fill="#fff"/>
      <rect width="300" height="300" fill="none"/>
    </g>
  </g>
</svg>