<?xml version="1.0" encoding="UTF-8"?>
<svg id="_레이어_2" data-name="레이어 2" xmlns="http://www.w3.org/2000/svg" viewBox="0 0 300 300">
  <g id="_레이어_1-2" data-name="레이어 1">
    <g>
      <path d="m212.11,0c5.15.97,10.37,1.66,15.42,2.98,4.79,1.25,9.41,3.16,14.09,4.79,5.52,1.92,7.7,5.7,7.67,11.63-.17,35.53-.08,71.07-.08,106.6,0,.68.01,1.37-.01,2.05-.26,7.01-6.14,10.61-12.72,8.14-6.09-2.28-12.23-4.72-18.57-5.99-16.79-3.36-33-.31-48.66,6.01-4.68,1.89-9.21,4.23-13.61,6.73-3.9,2.21-7.37,2.23-11.26-.03-15.19-8.85-31.51-13.92-49.21-14.01-10.6-.05-20.67,2.29-30.36,6.57-1.98.88-4.31,1.58-6.41,1.45-4.57-.29-7.57-4.08-7.58-9.17-.03-36.7,0-73.41-.03-110.11,0-4.27,1.86-7.17,5.74-8.99,9.27-4.36,18.97-7.07,29.15-8.12.75-.08,1.48-.35,2.21-.54,5.27,0,10.55,0,15.82,0,.35.15.69.4,1.05.43,15.34,1.38,29.71,5.94,43.38,12.95,1.05.54,2.88.46,3.96-.1,9.41-4.81,19.22-8.53,29.55-10.73C186.67,1.49,191.79.84,196.87,0c5.08,0,10.16,0,15.23,0Zm-107.34,51.63c3.32,0,6.63.06,9.95-.01,5.08-.11,8.83-3.75,8.91-8.58.08-4.74-3.63-8.8-8.6-8.92-6.82-.17-13.65-.17-20.48,0-5.04.13-8.64,4.07-8.57,8.91.07,4.85,3.77,8.49,8.85,8.6,3.31.07,6.63.01,9.95.01Zm90.27,0c3.22,0,6.44,0,9.65,0,.2,0,.39,0,.59,0,4.94-.17,8.58-3.68,8.74-8.42.16-4.76-3.21-8.86-8.08-9.04-7.11-.27-14.24-.26-21.35-.01-4.8.17-8.35,4.36-8.21,8.98.14,4.7,3.83,8.35,8.72,8.47,3.31.09,6.63.02,9.95.02Zm-90.19,35.16c3.12,0,6.24,0,9.36,0,.2,0,.39,0,.59,0,4.92-.16,8.62-3.67,8.82-8.38.2-4.62-3.29-8.88-8.1-9.07-7.11-.29-14.24-.28-21.35-.02-5,.18-8.43,4.37-8.18,9.24.24,4.7,3.93,8.13,8.92,8.22,3.31.06,6.63.01,9.95.01Zm90.18,0c3.22,0,6.44,0,9.65,0,.2,0,.39,0,.59,0,4.93-.16,8.58-3.68,8.74-8.41.16-4.76-3.18-8.85-8.08-9.04-7.11-.28-14.24-.27-21.35-.01-4.81.17-8.35,4.36-8.21,8.98.14,4.81,3.91,8.39,9.01,8.48,3.22.06,6.44.01,9.65.01Z" fill="#fff"/>
      <path d="m300,182.22c-99.19,0-198.39.01-297.58.02-.67,0-1.34,0-2.42,0,0-1.2,0-2.23,0-3.26,0-43.05,0-86.11,0-129.16,0-7.22,3.32-10.53,10.57-10.54,7.41,0,14.82,0,22.64,0,0,1.44,0,2.67,0,3.91,0,28.02-.04,56.04.02,84.06.03,13.23,7.58,23.3,19.63,26.54,6.43,1.73,12.59.88,18.51-1.91,9.12-4.29,18.69-6.14,28.73-5.26,12.12,1.07,23.64,4.38,34.04,10.7,10.82,6.58,21.03,6.29,31.93-.05,14.41-8.38,30.09-12.57,46.87-10.1,5.5.81,10.89,2.93,16.11,5,10.59,4.21,20.28,3.2,28.97-4.29,5.51-4.74,8.43-10.91,8.68-18.22.14-4,.1-8,.1-12.01,0-24.9,0-49.79,0-74.69,0-1.15,0-2.29,0-3.64,8.73,0,17.11-.17,25.47.07,3.89.11,6.04,3.09,7.73,6.28v136.52Z" fill="#fff"/>
      <path d="m300,223.24c-2.34,5.07-6.37,6.55-11.81,6.52-36.03-.15-72.07-.08-108.1-.08h-3.58c0,7.86,0,15.43,0,23.01,4.9.54,9.89.67,14.69,1.7,15.78,3.41,27.23,11.86,31.12,28.38.6,2.54.82,5.21.87,7.83.11,5.61-3.65,9.36-9.31,9.37-12.79.04-25.58.01-38.38.01-29.39,0-58.79,0-88.18,0-7.36,0-10.78-3.52-10.54-10.81.53-15.9,11.21-29.28,27.45-33.6,6.16-1.64,12.6-2.17,19.21-3.25v-22.65h-3.49c-36.33,0-72.65,0-108.98,0-7.83,0-10.97-3.16-10.97-11.01,0-6.14,0-12.29,0-18.87h300v23.44Z" fill="#fff"/>
    </g>
  </g>
</svg>