<?xml version="1.0" encoding="UTF-8"?>
<svg id="Layer_2" data-name="Layer 2" xmlns="http://www.w3.org/2000/svg" viewBox="0 0 300 300">
  <g id="_레이어_1" data-name="레이어 1">
    <path id="_패스_771" data-name="패스 771" d="m233.22,233.22L0,0v278.99c0,11.6,9.4,21.01,21.01,21.01h23.93v-23.25c-.04-1.59,1.08-2.98,2.64-3.29,1.73-.29,3.36.87,3.66,2.6.03.17.04.35.04.53v23.42h20.81v-23.25c-.04-1.59,1.08-2.98,2.64-3.29,1.73-.29,3.36.87,3.66,2.6.03.17.04.35.04.53v23.42h20.82v-23.25c-.04-1.59,1.08-2.98,2.64-3.29,1.73-.29,3.36.87,3.66,2.6.03.17.04.35.04.53v23.42h20.82v-23.25c-.04-1.59,1.08-2.98,2.64-3.29,1.73-.29,3.36.87,3.65,2.59.03.18.04.35.04.53v23.42h20.82v-23.25c-.04-1.59,1.08-2.98,2.64-3.29,1.73-.29,3.36.87,3.66,2.59.03.18.05.35.04.53v23.42h20.82v-23.25c-.04-1.59,1.07-2.98,2.64-3.29,1.73-.29,3.36.87,3.66,2.59.03.18.04.35.04.53v23.42h112.96l-66.78-66.78Zm-185.11,18.68V116.13l135.76,135.76H48.1Z" fill="#fff"/>
  </g>
</svg>