<?xml version="1.0" encoding="UTF-8"?>
<svg id="_레이어_2" data-name="레이어 2" xmlns="http://www.w3.org/2000/svg" viewBox="0 0 300 300">
  <g id="_레이어_1-2" data-name="레이어 1">
    <path d="m25.01,300v-37.22H.22v-24.96h124.57v-53.03c31.62-5.9,57.46-24.48,86.4-37.03-3.86-7.75-7.48-15.02-11.25-22.6-4.4,2.19-8.63,4.27-12.84,6.38-12.2,6.11-24.37,12.28-36.6,18.34-16.98,8.41-34.95,12.72-53.92,12.73-14.03,0-28.05,0-42.08,0h-4.43v49.48c-10.38,0-20.46,1.05-30.23-.27C7.73,210.2.04,199.34.02,186.47c-.04-31.14-.01-62.28-.01-93.42,0-21.86,0-43.72,0-65.57C.02,10.48,10.41,0,27.32,0c81.71,0,163.42,0,245.13,0,16.97,0,27.43,10.42,27.43,27.34.01,52.63-.18,105.26.12,157.89.09,16.09-11.69,27.69-27.44,27.51-39.27-.44-78.54-.15-117.81-.15h-4.56v25.02h149.44v25.01h-24.61v37.36H25.01ZM87.5,62.64c-20.69,0-37.47,16.79-37.45,37.47.02,20.67,16.83,37.52,37.46,37.52,20.56,0,37.49-16.94,37.49-37.53,0-20.67-16.81-37.47-37.49-37.47Zm174.92-6.43c0-5.02-.2-9.76.07-14.48.19-3.34-.83-4.3-4.23-4.29-38.86.12-77.73.08-116.59.08h-3.94v18.69h124.7Zm-.17,19.25h-99.59v18.04h99.59v-18.04Z" fill="#fff"/>
  </g>
</svg>