<?xml version="1.0" encoding="UTF-8"?>
<svg id="_레이어_2" data-name="레이어 2" xmlns="http://www.w3.org/2000/svg" viewBox="0 0 300 300">
  <g id="_레이어_1-2" data-name="레이어 1">
    <g>
      <path d="m300,158.79v102.54c-.17.34-.42.66-.48,1.01-4.12,22.99-21.55,37.65-44.85,37.66-30.85.01-61.7,0-92.56,0-1.04,0-2.07,0-3.3,0v-3.54c0-19.14.02-38.28,0-57.41,0-6.6-4.29-10.29-10.82-9.39-2.61.36-5.18,1.04-7.8,1.19-5.8.34-10.53-4.22-10.66-10.04-.13-5.75,4.48-10.61,10.25-10.5,2.41.05,4.81.67,7.2,1.12,7.28,1.35,11.82-2.35,11.82-9.72.01-13.18,0-26.36,0-39.55,0-1.04,0-2.08,0-3.11h33.76c-.13,16.83,12.6,28.3,26.61,28.98,7.21.35,13.68-1.77,19.25-6.4,7.03-5.86,10.38-13.45,10.12-22.83h51.44Zm-46.97,65.14c5.07,0,9.83.05,14.59-.01,4.03-.05,7.05-2.17,8.36-5.71,2.24-6.05-2.18-11.81-9.21-11.84-15.03-.05-30.07-.03-45.1,0-1.16,0-2.35.15-3.46.45-3.85,1.06-6.4,4.54-6.34,8.49.06,3.91,2.76,7.49,6.57,8.33,1.59.35,3.3.26,4.95.27,3.96.03,7.92.01,12.07.01,0,1.54,0,2.6,0,3.66,0,13.18-.02,26.36.01,39.54,0,4.33,2,7.39,5.54,8.79,6.01,2.36,11.97-2.02,12-8.98.06-13.18.02-26.36.02-39.54,0-1.05,0-2.09,0-3.48Z" fill="#fff"/>
      <path d="m38.7,0h102.53c0,20.41-.02,40.81.01,61.22.01,6.24,4.35,9.98,10.5,9.16,2.51-.34,5-.84,7.5-1.22,6.88-1.04,11.32,5.34,11.29,10.27-.04,6.05-5.1,10.74-11.38,10.26-2.12-.16-4.22-.76-6.33-1.14-7.12-1.28-11.58,2.44-11.59,9.69-.01,13.28,0,26.56,0,39.84,0,1.02,0,2.04,0,3.14-6.05,0-11.61,0-17.17,0s-11.03,0-16.53,0c.01-17.83-13.1-27.97-25.43-29.19-6.65-.66-12.84.93-18.34,4.69-8.52,5.83-12.39,14.21-12.43,24.29H.15c-.05-.58-.11-.96-.11-1.35,0-32.32-.13-64.64.06-96.95C.21,23.1,14.8,5.49,33.94,1.16,35.54.81,37.12.39,38.7,0Zm18.39,81.85c-4.86,0-9.8.06-14.73-.08-.54-.01-1.28-1.04-1.55-1.74-1.98-5.23-6.17-7.75-10.84-6.38-4.89,1.43-7.34,5.88-6.22,11.29,1.48,7.2,7.41,13.16,15.09,13.98,6.27.67,12.67.68,18.97.3,8.82-.52,17.93-7.51,17.19-19.49-.09-1.46,0-2.93-.02-4.39-.07-6.48-2.98-11.37-8.36-14.85-.9-.58-1.87-1.05-2.83-1.53-6.96-3.51-13.87-7.11-20.9-10.47-3.1-1.48-1.57-4.02-1.67-6.1-.02-.41,2.02-1.25,3.15-1.31,3.5-.17,7.02-.01,10.53-.08,1.59-.03,2.35.46,2.87,2.12,1.52,4.88,5.82,7.32,10.41,6.19,4.69-1.15,7.44-5.49,6.65-10.51-1.14-7.3-6.72-13.72-14.41-14.6-7.38-.84-15.04-.96-22.39.03-7.62,1.02-12.73,6.15-14.28,13.98-.5,2.54-.18,5.25-.29,7.88-.37,8.39,3.57,14.09,10.9,17.74,6.28,3.13,12.54,6.29,18.8,9.45q4.77,2.4,3.92,8.57Z" fill="#fff"/>
      <path d="m158.81,0C192.98,0,227.16,0,261.33,0c.53.19,1.05.44,1.6.55,18.5,3.6,30.33,14.53,35.71,32.53.55,1.84.91,3.73,1.37,5.6v102.54c-20.1,0-40.21,0-60.31,0-7.73,0-11.36,4.58-9.81,12.21.45,2.19.93,4.41,1.01,6.63.19,5.78-4.49,10.44-10.26,10.45-5.76,0-10.43-4.63-10.28-10.45.06-2.22.54-4.44,1-6.63,1.59-7.6-2.07-12.2-9.8-12.21-13.18,0-26.35,0-39.53,0-1.03,0-2.05,0-3,0v-33.64c18.2-2.32,28.62-12.12,29.05-27.18.2-7-1.87-13.29-6.24-18.75-5.83-7.3-13.71-10.24-23.02-10.19V0Zm93.59,59.76c-.18.04-.36.07-.53.11-1.56-4.46-3.1-8.93-4.68-13.39-1.76-4.99-4.5-7.25-8.75-7.28-4.3-.03-7.04,2.19-8.81,7.14-1.61,4.51-3.19,9.02-4.99,14.12-.39-1.4-.63-2.13-.8-2.88-2.02-8.74-4-17.48-6.05-26.22-1.35-5.75-5.88-8.93-10.82-7.71-5.1,1.26-7.65,5.95-6.32,11.7,1.46,6.37,2.96,12.72,4.42,19.09,2.98,12.92,5.96,25.84,8.9,38.76.78,3.44,2.37,6.21,5.86,7.45,4.93,1.75,9.63-.67,11.55-6.02,2.28-6.38,4.47-12.78,6.91-19.77.59,1.45.98,2.31,1.29,3.2,1.9,5.43,3.75,10.87,5.69,16.29,1.69,4.72,4.93,7.12,9.05,6.84,4.33-.3,7.16-2.85,8.29-7.72,4.53-19.46,9.02-38.93,13.5-58.41,1.29-5.63-1.49-10.39-6.6-11.48-4.79-1.01-9.24,2.14-10.48,7.47-2.23,9.56-4.42,19.13-6.62,28.7Z" fill="#fff"/>
      <path d="m141.13,158.79v33.73c-10.1.06-18.38,3.89-24.25,12.24-3.84,5.47-5.42,11.65-4.84,18.3,1.28,14.7,11.71,23.93,28.98,25.63v51.31c-1.04,0-1.99,0-2.94,0-30.95,0-61.91.01-92.86,0-25.98-.01-45.18-19.17-45.19-45.1-.02-30.96,0-61.91,0-92.87,0-.96,0-1.92,0-3.23h3.32c18.94,0,37.89,0,56.83,0,7.94,0,11.55-4.52,9.94-12.35-.41-2-.91-4.02-1-6.05-.28-5.99,4.36-10.88,10.17-10.91,5.98-.03,10.79,4.89,10.43,10.94-.16,2.61-.9,5.18-1.27,7.78-.87,6.15,2.87,10.55,9.07,10.57,13.38.05,26.75.02,40.13.02,1.06,0,2.12,0,3.49,0Zm-64.28,78.84l-.5-.02c0-4.68.24-9.38-.04-14.05-.87-14.21-12.85-25.18-26.83-24.78-14.33.41-25.75,11.8-25.97,26.08-.13,8.59-.13,17.18,0,25.77.22,13.33,10.33,24.24,23.75,25.82,12.9,1.52,25.61-7.2,28.28-20.19,1.24-6.04.92-12.4,1.31-18.62Z" fill="#fff"/>
      <path d="m41.05,237.61c0-3.99-.04-7.99.01-11.98.07-5.25,3.97-9.27,8.91-9.28,4.85-.01,8.79,3.77,8.89,8.97.16,8.18.15,16.36,0,24.54-.09,5.4-4.01,9.18-9.02,9.11-4.96-.07-8.72-4.06-8.78-9.38-.05-3.99,0-7.99,0-11.98Z" fill="#fff"/>
    </g>
  </g>
</svg>