<?xml version="1.0" encoding="UTF-8"?>
<svg id="Layer_2" data-name="Layer 2" xmlns="http://www.w3.org/2000/svg" viewBox="0 0 300 300">
  <g id="_레이어_1" data-name="레이어 1">
    <g>
      <g>
        <path d="m0,142.93l3.28,23.42c2.82-.62,6.11-1.08,9.04-1.44,49.09-5.89,101.98,6.91,137.67,42.69C115.75,161.89,55.94,140.93,0,142.93Z" fill="#fff"/>
        <path d="m277.86,143.31c-48.73,3.62-98.21,24.48-127.86,64.28,9.65-9.51,20.57-17.65,32.45-24.16,34.63-18.76,75.8-23.77,114.27-17.08l3.28-23.42c-7.38-.38-14.78-.25-22.14.38Z" fill="#fff"/>
        <path d="m140.81,173.64c-1.59-2.09-3.27-4.13-4.96-6.18-25.5-30.18-68.7-47.36-107.82-39.5,36.18,2.26,70.95,14.86,100.18,36.29,4.37,2.92,8.22,6.42,12.6,9.4Z" fill="#fff"/>
        <path d="m132.97,148.69c1.7,2.58,3.41,5.08,5.31,7.58-.82-2.99-1.78-6.01-2.84-8.95-11.88-27.72-39.5-48.6-68.71-54.92,25.06,15.14,48.81,32.56,66.24,56.28Z" fill="#fff"/>
        <path d="m266.9,127.96c-39.12-7.84-82.29,9.35-107.78,39.51-1.69,2.04-3.37,4.08-4.96,6.18,4.38-2.97,8.24-6.47,12.6-9.39,29.22-21.43,63.98-34.02,100.14-36.29Z" fill="#fff"/>
        <path d="m266.94,127.95s-.03,0-.04,0c.01,0,.03,0,.04,0h0Z" fill="#fff"/>
        <path d="m228.25,92.4c-29.21,6.32-56.83,27.2-68.72,54.93-1.06,2.94-2.02,5.95-2.84,8.95,1.89-2.51,3.6-5,5.31-7.58,17.44-23.73,41.19-41.15,66.25-56.29Z" fill="#fff"/>
      </g>
      <rect width="300" height="300" fill="none"/>
    </g>
  </g>
</svg>