<?xml version="1.0" encoding="UTF-8"?>
<svg id="Layer_2" data-name="Layer 2" xmlns="http://www.w3.org/2000/svg" viewBox="0 0 300 300">
  <g id="_레이어_1" data-name="레이어 1">
    <g>
      <g>
        <path d="m278.99,142.6c-36.21,22.97-75.49,40.7-116.67,52.66-22.5,6.35-45.43,11.05-68.61,14.06-18.42,2.42-36.97,3.79-55.55,4.1,3.88,8.86,8.91,17.16,14.97,24.69l-4.17,42.29c-.29,2.87,1.8,5.43,4.67,5.72.8.08,1.61-.02,2.37-.31l37.06-14.12c7.96,4.3,16.35,7.73,25.04,10.25,11.61,3.12,23.55,4.81,35.57,5.02,39.36.43,76.91-16.5,102.65-46.27,25.14-32.97,24.36-71.09,24.15-80.97-.12-5.73-.61-11.45-1.48-17.11Z" fill="#fff"/>
        <path d="m299.87,111.01c-.85-2.58-6.62-5.7-10.55-7.01-4.95-1.29-10.05-1.94-15.16-1.93-.76-.03-1.4,0-1.58,0-1.02.04-2.03.16-3.02.37-.91.17-1.78.49-2.58.95l-.81-1.58C246.4,48.87,198.11,12.74,146.28,13.04c-71.76.42-129.53,56.62-128.82,128.09.12,11.07,1.66,22.07,4.58,32.74-.42.22-.88.48-1.37.76C9.5,181.11-.99,193.16.07,197.56c2.51,10.42,77.17,9.54,158.36-13.9,81.89-23.65,144.8-62.4,141.44-72.65Zm-75.65-46.32c-11.72,7.31-22.25-.13-25.4-18.68l25.4,18.68Zm-156.77,97.69c-2.55,5.54-3.63,11.64-3.13,17.71-6.34.81-12.69,1.52-19.05,2.13-.31.03-.61.05-.91.07h-.01l-.54.06h0c-.7.05-1.41.11-2.11.17-6.8-16.44-9.58-34.27-8.12-52.01,7.07,18.17,13.75,22.76,18.87,23.15,5.94.45,9.59-4.79,24.59-12.84,5.11-2.74,10.37-5.19,15.76-7.32.79-.02,1.83.06,2.14.66,1.6,3.06-19.76,12.04-27.49,28.21Zm55.75-15.14c-3.85,6.61-6.3,13.94-7.2,21.54-.06.86-.41,1.67-1,2.29-.47.33-1.02.55-1.6.63-10.48,2.29-21.01,4.27-31.61,5.93-.2-8.44,4.93-16.08,10.77-22.17,5.84-6.09,12.65-11.37,17.24-18.45,2.97-3.86,4.02-8.87,2.84-13.59-1.97-5.47-8.51-8.16-14.29-7.59-5.74,1.01-11.19,3.27-15.96,6.63l-26.99,16.2-11.99-25.02c-1.54-2.77-2.57-5.8-3.04-8.94-.08-4.14.92-8.23,2.91-11.86,4.27-9.16,9.9-17.62,16.68-25.1,2.71-2.99,7.11-8.97,10.95-10.4,4.3-1.6,7.39,7.26,9.88,10.43,5.62,7.09,13.61,11.91,22.51,13.56,10.66,1.93,21.7-.88,32.42.7,3.88.41,7.57,1.88,10.68,4.24,3.16,2.99,5.45,6.78,6.64,10.97,1.79,4.49,2.48,9.34,2.01,14.15-1.19,8.08-7.37,14.47-13.78,19.53-6.41,5.06-13.54,9.55-18.09,16.33Zm128.68-30.65c-16.22,14.55-36.27,24.18-56.77,31.55-8.18,2.91-16.47,5.52-24.79,8.04h0c-12.53,3.8-25.13,7.4-37.52,11.63-1.56-4.76-.39-10,3.06-13.64,3.42-3.52,7.31-6.55,11.56-9.01,10.76-7.24,20.72-17.39,22.76-30.21,1.53-9.63-1.63-19.4-5.69-28.27-2.81-6.14-6.3-12.34-11.98-15.98-14.04-8.99-33.85,1.58-48.9-5.61-8.12-3.88-13.12-12.16-17-20.29-.5-1.05,19.06-9.31,20.9-9.98,7.5-2.73,15.24-4.71,23.13-5.91,12.17-1.85,29.21-3.59,39.16,5.32,3.51,3.52,6.33,7.67,8.31,12.23,3.75,8.38,8.26,16.4,13.47,23.96,4.32,6.42,10.78,11.09,18.23,13.18,9.66,2.07,19.37-2.55,28.17-7.04l15.27,33.83c.54.96.8,2.05.74,3.15-.34,1.22-1.08,2.29-2.1,3.03Z" fill="#fff"/>
      </g>
      <rect x="0" width="300" height="300" fill="none"/>
    </g>
  </g>
</svg>