<?xml version="1.0" encoding="UTF-8"?>
<svg id="Layer_2" data-name="Layer 2" xmlns="http://www.w3.org/2000/svg" viewBox="0 0 300 300">
  <g id="_레이어_1" data-name="레이어 1">
    <g>
      <g>
        <path d="m153.38,213.94h0c0,27.41,22.22,49.64,49.64,49.64h0c27.42,0,49.64-22.23,49.64-49.64s-22.22-49.64-49.64-49.64-49.64,22.23-49.64,49.64Z" fill="#fff"/>
        <path d="m139.45,49.63c13.71,0,24.82-11.11,24.82-24.82S153.16,0,139.45,0s-24.82,11.11-24.82,24.82h0c0,13.71,11.11,24.82,24.81,24.82Z" fill="#fff"/>
        <path d="m89.81,78.24h0c8.04,0,14.56-6.53,14.56-14.57,0-8.04-6.53-14.57-14.57-14.56-8.05,0-14.56,6.53-14.56,14.57h0c0,8.04,6.53,14.56,14.57,14.56Z" fill="#fff"/>
        <path d="m115.07,253.64c-14.68-9.3-27.24-10.45-35.7-9.54l-32.27,55.91h205.8l-20.08-34.77c-22.96,13.39-52.03,9.82-71.07-8.72,0,0,0,0,0,0-23.53-22.75-24.17-60.26-1.42-83.79,3.89-4.02,8.32-7.47,13.18-10.25h.01l-23.51-40.72-30.24,52.38v-83.54h-63.67v22.39h24.82v10.79h-24.82v18.68h24.82v10.79h-24.82v18.68h24.82v10.79h-24.82v33.18h39.55l-16.28,28.18c8.47-.91,21.03.24,35.71,9.55,13.55,8.58,29.66,7.41,42.47,4.07-12.81,3.34-28.92,4.51-42.47-4.08Z" fill="#fff"/>
      </g>
      <rect width="300" height="300" fill="none"/>
    </g>
  </g>
</svg>