<?xml version="1.0" encoding="UTF-8"?>
<svg id="Layer_2" data-name="Layer 2" xmlns="http://www.w3.org/2000/svg" viewBox="0 0 300 300">
  <g id="_레이어_1" data-name="레이어 1">
    <g>
      <g>
        <path d="m247.1,299.99c0-5.98-38.42-10.83-85.8-10.83-18.29,0-35.23.72-49.16,1.95,11.51-4.75,22.64-10.36,33.29-16.8.38-.23.76-.46,1.14-.69,6.21-3.74,11.99-7.53,17.13-11.1.73-.51,1.45-1.02,2.16-1.51.3-.21.61-.43.9-.64,5.13-3.71,10.82-8.08,16.67-12.94,1.18-.98,2.37-1.99,3.57-3.01,20.72-17.78,42.39-41.24,48.1-63.27,3.11-13.02-3.3-21.79-16.67-22.37-7.96.02-15.87,1.27-23.46,3.69-5.61-16.46-20.63-28.21-43.55-22.84-.98.26-1.95.56-2.89.93.14-13.38.26-26.65.38-39.71.14-.07.27-.14.41-.2,25.58-12.78,35.7-34.37,24.9-61.56-3.92-9.53-9.18-18.45-15.62-26.5-1.57-2.01-3.19-3.98-4.87-5.9-1.7-1.93-3.37-3.77-5.28-5.67C147.78.36,146.89,0,145.96,0h-.01s0,0-.01,0c-1.93.02-3.48,1.6-3.46,3.53l.4,74.11c.05,5.89.1,11.88.15,17.97-11.8,5.51-22.46,13.17-31.43,22.6-7.55,8.08-13.46,17.54-17.41,27.86-1.36,3.66-2.46,7.42-3.27,11.24-.68,3.53-1.14,7.1-1.35,10.7-.02.7-.01,4.12-.04,4.91l.28,3.94c.09,1.91.6,3.95.83,5.87.27,1.14.63,2.68.94,3.85,2.69,10.12,8.49,19.14,16.58,25.79-21.95,17.62-47.08,41.77-54.2,64.53-3.77,12.91,2.69,21.78,15.9,22.96,1.84.13,3.72.15,5.64.1,0,.01-.01.02-.01.04h171.61Zm-97.99-222.36h.01s.23-45.33.34-65.1c19.35,22.97,35.29,56.31,4.2,77.12-1.5,1-3.07,1.98-4.67,2.89.04-5.01.08-9.98.12-14.92Zm17.01,174.07l.83-29.36c4.74-1.67,9.16-4.13,13.08-7.27.78-.63,1.53-1.29,2.26-1.96l.83,25.27s0,0,0,0c-5.56,4.61-11.26,9.03-17,13.32Zm58.79-58.68c-10.07,15.9-23.26,29.54-37.6,41.83l.94-28.44c8.7-12.2,11.38-27.69,7.3-42.11,0,0,0,0,0,0,2.69-.7,5.4-1.33,8.14-1.87,26.96-4.63,35.47,7.08,21.22,30.58Zm-76.41-50.68h0c3.6-1.34,7.42-2,11.26-1.96,3.39.02,6.76.43,10.06,1.21,11.46,3.11,18.75,11.58,21.93,21.87.18.58.34,1.16.49,1.74,2.66,10.74,1.35,22.08-3.68,31.94l.28-8.26v-.18s0-.04,0-.06c-.07-2.03-1.76-3.62-3.79-3.55-2.03.07-3.62,1.76-3.55,3.79l.58,17.65c-4.13,4.53-9.25,8.06-14.96,10.3l1.2-42.66c7.74-3.58,15.73-6.57,23.92-8.94-.15-.59-.31-1.17-.49-1.74-8.03,2.7-15.85,5.98-23.4,9.8h0s.09-3.27.09-3.27v-.18s0-.04,0-.06c-.07-2.03-1.76-3.62-3.79-3.55-2.03.07-3.62,1.76-3.55,3.79l.2,6.91v.32s0-.31,0-.31c-4.54,2.44-8.98,4.99-13.26,7.58h0c.18-14.1.34-28.19.48-42.17Zm-.48,42.43h0c4.35-2.56,8.78-4.98,13.28-7.25l1.15,40.83c-4.87,1.28-9.9,1.81-14.92,1.59.18-11.69.34-23.43.49-35.17Zm14.58,38.91l.84,30h0c-.33.24-.65.48-.97.72-5.15,3.6-10.39,7.17-15.73,10.62.26-13.03.48-26.24.7-39.55,5.11.07,10.21-.53,15.16-1.79Zm-60.96-29.08c-.61-.93-1.68-3.73-2.18-4.73l-1.11-3.31c-.52-1.58-.87-3.46-1.26-5.08-.2-1.7-.63-3.51-.68-5.22l-.22-3.5c.03-.75.04-3.69.08-4.41.1-1.25.32-3.13.41-4.39.43-2.92,1.01-5.82,1.76-8.68.97-3.42,2.16-6.77,3.56-10.03.93-1.83,2.14-4.63,3.23-6.35h0c8.51-15.35,22.22-27.36,37.86-35.19.11,12.86.24,26.08.38,39.45-9.14,6.11-13.12,17.53-12.59,28.92.18-12.67,4.81-22.03,12.61-27.16.15,13.98.31,28.09.49,42.09v.2c.14,10.97.29,21.88.45,32.6-11.37-.88-22.49-4.48-31.21-11.32h-.01c3.47-2.74,6.97-5.4,10.5-8-3.3,2.41-6.86,5.07-10.57,7.94l.03.02-.02-.02c-4.78-3.73-8.71-8.44-11.53-13.82Zm-39.48,69.52c11.55-20.2,28.08-36.95,46.1-51.68,0,0,0,0,0,0,3.71,3.03,7.83,5.54,12.22,7.45,7.65,3.16,15.78,5.01,24.04,5.48.2,12.89.42,25.49.66,37.55h0s.02,1.15.07,3.06c0,0,0,0,0,0-18.94,12.12-39.1,22.64-60.89,27.98-27.07,6.04-35.05-6.01-22.19-29.85Z" fill="#fff"/>
        <path d="m143.99,186.99h0c-7.48,4.66-14.38,9.32-20.25,13.49,6.57-4.61,13.32-9.09,20.25-13.3v-.19Z" fill="#fff"/>
      </g>
      <rect y="0" width="300" height="300" fill="none"/>
    </g>
  </g>
</svg>