<?xml version="1.0" encoding="UTF-8"?>
<svg id="Layer_2" data-name="Layer 2" xmlns="http://www.w3.org/2000/svg" viewBox="0 0 300 300">
  <g id="_레이어_1" data-name="레이어 1">
    <g>
      <g>
        <path d="m203.69,221.05c-35.65,16.99-71.32,16.56-107.02-.07-.43-.01-.84.13-1.17.41-.6.74-.55,1.81.11,2.49,7.75,11.52,15.37,23.1,23.26,34.53,9.68,14.02,47.47,18.48,58.68,5.63,10.67-12.23,18.59-26.57,27.71-40,.66-.41.96-1.22.71-1.96-.4-.87-1.39-1.31-2.3-1.02Z" fill="#fff"/>
        <path d="m217.51,128.13v-38.13c-11.96,5.81-21.43,10.12-30.51,15.05-2.45,1.46-4.12,3.94-4.53,6.76-.29,33.68-.19,67.37-.19,102.69,8.7-2.66,15.65-5.31,22.88-6.86,10.06-2.16,13-7.4,12.62-16.95-.84-20.82-.27-41.7-.27-62.57Z" fill="#fff"/>
        <path d="m117.28,111.67c-.2-2.46-1.51-4.7-3.57-6.07-9.53-5.05-19.38-9.59-31.49-15.45,0,37.18-.12,71.37.21,105.56.03,3.09,2.18,7.85,4.74,8.92,9.15,3.86,18.91,6.45,30.27,10.12,0-35.68.06-69.38-.16-103.08Z" fill="#fff"/>
        <polygon points="150.64 300 163.4 280.75 137.5 280.75 150.64 300" fill="#fff"/>
        <path d="m153.43,97.22c30.59-15.47,61.04-31.22,94.3-48.33C214.72,31.76,184.68,16.01,154.39.75c-2.75-1.39-7.61-.7-10.58.81-29.52,14.95-58.84,30.28-91.54,47.21,32.96,17.13,63.03,32.84,93.23,48.29,2.51,1.14,5.38,1.2,7.94.16Z" fill="#fff"/>
        <path d="m149.18,221.1c8.87-.19,19.03,2.22,18.67-12.36-.82-32.63,0-65.29-.48-97.94-.02-1.17.02-2.26.11-3.31h0s-35.19.01-35.19.01c.04.64.08,1.27.07,1.95-.35,33.06.44,66.15-.4,99.2-.34,13.37,8.27,12.65,17.23,12.46Z" fill="#fff"/>
        <path d="m54.14,59.05v63.43c1.4,1.85,3.6,2.91,5.92,2.88,2.08-.15,4-1.2,5.24-2.88-.14-19.48-.28-38.96-.42-58.44l-10.74-4.99Z" fill="#fff"/>
      </g>
      <rect y="0" width="300" height="300" fill="none"/>
    </g>
  </g>
</svg>