<?xml version="1.0" encoding="UTF-8"?>
<svg id="Layer_2" data-name="Layer 2" xmlns="http://www.w3.org/2000/svg" viewBox="0 0 300 300">
  <g id="_레이어_1" data-name="레이어 1">
    <g>
      <g>
        <rect x="80.31" y="24.34" width="19.19" height="133.18" transform="translate(-37.4 78.88) rotate(-39.92)" fill="#fff"/>
        <polygon points="116.64 195.58 129.24 200.2 150.71 182.24 150.43 180.65 143.27 139.75 88.72 185.38 116.64 195.58" fill="#fff"/>
        <polygon points="155.53 209.79 151.72 188.02 134.76 202.21 155.53 209.79" fill="#fff"/>
        <polygon points="121.38 151.42 35.91 49.29 18.62 63.76 104.08 165.9 121.38 151.42" fill="#fff"/>
        <path d="m188.55,250.19h0l75.81-64.29,35.64-30.22-137.45-2.13-9.54,8.09,2.9,16.58,3.08,17.55.93,5.32,1.35,7.71c.55,3.17-1.56,6.18-4.73,6.74-1.01.18-2.05.08-3.01-.27l-12.26-4.48-8.5-3.11-23.8-8.7-57.88,49.08,45.39.7,56.54.87-56.53-.87-18.55,15.72,116.38,1.81,94.37-80.03-24.31-.38-75.82,64.3Z" fill="#fff"/>
        <rect x="40.49" y="57.66" width="19.19" height="133.18" transform="translate(-68.06 61.1) rotate(-39.92)" fill="#fff"/>
      </g>
      <rect width="300" height="300" fill="none"/>
    </g>
  </g>
</svg>