<?xml version="1.0" encoding="UTF-8"?>
<svg id="_레이어_2" data-name="레이어 2" xmlns="http://www.w3.org/2000/svg" viewBox="0 0 300 300">
  <g id="_레이어_1-2" data-name="레이어 1">
    <g>
      <path d="m0,231.53V31.14c3.12-8.54,9.47-10.83,18.15-10.82,88.37.19,176.74.11,265.1.13,2.13,0,4.34-.02,6.39.48,6.56,1.58,10.35,6.96,10.35,14.43.01,64.05,0,128.11,0,192.16,0,.78,0,1.56-.08,2.34-.54,5.72-4.57,10.65-10.08,11.97-2.15.51-4.45.57-6.68.57-88.08.03-176.15.02-264.23.02-2.05,0-4.1,0-6.14-.17-6.09-.52-10.03-3.84-12.12-9.5-.16-.43-.44-.82-.66-1.23Zm20.73-9.93h258.49V41.23H20.73v180.37Z" fill="#fff"/>
      <path d="m0,262c2.38-4.37,6.1-5.45,10.92-5.4,21.94.2,43.87.09,65.81.09h3.69v15.18c-1.26,0-2.31,0-3.36,0-22.33,0-44.65-.08-66.98.07-4.74.03-8.08-1.52-10.08-5.83v-4.1Z" fill="#fff"/>
      <path d="m110.13,271.88v-15.06c1.09-.05,2.04-.13,2.99-.13,59.27,0,118.53,0,177.8-.03,2.9,0,5.44.55,7.3,2.89,3.58,4.51,1.28,10.83-4.4,12.08-1.03.23-2.13.24-3.2.24-59.17.01-118.34,0-177.51,0h-2.98Z" fill="#fff"/>
      <path d="m104.32,264.37c0,2.24.09,4.49-.02,6.72-.23,4.81-3.94,8.42-8.66,8.57-4.88.16-9.08-3.26-9.37-8.13-.29-4.85-.29-9.75,0-14.61.29-4.84,4.67-8.45,9.36-8.21,4.82.24,8.5,3.99,8.68,8.93.08,2.24.01,4.48.01,6.72,0,0,0,0-.01,0Z" fill="#fff"/>
      <path d="m149.99,203.71c2.49-3.4,4.8-6.29,6.77-9.4.57-.9.39-2.44.21-3.64-1.81-12.35-3.63-24.7-5.61-37.02-.43-2.65.02-4.52,2.05-6.43,4.26-4,8.23-8.31,12.6-12.78,7.63,8.96,18.12,12.31,27.91,16.78,4.75,2.17,7.81,5.28,9.65,10.24,4.36,11.8,8.85,23.54,11.14,35.97.04.19.08.38.11.58,1.42,9.03.2,10.48-8.82,10.48-38.37,0-76.73,0-115.1,0-5.01,0-6.52-1.04-5.89-5.94.9-6.92,2.26-13.84,4.22-20.54,2.23-7.65,5.34-15.05,8.05-22.56,1.19-3.3,3.41-5.63,6.58-7.09,2.3-1.06,4.57-2.19,6.89-3.21,8.3-3.66,16.74-7.09,23.17-14.68,4.97,5.04,9.72,9.77,14.31,14.65.62.66.64,2.18.49,3.24-1.74,12.07-3.41,24.14-5.45,36.16-.6,3.56-.32,6.41,2.18,9.1,1.58,1.7,2.79,3.73,4.53,6.1Z" fill="#fff"/>
      <path d="m151.46,54.09c3.82.67,9.22,1.11,14.29,2.63,9.75,2.92,16.08,9.74,18.04,19.67,3.78,19.11.18,36.68-12.92,51.6-2.65,3.01-6.06,5.58-9.57,7.56-11.05,6.21-23.93,3.14-33.29-7.51-7.41-8.43-11.23-18.46-12.43-29.41-.65-5.96-.75-12.11-.12-18.06,1.52-14.2,10.4-23.11,24.56-25.35,3.26-.52,6.59-.66,11.44-1.13Zm-8.36,43.57c.59-1.02.89-1.51,1.17-2.02,2.45-4.45,1.04-8.25-3.75-10.03-3.53-1.32-7.08-1.23-10.58.06-4.4,1.63-7.1,5.22-6.69,9.91,1,11.37,4.68,21.74,13.05,29.88,7.69,7.48,17.32,7.75,25.6.9,2.16-1.79,4.15-3.89,5.81-6.15,6.11-8.3,10.06-17.37,8.71-28-.58-4.54-2.72-5.76-6.86-3.85-4.33,2-8.5,4.34-12.8,6.4-4.14,1.98-8.46,3.32-13.64,2.89Z" fill="#fff"/>
      <rect x="0" width="300" height="300" fill="none"/>
    </g>
  </g>
</svg>