<?xml version="1.0" encoding="UTF-8"?>
<svg id="_레이어_2" data-name="레이어 2" xmlns="http://www.w3.org/2000/svg" viewBox="0 0 300 300">
  <g id="_레이어_1-2" data-name="레이어 1">
    <g>
      <path d="m149.91,169.26c-30.04,0-60.08.04-90.12-.02-19.52-.04-34.82-12.81-38.31-31.91-.47-2.58-.54-5.26-.54-7.89-.04-29.91-.08-59.83,0-89.74.05-19.51,11.66-34.54,29.84-38.66,3.21-.73,6.59-.99,9.89-1C120.28,0,179.88-.01,239.49.02c20.37.01,35.76,12.64,39.22,32.15.48,2.7.52,5.5.52,8.25.04,29.43.05,58.87.01,88.3-.03,24.39-16.1,40.54-40.28,40.55-29.69,0-59.37,0-89.06,0Zm-13.9-47.49c.6-.25,2.2-.57,3.34-1.48,12.29-9.82,24.58-19.66,36.71-29.68,3.96-3.27,3.95-8.66,0-11.91-12.14-10.02-24.42-19.86-36.69-29.71-2.32-1.86-5.02-2.13-7.72-.79-2.79,1.39-4.3,3.71-4.36,6.88-.05,2.76-.02,5.52-.02,8.29,0,16.57-.02,33.15.01,49.72,0,5.44,3.06,8.78,8.72,8.67Z" fill="#fff"/>
      <path d="m48.55,254.01c17.91,2.9,30.37,12.39,37.58,29.12,4.08,9.48-3.6,16.38-10.38,16.67-5.45.23-10.91.14-16.37.15-14.95.01-29.91.12-44.86-.09-2.96-.04-6.19-.75-8.81-2.12-5.32-2.77-6.99-8.05-4.74-13.8,6.82-17.4,19.69-27.02,36.8-29.76-4.06-2.19-9.19-4.37-13.64-7.53-4.84-3.43-7.78-8.59-9.57-14.36-1.76-5.65-1.9-11.37-.42-17.02,3.47-13.29,15.73-23.92,32.07-22.97,12.84.75,25.2,11.81,27.52,25.14,2.89,16.68-5.25,28.54-25.17,36.56Z" fill="#fff"/>
      <path d="m145.83,253.92c-10.27-2.33-18.1-7.42-22.82-16.64-3.38-6.61-4.29-13.59-2.77-20.92,2.94-14.09,15.59-24.07,30.54-24.02,13.83.05,26.62,10.72,29.18,24.36,3.24,17.26-4.36,28.59-24.97,37.33,17.58,2.7,30.33,12.01,37.35,28.82,3.61,8.66-1.24,16.46-10.57,16.97-5.8.31-11.63.12-17.44.13-14.36.01-28.72.08-43.08-.06-2.66-.03-5.51-.43-7.92-1.47-6.09-2.62-8.39-8.37-5.93-14.54,6.88-17.34,19.73-27.02,38.43-29.96Z" fill="#fff"/>
      <path d="m260.92,253.98c18.12,2.71,30.82,12.11,37.89,28.89,3.62,8.6-1.33,16.48-10.64,16.95-6.28.32-12.59.12-18.88.13-13.9.01-27.79.12-41.69-.09-2.98-.04-6.21-.67-8.86-1.99-5.33-2.66-7.05-8.1-5.05-13.76,5.73-16.17,20.19-27.65,38.8-30.12-9.58-2.21-16.79-6.55-21.67-14.26-4.95-7.82-5.99-16.33-3.64-25.19,3.77-14.21,17.39-23.36,32.65-22.16,13.29,1.04,25.29,12.72,26.95,26.61,1.78,14.92-6.57,30.66-25.86,34.99Z" fill="#fff"/>
    </g>
  </g>
</svg>