<?xml version="1.0" encoding="UTF-8"?>
<svg id="Layer_2" data-name="Layer 2" xmlns="http://www.w3.org/2000/svg" viewBox="0 0 300 300">
  <g id="_레이어_1" data-name="레이어 1">
    <g>
      <path id="_패스_433" data-name="패스 433" d="m297.5,242.15c-.18-2.06-1.99-3.58-4.05-3.41-.04,0-.09,0-.13.01-32.63.1-65.26.13-97.89.08h-12.45c-.36-.06-.72-.08-1.08-.08-32.63.1-65.26.13-97.89.08-17.45,0-34.91.09-52.35-.13-5.75-.07-10.45-3.53-13.43-10.16-6.97-15.55.98-33.72,14.78-33.76,22.2-.07,44.4,0,66.61,0h83.02c.13,0,.25-.02.37-.02,9.34,0,18.69.02,28.03.02h83.02c5.53,0,7.44-4.32,4.72-10.65-1.13-3.03-2.43-6-3.88-8.9-7.18-14.9-5.74-10.41-6.29-11.97-.32-1.12-.97-2.12-1.85-2.87-1.41-.87-3.05-1.29-4.7-1.19-1.09-.11-2.18-.11-3.27,0-6.65.67-83.62.09-150.35.09-27.38,0-54.77.11-82.15-.15-8.73.14-16.82-4.53-21.06-12.16-10.94-18.6,1.53-40.34,23.2-40.39,34.84-.09,69.68,0,104.52.02,43.42,0,86.85,0,130.28,0,8.68,0,11.68-5.17,7.4-12.74-7.23-12.82-14.86-25.42-21.71-38.45-4.61-8.77-11.67-12.02-20.95-12.01h-49.09c-46.67,0-93.33,0-140,.01-7.57,0-14.63,1.76-18.85,8.83-10.77,18.06-21.52,36.13-31.98,54.38C1.11,118.7.13,125.97,0,131.84c-.38,18.51,11.55,32.72,17.84,39.16-1.25,2.78-3.1,6.89-5.32,11.88-1.76,3.97-3.52,7.94-5.26,11.92-3.05,6.63-4.79,13.79-5.12,21.08-.65,21.77,13.3,40.56,30.32,40.66,24.88.13,49.77.04,74.65.04h61.09v.02c16.78,0,33.57-.03,50.35-.03h75.28c5.76,0,7.55-3.88,4.98-10.77-.51-1.19-.95-2.41-1.33-3.64Z" fill="#fff"/>
      <rect width="300" height="300" fill="none"/>
    </g>
  </g>
</svg>