<?xml version="1.0" encoding="UTF-8"?>
<svg id="_레이어_2" data-name="레이어 2" xmlns="http://www.w3.org/2000/svg" viewBox="0 0 300 300">
  <g id="_레이어_1-2" data-name="레이어 1">
    <g>
      <path d="m0,176.23C.13,114.36,44.77,54.5,110.88,35.8c47.51-13.44,91.75-5.02,132.28,23.15,2.2,1.53,2.43,2.71,1.3,5.13-16.44,35.36-32.84,70.74-49.01,106.23-2.07,4.54-2.72,9.72-4.19,14.55-.32,1.04-1.17,2.33-2.09,2.7-9.9,3.93-17.31,10.52-22.21,20-.54,1.05-1.64,2.1-2.73,2.54-20.91,8.49-37.6,22.11-50.36,40.71-11.24,16.37-26.87,25.42-46.74,26.06-25.56.81-47.31-14.02-56.61-37.86C3.47,220.95-.1,202.26,0,176.23Zm88.05,6.6c.19-14.14-11.65-26.13-25.96-26.26-14.25-.13-26.12,11.54-26.33,25.89-.21,14.21,11.48,26.17,25.81,26.41,14.36.24,26.28-11.48,26.48-26.04Zm-19.55-75.1c.03,14.43,11.69,26.08,26.04,26.04,14.51-.05,26.17-11.8,26.11-26.33-.05-14.33-11.85-25.93-26.25-25.83-14.48.1-25.93,11.65-25.9,26.12Zm78.33-23.05c-.06,14.41,11.53,26.19,25.84,26.28,14.45.08,26.28-11.69,26.31-26.18.03-14.29-11.76-26.11-26.05-26.12-14.34-.02-26.04,11.65-26.1,26.02Z" fill="#fff"/>
      <path d="m221.54,204.95c4.18,3.8,7.14,8.36,8.54,13.79,1.95,7.58.63,14.73-3.04,21.55-10.76,20.04-27.31,32.21-49.62,36.53-1.07.21-2.18.19-3.24.27-.12-.39-.27-.6-.21-.74,4.09-10.37,3.5-20.92,1.46-31.59-1.79-9.35-1.77-18.62,1.67-27.7,5.02-13.27,16.34-20.17,30.53-18.51.38.04.77,0,1.26,0-1.1-2-2.31-3.77-3.09-5.72-2.2-5.42-1.54-10.69.9-15.96,16.73-36.12,33.39-72.27,50.08-108.41,5.89-12.75,11.74-25.53,17.68-38.26,2.4-5.15,6.84-7.66,12.31-7.24,4.8.36,9.39,3.76,10.3,8.62.53,2.84.3,6.18-.68,8.89-11.62,32.06-23.44,64.04-35.21,96.04-6.54,17.77-13.22,35.48-19.57,53.31-3.32,9.31-9.29,14.59-19.39,14.71-.16,0-.31.19-.66.42Z" fill="#fff"/>
      <path d="m247.94,205.89c6.6-10.18,9.34-21.57,13.44-32.37,8.11-21.42,15.9-42.96,23.82-64.45.24-.66.51-1.32.77-1.98.24.04.5.01.55.1,7.52,13.1,13.73,26.58,13.48,42.21-.45,28.15-22.36,52.86-50.27,56.48-.5.06-1.01,0-1.79,0Z" fill="#fff"/>
      <rect width="300" height="300" fill="none"/>
    </g>
  </g>
</svg>