<?xml version="1.0" encoding="UTF-8"?>
<svg id="Layer_2" data-name="Layer 2" xmlns="http://www.w3.org/2000/svg" viewBox="0 0 300 300">
  <g id="_레이어_1" data-name="레이어 1">
    <g>
      <g>
        <path d="m39.81,97.38c6.61,6.6,17.31,6.6,23.92,0,6.6-6.6,6.61-17.31,0-23.92-6.6-6.6-17.31-6.6-23.92,0-6.6,6.6-6.61,17.31,0,23.92,0,0,0,0,0,0Z" fill="#fff"/>
        <circle cx="148.55" cy="43.29" r="16.91" transform="translate(52.22 164.38) rotate(-67.74)" fill="#fff"/>
        <path d="m146.29,156.85c.37,1.25,1.67,1.96,2.92,1.6.77-.23,1.37-.83,1.6-1.6l26.93-92.42c.38-1.31-.37-2.67-1.68-3.05-.85-.25-1.77-.02-2.41.61-14.06,13.36-36.13,13.36-50.19,0-.97-.95-2.53-.94-3.48.04-.62.64-.85,1.56-.61,2.41l26.93,92.42Z" fill="#fff"/>
        <path d="m283.03,162.89h.01c-5.5-6.81-12.36-12.39-20.15-16.37-1.27-.58-2.72-.61-4.02-.09l-65.68,26c-2.64,1.05-3.94,4.04-2.89,6.69s4.04,3.94,6.69,2.89l63.48-25.14c6.68,3.86,29.59,19.85,29.25,57.1-13.44-2.02-27.06-2.51-40.6-1.46-35.51,2.63-69.69,14.59-99.08,34.69-29.39-20.1-63.58-32.07-99.09-34.69-13.55-1.05-27.17-.56-40.61,1.46-.39-37.51,22.44-53.26,29.22-57.11l63.47,25.15c2.63,1.08,5.64-.18,6.72-2.81,1.08-2.63-.18-5.64-2.81-6.72-.04-.02-.08-.03-.12-.05l-65.68-26c-1.3-.51-2.75-.48-4.02.09-7.79,3.98-14.65,9.56-20.15,16.36C8.23,173.4-1.76,191.94.27,220.53c.21,2.84,2.68,4.98,5.52,4.77.29-.02.57-.07.85-.13,14.47-2.85,29.27-3.64,43.96-2.36,34.71,2.64,68.05,14.69,96.44,34.85l.04.02c.2.14.42.26.64.37.04.02.08.03.12.05.17.08.35.15.53.21l.24.07c.15.04.3.08.46.11l.24.04c.22.03.44.05.66.05h.07c.22,0,.44-.02.66-.05l.23-.03c.16-.03.31-.06.47-.11l.24-.07c.18-.06.36-.13.54-.22l.12-.05c.22-.11.44-.23.64-.37l.04-.02c28.38-20.16,61.72-32.21,96.44-34.85,14.69-1.28,29.49-.49,43.96,2.35,2.76.68,5.55-1,6.23-3.76.07-.29.12-.58.14-.88,2.03-28.59-7.96-47.13-16.7-57.65Z" fill="#fff"/>
        <path d="m44.79,118.9c.02.88.5,1.68,1.28,2.11l84.39,46.31c1.14.62,2.57.2,3.2-.94.38-.7.38-1.56,0-2.26h.01l-46.31-84.4c-.65-1.19-2.15-1.63-3.34-.97-.77.42-1.26,1.23-1.28,2.11-.48,19.42-16.11,35.06-35.53,35.53-1.36.03-2.44,1.15-2.41,2.51Z" fill="#fff"/>
        <path d="m260.39,97.39c6.6-6.6,6.61-17.31,0-23.91,0,0,0,0,0,0-6.6-6.6-17.31-6.6-23.91,0-6.6,6.6-6.61,17.31,0,23.91,6.6,6.6,17.31,6.61,23.91,0Z" fill="#fff"/>
        <path d="m167.46,167.31c.7.38,1.56.38,2.26,0l84.4-46.31c1.19-.65,1.63-2.15.97-3.34-.42-.77-1.23-1.26-2.11-1.28-19.42-.48-35.05-16.11-35.52-35.53-.03-1.36-1.15-2.44-2.51-2.41-.88.02-1.68.51-2.1,1.28l-46.32,84.4c-.62,1.14-.2,2.57.94,3.2Z" fill="#fff"/>
        <path d="m191.92,240.09h.01c-12.93,5.4-25.23,12.2-36.67,20.29l-.2.14-.07.04c-.3.2-.61.38-.93.54l-.12.06-.14.06c-.29.14-.59.26-.89.37-.16.05-.3.1-.44.14-.26.07-.54.14-.82.19-.15.03-.28.05-.41.07-.32.05-.64.07-.97.08h-.51c-.32-.01-.64-.04-.96-.08l-.42-.07c-.28-.05-.55-.11-.82-.19-.14-.04-.28-.08-.42-.13-.3-.1-.6-.23-.88-.37-.1-.04-.2-.08-.3-.14-.32-.16-.63-.34-.92-.53l-.07-.04-.23-.16c-11.06-7.82-22.93-14.44-35.4-19.74-28.39,2.99-47.64,8.77-47.64,15.42,0,9.71,41.02,17.58,91.62,17.58s91.62-7.87,91.62-17.58c0-7.06-21.7-13.16-53.01-15.94Z" fill="#fff"/>
      </g>
      <rect width="300" height="300" fill="none"/>
    </g>
  </g>
</svg>