<?xml version="1.0" encoding="UTF-8"?>
<svg id="Layer_2" data-name="Layer 2" xmlns="http://www.w3.org/2000/svg" viewBox="0 0 300 300">
  <g id="_레이어_1" data-name="레이어 1">
    <g>
      <g>
        <path d="m210.81,211.07c-2.1-.42-4.22-.68-6.36-.8h0c-5.38-.29-10.76.39-15.9,2.01-7.37,2.42-15.48.68-21.21-4.55l-21.27-19.75c-4.95-4.63-7.39-11.34-6.58-18.07-11-3.24-17.3-14.78-14.07-25.78,1.87-6.36,6.66-11.44,12.9-13.69-1.44-7.22.99-14.67,6.4-19.66l20.76-19.29c5.86-5.35,14.2-6.99,21.65-4.27,23.38,8.23,49.01-4.05,57.25-27.43s-4.05-49.01-27.43-57.25c-23.38-8.23-49.01,4.05-57.25,27.43-1.34,3.82-2.17,7.8-2.44,11.84-.24,3.48-.07,6.97.5,10.41,1.08,6.92-1.37,13.93-6.54,18.66l-32.42,30.11c-4.54,4.14-10.62,6.15-16.73,5.51-24.68-2.3-46.54,15.84-48.84,40.52-.03.37-.06.74-.09,1.11-1.68,24.74,17.02,46.16,41.77,47.84,3.47.23,6.96.07,10.39-.5,6.55-1.13,13.25.84,18.15,5.33l28.15,26.15c5.35,4.91,7.79,12.24,6.43,19.37-4.84,24.32,10.96,47.95,35.27,52.78s47.95-10.96,52.78-35.27c4.84-24.32-10.96-47.95-35.27-52.78Zm-8.5-195.12c15.59,0,28.22,12.63,28.23,28.22h0c0,15.59-12.64,28.22-28.22,28.22-15.59,0-28.22-12.64-28.22-28.22,0-15.58,12.63-28.21,28.21-28.22Zm28.23,239.88c0,15.59-12.65,28.21-28.23,28.21-15.59,0-28.21-12.65-28.21-28.23,0-15.58,12.63-28.2,28.21-28.21,15.59,0,28.22,12.63,28.23,28.22v.02Z" fill="#fff"/>
        <path d="m145.38,132.5c-9.67,0-17.51,7.84-17.51,17.51,0,9.67,7.84,17.51,17.51,17.51s17.51-7.84,17.51-17.51c0-9.67-7.84-17.51-17.51-17.51h0Z" fill="#fff"/>
      </g>
      <rect width="300" height="300" fill="none"/>
    </g>
  </g>
</svg>