<?xml version="1.0" encoding="UTF-8"?>
<svg id="Layer_2" data-name="Layer 2" xmlns="http://www.w3.org/2000/svg" viewBox="0 0 300 300">
  <g id="_레이어_1" data-name="레이어 1">
    <g>
      <path id="_패스_630" data-name="패스 630" d="m204.87,298.71c-9.94,0-19.34-4.49-25.59-12.21-11.7-14.12-15.11-29.41-17.59-40.56-3.13-14.04-4.32-15.26-8.54-14.76-3.45.4-4.98,9.21-6.45,17.71-3.23,18.63-8.1,46.78-42.35,49.03-1.15.07-2.3.11-3.43.11-45.65,0-77.85-61.07-98.38-186.45C-5.77,60.84,6.56,23,36.38,7.78c24.14-12.35,56.21-6.65,76.3,13.54,35.01,35.2,69.96,39.38,70.3,39.41,2.6.28,4.58,2.48,4.58,5.1v38.2c0,2.83-2.29,5.13-5.13,5.13h-33.36v23.62h33.35c2.83,0,5.13,2.3,5.13,5.13h0v33.36h23.62v-33.35c0-2.83,2.29-5.13,5.13-5.13h33.36v-23.62h-33.35c-2.82,0-5.11-2.28-5.13-5.1l-.27-38.16c-.02-2.83,2.26-5.15,5.1-5.17h.04c2.82,0,5.11,2.28,5.13,5.1l.22,33.06h33.39c2.83,0,5.13,2.29,5.13,5.12v33.89c0,2.83-2.3,5.13-5.13,5.13h-33.35v33.35c0,2.83-2.29,5.13-5.13,5.13h-33.89c-2.83,0-5.13-2.29-5.13-5.13h0v-33.36h-33.35c-2.83-.01-5.11-2.31-5.11-5.13v-33.89c0-2.83,2.3-5.13,5.13-5.13h33.36v-28.74c-11.28-2.32-41.53-11.08-71.89-41.61C88.39,11.44,61.32,6.55,41.05,16.9,15.48,29.98,5.13,63.88,12.67,109.92c19.75,120.61,50.39,180.38,91.01,177.76,26.18-1.72,29.75-22.34,32.91-40.54,2.21-12.77,4.3-24.83,15.34-26.15,14.35-1.72,17.11,10.7,19.79,22.71,2.4,10.71,5.36,24.03,15.48,36.25,4.83,6.07,12.43,9.23,20.14,8.37,8.6-.88,25.59-7.18,42.81-39.58,22.15-41.7,60.94-157.85,25.46-197.83-16.03-18.06-46.48-18.58-90.5-1.55-2.64,1.02-5.62-.29-6.64-2.94-1.02-2.64.29-5.62,2.94-6.64h0c48.43-18.74,82.72-17.29,101.88,4.31,41.12,46.34-3.92,171.53-24.07,209.47-14.41,27.13-32.46,43.1-50.83,44.98-1.16.12-2.32.18-3.49.18" fill="#fff"/>
      <rect x="0" width="300" height="300" fill="none"/>
    </g>
  </g>
</svg>