<?xml version="1.0" encoding="UTF-8"?>
<svg id="Layer_2" data-name="Layer 2" xmlns="http://www.w3.org/2000/svg" viewBox="0 0 300 300">
  <g id="_레이어_1" data-name="레이어 1">
    <g>
      <g>
        <path d="m231.03,274.21c12.07-7.62,22.92-17.01,32.2-27.85h-32.2v27.85Z" fill="#fff"/>
        <path d="m155.54,12.64c-25.91-.04-51.33,7.06-73.47,20.51h11.81c13.75.01,24.89,11.15,24.9,24.9-.02,13.75-11.16,24.89-24.9,24.9h-12.16v12.15c-.01,13.75-11.15,24.89-24.9,24.9-13.75-.02-24.89-11.16-24.9-24.9v-10.05c-11.88,21.15-18.11,45.01-18.07,69.28h0c0,78.26,63.44,141.68,141.69,141.68,4.19,0,8.33-.19,12.43-.55v-49.08h-35.98c-17.41,0-31.53-14.12-31.52-31.54h0c0-17.41,14.12-31.53,31.53-31.53h162.24c1.98-9.53,2.98-19.25,2.97-28.98,0-78.25-63.43-141.68-141.68-141.68Zm44.16,162.7h0c-17.46,0-31.62-14.16-31.62-31.62h0c0-17.47,14.16-31.63,31.63-31.63h0c17.46,0,31.62,14.16,31.62,31.63,0,17.46-14.16,31.62-31.62,31.62Z" fill="#fff"/>
        <path d="m39.83,75.04v20.06c0,9.38,7.6,16.99,16.98,17,9.38,0,16.99-7.6,17-16.98v-20.08h20.06c9.38,0,16.99-7.61,16.99-16.99,0-9.38-7.61-16.99-16.99-16.99h0s-20.06,0-20.06,0v-20.06c0-9.38-7.6-16.99-16.98-17-9.38,0-16.99,7.6-17,16.98v20.08h-20.06c-9.38,0-16.99,7.61-16.99,16.99,0,9.38,7.61,16.99,16.99,16.99h20.06Z" fill="#fff"/>
      </g>
      <rect width="300" height="300" fill="none"/>
    </g>
  </g>
</svg>