<?xml version="1.0" encoding="UTF-8"?>
<svg id="Layer_2" data-name="Layer 2" xmlns="http://www.w3.org/2000/svg" viewBox="0 0 300 300">
  <g id="_레이어_1" data-name="레이어 1">
    <g id="_11건강_shape_11_0003" data-name=" 11건강 shape 11 0003">
      <rect id="_사각형_19" data-name="사각형 19" width="300" height="300" fill="none"/>
      <path id="_패스_200" data-name="패스 200" d="m177.75,121.88h52.1s39.98.31,39.98-29.69c0-26.05-32.27-25.91-46.04-21.2-15.11,5.18-41.2,24.39-46.04,50.89Z" fill="#fff"/>
      <path id="_패스_201" data-name="패스 201" d="m223.79,121.28v52.1s-.31,39.98,29.69,39.98c26.05,0,25.91-32.27,21.2-46.04-5.18-15.11-24.39-41.2-50.89-46.04Z" fill="#fff"/>
      <path id="_패스_202" data-name="패스 202" d="m177.75,177.74v52.1s-.31,39.98,29.69,39.98c26.05,0,25.91-32.27,21.2-46.04-5.18-15.11-24.39-41.2-50.89-46.04Z" fill="#fff"/>
      <path id="_패스_203" data-name="패스 203" d="m178.36,223.78h-52.1s-39.98-.31-39.98,29.69c0,26.05,32.27,25.91,46.04,21.2,15.11-5.18,41.2-24.39,46.04-50.89Z" fill="#fff"/>
      <path id="_패스_204" data-name="패스 204" d="m121.85,177.74h-52.1s-39.98-.31-39.98,29.69c0,26.05,32.27,25.91,46.04,21.2,15.11-5.18,41.2-24.39,46.04-50.89Z" fill="#fff"/>
      <path id="_패스_205" data-name="패스 205" d="m75.81,178.34v-52.1s.31-39.98-29.69-39.98c-26.05,0-25.91,32.27-21.2,46.04,5.17,15.11,24.39,41.2,50.89,46.04Z" fill="#fff"/>
      <path id="_패스_206" data-name="패스 206" d="m121.87,121.85v-52.1s.31-39.98-29.69-39.98c-26.05,0-25.91,32.27-21.2,46.04,5.18,15.11,24.39,41.19,50.89,46.04Z" fill="#fff"/>
      <path id="_패스_207" data-name="패스 207" d="m121.26,75.81h52.1s39.98.31,39.98-29.69c0-26.05-32.27-25.91-46.04-21.2-15.11,5.18-41.2,24.39-46.04,50.89Z" fill="#fff"/>
    </g>
  </g>
</svg>