<?xml version="1.0" encoding="UTF-8"?>
<svg id="Layer_2" data-name="Layer 2" xmlns="http://www.w3.org/2000/svg" viewBox="0 0 300 300">
  <g id="_레이어_1" data-name="레이어 1">
    <g>
      <g>
        <path d="m247.65,0c-2.62,183.71-114.21,251.59-170.41,272.54,17.62,16.27,46.67,27.46,46.67,27.46,0,0,149.52-49.53,149.52-300h-25.78Z" fill="#fff"/>
        <path d="m235.37,0h-27.3s12.03,175.29-172.57,226.41c9.03,12.73,19.27,24.56,30.58,35.31C234.82,183.46,235.85,19.37,235.37,0Z" fill="#fff"/>
        <polygon points="68.81 120.7 105.03 120.7 105.03 78.45 147.27 78.45 147.27 42.25 105.02 42.25 105.02 0 68.81 0 68.81 42.25 26.57 42.25 26.57 78.45 68.81 78.45 68.81 120.7" fill="#fff"/>
      </g>
      <rect width="300" height="300" fill="none"/>
    </g>
  </g>
</svg>