<?xml version="1.0" encoding="UTF-8"?>
<svg id="Layer_2" data-name="Layer 2" xmlns="http://www.w3.org/2000/svg" viewBox="0 0 300 300">
  <g id="_레이어_1" data-name="레이어 1">
    <g>
      <path d="m27.21,54.41h0c15.02,0,27.2-12.18,27.21-27.2h0C54.42,12.18,42.23,0,27.21,0,12.19,0,0,12.18,0,27.21c0,15.02,12.18,27.2,27.2,27.2Z" fill="#fff"/>
      <path d="m300,150c0-21.26-13.45-40.2-33.53-47.2,0,0,0,0,0,0h0c-12.95-30.15-37.51-53.8-68.13-65.6C192.52,15.27,172.68,0,150,0c-24.9,0-46.01,18.34-49.5,42.99-23.9,12.59-43.01,32.67-54.41,57.17C18.58,102.31-1.99,126.36.15,153.88c1.91,24.53,21.4,44.02,45.93,45.94,11.4,24.51,30.51,44.61,54.42,57.21,3.89,27.34,29.21,46.34,56.55,42.45,19.85-2.83,36.09-17.23,41.26-36.6,30.65-11.83,55.24-35.51,68.2-65.7,20.05-7.02,33.48-25.95,33.48-47.2Zm-58.69-50h-41.31v-43.64c17.52,10.47,31.81,25.57,41.31,43.64Zm-43.69-63.07c-14.71-5.42-30.16-7.87-45.51-7.38,15.5-.58,30.97,1.93,45.51,7.38Zm-46.63-7.33c-.48.02-.96.04-1.43.07.15,0,.3-.02.45-.02.33-.02.66-.03.99-.04Zm-2.59.13c-16.46,1.03-32.72,5.44-47.7,13.17,14.77-7.77,31.04-12.25,47.7-13.17Zm51.6,213.86h0v-43.59h-100v49.95c-22.72-10.2-41.27-27.84-52.59-50.02.86.05,1.73.07,2.6.07h50v-100h-50c-.88,0-1.74.02-2.61.07,11.32-22.19,29.88-39.85,52.6-50.06.61-.26,1.22-.51,1.83-.76-.61.25-1.22.5-1.83.76v149.99h141.25c.07-.13.13-.26.2-.39-.07.13-.13.26-.19.39-9.48,18.05-23.76,33.13-41.26,43.59Zm66.71-140.18c6.16,14.56,9.33,30.21,9.33,46.02-.08-15.65-3.19-31.29-9.33-46.02Zm9.33,46.95c.06,16.07-3.17,31.99-9.5,46.76,6.3-14.95,9.46-30.86,9.5-46.76Z" fill="#fff"/>
    </g>
  </g>
</svg>