<?xml version="1.0" encoding="UTF-8"?>
<svg id="Layer_2" data-name="Layer 2" xmlns="http://www.w3.org/2000/svg" viewBox="0 0 300 300">
  <g id="_레이어_1" data-name="레이어 1">
    <g>
      <path id="_패스_746" data-name="패스 746" d="m266.54,149.87c-5.87-.52-11.77.38-17.22,2.62-2.43,1-5.22.44-7.07-1.42l-14.06-14.06c-2.17-2.17-2.53-5.57-.86-8.15,13.67-21.25,10.42-49.19-7.75-66.73-2.01-1.98-2.55-5.01-1.34-7.56l10.57-22.76c1.55-3.33.1-7.29-3.23-8.84l-11.38-5.28c-3.33-1.55-7.29-.1-8.84,3.23l-10.57,22.76c-1.17,2.56-3.83,4.11-6.64,3.85-29.09-2.96-55.07,18.22-58.03,47.32-.98,9.62.7,19.33,4.84,28.06,1.15,2.47.62,5.4-1.32,7.32l-3.74,3.74c-2,1.98-5.03,2.47-7.55,1.21-17.64-8.58-37.87-10.2-56.65-4.52-2.81.88-5.86-.17-7.53-2.58l-22.68-33.19c-2.07-3.03-6.21-3.81-9.25-1.74l-23.34,15.96c-3.03,2.07-3.81,6.21-1.74,9.25l23.51,34.39c1.57,2.32,1.54,5.38-.09,7.67C-.11,195.59,8.39,244.11,43.56,268.8c35.17,24.69,83.69,16.19,108.38-18.98,18.63-26.53,18.85-61.84.56-88.6-1.17-1.71-2.39-3.35-3.66-4.94-2.26-2.8-1.82-6.9.99-9.16,2.05-1.65,4.9-1.91,7.21-.65,1.13.63,2.29,1.22,3.47,1.78,16.61,7.72,36.02,6.3,51.33-3.75,2.58-1.7,6-1.35,8.19.83l12.2,12.21c2.2,2.24,2.48,5.72.68,8.29-11.38,16.78-7,39.6,9.78,50.98,16.78,11.38,39.6,7,50.98-9.78,4.7-6.93,6.89-15.26,6.2-23.61-1.33-16.69-16.65-32.12-33.33-33.56m-125.98,19.51c19.71,28.84,12.3,68.19-16.54,87.9-28.84,19.71-68.19,12.3-87.9-16.54-19.71-28.84-12.3-68.19,16.54-87.9,25.89-17.69,60.82-13.74,82.11,9.27,2.1,2.28,4.04,4.7,5.79,7.26m69.07-34.44c-19.13,14.76-46.61,11.22-61.38-7.91-14.76-19.13-11.22-46.61,7.91-61.38,19.13-14.76,46.61-11.22,61.38,7.91,12.04,15.61,12.16,37.34.29,53.08-2.35,3.12-5.11,5.91-8.21,8.3" fill="#fff"/>
      <rect width="300" height="300" fill="none"/>
    </g>
  </g>
</svg>