<?xml version="1.0" encoding="UTF-8"?>
<svg id="Layer_2" data-name="Layer 2" xmlns="http://www.w3.org/2000/svg" viewBox="0 0 300 300">
  <g id="_레이어_1" data-name="레이어 1">
    <g>
      <g>
        <path d="m255.68,105.28c-6.39,0-12.7,1.38-18.5,4.06-3.62,1.66-6.99,3.81-10.03,6.38-10.01,8.4-15.79,20.81-15.79,33.88,0,10.8,3.95,21.23,11.11,29.31l-15.17,16.8c-4.9-3.15-10.61-4.83-16.43-4.82-4.09,0-8.14.82-11.91,2.42l-5.43-8.55-19.42-30.57c-2.24,2.58-5.17,4.45-8.45,5.38l16,25.19,8.85,13.94c-6.06,5.42-9.7,13.04-10.11,21.15-.02.51-.04,1.03-.04,1.55,0,2.87.41,5.72,1.21,8.48,3.78,13.04,15.73,22.02,29.31,22.04,13.58-.02,25.52-8.99,29.3-22.04,0,0,0,0,0,0h16.99s0-40.02,0-40.02c0,0,0,0,0,0,5.8,2.68,12.11,4.06,18.5,4.06,24.46-.03,44.29-19.85,44.32-44.32-.03-24.46-19.85-44.29-44.32-44.32Zm-46.18,124.59c-3.32,7.3-10.6,12-18.62,12.01-8.02-.01-15.3-4.7-18.63-12.01-1.22-2.66-1.86-5.55-1.86-8.48,0-.52.04-1.04.08-1.55.35-4.68,2.31-9.1,5.54-12.5,2.33-2.47,5.23-4.32,8.45-5.4,2.07-.69,4.23-1.04,6.41-1.04,3.34,0,6.63.82,9.58,2.39,3,1.59,5.55,3.9,7.44,6.71,1.96,2.93,3.12,6.32,3.38,9.83.04.51.08,1.03.08,1.55,0,2.93-.64,5.82-1.86,8.48Zm17.65-10.02h-5.8c.02.47.03.94.03,1.42,0-.47-.02-.95-.04-1.41-.32-6.35-2.63-12.45-6.6-17.42l12.4-13.74h0s0,31.16,0,31.16Zm28.53-35.97c-6.56,0-12.99-1.88-18.5-5.43-.17-.11-.34-.21-.5-.32-2.79-1.87-5.3-4.13-7.44-6.72-.74-.9-1.44-1.84-2.09-2.81-3.76-5.62-5.77-12.24-5.76-19,0-6.77,2-13.38,5.76-19,2.63-3.94,6.05-7.29,10.03-9.85,5.51-3.56,11.94-5.45,18.5-5.45,18.93.02,34.27,15.36,34.29,34.29-.02,18.93-15.36,34.27-34.29,34.29Z" fill="#fff"/>
        <path d="m160.4,219.85H46.3v-35.09h115.36l-16-25.19c-1.56.45-3.17.67-4.79.68-9.71,0-17.58-7.87-17.58-17.58h0c0-9.71,7.87-17.58,17.58-17.58h0c9.71,0,17.57,7.87,17.57,17.58,0,4.24-1.53,8.33-4.32,11.52l19.42,30.57h17.34s0-91.54,0-91.54h36.28v22.5c3.04-2.56,6.41-4.71,10.02-6.37v-26.16h-46.3v-35.09H0v136.67h36.28s0,45.12,0,45.12h125.29c-.8-2.76-1.21-5.61-1.21-8.48,0-.52.01-1.03.04-1.55Zm-114.1-35.09h-10.02v-101.57h154.6v10.02H46.3v91.55Z" fill="#fff"/>
      </g>
      <rect width="300" height="300" fill="none"/>
    </g>
  </g>
</svg>