<?xml version="1.0" encoding="UTF-8"?>
<svg id="Layer_2" data-name="Layer 2" xmlns="http://www.w3.org/2000/svg" viewBox="0 0 300 300">
  <g id="_레이어_1" data-name="레이어 1">
    <g>
      <path id="_패스_412" data-name="패스 412" d="m81.13,63.51v55.67c0,1.36-.36,2.7-1.05,3.87L1.05,257.6c-2.14,3.65-.92,8.34,2.73,10.47,1.18.69,2.52,1.05,3.88,1.05h284.67c4.23,0,7.66-3.42,7.66-7.64,0-1.36-.36-2.7-1.05-3.88l-63.43-108c-2.15-3.65-6.85-4.87-10.51-2.72-1.12.66-2.06,1.6-2.72,2.72l-31.79,54.13-47.39-80.68c-.69-1.17-1.05-2.51-1.05-3.87V38.53c0-4.23-3.44-7.66-7.67-7.65h-38.47c-1.49,0-2.7,1.21-2.7,2.69,0,.01,0,.02,0,.04l.1,7.38c.02,1.48,1.22,2.66,2.7,2.66h33.25v75.54c0,3.63.97,7.2,2.81,10.33l47.2,80.37c1.77,3.12,4.73,5.38,8.2,6.27,5.49,1.33,11.19-1.09,14.06-5.95l27.37-46.61,54.49,92.77H16.61l74.5-126.85c1.84-3.13,2.81-6.7,2.81-10.33l-.26-55.82c0-1.49-1.22-2.69-2.71-2.68-.01,0-.03,0-.04,0l-7.13.14c-1.47.03-2.65,1.22-2.65,2.69" fill="#fff"/>
      <rect width="300" height="300" fill="none"/>
    </g>
  </g>
</svg>