<?xml version="1.0" encoding="UTF-8"?>
<svg id="Layer_2" data-name="Layer 2" xmlns="http://www.w3.org/2000/svg" viewBox="0 0 300 300">
  <g id="_레이어_1" data-name="레이어 1">
    <g>
      <path d="m223.33,243.39v-43.87h-30.08v-110.33c0-15.78-12.84-28.62-28.62-28.62h-8.36V0h-12.54v60.56h-8.36c-15.78,0-28.62,12.84-28.62,28.62v110.33h-30.08v43.87h44.5v44.07h-19.74v12.54h97.15v-12.54h-19.74v-44.07h44.5ZM119.29,89.18c0-8.87,7.22-16.09,16.09-16.09h29.25c8.87,0,16.09,7.22,16.09,16.09v11.31h-18.8v12.54h18.8v15.04h-18.8v12.54h18.8v15.04h-18.8v12.54h18.8v31.15h-61.42v-110.15Zm-30.08,141.67v-18.8h121.59v18.8h-121.59Zm77.09,56.61h-32.59v-44.07h32.59v44.07Z" fill="#fff"/>
      <rect width="300" height="300" fill="none"/>
    </g>
  </g>
</svg>