<?xml version="1.0" encoding="UTF-8"?>
<svg id="Layer_2" data-name="Layer 2" xmlns="http://www.w3.org/2000/svg" viewBox="0 0 300 300">
  <g id="_레이어_1" data-name="레이어 1">
    <g>
      <path d="m150.38,290.42c-.82,0-1.64-.31-2.26-.94L28.5,169.86c-.91-.91-1.19-2.29-.69-3.48.49-1.19,1.66-1.97,2.95-1.97h2.61c2.87,0,5.74,0,8.61,0,8.09-.01,16.46-.02,24.69.06,1.12.01,1.2-.07,1.69-.92,6.72-11.88,13.64-23.91,20.33-35.54l5.6-9.74c.32-.56.66-1.11,1.07-1.77l.66-1.08c.65-1.06,1.85-1.64,3.09-1.51,1.24.14,2.28.99,2.67,2.17l27.76,83.51,34.99-61.34c.56-.99,1.61-1.6,2.75-1.61h.03c1.13,0,2.17.59,2.75,1.56,1.26,2.13,2.57,4.23,3.83,6.26,2.97,4.78,5.78,9.3,8.12,14.22,2.38,5.02,5.11,6.57,10.79,6.16,6.48-.48,24.14-.36,38.33-.27,6.94.05,12.94.09,16.08.04,2.21-.03,4-.74,5.17-2.06,1.19-1.35,1.7-3.25,1.46-5.5-.36-3.4-3.08-5.54-7.1-5.58-7.69-.08-41.22-.09-48.99.03-3.12.04-5.28-1.19-6.85-3.91-6.82-11.79-13.82-23.74-20.59-35.31l-3.26-5.57-30.59,54.25c-.62,1.1-1.83,1.73-3.09,1.61-1.26-.12-2.33-.98-2.72-2.18l-27.48-83.32-6.26,10.84c-11.2,19.39-22.77,39.43-34.09,59.19-1.67,2.91-3.91,4.16-7.29,4.16-11.54-.1-24-.1-38.11,0-3.07,0-5.16-1.23-6.6-3.95C4.06,134.62.45,121.72.06,108.95c-.6-19.56,3.19-36.9,11.28-51.53,8.28-14.98,21.06-27.15,38-36.18,16.66-8.88,33.62-12.71,50.42-11.41,16.48,1.28,32.84,7.51,48.63,18.52q1.62,1.13,3.03.07c19.09-14.14,41.11-20.06,65.45-17.57,17.63,1.8,33.75,8.46,47.9,19.79,16.01,12.81,26.69,29.05,31.74,48.26,1.1,4.18,1.8,8.45,2.48,12.59.3,1.84.62,3.75.96,5.6.04.19.05.38.05.58v12.05c0,.19-.02.38-.05.57-.06.32-.12.64-.19.96-.12.58-.23,1.13-.28,1.63-2.33,22.1-11.59,41.4-27.52,57.36-29.75,29.8-60.03,60.07-89.31,89.35l-28.53,28.52c-.5.5-1,.95-1.34,1.25l-.23.21c-.61.56-1.39.84-2.16.84Zm-111.92-119.63l111.98,111.98,27.69-27.69c29.28-29.27,59.56-59.55,89.31-89.34,14.88-14.9,23.52-32.91,25.69-53.52.08-.8.23-1.52.37-2.22.04-.19.08-.38.11-.56v-11.46c-.33-1.82-.63-3.66-.92-5.44-.65-3.99-1.33-8.12-2.35-12-4.69-17.86-14.63-32.96-29.55-44.9-13.18-10.55-28.18-16.75-44.56-18.42-22.71-2.32-43.24,3.18-61,16.34-4.24,3.14-7.26,2.28-10.49.03-30.16-21.04-61.25-23.3-92.38-6.71C20.74,43.72,5.3,71.26,6.45,108.75c.36,11.79,3.72,23.75,9.99,35.54.19.36.31.49.34.53.01,0,.17.03.54.03h.04c14.14-.09,26.63-.09,38.2,0,1.08.01,1.18-.04,1.69-.95,11.32-19.76,22.9-39.82,34.1-59.21l7.97-13.8c.35-.6.71-1.2,1.14-1.92l.76-1.27c.64-1.07,1.85-1.68,3.09-1.54,1.24.14,2.29.99,2.68,2.17l27.43,83.16,29.7-52.67c.55-.98,1.57-1.59,2.69-1.62,1.12-.02,2.18.53,2.78,1.47.22.35.43.66.63.97.42.64.81,1.25,1.19,1.89l4.39,7.5c6.77,11.57,13.78,23.53,20.61,35.34.42.73.44.72,1.22.72,7.8-.12,41.44-.1,49.15-.03,7.3.07,12.68,4.61,13.39,11.29.43,4.03-.65,7.73-3.03,10.41-2.36,2.66-5.87,4.16-9.87,4.21-3.21.04-9.23,0-16.21-.04-14.08-.09-31.6-.21-37.82.25-8.28.6-13.53-2.41-17.03-9.79-2.18-4.59-4.9-8.96-7.77-13.59-.35-.56-.7-1.13-1.06-1.71l-35.85,62.85c-.62,1.09-1.83,1.72-3.09,1.6-1.25-.12-2.32-.97-2.72-2.17l-27.81-83.64-3.7,6.44c-6.68,11.62-13.59,23.64-20.3,35.5-1.65,2.92-3.91,4.18-7.31,4.16-8.2-.08-16.55-.07-24.62-.06-1.17,0-2.35,0-3.52,0Z" fill="#fff"/>
      <rect x="0" width="300" height="300" fill="none"/>
    </g>
  </g>
</svg>