<?xml version="1.0" encoding="UTF-8"?>
<svg id="Layer_2" data-name="Layer 2" xmlns="http://www.w3.org/2000/svg" viewBox="0 0 300 300">
  <g id="_레이어_1" data-name="레이어 1">
    <g>
      <g>
        <path d="m170.29,136.18c.13.06.25.11.39.16,2,.7,4.04,1.27,6.12,1.71,5.61-.37,11.09-3.68,13.32-8.32,1.22-2.07.55-4.74-1.5-6-2.13-1.19-4.81-.52-6.13,1.52-2.85,3.81-4,4.26-8.6,3.08-2.21-.8-4.65.35-5.45,2.55-.95,1.97-.12,4.34,1.86,5.29Z" fill="#fff"/>
        <path d="m294.18,80.56c-2.29-7.4-12.81-41.33-45.84-57.47-6.62-3.24-25.66-12.44-49.57-7.43-34.76,7.29-50.46,38.37-52.51,42.61-1.6-3.72-15.64-34.87-49.16-42.61-24.09-5.57-43.65,4.37-49.57,7.43-21.88,11.32-31.58,30.35-35.39,37.83-26.53,52.05,3.94,114.44,8.93,124.64,35.25,72.17,110.09,95.64,126.77,100.44,23.74-7.89,90.25-33.56,126.97-100.44,10.91-19.88,33.19-60.45,19.38-105Zm-59.35,100.65c2.92,5.64,1.43,12.22-3.6,16.6-.91.7-2.04,1.02-3.18.91-7.79-1.43-15.56-2.97-23.28-4.69-1.25-.41-2.26-1.35-2.77-2.56-3.48-9.87,4.93-19.64,18.49-19.62,6.14.23,11.65,3.83,14.34,9.36ZM86.27,85.45c9.93-8.68,22.07-14.43,35.08-16.6,32.77-5.72,66.46,11.94,77.79,42.71.82,2.22,1.67,4.67,3.75,5.88,2.3,1.33,5.35.67,7.78,1.79,7.74,3.58.49,18.62,8.31,22.05-1.58,2.41-5,2.91-7.93,2.64-2.93-.26-5.93-1.03-8.77-.26-2.83.78-5.22,4.02-3.72,6.47,1.17,1.9,3.85,2.2,6.13,2.22,5.7.06,11.4-.25,17.06-.93-.76,4.53-1.52,9.06-2.28,13.59-7.6-1.14-15.31,1.24-20.95,6.45-5.45,5.2-8.1,12.69-7.13,20.16l-39.84-9.18c2.51-2.46,5.19-5.3,5.21-8.76.02-3.46-4.55-6.68-7.17-4.33-.72.79-1.29,1.69-1.7,2.68-4.12,7.68-17.3,8.3-22.17,1.04-4.87-7.26,1.08-18.69,9.98-19.22,1.87-.11,3.96.11,5.4-1.04,1.76-1.41,1.5-4.31-.08-5.91-1.73-1.5-3.99-2.27-6.28-2.12-7.03.18-13.46,4-16.98,10.09-3.29,6.01-3.95,13.11-1.82,19.63-.65-.29-1.36-.58-2.14-.86-.78-.28-1.52-.5-2.21-.68l-.09-.02c-.13-.03-.27-.06-.4-.09l-24.63-5.03-10.43-2.39c-1.88-.28-3.66-.99-5.21-2.08-1.32-1.27-2.29-2.86-2.82-4.62-9.47-25.01-1.95-55.21,18.24-73.29Zm77.05,179.4h0c-3.48,1.35-7.15,2.19-10.87,2.48-4.84.21-9.61-1.15-14.2-2.67-10.8-3.58-21.24-8.17-31.17-13.71-39.46-21.95-70.55-58.15-84.68-100.15,17.98,13.3,38.95,21.98,61.06,25.28l27.3,5.97c43.34,11.11,87.02,20.87,131.04,29.28-23.67,21.18-48.19,42.89-78.48,53.52Z" fill="#fff"/>
      </g>
      <rect width="300" height="300" fill="none"/>
    </g>
  </g>
</svg>