<?xml version="1.0" encoding="UTF-8"?>
<svg id="Layer_2" data-name="Layer 2" xmlns="http://www.w3.org/2000/svg" viewBox="0 0 300 300">
  <g id="_레이어_1" data-name="레이어 1">
    <g>
      <g>
        <path d="m239.74,45.47c12.4.08,22.53-9.9,22.61-22.31,0-.09,0-.17,0-.26.11-12.48-9.92-22.69-22.4-22.8-12.04-.2-22.38,10.06-22.51,22.33,0,.14,0,.29,0,.43-.08,12.4,9.9,22.53,22.31,22.61Z" fill="#fff"/>
        <path d="m154.67,197.65c1.42,0,2.57-1.15,2.57-2.57v-47.15c.1-2.93.13-3.57.13-3.63.08-1.2.29-4.4,2.39-6.2,1.48-1.27,3.5-1.73,5.39-1.22,1.19.42,2.2,1.23,2.88,2.3,1.28,2.17,1.55,4.78.74,7.16-.46,1.34.26,2.8,1.6,3.26,1.34.46,2.8-.26,3.26-1.6,0-.03.02-.05.03-.08,1.29-3.85.81-8.07-1.32-11.53,2.74-.02,5.48-.09,8.22-.27,8.61-.56,17.35-2.28,24.76-6.7,7.37-4.62,13.26-11.26,16.97-19.12,3.68-7.84,6.03-16.24,6.96-24.85.7-5.46,1.12-11.22,4.11-15.84,3.5-5.42,10.2-8.31,16.65-8.15,6.5.39,12.69,2.91,17.61,7.18,8.67,7.11,11.76,15.11,12.49,14.71.77-.41-2.74-9.64-8.86-17.77-1.63-2.26-3.54-4.3-5.68-6.08-2.92-2.41-6.26-4.25-9.86-5.43-4.72-1.37-9.7-1.59-14.53-.65-4.56.7-8.65,3.22-11.31,7-3.78,5.88-2.37,13.51-2.73,20.49-.64,12.18-7.29,23.63-16.74,31.34-9.45,7.7-21.47,11.86-33.6,13.11-4.43.45-8.97.56-13.17,2.04-4.02,1.42-7.76,4.45-8.8,8.54-1.6,2.38-2.49,5.17-2.57,8.04,0,0-.04.57-.15,3.88v47.24c0,1.42,1.15,2.57,2.57,2.57Z" fill="#fff"/>
        <path d="m33.39,68.63c4.92-4.27,11.11-6.79,17.61-7.18,6.46-.17,13.15,2.72,16.65,8.15,2.99,4.62,3.41,10.38,4.11,15.84.93,8.61,3.28,17.01,6.96,24.85,3.71,7.87,9.6,14.5,16.97,19.12,7.41,4.42,16.15,6.14,24.76,6.7,2.72.18,5.45.24,8.17.27-2.08,3.45-2.54,7.63-1.27,11.44.41,1.36,1.85,2.12,3.21,1.71,1.36-.41,2.12-1.85,1.71-3.21,0-.02-.02-.05-.02-.07-.81-2.38-.54-5,.74-7.16.67-1.07,1.69-1.88,2.88-2.3,1.89-.52,3.91-.06,5.39,1.22,2.1,1.8,2.31,5,2.39,6.2,0,.06.04.7.13,3.55v47.24c-.03,1.42,1.09,2.59,2.51,2.62,1.42.03,2.59-1.09,2.62-2.51,0-.04,0-.08,0-.12v-47.32c-.12-3.22-.15-3.8-.15-3.8-.08-2.89-.99-5.7-2.61-8.09-1.09-4.02-4.78-7-8.76-8.41-4.2-1.48-8.74-1.58-13.17-2.04-12.13-1.24-24.15-5.4-33.6-13.11s-16.11-19.16-16.74-31.34c-.36-6.98,1.05-14.61-2.73-20.49-2.66-3.77-6.74-6.3-11.31-7-4.83-.94-9.81-.72-14.53.65-3.59,1.18-6.94,3.02-9.86,5.43-2.14,1.78-4.05,3.82-5.68,6.08-6.11,8.13-9.62,17.35-8.85,17.77.73.4,3.82-7.6,12.49-14.71Z" fill="#fff"/>
        <path d="m285.61,98.55c-.17,21.15-3.07,42.2-10.01,61.7-13.89,41.32-44.71,66.85-77.11,92.82-14.77,12.22-30.2,23.63-46.2,34.19-32.04-23.52-67.76-46.05-96.53-73.18-31.3-29.67-42.18-71.88-40.4-114.87-6.7,44.34,3,89,34.29,121.29,7.35,7.8,15.24,15.08,23.59,21.79,24.51,20.05,50.19,38.16,75.75,56.68,1.8,1.32,4.24,1.37,6.09.13,17.47-11.38,34.15-23.91,49.95-37.52,25.78-21.88,52.82-44.91,67.31-76.94,12.54-26.47,16.41-57.21,13.27-86.1Z" fill="#fff"/>
        <path d="m15.37,99.12s0,.06,0,.09c0-.03,0-.05.01-.08h0Z" fill="#fff"/>
        <path d="m37.8,19.5c-1.78,12.42,6.84,23.94,19.27,25.72,12.42,1.78,23.94-6.84,25.72-19.27,1.78-12.42-6.84-23.94-19.27-25.72C62.44.08,61.36,0,60.28,0c-6.23,0-12.18,2.56-16.46,7.08-1.89-4.83-7.34-7.21-12.17-5.32-4.83,1.89-7.22,7.34-5.32,12.17,1.79,4.57,6.78,6.99,11.47,5.57Z" fill="#fff"/>
      </g>
      <rect y="0" width="300" height="300" fill="none"/>
    </g>
  </g>
</svg>