<?xml version="1.0" encoding="UTF-8"?>
<svg id="Layer_2" data-name="Layer 2" xmlns="http://www.w3.org/2000/svg" viewBox="0 0 300 300">
  <g id="_레이어_1" data-name="레이어 1">
    <g>
      <g>
        <path id="_패스_321" data-name="패스 321" d="m50.06,110.99c-1.81,0-3.28-1.47-3.28-3.28,0-1.48.99-2.78,2.42-3.17l60.51-16.49c1.74-.52,3.57.47,4.09,2.21.52,1.74-.47,3.57-2.21,4.09-.05.02-.1.03-.15.04l-60.51,16.49c-.28.08-.57.12-.86.12Z" fill="#fff"/>
        <path id="_패스_322" data-name="패스 322" d="m54.79,130.2c-1.81,0-3.28-1.47-3.28-3.29,0-1.48.99-2.78,2.42-3.17l51.43-13.97c1.74-.5,3.56.51,4.06,2.25.5,1.74-.51,3.56-2.25,4.06-.03,0-.06.02-.09.02l-51.43,13.96c-.28.08-.57.12-.86.12Z" fill="#fff"/>
        <path id="_패스_323" data-name="패스 323" d="m59.91,149.24c-3.65.12-4.52-5.49-.93-6.43l31.4-9.22c1.74-.51,3.56.48,4.08,2.22.51,1.74-.48,3.57-2.22,4.08-1.02.16-31.29,9.46-32.33,9.36Z" fill="#fff"/>
        <path id="_패스_324" data-name="패스 324" d="m252.22,219.21c-1.49-.36-3.02-.7-4.57-1.04,19.17-36.4,8.99-81.33-24-105.92l14.03-48.95c5.09-.59,9.33-4.19,10.74-9.12l4.64-16.2c1.93-6.74-1.96-13.77-8.69-15.71l-47.89-13.78c-6.73-1.93-13.75,1.96-15.68,8.68,0,0,0,.01,0,.02l-4.64,16.2c-1.52,5.31.57,11,5.16,14.07l-12.24,42.7-7.52-26.82c-2.68-8.73-11.8-13.76-20.61-11.38l-112.99,29.01c-4.26,1.06-7.93,3.75-10.22,7.51-2.24,3.66-2.85,8.09-1.68,12.22l33.12,118.18c-.47.1-.94.21-1.39.32C6.23,229.19,1.42,241.85,1.42,250.5s4.81,21.32,46.37,31.3c27.35,6.57,63.65,10.19,102.21,10.19s74.85-3.62,102.21-10.19c41.56-9.99,46.37-22.65,46.37-31.3s-4.81-21.31-46.36-31.3Zm-80.15-111.55c2.57-.07,4.81-1.8,5.51-4.28l16.55-57.75c.9-3.14-.91-6.41-4.04-7.31l-1.98-.57c-.46-.13-.73-.62-.6-1.08l4.64-16.2c.06-.22.21-.41.42-.52.13-.07.27-.11.42-.11.08,0,.17.01.25.04l47.9,13.78c.46.13.73.62.6,1.08l-4.64,16.2c-.13.46-.62.73-1.08.6l-1-.29c-3.13-.9-6.4.91-7.3,4.04h0s-16.56,57.76-16.56,57.76c-.71,2.48.26,5.13,2.41,6.56,32.84,21.85,41.75,66.18,19.9,99.02-21.85,32.84-66.18,41.75-99.02,19.9-32.84-21.85-41.75-66.18-19.9-99.02,12.86-19.33,34.32-31.2,57.53-31.83h0Zm-144.1-13.53c.68-1.12,1.78-1.92,3.05-2.24l112.99-29c.43-.11.86-.16,1.3-.16,2.23-.03,4.22,1.43,4.86,3.57l8.66,30.92c-45.33,8.52-75.16,52.18-66.64,97.51,3.11,16.53,11.13,31.73,23.03,43.62l-40.27,10.33c-1.29.33-2.65.16-3.81-.48-1.14-.62-1.99-1.67-2.34-2.92L27.45,97.78c-.35-1.23-.16-2.56.51-3.65Zm121.75,188.32c-77.26,0-139.9-14.32-139.9-31.98,0-8.93,16.02-17,41.83-22.8l5.75,20.51c2.15,7.16,8.78,12.03,16.26,11.94,1.47,0,2.93-.19,4.36-.55l47.82-12.27c37.48,26.59,89.43,17.77,116.02-19.72.24-.34.48-.68.71-1.02,28.86,5.86,47.05,14.4,47.05,23.91,0,17.66-62.64,31.98-139.9,31.98h0Z" fill="#fff"/>
      </g>
      <rect width="300" height="300" fill="none"/>
    </g>
  </g>
</svg>