<?xml version="1.0" encoding="UTF-8"?>
<svg id="Layer_2" data-name="Layer 2" xmlns="http://www.w3.org/2000/svg" viewBox="0 0 300 300">
  <g id="_레이어_1" data-name="레이어 1">
    <g>
      <g>
        <path d="m62.6,136.01c18.32,0,33.17-14.84,33.17-33.16,0-6.34-1.82-12.55-5.24-17.9,36.31-26.84,86.02-26.31,121.75,1.3-2.82,4.88-4.45,10.54-4.45,16.58,0,18.32,14.85,33.18,33.18,33.18s33.18-14.85,33.18-33.18h0c.05-18.28-14.73-33.13-33.01-33.18-.06,0-.11,0-.17,0h0c-9.94,0-18.85,4.38-24.93,11.3-38.09-29.29-91-29.75-129.59-1.11-12.7-13.2-33.7-13.61-46.9-.9-13.2,12.7-13.61,33.7-.9,46.9,6.25,6.5,14.89,10.17,23.91,10.17Z" fill="#fff"/>
        <path d="m289.54,141.43c-3.83-5.89-8.6-11.12-14.11-15.48-12.75,19.01-38.49,24.09-57.5,11.34-6.31-4.23-11.34-10.12-14.53-17.01-9.06,5.15-16.76,12.41-22.43,21.16-6.81,10.52-18.48,16.87-31.01,16.87h-.01c-.56,0-1.12-.03-1.68-.05h0c-11.92-.54-22.84-6.81-29.32-16.82-5.06-7.81-11.74-14.45-19.59-19.45-8.93,17.19-28.58,25.89-47.31,20.95-2.11-.56-4.18-1.29-6.18-2.17-7.87-3.49-14.47-9.32-18.89-16.7-29.02,20.8-35.68,61.19-14.88,90.2,20.8,29.02,61.19,35.68,90.2,14.88,6.51-4.67,12.1-10.51,16.48-17.22,5.68-8.77,14.75-14.77,25.03-16.57,4.43-.78,8.96-.71,13.36.19,0,0,0,0,0,0,9.85,2.04,18.47,7.94,23.94,16.38,19.47,29.94,59.51,38.43,89.45,18.96,29.94-19.46,38.43-59.51,18.96-89.45Z" fill="#fff"/>
        <polygon points="275.43 125.94 275.43 125.95 275.43 125.94 275.43 125.94" fill="#fff"/>
      </g>
      <rect x="0" width="300" height="300" fill="none"/>
    </g>
  </g>
</svg>