<?xml version="1.0" encoding="UTF-8"?>
<svg id="Layer_2" data-name="Layer 2" xmlns="http://www.w3.org/2000/svg" viewBox="0 0 300 300">
  <g id="_레이어_1" data-name="레이어 1">
    <g>
      <path d="m269.24,257.81c33.02-45.59,22.84-109.32-22.75-142.34-9.45-6.85-20.02-12.02-31.22-15.29,0,0,0,0,0,0h0C214.28,43.88,167.85-.96,111.56.02,55.27.99,10.43,47.42,11.4,103.72c.36,20.87,7.12,41.12,19.36,58.02l-23.59,25.32h50.01c8.48,5.61,17.76,9.91,27.52,12.77v-42.16h43.9v-43.9h42.8v43.9h27.33s0,0,0,0h16.58v42.8h-43.9v43.9h-42.8v-43.9h-43.84c1.33,56.27,48.02,100.82,104.29,99.49,19.15-.45,37.79-6.29,53.78-16.85h50l-23.59-25.31Z" fill="#fff"/>
      <rect y="0" width="300" height="300" fill="none"/>
    </g>
  </g>
</svg>