<?xml version="1.0" encoding="UTF-8"?>
<svg id="Layer_2" data-name="Layer 2" xmlns="http://www.w3.org/2000/svg" viewBox="0 0 300 300">
  <g id="_레이어_1" data-name="레이어 1">
    <g>
      <path d="m213.09,13.99C150.51-15.17,76.22,2.34,33.05,56.4c26.1,27.08,68.09,52.45,127.52,35.16,0,0-16.85,82.35,31.18,134.41,0,0-66.52-31.44-67.7-103,0,0-65.58,6.08-102.21-50.59-29.55,48.81-29.09,110.22,1.18,158.58,6.73-68.89,91.84-95.41,91.84-95.41-.12,30.58,15.57,48.78,15.57,48.78,0,0-60.41,13.48-65.78,56.39-2.71,21.65,5.83,35.28,16.2,43.77,11.42,5.98,23.57,10.44,36.13,13.28,4.81.17,9.62-.17,14.35-1.02,44.02-7.87,63.29-49.8,63.29-49.8-.17,20.28-8.84,39.54-23.87,53.07,30.09-4.2,58.19-17.52,80.56-38.17-67.75-78.74-52.36-190.76-38.22-247.84Zm-74.58,72.99s0,0,0,0c-18.11,2.49-34.81-10.24-37.29-28.44-2.48-18.2,10.19-34.98,28.31-37.47,18.11-2.49,34.81,10.24,37.29,28.44,2.48,18.2-10.19,34.98-28.3,37.47Z" fill="#fff"/>
      <path d="m255.23,43.36c-32.13,89.58-14.2,159.38,9.23,204.72,50.73-60.15,46.71-149.43-9.23-204.72Z" fill="#fff"/>
    </g>
  </g>
</svg>