<?xml version="1.0" encoding="UTF-8"?>
<svg id="Layer_2" data-name="Layer 2" xmlns="http://www.w3.org/2000/svg" viewBox="0 0 300 300">
  <g id="_레이어_1" data-name="레이어 1">
    <g id="_11건강_shape_11_0004" data-name=" 11건강 shape 11 0004">
      <path id="_패스_208" data-name="패스 208" d="m150,228.83c-43.56-.02-78.86-35.35-78.84-78.92,0-9.54,1.74-19,5.12-27.92,1.24-3.5,5.08-5.33,8.58-4.09,3.5,1.24,5.33,5.08,4.09,8.58-.03.1-.07.19-.11.29-12.82,33.76,4.16,71.51,37.91,84.33,33.76,12.82,71.51-4.16,84.33-37.91,12.82-33.76-4.16-71.51-37.91-84.33-17.14-6.51-36.22-5.52-52.6,2.72-3.31,1.67-7.36.34-9.03-2.97s-.34-7.36,2.97-9.03h0c11-5.57,23.16-8.46,35.49-8.42,43.54,0,78.83,35.3,78.83,78.83s-35.3,78.83-78.83,78.83h0Z" fill="#fff"/>
      <path id="_패스_209" data-name="패스 209" d="m150,300C67.29,300,0,232.71,0,150S67.29,0,150,0c24.97,0,49.54,6.22,71.5,18.11,4.55,2.47,6.24,8.16,3.77,12.71-2.47,4.55-8.16,6.24-12.71,3.77-19.21-10.4-40.71-15.84-62.55-15.84-72.37,0-131.25,58.88-131.25,131.25s58.88,131.25,131.25,131.25,131.25-58.88,131.25-131.25c0-6-.41-12-1.22-17.94-.7-5.13,2.89-9.86,8.02-10.56,5.13-.7,9.86,2.89,10.56,8.02.93,6.79,1.39,13.64,1.39,20.49,0,82.71-67.29,150-150,150Z" fill="#fff"/>
      <path id="_패스_210" data-name="패스 210" d="m221.74,59.29c-3.71,0-6.72-3.01-6.72-6.72,0-3.59,2.82-6.55,6.41-6.71l21.3-.99-.99-21.31c-.17-3.7,2.69-6.85,6.39-7.02,0,0,0,0,0,0,.1,0,.21,0,.32,0,3.59,0,6.53,2.83,6.7,6.41l1.3,28.02c.17,3.71-2.69,6.85-6.4,7.02l-28.02,1.3c-.09,0-.2.01-.3.01Z" fill="#fff"/>
      <path id="_패스_211" data-name="패스 211" d="m273.81,87.94c-.26,0-.52-.01-.78-.05l-27.85-3.28c-3.69-.42-6.33-3.75-5.91-7.44.42-3.69,3.75-6.33,7.44-5.91.02,0,.03,0,.05,0l21.18,2.49,2.49-21.18c.4-3.69,3.71-6.36,7.4-5.97,3.69.4,6.36,3.71,5.97,7.4,0,.05-.01.09-.02.14l-3.27,27.86c-.4,3.38-3.27,5.93-6.68,5.93h0Z" fill="#fff"/>
    </g>
  </g>
</svg>