<?xml version="1.0" encoding="UTF-8"?>
<svg id="Layer_2" data-name="Layer 2" xmlns="http://www.w3.org/2000/svg" viewBox="0 0 300 300">
  <g id="_레이어_1" data-name="레이어 1">
    <g>
      <g>
        <path d="m41.6,74.52h.44c1.31,6.44,8.48,11.37,17.11,11.37s15.8-4.93,17.11-11.37h.44c1.31,6.44,8.48,11.37,17.11,11.37s15.79-4.93,17.11-11.37h.44c1.31,6.44,8.48,11.37,17.11,11.37s15.79-4.93,17.11-11.37h.44c1.31,6.44,8.48,11.37,17.11,11.37s15.8-4.93,17.11-11.37h.44c1.31,6.44,8.48,11.37,17.11,11.37v-27.04c0-8.63-8.97-15.61-20.03-15.61H44.52c-11.06,0-20.03,6.99-20.03,15.61v27.04c8.64,0,15.8-4.93,17.11-11.37Z" fill="#fff"/>
        <path d="m278.72,124.32h0s-12.93-1.46-32.37,7.71c-13.53,6.38-21.9,2-25.74-1.26-2.75-14.97-8.72-29.15-17.52-41.57h-5.26c-6.41.11-12.62-2.25-17.33-6.59-9.88,8.8-24.79,8.8-34.67,0-9.88,8.8-24.79,8.8-34.67,0-9.88,8.79-24.79,8.79-34.67,0-4.71,4.34-10.92,6.71-17.33,6.6-6.41.11-12.62-2.25-17.34-6.59-4.72,4.34-10.92,6.71-17.34,6.59h-5.26C6.72,106.81,0,127.88,0,149.49c.07,29.84,12.8,58.24,35.02,78.15-6.97,5.88-7.84,16.3-1.96,23.26,3.14,3.72,7.75,5.86,12.61,5.86h130.97c9.12,0,16.51-7.38,16.51-16.5,0-4.86-2.14-9.48-5.86-12.62,19.62-17.61,31.94-41.92,34.54-68.16,4.27-3.04,12.28-6.08,24.52-.31,19.44,9.17,32.37,7.71,32.37,7.71,11.75,0,21.28-9.53,21.28-21.28s-9.53-21.28-21.28-21.28Zm-73.82,64.8h-.02c-5.58,12.15-13.58,23.04-23.51,32-3.6,3.27-3.87,8.83-.61,12.43.26.29.54.56.84.81,3.25,2.74,3.67,7.6.93,10.85-1.46,1.74-3.62,2.74-5.89,2.74H45.68c-4.25,0-7.7-3.44-7.71-7.69,0-2.27,1-4.43,2.74-5.89,3.71-3.14,4.18-8.69,1.04-12.41-.25-.3-.52-.58-.81-.84-9.93-8.96-17.92-19.85-23.5-32-13.48-29.5-11.04-63.83,6.48-91.12h.58c6.06.02,12.03-1.53,17.32-4.5,10.78,6,23.89,6,34.67,0,10.78,6,23.89,6,34.67,0,10.78,6,23.89,6,34.67,0,10.78,6,23.89,6,34.67,0,5.29,2.97,11.26,4.52,17.33,4.5h.58c17.52,27.29,19.96,61.62,6.48,91.12Z" fill="#fff"/>
        <path d="m118.02,193.42h0c-24.66-30.22-48.55-52.06-90.77-39.37,7.24,8.87,24.65,26.21,61.68,45.91,0,0-49.69-15.2-67.59-36.66,4.63,21.15,28.16,81.95,144.01,51.98,0,0-33.87-5.36-47.34-21.85Z" fill="#fff"/>
        <path d="m197.77,157.61c-24.05,19.28-43.36,13.08-64.19,1.72-20.83-11.36-51.89-4.13-51.89-4.13,38.44,10.85,34.77,37.73,67.41,46.65,52.26,14.29,48.67-44.24,48.67-44.24h0Z" fill="#fff"/>
      </g>
      <rect width="300" height="300" fill="none"/>
    </g>
  </g>
</svg>