<?xml version="1.0" encoding="UTF-8"?>
<svg id="Layer_2" data-name="Layer 2" xmlns="http://www.w3.org/2000/svg" viewBox="0 0 300 300">
  <g id="_레이어_1" data-name="레이어 1">
    <g>
      <g>
        <polygon points="0 259.26 36.31 259.26 36.31 128.56 0 113.35 0 259.26" fill="#fff"/>
        <path d="m72.6,40.74v218.52h227.4v-123.26L72.6,40.74Zm189.71,169.93h-9.87v9.87c-.08,4.94-4.07,8.93-9.01,9.01-5.06.08-9.22-3.95-9.3-9.01v-9.87h-9.87c-4.94-.08-8.93-4.07-9.01-9.01-.08-5.06,3.95-9.22,9.01-9.31h9.87v-9.87c.08-4.94,4.07-8.93,9.01-9.01,5.06-.08,9.22,3.95,9.3,9.01v9.87h9.87c4.94.08,8.93,4.07,9.01,9.01.08,5.06-3.95,9.22-9.01,9.31Z" fill="#fff"/>
      </g>
      <rect width="300" height="300" fill="none"/>
    </g>
  </g>
</svg>