<?xml version="1.0" encoding="UTF-8"?>
<svg id="Layer_2" data-name="Layer 2" xmlns="http://www.w3.org/2000/svg" viewBox="0 0 300 300">
  <g id="_레이어_1" data-name="레이어 1">
    <path id="_패스_891" data-name="패스 891" d="m280.87,101.25h-82.12V19.13c0-10.56-8.56-19.13-19.13-19.13h-59.25c-10.56,0-19.13,8.56-19.13,19.13v82.12H19.13c-10.56,0-19.13,8.56-19.13,19.13v59.24c0,10.56,8.56,19.13,19.13,19.13h82.12v82.13c0,10.56,8.57,19.12,19.13,19.13h59.24c10.57,0,19.13-8.56,19.14-19.13v-82.13h82.12c10.56,0,19.13-8.56,19.13-19.13v-59.24c0-10.56-8.56-19.13-19.13-19.13" fill="#fff"/>
  </g>
</svg>