<?xml version="1.0" encoding="UTF-8"?>
<svg id="Layer_2" data-name="Layer 2" xmlns="http://www.w3.org/2000/svg" viewBox="0 0 300 300">
  <g id="_레이어_1" data-name="레이어 1">
    <g id="_11건강_shape_11_0002" data-name=" 11건강 shape 11 0002">
      <path id="_패스_234" data-name="패스 234" d="m175.31,11.5c-7.17,1.58-14.22,3.64-19.05,9.55-4.55,5.56-6.78,12.55-8.65,19.38-3.58,13.14-6.13,29.29-18.31,37.57-2.9,1.97-7.48,2.91-7.8,7.07-.28,3.7,3.08,6.84,5.89,8.69,2.31,1.52,4.46-2.19,2.16-3.7-1.13-.75-4.78-3.48-3.59-5.21.46-.45,1.01-.79,1.62-.98.67-.32,1.34-.64,1.99-1.01,1.38-.79,2.69-1.69,3.93-2.69,4.73-3.99,8.46-9.03,10.89-14.72,3.04-6.7,4.72-13.87,6.57-20.96,1.65-6.35,3.34-12.95,6.96-18.51,1.84-2.91,4.4-5.29,7.43-6.91,3.44-1.8,7.33-2.61,11.09-3.44,2.69-.59,1.55-4.73-1.14-4.13h0Z" fill="#fff"/>
      <path id="_패스_235" data-name="패스 235" d="m129.58,112.69c1.89,3.23.72,7.35.31,10.83-.48,4.04-.15,8.07,2.59,11.28,6.29,7.35,16.89,4.38,25.23,4.96,16.43,1.14,31.36,12.39,36.64,28.01,3.09,9.06,3.07,18.88-.05,27.93-.91,2.61,3.23,3.73,4.13,1.14,5.78-16.58,1.38-36.02-11.29-48.25-6.11-5.88-13.68-10.02-21.93-11.99-4.31-.99-8.74-1.38-13.16-1.16-4.48.19-9.41.8-13.56-1.35-1.81-.83-3.24-2.31-4.03-4.14-.6-2.03-.71-4.16-.32-6.24.52-4.47,1.54-9.06-.87-13.19-1.39-2.38-5.09-.23-3.7,2.16h0Z" fill="#fff"/>
      <path id="_패스_236" data-name="패스 236" d="m182.23,12.05c-1.44,13.38,1.51,26.86,8.41,38.42,10.89,17.88,30.11,29.02,51.04,29.58,2.76.07,2.76-4.21,0-4.29-12.35-.35-24.26-4.66-33.98-12.28-9.72-7.73-16.65-18.42-19.73-30.45-1.76-6.84-2.26-13.96-1.45-20.98,0-1.18-.96-2.14-2.14-2.14-1.17.03-2.12.97-2.14,2.14h0Z" fill="#fff"/>
      <path id="_패스_237" data-name="패스 237" d="m215.4,119.06c11.81-.32,22.1-10.85,22.05-22.7-.01-2.76-4.3-2.76-4.29,0,.04,9.47-8.27,18.15-17.77,18.41-2.75.07-2.76,4.36,0,4.29h0Z" fill="#fff"/>
      <path id="_패스_238" data-name="패스 238" d="m57.1,64.26c6.63-5.76,16.56-3.22,23.47.63,3.47,1.84,6.53,4.37,8.99,7.43,3.14,4.06,5.33,8.74,7.9,13.15,2.55,4.55,5.98,8.54,10.11,11.74,2.36,1.6,4.57,3.41,6.6,5.42,1.56,1.72,2.76,3.73,3.53,5.92,3.55,9.9-.54,20.2-7.36,27.6-7.72,8.38-19.74,15.33-31.44,12.16-2.67-.72-3.8,3.41-1.14,4.13,11.72,3.17,23.76-2.33,32.4-10.09,8.31-7.48,14.41-18.16,12.91-29.66-.65-5.64-3.31-10.85-7.5-14.68-2.33-2.07-5.01-3.69-7.37-5.73-2.05-1.81-3.84-3.89-5.32-6.18-3.05-4.62-5.29-9.73-8.43-14.29-2.61-3.82-5.98-7.07-9.9-9.53-8.97-5.68-21.71-8.66-30.48-1.04-2.09,1.81.96,4.83,3.03,3.03h0Z" fill="#fff"/>
      <path id="_패스_239" data-name="패스 239" d="m54.75,128.76c-2.26-1-4.86-.86-7.01.36-2.08,1.14-3.59,3.11-4.15,5.41-.5,2.45-.05,5,1.26,7.14,1.38,2.23,3.47,3.94,5.94,4.83,2.87.99,5.95,1.13,8.9.42,1.14-.31,1.81-1.49,1.5-2.64s-1.49-1.81-2.64-1.5c-.89.21-1.8.31-2.71.29-.47,0-.94-.02-1.41-.07.01,0-.37-.05-.18-.02s-.19-.03-.18-.03c-.27-.05-.54-.1-.8-.17-.45-.11-.9-.25-1.33-.42-.23-.09-.07-.03-.03,0-.11-.05-.21-.1-.32-.15-.24-.12-.48-.25-.72-.39s-.44-.28-.65-.43-.01,0,.02.02c-.08-.06-.16-.13-.24-.2-.34-.3-.65-.62-.94-.96-.24-.28.03.08-.17-.23-.11-.17-.23-.34-.34-.52-.11-.18-.21-.36-.3-.54-.05-.09-.09-.19-.14-.28-.15-.31.1.27-.02-.06-.15-.42-.27-.84-.37-1.28-.09-.4,0,.17-.04-.23-.02-.24-.03-.47-.03-.71,0-.2.01-.4.03-.61.03-.26,0,.03,0,.07.02-.1.04-.2.06-.3.04-.19.1-.38.16-.57.03-.09.06-.18.1-.26-.08.2-.09.17.01,0,.11-.19.21-.38.33-.56.05-.08.1-.15.16-.23-.02.03-.21.25-.05.07.27-.31.56-.59.87-.85-.3.24.14-.09.25-.16.18-.12.38-.21.57-.32.03-.01.31-.14.08-.05-.23.1.13-.05.17-.06.2-.07.41-.13.62-.18.12-.03.24-.05.36-.07-.19.04-.26.02-.03.01.21,0,.42-.01.63,0,.09,0,.18.01.27.02-.2-.02-.25-.05-.03.02.12.03.76.24.36.07,1.03.56,2.31.22,2.93-.77.59-1.02.25-2.33-.77-2.93h0Z" fill="#fff"/>
      <path id="_패스_240" data-name="패스 240" d="m70.57,73.93c5.73,6.08,10.09,13.98,9.91,22.53-.16,7.66-4.16,15.54-11.67,18.29-3.93,1.57-8.33,1.42-12.15-.4-2.45-1.26-4.62,2.44-2.16,3.7,8.31,4.26,18.9,1.52,24.68-5.67,6.16-7.67,6.97-18.34,3.52-27.36-2.08-5.26-5.17-10.05-9.1-14.12-1.9-2.01-4.92,1.02-3.03,3.03h0Z" fill="#fff"/>
      <path id="_패스_241" data-name="패스 241" d="m39.19,74.46c5.78-2.25,9.65-7.75,9.82-13.95.03-3.17-1.1-6.49-3.74-8.4-2.62-1.91-6.21-1.7-8.6.48-1.97,1.94,1.06,4.97,3.03,3.03.46-.43,1.09-.63,1.72-.54.75.08,1.44.44,1.94,1.01,1.31,1.4,1.52,3.61,1.32,5.47-.53,3.88-3.03,7.19-6.62,8.76-1.12.34-1.78,1.5-1.5,2.64.32,1.14,1.5,1.81,2.64,1.5h0Z" fill="#fff"/>
      <path id="_패스_242" data-name="패스 242" d="m31.05,76c-15.04,6.84-24.86,22.57-25.64,38.9-.85,17.86,8.43,34.88,22.81,45.14,8.02,5.65,17.27,9.32,26.98,10.7,1.14.28,2.29-.38,2.64-1.5.31-1.14-.36-2.32-1.5-2.64-16.04-2.33-31.29-11.03-39.75-25.12-8.23-13.68-9.49-31.06-1.45-45.12,4.13-7.32,10.45-13.15,18.07-16.67,1.01-.6,1.36-1.91.77-2.93-.61-1-1.91-1.34-2.93-.77h0Z" fill="#fff"/>
      <path id="_패스_243" data-name="패스 243" d="m205.53,9.67c10.44-1.92,21.18-1.34,31.36,1.68,10.09,3.17,19.15,8.96,26.27,16.78,6.88,7.66,12.29,16.54,15.93,26.17,4.05,10.57,6.96,21.54,8.66,32.74,1.78,11.28,2.31,22.99.5,34.3-1.68,10.11-5.03,19.86-9.92,28.86-9.79,18.25-24.55,33.12-40.86,45.64-17.91,13.74-37.28,25.45-57.03,36.31-19.87,10.93-40.2,21.02-60.31,31.5-4.96,2.59-9.91,5.21-14.84,7.86-4.3,2.32-9.18,4.87-11.5,9.42-1.93,3.79-1.85,9.09,1.38,12.18,3.88,3.71,9.53,2.11,13.23-.97,7.72-6.44,8.89-18.33,6.19-27.42-2.99-10.09-10.56-18.13-18.5-24.68-16.28-13.43-35.36-22.7-52.93-34.23-8.64-5.68-16.96-11.96-24.06-19.51-3.47-3.69-6.76-7.92-8.3-12.82-1.36-4.63-1.02-9.59.97-13.99,1.61-3.69,4.37-6.97,8.32-8.17,2.63-.8,1.51-4.94-1.14-4.13-9.11,2.76-13.96,13.45-13.24,22.45.85,10.63,9.12,19.07,16.66,25.8,15.71,14.04,34.71,23.49,52.41,34.67,8.77,5.54,17.52,11.51,24.85,18.91,7.05,7.11,12.6,16.18,11.95,26.53-.18,4.72-2.04,9.22-5.24,12.69-1.53,1.53-3.77,3-6.04,2.77-1.77-.24-3.16-1.63-3.39-3.41-.93-4.56,2.86-7.89,6.35-10.04,4.58-2.81,9.45-5.19,14.2-7.69,20.04-10.55,40.35-20.59,60.27-31.38,19.85-10.75,39.38-22.26,57.55-35.69,16.8-12.43,32.31-26.67,43.36-44.59,11.7-18.34,16.83-40.11,14.53-61.74-1.05-11.53-3.32-22.92-6.76-33.97-2.92-10.15-7.38-19.78-13.22-28.58-5.86-8.77-13.65-16.09-22.77-21.39-9.33-5.17-19.78-7.99-30.44-8.22-5.23-.11-10.46.3-15.6,1.22-2.71.47-1.56,4.6,1.14,4.13h0Z" fill="#fff"/>
      <path id="_패스_244" data-name="패스 244" d="m136.61,105.36c5.69-.05,11.3-1.36,16.43-3.84,1.01-.6,1.35-1.91.77-2.93-.61-1-1.91-1.34-2.93-.77-4.46,2.12-9.33,3.23-14.27,3.25-1.18,0-2.14.96-2.14,2.14s.96,2.14,2.14,2.14h0Z" fill="#fff"/>
      <rect id="_사각형_30" data-name="사각형 30" width="300" height="300" fill="none"/>
    </g>
  </g>
</svg>