<?xml version="1.0" encoding="UTF-8"?>
<svg id="Layer_2" data-name="Layer 2" xmlns="http://www.w3.org/2000/svg" viewBox="0 0 300 300">
  <g id="_레이어_1" data-name="레이어 1">
    <g>
      <g>
        <path d="m247.21,152.31c-18.84-36.29-56.33-59.07-97.22-59.06-60.49,0-109.54,49.04-109.54,109.53,0,40.89,22.77,78.38,59.06,97.22-26.91-27.88-26.12-72.29,1.75-99.2,27.88-26.91,72.29-26.12,99.2,1.75,26.24,27.18,26.24,70.26,0,97.44,53.69-27.87,74.62-94,46.74-147.69Zm-97.22,22.14h0c-14.64,0-26.51-11.87-26.51-26.51s11.87-26.51,26.51-26.51,26.51,11.87,26.51,26.51c0,14.64-11.87,26.51-26.51,26.51Z" fill="#fff"/>
        <circle cx="149.99" cy="41.39" r="41.39" fill="#fff"/>
      </g>
      <rect width="300" height="300" fill="none"/>
    </g>
  </g>
</svg>