<?xml version="1.0" encoding="UTF-8"?>
<svg id="Layer_2" data-name="Layer 2" xmlns="http://www.w3.org/2000/svg" viewBox="0 0 300 300">
  <g id="_레이어_1" data-name="레이어 1">
    <g id="_11건강_shape_11_0001" data-name=" 11건강 shape 11 0001">
      <rect id="_사각형_26" data-name="사각형 26" width="300" height="300" fill="none"/>
      <path id="_패스_214" data-name="패스 214" d="m106.28,101.82s.08-.04.12-.06c-1.66-6.55-4.73-11.24-9.05-13.6-10.49-5.72-31.91,6.8-38.86,6.76s-14.46-6.45-24.88-8.24c-10.42-1.79-24.34-1.28-24.47,25.96-.18,35.94,16.49,64.41,19.36,69.64,2.87,5.23,8.64,11.06,13.3,5.28,4.66-5.77,4.52-10.81,9.6-18.73,5.84-9.12,10.67-5.46,12.4-2.55,1.73,2.91,3.02,5.72,6.44,12.73,3.7,7.59,5.16,11.04,8.06,11.05,2.9.01,6.96-1.12,12.23-12.11,2.86-5.96,5.34-11.74,7.46-17.35-7.26-30.25-3.66-52.28,8.3-58.79Zm-25.51,16.76c-.05.16-4.78,15.7-22.37,15.7h-.15c-17.94-.09-20.34-16.01-20.36-16.17-.13-1.06.63-2.03,1.69-2.16,1.04-.12,1.99.59,2.15,1.63.07.51,2.02,12.75,16.54,12.82h.13c8.37.23,15.91-5,18.65-12.91.28-1.03,1.35-1.64,2.38-1.36,1.03.28,1.64,1.35,1.36,2.38,0,.02-.01.05-.02.07h0Z" fill="#fff"/>
      <path id="_패스_215" data-name="패스 215" d="m265.41,86.69c-10.42,1.79-17.93,8.2-24.88,8.24-6.95.04-28.37-12.48-38.86-6.76-3.99,2.17-6.9,6.34-8.64,12.12,7.78,2.28,14.26,9.74,14.36,29.59,0,12.03-1.48,24.01-4.42,35.66,1.66,4.05,3.5,8.19,5.52,12.42,5.27,10.99,9.33,12.12,12.23,12.11,2.9-.01,4.36-3.47,8.06-11.05,3.42-7.02,4.72-9.83,6.44-12.74s6.55-6.56,12.4,2.55c5.08,7.93,4.94,12.96,9.6,18.73,4.66,5.77,10.43-.05,13.3-5.28,2.87-5.23,19.54-33.71,19.36-69.64-.13-27.24-14.04-27.75-24.47-25.96Zm-4.29,31.42c-.02.16-2.42,16.08-20.36,16.17h-.15c-17.6,0-22.33-15.54-22.37-15.7-.3-1.03.29-2.1,1.32-2.41s2.1.29,2.41,1.32h0c2.68,7.95,10.27,13.2,18.65,12.91h.13c14.52-.07,16.46-12.31,16.54-12.83.17-1.06,1.16-1.78,2.22-1.61,1.03.16,1.74,1.11,1.62,2.15h0Z" fill="#fff"/>
      <path id="_패스_216" data-name="패스 216" d="m190.14,103.54c-4.15-1.21-8.7-.85-12.75-.15-11.13,1.91-19.14,8.76-26.56,8.8-7.4.04-30.15-13.23-41.39-7.27-.03.02-.07.03-.11.05-11.14,6.07-14.5,26.58-7.73,54.77,3.55,14.19,8.59,27.96,15.02,41.1,5.63,11.73,9.96,12.94,13.06,12.93,3.09-.02,4.66-3.7,8.6-11.8,3.65-7.49,5.04-10.49,6.88-13.6,1.84-3.11,7-7.01,13.23,2.73,5.42,8.46,5.27,13.84,10.25,20,4.98,6.16,11.14-.06,14.2-5.64,7.35-12.9,12.91-26.74,16.55-41.13,2.74-10.86,4.12-22.02,4.12-33.22-.08-18.48-6.12-25.43-13.37-27.56Zm-16,31.79c-.02.18-2.74,18.19-23.06,18.29h-.17c-19.96,0-25.32-17.61-25.37-17.79-.3-1.03.29-2.1,1.32-2.41s2.1.29,2.41,1.32h0c.18.61,4.66,15,21.65,15h.15c16.9-.08,19.15-14.34,19.24-14.95.17-1.06,1.16-1.78,2.22-1.61,1.03.16,1.74,1.11,1.62,2.15h0Z" fill="#fff"/>
    </g>
  </g>
</svg>