<?xml version="1.0" encoding="UTF-8"?>
<svg id="Layer_2" data-name="Layer 2" xmlns="http://www.w3.org/2000/svg" viewBox="0 0 300 300">
  <g id="_레이어_1" data-name="레이어 1">
    <g>
      <g>
        <path d="m150.04,81.06c21.3-.22,39.54-18.64,39.79-40.2C190.09,18.41,171.95-.11,149.82,0c-21.94.26-39.65,18.03-39.82,39.97-.19,22.14,18.49,41.31,40.04,41.09Z" fill="#fff"/>
        <path d="m275.57,179.31c-.34-6-1-11.98-1.97-17.92-1.79-11.4-5.2-22.49-10.14-32.92-5.44-11.45-13.34-21.56-23.13-29.6-9.31-7.48-23.75-17.39-36.14-16.71-10.39.57-18.67,8.42-27.77,13.48-16.19,8.8-35.68,9.06-52.1.7-8.72-4.54-16.54-11.54-26.26-13.04-7.3-1.12-14.75,1.08-21.42,4.25-19.58,9.31-34.45,27.03-42.82,47.03-8.37,20-10.64,42.16-9.36,63.81,1.29,21.92,6.41,44.25,19.17,62.11,12.36,17.3,31.22,29.3,51.44,35.86,7.74,2.51,15.99,4.29,24,2.86,9.87-1.82,18.22-8.34,22.39-17.47,3.99-9.22,3.01-19.84-2.6-28.18-4.23-6.08-10.61-10.23-16.24-15.04-10-8.55-18.02-19.83-20.96-32.67-4.98-21.73,6.71-46.15,26.76-55.89,20.05-9.74,46.45-3.82,60.44,13.54,13.98,17.36,14.15,44.44.38,61.97-10.59,13.48-28.52,22.3-32.45,38.99-3.17,13.43,5.38,28.28,18.24,33.27,12,4.64,25.61,1.42,37.43-3.64,15.33-6.57,29.48-16.29,40.03-29.21,19.13-23.43,24.9-55.39,23.1-85.59Z" fill="#fff"/>
      </g>
      <rect width="300" height="300" fill="none"/>
    </g>
  </g>
</svg>