<?xml version="1.0" encoding="UTF-8"?>
<svg id="Layer_2" data-name="Layer 2" xmlns="http://www.w3.org/2000/svg" viewBox="0 0 300 300">
  <g id="_레이어_1" data-name="레이어 1">
    <path id="_합치기_20" data-name="합치기 20" d="m0,300v-150C0,67.16,67.16,0,150,0c82.84,0,149.99,67.16,150,150v150H0Zm65.91-148.11v25.13c0,7.87,6.37,14.24,14.24,14.24h43.02v43.02c0,7.87,6.37,14.24,14.24,14.24h25.14c7.86,0,14.24-6.37,14.24-14.24h0v-43.02h43.02c7.86,0,14.24-6.37,14.24-14.24h0v-25.14c0-7.87-6.36-14.25-14.22-14.27h-43.05v-43.02c0-7.87-6.37-14.24-14.24-14.24h-25.14c-7.86,0-14.24,6.37-14.24,14.24h0v43.02h-43.02c-7.86,0-14.24,6.37-14.24,14.24v.02Z" fill="#fff"/>
  </g>
</svg>