<?xml version="1.0" encoding="UTF-8"?>
<svg id="Layer_2" data-name="Layer 2" xmlns="http://www.w3.org/2000/svg" viewBox="0 0 300 300">
  <g id="_레이어_1" data-name="레이어 1">
    <g>
      <path id="_합치기_30" data-name="합치기 30" d="m107.76,299.91c-3.83,0-6.94-3.1-6.94-6.94v-128.3c0-1.19-.97-2.14-2.15-2.15h-38.66c-8.84,0-16.01-7.17-16.02-16.02v-60.69c0-8.84,7.17-16.01,16.02-16.02h85.78c8.84,0,16.02,7.17,16.02,16.02v26.61c0,8.85-7.18,16.01-16.02,16.02h-38.04c-3.83,0-6.94-3.1-6.94-6.94s3.1-6.94,6.94-6.94h38.04c1.18,0,2.14-.96,2.15-2.15v-26.61c0-1.19-.96-2.14-2.14-2.15H60.02c-1.18,0-2.14.97-2.15,2.15v60.69c0,1.18.97,2.14,2.15,2.15h38.66c8.84,0,16.01,7.17,16.02,16.02v121.37h49.85l78.06-216.51c1.41-3.56,5.44-5.31,9-3.89,3.41,1.35,5.17,5.11,4.05,8.59l-79.73,221.11c-.99,2.75-3.59,4.58-6.51,4.58h-61.66ZM221.64,59.22c-4.59,0-8.3-3.72-8.3-8.3V8.4c0-4.58,3.71-8.3,8.3-8.3h24.89c4.59,0,8.3,3.72,8.3,8.3v42.51c0,4.58-3.71,8.3-8.3,8.3h-24.89Zm-46.66.01c-4.59,0-8.3-3.72-8.3-8.3V8.4c0-4.58,3.71-8.3,8.3-8.3h24.89c4.59,0,8.3,3.72,8.3,8.3v42.51c0,4.58-3.71,8.3-8.3,8.3h-24.89Zm-46.69.01c-4.59,0-8.3-3.72-8.3-8.3V8.4c0-4.58,3.71-8.3,8.3-8.3h24.89c4.59,0,8.3,3.72,8.3,8.3v42.51c0,4.58-3.71,8.3-8.3,8.3h-24.89Zm-46.66.01c-4.59,0-8.3-3.72-8.3-8.3V8.4c0-4.58,3.71-8.3,8.3-8.3h24.89c4.59,0,8.3,3.72,8.3,8.3v42.51c0,4.58-3.71,8.3-8.3,8.3h-24.89Z" fill="#fff"/>
      <rect width="300" height="300" fill="none"/>
    </g>
  </g>
</svg>