<?xml version="1.0" encoding="UTF-8"?>
<svg id="Layer_2" data-name="Layer 2" xmlns="http://www.w3.org/2000/svg" viewBox="0 0 300 300">
  <g id="_레이어_1" data-name="레이어 1">
    <g>
      <path d="m203.66,181.73c-6.47,1.42-13.19,1.19-19.54-.67-6.72-2.19-12.87-5.78-18.07-10.49v-4.54h40.76c2.58,0,4.67-2.09,4.67-4.66v-22.73c0-2.57-2.09-4.66-4.67-4.66h-24.35c9.08-6.79,17.22-15.91,19.94-27.72,41.98-8.8,61.31,59.83,61.31,59.83l36.3,5.14c-32.26-112.2-70.65-115.4-100.52-91.64,0,0,0,0,0,0h0c-5.15-12.59-15.85-27.11-34.58-43.73l-.06.47-3.54,27.15s16.69,14.62,20.24,34.37c1.21,6.47.76,13.15-1.32,19.4-2.23,6.19-5.64,11.87-10,16.74h-4.16v-40.69c0-2.57-2.09-4.66-4.67-4.66h-22.76c-2.58,0-4.67,2.09-4.67,4.66v23.63c-6.94-9.32-16.35-17.59-28.64-20.03h0c-9.19-1.6-18.66-.32-27.09,3.67-12.26,5.27-26.32,15.66-42.4,33.29l.47.07,27.16,3.84s13.95-15.52,32.88-19.49c6.47-1.42,13.19-1.19,19.54.67,6.72,2.19,12.87,5.78,18.07,10.49v4.55h-40.76c-2.58,0-4.67,2.09-4.67,4.66v22.73c0,2.57,2.09,4.66,4.67,4.66h24.36c-9.08,6.79-17.23,15.91-19.94,27.72h0c-41.98,8.8-61.31-59.83-61.31-59.83l-.47-.07L0,128.79c32.26,112.19,70.65,115.4,100.52,91.64,0,0,0,0,0,0,5.15,12.6,15.85,27.12,34.58,43.74l.06-.47,3.55-27.16s-16.69-14.62-20.25-34.36c-1.21-6.47-.76-13.15,1.32-19.4,2.24-6.19,5.64-11.87,10.01-16.75h4.15v40.69c0,2.57,2.09,4.66,4.67,4.66h22.76c2.58,0,4.67-2.09,4.67-4.66v-23.63c6.94,9.32,16.35,17.59,28.65,20.04,7.6,40.92-59.51,60.57-59.51,60.57l-.06.47-4.68,35.83c110.92-33.15,114.71-71.11,91.34-100.55,0,0,0,0,0,0,12.25-5.27,26.32-15.66,42.4-33.29l-27.64-3.92s-13.95,15.52-32.88,19.49Z" fill="#fff"/>
      <path d="m105.32,96.88c-7.6-40.92,59.51-60.57,59.51-60.57l.06-.47L169.56,0C58.63,33.15,54.84,71.11,78.23,100.55c8.43-3.98,17.9-5.27,27.09-3.67Z" fill="#fff"/>
    </g>
  </g>
</svg>