<?xml version="1.0" encoding="UTF-8"?>
<svg id="Layer_2" data-name="Layer 2" xmlns="http://www.w3.org/2000/svg" viewBox="0 0 300 300">
  <g id="_레이어_1" data-name="레이어 1">
    <g>
      <g>
        <path d="m286.75,136.8c-18.32-29.94-57.45-39.36-87.39-21.03l-31.17,19.08,66.36,108.43,31.17-19.08c29.94-18.32,39.36-57.45,21.03-87.39Z" fill="#fff"/>
        <path d="m146.91,147.86v-56.35c0-39.43-32.08-71.51-71.51-71.51S3.9,52.08,3.9,91.51v88.99c0,39.43,32.08,71.51,71.51,71.51,9.03,0,17.67-1.7,25.64-4.77.44.8.89,1.59,1.38,2.38,18.32,29.94,57.45,39.36,87.39,21.04l31.17-19.08-66.36-108.43-7.72,4.72ZM19.79,91.51c0-30.67,24.95-55.62,55.62-55.62s55.62,24.95,55.62,55.62v36.55H19.79v-36.55Zm75.34,140.98c-6.13,2.33-12.78,3.62-19.72,3.62-30.67,0-55.62-24.95-55.62-55.62v-36.55h111.23v36.55c0,23.72-14.94,44.01-35.9,51.99Z" fill="#fff"/>
      </g>
      <rect width="300" height="300" fill="none"/>
    </g>
  </g>
</svg>