<?xml version="1.0" encoding="UTF-8"?>
<svg id="Layer_2" data-name="Layer 2" xmlns="http://www.w3.org/2000/svg" viewBox="0 0 300 300">
  <g id="_레이어_1" data-name="레이어 1">
    <g>
      <path d="m67.57,257.28c19.19,14.51,41.79,23.86,65.63,27.14,27.57,3.85,56.8-.68,80.3-15.58,15.92-10.1,28.62-24.42,41.09-38.53,1.16-1.03,1.89-2.45,2.04-3.99-.14-3.33-4.9-3.95-8.09-3-6.49,2.24-12.44,5.85-17.42,10.57-7.82,6.76-15.06,14.7-24.44,18.85-8.59,3.8-18.27,4.13-27.66,4.11-6.33.27-12.67-.47-18.77-2.18-6.16-1.78-11.25-6.16-13.93-11.98l36.16-5.48c3.98-.27,7.83-1.53,11.19-3.67,3.16-2.4,4.92-7.15,2.72-10.46-3.06-4.63-10.03-2.94-15.49-1.92-3.28.59-6.62.8-9.95.61.65-1.22,1.24-2.31,1.74-3.24,2.35-4.35,7.89-14.45,25.32-43.42,7.02-11.66,6.2-10.16,6.94-11.49,14.29-25.68,25.47-48.51,31.27-59.44,1.12-1.86,2.75-3.35,4.7-4.31,4.37-2.24,6.59-6.65,4.96-10.84-1.67-3.95-5.95-6.11-10.12-5.13-4.43,1.36-6.96,6-5.7,10.45.42,1.75.32,3.59-.3,5.29-11.88,25.22-26.75,48.87-36.92,75.06-6.28,16.18-14.68,31.53-22.76,47.01-3.76-.29-7.5-.86-11.18-1.71.01-1.3.03-2.47.04-3.48.07-4.94.3-16.46,2.35-50.2.82-13.58.8-11.88.84-13.39.78-29.37.13-54.77.23-67.15.13-2.16.89-4.24,2.17-5.99,2.84-4,2.77-8.94-.62-11.9-3.31-2.72-8.1-2.67-11.34.13-3.3,3.25-3.4,8.53-.23,11.9,1.19,1.36,1.95,3.04,2.19,4.83,1.13,27.85-1.1,55.69,2,83.62,1.89,17,1.59,34.24,1.57,51.45-4.81-1.09-9.62-2.47-14.45-3.68-7.4-13.43-14.02-27.26-19.85-41.44-10.17-26.2-25.04-49.85-36.93-75.07-.62-1.7-.72-3.54-.29-5.29,1.25-4.45-1.28-9.09-5.71-10.45-4.17-.98-8.45,1.18-10.12,5.13-1.64,4.19.59,8.6,4.96,10.84,1.95.95,3.58,2.45,4.7,4.31,5.81,10.93,16.98,33.75,31.27,59.44.73,1.32-.08-.18,6.94,11.49,14.57,24.22,20.83,35.25,23.86,40.76-6.88-1.93-14.01-2.78-21.15-2.53-15.57,1.05-29.29,10.49-40.9,20.91-17.83-20.51-34.66-43.02-41.39-69.33-8.35-32.65.51-68.86,21.75-95.04,21.24-26.18,54.07-42.18,87.72-44.45s67.74,8.81,94.68,29.08c-12.12-12.95-26.81-23.25-43.12-30.24C153.92,4.44,98.4,14.93,60.86,47.83,4.5,97.05-1.26,182.6,47.99,238.93c5.9,6.75,12.46,12.9,19.58,18.35ZM233.07,89.4c1.48-2.67,4.81-3.69,7.52-2.29,2.68,1.26,3.83,4.45,2.57,7.13-.05.1-.1.2-.15.29-1.37,2.72-4.68,3.81-7.4,2.44-.03-.02-.06-.03-.09-.05-2.69-1.46-3.77-4.76-2.46-7.52Zm-80.36-15.26c.07-3.05,2.55-5.49,5.61-5.51,2.96-.12,5.45,2.18,5.58,5.13,0,.11,0,.22,0,.33.05,3.04-2.38,5.54-5.43,5.59-.04,0-.07,0-.11,0-3.06-.05-5.54-2.48-5.65-5.54Zm-71.63,22.79c-2.69,1.42-6.02.38-7.44-2.31-.02-.03-.03-.06-.05-.09-1.42-2.59-.47-5.85,2.12-7.27.1-.05.2-.1.3-.15,2.72-1.39,6.05-.38,7.52,2.29,1.32,2.76.24,6.07-2.45,7.52Z" fill="#fff"/>
      <path d="m91.16,12.08C36.82,34.7-.7,91.16,0,149.99-.6,91.4,37.34,35.21,91.96,14.03c95.83-38.78,201.64,32.79,201.3,135.96.16,103.32-105.3,174.63-201.29,135.95C37.33,264.76-.6,208.56,0,149.99c-.71,58.83,36.81,115.28,91.14,137.92,98.65,42.01,208.88-30.63,208.85-137.92.01-107.27-110.2-179.9-208.84-137.91Z" fill="#fff"/>
    </g>
  </g>
</svg>