<?xml version="1.0" encoding="UTF-8"?>
<svg id="_레이어_2" data-name="레이어 2" xmlns="http://www.w3.org/2000/svg" viewBox="0 0 300 300">
  <g id="_레이어_1-2" data-name="레이어 1">
    <path d="m74.83,53.56v-24.51c-9.67-.99-19.2-1.82-28.7-2.96-12.39-1.48-24.77-3.08-37.13-4.84C3.14,20.41-.79,14.71.13,9.04,1.06,3.3,6.32-.67,12.31.09c10.5,1.34,20.97,2.95,31.48,4.2,9.74,1.16,19.52,1.98,29.28,3.03,1.81.2,2.74-.34,3.64-1.99C78.76,1.59,82.15-.24,86.42.06c4.11.29,7.29,2.38,8.71,6.28.82,2.27,2.21,2.68,4.22,2.72,21.63.41,43.26,1.08,64.9,1.2,12.15.06,24.3-.8,36.45-1.19,2.05-.07,3.35-.56,4.18-2.77,1.45-3.89,4.63-5.96,8.74-6.24,4.12-.27,7.49,1.42,9.49,5.05,1.03,1.87,2.15,2.43,4.2,2.18,19.7-2.39,39.41-4.63,59.1-7.08,6.85-.85,12.48,2.65,13.46,8.89.97,6.15-3.36,11.46-10.28,12.34-21.33,2.72-42.68,5.36-64.34,8.07v24.05c2.78,0,5.53,0,8.29,0,10.13,0,14.71,6.1,11.83,15.71-9.79,32.65-19.54,65.31-29.42,97.93-.77,2.54-.59,4.6.47,6.97,13,29.09,25.93,58.21,38.86,87.33,3.7,8.34,1.7,13.44-6.73,17.11-32.52,14.13-66.38,21.89-101.95,21.37-33.93-.5-66.16-8.57-97.09-22.21-6.29-2.77-8.14-8.79-5.06-15.73,13.02-29.32,26.05-58.65,39.16-87.93,1.07-2.39,1.16-4.45.4-6.97-9.88-32.62-19.63-65.28-29.42-97.93-2.83-9.43,1.77-15.61,11.61-15.63,2.78,0,5.56,0,8.63,0Zm-7.01,208.65c55.02,21.71,109.51,21.69,164.15.07-.26-.88-.34-1.33-.52-1.73-11.31-25.45-22.66-50.88-33.87-76.37-.91-2.08-2.22-2.05-3.93-2.05-29.11.02-58.23.04-87.34-.05-2.26,0-3.26.71-4.15,2.75-7.01,16.02-14.15,31.99-21.25,47.97-4.29,9.66-8.59,19.32-13.08,29.41Zm127.8-101.6c8.53-28.44,17.05-56.86,25.67-85.62-6.91,0-13.27.1-19.61-.06-2.13-.05-3.1.73-4.01,2.56-5.81,11.63-14.77,20.01-26.69,25.15-3.25,1.4-6.69,2.34-10.27,3.58,0,3.69.05,7.47-.01,11.25-.1,6.32-4.62,11.02-10.57,11.09-6.09.07-10.74-4.7-10.82-11.18-.05-3.78,0-7.56,0-11.36-17.21-4.27-29.92-13.88-37.68-29.76-.3-.61-1.34-1.2-2.04-1.21-6.79-.09-13.59-.05-20.86-.05,8.63,28.78,17.16,57.22,25.67,85.62h91.25Zm7.77-107.05v-23.21c-35.66,2.34-71.16,2.33-106.75,0v23.21c2.96,0,5.73,0,8.5,0,9.38,0,11.63,1.59,14.64,10.38,4.48,13.05,16.62,21.78,30.26,21.76,14.23-.01,26.11-9.07,30.73-23.43,1.98-6.14,5.4-8.67,11.83-8.71,3.54-.02,7.09,0,10.8,0Z" fill="#fff"/>
  </g>
</svg>