<?xml version="1.0" encoding="UTF-8"?>
<svg id="_레이어_2" data-name="레이어 2" xmlns="http://www.w3.org/2000/svg" viewBox="0 0 300 300">
  <g id="_레이어_1-2" data-name="레이어 1">
    <g>
      <path d="m135.94,121.66c-37.74,7.61-63.87,44.06-57,83.32,6.17,35.28,36.81,60.34,72.59,59.78,34.88-.55,65.01-26.73,70.15-60.58,5.95-39.17-19.62-74.54-57.16-82.45.5-.6.9-1.15,1.37-1.62,8.13-8.12,16.3-16.2,24.37-24.38,1.36-1.38,2.47-1.58,4.18-.74,33.95,16.56,55.43,43.14,61.56,80.34,9.46,57.49-26.85,110.05-83.99,122.17-55.98,11.87-110.06-22.26-125.31-76.1-14.15-49.99,11.03-104.2,58.4-126,2.36-1.09,3.78-1.06,5.68.9,7.58,7.81,15.37,15.42,23.07,23.11.69.69,1.33,1.43,2.08,2.24Z" fill="#fff"/>
      <path d="m130.65,47.3h39.23c-1.8,7.15-3.52,14.06-5.27,20.95-4.19,16.45-8.37,32.89-12.63,49.32-.26,1.01-1.1,1.88-1.67,2.81-.62-.87-1.56-1.67-1.81-2.63-5.78-22.47-11.48-44.95-17.19-67.43-.24-.94-.41-1.89-.65-3.01Z" fill="#fff"/>
      <path d="m164.41,107.04c2-7.87,4.2-16.6,6.43-25.34,2.73-10.71,5.49-21.41,8.19-32.13.37-1.47.67-2.52,2.63-2.5,14.13.09,28.26.05,42.38.07.28,0,.56.12.42.09-20.08,20-40.29,40.13-60.05,59.81Z" fill="#fff"/>
      <path d="m75.41,47.26c.83-.06,1.51-.14,2.19-.14,13.52,0,27.03,0,40.55,0,1.41,0,2.62-.17,3.13,1.85,4.87,19.48,9.87,38.93,14.83,58.39.05.18-.04.39-.03.31-20.06-19.98-40.23-40.07-60.65-60.41Z" fill="#fff"/>
      <path d="m170.33,37.51h-40.22c2.34-12.45,4.65-24.73,6.99-37.23h26.21c2.32,12.31,4.65,24.68,7.02,37.23Z" fill="#fff"/>
      <path d="m179.87,37.4c-2.32-12.39-4.63-24.69-6.99-37.27,4.9,0,9.42-.07,13.93.06.9.03,1.97.62,2.63,1.27,11.92,11.85,23.8,23.75,35.98,35.94h-45.55Z" fill="#fff"/>
      <path d="m127.56.05c-2.38,12.67-4.69,24.98-7.03,37.43h-45.48c.79-.89,1.32-1.55,1.91-2.14,10.91-10.89,21.85-21.74,32.7-32.68,1.84-1.86,3.78-2.76,6.41-2.65,3.7.15,7.41.04,11.5.04Z" fill="#fff"/>
      <rect y=".14" width="300" height="299.86" fill="none"/>
    </g>
  </g>
</svg>