<?xml version="1.0" encoding="UTF-8"?>
<svg id="_레이어_2" data-name="레이어 2" xmlns="http://www.w3.org/2000/svg" viewBox="0 0 300 300">
  <g id="_레이어_1-2" data-name="레이어 1">
    <g>
      <path id="_패스_747" data-name="패스 747" d="m149.64,264.65c51.18,0,114.28-.59,136.67-.02l11.48.29c.64-.03,1.28.3,1.81.95.62,1.59.5,3.74-.29,5.08-.4.41-.83.69-1.28.86h0s-243,.09-284.46.06c-3.41,0-8.78,0-13.12-.02-.27-.75-.43-1.62-.46-2.52-.03-1.17.17-2.32.56-3.26.74-1.1,1.7-1.61,2.66-1.39,48.81,0,97.62,0,146.42-.02Z" fill="#fff"/>
      <path id="_패스_748" data-name="패스 748" d="m153.55,166.42l41.72.04c1.63-.17,3.26.18,4.68.98,2.01,1.45,2.19,4.32,2.18,6.79l-.19,67.52c-.01,4.06-.23,8.64-3.23,11.38-3.35-1.95-3.74-6.54-3.75-10.41l-.09-62.14c0-2.47-.28-5.42-2.45-6.59-1.05-.45-2.2-.64-3.34-.55l-26.32.05c-2.03,0-4.4.18-5.53,1.87-.58,1.1-.82,2.34-.69,3.57l.3,56.92c.03,4.92,1.26,14.96-3.8,17.74-3.34-3.14-3.24-8.9-3.23-13.13l.2-61.21c.72-2.41-.64-4.95-3.05-5.67-.77-.23-1.6-.26-2.38-.07l-26.23-.09c-1.51-.15-3.03.15-4.37.88-2,1.37-2.19,4.21-2.18,6.65l.33,56.54c.03,5.54-.05,11.48-3.22,16.03-3.41-2.03-3.79-6.73-3.79-10.7l.05-70.73c-.1-1.18.11-2.36.61-3.43,1.18-2.03,3.96-2.27,6.3-2.26l41.46.04Z" fill="#fff"/>
      <path id="_패스_749" data-name="패스 749" d="m96.78,63.01c13.79-.25,27.49,2.37,40.22,7.69,4.63,1.99,9.3,4.41,14.32,4.35,4.49-.05,8.68-2.07,12.82-3.82,30.16-12.49,64.17-11.7,93.72,2.18,3.64,1.74,8.19,3.97,10.01,7.74-3.99,3.24-11.65-1.05-15.62-2.87-27.79-12.47-59.63-12.2-87.21.73-4.74,2.26-9.71,4.96-14.91,4.22-2.69-.57-5.28-1.54-7.67-2.9-27.84-13.28-60.01-14.07-88.48-2.19-5.61,2.38-11.79,5.3-17.52,3.22.97-3.85,5.01-5.96,8.68-7.46,16.37-6.86,33.89-10.55,51.64-10.9Z" fill="#fff"/>
      <path id="_패스_750" data-name="패스 750" d="m33.77,43.87c16.48-8.14,34.29-13.25,52.58-15.06,18.34-1.79,36.83,1.34,53.57,9.07,2.97,1.79,6.3,2.88,9.75,3.2,2.86-.23,5.65-1.01,8.22-2.31,31.84-12.98,67.54-12.71,99.17.75,1.87.81,11.33,5.55,8.74,8-2.94,2.79-14.22-3.28-17.07-4.51-29.11-12.3-62.15-11.1-90.3,3.27-4.64,3.69-11.19,3.78-15.93.23-30.27-14.91-65.73-14.99-96.05-.2-2.26,1.4-4.83,2.23-7.49,2.4-2.64-.09-5.43-2.19-5.19-4.84Z" fill="#fff"/>
      <path id="_패스_751" data-name="패스 751" d="m44.37,176.4v-57.11c-.01-4.09-.01-8.18-.01-12.27-.1-1.55.11-3.1.63-4.56,2.06-4.82,6.28-1.84,6.72,1.88.68,5.6-.05,11.8-.05,17.46.01,12.37.02,24.74.02,37.11.01,24.74.02,49.48.02,74.22v15.58c.19,1.35-.22,2.71-1.13,3.72-1.42.87-3.28.46-4.21-.92-.84-1.37-1.29-2.96-1.29-4.57-.7-8.27-.7-16.58-.7-24.88v-45.66Z" fill="#fff"/>
      <path id="_패스_752" data-name="패스 752" d="m261.1,176.41v70.69c0,2.5-.68,5.8-3.18,6.01-1.42-.01-2.69-.9-3.19-2.23-.47-1.31-.66-2.7-.57-4.09l-.08-139.71c-.29-2.19.33-4.4,1.71-6.13,4.91-4.57,5.3,5.04,5.3,7.12v68.35h.01Z" fill="#fff"/>
      <rect x="0" width="299.81" height="300" fill="none"/>
    </g>
  </g>
</svg>