<?xml version="1.0" encoding="UTF-8"?>
<svg id="_레이어_2" data-name="레이어 2" xmlns="http://www.w3.org/2000/svg" viewBox="0 0 300 300">
  <g id="_레이어_1-2" data-name="레이어 1">
    <g>
      <path d="m0,218.59V24.37c2.75-10.41,10.29-14.86,21.5-14.83,86.4.21,172.81.12,259.21.12,12.12,0,19.28,7.19,19.28,19.38,0,61.58,0,123.17,0,184.75,0,12.37-7.12,19.51-19.45,19.51-32.51,0-65.02,0-97.53,0h-3.54v23.58c6.31,0,12.44-.15,18.57.03,15.09.44,27.69,13.14,28.09,28.14.13,4.74-2.1,7.1-6.87,7.1-46.18.01-92.36.01-138.54,0-4.76,0-6.98-2.36-6.86-7.11.31-12.31,9.25-23.99,21.2-26.91,4.38-1.07,9.07-1.02,13.62-1.24,3.95-.19,7.92-.04,11.88-.04v-23.54c-1.28,0-2.42,0-3.57,0-32.8,0-65.61,0-98.41,0-9.14,0-15.38-4.66-18.04-13.36-.14-.46-.36-.9-.54-1.34Zm11.72-44.35h276.56c0-1.28,0-2.35,0-3.42,0-47.08,0-94.16,0-141.24,0-6.42-1.74-8.15-8.21-8.15-86.71,0-173.43,0-260.14,0-6.46,0-8.21,1.74-8.21,8.15,0,47.08,0,94.16,0,141.24v3.42Zm0,12.04c0,9.54-.01,18.84,0,28.13.01,5,2.14,7.12,7.17,7.12,87.4,0,174.79,0,262.19,0,5.05,0,7.18-2.11,7.19-7.11.02-8.63.01-17.26,0-25.89,0-.74-.14-1.48-.22-2.25H11.72Zm201.54,93.99c-.21-.61-.3-1.08-.51-1.48-3.42-6.77-8.95-10.16-16.48-10.16-24.21-.02-48.43,0-72.64,0-6.93,0-13.86-.07-20.8.03-7.46.1-14.21,5.07-15.9,11.63h126.32Zm-45.81-46.76h-34.79v23.18h34.79v-23.18Z" fill="#fff"/>
      <path d="m122.32,80.28c3.18-9.54,6.32-19,9.47-28.45.28-.84.51-1.69.82-2.51,1.32-3.42,4.31-5.06,7.38-4.06,3.27,1.07,4.84,4.19,3.69,7.78-2.46,7.64-5.03,15.24-7.55,22.86-.45,1.37-.85,2.77-1.31,4.29h30.42c-1.65-5.04-3.24-9.93-4.85-14.81-1.32-4-2.7-7.97-3.97-11.98-1.22-3.85.17-6.97,3.53-8.11,3.25-1.1,6.3.64,7.6,4.52,3.21,9.56,6.35,19.14,9.52,28.7.18.55.44,1.07.74,1.77,9.26,0,18.52,0,27.79,0,1.07,0,2.15-.05,3.22.03,3.19.25,5.54,2.66,5.61,5.7.08,3.15-2.3,5.74-5.61,6-1.16.09-2.34.03-3.51.04-1.16,0-2.32,0-3.62,0-2.22,11.13-4.39,22.06-6.57,32.99-.77,3.84-1.51,7.69-2.32,11.52-1.81,8.52-8.66,14.29-17.27,14.32-16.99.07-33.98.07-50.97,0-8.63-.03-15.59-5.78-17.32-14.26-2.8-13.72-5.49-27.46-8.23-41.19-.21-1.05-.47-2.08-.76-3.38-1.76,0-3.5,0-5.24,0-4.73-.02-7.48-2.23-7.43-5.97.05-3.64,2.74-5.79,7.3-5.8,8.69-.01,17.38,0,26.07,0,1.07,0,2.14,0,3.38,0Zm-12.02,11.87c2.81,14.14,5.51,27.96,8.32,41.76.77,3.77,2.84,5.21,6.99,5.21,16.19.01,32.38.01,48.57,0,4.66,0,6.51-1.57,7.42-6.15,1.53-7.67,3.07-15.34,4.59-23.02,1.16-5.89,2.29-11.79,3.46-17.81h-79.35Z" fill="#fff"/>
      <path d="m155.83,203.95c-.05,3.24-2.85,5.91-6.07,5.78-3.11-.13-5.65-2.82-5.61-5.95.05-3.25,2.84-5.91,6.06-5.78,3.12.13,5.66,2.82,5.61,5.94Z" fill="#fff"/>
      <path d="m144.12,115.86c0,1.95.1,3.91-.02,5.86-.22,3.31-2.8,5.7-5.93,5.63-3.02-.06-5.56-2.39-5.68-5.57-.15-4.09-.15-8.2,0-12.3.12-3.31,2.78-5.69,5.92-5.63,3.02.06,5.48,2.38,5.69,5.57.14,2.14.03,4.29.03,6.44Z" fill="#fff"/>
      <path d="m167.56,115.75c0,1.95.09,3.91-.02,5.86-.19,3.34-2.71,5.74-5.83,5.73-3.13,0-5.69-2.42-5.8-5.76-.13-4-.13-8.01,0-12.01.11-3.33,2.69-5.74,5.82-5.73,3.13,0,5.63,2.41,5.81,5.76.11,2.04.02,4.1.02,6.15Z" fill="#fff"/>
      <rect x=".19" width="298.68" height="300" fill="none"/>
    </g>
  </g>
</svg>