<?xml version="1.0" encoding="UTF-8"?>
<svg id="_레이어_2" data-name="레이어 2" xmlns="http://www.w3.org/2000/svg" viewBox="0 0 300 300">
  <g id="_레이어_1-2" data-name="레이어 1">
    <g>
      <path id="_패스_1109" data-name="패스 1109" d="m182.66,158.11c-3.65.14-7.42.34-11.3.59l.81,5.51c.11.75.21,1.41.29,1.97,2.07.17,4.88.4,5.84.47h0c8.29.52,16.61.52,24.9,0,2.35-.11,4.74-.25,7.13-.42v-8.28l-4.82-.05-22.84.21Z" fill="#fff"/>
      <path id="_패스_1110" data-name="패스 1110" d="m209.2,218.14c-.08-9.1-.17-18.51-.22-27.76-.03-6.03-.04-12.02-.04-18.08-1.82.12-3.64.22-5.43.31-3.92.19-8.69.41-13.95.41-3.7,0-7.63-.11-11.69-.42h0c-.53-.04-1.66-.13-2.9-.23v.39c-.41,17.85-.81,36.31-1.07,54.46-.11,7.74-3.71,11.35-12.04,12.08-18.37,1.6-36.3,3.96-51.41,6.06-1.4.53-2.56,1.56-3.25,2.89-.61,2.72-.99,5.48-1.16,8.27-.17,2.45-.47,4.88-.89,7.3-.27,1.42-1.85,5.62-4.42,7.26,15.67,6.29,32.4,9.51,49.28,9.5,20.88.03,41.48-4.9,60.08-14.4-.42-1.41-.63-2.88-.6-4.36,0-14.55-.14-29.35-.27-43.66Z" fill="#fff"/>
      <path id="_패스_1111" data-name="패스 1111" d="m220.02,134.73c-.56-.18-1.17-.2-1.74-.06-1.72.39-3.52-.03-4.9-1.13-2.67-2.27-2.76-5.89-2.84-9.4v-.44c-.29-11.27-7.13-18.4-18.31-19.08-.66-.04-1.32-.06-1.96-.06-7.09,0-12.92,2.42-16.54,6.92-2.08,2.59-2.72,5.09-3.84,10.04-.02.08-1.91,9.07-.27,30.67l12.93-.12c5.52-.21,10.78-.31,15.72-.27,1.24,0,4.21.04,7.22.07l7.57-.07c3.64-2.67,6.68-6.07,8.93-9.99.6-.87.94-1.88,1-2.93-.17-1.82-1.31-3.41-2.97-4.17Z" fill="#fff"/>
      <path id="_패스_1112" data-name="패스 1112" d="m164.08,120.19c1-4.42,1.76-7.78,3.98-11.09-10.19-5.63-21.65-8.58-33.29-8.57-23.97.01-46.23,12.43-58.83,32.81h-.12c-.44.77-.86,1.51-1.23,2.21-.45.84-1.26,1.42-2.2,1.57l-19.21,3.03,110.68,14.71c-2.04-24.3.13-34.25.22-34.67Z" fill="#fff"/>
      <path id="_패스_1113" data-name="패스 1113" d="m105.05,69.03l1.96-9.58-31.08,11.19,23.55,23.71,5.57-25.32Z" fill="#fff"/>
      <path id="_패스_1114" data-name="패스 1114" d="m220.29,124.24l1.91.45c3.85.91,7.83,1.85,11.78,2.57,1.69.25,3.25-.92,3.5-2.6,0,0,0,0,0,0,2.56-11.26,5.08-22.81,7.5-34.32.5-1.6-.4-3.3-2-3.8-.03,0-.05-.02-.08-.02-3.87-.97-7.86-1.73-11.72-2.47l-1.95-.37-6.68,30.12-2.27,10.45Z" fill="#fff"/>
      <path id="_패스_1115" data-name="패스 1115" d="m107.95,98.68c5.41-2.03,11.04-3.41,16.78-4.13,17.03-3.09,33.87.22,46.21,9.07.39.28.75.57,1.13.86.04.03.08.05.13.07,5.17-4.28,12.38-6.42,20.43-5.94,12.09.73,20.49,7.56,23.12,18.3v-.03s0-.03,0-.03l.98-4.42,6.53-30.09-109.71-23.99-2.62,11.91-5.69,27.8,2.73.6Z" fill="#fff"/>
      <path id="_패스_1116" data-name="패스 1116" d="m167.18,170.32q-.22-.44-.92-5.27l-.57-3.9-96.73-12.85c-2.16,6.65-3.3,13.59-3.37,20.59.14,0,.28-.02.41-.02,3.2,0,5.79,2.59,5.79,5.79,0,3.03-2.35,5.55-5.37,5.77.52,3.36,1.3,6.68,2.32,9.93.9-1.26,2.6-1.63,3.94-.87l7.17,4.1,14.44-4.93c1.58-.54,3.3.3,3.84,1.88.54,1.58-.3,3.3-1.88,3.84l-15.73,5.37c-.31.11-.64.16-.98.16-.53,0-1.04-.14-1.5-.4l-7.58-4.33c8.8,22.1,28.31,38.15,51.68,42.54,12.19-1.61,25.58-3.21,39.23-4.4,5.86-.51,6.46-2.18,6.52-6.14.25-18.18.66-36.65,1.06-54.51l.02-.84c-.77-.25-1.41-.8-1.78-1.52Zm-87.03,16.62c-3.83,0-6.94-1.55-6.94-3.47s3.11-3.47,6.94-3.47,6.94,1.55,6.94,3.47-3.11,3.47-6.94,3.47Zm20.6-5.96c-3.2,0-5.79-2.59-5.79-5.79,0-3.2,2.59-5.79,5.79-5.79h0c3.2,0,5.79,2.59,5.79,5.79,0,3.2-2.59,5.8-5.79,5.8h0Z" fill="#fff"/>
      <path id="_패스_1117" data-name="패스 1117" d="m150,300C67.2,299.9.1,232.8,0,150,.1,67.2,67.2.1,150,0c82.8.1,149.9,67.2,150,150-.1,82.8-67.2,149.9-150,150Zm0-292.8C71.17,7.29,7.29,71.16,7.2,149.99c.09,78.83,63.97,142.71,142.8,142.8,78.83-.09,142.71-63.97,142.8-142.8-.09-78.83-63.97-142.71-142.8-142.8h0Z" fill="#fff"/>
    </g>
  </g>
</svg>