<?xml version="1.0" encoding="UTF-8"?>
<svg id="_레이어_2" data-name="레이어 2" xmlns="http://www.w3.org/2000/svg" viewBox="0 0 300 300">
  <g id="_레이어_1-2" data-name="레이어 1">
    <g>
      <path d="m300,102.37c-15.86,4.41-31.57,8.79-47.46,13.21-4.44,1.22-8.86,2.44-13.31,3.67-.8-2.83-1.52-5.47-2.22-8.05-2.73-10.77-6.38-21.2-11.22-31.15-.36-.76-.74-1.52-1.11-2.27-.12-.24-.24-.48-.37-.72-3.69-7.29-7.97-14.21-13.01-20.65-5.49-7.15-11.72-13.53-18.95-18.9-.02-.01-.04-.03-.06-.04-.46-.34-.91-.68-1.38-1.01-4.29-3.12-8.8-5.76-13.55-7.86-5.54-2.56-11.31-4.33-17.37-5.01-1.17-.17-2.34-.32-3.54-.43.11.05.21.11.31.16-.08,0-.16-.01-.25-.02,1.17.52,2.27,1.11,3.35,1.73,2.94,1.77,5.54,3.82,7.85,6.1,1.7,1.75,3.24,3.66,4.61,5.74,3.36,5.08,6.5,10.39,9.07,15.91.81,1.74,1.57,3.49,2.3,5.26.39.95.76,1.9,1.13,2.85.12.3.23.61.35.91,1.44,3.8,2.73,7.64,3.9,11.5.07.25.15.49.22.74.33,1.1.64,2.19.95,3.3,2.16,7.91,3.81,15.97,5.18,24.1.9,5.38,1.61,10.8,2.33,16.22.23,2.03.46,4.06.66,6.1-1.79.38-3.41.72-5.38,1.13v4.22c0,15.89.01,31.78,0,47.68,0,1.78,0,3.56,0,5.33-.05,7.82-2.32,14.5-6.35,19.58-.94,1.18-2,2.26-3.12,3.27-.32.29-.63.59-.96.87-.12.1-.25.18-.37.27-5.06,3.95-11.69,6.2-19.42,6.25-3.02.02-6.05.03-9.07.03-1.18,0-2.35,0-3.53,0-1.18,0-2.35,0-3.53,0-3.02,0-6.05,0-9.07-.03-7.74-.05-14.36-2.3-19.42-6.25-.12-.1-.25-.18-.37-.27-.34-.27-.64-.58-.96-.87-1.13-1.01-2.19-2.1-3.13-3.29-4.02-5.08-6.3-11.76-6.34-19.56,0-1.78,0-3.56,0-5.33-.02-15.89,0-31.78,0-47.68v-4.22c-1.97-.42-3.59-.76-5.38-1.13.21-2.04.43-4.07.66-6.09.72-5.42,1.43-10.84,2.33-16.22,1.36-8.13,3.02-16.19,5.18-24.1.31-1.1.62-2.2.95-3.29.07-.25.15-.49.22-.74,1.17-3.87,2.46-7.7,3.9-11.5.12-.3.23-.61.35-.91.37-.95.74-1.9,1.13-2.85.73-1.76,1.49-3.52,2.3-5.26,2.57-5.52,5.7-10.83,9.07-15.91,1.37-2.08,2.92-3.99,4.61-5.74,2.31-2.28,4.9-4.33,7.85-6.1,1.08-.62,2.19-1.21,3.35-1.73-.08,0-.16.01-.25.02.11-.05.2-.11.31-.16-1.19.11-2.37.26-3.54.43-6.06.68-11.83,2.45-17.37,5.01-4.76,2.1-9.26,4.75-13.56,7.87-.46.33-.92.67-1.37,1.01-.02.02-.05.03-.07.05-7.23,5.37-13.46,11.75-18.95,18.9-5.04,6.44-9.32,13.35-13.01,20.65-.12.24-.24.48-.37.72-.38.75-.75,1.51-1.11,2.27-4.84,9.95-8.49,20.38-11.22,31.15-.7,2.58-1.42,5.22-2.22,8.05-4.45-1.23-8.87-2.45-13.31-3.67-15.89-4.42-31.61-8.8-47.47-13.21,0,.83,0,2.21,0,3.59.04,16.39.81,32.73,2.2,49.02.07,1.16.13,2.33.21,3.49,1.69,24.22,5.02,48.23,11.64,71.66,3.34,11.82,7.44,23.34,14.63,33.48,6.19,8.72,14.05,13.31,25.32,13.24,8.33-.05,16.66-.07,25-.1,23.6-.03,47.21-.07,70.81-.09,23.6.02,47.21.06,70.81.09,8.33.03,16.66.05,25,.1,11.27.07,19.13-4.51,25.32-13.24,7.19-10.14,11.29-21.66,14.63-33.48,6.62-23.43,9.95-47.44,11.64-71.66.08-1.16.13-2.33.21-3.49,1.39-16.29,2.16-32.63,2.2-49.02,0-1.38,0-2.76,0-3.59ZM54.69,262.56c-6.88.88-11.79-2.32-14.76-8-3.66-7-6.81-14.3-9.66-21.67-1.45-3.74.53-7.3,3.93-8.73,10.12,12.54,19.93,25.31,29.37,38.37-.88,0-1.77,0-2.65,0-2.08,0-4.19-.22-6.23.04Zm215.41-29.67c-2.86,7.37-6,14.68-9.66,21.67-2.97,5.68-7.88,8.88-14.76,8-2.05-.26-4.15-.04-6.23-.04-.88,0-1.77,0-2.65,0,9.45-13.06,19.26-25.84,29.37-38.37,3.4,1.44,5.38,4.99,3.93,8.73Z" fill="#fff"/>
      <path d="m121.63,129.39c-.01,17.48-.04,34.96,0,52.44.03,10.5,5.66,16.14,16.18,16.23,8.06.07,16.12.04,24.18,0,11.25-.05,16.75-5.57,16.76-16.84.02-16.44,0-32.87,0-49.31v-5.91h-56.92c-.07,1.09-.21,2.23-.21,3.38Zm21.09,32.94c4.91-.18,9.84-.16,14.76-.01,4.08.12,6.82,3.06,6.86,6.96.04,4.06-2.78,6.98-7.07,7.17-2.46.11-4.92.02-7.38.02-2.33,0-4.67.09-6.99-.03-4.07-.22-6.82-3.08-6.86-6.98-.04-3.92,2.66-6.98,6.68-7.12Z" fill="#fff"/>
      <rect width="299.63" height="300" fill="none"/>
    </g>
  </g>
</svg>