<?xml version="1.0" encoding="UTF-8"?>
<svg id="_레이어_2" data-name="레이어 2" xmlns="http://www.w3.org/2000/svg" viewBox="0 0 300 300">
  <g id="_레이어_1-2" data-name="레이어 1">
    <g>
      <path d="m237.25,69.75c11.24,0,21.9-.08,32.56.05,3.13.04,6.35.29,9.37,1.05,11.92,2.99,20.36,13.31,20.61,25.55.26,12.53.3,25.07-.01,37.6-.36,14.5-12.26,26.02-26.79,26.47-.33.01-.65.02-.98.02-81.31,0-162.62.02-243.93-.02-12.65,0-23.23-7.79-26.75-19.63-.88-2.98-1.19-6.21-1.23-9.33-.14-10.9-.11-21.8-.05-32.7.1-17.18,11.8-28.92,28.98-29.05,11-.08,22-.01,33.36-.01-.35-.95-.52-1.64-.84-2.25-9.03-17.17-7.53-36.54,4.55-50.8C79.14,1.33,95.89-3.07,115.07,2.02c15.72,4.18,25.42,12.81,34.86,29.89.66-1.16,1.25-2.12,1.77-3.12,11.54-22.18,37.69-33.75,60.44-26.73,26.92,8.3,39.83,38.78,27.07,63.89-.53,1.05-1.08,2.09-1.96,3.8Zm-74.64-.13c12.68,0,24.66.04,36.63,0,12.21-.05,22.12-8.94,23.83-21.3,1.61-11.63-6.2-23.31-17.7-26.44-14.68-4-31.73,5.16-36.63,20.52-2.76,8.66-4.06,17.78-6.13,27.23Zm-25.44-.11c-1.65-8.14-3.07-15.96-4.84-23.69-3.58-15.54-17.63-25.8-33.54-24.7-11.77.81-21.64,11.23-22.03,23.24-.4,12.51,8.7,24.27,20.68,24.97,13.02.76,26.12.17,39.74.17Z" fill="#fff"/>
      <path d="m278.84,171.4c.07,1.44.14,2.3.14,3.16,0,28.67.06,57.34-.02,86.01-.05,18.81-11.25,33.69-28.7,38.15-3.23.83-6.67,1.2-10.01,1.21-25.72.1-51.45.06-77.17.05-.75,0-1.49-.09-2.43-.14v-125.43h3.72c29.32,0,58.64,0,87.96,0,8.81,0,17.66.4,26.51-3Z" fill="#fff"/>
      <path d="m139.28,299.82c-1.08.06-2.03.15-2.99.15-25.29,0-50.58.07-75.87-.01-20.19-.07-35.55-12.79-38.96-32.17-.41-2.34-.48-4.77-.48-7.16-.03-28.67-.02-57.34-.01-86.01,0-.95.11-1.9.18-3.21,10.46,3.99,21.1,2.93,31.62,2.96,27.47.08,54.94.03,82.41.03h4.09v125.43Z" fill="#fff"/>
    </g>
  </g>
</svg>