<?xml version="1.0" encoding="UTF-8"?>
<svg id="_레이어_2" data-name="레이어 2" xmlns="http://www.w3.org/2000/svg" viewBox="0 0 300 300">
  <g id="_레이어_1-2" data-name="레이어 1">
    <g id="_07쇼핑_shape_07_0004" data-name=" 07쇼핑 shape 07 0004">
      <rect id="_사각형_5-4" data-name="사각형 5-4" width="300" height="300" fill="none"/>
      <path d="m263.29,266.51l-11.16-167.44c-1.1-16.49-14.8-29.3-31.33-29.3h-11.82v-10.47C208.97,26.56,182.43.02,149.69.01c-32.75,0-59.3,26.54-59.31,59.29v10.47h-11.82c-16.53,0-30.22,12.81-31.33,29.3l-11.16,167.44c-.05.69-.07,1.39-.07,2.08,0,17.34,14.05,31.4,31.4,31.4h164.57c.7,0,1.39-.02,2.08-.07,17.3-1.15,30.4-16.12,29.24-33.42ZM111.31,59.3h0c0-21.2,17.18-38.38,38.38-38.38,21.19,0,38.37,17.18,38.37,38.38v10.47h-76.74v-10.47Zm91.97,81.24c-5.86,12.34-15.8,22.28-28.14,28.14-29.6,14.06-64.99,1.46-79.05-28.14-2.44-5.2-.24-11.39,4.94-13.88,5.21-2.51,11.46-.31,13.97,4.9,3.79,7.99,10.23,14.42,18.22,18.22,19.16,9.1,42.06.94,51.16-18.22,2.49-5.17,8.68-7.38,13.88-4.94,5.23,2.46,7.48,8.69,5.03,13.92Z" fill="#fff" fill-rule="evenodd"/>
    </g>
  </g>
</svg>