<?xml version="1.0" encoding="UTF-8"?>
<svg id="_레이어_2" data-name="레이어 2" xmlns="http://www.w3.org/2000/svg" viewBox="0 0 300 299.91">
  <g id="_레이어_1-2" data-name="레이어 1">
    <g>
      <path d="m0,50.45h207.93v34.73h3.44c15.72,0,31.44.04,47.15-.05,1.92-.01,2.93.6,3.89,2.2,12.09,20.25,24.26,40.45,36.36,60.69.66,1.1,1.18,2.48,1.18,3.74.07,25.07.05,50.15.05,75.22,0,.47-.06.93-.11,1.74-1.14,0-2.18,0-3.21,0-15.03,0-30.07.04-45.1-.05-1.94-.01-2.86.5-3.62,2.35-4.66,11.35-15.44,18.51-27.56,18.53-12.23.02-23.04-7.16-27.76-18.67-.73-1.78-1.63-2.2-3.43-2.19-30.26.05-60.53.05-90.79,0-1.89,0-2.66.62-3.35,2.3-4.7,11.37-15.42,18.54-27.54,18.58-12.24.04-23.07-7.14-27.8-18.62-.71-1.73-1.54-2.27-3.39-2.25-12.11.08-24.21.04-36.32.04V50.45Zm64.99,96.38v-78.78H17.74v143.3c6.19,0,12.22-.07,18.25.04,2,.04,3.01-.45,3.83-2.47,4.6-11.28,15.5-18.42,27.64-18.4,12.03.02,22.85,7.13,27.44,18.27.85,2.05,1.85,2.63,4.03,2.62,29.48-.08,58.97-.05,88.45-.06.94,0,1.89-.08,2.85-.13V68.04h-47.43v78.64c-1.23-.42-2.15-.71-3.05-1.04-11.07-4.02-22.11-8.11-33.22-12.01-1.47-.52-3.44-.53-4.92-.03-8.01,2.74-15.93,5.73-23.89,8.63-4.09,1.49-8.19,2.96-12.74,4.6Zm217.28,64.53v-50.11h-74.26v31.35c3.91-.73,7.4-1.81,10.94-1.98,12.88-.62,24.06,6.64,29.12,18.42.4.93,1.55,2.2,2.36,2.22,10.53.15,21.07.1,31.84.1Zm-6.83-67.77c-.25-.65-.32-.93-.46-1.16-7.65-12.76-15.28-25.54-23.04-38.23-.53-.87-2.12-1.57-3.23-1.58-12.69-.11-25.38-.07-38.06-.06-.84,0-1.68.11-2.42.16v40.88h67.21ZM82.77,67.94v53.91c5.34-1.93,10.57-3.5,15.5-5.7,4.04-1.8,7.59-1.75,11.61.02,4.93,2.18,10.14,3.75,15.35,5.63v-53.86h-42.47Zm-3.09,152.09c0-6.68-5.54-12.14-12.3-12.14-6.76,0-12.29,5.47-12.29,12.15,0,6.67,5.55,12.15,12.3,12.14,6.75,0,12.29-5.48,12.29-12.15Zm140.69,12.15c6.75-.03,12.27-5.53,12.24-12.21-.03-6.67-5.59-12.11-12.35-12.09-6.75.03-12.26,5.52-12.24,12.2.03,6.67,5.59,12.12,12.35,12.09Z" fill="#fff"/>
      <path d="m172.73,176.84v17h-41.92v-17h41.92Z" fill="#fff"/>
      <rect width="299.91" height="299.91" fill="none"/>
    </g>
  </g>
</svg>