<?xml version="1.0" encoding="UTF-8"?>
<svg id="_레이어_2" data-name="레이어 2" xmlns="http://www.w3.org/2000/svg" viewBox="0 0 300 300">
  <g id="_레이어_1-2" data-name="레이어 1">
    <g>
      <path d="m156.8,300h-12.69c-1.66-.3-3.31-.62-4.98-.88-16.74-2.62-31.23-9.94-44.32-20.09-19.48-15.1-34.08-34.15-46.65-54.78-15.88-26.06-27.81-53.84-37.49-82.53-3.8-11.28-7.36-22.7-9.96-34.28-2.6-11.61,1.95-19.88,11.64-24.02,1.92-.82,3.96-1.42,6-1.94,17.58-4.58,33.89-11.67,48.21-22.75.2-.15.51-.18.92-.31,1.06,1.6,2.08,3.16,3.12,4.7,8.43,12.53,17.51,24.58,28.37,35.25,10.27,10.1,21.55,18.79,35.78,23.17,2.08.64,4.19,1.17,6.31,1.75,0,2.03-.17,3.9.05,5.72.22,1.82.59,3.7,1.31,5.38.77,1.81.46,2.86-1,4.24-3.75,3.56-4.48,9.02-2.19,13.53,2.35,4.63,7.38,7.26,12.7,6.63,5.04-.59,9.26-4.32,10.44-9.29,1.25-5.26-.94-9.31-4.5-12.28.84-4.85,1.61-9.31,2.45-14.17-.23.09.12-.1.5-.18,12.75-2.7,23.4-9.21,33.07-17.38,14.56-12.3,25.93-27.18,36.42-42.75.81-1.2,1.62-2.39,2.5-3.68.83.57,1.41.94,1.95,1.35,9.17,6.98,19.2,12.52,30.1,16.47,6.49,2.35,13.16,4.21,19.76,6.27,10.77,3.37,15.69,9.81,15.35,20.66-.12,3.67-.56,7.44-1.58,10.97-10.64,37.01-24.3,72.88-43.92,106.4-10.83,18.49-23.41,35.75-39.46,50.42-12.84,11.72-27.16,21.1-44.4,25.63-4.53,1.19-9.21,1.84-13.82,2.73Zm28.03-76.13c-.18-2.04-.18-4.11-.58-6.11-3.85-19.03-13.46-35.29-25.89-50.16-2-2.39-3.99-5.04-7.95-3.51-.59.23-1.48.15-2.08-.11-1.76-.76-2.77.14-3.87,1.26-9.02,9.13-15.36,19.95-20.93,31.25-3.79,7.69-6.67,15.62-7.55,24.2-1.57,15.37,6.99,28.47,22.16,33.24,3.12.98,6.45,1.63,9.73,1.85,18.79,1.24,37.24-10.06,36.97-31.9Z" fill="#fff"/>
      <path d="m72,55.12c4.94-5.87,9.53-11.17,13.89-16.63.78-.97,1.04-2.67.87-3.95-.92-7.09,1.77-12.8,6.85-17.65,5.72-5.47,12.7-8.94,20.24-11.24,25.69-7.82,51.28-7.71,76.63,1.47,6.08,2.2,11.65,5.34,16.26,9.86,5.33,5.22,8.15,11.26,6.42,18.82-.22.96.25,2.36.91,3.17,4.45,5.52,9.03,10.94,13.96,16.85-2.55,3.73-5.38,8.07-8.4,12.28-10.14,14.16-21.14,27.6-35.46,38.08-11.13,8.15-23.33,13.45-37.72,12.27-10.67-.88-19.9-5.24-28.43-11.19-12.57-8.77-22.55-19.99-31.65-31.98-5.06-6.67-9.72-13.61-14.38-20.17Zm77.43-.15c11.42-.14,22.09-1.23,32.44-4.45,6.94-2.16,13.57-4.93,18.93-9.92,6.22-5.78,6.46-12.5.06-18.01-3.4-2.93-7.44-5.34-11.54-7.28-8.67-4.11-18.08-5.91-27.64-6.71-15.99-1.34-31.77-.32-46.98,5.12-5.98,2.14-11.62,4.92-16.09,9.5-5.06,5.2-5.26,11.31-.06,16.37,2.58,2.52,5.67,4.73,8.89,6.41,13.28,6.92,27.8,8.68,41.99,8.97Z" fill="#fff"/>
      <path d="m145.94,123.89c2.13,0,3.22,0,4.31,0,4.17,0,4.64.47,3.98,4.45-.27,1.62-.62,3.29-1.33,4.75-.39.79-1.61,1.63-2.49,1.66-.87.03-2.37-.77-2.57-1.48-.82-2.92-1.24-5.94-1.9-9.37Z" fill="#fff"/>
    </g>
  </g>
</svg>