<?xml version="1.0" encoding="UTF-8"?>
<svg id="_레이어_2" data-name="레이어 2" xmlns="http://www.w3.org/2000/svg" viewBox="0 0 300 300">
  <g id="_레이어_1-2" data-name="레이어 1">
    <g>
      <path id="_패스_1159" data-name="패스 1159" d="m140.58,140.18l-87.37,114.1c16.88,13.4,37.01,22.98,58.74,27.96,13.79,3.07,28,4.28,42.17,3.59,23.18-.75,45.89-6.13,66.53-15.76,9.3-4.44,18.06-9.75,26.13-15.87l-84.87-114.64c-6.61,3.25-14.52,3.47-21.35.61h0Z" fill="#fff"/>
      <path id="_패스_1160" data-name="패스 1160" d="m202.57,109.58l-37.66-37.97c-.13-.12-.27-.24-.41-.34v-10.89c-.01-1.87-1.54-3.38-3.42-3.37h-7.03V8.4c-.19-5.49-.3-8.36-.3-8.36h0s-1.54-.04-3.07-.05-3.15.02-3.15.02h0s-.11,2.94-.31,8.38v48.61h-7.03c-1.87-.01-3.41,1.49-3.42,3.36h0v11.47c0,.36.07.72.19,1.06-4.32,3.6-14.24,12.84-39.45,36.61-1.01.94-1.33,2.41-.81,3.68.53,1.28,1.78,2.12,3.17,2.11h27.85c.41,1.65,1.07,3.24,1.97,4.68,3.84,6.45,11.82,12.95,20.94,12.95h0c9.14,0,17.11-6.52,20.96-12.99.89-1.44,1.54-3,1.95-4.64h26.57c1.36,0,2.6-.8,3.15-2.04.55-1.25.28-2.71-.69-3.68Zm-94.19-1.02c13.23-12.44,29.84-27.95,33.7-31.24h18.95l30.98,31.24h-83.62Z" fill="#fff"/>
      <path id="_패스_1161" data-name="패스 1161" d="m213.64,150.09c-1.62-6.11-6.4-10.89-12.52-12.5,3.33-.95,6.32-2.82,8.64-5.39,1.82-2.05,3.15-4.48,3.89-7.11,1.5,6.18,6.33,11.01,12.52,12.5-6.15,1.57-10.95,6.37-12.52,12.5Z" fill="#fff"/>
      <path id="_패스_1162" data-name="패스 1162" d="m85.88,148.14c-1.36-5.16-5.4-9.19-10.57-10.55,5.13-1.43,9.14-5.43,10.57-10.55,1.26,5.22,5.34,9.29,10.57,10.55-5.19,1.33-9.24,5.37-10.57,10.55Z" fill="#fff"/>
      <rect y=".18" width="300" height="299.82" fill="none"/>
    </g>
  </g>
</svg>