<?xml version="1.0" encoding="UTF-8"?>
<svg id="_레이어_2" data-name="레이어 2" xmlns="http://www.w3.org/2000/svg" viewBox="0 0 300 300">
  <g id="_레이어_1-2" data-name="레이어 1">
    <g id="symbol_03_22_0001_01" data-name="symbol 03 22 0001 01">
      <rect id="_사각형_80" data-name="사각형 80" x="0" width="300" height="299.99" fill="none"/>
      <path id="_패스_577" data-name="패스 577" d="m299.85,161.85c-2.33-45.15-33.17-88.21-76.3-104.42-1.95-.73-3.93-1.41-5.92-2.03-1.03-.46-2.2-.5-3.26-.11-1.33.7-1.49,2.46-1.49,3.94-.01,68.6-.03,137.21-.04,205.81,0,5.7-.35,12.18-4.82,15.85-1.9,1.39-4.05,2.43-6.34,3.05-3.7,1.21-7.45,2.25-11.23,3.16-.22-.78-.41-1.45-.42-1.48-.52-1.86-5.19-18.4-8.57-30.37,4.18,0,7.63-.19,11.04.05,3.88.28,5.7-.92,5.48-4.99-.25-4.68-.16-9.39.02-14.08.14-3.65-1.35-4.95-5.11-4.84-7.67.22-15.36.07-23.82.07,1.36-7.91,2.67-15.06,3.8-22.25,1.67-10.51,1.62-10.52-8.86-11.58-.14-.02-.25-.22-.68-.61.48-1.03,1.01-2.19,1.56-3.33,7.76-16.2,4.94-32.96-7.44-45.95-2.71-2.84-4.63-3.32-7.41-.23-9.15,10.14-14.05,21.55-10.99,35.2,1.09,4.88,2.94,9.59,4.62,14.94-1.1.07-2.06.17-3.01.19q-8.07.19-6.73,8.05c1.41,8.28,2.81,16.56,4.31,25.47-7.84,0-15.12.13-22.4-.06-3.99-.1-5.58,1.33-5.39,5.26.24,4.69.16,9.39.03,14.09-.1,3.4,1.44,4.76,4.85,4.64,3.71-.12,7.43-.03,11.69-.03-6.1,19.98-8.32,28.21-8.84,31.04-26.61-6.68-51.39-20.24-70.22-39.76C9.75,206.94-1.89,144.97,19.67,94.84,41.23,44.71,94.89,9.28,150.67,8.57c.72,20.38.58,40.76-.41,61.15-.09,1.94-.21,3.9-.41,5.85-3.14,3.07-20.97,20.54-21.83,22.04-.19.31-.27.67-.22,1.03.18.58.66,1.02,1.27,1.15h.04c.25.06,1.22.1,14.58.1,1.47,6.01,7.67,9.72,13.84,8.29,4.22-.98,7.52-4.19,8.52-8.3l13.04-.02c.83-.04,1.57-.51,1.94-1.24.27-.86-.64-1.85-1.02-2.26-1.76-1.86-9.37-9.86-19.85-20.77-.2-2.59-.45-5.19-.54-7.82-.63-19.88-.53-39.76.31-59.65,30.39.58,59.79,10.66,83.84,28.75,2.04,1.54,4.75,3.22,7,1.97,3.68-2.02.41-7.45-3.03-9.86-15.34-10.72-32.51-18.71-50.7-23.62-4.56-1.23-9.17-2.26-13.83-3.1-4.16-.74-8.16-.79-12.32-1.27-8.05-.93-16.16-1.2-24.25-.81-16.22.8-32.21,4.05-47.4,9.63-15.22,5.56-29.48,13.34-42.28,23.09-12.29,9.33-22.99,20.5-31.7,33.08-32.16,46.78-33.72,111.77-3.84,159.97,17,27.06,42.11,48.4,71.94,61.15,44.39,19.02,98.24,17.26,139.88-6.97,41.63-24.23,69.08-71.09,66.64-118.28Zm-144.99-57.5c-2.98,0-5.65-1.78-6.74-4.47,3.71,0,8.16,0,13.48-.01-1.09,2.7-3.76,4.48-6.74,4.48h0Zm5.24-23.86c1.9,2.42,3.93,4.88,6.08,7.39,2.29,2.67,4.55,5.19,6.8,7.56-5.95-.06-11.95-.09-18-.09-6.7,0-13.33.04-19.9.13,4.93-5,9.85-10,14.78-15h10.24Zm-6.26,70.91c12.49,13.98,13.83,33.42,2.07,45.38v-7.89c.01-8.26.15-16.52-.07-24.77-.04-1.43-1.53-2.83-2.35-4.24-.77,1.49-2.17,2.97-2.2,4.47-.2,10.3-.1,20.61-.1,31.08-11.83-6.47-10.26-31.81,2.65-44.03h0Zm15.03,51.52c-1.61,9.38-3.18,18.5-4.8,27.93q-20.43,2.14-23.61-16.37c-.63-3.67-1.17-7.36-1.83-11.56h30.25Zm-53.19,47.24v-13.59h76.9v13.6h-76.9Zm14.66,38.67c.17-.51.25-.77.14-.36l9.73-32.99,2.56-.02c3.85-.03,11.16-.18,17.7-.2,1.79,0,4.4,0,7.58.03l.77,2.41c5.29,16.61,8.45,26.37,8.45,26.37.44,1.35,1.12,3.45,1.7,5.24-16.13,2.43-32.55,2.27-48.62-.47h0Zm91.84-222.9c22.04,2.77,57.89,42.15,63.56,70.29h-63.56v-70.29Zm43.46,172.42c-11.37,15.25-26.2,27.74-43.33,36.5v-129.49h65.48c1.6,10.91,6.62,54.07-22.15,92.99Z" fill="#fff"/>
    </g>
  </g>
</svg>