<?xml version="1.0" encoding="UTF-8"?>
<svg id="_레이어_2" data-name="레이어 2" xmlns="http://www.w3.org/2000/svg" viewBox="0 0 300 300">
  <g id="_레이어_1-2" data-name="레이어 1">
    <path d="m149.69,300C67.17,299.87-.07,232.41,0,149.83.07,67,67.74-.29,150.67,0c82.56.29,149.57,67.82,149.32,150.48-.25,82.59-67.67,149.65-150.31,149.52Zm-10.39-75.92c0,7.14-.11,14.27.03,21.39.15,7.41,4.33,11.76,10.88,11.64,6.32-.11,10.27-4.28,10.47-11.37.16-5.8.22-11.61-.02-17.4-.14-3.4.99-4.93,4.29-6.26,19.54-7.89,30.74-27.08,27.39-46.23-3.7-21.15-20.05-35.47-41.7-36.52-12.98-.63-21.94-9.28-22.01-21.27-.07-11.49,8.93-21.02,20.38-21.57,11.92-.57,21.1,8,22.39,20.9.76,7.54,4.83,11.61,11.29,11.31,6.37-.3,10.46-5.07,10.06-12.46-.76-14.29-6.35-27.55-19.18-33.13-13.09-5.69-14-14.23-12.86-25.43.14-1.32.07-2.68-.01-4.01-.41-6.64-4.25-10.64-10.35-10.81-6.37-.18-10.73,3.96-10.98,10.82-.22,5.79-.27,11.61,0,17.4.18,3.87-.99,5.69-4.83,7.28-16.73,6.96-26.32,19.7-27.23,37.9-1.19,23.77,17.39,43.37,41.36,44.47,15.32.7,25.31,12.34,22.27,25.94-2.37,10.61-11.7,17.6-22.54,16.9-10.81-.7-18.49-8.76-19.79-20.75-.78-7.27-5.31-11.73-11.44-11.28-6.23.46-10.4,5.47-9.91,12.71,1.06,15.63,8.55,27.41,22.12,35.21,3.06,1.76,6.42,3.02,9.92,4.63Z" fill="#fff"/>
  </g>
</svg>