<?xml version="1.0" encoding="UTF-8"?>
<svg id="_레이어_2" data-name="레이어 2" xmlns="http://www.w3.org/2000/svg" viewBox="0 0 300 300">
  <g id="_레이어_1-2" data-name="레이어 1">
    <g>
      <path d="m.03,99.13h267.8c0,1.25,0,2.37,0,3.5,0,35.6,0,71.2,0,106.8,0,9.31-3.88,13.17-13.18,13.17-80.54,0-161.07,0-241.61,0-9.08,0-13.01-3.92-13.01-13,0-35.7,0-71.41,0-107.11v-3.35Zm203.33,101.99c13.71,0,27.41,0,41.12,0,5.68,0,7.24-1.58,7.25-7.32,0-14.81,0-29.62,0-44.43,0-5.73-1.61-7.4-7.22-7.4-27.31-.02-54.61-.01-81.92,0-5.58,0-7.27,1.7-7.28,7.38-.03,14.81-.03,29.62,0,44.43.01,5.75,1.61,7.34,7.25,7.34,13.6.01,27.2,0,40.8,0Zm-152.54-48.41c11.08,0,22.16.01,33.24,0,4.74,0,6.94-1.72,6.96-5.31.01-3.58-2.27-5.37-6.92-5.43-.31,0-.63,0-.94,0-21.53,0-43.06,0-64.6.01-1.24,0-2.52.04-3.73.31-3.05.7-4.6,3.43-3.82,6.46.85,3.3,3.29,3.97,6.25,3.97,11.18-.03,22.37-.01,33.55,0Zm-13.16-21.49h0c7.01-.01,14.01.06,21.02-.04,4.13-.06,6.42-3.16,5.29-6.99-.91-3.08-3.39-3.7-6.19-3.7-13.49,0-26.98-.02-40.47.01-4.31.01-6.62,2.04-6.53,5.52.09,3.38,2.27,5.17,6.48,5.2,6.8.04,13.6,0,20.39,0Zm64.35,0c6.69,0,13.39.03,20.08,0,4.16-.02,6.39-1.88,6.45-5.24.06-3.35-2.23-5.45-6.27-5.47-13.7-.05-27.4-.05-41.1,0-3.97.02-6.01,1.92-6.05,5.28-.05,3.49,2.05,5.39,6.18,5.42,6.9.05,13.8.01,20.71.01Zm13.02,21.43c2.81,0,5.63.11,8.44-.03,3.05-.15,4.86-2.04,5.04-4.94.17-2.79-1.54-5.32-4.46-5.45-5.92-.27-11.87-.27-17.79.01-2.91.14-4.62,2.69-4.43,5.47.19,2.9,2,4.76,5.07,4.91,2.7.13,5.42.03,8.13.03Z" fill="#fff"/>
      <path d="m278.55,75.9c4.75.42,9.13.59,13.44,1.23,5.02.75,8.46,5.83,7.96,11.55-1.04,11.82-2.19,23.62-3.3,35.43-1.8,19.23-3.59,38.46-5.38,57.69-2,21.43-4,42.85-6.01,64.28-.46,4.91-.88,9.83-1.42,14.73-.76,6.83-5.7,10.87-12.59,10.13-11.54-1.23-23.06-2.6-34.59-3.91-19.74-2.24-39.47-4.48-59.21-6.72-21.29-2.42-42.59-4.85-63.88-7.26-21.3-2.41-42.59-4.82-63.89-7.22-7.9-.89-15.8-1.7-23.69-2.66-5.91-.72-9.06-3.76-10.16-9.85,1.35,0,2.65,0,3.95,0,78.36,0,156.72-.03,235.07.04,9.68,0,17.3-3.44,21.36-12.44,1.62-3.58,2.22-7.9,2.23-11.89.15-42.96.1-85.92.1-128.88,0-1.33,0-2.67,0-4.28Z" fill="#fff"/>
      <path d="m267.67,56.29v31.79H.3v-31.79h267.36Z" fill="#fff"/>
      <path d="m267.55,45.1H.48c-2.31-10.51,3.95-16.16,12.71-16.14,80.24.19,160.48.2,240.72,0,10.09-.03,15.19,5.59,13.63,16.14Z" fill="#fff"/>
      <path d="m166.22,190.15v-37.24h74.58v37.24h-74.58Z" fill="#fff"/>
      <rect width="300" height="300" fill="none"/>
    </g>
  </g>
</svg>