<?xml version="1.0" encoding="UTF-8"?>
<svg id="_레이어_2" data-name="레이어 2" xmlns="http://www.w3.org/2000/svg" viewBox="0 0 300 300">
  <g id="_레이어_1-2" data-name="레이어 1">
    <g>
      <path d="m74.15,266.59c-15.23-15.31-1.22-55.41,31.79-99.73,2.78,1.63,5.51,3.16,8.2,4.57-25.5,32.73-38.08,59.93-29.61,68.44,11.13,11.18,54.67-13.76,100.74-56.63,4.32,10.82,13.35,19.07,24.51,22.39-44.78,41.57-90.63,67.2-117.72,67.2-7.59,0-13.7-2.01-17.91-6.24Z" fill="#fff"/>
      <path d="m190.65,178.52c-5.18-16.56,4.05-34.19,20.61-39.36,16.56-5.18,34.19,4.05,39.36,20.61,5.18,16.56-4.05,34.19-20.61,39.36-3.03.95-6.19,1.43-9.36,1.43-13.74,0-25.89-8.93-30-22.04h0Z" fill="#fff"/>
      <path d="m232.62,132.96c29.12-35.71,44.07-66.14,35.02-75.23-12.11-12.18-62.7,18.49-113.12,68.53-.14.14-.29.28-.43.42-1.33,1.32-2.63,2.64-3.94,3.96-7.73,7.85-14.97,15.68-21.63,23.35-2.71-1.48-5.54-3.13-8.46-4.94,7.39-8.8,15.47-17.65,24.14-26.42.88-.89,1.75-1.78,2.64-2.67.62-.61,1.22-1.19,1.84-1.8,60.16-59.18,124.86-90.55,145.18-70.12,16.1,16.2-.47,60.08-37.64,107.38-4.1-10.65-12.76-18.9-23.6-22.48h0Z" fill="#fff"/>
      <path d="m114.15,171.43c-2.69-1.41-5.42-2.94-8.19-4.57-5.09-2.99-10.3-6.33-15.61-10,7.39-3.36,12.88-9.86,14.95-17.7,5.12,3.68,10.06,6.98,14.76,9.89,2.92,1.8,5.75,3.46,8.46,4.95,15.65,8.54,27.49,11.51,31.67,6.81,4.13-4.63-.02-15.85-10.03-30.17,1.3-1.32,2.6-2.64,3.92-3.96.14-.13.29-.28.43-.41,15.95,23.36,21.94,43.46,13.66,52.75-3.13,3.51-8.02,5.17-14.25,5.17-10.28,0-24.19-4.53-39.78-12.76Z" fill="#fff"/>
      <path d="m58.24,140.15c-4.38-11.53,1.42-24.43,12.96-28.81,11.54-4.38,24.43,1.42,28.81,12.96,4.38,11.53-1.42,24.43-12.96,28.81-2.53.96-5.21,1.45-7.91,1.45-9.28,0-17.61-5.73-20.91-14.41h.01Z" fill="#fff"/>
      <path d="m3.73,32.34c13.77-15.44,61.74,4.87,107.16,45.37,13.86,12.24,26.52,25.79,37.79,40.45-.61.61-1.23,1.19-1.84,1.8-.9.89-1.76,1.78-2.64,2.67-11.43-14.22-24.07-27.43-37.77-39.49C68.59,49.4,31.29,29.44,23.14,38.58c-7.46,8.37,12.09,38.22,44.48,69.09-7.49,3.53-12.96,10.29-14.85,18.35C12.55,87.61-9.2,46.83,3.73,32.35h0Z" fill="#fff"/>
      <rect width="300" height="300" fill="none"/>
    </g>
  </g>
</svg>