<?xml version="1.0" encoding="UTF-8"?>
<svg id="_레이어_2" data-name="레이어 2" xmlns="http://www.w3.org/2000/svg" viewBox="0 0 300 300">
  <g id="_레이어_1-2" data-name="레이어 1">
    <g>
      <path d="m80.31,268.09c-14.95,0-29.9-.03-44.84.01-9.53.03-18.77-1.59-27.76-4.67-7.26-2.49-9.32-6.66-6.49-13.81,3.68-9.31,10.29-16.54,17.41-23.3,9.67-9.18,20.84-15.88,33.68-19.71,2.41-.72,4.4-.44,6.67.85,15.32,8.66,31.49,12.52,48.85,7.29,13.54-4.08,23.13-13.34,31.15-24.56,15.47-21.66,30.69-43.51,46.61-64.84,24.66-33.03,52.01-63.69,83.27-90.71,4.69-4.06,7.64-3.87,11.57,1.03,10.62,13.26,16.29,28.63,18.33,45.29,1.01,8.22.8,16.58,1.23,24.87.15,2.84-.98,4.26-3.69,5.43-29.44,12.78-55.91,30.03-78.73,52.73-14.64,14.57-25.64,31.76-36.11,49.35-5.68,9.55-11.16,19.22-16.77,28.82-1.36,2.33-2.89,4.55-4.26,6.87-8.03,13.53-19.76,19.73-35.6,19.19-14.82-.51-29.67-.11-44.5-.11Z" fill="#fff"/>
      <path d="m280.9,267.99h-18.46c0-1.27,0-2.45,0-3.64,0-12.58-.28-25.17.06-37.74.67-25.15-3.7-49.13-15.66-71.84,15.15-11.76,31.37-21.57,49.38-30.01-.48,1.82-.81,3.04-1.12,4.25-4,15.41-8.47,30.71-11.81,46.26-1.8,8.37-2.16,17.15-2.29,25.76-.31,20.89-.1,41.78-.1,62.67v4.29Z" fill="#fff"/>
      <rect width="300" height="300" fill="none"/>
    </g>
  </g>
</svg>