<?xml version="1.0" encoding="UTF-8"?>
<svg id="_레이어_2" data-name="레이어 2" xmlns="http://www.w3.org/2000/svg" viewBox="0 0 300 300">
  <g id="_레이어_1-2" data-name="레이어 1">
    <g>
      <path d="m21.18,278.65c-1.37-.62-2.74-1.25-4.12-1.84-10.29-4.39-16.21-12.08-16.7-23.31-.39-8.93-.15-17.9-.15-26.85C.21,168.47.56,110.29,0,52.11c-.17-18.14,11.82-31.03,30.35-30.37,16.85.6,33.74.1,50.61.14,8.95.02,11.65,2.78,11.65,11.8.02,25.3-.12,50.61.06,75.91.12,17.36,14.07,30.11,30.21,27.24,6.5-1.16,12.83-3.88,18.94-6.56,5.61-2.46,10.71-2.74,16.27-.03,4.46,2.18,9.2,3.83,13.92,5.42,17.63,5.93,35.04-6.27,35.19-24.91.21-25.47.05-50.95.07-76.42,0-9.61,2.73-12.43,12.16-12.44,17.22-.03,34.43-.07,51.65,0,18.09.08,28.9,10.93,28.91,29.01.03,64.89.01,129.78.01,194.67,0,19.43-4.08,25.71-21.53,33.09H21.18Z" fill="#fff"/>
      <path d="m189.65,71.01c0,12.56.05,25.12-.02,37.69-.05,9.12-5.39,12.76-13.92,9.56-5.15-1.93-10.27-3.93-15.38-5.96-6.88-2.73-13.72-2.75-20.61-.01-5.43,2.15-10.86,4.32-16.37,6.26-7.39,2.61-12.98-1-13.03-8.78-.16-25.98-.13-51.97-.02-77.95.03-6.53,3.38-9.84,9.99-9.88,19.79-.13,39.59-.13,59.38,0,6.92.05,9.92,3.34,9.95,10.36.06,12.91.02,25.81.02,38.72Z" fill="#fff"/>
      <rect width="300" height="300" fill="none"/>
    </g>
  </g>
</svg>