<?xml version="1.0" encoding="UTF-8"?>
<svg id="_레이어_2" data-name="레이어 2" xmlns="http://www.w3.org/2000/svg" viewBox="0 0 300 300">
  <g id="_레이어_1-2" data-name="레이어 1">
    <g>
      <path id="_패스_587" data-name="패스 587" d="m275.46,165.19c.65-.48.95-.71,1.27-.93,9.71-6.78,13.93-17.81,10.96-28.59-2.94-10.9-12.55-18.65-23.78-19.17-7.1-.35-14.23-.28-21.36-.21h-28.14c-13-.01-26,.02-39-.02-8.16-.02-11.42-5.53-7.5-12.68,5.56-9.62,9.93-19.9,12.99-30.59,3.39-12.9,6.54-25.9,9.08-38.99,2.82-14.13-5.37-28.13-19.03-32.53-1.73-.58-3.52-.99-5.28-1.49h-7.57c-.23.17-.48.31-.75.41-13.38,2.78-20.92,11.17-23.85,24.43-2.12,9.6-4.28,19.24-7.31,28.57-6.82,20.96-19.36,39.01-30.34,57.81-3.58,5.63-8.69,10.12-14.71,12.96-3.87-9.31-10.73-13.08-20.33-12.85-9.79.24-19.6.05-29.39.05-12.57,0-20.04,7.53-20.04,20.23,0,29.59,0,59.18,0,88.77h-.02v30.29h.02c-.02,10.35-.05,20.71.03,31.06-.12,6.3,3.16,12.18,8.57,15.37,2.12,1.13,4.32,2.11,6.59,2.91h40.15c6.76-2.03,11.99-5.8,14.29-12.84.39-1.18.66-2.39,1.04-3.76.9,0,1.66.03,2.43,0,12.85-.48,25.61,2.26,37.14,7.98,9.49,4.54,19.87,6.91,30.38,6.93,18.04.08,36.09.05,54.13.03,10.77,0,21.54-.02,32.3-.15,5.88.18,11.62-1.85,16.08-5.69,10.84-9.23,12.38-25.46,3.47-36.58-.38-.49-.68-1.05-1.11-1.72,9.31-3.22,15.55-9.25,17.98-18.64,2.46-9.5-.18-17.87-6.84-25.22,9.26-3.98,15.17-10.61,16.78-20.42,1.62-9.87-1.93-18.12-9.34-24.73Zm-212.97,126.03c-10.48.02-20.95.02-31.43,0-7.24,0-10.94-3.71-10.96-10.97-.01-9.85.01-19.71-.02-29.57h.01v-24.51c.03-.68,0-1.37,0-2.05v-3.74h0v-89.5c0-6.86,3.83-10.7,10.63-10.71,10.58-.02,21.15-.02,31.72,0,6.84,0,10.69,3.83,10.7,10.66.01,49.9.01,99.8,0,149.7,0,6.85-3.83,10.67-10.66,10.69Zm213.35-101.14c-2.14,8.02-8.62,12.82-17.59,12.84-5.01.01-10.03.02-15.04.01-1.66-4.5-5.93-7.48-10.71-7.48h-54.52c-6.32,0-11.43,5.15-11.43,11.5h0c0,6.34,5.11,11.49,11.42,11.5h54.53c4.46,0,8.51-2.61,10.37-6.68,1.65,0,3.3,0,4.94,0,2.13-.03,4.26.2,6.33.7,9.14,2.32,14.67,11.64,12.37,20.81-1.9,7.57-8.65,12.89-16.42,12.94-2.21.02-4.41.03-6.62.04-1.41-4.91-5.89-8.29-10.98-8.29h-54.52c-6.31,0-11.43,5.14-11.43,11.49h0c0,6.35,5.11,11.5,11.42,11.51h54.53c3.85,0,7.43-1.95,9.55-5.18,6.84,1.51,11.98,7.21,12.82,14.19,1.26,8.03-3.36,15.82-10.99,18.52-2.8.77-5.7,1.12-8.61,1.02-27.16.1-54.31.09-81.49.12-10.32.06-20.52-2.25-29.81-6.75-11.9-5.83-25.04-8.66-38.28-8.24-1.21.03-2.43,0-3.58,0-.09-.45-.16-.9-.2-1.36,0-45.9-.03-91.79-.07-137.69-.07-1.37.8-2.61,2.12-3,9.31-4.58,17.02-11.87,22.13-20.92,4.5-7.75,8.9-15.55,13.42-23.28,9.05-15.05,15.72-31.41,19.8-48.5,1.13-6.13,2.58-12.2,4.32-18.18,3.38-9.67,13.67-15.02,23.48-12.21,9.84,2.6,16.07,12.32,14.35,22.4-1.82,9.77-3.98,19.48-6.24,29.16-3.14,13.4-8.18,26.28-14.96,38.24-2.45,3.81-3.33,8.44-2.43,12.89,1.89,8.14,8.19,12.86,17.4,12.9,13.14.06,26.29.02,39.43,0v.02h30.15c6.62.04,13.28-.26,19.85.34,9.3.99,16.04,9.38,15.05,18.72-.21,1.99-.77,3.93-1.65,5.73-3.38,6.83-9.16,9.71-16.6,9.7-6.21-.01-12.42-.02-18.63-.01-1.88-4.04-5.91-6.63-10.35-6.63h-54.5c-6.32.24-11.24,5.58-11,11.92.23,6.01,5.02,10.83,11,11.05h54.52c4.8,0,9.08-3.02,10.72-7.55h13.01c1.94-.02,3.88.11,5.8.38,9.32,1.51,15.66,10.33,14.15,19.69,0,0,0,0,0,0-.09.55-.21,1.1-.35,1.64v-.02Z" fill="#fff"/>
      <rect width="300" height="300" fill="none"/>
    </g>
  </g>
</svg>