<?xml version="1.0" encoding="UTF-8"?>
<svg id="_레이어_2" data-name="레이어 2" xmlns="http://www.w3.org/2000/svg" viewBox="0 0 300 300">
  <g id="_레이어_1-2" data-name="레이어 1">
    <path d="m162.44,225.11c-6.38,3.29-12.3,6.34-18.22,9.39-11.79,6.1-23.62,12.13-35.35,18.33-3.83,2.03-7.26,2.01-11.15-.01-30.17-15.73-60.41-31.32-90.62-46.96-.79-.41-1.58-.8-2.35-1.24-4.4-2.53-5.93-7.17-3.74-11.31,2.21-4.17,6.94-5.7,11.38-3.47,7.38,3.71,14.69,7.55,22.03,11.35,22.1,11.42,44.21,22.83,66.28,34.31,1.84.96,3.24,1.05,5.15.06,18.04-9.42,36.13-18.76,54.26-28.01,1.88-.96,2.46-2.06,2.43-4.09-.11-7.86-.04-15.73-.04-24.01-1.43.66-2.48,1.09-3.49,1.61-16.51,8.53-33.06,16.99-49.49,25.68-4.26,2.25-7.93,2.28-12.22.05-30.6-15.96-61.29-31.76-91.94-47.63-3.88-2.01-5.75-5.19-5.28-8.73.47-3.53,3.01-6.76,6.53-7.09,2.28-.21,4.92.37,6.99,1.42,20.59,10.49,41.09,21.15,61.62,31.76,8.65,4.47,17.32,8.89,25.93,13.44,1.57.83,2.74.83,4.32.01,18.32-9.53,36.67-18.99,55.04-28.42,1.37-.7,2.06-1.45,2.04-3.12-.09-7.69-.04-15.39-.05-23.08,0-.46-.11-.92-.21-1.75-4.85,2.48-9.47,4.82-14.07,7.2-13.19,6.82-26.4,13.6-39.54,20.52-3.53,1.86-6.74,1.99-10.33.12-30.89-16.04-61.83-31.99-92.76-47.96C2.28,111.82-.03,109.43,0,105.52c.03-3.91,2.4-6.26,5.68-7.95C67.7,65.52,129.72,33.47,191.7,1.35c3.49-1.81,6.6-1.79,10.05,0,30.73,15.93,61.49,31.8,92.25,47.66,3.46,1.78,5.99,4.22,5.95,8.41-.05,4.07-2.6,6.33-5.96,8.06-22.2,11.44-44.36,22.97-66.6,34.32-2.49,1.27-3.26,2.73-3.2,5.42.18,7.58.06,15.17.06,23.25,1.38-.67,2.41-1.14,3.42-1.67,19.39-10.02,38.78-20.05,58.18-30.07.79-.41,1.57-.83,2.38-1.17,4.27-1.76,8.87-.14,10.86,3.79,1.99,3.95.68,8.74-3.4,10.98-6.81,3.73-13.76,7.22-20.66,10.79-16.16,8.36-32.31,16.73-48.51,25.01-1.74.89-2.34,1.91-2.31,3.86.12,7.1.04,14.2.05,21.3,0,.85.09,1.69.16,2.88,1.16-.56,2.03-.96,2.88-1.4,19.83-10.24,39.67-20.47,59.49-30.75,3.11-1.61,6.15-2.05,9.24-.16,5.67,3.48,5.18,11.36-1.01,14.67-7.28,3.9-14.67,7.6-22.01,11.39-15.47,7.97-30.93,15.97-46.43,23.88-1.71.87-2.41,1.82-2.38,3.81.13,7.98.05,15.96.05,24.42,1.27-.62,2.21-1.05,3.13-1.53,19.74-10.2,39.46-20.45,59.27-30.53,1.97-1,4.52-1.53,6.7-1.31,3.56.37,5.77,2.91,6.44,6.42.68,3.52-.58,6.5-3.59,8.44-2.39,1.54-4.98,2.77-7.51,4.08-59.75,30.88-119.51,61.73-179.22,92.7-4.28,2.22-7.89,2.26-12.19.02-30.51-15.92-61.12-31.66-91.69-47.47-5.61-2.9-7.23-8.47-3.83-12.92,2.63-3.46,6.76-4.27,11.1-2.04,12.86,6.6,25.69,13.25,38.53,19.89,16.6,8.58,33.2,17.13,49.77,25.77,1.57.82,2.75.83,4.33.01,18.23-9.49,36.51-18.88,54.73-28.37.94-.49,2.1-1.72,2.11-2.63.16-8.28.1-16.56.1-25.46Zm-23.11-177.86c.51.35.72.53.96.66,24.61,12.75,49.21,25.51,73.87,38.16.98.51,2.71.4,3.73-.12,17.76-9.08,35.47-18.28,53.18-27.46.63-.32,1.19-.77,2-1.3-.81-.48-1.3-.8-1.81-1.07-24.27-12.56-48.53-25.13-72.85-37.58-1.03-.53-2.84-.31-3.94.25-13.06,6.63-26.05,13.39-39.06,20.12-5.31,2.74-10.61,5.5-16.09,8.34ZM26.72,105.47c.88.54,1.27.82,1.7,1.04,24.36,12.6,48.72,25.23,73.13,37.73,1.04.53,2.87.39,3.97-.17,14.81-7.53,29.55-15.19,44.31-22.83.83-.43,1.62-.91,2.67-1.49-1.13-.63-1.89-1.08-2.67-1.49-22.62-11.7-45.32-23.24-67.79-35.21-4.53-2.41-7.85-2.37-12.29.06-14.07,7.66-28.41,14.82-43.03,22.36Zm152.55,137.88c8.89-4.59,17.23-8.98,25.67-13.18,1.99-.99,2.57-2.18,2.56-4.32-.06-37.47-.04-74.94-.05-112.41,0-.93-.1-1.86-.17-3.13-1.02.49-1.71.81-2.39,1.16-7.68,3.98-15.32,8.04-23.07,11.89-2.05,1.02-2.78,2.15-2.77,4.48.08,37.37.06,74.74.06,112.11,0,.95.09,1.9.16,3.39Zm17.96-146.7c-.37-.43-.47-.64-.63-.72-24.69-12.78-49.38-25.56-74.12-38.24-.91-.47-2.5-.32-3.46.16-6.51,3.23-12.94,6.62-19.4,9.96-1.68.87-3.34,1.75-5.08,2.66.35.39.45.59.61.67,24.78,12.83,49.55,25.65,74.36,38.41.72.37,1.96.34,2.69-.03,8.33-4.21,16.6-8.51,25.03-12.87Z" fill="#fff"/>
  </g>
</svg>