<?xml version="1.0" encoding="UTF-8"?>
<svg id="_레이어_2" data-name="레이어 2" xmlns="http://www.w3.org/2000/svg" viewBox="0 0 300 300">
  <g id="_레이어_1-2" data-name="레이어 1">
    <g id="_07쇼핑_shape_07_0001" data-name=" 07쇼핑 shape 07 0001">
      <rect id="_사각형_5" data-name="사각형 5" width="300" height="300" fill="none"/>
      <path d="m289.54,97.77h-49.89l-38.81-64.69c-2.91-4.99-9.32-6.67-14.31-3.76-4.99,2.91-6.67,9.32-3.76,14.31.04.07.09.14.13.22l32.35,53.92H84.76l32.35-53.92c2.97-4.96,1.37-11.38-3.59-14.36-4.96-2.97-11.38-1.37-14.36,3.59l-38.81,64.69H10.46C4.69,97.77,0,102.45,0,108.23s4.69,10.47,10.46,10.47h5.07c3.79,23.17,14.18,86.63,19.84,121.31,3.04,18.55,19.07,32.17,37.87,32.18h153.52c18.8,0,34.83-13.62,37.87-32.18l19.84-121.31h5.07c5.78,0,10.47-4.69,10.47-10.47s-4.69-10.46-10.47-10.46Zm-184.88,115.12c0,5.78-4.69,10.47-10.47,10.47s-10.47-4.69-10.47-10.47v-55.81c0-5.78,4.69-10.47,10.47-10.47s10.47,4.69,10.47,10.47v55.81Zm55.81,0c0,5.77-4.68,10.45-10.46,10.46-5.78,0-10.47-4.68-10.47-10.46v-55.81c0-5.78,4.69-10.47,10.47-10.47s10.46,4.69,10.46,10.47v55.81Zm55.81,0c0,5.77-4.68,10.45-10.46,10.46-5.78,0-10.47-4.68-10.47-10.46v-55.81c0-5.77,4.68-10.45,10.46-10.46,5.78,0,10.47,4.68,10.47,10.46v55.81Z" fill="#fff" fill-rule="evenodd"/>
    </g>
  </g>
</svg>