<?xml version="1.0" encoding="UTF-8"?>
<svg id="_레이어_2" data-name="레이어 2" xmlns="http://www.w3.org/2000/svg" viewBox="0 0 300 300">
  <g id="_레이어_1-2" data-name="레이어 1">
    <g id="_07쇼핑_shape_07_0003" data-name=" 07쇼핑 shape 07 0003">
      <rect id="_사각형_5-2" data-name="사각형 5-2" width="300" height="300" fill="none"/>
      <path id="_패스_390" data-name="패스 390" d="m149.91,185.16c-32.35-.04-58.56-26.25-58.59-58.59,0-6.47,5.25-11.72,11.72-11.72s11.72,5.25,11.72,11.72c0,19.42,15.74,35.16,35.16,35.16s35.16-15.74,35.16-35.16c0-6.47,5.26-11.71,11.73-11.71,6.46,0,11.7,5.24,11.71,11.71-.04,32.35-26.25,58.56-58.6,58.59Z" fill="#fff"/>
      <path d="m278.53,260.4l-23.25-182.2c-.01-.1-.04-.19-.05-.29-.04-.29-.09-.57-.16-.85,0-.03-.02-.06-.02-.09-1.23-5.16-5.85-9-11.39-9h-35.15v-9.38C208.5,26.23,182.27,0,149.91,0s-58.59,26.23-58.59,58.59v9.38h-33.76c-6.1-.73-11.65,3.37-12.86,9.28-.03.14-.05.28-.07.42-.03.18-.07.35-.09.53l-23.26,182.21c-.18,1.46-.28,2.92-.28,4.39,0,19.43,15.73,35.18,35.16,35.19h187.5c1.47,0,2.95-.09,4.41-.28,19.27-2.44,32.91-20.05,30.47-39.32ZM114.75,58.59c0-19.41,15.74-35.15,35.15-35.15,19.42,0,35.16,15.74,35.16,35.15v9.38h-70.31v-9.38Zm128.91,217.97H56.16c-.48,0-.96-.03-1.44-.09-6.43-.81-10.99-6.67-10.19-13.1l21.95-171.96h166.86l21.94,171.94c.06.5.09,1,.09,1.5,0,6.47-5.25,11.71-11.72,11.72Z" fill="#fff"/>
    </g>
  </g>
</svg>