<?xml version="1.0" encoding="UTF-8"?>
<svg id="_레이어_2" data-name="레이어 2" xmlns="http://www.w3.org/2000/svg" viewBox="0 0 300 300">
  <g id="_레이어_1-2" data-name="레이어 1">
    <g>
      <path d="m83.85,300c-2.44-.59-4.93-1.03-7.31-1.8-15.51-5.01-26.23-14.72-28.61-31.41-1.89-13.23,3.58-24.22,12.63-33.54,2.36-2.43,5.17-4.43,7.67-6.54-3.71-8.51-7.47-17.13-11.11-25.49-4.53-.41-9.36-.31-13.93-1.36-18.49-4.23-30.93-22.38-28.13-40.52,3.06-19.81,19.74-33.5,39.25-32.06,2.89.21,5.77.93,8.57,1.72,1.48.42,2.33.23,3.2-.96.75-1.02,1.54-2.12,2.58-2.78,4.24-2.69,4.36-5.67,2.45-10.29-4.71-11.38-5.8-23.42-4.16-35.64.25-1.83-.31-2.76-1.77-3.79-15.31-10.83-21.45-30.14-15.28-47.74C56.01,10.33,73.07-1.08,91.7.09c10.86.68,20.14,5.11,27.65,13.02,1.27,1.34,2.28,1.56,4.02,1.01,17.63-5.55,35.31-5.62,52.96-.1,2.05.64,3.25.3,4.74-1.25C193.28.13,211.68-3.47,227.66,3.52c15.88,6.95,25.92,23.12,24.77,40.58-.86,13.11-6.78,23.67-17.47,31.38-1.56,1.13-2.08,2.12-1.83,4.04,1.78,13.67-.16,26.84-5.64,39.48-.59,1.37-.46,2.18.71,3.2,2.05,1.79,4.03,3.71,5.76,5.81,1.09,1.31,2,1.35,3.49.9,24.57-7.42,48.58,10.94,47.87,36.54-.59,21.07-19.95,37.79-40.89,35.3-.47-.06-.95-.12-1.22-.15-3.82,8.76-7.57,17.39-11.44,26.26.97.71,2.32,1.64,3.6,2.67,9.95,8.04,16.25,18.22,17.06,31.14,1.03,16.51-10.15,31.46-27.22,37-2.94.95-5.99,1.56-8.98,2.33h-10.54c-.44-.17-.86-.43-1.32-.51-13.13-2.11-23.52-8.41-30.39-20-.81-1.36-1.55-1.28-2.84-.82-5.68,2.03-11.34,4.15-17.14,5.77-2.39.67-5.26.71-7.64.06-5.8-1.59-11.49-3.66-17.14-5.74-1.76-.65-2.47-.34-3.41,1.24-5.2,8.74-12.84,14.51-22.45,17.67-2.93.96-5.98,1.57-8.97,2.34h-10.54Zm-4.58-160.49c14.67,17.77,10.69,40.77-4.07,53.02-.68.56-1.08,2.31-.73,3.13,3.34,7.87,6.81,15.69,10.43,23.44.42.9,1.99,1.58,3.12,1.76,3.07.49,6.26.32,9.27.99,16.69,3.71,30.21,18.24,32.87,35.33.38,2.42,1.27,3.81,3.6,4.57,5,1.62,9.93,3.46,14.92,5.1.85.28,1.96.28,2.81,0,4.9-1.62,9.74-3.42,14.64-5.03,2.39-.79,3.42-2.16,3.8-4.75,2.71-18.39,20.17-36.93,42.23-36.1,1.66.06,2.54-.55,3.16-1.92,3.39-7.54,6.78-15.08,10.19-22.6.89-1.95.35-3.2-1.28-4.69-10.85-9.91-14.78-22.12-11.57-36.53,1.31-5.9,4.29-10.98,8.08-15.64-.58-.69-.99-1.23-1.46-1.72-17.34-18.15-47.05-15.16-61.01,6.13-4.77,7.28-11.68,7.25-16.51-.03-6.95-10.48-16.74-16.58-29.2-17.78-13.19-1.27-24.21,3.5-33.3,13.31Zm132.15-27.6c.45-1.07.92-2.02,1.26-3.02,6.76-19.74,4.3-38.37-8.41-54.81-17.03-22.02-40.17-29.86-67.23-25.25-28.69,4.89-50.27,27.54-52.91,54.59-.96,9.9.56,19.37,4.54,28.56,23.4-7.72,43.74-2.79,61.38,13.91,17.63-16.68,37.91-21.53,61.37-14Zm-122.98,170.53c6.01-.05,11.19-1.49,15.84-4.66,7.3-4.97,10.44-12.74,8.03-20.51-2.37-7.64-7.26-13.27-14.47-16.76-3.76-1.82-7.77-2.6-11.93-1.72-9.82,2.09-16.12,8.28-19.61,17.42-2.57,6.73-1.08,12.87,3.75,18.13,5.04,5.49,11.51,7.78,18.39,8.09Zm121.85,0c6.02-.05,11.19-1.5,15.84-4.67,7.3-4.97,10.42-12.75,8-20.51-2.38-7.64-7.27-13.27-14.48-16.75-3.76-1.82-7.77-2.6-11.94-1.71-9.82,2.09-16.11,8.29-19.6,17.44-2.57,6.74-1.07,12.87,3.77,18.13,5.04,5.48,11.51,7.77,18.39,8.07ZM51.73,144.73c-10.67-.04-19.41,8.64-19.42,19.3-.01,10.54,8.57,19.25,19.07,19.36,10.68.11,19.49-8.52,19.57-19.16.08-10.68-8.58-19.46-19.22-19.5Zm216.03,19.44c.05-10.67-8.63-19.42-19.28-19.44-10.54-.02-19.26,8.56-19.36,19.06-.11,10.69,8.5,19.51,19.13,19.59,10.67.08,19.46-8.57,19.51-19.21ZM72.63,58.79c6.89-15.18,17.44-26.9,31.26-35.75-8.52-8.15-23.8-6.97-32.36,2.27-8.86,9.56-8.5,24.71,1.1,33.47Zm123.48-35.76c14.05,8.92,24.48,20.73,31.34,35.69,9.28-7.97,10.01-23.04,1.78-32.65-8.44-9.85-23.34-11.36-33.12-3.04Z" fill="#fff"/>
      <path d="m163.49,93.61c.09,5.55-8.16,13.76-13.68,13.58-.77-.02-1.6-.11-2.27-.43-4.72-2.24-8.37-5.68-10.45-10.47-1.37-3.16-.33-6.2,1.99-8.61,2.32-2.41,5.21-3.16,8.57-2.43,1.49.32,3.2.42,4.65.03,5.55-1.47,11.1,2.56,11.19,8.32Z" fill="#fff"/>
      <path d="m113.06,67.85c.09-1.35.02-2.74.31-4.06.94-4.31,4.91-7.25,9.18-6.93,4.41.33,7.89,3.91,8.14,8.45.08,1.55.05,3.11.02,4.67-.12,5.2-3.79,9.05-8.67,9.11-5,.06-8.78-3.85-8.89-9.2-.01-.68,0-1.36,0-2.04-.03,0-.05,0-.08,0Z" fill="#fff"/>
      <path d="m169.29,67.88c.09-1.35.02-2.74.3-4.06.92-4.31,4.89-7.27,9.15-6.96,4.41.31,7.91,3.88,8.17,8.42.09,1.55.05,3.11.02,4.67-.11,5.33-3.94,9.24-8.93,9.15-4.88-.09-8.52-3.95-8.63-9.16-.01-.68,0-1.36,0-2.04-.03,0-.05,0-.08,0Z" fill="#fff"/>
      <rect width="300" height="300" fill="none"/>
    </g>
  </g>
</svg>