<?xml version="1.0" encoding="UTF-8"?>
<svg id="_레이어_2" data-name="레이어 2" xmlns="http://www.w3.org/2000/svg" viewBox="0 0 300 300">
  <g id="_레이어_1-2" data-name="레이어 1">
    <g id="_07쇼핑_shape_07_0002" data-name=" 07쇼핑 shape 07 0002">
      <rect id="_사각형_5-3" data-name="사각형 5-3" x=".09" width="299.9" height="300" fill="none"/>
      <path id="shopping-cart" d="m86.79,222.07c-13.1-.67-12.86-19.1,0-19.74,36.42.13,132.46.03,170.04.06,10.23.04,19.12-7.03,21.38-17.01l21.34-92.42c2.21-9.56-3.75-19.09-13.31-21.3-1.29-.3-2.61-.45-3.93-.46-15.12,0-143.42-.58-209.13-.84l-10.41-38.67c-2.52-9.25-10.91-15.68-20.5-15.69H8.88C4.03,15.95.05,19.84,0,24.7c-.05,4.86,3.84,8.84,8.7,8.89.06,0,.12,0,.19,0h33.37c1.65,0,3.09,1.11,3.52,2.69l40.01,148.48c-14.95.54-26.71,12.95-26.45,27.91.33,14.95,12.5,26.91,27.45,26.98h12.82c-7.29,15.36-.76,33.72,14.59,41.01,15.35,7.29,33.7.76,41-14.6,3.97-8.36,3.97-18.06,0-26.41h55.51c-7.29,15.36-.76,33.72,14.59,41.01,15.35,7.29,33.71.76,41-14.6,4.05-8.52,3.96-18.43-.23-26.88,4.6-1.54,7.08-6.53,5.53-11.13-1.2-3.58-4.56-5.99-8.33-5.99H86.79Zm53.8,30.78c0,7.29-5.9,13.19-13.19,13.19-7.28,0-13.19-5.91-13.19-13.19,0-7.28,5.9-13.19,13.18-13.19h.02c7.27.02,13.17,5.91,13.17,13.19h0Zm97.91,13.19c-7.28,0-13.18-5.92-13.17-13.2,0-7.19,5.77-13.05,12.96-13.17h.43c7.28.13,13.08,6.13,12.96,13.42-.12,7.19-5.98,12.95-13.17,12.96Zm43.87-177.18s.05.1.03.15l-8.99,38.94h-30.44l5.18-39.29,34.08.14c.05,0,.11.02.13.07h0Zm-90.63,95.95v-39.27h31.18l-5.18,39.27h-26Zm-43.59,0l-5.22-39.27h31.23v39.27h-26.01Zm-40.47,0h-.03c-2.15,0-4.03-1.44-4.59-3.51l-9.64-35.76h31.76l5.22,39.27h-22.73Zm32.91-56.85l-5.29-39.75,38.86.16v39.59h-33.57Zm51.15,0v-39.52l38.69.16-5.19,39.36h-33.5Zm-74.19-39.82l5.3,39.82h-34.17l-10.77-39.98,39.64.16Zm139.27,96.67h-21.35l5.18-39.27h28.7l-8.29,35.89c-.45,1.98-2.22,3.39-4.25,3.38Z" fill="#fff"/>
    </g>
  </g>
</svg>