<?xml version="1.0" encoding="UTF-8"?>
<svg id="_레이어_2" data-name="레이어 2" xmlns="http://www.w3.org/2000/svg" viewBox="0 0 300 300">
  <g id="_레이어_1-2" data-name="레이어 1">
    <g>
      <path d="m137.97,67.86c2.38,24.61,14.85,44.43,28.53,63.57,7.39,10.33,15.58,20.12,23.7,29.92,16.38,19.78,41.04,21.1,58.06,9.69.15-.1.39-.06,1-.14-2.46,6.03-6.32,10.63-11.53,14.01-1.95,1.26-2.57,2.62-2.57,4.87.07,32.36.05,64.72.04,97.08,0,9.39-3.79,13.15-13.22,13.15-60.51,0-121.02,0-181.52,0-9.52,0-13.37-3.87-13.37-13.43,0-32.02-.03-64.05.06-96.07,0-2.7-.65-4.34-2.99-5.96-8.5-5.89-13-14.24-13.79-24.5-.17-2.17.11-4.49.69-6.6,7.02-25.57,14.13-51.11,21.24-76.65,1.68-6.03,5.34-9.07,11.24-9.08,30.87-.04,61.74-.02,92.61-.01.55,0,1.09.09,1.82.16Zm41.21,178.43v-55.14c-4.88-.77-9.55-.93-13.8-2.32-4.35-1.43-8.31-4.07-12.6-6.27-13.97,11.37-30.77,10.25-43.66-.39-7.43,6.35-16.11,9.18-26.01,8.25v55.87h96.07Z" fill="#fff"/>
      <path d="m159.71,63.9c.24-38.24,34.67-68.2,72.36-63.39,34.39,4.39,59.22,33.79,57.31,68.15-.48,8.63-4.37,16.33-8.29,23.84-10.86,20.79-24.48,39.68-40.43,56.87-9.67,10.43-23.8,9.92-33.15-.83-14.46-16.63-28.28-33.73-38.6-53.31-5.23-9.92-9.59-20.17-9.21-31.34Zm64.58,23.99c12.85.1,23.37-10.18,23.46-22.93.09-12.71-10.38-23.32-23.08-23.4-12.82-.08-23.24,10.19-23.38,23.02-.14,12.84,10.09,23.2,23,23.3Z" fill="#fff"/>
      <rect width="300" height="299.81" fill="none"/>
    </g>
  </g>
</svg>