<?xml version="1.0" encoding="UTF-8"?>
<svg id="_레이어_2" data-name="레이어 2" xmlns="http://www.w3.org/2000/svg" viewBox="0 0 300 300">
  <g id="_레이어_1-2" data-name="레이어 1">
    <g>
      <path d="m138.8,0c6.9,1.4,12.79,4.38,17.13,10.18,7.88,10.52,5.68,25.65-5.1,34.17-9.9,7.83-25.46,6.13-33.49-3.66-12.34-15.04-4.55-36.58,14.55-40.26.36-.07.7-.29,1.04-.44h5.86Z" fill="#fff"/>
      <path d="m104.35,105.93c-1.22,3.45-2.45,6.9-3.67,10.36-5.51,15.63-11.01,31.26-16.5,46.9-.21.61-.49,1.37-.31,1.93,2.35,7.31,4.77,14.59,7.2,21.93.73-.1,1.22-.12,1.68-.23,5.39-1.35,8.29,0,10.52,5.12,3.75,8.58,7.43,17.18,11.15,25.77,5.34,12.35,10.69,24.7,16.02,37.05,2.83,6.55,1.11,10.27-5.73,12.53-8.52,2.81-17.04,5.64-25.56,8.44-6.41,2.11-10.18.06-11.72-6.5-5.18-22.12-10.33-44.25-15.45-66.39-1.45-6.29-.46-7.96,6.78-11.81-2.18-6.61-4.36-13.27-6.63-19.89-.19-.56-1.05-1.04-1.69-1.26-7.48-2.57-10.59-8.55-8.03-16.2,3.65-10.91,7.52-21.74,11.34-32.6,5.08-14.44,10.02-28.93,15.37-43.27,2.96-7.94,7.63-14.87,15.83-18.3,2.98-1.25,6.39-2.01,9.62-2.06,14.17-.22,28.34-.17,42.51-.08,10.7.07,18.37,5.6,22.77,14.81,4.22,8.85,7.36,18.23,10.68,27.49,6.25,17.43,12.3,34.94,18.42,52.43,2.35,6.73,1.8,12.4-2.87,15.09-4.15,2.39-4.08,5.43-3.98,9.12.11,4.1.05,8.2.08,12.3,0,.17.15.35.23.52,7.55.89,9.15,2.35,9.86,9.95,1.98,21.29,3.82,42.58,5.73,63.88.13,1.46.36,2.91.44,4.37.27,4.69-2.67,8.39-7.34,8.47-10.35.19-20.72.2-31.07-.03-4.71-.1-7.54-3.61-7.18-8.54.65-8.96,1.55-17.89,2.35-26.84,1.22-13.61,2.38-27.23,3.7-40.83.79-8.11,2.16-9.4,10.31-10.53,0-7.46.1-14.96-.09-22.46-.04-1.53-1.23-3.01-1.78-4.55-6.23-17.55-12.43-35.11-18.64-52.66-.44-1.24-.92-2.46-1.75-3.58,1.67,9.19,3.34,18.39,5.02,27.58,2.79,15.35,5.58,30.71,8.4,46.06.31,1.67.19,2.75-1.6,3.75-4.62,2.59-7.24,6.69-7.82,12.01-.14,1.25-.35,2.5-.55,3.89-.85.13-1.67.26-2.72.43,0,1.09-.02,2.06,0,3.01.59,20.15-.69,40.2-2.93,60.21-.56,4.99-.44,9.78,2.27,14.44,3.77,6.47-.38,17.9-7.31,21.33-7.12,3.52-15.86.64-19.04-6.68-1.12-2.58-1.45-5.67-1.46-8.53-.11-26.66-.06-53.32-.06-79.99v-3.89h-6.11v38.43c-.19.04-.39.08-.58.13-.59-1.27-1.21-2.54-1.76-3.82-6.49-15.04-13.02-30.06-19.45-45.13-2.51-5.88-6.43-9.88-12.94-11.07-.78-.14-1.58-1.22-2.03-2.05-3.71-6.79-2.02-13.72-.62-20.74,3.14-15.78,6.05-31.61,9.04-47.42.11-.56.08-1.14.11-1.71l-.43-.11Z" fill="#fff"/>
      <path d="m210.59,175.44c1.63,2.14,2.78,3.65,4.05,5.31.54-.3,1.03-.53,1.49-.82,4.61-2.85,8.02-2.42,11.63,1.65,15.3,17.22,30.57,34.46,45.83,51.72,4.08,4.61,3.6,9.03-1.35,12.72-7.59,5.65-15.2,11.28-22.85,16.86-4.7,3.43-9.11,2.57-12.16-2.35-4.06-6.55-8.17-13.07-11.95-19.77-1.04-1.84-1.17-4.27-1.38-6.46-1.24-13.01-2.35-26.04-3.55-39.05-.45-4.85-2.55-9.1-6.83-11.32-3.79-1.97-3.08-4.66-2.93-8.49Z" fill="#fff"/>
      <path d="m64.25,187.02c.7-1.99,1.34-3.81,2.01-5.71,2.45,3.92,2.41,4.97-.22,8.56-3.03,4.14-3.64,8.75-2.52,13.64,3.07,13.3,6.2,26.58,9.2,39.9.35,1.55.34,3.3,0,4.86-1.52,7.05-3.22,14.06-4.86,21.09-1.45,6.24-5.24,8.47-11.24,6.53-8.9-2.89-17.79-5.82-26.67-8.78-5.91-1.97-7.71-6.1-5.2-11.93,8.8-20.41,17.62-40.81,26.44-61.21,3.24-7.5,4.79-8.35,13.04-6.94Z" fill="#fff"/>
      <rect y=".09" width="300" height="299.83" fill="none"/>
    </g>
  </g>
</svg>