<?xml version="1.0" encoding="UTF-8"?>
<svg id="_레이어_2" data-name="레이어 2" xmlns="http://www.w3.org/2000/svg" viewBox="0 0 300 300">
  <g id="_레이어_1-2" data-name="레이어 1">
    <g>
      <path d="m0,44.56c1.72-6.36,4.75-11.89,11.03-14.63,3.04-1.33,6.54-2.26,9.83-2.26,76.02-.12,152.05-.12,228.07-.08,12.34,0,20.7,8.55,20.88,21.16.1,7.5.02,15,.02,22.77,4.24.56,8.28,1.01,12.29,1.65,11.51,1.83,18.69,11.35,17.58,23-2.74,28.94-5.42,57.89-8.13,86.83-2.21,23.6-4.58,47.19-6.59,70.81-1.02,11.96-11.7,19.86-23.94,18.46-27.52-3.15-55.04-6.2-82.56-9.31-30.33-3.43-60.66-6.89-90.99-10.31-18.02-2.03-36.05-4.09-54.08-6.01-10.79-1.15-17.55-7.52-18.94-18.11-.1-.78-.49-1.97-1.04-2.17-7.34-2.7-11.2-8.35-13.42-15.45V44.56Zm9.97,58.1v3.11c0,33.18,0,66.37,0,99.55,0,8.44,3.66,12.08,12.13,12.08,75.14,0,150.28,0,225.41,0,8.68,0,12.3-3.59,12.3-12.24,0-33.09,0-66.17,0-99.26,0-1.04,0-2.09,0-3.25H9.97Zm259.85-21.59c0,1.5,0,2.74,0,3.98,0,39.93.05,79.85-.09,119.78-.01,3.71-.58,7.72-2.08,11.05-3.79,8.36-10.9,11.57-19.93,11.56-73.11-.07-146.21-.04-219.32-.04-1.21,0-2.43,0-3.69,0,1.02,5.66,3.96,8.49,9.47,9.16,7.36.89,14.73,1.65,22.1,2.48,19.87,2.23,39.74,4.47,59.61,6.71,19.87,2.24,39.73,4.5,59.6,6.75,18.41,2.08,36.83,4.16,55.24,6.24,10.76,1.22,21.51,2.49,32.28,3.63,6.43.68,11.04-3.07,11.75-9.42.51-4.56.9-9.13,1.32-13.69,1.87-19.91,3.74-39.83,5.6-59.74,1.68-17.87,3.35-35.75,5.02-53.62,1.03-10.98,2.11-21.95,3.08-32.93.47-5.32-2.74-10.04-7.42-10.74-4.02-.6-8.1-.76-12.54-1.15Zm-10.16-18.22H10.23v29.54h249.44v-29.54Zm-.11-10.4c1.45-9.8-3.31-15.02-12.72-15-74.86.19-149.72.18-224.59,0-8.17-.02-14.02,5.23-11.86,15h249.16Z" fill="#fff"/>
      <path d="m199.67,197.45c-12.69,0-25.38,0-38.07,0-5.26,0-6.75-1.48-6.76-6.83-.03-13.76-.03-27.53,0-41.29.01-5.28,1.58-6.85,6.79-6.86,25.48-.01,50.95-.01,76.43,0,5.23,0,6.73,1.56,6.73,6.88,0,13.76,0,27.53,0,41.29,0,5.33-1.46,6.8-6.76,6.8-12.79.01-25.57,0-38.36,0Zm-34.65-10.19h69.58v-34.61h-69.58v34.61Z" fill="#fff"/>
      <path d="m57.36,152.45c-10.43,0-20.87-.02-31.3.01-2.76,0-5.04-.62-5.83-3.69-.73-2.82.72-5.36,3.56-6.01,1.12-.26,2.32-.29,3.48-.29,20.09-.02,40.18-.01,60.27-.01.29,0,.59,0,.88,0,4.34.06,6.47,1.73,6.45,5.05-.01,3.33-2.07,4.92-6.49,4.93-10.34.02-20.67,0-31.01,0Z" fill="#fff"/>
      <path d="m45.09,132.47c-6.34,0-12.68.02-19.03,0-3.93-.02-5.96-1.68-6.05-4.83-.09-3.23,2.07-5.12,6.09-5.13,12.59-.03,25.17-.01,37.76-.01,2.61,0,4.93.58,5.77,3.44,1.05,3.56-1.08,6.44-4.94,6.5-6.54.1-13.07.03-19.61.03h0Z" fill="#fff"/>
      <path d="m105.13,132.47c-6.44,0-12.88.03-19.32-.01-3.86-.03-5.81-1.79-5.77-5.04.04-3.12,1.94-4.89,5.65-4.91,12.78-.05,25.56-.05,38.34,0,3.77.01,5.91,1.97,5.85,5.08-.06,3.12-2.14,4.85-6.02,4.87-6.24.03-12.49,0-18.73,0Z" fill="#fff"/>
      <path d="m117.27,152.39c-2.53,0-5.06.1-7.58-.03-2.86-.14-4.55-1.86-4.73-4.56-.17-2.59,1.41-4.96,4.13-5.08,5.52-.26,11.07-.26,16.59-.01,2.73.12,4.32,2.47,4.16,5.06-.16,2.7-1.86,4.45-4.7,4.59-2.62.12-5.25.03-7.87.03Z" fill="#fff"/>
      <rect width="300" height="300" fill="none"/>
    </g>
  </g>
</svg>