<?xml version="1.0" encoding="UTF-8"?>
<svg id="_레이어_2" data-name="레이어 2" xmlns="http://www.w3.org/2000/svg" viewBox="0 0 300 300">
  <g id="_레이어_1-2" data-name="레이어 1">
    <g>
      <path d="m154.2,300c-15.27-20.58-30.22-40.72-45.17-60.87-15.52-20.91-31.09-41.78-46.53-62.76-33.08-44.95-29.43-105.94,9.57-144.06C103.26,1.84,141.07-7.03,182.48,5.49c40.79,12.33,66.24,40.7,75.04,82.42,6.29,29.79.27,58.01-16.63,83.41-28.17,42.36-56.76,84.45-85.18,126.65-.38.57-.82,1.11-1.51,2.03Zm25.76-236.7c.39-8.83-.78-16.82-6.12-23.69-5.32-6.84-12.28-10.79-20.89-11.63-7.38-.72-14.18,1.07-20.23,5.42-10.14,7.3-13.22,17.75-12.61,29.96h-27.52c-2.64,35.92-5.26,71.5-7.89,107.13h130.23c0-2.09.12-3.97-.02-5.84-2.36-32.59-4.77-65.18-7.09-97.78-.19-2.62-.9-3.72-3.78-3.65-7.84.2-15.69.07-24.08.07Z" fill="#fff"/>
      <path d="m111.59,83.95h8.49v10.96h20.57v-10.97h18.55v11.04h20.71v-11.02h8.41c1.63,22.04,3.25,43.9,4.88,66.04h-86.41c1.6-22.01,3.19-43.86,4.8-66.05Z" fill="#fff"/>
      <path d="m159.11,63.22h-18.17c-.47-4.91-.93-9.64,3.61-12.95,3.17-2.31,6.69-2.47,10.04-.54,5.26,3.01,4.95,8.09,4.52,13.49Z" fill="#fff"/>
      <rect width="300" height="300" fill="none"/>
    </g>
  </g>
</svg>