<?xml version="1.0" encoding="UTF-8"?>
<svg id="_레이어_2" data-name="레이어 2" xmlns="http://www.w3.org/2000/svg" viewBox="0 0 300 300">
  <g id="_레이어_1-2" data-name="레이어 1">
    <g>
      <path d="m70.12,65.71c-4.68.57-8.63,2.21-11.76,5.5-5.86,6.17-6.31,15.87-1.08,22.56,5.33,6.82,14.92,8.64,22.42,4.29,1.52-.88,3.09-1.67,4.66-2.45,10.4-5.18,14.47-14.32,14.83-25.17.19-5.72-1.19-11.5-1.88-17.25-.08-.68-.27-1.35-.5-2.45,6.31,1.17,12.29,2.27,18.26,3.4,11.72,2.23,23.41,4.57,35.15,6.69,6.48,1.17,11.49,4.27,15.29,9.71,28.53,40.85,57.14,81.65,85.7,122.48,7.66,10.95,5.56,22.65-5.43,30.35-34.25,24.01-68.52,48-102.8,71.97-11.14,7.79-22.81,5.71-30.58-5.38-28.47-40.64-56.85-81.35-85.45-121.9-4.99-7.08-4.78-14.37-3.46-22.27,4.66-27.94,9.13-55.91,13.61-83.88,1.76-10.98,10.16-18.57,20.51-18.45,2.7.03,4.56.77,5.9,3.46,2.95,5.87,5.56,11.81,6.61,18.79Zm92.74,161.04c7.28.07,11.44-3.15,11.63-9.74.2-6.76,2.86-9.65,9.34-11.17,7.54-1.77,10.2-7.7,6.7-14.68-2.83-5.65-2.55-9.34,2.28-13.85,6.03-5.62,5.41-12-1.51-16.45-5.42-3.48-6.42-7.01-4.71-12.99,2.29-8-1.36-13.29-9.7-13.74-6.41-.34-9.05-2.75-10.49-8.87-1.86-7.94-7.78-10.76-14.99-6.99-5.88,3.08-9.47,2-13.82-2.56-5.53-5.8-11.9-5.28-16.25,1.48-3.53,5.49-7.1,6.58-13.24,4.83-8.05-2.29-13.23,1.72-13.66,10.17-.29,5.7-2.27,8.48-8.08,9.82-8.87,2.04-11.58,7.85-7.48,15.94,2.65,5.23,1.97,8.48-2.22,12.5-6.57,6.3-5.87,12.45,1.78,17.54,4.44,2.95,6.55,5.95,4.12,11.11-.43.91-.51,2.01-.62,3.04-.72,6.72,2.54,10.97,9.24,12.01,2.05.32,4.12.55,6.19.67,1.92.11,3.03.94,3.53,2.84.64,2.4,1.32,4.81,2.25,7.11,2.36,5.8,6.85,7.86,12.82,6,1.48-.46,2.9-1.13,4.33-1.73,5.43-2.29,4.19-2.88,8.97,1.67,1.2,1.14,2.4,2.32,3.74,3.29,4.66,3.39,9.45,2.99,13.39-1.24,1.76-1.89,3.28-4.02,4.76-6.15,1.1-1.59,2.33-2.07,4.23-1.55,2.89.79,5.85,1.33,7.45,1.68Z" fill="#fff"/>
      <path d="m98.32,39.83c18.07,0,36.14-.02,54.21,0,6.39,0,11.47,2.83,16.03,7.19,28.33,27.04,56.74,53.99,85.13,80.97,7.6,7.23,15.26,14.4,22.79,21.7,9.23,8.94,9.46,20.77.66,30.16-4.52,4.83-9.13,9.58-13.46,14.12-30.34-43.36-60.57-86.53-90.77-129.73-5.69-8.14-13.77-11.78-23.27-13.46-16.65-2.93-33.23-6.24-49.84-9.41-.5-.09-.96-.36-1.44-.54l-.05-1.02Z" fill="#fff"/>
      <path d="m28.32,55.8c-5.41-8.51-9.51-17.18-11.11-26.79-.71-4.25-1.02-8.72-.56-12.99C17.9,4.2,27.56-2.19,39.31.68c10.15,2.48,18.15,8.55,25.24,15.85,12.24,12.6,21.24,27.08,24.54,44.61,1.02,5.45,1.06,10.95-.85,16.3-3.08,8.62-12.92,13.48-21.72,10.88-2.24-.66-3.14-2.29-3.08-4.12.07-1.95.93-3.9,1.63-5.79.09-.24,1.29-.16,1.95-.07,1.43.21,2.84.67,4.27.77,4.39.31,7.56-1.64,8-6.01.45-4.45.55-9.24-.59-13.5-5.17-19.27-16.02-34.71-32.81-45.67-2.8-1.83-6.14-3.08-9.4-3.92-5.53-1.42-9.5,1.03-10.02,6.68-.42,4.55,0,9.34,1.01,13.8,1.02,4.49,3.1,8.77,4.99,13.02.72,1.61.78,2.74-.11,4.27-1.41,2.4-2.53,4.98-4.04,8.02Z" fill="#fff"/>
      <path d="m113.19,221.77c-2.54-4.94-3.85-10.51-7.36-13.47-3.42-2.89-9.09-3.12-13.73-4.51.3-4.37,2.07-9.83.57-14.15-1.52-4.34-6.3-7.54-9.54-11.11,2.44-3.7,6.66-7.59,7.51-12.1.82-4.41-1.81-9.46-2.89-14.12,3.92-1.96,9.54-3.19,12.48-6.68,2.95-3.5,3.24-9.25,4.64-13.85,4.49.25,9.99,1.97,14.3.42,4.32-1.55,7.46-6.38,10.86-9.52,3.86,2.51,7.76,6.71,12.29,7.54,4.41.81,9.46-1.81,14-2.87,2.07,4.04,3.37,9.6,6.88,12.57,3.43,2.9,9.1,3.16,13.71,4.56-.26,4.49-1.98,9.96-.43,14.26,1.56,4.33,6.36,7.5,9.5,10.91-2.51,3.84-6.73,7.74-7.56,12.27-.81,4.41,1.83,9.45,2.91,13.99-4.04,2.07-9.63,3.36-12.55,6.87-2.93,3.53-3.19,9.27-4.53,13.72-4.6-.26-10.1-1.98-14.41-.42-4.32,1.56-7.45,6.4-11.53,10.2-6.64-9.99-15.5-11.3-25.1-4.51Zm14.89-42.74c-.83-5.83-4.02-11.53-10.63-14.68-6.1-2.91-13.48,1.02-15.02,7.64-1.69,7.27,4.14,17.01,11.46,19.13,7.26,2.11,14.21-3.17,14.19-12.09Zm12.93-10.27c.63,5.8,3.83,11.28,10.18,14.43,7.45,3.69,15.82-1.73,15.67-10.07-.11-6.39-3.39-11.24-8.41-14.88-3.54-2.57-7.48-3-11.44-.85-3.99,2.17-6.04,5.55-6,11.37Zm-.47,26.01c-.66-7.13-1.31-14.26-1.98-21.39-.79-8.27-1.57-16.53-2.46-24.79-.09-.81-.86-2.13-1.43-2.19-2.15-.24-6.22,4.37-6.02,6.64.6,6.93,1.26,13.85,1.91,20.77.82,8.68,1.62,17.36,2.52,26.03.07.69.87,1.83,1.4,1.86,2.38.16,6.2-4.38,6.06-6.94Z" fill="#fff"/>
      <path d="m119.39,181.96c-.69.21-1.78.93-2.59.7-2.36-.67-6.04-6.16-5.97-8.57.05-1.74.91-2.45,2.65-1.73,2.24.93,5.95,6.34,5.92,9.6Z" fill="#fff"/>
      <path d="m158.3,173.64c-.15,2.18-1.4,2.69-2.95,1.75-3.03-1.84-5.05-4.58-5.59-8.15-.32-2.11,1.05-3.09,2.79-1.98,3.09,1.97,4.89,4.93,5.75,8.38Z" fill="#fff"/>
      <rect width="300" height="300" fill="none"/>
    </g>
  </g>
</svg>