<?xml version="1.0" encoding="UTF-8"?>
<svg id="_레이어_2" data-name="레이어 2" xmlns="http://www.w3.org/2000/svg" viewBox="0 0 300 300">
  <g id="_레이어_1-2" data-name="레이어 1">
    <g>
      <path d="m140.56,0c6.25,0,12.49,0,18.74,0,.85.17,1.69.38,2.55.51,6.74.99,13.58,1.58,20.22,3.01,90.97,19.65,142.33,118.34,106.35,204.19-28.09,67.04-98.63,103.95-170.06,88.99-59.26-12.41-105.89-60.9-116.1-120.8C1.34,170.44.75,164.91,0,159.42c0-6.25,0-12.5,0-18.75.96-6.65,1.68-13.33,2.91-19.93C14.06,61,63.94,12.16,123.81,2.31c5.56-.92,11.17-1.55,16.76-2.31Zm63.21,144.91c-8.21,0-16.01-.1-23.81.06-2.33.05-3.11-.81-3.75-2.91-5.23-17.26-10.65-34.46-15.84-51.72-.74-2.45-1.84-3.16-4.26-3.04-4.09.2-8.21.26-12.29-.02-2.67-.18-3.68.8-4.42,3.24-5.23,17.26-10.63,34.46-15.88,51.71-.61,2-1.43,2.78-3.61,2.73-7.22-.15-14.44-.11-21.66-.02-1.69.02-2.44-.5-2.75-2.18-.7-3.84-1.57-7.64-2.37-11.46-2.94-13.93-5.87-27.86-8.89-41.77-.18-.84-1.07-2.16-1.66-2.18-5.44-.17-10.89-.1-16.74-.1,4.09,19.34,8.1,38.34,12.2,57.74h-23.46v17.49c7.85,0,15.54.18,23.22-.09,3.18-.11,4.24.87,4.87,3.95,4.05,19.87,8.37,39.69,12.51,59.54.41,1.96,1.02,2.78,3.18,2.69,4.58-.21,9.18-.26,13.75-.06,2.44.1,3.29-.84,3.97-3.06,6.12-20.04,12.42-40.03,18.53-60.08.7-2.3,1.67-3.01,4.04-2.96,7.51.16,15.03.18,22.54,0,2.47-.06,3.31.84,3.99,3.05,5.83,19.21,11.78,38.39,17.71,57.57.56,1.83,1.2,3.63,1.78,5.38,5.84,0,11.4-.08,16.96.04,1.87.04,2.48-.65,2.85-2.41,2.85-13.75,5.81-27.47,8.75-41.2,1.58-7.41,3.19-14.81,4.85-22.52h27.18v-17.52h-23.45c4.11-19.32,8.14-38.27,12.22-57.43h-17.94c-4.09,19.16-8.17,38.21-12.29,57.5Z" fill="#fff"/>
      <path d="m192.56,194.76c-3.28-10.62-6.57-21.24-9.93-32.11h17.33c-2.29,10.78-4.54,21.38-6.78,31.98-.21.04-.42.08-.62.12Z" fill="#fff"/>
      <path d="m99.77,162.62h17.33c-3.37,10.9-6.68,21.6-10,32.29-.17-.01-.34-.03-.51-.04-2.25-10.62-4.49-21.23-6.83-32.25Z" fill="#fff"/>
      <path d="m150.23,117.39c2.8,9.05,5.6,18.11,8.47,27.37h-17.61c2.85-9.22,5.64-18.26,8.43-27.3.24-.03.48-.05.72-.08Z" fill="#fff"/>
    </g>
  </g>
</svg>