<?xml version="1.0" encoding="UTF-8"?>
<svg id="_레이어_2" data-name="레이어 2" xmlns="http://www.w3.org/2000/svg" viewBox="0 0 300 300">
  <g id="_레이어_1-2" data-name="레이어 1">
    <g>
      <path d="m228.43,164.38c3.37-3.33,6.7-6.6,10-9.9,7.15-7.13,14.22-14.35,21.44-21.4,9.32-9.1,23.48-9.53,32.74-.95,7.45,6.9,8.98,15.46,5.85,24.85-1,3.02-2.55,5.96-4.35,8.58-14.16,20.57-28.39,41.09-42.69,61.57-7.85,11.24-18.1,19.2-31.84,21.85-3.65.7-7.44.95-11.16.96-28.42.1-56.84.09-85.26.05-1,0-2.27-.45-2.97-1.15-22.42-22.34-44.79-44.73-67.16-67.12-.22-.22-.36-.5-.66-.91,10.86-11.76,23.44-20.53,40.07-20.67,36.02-.29,72.04-.23,108.06-.07,13.63.06,24.53,11.47,24.5,24.92-.03,13.82-10.79,24.86-24.68,24.97-18.01.14-36.02-.02-54.03.15-1.82.02-4.29.9-5.32,2.25-2.61,3.41.2,7.62,4.88,7.62,18.11.02,36.23.04,54.34-.04,2.48,0,5.01-.28,7.42-.84,23.5-5.38,34.62-31.66,22.2-52.35-.42-.7-.82-1.4-1.38-2.36Z" fill="#fff"/>
      <path d="m150.02,139.97c-38.52,0-69.94-31.41-69.97-69.93C80.02,31.38,111.53-.08,150.21,0c38.54.08,69.85,31.52,69.8,70.08-.05,38.54-31.45,69.9-69.99,69.9Zm5.01-35.47c.98-.41,1.85-.74,2.69-1.13,7.71-3.55,12.08-9.57,12.2-18.04.12-8.6-4.05-14.97-11.92-18.49-2.58-1.15-5.59-1.5-8.45-1.8-5.21-.54-9.22-4.37-9.49-9.47-.26-5,3.15-9.38,8.09-10.39,5.99-1.23,11.17,3.02,11.86,9.74.35,3.43,2.37,5.35,5.4,5.12,2.84-.21,4.6-2.36,4.57-5.63,0-.83-.08-1.67-.24-2.48-1.41-7.43-5.61-12.66-12.62-15.45-1.67-.66-2.23-1.43-2.14-3.15.14-2.7.1-5.41.01-8.12-.1-3.28-1.99-5.21-4.96-5.21-2.96,0-4.89,1.93-4.99,5.19-.08,2.7-.12,5.42.01,8.12.08,1.7-.42,2.49-2.1,3.18-9.13,3.75-14.28,12.7-12.67,21.63,1.78,9.84,9.35,16.38,19.57,16.89,5.99.3,10.17,4.45,10.14,10.07-.02,5.25-4.14,9.63-9.3,9.92-5.68.31-10.01-3.55-10.64-9.51-.38-3.61-2.53-5.73-5.49-5.42-2.98.31-4.79,2.76-4.47,6.37.56,6.39,3.15,12.39,8.93,14.84,6.15,2.6,6.35,6.62,6.06,11.86-.26,4.65,1.49,6.8,4.87,6.85,3.46.05,5.07-2.16,5.08-7.01,0-2.8,0-5.6,0-8.45Z" fill="#fff"/>
      <path d="m120.5,264.87c-.89,1.51-1.42,3.04-2.45,4.08-9.58,9.71-19.22,19.35-28.9,28.96-3,2.98-5.45,2.76-8.83-.62-23.93-23.92-47.86-47.85-71.78-71.77-2.14-2.13-4.3-4.24-6.4-6.41-2.78-2.88-2.88-5.36-.11-8.15,9.6-9.68,19.25-19.33,28.92-28.94,3.01-3,5.44-2.79,8.82.59,23.49,23.48,46.97,46.97,70.45,70.45,2.58,2.58,5.22,5.09,7.69,7.76,1.01,1.09,1.64,2.53,2.58,4.04Z" fill="#fff"/>
    </g>
  </g>
</svg>