<?xml version="1.0" encoding="UTF-8"?>
<svg id="Layer_2" data-name="Layer 2" xmlns="http://www.w3.org/2000/svg" viewBox="0 0 300 300">
  <g id="_레이어_1" data-name="레이어 1">
    <g>
      <path d="m152.76,0c6.83,2.42,11.52,7.29,15.39,13.2.5.77,2.12,1.13,3.22,1.13,26.93.06,53.85.04,80.78.07,2.03,0,4.14.07,6.08.6,6.82,1.84,10.91,7.7,10.92,15.47.03,20.39,0,40.78,0,61.17,0,12.29.03,24.58-.04,36.88-.01,1.76.59,2.6,2.05,3.65,5.55,3.99,11.08,8.12,12.33,15.57.59,3.52.16,7.07-2.04,9.75-2.93,3.58-6.27,6.94-9.92,9.78-1.8,1.4-2.41,2.53-2.41,4.64.05,32.39.04,64.78.03,97.17,0,7.95-4.1,13.85-11.04,15.67-1.95.51-4.05.58-6.08.58-26.83.04-53.66.04-80.48-.02-2.05,0-3.07.67-4.39,2.35-2.8,3.56-5.94,7.07-9.58,9.7-4.82,3.48-10.52,3.53-15.36.04-3.65-2.63-6.84-6.09-9.62-9.66-1.4-1.79-2.52-2.44-4.64-2.43-26.83.06-53.66.09-80.48-.04-2.94-.01-6.15-.47-8.75-1.72-5.96-2.87-8.22-8.18-8.21-14.66.04-32.29,0-64.58.06-96.87,0-2.23-.59-3.39-2.57-4.83-5.26-3.81-10.9-7.83-11.61-14.99-.32-3.19.13-7.16,1.84-9.7,2.65-3.93,6.51-7.14,10.21-10.24,1.43-1.19,2.13-2.06,2.13-3.91-.05-32.49-.03-64.97-.05-97.46,0-3.81.68-7.38,3.03-10.47,3.11-4.08,7.27-6.05,12.39-6.05,19.12,0,38.24-.01,57.36.01,3.79,0,6.02,1.85,6.08,4.85.07,3.08-2.28,5.12-6.17,5.13-18.44.04-36.88.02-55.31.02-6.02,0-7.37,1.36-7.37,7.41,0,32,.02,64-.04,96,0,2.13.67,3.22,2.45,4.6,3.65,2.84,7.2,6.06,9.93,9.77,3.79,5.14,3.07,12.6-1.35,17.32-2.96,3.17-6.59,5.7-9.76,8.69-.75.71-1.18,2.11-1.18,3.19-.06,24.88-.05,49.75-.05,74.63,0,7.51-.01,15.02,0,22.54.01,5.22,1.58,6.8,6.82,6.8,27.02.01,54.05-.01,81.07.04,1.86,0,2.71-.73,3.9-2.16,3.09-3.71,6.33-7.48,10.19-10.3,4.89-3.58,12.04-2.9,16.57,1.21,3.28,2.97,5.89,6.68,8.95,9.91.72.75,2.08,1.24,3.15,1.25,13.27.08,26.53.05,39.8.05s27.51,0,41.27,0c5.42,0,6.92-1.53,6.92-7,0-32.29-.01-64.58.04-96.87,0-1.99-.76-2.85-2.35-4.05-6.14-4.63-12.81-9.26-12.14-18.29.21-2.77,1.16-5.97,2.89-8.03,2.95-3.53,6.83-6.27,10.21-9.46.71-.67,1.28-1.87,1.29-2.83.1-8.49.06-16.97.06-25.46,0-23.9,0-47.8,0-71.7,0-5.84-1.4-7.24-7.26-7.24-26.63,0-53.27.02-79.9-.04-2.21,0-3.43.58-4.89,2.53-2.65,3.53-5.9,6.81-9.48,9.39-2.18,1.57-5.45,2.23-8.24,2.26-9.41.1-19.99-11.34-18.91-20.49.34-2.84,1.62-5.93,3.41-8.15,3.45-4.3,7.38-8.31,13.01-9.9h5.85ZM45.49,149.93c-.68-1.32-1.13-2.6-1.92-3.63-.94-1.23-2.2-2.2-3.24-3.35-1.91-2.1-4.06-3.43-6.94-2.13-3.24,1.46-7.71,7.24-7.32,9.53.17,1,.63,2.09,1.28,2.85,1.45,1.69,3.05,3.28,4.71,4.77,2.22,1.98,4.87,1.94,7.08-.08,1.58-1.44,3.13-2.93,4.51-4.56.77-.91,1.17-2.14,1.83-3.41Zm217.85,9.44c3.88.04,10.4-6.29,10.28-9.46-.04-1.09-.47-2.37-1.15-3.19-1.55-1.86-3.28-3.6-5.12-5.18-2.19-1.88-4.96-1.78-7.01.55-2.61,2.97-7.73,4.91-4.97,10.48.08.17.22.32.36.46,1.71,1.72,3.35,3.53,5.18,5.13.82.72,2.01,1.01,2.44,1.21ZM149.77,29.04c1.26-.62,2.59-1.02,3.59-1.83,1.65-1.35,3.13-2.91,4.58-4.48,1.96-2.14,1.91-4.59,0-6.79-6.85-7.89-8.98-7.92-16.02-.2-.13.14-.27.28-.39.43-1.68,2.12-1.76,4.31.03,6.33,1.54,1.74,3.22,3.38,4.98,4.9.83.72,2.01,1.04,3.23,1.64Zm9.93,251.39c-.66-1.35-.94-2.57-1.68-3.36-6.72-7.15-8.04-9.24-15.69-.84-2.65,2.91-2.67,5.25.07,8.13,6.9,7.24,8.06,7.27,14.89-.08,1-1.07,1.59-2.52,2.41-3.85Z" fill="#fff"/>
      <rect width="300" height="300" fill="none"/>
    </g>
  </g>
</svg>