<?xml version="1.0" encoding="UTF-8"?>
<svg id="Layer_2" data-name="Layer 2" xmlns="http://www.w3.org/2000/svg" viewBox="0 0 300 300">
  <g id="_레이어_1" data-name="레이어 1">
    <g id="_02틀_shape_02_0006" data-name=" 02틀 shape 02 0006">
      <rect id="_사각형_2731" data-name="사각형 2731" y="0" width="300" height="300" fill="none"/>
      <path id="_패스_325" data-name="패스 325" d="m238.48,0H60.75c-2.07,0-3.75,1.68-3.75,3.75h0v292.5c0,2.07,1.68,3.75,3.75,3.75h177.73c2.07,0,3.75-1.68,3.75-3.75h0V3.75C242.23,1.68,240.55,0,238.48,0c0,0,0,0,0,0ZM87.11,292.5h-22.61v-21.4h22.61v21.4Zm0-28.9h-22.61v-21.84h22.61v21.84Zm0-29.34h-22.61v-21.84h22.61v21.84Zm0-29.34h-22.61v-21.84h22.61v21.84Zm0-29.34h-22.61v-21.84h22.61v21.84Zm0-29.34h-22.61v-21.84h22.61v21.84Zm0-29.34h-22.61v-21.84h22.61v21.84Zm0-29.34h-22.61v-21.84h22.61v21.84Zm0-29.34h-22.61v-21.84h22.61v21.84Zm0-29.34h-22.61V7.5h22.61v21.4Zm117.51,263.6h-110.01v-80.08h110.01v80.08Zm0-87.58h-110.01v-109.85h110.01v109.85Zm0-117.35h-110.01V7.5h110.01v80.08Zm30.11,204.92h-22.61v-21.4h22.61v21.4Zm0-28.9h-22.61v-21.84h22.61v21.84Zm0-29.34h-22.61v-21.84h22.61v21.84Zm0-29.34h-22.61v-21.84h22.61v21.84Zm0-29.34h-22.61v-21.84h22.61v21.84Zm0-29.34h-22.61v-21.84h22.61v21.84Zm0-29.34h-22.61v-21.84h22.61v21.84Zm0-29.34h-22.61v-21.84h22.61v21.84Zm0-29.34h-22.61v-21.84h22.61v21.84Zm0-29.34h-22.61V7.5h22.61v21.4Z" fill="#fff"/>
    </g>
  </g>
</svg>