<?xml version="1.0" encoding="UTF-8"?>
<svg id="Layer_2" data-name="Layer 2" xmlns="http://www.w3.org/2000/svg" viewBox="0 0 300 300">
  <g id="_레이어_1" data-name="레이어 1">
    <g>
      <path d="m295.91,122.68c-2.71-8.8-6.61-17.25-10.21-25.76-1.27-3.02-3.79-3.8-6.18-2.58-2.38,1.22-2.99,3.65-1.61,6.52.21.44.49.85.67,1.3,2.71,6.57,5.7,13.04,8.03,19.74,2.63,7.56,3.92,15.45,4.34,23.64-2.75.32-5.34.61-7.93.93-17.98,2.19-30.2,13.18-33.45,30.98-1.31,7.15-1.34,14.55-1.75,21.84-.86,15.04-4.39,29.33-12.02,42.39-14.98,25.62-37.86,40.31-66.23,47.12-4.95,1.19-10.06,1.68-15.18,2.51-.36-3.18-.62-5.69-.93-8.19-2.18-17.99-13.16-30.22-30.96-33.48-7.24-1.32-14.73-1.33-22.12-1.77-16.88-1-32.67-5.47-46.81-14.91-22.83-15.24-36.13-36.99-42.37-63.35-1.17-4.95-1.68-10.06-2.52-15.2,3.27-.37,5.88-.63,8.48-.96,16.5-2.09,28.68-11.98,32.37-27.53,1.76-7.42,2.13-15.24,2.45-22.91.6-14.32,3.39-28.05,9.7-40.97,4.19-8.58,9.74-16.2,16.43-23.01,2.46-2.5,2.76-4.69,1.14-6.71-1.81-2.25-4.68-2.19-7.1.26-15.39,15.6-24.34,34.4-27.59,55.98-.69,4.59-1.04,9.23-1.54,13.85-2.3.24-4.43.46-6.56.7-19.02,2.1-31.06,12.82-35.01,31.22-.57,2.66-.95,5.35-1.42,8.03v14.65c1.19,6.2,1.99,12.51,3.64,18.58,7.19,26.52,21.19,48.48,44.17,64.13,15.47,10.54,32.76,15.68,51.33,16.88.78.05,1.56.05,2.34.1.19.01.37.09.79.19.45,3.25.89,6.6,1.38,9.94.15,1.06.37,2.12.65,3.15.75,2.78,2.96,4.21,5.45,3.58,2.32-.59,3.58-2.84,3.13-5.51-.6-3.52-1.16-7.05-1.75-10.63,22.5-.59,34.18,13.05,33.98,33.59-8.39-.47-16.39-1.94-23.13-7.45-.45-.37-.87-.78-1.33-1.15-2.53-2.08-4.93-2.1-6.72-.06-1.69,1.93-1.54,4.8,1.01,6.64,3.76,2.72,7.64,5.49,11.88,7.27,4.07,1.7,8.65,2.16,13.01,3.17.84.19,1.68.38,2.51.57h14.64c.54-.17,1.08-.45,1.63-.5,12.74-1.26,24.91-4.65,36.45-10.1,30.42-14.36,50.94-37.15,58.77-70.36,1.65-6.98,2.25-14.2,3.36-21.51,1.93-.21,4.15-.44,6.36-.69,19.77-2.24,32.04-13.83,35.26-33.33,2.29-13.84,1.17-27.54-2.92-40.82Zm-253.27-11.22c.28,21.47-12.28,33.89-33.4,33.64-1.8-19.12,12.51-33.63,33.4-33.64Zm214.57,76.99c-.13-20.79,11.69-33.99,33.51-33.55-.23,23.39-13.64,33.02-33.51,33.55Z" fill="#fff"/>
      <path d="m89.69,27.83c1.15.25,2.74-.77,3.92-1.54,8.81-5.72,18.23-10.1,28.28-13.14,7.66-2.32,15.46-3.87,23.64-4.22.32,2.75.61,5.35.92,7.94,2.19,17.98,13.19,30.22,30.97,33.45,7.24,1.32,14.73,1.34,22.12,1.76,20.64,1.18,39.42,7.41,55.38,20.84,4.82,4.06,8.96,8.93,13.36,13.49,1.47,1.52,3.16,2.74,5.12,1.66,1.27-.71,2.61-2.26,2.84-3.62.21-1.26-.72-2.99-1.63-4.12-14.73-18.18-33.59-29.76-56.46-34.58-6.73-1.42-13.64-2.02-20.66-3.02-.21-1.88-.44-4-.67-6.12-2.28-21.09-15.7-34.09-36.78-36.13-19.05-1.85-37.1,1.74-54.39,9.46-6.2,2.77-11.99,6.46-17.93,9.8-2.03,1.15-2.98,3.21-1.94,5.22.68,1.32,2.44,2.54,3.92,2.86Zm65.21-18.71c21.69.32,33.05,12.12,33.46,33.38-21.2.85-34.11-12.65-33.46-33.38Z" fill="#fff"/>
      <path d="m13.51,24.39c1.13,13.12,8.5,22.27,20.69,25.17,3.84.92,7.89,1.12,11.86,1.34,3.22.18,4.84-1.59,4.91-4.79.03-1.17,0-2.34-.06-3.51-.74-15.39-8.01-24.99-21.53-28.25-2.73-.66-5.56-.88-8.35-1.3,0,.06-.02.12-.03.19-.49-.02-.97-.05-1.46-.07-5.03-.24-6.59,1.29-6.35,6.27.08,1.65.17,3.31.31,4.96Zm28.31,17.16c-10.53,1.25-19.55-7.55-19.46-19.18,11.43-.32,18.82,7.05,19.46,19.18Z" fill="#fff"/>
      <path d="m253.72,50.92c2.91-.05,5.85-.19,8.73-.65,10.48-1.68,18.55-6.82,21.89-17.27,1.54-4.83,1.88-10.1,2.36-15.2.28-2.97-1.7-4.6-4.75-4.69-.97-.03-1.95.08-2.92.12-1.17.08-2.34.11-3.5.25-11.63,1.35-20.73,6.4-24.39,18.16-1.45,4.66-1.7,9.74-2.13,14.66-.26,2.98,1.66,4.69,4.72,4.63Zm23.59-28.58c1.62,10.19-6.89,18.9-19.2,19.45.41-12.15,7.83-19.6,19.2-19.45Z" fill="#fff"/>
      <path d="m286.63,279.04c-.07-1.07-.1-2.14-.22-3.21-1.29-11.76-6.35-20.96-18.23-24.66-4.66-1.45-9.74-1.67-14.65-2.1-2.86-.25-4.6,1.62-4.56,4.49.04,3.01.18,6.05.65,9.02,1.49,9.39,5.9,16.84,14.83,21,5.6,2.61,11.6,3.22,17.66,3.24,2.88,0,4.47-1.7,4.64-4.57.06-1.07,0-2.14,0-3.21h-.13Zm-28.58-20.58c10.11-1.7,19.29,7.16,19.55,19.07-11.18.6-18.64-6.77-19.55-19.07Z" fill="#fff"/>
      <path d="m46.27,249.04c-2.91.05-5.85.19-8.73.64-10.73,1.68-18.85,7.01-22.15,17.74-1.44,4.67-1.75,9.73-2.19,14.65-.27,3.01,1.64,4.66,4.67,4.79,1.07.05,2.14,0,3.21,0,0-.05,0-.1,0-.14,1.07-.07,2.14-.1,3.21-.22,11.48-1.34,20.64-6.17,24.32-17.82,1.53-4.83,1.81-10.1,2.28-15.21.26-2.78-1.71-4.47-4.62-4.43Zm-23.74,28.52c-1.19-10.64,7.31-19.23,19.33-19.33-.89,12.51-8.28,19.83-19.33,19.33Z" fill="#fff"/>
      <path d="m25,78.47c6.89,0,12.5-5.61,12.5-12.51s-5.61-12.51-12.5-12.51-12.5,5.61-12.5,12.51,5.61,12.51,12.5,12.51Zm0-18.01c3.03,0,5.5,2.47,5.5,5.5s-2.47,5.5-5.5,5.5-5.5-2.47-5.5-5.5,2.47-5.5,5.5-5.5Z" fill="#fff"/>
      <path d="m283.5,233.04c0-6.9-5.61-12.51-12.5-12.51s-12.5,5.61-12.5,12.51,5.61,12.51,12.5,12.51,12.5-5.61,12.5-12.51Zm-18,0c0-3.03,2.47-5.5,5.5-5.5s5.5,2.47,5.5,5.5-2.47,5.5-5.5,5.5-5.5-2.47-5.5-5.5Z" fill="#fff"/>
    </g>
  </g>
</svg>