<?xml version="1.0" encoding="UTF-8"?>
<svg id="Layer_2" data-name="Layer 2" xmlns="http://www.w3.org/2000/svg" viewBox="0 0 300 300">
  <g id="_레이어_1" data-name="레이어 1">
    <g id="_02틀_shape_02_0010" data-name=" 02틀 shape 02 0010">
      <path d="m252.98,256.98c-.85,0-1.71-.27-2.44-.83-1.75-1.35-2.07-3.86-.73-5.61,20.25-26.26,31.43-54.03,34.17-84.88.2-2.2,2.13-3.82,4.34-3.63,2.2.2,3.83,2.14,3.63,4.34-2.88,32.42-14.59,61.55-35.8,89.06-.79,1.02-1.97,1.56-3.17,1.56Zm35.69-102.98h0c-2.21,0-4-1.8-3.99-4.01.04-25.01-6.88-49.44-20.03-70.7-7.38-3.33-15.95-9.19-25.3-18.53-.01-.01-.03-.03-.05-.05h0s-.03-.03-.05-.05c-20.77-20.8-24.31-37.55-20.69-46.29,1.83-4.41,5.63-7.04,10.19-7.04,4.03,0,7.17,1.94,9.37,4.02,2.55-2.84,5.68-4.03,8.59-4.03,5.22,0,11.16,3.85,13.18,14.14,8.66-5.88,15.49-4.5,19.33-.67,3.83,3.84,5.21,10.66-.66,19.32,10.26,2.02,14.13,7.96,14.13,13.19,0,2.98-1.26,6.2-4.26,8.79,2.19,2.22,4.25,5.43,4.25,9.6,0,4.5-2.58,8.26-6.91,10.05-2.54,1.05-5.9,1.46-9.95.92,11.09,20.67,16.9,43.76,16.86,67.34,0,2.21-1.79,3.99-4,3.99Zm-30.56-87.66c12.49,8.84,21.17,9.43,24.59,8.02,1.75-.72,1.97-1.8,1.97-2.66,0-2.7-2.67-4.79-4.05-5.7-2.8.76-6.16,1.2-10.14,1.2-.12,0-5.79-.11-12.37-.86Zm-13.16-11.28c2.27,2.06,16.75,4.14,25.53,4.14s14.2-2.43,14.2-5.9-5.84-5.9-14.2-5.9c-5.25-.1-10.36.73-15.23,2.47-1.46.52-3.08.15-4.17-.94-1.09-1.09-1.46-2.72-.94-4.17,1.74-4.88,2.57-9.97,2.47-15.15,0-8.44-2.43-14.28-5.9-14.28s-5.9,5.84-5.9,14.2c0,8.79,2.1,23.29,4.15,25.54Zm-16.21-39.73c-.83,0-2.02.22-2.8,2.1-1.42,3.42-.9,12.04,7.67,24.32-.73-6.52-.82-12.11-.82-12.23,0-4.2.49-7.71,1.33-10.6-.98-1.38-2.94-3.59-5.39-3.59Zm31.86,15.78c-.04,3.11-.36,6.21-.97,9.26,3.05-.61,6.14-.94,9.27-.98,4.99-5.44,6.91-10.68,4.65-12.94-2.26-2.26-7.5-.34-12.94,4.66ZM63.64,67.64c-.95,0-1.88-.34-2.61-.97-.91-.78-1.42-1.92-1.39-3.12.46-20.93,13.28-39.35,32.71-47.06.28-.15.59-.27.91-.35,14.94-5.68,35.06-8.8,56.74-8.8h.18c19.39,0,38.25,3.88,56.08,11.52,2.03.87,2.97,3.22,2.1,5.25-.87,2.03-3.22,2.97-5.25,2.1-16.82-7.22-34.63-10.88-52.93-10.88h-.17c-19.51,0-37.58,2.6-51.36,7.35.93,9.86-1.65,19.62-7.4,27.81-6.4,9.1-15.96,15.16-26.92,17.07-.23.04-.46.06-.69.06Zm27.19-41.64c-12.34,6.56-20.77,18.56-22.75,32.4,6.69-2.28,12.48-6.59,16.62-12.49,4.15-5.91,6.26-12.83,6.13-19.91Z" fill="#fff"/>
      <path d="m53.31,292.68c-5.22,0-11.16-3.85-13.18-14.14-8.66,5.88-15.49,4.5-19.33.67-3.83-3.84-5.21-10.66.66-19.32-10.26-2.02-14.13-7.96-14.13-13.19,0-2.98,1.26-6.2,4.26-8.79-2.19-2.22-4.25-5.43-4.25-9.61,0-4.5,2.58-8.26,6.91-10.05,2.54-1.05,5.9-1.46,9.95-.92-11.09-20.67-16.9-43.76-16.86-67.34,0-39.07,11.94-73.55,36.52-105.42,1.35-1.75,3.86-2.07,5.61-.73,1.75,1.35,2.07,3.86.73,5.61-23.78,30.84-34.85,62.79-34.85,100.54-.04,25.02,6.89,49.45,20.04,70.71,7.39,3.33,15.98,9.21,25.35,18.58,20.82,20.82,24.36,37.59,20.73,46.34-1.83,4.41-5.63,7.04-10.19,7.04-4.03,0-7.17-1.94-9.37-4.02-2.55,2.84-5.68,4.03-8.59,4.03Zm-7.2-42.78c1.04,0,2.07.41,2.83,1.17,1.09,1.09,1.46,2.72.94,4.17-1.74,4.88-2.57,9.97-2.47,15.15,0,8.44,2.43,14.28,5.9,14.28s5.9-5.84,5.9-14.2c0-8.78-2.09-23.26-4.14-25.53-2.24-2.06-16.74-4.15-25.54-4.15s-14.2,2.43-14.2,5.9,5.84,5.9,14.2,5.9c5.25.1,10.36-.73,15.23-2.47.44-.16.89-.23,1.34-.23Zm19.77,31.18c.98,1.38,2.94,3.59,5.39,3.59.83,0,2.02-.22,2.8-2.1,1.42-3.43.9-12.04-7.68-24.33.73,6.52.82,12.12.82,12.23,0,4.2-.49,7.71-1.33,10.6Zm-34.77-20.47c-4.99,5.44-6.91,10.68-4.65,12.94,2.26,2.26,7.5.34,12.94-4.66.04-3.11.36-6.21.98-9.26-3.05.61-6.14.94-9.27.98Zm23.96-15.66h0,0Zm0,0h0s0,0,0,0Zm-34.17-19.88c-1.52,0-2.72.23-3.59.59-1.75.72-1.97,1.8-1.97,2.66,0,2.7,2.67,4.8,4.05,5.7,2.8-.76,6.16-1.2,10.14-1.2.12,0,5.79.11,12.37.86-9.33-6.61-16.54-8.61-21.01-8.61Zm128.92,67.61c-19.28,0-38.04-3.83-55.78-11.4-2.03-.87-2.98-3.22-2.11-5.25s3.22-2.98,5.25-2.11c16.74,7.14,34.45,10.76,52.65,10.76h.18c19.51,0,37.59-2.6,51.37-7.36-1.97-21.44,12.82-41.14,34.32-44.88,1.18-.21,2.39.13,3.29.91s1.42,1.92,1.39,3.12c-.46,20.94-13.28,39.35-32.71,47.06-.28.15-.59.27-.91.35-14.94,5.68-35.07,8.8-56.74,8.8h-.19Zm82.11-51.05c-6.69,2.28-12.48,6.59-16.62,12.49-4.15,5.91-6.26,12.83-6.13,19.91,12.34-6.56,20.77-18.56,22.75-32.4Z" fill="#fff"/>
      <path id="path1179" d="m0,0h300v300H0V0Z" fill="none"/>
    </g>
  </g>
</svg>