<?xml version="1.0" encoding="UTF-8"?>
<svg id="Layer_2" data-name="Layer 2" xmlns="http://www.w3.org/2000/svg" viewBox="0 0 300 300">
  <g id="_레이어_1" data-name="레이어 1">
    <g id="_02틀_shape_02_0008" data-name=" 02틀 shape 02 0008">
      <rect id="_사각형_2736" data-name="사각형 2736" width="300" height="300" fill="none"/>
      <g id="_패스_345" data-name="패스 345">
        <path d="m150,28c26.4-.04,52.09,8.52,73.18,24.39h76.82v195.12h-76.82c-43.37,32.52-102.99,32.52-146.35,0H0V52.39h76.82c21.09-15.87,46.78-24.43,73.18-24.39Z" fill="none"/>
        <path d="m150,38c-24.45,0-47.68,7.74-67.17,22.39-1.73,1.3-3.84,2-6.01,2H10v175.12h66.82c2.17,0,4.27.7,6.01,2,19.49,14.64,42.72,22.39,67.17,22.39s47.68-7.74,67.17-22.39c1.73-1.3,3.84-2,6.01-2h66.82V62.39h-66.82c-2.17,0-4.27-.7-6.01-2-19.49-14.64-42.72-22.39-67.17-22.39m0-10c27.46,0,52.79,9.08,73.18,24.39h76.82v195.12h-76.82c-20.38,15.31-45.72,24.39-73.18,24.39s-52.79-9.08-73.18-24.39H0V52.39h76.82c20.38-15.31,45.72-24.39,73.18-24.39Z" fill="#fff" fill-rule="evenodd"/>
      </g>
      <g id="_패스_346" data-name="패스 346">
        <path d="m27.44,79.83v140.24h58.54l7.32,5.5c33.6,25.19,79.79,25.19,113.39,0l7.32-5.5h58.54V79.83h-58.54l-7.32-5.5c-33.6-25.19-79.79-25.19-113.39,0l-7.32,5.5H27.44Z" fill="none"/>
        <path d="m150,65.44c-18.46,0-35.99,5.84-50.69,16.88l-7.32,5.5c-1.73,1.3-3.84,2-6.01,2h-48.54v120.24h48.54c2.17,0,4.27.7,6.01,2l7.32,5.5c14.7,11.05,32.23,16.88,50.69,16.88s35.99-5.84,50.69-16.88l7.32-5.5c1.73-1.3,3.84-2,6.01-2h48.54v-120.24h-48.54c-2.17,0-4.27-.7-6.01-2l-7.32-5.5c-14.7-11.05-32.23-16.88-50.69-16.88m0-10c20.53,0,40.28,6.55,56.7,18.89l7.32,5.5h58.54v140.24h-58.54l-7.32,5.5c-16.42,12.33-36.16,18.89-56.7,18.89s-40.28-6.55-56.7-18.89l-7.32-5.5H27.44V79.83h58.54l7.32-5.5c16.42-12.33,36.16-18.89,56.7-18.89Z" fill="#fff" fill-rule="evenodd"/>
      </g>
    </g>
  </g>
</svg>