<?xml version="1.0" encoding="UTF-8"?>
<svg id="Layer_2" data-name="Layer 2" xmlns="http://www.w3.org/2000/svg" viewBox="0 0 300 300">
  <g id="_레이어_1" data-name="레이어 1">
    <g id="_02틀_shape_02_0009" data-name=" 02틀 shape 02 0009">
      <rect id="_사각형_2739" data-name="사각형 2739" y="0" width="300" height="300" fill="none"/>
      <g id="_패스_398" data-name="패스 398">
        <path d="m0,40.25h91.46c.03-11.1,9.02-20.09,20.12-20.12h18.29c0-11.11,9.01-20.12,20.12-20.12s20.12,9.01,20.12,20.12h18.29c11.1.03,20.09,9.02,20.12,20.12h91.46v219.51h-91.46c-.03,11.1-9.02,20.09-20.12,20.12h-18.29c0,11.11-9.01,20.12-20.12,20.12s-20.12-9.01-20.12-20.12h-18.29c-11.1-.03-20.09-9.02-20.12-20.12H0V40.25Z" fill="none"/>
        <path d="m150,10c-5.58,0-10.12,4.54-10.12,10.12v10h-28.29c-5.58,0-10.12,4.54-10.12,10.12v10H10v199.51h91.46v10c0,5.58,4.54,10.12,10.12,10.12h28.29v10c0,5.58,4.54,10.12,10.12,10.12s10.12-4.54,10.12-10.12v-10h28.29c5.58,0,10.12-4.54,10.12-10.12v-10h91.46V50.25h-91.46v-10c0-5.58-4.54-10.12-10.12-10.12h-28.29v-10c0-5.58-4.54-10.12-10.12-10.12M150,0c11.07,0,20.12,9.06,20.12,20.12h18.29c11.07,0,20.12,9.06,20.12,20.12h91.46v219.51h-91.46c0,11.07-9.05,20.12-20.12,20.12h-18.29c0,11.07-9.05,20.12-20.12,20.12s-20.12-9.06-20.12-20.12h-18.29c-11.07,0-20.12-9.06-20.12-20.12H0V40.25h91.46c0-11.07,9.06-20.12,20.12-20.12h18.29C129.88,9.06,138.93,0,150,0Z" fill="#fff" fill-rule="evenodd"/>
      </g>
      <g id="_사각형_2738" data-name="사각형 2738">
        <rect x="27.44" y="67.69" width="245.12" height="164.63" fill="none"/>
        <path d="m272.56,232.32H27.44V67.69h245.12v164.63Zm-235.12-10h225.12V77.69H37.44v144.63Z" fill="#fff"/>
      </g>
      <rect x="137.07" y="42.25" width="25.85" height="10" fill="#fff"/>
      <rect x="137.07" y="247.76" width="25.85" height="10" fill="#fff"/>
    </g>
  </g>
</svg>