<?xml version="1.0" encoding="UTF-8"?>
<svg id="Layer_2" data-name="Layer 2" xmlns="http://www.w3.org/2000/svg" viewBox="0 0 300 300">
  <g id="_레이어_1" data-name="레이어 1">
    <g>
      <g>
        <path d="m295.29,145.15c-3.92-1.42-7.73-3.12-11.56-4.77-1.45-.62-1.7-1.7-1.4-3.32.88-4.69,1.73-9.42,2.15-14.17.81-9.23.83-18.6-4.08-26.78-4.65-7.77-5.12-14.94-.5-22.8,3.34-5.69,1.71-14.3-2.9-19.06-4.18-4.31-10.09-5.03-16.81-2.04-1.07.48-2.1,1.03-3.18,1.49-4.66,1.97-9.47,2.51-14.28.84-3.67-1.28-7.17-3.03-10.78-4.48-4.51-1.8-8.98-3.79-13.63-5.18-6.47-1.95-12.54-.72-17.95,3.46-2.24,1.73-4.48,3.48-6.84,5.02-5.34,3.48-11.1,3.61-17.28,1.89,1.45-3.34-.47-5.19-2.75-6.7-7.99-5.31-14.86-11.65-19.8-20.01-2-3.38-6.17-3.37-8.14,0-4.85,8.3-11.66,14.57-19.55,19.84-2.43,1.62-4.53,3.54-3.07,6.9-9.01,2.64-16.55.22-23.22-5.67-6.65-5.87-14.21-7.1-22.37-3.99-5.45,2.07-10.73,4.61-16.08,6.96-5.37,2.36-10.88,3.97-16.73,2.14-2.87-.9-5.57-2.33-8.42-3.31-9.07-3.14-16.71,1.33-18.66,10.74-.94,4.52-.24,8.75,1.95,12.73,3.75,6.79,3.3,13.26-.56,19.97-2,3.47-3.4,7.49-4.14,11.44-1.95,10.43-.68,20.81,1.59,31.07.44,1.99.25,3.4-1.81,4.18-3,1.13-6.03,2.18-8.95,3.49-1.94.87-3.7,2.14-5.55,3.23v3.52c1.63,1.15,3.17,2.49,4.92,3.4,3.02,1.58,6.12,3.03,9.3,4.27,2.08.81,2.27,2,2.09,4.03-.69,7.66-1.47,15.35-1.55,23.03-.07,6.38,1.35,12.66,4.84,18.16,4.55,7.17,4.55,14.17.27,21.48-3.39,5.79-2.05,14.43,2.6,19.35,4.23,4.48,10.11,5.19,17.02,2.15,2.22-.98,4.46-1.99,6.79-2.65,5.8-1.63,11.16.18,16.43,2.47,5.44,2.37,10.81,4.98,16.39,6.97,7.72,2.75,14.98,1.6,21.38-3.83,1.71-1.45,3.55-2.76,5.41-4,5.35-3.56,11.12-3.59,17.24-2.06-1.2,3.57.48,5.51,3.18,7.4,3.98,2.78,7.95,5.71,11.35,9.15,3.05,3.09,5.26,7,7.93,10.48,2.49,3.24,6.14,3.27,8.2-.18,4.81-8.07,11.51-14.2,19.12-19.49,2.6-1.81,5.13-3.76,3.26-7.63,6.05-1.38,11.54-1.04,16.55,2.38,2.09,1.43,4.12,2.96,6.1,4.55,5.51,4.41,11.78,5.93,18.42,3.76,6.36-2.08,12.54-4.79,18.64-7.57,7.65-3.48,15.14-4.19,22.74,0,1.18.65,2.49,1.13,3.8,1.5,6.17,1.74,11.68.01,14.92-5.07,3.77-5.91,4.59-12.17.89-18.52-3.85-6.59-3.61-12.99.05-19.7,2.11-3.87,3.74-8.17,4.71-12.48,2.27-10.08.94-20.21-.79-30.24-.29-1.66.02-2.69,1.44-3.3,3.82-1.66,7.63-3.37,11.54-4.8,2.5-.91,4.88-1.6,4.83-4.92-.05-3.15-2.3-3.84-4.71-4.71ZM149.72,41.33c3.64,3.73,8.1,8.3,12.39,12.7-3.74,5.83-8.19,12.77-12.48,19.45-4.16-6.5-8.6-13.45-12.43-19.43,4.28-4.36,8.81-8.96,12.51-12.72ZM18.57,150.54c3.97-3.33,8.37-7.03,12.64-10.62,3.56,3.23,7.34,6.66,11.04,10.03-3.53,3.21-7.37,6.69-10.87,9.87-4.18-3.03-8.6-6.23-12.81-9.28Zm131.04,108.28c-3.72-3.85-8.11-8.39-12.41-12.86,3.7-5.77,8.19-12.78,12.45-19.41,4.21,6.57,8.67,13.54,12.46,19.46-4.26,4.37-8.72,8.94-12.5,12.81Zm120.38-28.71c1.04,1.95.7,4.91.29,7.28-.37,2.16-2.4,3.04-4.59,2.53-1.59-.37-3.16-.99-4.64-1.71-8.61-4.2-17.31-4.32-26.03-.52-4.65,2.02-9.14,4.39-13.75,6.49-6.74,3.08-13.26,3.24-19.07-2.08-9.35-8.55-20.1-9.65-31.66-5.92-2.53.82-3.97.48-5.17-1.82-3.1-5.96-6.26-11.9-9.44-17.82-.92-1.71-1.81-3.49-3.05-4.96-1.98-2.36-4.61-2.39-6.49.05-1.53,1.98-2.63,4.31-3.81,6.54-3.41,6.43-6.76,12.9-9.86,18.84-5.73-1.01-10.46-2.19-15.25-2.6-7.64-.67-14.52,1.69-20.17,6.93-6.19,5.74-12.92,6.22-20.26,2.75-4.14-1.96-8.24-4.02-12.4-5.93-9.24-4.23-18.47-4.41-27.63.29-.26.13-.53.24-.8.36-2.45,1.04-4.96,2.27-7.3-.12-1.73-1.77-2.02-5.99-.55-8.58,3.14-5.51,4.89-11.38,3.85-17.67-.58-3.49-1.58-7.15-3.35-10.17-3.34-5.68-4.86-11.68-4.84-18.13.01-5.02.34-10.05.52-15.07.27-.06.54-.12.81-.18.82,1.13,1.58,2.3,2.48,3.37,2.26,2.69,5.3,2.62,7.43-.16.53-.69,1.02-1.44,1.41-2.22,3.89-7.85,10.39-12.47,18.56-15.03.46-.15.93-.3,1.38-.47,2.04-.78,3.16-2.26,3.15-4.46-.01-2.21-1.21-3.64-3.22-4.42-2.36-.92-4.79-1.7-7.07-2.77-5.08-2.4-9.05-6.05-11.8-10.99-.71-1.28-1.43-2.56-2.28-3.75-2.08-2.91-5.31-3.01-7.61-.24-.97,1.18-1.8,2.48-3.21,4.46-1.27-12.27-3.37-23.61,3.26-34.49,5.17-8.48,4.64-17.4.43-26.34-1.13-2.4-1.54-5.42-1.34-8.08.22-2.9,2.54-3.98,5.42-3.19,1.4.38,2.76.96,4.07,1.61,8.49,4.2,17.11,4.35,25.75.64,4.56-1.96,9.01-4.2,13.49-6.37,7.54-3.66,14.31-3.05,20.78,2.71,9.58,8.52,20.75,8.28,32.27,4.95.93-.27,1.84-.59,3.49-1.13,2.84,5.12,5.76,10.26,8.56,15.46,1.62,3,2.85,6.22,4.62,9.12,2.57,4.21,6.11,4.23,8.62-.04,2.26-3.86,3.9-8.07,6.02-12.02,1.89-3.52,4.06-6.88,6.08-10.33,1.03-1.75,2.18-2.23,4.29-1.43,5.74,2.15,11.69,2.99,17.83,2.03,5.36-.84,10.13-2.99,14.06-6.68,6.04-5.68,12.69-6.3,19.97-2.91,4.24,1.98,8.43,4.07,12.67,6.04,9.24,4.3,18.46,4.41,27.63-.23.26-.13.52-.27.79-.38,2.44-.99,4.92-2.35,7.3.06,1.67,1.69,2.04,6.04.61,8.59-5.82,10.33-5.4,20.35.76,30.46,4.18,6.85,3.64,14.62,3.16,22.25-.15,2.42-.59,4.82-.92,7.4-.43-.28-.72-.39-.87-.59-3.68-5.03-7.06-5.04-9.9.43-4.14,7.97-10.56,12.86-18.97,15.42-2.11.64-3.77,1.65-4.2,3.97-.47,2.48.94,4.31,3.69,5.54,3.89,1.74,8.07,3.21,11.4,5.74,3,2.28,5.33,5.65,7.39,8.9,3.84,6.04,5.9,6.48,11.14,1.19.98,10.33,2.15,20.44-3.26,29.61-5.91,10.02-6.12,19.77-.68,30.01Zm-1.16-70.06c-3.63-3.31-7.46-6.8-11.08-10.1,3.63-3.3,7.41-6.74,11.1-10.09,3.73,3.25,7.68,6.69,11.59,10.09-3.73,3.24-7.72,6.72-11.6,10.1Z" fill="#fff"/>
        <ellipse cx="51.83" cy="84.5" rx="8.01" ry="8" fill="#fff"/>
        <ellipse cx="51.83" cy="215.5" rx="8.01" ry="8" fill="#fff"/>
        <ellipse cx="248.17" cy="84.5" rx="8.01" ry="8" fill="#fff"/>
        <ellipse cx="248.17" cy="215.5" rx="8.01" ry="8" fill="#fff"/>
      </g>
      <rect x="0" width="300" height="300" fill="none"/>
    </g>
  </g>
</svg>