<?xml version="1.0" encoding="UTF-8"?>
<svg id="Layer_2" data-name="Layer 2" xmlns="http://www.w3.org/2000/svg" viewBox="0 0 300 300">
  <g id="_레이어_1" data-name="레이어 1">
    <g>
      <path d="m292.2,300h-23.42c-2.99-1.37-5.88-3.01-8.98-4.05-19.71-6.65-39.96-7.42-60.32-4.35-9.39,1.42-18.56,4.28-27.88,6.28-4.45.95-9,1.43-13.5,2.12h-16.4c-.74-.18-1.48-.4-2.24-.52-5.66-.95-11.48-1.31-16.94-2.91-18.63-5.48-37.5-7.86-56.86-5.94-12.07,1.19-23.87,3.38-34.63,9.38H7.61C3.98,298.56,1.44,296.02,0,292.39,0,284.58,0,276.77,0,268.97c1.36-2.99,2.99-5.89,4.05-8.98,6.26-18.23,7.26-37.06,4.91-55.97-1.22-9.79-4.21-19.36-6.2-29.07C1.63,169.44.91,163.85,0,158.29c0-5.47,0-10.93,0-16.4.17-.75.39-1.49.52-2.25.99-5.85,1.39-11.86,3.05-17.51,5.4-18.35,7.67-36.93,5.83-56C8.22,53.97,6.04,42.08,0,31.23V7.8C1.77,3.75,4.4.27,9.13.32c10.29.1,20.94-2.1,30.51,3.86.08.05.19.06.28.09,24.56,7.76,49.4,8.24,74.09,1.38,21.43-5.95,42.82-7.64,64.35-1.8,15.26,4.14,30.58,6.96,46.44,6.28,14.6-.63,28.96-2.31,42.28-8.98,1.1-.55,2.42-.88,3.65-.89,6.54-.09,13.08-.16,19.61,0,5.02.12,9.4,4.14,9.35,9.11-.1,10.29,2.09,20.94-3.88,30.51-.05.08-.05.19-.08.28-7.76,24.56-8.2,49.39-1.36,74.09,5.71,20.63,7.41,41.22,2.38,62.1-2.67,11.08-6,22.01-6.6,33.49-.89,16.95-.65,33.95,5.75,49.87,3.22,8,4.28,15.82,3.93,24.14-.04,1.07-.09,2.15,0,3.22.59,6.17-1.77,10.58-7.63,12.94Zm-2.25-9.99c-.88-8.39,1.8-16.78-2.79-24.53-1.02-1.72-1.49-3.81-2.03-5.78-7.11-25.78-7.49-51.67-.17-77.4,5.86-20.61,6.7-41.13.64-61.71-4.74-16.1-6.45-32.48-5.57-49.17.69-12.91,2.2-25.77,7.62-37.62,3.57-7.82,1.35-15.63,2.31-23.64-4.61,0-8.69.12-12.77-.03-3.67-.13-7.03.44-10.42,2.03-3.59,1.68-7.46,2.92-11.32,3.84-25.87,6.17-51.56,5.58-77.16-1.88-17.99-5.24-36.24-5.53-54.32-.58-15.53,4.24-31.14,7.12-47.3,6.6-16.29-.52-32.27-2.43-47.23-9.52-.43-.2-.91-.42-1.37-.42-5.93-.03-11.85-.02-18.19-.02.89,8.39-1.8,16.78,2.79,24.53,1.02,1.72,1.49,3.81,2.03,5.78,7.3,26.59,7.25,53.15-.39,79.67-5.71,19.81-5.89,39.67-.08,59.44,4.73,16.1,6.46,32.48,5.57,49.17-.7,12.9-2.19,25.78-7.62,37.62-3.58,7.82-1.32,15.63-2.31,23.64,2.76,0,4.99-.09,7.22.02,6.67.33,13.19.07,19.24-3.33,1.67-.94,3.64-1.39,5.52-1.88,25.36-6.5,50.76-6.88,76.01.34,20.39,5.83,40.74,6.7,61.14.71,16.09-4.72,32.46-6.58,49.15-5.69,14.59.78,28.91,2.91,42.25,9.37.43.21.91.42,1.37.42,5.93.03,11.85.02,18.19.02Z" fill="#fff"/>
      <path d="m149.92,270.06c-35.91,0-71.81,0-107.72,0-8.59,0-12.27-3.69-12.27-12.31,0-71.81,0-143.62,0-215.43,0-8.44,3.72-12.19,12.08-12.2,71.91,0,143.82,0,215.72,0,8.38,0,12.13,3.76,12.13,12.15,0,71.81,0,143.62,0,215.43,0,8.62-3.69,12.35-12.23,12.35-35.91,0-71.81,0-107.72,0Zm109.78-10.14V40.32H40.16v219.6h219.55Z" fill="#fff"/>
    </g>
  </g>
</svg>