<?xml version="1.0" encoding="UTF-8"?>
<svg id="Layer_2" data-name="Layer 2" xmlns="http://www.w3.org/2000/svg" viewBox="0 0 300 300">
  <g id="_레이어_1" data-name="레이어 1">
    <g>
      <g>
        <circle cx="22.59" cy="89.77" r="6.95" fill="#fff"/>
        <circle cx="277.41" cy="89.77" r="6.95" fill="#fff"/>
        <circle cx="22.59" cy="232.24" r="6.95" fill="#fff"/>
        <circle cx="277.41" cy="232.24" r="6.95" fill="#fff"/>
        <path d="m296.53,68.34h-128.18c-.18-1.67-.48-3.29-.9-4.85-2.67-9.98-10-17.16-18.61-17.16-9.95,0-18.19,9.6-19.5,22.01H3.47c-1.92,0-3.47,1.56-3.47,3.47v178.38c0,1.92,1.56,3.47,3.47,3.47h293.05c1.92,0,3.47-1.56,3.47-3.47V71.81c0-1.92-1.56-3.47-3.47-3.47Zm-147.68-15.06c6.09,0,11.34,6.61,12.5,15.06h-25c1.16-8.45,6.41-15.06,12.5-15.06Zm144.21,193.44H6.95V75.29h286.1v171.43Z" fill="#fff"/>
      </g>
      <rect width="300" height="300" fill="none"/>
    </g>
  </g>
</svg>