<?xml version="1.0" encoding="UTF-8"?>
<svg id="Layer_2" data-name="Layer 2" xmlns="http://www.w3.org/2000/svg" viewBox="0 0 300 300">
  <g id="_레이어_1" data-name="레이어 1">
    <g id="_02틀_shape_02_0011" data-name=" 02틀 shape 02 0011">
      <rect id="_사각형_2737" data-name="사각형 2737" width="300" height="300" fill="none"/>
      <path d="m147.01,71.23c-7.39,0-14.2-3.71-18.19-9.94-1.04-1.63-.57-3.79,1.05-4.84,1.63-1.04,3.79-.57,4.84,1.05,2.7,4.21,7.3,6.72,12.31,6.72h5.95c8.08,0,14.66-6.58,14.66-14.66,0-.53-.03-1.06-.09-1.59l-2.46-20.6-.56.56c-4.36,4.36-8.35,11.01-10.92,18.25-.5,1.39-1.82,2.32-3.3,2.32h-.37c-1.51,0-2.86-.97-3.33-2.41-2.23-6.81-6.07-13.09-11.12-18.17l-.56-.56-2.46,20.64c-.1.89-.11,1.84-.04,2.77.15,1.93-1.28,3.61-3.21,3.77-1.92.16-3.61-1.28-3.77-3.21-.11-1.37-.09-2.76.06-4.12l3.32-27.83c.16-1.33,1.06-2.45,2.33-2.89,1.27-.44,2.67-.12,3.62.83l5.66,5.66c3.92,3.94,7.21,8.5,9.72,13.45,2.16-4.33,5.24-9.28,9.42-13.45l5.66-5.66c.95-.95,2.35-1.27,3.62-.83,1.27.44,2.17,1.56,2.33,2.89l3.32,27.79c.09.81.13,1.6.13,2.38,0,11.94-9.72,21.66-21.66,21.66h-5.95Z" fill="#fff"/>
      <path d="m138.65,29.68c-.9,0-1.79-.34-2.48-1.03-1.37-1.37-1.37-3.58,0-4.95l11.46-11.46c.66-.66,1.55-1.02,2.47-1.02h0c.93,0,1.82.37,2.48,1.03l11.35,11.35c1.37,1.37,1.37,3.58,0,4.95-1.37,1.37-3.58,1.37-4.95,0l-8.87-8.87-8.99,8.99c-.68.68-1.58,1.02-2.47,1.02Z" fill="#fff"/>
      <path d="m132.3,282.71c-.38,0-.77-.06-1.14-.19-1.27-.44-2.17-1.56-2.33-2.89l-3.32-27.8c-.15-1.4-.17-2.79-.06-4.16.16-1.93,1.85-3.36,3.77-3.21,1.93.16,3.36,1.84,3.21,3.77-.07.93-.06,1.87.04,2.8l2.46,20.61.56-.56c5.04-5.07,8.89-11.35,11.12-18.16.47-1.44,1.81-2.41,3.33-2.41h.37c1.48,0,2.8.93,3.3,2.32,2.58,7.23,6.56,13.88,10.92,18.25l.56.56,2.46-20.64c.05-.49.08-1.02.08-1.55,0-3.92-1.52-7.6-4.29-10.37s-6.45-4.29-10.37-4.29h-5.95c-5.01,0-9.61,2.51-12.31,6.72-1.04,1.63-3.21,2.1-4.84,1.05-1.63-1.04-2.1-3.21-1.05-4.84,4-6.22,10.8-9.94,18.19-9.94h5.95c11.94,0,21.66,9.72,21.66,21.66,0,.78-.04,1.57-.13,2.34l-3.32,27.83c-.16,1.33-1.06,2.45-2.33,2.89-1.27.44-2.67.11-3.62-.83l-5.66-5.66c-4.17-4.17-7.25-9.12-9.42-13.45-2.51,4.95-5.8,9.51-9.71,13.45l-5.66,5.67c-.67.67-1.56,1.03-2.48,1.03Z" fill="#fff"/>
      <path d="m150.11,287.79c-.9,0-1.79-.34-2.48-1.02l-11.46-11.46c-1.37-1.37-1.37-3.58,0-4.95,1.37-1.37,3.58-1.37,4.95,0l8.99,8.99,8.87-8.87c1.37-1.37,3.58-1.37,4.95,0,1.37,1.37,1.37,3.58,0,4.95l-11.35,11.35c-.68.68-1.58,1.02-2.48,1.02Z" fill="#fff"/>
      <path d="m272.38,74.35c-8.39,0-15.22-6.83-15.22-15.22,0-6.77,5.51-12.29,12.29-12.29,1.93,0,3.5,1.57,3.5,3.5s-1.57,3.5-3.5,3.5c-2.92,0-5.29,2.37-5.29,5.29,0,4.53,3.69,8.22,8.22,8.22,6.68,0,12.12-5.44,12.12-12.12,0-9.55-7.77-17.33-17.33-17.33h-33.86c-1.93,0-3.5-1.57-3.5-3.5s1.57-3.5,3.5-3.5h33.86c13.41,0,24.33,10.91,24.33,24.33,0,10.54-8.58,19.12-19.12,19.12Z" fill="#fff"/>
      <path d="m27.62,74.35c-10.54,0-19.12-8.58-19.12-19.12,0-13.41,10.91-24.33,24.33-24.33h33.86c1.93,0,3.5,1.57,3.5,3.5s-1.57,3.5-3.5,3.5h-33.86c-9.55,0-17.33,7.77-17.33,17.33,0,6.68,5.44,12.12,12.12,12.12,4.53,0,8.22-3.69,8.22-8.22,0-2.92-2.37-5.29-5.29-5.29-1.93,0-3.5-1.57-3.5-3.5s1.57-3.5,3.5-3.5c6.77,0,12.29,5.51,12.29,12.29,0,8.39-6.83,15.21-15.22,15.21Z" fill="#fff"/>
      <path d="m66.69,271.23h-33.86c-13.41,0-24.33-10.91-24.33-24.33,0-10.54,8.58-19.12,19.12-19.12,8.39,0,15.22,6.83,15.22,15.22,0,6.77-5.51,12.29-12.29,12.29-1.93,0-3.5-1.57-3.5-3.5s1.57-3.5,3.5-3.5c2.92,0,5.29-2.37,5.29-5.29,0-4.53-3.69-8.22-8.22-8.22-6.68,0-12.12,5.44-12.12,12.12,0,9.55,7.77,17.33,17.33,17.33h33.86c1.93,0,3.5,1.57,3.5,3.5s-1.57,3.5-3.5,3.5Z" fill="#fff"/>
      <path d="m32.82,146.21c-13.41,0-24.33-10.91-24.33-24.33v-37.49c0-1.93,1.57-3.5,3.5-3.5s3.5,1.57,3.5,3.5v37.49c0,9.55,7.77,17.33,17.33,17.33,1.93,0,3.5,1.57,3.5,3.5s-1.57,3.5-3.5,3.5Z" fill="#fff"/>
      <path d="m12,221.19c-1.93,0-3.5-1.57-3.5-3.5v-37.49c0-13.41,10.91-24.33,24.33-24.33,1.93,0,3.5,1.57,3.5,3.5s-1.57,3.5-3.5,3.5c-9.55,0-17.33,7.77-17.33,17.33v37.49c0,1.93-1.57,3.5-3.5,3.5Z" fill="#fff"/>
      <path d="m266.64,146.21h0c-1.93,0-3.5-1.57-3.5-3.5s1.57-3.5,3.5-3.5h0c4.63,0,8.98-1.8,12.25-5.07,3.27-3.27,5.08-7.62,5.08-12.25v-37.49c0-1.93,1.57-3.5,3.5-3.5s3.5,1.57,3.5,3.5v37.49c0,6.5-2.53,12.61-7.13,17.2-4.59,4.59-10.7,7.12-17.2,7.12Z" fill="#fff"/>
      <path d="m287.46,221.19c-1.93,0-3.5-1.57-3.5-3.5v-37.49c0-9.55-7.77-17.33-17.33-17.33-1.93,0-3.5-1.57-3.5-3.5s1.57-3.5,3.5-3.5c13.41,0,24.33,10.91,24.33,24.33v37.49c0,1.93-1.57,3.5-3.5,3.5Z" fill="#fff"/>
      <path d="m267.17,271.23h-33.86c-1.93,0-3.5-1.57-3.5-3.5s1.57-3.5,3.5-3.5h33.86c9.55,0,17.33-7.77,17.33-17.33,0-6.68-5.44-12.12-12.12-12.12-4.53,0-8.22,3.69-8.22,8.22,0,2.92,2.37,5.29,5.29,5.29,1.93,0,3.5,1.57,3.5,3.5s-1.57,3.5-3.5,3.5c-6.77,0-12.29-5.51-12.29-12.29,0-8.39,6.83-15.22,15.22-15.22,10.54,0,19.12,8.58,19.12,19.12,0,13.41-10.91,24.33-24.33,24.33Z" fill="#fff"/>
      <g id="_패스_394" data-name="패스 394">
        <path d="m226.03,277.95l-41.23-41.24c-2.01,11.17-2.8,21.26,8.59,32.65,11.39,11.39,20.83,9.95,32.65,8.59Z" fill="none"/>
        <path d="m209.46,271.28l-18.18-18.18c.97,3.71,3.08,7.35,7.05,11.32,4.08,4.08,7.62,6.02,11.13,6.87m5.46,7.58c-7.17,0-13.92-1.88-21.54-9.5-11.39-11.39-10.59-21.48-8.59-32.65l41.24,41.24c-3.91.45-7.56.91-11.11.91Z" fill="#fff"/>
      </g>
      <g id="_패스_395" data-name="패스 395">
        <path d="m73.96,277.95l41.24-41.24c2.01,11.17,2.8,21.26-8.59,32.65s-20.84,9.95-32.65,8.59Z" fill="none"/>
        <path d="m90.53,271.28c3.51-.84,7.05-2.78,11.13-6.87,3.97-3.97,6.08-7.61,7.05-11.32l-18.18,18.18m-5.46,7.58c-3.55,0-7.2-.46-11.11-.91l41.24-41.24c2.01,11.17,2.8,21.26-8.59,32.65-7.62,7.62-14.37,9.5-21.54,9.5Z" fill="#fff"/>
      </g>
      <g id="_패스_396" data-name="패스 396">
        <path d="m226.03,21.06l-41.23,41.24c-2.01-11.17-2.8-21.26,8.59-32.65,11.39-11.39,20.83-9.95,32.65-8.59Z" fill="none"/>
        <path d="m209.46,27.73c-3.51.84-7.05,2.78-11.13,6.87-3.97,3.97-6.08,7.61-7.05,11.32l18.18-18.18m5.46-7.58c3.55,0,7.2.46,11.11.91l-41.24,41.24c-2.01-11.17-2.8-21.26,8.59-32.65,7.62-7.62,14.37-9.5,21.54-9.5Z" fill="#fff"/>
      </g>
      <g id="_패스_397" data-name="패스 397">
        <path d="m73.96,21.06l41.24,41.24c2.01-11.17,2.8-21.26-8.59-32.65s-20.84-9.95-32.65-8.59Z" fill="none"/>
        <path d="m90.53,27.73l18.18,18.18c-.97-3.71-3.08-7.35-7.05-11.32-4.08-4.08-7.62-6.02-11.13-6.87m-5.46-7.58c7.17,0,13.92,1.88,21.54,9.5,11.39,11.39,10.59,21.48,8.59,32.65l-41.24-41.24c3.91-.45,7.56-.91,11.11-.91Z" fill="#fff"/>
      </g>
    </g>
  </g>
</svg>