<?xml version="1.0" encoding="UTF-8"?>
<svg id="Layer_2" data-name="Layer 2" xmlns="http://www.w3.org/2000/svg" viewBox="0 0 300 300">
  <g id="_레이어_1" data-name="레이어 1">
    <g id="_02틀_shape_02_0007" data-name=" 02틀 shape 02 0007">
      <rect id="_사각형_2735" data-name="사각형 2735" width="300" height="300" fill="none"/>
      <path d="m206.25,239.38h-112.5c-1.88,0-3.61-1.06-4.46-2.74l-42.77-84.38c-.72-1.42-.72-3.1,0-4.52l42.77-84.38c.85-1.68,2.58-2.74,4.46-2.74h112.5c1.88,0,3.61,1.06,4.46,2.74l42.77,84.38c.72,1.42.72,3.1,0,4.52l-42.77,84.38c-.85,1.68-2.58,2.74-4.46,2.74Zm-109.43-10h106.36l40.24-79.38-40.24-79.38h-106.36l-40.24,79.38,40.24,79.38Z" fill="#fff"/>
      <path d="m229.69,276.88H70.31c-1.89,0-3.61-1.06-4.46-2.75L4.33,152.25c-.72-1.42-.72-3.09,0-4.51L65.85,25.87c.85-1.68,2.58-2.75,4.46-2.75h159.38c1.89,0,3.61,1.06,4.46,2.75l61.52,121.88c.72,1.42.72,3.09,0,4.51l-61.52,121.88c-.85,1.68-2.58,2.75-4.46,2.75Zm-156.3-10h153.22l59-116.88-59-116.88H73.39L14.39,150l59,116.88Z" fill="#fff"/>
      <path d="m93.75,70.62h-42.19c-2.76,0-5-2.24-5-5s2.24-5,5-5h42.19c2.76,0,5,2.24,5,5s-2.24,5-5,5Z" fill="#fff"/>
      <path d="m249.03,155c-1.82,0-3.58-1-4.46-2.74l-61.76-121.88c-1.25-2.46-.26-5.47,2.2-6.72,2.46-1.25,5.47-.26,6.72,2.2l61.76,121.88c1.25,2.46.26,5.47-2.2,6.72-.72.37-1.5.54-2.26.54Z" fill="#fff"/>
      <path d="m29.9,197.03c-.76,0-1.53-.17-2.25-.54-2.46-1.25-3.45-4.25-2.21-6.72l63.85-126.4c1.24-2.46,4.25-3.45,6.72-2.21,2.46,1.25,3.45,4.25,2.21,6.72l-63.85,126.4c-.88,1.74-2.64,2.75-4.47,2.75Z" fill="#fff"/>
      <path d="m112.5,276.88c-1.83,0-3.59-1.01-4.47-2.76l-61.18-121.88c-1.24-2.47-.24-5.47,2.23-6.71,2.47-1.24,5.47-.24,6.71,2.23l61.18,121.88c1.24,2.47.24,5.47-2.23,6.71-.72.36-1.49.53-2.24.53Z" fill="#fff"/>
      <path d="m248.53,239.38h-42.28c-2.76,0-5-2.24-5-5s2.24-5,5-5h42.28c2.76,0,5,2.24,5,5s-2.24,5-5,5Z" fill="#fff"/>
      <path d="m206.25,239.37c-.76,0-1.53-.17-2.25-.54-2.46-1.25-3.45-4.26-2.2-6.72l63.87-126.15c1.25-2.46,4.26-3.45,6.72-2.2,2.46,1.25,3.45,4.26,2.2,6.72l-63.87,126.15c-.88,1.74-2.64,2.74-4.46,2.74Z" fill="#fff"/>
    </g>
  </g>
</svg>