<?xml version="1.0" encoding="UTF-8"?>
<svg id="Layer_2" data-name="Layer 2" xmlns="http://www.w3.org/2000/svg" viewBox="0 0 300 300">
  <g id="_레이어_1" data-name="레이어 1">
    <g>
      <g>
        <path d="m284.74,40.47v12.78c9.23,3.15,14.76,9.28,15.11,19.21.32,8.95-4.27,14.77-15.11,19.9v12.79c9.22,3.15,14.95,9.28,15.07,19.21.12,10.22-5.64,16.54-15.07,19.79v12.9c9.21,3.15,14.95,9.27,15.07,19.2.13,10.22-5.64,16.54-15.07,19.8v12.89c9.33,3.21,15.08,9.43,15.08,19.51,0,10.07-5.76,16.3-15.08,19.5v12.8c11.43,5.2,16.57,12.9,14.97,22.31-1.58,9.34-8.46,15.81-17.89,16.84-9.26,1.01-16.79-4.49-21.17-15.65-3.72,0-7.56-.06-11.39.06-.58.02-1.45.73-1.66,1.31-3.36,9.18-9.88,14.18-19.63,13.86-9.66-.32-15.57-6-18.56-15.11h-12.86c-.34.96-.64,1.91-1.01,2.83-2.99,7.47-10.25,12.38-18.29,12.38-8.07,0-15.34-4.83-18.16-12.46-.86-2.33-1.96-3.3-4.34-2.89-.49.09-1.02.07-1.52,0-4.98-.61-8.35.2-10.89,5.79-3.29,7.21-10.35,10.17-18.31,9.45-7.83-.71-13.32-5.03-16.48-12.25-.4-.92-.7-1.88-1.05-2.84h-12.91c-1.56,5.48-4.56,9.8-9.48,12.62-10.54,6.05-23.83,1.26-28.11-10.25-.73-1.97-1.6-2.63-3.66-2.55-4.55.17-9.12.05-13.57.05-4.7,10.88-12.13,15.88-21.46,14.63-8.93-1.2-15.93-8.31-17.1-17.37-1.24-9.58,4.07-17.35,15-21.81v-12.9c-9.73-3.39-15.59-10.08-14.98-20.83.52-9.35,6.1-15.17,14.98-18.12v-12.95c-9.84-3.44-15.71-10.23-14.96-21.11.63-9.19,6.18-14.94,14.96-17.82v-12.97C4.73,138.56-.04,132.26.09,123.11c.12-8.76,5.16-15.18,15.09-19.09v-12.98C6,87.92.29,81.78.18,71.84c-.12-10.22,5.66-16.53,15.07-19.77v-12.82C3.93,34.14-1.17,26.64.23,17.25,1.62,7.86,8.65,1.15,18.18.12c9.23-1,16.76,4.5,21.16,15.67,3.72,0,7.55.06,11.39-.06.58-.02,1.44-.73,1.66-1.31C55.74,5.23,62.26.24,72,.55c9.66.31,15.57,6,18.56,15.11h12.78c.62-1.52,1.1-3.08,1.87-4.47C109.26,3.83,115.54.02,123.92.54c8.24.51,14.09,4.9,17.07,12.63.82,2.12,1.79,2.94,3.91,2.63.6-.09,1.22-.07,1.83,0,4.95.57,8.36-.13,10.9-5.77,3.26-7.22,10.33-10.19,18.3-9.47,7.83.7,13.32,5.01,16.5,12.23.2.46.32.96.5,1.44.17.47.37.92.58,1.44h12.88c1.54-5.46,4.54-9.78,9.44-12.61,10.52-6.08,23.84-1.3,28.14,10.19.71,1.91,1.5,2.69,3.63,2.6,4.55-.19,9.12-.06,13.59-.06,4.88-10.97,12.06-15.83,21.44-14.64,8.78,1.11,15.73,8.01,17.11,17,1.47,9.55-3.44,16.86-15,22.31ZM22.65,253.22c0,2.65,0,5.29,0,7.94-.01,4.28-.45,4.81-4.63,5.6-6.61,1.25-11,6.73-10.6,13.23.38,6.19,5.53,11.34,11.64,11.65,6.41.32,11.48-3.88,12.64-10.73.48-2.83,1.86-4.05,4.69-4.02,7.01.07,14.02.08,21.02,0,2.88-.03,4.23,1.29,4.68,4.06,1.15,7.13,5.94,11.4,12.48,11.3,6.37-.09,11.06-4.49,12.07-11.44.36-2.48,1.54-3.9,4.16-3.89,6.2.01,12.39,0,18.59,0,2.43,0,3.68,1.23,4.06,3.62,1.16,7.28,5.71,11.63,12.16,11.71,6.49.09,11.3-4.16,12.5-11.33.47-2.82,1.81-4.07,4.66-4.03,5.79.08,11.58.1,17.37,0,3-.06,4.41,1.22,4.89,4.16,1.13,6.96,5.9,11.22,12.28,11.2,6.51-.02,11.25-4.43,12.3-11.55.37-2.54,1.66-3.8,4.24-3.79,6.09.02,12.19.03,18.28,0,2.57-.01,3.91,1.2,4.3,3.73,1.1,7.2,5.74,11.56,12.24,11.61,6.39.04,11.24-4.23,12.32-11.14.49-3.14,2.06-4.31,5.15-4.23,5.38.13,10.77.03,16.15.04,4.48,0,5.01.45,5.63,4.88.71,5.1,3.41,8.67,8.25,10.38,6.91,2.44,14.23-1.72,16.05-8.95,1.77-7.04-2.89-13.97-10.29-15.29-4.03-.72-4.56-1.33-4.57-5.35-.01-5.49-.02-10.99,0-16.48.01-3.86.62-4.57,4.36-5.22,6.42-1.12,10.87-6.19,10.89-12.4.02-6.34-4.48-11.52-11.11-12.45-3.03-.42-4.2-1.91-4.16-4.86.08-5.8.08-11.6,0-17.4-.04-2.96,1.18-4.39,4.2-4.83,6.66-.97,11.12-6.15,11.08-12.48-.04-6.34-4.52-11.39-11.23-12.35-2.86-.41-4.07-1.84-4.04-4.66.05-5.59,0-11.19.02-16.79,0-4.31.44-4.84,4.6-5.63,6.38-1.21,10.74-6.37,10.65-12.6-.09-6.23-4.57-11.31-11.05-12.19-3-.41-4.26-1.83-4.23-4.81.07-5.7,0-11.39.03-17.09.01-3.8.6-4.47,4.42-5.17,6.43-1.18,10.84-6.25,10.83-12.46,0-6.36-4.5-11.46-11.17-12.39-3.05-.42-4.15-2-4.11-4.92.08-5.29.02-10.58.02-15.87,0-5.18.1-5.3,5.14-6.42,6.41-1.42,10.6-6.96,10.09-13.32-.48-6.06-5.56-11.09-11.55-11.42-6.43-.36-11.61,3.84-12.72,10.63-.49,3.01-1.97,4.16-4.91,4.13-6.8-.08-13.61-.01-20.42-.03-3.7-.01-4.52-.77-5.12-4.54-1.02-6.47-6.02-10.84-12.34-10.79-6.29.05-11.26,4.56-12.16,11.03-.48,3.47-1.39,4.29-4.98,4.3-5.59.03-11.17.02-16.76,0-3.84-.01-4.17-.74-5.25-4.4-.82-2.8-2.22-5.75-4.21-7.82-3.27-3.4-7.7-4.01-12.15-2.38-4.43,1.62-7.13,4.86-7.99,9.57-.86,4.69-1.27,5.03-5.91,5.03-5.38,0-10.77-.1-16.15.04-3.16.08-4.56-1.31-5.03-4.36-1.06-6.82-6.01-11.1-12.43-11.01-6.37.09-11.13,4.53-12.09,11.43-.35,2.5-1.53,3.91-4.13,3.9-6.2,0-12.39,0-18.59,0-2.44,0-3.7-1.24-4.09-3.61-1.21-7.35-5.67-11.63-12.14-11.72-6.52-.09-11.27,4.14-12.48,11.32-.47,2.78-1.81,4.09-4.68,4.04-5.79-.08-11.58-.08-17.37,0-2.95.04-4.6-1.08-4.79-4.17-.08-1.3-.38-2.63-.83-3.85-2.04-5.58-7.91-8.88-13.64-7.76-5.97,1.16-10.25,6.3-10.26,12.3-.01,6.25,4.42,11.36,10.8,12.46,3.81.66,4.44,1.36,4.45,5.14.02,5.7-.05,11.39.03,17.09.04,2.96-1.18,4.4-4.2,4.83-6.64.94-11.11,6.12-11.08,12.48.03,6.34,4.51,11.4,11.22,12.36,2.86.41,4.08,1.82,4.05,4.64-.05,5.8-.08,11.6.01,17.4.05,3.08-1.13,4.6-4.31,5.04-6.6.93-11.05,6.21-10.97,12.57.08,6.22,4.56,11.21,11.02,12.26,3.46.56,4.21,1.44,4.23,5.05.02,5.6.02,11.19,0,16.79-.01,3.8-.63,4.51-4.41,5.18-6.43,1.14-10.84,6.2-10.84,12.43,0,6.37,4.47,11.5,11.14,12.42,3.04.42,4.18,1.96,4.14,4.89-.07,5.8-.07,11.6,0,17.4.04,2.98-1.23,4.36-4.23,4.8-6.65.97-11.09,6.16-11.04,12.51.05,6.35,4.52,11.36,11.25,12.32,2.87.41,4.08,1.87,4.02,4.68-.06,2.95-.01,5.9-.01,8.85Z" fill="#fff"/>
        <path d="m39.72,149.78c0-32.14,0-64.28,0-96.42,0-9.59,4.86-14.47,14.39-14.48,63.97,0,127.94,0,191.91,0,9.33,0,14.25,4.94,14.26,14.31,0,64.58,0,129.16,0,193.75,0,9.15-5,14.18-14.09,14.18-64.17,0-128.35,0-192.52,0-8.89,0-13.94-5.07-13.94-14.01,0-32.44,0-64.89,0-97.33Zm7.31.05c0,32.25,0,64.5,0,96.75,0,5.63,1.61,7.22,7.26,7.22,63.78,0,127.57,0,191.35,0,5.68,0,7.32-1.6,7.32-7.18,0-64.4,0-128.79,0-193.19,0-5.62-1.62-7.22-7.27-7.22-63.78,0-127.57,0-191.35,0-5.78,0-7.31,1.57-7.31,7.48,0,32.05,0,64.09,0,96.14Z" fill="#fff"/>
      </g>
      <path d="m243.5,247.66H58.5c-1.66,0-3-1.35-3-3V57.35c0-1.66,1.34-3,3-3h185c1.66,0,3,1.35,3,3v187.3c0,1.66-1.34,3-3,3Zm-182-6.01h179V60.36H61.5v181.29Z" fill="#fff"/>
    </g>
  </g>
</svg>