<?xml version="1.0" encoding="UTF-8"?>
<svg id="Layer_2" data-name="Layer 2" xmlns="http://www.w3.org/2000/svg" viewBox="0 0 300 300">
  <g id="_레이어_1" data-name="레이어 1">
    <g>
      <path d="m7.95,120.06c-4.39,0-7.95,3.56-7.95,7.95s3.56,7.95,7.95,7.95c1.07,0,2.08-.21,3.01-.59,1.37,3.6,4.83,6.16,8.91,6.16,5.27,0,9.54-4.27,9.54-9.54,0-4.72-3.44-8.64-7.95-9.39v-40.02c4.51-.76,7.95-4.67,7.95-9.39,0-5.27-4.27-9.54-9.54-9.54-4.08,0-7.54,2.56-8.91,6.16-.93-.38-1.95-.59-3.01-.59-4.39,0-7.95,3.56-7.95,7.95s3.56,7.95,7.95,7.95c.27,0,.53-.01.79-.04v35.05c-.26-.03-.53-.04-.79-.04Z" fill="#fff"/>
      <path d="m18.45,230.21c.93.38,1.95.59,3.01.59,4.39,0,7.95-3.56,7.95-7.95s-3.56-7.95-7.95-7.95c-.27,0-.53.01-.79.04v-35.05c.26.03.53.04.79.04,4.39,0,7.95-3.56,7.95-7.95s-3.56-7.95-7.95-7.95c-1.07,0-2.08.21-3.01.59-1.37-3.6-4.83-6.16-8.91-6.16-5.27,0-9.54,4.27-9.54,9.54,0,4.72,3.44,8.64,7.95,9.39v40.02c-4.51.76-7.95,4.67-7.95,9.39,0,5.27,4.27,9.54,9.54,9.54,4.08,0,7.54-2.56,8.91-6.16Z" fill="#fff"/>
      <path d="m292.05,120.06c-.27,0-.53.01-.79.04v-35.05c.26.03.53.04.79.04,4.39,0,7.95-3.56,7.95-7.95s-3.56-7.95-7.95-7.95c-1.07,0-2.08.21-3.01.59-1.37-3.6-4.83-6.16-8.91-6.16-5.27,0-9.54,4.27-9.54,9.54,0,4.72,3.44,8.64,7.95,9.39v40.02c-4.51.76-7.95,4.67-7.95,9.39,0,5.27,4.27,9.54,9.54,9.54,4.08,0,7.54-2.56,8.91-6.16.93.38,1.95.59,3.01.59,4.39,0,7.95-3.56,7.95-7.95s-3.56-7.95-7.95-7.95Z" fill="#fff"/>
      <path d="m300,168.02c0-5.27-4.27-9.54-9.54-9.54-4.08,0-7.54,2.56-8.91,6.16-.93-.38-1.95-.59-3.01-.59-4.39,0-7.95,3.56-7.95,7.95s3.56,7.95,7.95,7.95c.27,0,.53-.01.79-.04v35.05c-.26-.03-.53-.04-.79-.04-4.39,0-7.95,3.56-7.95,7.95s3.56,7.95,7.95,7.95c1.07,0,2.08-.21,3.01-.59,1.37,3.6,4.83,6.16,8.91,6.16,5.27,0,9.54-4.27,9.54-9.54,0-4.72-3.44-8.64-7.95-9.39v-40.02c4.51-.76,7.95-4.67,7.95-9.39Z" fill="#fff"/>
      <path d="m230.21,10.96c.38-.93.59-1.95.59-3.01,0-4.39-3.56-7.95-7.95-7.95s-7.95,3.56-7.95,7.95c0,.27.01.53.04.79h-35.05c.03-.26.04-.53.04-.79,0-4.39-3.56-7.95-7.95-7.95s-7.95,3.56-7.95,7.95c0,1.07.21,2.08.59,3.01-3.6,1.37-6.16,4.83-6.16,8.91,0,5.27,4.27,9.54,9.54,9.54,4.72,0,8.64-3.44,9.39-7.95h40.02c.76,4.51,4.67,7.95,9.39,7.95,5.27,0,9.54-4.27,9.54-9.54,0-4.08-2.56-7.54-6.16-8.91Z" fill="#fff"/>
      <path d="m131.98,0c-4.72,0-8.64,3.44-9.39,7.95h-40.02c-.76-4.51-4.67-7.95-9.39-7.95-5.27,0-9.54,4.27-9.54,9.54,0,4.08,2.56,7.54,6.16,8.91-.38.93-.59,1.95-.59,3.01,0,4.39,3.56,7.95,7.95,7.95s7.95-3.56,7.95-7.95c0-.27-.01-.53-.04-.79h35.05c-.03.26-.04.53-.04.79,0,4.39,3.56,7.95,7.95,7.95s7.95-3.56,7.95-7.95c0-1.07-.21-2.08-.59-3.01,3.6-1.37,6.16-4.83,6.16-8.91,0-5.27-4.27-9.54-9.54-9.54Z" fill="#fff"/>
      <path d="m226.83,270.6c-4.72,0-8.64,3.44-9.39,7.95h-40.02c-.76-4.51-4.67-7.95-9.39-7.95-5.27,0-9.54,4.27-9.54,9.54,0,4.08,2.56,7.54,6.16,8.91-.38.93-.59,1.95-.59,3.01,0,4.39,3.56,7.95,7.95,7.95s7.95-3.56,7.95-7.95c0-.27-.01-.53-.04-.79h35.05c-.03.26-.04.53-.04.79,0,4.39,3.56,7.95,7.95,7.95s7.95-3.56,7.95-7.95c0-1.07-.21-2.08-.59-3.01,3.6-1.37,6.16-4.83,6.16-8.91,0-5.27-4.27-9.54-9.54-9.54Z" fill="#fff"/>
      <path d="m135.35,281.55c.38-.93.59-1.95.59-3.01,0-4.39-3.56-7.95-7.95-7.95s-7.95,3.56-7.95,7.95c0,.27.01.53.04.79h-35.05c.03-.26.04-.53.04-.79,0-4.39-3.56-7.95-7.95-7.95s-7.95,3.56-7.95,7.95c0,1.07.21,2.08.59,3.01-3.6,1.37-6.16,4.83-6.16,8.91,0,5.27,4.27,9.54,9.54,9.54,4.72,0,8.64-3.44,9.39-7.95h40.02c.76,4.51,4.67,7.95,9.39,7.95,5.27,0,9.54-4.27,9.54-9.54,0-4.08-2.56-7.54-6.16-8.91Z" fill="#fff"/>
      <circle cx="22.19" cy="273.32" r="11.98" fill="#fff"/>
      <circle cx="277.81" cy="273.32" r="11.98" fill="#fff"/>
      <circle cx="22.19" cy="26.68" r="11.98" fill="#fff"/>
      <circle cx="277.81" cy="26.68" r="11.98" fill="#fff"/>
    </g>
  </g>
</svg>