<?xml version="1.0" encoding="UTF-8"?>
<svg id="Layer_2" data-name="Layer 2" xmlns="http://www.w3.org/2000/svg" viewBox="0 0 300 300">
  <g id="_레이어_1" data-name="레이어 1">
    <g>
      <path d="m198.13,275.45c-.86-15.93-13.97-28.47-29.96-28.71-12.11-.18-24.22-.31-36.32.04-12.36.35-21.42,6.41-27.09,17.43-2.43,4.72-3.07,9.81-3.1,15.04-.04,6.92-.18,13.84-.28,20.75h26.37c2.58-.8,5.24-1.43,7.74-2.44,6.04-2.46,10.71-6.65,14.42-12.3.65.81,1.2,1.44,1.7,2.11,4.83,6.43,11.17,10.47,19.06,12.08.55.11,1.07.37,1.61.56h26.37c-.1-1.16-.27-2.31-.28-3.47-.08-7.03.15-14.07-.23-21.08Zm-69.75,15.06c-5.68,1.03-11.61.68-17.98.98.45-7.78-1.25-15.25,1.75-22.29,3.65-8.59,10.41-13.1,19.73-13.69,2.21-.14,4.44-.02,6.65-.02.12.22.25.45.37.67-5.1,5.06-10.21,10.12-15.25,15.11,2.06,2.16,3.99,4.18,6.2,6.49,5.09-5.2,10.04-10.26,15.07-15.41,4.15,11.38-4.27,25.94-16.55,28.16Zm60.7.72c-6.91-.46-14.26,1.29-21.22-1.84-8.05-3.62-12.6-9.89-13.31-18.75-.21-2.65-.03-5.33-.03-8.44,5.33,5.46,10.27,10.52,15.38,15.76,2.46-2.61,4.33-4.59,6.51-6.9-4.98-4.84-10.18-9.87-15.64-15.17,14.09-2.35,26.04,4.75,28.14,17.08.99,5.76.17,11.83.17,18.26Z" fill="#fff"/>
      <path d="m162.93,3.18c-4.8,2.13-7.48,4.71-12.93,11.43-.55-.68-1.1-1.31-1.6-1.98-4.82-6.44-11.16-10.49-19.06-12.08-.55-.11-1.07-.37-1.61-.56h-26.37c.1,1.16.27,2.31.28,3.47.08,7.12-.15,14.26.24,21.37.83,15.29,13.72,27.97,29.04,28.37,12.68.33,25.37.22,38.06.02,6.48-.1,12.35-2.4,17.65-6.65-1.85-2.32-3.58-4.5-5.43-6.81-6.02,4.72-12.76,5.25-20.51,4.55,5.58-5.44,10.76-10.49,15.54-15.14-2.21-2.44-4.09-4.51-6.43-7.1-5.06,5.18-10,10.24-15.25,15.61,0-3.21-.19-6.09.03-8.94.74-9.49,7.81-17.78,17.2-19.29,5.71-.91,11.6-.63,17.82-.91-.52,8.73,1.41,17.11-2.99,25.02,2.6,1.5,5,2.88,7.59,4.38.78-1.67,1.69-2.92,1.96-4.3.85-4.37,1.81-8.77,2.08-13.2.41-6.8.28-13.63.37-20.44h-26.37c-3.12,1.04-6.34,1.85-9.33,3.18Zm-17.43,34.14c-.26.16-.51.31-.77.47-2.45-2.57-4.89-5.15-7.36-7.71-2.43-2.53-4.89-5.03-7.58-7.79-2.14,2.3-3.99,4.28-6.11,6.54,4.99,4.83,10.19,9.86,15.7,15.18-16.05,3.15-28.71-6.99-28.92-22.44-.06-4.16,0-8.33,0-12.41,5.86,0,11.47-.64,16.88.14,10.38,1.5,17.44,9.8,18.14,20.28.17,2.57.03,5.16.03,7.74Z" fill="#fff"/>
      <path d="m291.09,141.15c-6.05-5.52-13.09-7.45-21.11-5.79-8.8,1.82-13.59,8.88-19.84,14.89,2.58,2.43,4.97,4.58,7.25,6.84,11.09,10.98,24.5,10.95,35.61-.07,2.25-2.23,4.66-4.29,7-6.44v-1.17c-2.97-2.76-5.92-5.53-8.91-8.26Zm-28.09,8.8c7.39-8.54,16.73-8.57,24.14-.2-4.02,7.44-16.8,10.15-24.14.2Z" fill="#fff"/>
      <path d="m29.19,164.79c9.28-1.58,14.25-8.84,20.7-15.07-2.18-2.02-4.31-3.63-6.01-5.61-10.57-12.35-27.18-12.64-38.15.08-1.68,1.94-3.81,3.49-5.73,5.21v.59c3.12,3.09,6.13,6.3,9.39,9.23,5.65,5.06,12.28,6.85,19.8,5.57Zm-16.45-14.89c7.49-8.53,16.77-8.52,24.15-.12-5.32,8.74-17.37,8.88-24.15.12Z" fill="#fff"/>
      <path d="m76.68,43.94c5.14.76,10.48.13,16.04.13,0-4.38.24-8.87-.05-13.32-.67-10.46-8.28-19.23-18.62-20.77-5.22-.77-10.66-.13-16.2-.13,0,4.22-.23,8.7.05,13.15.66,10.62,8.28,19.39,18.79,20.94Zm-9.89-25.46c10.26-1.84,18.17,5.94,17.1,16.83-9.86,2.45-18.71-6.27-17.1-16.83Z" fill="#fff"/>
      <path d="m227.99,9.54c-9.77.84-18.11,7.81-19.96,17.45-1.06,5.55-.5,11.42-.65,17.14,0,.1.27.21.51.39,3.82,0,7.72.07,11.62-.01,10.48-.22,19.7-7.19,21.83-17.45,1.17-5.63.89-11.57,1.27-17.59-5.31,0-10-.33-14.63.07Zm-11.64,25.98c-2.33-9.99,6.35-18.78,16.83-17.05,1.74,10.36-6.06,18.27-16.83,17.05Z" fill="#fff"/>
      <path d="m92.83,255.48c-4.32,0-8.22-.05-12.12.01-10.76.17-20.04,7.24-22.17,17.78-1.12,5.55-.79,11.39-1.13,17.33,4.71,0,8.81.18,12.88-.04,9.51-.5,16.44-5.1,20.5-13.72,3.21-6.82,1.81-14.09,2.03-21.37Zm-25.85,26.17c-2.59-9.76,6.1-18.65,16.91-17.09.99,11.05-6.12,18.14-16.91,17.09Z" fill="#fff"/>
      <path d="m223.81,256.11c-5.34-.86-10.86-.62-16.53-.88,0,4.99-.24,9.57.05,14.11.67,10.41,8.34,19.16,18.71,20.69,5.14.76,10.49.13,16.08.13,0-4.42.25-9-.05-13.55-.67-10.12-8.28-18.89-18.26-20.5Zm9.38,25.41c-10.31,1.78-18.19-5.99-17.07-17.01,10.98-1.28,18.74,6.57,17.07,17.01Z" fill="#fff"/>
      <path d="m275.63,20.94c-1.7-1.7-3.61-3.62-5.53-5.54-8.78,8.78-17.45,17.45-26.21,26.21,1.89,1.85,3.88,3.81,5.64,5.52,8.71-8.74,17.41-17.47,26.1-26.19Z" fill="#fff"/>
      <path d="m24.62,278.79c1.65,1.83,3.51,3.89,5.13,5.68,8.81-8.81,17.47-17.47,26.15-26.14-1.8-1.85-3.74-3.85-5.33-5.47-8.81,8.8-17.52,17.51-25.95,25.93Z" fill="#fff"/>
      <path d="m55.8,41.86c-8.8-8.82-17.5-17.54-25.88-25.95-1.83,1.66-3.88,3.52-5.7,5.17,8.78,8.78,17.44,17.45,26.1,26.11,1.87-1.82,3.87-3.77,5.48-5.34Z" fill="#fff"/>
      <path d="m244.06,258.3c8.74,8.72,17.46,17.41,25.84,25.75,1.91-1.65,4.01-3.48,5.91-5.12-8.82-8.83-17.49-17.49-26.23-26.24-1.82,1.86-3.78,3.84-5.52,5.61Z" fill="#fff"/>
      <rect x="25.5" y="54.5" width="8" height="67" fill="#fff"/>
      <rect x="266.5" y="54.5" width="8" height="67" fill="#fff"/>
      <rect x="25.5" y="178.5" width="8" height="67" fill="#fff"/>
      <rect x="266.5" y="178.5" width="8" height="67" fill="#fff"/>
    </g>
  </g>
</svg>