<?xml version="1.0" encoding="UTF-8"?>
<svg id="Layer_2" data-name="Layer 2" xmlns="http://www.w3.org/2000/svg" viewBox="0 0 300 300">
  <g id="_레이어_1" data-name="레이어 1">
    <g>
      <path d="m234.14,240.11c1.98,2.1,3.88,4.11,5.85,6.2,2.19-2.2,4.16-4.18,6.36-6.39-2.2-2.04-4.18-3.88-6-5.57-2.12,1.96-4.08,3.79-6.2,5.76Z" fill="#fff"/>
      <path d="m180.47,0H0v300h300V0h-119.53Zm109.86,158.55c-1.92-1.37-4.08-2.49-6.54-3.3-.64-.21-1.27-.45-2.09-.75,0-2.64-.07-5.26.05-7.87.03-.6.62-1.54,1.13-1.69,2.88-.84,5.34-2.05,7.45-3.56v17.17Zm0-148.87v117.6c-.64,2.03-1.71,3.88-3.45,5.47-1.53,1.4-3.42,2.42-5.11,3.59-11.73-67.31-50.72-106.61-117.76-118.04,1.22-4.57,4-7.15,10.06-8.62h116.26Zm-131.84,0c-1.76,2.44-3.06,5.3-3.91,8.58-2.66,0-5.28.09-7.89-.06-.65-.04-1.65-.71-1.84-1.3-.86-2.77-2.05-5.16-3.52-7.22h17.16Zm-33.17,0c6.68,1.64,9.82,4.52,10.41,9.24-30.64,3.6-57.31,15.51-79.18,37.69-21.78,22.09-34.77,48.34-38.17,80.02-2.32-1.77-4.25-2.91-5.77-4.46-1.43-1.45-2.35-3.09-2.93-4.85V9.68h115.64ZM9.68,141.37c1.37.97,2.86,1.79,4.46,2.41,3.12,1.2,4.44,2.6,3.8,5.8-.06.28-.05.6.01.88.7,3.08-.46,4.43-3.56,5.57-1.68.62-3.25,1.5-4.71,2.56v-17.22Zm0,32.4c1.36-5.56,4.09-8.5,8.48-9.65,12.65,65.85,50.27,106.53,118.12,117.8-1.4,1.85-2.59,3.86-4.2,5.46-1.45,1.45-3.09,2.36-4.86,2.93H9.68v-116.55Zm131.55,116.55c1.37-1.88,2.51-3.99,3.35-6.32.31-.86,1.32-1.99,2.1-2.07,2.59-.26,5.23-.1,7.77-.1,1.28,3.21,2.88,6.05,4.71,8.48h-17.92Zm32.8,0c-6.01-1.47-9.2-4.42-9.98-9.15,25.58-3,48.51-12.38,68.87-28.64-1.93-2.38-3.67-4.53-5.41-6.67-54.4,45.02-130.66,30.26-171.63-16.32-40.42-45.97-38.26-117.02,2.64-162.26,40.61-44.92,110.6-53.94,159.6-20,26.38,18.27,43.45,43.28,51.1,74.29,9.61,38.96,1.63,74.41-23.45,106.01,2.26,1.84,4.36,3.55,6.69,5.44,16.72-20.21,25.68-43.38,28.64-69.48,5.02,2.09,7.9,5.24,9.22,9.2v117.58h-116.29Z" fill="#fff"/>
    </g>
  </g>
</svg>