<?xml version="1.0" encoding="UTF-8"?>
<svg id="Layer_2" data-name="Layer 2" xmlns="http://www.w3.org/2000/svg" viewBox="0 0 300 300">
  <g id="_레이어_1" data-name="레이어 1">
    <g>
      <path d="m300,269.54c-2.33,5.08-6.36,6.66-11.81,6.53-11.32-.27-22.65-.07-33.98-.09-5.96,0-9.3-3.03-9.88-8.86-.52-5.26-5.37-9.86-10.61-9.87-17.38-.03-34.76-.09-52.14.07-3.37.03-6.8.71-10.08,1.56-6.28,1.62-11.02,5.16-13.38,11.53-1.31,3.52-4.14,5.43-7.9,5.53-3.77.1-6.84-1.64-8.13-5.14-3.08-8.34-9.71-11.54-17.7-12.89-2.77-.47-5.63-.63-8.45-.64-16.11-.06-32.22-.03-48.33-.03-6.77,0-11.18,3.93-11.95,10.62-.54,4.72-4.05,8.07-8.83,8.1-12.69.07-25.39.09-38.08,0-4.98-.04-8.66-3.8-8.69-8.81-.08-12.5-.08-25,0-37.5.03-4.74,3.48-8.24,8.21-8.72,7.03-.71,11.08-5.15,11.09-12.16,0-8.59.27-17.2-.11-25.78-.2-4.51-1.09-9.11-2.42-13.44-1.65-5.35-5.36-9.17-10.74-11.25-4.03-1.56-6.18-4.64-6.02-8.44.17-4.02,2.24-6.73,6.01-8.18,8.1-3.1,11.18-9.85,12.61-17.67.48-2.67.63-5.43.65-8.15.08-8.5.04-16.99.02-25.49-.01-5.74-4.56-10.73-10.2-11.25C3.08,78.54.04,75.27.03,69.19c-.02-11.82-.02-23.63,0-35.45.01-6.1,3.56-9.7,9.59-9.72,12.2-.03,24.41-.03,36.61,0,5.49.01,8.92,3.22,9.44,8.7.54,5.58,5.39,10.03,11.05,10.03,16.89.02,33.78.12,50.67-.08,3.95-.04,7.98-.76,11.8-1.78,5.93-1.59,10.39-5.15,12.63-11.17,1.36-3.65,4.2-5.63,8.1-5.66,3.9-.04,6.83,1.89,8.18,5.52,2.59,6.98,8,10.38,14.79,11.93,3.3.75,6.75,1.17,10.14,1.19,16.7.12,33.39.06,50.09.05,5.86,0,10.64-4.38,11.2-10.18.51-5.27,3.98-8.53,9.29-8.55,11.52-.04,23.05.18,34.56-.1,5.45-.13,9.47,1.45,11.8,6.53v42.19c-2.04,4.17-5.15,6.33-10,6.63-4.79.3-9.28,5.53-9.31,10.15-.07,9.74-.14,19.47.07,29.21.07,3.17.78,6.37,1.59,9.45,1.5,5.68,4.48,10.52,10.08,12.85,3.44,1.43,5.95,3.45,7.57,6.71v4.69c-1.48,2.66-3.15,5.04-6.27,6.11-4.8,1.65-8.35,5.02-9.93,9.71-1.54,4.56-2.75,9.41-2.99,14.19-.46,9.16-.16,18.35-.13,27.53.01,5.1,4.23,10.44,9.29,10.81,4.84.35,8,2.45,10.03,6.65v42.19ZM150.01,48.95c-10.76,9.7-23.73,11.61-37.44,11.43-15.03-.2-30.08-.15-45.11,0-9.97.09-17.66-4.12-23.69-11.77-1.79-2.27-2.96-5.69-5.26-6.74-2.59-1.18-6.13-.27-9.25-.27-3.12,0-6.25-.01-9.37.01-.74,0-1.47.14-2.28.22,0,6.29.07,12.34-.04,18.39-.04,1.98.53,2.95,2.41,3.91,10.91,5.53,17.06,14.21,16.98,26.8-.06,8.69.05,17.38-.03,26.08-.11,12.18-3.21,23.33-11.48,32.66-.11.12-.07.37-.09.55,7.9,9.69,11.4,19.1,11.56,31.74.11,9.28-.01,18.56.05,27.83.06,8.91-3.52,16.13-10.24,21.73-2.72,2.27-5.95,3.93-8.91,5.85v20.95h21.91c.35-.69.68-1.39,1.05-2.07,5.8-10.61,14.37-16.66,26.82-16.61,16.5.07,33.01-.2,49.5.13,5.88.12,11.96.86,17.54,2.63,5.54,1.75,10.55,5.15,16.12,8,9.05-8.08,20.6-10.77,33.06-10.75,16.5.03,33,.05,49.51-.01,6.75-.03,12.86,1.92,17.71,6.48,3.7,3.48,6.66,7.75,10.32,12.11h20.98v-21.23c-.58-.28-1.1-.52-1.62-.78-11.34-5.57-17.73-14.31-17.62-27.29.06-7.62-.09-15.24.05-22.85.08-4.38.23-8.8.89-13.12,1.33-8.65,4.84-16.4,10.9-22.94-9.32-10.32-12.06-22.62-11.86-35.9.11-7.32.17-14.65-.01-21.97-.34-13.44,5.88-22.64,17.73-28.42.66-.32,1.55-1.11,1.56-1.7.11-6.71.07-13.42.07-20.43-6.68,0-13.1.07-19.52-.05-1.9-.04-2.82.53-3.76,2.27-5.71,10.66-14.38,16.62-26.83,16.54-15.23-.09-30.47-.16-45.7.02-13.43.16-26.05-1.99-36.61-11.43Z" fill="#fff"/>
      <rect x="0" width="300" height="300" fill="none"/>
    </g>
  </g>
</svg>