<?xml version="1.0" encoding="UTF-8"?>
<svg id="Layer_2" data-name="Layer 2" xmlns="http://www.w3.org/2000/svg" viewBox="0 0 300 300">
  <g id="_레이어_1" data-name="레이어 1">
    <path d="m300,154.67c-1.54,4.9-3.08,9.81-4.65,14.7-.21.64-.61,1.22-.95,1.81-1.95,3.4-4.34,4.43-6.83,2.94-2.41-1.44-2.7-3.82-.89-7.15,11.34-20.79.28-45.43-22.86-50.49-4.57-1-9.4-.79-13.96-1.13,1.95,10.32,3.78,20.03,5.72,30.28,3.29,0,7.16,0,11.02,0,2.26,0,4.03.75,4.75,3.07.91,2.96-1.02,5.51-4.49,5.65-3.88.15-7.77.03-11.31.03-1.9,10.06-3.73,19.77-5.68,30.15,4.13-.26,8.57-.23,12.9-.9,3.22-.5,6.36-1.77,9.43-2.95,2.87-1.1,5.43-.53,6.51,1.81,1.09,2.39.04,4.71-2.81,6.17-5.76,2.94-11.94,4.14-18.33,4.48-.78.04-1.55.12-2.32.19-.05,0-.08.14-.13.22,20.75,21.01,14.83,49.52.3,63.2-15.09,14.21-41.94,17.9-61.87-1.91-.44,3.56-.68,7-1.32,10.36-5.77,30.03-40.73,44.58-66.06,27.53-2.77-1.86-3.54-4.41-2.03-6.66,1.5-2.23,3.85-2.5,6.69-.78.25.15.49.33.73.48,13.58,8.48,30.56,6.86,42.14-4.16,7.16-6.81,10.51-15.34,10.67-25.16.04-2.24,0-4.47,0-6.61-9.97,1.88-19.75,3.73-30,5.67,0,3.39.07,7.26-.02,11.13-.07,3.04-1.78,4.84-4.33,4.86-2.56.02-4.31-1.78-4.38-4.8-.1-3.88-.02-7.76-.02-11.2-10.14-1.91-19.86-3.74-29.85-5.62-.43,6.18-.32,12.61,2.01,18.84.27.73.6,1.44.84,2.18.85,2.64-.1,4.82-2.49,5.76-2.24.88-4.75.12-5.47-2.42-1.55-5.49-2.6-11.13-3.82-16.72-.18-.8-.14-1.65-.22-2.65-23.12,22.55-51.96,13.56-64.39-.53-13.88-15.73-15.8-42.29,2.89-60.82-3.47-.42-6.81-.61-10.07-1.26-18.16-3.62-31.46-17.44-34.54-35.71-.08-.45-.34-.88-.51-1.31,0-3.32,0-6.64,0-9.96.2-.84.45-1.68.6-2.53,1.02-5.73,3-11.1,6.21-15.97,1.42-2.15,3.8-2.72,5.86-1.59,2.05,1.13,2.78,3.5,1.75,5.84-.23.53-.58,1.01-.87,1.52-4.78,8.36-6.09,17.23-3.5,26.52,4.64,16.59,20.63,27.93,39.96,24.88-1.84-9.78-3.69-19.56-5.57-29.55-3.35,0-6.96.05-10.57-.01-3.49-.06-5.42-1.67-5.45-4.38-.02-2.75,1.89-4.34,5.39-4.37,3.69-.04,7.39,0,11.07,0,.7-5.21,1.15-10.16,2.07-15.03.93-4.93,2.31-9.77,3.54-14.83-7.78-.49-15.17-.14-22.2,3.18-2.73,1.29-5.07.38-6.17-1.99-1.08-2.31-.18-4.78,2.59-5.92,3.14-1.29,6.37-2.46,9.68-3.2,3.44-.76,7.02-.94,10.65-1.38-19.36-19.5-15.91-45.97-3.42-60.05,7-7.89,15.57-12.99,25.99-14.56,15.11-2.28,27.96,2.62,39.16,13.71,0-1.58-.03-2.44,0-3.3.66-17.95,11.76-33.5,28.44-39.64C138.3,1.5,141.55.86,144.73,0c3.52,0,7.03,0,10.55,0,.44.17.86.43,1.31.51,18.24,3.06,32.1,16.38,35.71,34.5.65,3.26.84,6.62,1.26,10.05,19.83-19.57,45.73-15.94,60.01-3.43,8.03,7.03,13.12,15.73,14.57,26.27,2.06,14.95-2.62,27.8-13.61,38.77,1.47.08,2.32.13,3.18.16,19.69.81,35.7,13.35,40.78,31.96.59,2.14,1.01,4.33,1.51,6.5v9.37Zm-246.1-4.61c.04,52.87,43.08,95.94,95.95,96.01,53.02.06,96.21-43.03,96.24-96.02.03-53.01-43.09-96.15-96.1-96.15-53.02,0-96.12,43.14-96.09,96.16Zm24.77-77.32c4.38-3.35,8.21-6.54,12.3-9.34,4.14-2.83,8.54-5.28,12.85-7.9-11.23-13.24-24.62-18.24-38.65-14.06-13.69,4.07-22.13,13.39-24.52,27.41-2.49,14.59,3.75,25.88,14.54,34.63,5.72-8.33,11.36-16.57,17.16-25.02-2.4-2.37-5.13-5.01-7.79-7.73-2.27-2.32-2.42-4.79-.53-6.7,1.9-1.91,4.39-1.79,6.69.5,2.7,2.68,5.3,5.46,7.95,8.2Zm142.92-.39c2.23-2.28,4.79-4.94,7.41-7.54,2.49-2.48,4.93-2.74,6.91-.84,2.06,1.98,1.81,4.51-.81,7.12-2.61,2.6-5.28,5.13-7.83,7.6,3.31,4.32,6.49,8.14,9.29,12.23,2.84,4.15,5.3,8.56,7.93,12.88,12-9.91,18.16-22.16,14.26-37.71-3.49-13.94-12.85-22.65-26.97-25.33-14.83-2.82-26.31,3.47-35.28,14.44,8.22,5.62,16.4,11.21,25.09,17.16Zm.04,155.24c-8.7,5.95-16.94,11.58-25.15,17.2,9.73,11.74,22.05,17.95,37.71,13.88,13.91-3.62,22.53-13.06,25.09-27.19,2.66-14.7-3.56-26.12-14.47-35-5.68,8.29-11.33,16.53-17.09,24.94-.13-.24-.07-.04.05.08,2.2,2.22,4.4,4.43,6.6,6.64,3.24,3.25,3.73,5.58,1.64,7.75-2.12,2.2-4.56,1.76-7.74-1.44-2.33-2.36-4.62-4.76-6.65-6.86Zm-166.45-31.15c-12.2,10.17-18.25,22.92-13.5,38.97,4.05,13.67,13.74,21.85,27.81,24.02,14.41,2.22,25.4-4.12,34.01-14.65-8.37-5.74-16.6-11.38-25.08-17.19-2.46,2.51-5.14,5.35-7.94,8.07-2.22,2.16-4.92,2.09-6.68.03-1.6-1.87-1.47-4.2.59-6.26,2.81-2.8,5.74-5.47,8.09-7.69-6.05-8.85-11.64-17.02-17.3-25.3ZM115.76,50.06c10.07-1.9,19.86-3.74,29.92-5.64,0-3.82-.12-7.92.04-12,.1-2.51,1.75-3.92,4.23-3.94,2.48-.02,4.02,1.37,4.32,3.88.15,1.25.11,2.53.11,3.8.01,2.98,0,5.95,0,8.27,10.33,1.96,20.03,3.8,29.83,5.66,1.27-14.41-2.5-27.02-15.23-35.41-11.98-7.91-24.67-8.18-36.94-.65-13.48,8.27-17.56,21.12-16.29,36.05Z" fill="#fff"/>
  </g>
</svg>