<?xml version="1.0" encoding="UTF-8"?>
<svg id="Layer_2" data-name="Layer 2" xmlns="http://www.w3.org/2000/svg" viewBox="0 0 300 300">
  <g id="_레이어_1" data-name="레이어 1">
    <g>
      <path d="m0,40.36c.21-.53.48-1.04.63-1.59,3.78-13.61,18.57-19.36,30.41-11.83.49.31.98.63,1.43.92,9.92-6.93,19.71-4.56,24.76.12,2.65,2.45,4.35,5.93,6.59,8.86.6.78,1.57,1.31,2.45,1.81.37.21.96.04,1.45.04,54.87,0,109.74-.01,164.61.05,2.34,0,3.47-.58,4.45-2.95,4.65-11.28,18.08-15.57,28.46-9.33.75.45,1.48.95,2.2,1.41,7.97-5.38,16.07-6.06,24.1-.51,8.53,5.89,10.99,17.53,5.65,26.55-1.2,2.02-1.06,3.26.07,5.2,6.17,10.67,1.46,24.21-9.96,28.72-1.91.75-2.39,1.72-2.39,3.66.05,39.03.05,78.05,0,117.08,0,1.9.38,2.93,2.34,3.69,11.76,4.6,16.26,18.5,9.61,29.47-.81,1.34-1.02,2.19-.14,3.65,5.22,8.62,4,18.78-2.88,25.49-6.82,6.65-16.96,7.44-25.31,1.98-.32-.21-.66-.4-1.09-.66-5.06,3.76-10.69,5.21-16.85,3.79-6.87-1.58-11.66-5.83-14.2-12.44-.67-1.75-1.52-2.15-3.19-2.15-55.45.03-110.91.03-166.36.02-1.4,0-2.41,0-3.13,1.78-5.25,12.95-18.79,17.13-30.38,9.51-.24-.16-.51-.28-.89-.49-4.19,3.13-8.91,4.6-14.21,4.21-7.67-.57-14.58-6.02-17.14-13.68-.34-1.01-.72-1.99-1.08-2.99,0-2.17,0-4.35,0-6.52,1.22-2.86,2.47-5.71,3.64-8.6.22-.54.31-1.31.1-1.82C2.55,239.91,1.26,237.08,0,234.24c0-2.17,0-4.35,0-6.52.32-.92.66-1.83.95-2.76,1.88-5.89,5.58-10.24,11.25-12.46,2.43-.95,2.88-2.21,2.88-4.53-.06-38.42-.08-76.84.04-115.26,0-2.9-.76-4.26-3.44-5.37-5.54-2.29-9.01-6.73-10.83-12.49-.26-.83-.56-1.65-.85-2.48,0-2.17,0-4.35,0-6.52,1.26-2.85,2.55-5.67,3.73-8.55.21-.51.13-1.29-.09-1.83C2.48,52.59,1.22,49.74,0,46.88c0-2.17,0-4.35,0-6.52Zm274.94,109.68c0-21.24,0-42.48,0-63.72,0-5.16,1.11-6.51,6.06-7.22,4.3-.62,7.2-2.93,8.47-7.11,1.32-4.34-.04-7.95-3.38-10.86-3.72-3.24-3.75-6.07-.09-9.28,4.96-4.36,5.4-11.02,1-15.34-4.26-4.19-10.8-3.65-14.97,1.22-3.02,3.53-6.04,3.57-9.05,0-2.97-3.51-6.63-4.84-10.99-3.47-4.28,1.34-6.44,4.55-6.98,8.96-.53,4.3-1.92,5.58-6.31,5.58-59.16.01-118.32.01-177.48,0-4.32,0-5.65-1.28-6.22-5.67-.57-4.41-2.79-7.6-7.06-8.9-4.24-1.29-7.86-.05-10.77,3.36-3.19,3.73-6.1,3.73-9.24.07-4.15-4.84-10.75-5.32-14.98-1.09-4.36,4.36-3.86,10.96,1.15,15.33,3.5,3.05,3.52,6.08,0,9.1-3.36,2.87-4.85,6.4-3.6,10.79,1.24,4.33,4.18,6.71,8.6,7.33,4.78.67,5.97,2.09,5.97,6.99,0,42.58,0,85.16,0,127.74,0,5.09-1.13,6.43-6.13,7.16-4.3.63-7.16,2.99-8.42,7.17-1.28,4.24.04,7.78,3.23,10.65,3.99,3.58,4.01,6.13,0,9.66-4.65,4.1-5.05,10.65-.9,14.94,4.09,4.22,10.81,3.93,14.81-.64,3.56-4.07,6.16-4.12,9.61-.15,2.86,3.29,6.43,4.49,10.54,3.29,4.27-1.25,6.57-4.4,7.18-8.81.65-4.73,1.85-5.81,6.68-5.81,58.87,0,117.74,0,176.6,0,4.99,0,6.01.96,6.78,6.03.65,4.28,2.93,7.34,7.08,8.57,4.12,1.22,7.7.07,10.56-3.21,3.62-4.15,6.07-4.17,9.53-.08,3.93,4.66,10.6,5.1,14.79.97,4.24-4.19,3.99-10.85-.56-14.97-4.22-3.81-4.23-6.13-.12-9.85,3.09-2.8,4.39-6.25,3.23-10.39-1.18-4.21-3.97-6.66-8.26-7.34-5.35-.85-6.33-2.03-6.33-7.57,0-21.14,0-42.28,0-63.42Z" fill="#fff"/>
      <rect width="300" height="300" fill="none"/>
    </g>
  </g>
</svg>