<?xml version="1.0" encoding="UTF-8"?>
<svg id="Layer_2" data-name="Layer 2" xmlns="http://www.w3.org/2000/svg" viewBox="0 0 300 300">
  <g id="_레이어_1" data-name="레이어 1">
    <g id="_02틀_shape_02_0005" data-name=" 02틀 shape 02 0005">
      <rect id="_사각형_2730" data-name="사각형 2730" width="300" height="300" fill="none"/>
      <path id="_패스_324" data-name="패스 324" d="m291.21,25H8.79C3.94,25,0,28.92,0,33.77c0,0,0,0,0,0v232.45c0,4.85,3.94,8.78,8.79,8.77h282.42c4.85,0,8.78-3.92,8.79-8.77h0V33.77c0-4.85-3.94-8.78-8.79-8.77,0,0,0,0,0,0ZM94.67,242.18v15.27h-29.49v-15.27h29.49Zm17.58,0h29.49v15.27h-29.49v-15.27Zm47.07,0h29.49v15.27h-29.49v-15.27Zm47.07,0h29.49v15.27h-29.49v-15.27Zm-188.81-17.55V75.37h264.84v149.27H17.58ZM206.38,57.82v-15.27h29.49v15.27h-29.49Zm-17.58,0h-29.49v-15.27h29.49v15.27Zm-47.07,0h-29.49v-15.27h29.49v15.27Zm-47.07,0h-29.49v-15.27h29.49v15.27Zm187.76,0h-28.97v-15.27h28.97v15.27Zm-234.82-15.27v15.27h-30.02v-15.27h30.02Zm-30.02,199.63h30.02v15.27h-30.02v-15.27Zm235.88,15.27v-15.27h28.97v15.27h-28.97Z" fill="#fff"/>
    </g>
  </g>
</svg>