<?xml version="1.0" encoding="UTF-8"?>
<svg id="Layer_2" data-name="Layer 2" xmlns="http://www.w3.org/2000/svg" viewBox="0 0 300 300">
  <g id="_레이어_1" data-name="레이어 1">
    <g id="_02틀_shape_02_0001" data-name=" 02틀 shape 02 0001">
      <rect id="_사각형_2728" data-name="사각형 2728" y="0" width="300" height="300" fill="none"/>
      <path id="_패스_297" data-name="패스 297" d="m268,0H31.75c-2.07,0-3.75,1.67-3.75,3.74h0v292.51c0,2.07,1.67,3.75,3.74,3.75h236.26c2.07,0,3.75-1.67,3.75-3.74h0V3.75c0-2.07-1.67-3.75-3.74-3.75,0,0,0,0,0,0Zm-9.05,7.5l-31.79,31.78H72.59L40.8,7.5h218.15Zm-33.98,39.28v206.43H74.79V46.79h150.18ZM35.5,12.8l31.79,31.79v210.82l-31.79,31.79V12.8Zm5.31,279.7l31.78-31.79h154.57l31.78,31.79H40.81Zm223.44-5.3l-31.79-31.79V44.59l31.79-31.79v274.4Z" fill="#fff"/>
    </g>
  </g>
</svg>