<?xml version="1.0" encoding="UTF-8"?>
<svg id="Layer_2" data-name="Layer 2" xmlns="http://www.w3.org/2000/svg" viewBox="0 0 300 300">
  <g id="_레이어_1" data-name="레이어 1">
    <g id="_02틀_shape_02_0004" data-name=" 02틀 shape 02 0004">
      <path id="_패스_353" data-name="패스 353" d="m280,0H20C8.96,0,0,8.96,0,20v260c0,11.04,8.96,20,20,20h260c11.04,0,20-8.96,20-20V20c0-11.04-8.96-20-20-20Zm-24,263H12v25h244v-25Zm32,25V49h-20v239h20ZM12,251h20V12H12v239ZM44,49v202h212V49H44Zm0-37v25h244V12H44Z" fill="#fff" fill-rule="evenodd"/>
    </g>
  </g>
</svg>