<?xml version="1.0" encoding="UTF-8"?>
<svg id="Layer_2" data-name="Layer 2" xmlns="http://www.w3.org/2000/svg" viewBox="0 0 300 300">
  <g id="_레이어_1" data-name="레이어 1">
    <g>
      <path d="m249.06,300H50.94c-1.86,0-3.38-1.51-3.38-3.38V101.88c0-.08,0-.16,0-.24C48,45.57,93.91,0,150,0s102,45.57,102.43,101.63c0,.08,0,.16,0,.24v194.75c0,1.87-1.51,3.38-3.38,3.38Zm-194.75-6.75h191.37V102.1c0-.07,0-.13,0-.2-.29-52.46-43.21-95.14-95.68-95.14S54.61,49.43,54.32,101.89c0,.07,0,.14,0,.2v191.15Z" fill="#fff"/>
      <rect width="300" height="300" fill="none"/>
    </g>
  </g>
</svg>