<?xml version="1.0" encoding="UTF-8"?>
<svg id="Layer_2" data-name="Layer 2" xmlns="http://www.w3.org/2000/svg" viewBox="0 0 300 300">
  <g id="_레이어_1" data-name="레이어 1">
    <g id="_02틀_shape_02_0003" data-name=" 02틀 shape 02 0003">
      <path id="_패스_339" data-name="패스 339" d="m23.63,16.81h252.75c.63,0,1.25.1,1.85.29L295.14,0H4.97l16.76,17.11c.61-.2,1.25-.3,1.9-.3h0Z" fill="#fff"/>
      <path id="_패스_340" data-name="패스 340" d="m23.63,23.57c-.05,0-.09.05-.09.1v252.68c0,.05.04.1.09.1h252.75c.05,0,.09-.05.09-.1V23.67c0-.05-.04-.1-.09-.1H23.63Zm237.89,226.8c0,5.82-4.46,10.54-9.97,10.55H48.45c-5.5,0-9.96-4.73-9.97-10.55V49.64c0-5.82,4.46-10.54,9.97-10.55h203.11c5.5,0,9.96,4.73,9.97,10.55v200.73Z" fill="#fff"/>
      <path id="_패스_341" data-name="패스 341" d="m276.37,283.2H23.63c-.66,0-1.32-.11-1.95-.32l-17.64,17.13h291.44l-16.98-17.19c-.68.25-1.4.39-2.12.39h0Z" fill="#fff"/>
      <path id="_패스_342" data-name="패스 342" d="m282.85,23.67v252.68c0,.47-.04.93-.13,1.39l17.28,17.51V4.43l-17.36,17.55c.14.55.2,1.12.21,1.69Z" fill="#fff"/>
      <path id="_패스_343" data-name="패스 343" d="m17.15,276.34V23.67c0-.55.07-1.1.2-1.64L0,4.32v290.44l17.33-16.83c-.12-.52-.18-1.05-.18-1.58h0Z" fill="#fff"/>
    </g>
  </g>
</svg>