<?xml version="1.0" encoding="UTF-8"?>
<svg id="Layer_2" data-name="Layer 2" xmlns="http://www.w3.org/2000/svg" viewBox="0 0 300 300">
  <g id="_레이어_1" data-name="레이어 1">
    <path d="m285.29,249h-6.29V51h6.29c8.11,0,14.71-6.73,14.71-15s-6.6-15-14.71-15h-6.29v-6.29c0-8.11-6.73-14.71-15-14.71s-15,6.6-15,14.71v6.29H51v-6.29c0-8.11-6.73-14.71-15-14.71s-15,6.6-15,14.71v6.29h-6.29c-8.11,0-14.71,6.73-14.71,15s6.6,15,14.71,15h6.29v198h-6.29c-8.11,0-14.71,6.73-14.71,15s6.6,15,14.71,15h6.29v6.29c0,8.11,6.73,14.71,15,14.71s15-6.6,15-14.71v-6.29h198v6.29c0,8.11,6.73,14.71,15,14.71s15-6.6,15-14.71v-6.29h6.29c8.11,0,14.71-6.73,14.71-15s-6.6-15-14.71-15Zm-12.29,0h-18V51h18v198Zm0,6v18h-18v-18h18Zm-24-6H51V51h198v198Zm6-204v-18h18v18h-18Zm30.29-18c4.87,0,8.82,4.04,8.82,9s-3.96,9-8.82,9h-6.29v-18h6.29Zm-30.29-12.29c0-4.87,4.04-8.82,9-8.82s9,3.96,9,8.82v6.29h-18v-6.29Zm-6,12.29v18H51v-18h198ZM45,45h-18v-18h18v18ZM27,14.71c0-4.87,4.04-8.82,9-8.82s9,3.96,9,8.82v6.29h-18v-6.29Zm-12.29,30.29c-4.87,0-8.82-4.04-8.82-9s3.96-9,8.82-9h6.29v18h-6.29Zm12.29,6h18v198h-18V51Zm18,204v18h-18v-18h18Zm-30.29,18c-4.87,0-8.82-4.04-8.82-9s3.96-9,8.82-9h6.29v18h-6.29Zm30.29,12.29c0,4.87-4.04,8.82-9,8.82s-9-3.96-9-8.82v-6.29h18v6.29Zm6-12.29v-18h198v18H51Zm222,12.29c0,4.87-4.04,8.82-9,8.82s-9-3.96-9-8.82v-6.29h18v6.29Zm12.29-12.29h-6.29v-18h6.29c4.87,0,8.82,4.04,8.82,9s-3.96,9-8.82,9Z" fill="#fff"/>
  </g>
</svg>