<?xml version="1.0" encoding="UTF-8"?>
<svg id="Layer_2" data-name="Layer 2" xmlns="http://www.w3.org/2000/svg" viewBox="0 0 300 300">
  <g id="_레이어_1" data-name="레이어 1">
    <g>
      <path d="m150,0C67.29,0,0,67.29,0,150s67.29,150,150,150,150-67.29,150-150S232.71,0,150,0Zm0,291.89c-78.24,0-141.89-63.65-141.89-141.89S71.76,8.11,150,8.11s141.89,63.65,141.89,141.89-63.65,141.89-141.89,141.89Z" fill="#fff"/>
      <path d="m150,18.24c-72.65,0-131.76,59.11-131.76,131.76s59.11,131.76,131.76,131.76,131.76-59.11,131.76-131.76S222.65,18.24,150,18.24Zm0,259.46c-70.42,0-127.7-57.29-127.7-127.7S79.58,22.3,150,22.3s127.7,57.29,127.7,127.7-57.29,127.7-127.7,127.7Z" fill="#fff"/>
    </g>
  </g>
</svg>