<?xml version="1.0" encoding="UTF-8"?>
<svg id="Layer_2" data-name="Layer 2" xmlns="http://www.w3.org/2000/svg" viewBox="0 0 300 300">
  <g id="_레이어_1" data-name="레이어 1">
    <path d="m296.83,269.37h-20.6V30.63h19.54c1.75,0,3.17-1.42,3.17-3.17V4.23c0-1.75-1.42-3.17-3.17-3.17h-23.24c-1.75,0-3.17,1.42-3.17,3.17v19.54H29.58V3.17c0-1.75-1.42-3.17-3.17-3.17H3.17C1.42,0,0,1.42,0,3.17v23.24c0,1.75,1.42,3.17,3.17,3.17h20.6v240.85H3.17c-1.75,0-3.17,1.42-3.17,3.17v23.24c0,1.75,1.42,3.17,3.17,3.17h23.24c1.75,0,3.17-1.42,3.17-3.17v-20.6h240.85v19.54c0,1.75,1.42,3.17,3.17,3.17h23.24c1.75,0,3.17-1.42,3.17-3.17v-23.24c0-1.75-1.42-3.17-3.17-3.17ZM275.7,7.39h16.9v16.9h-16.9V7.39ZM23.24,23.24H6.34V6.34h16.9v16.9Zm0,270.42H6.34v-16.9h16.9v16.9Zm246.65-23.77H30.11V30.11h239.79v239.79Zm23.77,22.71h-16.9v-16.9h16.9v16.9Z" fill="#fff"/>
  </g>
</svg>