<?xml version="1.0" encoding="UTF-8"?>
<svg id="Layer_2" data-name="Layer 2" xmlns="http://www.w3.org/2000/svg" viewBox="0 0 300 300">
  <g id="_레이어_1" data-name="레이어 1">
    <g>
      <g>
        <path d="m194.46,23.5c-3.78-2.18-8.29-2.18-12.07,0l-19.13,11.03c-3.43-3.34-8.11-5.41-13.26-5.41s-10.06,2.16-13.51,5.64l-17.9-10.32c-3.78-2.18-8.29-2.18-12.07,0-3.78,2.18-6.03,6.08-6.03,10.44v26.86c0,4.36,2.26,8.26,6.03,10.44,1.89,1.09,3.96,1.63,6.03,1.63s4.15-.54,6.03-1.63l18.15-10.47c3.43,3.34,8.11,5.41,13.26,5.41,5.64,0,10.7-2.48,14.18-6.38l18.21,10.5c1.89,1.09,3.96,1.63,6.03,1.63s4.15-.54,6.03-1.63c3.78-2.18,6.03-6.08,6.03-10.44v-26.86c0-4.36-2.26-8.26-6.03-10.44Zm-80.88,40.03c-.89.52-1.67.22-2.06,0-.38-.22-1.03-.75-1.03-1.78v-26.86c0-1.03.64-1.56,1.03-1.78.23-.13.59-.29,1.03-.29.31,0,.66.08,1.02.29l18,10.38c-.38,1.49-.6,3.04-.6,4.64,0,1.72.25,3.39.68,4.97l-18.08,10.43Zm41.55-8.01c-1.46,1.01-3.22,1.61-5.12,1.61-1.36,0-2.65-.31-3.81-.86-3.07-1.44-5.2-4.54-5.2-8.14s1.97-6.46,4.84-7.97c1.25-.65,2.67-1.03,4.17-1.03,1.36,0,2.65.31,3.81.86,3.07,1.44,5.2,4.54,5.2,8.14,0,3.06-1.54,5.77-3.89,7.39Zm35.36,5.28c0,1.03-.64,1.56-1.03,1.78-.38.22-1.16.52-2.06,0l-18.73-10.8c.23-1.18.36-2.4.36-3.65,0-1.72-.25-3.39-.68-4.98l19.06-10.99c.89-.51,1.67-.22,2.06,0,.38.22,1.03.75,1.03,1.78v26.86Z" fill="#fff"/>
        <path d="m294.99,253.13c-2.76,0-5.01,2.24-5.01,5v10h-10.01c-2.76,0-5.01,2.24-5.01,5s2.24,5,5.01,5h15.02c2.76,0,5.01-2.24,5.01-5v-15c0-2.76-2.24-5-5.01-5Z" fill="#fff"/>
        <path d="m193.33,268.13h-28.88c-2.76,0-5.01,2.24-5.01,5s2.24,5,5.01,5h28.88c2.76,0,5.01-2.24,5.01-5s-2.24-5-5.01-5Z" fill="#fff"/>
        <path d="m251.09,268.13h-28.88c-2.76,0-5.01,2.24-5.01,5s2.24,5,5.01,5h28.88c2.76,0,5.01-2.24,5.01-5s-2.24-5-5.01-5Z" fill="#fff"/>
        <path d="m77.79,268.13h-28.88c-2.76,0-5.01,2.24-5.01,5s2.24,5,5.01,5h28.88c2.76,0,5.01-2.24,5.01-5s-2.24-5-5.01-5Z" fill="#fff"/>
        <path d="m135.56,268.13h-28.88c-2.76,0-5.01,2.24-5.01,5s2.24,5,5.01,5h28.88c2.76,0,5.01-2.24,5.01-5s-2.24-5-5.01-5Z" fill="#fff"/>
        <path d="m20.02,268.13h-10.01v-10c0-2.76-2.24-5-5.01-5s-5.01,2.24-5.01,5v15c0,2.76,2.24,5,5.01,5h15.02c2.76,0,5.01-2.24,5.01-5s-2.24-5-5.01-5Z" fill="#fff"/>
        <path d="m5.01,124.56c2.76,0,5.01-2.24,5.01-5v-27.71c0-2.76-2.24-5-5.01-5s-5.01,2.24-5.01,5v27.71c0,2.76,2.24,5,5.01,5Z" fill="#fff"/>
        <path d="m5.01,179.99c2.76,0,5.01-2.24,5.01-5v-27.71c0-2.76-2.24-5-5.01-5s-5.01,2.24-5.01,5v27.71c0,2.76,2.24,5,5.01,5Z" fill="#fff"/>
        <path d="m5.01,235.42c2.76,0,5.01-2.24,5.01-5v-27.71c0-2.76-2.24-5-5.01-5s-5.01,2.24-5.01,5v27.71c0,2.76,2.24,5,5.01,5Z" fill="#fff"/>
        <path d="m20.02,44.13H5.01c-2.76,0-5.01,2.24-5.01,5v15c0,2.76,2.24,5,5.01,5s5.01-2.24,5.01-5v-10h10.01c2.76,0,5.01-2.24,5.01-5s-2.24-5-5.01-5Z" fill="#fff"/>
        <path d="m77.79,44.13h-28.88c-2.76,0-5.01,2.24-5.01,5s2.24,5,5.01,5h28.88c2.76,0,5.01-2.24,5.01-5s-2.24-5-5.01-5Z" fill="#fff"/>
        <path d="m251.09,44.13h-28.88c-2.76,0-5.01,2.24-5.01,5s2.24,5,5.01,5h28.88c2.76,0,5.01-2.24,5.01-5s-2.24-5-5.01-5Z" fill="#fff"/>
        <path d="m294.99,44.13h-15.02c-2.76,0-5.01,2.24-5.01,5s2.24,5,5.01,5h10.01v10c0,2.76,2.24,5,5.01,5s5.01-2.24,5.01-5v-15c0-2.76-2.24-5-5.01-5Z" fill="#fff"/>
        <path d="m294.99,142.27c-2.76,0-5.01,2.24-5.01,5v27.71c0,2.76,2.24,5,5.01,5s5.01-2.24,5.01-5v-27.71c0-2.76-2.24-5-5.01-5Z" fill="#fff"/>
        <path d="m294.99,86.84c-2.76,0-5.01,2.24-5.01,5v27.71c0,2.76,2.24,5,5.01,5s5.01-2.24,5.01-5v-27.71c0-2.76-2.24-5-5.01-5Z" fill="#fff"/>
        <path d="m294.99,197.7c-2.76,0-5.01,2.24-5.01,5v27.71c0,2.76,2.24,5,5.01,5s5.01-2.24,5.01-5v-27.71c0-2.76-2.24-5-5.01-5Z" fill="#fff"/>
      </g>
      <rect width="300" height="300" fill="none"/>
    </g>
  </g>
</svg>