<?xml version="1.0" encoding="UTF-8"?>
<svg id="Layer_2" data-name="Layer 2" xmlns="http://www.w3.org/2000/svg" viewBox="0 0 300 300">
  <g id="_레이어_1" data-name="레이어 1">
    <g>
      <g>
        <path d="m175.17,0c6.23,2.24,9.17,7.16,10.64,13.22.45,1.84,1.31,3,3.13,3.81,3.28,1.46,6.34,3.43,9.64,4.86,1.34.58,3.08.58,4.58.37,3.06-.42,6.07-1.63,9.11-1.68,6.48-.11,11.47,4.77,11.99,11.22.13,1.65.44,3.45-.06,4.95-1.41,4.2.9,6.68,3.18,9.78,3.44,4.69,7.28,7,13.28,7.47,9.73.76,14.72,8.73,10.75,17.53-2.66,5.9-2.08,10.56.46,16.01,1.47,3.15,2.91,5.33,6.44,6.18,2.11.51,4.13,1.77,5.94,3.05,5.2,3.68,6.67,10.28,3.59,15.84-.98,1.78-2.04,3.71-3.55,4.96-2.74,2.27-2.45,4.88-2.38,8.01.13,6.42,2.71,10.68,7.96,14.53,7,5.14,6.64,13.86.14,19.66-.8.71-1.5,1.72-2.44,2.07-4.48,1.68-4.63,5.47-5.24,9.39-.74,4.78-.59,8.59,3.15,12.6,7.08,7.6,5.19,17.84-6.9,22.07-3.75,1.31-5.47,3.37-6.86,6.88-1.91,4.82-3.59,8.88-.65,14.33,4.78,8.84-.02,18.64-13.26,19.14-3.78.14-5.86,1.56-8.12,4.28-3.58,4.29-6.3,8.01-5.66,14.5,1.07,10.85-7.33,16.88-17.74,13.3-4.44-1.53-7.46-.48-11.34,1.29-5.61,2.56-9.1,5.95-11.24,11.99-2.96,8.36-11.19,10.4-18.67,5.6-1.3-.84-2.75-1.73-3.59-2.97-2.22-3.27-5.23-2.93-8.66-3.09-6.89-.32-12.42.84-18.02,5.82-6.56,5.83-14.9,2.79-18.68-5.28-.41-.88-1.05-1.75-1.15-2.67-.49-4.35-3.57-5.94-7-7.92-5.47-3.17-10.31-4.2-16.8-2.31-9.78,2.84-16.96-5.24-15.27-16.39.53-3.48-.52-5.61-2.5-8.3-3.9-5.32-8.33-8.07-15.23-8.54-8.38-.57-12.66-8.61-10.04-16.62.39-1.2.58-2.59,1.31-3.54,2.53-3.28,1.47-6.21.09-9.66-1.96-4.88-4.07-8.46-9.63-10.69-10.67-4.26-12.43-13.03-4.84-21.95,2.88-3.38,3.31-6.31,2.8-10.4-.61-4.88-1.46-8.71-6.21-11.7-8.51-5.37-9.54-16.15,1.12-23.2,3.26-2.16,4.37-4.55,4.8-8.14.62-5.14,1.2-9.57-3.19-14.01-6.7-6.77-5.42-17.43,7.08-21.8,3.76-1.31,5.46-3.39,6.86-6.88,1.93-4.83,3.57-8.89.64-14.33-4.77-8.84.05-18.64,13.28-19.13,3.79-.14,5.85-1.59,8.12-4.29,3.59-4.28,6.3-8.02,5.65-14.51-1.08-10.82,7.38-16.88,17.76-13.26,4.45,1.55,7.47.42,11.34-1.32,5.64-2.54,9.61-5.76,11.14-12.05,1.03-4.23,4.72-6.45,8.62-8.06,1.76,0,3.51,0,5.27,0,3.55,2.57,7.07,5.19,10.68,7.69.79.55,1.87.92,2.83.95,4.25.1,8.51.09,12.77-.01.96-.02,2.04-.4,2.83-.95C162.81,5.18,166.34,2.57,169.9,0c1.76,0,3.51,0,5.27,0ZM52.86,149.8c.16,17.78,2.76,35.17,8.87,51.9,9.01,24.7,22.99,45.77,45.6,60.14,20.86,13.26,43.26,16.7,66.86,8.87,22.45-7.46,38.84-22.7,51.23-42.38,14.54-23.1,21.11-48.64,21.66-75.77.39-19.08-2.52-37.71-9.2-55.63-9.07-24.36-23.07-45.09-45.44-59.21-20.7-13.07-42.95-16.5-66.34-8.8-22.67,7.46-39.19,22.84-51.65,42.73-14.94,23.86-21.26,50.2-21.59,78.15Z" fill="#fff"/>
        <path d="m150,267.04c-48.52,0-88-52.51-88-117.04s39.48-117.04,88-117.04,88,52.51,88,117.04-39.48,117.04-88,117.04Zm0-228.08c-45.21,0-82,49.81-82,111.04s36.79,111.04,82,111.04,82-49.81,82-111.04-36.79-111.04-82-111.04Z" fill="#fff"/>
      </g>
      <rect width="300" height="300" fill="none"/>
    </g>
  </g>
</svg>