<?xml version="1.0" encoding="UTF-8"?>
<svg id="_레이어_2" data-name="레이어 2" xmlns="http://www.w3.org/2000/svg" viewBox="0 0 300 300">
  <g id="_레이어_1-2" data-name="레이어 1">
    <g id="_03자연_shape_03_0003" data-name=" 03자연 shape 03 0003">
      <path id="palm" d="M220.18,86.73l-16.75,16.76c29.78-9.18,62.1-4.71,88.28,12.2,2.32,1.5,2.99,4.59,1.49,6.91-.38,.6-.89,1.1-1.49,1.49-33.6,21.71-76.59,22.54-110.99,2.14l-42.05,42.08c39.18-13.99,82.64-8.95,117.58,13.62,2.32,1.5,2.99,4.59,1.49,6.91-.38,.6-.89,1.1-1.49,1.49-42.95,27.75-97.96,28.59-141.73,2.15l-46.55,46.58c48.13-18.81,102.37-13.34,145.77,14.7,2.32,1.5,2.99,4.59,1.49,6.91-.38,.6-.89,1.1-1.49,1.49-51.85,33.51-118.32,34.35-171,2.15C5.86,301.2,7.89,300,4.99,300c-2.76,0-5-2.26-4.99-5.02,0-1.32,.53-2.58,1.46-3.51l34.2-34.22C3.49,204.51,4.33,138.03,37.81,86.13c1.5-2.32,4.6-2.98,6.92-1.47,.59,.38,1.09,.88,1.47,1.47,28.03,43.44,33.49,97.7,14.69,145.86l46.55-46.58c-26.42-43.81-25.59-98.83,2.15-141.82,1.5-2.32,4.6-2.98,6.92-1.47,.59,.38,1.09,.88,1.47,1.47,22.56,34.97,27.59,78.45,13.61,117.65l42.05-42.08c-20.39-34.44-19.56-77.44,2.14-111.06,1.5-2.32,4.6-2.98,6.92-1.47,.59,.38,1.09,.88,1.47,1.47,16.9,26.2,21.36,58.54,12.19,88.34l17.08-17.09C222.69,39.58,254.05,8.72,293.96,.11c2.7-.58,5.36,1.15,5.93,3.85,.15,.69,.15,1.4,0,2.09-8.62,40.1-39.71,71.57-79.7,80.69h0Z" fill="#fff"/>
    </g>
  </g>
</svg>