<?xml version="1.0" encoding="UTF-8"?>
<svg id="_레이어_2" data-name="레이어 2" xmlns="http://www.w3.org/2000/svg" viewBox="0 0 300 300">
  <g id="_레이어_1-2" data-name="레이어 1">
    <g id="_03자연_shape_03_0007" data-name=" 03자연 shape 03 0007">
      <rect id="_사각형_2741" data-name="사각형 2741" x="0" width="299.99" height="300" fill="none"/>
      <path id="_패스_444" data-name="패스 444" d="M295.78,63.27c-25.87-8.25-53.17-11.04-80.17-8.19-29.64,3.18-52.55,13.76-66.24,30.61-15.71,19.86-18.71,46.95-7.73,69.77,1.16,2.33,2.48,4.57,3.94,6.73-5.03,11.15-9.03,22.74-11.95,34.61-1.95-2.38-4.08-4.83-6.38-7.32,.31-.69,.61-1.39,.88-2.1,6.98-18.48,2.72-39.33-10.94-53.6-11.75-12.04-30.09-18.6-53.04-18.97-20.74-.3-41.32,3.71-60.44,11.78-3.08,1.3-4.53,4.86-3.22,7.95,.52,1.22,1.42,2.24,2.57,2.9,11.59,6.72,20.55,17.18,25.41,29.67,1.27,3.32,2.25,6.79,3.3,10.46,.78,2.75,1.59,5.58,2.53,8.38,1.44,4.56,3.48,8.91,6.07,12.93,8.66,13.05,22.97,20.45,39.04,20.45,15.87,0,30.93-7.01,41.16-19.13,3.4,3.84,6.33,7.54,8.84,10.99,14.25,19.59,18.44,35.63,18.48,35.8l11.79-2.95c-.17-.67-3.91-15.27-16.42-34.18,2.39-12.81,6.1-25.34,11.09-37.37,12.5,11.61,28.87,18.17,45.94,18.4,.39,0,.77,.01,1.16,.01,23.18,0,43.17-11.48,53.62-30.87,2.84-5.46,4.94-11.27,6.26-17.28,.89-3.75,1.61-7.56,2.31-11.25,.94-5,1.83-9.73,3.13-14.33,5.02-17.45,15.83-32.67,30.65-43.17,2.75-1.92,3.41-5.7,1.49-8.45-.76-1.09-1.86-1.9-3.12-2.3h0ZM117.78,180.04c-15.2-14.06-36.18-28.46-64.65-39.11l-4.26,11.37c28.46,10.64,48.87,25.21,63.22,39.07-6.89,8.85-17.1,14.48-28.25,15.6-13.97,1.5-26.13-3.88-33.35-14.78-2-3.15-3.57-6.54-4.68-10.1-.85-2.52-1.58-5.1-2.36-7.83-1.07-3.76-2.18-7.66-3.64-11.48-4.33-11.28-11.48-21.26-20.79-28.98,14.49-4.76,29.67-7.07,44.92-6.84,13.72,.22,32.58,3.06,44.53,15.31,9.44,9.67,13.06,24.8,9.31,37.77h0ZM255.06,113.9c-1.44,5.11-2.42,10.33-3.37,15.37-.7,3.71-1.36,7.21-2.19,10.68-1.07,4.98-2.8,9.8-5.13,14.34-8.44,15.64-24.84,24.77-43.89,24.48-15.98-.26-30.87-7.08-40.73-18.08,.03-.06,.05-.11,.08-.17,8.01-15.85,17.92-29.21,29.47-39.72,14.16-12.95,31.54-21.85,50.32-25.78l-2.54-11.87c-20.89,4.37-40.21,14.28-55.96,28.68-11.65,10.78-21.45,23.4-29.02,37.36-8.39-17.76-5.69-40.58,6.71-55.84,14.69-18.08,39.7-24.22,58.1-26.19,6.39-.68,12.8-1.02,19.22-1.02,15.13,0,30.2,1.86,44.87,5.54-12.38,11.41-21.36,26.03-25.94,42.23h0Z" fill="#fff"/>
    </g>
  </g>
</svg>