<?xml version="1.0" encoding="UTF-8"?>
<svg id="_레이어_2" data-name="레이어 2" xmlns="http://www.w3.org/2000/svg" viewBox="0 0 300 300">
  <g id="_레이어_1-2" data-name="레이어 1">
    <g id="_03자연_shape_03_0026" data-name=" 03자연 shape 03 0026">
      <path id="_패스_685" data-name="패스 685" d="M157.83,297c-5.32,0-10.66-.26-16.04-.78-38.02-3.52-73.43-20.86-99.53-48.74C16.5,220.06,2.42,183.69,3.02,146.07c.43-36.34,14.6-71.17,39.66-97.5C64.77,25.06,94.65,8.48,124.66,3.09c2.33-.42,4.66,.7,5.8,2.77,1.14,2.07,.82,4.64-.79,6.38-24.45,26.43-35.81,57.39-33.75,92.01,1.57,26.47,11.55,50.59,29.65,71.71,25.07,29.25,61.82,44.83,99.38,44.83,22.32,0,44.29-5.5,63.96-16.05,2.07-1.11,4.61-.78,6.34,.81,1.72,1.6,2.24,4.11,1.29,6.26-10.51,23.81-30.86,46.33-55.82,61.78-24.89,15.41-53.6,23.52-82.88,23.42ZM110.68,17.92C62.14,33.58,15.16,80.42,14.02,146.26c-1.22,70.86,55.36,131.92,128.83,139.02,4.98,.48,9.9,.71,14.73,.71,54.61,0,99.24-29.62,121.3-64.46-25.91,10.39-54.29,12.99-81.67,7.51-31.5-6.19-59.91-22.51-79.99-45.93-19.7-22.98-30.56-49.29-32.28-78.21-1.91-32.11,6.74-61.3,25.74-86.98h0Z" fill="#fff"/>
      <rect id="_사각형_2829" data-name="사각형 2829" width="300" height="300" fill="none"/>
    </g>
  </g>
</svg>