<?xml version="1.0" encoding="UTF-8"?>
<svg id="_레이어_2" data-name="레이어 2" xmlns="http://www.w3.org/2000/svg" viewBox="0 0 300 300">
  <g id="_레이어_1-2" data-name="레이어 1">
    <g id="_03자연_shape_03_0008" data-name=" 03자연 shape 03 0008">
      <rect id="_사각형_2742" data-name="사각형 2742" y="0" width="300" height="300" fill="none"/>
      <path id="_패스_445" data-name="패스 445" d="M257.14,268.6c-12.95,0-19.88,5.2-25.45,9.37-4.99,3.74-8.93,6.7-17.41,6.7s-12.42-2.95-17.41-6.7c-5.57-4.18-12.5-9.37-25.45-9.37s-19.88,5.2-25.45,9.37c-4.99,3.74-8.93,6.7-17.41,6.7s-12.42-2.95-17.41-6.7c-5.57-4.18-12.5-9.37-25.45-9.37s-19.88,5.2-25.45,9.37c-4.99,3.74-8.93,6.7-17.41,6.7s-12.42-2.95-17.41-6.7c-5.57-4.18-12.5-9.37-25.45-9.37v13.39c8.48,0,12.42,2.96,17.41,6.7,5.57,4.18,12.5,9.37,25.45,9.37s19.88-5.2,25.45-9.37c4.99-3.74,8.93-6.7,17.41-6.7s12.42,2.96,17.41,6.7c5.57,4.18,12.5,9.37,25.45,9.37s19.88-5.2,25.45-9.37c4.99-3.74,8.93-6.7,17.41-6.7s12.42,2.96,17.41,6.7c5.57,4.18,12.5,9.37,25.45,9.37s19.88-5.2,25.45-9.37c4.99-3.74,8.93-6.7,17.41-6.7s12.42,2.96,17.41,6.7c5.57,4.18,12.5,9.37,25.45,9.37v-13.4c-8.48,0-12.42-2.95-17.41-6.7-5.57-4.17-12.5-9.37-25.45-9.37Z" fill="#fff"/>
      <path id="_패스_446" data-name="패스 446" d="M257.14,228.42c-12.95,0-19.88,5.2-25.45,9.37-4.99,3.74-8.93,6.7-17.41,6.7s-12.42-2.96-17.41-6.7c-5.57-4.18-12.5-9.37-25.45-9.37s-19.88,5.2-25.45,9.37c-4.99,3.74-8.93,6.7-17.41,6.7s-12.42-2.96-17.41-6.7c-5.57-4.18-12.5-9.37-25.45-9.37s-19.88,5.2-25.45,9.37c-4.99,3.74-8.93,6.7-17.41,6.7s-12.42-2.96-17.41-6.7c-5.57-4.18-12.5-9.37-25.45-9.37v13.39c8.48,0,12.42,2.96,17.41,6.7,5.57,4.18,12.5,9.37,25.45,9.37s19.88-5.2,25.45-9.37c4.99-3.74,8.93-6.7,17.41-6.7s12.42,2.96,17.41,6.7c5.57,4.18,12.5,9.37,25.45,9.37s19.88-5.2,25.45-9.37c4.99-3.74,8.93-6.7,17.41-6.7s12.42,2.96,17.41,6.7c5.57,4.18,12.5,9.37,25.45,9.37s19.88-5.2,25.45-9.37c4.99-3.74,8.93-6.7,17.41-6.7s12.42,2.96,17.41,6.7c5.57,4.18,12.5,9.37,25.45,9.37v-13.4c-8.48,0-12.42-2.96-17.41-6.7-5.57-4.17-12.5-9.37-25.45-9.37Z" fill="#fff"/>
      <path id="_패스_447" data-name="패스 447" d="M82.32,37.6c-1.99-3.12-6.14-4.03-9.25-2.04-.82,.52-1.51,1.22-2.04,2.04L20.24,117.12C.33,148.29,9.47,189.69,40.64,209.59c31.17,19.9,72.57,10.77,92.47-20.4,14.03-21.98,14.03-50.1,0-72.08L82.32,37.6Zm47.61,121.37c-3.2,29.41-29.64,50.66-59.05,47.46-29.41-3.2-50.66-29.64-47.46-59.05,.89-8.21,3.67-16.09,8.11-23.05L76.67,53.64l45.15,70.68c6.55,10.29,9.41,22.51,8.11,34.64h0Z" fill="#fff"/>
      <path id="_패스_448" data-name="패스 448" d="M102.91,139.91c-3.48,1.24-5.31,5.07-4.07,8.55,4.29,12.08-2.03,25.36-14.11,29.65,0,0,0,0,0,0-3.45,1.33-5.17,5.21-3.84,8.66,1.28,3.32,4.94,5.06,8.33,3.96,19.05-6.77,29.02-27.7,22.25-46.75-1.24-3.48-5.07-5.31-8.55-4.07h0Z" fill="#fff"/>
      <path id="_패스_449" data-name="패스 449" d="M239.01,3.09c-1.99-3.12-6.13-4.03-9.24-2.04-.82,.52-1.52,1.22-2.04,2.04l-42.33,66.27c-16.92,26.49-9.16,61.69,17.33,78.61,26.5,16.92,61.69,9.16,78.61-17.33,11.93-18.68,11.93-42.6,0-61.28L239.01,3.09Zm37.62,101.62c-2.6,23.9-24.08,41.16-47.98,38.56-9.85-1.07-19.05-5.48-26.06-12.49h-.01c-14.44-14.45-16.9-37-5.91-54.21l36.68-57.43,36.68,57.43c5.33,8.36,7.65,18.29,6.59,28.14Z" fill="#fff"/>
      <path id="_패스_450" data-name="패스 450" d="M252.66,75.71c-3.48,1.24-5.31,5.06-4.07,8.55,0,0,0,0,0,0,4.59,12.93-2.16,27.13-15.09,31.72,0,0,0,0,0,0-3.53,1.12-5.48,4.89-4.36,8.41,1.12,3.53,4.89,5.48,8.41,4.36,.14-.05,.28-.1,.42-.15,19.9-7.06,30.3-28.92,23.24-48.81h0c-1.24-3.49-5.07-5.31-8.55-4.08h0Z" fill="#fff"/>
    </g>
  </g>
</svg>