<?xml version="1.0" encoding="UTF-8"?>
<svg id="_레이어_2" data-name="레이어 2" xmlns="http://www.w3.org/2000/svg" viewBox="0 0 300 300">
  <g id="_레이어_1-2" data-name="레이어 1">
    <g id="_03자연_shape_03_0005" data-name=" 03자연 shape 03 0005">
      <path id="_패스_428" data-name="패스 428" d="M203.17,96.83c-14.1-14.13-33.21-22.12-53.17-22.22-20-.08-39.18,7.93-53.18,22.22-29.37,29.52-29.24,77.26,.29,106.63,14.06,13.98,33.06,21.87,52.89,21.94,20,.08,39.18-7.93,53.17-22.22,14.13-14.1,22.12-33.21,22.22-53.17,.08-20-7.93-39.18-22.22-53.18Z" fill="#fff"/>
      <path id="_패스_429" data-name="패스 429" d="M150,51.19c5.66-.1,10.22-4.66,10.32-10.32V10.32c0-5.7-4.62-10.32-10.32-10.32s-10.32,4.62-10.32,10.32v30.56c.1,5.66,4.66,10.22,10.32,10.32Z" fill="#fff"/>
      <path id="_패스_430" data-name="패스 430" d="M234.52,80.16l21.82-21.82c3.94-3.95,3.94-10.34,0-14.29-3.95-3.94-10.34-3.94-14.29,0l-21.82,21.82c-3.94,3.91-3.97,10.28-.06,14.23,.02,.02,.04,.04,.06,.06,3.57,3.97,9.92,3.97,14.29,0Z" fill="#fff"/>
      <path id="_패스_431" data-name="패스 431" d="M289.68,139.68h-30.56c-5.7,0-10.32,4.62-10.32,10.32s4.62,10.32,10.32,10.32h30.56c5.7,0,10.32-4.62,10.32-10.32s-4.62-10.32-10.32-10.32Z" fill="#fff"/>
      <path id="_패스_432" data-name="패스 432" d="M234.13,219.84c-3.94-3.94-10.34-3.94-14.29,0s-3.94,10.34,0,14.29l21.82,21.82c3.95,3.95,10.34,3.95,14.29,0s3.95-10.34,0-14.29h0l-21.82-21.82Z" fill="#fff"/>
      <path id="_패스_433" data-name="패스 433" d="M150,248.81c-5.66,.1-10.22,4.66-10.32,10.32v30.56c0,5.7,4.62,10.32,10.32,10.32s10.32-4.62,10.32-10.32v-30.56c-.1-5.66-4.66-10.22-10.32-10.32Z" fill="#fff"/>
      <path id="_패스_434" data-name="패스 434" d="M65.47,219.84l-21.82,21.82c-3.94,3.94-3.94,10.34,0,14.29,3.94,3.94,10.34,3.94,14.29,0l21.82-21.82c3.94-3.91,3.97-10.28,.06-14.23-.02-.02-.04-.04-.06-.06-3.57-3.97-9.92-3.97-14.29,0Z" fill="#fff"/>
      <path id="_패스_435" data-name="패스 435" d="M51.19,150c-.1-5.66-4.66-10.22-10.32-10.32H10.32c-5.7,0-10.32,4.62-10.32,10.32s4.62,10.32,10.32,10.32h30.56c5.66-.1,10.22-4.66,10.32-10.32Z" fill="#fff"/>
      <path id="_패스_436" data-name="패스 436" d="M65.47,80.16c3.95,3.95,10.34,3.95,14.29,0,3.95-3.95,3.95-10.34,0-14.29l-21.82-21.82c-3.94-3.94-10.34-3.94-14.29,0s-3.94,10.34,0,14.29h0l21.82,21.82Z" fill="#fff"/>
    </g>
  </g>
</svg>