<?xml version="1.0" encoding="UTF-8"?>
<svg id="_레이어_2" data-name="레이어 2" xmlns="http://www.w3.org/2000/svg" viewBox="0 0 300 300">
  <g id="_레이어_1-2" data-name="레이어 1">
    <g id="_03자연_shape_03_0018" data-name=" 03자연 shape 03 0018">
      <path id="_패스_1079" data-name="패스 1079" d="M251.63,116.63c-11.42-24.62-29.54-45.53-52.28-60.35-2.16,23.14-16.71,43.23-32.86,59.94s-34.53,31.55-47.63,50.74c-17.89,26.51-24.39,59.09-18.05,90.44-26.33-22.48-35.06-62.78-21.54-94.66,13.18-31.11,43.05-51.27,65.21-76.77,10.13-11.66,18.98-25.13,21.52-40.37s-2.43-32.45-15.21-41.14c-21.54,36.79-63.47,56.95-89.1,91.01-35.21,46.81-33.42,112.98,7.37,155.59,1.37,1.43,2.77,2.83,4.2,4.2,20.04,19.14,45.16,32.14,70.81,42.63-10.57-21.51-13.84-47.41-4.82-69.61,14.22-34.97,53.97-52.72,73.86-84.84,28.1,36.7,21.13,89.24-15.57,117.34,0,0,0,0,0,0-14.08,10.78-31.22,16.81-48.95,17.22,3.9,7.49,14.33,8.1,22.66,6.68,32.82-6.14,61.18-26.64,77.3-55.89,15.7-29.36,19.07-63.76,9.36-95.6-1.72-5.66-3.82-11.2-6.29-16.58Z" fill="#fff"/>
      <rect id="_사각형_2820" data-name="사각형 2820" width="300" height="300" fill="none"/>
    </g>
  </g>
</svg>