<?xml version="1.0" encoding="UTF-8"?>
<svg id="_레이어_2" data-name="레이어 2" xmlns="http://www.w3.org/2000/svg" viewBox="0 0 300 300">
  <g id="_레이어_1-2" data-name="레이어 1">
    <g id="_03자연_shape_03_0002" data-name=" 03자연 shape 03 0002">
      <path id="_패스_196" data-name="패스 196" d="M267.92,117.68L196.39,46.14c-11.13-11.13-29.19-11.13-40.32,0-5.35,5.35-8.35,12.6-8.35,20.16v87.09h-17.44v-55.35c0-15.66-7.06-28.31-18.43-33.02-9.19-3.8-19.43-1.62-26.73,5.68L31.49,124.33c-10.33,10.33-10.34,27.07-.01,37.41,4.96,4.96,11.69,7.75,18.71,7.75h50.05c3.57,0,6.47-2.9,6.47-6.47s-2.9-6.47-6.47-6.47H50.19c-7.46,0-13.51-6.05-13.51-13.51,0-3.58,1.42-7.02,3.96-9.55l53.63-53.63c3.64-3.64,8.25-4.69,12.62-2.88,5.05,2.09,10.44,8.72,10.44,21.06v87.73h-36.19c-15.09,0-27.32,12.22-27.32,27.31,0,7.25,2.88,14.2,8,19.32l21.82,21.82c5.05,5.14,11.94,8.05,19.14,8.07,3.65-.01,7.26-.74,10.63-2.15,10.28-4.14,16.98-14.16,16.86-25.24v-25.39c0-3.57-2.9-6.47-6.47-6.47s-6.47,2.9-6.47,6.47v25.39c0,7.93-6.42,14.37-14.36,14.37-3.82,0-7.47-1.51-10.17-4.21l-21.82-21.82c-5.61-5.61-5.62-14.7-.01-20.32,2.7-2.7,6.36-4.22,10.17-4.21h62.07c3.93-.01,7.71,1.55,10.48,4.34l36.93,36.93c2.53,2.53,6.63,2.53,9.16,0s2.53-6.63,0-9.16h0l-36.93-36.93c-5.2-5.23-12.27-8.16-19.64-8.14h-12.94v-19.42h117.48c15.75,0,28.51-12.76,28.51-28.51,0-7.56-3-14.81-8.35-20.16v.02Zm-5.78,26.11c-2.36,5.85-8.06,9.66-14.37,9.6h-87.09V66.3c0-8.59,6.97-15.56,15.56-15.56,4.13,0,8.08,1.64,11,4.56l71.53,71.53c4.5,4.42,5.84,11.15,3.37,16.96h0Z" fill="#fff"/>
      <rect id="_사각형_20" data-name="사각형 20" width="300" height="300" fill="none"/>
    </g>
  </g>
</svg>