<?xml version="1.0" encoding="UTF-8"?>
<svg id="_레이어_2" data-name="레이어 2" xmlns="http://www.w3.org/2000/svg" viewBox="0 0 300 300">
  <g id="_레이어_1-2" data-name="레이어 1">
    <g id="_03자연_shape_03_0010" data-name=" 03자연 shape 03 0010">
      <rect id="_사각형_2744" data-name="사각형 2744" width="300" height="300" fill="none"/>
      <path d="M293.18,275.14c2-3.7,3.05-7.83,3.05-12.04-.02-13.32-10.31-24.37-23.6-25.34-7.85-18.59-29.27-27.29-47.86-19.45-18.59,7.85-27.29,29.27-19.45,47.86,1.37,3.23,3.19,6.26,5.42,8.97h-11.19c-2.44-14.79-7.04-59.3,17.4-96.23,6.96-10.51,18.73-21.22,28.19-29.84,1.8-1.64,3.52-3.21,5.1-4.67,2.7-2.51,2.86-6.74,.35-9.44-1.38-1.49-3.37-2.27-5.4-2.12v-.02c-19.04,2.16-37.28,8.87-53.18,19.56,6.97-22.16,17.22-42.83,38.8-73.2,2.14-3.01,1.43-7.18-1.58-9.32-1.78-1.26-4.07-1.58-6.12-.84-1.57,.56-34.43,12.53-63.53,44.98-1.22-27.08-5.54-73.63-12.49-97.69-1.03-3.55-4.74-5.59-8.29-4.56-1.53,.44-2.86,1.42-3.73,2.76-10.84,16.53-28.51,54.99-29.24,96.54-29.62-34.25-63.85-47.96-65.51-48.61-3.44-1.35-7.31,.34-8.66,3.78-.82,2.1-.53,4.47,.77,6.31,20.92,29.44,31.82,47.45,39.55,71.51C42.16,127.11,7.09,125.88,6.69,125.88,3,125.88,0,128.87,0,132.56c0,2.04,.93,3.97,2.52,5.24,.64,.51,62.81,50.63,65.32,104.47-4.87,3.73-8.74,8.61-11.23,14.24-6.16-1.86-12.84-.39-17.65,3.88-4.23,3.77-6.77,9.09-7.04,14.76H3.17v13.36H300v-13.36h-6.82ZM125.99,68.14c3.11-10.84,7.13-21.39,12.02-31.55,6.23,33.88,8.91,83.98,8.54,93.91-5.11,7.34-9.62,15.08-13.48,23.14-3.64-8.14-7.92-15.99-12.8-23.46-2.48-18.79-.51-40.2,5.73-62.05Zm-66.93,19.69c14.8,9.76,33.9,25.45,49.2,48.43,7.29,10.95,13.18,22.78,17.51,35.21-3.74,10.9-6.43,22.14-8.03,33.55-4.99-19.45-14.47-35.65-28.34-48.38h0c-6.23-25.37-13.83-43.26-30.33-68.81Zm-13.22,74.9c-5.92-7.25-12.22-14.19-18.87-20.77,15.39,3.08,36.42,9.6,52,23.28,18.45,16.19,28.35,39.52,29.45,69.34l-.17,4.97c-8.29-4.74-18.19-6.07-27.48-3.63-2.57-23.24-14.28-47.81-34.92-73.19Zm-.49,112.42c.23-1.8,1.08-3.47,2.42-4.71,2.76-2.42,6.35-1.01,8.87,.6l.06,.04c1.35,.83,2.93,1.19,4.51,1.01,3.04-.18,5.57-2.4,6.15-5.39,.64-3.3,2.01-6.42,4-9.14,7.56-10.34,22.07-12.6,32.4-5.04,4.33,3.16,7.42,7.72,8.77,12.91,.86,3.33,4.1,5.47,7.5,4.94,1.03-.16,2.07-.18,3.1-.08,3.39,.34,6.47,2.1,8.48,4.84H45.34Zm100.96,0c-2.35-8.02-8.45-14.24-16.13-16.88l-.87-14.21c-1.14-25.41,2.16-49.06,9.82-70.31,4.74-13.17,11.26-25.62,19.38-37.02,12.62-17.5,28.56-32.35,46.92-43.69-17.87,28.44-25.3,49.18-31.59,75.12-19.36,21.23-28.7,49.84-27.76,85.1,.12,7.32,.66,14.63,1.61,21.89h-1.38Zm14.88,0c-1.04-7.37-1.62-14.8-1.74-22.25-.87-32.33,7.66-58.2,25.34-76.9,11.88-12.57,26.09-19.9,37.86-24.15-6.24,6.17-12.31,12.84-16.84,19.7-24.08,36.39-23.32,81.38-19.89,103.6h-24.73Zm109.63,0h-31.83c-12.78-.02-23.13-10.39-23.11-23.17,.02-12.78,10.39-23.13,23.17-23.11,10.55,.01,19.76,7.17,22.39,17.39,.86,3.33,4.1,5.47,7.5,4.95,.62-.1,1.25-.14,1.88-.14,6.65,0,12.04,5.39,12.04,12.04,0,6.65-5.39,12.04-12.04,12.04Z" fill="#fff"/>
    </g>
  </g>
</svg>