<?xml version="1.0" encoding="UTF-8"?>
<svg id="_레이어_2" data-name="레이어 2" xmlns="http://www.w3.org/2000/svg" viewBox="0 0 300 300">
  <g id="_레이어_1-2" data-name="레이어 1">
    <g id="_03자연_shape_03_0012" data-name=" 03자연 shape 03 0012">
      <path id="_패스_352" data-name="패스 352" d="M268.22,3.57c.26,.22,.51,.45,.73,.71,10,11.46-6.7,69.66-10.6,82.82-7.71,26.57-19.78,51.67-35.72,74.29-32.17,45.07-79.28,75.76-129.5,84.34-14.25,2.44-29.25,3.35-41.73,11.62s-21.2,27.15-14.3,41.66c-9.3-25.1-11.59-52.25-6.65-78.55,.45-2.23,1.23-4.37,2.32-6.36,1.48-1.73,4.12-4.77,7.55-8.37,10.05-10.61,21.22-20.09,33.32-28.28,11.38-7.79,38.24-32.44,106.12-106.24-58.81,7.77-103.43,62.52-141.19,114.84-1.23-59.46,36.42-112.79,82.06-141.01,23.09-13.77,48.15-23.92,74.32-30.08,12.39-3.16,62.32-20.36,73.26-11.37Z" fill="#fff"/>
      <rect id="_사각형_2815" data-name="사각형 2815" width="300" height="300" fill="none"/>
    </g>
  </g>
</svg>