<?xml version="1.0" encoding="UTF-8"?>
<svg id="_레이어_2" data-name="레이어 2" xmlns="http://www.w3.org/2000/svg" viewBox="0 0 300 300">
  <g id="_레이어_1-2" data-name="레이어 1">
    <g id="_03자연_shape_03_0024" data-name=" 03자연 shape 03 0024">
      <path id="_패스_668" data-name="패스 668" d="M237.33,166.14h30.03c3.96,0,7.92-.04,11.88,.01,6.2,.08,10.5,4.18,10.45,9.9-.04,5.62-4.24,9.61-10.34,9.62-68.76,.07-137.51,.12-206.27,.16-17.47,0-34.93-.04-52.4-.15-6.1-.03-10.31-3.98-10.37-9.58-.06-5.77,4.16-9.9,10.39-9.93,12.8-.06,25.59-.02,38.39-.02h3.56c3.7-26.56,16.16-47.76,38.2-62.93,15.56-10.84,34.3-16.14,53.24-15.07,42.6,1.97,77.8,34.33,83.24,77.99Z" fill="#fff"/>
      <path id="_패스_669" data-name="패스 669" d="M189.01,224.75c-17.25,0-34.51,.02-51.76-.02-4.2,.16-8.01-2.45-9.39-6.42-1.38-3.82-.38-8.38,2.99-10.68,1.97-1.39,4.29-2.19,6.7-2.32,34.3-.14,68.61-.17,102.91-.08,5.99,0,10.23,4.2,10.24,9.78,0,5.65-4.17,9.7-10.22,9.72-17.15,.04-34.3,.01-51.46,.01Z" fill="#fff"/>
      <path id="_패스_670" data-name="패스 670" d="M120.72,263.82c-7.3,0-14.61,.03-21.91,0-6.27-.04-10.5-4-10.49-9.74,0-5.72,4.26-9.75,10.54-9.77,14.6-.05,29.21-.05,43.82,0,6.21,.02,10.51,4.12,10.5,9.81,0,5.74-4.24,9.66-10.55,9.7-7.3,.04-14.6,0-21.9,0Z" fill="#fff"/>
      <path id="_패스_671" data-name="패스 671" d="M71.81,224.74c-4.26,0-8.52,.07-12.77-.02-5.23,.09-9.56-4.04-9.72-9.27-.19-5.46,3.58-9.97,9.15-10.13,9.01-.26,18.03-.26,27.06,0,5.53,.16,9.33,4.74,9.12,10.17-.18,5.23-4.53,9.34-9.76,9.23-4.36,.09-8.72,.02-13.08,.02Z" fill="#fff"/>
      <path id="_패스_672" data-name="패스 672" d="M188.81,263.82c-4.26,0-8.52,.07-12.77-.02-5.23,.08-9.55-4.06-9.7-9.29-.18-5.46,3.59-9.96,9.17-10.12,9.01-.25,18.04-.25,27.06,0,5.53,.16,9.32,4.76,9.11,10.19-.21,5.21-4.28,9.11-9.78,9.22-4.36,.08-8.72,.02-13.08,.02Z" fill="#fff"/>
      <path id="_패스_673" data-name="패스 673" d="M64.19,119.8c-.08,8.06-7.34,12.89-13.6,9.73-6.42-3.24-12.63-6.93-18.7-10.8-4.23-2.7-5.16-8.47-2.63-12.75,2.47-4.38,7.93-6.06,12.43-3.82,6.26,3.33,12.37,6.97,18.43,10.67,2.46,1.47,4,4.1,4.06,6.97Z" fill="#fff"/>
      <path id="_패스_674" data-name="패스 674" d="M261.45,101.24c5.11-.03,8.74,2.51,10.12,6.51,1.35,3.92,.21,8.64-3.34,10.88-6.17,3.9-12.49,7.6-18.96,10.97-4.48,2.33-9.83,.23-12.28-4.18-2.36-4.25-1.36-9.87,2.76-12.48,6.08-3.85,12.4-7.33,18.67-10.86,.96-.43,1.98-.71,3.03-.83Z" fill="#fff"/>
      <path id="_패스_675" data-name="패스 675" d="M140.26,55.82c0-3.25-.06-6.51,.01-9.76-.06-5.4,4.27-9.84,9.67-9.9,.06,0,.11,0,.17,0,5.35,.09,9.64,4.47,9.62,9.83,.1,6.51,.1,13.01,0,19.52,.04,5.3-4.22,9.63-9.51,9.67-.06,0-.12,0-.17,0-5.33,.07-9.7-4.2-9.76-9.52,0-.03,0-.05,0-.08-.1-3.25-.02-6.5-.02-9.76Z" fill="#fff"/>
      <path id="_패스_676" data-name="패스 676" d="M224.93,63.49c-.52,1.83-1.18,3.61-1.98,5.34-2.94,5.34-6,10.6-9.1,15.85-3.04,5.15-8.78,6.82-13.57,4.06s-6.24-8.58-3.31-13.78c3.14-5.57,6.31-11.13,9.61-16.61,2.24-3.83,6.81-5.62,11.04-4.32,4.18,1.32,7.09,5.09,7.31,9.47Z" fill="#fff"/>
      <path id="_패스_677" data-name="패스 677" d="M85.9,53.65c3.08,.14,5.88,1.84,7.41,4.52,3.42,5.76,6.83,11.54,10.04,17.42,2.62,4.66,.97,10.56-3.68,13.18-.02,.01-.04,.02-.05,.03-4.56,2.59-10.35,1.06-13.03-3.45-3.48-5.73-6.89-11.51-10.03-17.42-3.51-6.62,1.27-14.35,9.34-14.27Z" fill="#fff"/>
      <rect id="_사각형_2826" data-name="사각형 2826" width="300" height="300" fill="none"/>
    </g>
  </g>
</svg>