<?xml version="1.0" encoding="UTF-8"?>
<svg id="_레이어_2" data-name="레이어 2" xmlns="http://www.w3.org/2000/svg" viewBox="0 0 300 300">
  <g id="_레이어_1-2" data-name="레이어 1">
    <g id="_03자연_shape_03_0029" data-name=" 03자연 shape 03 0029">
      <path id="_패스_687" data-name="패스 687" d="M65.51,247.86c-3.68,0-7.41-.02-11.11-.12C23.64,246.89-.65,221.36,.01,190.6c.24-14.61,6.13-28.55,16.43-38.91,10.34-10.31,24.28-16.21,38.88-16.45l1.41-.04c1.12-.03,2.27-.06,3.45-.06,1.35-13.1,4.45-24.11,9.46-33.59,14.91-28.24,37.92-44.59,68.4-48.59,19.97-2.62,39.37,.98,56.1,10.43,16.6,9.37,29.84,24.05,38.27,42.46,4.69,10.23,6.48,20.82,7.44,29.26h.19c4.05,.07,8.08,.35,12.1,.85,28.2,3.97,48.84,28.6,47.83,57.06-.35,14.82-6.54,28.91-17.22,39.19-10.57,10.05-24.9,15.58-40.37,15.6-40.49,.04-81.66,.03-121.48,.02h-42.87c-2.1-.02-4.21,0-6.31,0-2.05,0-4.12,.02-6.21,.02Zm-5.77-100.22c-.85,0-1.73,.03-2.63,.05-.5,.02-1.01,.03-1.51,.04-24.04,.52-42.57,19.07-43.09,43.15-.52,23.88,18.33,43.71,42.21,44.39,5.62,.14,11.38,.12,16.96,.1,2.12,0,4.23,0,6.36-.02h42.87c39.81,.02,80.97,.03,121.46-.01,25.3-.03,44.27-18,45.12-42.73,.54-22-15.36-40.96-37.11-44.27-3.56-.43-7.15-.68-10.74-.72-1.86-.06-3.74-.12-5.64-.23-2.98-.16-5.42-2.41-5.84-5.36l-.15-1.02c-.14-.9-.27-1.81-.37-2.73-1.21-11.53-3.24-19.92-6.57-27.2-15.03-32.81-46.22-50.32-81.39-45.71-26.23,3.44-46.07,17.59-58.98,42.04-4.59,8.7-7.23,18.67-8.3,31.36-.09,2.67-1.25,5.2-3.21,7.01-2.05,1.6-4.65,2.31-7.22,1.96-.7-.07-1.44-.09-2.21-.09h0Z" fill="#fff"/>
      <rect id="_사각형_2831" data-name="사각형 2831" width="300" height="300" fill="none"/>
    </g>
  </g>
</svg>