<?xml version="1.0" encoding="UTF-8"?>
<svg id="_레이어_2" data-name="레이어 2" xmlns="http://www.w3.org/2000/svg" viewBox="0 0 300 300">
  <g id="_레이어_1-2" data-name="레이어 1">
    <g id="_03자연_shape_03_0023" data-name=" 03자연 shape 03 0023">
      <path id="_패스_664" data-name="패스 664" d="M105.89,300c-5.26-2.08-7.16-6.01-6.97-11.52,.25-7.35,.06-14.72,.06-22.09v-3.32h36.04v10.48c0,4.98-.2,9.96,.05,14.92,.28,5.52-1.71,9.43-6.96,11.53h-22.22Z" fill="#fff"/>
      <path id="_패스_665" data-name="패스 665" d="M182.16,300c-5.24-2.1-7.12-6.01-6.95-11.53,.26-8.34,.07-16.7,.07-25.28h36.03v10.69c0,4.88-.18,9.76,.05,14.62,.26,5.51-1.72,9.44-6.98,11.51h-22.22Z" fill="#fff"/>
      <path id="_패스_666" data-name="패스 666" d="M160.28,97.33c4.75,6.58,9.06,12.55,13.37,18.51,10.92,15.1,21.85,30.21,32.77,45.32,3.32,4.61,3.16,9.85-.84,12.78-2.05,1.36-4.44,2.12-6.89,2.21-6.37,.29-12.77,.1-19.81,.1,.84,1.29,1.37,2.16,1.96,2.98,13.63,18.93,27.26,37.86,40.9,56.78,.7,.97,1.43,1.93,2.03,2.95,2.55,4.22,1.2,9.71-3.02,12.26-1.3,.78-2.77,1.22-4.29,1.28-.8,.05-1.6,.02-2.4,.02-64.74,0-129.49,0-194.23,0-1.2,.06-2.4,0-3.59-.18-6.71-1.32-9.41-8.63-5.26-14.46,7.45-10.48,15.01-20.88,22.53-31.32,6.58-9.14,13.16-18.28,19.74-27.43,.56-.77,1.05-1.59,1.9-2.89h-12.43c-2.8,0-5.6,0-8.41-.03-3.4,.13-6.55-1.77-8.03-4.83-1.67-3.07-1.33-6.84,.85-9.57,4.25-5.9,8.51-11.8,12.78-17.7,10.57-14.62,21.15-29.24,31.72-43.86,.57-.78,1.06-1.61,1.94-2.94-6.65,0-12.8,.11-18.95-.03-5.53-.12-9.46-4.54-8.7-9.88,.31-1.85,1.09-3.6,2.27-5.06C68.62,56.66,89.1,31.02,109.63,5.43c4.22-5.27,10.58-5.23,14.84,.07,20.46,25.52,40.9,51.07,61.3,76.64,2.53,3.16,3.36,6.57,1.5,10.27-1.8,3.57-4.91,4.99-8.87,4.94-5.79-.07-11.57-.02-18.11-.02Z" fill="#fff"/>
      <path id="_패스_667" data-name="패스 667" d="M175.07,45.24c3.07-3.61,5.84-7.14,8.92-10.39,3.94-4.17,9.85-3.66,13.87,1.04,9.72,11.38,19.42,22.77,29.09,34.19,9.17,10.79,18.38,21.56,27.49,32.4,4.13,4.91,2.98,11.57-2.41,14.15-1.46,.62-3.04,.94-4.63,.94-4.6,.13-9.2,.07-13.81,.09-.27,.05-.53,.12-.79,.2,.66,.96,1.18,1.81,1.79,2.6,12.93,16.84,25.88,33.68,38.84,50.51,2.56,3.32,3.34,6.79,1.39,10.55-1.52,3.05-4.7,4.9-8.1,4.72-5.5,.02-10.99,0-17.12,0,.85,1.21,1.41,2.06,2.02,2.87,11.94,15.59,23.89,31.19,35.84,46.78,.73,.95,1.49,1.88,2.11,2.9,3.61,5.84-.09,13.54-6.95,13.66-15,.26-30,.08-45.07,.08,.38-2.39,.87-4.6,1.07-6.84,.59-6.52-1.28-13.02-5.24-18.23-7.99-11.07-15.98-22.15-23.95-33.24-.58-.8-1.12-1.62-1.82-2.63,.73-.49,1.34-.93,1.98-1.34,13.33-8.44,16.95-25.44,7.88-38.34-8.88-12.64-18.06-25.08-27.1-37.6-.58-.8-1.14-1.61-1.77-2.52,.62-.48,1.15-.91,1.71-1.31,12.79-9.2,15.46-25.98,5.9-38.47-6.42-8.4-13.16-16.55-19.75-24.81-.42-.55-.82-1.12-1.42-1.93Z" fill="#fff"/>
      <rect id="_사각형_2825" data-name="사각형 2825" width="300" height="299.5" fill="none"/>
    </g>
  </g>
</svg>