<?xml version="1.0" encoding="UTF-8"?>
<svg id="_레이어_2" data-name="레이어 2" xmlns="http://www.w3.org/2000/svg" viewBox="0 0 300 300">
  <g id="_레이어_1-2" data-name="레이어 1">
    <g id="_03자연_shape_03_0006" data-name=" 03자연 shape 03 0006">
      <rect id="_사각형_2740" data-name="사각형 2740" width="300" height="300" fill="none"/>
      <path id="_패스_437" data-name="패스 437" d="M300,200.94c-5.03-1.06-10.12-1.85-15.23-2.34-4.49-.44-9.01-.66-13.54-.66-5.81,0-11.61,.36-17.37,1.07-20.9,2.51-40.94,9.75-58.62,21.17l-2.93,1.97c-6.65-4.64-12.96-9.75-18.89-15.28,32-23.82,71.6-35.13,111.35-31.79,5.11,.43,10.18,1.1,15.23,2.01v-17.83c-24.11-3.89-48.76-2.88-72.48,2.98,0-.41,.02-.82,.02-1.23,0-42.82-34.71-77.54-77.54-77.54-35.88,0-67.07,24.61-75.42,59.5-7.69-2.02-15.52-3.52-23.41-4.5-17.02-2.11-34.25-1.79-51.17,.96v17.83c7.82-1.41,15.74-2.25,23.68-2.5,3.39-.11,6.79-.11,10.2,0,5.04,.16,10.09,.54,15.14,1.16,38.39,4.74,73.25,22.81,100.81,52.26,18.76,20.05,38.12,34.24,59.16,43.38,9.95,4.32,20.36,7.49,31.04,9.45,9.47,1.72,19.08,2.57,28.71,2.54v-17.58c-21.54,0-41.15-4.46-59.56-13.72,14.35-8.42,30.29-13.8,46.81-15.79,5.05-.62,10.13-.94,15.22-.94,9.7,0,19.36,1.16,28.78,3.45v-18.03ZM150,101.04c33.11,0,59.96,26.83,59.96,59.94,0,2.23-.12,4.46-.37,6.67-17.52,6.31-33.94,15.29-48.7,26.65-13.91-14.56-30.06-26.82-47.83-36.29-7-3.71-14.23-6.96-21.66-9.73,6.02-27.55,30.4-47.21,58.6-47.24h0Z" fill="#fff"/>
      <path id="_패스_438" data-name="패스 438" d="M139.15,231.85c-22.72-29.28-56.21-48.25-93-52.68-5.76-.71-11.56-1.07-17.37-1.07-9.67,0-19.31,1.01-28.77,3.01v18.03c9.42-2.3,19.08-3.46,28.78-3.45,5.09,0,10.17,.32,15.22,.94,32.16,3.88,61.43,20.46,81.29,46.05l13.86-10.82Z" fill="#fff"/>
      <path id="_패스_439" data-name="패스 439" d="M141.21,36h17.58v25h-17.58v-25Z" fill="#fff"/>
      <path id="_패스_440" data-name="패스 440" d="M79.89,57.14l15.22-8.79,12.5,21.65-15.22,8.79-12.5-21.65Z" fill="#fff"/>
      <path id="_패스_441" data-name="패스 441" d="M37.35,106.11l8.79-15.22,21.65,12.5-8.79,15.22-21.65-12.5Z" fill="#fff"/>
      <path id="_패스_442" data-name="패스 442" d="M192.39,70.01l12.5-21.65,15.22,8.79-12.5,21.65-15.22-8.79Z" fill="#fff"/>
      <path id="_패스_443" data-name="패스 443" d="M232.2,103.39l21.65-12.5,8.79,15.22-21.65,12.5-8.79-15.22Z" fill="#fff"/>
    </g>
  </g>
</svg>