<?xml version="1.0" encoding="UTF-8"?>
<svg id="_레이어_2" data-name="레이어 2" xmlns="http://www.w3.org/2000/svg" viewBox="0 0 300 300">
  <g id="_레이어_1-2" data-name="레이어 1">
    <g id="_03자연_shape_03_0020" data-name=" 03자연 shape 03 0020">
      <g id="_그룹_257" data-name="그룹 257">
        <path id="_패스_654" data-name="패스 654" d="M118.78,296.07c4.33-15.57,8.66-31.14,12.99-46.71,6.52-23.39,13.05-46.78,19.58-70.17,1.8-6.47,0-8.89-6.67-8.89-29.87,0-59.74,0-89.61,0h-5.08L179.62,2.6l.59,.27c-2.57,9.28-5.13,18.56-7.7,27.84-8.3,29.75-16.61,59.49-24.92,89.24-1.73,6.2,.14,8.69,6.57,8.69,30,.01,59.99,.01,89.99,0h4.87L119.35,296.4l-.57-.33Z" fill="#fff"/>
      </g>
      <rect id="_사각형_2822" data-name="사각형 2822" width="300" height="300" fill="none"/>
    </g>
  </g>
</svg>