<?xml version="1.0" encoding="UTF-8"?>
<svg id="_레이어_2" data-name="레이어 2" xmlns="http://www.w3.org/2000/svg" viewBox="0 0 300 300">
  <g id="_레이어_1-2" data-name="레이어 1">
    <g id="_03자연_shape_03_0009" data-name=" 03자연 shape 03 0009">
      <rect id="_사각형_2743" data-name="사각형 2743" y="0" width="300" height="300" fill="none"/>
      <path id="_패스_451" data-name="패스 451" d="M262.51,288.57L157.31,117.87v-38.37h87.26c5.48,.08,9.98-4.3,10.05-9.78,.03-2.32-.75-4.57-2.2-6.37l-18.81-23.52,18.81-23.53c3.46-4.33,2.76-10.64-1.57-14.1C249.08,.77,246.86,0,244.58,0h-92.22c-5.55,0-10.04,4.5-10.05,10.05V117.87l-56.9,92.33v.02s-48.3,78.35-48.3,78.35c-2.17,3.53-1.08,8.15,2.45,10.32,1.18,.73,2.54,1.11,3.93,1.12h212.63c4.14,0,7.5-3.36,7.5-7.5,0-1.39-.39-2.75-1.12-3.93ZM157.31,15h76.96l-16.12,20.18c-2.18,2.7-2.18,6.56,0,9.25l16.12,20.07h-76.96V15Zm-7.6,119.45s.07,0,.1,0,.07,0,.1,0l46.91,76.11-7.27,9.61-18.9-18.39c-2.91-2.84-7.55-2.84-10.46,0l-35.26,34.32-23.67-23.05,48.45-78.6ZM56.93,285l36.27-58.86,26.51,25.8c2.91,2.83,7.55,2.83,10.46,0l35.25-34.32,19.75,19.23c2.97,2.89,7.72,2.83,10.61-.14,.22-.22,.42-.46,.61-.71l8.88-11.74,37.43,60.74H56.93Z" fill="#fff"/>
    </g>
  </g>
</svg>