<?xml version="1.0" encoding="UTF-8"?>
<svg id="_레이어_2" data-name="레이어 2" xmlns="http://www.w3.org/2000/svg" viewBox="0 0 300 300">
  <g id="_레이어_1-2" data-name="레이어 1">
    <g id="_03자연_shape_03_0001" data-name=" 03자연 shape 03 0001">
      <rect id="_사각형_2" data-name="사각형 2" width="300" height="300" fill="none"/>
      <path id="_패스_1" data-name="패스 1" d="M143.61,299.43c-.67-.07-1.34-.15-2.01-.25,.67,.09,1.34,.18,2.01,.25Z" fill="none"/>
      <path id="_패스_2" data-name="패스 2" d="M55.52,157.03c.09,2.66,.22,5.3,.4,7.93h0c-.17-2.62-.31-5.27-.4-7.93Z" fill="none"/>
      <path id="_패스_3" data-name="패스 3" d="M138.42,298.65c-2.07-.41-4.12-.92-6.14-1.53,2.02,.61,4.07,1.12,6.14,1.53Z" fill="none"/>
      <path id="_패스_4" data-name="패스 4" d="M131.97,297.03c-3.03-.94-6-2.09-8.86-3.45,2.87,1.36,5.83,2.51,8.86,3.45Z" fill="none"/>
      <path id="_패스_5" data-name="패스 5" d="M159.77,298.98c-.18,.03-.37,.05-.55,.08,.18-.03,.37-.05,.55-.08Z" fill="none"/>
      <path id="_패스_6" data-name="패스 6" d="M155.31,299.54c-.27,.02-.54,.05-.81,.07,.27-.02,.54-.04,.81-.07Z" fill="none"/>
      <path id="_패스_7" data-name="패스 7" d="M122.83,293.45c-2.94-1.41-5.79-3.02-8.52-4.8,2.73,1.78,5.58,3.39,8.52,4.8Z" fill="none"/>
      <path id="_패스_8" data-name="패스 8" d="M157.56,299.3c-.26,.03-.52,.06-.79,.09,.27-.03,.53-.06,.79-.09Z" fill="none"/>
      <path id="_패스_9" data-name="패스 9" d="M152.96,299.7c-.24,.01-.47,.03-.71,.04,.24-.01,.47-.02,.71-.04Z" fill="none"/>
      <path id="_패스_10" data-name="패스 10" d="M162.59,298.45c-.22,.05-.44,.1-.67,.14,.22-.04,.44-.1,.67-.14Z" fill="none"/>
      <path id="_패스_11" data-name="패스 11" d="M147.77,299.74c-.47-.02-.94-.05-1.4-.08,.46,.03,.93,.06,1.4,.08Z" fill="none"/>
      <path id="_패스_12" data-name="패스 12" d="M114.06,288.49c-2.83-1.86-5.55-3.89-8.13-6.08,2.59,2.19,5.3,4.21,8.13,6.08Z" fill="none"/>
      <path id="_패스_13" data-name="패스 13" d="M56.78,174.71c-.23-2.15-.44-4.31-.62-6.49,.18,2.18,.38,4.34,.62,6.49Z" fill="none"/>
      <path id="_패스_14" data-name="패스 14" d="M55.51,156.82c-.04-1.19-.07-2.38-.09-3.58,.02,1.2,.05,2.39,.09,3.58Z" fill="none"/>
      <path id="_패스_15" data-name="패스 15" d="M63.65,210.54c-.4-1.41-.78-2.84-1.15-4.28,.37,1.44,.75,2.86,1.15,4.28Z" fill="none"/>
      <path id="_패스_16" data-name="패스 16" d="M55.41,152.71c-.02-1.35-.03-2.7-.04-4.06,0,1.36,.01,2.71,.04,4.06Z" fill="none"/>
      <path id="_패스_17" data-name="패스 17" d="M62.32,205.56c-1.15-4.53-2.17-9.17-3.05-13.92,.88,4.74,1.9,9.38,3.05,13.92Z" fill="none"/>
      <path id="_패스_18" data-name="패스 18" d="M90.68,266.39c-2.33-3-4.57-6.18-6.72-9.52,2.15,3.34,4.39,6.51,6.72,9.52Z" fill="none"/>
      <path id="_패스_19" data-name="패스 19" d="M97.84,274.75c-1.67-1.77-3.31-3.62-4.9-5.55,1.59,1.93,3.23,3.78,4.9,5.55Z" fill="none"/>
      <path id="_패스_20" data-name="패스 20" d="M83.85,256.71c-2.1-3.28-4.1-6.71-6-10.29,1.9,3.58,3.9,7,6,10.29Z" fill="none"/>
      <path id="_패스_21" data-name="패스 21" d="M77.61,245.98c-.59-1.12-1.18-2.26-1.75-3.42,.57,1.15,1.16,2.29,1.75,3.42Z" fill="none"/>
      <path id="_패스_22" data-name="패스 22" d="M145.65,299.62c-.61-.05-1.22-.1-1.83-.16,.61,.06,1.22,.12,1.83,.16Z" fill="none"/>
      <path id="_패스_23" data-name="패스 23" d="M223.6,243.63c-.57,1.12-1.14,2.23-1.73,3.32,.59-1.09,1.16-2.2,1.73-3.32Z" fill="none"/>
      <path id="_패스_24" data-name="패스 24" d="M221.69,247.29c-.64,1.19-1.3,2.37-1.97,3.53,.67-1.16,1.32-2.34,1.97-3.53Z" fill="none"/>
      <path id="_패스_25" data-name="패스 25" d="M219.31,251.52c-.56,.96-1.13,1.91-1.7,2.85,.57-.94,1.14-1.89,1.7-2.85Z" fill="none"/>
      <path id="_패스_26" data-name="패스 26" d="M235.75,212.63c-.88,3-1.82,5.95-2.81,8.83,1-2.89,1.93-5.83,2.81-8.83Z" fill="none"/>
      <path id="_패스_27" data-name="패스 27" d="M217.2,255.05c-.69,1.11-1.38,2.19-2.09,3.27,.71-1.07,1.4-2.16,2.09-3.27Z" fill="none"/>
      <path id="_패스_28" data-name="패스 28" d="M227.57,235.21c-1.15,2.61-2.34,5.16-3.58,7.65,1.24-2.49,2.44-5.04,3.58-7.65Z" fill="none"/>
      <path id="_패스_29" data-name="패스 29" d="M232.76,221.96c-.45,1.31-.92,2.6-1.4,3.89,.48-1.28,.95-2.58,1.4-3.89Z" fill="none"/>
      <path id="_패스_30" data-name="패스 30" d="M229.44,230.78c-.51,1.26-1.03,2.5-1.57,3.74,.53-1.24,1.06-2.48,1.57-3.74Z" fill="none"/>
      <path id="_패스_31" data-name="패스 31" d="M214.77,258.81c-.61,.91-1.23,1.81-1.85,2.7,.62-.89,1.24-1.79,1.85-2.7Z" fill="none"/>
      <path id="_패스_32" data-name="패스 32" d="M231.18,226.33c-.53,1.41-1.08,2.81-1.63,4.19,.56-1.38,1.1-2.78,1.63-4.19Z" fill="none"/>
      <path id="_패스_33" data-name="패스 33" d="M238.35,202.87c-.75,3.11-1.56,6.16-2.43,9.17,.87-3.01,1.68-6.06,2.43-9.17Z" fill="none"/>
      <path id="_패스_34" data-name="패스 34" d="M164.94,297.9c-.28,.07-.57,.14-.85,.21,.28-.07,.57-.14,.85-.21Z" fill="none"/>
      <path id="_패스_35" data-name="패스 35" d="M171.91,295.7c-.22,.08-.44,.17-.67,.25,.22-.08,.44-.17,.67-.25Z" fill="none"/>
      <path id="_패스_36" data-name="패스 36" d="M212.39,262.27c-.73,1.03-1.48,2.05-2.23,3.04,.75-.99,1.5-2.01,2.23-3.04Z" fill="none"/>
      <path id="_패스_37" data-name="패스 37" d="M174.26,294.76c-.3,.12-.59,.25-.89,.37,.3-.12,.59-.25,.89-.37Z" fill="none"/>
      <path id="_패스_38" data-name="패스 38" d="M167.13,297.3c-.29,.09-.59,.17-.88,.25,.29-.08,.59-.16,.88-.25Z" fill="none"/>
      <path id="_패스_39" data-name="패스 39" d="M195.86,280.87c-3.86,3.44-8.03,6.53-12.45,9.21,4.42-2.68,8.59-5.77,12.45-9.21Z" fill="none"/>
      <path id="_패스_40" data-name="패스 40" d="M176.38,293.82c-.31,.14-.62,.28-.93,.42,.31-.14,.62-.28,.93-.42Z" fill="none"/>
      <path id="_패스_41" data-name="패스 41" d="M207.26,268.98c-1.8,2.19-3.65,4.27-5.55,6.25,1.9-1.98,3.75-4.07,5.55-6.25Z" fill="none"/>
      <path id="_패스_42" data-name="패스 42" d="M178.43,292.84c-.3,.15-.6,.3-.9,.44,.3-.15,.6-.29,.9-.44Z" fill="none"/>
      <path id="_패스_43" data-name="패스 43" d="M169.27,296.64c-.27,.09-.53,.17-.8,.25,.26-.08,.53-.17,.8-.25Z" fill="none"/>
      <path id="_패스_44" data-name="패스 44" d="M153.08,151.31l9.46,9.46v-6.73l-9.46-9.46v6.73Z" fill="none"/>
      <path id="_패스_45" data-name="패스 45" d="M165.72,219.15c10.16-12.44,22.53-22.89,36.49-30.84v-12.95c-12.65,3.67-24.88,8.66-36.49,14.88v28.9h0Z" fill="none"/>
      <path id="_패스_46" data-name="패스 46" d="M153.08,162.93l9.46,9.46v-7.13l-9.46-9.46v7.13Z" fill="none"/>
      <path id="_패스_47" data-name="패스 47" d="M162.54,223.25v-31.22c-29.25,16.53-52.94,40.85-67.2,71.73,12.59,16.02,27.4,26.15,43.1,29.49,.38-15.32,3.63-30.43,9.57-44.55,3.8-9.04,8.68-17.58,14.53-25.45Z" fill="none"/>
      <path id="_패스_48" data-name="패스 48" d="M153.08,176.18l9.46,9.46v-8.76l-9.46-9.46v8.76Z" fill="none"/>
      <path id="_패스_49" data-name="패스 49" d="M175.17,144.58l-9.46,9.45v6.73l9.45-9.46v-6.72Z" fill="none"/>
      <path id="_패스_50" data-name="패스 50" d="M57.19,178.24c.38,3.03,.81,6.03,1.3,9h0c-.49-2.96-.92-5.96-1.3-9Z" fill="none"/>
      <path id="_패스_51" data-name="패스 51" d="M164.13,130.66c-.86,0-3.15,0-3.15,6.82v10.51l3.15,3.15,3.15-3.15v-10.51c0-6.82-2.29-6.82-3.15-6.82Z" fill="none"/>
      <path id="_패스_52" data-name="패스 52" d="M165.72,185.64l9.45-9.46v-8.75l-9.45,9.45v8.76Z" fill="none"/>
      <path id="_패스_53" data-name="패스 53" d="M210.08,256.3c.79-1.18,1.57-2.37,2.34-3.59,8.84-14.11,15.64-30.63,20.2-48.64-13.64,14.07-21.66,32.65-22.54,52.23h0Z" fill="none"/>
      <path id="_패스_54" data-name="패스 54" d="M113.5,81.66c19.27,0,34.9-15.62,34.9-34.9,0-11.32-5.49-21.93-14.72-28.48-1.45,2.47-2.93,5.25-4.52,8.31-.85,1.63-1.72,3.29-2.62,4.96,8.4,7.19,9.39,19.82,2.2,28.22-7.19,8.4-19.82,9.39-28.22,2.2-.57-.49-1.12-1.01-1.64-1.57-4.72,3.07-8.86,5.79-12.47,8.33,6.62,8.17,16.57,12.91,27.08,12.91Z" fill="none"/>
      <path id="_패스_55" data-name="패스 55" d="M205.39,186.54c10.33-5.56,21.27-9.9,32.61-12.92,.19-1.78,.36-3.56,.51-5.35-11.19,1.16-22.26,3.23-33.11,6.2v12.07Z" fill="none"/>
      <path id="_패스_56" data-name="패스 56" d="M189.78,237.36c-6.21,14.82-8.65,30.96-7.08,46.95,8.66-5.61,16.79-13.46,24.11-23.37-.28-23.82,9.62-46.62,27.2-62.69,.75-3.38,1.4-6.83,2-10.3-20.57,10.83-37.07,27.64-46.23,49.41Z" fill="none"/>
      <path id="_패스_57" data-name="패스 57" d="M192.75,126.58l9.46,9.46v-6.73l-9.46-9.46v6.73Z" fill="none"/>
      <path id="_패스_58" data-name="패스 58" d="M192.75,138.2l9.46,9.46v-7.12l-9.46-9.46v7.12Z" fill="none"/>
      <path id="_패스_59" data-name="패스 59" d="M214.84,119.85l-9.45,9.46v6.73l9.45-9.46v-6.73Z" fill="none"/>
      <path id="_패스_60" data-name="패스 60" d="M203.8,105.93c-.86,0-3.15,0-3.15,6.82v10.51l3.15,3.15,3.15-3.15v-10.51c0-6.82-2.28-6.82-3.15-6.82Z" fill="none"/>
      <path id="_패스_61" data-name="패스 61" d="M150.94,249.93c-5.85,13.91-9.01,28.81-9.33,43.9,2.78,.43,5.58,.65,8.39,.65,10.46-.08,20.71-2.95,29.69-8.32-1.92-17.02,.55-34.25,7.17-50.04,9.76-23.22,27.61-40.98,49.81-52.08,.36-2.32,.68-4.66,.96-7.02-38.95,10.78-71.25,36.16-86.69,72.91Z" fill="none"/>
      <path id="_패스_62" data-name="패스 62" d="M214.84,131.08l-9.45,9.46v7.12l9.45-9.46v-7.12Z" fill="none"/>
      <path id="_패스_63" data-name="패스 63" d="M205.39,160.91l9.45-9.46v-8.75l-9.45,9.46v8.75Z" fill="none"/>
      <path id="_패스_64" data-name="패스 64" d="M130.36,46.74c0-4.68-1.96-9.15-5.4-12.33-4.32,7.64-9.57,15.2-17.35,20.31-2.1,1.38-4.1,2.68-6.04,3.94,6.58,6.59,17.25,6.6,23.84,.02,3.17-3.16,4.95-7.46,4.95-11.94h0Z" fill="none"/>
      <path id="_패스_65" data-name="패스 65" d="M175.17,155.81l-9.45,9.46v7.12l9.45-9.46v-7.12Z" fill="none"/>
      <path id="_패스_66" data-name="패스 66" d="M195.87,280.87c1.99-1.76,3.93-3.64,5.83-5.62-1.9,1.98-3.84,3.85-5.83,5.62Z" fill="none"/>
      <path id="_패스_67" data-name="패스 67" d="M131.54,11.7c-.25,.37-.5,.74-.75,1.12h0c.24-.38,.5-.75,.75-1.12Z" fill="none"/>
      <path id="_패스_68" data-name="패스 68" d="M129.13,15.54c-1.77,3.02-3.45,6.28-5.19,9.6,1.73-3.32,3.42-6.58,5.19-9.6Z" fill="none"/>
      <path id="_패스_69" data-name="패스 69" d="M86.22,62.44c-.97,.66-1.91,1.32-2.83,1.96h0c.91-.64,1.85-1.3,2.83-1.96Z" fill="none"/>
      <path id="_패스_70" data-name="패스 70" d="M96.16,187.16v-7.58c-3.71-1.53-7.51-2.95-11.4-4.26-7.59-2.54-15.34-4.59-23.2-6.13,.22,2.56,.48,5.11,.78,7.64,12.23,4.9,23.64,11.66,33.82,20.03v-9.71Z" fill="none"/>
      <path id="_패스_71" data-name="패스 71" d="M109.8,46.19c-.2,.19-.4,.38-.61,.56,.2-.19,.41-.38,.61-.56Z" fill="none"/>
      <path id="_패스_72" data-name="패스 72" d="M73.98,238.65c.6,1.28,1.2,2.55,1.83,3.8-.62-1.25-1.23-2.52-1.83-3.8Z" fill="none"/>
      <path id="_패스_73" data-name="패스 73" d="M85.78,172.31c2.36,.79,4.69,1.63,6.99,2.51l-9.24-9.24v-46.35h3.18v8.94l4.72,4.72v-30.64h3.18v14.18c1.94-1.16,4.36-1.16,6.29,0v-14.18h3.18v30.64l4.72-4.72v-8.94h3.18v46.35l-12.12,12.12c14.74,6.28,28.47,14.7,40.75,24.98,6.6-5.04,13.55-9.62,20.79-13.68l-11.5-11.5v-46.35h3.18v8.94l4.72,4.72v-30.65h3.18v14.18c1.94-1.16,4.36-1.16,6.3,0v-14.18h3.18v30.64l4.72-4.72v-8.94h3.18v46.35l-5.7,5.7c9.53-4.51,19.41-8.23,29.54-11.14v-6.66l-12.64-12.64v-46.35h3.18v8.94l4.72,4.72v-30.64h3.18v14.19c1.94-1.16,4.36-1.16,6.29,0v-14.19h3.18v30.64l4.72-4.72v-8.94h3.18v46.35l-12.64,12.64v5.77c10.94-2.94,22.09-4.99,33.36-6.12,.37-5.41,.58-10.88,.58-16.4,0-39.2-9.54-75.66-26.88-102.65-16.76-26.11-38.94-40.48-62.46-40.48-6.33,0-10.51,3.66-14.65,10.05,17.23,12.06,21.42,35.8,9.36,53.02-12.06,17.23-35.8,21.42-53.02,9.36-2.95-2.07-5.6-4.54-7.86-7.35-7.49,5.54-12.51,10.54-15.91,17.35-5.35,10.71-7.25,26.59-7.25,60.69,0,5.82,.23,11.58,.65,17.27,8.29,1.58,16.46,3.72,24.46,6.4ZM168.95,62.39c2.28-.08,4.53,.57,6.41,1.85,1.86-4.4,7.02-12.88,19.13-12.88,10.85,0,19.68,10,19.68,22.3,0,.88-.72,1.59-1.59,1.59-.88,0-1.58-.71-1.59-1.59,0-10.54-7.4-19.12-16.5-19.12-13.7,0-16.81,12.46-16.93,13-.2,.86-1.06,1.38-1.91,1.18-.45-.11-.83-.4-1.05-.82-.04-.07-1.37-2.33-5.65-2.33s-5.93,4.1-6.41,6.5h39.5c.88,0,1.59,.71,1.59,1.59s-.71,1.59-1.59,1.59h-41.33c-.88,0-1.59-.71-1.59-1.59,0-.03,0-.05,0-.08,.19-3.88,2.49-11.2,9.81-11.2h0Z" fill="none"/>
      <path id="_패스_74" data-name="패스 74" d="M179.71,292.17c.25-.13,.5-.26,.74-.39h0c-.25,.13-.5,.26-.74,.39Z" fill="none"/>
      <path id="_패스_75" data-name="패스 75" d="M98.01,274.93c2.43,2.57,5,5.01,7.7,7.3-2.7-2.29-5.27-4.73-7.7-7.3Z" fill="none"/>
      <path id="_패스_76" data-name="패스 76" d="M90.56,230.88c-5.42-13.26-13.97-25.02-24.91-34.27,4.48,20.91,11.89,40.05,21.93,56.09,1.8,2.87,3.66,5.61,5.58,8.2,1.07-2.25,2.18-4.46,3.34-6.64-.89-8.03-2.89-15.9-5.94-23.38Z" fill="none"/>
      <path id="_패스_77" data-name="패스 77" d="M86.71,164.26l9.46,9.46v-8.75l-9.46-9.46v8.75Z" fill="none"/>
      <path id="_패스_78" data-name="패스 78" d="M86.71,139.4l9.46,9.46v-6.73l-9.46-9.46v6.73Z" fill="none"/>
      <path id="_패스_79" data-name="패스 79" d="M86.71,151.02l9.46,9.46v-7.12l-9.46-9.46v7.12Z" fill="none"/>
      <path id="_패스_80" data-name="패스 80" d="M108.8,143.9l-9.46,9.46v7.12l9.45-9.46v-7.12Z" fill="none"/>
      <path id="_패스_81" data-name="패스 81" d="M93.5,229.68c2.62,6.42,4.49,13.11,5.58,19.95,5.1-8.8,11.04-17.09,17.74-24.74-12.51-19.45-31.04-34.76-53.99-44.44,.52,3.78,1.1,7.53,1.8,11.22,12.78,9.92,22.74,23.03,28.87,38Z" fill="none"/>
      <path id="_패스_82" data-name="패스 82" d="M99.34,199.64c7.53,6.71,14.15,14.38,19.67,22.82,5.87-6.42,12.23-12.36,19.04-17.77-11.71-9.71-24.74-17.71-38.71-23.75v18.7h0Z" fill="none"/>
      <path id="_패스_83" data-name="패스 83" d="M99.34,173.72l9.45-9.46v-8.75l-9.45,9.46v8.75Z" fill="none"/>
      <path id="_패스_84" data-name="패스 84" d="M108.8,132.67l-9.46,9.46v6.73l9.45-9.46v-6.73Z" fill="none"/>
      <path id="_패스_85" data-name="패스 85" d="M97.75,118.74c-.86,0-3.15,0-3.15,6.82v10.51l3.15,3.15,3.15-3.15v-10.51c0-6.82-2.29-6.82-3.15-6.82Z" fill="none"/>
      <path id="_패스_86" data-name="패스 86" d="M58.36,100.4c.04-.21,.09-.42,.13-.63-.04,.21-.09,.42-.13,.63Z" fill="none"/>
      <path id="_패스_87" data-name="패스 87" d="M63.02,85.92c.08-.17,.17-.34,.26-.51-.08,.17-.17,.34-.26,.51Z" fill="none"/>
      <path id="_패스_88" data-name="패스 88" d="M61.36,89.74c.07-.17,.13-.34,.2-.51-.07,.17-.13,.34-.2,.51Z" fill="none"/>
      <path id="_패스_89" data-name="패스 89" d="M61.83,88.55c.08-.18,.15-.36,.23-.54-.08,.18-.15,.36-.23,.54Z" fill="none"/>
      <path id="_패스_90" data-name="패스 90" d="M60.31,92.71c.06-.2,.13-.4,.19-.59-.07,.2-.13,.39-.19,.59Z" fill="none"/>
      <path id="_패스_91" data-name="패스 91" d="M62.34,87.37c.08-.17,.15-.34,.23-.51-.08,.17-.15,.34-.23,.51Z" fill="none"/>
      <path id="_패스_92" data-name="패스 92" d="M60.76,91.4c.06-.18,.12-.35,.18-.53-.06,.17-.12,.35-.18,.53Z" fill="none"/>
      <path id="_패스_93" data-name="패스 93" d="M59.91,94.03c.06-.2,.12-.39,.18-.58-.06,.19-.12,.38-.18,.58Z" fill="none"/>
      <path id="_패스_94" data-name="패스 94" d="M58.7,98.77c.05-.21,.1-.43,.14-.64-.05,.21-.1,.42-.14,.64Z" fill="none"/>
      <path id="_패스_95" data-name="패스 95" d="M59.04,97.3c.05-.21,.1-.42,.15-.63-.05,.21-.1,.42-.15,.63Z" fill="none"/>
      <path id="_패스_96" data-name="패스 96" d="M59.43,95.77c.06-.23,.12-.45,.18-.67-.06,.22-.12,.45-.18,.67Z" fill="none"/>
      <path id="_패스_97" data-name="패스 97" d="M192.75,151.45l9.46,9.46v-8.75l-9.46-9.46v8.75Z" fill="none"/>
      <path id="_패스_98" data-name="패스 98" d="M68.01,78.04c.11-.14,.23-.28,.35-.42-.12,.14-.23,.28-.35,.42Z" fill="none"/>
      <path id="_패스_99" data-name="패스 99" d="M68.76,77.12c.12-.15,.25-.29,.38-.44-.13,.15-.25,.29-.38,.44Z" fill="none"/>
      <path id="_패스_100" data-name="패스 100" d="M69.55,76.21c.12-.14,.25-.28,.38-.42-.13,.14-.25,.28-.38,.42Z" fill="none"/>
      <path id="_패스_101" data-name="패스 101" d="M67.05,79.29c.1-.14,.2-.27,.3-.41-.1,.14-.2,.27-.3,.41Z" fill="none"/>
      <path id="_패스_102" data-name="패스 102" d="M64.2,83.69c.09-.16,.18-.32,.27-.49-.09,.16-.18,.32-.27,.49Z" fill="none"/>
      <path id="_패스_103" data-name="패스 103" d="M64.85,82.56c.13-.21,.26-.42,.39-.63-.13,.21-.26,.42-.39,.63Z" fill="none"/>
      <path id="_패스_104" data-name="패스 104" d="M63.61,84.75c.09-.17,.18-.33,.27-.5-.09,.17-.18,.33-.27,.5Z" fill="none"/>
      <path id="_패스_105" data-name="패스 105" d="M66.33,80.29c.11-.15,.21-.31,.32-.46-.11,.15-.22,.3-.32,.46Z" fill="none"/>
      <path id="_패스_106" data-name="패스 106" d="M65.66,81.27c.1-.16,.21-.31,.31-.46-.1,.15-.21,.31-.31,.46Z" fill="none"/>
      <path id="_패스_107" data-name="패스 107" d="M56.49,114.05c.02-.18,.03-.36,.05-.53-.01,.18-.03,.36-.05,.53Z" fill="none"/>
      <path id="_패스_108" data-name="패스 108" d="M55.51,133.84c0-.29,.01-.59,.02-.88,0,.29-.01,.58-.02,.88Z" fill="none"/>
      <path id="_패스_109" data-name="패스 109" d="M55.46,136.46c0-.25,0-.49,.01-.74,0,.25-.01,.49-.01,.74Z" fill="none"/>
      <path id="_패스_110" data-name="패스 110" d="M55.58,131.17c0-.24,.01-.49,.02-.73,0,.24-.01,.49-.02,.73Z" fill="none"/>
      <path id="_패스_111" data-name="패스 111" d="M55.67,128.07c0-.21,.02-.41,.02-.61,0,.21-.01,.4-.02,.61Z" fill="none"/>
      <path id="_패스_112" data-name="패스 112" d="M55.87,123.36c.01-.26,.02-.51,.04-.77-.01,.25-.03,.51-.04,.77Z" fill="none"/>
      <path id="_패스_113" data-name="패스 113" d="M55.76,125.72c.01-.27,.02-.55,.04-.82-.01,.27-.02,.54-.04,.82Z" fill="none"/>
      <path id="_패스_114" data-name="패스 114" d="M55.42,139.69c0-.2,0-.39,0-.59,0,.2,0,.39,0,.59Z" fill="none"/>
      <path id="_패스_115" data-name="패스 115" d="M55.38,145.71v-.87c0,.29,0,.57,0,.87Z" fill="none"/>
      <path id="_패스_117" data-name="패스 117" d="M55.39,142.8c0-.31,0-.62,0-.93,0,.31,0,.62,0,.93Z" fill="none"/>
      <path id="_패스_118" data-name="패스 118" d="M57.45,105.69c.03-.2,.06-.4,.09-.61-.03,.2-.06,.4-.09,.61Z" fill="none"/>
      <path id="_패스_119" data-name="패스 119" d="M56.91,109.84c.03-.25,.06-.5,.09-.75-.03,.25-.06,.5-.09,.75Z" fill="none"/>
      <path id="_패스_120" data-name="패스 120" d="M57.98,102.37c.04-.22,.08-.44,.12-.66-.04,.22-.08,.44-.12,.66Z" fill="none"/>
      <path id="_패스_121" data-name="패스 121" d="M57.14,107.95c.03-.22,.05-.43,.08-.65-.03,.21-.05,.43-.08,.65Z" fill="none"/>
      <path id="_패스_122" data-name="패스 122" d="M57.7,104.02c.04-.23,.08-.47,.11-.7-.04,.23-.08,.47-.11,.7Z" fill="none"/>
      <path id="_패스_123" data-name="패스 123" d="M56.16,118.36c.02-.26,.04-.52,.05-.77-.02,.26-.04,.51-.05,.77Z" fill="none"/>
      <path id="_패스_124" data-name="패스 124" d="M56.71,111.69c.02-.23,.05-.46,.07-.69-.03,.23-.05,.46-.07,.69Z" fill="none"/>
      <path id="_패스_125" data-name="패스 125" d="M56.02,120.51c0-.14,.02-.28,.03-.42,0,.14-.02,.28-.03,.42Z" fill="none"/>
      <path id="_패스_126" data-name="패스 126" d="M56.31,116.27c.02-.26,.04-.52,.06-.77-.02,.26-.04,.52-.06,.77Z" fill="none"/>
      <path id="_패스_127" data-name="패스 127" d="M70.59,75.07c.15-.16,.31-.32,.46-.48-.16,.16-.31,.32-.46,.48Z" fill="none"/>
      <path id="_패스_128" data-name="패스 128" d="M132.87,9.84c.41-.54,.83-1.07,1.26-1.58-.43,.51-.85,1.04-1.26,1.58Z" fill="none"/>
      <path id="_패스_129" data-name="패스 129" d="M145.66,.69c.19-.04,.38-.08,.58-.11-.19,.04-.39,.07-.58,.11Z" fill="none"/>
      <path id="_패스_130" data-name="패스 130" d="M143.97,1.14c.11-.04,.23-.06,.34-.1-.11,.04-.23,.06-.34,.1Z" fill="none"/>
      <path id="_패스_131" data-name="패스 131" d="M147.53,.38c.19-.02,.37-.05,.56-.07-.19,.02-.37,.04-.56,.07Z" fill="none"/>
      <path id="_패스_132" data-name="패스 132" d="M141.89,1.98c.17-.08,.34-.17,.52-.24-.17,.08-.34,.16-.52,.24Z" fill="none"/>
      <path id="_패스_133" data-name="패스 133" d="M211.93,35.91c1.14,1.54,2.26,3.13,3.36,4.75-1.1-1.63-2.22-3.21-3.36-4.75Z" fill="none"/>
      <path id="_패스_134" data-name="패스 134" d="M135.78,6.43c.2-.21,.41-.41,.62-.61-.21,.2-.41,.4-.62,.61Z" fill="none"/>
      <path id="_패스_135" data-name="패스 135" d="M140.32,2.81c.19-.11,.38-.22,.57-.33-.19,.11-.38,.22-.57,.33Z" fill="none"/>
      <path id="_패스_136" data-name="패스 136" d="M222.23,52.14c.75,1.39,1.5,2.8,2.22,4.23-.72-1.43-1.47-2.84-2.22-4.23Z" fill="none"/>
      <path id="_패스_137" data-name="패스 137" d="M137.1,5.19c.19-.17,.37-.33,.56-.49-.19,.16-.37,.33-.56,.49Z" fill="none"/>
      <path id="_패스_138" data-name="패스 138" d="M138.9,3.74c.17-.12,.34-.23,.51-.34-.17,.11-.34,.22-.51,.34Z" fill="none"/>
      <path id="_패스_139" data-name="패스 139" d="M243.88,167.79c-.12,1.5-.25,2.98-.4,4.47,.15-1.48,.28-2.97,.4-4.47Z" fill="none"/>
      <path id="_패스_140" data-name="패스 140" d="M243.13,175.62c-.22,1.93-.46,3.84-.73,5.74,.26-1.9,.51-3.82,.73-5.74Z" fill="none"/>
      <path id="_패스_141" data-name="패스 141" d="M241.86,185.08c-.2,1.29-.41,2.56-.63,3.84,.22-1.27,.43-2.55,.63-3.84Z" fill="none"/>
      <path id="_패스_142" data-name="패스 142" d="M241.21,189c-.22,1.27-.45,2.54-.69,3.8,.24-1.26,.47-2.53,.69-3.8Z" fill="none"/>
      <path id="_패스_143" data-name="패스 143" d="M134.58,7.72c.21-.24,.42-.46,.63-.69-.21,.23-.42,.45-.63,.69Z" fill="none"/>
      <path id="_패스_144" data-name="패스 144" d="M244.63,148.82c0,1.28-.01,2.55-.03,3.82,.02-1.27,.03-2.54,.03-3.82Z" fill="none"/>
      <path id="_패스_145" data-name="패스 145" d="M244.49,156.82c-.09,2.6-.21,5.18-.38,7.75,.17-2.56,.3-5.15,.38-7.75Z" fill="none"/>
      <path id="_패스_146" data-name="패스 146" d="M231.77,73.26c.49,1.31,.97,2.64,1.43,3.98-.46-1.34-.94-2.66-1.43-3.98Z" fill="none"/>
      <path id="_패스_147" data-name="패스 147" d="M239.49,99.69c.11,.49,.21,.99,.32,1.49-.11-.5-.21-.99-.32-1.49Z" fill="none"/>
      <path id="_패스_148" data-name="패스 148" d="M244.58,153.15c-.02,1.17-.05,2.34-.09,3.5,.04-1.17,.07-2.33,.09-3.5Z" fill="none"/>
      <path id="_패스_149" data-name="패스 149" d="M86.23,62.43c.97-.66,1.96-1.33,2.99-2.01-1.02,.68-2.02,1.35-2.99,2.01Z" fill="none"/>
      <path id="_패스_150" data-name="패스 150" d="M76.56,69.56c.29-.23,.58-.47,.87-.71-.29,.24-.59,.47-.87,.71Z" fill="none"/>
      <path id="_패스_151" data-name="패스 151" d="M239.54,197.66c-.33,1.56-.69,3.11-1.06,4.65,.37-1.54,.72-3.09,1.06-4.65Z" fill="none"/>
      <path id="_패스_152" data-name="패스 152" d="M79.06,67.57c.2-.16,.41-.31,.62-.47-.21,.16-.41,.31-.62,.47Z" fill="none"/>
      <path id="_패스_153" data-name="패스 153" d="M71.5,74.13c.14-.14,.29-.29,.43-.43-.14,.14-.29,.29-.43,.43Z" fill="none"/>
      <path id="_패스_154" data-name="패스 154" d="M80.15,66.75c.21-.16,.43-.32,.65-.48-.22,.16-.43,.32-.65,.48Z" fill="none"/>
      <path id="_패스_155" data-name="패스 155" d="M74.58,71.24l.5-.43-.5,.43Z" fill="none"/>
      <path id="_패스_156" data-name="패스 156" d="M73.34,72.35c.24-.22,.48-.44,.72-.66-.24,.22-.48,.43-.72,.66Z" fill="none"/>
      <path id="_패스_157" data-name="패스 157" d="M72.38,73.26c.15-.14,.3-.29,.45-.43-.15,.14-.3,.29-.45,.43Z" fill="none"/>
      <path id="_패스_158" data-name="패스 158" d="M75.55,70.4c.17-.15,.35-.29,.52-.44-.18,.15-.35,.29-.52,.44Z" fill="none"/>
      <path id="_패스_159" data-name="패스 159" d="M89.26,60.39c1.01-.67,2.05-1.36,3.12-2.06-1.07,.7-2.11,1.39-3.12,2.06Z" fill="none"/>
      <path id="_패스_160" data-name="패스 160" d="M78,68.4c.19-.15,.39-.31,.59-.46-.2,.15-.39,.31-.59,.46Z" fill="none"/>
      <path id="_패스_161" data-name="패스 161" d="M113.6,42.01c.12-.15,.24-.31,.36-.46-.12,.15-.24,.31-.36,.46Z" fill="none"/>
      <path id="_패스_162" data-name="패스 162" d="M111.58,44.37c.05-.06,.1-.11,.15-.16-.05,.06-.1,.11-.15,.16Z" fill="none"/>
      <path id="_패스_163" data-name="패스 163" d="M115.39,39.66c.12-.17,.24-.33,.36-.5-.11,.17-.24,.33-.36,.5Z" fill="none"/>
      <path id="_패스_164" data-name="패스 164" d="M131.82,11.29c.23-.34,.47-.68,.71-1-.24,.33-.47,.66-.71,1Z" fill="none"/>
      <path id="_패스_165" data-name="패스 165" d="M106.99,48.63c.22-.17,.43-.35,.64-.53-.21,.17-.42,.36-.64,.53Z" fill="none"/>
      <path id="_패스_166" data-name="패스 166" d="M92.51,58.24c1.06-.7,2.15-1.41,3.27-2.13-1.12,.73-2.21,1.44-3.27,2.13Z" fill="none"/>
      <path id="_패스_167" data-name="패스 167" d="M101.26,52.55l.51-.33c-.17,.11-.34,.22-.51,.33Z" fill="none"/>
      <path id="_패스_168" data-name="패스 168" d="M160.72,75.25h41.32c.88,0,1.59-.71,1.59-1.59s-.71-1.59-1.59-1.59h-39.51c.48-2.39,1.95-6.5,6.41-6.5s5.61,2.26,5.65,2.33c.4,.78,1.36,1.08,2.14,.68,.41-.21,.71-.6,.82-1.05,.12-.53,3.23-13,16.93-13,9.1,0,16.5,8.58,16.5,19.12,0,.88,.72,1.59,1.59,1.59,.88,0,1.58-.71,1.59-1.59,0-12.29-8.83-22.3-19.68-22.3-12.11,0-17.27,8.48-19.13,12.88-1.89-1.28-4.13-1.93-6.41-1.85-7.32,0-9.62,7.32-9.81,11.19-.04,.88,.63,1.62,1.51,1.67,.03,0,.05,0,.08,0h0Z" fill="#fff"/>
      <path id="_패스_169" data-name="패스 169" d="M55.37,148.65c0,1.36,.01,2.71,.04,4.06,0,.18,0,.36,.01,.54,.02,1.2,.05,2.39,.09,3.58,0,.07,0,.13,0,.2,.09,2.66,.23,5.3,.4,7.93h0c.07,1.09,.15,2.18,.24,3.27,.18,2.18,.38,4.34,.62,6.49,.13,1.18,.26,2.36,.41,3.53,.38,3.03,.81,6.03,1.3,9h0c.24,1.48,.5,2.94,.77,4.4,.88,4.74,1.9,9.38,3.05,13.92l.18,.7c.37,1.44,.75,2.86,1.15,4.28,2.69,9.63,6.14,19.03,10.33,28.11h0c.6,1.28,1.2,2.55,1.83,3.8l.06,.12c.57,1.15,1.16,2.29,1.75,3.42,.08,.15,.16,.3,.24,.45,1.9,3.58,3.9,7.01,6,10.29l.1,.15c2.15,3.34,4.39,6.51,6.72,9.52,.74,.96,1.5,1.9,2.26,2.82,1.6,1.93,3.23,3.78,4.9,5.55l.18,.18c2.43,2.57,5,5.01,7.7,7.3l.21,.18c2.59,2.19,5.3,4.21,8.13,6.08l.25,.16c2.73,1.78,5.58,3.39,8.52,4.8l.28,.13c2.87,1.36,5.83,2.51,8.86,3.45l.3,.09c2.02,.61,4.07,1.12,6.14,1.53,1.06,.21,2.12,.38,3.19,.53,.67,.09,1.34,.18,2.01,.25l.21,.02c.61,.07,1.22,.12,1.83,.16,.24,.02,.48,.03,.72,.04,.47,.03,.93,.06,1.4,.08,.74,.03,1.48,.05,2.23,.05s1.5-.02,2.25-.05c.24,0,.47-.02,.71-.04,.51-.02,1.03-.06,1.54-.09,.27-.02,.54-.04,.81-.07,.49-.04,.98-.09,1.47-.15,.26-.03,.52-.06,.79-.09,.55-.07,1.11-.15,1.66-.24,.18-.03,.37-.05,.55-.08,.72-.12,1.44-.25,2.15-.39,.22-.05,.44-.1,.67-.14,.5-.11,1-.22,1.5-.34,.29-.07,.57-.14,.85-.21,.44-.11,.88-.23,1.31-.35,.29-.08,.59-.16,.88-.25,.45-.13,.89-.27,1.33-.41,.27-.08,.54-.17,.8-.25,.66-.22,1.32-.45,1.97-.69,.22-.08,.44-.17,.67-.25,.49-.19,.98-.38,1.47-.57,.3-.12,.59-.25,.89-.37,.4-.17,.79-.34,1.18-.51,.31-.14,.62-.28,.93-.42,.38-.18,.77-.36,1.15-.55,.3-.15,.6-.29,.9-.44,.43-.22,.85-.44,1.28-.66,.25-.13,.5-.26,.74-.39h0c.99-.54,1.98-1.11,2.96-1.7,4.42-2.68,8.59-5.77,12.45-9.21h0c1.99-1.76,3.93-3.64,5.83-5.62h.01c1.9-1.99,3.75-4.08,5.55-6.27,.98-1.19,1.95-2.41,2.9-3.66,.76-.99,1.5-2.01,2.23-3.04,.18-.25,.36-.5,.53-.76,.62-.89,1.24-1.79,1.85-2.7,.11-.17,.22-.33,.33-.5,.71-1.07,1.4-2.16,2.09-3.27,.14-.22,.27-.45,.41-.68,.58-.94,1.14-1.89,1.7-2.85,.14-.23,.27-.47,.41-.7,.67-1.16,1.32-2.34,1.97-3.53,.06-.11,.12-.23,.18-.34,.59-1.09,1.16-2.2,1.73-3.32,.13-.25,.26-.51,.38-.76,1.24-2.49,2.44-5.04,3.58-7.65,.1-.23,.2-.46,.3-.7,.53-1.23,1.06-2.48,1.57-3.74,.04-.08,.07-.17,.11-.26,.56-1.38,1.1-2.78,1.63-4.19,.06-.16,.12-.32,.18-.48,.48-1.28,.94-2.58,1.4-3.89,.06-.17,.12-.33,.17-.5,1-2.89,1.93-5.83,2.81-8.83,.06-.19,.11-.39,.17-.59,.87-3.01,1.68-6.06,2.43-9.17,.05-.19,.09-.37,.13-.56,.37-1.54,.72-3.09,1.06-4.65,.34-1.61,.67-3.23,.98-4.87,.24-1.26,.47-2.53,.69-3.8v-.09c.23-1.27,.44-2.55,.64-3.84,.19-1.23,.37-2.47,.54-3.72,.26-1.9,.51-3.82,.73-5.74,.13-1.12,.24-2.24,.35-3.36,.15-1.48,.28-2.97,.4-4.47,.09-1.07,.16-2.15,.23-3.23,.17-2.56,.3-5.15,.38-7.75,0-.06,0-.11,0-.17,.04-1.16,.07-2.33,.09-3.5,0-.17,0-.34,.01-.51,.02-1.27,.03-2.54,.03-3.82v-.18c.04-15.95-1.58-31.85-4.82-47.47-.11-.5-.21-.99-.32-1.49-1.65-7.6-3.74-15.1-6.28-22.46-.47-1.34-.94-2.67-1.43-3.98-1.43-3.84-2.96-7.57-4.6-11.18-.88-1.93-1.79-3.83-2.72-5.7-.72-1.43-1.47-2.84-2.22-4.23-2.18-4.02-4.5-7.85-6.94-11.48-1.1-1.63-2.22-3.21-3.36-4.75-.57-.77-1.15-1.53-1.73-2.28-1.75-2.25-3.56-4.4-5.41-6.44-.62-.68-1.24-1.35-1.87-2.01-1.89-1.98-3.82-3.85-5.8-5.61s-4-3.42-6.04-4.96c-2.71-2.02-5.54-3.88-8.49-5.54C172.65,3.33,161.43,.28,150,.22c-.66,0-1.29,.04-1.91,.09-.19,.02-.38,.04-.56,.07-.44,.05-.87,.12-1.29,.2-.19,.04-.39,.07-.58,.11-.46,.1-.92,.22-1.36,.36-.11,.03-.23,.06-.34,.1-.53,.17-1.05,.38-1.56,.59-.17,.08-.34,.16-.52,.24-.34,.16-.67,.33-1,.51-.19,.11-.38,.22-.57,.33-.31,.18-.61,.38-.92,.58-.17,.11-.34,.22-.51,.34-.42,.3-.84,.62-1.24,.96-.19,.16-.37,.33-.56,.49-.23,.21-.47,.42-.69,.63-.21,.2-.41,.4-.62,.61-.2,.2-.39,.4-.58,.6-.21,.23-.42,.45-.63,.69-.15,.18-.3,.36-.45,.54-.43,.51-.85,1.04-1.26,1.58-.11,.15-.22,.29-.33,.44-.24,.33-.48,.67-.71,1-.1,.14-.19,.28-.29,.41-.25,.37-.5,.74-.75,1.12h0c-.57,.88-1.12,1.79-1.67,2.72h0c-1.77,3.02-3.45,6.28-5.19,9.6-2.42,4.85-5.16,9.54-8.2,14.03-.12,.17-.24,.33-.36,.5-.46,.64-.94,1.27-1.42,1.89-.12,.15-.24,.31-.36,.46-.6,.75-1.22,1.48-1.87,2.19-.05,.06-.1,.11-.15,.16-.58,.63-1.17,1.23-1.79,1.82-.2,.19-.4,.38-.61,.56-.5,.47-1.02,.92-1.56,1.35-.21,.18-.42,.36-.64,.53-.74,.58-1.49,1.14-2.29,1.66-1,.66-1.98,1.3-2.94,1.93l-.51,.33c-1.9,1.24-3.72,2.43-5.48,3.56-1.12,.73-2.21,1.44-3.27,2.13l-.13,.08c-1.07,.7-2.11,1.39-3.12,2.06l-.05,.03c-1.02,.68-2.02,1.35-2.99,2.01h-.01c-.97,.67-1.91,1.33-2.83,1.97h0c-.89,.63-1.76,1.26-2.6,1.87-.22,.16-.43,.32-.65,.48-.16,.12-.32,.24-.47,.35-.21,.16-.41,.31-.62,.47l-.48,.37c-.2,.15-.4,.31-.59,.46-.19,.15-.38,.3-.56,.45-.29,.24-.58,.47-.87,.71-.16,.14-.33,.27-.49,.41s-.35,.29-.52,.44-.31,.27-.47,.4l-.5,.43c-.17,.15-.35,.31-.52,.46-.24,.22-.48,.44-.72,.66-.17,.16-.35,.32-.52,.48-.15,.14-.3,.29-.45,.43s-.3,.29-.44,.43-.29,.29-.43,.43-.3,.31-.45,.46-.31,.32-.46,.48c-.22,.24-.44,.48-.66,.71-.13,.14-.25,.28-.38,.42-.14,.16-.28,.32-.41,.47s-.25,.29-.38,.44c-.14,.16-.27,.33-.4,.49-.12,.14-.23,.28-.35,.42-.22,.28-.44,.56-.66,.85-.1,.14-.2,.27-.3,.41-.13,.18-.26,.36-.39,.54-.11,.15-.22,.3-.32,.46-.12,.17-.24,.35-.36,.52-.1,.15-.21,.31-.31,.46-.14,.22-.28,.44-.42,.66s-.26,.42-.39,.63-.26,.42-.38,.64c-.09,.16-.18,.32-.27,.49-.11,.19-.21,.38-.32,.57-.09,.16-.18,.33-.27,.5-.11,.21-.22,.43-.34,.65-.09,.17-.17,.34-.26,.51-.15,.31-.3,.63-.45,.94-.08,.17-.15,.34-.23,.51-.09,.21-.19,.42-.28,.64-.08,.18-.15,.36-.23,.54-.09,.23-.18,.45-.27,.68-.07,.17-.13,.34-.2,.51-.14,.37-.28,.75-.42,1.13-.06,.18-.12,.35-.18,.53-.08,.24-.17,.49-.25,.73-.07,.2-.13,.39-.19,.59-.08,.24-.15,.49-.23,.74-.06,.19-.12,.38-.18,.58-.1,.35-.2,.71-.3,1.07-.06,.22-.12,.45-.18,.67-.08,.3-.16,.6-.24,.91-.05,.21-.1,.42-.15,.63-.07,.27-.13,.55-.2,.83-.05,.21-.1,.42-.14,.64-.07,.33-.14,.67-.21,1.01-.04,.21-.09,.41-.13,.63-.09,.43-.17,.87-.25,1.31-.04,.22-.08,.44-.12,.66-.06,.32-.11,.63-.17,.96-.04,.23-.08,.46-.11,.7-.06,.35-.11,.7-.16,1.06-.03,.2-.06,.4-.09,.61-.08,.53-.15,1.07-.23,1.62-.03,.21-.05,.43-.08,.65-.05,.38-.1,.75-.14,1.14-.03,.25-.06,.5-.09,.75-.04,.38-.09,.77-.13,1.16-.02,.23-.05,.46-.07,.69-.06,.6-.12,1.21-.18,1.82-.02,.18-.03,.36-.05,.53-.04,.48-.08,.96-.12,1.45-.02,.26-.04,.52-.06,.77-.03,.43-.07,.87-.1,1.31-.02,.26-.04,.51-.05,.77-.04,.57-.08,1.15-.11,1.74,0,.14-.02,.28-.03,.42-.04,.68-.08,1.38-.11,2.08-.01,.25-.03,.51-.04,.77-.02,.51-.05,1.02-.07,1.54-.01,.27-.02,.54-.04,.82-.02,.58-.05,1.16-.07,1.75,0,.2-.01,.4-.02,.61-.03,.78-.05,1.57-.07,2.37,0,.24-.01,.49-.02,.73-.02,.59-.03,1.19-.05,1.8,0,.29-.01,.58-.02,.88-.01,.62-.03,1.25-.04,1.88,0,.25,0,.49-.01,.74-.01,.87-.03,1.74-.04,2.63,0,.2,0,.39,0,.59,0,.72-.01,1.45-.02,2.18,0,.31,0,.62,0,.93,0,.68,0,1.36-.01,2.04v3.8h0Zm6.2,20.54c7.86,1.54,15.61,3.59,23.2,6.13,3.88,1.3,7.68,2.72,11.4,4.26v17.3c-10.17-8.38-21.58-15.13-33.81-20.04-.31-2.53-.57-5.08-.79-7.65h0Zm37.77-8.72v-7.12l9.46-9.46v7.12l-9.46,9.46Zm9.46-4.96v8.75l-9.46,9.46v-8.75l9.46-9.46Zm-9.46-6.66v-6.73l9.46-9.46v6.73l-9.46,9.46Zm1.56-12.78l-3.15,3.15-3.15-3.15v-10.51c0-6.82,2.29-6.82,3.15-6.82s3.15,0,3.15,6.82v10.51Zm37.15,68.61c-6.81,5.41-13.17,11.35-19.04,17.77-5.53-8.44-12.14-16.11-19.67-22.82v-18.7c13.96,6.04,27,14.04,38.71,23.75h0Zm-41.89-62.56v6.73l-9.46-9.46v-6.73l9.46,9.46Zm0,11.23v7.12l-9.46-9.46v-7.12l9.46,9.45Zm0,11.62v8.75l-9.46-9.46v-8.75l9.46,9.46Zm-33.33,15.49c22.95,9.68,41.48,24.99,53.99,44.44-6.7,7.65-12.64,15.93-17.74,24.73-1.09-6.84-2.96-13.54-5.58-19.95-6.13-14.97-16.09-28.08-28.87-38-.7-3.69-1.28-7.44-1.8-11.22Zm24.75,72.24c-10.04-16.04-17.45-35.18-21.93-56.09,10.94,9.25,19.48,21.01,24.91,34.27,3.05,7.48,5.05,15.35,5.94,23.38-1.16,2.18-2.28,4.39-3.34,6.64-1.91-2.59-3.77-5.33-5.58-8.2Zm7.76,11.06c14.26-30.89,37.95-55.2,67.2-71.73v31.22c-5.85,7.87-10.73,16.41-14.53,25.45-5.94,14.12-9.18,29.23-9.57,44.55-15.71-3.34-30.51-13.47-43.11-29.49h0Zm70.38-91.37v-7.12l9.45-9.46v7.12l-9.45,9.46Zm9.45-4.96v8.75l-9.45,9.46v-8.75l9.45-9.46Zm-9.45-6.66v-6.73l9.45-9.46v6.73l-9.45,9.46Zm1.56-12.78l-3.15,3.15-3.15-3.15v-10.5c0-6.82,2.29-6.82,3.15-6.82s3.15,0,3.15,6.82v10.51Zm34.93,27.38v12.95c-13.96,7.95-26.33,18.4-36.49,30.84v-28.9c11.61-6.22,23.84-11.21,36.49-14.88h0Zm-39.67-21.34v6.73l-9.46-9.46v-6.73l9.46,9.46Zm0,11.23v7.12l-9.46-9.46v-7.12l9.46,9.46Zm0,11.62v8.75l-9.46-9.46v-8.75l9.46,9.46Zm49.88,75.82c-.77,1.23-1.55,2.42-2.34,3.59,.88-19.58,8.9-38.16,22.54-52.23-4.56,18.01-11.36,34.53-20.2,48.64Zm21.59-54.45c-17.58,16.07-27.48,38.87-27.2,62.69-7.32,9.91-15.45,17.76-24.11,23.37-1.56-16,.87-32.13,7.08-46.95,9.15-21.77,25.65-38.58,46.23-49.4-.6,3.47-1.25,6.91-2,10.3h0Zm2.65-14.21c-22.2,11.1-40.05,28.86-49.81,52.08-6.62,15.79-9.09,33.02-7.17,50.04-8.98,5.36-19.23,8.23-29.69,8.32-2.81,0-5.61-.22-8.39-.65,.31-15.09,3.48-29.99,9.33-43.9,15.45-36.74,47.74-62.13,86.69-72.9-.29,2.35-.61,4.69-.96,7.01h0Zm-31.28-36.39v-7.12l9.45-9.46v7.12l-9.45,9.46Zm9.45-4.96v8.75l-9.45,9.46v-8.75l9.45-9.46Zm-9.45-6.66v-6.73l9.45-9.46v6.73l-9.45,9.45Zm1.56-12.78l-3.15,3.15-3.15-3.15v-10.51c0-6.82,2.29-6.82,3.15-6.82s3.15,0,3.15,6.82v10.51Zm-4.74,6.05v6.73l-9.46-9.46v-6.73l9.46,9.46Zm0,11.23v7.12l-9.46-9.46v-7.12l9.46,9.45Zm0,11.62v8.75l-9.46-9.46v-8.75l9.46,9.45Zm35.79,21.47c-11.34,3.02-22.28,7.35-32.61,12.92v-12.06c10.85-2.97,21.93-5.04,33.11-6.2-.15,1.79-.32,3.58-.51,5.35h0ZM107.61,54.72c7.78-5.11,13.03-12.67,17.35-20.31,6.82,6.33,7.22,16.99,.89,23.81-6.33,6.82-16.99,7.22-23.81,.89-.16-.15-.32-.3-.47-.45,1.93-1.26,3.93-2.56,6.04-3.94Zm-8.73,5.69c7.54,8.08,20.21,8.52,28.29,.97,8.08-7.54,8.52-20.21,.97-28.29-.51-.54-1.04-1.06-1.61-1.54,.9-1.67,1.77-3.33,2.62-4.96,1.6-3.07,3.08-5.84,4.52-8.31,15.74,11.13,19.48,32.9,8.35,48.64-11.13,15.74-32.9,19.48-48.64,8.35-2.62-1.85-4.96-4.05-6.98-6.54,3.6-2.54,7.75-5.26,12.47-8.33Zm-30.96,27.54c3.4-6.8,8.42-11.81,15.91-17.35,13.17,16.39,37.13,19,53.53,5.83,16.39-13.17,19-37.13,5.83-53.53-2.25-2.81-4.9-5.28-7.84-7.34,4.14-6.39,8.32-10.05,14.65-10.05,23.52,0,45.7,14.38,62.45,40.48,17.33,27,26.88,63.45,26.88,102.65,0,5.52-.21,10.99-.58,16.4-11.27,1.14-22.43,3.19-33.36,6.12v-5.77l12.64-12.64v-46.34h-3.18v8.94l-4.72,4.72v-30.64h-3.18v14.18c-1.94-1.16-4.36-1.16-6.29,0v-14.18h-3.18v30.64l-4.72-4.72v-8.94h-3.18v46.35l12.64,12.63v6.66c-10.14,2.9-20.02,6.63-29.56,11.14l5.7-5.7v-46.35h-3.18v8.94l-4.72,4.72v-30.64h-3.18v14.18c-1.94-1.16-4.36-1.16-6.3,0v-14.18h-3.18v30.64l-4.72-4.72v-8.94h-3.18v46.35l11.5,11.5c-7.24,4.06-14.19,8.63-20.79,13.68-12.29-10.28-26.02-18.7-40.75-24.98l12.12-12.12v-46.35h-3.18v8.94l-4.72,4.72v-30.64h-3.18v14.18c-1.94-1.16-4.36-1.16-6.29,0v-14.18h-3.18v30.64l-4.72-4.72v-8.94h-3.18v46.35l9.24,9.24c-2.3-.88-4.62-1.72-6.99-2.51-8-2.68-16.17-4.81-24.46-6.4-.41-5.69-.65-11.45-.65-17.27,.01-34.1,1.91-49.98,7.27-60.69Z" fill="#fff"/>
    </g>
  </g>
</svg>