<?xml version="1.0" encoding="UTF-8"?>
<svg id="_레이어_2" data-name="레이어 2" xmlns="http://www.w3.org/2000/svg" viewBox="0 0 300 300">
  <g id="_레이어_1-2" data-name="레이어 1">
    <g id="_03자연_shape_03_0019" data-name=" 03자연 shape 03 0019">
      <g id="_그룹_255" data-name="그룹 255">
        <path id="_패스_653" data-name="패스 653" d="M199.27,1c-1.71,17.24-5.36,34.35-4.6,51.77,1.04,23.97,10.5,44.28,28.41,60.4,10.72,9.65,21.06,19.53,28.14,32.32,10.15,18.32,13.78,38.01,11.74,58.65-3.55,35.94-21.6,62.82-52.55,81.14-12.88,7.53-27.29,12.05-42.16,13.23-.75,.12-1.5,.28-2.23,.5h-32.09c-5.53-.95-11.1-1.71-16.59-2.88-39.25-8.34-72.18-42.7-79.07-82.31-3.79-21.76-1.09-43.07,4.32-64.19,3.49-13.65,8.63-26.7,14.31-39.57,.84-1.9,1.73-2,3.52-1.46,11.15,3.34,22.35,6.56,33.53,9.81,1.09,.32,2.2,.56,3.01,.77,1.78-7.96,3.01-15.84,5.31-23.39,10.34-33.91,31.32-59.28,62.51-76.23,10.66-5.79,21.36-11.51,32.03-17.27,.65-.39,1.27-.82,1.87-1.28h.58Zm6.37,266.44c7.1-4.27,13.49-9.62,18.93-15.86,22.89-25.75,28.07-64.75,12.65-95.15-5.87-11.58-14.9-20.44-24.47-28.93-26.64-23.62-37.78-53.47-35.5-88.64,.13-1.97,.37-3.94,.64-6.73-44.62,23.93-65.13,60.76-63.57,110.41l-46.35-13.47c-.45,1.07-.83,1.94-1.18,2.83-6.77,17.04-10.97,34.99-12.47,53.26-1.81,24.21,4.38,45.87,19.9,64.69,5.77,7.02,12.64,13.05,20.35,17.85-11.37-26.27-3.78-50.11,6.86-73.88l18.5,5.29c.25-.83,.45-1.36,.57-1.9,4.13-18.48,13.93-33.2,30.04-43.23,9.21-5.73,19.02-10.48,28.57-15.65,.11-.06,.33,.1,.66,.22-.99,8.82-2.08,17.65-2.94,26.51-1.27,13.08,2.74,24.26,12.45,33.29,1.49,1.39,3.04,2.71,4.54,4.1,11.25,10.46,16.94,23.35,17.24,38.71,.15,9.05-1.7,18.03-5.43,26.28Zm-94.62-52.59c-1.47,7.08-3.23,13.8-4.22,20.64-2.97,20.6,8.86,39.35,28.49,44.39,6.27,1.61,13.07,1.56,19.63,1.55,16.11-.12,30.49-10.15,36.16-25.23,4.82-12.91,3.51-30.59-10.63-42.23-8.48-6.98-15.07-15.48-18.29-26.06-1.78-5.86-2.58-12.01-3.84-18.14-.64,.45-1.61,1.04-2.48,1.75-12.57,10.25-18.97,23.48-19.22,39.68-.05,3.56,0,7.13,0,11.03l-25.61-7.38Z" fill="#fff"/>
      </g>
      <rect id="_사각형_2821" data-name="사각형 2821" width="300" height="300" fill="none"/>
    </g>
  </g>
</svg>