<?xml version="1.0" encoding="UTF-8"?>
<svg id="_레이어_2" data-name="레이어 2" xmlns="http://www.w3.org/2000/svg" viewBox="0 0 300 300">
  <g id="_레이어_1-2" data-name="레이어 1">
    <g id="_03자연_shape_03_0021" data-name=" 03자연 shape 03 0021">
      <path id="_패스_655" data-name="패스 655" d="M221.8,106.71c4.18-7.93,7.6-15.34,11.86-22.23,3.71-6.01,7.99-11.65,12.76-16.85,2.78-2.75,6.21-4.75,9.97-5.83,5.94-1.86,11.25,1.9,12.39,8.03,1.15,6.2-.65,12.09-2.11,18-.4,1.6-.93,3.17-1.54,5.19,2.57-1.3,4.73-2.56,7.01-3.52,4.18-1.75,8.63-3.13,12.54,.17,4.11,3.46,4.51,8.32,3.43,13.28-1.2,5.48-4.54,9.76-8.34,13.66-9.03,9.28-19.94,15.86-31.37,21.72-1.68,.9-3.06,2.26-3.99,3.93-7.18,13.43-14.24,26.91-21.19,40.46-.88,1.73-1.35,3.63-1.38,5.56-.09,22.72-.18,45.44,.02,68.17,.06,6.3-2.48,10.71-7.49,14.08-8.82,5.94-18.85,8.75-29.05,10.94-27.07,5.81-54.54,7.34-82.11,6.19-13.92-.58-27.8-2.28-41.68-3.66-1.7-.3-3.24-1.17-4.37-2.47-7.11-8.08-11.69-17.64-15.67-27.53-.25-.79-.75-1.47-1.42-1.95v13.97c0,2.75,.12,5.52-.06,8.26-.22,3.34-2.68,5.29-5.65,4.1-5.4-2.07-10.65-4.48-15.73-7.23-5.19-2.91-7.27-7.68-7.26-13.82,.11-68.76,.11-137.51,0-206.27-.26-7.2,3.11-14.04,8.98-18.21,8.45-6.44,18.21-10.04,28.31-12.7,29.39-7.73,59.3-9.39,89.51-7.35,18.29,1.23,36.34,3.82,53.81,9.62,7.58,2.52,14.86,5.68,21.21,10.67,5.77,4.53,8.77,10.2,8.67,17.78-.23,17.31-.07,34.62-.07,51.94v3.91Zm-21.82,163.28c3.72-1.94,6.87-3.47,9.91-5.22,2.47-1.42,3.52-3.54,3.5-6.58-.11-24-.11-48,0-72.01,.04-2.13,.55-4.23,1.5-6.14,6.27-12.46,12.73-24.82,19.02-37.27,.5-1.16,.58-2.45,.22-3.66-.69-1.81-.01-3.86,1.63-4.9,.91-.59,1.88-1.07,2.89-1.43,12.24-5.33,23.73-11.87,33.5-21.11,3.37-3.19,6.53-6.63,7.59-11.35,.28-1.22,.26-3.18-.45-3.75-.76-.6-2.73-.35-3.79,.23-3.58,1.83-7.01,3.95-10.26,6.32-5.2,4.02-10.09,8.43-15.11,12.68-2.9,2.46-6.93,1.46-7.18-2,.04-1.72,.81-3.33,2.11-4.45,5.02-4,8.58-9.55,10.11-15.79,.7-2.55,1.81-5,2.41-7.57,1.07-4.18,1.88-8.42,2.43-12.7,.4-3.67-1.56-4.79-4.92-3.13-1.33,.63-2.54,1.5-3.56,2.56-2.19,2.12-4.13,4.48-5.8,7.03-4.92,8.49-9.88,16.99-14.17,25.8-3.99,8.2-7.18,16.79-10.66,25.23-.89,2.16-2.34,3.11-4.6,2.68-1.96-.24-3.39-1.96-3.29-3.92-.04-.98-.03-1.97-.03-2.95v-62.18c-7.73,3.43-15.33,6.74-22.85,10.22-.65,.3-1.09,1.71-1.1,2.61-.09,6.69-.05,13.38-.05,20.07,0,9.25,.02,18.49-.01,27.74-.01,3.43-1.85,5.23-4.82,4.78-2.81-.43-3.52-2.38-3.52-4.93,.03-13.28,.04-26.56,.01-39.84v-6.98l-51.26,6.93v53.04c.06,1.57,.03,3.15-.08,4.72-.11,2.05-1.86,3.63-3.91,3.52-.04,0-.07,0-.11,0-2.08,.2-3.93-1.31-4.15-3.38-.11-.98-.14-1.96-.09-2.94v-55.66c-27.28-.24-54.08-1.93-80.21-10.53v4.39c0,14.07,0,28.13-.01,42.2,0,3.43-1.52,5.03-4.44,4.89-2.71-.14-3.88-1.64-3.88-5.15-.02-15.54,0-31.09-.04-46.63,0-1-.1-2.54-.71-2.91-3.78-2.33-7.71-4.41-11.86-6.72V203.37c0,18.3-.03,36.6,.05,54.89-.09,1.54,.3,3.07,1.11,4.38,2.61,3.19,6.35,4.66,10.55,6.09v-3.93c0-15.54,0-31.09,.01-46.63,0-3.54,1.17-5.08,3.8-5.25,2.75-.18,4.1,1.35,4.82,4.78,1.49,7.11,2.86,14.26,4.8,21.26,3.45,12.45,8.07,24.43,15.71,35.05,1.28,1.98,3.43,3.22,5.78,3.35,8.13,.69,16.24,1.52,24.37,2.24,1.31,.12,2.65,.02,4.13,.02v-13.56c0-10.33-.02-20.66,.02-30.99,.01-3.6,2.42-5.59,5.44-4.61,2.37,.77,2.91,2.61,2.9,4.88-.03,13.87-.04,27.74-.02,41.61v3.36c1.51,0,2.58,.02,3.65,0,11.21-.19,22.43-.1,33.62-.65,16.11-.68,32.13-2.89,47.83-6.58,2.32-.56,3.09-1.47,3.08-3.94-.11-20.36-.07-40.73-.06-61.09-.04-1.18,.03-2.36,.2-3.52,.25-1.96,2.01-3.38,3.98-3.21,1.97-.21,3.75,1.16,4.04,3.12,.19,1.16,.27,2.34,.23,3.52,.01,19.28,.02,38.56,0,57.84v4.19ZM116.18,75.72c22.9-.03,45.54-2.14,67.63-8.51,8.22-2.37,16.31-5.21,23.27-10.42,7.79-5.83,7.89-11.83-.09-17.44-4.03-2.8-8.37-5.11-12.94-6.9-17.62-6.99-36.16-9.79-54.93-11.19-22.17-1.76-44.47-.97-66.46,2.37-13.22,2.07-26.3,4.88-38.46,10.68-3.98,1.9-7.67,4.35-10.97,7.27-4.57,4.06-4.37,8.7-.02,13.07,1.38,1.54,3.02,2.83,4.84,3.8,6.86,3.1,13.66,6.57,20.83,8.73,21.91,6.62,44.52,8.44,67.3,8.53h0Z" fill="#fff"/>
      <path id="_패스_656" data-name="패스 656" d="M58.97,213.49v-42.18c0-.98,0-1.97,.07-2.95,.16-2.07,1.48-3.54,3.35-3.42,1.51,.1,3.1,1.2,4.35,2.23,.57,.47,.57,1.83,.57,2.78,.03,29,.03,58,.02,87.01,.01,.39,0,.79-.03,1.18-.29,2.52-1.64,3.97-4.24,3.93s-4.02-1.46-4.05-4.05c-.06-5.31-.04-10.62-.04-15.93,0-9.53,0-19.07,0-28.61Z" fill="#fff"/>
      <path id="_패스_657" data-name="패스 657" d="M162.2,168.8v-40.71c0-.98,0-1.97,.08-2.95,.18-2.05,1.42-3.56,3.34-3.41,1.64,.26,3.16,1.04,4.33,2.22,.67,.64,.61,2.21,.61,3.36,.03,27.63,.03,55.26,.01,82.89,.04,.98-.05,1.96-.28,2.91-.47,1.92-2.34,3.15-4.28,2.82-1.98,.03-3.62-1.51-3.72-3.49-.08-.98-.11-1.96-.09-2.95v-40.71Z" fill="#fff"/>
      <path id="_패스_658" data-name="패스 658" d="M103.39,157.59v40.39c.05,.88,.02,1.77-.06,2.65-.13,2.11-1.94,3.71-4.05,3.58-.08,0-.15-.01-.23-.02-2.06,.11-3.82-1.46-3.94-3.52,0-.02,0-.04,0-.06-.07-.78-.08-1.57-.05-2.35V116.58c-.03-.79,0-1.57,.06-2.36,.08-2.04,1.8-3.63,3.85-3.55,.04,0,.08,0,.13,0,2.07-.26,3.97,1.21,4.23,3.28,.01,.1,.02,.19,.03,.29,.08,.88,.1,1.77,.06,2.65,0,13.56,0,27.12,0,40.68Z" fill="#fff"/>
      <path id="_패스_659" data-name="패스 659" d="M139.09,222.84c0-10.92,0-21.83,0-32.75,0-1.08-.28-2.44,.25-3.17,.93-1.29,2.34-2.96,3.64-3.05,1.32-.09,2.98,1.33,4.08,2.48,.59,.62,.44,2.05,.44,3.12,.02,22.33,0,44.65-.04,66.97,0,1.48-.3,3.44-1.25,4.3-1.02,.92-3.31,1.49-4.44,.95-1.43-.89-2.37-2.37-2.56-4.04-.27-7.07-.13-14.16-.14-21.24,0-4.52,0-9.05,0-13.57Z" fill="#fff"/>
      <path id="_패스_660" data-name="패스 660" d="M82.43,123.86c0,5.8,.03,11.61,0,17.41-.02,3.74-1.46,5.5-4.3,5.43-2.73-.07-4.12-1.79-4.13-5.33-.03-11.71-.03-23.41,0-35.12,.01-4.04,2.41-6.13,5.62-5.06,2.27,.76,2.8,2.56,2.8,4.67,.01,6,.02,12,.01,18Z" fill="#fff"/>
      <path id="_패스_661" data-name="패스 661" d="M116.27,32.95c16.91,.19,33.83,.61,50.43,4.27,4.5,.95,8.86,2.49,12.96,4.59,6.46,3.4,6.57,9.39-.02,12.47-5.94,2.79-12.24,4.72-18.72,5.73-29.6,4.4-59.7,4.4-89.3,0-5.57-.82-10.96-2.91-16.4-4.52-1.11-.4-2.15-.97-3.08-1.7-4.92-3.43-4.97-8.08,0-11.42,5.95-4,12.87-5.5,19.77-6.25,14.73-1.62,29.52-2.67,44.29-3.94l.07,.78Zm57.43,15.08c-16.38-8.8-95.46-8.8-114.44,0,14.01,8.89,98.91,8.89,114.44,0Z" fill="#fff"/>
      <rect id="_사각형_2823" data-name="사각형 2823" width="300" height="300" fill="none"/>
    </g>
  </g>
</svg>