<?xml version="1.0" encoding="UTF-8"?>
<svg id="_레이어_2" data-name="레이어 2" xmlns="http://www.w3.org/2000/svg" viewBox="0 0 300 300">
  <g id="_레이어_1-2" data-name="레이어 1">
    <g id="_03자연_shape_03_0013" data-name=" 03자연 shape 03 0013">
      <path id="_패스_328" data-name="패스 328" d="M64.26,23.18c-.29,3.31-.21,6.7-.78,9.93-.63,3.61-1.81,7.1-2.7,10.49,5.33-2.05,9.02-6.96,9.51-12.65,.36-3.59,.08-7.26,.08-10.9V8c-4.02,3.74-5.59,9.18-6.11,15.19" fill="#fff"/>
      <path id="_패스_329" data-name="패스 329" d="M236.31,167.59c4.6-1,9.21-1.93,13.78-2.87-2.28-2.61-5.5-4.22-8.95-4.49-2.94-.27-5.9-.27-8.84,0-4.79,.77-9.7,0-14.02-2.23,2.4,7.57,10.42,11.82,18.04,9.57" fill="#fff"/>
      <path id="_패스_330" data-name="패스 330" d="M97.51,110.66c1.78,2.71,4.02,5,5.97,7.57,2.04,2.68,3.99,5.46,5.99,8.22,.64-5.23-.51-10.52-3.27-15.02-1.44-2.49-3.17-4.77-4.46-7.35-1.97-3.92-3.68-8.02-5.51-12.05-2.8,6.02-2.32,13.05,1.28,18.63" fill="#fff"/>
      <path id="_패스_331" data-name="패스 331" d="M57.24,45.22c4.49-5.29,5.35-12.07,5.91-19.11,.35-4.41,1.31-8.76,1.96-12.9-4.18,.91-9,8.19-9.17,15.06,.05,3.09,.26,6.18,.62,9.26,.2,2.53,.45,5.06,.68,7.69" fill="#fff"/>
      <path id="_패스_332" data-name="패스 332" d="M245.26,159.4c-3.29-6.96-11.37-10.22-18.57-7.49-3.17,1.03-6.33,2.1-9.72,3.23,3.81,2.94,8.55,4.42,13.36,4.17,5.1-.18,10.22,.04,14.93,.08" fill="#fff"/>
      <path id="_패스_333" data-name="패스 333" d="M110.68,118.26c2.99-7.55,1.21-16.15-4.53-21.89-2.58-2.67-5.18-5.3-7.83-8-.12,4.88,1.08,9.7,3.48,13.94,3.05,5.41,6.05,10.84,8.88,15.93" fill="#fff"/>
      <path id="_패스_334" data-name="패스 334" d="M212.5,127.86c3.24-7.66,9.12-10.78,13.74-15.54,2.94-2.71,4.74-6.44,5.05-10.42-3.87,2.57-7.94,5.23-11.98,7.95-5.15,3.53-7.9,9.63-7.14,15.82,.02,.38,.11,.77,.34,2.19" fill="#fff"/>
      <path id="_패스_335" data-name="패스 335" d="M97.38,53.93c-1.91-.27-3.78-.72-5.6-1.34,3.55,6.99,8.85,9.61,15.64,8.21,4.32-.9,8.64-1.78,12.69-2.61-2.1-2.65-5.3-4.19-8.68-4.18-4.68-.13-9.37,.1-14.05-.07" fill="#fff"/>
      <path id="_패스_336" data-name="패스 336" d="M32.75,84.67c-2.58,.53-5.2,.89-7.83,1.08,2.64,4.16,7.76,6.01,12.44,4.48,2.59-1.13,5.12-2.41,7.57-3.84,2.68-1.37,5.37-2.71,8.09-4.08-3.43-2.02-7.61-2.36-11.32-.9-2.99,1.03-5.91,2.45-8.94,3.26" fill="#fff"/>
      <path id="_패스_337" data-name="패스 337" d="M12.49,56.54c.77,3.98,4.21,6.87,8.26,6.95,3.48,.2,6.97,.04,10.13,.04-.74-1.51-1.55-3.17-2.37-4.81-1.62-4.1-5.76-6.63-10.15-6.21-2.19,.19-4.37,.55-6.73,.85,.34,.43,10.21,4.63,13.35,5.94l-12.49-2.77" fill="#fff"/>
      <path id="_패스_338" data-name="패스 338" d="M133.58,43.01c2.83,.38,5.67,.61,8.52,.7,4.22-.08,7.38-3.15,8.88-7.75,.56-1.16,1.28-2.24,2.15-3.19-3.5,0-7.06-.15-10.59,.04-4.1,.25-7.51,3.26-8.26,7.3,2.4-.73,4.83-1.61,7.3-2.18,2.4-.55,4.86-.78,7.96-1.25-5.48,2.57-11.5,.92-15.94,6.32" fill="#fff"/>
      <path id="_패스_339" data-name="패스 339" d="M123.97,162.04c4.75,.05,7.34-2.45,9.23-7.91,.43-1.23,1.79-2.02,2.74-3.03-3.85,0-7.44-.12-11.02,.03-3.94,.27-7.24,3.11-8.09,6.97l11.96-2.84,.15,.78c-4.33,.99-9.04,.75-12.83,5.15,2.87,.33,5.36,.83,7.86,.85" fill="#fff"/>
      <path id="_패스_340" data-name="패스 340" d="M115.69,53.27c-2.23-4.98-7.41-7.96-12.84-7.39-2.35,.53-4.68,1.19-6.95,1.97-1.68,.48-3.37,.94-5.52,1.53,3.26,2.62,7.34,4,11.52,3.9,4.66-.11,9.32-.02,13.79-.02" fill="#fff"/>
      <path id="_패스_341" data-name="패스 341" d="M218.16,121.15c-2.09,2.81-3.91,5.81-5.45,8.97l.62,.3,7.79-3.94c6.94-3.5,10.09-9.45,9.71-17.77-4.13,3.99-8.63,7.92-12.67,12.44" fill="#fff"/>
      <path id="_패스_342" data-name="패스 342" d="M30.32,77.57c-2.58,1.79-5.16,3.63-7.86,5.55,3.83,1.45,8.05,1.45,11.88,0,4.36-1.55,8.79-2.84,12.95-4.15-3.61-4.84-10.8-5.65-16.96-1.4" fill="#fff"/>
      <path id="_패스_343" data-name="패스 343" d="M134.97,69.33c2.56,.36,5.13,.55,7.71,.57,3.61-.18,6.11-2.92,7.32-6.92,.51-1.04,1.21-1.97,2.05-2.76-3.38,0-6.74-.21-10.07,.06s-5.61,2.56-7.03,6.67l4.09-1.64,.13,.38-4.3,2.92c.03,.24,.07,.47,.1,.71" fill="#fff"/>
      <path id="_패스_344" data-name="패스 344" d="M44.83,39.17c-.82-3.21-1.63-6.41-2.44-9.62l2.37,4.05c3.29-12.29-4.69-16.98-11.82-22.34,1.2,3.18,2.39,6.37,3.61,9.55,.36,.94,.83,1.83,1.25,2.74-1.18-1.5-2.27-3.06-3.28-4.67-.83-1.68-1.56-3.4-2.19-5.16-2.16,4.94-1.35,10.68,2.08,14.84,3.26,3.74,6.74,7.28,10.41,10.61" fill="#fff"/>
      <path id="_패스_345" data-name="패스 345" d="M197.22,98.86c2.58-3.32,5.72-6.22,6.39-11.05,.01-.17,.01-.33,0-.5-3.95,2.73-7.99,5.35-11.88,8.26-4.08,3.27-5.8,8.66-4.39,13.68,2.21-4.35,5.63-7.96,9.86-10.4" fill="#fff"/>
      <path id="_패스_346" data-name="패스 346" d="M181.61,172.27c1.41,3.34,4.41,5.75,7.97,6.39,2.11,.22,4.24,.11,6.32-.33,3.36-.52,6.67-1.29,10.4-2.02l-4.49-3.05c-.1-.81,.04-1.88-.35-2.4-2.88-4.49-8.47-6.41-13.5-4.62-2.48,.78-4.92,1.69-7.54,2.6,2.69,2.3,6.17,3.45,9.7,3.2,2.86-.09,5.71-.26,8.56-.11,1.13,.27,2.21,.74,3.18,1.38h0c-3.03-.17-6.05-.36-9.08-.52-3.64-.19-7.29-.36-11.19-.55" fill="#fff"/>
      <path id="_패스_347" data-name="패스 347" d="M78.51,120.91c2.85,3.99,5.98,7.77,9.36,11.32-.59-3.14-1.18-6.28-1.77-9.41l2.04,3.97c3.82-11.5-3.04-16.81-9.55-22.47,.77,2.92,1.51,5.85,2.32,8.75,.31,1.09,.8,2.11,1.21,3.17l-4.68-9.01c-2.21,2.8-2.02,9.36,1.08,13.69" fill="#fff"/>
      <path id="_패스_348" data-name="패스 348" d="M264.6,98.12c-2.14,2.76-4.34,5.46-6.4,8.3-.52,.98-.9,2.03-1.15,3.12,2.41-1.22,4.66-2.36,6.91-3.49,4.79-2.35,7.83-7.21,7.84-12.55-.12-1.13-.41-2.24-.87-3.28,.54-1.57,1.08-3.13,1.73-5.02-4.13,2.84-8,5.35-11.7,8.15-3.69,2.92-5.45,7.66-4.55,12.28l8.2-7.49" fill="#fff"/>
      <path id="_패스_349" data-name="패스 349" d="M162.94,85.13c5.41-1.1,9.57-5.45,10.42-10.91,.75-3.15,1.34-6.35,2.04-9.71-3.17,1.87-5.66,4.69-7.12,8.07-1.25,2.73-2.44,5.51-3.81,8.16-.69,1.07-1.49,2.07-2.39,2.97,1.78-3.73,3.45-7.52,5.37-11.16,1.47-2.79,3.23-5.38,4.79-7.95-3.38-1.03-8.39,2.19-10.3,7.21-1.26,3.32-2.12,6.83-3.24,10.22-.55,1.66-1.27,3.25-2.15,5.45l5.04-3.31c.46,.33,.97,1.03,1.35,.95" fill="#fff"/>
      <path id="_패스_350" data-name="패스 350" d="M193.36,102.75c-2.79,2.58-4.74,5.92-5.63,9.61,2.51-1.28,4.91-2.47,7.27-3.7,5.63-2.92,8.26-8.01,7.99-15.28l-5.86,5.57,.1-.11h-.01l-.02,.03c-1.27,1.29-2.5,2.67-3.83,3.87" fill="#fff"/>
      <path id="_패스_351" data-name="패스 351" d="M109.29,34.63c-1.59,2.07,3.96,5.79,8.48,5.72,1.81-.03,3.63,0,5.31,0-2.35-8.56-7.52-10.22-14.49-7.79l3.26,2.73-2.55-.66" fill="#fff"/>
      <path id="_패스_352-2" data-name="패스 352-2" d="M29.87,36.13l-2.61-2.17c.04-.11,.08-.22,.13-.34l2.36,.8c-3.27-8.57-9.85-4.94-14.72-6.2,2.62,8.07,7.61,10.67,14.83,7.89" fill="#fff"/>
      <path id="_패스_353" data-name="패스 353" d="M255.12,129.76c-2.26,0-5.06-.06-7.86,.02-2.59,.11-4.87,1.75-5.8,4.17-.28,1.13-.36,2.3-.24,3.46,6.67,2.51,11.84,.52,13.9-7.65" fill="#fff"/>
      <path id="_패스_354" data-name="패스 354" d="M172.1,146.39c2.9-.21,6.17,.47,8.61-.88s3.99-4.71,5.94-7.19c-4.27,.81-8.75-1.81-12.39,1.77-1,1.19-1.91,2.45-2.72,3.78l2.7-.49-2.25,2.04,.11,.97" fill="#fff"/>
      <path id="_패스_355" data-name="패스 355" d="M164.89,198.34c-3.85,1.57-6.43,5.26-6.58,9.41l6.97-4.33c-1.52,1.29-3.1,2.53-4.55,3.93-.94,1.05-1.81,2.16-2.61,3.32,3.33-.62,6.1-.92,8.78-1.69,3.48-1.21,6.04-4.18,6.71-7.8,.14-.48-.52-1.26-.77-1.9l3.19-4.34c-4.13,1.24-7.68,2.13-11.14,3.4" fill="#fff"/>
      <path id="_패스_356" data-name="패스 356" d="M192.27,125.84l-2.86-3.03c.08-.53,.37-1.23,.19-1.58-1.57-3.66-5.4-5.83-9.35-5.29-1.73,.18-3.46,.46-6.12,.82,1.83,1.21,3.05,2.08,4.33,2.84,1.12,.66,2.3,1.19,3.44,1.78l-6.45-2.07c.86,5.5,4.42,6.97,16.83,6.54" fill="#fff"/>
      <path id="_패스_357" data-name="패스 357" d="M168.52,101.87l6.21-2.09c-1.39,.76-2.81,1.46-4.17,2.28-.85,.58-1.66,1.2-2.44,1.86,.05,.3,.1,.6,.15,.9,2.96,.18,5.93,.15,8.88-.09,3.41-.69,5.92-3.58,6.14-7.05l2.11-2.14c-9.17-.9-14.59-1.2-16.9,6.33" fill="#fff"/>
      <path id="_패스_358" data-name="패스 358" d="M281.02,132.32c-2.97-.04-5.85,1.07-8.02,3.1,2.92,.64,5.45,1.38,8.03,1.72,3.56,.34,6.96-1.55,8.56-4.75,.12-.18-.28-.81-.44-1.24l3.86-2.91c-3.74-.65-7.51-1.1-11.3-1.34-3.52,.03-6.65,2.28-7.8,5.61l12.7-1.14c-1.84,.42-3.71,.74-5.59,.95" fill="#fff"/>
      <path id="_패스_359" data-name="패스 359" d="M80.05,50.67c2.7-1.23,4.19-4.17,3.57-7.07,.59-.9,1.18-1.81,2.26-3.45-5.63,2.7-12.5,1.34-13.82,10.33l2.74-1.71-3,4.13c2.8-.53,5.56-1.27,8.24-2.22" fill="#fff"/>
      <path id="_패스_360" data-name="패스 360" d="M149.73,130.17c6.52-.29,6.91-.64,9.19-8.31-2.41,.65-4.72,1.63-6.86,2.91-1.19,.95-1.51,3.37-2.32,5.4" fill="#fff"/>
      <path id="_패스_646" data-name="패스 646" d="M265.25,139.33c2.25-2.63,4.25-5.46,5.99-8.45,1.35-3.3,2.19-6.78,2.51-10.33-1.88,11.08-8.52,16.49-17.04,19.37-12.76,4.3-25.85,3.27-38.96,2.47,17.96-9.04,35.98-17.79,50.19-34.19l-15.93,11.06c-.26-4.46-.52-8.48-.75-12.49l-.33,.22c-.74,3.7-1.35,7.44-2.28,11.08-.53,2.27-2.19,4.1-4.39,4.86-14.58,5.7-29.16,11.42-43.66,17.39-11.94,4.91-23.59,10.61-33.47,20.16-2.96,2.87-5.67,6.11-8.94,9.67,.99-3.01,1.78-5.45,2.58-7.88,1.64-4.89,3.61-9.66,4.87-14.68,1.94-7.82,6.05-12.73,12.8-14.79-.09-.33-.17-.65-.26-.97l-9.6,2.87c1.16-8.77,.32-17.69-2.44-26.1,.34,3.27,.82,6.53,1,9.81,.56,9.5-1.12,18.99-4.91,27.72-4.58,10.59-9.55,20.95-14.64,32.02-.1-1.96-.24-3.4-.23-4.84,.14-14.37,.43-28.74,.42-43.12-.03-5.35-.4-10.7-1.1-16.01-1.14-8.95,2.56-15.14,8-20.5,.62-.53,1.28-1.02,1.97-1.46-3.64,0-5.74,1.97-11.82,10.99-1.98-4.68-4.01-9.28-5.87-13.97-3.36-8.44-6.93-16.78-9.77-25.46-2-7.15-2.31-14.66-.9-21.95,.12-.73,.11-1.48-.03-2.21-2.26,7.63-2.92,15.64-1.95,23.54l-9.4-2.71c-.1,.29-.19,.59-.29,.88,6.97,1.81,10.72,6.97,12.68,14.78,1.64,6.53,4.23,12.74,6.68,19.92-3.18-3.42-5.68-6.4-8.44-9.04-8.83-7.98-19.11-14.18-30.28-18.28-13.03-5.35-26.17-10.33-39.21-15.64-5.45-2.21-8.03-7.42-7.47-14.2,.06-.72,.18-1.44,.26-2.16l-.86-.09-1.01,12.34-16.2-11.54c13.62,15.88,30.76,24.33,47.98,32.6-.02,.36-.03,.72-.05,1.09-4.42,0-8.84,.1-13.25-.02-8.21-.22-16.43-.37-24.32-3.59-6.79-2.36-11.87-8.07-13.42-15.09-.7,4.21,.86,7.39,7.28,15.03-6.54,1.27-13.07,2.03-18.26,5.65,4.67-.68,9.87-1.52,15.1-2.18,6.68-.85,12.99,1.72,19.48,2.87,11.02,1.97,22.16,3.07,33.23,4.65,3,.42,5.97,1.19,8.96,1.81l-14.32,12.85,.62,1.01c4.79-4.96,10.6-8.81,17.04-11.28,1.41-.58,2.99-.65,4.44-.19,21.05,7.71,33.21,24.41,36.77,49.62,.52,3.67,.71,7.4,1.11,11.71-5.49-4.45-10.64-8.48-17.56-7.43,2.3,.62,4.55,1.44,6.71,2.44,2.14,1.33,4.13,2.88,5.94,4.63,3.89,3.07,5.75,8.05,4.82,12.92-.31,3.66-.34,7.34-.1,11l-5.98-2.55c.21,.64,.22,.89,.31,.92,4.26,1.7,5.64,4.94,5.42,10.28-.88,11.12,.07,22.3,2.8,33.12,1.56,5.77,2.25,11.73,2.07,17.7-.37,12.05,.29,21.5-.64,37.6-.26,4.48-.52,8.17-.7,10.66-.83,2.9-1.44,5.85-1.85,8.83-.26,1.89-.41,3.69-.5,5.37h10.92c-.09-1.77-.17-3.56-.23-5.38-.07-1.79-.12-3.56-.17-5.31h-.02c.21-2.17,.38-4.33,.4-6.49,.13-13.83-.12-27.67-.07-41.5,.02-1.72,.52-3.39,1.46-4.83,4.46-6.24,9.73-11.1,17.07-11.91-7.13-1.27-12.7,2.81-18.11,7.44l-.73-.44c.75-5.98,1.1-12.07,2.32-17.91,5.15-24.45,18.25-40.32,38.99-47.58,1.38-.45,2.86-.4,4.21,.14,7.08,2.7,13.51,6.87,18.86,12.24-3.87-6.46-9.55-10.35-15.06-15.21l22.92-3.5c9.4-1.45,18.92-2.29,28.18-4.55,10.21-2.56,20.93-2.21,30.95,1.03,.34,.11,.68,.17,1.02,.26-5.98-4.52-12.76-5.48-19.58-6.63Z" fill="#fff"/>
      <rect id="_사각형_2814" data-name="사각형 2814" width="300" height="300" fill="none"/>
    </g>
  </g>
</svg>