<?xml version="1.0" encoding="UTF-8"?>
<svg id="_레이어_2" data-name="레이어 2" xmlns="http://www.w3.org/2000/svg" viewBox="0 0 300 300">
  <g id="_레이어_1-2" data-name="레이어 1">
    <g id="_03자연_shape_03_0028" data-name=" 03자연 shape 03 0028">
      <path id="_패스_686" data-name="패스 686" d="M237.98,140.76c6.08,.34,11.93,.23,17.65,1.05,26.04,3.82,45.1,26.54,44.31,52.85-1,29.24-23.66,50.84-53.58,50.87-57.15,.06-114.3,.06-171.45,.02-8.16,0-16.33,.12-24.49-.09C22.14,244.76-.58,220.82,.04,192.5c.37-28.2,23.13-50.98,51.33-51.38,2.45-.13,4.9-.13,7.34,.01,2.68,.24,3.6-.69,3.83-3.41,1.03-12.28,3.59-24.22,9.39-35.21,14.19-26.89,36.27-43.31,66.45-47.28,39.73-5.22,75,15,91.68,51.43,4.42,9.65,6.32,19.94,7.42,30.42,.13,1.25,.35,2.49,.51,3.68Z" fill="#fff"/>
      <rect id="_사각형_2830" data-name="사각형 2830" width="300" height="300" fill="none"/>
    </g>
  </g>
</svg>