<?xml version="1.0" encoding="UTF-8"?>
<svg id="_레이어_2" data-name="레이어 2" xmlns="http://www.w3.org/2000/svg" viewBox="0 0 300 300">
  <g id="_레이어_1-2" data-name="레이어 1">
    <g id="_03자연_shape_03_0030" data-name=" 03자연 shape 03 0030">
      <path id="_패스_684" data-name="패스 684" d="M2.9,201.11c.51-2.41,.93-4.84,1.55-7.21,6.75-25.85,23.21-41.47,49.39-46.86,1.52-.14,2.75-1.29,2.98-2.8,8.33-32.47,28.44-54.22,60.11-64.95,5.11-1.73,7.96-4.09,10.39-8.97,16.8-34.25,58.18-48.4,92.43-31.6,4.46,2.19,8.67,4.85,12.56,7.94,11.69,9.05,20.06,21.7,23.81,35.99,.28,1.77,1.68,3.16,3.45,3.43,18.83,4.69,31.27,16.4,35.92,35.19,4.63,18.68-.9,34.75-15.11,47.76-1.54,1.41-3.31,2.58-4.86,3.77,2.17,4.57,4.66,8.89,6.33,13.51,11.53,31.68-4.8,66.71-36.48,78.25-2.76,1-5.59,1.81-8.46,2.41-4.6,.91-9.29,1.34-13.98,1.3-52.47,.09-104.94,.1-157.41,.05-27.78-.02-50.23-15.77-59.38-41.83-1.56-4.45-2.19-9.24-3.25-13.87v-11.49Zm213.57-37.09c-.14-.98-.31-2-.42-3.02-.9-8.6-2.46-17.05-6.09-24.96-13.7-29.9-42.64-46.49-75.25-42.21-24.76,3.25-42.88,16.73-54.53,38.8-4.76,9.02-6.86,18.82-7.7,28.9-.19,2.24-.94,2.99-3.14,2.8-2.01-.11-4.02-.12-6.03-.01-23.65,.39-42.52,19.87-42.13,43.53,.37,22.81,18.56,41.33,41.36,42.11,6.7,.17,13.4,.07,20.1,.07,46.91,0,93.81,0,140.72-.01,24.55-.03,43.15-17.76,43.97-41.75,.65-21.59-14.99-40.25-36.37-43.38-4.7-.66-9.5-.58-14.49-.85h0Zm24.43-61.56c-.65-13.02-4.2-25.12-13.15-35.15-8.55-9.91-20.64-16.08-33.68-17.18-21.85-2.03-40.65,10.31-48.15,24.47,.26,.11,.53,.19,.81,.25,1.33,.13,2.67,.24,4.01,.33,39.16,2.79,71.96,30.72,80.94,68.94,.34,1.45,.76,2.53,2.6,2.81,9.59,1.48,18.66,5.32,26.39,11.17,1.42,1.06,2.42,.85,3.81,.04,10.18-6.17,15.73-17.81,14.1-29.61-1.63-11.51-10.64-21.92-21.84-24.42-4.98-1.11-10.21-1.11-15.84-1.66h0Z" fill="#fff"/>
      <rect id="_사각형_2828" data-name="사각형 2828" width="300" height="300" fill="none"/>
    </g>
  </g>
</svg>