<?xml version="1.0" encoding="UTF-8"?>
<svg id="_레이어_2" data-name="레이어 2" xmlns="http://www.w3.org/2000/svg" viewBox="0 0 300 300">
  <g id="_레이어_1-2" data-name="레이어 1">
    <g id="_03자연_shape_03_0025" data-name=" 03자연 shape 03 0025">
      <path id="_패스_678" data-name="패스 678" d="M150.1,159.93c-37.23,0-74.45,0-111.68,0-15.88-.01-28.68-9.66-31.47-24.17-2.06-10.71-.19-21.25,3.71-31.24,10-25.64,28.65-41.03,55.73-46.17,1.67-.47,3.11-1.56,4.01-3.05,14.69-24.89,35.92-40.88,64.13-47.21,41.71-9.25,84.55,9.94,105.4,47.23,1.27,2.43,3.51,4.21,6.15,4.92,26.82,8.64,42.52,27.17,47.15,54.83,.98,6.26,.9,12.63-.22,18.86-2.83,16.08-15.21,25.97-31.55,25.99-37.12,.04-74.24,.05-111.36,.01Z" fill="#fff"/>
      <path id="_패스_679" data-name="패스 679" d="M139.84,201.13c0-3.33-.08-6.66,.02-9.98-.06-5.65,4.47-10.27,10.12-10.33s10.27,4.47,10.33,10.12c0,.07,0,.13,0,.2,.12,6.87,.12,13.74,0,20.61,0,5.64-4.57,10.22-10.22,10.23-5.64,0-10.22-4.57-10.23-10.22-.1-3.54-.02-7.08-.02-10.63Z" fill="#fff"/>
      <path id="_패스_680" data-name="패스 680" d="M77.92,212.07c0,3.33,.08,6.66-.02,9.98,0,5.65-4.57,10.23-10.21,10.23-5.65,0-10.23-4.57-10.23-10.21-.12-6.87-.12-13.74,0-20.61,0-5.64,4.57-10.23,10.21-10.23,5.64,0,10.23,4.57,10.23,10.21h0c.1,3.54,.02,7.08,.02,10.62Z" fill="#fff"/>
      <path id="_패스_681" data-name="패스 681" d="M222.24,211.67c0-3.33-.06-6.66,.01-9.98,.13-6.05,4.58-10.55,10.31-10.5,5.66,.07,10.19,4.7,10.14,10.36,.11,6.87,.13,13.74,0,20.61,.01,5.65-4.55,10.23-10.2,10.25-5.65,.01-10.23-4.55-10.25-10.2,0-.08,0-.15,0-.23-.08-3.43-.01-6.87-.02-10.3Z" fill="#fff"/>
      <path id="_패스_682" data-name="패스 682" d="M98.63,273.38c0-3.33-.07-6.66,.02-9.98-.07-5.65,4.45-10.28,10.1-10.35,5.65-.07,10.28,4.45,10.35,10.1,0,.06,0,.13,0,.19,.13,6.87,.13,13.74,0,20.61,.07,5.65-4.45,10.28-10.1,10.35s-10.28-4.45-10.35-10.1c0-.06,0-.13,0-.19-.1-3.54-.02-7.08-.02-10.63Z" fill="#fff"/>
      <path id="_패스_683" data-name="패스 683" d="M201.53,273.83c0,3.33,.07,6.66-.01,9.98-.15,6.03-4.67,10.54-10.38,10.45-5.65-.11-10.15-4.77-10.07-10.43-.09-6.76-.09-13.52,0-20.29-.12-5.65,4.37-10.32,10.02-10.44,5.65-.12,10.32,4.37,10.44,10.02,0,.13,0,.27,0,.4,.09,3.43,.02,6.87,.02,10.3Z" fill="#fff"/>
      <rect id="_사각형_2827" data-name="사각형 2827" width="300" height="300" fill="none"/>
    </g>
  </g>
</svg>