<?xml version="1.0" encoding="UTF-8"?>
<svg id="_레이어_2" data-name="레이어 2" xmlns="http://www.w3.org/2000/svg" viewBox="0 0 300 300">
  <g id="_레이어_1-2" data-name="레이어 1">
    <g id="_03자연_shape_03_0015" data-name=" 03자연 shape 03 0015">
      <path id="_패스_887" data-name="패스 887" d="M40.27,190.48c12.22-5.47,24.89-7.66,37.9-8.45,18.58-1.13,36.83,1.33,55.05,4.59,18.17,3.25,36.32,6.7,54.61,9.12,30.21,4.02,60.54,6.08,90.84,.66,6.26-1.12,12.42-2.79,19.87-4.49-4.92,6.86-11.2,10.05-17.41,13-18.37,8.7-38.05,10.32-58.01,9.97-26.63-.47-52.21-7.22-77.91-13.25-23.7-5.56-47.55-10.28-71.96-11.09-10.9-.36-21.82-.06-32.99-.06Z" fill="#fff"/>
      <path id="_패스_888" data-name="패스 888" d="M152.91,212.62c-7.03,2.99-14.55,4.66-22.19,4.94-10.88,.66-21.57-.78-32.23-2.68-10.64-1.9-21.27-3.91-31.97-5.34-17.69-2.35-35.45-3.55-53.19-.38-3.67,.66-7.28,1.63-11.64,2.63,2.88-4.01,6.56-5.88,10.2-7.6,10.76-5.09,22.28-6.03,33.96-5.83,15.59,.28,30.57,4.22,45.62,7.74,13.88,3.25,27.84,6.01,42.13,6.49,6.38,.22,12.77,.04,19.31,.04Z" fill="#fff"/>
      <path id="_패스_648" data-name="패스 648" d="M262.24,148.48c-.19-4.1-.56-7.45-.86-9.64-4.39-52.2-49.31-96.14-101.17-98.68-47.68-2.34-88.41,22.49-107.7,66.17-2.92,6.62-5.15,13.52-6.66,20.6-3.45,16.36-3.12,33.3,.95,49.52,5.39-1.46,10.86-2.63,16.38-3.51,29.39-4.68,55.12-.2,73.72,5.32,17.13,4.26,34.51,7.42,52.04,9.46,12.22,1.42,23.79,2.22,34.61,2.56,2.87,.26,5.75,.37,8.63,.33,6.36-.11,12.7-.86,18.91-2.25l3.12-.8c2.14-3.52,3.88-7.27,5.21-11.18,3.53-10.47,3.19-19.79,2.82-27.9Z" fill="#fff"/>
      <rect id="_사각형_2817" data-name="사각형 2817" width="300" height="300" fill="none"/>
    </g>
  </g>
</svg>