<?xml version="1.0" encoding="UTF-8"?>
<svg id="_레이어_2" data-name="레이어 2" xmlns="http://www.w3.org/2000/svg" viewBox="0 0 300 300">
  <g id="_레이어_1-2" data-name="레이어 1">
    <g id="_03자연_shape_03_0022" data-name=" 03자연 shape 03 0022">
      <path id="_패스_662" data-name="패스 662" d="M160.35,299.11h-20.75c-.7,0-1.39-.13-2.03-.39-4.74-1.89-10.31-6.21-9.97-16.11,.16-4.71,.12-9.57,.09-14.27-.02-2.09-.03-4.18-.03-6.28v-3.12c0-3.04,2.46-5.5,5.5-5.5h33.66c3.04,0,5.5,2.46,5.5,5.5h0v9.84c0,1.45-.02,2.91-.03,4.36-.04,3.25-.08,6.31,.08,9.38,.49,9.89-5.14,14.27-9.95,16.2-.65,.26-1.35,.39-2.05,.39Zm-19.58-11h18.4c1.58-.83,2.34-2.05,2.19-5.04-.17-3.4-.13-6.78-.09-10.06,.02-1.41,.03-2.82,.03-4.23v-4.34h-22.66c0,1.27,.01,2.54,.03,3.81,.04,4.81,.08,9.79-.09,14.73-.11,3.07,.64,4.31,2.19,5.13Z" fill="#fff"/>
      <path id="_패스_663" data-name="패스 663" d="M241.55,247.52h-1.17c-60.47,0-120.95,0-181.41,0h-.48c-1.32,.04-2.64-.05-3.94-.27-4.6-.86-8.45-3.99-10.21-8.32-1.76-4.63-1.06-9.83,1.88-13.82,4.94-6.98,10-14.02,14.9-20.84,2.05-2.86,4.11-5.72,6.16-8.58l4.5-6.27c3.22-4.49,6.44-8.98,9.66-13.48h-1.84c-2.38,0-4.76,0-7.14-.03-5.24,.11-10.06-2.83-12.34-7.54-2.5-4.71-2.02-10.45,1.23-14.68,3.97-5.55,7.95-11.09,11.94-16.62l11.53-16.02c4.6-6.39,9.2-12.77,13.8-19.16-2.43,0-4.82-.01-7.24-.07-4.01-.05-7.8-1.82-10.42-4.84-2.51-2.96-3.61-6.86-3.03-10.7,.43-2.71,1.55-5.25,3.25-7.4,18.25-23.06,37.56-47.35,57.39-72.21,2.64-3.54,6.76-5.67,11.18-5.75,4.46,.09,8.62,2.24,11.28,5.82,12.08,15.14,24.14,30.29,36.19,45.46,7.02,8.83,14.04,17.65,21.06,26.48,3.87,4.87,4.59,10.38,2.02,15.53-2.51,5.03-7.24,7.75-13.28,7.68-2.02-.03-4.05-.03-6.12-.04,2.12,2.95,4.18,5.81,6.24,8.68l9.65,13.4c6.99,9.71,13.98,19.42,20.97,29.14,4.95,6.89,4.11,15.15-2,19.64-2.78,1.93-6.06,3.01-9.44,3.13-2.73,.13-5.44,.16-8.18,.16,6.5,9.08,13.01,18.15,19.51,27.22l14.78,20.61c.65,.87,1.26,1.78,1.82,2.71,2.47,4.17,2.59,9.33,.32,13.61-2.31,4.29-6.68,7.07-11.55,7.34-.52,.03-.99,.04-1.44,.04Zm-1.17-11.01h.64c.42,0,.84,.01,1.25-.01,1.07-.02,2.04-.61,2.55-1.54,.48-.93,.43-2.04-.13-2.92-.31-.54-.75-1.14-1.21-1.77l-.4-.56-14.41-20.11c-7.93-11.06-15.86-22.12-23.79-33.19-.42-.58-.81-1.19-1.28-1.93-.21-.32-.43-.68-.69-1.07-1.1-1.69-1.19-3.85-.23-5.62,.96-1.78,2.82-2.88,4.84-2.88,1.92,0,3.8,.02,5.63,.03,4.39,.04,8.54,.07,12.62-.12,1.21-.03,2.4-.38,3.44-1.01,1.68-1.24-.06-3.85-.42-4.36-6.97-9.72-13.96-19.43-20.96-29.13l-9.65-13.4c-2.7-3.74-5.39-7.49-8.2-11.41l-4.29-5.97c-1.2-1.68-1.37-3.88-.43-5.72,.94-1.84,2.83-2.99,4.89-2.99,1.86,0,3.66,0,5.41,0,4-.01,7.77-.02,11.56,.03h.13c2.19,0,2.73-.72,3.17-1.6,.38-.76,.85-1.7-.78-3.76-7.03-8.83-14.05-17.65-21.07-26.48-12.05-15.16-24.11-30.3-36.18-45.44-.6-.93-1.58-1.54-2.68-1.68-1.05,.15-1.99,.74-2.58,1.62-19.83,24.84-39.12,49.13-57.36,72.17-.49,.62-.83,1.34-.99,2.11-.13,.72,.06,1.47,.52,2.04,.59,.63,1.42,.99,2.29,.96,3.89,.09,7.79,.07,11.91,.05,1.85-.01,3.74-.02,5.67-.02,2.02,0,3.88,1.11,4.84,2.89,.96,1.78,.87,3.93-.23,5.62-.27,.42-.51,.78-.72,1.11-.47,.73-.84,1.31-1.24,1.86-6.03,8.39-12.07,16.77-18.1,25.15l-11.53,16.01c-3.98,5.53-7.96,11.07-11.93,16.6-.85,.89-1,2.23-.36,3.29,.44,1.05,1.53,1.67,2.66,1.53,2.34,.02,4.69,.03,7.04,.03h12.36c2.02,0,3.87,1.1,4.84,2.88,.96,1.77,.88,3.93-.22,5.62-.27,.41-.49,.77-.7,1.08-.46,.72-.82,1.28-1.21,1.83-4.64,6.49-9.29,12.98-13.95,19.47l-4.5,6.27c-2.05,2.87-4.11,5.73-6.17,8.59-4.89,6.8-9.94,13.83-14.85,20.77-.78,.95-1.02,2.23-.64,3.39,.38,.88,1.19,1.49,2.13,1.61,.57,.07,1.15,.09,1.73,.06h.55c60.47,.01,120.94,.02,181.41,.01h0Z" fill="#fff"/>
      <rect id="_사각형_2824" data-name="사각형 2824" width="300" height="300" fill="none"/>
    </g>
  </g>
</svg>