<?xml version="1.0" encoding="UTF-8"?>
<svg id="_레이어_2" data-name="레이어 2" xmlns="http://www.w3.org/2000/svg" viewBox="0 0 300 300">
  <g id="_레이어_1-2" data-name="레이어 1">
    <g id="_03자연_shape_03_0016" data-name=" 03자연 shape 03 0016">
      <g id="_그룹_251" data-name="그룹 251">
        <path id="_패스_649" data-name="패스 649" d="M300,138.66l-18.07-16.62-16.97,18.45v-58.12l-41.01,29.36v70.39l-17.75-16.33V32.72h-41.01v56.05l-18.71,20.34V32.72h-41.01V176.74l41.01,20.26v-52.95l18.71-20.34v147.45h41.01v-73.23l17.75,16.33v56.9h41.01v-94.39l35.05-38.1Z" fill="#fff"/>
        <path id="_패스_650" data-name="패스 650" d="M105.45,236.78l-19.73-10.31v-74.12L18.78,91.42,.43,111.36l44.29,40.75v119.06h41.01v-23.65l19.73,10.31v13.33h41.01v-48.99l-41.01-20.27v34.88Z" fill="#fff"/>
        <path id="_패스_651" data-name="패스 651" d="M264.95,32.72h-41.01v51.13l41.01-29.37v-21.76Z" fill="#fff"/>
        <path id="_패스_652" data-name="패스 652" d="M85.97,32.72H44.96v47.18l41.01,37.74V32.72Z" fill="#fff"/>
      </g>
      <rect id="_사각형_2818" data-name="사각형 2818" width="300" height="300" fill="none"/>
    </g>
  </g>
</svg>