<?xml version="1.0" encoding="UTF-8"?>
<svg id="_레이어_2" data-name="레이어 2" xmlns="http://www.w3.org/2000/svg" viewBox="0 0 300 300">
  <g id="_레이어_1-2" data-name="레이어 1">
    <g id="_03자연_shape_03_0004" data-name=" 03자연 shape 03 0004">
      <path id="path1016" d="M149.99,0c-13.85,0-24.66,10.63-33.77,24.46s-16.91,31.99-23.49,51.31c-4.93,14.46-9.15,29.46-12.5,43.7-1.79-4.57-3.83-9.04-6.12-13.39-2.57-5.07-5.9-9.73-9.86-13.8-3.79-3.68-8.61-6.56-14.24-6.56-5.24,0-9.8,2.5-13.43,5.78-3.76,3.59-6.95,7.74-9.44,12.31-5.6,9.69-10.31,22.13-14.28,35.25C4.91,165.3,0,193.38,0,207.15c.07,24.81,18.29,45.84,42.84,49.43v29.13H7.15c-9.32,.2-9.32,14.08,0,14.29H292.86c9.32-.2,9.32-14.08,0-14.29h-35.73v-29.13c24.56-3.58,42.8-24.61,42.87-49.43,0-13.77-4.91-41.85-12.86-68.09-3.97-13.12-8.67-25.56-14.28-35.25-2.49-4.57-5.67-8.72-9.44-12.31-3.62-3.28-8.19-5.78-13.43-5.78-5.64,0-10.45,2.88-14.24,6.56-3.97,4.07-7.29,8.73-9.86,13.8-2.28,4.34-4.32,8.81-6.12,13.38-3.35-14.24-7.57-29.24-12.5-43.69-6.58-19.32-14.41-37.47-23.51-51.31S163.83,0,149.99,0Zm0,14.29c5.88,0,13.87,5.86,21.86,18,7.99,12.14,15.56,29.46,21.91,48.07,12.69,37.22,20.54,80.42,20.54,98.21,.04,32.76-24.59,60.3-57.16,63.89v-18.05l19.35-19.35c2.81-2.76,2.86-7.28,.1-10.1-2.76-2.81-7.28-2.86-10.1-.1-.03,.03-.07,.07-.1,.1l-9.25,9.24v-22.66l19.35-19.34c2.84-2.74,2.92-7.26,.19-10.1-2.74-2.84-7.26-2.92-10.1-.19-.06,.06-.13,.12-.19,.19l-9.25,9.25v-25.62c.05-3.95-3.12-7.18-7.06-7.23s-7.18,3.12-7.23,7.06c0,.06,0,.11,0,.17v25.6l-9.23-9.23c-2.75-2.83-7.27-2.89-10.1-.14-2.83,2.75-2.89,7.27-.14,10.1,.05,.05,.09,.09,.14,.14l19.32,19.32v22.67l-9.23-9.22c-2.72-2.85-7.24-2.95-10.09-.23-2.85,2.72-2.95,7.24-.23,10.09,.07,.08,.15,.15,.23,.23l19.32,19.32v18.07c-32.56-3.59-57.19-31.13-57.13-63.89,0-17.8,7.85-60.99,20.54-98.21,6.34-18.61,13.92-35.92,21.91-48.06s15.95-18,21.83-18h0ZM50,100c.73,0,2.12,.41,4.29,2.52,2.9,3.08,5.34,6.57,7.25,10.34,4.78,8.87,9.32,21.39,13.07,34.44-2.06,12.43-3.19,23.28-3.19,31.27,0,14.65,4.1,29.01,11.86,41.44-4.38,11.35-14.23,19.69-26.15,22.13v-27.84c.05-3.95-3.12-7.18-7.06-7.23s-7.18,3.12-7.23,7.06c0,.06,0,.11,0,.17v27.85c-16.65-3.36-28.61-18.01-28.56-35,0-9.9,4.68-38.97,12.25-63.95,3.78-12.49,8.32-24.19,12.97-32.23,1.78-3.26,4.02-6.25,6.65-8.87,1.96-1.77,3.16-2.09,3.84-2.09h0Zm200,0c.68,0,1.89,.32,3.84,2.09,2.64,2.62,4.88,5.61,6.66,8.87,4.65,8.04,9.18,19.74,12.97,32.23,7.57,24.99,12.25,54.05,12.25,63.95,.05,17-11.92,31.65-28.58,35v-27.86c.07-3.94-3.07-7.18-7.01-7.25s-7.18,3.07-7.25,7.01c0,.08,0,.16,0,.24v27.84c-11.92-2.43-21.78-10.77-26.16-22.13,7.77-12.42,11.88-26.78,11.87-41.44,0-7.99-1.12-18.86-3.18-31.29,3.75-13.05,8.28-25.56,13.07-34.43,1.91-3.77,4.35-7.25,7.25-10.34,2.17-2.11,3.56-2.52,4.29-2.52Zm-43.01,132.57c7.7,13.04,20.9,21.89,35.88,24.07v29.08h-85.74v-28.9c19.01-1.75,36.74-10.36,49.85-24.24Zm-113.99,0c13.11,13.88,30.83,22.5,49.84,24.24v28.9H57.14v-29.09c14.98-2.18,28.16-11.02,35.87-24.05h0Z" fill="#fff"/>
    </g>
  </g>
</svg>