<?xml version="1.0" encoding="UTF-8"?>
<svg id="_레이어_2" data-name="레이어 2" xmlns="http://www.w3.org/2000/svg" viewBox="0 0 300 300">
  <g id="_레이어_1-2" data-name="레이어 1">
    <g id="_03자연_shape_03_0014" data-name=" 03자연 shape 03 0014">
      <g id="_그룹_248" data-name="그룹 248">
        <path id="_패스_647" data-name="패스 647" d="M116.71,136.51c-7.43-6.4-14.62-12.61-21.82-18.81-4.94-4.26-8.53-3.8-12.3,1.6C55.51,158.09,28.44,196.89,1.39,235.7c-.8,1.15-1.75,3.37-1.26,4.01,1.12,1.08,2.62,1.67,4.17,1.63,97.15,.07,194.3,.07,291.44,.01,1.4,0,3.64-.44,4-1.3,.48-1.17-.16-3.15-.89-4.44-11.02-19.29-22.1-38.55-33.23-57.78-3.47-6.03-6.89-12.09-10.45-18.07-2.36-3.96-6.22-5.06-9.7-2.59-4.19,2.98-8.16,6.28-12.3,9.49,6.06,11.48,12.06,22.76,17.96,34.08,.96,1.84,3.34,4.17,.2,5.82-2.89,1.52-3.51-1.62-4.44-3.37-24.54-46.23-49.06-92.47-73.55-138.73-2.16-4.07-2.93-4.09-5.43-.11-28.51,45.34-57.02,90.67-85.53,136.01-1.11,1.77-2.14,4.6-4.81,2.72-2.42-1.71-.35-3.73,.7-5.4,12.74-20.32,25.5-40.61,38.42-61.17Z" fill="#fff"/>
      </g>
      <rect id="_사각형_2816" data-name="사각형 2816" x=".09" width="299.91" height="300" fill="none"/>
    </g>
  </g>
</svg>