<?xml version="1.0" encoding="UTF-8"?>
<svg id="_레이어_2" data-name="레이어 2" xmlns="http://www.w3.org/2000/svg" viewBox="0 0 300 300">
  <g id="_레이어_1-2" data-name="레이어 1">
    <g id="_03자연_shape_03_0011" data-name=" 03자연 shape 03 0011">
      <path id="_패스_643" data-name="패스 643" d="M215.58,210.91c-23.86-.29-47.37-5.74-68.92-15.97-77.69-35.41-129.58-12.72-145.36-3.72v66.01c21-10.93,72.96-28.82,148.95,5.8,18.37,8.7,38.22,13.85,58.5,15.16,6.62,.01,13.23-.31,19.81-.97,5.79-.58,11.2-1.39,16.19-2.31,5.52-1.31,10.94-2.99,16.23-5.02,13.9-5.31,26.69-13.16,37.73-23.15v-64.52c-10.35,8.21-21.87,14.82-34.18,19.6-15.6,6.06-32.2,9.15-48.94,9.1Z" fill="#fff"/>
      <path id="_패스_644" data-name="패스 644" d="M215.58,134.91c-23.86-.29-47.37-5.73-68.92-15.96C68.96,83.54,17.07,106.21,1.29,115.23v65.99c10.58-5.39,21.87-9.28,33.53-11.54,4.82-.84,10.03-1.56,15.59-2.09,5.11-.48,9.95-.74,14.48-.83,27.47,2.08,56.86,7.05,85.34,20.26,2.08,.97,4.15,1.85,6.21,2.71l25.2,8.35c11.11,2.8,22.51,4.24,33.97,4.29,15.52,.02,30.9-2.85,45.36-8.48,13.9-5.31,26.69-13.16,37.73-23.13V106.21c-10.35,8.21-21.87,14.82-34.18,19.62-15.61,6.05-32.21,9.13-48.94,9.08Z" fill="#fff"/>
      <path id="_패스_645" data-name="패스 645" d="M264.52,47.88c-15.6,6.06-32.21,9.15-48.94,9.1-23.86-.29-47.37-5.74-68.92-15.98C68.96,5.59,17.07,28.28,1.29,37.29V103.28c20.99-10.93,72.96-28.81,148.93,5.8,20.42,9.77,42.72,15.01,65.35,15.36,7.1-.24,14.18-.93,21.2-2.06,5.86-.91,11.64-2.24,17.31-3.98,.94-.3,1.72-.56,2.26-.74,2.02-.69,3.56-1.28,4.63-1.69,13.89-5.33,26.68-13.18,37.73-23.15V28.27c-10.34,8.22-21.87,14.83-34.18,19.62Z" fill="#fff"/>
      <rect id="_사각형_2813" data-name="사각형 2813" width="300" height="300" fill="none"/>
    </g>
  </g>
</svg>