<?xml version="1.0" encoding="UTF-8"?>
<svg id="_레이어_2" data-name="레이어 2" xmlns="http://www.w3.org/2000/svg" viewBox="0 0 300 300">
  <g id="_레이어_1-2" data-name="레이어 1">
    <g>
      <path id="_패스_769" data-name="패스 769" d="m283.18,75.51l-14.6,28.65c17.33,14.03,17.96,34.67,18.27,55.88.14,9.39,3.25,18.79,5.52,28.06,1.38,5.65,4.25,10.94,5.5,16.61,4.15,18.62,1.14,22.3-17.39,22.3-35.39,0-70.78-.29-106.17.12-8.85.1-12.83-3-14.12-11.62-3.56-23.77,2.52-43.25,21.79-58.91,11-9.43,21.17-19.79,30.41-30.94,11.97-13.71,22.93-27.87,44.51-24.42,3.04.5,7.95-4.68,10.46-8.3,4.06-6.48,7.76-13.18,11.08-20.07l4.75,2.64Z" fill="#fff"/>
      <path id="_패스_770" data-name="패스 770" d="m44.94,148c-6.6-4.25-11.16-8.15-16.43-10.36-6.62-2.79-10.23-5.6-2.92-15.05l23.77,21.24c9.13-3.77,18.19-9.72,27.89-11.09,24.01-3.4,50.98,13.07,57.3,36.79,4.14,15.54,3,32.6,3.04,48.98,0,2.81-6,8.02-9.28,8.07-37.86.57-75.72.56-113.59-.03-3.86-.07-9.6-4.65-11.11-8.47-8.27-20.92.23-42.67,21.92-58.15,5.31-3.77,11.12-6.86,19.4-11.93Z" fill="#fff"/>
      <rect width="300" height="300" fill="none"/>
    </g>
  </g>
</svg>