<?xml version="1.0" encoding="UTF-8"?>
<svg id="_레이어_2" data-name="레이어 2" xmlns="http://www.w3.org/2000/svg" viewBox="0 0 300 300">
  <g id="_레이어_1-2" data-name="레이어 1">
    <g>
      <path d="m142.61,300c-4.9-.79-9.84-1.36-14.68-2.4-9.25-1.98-17.86-5.54-25.41-11.39-1.29-1-2.45-2.18-3.73-3.33,5.75-11.53,11.4-22.84,17.02-34.1-12.31-9.9-11.96-24.23-3.59-33.93-3.57-4.19-5.92-9.01-6.02-15.17-7.6.35-15.27-1.43-22.56,1.44-6.01,2.37-9.65,7.09-10.92,13.51-.2,1.04-.36,2.08-.55,3.22h-14.4c-.24-4.58.72-8.91,2.62-12.95,5.7-12.17,15.23-19.04,28.76-19.82,5.53-.32,11.09-.05,16.83-.05v-11.1c-4.94,0-9.79.06-14.64-.01-11.48-.16-20.81-4.69-27.59-14.05-4.04-5.58-6.04-11.87-6.04-18.96h14.36c.13.56.3,1.1.39,1.65,1.58,9.8,7.35,15.56,17.27,16.46,5.3.48,10.69.09,16.43.09,0-3.4.09-6.69-.09-9.96-.03-.53-1.25-1.32-2.01-1.44-12.95-2.12-23.11-8.67-29.17-20.24-2.57-4.91-5.9-6.86-10.76-8.68-23.19-8.71-38.57-25.06-44.74-49.19-3.16-12.35-1.24-24.84,1.85-37.05,2.39-9.43,6.65-17.91,13.72-24.76,3.44-3.34,7.36-5.97,12.24-7.66,1.05,21.95.84,43.97,13.74,62.91.37-.05.74-.1,1.12-.15V22.1c7.39,1.57,13.11,5.01,17.8,10.26,8.06,9.01,12.02,19.95,14.68,31.46,3.25,14.05,4.17,28.35,4.2,42.74.01,5.78,2.65,9.81,7.34,11.51.53.19,1.11.22,1.92.37,3.35-23.47,9.96-45.61,24.73-64.73-6.1-7.19-9.4-15.5-10.9-24.63-.14-.88-1.1-1.78-1.91-2.37-7.19-5.28-8.55-14.67-3.02-21.33,5.47-6.59,15.12-7.18,21.34-1.32,6.13,5.78,6.02,15.43-.17,21.4-.67.65-1.44,1.81-1.31,2.59.85,5.35,2.62,10.37,6.24,14.95,1.69-1.24,3.38-2.36,4.92-3.65,1.61-1.35,3.03-1.32,4.63.02,1.48,1.24,3.1,2.33,4.86,3.64,3.7-4.57,5.45-9.76,6.33-15.27.1-.63-.61-1.55-1.17-2.1-5.08-4.97-6.39-11.74-3.32-17.63,3-5.77,9.49-8.97,15.68-7.73,6.76,1.36,11.47,6.6,11.94,13.7.34,5.14-1.95,9.15-5.86,12.45-1.2,1.01-2.1,2.63-2.63,4.14-1.4,4.04-2.16,8.34-3.86,12.23-1.7,3.88-4.22,7.4-6.52,11.3,14.5,18.76,21.1,40.91,24.44,64.25,5.65-.83,9.03-5.08,9.29-11.22.37-8.38.53-16.79,1.31-25.14,1.46-15.56,4.6-30.7,13.27-44.1,4.82-7.44,11.18-12.97,19.96-15.3.38-.1.75-.2,1.14-.26.18-.03.38.05,1,.13v41.09c4.19-4.29,6.26-8.89,7.97-13.66,4.89-13.69,6.14-27.95,6.54-42.33.06-2.24.16-4.48.26-6.72,0-.16.2-.32.42-.65,7.34,2.77,12.96,7.67,17.39,14.06,7.23,10.44,10.17,22.31,11.03,34.71,2.25,32.11-15.97,59.67-46.55,70.13-4.52,1.55-7.32,3.48-9.61,7.89-6.08,11.7-16.15,18.49-29.23,20.57-1.85.29-2.5.91-2.41,2.77.14,2.81.04,5.64.04,8.97,7.46-.45,14.84,1.13,21.89-1.4,6.32-2.27,10.17-7.01,11.56-13.65.22-1.04.35-2.11.56-3.32h14.48c-.06,8.27-2.75,15.39-8.06,21.48-6.74,7.74-15.41,11.39-25.61,11.5-4.78.05-9.56,0-14.57,0v11.01c1.18,0,2.42-.04,3.65,0,6.23.25,12.59-.2,18.67.92,15.06,2.78,26.84,17.75,25.76,31.95h-14.37c-.47-4.47-1.67-8.62-4.79-11.99-3.32-3.59-7.33-5.88-12.26-6.02-5.53-.16-11.08-.04-16.82-.04-.27,5.79-2.26,10.76-6.03,14.9,8.86,15.21,8.12,22.27-3.65,34.15,5.61,11.24,11.25,22.55,16.96,33.98-3.65,4.06-8.12,6.78-12.85,9.14-9.03,4.5-18.64,6.82-28.66,7.58-.76.06-1.5.33-2.26.5h-15.24Z" fill="#fff"/>
      <rect width="300" height="300" fill="none"/>
    </g>
  </g>
</svg>