<?xml version="1.0" encoding="UTF-8"?>
<svg id="_레이어_2" data-name="레이어 2" xmlns="http://www.w3.org/2000/svg" viewBox="0 0 300 300">
  <g id="_레이어_1-2" data-name="레이어 1">
    <g>
      <g>
        <path id="_패스_687" data-name="패스 687" d="m279,179.17c-.04,4.25-.4,8.5-1.06,12.7-.33,4.98-2.43,9.68-5.92,13.25-3.44,2.6-7.72,3.83-12.02,3.45-4.98.1-9.72-2.11-12.84-5.99-1.66-2.93-2.54-6.23-2.57-9.6-.66-8.09-.83-16.21-.49-24.33.2-4.87.74-10.1,4.03-13.81,4.04-3.84,9.65-5.54,15.15-4.6,2.44.2,4.82.9,6.99,2.05,2.09,1.25,3.75,3.1,4.77,5.31,2.24,4.62,3.51,9.64,3.74,14.77.17,2.26.25,4.52.23,6.79Z" fill="#fff"/>
        <path id="_패스_680" data-name="패스 680" d="m91.21,127.29c-19.65,28.87-19.26,79.37.16,102.61-16.68,0-33.53,1.85-49.79-.43C16.05,225.9-1.58,201.38.11,175.55c1.64-25.93,22.34-46.58,48.28-48.14,13.82-.67,27.71-.12,42.82-.12Zm-22.86,10.28c-10.9,5.34-13.8,15.29-7.29,26.43l7.29-26.43Zm-26.25,25.79c2.47-9.01,4.54-16.59,6.94-25.35-10.85,4.65-13.97,15.5-6.94,25.35Z" fill="#fff"/>
        <path id="_패스_681" data-name="패스 681" d="m165.88,178.28l.08-2.63c.15-5.23.31-10.47.81-15.68.4-6.19,1.89-12.26,4.41-17.93,2.56-5.7,7.17-10.25,12.91-12.73,4.55-1.45,9.33-2.08,14.1-1.85,11.16.06,22.31-.7,33.35-2.3,9.61-1.58,19.1-4.27,28.84-4.56,9.38-.61,18.64,2.45,25.81,8.54,7.46,6.61,11.04,17.36,12.58,26.95,1.22,9.6,1.53,19.29.91,28.94.11,9.14-.96,18.25-3.16,27.12-2.27,8.95-7.9,16.68-15.73,21.58-11.52,6.46-25.75,3.56-38.76,1.34-12.72-2.15-25.56-3.54-38.45-4.19-8.53-.45-17.59-.75-24.68-5.52-9.95-6.7-12.84-20.02-13.18-32.01-.14-4.94,0-9.88.15-14.81v-.27Zm65.1,1.5v.59c.1,2.97.37,5.93.82,8.87.68,5.93,1.66,11.81,2.95,17.63.82,4.52,2.78,8.76,5.71,12.31,2.93,2.95,6.71,4.94,10.8,5.68,4.07.73,8.23.9,12.35.5,4.69,0,9.29-1.24,13.34-3.6,5.18-3.54,7.54-9.93,9.07-16.02,3.93-15.96,4.28-32.59,1.03-48.7-1.17-5.85-2.85-13.25-7.07-17.78-4.28-3.92-9.87-6.13-15.68-6.19-2.24-.15-4.49-.16-6.73-.02-6,.34-12.4,1.46-16.69,5.67-3.14,3.55-5.21,7.91-5.99,12.58-1.31,6.05-2.32,12.17-3.02,18.32-.51,3.36-.81,6.76-.9,10.16h0Zm-15.05-40.44c-.5-.56-1.46-.51-2.96.57-6.81,4.95-8.31,14.47-3.37,21.28.06.09.13.18.2.27l6.16-18.68c.53-1.09.52-2.36-.04-3.44h0Zm-28.18,21.45c.51.74,1.34,1.19,2.24,1.21.31,0,.61-.12.83-.34.13-.17.22-.37.27-.59l6.08-20.23c.54-1.8-.38-2.27-2.05-1.56-3.34,1.54-5.95,4.31-7.27,7.74-1.29,3.42-1.68,7.11-1.12,10.72.08.98.36,1.94.84,2.8.05.08.11.16.17.23Z" fill="#fff"/>
        <path id="_패스_682" data-name="패스 682" d="m170.38,127.55c-19.91,26.95-19.73,78.74-.24,102.31-20.83,0-41.43,1.21-61.73-.75-5.98-.59-13.92-9.19-16.09-15.74-7.41-22.37-7.41-46.54.02-68.91,2.64-9.98,11.72-16.9,22.05-16.79,18.24-.44,36.48-.12,55.99-.12Zm-53.41,34.64l6.61-24.74c-10.5,5.6-13.15,13.74-6.61,24.74Zm26.46-24.58c-10.91,4.82-13.59,12.34-8.19,24.52l8.19-24.52Z" fill="#fff"/>
        <path id="_패스_685" data-name="패스 685" d="m156.03,96.65c-6.44,1.42-21.44-25.62-15.49-32.48,2.89-3.33,10.7-1.85,15.19,1.49,10.92,8.13,5.59,29.82.3,30.99Z" fill="#fff"/>
        <path id="_패스_686" data-name="패스 686" d="m166.72,103.58c-4.21-2.69,2.24-25.2,9.09-25.68,3.33-.23,6.73,4.74,7.34,8.93,1.49,10.2-12.97,18.96-16.43,16.75Z" fill="#fff"/>
      </g>
      <rect width="300" height="300" fill="none"/>
    </g>
  </g>
</svg>