<?xml version="1.0" encoding="UTF-8"?>
<svg id="_레이어_2" data-name="레이어 2" xmlns="http://www.w3.org/2000/svg" viewBox="0 0 300 300">
  <g id="_레이어_1-2" data-name="레이어 1">
    <g>
      <g>
        <path id="_패스_688" data-name="패스 688" d="m162.05,89.52c-74.59.09-135.64,59.39-137.89,133.95h-15.85c1.02-11.27,5.24-42.32,21.91-72.67,26.47-48.18,70.94-73.17,132.19-74.25,2.21-.04,3.98-1.86,3.94-4.07-.04-2.21-1.86-3.98-4.07-3.94h0c-35.23.62-65.66,9.1-90.45,25.18-19.99,12.97-36.35,30.88-48.62,53.22C9.86,171.73,1.96,199.09.01,227.18,0,227.28,0,227.38,0,227.49c.01,2.2,1.8,3.98,4.01,3.98h24.1c2.21,0,4.01-1.79,4.01-4.01-.06-71.76,58.06-129.99,129.83-130.05,70.29-.06,127.89,55.79,129.99,126.05h-127.44c-2.21-12.25-13.93-20.4-26.19-18.19-9.27,1.67-16.52,8.92-18.19,18.19h-62.6l47.29-47.29c3.75,2.6,8.21,3.99,12.78,3.99h.18c12.45-.09,22.47-10.25,22.38-22.7-.03-4.59-1.47-9.07-4.12-12.82l25.07-25.07c16.2.44,83.38,7.12,100.87,86.51.48,2.16,2.61,3.53,4.77,3.05,2.16-.48,3.53-2.61,3.05-4.77-19.25-87.32-94.79-92.64-109.74-92.82h-.27c-1.17-.09-2.32.33-3.15,1.16l-28.87,28.87h0l-.02.02c-.14.15-.27.31-.39.48-.03.04-.08.09-.11.14-.1.16-.19.33-.26.5-.03.07-.07.13-.1.2-.06.16-.11.33-.15.49-.02.08-.06.17-.07.25-.02.15-.04.31-.04.46,0,.1-.03.21-.03.31,0,.14.02.27.04.41.01.12.01.24.04.36s.07.23.1.34c.03.13.07.27.12.4.04.1.1.19.15.29.07.14.14.28.22.41.05.08.13.16.19.23.1.13.2.26.31.38h.02v.02c5.81,5.54,6.03,14.75.48,20.56-5.54,5.81-14.75,6.03-20.56.48-.11-.1-.22-.21-.32-.32-1.28-1.25-3.23-1.5-4.78-.61-.38.19-.74.43-1.04.73l-56.55,56.55c-1.56,1.56-1.56,4.1,0,5.66.75.75,1.77,1.17,2.83,1.17h75.91c2.21,0,4.01-1.79,4.01-4.01-.01-8.03,6.48-14.55,14.51-14.57,8.03-.01,14.55,6.48,14.57,14.51v.05c0,2.22,1.8,4.01,4.01,4.01h135.14c2.21,0,4.01-1.79,4.01-4.01-.09-76.15-61.8-137.86-137.95-137.95" fill="#fff"/>
        <path id="_패스_689" data-name="패스 689" d="m210.54,167.83c-12.45,0-22.55,10.1-22.55,22.55,0,12.45,10.1,22.55,22.55,22.55,12.45,0,22.55-10.1,22.55-22.55-.01-12.45-10.1-22.54-22.55-22.55m0,37.09c-8.03,0-14.54-6.51-14.54-14.54s6.51-14.54,14.54-14.54,14.54,6.51,14.54,14.54c0,8.03-6.51,14.53-14.54,14.54" fill="#fff"/>
      </g>
      <rect width="300" height="300" fill="none"/>
    </g>
  </g>
</svg>