<?xml version="1.0" encoding="UTF-8"?>
<svg id="_레이어_2" data-name="레이어 2" xmlns="http://www.w3.org/2000/svg" viewBox="0 0 300 300">
  <g id="_레이어_1-2" data-name="레이어 1">
    <g>
      <g id="symbol_03_02_0002_01" data-name="symbol 03 02 0002 01">
        <rect id="_사각형_174" data-name="사각형 174" x="38.44" width="234" height="300" fill="none"/>
        <path id="_패스_876" data-name="패스 876" d="m259.55,101.47c-2-6.94-4.65-14.14-10.93-19.1-6.43-5.08-15.59-6.99-23.37-10.6-10.64-4.95-18.75-13.38-22.12-22.97-4.63-13.21-2.67-17.27-8.93-26.66-7.94-11.91-22.1-15.86-25.2-16.72-29.62-8.25-59.64,16.63-70.6,25.71-17.01,14-30.26,32.03-38.56,52.44-17,41.12-17.44,86.42-3.16,128.23,7.16,20.98,18.28,41.56,36.71,57.33,18.43,15.77,45.02,26.18,71.62,24,19.17-1.8,37.36-9.29,52.24-21.52,16.73-13.99,29.51-32.13,37.05-52.6,7.89-20.54,12.08-42.3,12.4-64.3.24-18-2.17-35.94-7.16-53.23Zm-134.86,16.38c4.59-3.53,10.19-5.5,15.99-5.61,3.74.02,5.02,1.09,5.6,1.77.46.55,1.52,2.09.71,6.41-.93,5.57-3.7,10.66-7.88,14.46-7,6.21-19.17,9.53-23,4.95-3.83-4.58,1.46-16.03,8.58-21.98h0Zm22.29,32.3c-.93,5.56-3.7,10.65-7.87,14.45-7,6.21-19.17,9.53-23,4.95s1.46-16.03,8.58-21.99c4.59-3.53,10.19-5.5,15.99-5.61,3.74.02,5.02,1.09,5.6,1.77.46.56,1.51,2.1.7,6.42h0Zm0,29.28c-.93,5.57-3.7,10.66-7.87,14.47-7,6.21-19.17,9.53-23,4.95-3.83-4.58,1.46-16.03,8.58-21.99,4.59-3.53,10.19-5.5,15.99-5.61,3.74.02,5.02,1.09,5.6,1.77.46.55,1.51,2.09.7,6.41h0Zm-48.53-102.32c1.21-4.23,2.84-5.12,3.5-5.4.81-.34,2.43-.72,5.78.96,5.13,2.73,9.25,7.03,11.77,12.26,3.69,8.55,3.29,21.18-2.16,23.52-5.45,2.34-14.85-6.14-18.32-14.86-2.02-5.28-2.22-11.08-.56-16.49Zm10.03,120.36c-3.83,4.58-16,1.26-23-4.95-4.17-3.8-6.94-8.9-7.87-14.46-.8-4.32.25-5.86.71-6.41.57-.68,1.85-1.74,5.6-1.77,5.79.11,11.4,2.08,15.99,5.61,7.11,5.95,12.4,17.42,8.57,21.99Zm0-29.29c-3.83,4.58-16,1.26-23-4.95-4.17-3.8-6.94-8.9-7.87-14.46-.8-4.32.25-5.86.71-6.41.57-.68,1.85-1.74,5.6-1.77,5.79.11,11.4,2.07,15.99,5.61,7.1,5.96,12.4,17.42,8.57,21.99h0Zm0-29.73c-3.83,4.58-16,1.26-23-4.95-4.17-3.8-6.94-8.9-7.87-14.46-.8-4.32.25-5.86.71-6.41.57-.68,1.85-1.74,5.6-1.77,5.79.11,11.4,2.08,15.99,5.61,7.11,5.95,12.4,17.42,8.57,21.98h0Zm104.16,87.12c-5.47,9.51-17.31,21.43-42.66,24.2-2.33.25-4.67.37-7.01.37-14.57.26-28.72-4.83-39.79-14.3-4.88-4.34-8.96-9.5-12.07-15.24-1.46-2.69-.49-6.06,2.18-7.56,2.66-1.47,6.01-.51,7.48,2.15,0,.02.02.03.02.05,2.49,4.61,5.77,8.75,9.68,12.23,14.36,12.73,32.96,11.81,38.32,11.23,20.75-2.26,30.09-11.42,34.28-18.71,2.64-4.67,4.14-9.9,4.38-15.26.12-3.05,2.69-5.42,5.74-5.3,3.05.12,5.42,2.69,5.3,5.74,0,.07,0,.13-.01.2-.33,7.1-2.34,14.03-5.85,20.21h0Z" fill="#fff"/>
      </g>
      <rect width="300" height="300" fill="none"/>
    </g>
  </g>
</svg>