<?xml version="1.0" encoding="UTF-8"?>
<svg id="_레이어_2" data-name="레이어 2" xmlns="http://www.w3.org/2000/svg" viewBox="0 0 300 300">
  <g id="_레이어_1-2" data-name="레이어 1">
    <g>
      <rect id="_사각형_102" data-name="사각형 102" x="124.99" y="150.04" width="9.57" height="3.59" fill="#fff"/>
      <rect id="_사각형_103" data-name="사각형 103" x="170.7" y="150.04" width="9.57" height="3.59" fill="#fff"/>
      <path id="_패스_715" data-name="패스 715" d="m185.94,153.62h84.48c-2.08,68.41-59.23,122.19-127.64,120.11-65.49-1.99-118.12-54.62-120.11-120.11h96.66v-3.59H19.03c0,70.42,57.08,127.52,127.5,127.52,70.42,0,127.52-57.08,127.52-127.5v-.02h-88.11v3.59Z" fill="#fff"/>
      <rect id="_사각형_104" data-name="사각형 104" x="155.47" y="150.04" width="9.57" height="3.59" fill="#fff"/>
      <rect id="_사각형_105" data-name="사각형 105" x="140.23" y="150.04" width="9.57" height="3.59" fill="#fff"/>
      <rect id="_사각형_106" data-name="사각형 106" x="124.99" y="62.99" width="9.57" height="87.05" fill="#fff"/>
      <rect id="_사각형_107" data-name="사각형 107" x="155.47" y="62.99" width="9.57" height="87.05" fill="#fff"/>
      <rect id="_사각형_108" data-name="사각형 108" x="140.23" y="62.99" width="9.57" height="87.05" fill="#fff"/>
      <path id="_패스_716" data-name="패스 716" d="m119.33,62.99h-4.94c-2.78,0-5.03-2.25-5.03-5.03s2.25-5.03,5.03-5.03h4.94v-3.43c0-1.56,1.27-2.83,2.83-2.83s2.83,1.27,2.83,2.83v3.43h9.57v-3.43c0-1.56,1.27-2.83,2.83-2.83s2.83,1.27,2.83,2.83v3.43h9.57v-3.43c0-1.56,1.27-2.83,2.83-2.83s2.83,1.27,2.83,2.83v3.43h9.57v-3.43c0-1.56,1.27-2.83,2.83-2.83s2.83,1.27,2.83,2.83v3.43h9.57v-3.43c0-1.56,1.27-2.83,2.83-2.83s2.83,1.27,2.83,2.83v3.43h43.23C175.55,7.29,95.08,13.77,49.44,67.39c-.49.58-.98,1.16-1.46,1.75h5.61c8.19.09,14.75,6.81,14.65,14.99-.09,8.05-6.6,14.56-14.65,14.65h-23.83c-7.1,16.16-10.75,33.61-10.73,51.26h100.3V62.99Zm-26.38,72h-36.49c-8.19-.09-14.75-6.81-14.65-14.99.09-8.05,6.6-14.56,14.65-14.65h36.48c8.19.09,14.75,6.81,14.65,14.99-.09,8.05-6.6,14.56-14.65,14.65" fill="#fff"/>
      <path id="_패스_717" data-name="패스 717" d="m185.94,150.04h88.12c0-10.64-1.31-21.23-3.93-31.54h-24.78c-8.19.09-14.9-6.47-14.99-14.65s6.47-14.9,14.65-14.99c.11,0,.23,0,.34,0h13.1c-5.14-9.37-11.43-18.06-18.73-25.86h-53.76v87.05Z" fill="#fff"/>
      <path id="_패스_718" data-name="패스 718" d="m36.92,95.19h16.67c6.2.08,11.3-4.88,11.38-11.09.08-6.2-4.88-11.3-11.09-11.38-.1,0-.2,0-.3,0h-8.44c-5.35,7-9.95,14.52-13.75,22.47h5.52Z" fill="#fff"/>
      <path id="_패스_719" data-name="패스 719" d="m92.94,108.93h-36.48c-6.21,0-11.24,5.03-11.24,11.24s5.03,11.24,11.24,11.24h36.48c6.21,0,11.24-5.02,11.24-11.23,0-6.21-5.02-11.24-11.23-11.24h-.01" fill="#fff"/>
      <path id="_패스_720" data-name="패스 720" d="m245.34,92.43c-6.21,0-11.24,5.03-11.24,11.24s5.03,11.24,11.24,11.24h23.81c-2.22-7.75-5.18-15.28-8.82-22.47h-14.99Z" fill="#fff"/>
      <rect id="_사각형_109" data-name="사각형 109" x="170.7" y="62.99" width="9.57" height="87.05" fill="#fff"/>
      <path id="_패스_721" data-name="패스 721" d="m281.82,92.43c6.21,0,11.24,5.03,11.24,11.23,0,6.21-5.03,11.24-11.23,11.24h-12.68c.34,1.19.66,2.38.97,3.59h11.7c8.19-.09,14.75-6.81,14.65-14.99-.09-8.05-6.6-14.56-14.65-14.65h-23.39c.65,1.18,1.28,2.38,1.89,3.59h21.5Z" fill="#fff"/>
      <path id="_패스_722" data-name="패스 722" d="m17.1,95.19c-6.2.08-11.3-4.88-11.38-11.09-.08-6.2,4.88-11.3,11.09-11.38.1,0,.2,0,.3,0h28.04c.93-1.21,1.87-2.41,2.84-3.59h-30.88c-8.19.09-14.75,6.81-14.65,14.99.09,8.05,6.6,14.56,14.65,14.65h12.66c.53-1.2,1.07-2.4,1.64-3.59h-14.29Z" fill="#fff"/>
      <rect id="_사각형_2" data-name="사각형 2" x=".66" y="17.15" width="298.68" height="265.71" fill="none"/>
      <rect width="300" height="300" fill="none"/>
    </g>
  </g>
</svg>