<?xml version="1.0" encoding="UTF-8"?>
<svg id="_레이어_2" data-name="레이어 2" xmlns="http://www.w3.org/2000/svg" viewBox="0 0 300 300">
  <g id="_레이어_1-2" data-name="레이어 1">
    <g>
      <path id="_패스_690" data-name="패스 690" d="m139.54,295.84c-.95-1.54-2.03-3-2.84-4.61-21.42-42.71-42.8-85.45-64.13-128.21-1.08-2.7-1.69-5.57-1.8-8.47-.21-1.89.69-2.92,3.08-2.92,25.95.11,51.91.06,77.86.05,24.75,0,49.5.04,74.25-.07,2.39-.01,3.54.83,3.29,3-.12,2.82-.72,5.6-1.76,8.23-10.63,21.59-21.46,43.08-32.25,64.59-10.74,21.44-21.49,42.88-32.24,64.31-3.56,7.3-12.37,10.32-19.67,6.76-1.4-.68-2.68-1.58-3.79-2.66Z" fill="#fff"/>
      <path id="_패스_691" data-name="패스 691" d="m96.1,87.83c-3.75-1.46-7-2.6-10.14-3.98-.96-.51-1.73-1.31-2.21-2.29-3.27-5.97-5.36-12.52-6.13-19.29-5.74,2.22-10.97,5.59-15.37,9.9-1.21,1.21-2.19,3.46-3.47,3.62-2.57,0-5.13-.35-7.6-1.04,2.29-5.17,6.06-9.55,10.84-12.58,4.67-2.91,9.5-5.56,14.47-7.93,1.31-.57,2.32-1.68,2.75-3.04,1.03-2.82,2.44-5.5,3.72-8.27-9.98-6.4-14.11-15.59-12.63-27.47.09-2.86,2.23-5.24,5.06-5.64,6.93-1.82,14.29-.76,20.42,2.95.52.31,1.04.61,1.57.91.07.04.16.01.48.02,2.59-4.98,6.82-8.92,11.96-11.17,10.45-4.29,11.71-3.66,16.12,6.38,3.5,7.7,2.74,16.67-2,23.67-.4.65-.79,1.31-.88,1.44,2.87,2.9,5.47,5.62,8.21,8.21.7.56,1.57.85,2.47.81,18.34-.95,36.74-.02,54.89,2.77,1.67.26,2.24-.42,2.86-1.76,4.33-9.46,8.71-18.89,13.13-28.3,3.28-7.02,9.08-9.17,15.99-5.94,4.53,2.12,9.04,4.25,13.54,6.41,5.73,2.21,8.59,8.64,6.38,14.37-.19.5-.42.98-.68,1.44-3.44,7.48-6.94,14.93-10.4,22.4-.35.77-.65,1.56-1.06,2.53,8.2,4.27,15.84,9.01,20.48,17.68-2.5.47-4.76,1.04-7.05,1.25-.7.06-1.64-.71-2.2-1.34-4.08-4.48-9.06-8.04-14.63-10.44-2.46,5.26-5,10.36-7.21,15.6-.79,2.38-2.74,4.2-5.17,4.81-2.12.56-4.13,1.53-6.81,2.56l8.57-18.64-12.62-.8c-3.01-.19-6.04-.17-9.02-.64-1.88-.66-3.94.34-4.59,2.22-.08.22-.13.44-.16.67-.23.67-.49,1.34-.8,1.98,7.61,3.83,6.92,12.4,10.7,18.86-17.86,8.32-34.06,19.83-47.79,33.97-13.7-14.02-29.8-25.47-47.53-33.82,1.15-3.48,2.27-6.75,3.3-10.04,1.35-5.05,5.27-9,10.31-10.38,4.6-1.21,8.84-3.53,12.36-6.74.68-.58,1.12-1.39,1.26-2.28.27-11.7-8.44-21.67-20.08-22.96-12.26-1.14-23.13,7.86-24.27,20.12-.24,2.59-.03,5.21.63,7.73,1.99,7.02,5.06,13.69,9.1,19.76.27.41.47.88.93,1.76Zm83.56-18.39l7.42-16.04c-16.9-2.53-34.01-3.4-51.09-2.61.57,3.01,1.12,5.88,1.67,8.69,2.16.19,4.31.49,6.45.9,3.85,1,7.89,1,11.74-.01,6.12-1.71,12.69.02,17.18,4.51,2.11,1.65,4.33,3.18,6.62,4.57h0Zm25.49-36.43c6.55.42,12.64.79,18.73,1.19,6.64.44,6.61.43,9.14-5.82.95-1.64.39-3.74-1.25-4.68-.18-.1-.37-.19-.57-.26-4.81-2.31-9.65-4.55-14.47-6.83-1.49-.95-3.47-.51-4.42.99-.13.21-.24.43-.32.66-2.29,4.73-4.44,9.54-6.84,14.76Zm-105.52-1.96c-.96-8.96-11.4-16.3-20.41-13.97-.71.3-1.23.92-1.41,1.67-.68,7.27,3.16,14.22,9.67,17.52.74.34,1.58.38,2.34.1,3.27-1.66,6.46-3.49,9.79-5.32h0Zm15.84-.21c5.44-6.01,6.19-15.49,2.2-21.41-.59-.59-1.44-.86-2.27-.7-3.85,1.12-7.2,3.51-9.51,6.79-1.72,2.39-3.13,4.83-.67,7.69.61.74.99,1.65,1.09,2.61.33,3.94,2.51,5.44,6.22,5.17,1.2-.09,2.42-.14,2.92-.16h.01Z" fill="#fff"/>
      <path id="_패스_692" data-name="패스 692" d="m49.67,81.86c43.17,7.91,80.19,26.46,107.98,62.49-1.58.06-2.41.11-3.25.11-24.8,0-49.58-.01-74.37.07-1.63.22-3.18-.74-3.72-2.29-8.32-17.67-16.76-35.28-25.1-52.94-.91-2.2-1.7-4.46-2.37-6.75l.83-.7Z" fill="#fff"/>
      <path id="_패스_693" data-name="패스 693" d="m251.17,82.56c-.6,2.15-1.32,4.26-2.16,6.32-8.46,17.89-17.01,35.74-25.46,53.63-.45,1.32-1.76,2.14-3.15,1.98-17.74-.05-35.49-.05-53.23,0-1.37.09-2.67-.61-3.33-1.8-2.93-4.19-6.06-8.25-9.39-12.74,26.73-26.61,59.16-41.71,95.97-48.09l.76.69Z" fill="#fff"/>
      <path id="_패스_694" data-name="패스 694" d="m103.91,64.28c1.5,1.37,1.61,3.7.23,5.2-.1.11-.21.21-.32.31-1.78,1.74-4.24,1.44-6.39-.79-1.52-1.49-1.54-3.93-.05-5.45.04-.04.08-.07.11-.11,1.74-1.7,4.28-1.36,6.41.84Z" fill="#fff"/>
      <path id="_패스_695" data-name="패스 695" d="m118.61,55.21c1.55,1.58,1.52,4.12-.06,5.67-.11.1-.22.2-.34.3-1.39,1.46-3.7,1.52-5.17.13-.05-.05-.1-.1-.15-.15-1.62-1.52-1.69-4.07-.17-5.68.1-.1.2-.2.31-.29,1.52-1.53,3.99-1.54,5.52-.03.02.02.04.04.06.06Z" fill="#fff"/>
      <rect y=".05" width="300" height="299.89" fill="none"/>
    </g>
  </g>
</svg>