<?xml version="1.0" encoding="UTF-8"?>
<svg id="_레이어_2" data-name="레이어 2" xmlns="http://www.w3.org/2000/svg" viewBox="0 0 300 300">
  <g id="_레이어_1-2" data-name="레이어 1">
    <g id="_06음식_shape_06_0001" data-name=" 06음식 shape 06 0001">
      <rect id="_사각형_66" data-name="사각형 66" width="300" height="300" fill="none"/>
      <path id="_패스_268" data-name="패스 268" d="m279,165H22c0,49.08,29.96,91.46,73.31,111.25v19.75h110.38v-19.75c43.35-19.79,73.31-62.16,73.31-111.25Z" fill="#fff"/>
      <path id="_패스_269" data-name="패스 269" d="m150,4c-51.42,0-93.51,39.72-97,90h194C243.51,43.71,201.42,4,150,4Zm-25.33,50.84c-.02-3.24,2.6-5.88,5.84-5.9,3.24-.02,5.88,2.6,5.9,5.84.02,3.24-2.6,5.88-5.84,5.9-.01,0-.02,0-.03,0-3.23,0-5.86-2.6-5.86-5.84Zm25.33,22.12c-8.52.13-16.38-4.53-20.36-12.06h40.72c-3.98,7.53-11.85,12.19-20.36,12.06h0Zm20.36-16.28c-3.22-.02-5.82-2.64-5.81-5.86.02-3.22,2.64-5.82,5.86-5.81,3.21.02,5.81,2.62,5.81,5.84,0,3.23-2.63,5.84-5.87,5.83h0Z" fill="#fff"/>
    </g>
  </g>
</svg>