<?xml version="1.0" encoding="UTF-8"?>
<svg id="_레이어_2" data-name="레이어 2" xmlns="http://www.w3.org/2000/svg" viewBox="0 0 300 300">
  <g id="_레이어_1-2" data-name="레이어 1">
    <g>
      <path id="_패스_809" data-name="패스 809" d="m62.64,9.31c-8.33,1.06-14.28,5.53-18.73,11.66-8.23,11.32-10.01,23.83-7.13,36.91,2.42,10.99,7.96,20.25,19.27,25.85,2.84,1.41,3.59,3.66,3.59,6.46-.05,28.85-.05,57.71-.01,86.56-.04,1.28.09,2.56.41,3.8.84,2.51,3.3,4.1,5.92,3.84,3.63-.21,5.65-2.54,5.65-6.69.02-14.47.03-28.94,0-43.41,0-14.56.06-29.11-.04-43.67-.27-3.26,1.63-6.31,4.68-7.49,4.82-2.31,8.91-5.9,11.83-10.39,7.07-10.46,8.9-21.87,6.89-33.83-1.24-8.65-5.38-16.62-11.75-22.59-5.63-5.19-12.35-8.06-20.57-7.02Z" fill="#fff"/>
      <path id="_패스_810" data-name="패스 810" d="m262.38,9.61c-2.28-.7-4.91-.44-7.73-.61v32.85h-12.06V9.32h-12.04v32.5h-12.05V9.1h-3.62c-6.37,0-8.37,1.86-8.37,7.72,0,9.08-.12,18.16.05,27.23-.03,4.54.36,9.07,1.18,13.53,2.31,10.89,7.56,20.24,18.74,25.87,2.8,1.25,4.49,4.16,4.2,7.22-.05,28.61-.06,57.21-.02,85.82-.03,1.11.01,2.23.14,3.33.46,2.69,2.78,4.65,5.5,4.66,2.63.27,5.09-1.32,5.93-3.83.31-1.24.45-2.52.41-3.8.02-28.6.08-57.21-.05-85.82-.33-3.53,1.76-6.84,5.09-8.04,1.49-.69,2.9-1.56,4.18-2.59,8.63-6.58,13.91-16.66,14.4-27.52.79-12.38.42-24.82.53-37.24.12-.86-.03-1.73-.44-2.49-1.13-1.36-2.37-3.07-3.96-3.56Z" fill="#fff"/>
      <path id="_패스_811" data-name="패스 811" d="m297.21,194.94c-3.55-2.93-8.74-2.69-12.01.56-12.5,12.88-59.01,55.06-132.48,56.86-75.47,1.81-124.79-39.91-138.1-52.75-3.36-3.15-8.56-3.23-12.02-.19-3.14,2.72-3.48,7.48-.76,10.63.17.2.36.39.55.58,11.78,11.36,49.38,43.43,107.08,54.11v19.24c.01,3.88,3.15,7.02,7.03,7.02h64.87c3.87,0,7.02-3.14,7.03-7.02v-19.6c59.87-11.68,97.88-46.37,109.41-58.25,2.94-2.95,2.93-7.72,0-10.66-.19-.19-.38-.36-.59-.53Z" fill="#fff"/>
      <rect x="0" width="300" height="300" fill="none"/>
    </g>
  </g>
</svg>