<?xml version="1.0" encoding="UTF-8"?>
<svg id="_레이어_2" data-name="레이어 2" xmlns="http://www.w3.org/2000/svg" viewBox="0 0 300 300">
  <g id="_레이어_1-2" data-name="레이어 1">
    <g>
      <path d="m52.14,0c.34,19.07,12.52,31.45,34.43,34.84v17.16c-9.31.42-17.59,3.61-24.27,10.3-6.63,6.64-9.88,14.79-10.25,24.25h-17.21c-3.39-21.89-15.74-34.06-34.84-34.41v-17.58c19.42-.37,34.19-15.13,34.57-34.57h17.58Z" fill="#fff"/>
      <path d="m50.35,262.21c8.54-8.52,17.09-17.05,25.8-25.74,25.64,21.04,55.38,30.04,88.74,25.73,27.12-3.5,50.02-15.68,68.61-35.78,37.35-40.4,41-105.31,3.04-150.22,8.61-8.63,17.19-17.23,25.77-25.83,50.58,55.58,52.56,148.45-8.06,207.23-59.83,58.02-150.64,53.49-203.9,4.61Z" fill="#fff"/>
      <path d="m210.5,224.09c-14.82,12.07-32.06,19.23-51.8,21.19v-73c17.07,17.07,34.34,34.36,51.8,51.82Z" fill="#fff"/>
      <path d="m171.96,158.6h73.29c-1.87,19.74-9.09,37.02-21.26,52.02-17.37-17.37-34.66-34.65-52.03-52.02Z" fill="#fff"/>
      <path d="m245.26,140.67h-72.67c16.97-16.97,34.23-34.23,51.62-51.62,11.93,14.54,19.09,31.85,21.05,51.62Z" fill="#fff"/>
      <path d="m140.65,245.27c-19.73-1.98-36.99-9.14-51.87-21.27,17.35-17.36,34.62-34.62,51.87-51.87v73.15Z" fill="#fff"/>
      <path d="m112.71,21.8h17.19v17.32h-17.19v-17.32Z" fill="#fff"/>
      <path d="m196.66,52.01h-17.22v-17.21h17.22v17.21Z" fill="#fff"/>
      <path d="m93.36,86.85h17.21v17.21h-17.21v-17.21Z" fill="#fff"/>
      <path d="m46.1,123.08h17.06v17.28h-17.06v-17.28Z" fill="#fff"/>
    </g>
  </g>
</svg>