<?xml version="1.0" encoding="UTF-8"?>
<svg id="_레이어_2" data-name="레이어 2" xmlns="http://www.w3.org/2000/svg" viewBox="0 0 300 300">
  <g id="_레이어_1-2" data-name="레이어 1">
    <g>
      <path id="_패스_762" data-name="패스 762" d="m71.39,98.89c-5.43-7.57-15.96-9.29-23.51-3.85l-.06.04c-7.64,5.46-9.43,16.1-3.98,23.76,5.44,7.66,16.05,9.45,23.7,3.99,7.64-5.46,9.43-16.1,3.98-23.76,0,0,0,0,0,0-.04-.06-.09-.13-.13-.19Zm-10.13,15.02c-.07.05-.14.1-.2.14-2.79,1.89-6.59,1.16-8.48-1.64-1.89-2.8-1.16-6.6,1.63-8.5,2.79-1.89,6.59-1.16,8.48,1.64,1.84,2.72,1.2,6.4-1.43,8.35Z" fill="#fff"/>
      <path id="_패스_763" data-name="패스 763" d="m111.81,143.78c-2.03-2.38-5.61-2.65-7.98-.61-5.39,3.79-10.74,7.63-16.04,11.53-3.05,2.24-3.72,5.51-1.84,8.13,1.89,2.64,5.04,3.01,8.25.82,2.72-1.85,5.36-3.83,8.03-5.75,2.67-1.92,5.39-3.79,8.01-5.79,3-2.29,3.64-5.63,1.7-8.15-.04-.06-.09-.11-.14-.17Z" fill="#fff"/>
      <path id="_패스_764" data-name="패스 764" d="m186.39,159.96c2.72-1.84,5.36-3.83,8.03-5.75,2.67-1.92,5.4-3.78,8-5.79,3.03-2.33,3.63-5.54,1.67-8.15-.08-.1-.15-.2-.24-.29-2.02-2.32-5.53-2.55-7.83-.53,0,0,0,0,0,0-5.38,3.79-10.73,7.63-16.04,11.52-3.04,2.23-3.74,5.56-1.9,8.14s5.15,2.96,8.31.83Z" fill="#fff"/>
      <path id="_패스_765" data-name="패스 765" d="m117.95,107.22c-1.82-2.39-5.22-2.85-7.6-1.03-5.68,3.99-11.31,8.04-16.91,12.15-2.52,1.63-3.25,5-1.63,7.53,1.62,2.53,4.99,3.26,7.51,1.63.16-.1.32-.22.47-.34,2.78-1.92,5.5-3.93,8.24-5.91,2.89-2.08,5.81-4.11,8.65-6.25l.12-.08c2.42-1.7,3-5.03,1.31-7.46,0,0,0,0,0,0-.05-.09-.11-.17-.17-.24Z" fill="#fff"/>
      <path id="_패스_766" data-name="패스 766" d="m162.37,114.32c-2.02-2.3-5.51-2.53-7.81-.51,0,0,0,0,0,0-5.43,3.88-10.85,7.77-16.25,11.69-.3.17-.58.37-.85.6-2.29,1.96-2.56,5.41-.6,7.71s5.4,2.56,7.69.6h0c2.77-1.94,5.49-3.94,8.24-5.91,2.67-1.92,5.36-3.82,8.01-5.77,2.99-2.19,3.71-5.54,1.81-8.11-.08-.11-.16-.2-.24-.3Z" fill="#fff"/>
      <path id="_패스_767" data-name="패스 767" d="m150.38,97.91c5.69-3.96,11.33-8.01,16.9-12.15.09-.06.18-.12.27-.19,2.4-1.79,2.9-5.18,1.11-7.59h0c-.09-.13-.18-.26-.28-.38-1.88-2.26-5.22-2.56-7.47-.67,0,0,0,0,0,0-2.79,1.91-5.5,3.93-8.24,5.9h0l-8.02,5.76c-.14.1-.29.21-.43.32-.17.1-.33.22-.48.33-2.38,1.84-2.83,5.27-.99,7.66s5.26,2.84,7.64.99h0Z" fill="#fff"/>
      <path id="_패스_768" data-name="패스 768" d="m156.32,151.08c-2-2.34-5.51-2.62-7.85-.62,0,0,0,0,0,0-5.45,3.85-10.86,7.74-16.25,11.68-.15.09-.3.18-.44.29-2.45,1.75-3.02,5.16-1.28,7.62,0,0,0,0,0,0,.13.2.28.39.43.57,1.94,2.22,5.3,2.44,7.52.5,2.79-1.91,5.5-3.93,8.24-5.9,2.74-1.97,5.52-3.9,8.22-5.93.12-.08.25-.16.36-.24,2.46-1.77,3.02-5.21,1.26-7.68,0,0,0,0,0,0-.07-.09-.14-.18-.21-.26Z" fill="#fff"/>
      <path id="_패스_769" data-name="패스 769" d="m123.77,70.28c-1.85-2.24-5.17-2.56-7.41-.7-2.78,1.91-5.49,3.93-8.24,5.9-2.81,2.02-5.66,4.01-8.44,6.07-.2.12-.4.26-.58.41-2.25,2.01-2.44,5.46-.44,7.71,1.88,2.11,5.04,2.43,7.31.75,5.6-3.94,11.15-7.94,16.68-11.99.13-.08.25-.17.37-.26,2.35-1.76,2.83-5.1,1.08-7.46-.1-.15-.21-.3-.33-.44Z" fill="#fff"/>
      <path id="_패스_770" data-name="패스 770" d="m192.12,123.36c2.78-1.92,5.49-3.93,8.23-5.91,2.81-2.02,5.67-4,8.44-6.09.16-.1.31-.2.45-.32,2.29-1.78,2.7-5.09.92-7.39h0c-.09-.13-.18-.25-.28-.37-1.87-2.27-5.23-2.6-7.49-.72-5.6,3.94-11.16,7.93-16.68,11.98-.15.1-.3.21-.45.32-2.3,1.95-2.59,5.39-.65,7.7,1.88,2.24,5.19,2.59,7.5.79h0Z" fill="#fff"/>
      <path id="_패스_771" data-name="패스 771" d="m271.54,233.1c-15.05,1.23-30.06,2.93-45.09,4.42-5.44.54-10.88,1.06-16.58,1.62.97-12.12-5.02-19.38-14.66-24.95-4.85-2.79-9.67-5.66-14.46-8.54,13.33-3.55,26.07-9.06,37.8-16.35,3.85-2.37,7.58-4.93,11.6-7.56.6.84,1.15,1.61,1.71,2.39,5.8,8.14,11.53,16.33,17.4,24.41,5.34,7.73,15.91,9.66,23.63,4.31,2-1.39,3.68-3.19,4.92-5.28,11.26-17.42,14.47-38.86,8.79-58.82-.48-1.5-.2-3.14.74-4.41,11.53-16.79,15.42-37.69,10.71-57.52-2.99-13.46-16.51-18.63-27.68-10.64-7.9,5.66-15.75,11.39-23.62,17.09-.77.56-1.54,1.11-2.36,1.7-.32-.3-.63-.63-.92-.97-8.29-11.86-18.25-22.45-29.58-31.43-.7-.8-1.03-1.86-.89-2.91.8-5.75,2.02-11.44,2.66-17.2,1.43-9.04-2.96-18.01-10.96-22.4C186.78,9.25,166.64,2.64,145.8.71c-18.72-1.92-37.64.06-55.56,5.83l-5.64,4.04c-4.9,5.29-6.64,11.82-7.47,18.76-.45,3.81-1.12,7.6-1.9,11.36-.28,1.02-.94,1.9-1.86,2.43-5.61,2.9-11.42,5.41-16.94,8.49-11.59,6.36-22.08,14.55-31.06,24.28-14.59,16.06-16.9,38.34-6.43,58.24,8.95,17.33,21.4,32.59,36.57,44.81-16.66,5.43-33.26,11.08-49.89,16.59-4.63,1.53-5.62,2.94-5.62,7.84v59.14c0,6.94,2.94,9.19,9.53,7.24,14.19-4.2,28.38-8.38,42.54-12.67,1.9-.66,4-.45,5.74.57,17.72,9.55,35.48,19.05,53.26,28.5,14.56,7.79,30.58,12.42,47.04,13.59,16.72,1.27,32.72-2.47,48.76-6.17,3.02-.74,4.86-3.79,4.13-6.82-.02-.08-.04-.15-.06-.23-.82-3.06-3.92-4.9-6.99-4.18-3.7.74-7.4,1.5-11.06,2.41-26.92,7.12-55.55,3.31-79.67-10.62-17.59-9.8-35.51-19-53.23-28.55-2.26-1.34-5-1.63-7.49-.79-6.09,1.94-12.22,3.69-18.35,5.49-7.41,2.19-14.82,4.35-22.4,6.58v-50.97c.69-.27,1.31-.54,1.95-.75,13.31-4.41,26.63-8.81,39.94-13.21,9.19-3.02,18.22-6.74,27.62-8.81,19.64-4.33,38.32-.79,55.58,9.52,17.72,10.57,35.31,21.32,52.95,32.02,1.69.94,3.31,2.01,4.84,3.2,4.1,3.48,4.96,9.47,2.01,13.96-2.83,4.45-8.57,6.02-13.27,3.64-4.72-2.23-9.43-4.5-14.14-6.76-8.38-4.01-16.76-8.02-25.13-12.03-2.17-1.26-4.9-.99-6.79.67-1.83,1.28-2.53,3.67-1.68,5.74,1,1.93,2.56,3.5,4.47,4.51,12.76,6.28,25.63,12.34,38.48,18.45,8.39,3.99,16.11,2.59,23.44-2.8,1.44-1.07,3.12-1.76,4.89-2,16.65-1.79,33.31-3.49,49.98-5.09,6.16-.6,12.34-1.32,18.52-1.33,5.99.13,10.74,5.1,10.62,11.1-.11,5.15-3.8,9.51-8.85,10.46-7.08,1.6-14.18,3.08-21.27,4.63-4.16.91-6.33,3.67-5.59,7.08.78,3.62,3.85,5.27,8.15,4.34,7.19-1.55,14.38-3.07,21.55-4.7,6.77-1.37,12.48-5.9,15.38-12.18.86-2.03,1.62-4.12,2.26-6.23v-6.99c-.72-2.5-1.62-4.94-2.72-7.29-5.11-9.16-13.32-12.8-23.39-11.97ZM89.43,23.22c.96-4.17,4.28-6.59,8.45-7.74,33.75-9.19,69.76-4.49,100.03,13.06,6.02,3.49,7.95,7.53,6.83,14.48-.6,3.76-1.19,7.53-1.84,11.63h0c-36.71-22.19-75.22-27.49-115.42-16.55.39-4.99,1.03-9.96,1.94-14.88Zm32.34,150.13c-15.41-4.29-31.04-5.5-46.41-.73-2.39.74-4.77,1.52-7.16,2.27-17.31-12.19-31.29-28.53-40.67-47.53-7.54-14.76-4.98-32.69,6.4-44.72,11.94-12.47,26.37-22.28,42.35-28.8,58.75-24.93,126.86-3.55,160.94,50.51,2.9,4.51,5.67,5.07,9.94,1.98,9.82-7.11,19.64-14.22,29.46-21.32,4.84-3.48,9.54-1.72,10.84,4.11,4.34,17.62.55,36.27-10.33,50.78-2.26,2.77-2.87,6.53-1.6,9.87,5.55,16.98,3.33,35.55-6.07,50.74-3.52,5.96-8.36,6.13-12.33.55-7.03-9.89-14.06-19.79-21.08-29.68-2.59-3.62-5.55-4-9.11-1.31-.43.32-.85.66-1.26.99-9.36,7.59-19.77,13.77-30.9,18.36-8.82,3.71-18.02,6.43-27.43,8.12-5.56-3.4-11.12-6.8-16.67-10.2-9.19-5.61-18.43-11.06-28.91-13.98h0Z" fill="#fff"/>
      <path id="_패스_772" data-name="패스 772" d="m230.4,276.79c-3.21-.07-5.86,2.49-5.93,5.7,0,.03,0,.06,0,.09.09,3.13,2.57,5.67,5.7,5.8,3.22.02,5.85-2.58,5.87-5.81v-.04c.02-3.14-2.5-5.71-5.63-5.74h0Z" fill="#fff"/>
      <rect y="0" width="300" height="300" fill="none"/>
    </g>
  </g>
</svg>