<?xml version="1.0" encoding="UTF-8"?>
<svg id="_레이어_2" data-name="레이어 2" xmlns="http://www.w3.org/2000/svg" viewBox="0 0 300 300">
  <g id="_레이어_1-2" data-name="레이어 1">
    <g>
      <path d="m0,94.5c1.69-5.95,2.78-12.16,5.17-17.81,8.56-20.28,28.35-32.6,50.12-31.76,22.54.86,43.05,17.46,48.44,39.2.26,1.04.49,2.08.79,3.11,1.52,5.1,5.69,7.64,10.47,6.39,5.32-1.39,7.73-5.47,6.48-10.89-4.65-20.12-15.82-35.48-33.72-45.93-.59-.34-1.16-.71-1.72-1.09-.14-.1-.2-.32-.29-.49,21.16-12,46-9.98,65.35,4.17,16.27,11.91,24.52,28.3,25.3,48.43.23,5.93,3.95,9.78,9.14,9.58,5.25-.2,8.63-4.29,8.42-10.22-.76-21.29-8.7-39.46-23.94-54.43-.75-.74-1.76-1.21-2.43-2.18,6.16-2.38,12.15-3.34,18.3-3.22,33.67.7,60.16,26.67,61.42,60.18.27,7.2,5.64,11.48,11.73,9.34,3.73-1.31,5.92-4.51,5.87-8.83-.17-14.01-3.81-27.07-10.92-39.17-.63-1.06-1.26-2.13-2.11-3.57,11.02.96,20.47,4.61,28.42,11.51,16.15,14,21.94,31.92,18.98,52.75-2.17,15.26-9.17,28.18-20.33,38.82-.93.88-2.5,1.55-3.77,1.55-83.42.07-166.84.07-250.25,0-1.2,0-2.71-.54-3.56-1.36C9.49,137.27,2.4,123.54.47,107.24c-.09-.75-.31-1.49-.47-2.23,0-3.5,0-7.01,0-10.51Z" fill="#fff"/>
      <path d="m150.04,167.52c44.44,0,88.89,0,133.33,0,.88,0,1.76,0,2.64,0,3.61.04,6.45,1.52,8.17,4.72,1.72,3.22,1.33,6.39-.64,9.4-9.1,13.87-22.01,20.85-38.6,20.9-22.17.07-44.35.04-66.52,0-3.48,0-6.59.78-9.05,3.34-5.03,5.24-3.47,13.69,3.33,16.81,5.63,2.58,11,5.44,15.44,9.82,8.75,8.64,13.15,19.15,13.37,31.37.09,4.79-3.63,8.44-8.45,8.75-.78.05-1.56.03-2.34.03-33.8,0-67.59,0-101.39,0-7.96,0-11.46-3.87-10.65-11.7,1.85-17.8,10.88-30.42,27.39-37.59,3.27-1.42,5.92-3.33,7.02-6.91,2.17-7.08-2.67-13.77-10.26-13.85-11.04-.12-22.07-.04-33.11-.04-11.72,0-23.44.12-35.16-.03-15.98-.21-28.54-6.91-37.54-20.16-2.19-3.23-3.03-6.56-1.12-10.13,1.91-3.56,5.12-4.75,9.05-4.75,45.03.03,90.06.02,135.09.02Z" fill="#fff"/>
      <rect width="300" height="300" fill="none"/>
    </g>
  </g>
</svg>