<?xml version="1.0" encoding="UTF-8"?>
<svg id="_레이어_2" data-name="레이어 2" xmlns="http://www.w3.org/2000/svg" viewBox="0 0 300 300">
  <g id="_레이어_1-2" data-name="레이어 1">
    <g>
      <path id="_패스_387" data-name="패스 387" d="m214.09,17.3c-8.13-.05-14.76,6.51-14.81,14.64s6.51,14.76,14.64,14.81c8.13.05,14.76-6.51,14.81-14.64v-.14c-.07-8.06-6.58-14.58-14.64-14.67m.08,19.61c-2.7.09-4.97-2.03-5.05-4.73-.09-2.7,2.03-4.97,4.73-5.05,2.7-.09,4.96,2.03,5.05,4.73v.07c.03,2.67-2.07,4.87-4.73,4.98" fill="#fff"/>
      <path id="_패스_388" data-name="패스 388" d="m155.43,109.76l7.26-4.86c-1.93-2.84-3.64-5.37-5.51-8.12l-7.24,4.91,5.49,8.07" fill="#fff"/>
      <path id="_패스_390" data-name="패스 390" d="m122.91,130.89c7.55.61,15.1,1.18,22.65,1.77,13.48,1.07,24.57-3.36,32.62-14.41,4.64-6.43,6.86-14.29,6.27-22.2h-9.7c.13,10.83-3.92,19-13.29,24.18-7.48,4.13-15.35,2.62-23.93,1.79l10.62-7.36-5.44-7.95c-.8.49-1.41.82-1.98,1.21-5.68,3.83-11.43,7.59-17,11.57-2.22,1.58-3.54.83-4.8-.96-2.1-2.94-1.12-6.48,2.53-8.8,14.31-9.13,28.64-18.25,42.99-27.34.28-.18.56-.37.84-.56.72-.48,1.44-.97,2.23-1.49-1.85-2.88-3.54-5.49-5.28-8.21-3.15,2.01-6.25,3.97-9.37,5.96-12.81,8.14-25.49,16.18-38.04,24.31-5.59,3.68-8.12,10.57-6.24,16.99,1.85,6.51,7.63,11.13,14.38,11.51" fill="#fff"/>
      <path id="_패스_391" data-name="패스 391" d="m69.61,195.94c7.53-2.62,14.33-7.01,19.8-12.82l-6.74-7c-6.88,7.16-16.06,11.67-25.92,12.76,0-5.06-.12-9.86.05-14.64,0-2.51,2.03-4.54,4.53-4.55,1.62-.16,3.27-.06,4.91-.06h14.92v-9.85h-7.56l11.65-28.14-8.19-4.35c-.52.85-.99,1.72-1.41,2.61-3.62,8.78-7.33,17.51-10.71,26.39-.9,2.37-1.61,3.54-4.45,3.64-2.11.1-4.18.7-6.02,1.73-4.37,2.35-7.2,6.81-7.47,11.76-.27,6.85-.14,13.71-.06,20.57-.14,2.68,1.92,4.96,4.6,5.1,0,0,0,0,.01,0,.24.01.48,0,.71-.02.73.02,1.46.02,2.22.02h2.49c-.51,10.62-.44,20.88,3.24,30.97l8.94-2.94c-.04-.68-.14-1.36-.28-2.02-2.19-8.33-2.88-16.98-2.06-25.55-.1-1.74,1.11-3.29,2.82-3.62" fill="#fff"/>
      <path id="_패스_392" data-name="패스 392" d="m115.98,77.24c-3.43,3.68-6.66,7.14-9.98,10.71l6.7,6.32,9.92-9.49c-2.17-2.47-4.24-4.82-6.64-7.55" fill="#fff"/>
      <path id="_패스_393" data-name="패스 393" d="m96.84,113.43l-7.99-5.63-6.65,10.07,8.41,5.09,6.23-9.53Z" fill="#fff"/>
      <path id="_패스_394" data-name="패스 394" d="m146.36,272.66c-.83-3.25-1.59-6.26-2.41-9.46l-9.79,2.44c.86,3.35,1.64,6.37,2.44,9.49l9.75-2.48Z" fill="#fff"/>
      <path d="m275.79,32.66c-3.48-4.13-7.45-6.56-13.02-5.56-.72.03-1.43,0-2.14-.1.36-.51.76-.98,1.22-1.41,5.08-3.37,7.56-9.53,6.23-15.48-.03-.41-.03-.82,0-1.23-.04-4.63-1.68-6.32-6.26-6.32-17.19,0-34.39-.12-51.6.08-6.65.09-13.29.55-19.9,1.38-29.27,3.5-57.3,13.84-81.82,30.19-.99.96-2.57.93-3.52-.06-.12-.12-.23-.26-.32-.41-5.73-5.85-11.55-11.61-17.35-17.4-7.16-7.14-15.1-7.23-21.92.14-20.09,21.69-30.51,46.18-31.32,73.46h-.03s.02.4.02.4c-.03,1.09-.07,2.17-.07,3.26.31,5.1.63,10.2.94,15.31.36,2.86.78,5.75,1.33,8.66.39,1.45.39,2.98,0,4.43-3.23,8.05-5.92,16.3-8.04,24.7-2.37,9.34-4.04,18.84-4.99,28.42-1.52,15.26-1.59,30.45,2.51,45.4,4.18,15.44,11.81,29.73,22.33,41.79,19.78,22.45,48.32,35.24,78.24,35.06,20.17.05,40.34-.12,60.51.09,6.74.07,8.14-2.97,7.33-8.52-1.17-9.72-6.82-18.34-15.29-23.26-2.52-1.54-5.04-3.05-7.36-4.46-.09-.43-.14-.54-.12-.62.19-.69.4-1.37.59-2.06,3.28-11.03.67-22.96-6.92-31.61-3.29-3.97-5.16-4.2-9.41-1.36-12.26,8.17-24.55,16.29-36.74,24.57-2.04,1.39-3.22,1.26-4.8-.55-2.36-2.69-5.09-5.06-7.51-7.69-7.57-8-11.36-18.85-10.41-29.82.31-5.75,2.07-11.34,5.11-16.23,6.95,5.56,13.64,10.94,20.38,16.27,3.52,2.78,6.76,2.14,8.54-1.64,5.94-12.58,8.6-25.37,2.07-38.85l42.93-24.33c1.48,9.4,5.91,18.09,12.64,24.82.78.76,1.59,1.52,2.41,2.23,2.7,2.39,5.56,4.61,8.34,6.89,3.65,3.39,9.04,4.11,13.46,1.82,4.5-2.11,7.23-6.78,6.88-11.74-.01-7.49-.02-14.98-.02-22.48v-7c0-1.43-.13-2.86-.35-4.27-.91-5.6-3.87-10.66-8.3-14.21,2.46-2.21,4.88-4.34,7.27-6.48,12.63-10.73,21.96-20.98,28.46-28.9,19.84-24.17,30.93-48.04,31-48,0,0-.07.16-.12.15-.18-.03.37-2.13.12-4.15-.11-.86-.4-2.02-1.21-3.34Zm-203.59-9.12c3.44-3.67,4.76-3.62,8.31-.08,5.85,5.84,11.71,11.68,17.8,17.76l-8.72,7.08-14.49-14.89c-2.3,2.56-4.33,4.82-6.71,7.47l14.21,13.36-8.6,8.45-8.39-9.97-7.21,7.27,9.96,9.39-4.44,5.56-4.69,2.26-3.79-4.48-7.54,7.62c.76.62,1.52,1.23,2.28,1.84,1.23.96,2.41,1.98,3.54,3.06.63.75.85,1.76.58,2.71-1.98,3.39-4.05,6.75-6.21,10.22-1.19,1.93-2.41,3.88-3.66,5.91-.15-.6-.24-1.22-.35-1.83l.09-16.43c1.82-23.39,11.73-45.41,28.04-62.28Zm86.83,211.57c4.63,6.38,5.73,14.67,2.94,22.05-.49.94-1.32,1.67-2.32,2.02-1.9.63-3.83,1.15-5.78,1.56.77,3.12,1.5,6.07,2.28,9.17.72.03,1.45-.05,2.14-.24,4.21-1.94,7.7-.59,11.34,1.8,4.72,3.1,9.73,5.74,12.36,11.1.71,1.45,1.24,2.98,1.98,4.77h-53.61c1.07-9.99-1.54-20.03-7.33-28.24l36-23.99Zm-35.64-34.22l-16.9-13.5,17.01-11.24c3.64,7.85,3.6,16.92-.11,24.74Zm85.63-29.82c0,1.16-.5,2.26-1.38,3.01-1.12.24-2.29-.06-3.17-.8-4.24-3.34-8.26-6.96-12.03-10.81-.8-.89-1.54-1.83-2.21-2.82-3.15-4.72-5.04-10.17-5.47-15.83,0-1.21.54-2.37,1.46-3.15h0c1.32-.97,2.67-1.88,4.01-2.82,3.35-2.33,6.72-4.62,10.03-7.01.59-.52,1.38-.75,2.15-.63.48.1.94.31,1.32.63,2.66,1.95,4.48,4.83,5.09,8.07.16.81.24,1.63.25,2.45.05,4.9,0,9.8,0,14.7s.08,10.01-.06,15.01Zm17.72-76.66c-1.75,1.85-3.56,3.63-5.36,5.42l-11.88,11c-3.97,3.43-8.02,6.77-12.2,9.94-2.32,1.77-4.69,3.47-7.07,5.16-8.57,6.05-17.47,11.63-26.66,16.69-17.37,9.59-34.56,19.5-51.8,29.31-23.85,13.05-32.6,42.95-19.56,66.8,2.32,4.25,5.26,8.13,8.71,11.52,3.66,3.72,7.42,7.35,11.05,11.1,1.54,1.6,2.89,3.38,4.48,5.27-13.17.71-30.09-11.17-43.49-30.34-2.7,1.4-5.46,2.83-8.45,4.38,10.49,20.34,30.5,34.06,53.25,36.52,2.07.2,2.89,1.03,2.8,3.07-.1,2.32-.02,4.66-.02,7.15-16.66-.7-32.79-6.05-46.55-15.46-8.35-5.72-15.83-12.63-22.18-20.51-14.77-18.51-21.06-41.08-19.42-67.4,1.26-24.6,7.65-48.66,18.75-70.64,1.05-2.05,2.17-4.02,3.27-6.01,3.92-7.13,8.26-14.01,12.99-20.62,4.86-6.7,10.16-13.06,15.88-19.03,23.7-24.85,53.68-41.77,89.94-50.75.37-.09.76-.13,1.26-.22-2.71,7.17-5.25,14.05-7.94,20.88-.34.85-1.35,1.49-2.14,2.1-9.92,7.68-19.84,15.35-29.77,23.01l-7.64,5.91c-.71.55-1.39,1.15-2.21,1.82l3.13,4.07,2.78,3.63,4.05-3.13,13.5-10.41,17.19-13.25c.92,3.65,1.52,6.95,2.57,10.09,1.24,3.63,2.97,7.08,5.14,10.25,7.74,11.36,20.35,18.44,34.07,19.15.55.03,1.1.08,1.65.08,6.75.07,13.5,0,21.03,0-1.33,1.44-2.24,2.45-3.18,3.44Zm33.89-45.13c-6.7,10.02-13.65,19.87-20.46,29.82-.94,1.47-2.62,2.28-4.36,2.1-8.6-.11-17.19-.02-25.79-.05-18.77.33-34.25-14.61-34.58-33.38-.09-5.03.94-10.01,3.01-14.59,2.41-5.64,4.88-11.25,7.53-16.77.65-1.15,1.77-1.96,3.06-2.21,8.55-.76,17.11-1.59,25.69-1.77,13.4-.29,26.8-.08,40.21-.08h3.99c-.58,1.56-1.36,3.04-2.31,4.41-3.58,3.79-7.33,7.43-11.03,11.1-1.88,1.39-2.56,3.89-1.65,6.04.96,2.12,3.2,3.36,5.51,3.03,4.71-.06,9.41-.04,14.12,0,1.05,0,2.1.25,3.72.44-2.39,4.31-4.25,8.3-6.67,11.91h.01Z" fill="#fff"/>
      <rect width="300" height="300" fill="none"/>
    </g>
  </g>
</svg>