<?xml version="1.0" encoding="UTF-8"?>
<svg id="_레이어_2" data-name="레이어 2" xmlns="http://www.w3.org/2000/svg" viewBox="0 0 300 300">
  <g id="_레이어_1-2" data-name="레이어 1">
    <g>
      <path id="_패스_434" data-name="패스 434" d="m248.27,203.2c-.67-.06-1.32-.09-1.95-.09-9.4,0-14.72,6.17-18.72,11.51-7.14,9.55-19.77,23.23-37.54,30.89-.39.13-.77.29-1.14.49-.27.11-.54.24-.81.35-.85.34-1.75.51-2.67.51-2.9.02-5.51-1.77-6.52-4.47l-1.82-4.91c-3.52-9.4-13.61-14.62-23.35-12.07-4.73,1.19-9.59,1.77-14.46,1.74-11.29-.23-22.46-2.46-32.97-6.58-17.79-6.56-36.9-8.77-55.72-6.45-10.84,1.2-18.66,10.94-17.45,21.74.12,1.09.34,2.18.64,3.24,8.5,28.25,48.4,60.89,111.09,60.91h.07c74.11,0,103.98-36.88,117.05-58.56,7.96-13.2,8.31-34.24-13.73-38.25m.32,30.29c-20.7,34.33-54.6,51.02-103.71,51.02-59.11-.02-90.34-30.59-96.12-49.85-.32-1.07-.14-2.23.49-3.15.73-1.12,1.93-1.85,3.26-2,16.34-2.01,32.93-.09,48.37,5.6,12.25,4.74,25.25,7.29,38.39,7.54,6.21.03,12.4-.72,18.41-2.24.34-.09.68-.13,1.03-.13,1.65,0,3.13,1.03,3.71,2.57l1.82,4.91c.6,1.55,1.37,3.02,2.3,4.39-3.12.45-6.57.85-10.45,1.15-4.28.33-7.49,4.06-7.16,8.32.31,4.03,3.69,7.15,7.75,7.15.19,0,.4,0,.61-.02,23.03-1.75,34.52-6.78,38.11-8.65,21.11-8.83,35.95-24.49,44.73-36.23,3.6-4.81,4.87-5.24,6.14-5.25,2.46.56,3.98,1.45,4.53,2.65,1.09,2.39.56,7.62-2.22,12.23" fill="#fff"/>
      <path id="_패스_435" data-name="패스 435" d="m80.04,209.72c9.3,1.22,18.43,3.47,27.24,6.7,9.66,3.78,19.92,5.84,30.29,6.09,4.53.04,9.03-.54,13.4-1.73,2.35-.67,4.79-1.01,7.24-1.01,10.67-.13,20.27,6.47,23.93,16.46,1.11,2.93,4.39,4.41,7.33,3.31.21-.08.42-.17.62-.28,11.76-6.07,22.07-14.6,30.22-25.01,2.73-3.63,7.81-10.07,12.95-12.87,2.41-1.37,4.33-3.47,5.49-5.98,3.32-7.36,5.26-15.26,5.72-23.31,3.99-49.37-35.2-92.31-84.47-95.04v-11.89h1.68c5.01-.08,10.05.19,15.01-.32,13.14-1.46,24.06-10.74,27.56-23.44,1.96-6.96,1.04-14.07,1.13-21.13,0-.03-.04-.06-.11-.15-.21-.02-.48-.06-.75-.06-7.33,0-14.67-.04-22.01.02-6.03-.04-11.95,1.67-17.03,4.91-9.81,6.32-15.24,15.29-15.43,26.97-.14,8.37-.13,16.74-.11,25.11-47.29,2.55-84.36,41.43-84.47,88.61-.01,14.34,3.49,28.46,10.21,41.14.89,1.62,2.51,2.71,4.36,2.93m120.53-79.28c.87-3.49,4.42-5.62,7.93-4.75,3.51.87,5.64,4.41,4.77,7.9-.58,2.33-2.4,4.15-4.73,4.74-3.45.94-7.01-1.08-7.96-4.52-.3-1.1-.31-2.27,0-3.37m-16.2,27.46c1.75,0,3.5-.11,5.23-.33-1.39-3.89.18-8.22,3.75-10.32,3.99-1.92,8.8-.59,11.23,3.1.65-.77,1.19-1.62,1.6-2.54.78-1.98,3.01-2.98,5.02-2.25,2,.72,3.04,2.91,2.32,4.91-.22.62-5.74,15.18-29.14,15.18h-.18c-20.09,0-28.33-13.98-28.68-14.57-1.06-1.85-.42-4.21,1.44-5.27,0,0,.02,0,.03-.01,1.88-1.06,4.26-.41,5.33,1.45.25.42,6.62,10.78,22.04,10.65m-24.01-32.13c3.48.91,5.55,4.46,4.63,7.93s-4.48,5.53-7.96,4.62c-2.28-.6-4.06-2.38-4.64-4.65-.92-3.45,1.14-6.98,4.6-7.9,1.1-.29,2.27-.29,3.37,0" fill="#fff"/>
      <path id="_패스_436" data-name="패스 436" d="m105.08,20.29c2.14,14.31,12.89,25.83,27.06,29,4.15.78,8.39,1.05,12.61.8.14-.14.18-.17.19-.2.03-.15.06-.31.07-.46.75-9.39,5.07-18.13,12.08-24.45.77-.54,1.01-1.56.55-2.38C152.46,9.05,139.44.07,124.88.01,118.53-.02,112.18.01,105.82.01c-.34,0-.68.04-1.12.06v1.21c0,4.42-.03,8.85.02,13.27-.02,1.92.11,3.83.37,5.73" fill="#fff"/>
      <rect width="300" height="300" fill="none"/>
    </g>
  </g>
</svg>