<?xml version="1.0" encoding="UTF-8"?>
<svg id="_레이어_2" data-name="레이어 2" xmlns="http://www.w3.org/2000/svg" viewBox="0 0 300 300">
  <g id="_레이어_1-2" data-name="레이어 1">
    <g>
      <path d="m126,0c2.94.65,5.92,1.16,8.81,1.97,7.52,2.11,14.23,5.79,20.23,10.82.83.7,2.29,1.34,3.24,1.11,15.03-3.64,24.82-.36,33.74,10.99,5.7-.14,11-1.01,16.05-.24,11.63,1.79,19.49,8.82,22.89,20.03,3.43,11.31.68,21.46-7.88,29.71-1.79,1.73-2.57,3.35-2.48,5.79.17,4.58.05,9.16.05,14.15,1.23,0,2.27,0,3.31,0,8.4,0,16.79-.03,25.19,0,16.76.08,29.04,11.73,30.02,28.45.05.88.08,1.76.08,2.63,0,32.22-.03,64.43.02,96.65.02,11.79-4.59,20.97-14.79,27.11-4.53,2.73-9.53,3.92-14.8,3.92-8.49,0-16.99,0-25.48,0-1.06,0-2.11,0-3.54,0,0,5.5-.04,10.73.01,15.97.07,6.72-1.42,12.99-5.43,18.48-6.14,8.41-14.5,12.44-24.88,12.43-38.37-.01-76.73,0-115.1-.03-2.04,0-4.1-.17-6.11-.5-13.13-2.17-23.2-13.26-24.1-26.48-.13-1.85-.17-3.71-.17-5.56,0-33.29,0-66.58,0-99.87,0-1.25,0-2.5,0-4.01-.82.06-1.37.03-1.89.14-11.83,2.48-21.87-5.32-22.09-17.41-.19-10.35-.08-20.7-.04-31.04.05-14.45-.33-28.92.34-43.33,1.16-24.7,22.88-46.42,47.6-47.78,5.51-.3,9.21-1.83,12.83-6.25C89.83,7.84,100.92,2.31,113.8.5,114.36.42,114.9.17,115.45,0c3.52,0,7.03,0,10.55,0Zm70.61,82.33c0,1.08,0,2.22,0,3.36,0,12.2-.01,24.41,0,36.61,0,7.13-2.81,12.75-9.12,16.19-2.05,1.12-2.65,2.27-2.65,4.48.07,29.78.05,59.56.04,89.33,0,1.27.01,2.55-.19,3.79-.48,3.03-2.95,4.94-6.01,4.79-3.44-.17-5.49-2.65-5.5-6.93-.04-13.86-.02-27.73-.02-41.59,0-16.6.02-33.2-.05-49.79,0-1.08-.43-2.77-1.18-3.15-7.96-4.06-10.75-10.68-10.55-19.28.2-8.49,0-16.98-.21-25.47-.13-5.26-2.85-8.9-7.93-10.34-2.97-.85-6.1-1.16-9.17-1.66-2.17-.35-3.81.42-5.48,1.94-8.57,7.78-18.66,10.6-30.07,8.66-6.83-1.16-12.66-4.32-17.78-8.94-2.68-2.42-3.18-2.26-4.95.73-6,10.19-14.7,16.82-26.25,19.45-2.39.55-3.04,1.44-3.03,3.83.07,51.06.05,102.12.06,153.19,0,1.03.1,2.06.17,3.31,1.42,0,2.57,0,3.73,0,27.14,0,54.28,0,81.43,0,.98,0,1.96-.06,2.93.07,2.99.38,5.18,2.86,5.18,5.78,0,2.91-2.18,5.41-5.17,5.8-.96.13-1.95.07-2.93.07-26.95,0-53.89,0-80.84,0-1.02,0-2.05,0-3.16,0,1.93,6.82,8.62,11.69,16.12,11.69,39.15.04,78.3.06,117.45-.02,6.92-.01,12.04-3.45,15.4-9.48.34-.61.47-1.33.78-2.24-5.65,0-10.91.06-16.18-.02-4.33-.07-7.17-3.58-6.08-7.34.78-2.69,2.99-4.27,6.24-4.3,5.64-.04,11.28-.01,17.08-.01V82.33h-12.11Zm-163.88,26.76c-.06,0-.12,0-.18,0,0,6.35,0,12.69,0,19.04,0,5.96-.06,11.91.03,17.87.06,3.84,2.36,6.27,5.79,6.42,3.53.15,6.08-2.27,6.42-6.16.09-.97.05-1.95.05-2.93,0-14.06-.02-28.12.01-42.18.01-4.76,1.87-7.05,6.16-7.26,11.81-.58,20.17-6.31,25.72-16.59,2.79-5.18,7.92-7.52,13.6-5.95,2.73.75,5.54,2.09,7.7,3.89,11.3,9.43,23.02,9.41,33.9-.41,2.89-2.61,6.2-4.05,10.1-3.9,2.82.11,5.66.25,8.46.64,12.43,1.74,20.09,8.48,22.08,19.66.58,3.24.53,6.61.57,9.92.09,7.32-.04,14.65.09,21.97.07,3.54,2.44,5.8,5.64,5.87,3.36.07,5.69-2.2,5.97-5.86.07-.97.04-1.95.04-2.93,0-14.65,0-29.29,0-43.94,0-1.07-.03-2.16.12-3.22.53-3.85,4.1-6.02,7.78-4.75,1.47.51,2.87,1.23,4.36,1.69,8.15,2.49,16.51-.6,20.9-7.67,4.07-6.55,3.21-15.15-2.08-20.87-5.5-5.95-13.97-7.4-21.16-3.64-6.1,3.2-8,2.54-11.08-3.82-4.23-8.73-14.7-12.41-23.36-8.21-5.46,2.65-6.3,2.5-10.67-1.87-18.44-18.45-48.72-15.57-62.94,6.29-2.86,4.4-5.86,5.82-11.01,5.42-21.8-1.7-41.76,15.62-42.91,37.47-.63,11.98-.11,24.01-.11,36.02Zm188.04,8.68c1.18,0,2.23,0,3.28,0,8.2,0,16.4-.01,24.6,0,4.9.01,7.11,2.04,7.11,6.85.04,32.7.04,65.4,0,98.1,0,4.86-2.18,6.93-7.02,6.95-8.3.02-16.59,0-24.89,0-1.02,0-2.04,0-3.03,0v11.72c5.74,0,11.29,0,16.83,0,3.61,0,7.22,0,10.84,0,11.71-.02,18.97-7.23,18.99-19.02.04-28.21.01-56.42.01-84.63,0-4.59.09-9.18-.03-13.76-.28-10.69-7.64-17.88-18.29-17.93-8-.03-16.01,0-24.01,0-1.44,0-2.87,0-4.4,0v11.72Zm.1,11.82v88.2h22.96v-88.2h-22.96Z" fill="#fff"/>
      <path d="m91.13,179.07c0,18.16.01,36.32,0,54.48,0,4.72-2.02,7.26-5.69,7.35-2.94.07-5.32-1.79-5.82-4.69-.21-1.24-.2-2.53-.2-3.79,0-35.54,0-71.08,0-106.62,0-1.27,0-2.55.22-3.79.49-2.7,2.92-4.65,5.61-4.66,2.69,0,5.14,1.92,5.64,4.62.23,1.24.23,2.52.23,3.79.01,17.77,0,35.54,0,53.31Z" fill="#fff"/>
      <path d="m126.29,179.17c0-17.77,0-35.54,0-53.31,0-1.17-.01-2.35.16-3.5.43-2.89,2.81-4.96,5.61-5.01,2.92-.05,5.38,2.08,5.8,5.13.15,1.06.14,2.14.14,3.21,0,35.64,0,71.27,0,106.91,0,1.17,0,2.35-.18,3.5-.47,2.92-2.81,4.82-5.73,4.8-2.91-.03-5.19-1.97-5.63-4.92-.17-1.15-.16-2.34-.16-3.5,0-17.77,0-35.54,0-53.31Z" fill="#fff"/>
      <path d="m167.71,276.05c-3.25.05-5.84-2.39-5.95-5.59-.11-3.24,2.64-6.06,5.87-6.04,3.12.02,5.78,2.69,5.8,5.82.02,3.2-2.5,5.76-5.73,5.81Z" fill="#fff"/>
      <rect width="300" height="300" fill="none"/>
    </g>
  </g>
</svg>