<?xml version="1.0" encoding="UTF-8"?>
<svg id="_레이어_2" data-name="레이어 2" xmlns="http://www.w3.org/2000/svg" viewBox="0 0 300 300">
  <g id="_레이어_1-2" data-name="레이어 1">
    <g>
      <path d="m300,111.3c-.91,3.58-1.5,7.27-2.78,10.71-7.18,19.29-21.29,30.25-41.35,33.86-11.91,2.14-23.79,4.43-35.74,6.29-18.43,2.87-33.83,11.31-47.09,24.22-7.76,7.56-15.8,14.86-25.5,20.01-13.06,6.94-27.19,9.32-41.76,10.03-17.08.83-33.75-.88-49.56-7.85-21.13-9.31-35.52-25.37-45.2-45.92C4.95,149.76.23,136.27.01,121.95c-.47-30.49,12.53-54.84,35.79-73.97,10.9-8.96,23.39-15.11,36.61-19.88,1.77-.64,2.76-.19,3.97,1.12,13.38,14.45,28.67,26.47,46.06,35.75,21.6,11.53,44.61,16.41,69.09,15.79,23.75-.6,47.44.76,70.77,5.88,13.54,2.97,26.47,7.41,37.7,15.87v8.8Zm-204.92,57.02c14.27-.1,26.4-3.43,36.92-11.56,20.64-15.93,20.64-43.04.05-59.05-8.9-6.91-19.12-10.47-30.25-11.33-16.1-1.25-30.89,2.37-43.34,13.09-17.39,14.98-17.96,38.48-1.33,54.26,10.9,10.35,24.32,14.32,37.95,14.59Z" fill="#fff"/>
      <path d="m300,180.49c-.72,2.72-1.31,5.48-2.19,8.15-3.47,10.43-11.35,17.09-20.08,22.89-9.55,6.33-20.48,8.93-31.5,11.21-10.99,2.27-21.95,4.65-32.94,6.86-14.01,2.81-25.83,9.69-36.29,19.19-4.48,4.07-8.97,8.14-13.47,12.2-12.17,10.96-26.39,17.52-42.6,19.84-16.37,2.33-32.67,2.62-48.9-1.12-19.68-4.54-35.91-14.61-48.09-30.72C10.13,230.74,2.05,210.17.23,187.26c-.05-.63,0-1.26,0-2.47,2.3,3.24,4.17,6.05,6.22,8.73,18,23.61,41.79,37.47,71.13,41.52,22.83,3.15,45.4,1.86,67.34-5.84,13.02-4.57,24.12-12.23,34.31-21.39,6.02-5.42,12.06-10.85,18.38-15.91,8.53-6.83,19-8.82,29.37-10.78,11.98-2.26,24.04-4.11,36-6.5,14.32-2.86,26.89-9.21,37.03-19.94v25.8Z" fill="#fff"/>
      <path d="m97.4,21.18c8.42-1,16.81-2.36,25.26-2.94,28-1.94,55.81-.39,83.26,5.74,23.49,5.24,45.68,13.66,64.42,29.2,6.63,5.5,12.12,12.37,18.1,18.63.45.47.7,1.12,1.39,2.28-1.73-.6-2.88-1-4.03-1.41-15.74-5.58-32.01-8.85-48.6-9.93-17.81-1.16-35.68-1.67-53.54-1.86-22.9-.25-43.46-7.36-62.45-19.7-8.61-5.59-16.61-11.94-23.94-19.11l.13-.9Z" fill="#fff"/>
      <path d="m96.94,148.37c-9.01-.01-16.96-2-23.86-7.16-10.84-8.11-10.75-19.96.12-28.07,12.76-9.52,33.75-9.44,46.47.17,10.51,7.94,10.59,19.72.1,27.75-6.86,5.24-14.8,7.23-22.82,7.32Z" fill="#fff"/>
      <rect width="300" height="300" fill="none"/>
    </g>
  </g>
</svg>