<?xml version="1.0" encoding="UTF-8"?>
<svg id="_레이어_2" data-name="레이어 2" xmlns="http://www.w3.org/2000/svg" viewBox="0 0 300 300">
  <g id="_레이어_1-2" data-name="레이어 1">
    <g>
      <path id="_패스_1165" data-name="패스 1165" d="m170.6,61.25c0-17.4.24-34.81-.11-52.2-.17-8.21,3.01-10.59,10.48-8.13,2.57.85,5.54,1.12,7.63,2.63,10.13,7.34,21.01,9.26,33.55,8.56,13.23-.73,21.99,8.96,27.55,19.79,3.46,7.34,9.35,13.26,16.65,16.74,14.55,7.2,14.71,10.47,1.59,19.09-27.87,18.32-55.85,36.48-83.94,54.47-8.68,5.59-13.23,3.07-13.39-7.62-.27-17.78-.07-35.56-.07-53.34h.05Zm7.67-55.91c-3.65,12.97,2.25,16.31,10.54,17.74,25.76,4.46,47.87,15.64,64.26,36.5,6.26,7.97,10.25,4.55,15.91-1.92-3.53-1.92-6.75-3.03-9.15-5.11-4.76-4.12-10.34-8.04-13.32-13.32-9.93-17.65-17.89-21.97-37.85-19.6-3.53.42-7.62-1.72-11.07-3.44-6.2-3.09-12.12-6.76-19.33-10.85h0Z" fill="#fff"/>
      <path id="_패스_1166" data-name="패스 1166" d="m265.01,153.45c-3.24-5.77-4.97-12.28-5.03-18.91-.2-10.98-1.73-20.84-10.96-29.24-16.25,10.54-32.2,20.93-48.2,31.23-8.62,5.55-17.27,11.09-26.13,16.75,5.01,5.89,7.77,13.39,7.76,21.14-.02,18.07-14.6,32.7-32.57,32.68h0c-17.97.02-32.56-14.62-32.57-32.68h0c.02-18.04,14.57-32.67,32.51-32.68-.12-25.74-.32-51.49.15-77.21.32-17.75-4.57-16.27-18.3-11.34-2.51.9-4.48,3.35-6.99,4.16-5.93,1.92-12.1,4.82-18.06,4.59-17.53-.68-29.37,6.03-37.24,21.39-2.6,5.08-6.97,10.35-11.89,12.94-17.68,9.33-23.6,19.28-23.33,39.3-.1,6.3-1.88,12.46-5.16,17.84-8.64,14.24-8.63,28.38-.49,42.6,3.48,6.36,5.35,13.49,5.45,20.75.2,16.72,7.27,28.19,22.12,36.13,5.7,3.37,10.36,8.25,13.47,14.11,7.85,14.36,19.71,22.46,35.61,20.72,8.5-.93,15.11,1.26,21.88,6.01,12.48,8.75,27.4,7.86,40.41.26,6.03-3.53,13.66-6.12,20.53-6.05,17.77.2,29.8-6.81,37.45-22.99,2.6-5.04,6.67-9.15,11.68-11.77,17.01-8.71,23.14-19.23,22.74-38.53,0-6.32,1.74-12.51,5.02-17.9,9.08-14.62,9.08-28.49.15-43.31Zm-5.23,39.08c-3.85,6.97-5.96,14.77-6.16,22.74-.14,15.57-5.34,24.42-19.17,32.11-6.33,3.67-11.58,8.95-15.21,15.33-7.53,13.5-16.93,19.08-32.15,19.14-7.63.08-15.13,2.04-21.84,5.71-13.51,7.61-23.14,7.6-36.39.16-6.97-3.89-14.8-5.95-22.77-6.01-14.43.18-24.57-5.33-30.39-18.1-3.45-7.87-9.78-14.11-17.69-17.4-12.01-5.47-18.4-15.35-17.14-28.79,1.1-9.58-1.48-19.22-7.21-26.96-7.27-10.24-7.15-21.23.21-31.56,5.58-7.42,8.12-16.7,7.12-25.94-1.33-14.11,5.71-23.38,18.09-30.42,6.59-3.87,12.1-9.36,16.01-15.96,8-13.78,16.69-18.74,32.33-18.41,6.96.14,14.12-3.06,20.96-5.4,4.57-1.56,8.76-4.28,14.48-7.16v15.29c-40.69,4.44-72.29,23.24-89.79,61.58-11.76,25.76-12.36,52.47-2.39,79.01,20.21,53.58,79.79,80.55,133.09,60.23.49-.19.98-.38,1.46-.57,53.28-21.43,84.19-86.82,50.91-149.49l13.17-8.79c1.56,7.72,4.08,14,3.76,20.13-.5,9.72,1.21,17.94,7.12,25.92,7.77,10.5,6.23,21.72-.41,33.62Z" fill="#fff"/>
      <rect width="300" height="300" fill="none"/>
    </g>
  </g>
</svg>