<?xml version="1.0" encoding="UTF-8"?>
<svg id="_레이어_2" data-name="레이어 2" xmlns="http://www.w3.org/2000/svg" viewBox="0 0 300 300">
  <g id="_레이어_1-2" data-name="레이어 1">
    <g>
      <circle id="_타원_14" data-name="타원 14" cx="116.01" cy="243.71" r="10.1" fill="#fff"/>
      <circle id="_타원_15" data-name="타원 15" cx="189.83" cy="243.71" r="10.1" fill="#fff"/>
      <path id="_패스_647" data-name="패스 647" d="m161.32,259.3c-.83,0-1.61-.39-2.1-1.06-1-1.36-3.77-4.53-7.72-4.7-4.27-.15-7.32,3.32-8.16,4.4-.89,1.14-2.53,1.35-3.67.46-1.14-.89-1.35-2.53-.46-3.67,1.57-2.03,5.95-6.69,12.51-6.41,6.21.26,10.25,4.85,11.7,6.81.86,1.15.63,2.79-.52,3.65-.45.34-1.01.52-1.58.52h0Z" fill="#fff"/>
      <path id="_패스_648" data-name="패스 648" d="m190.45,268.23c-.65-1.53-2.42-2.25-3.95-1.6,0,0,0,0,0,0-12.03,5.09-25,7.61-38.06,7.42-11.11-.19-22.1-2.36-32.44-6.42-1.54-.63-3.3.1-3.93,1.64s.1,3.3,1.64,3.93c.03.01.07.03.1.04,11.01,4.32,22.71,6.64,34.53,6.84.57,0,1.15.01,1.72.01,1.82,0,3.64-.06,5.45-.16.24,3.96,1.22,10.46,4.96,14.58,3.12,3.26,7.45,5.09,11.96,5.06,1.95.01,3.88-.36,5.69-1.09,8.3-3.45,10.6-13.9,9.55-19.88-.38-1.82-.85-3.62-1.41-5.38.87-.34,1.74-.66,2.61-1.03,1.53-.65,2.25-2.42,1.6-3.95h0Zm-14.65,24.68c-3.8,1.36-8.03.4-10.88-2.46-2.37-2.61-3.23-7.44-3.43-10.98.46-.06.97-.12,1.53-.19,3.21-.39,6.4-.96,9.56-1.69.07-.02,4.49-1.16,7.99-2.3.45,1.43.84,2.88,1.14,4.34.73,4.11-.96,11.21-5.92,13.27h0Z" fill="#fff"/>
      <path id="_패스_650" data-name="패스 650" d="m247.47,41.89c-6.7-2.16-13.74-3.11-20.77-2.82v-.02l-18.43-.14C197.4,13.14,170.83-2.36,143.06.85c-22.38,2.87-41.58,17.34-50.53,38.05l-17.98.14C34.51,36.89,1.9,72.92,8.76,112.77c4.71,27.36,30.33,50.03,58.09,51.51.68.04,11.36-.35,11.36-.35,0,0-1.85,8.47-2.68,15.62-.91,7.83.04,15.17.06,29.9,0,1.37.13,2.74.2,4.08h26.85v-5.72c.01-4.14-.13-8.29.1-12.42,0-3.1,2.51-5.62,5.61-5.63.05,0,.1,0,.15,0,3.14,0,5.68,2.54,5.7,5.68.13,1.54.05,3.11.05,4.66v13.47h28.31c0-2.05-.02-3.84,0-5.63.06-4.4-.05-8.8.29-13.18.04-2.8,2.33-5.04,5.13-5,.23,0,.46.02.69.06,2.87-.06,5.24,2.22,5.3,5.08,0,.02,0,.03,0,.05.17,1.67.14,3.36.16,5.04.02,4.49,0,8.99,0,13.52h28.43c0-6.02-.07-11.7.02-17.38.06-3.84,2.16-6.17,5.4-6.34,3.43-.18,5.81,2.14,6.12,6.1.13,1.67.04,3.36.04,5.05v12.77h29.32c.18-22.42.28-34.39.28-34.39l-1.79-14.81s18.06-1.39,24.41-2.54c20.79-3.77,44.86-28.21,45.75-57.1,1.13-28.68-17.2-54.53-44.63-62.97Z" fill="#fff"/>
      <rect width="300" height="300" fill="none"/>
    </g>
  </g>
</svg>