<?xml version="1.0" encoding="UTF-8"?>
<svg id="_레이어_2" data-name="레이어 2" xmlns="http://www.w3.org/2000/svg" viewBox="0 0 300 300">
  <g id="_레이어_1-2" data-name="레이어 1">
    <g>
      <path id="_패스_648" data-name="패스 648" d="m64.42,33.89c-4.94-5.61-.6-14.95,9.68-20.86,10.28-5.91,22.62-6.15,27.55-.54,4.93,5.6.6,14.95-9.69,20.86-10.29,5.91-22.62,6.15-27.55.54" fill="#fff"/>
      <path id="_패스_649" data-name="패스 649" d="m120.33,31.64C39.35,47.77-13.22,126.49,2.91,207.47c0,0,0,0,0,0l293.25-58.41C280.03,68.08,201.31,15.51,120.33,31.64c0,0,0,0,0,0m45.91,116.24c-7.09,1.41-13.99-3.19-15.4-10.29-1.41-7.09,3.19-13.99,10.29-15.4,7.09-1.41,13.99,3.19,15.4,10.28,1.41,7.09-3.19,13.99-10.29,15.4m76.77-15.29c-7.09,1.41-13.99-3.19-15.4-10.28-1.41-7.09,3.19-13.99,10.28-15.4,7.09-1.41,13.99,3.19,15.4,10.28,0,0,0,0,0,0,1.41,7.09-3.19,13.99-10.29,15.4" fill="#fff"/>
      <path id="_패스_650" data-name="패스 650" d="m300,217H3.84v22.28h88.39l-7.42,8.61-8.74,10.14c-4.82,5.6-4.2,14.05,1.4,18.87,0,0,0,0,0,0l10.14,8.74,3.11,2.69c5.6,4.83,14.05,4.2,18.87-1.4,4.83-5.6,4.2-14.05-1.4-18.87l-3.11-2.69,22.47-26.08h39.37l16.46,29.84,6.47,11.71c3.57,6.47,11.71,8.82,18.18,5.25l11.71-6.47,3.6-1.99c6.42-3.66,8.65-11.83,4.99-18.25-3.59-6.29-11.53-8.58-17.92-5.17l-3.6,1.99-9.34-16.92h102.51v-22.27Z" fill="#fff"/>
      <rect width="300" height="300" fill="none"/>
    </g>
  </g>
</svg>