<?xml version="1.0" encoding="UTF-8"?>
<svg id="_레이어_2" data-name="레이어 2" xmlns="http://www.w3.org/2000/svg" viewBox="0 0 300 300">
  <g id="_레이어_1-2" data-name="레이어 1">
    <g>
      <path d="m0,207.42c1.18-3.58,1.9-7.41,3.62-10.71,6.82-13.05,17.83-20.14,32.51-20.15,6.48,0,9.63-1.65,12.77-7.79,16.26-31.79,42.18-52.02,77.04-59.9,52.57-11.88,105.89,14.81,128.36,63.8,1.36,2.97,2.9,3.97,6.08,3.75,9.54-.65,18.38,1.41,26.12,7.41,17.75,13.78,17.37,40.63,2.52,53.22-8.46,7.17-18.5,9.71-29.33,9.8-12.1.1-23.37-2.91-33.62-9.38-10.16-6.42-21.03-8.82-32.68-5.37-4.23,1.25-8.29,3.39-12.14,5.63-20.2,11.77-40.41,12.01-60.39-.13-12.28-7.46-24.86-9.45-38.17-3.67-5.44,2.36-10.34,5.97-15.84,8.15-15.83,6.28-31.89,7.3-47.73,0-10.46-4.82-16.78-13.05-18.63-24.54-.07-.46-.33-.89-.5-1.33,0-2.93,0-5.86,0-8.79Zm98.21-13.03c1.87-.95,4.08-1.52,5.53-2.9,6.15-5.85,12.17-11.85,18.04-17.97,3.45-3.59,3.21-8.76-.13-12.13-3.35-3.37-8.42-3.53-12.14-.24-1.97,1.74-3.77,3.68-5.63,5.54-4.07,4.07-8.19,8.1-12.19,12.24-2.68,2.78-3.35,6.11-1.85,9.72,1.32,3.17,4.71,5.3,8.37,5.74Zm114-10.08c-.43-1.01-.77-3.15-2.01-4.45-6.27-6.55-12.62-13.04-19.25-19.23-3.25-3.03-8.31-2.38-11.42.76-3.12,3.15-3.7,8.17-.65,11.43,6.21,6.61,12.66,13,19.25,19.23,2.53,2.39,5.86,2.49,9.04.91,3.16-1.57,4.71-4.24,5.03-8.65Zm-52.83-7.82c0-2.93.07-5.86-.01-8.79-.14-5.09-3.81-8.84-8.62-8.92-4.92-.08-8.82,3.71-8.91,8.91-.1,5.76-.1,11.52,0,17.28.09,5.09,3.8,8.84,8.61,8.93,4.91.09,8.76-3.72,8.92-8.92.08-2.83.01-5.66.02-8.5Z" fill="#fff"/>
      <path d="m69.15,300c-3.88-1.7-8-3.02-11.57-5.22-2.56-1.58-4.96-4.03-6.42-6.65-4.24-7.63-7.98-15.54-11.92-23.37,5.84-.53,11.27-.82,16.64-1.55,10.49-1.42,20.15-5.21,29.05-10.93,4.84-3.11,10.05-5.09,15.78-3.8,3.44.77,6.91,2.16,9.91,4,14.55,8.92,30.21,12.87,47.22,11.2,11.66-1.15,22.43-4.91,32.29-11.23,4.92-3.16,10.14-5.12,16.04-4.02,2.45.46,5.08,1.08,7.13,2.4,14.35,9.27,29.98,13.89,47.58,13.4-.66,1.39-1.16,2.49-1.69,3.57-2.51,5.17-5.09,10.32-7.52,15.53-4.06,8.7-10.45,14.43-20.07,16.22-.26.05-.48.3-.71.46H69.15Z" fill="#fff"/>
      <path d="m124.73,26.98c-.38,10.12-4.16,18.51-12.38,24.73-6.17,4.67-8.07,10.18-5.26,15.95.99,2.02,2.71,3.79,4.39,5.34,4.23,3.9,5.04,8.7,1.89,12.68-3.22,4.08-8.32,4.46-12.99.97-15.97-11.94-16.1-35.5-.27-47.68,7.41-5.7,9.14-13.52,4.31-20.02-.97-1.31-2.33-2.33-3.55-3.45-3.65-3.33-4.18-8.32-1.25-12.11,2.91-3.77,7.94-4.52,12.02-1.65,8.72,6.13,12.7,14.76,13.08,25.23Z" fill="#fff"/>
      <path d="m132.34,60.53c.2-7.87,4.08-16.11,12.27-21.91,7.86-5.56,7.6-14.6,3.89-19.49-.99-1.3-2.29-2.37-3.52-3.47-3.81-3.42-4.39-8.47-1.38-12.31,3-3.82,8.05-4.4,12.29-1.4,16.5,11.67,17.05,36.9,1.01,49.25-3.76,2.9-6.92,6-7.01,11.17-.08,4.48,1.86,7.87,5.32,10.52,2.74,2.1,4.34,4.8,3.93,8.32-.8,6.79-8.21,10-13.94,6.11-8.09-5.49-12.88-14.67-12.87-26.79Z" fill="#fff"/>
      <path d="m176.24,62.71c.23-10.08,4.2-18.35,12.49-24.23,7.68-5.45,7.48-14.59,3.61-19.52-.95-1.21-2.18-2.22-3.34-3.25-3.85-3.43-4.47-8.42-1.49-12.3,2.97-3.86,8.04-4.49,12.27-1.52,16.53,11.59,17.15,36.91,1.15,49.25-3.85,2.96-7.06,6.13-7.08,11.43-.02,4.49,2.05,7.81,5.48,10.45,2.75,2.12,4.24,4.88,3.74,8.38-.96,6.77-8.4,9.83-14.08,5.77-8.35-5.98-12.52-14.19-12.76-24.47Z" fill="#fff"/>
    </g>
  </g>
</svg>