<?xml version="1.0" encoding="UTF-8"?>
<svg id="_레이어_2" data-name="레이어 2" xmlns="http://www.w3.org/2000/svg" viewBox="0 0 300 300">
  <g id="_레이어_1-2" data-name="레이어 1">
    <g>
      <path id="_패스_508" data-name="패스 508" d="m287.24,160.38H12.76c-.02,44.21,21.29,85.72,57.23,111.46-1.57,1.77-2.44,4.05-2.45,6.41v11.97c0,5.39,4.37,9.76,9.76,9.76h145.4c5.39,0,9.76-4.37,9.76-9.76h0v-11.98c0-2.37-.88-4.65-2.45-6.41,35.94-25.75,57.25-67.25,57.23-111.46" fill="#fff"/>
      <path id="_패스_507" data-name="패스 507" d="m266.53,64.79c-14.49,25.71-47.08,34.81-72.79,20.32s-34.81-47.08-20.32-72.79c1.81-3.21,3.95-6.23,6.38-9.01C105.82-13.16,32.51,33.45,16.04,107.42c-2.18,9.8-3.28,19.81-3.28,29.85h274.49c.04-25.63-7.14-50.74-20.7-72.49" fill="#fff"/>
      <rect width="300" height="300" fill="none"/>
    </g>
  </g>
</svg>