<?xml version="1.0" encoding="UTF-8"?>
<svg id="_레이어_2" data-name="레이어 2" xmlns="http://www.w3.org/2000/svg" viewBox="0 0 300 300">
  <g id="_레이어_1-2" data-name="레이어 1">
    <path d="m298.43,86.29h0s-4.61-4.61-4.61-4.61l-8.59-8.59h0s-45.63-45.63-45.63-45.63l-8.32-8.33h0S213.7,1.57,213.7,1.57C212.69.56,211.33,0,209.91,0h-119.83c-1.42,0-2.78.56-3.79,1.57L1.57,86.3C.56,87.3,0,88.67,0,90.09v119.82c0,1.42.56,2.78,1.57,3.79l84.73,84.74c1,1,2.37,1.57,3.79,1.57h119.83c1.42,0,2.78-.57,3.79-1.57l84.74-84.74c1-1,1.57-2.37,1.57-3.79v-119.83c0-1.42-.56-2.78-1.57-3.79Zm-14.38.86l1.32,1.32h-3.62l2.29-1.32Zm-33.98-33.98l25.38,25.38-17.16,9.91h-.03s-8.2.01-8.2.01h0s0,0,0,0v-35.3Zm2.9,38.36l-2.9,1.67v-1.67h2.9ZM211.28,14.37l12.95,12.95,8.33,8.33,14.03,14.03s0,0,0,0h-25.68s-9.62,0-9.62,0h0s0,0,0,0c-.01-2.24-.03-4.47-.04-6.71l.04-.05V14.38l-2.04-2.04,2.04,2.04Zm35.74,38.37v35.74h0s-35.74,0-35.74,0v-35.74h35.74Zm-37.26,38.8h37.26v3.44h0s-31.16,18.01-31.16,18.01c-13.6-3.58-27.48-6.01-41.49-7.26l33.87-40.77v25.04c0,.84.69,1.53,1.53,1.53ZM92.14,10.63h115.39l.69.69h0v35.28l.06-.08c-.02,1.05-.04,2.1-.06,3.16-38.92,0-77.85,0-116.77,0-.01-12.79-.01-25.57,0-38.37l.69-.69Zm-3.75,3.75h0s0,35.3,0,35.3h0c-11.63-.14-23.26-.28-34.88-.42L88.39,14.38Zm-35.74,74.1v-35.74h35.74v35.74h-35.74v3.06h37.27c.85,0,1.53-.68,1.53-1.53v-37.27h111.67l-43.24,52.06c-3.33-.12-6.68-.2-10.04-.2-35.02,0-68.51,6.7-97.18,19.14v-32.2h-.01v-3.06Zm97.18,26.83c.44,0,.87,0,1.3.01l-18.82,22.66c-4.76-.2-9.61-.31-14.57-.31-29.95,0-51.44,3.88-65.08,10.08v-12.31c27.45-12.67,61-20.13,97.17-20.13Zm-51.12,73.81v-41.37c10.95,20.06,0,41.37,0,41.37Zm-25.76-21.84c0,1.88-1.53,3.41-3.41,3.41s-3.41-1.53-3.41-3.41,1.53-3.41,3.41-3.41,3.41,1.53,3.41,3.41Zm-23.36-114.1h0s0,0,0,0c0,0,0,0,0,0v35.3H14.3l35.3-35.3Zm0,193.5l-35.3-35.3s0,0,0,0h35.3s0,0,0,0v35.3Zm0-38.36H11.24l-.69-.69v-44.21c11.55-10.83,24.73-19.78,39.05-26.53v12.36c-10.19,5.38-15.14,12.22-15.14,19.69s4.95,14.31,15.14,19.69c0,0,0,0,0,0v19.69Zm.01-83.2c-8.79,3.95-17.25,8.58-25.31,13.86-4.76,3.14-9.36,6.53-13.75,10.17v-56.9l.69-.69h0s38.35,0,38.35,0h0s.01,0,.01,0v33.57Zm38.78,160.35l-35.3-35.3h35.3v35.3Zm0,9.11h0c0,.1.04.19.06.29-.02-.1-.06-.18-.06-.29Zm3.75-5.36l-.69-.69h0v-38.36h0s116.77,0,116.77,0v38.36l-.69.69h-115.38Zm119.13-3.75v-35.3h35.3l-35.3,35.3Zm35.73-38.36h-35.74v-35.74h35.74v35.74Zm0-38.79h-37.27c-.84,0-1.53.68-1.53,1.53h0v37.27h-116.76s-3.06,0-3.06,0h0s-35.74,0-35.74,0v-35.74h0s35.74,0,35.74,0v35.74h3.06v-37.26c0-.84-.68-1.53-1.53-1.53h-37.27v-18.2c-.56-.25-1.07-.52-1.6-.79.53.26,1.04.53,1.6.78,13.65,6.2,35.14,10.08,65.08,10.08,39.54,0,73.85-6.76,91.12-16.68,4.97-2.92,10.99-3.48,16.42-1.51l21.73,8.1h0v18.21Zm0-60.56l-21.74,8.11c-5.42,1.97-11.44,1.42-16.42-1.51-7.87-4.2-16.26-7.35-24.96-9.37l-12.45,7.19c7.34,18.64-2.05,36.95-2.05,36.95v-35.77l-30.62,17.68c-.48,6.26-2.08,12.39-4.72,18.09v-15.36l-18.3,10.56-5.86-10.16,2.74-1.58,11.89-6.87,42.1-24.31c-6.26-1.03-12.9-1.86-19.85-2.48l19.2-23.12c12.24.75,24.41,2.4,36.4,4.95l-35.75,20.64c6.17,1.01,11.95,2.21,17.28,3.57l34.8-20.09c9.69,2.81,19.15,6.34,28.32,10.55v12.32Zm3.05,98.92v-35.3h35.3l-35.3,35.3Zm38.36-38.36h-38.36v-17.07l3.5,1.31c2.55.95,5.39-.35,6.34-2.9.21-.55.31-1.13.31-1.72v-37.99c0-2.72-2.21-4.93-4.93-4.93-.59,0-1.17.11-1.72.31l-3.51,1.31v-9.73c14.32,6.75,27.5,15.7,39.05,26.53v44.21s-.68.69-.68.69Zm-13.06-69.33c-8.06-5.28-16.52-9.91-25.3-13.87v-18.34l-3.06,1.77v15.2c-5.11-2.22-10.37-4.25-15.78-6.09l15.78-9.11,3.06-1.77,26.39-15.23h11.98l.69.69v56.91c-4.39-3.64-8.99-7.03-13.75-10.17Z" fill="#fff"/>
  </g>
</svg>