<?xml version="1.0" encoding="UTF-8"?>
<svg id="_레이어_2" data-name="레이어 2" xmlns="http://www.w3.org/2000/svg" viewBox="0 0 300 300">
  <g id="_레이어_1-2" data-name="레이어 1">
    <g>
      <path id="_패스_438" data-name="패스 438" d="m218.3,127.12c-.83-.88-1.98-1.38-3.19-1.38h-.66c-16.47-.2-45.3-.48-61.79-.77l-14.33-.14-7.17-.03h-.56c-2.96.01-5.34,2.42-5.33,5.37h0c.01.99.3,1.95.81,2.79l1.79,3.1c7.75,13.45,17.51,29.87,25.49,43.17,5.9,9.9,9.61,20.95,10.88,32.41.49,4.06.58,9.93.71,14.1.49,13.86,1.05,29.22,1.88,42.98.02.21.2.37.41.36.19-.01.34-.17.35-.36.95-16.26,1.6-33.83,2.11-50.15.65-18.04-4.48-33.74-13.75-49.11-6.19-11.18-14.09-25.14-20.8-36.77,24.01-.17,53.65-.66,77.14-.9-.65,1.17-1.34,2.38-1.69,3-4.46,7.91-16.53,29.3-21.12,37.44-5.13,8.36-8.86,17.5-11.03,27.06-1.05,4.79-1.68,9.66-1.87,14.56-.18,4.25.02,10.11.03,14.43.1,7.55.42,32.29.51,39.4-.15,7.58,2.73,14.91,8,20.36,1.95,2.02,5.93,5.76,7.9,7.89.06.2-.05.41-.25.47,0,0,0,0-.01,0-.02,0-.05,0-.07.01h-.22c-5.41.06-19.51.27-29.87.43-18.79-.92-38.63-1.61-57.35-2.07-1.01.07-2.02-.08-2.96-.43-1.55-.69-2.6-2.18-2.72-3.88l.14-7.74c.24-9.93.65-38.07.77-48.21.58-36.49-.43-75.68-.48-112.25.52-8.14,3.43-15.95,8.36-22.45,2.24-2.83,6.58-7.92,8.91-10.76,2.43-3,3.74-6.76,3.71-10.62,0-.39-.02-2.05-.02-2.51-.16-18.33-.41-45.75-.58-64.28l-.02-2.01v-.43c.03-1.32.56-2.59,1.49-3.54.94-.95,2.21-1.52,3.56-1.57h.18s.25-.01.25-.01l2-.02c4.49-.04,11.59-.1,16.07-.15,3.06-.02,5.57,2.41,5.65,5.47.22,18.17.53,46.61.74,64.78l.05,4.02c-.02,3.6,1.26,7.08,3.61,9.8,4.08,4.4,7.91,9.01,11.48,13.83,2.9,4.45,4.98,9.39,6.13,14.58.04.21.25.34.45.3.21-.04.34-.25.3-.45-1.03-5.33-3.02-10.43-5.86-15.06-1.43-2.3-3.04-4.48-4.82-6.53-.94-1.12-5.56-6.74-6.4-7.74-2.02-2.44-3.08-5.54-2.99-8.71l.05-4.02.18-16.07c.12-10.4.43-38.22.55-48.21.18-3.36-1.49-6.55-4.35-8.33-2.42-1.7-6.01-1.36-8.78-1.42l-8.04-.07c-1.33,0-4.73-.06-6.02-.06-5.23-.17-9.6,3.93-9.77,9.16,0,.16,0,.32,0,.48-.15,17.52-.41,44.89-.56,62.27,0,1.41-.05,4.62-.05,6.03.08,2.73-.84,5.4-2.6,7.5-2.44,2.85-6.87,7.88-9.21,10.74-5.8,7.37-9.31,16.27-10.1,25.61-1.04,47.32-1.15,97.51-.29,144.87.09,3.98.35,18.47.43,22.1,0,.67.04,1.64.1,2.3.62,5.01,4.81,8.81,9.86,8.94,1.31,0,4.22-.09,5.62-.13,5.14-.13,18.8-.56,24.1-.74,9.76-.37,19.52-.73,29.27-1.23l19.08.29,7.16.09,3.58.05h.24c.13,0,.25-.02.37-.03,1.27-.24,2.1-1.47,1.86-2.74-.1-.51-.37-.98-.76-1.32-1.88-2-5.54-5.72-7.42-7.75-4.7-5.1-7.16-11.87-6.82-18.79.09-7.28.41-31.79.51-39.4.07-4.19.01-10.09.26-14.22.7-11.64,3.96-22.98,9.54-33.21,2.43-4.33,15.36-26.03,18.14-30.79,1.22-2.07,8.07-13.66,9.11-15.42.28-.47,1.11-1.88,1.37-2.31.99-1.67.77-3.79-.55-5.21m-4.62,2.22l-.03.05c.03-.07.09-.16.03-.05" fill="#fff"/>
      <rect width="300" height="300" fill="none"/>
    </g>
  </g>
</svg>