<?xml version="1.0" encoding="UTF-8"?>
<svg id="_레이어_2" data-name="레이어 2" xmlns="http://www.w3.org/2000/svg" viewBox="0 0 300 300">
  <g id="_레이어_1-2" data-name="레이어 1">
    <g>
      <path d="m118.52,182.05c3.21-33.06,6.4-65.85,9.61-98.85H16.27c3.58,33.04,7.13,65.88,10.7,98.85h91.56Zm58.32-98.84c3.21,33.01,6.4,65.82,9.6,98.73.63.09,1.14.24,1.65.24,29.19.01,58.38-.01,87.57.07,2.32,0,2.64-1.19,2.81-2.9.43-4.45.86-8.9,1.3-13.35,2.06-20.98,4.12-41.95,6.17-62.93.64-6.54,1.24-13.09,1.88-19.85h-110.98Zm-63.73,106.58c-.03.49-.1.71-.06.91,4.32,18.43,8.67,36.86,12.94,55.3.79,3.4,2.83,4.7,6.17,4.68,11.72-.05,23.44,0,35.16-.03,4.78,0,6.4-1.35,7.51-6.07,1.93-8.18,3.85-16.36,5.76-24.54,2.34-10.03,4.67-20.06,7.04-30.25h-74.54Zm2.46,44.02c-.15-1.08-.19-1.71-.34-2.32-3.06-12.94-6.2-25.86-9.13-38.82-.52-2.32-1.34-3.05-3.74-3.04-25.89.09-51.78.05-77.67.06-.89,0-1.77.12-2.95.2.62,1.29,1.06,2.24,1.53,3.18,4.99,9.87,10.19,19.65,14.91,29.65,3.67,7.77,8.5,11.76,17.95,11.34,18.5-.82,37.07-.24,55.61-.24h3.83Zm79.05-44.03c-3.44,14.76-6.87,29.5-10.38,44.57h3.71c18.96,0,37.93-.08,56.89.04,6.85.04,11.54-2.88,14.51-8.95,5.37-10.99,10.81-21.95,16.21-32.92.4-.81.7-1.68,1.14-2.73h-82.08Zm-18.83-36.53h-47.14c-.98,9.83-1.94,19.5-2.91,29.17h53c-1-9.9-1.97-19.5-2.95-29.17Zm54.12-86.49c-20.24,0-40.48,0-60.72,0-1.17,0-2.62-.36-3.45.18-1.44.94-3.07,2.27-3.57,3.79-.7,2.12.64,3.93,2.9,4.58,1.1.32,2.31.37,3.47.37,40.91.02,81.81.02,122.72.01,4.76,0,7.16-1.61,7.03-4.62-.12-2.81-2.55-4.31-7.02-4.32-20.45,0-40.91,0-61.36,0Zm-160.11,0c-20.55,0-41.09,0-61.64,0-4.35,0-6.45,1.45-6.45,4.4,0,2.9,2.23,4.47,6.47,4.54.21,0,.43,0,.64,0,40.67,0,81.34,0,122.01-.01,1.16,0,2.36-.05,3.47-.33,2.28-.58,3.37-2.26,3.2-4.52-.17-2.25-1.47-3.74-3.83-4-1.05-.12-2.13-.09-3.19-.09-20.23,0-40.46,0-60.68,0Zm-50.57-7.7h108.29c-1.65-2.78-2.94-5.34-4.63-7.61-.74-1-2.28-1.98-3.46-1.99-30.65-.11-61.31-.1-91.96-.03-1.09,0-2.62.51-3.2,1.32-1.79,2.48-3.21,5.22-5.04,8.3Zm159.72-.05h108.28c-1.68-2.8-2.99-5.37-4.7-7.64-.74-.98-2.26-1.81-3.49-1.91-3.39-.26-6.81-.09-10.21-.09-26.94,0-53.87-.02-80.81.05-1.34,0-3.22.3-3.91,1.19-1.92,2.49-3.35,5.36-5.16,8.39ZM19.03,182.63c-.94-9.59-1.8-18.77-2.83-27.94-.07-.61-1.34-1.52-2.09-1.55-3.97-.19-6.61,1.9-8.16,5.42-1.75,3.98-3.4,8-5.1,11.99-2.48,5.82.61,11.37,6.98,12.01,3.55.36,7.17.06,11.19.06Zm266.39.07c2.21,0,4,.03,5.78,0,6.53-.11,10.39-5.4,8.17-11.54-1.62-4.49-3.6-8.86-5.61-13.19-.98-2.11-2.5-3.88-5.39-4.12-.98,9.56-1.94,18.94-2.95,28.86Z" fill="#fff"/>
      <path d="m118.52,182.05H26.96c-3.57-32.98-7.12-65.81-10.7-98.85h111.86c-3.21,33-6.39,65.79-9.61,98.85Z" fill="#fff"/>
      <path d="m176.84,83.2h110.98c-.64,6.76-1.24,13.31-1.88,19.85-2.05,20.98-4.11,41.95-6.17,62.93-.44,4.45-.87,8.9-1.3,13.35-.17,1.72-.49,2.91-2.81,2.9-29.19-.08-58.38-.06-87.57-.07-.51,0-1.02-.14-1.65-.24-3.2-32.91-6.39-65.72-9.6-98.73Z" fill="#fff"/>
      <path d="m113.11,189.79h74.54c-2.37,10.19-4.7,20.22-7.04,30.25-1.91,8.18-3.83,16.36-5.76,24.54-1.11,4.72-2.73,6.06-7.51,6.07-11.72.02-23.44-.03-35.16.03-3.35.02-5.38-1.28-6.17-4.68-4.27-18.44-8.63-36.87-12.94-55.3-.05-.2.02-.42.06-.91Z" fill="#fff"/>
      <path d="m115.58,233.81h-3.83c-18.54,0-37.1-.58-55.61.24-9.45.42-14.29-3.57-17.95-11.34-4.72-10-9.92-19.77-14.91-29.65-.47-.93-.91-1.88-1.53-3.18,1.17-.08,2.06-.2,2.95-.2,25.89,0,51.78.03,77.67-.06,2.39,0,3.21.72,3.74,3.04,2.93,12.97,6.07,25.89,9.13,38.82.14.61.18,1.25.34,2.32Z" fill="#fff"/>
      <path d="m194.63,189.78h82.08c-.44,1.06-.74,1.92-1.14,2.73-5.4,10.98-10.84,21.93-16.21,32.92-2.97,6.08-7.67,9-14.51,8.95-18.96-.12-37.93-.04-56.89-.04h-3.71c3.51-15.07,6.95-29.81,10.38-44.57Z" fill="#fff"/>
      <path d="m175.8,153.25c.98,9.66,1.95,19.27,2.95,29.17h-53c.96-9.67,1.93-19.34,2.91-29.17h47.14Z" fill="#fff"/>
      <path d="m229.92,66.76c20.45,0,40.91,0,61.36,0,4.47,0,6.9,1.51,7.02,4.32.13,3.01-2.28,4.62-7.03,4.62-40.91,0-81.81,0-122.72-.01-1.16,0-2.37-.06-3.47-.37-2.26-.65-3.6-2.46-2.9-4.58.5-1.51,2.13-2.85,3.57-3.79.83-.55,2.28-.18,3.45-.18,20.24,0,40.48,0,60.72,0Z" fill="#fff"/>
      <path d="m69.81,66.76c20.23,0,40.46,0,60.68,0,1.06,0,2.14-.03,3.19.09,2.36.26,3.66,1.75,3.83,4,.17,2.26-.92,3.94-3.2,4.52-1.12.28-2.31.33-3.47.33-40.67.02-81.34.01-122.01.01-.21,0-.43,0-.64,0-4.24-.07-6.47-1.64-6.47-4.54,0-2.95,2.1-4.4,6.45-4.4,20.55,0,41.09,0,61.64,0Z" fill="#fff"/>
      <path d="m19.24,59.06c1.83-3.09,3.25-5.82,5.04-8.3.58-.81,2.11-1.32,3.2-1.32,30.65-.07,61.31-.08,91.96.03,1.18,0,2.72.99,3.46,1.99,1.69,2.27,2.98,4.83,4.63,7.61H19.24Z" fill="#fff"/>
      <path d="m178.96,59.01c1.81-3.03,3.24-5.9,5.16-8.39.69-.89,2.57-1.19,3.91-1.19,26.94-.07,53.87-.05,80.81-.05,3.41,0,6.83-.17,10.21.09,1.23.09,2.75.92,3.49,1.91,1.71,2.27,3.01,4.84,4.7,7.64h-108.28Z" fill="#fff"/>
      <path d="m19.03,182.63c-4.02,0-7.64.3-11.19-.06-6.37-.65-9.46-6.2-6.98-12.01,1.7-4,3.35-8.02,5.1-11.99,1.55-3.51,4.19-5.61,8.16-5.42.75.04,2.02.94,2.09,1.55,1.02,9.17,1.89,18.35,2.83,27.94Z" fill="#fff"/>
      <path d="m285.42,182.7c1.01-9.91,1.97-19.29,2.95-28.86,2.89.25,4.41,2.01,5.39,4.12,2.01,4.33,3.99,8.7,5.61,13.19,2.22,6.14-1.64,11.43-8.17,11.54-1.78.03-3.57,0-5.78,0Z" fill="#fff"/>
      <rect width="300" height="300" fill="none"/>
    </g>
  </g>
</svg>