<?xml version="1.0" encoding="UTF-8"?>
<svg id="_레이어_2" data-name="레이어 2" xmlns="http://www.w3.org/2000/svg" viewBox="0 0 300 300">
  <g id="_레이어_1-2" data-name="레이어 1">
    <g>
      <path d="m151.87,83.12c17.13,18.98,34.14,37.83,51.57,57.14-6.85,9-13.46,18.15-20.55,26.91-34.88,43.12-78.01,76.14-126.3,102.82-1.7.94-2.57.67-3.8-.72-12.1-13.67-24.31-27.23-36.4-40.9-7.3-8.25-6.51-18.72,1.94-26.26,30.95-27.64,61.94-55.25,92.92-82.87,12.65-11.28,25.3-22.56,37.95-33.84.8-.71,1.63-1.39,2.67-2.28ZM54.05,232.89c8.68-.05,15.41-6.94,15.3-15.64-.11-8.51-7.15-15.46-15.68-15.49-8.56-.02-15.55,7-15.5,15.55.05,8.64,7.18,15.63,15.88,15.57Z" fill="#fff"/>
      <path d="m198.98,119.64c-13.26-14.67-26.22-28.99-39.38-43.54,5.51-4.93,10.83-9.7,16.16-14.46,19.78-17.64,39.56-35.3,59.37-52.92,11.66-10.38,28.08-11.54,40.28-2.92,11.87,8.39,16.52,25.18,10.65,39.08-5.01,11.87-14.57,17.26-26.98,17.47-7.2.12-12.99,2.78-18.42,7.06-8.54,6.74-15.24,15.07-21.34,24.01-4.9,7.16-10.14,14.09-15.35,21.04-1.35,1.8-3.13,3.28-4.99,5.18Zm64.68-89.39c.1-3.36-2.7-6.23-6.12-6.29-3.37-.06-6.06,2.44-6.21,5.76-.15,3.44,2.46,6.32,5.89,6.48,3.4.16,6.33-2.55,6.43-5.95Z" fill="#fff"/>
      <path d="m210.33,148.05c4.31,4.83,8.35,9.23,12.26,13.75,6.97,8.06,6.39,18.43-1.52,25.57-11.29,10.2-22.68,20.29-34.04,30.42-28.47,25.39-56.96,50.76-85.39,76.2-5.09,4.55-10.68,7.25-17.52,5.34-2.74-.76-5.69-2.05-7.66-3.99-5.09-5.01-9.7-10.52-14.76-16.11,59.08-33,110.13-74.67,148.62-131.18Z" fill="#fff"/>
      <path d="m53.73,212.16c2.79.02,5.17,2.39,5.2,5.2.04,2.93-2.17,5.14-5.12,5.12-2.88-.01-5.2-2.27-5.24-5.11-.04-2.8,2.36-5.22,5.16-5.21Z" fill="#fff"/>
      <rect width="300" height="300" fill="none"/>
    </g>
  </g>
</svg>