<?xml version="1.0" encoding="UTF-8"?>
<svg id="_레이어_2" data-name="레이어 2" xmlns="http://www.w3.org/2000/svg" viewBox="0 0 300 300">
  <g id="_레이어_1-2" data-name="레이어 1">
    <g>
      <path d="m25.01,207.23c.52-19.62-1.87-39.22,3.84-58.22,12.85-42.78,41.19-69.33,84.73-79.22,8.43-1.91,17.29-1.97,26.41-2.93,0-2.46-.02-5.44,0-8.42.05-6.37,4.17-10.85,9.98-10.85,5.78,0,9.94,4.5,10,10.85.02,2.9,0,5.8,0,8.89,4.91.24,9.66.33,14.39.73,50.35,4.32,90.89,41.87,99.12,91.9.82,5.01,1.23,10.13,1.33,15.22.2,10.6.06,21.21.06,32.04H25.01Zm239.79-24.89c-.2-64.57-56.28-106.92-104.65-104.28v9.42c26.02.59,48.48,9.58,66.85,27.93,18.44,18.41,27.4,40.99,28.02,66.94h9.78Z" fill="#fff"/>
      <path d="m15.07,202.05c0,2.29-.05,3.91,0,5.54.2,5.47,4.29,9.59,9.74,9.84,1.04.05,2.08.02,3.12.02,81.19,0,162.38,0,243.57,0,10.17,0,13.26-3.03,13.38-13.1,0-.52,0-1.03,0-2.17,5.78,3,11.17,5.78,14.11,11.55,1.68,3.3,1.19,6.77-1.23,9.32-2.75,2.9-5.86,5.67-9.31,7.64-11.22,6.43-23.65,9.58-36.16,12.27-25.5,5.49-51.37,7.83-77.4,8.9-24.37,1-48.7.6-73-1.37-25.33-2.05-50.53-5.05-74.76-13.17-6.73-2.26-13.41-5.26-19.4-9.05-10.37-6.58-10.23-14.53-.27-21.64,2.24-1.6,4.72-2.87,7.59-4.59Z" fill="#fff"/>
      <rect width="300" height="300" fill="none"/>
    </g>
  </g>
</svg>