<?xml version="1.0" encoding="UTF-8"?>
<svg id="_레이어_2" data-name="레이어 2" xmlns="http://www.w3.org/2000/svg" viewBox="0 0 300 300">
  <g id="_레이어_1-2" data-name="레이어 1">
    <g>
      <path d="m0,230.25c.27-.6.55-1.2.79-1.81,2.49-6.36,7.15-9.8,13.93-10.37.87-.07,1.76-.04,2.63-.04,88.36,0,176.71,0,265.07-.02,4.77,0,9.09.97,12.62,4.39,4.39,4.26,5.94,10.86,3.58,16.46-2.48,5.91-6.99,9.23-13.48,9.62-1.27.08-2.54.04-3.81.04-87.57,0-175.15,0-262.72,0-10.88,0-14.5-2.42-18.62-12.41,0-1.95,0-3.91,0-5.86Z" fill="#fff"/>
      <path d="m277.53,212.11h-3.3c-79.98,0-159.96-.01-239.94.06-2.44,0-3.84-.69-5.15-2.77-9.06-14.33-14.81-29.71-14.4-46.86.53-21.89,10.29-39.33,26.98-53.02,16.77-13.76,36.5-20.68,57.65-23.96,16.23-2.51,32.48-2.41,48.73-.09.34.05.67.12,1.1.2-3.04,2.87-6.19,5.36-8.76,8.34-16.41,19.01-17.15,47.08-1.51,68.23,12.79,17.29,29.97,26.4,51.76,25.79,23.42-.66,43.33-18.51,46.67-41.71.89-6.2,2.38-12.06,7.33-16.42,20.42,17.07,40.12,50.08,32.85,82.2Z" fill="#fff"/>
      <path d="m187.72,182.18c-28.95-.05-54.37-25.41-54.06-54.07.22-21.07,13.64-41.34,39.13-44.33,6.28-.74,12.05-3.08,16.39-7.68,16.67-17.63,45.6-10.19,56.36,11.36,6.59,13.21,4.74,29.12-5.95,39.08-5.23,4.87-7.01,11.49-8.07,18.39-3.4,22.13-21.29,37.28-43.8,37.24Z" fill="#fff"/>
      <path d="m24.68,254.62h250.34c-.59,1.84-1.01,3.5-1.65,5.07-5.9,14.62-19.95,24.45-35.77,24.48-58.3.1-116.59.12-174.89,0-17.16-.03-31.4-10.33-36.97-26.08-.35-1-.62-2.03-1.06-3.47Z" fill="#fff"/>
      <path d="m236.7,66.09c4.36-4.35,9.8-9.78,15.23-15.22,5.04-5.04,5.16-6.83.85-12.4-3.7-4.78-3.95-11.4-.62-16.42,3.35-5.05,9.54-7.39,15.36-5.82,5.95,1.61,10,6.51,10.42,12.66.03.39.03.78.03,1.17.13,5.57,2.06,7.51,7.63,7.64,9.57.22,16.17,8.44,13.97,17.38-2.52,10.24-14.57,14.25-22.72,7.56-4.71-3.87-7.04-3.78-11.29.47-5.65,5.65-11.29,11.31-15.98,16.01-4.27-4.31-8.41-8.49-12.89-13.01Z" fill="#fff"/>
      <rect width="300" height="300" fill="none"/>
    </g>
  </g>
</svg>