<?xml version="1.0" encoding="UTF-8"?>
<svg id="_레이어_2" data-name="레이어 2" xmlns="http://www.w3.org/2000/svg" viewBox="0 0 300 300">
  <g id="_레이어_1-2" data-name="레이어 1">
    <g>
      <path id="_패스_856" data-name="패스 856" d="m283.8,178.9c8.59.04,15.52,6.74,15.47,14.96-.04,8.22-7.04,14.85-15.63,14.81-8.59-.04-15.52-6.74-15.47-14.96,0-.02,0-.03,0-.05.24-8.13,7.13-14.64,15.63-14.76Zm5.35,14.94c.13-2.75-2.1-5.09-4.98-5.21-.1,0-.2,0-.3,0-2.93-.12-5.41,2.06-5.54,4.86,0,.15,0,.31,0,.46.07,2.86,2.55,5.12,5.53,5.05,2.93-.07,5.27-2.36,5.28-5.16h0Z" fill="#fff"/>
      <path id="_패스_857" data-name="패스 857" d="m44.62,111.46c7.03.03,12.7,5.51,12.67,12.24-.03,6.73-5.76,12.16-12.79,12.13-7.03-.03-12.7-5.51-12.67-12.24,0-.02,0-.04,0-.05.2-6.65,5.84-11.97,12.79-12.08Zm4.37,12.22c.1-2.25-1.72-4.16-4.08-4.26-.08,0-.16,0-.24,0-2.4-.1-4.43,1.68-4.53,3.98,0,.12,0,.25,0,.37.03,2.34,2.03,4.21,4.47,4.19s4.4-1.94,4.38-4.28h0Z" fill="#fff"/>
      <path id="_패스_858" data-name="패스 858" d="m248.04,112.59c-7.22-.99-9.09-4.22-5.99-10.58,3.01-5.77,4.03-12.31,2.93-18.67-2.29-11.97-9.66-20.14-22.22-23.53-12.5-3.37-23.92-.51-33.77,8.18-6.17,5.44-9.19,4.86-13.57-1.56-2.61-4-6.02-7.47-10.03-10.21-10.5-6.73-22.27-7.15-33.96-1.29-11.92,5.98-18.39,15.52-19.04,28.05-.38,7.27-1.33,8.1-9.25,9.66-3.45.63-6.8,1.7-9.96,3.18-16.75,8.16-23.73,26.33-16.24,41.78,2.62,5.4.93,8.79-5.33,10.72-3.75,1.15-7.51,2.27-11.26,3.42-8.84,2.72-17.98,4.77-26.44,8.34-15.51,6.54-25.32,18.2-30.31,33.1-3.75,10.56-3.43,22.05.91,32.4.89-.23,1.76-.53,2.61-.88,26.78-13.97,53.54-27.97,80.27-42.02,1.38-.94,2.29-2.38,2.51-3.99.51-5.82.59-11.65.88-17.48.43-8.63.9-17.26,1.38-26.19l12.99.07c-.58,13.22-1.14,25.91-1.74,39.28,8.57-4.48,16.17-8.63,23.95-12.42,2.85-1.06,4.72-3.71,4.68-6.63,1.2-19.56,2.64-39.11,4.01-58.66.13-1.88.42-3.76.66-5.88l12.77.36c-1.42,20.51-2.8,40.59-4.25,61.42,11.96-6.25,22.99-11.97,33.95-17.81.99-.7,1.74-1.67,2.15-2.78,3.06-6.66,6.02-13.36,9.03-20.04,3.1-6.89,6.23-13.77,9.52-21.04l11.78,4.31-12.35,28.01.78.66,23.59-12.33,6.18,10.89-24.66,12.88,32.6,5.43c-1.09,4.29-2.03,8.02-3.01,11.91-15.29-2.49-30.08-4.97-44.92-7.22-2.15-.28-4.34.06-6.3.97-8.4,4.15-16.65,8.59-24.96,12.93l-7.27,3.8c1.95,1.13,3.15,1.88,4.41,2.54,14.09,7.47,28.22,14.89,42.28,22.4,10.02,5.35,9.99,5.4,3.14,14.72-.27.25-.58.46-.91.64-.95-.46-2.04-.94-3.08-1.49-18.6-9.84-37.21-19.68-55.83-29.5-1.44-.76-3.69-1.81-4.8-1.27-8.88,4.33-17.57,9.01-27.12,14l35.38,19.87-7.01,10.39c-.94-.42-1.55-.65-2.11-.96-12.13-6.81-24.31-13.55-36.35-20.48-2.17-1.43-5.05-1.43-7.21.02-25.35,13.36-50.75,26.66-76.19,39.87l-4.67,2.44c.09.55.25,1.08.47,1.59,19.04,24.25,55.25,24.3,75.89,8.59,9.26-7.05,18.28-14.38,27.39-21.58,5.13-4.06,8.93-3.62,12.24,1.43,11.5,17.59,37.49,19.35,53.26,3.61,6.16-6.15,6.83-6.25,14.45-2.17,13.36,7.1,30.01,4.99,40.98-5.19,10.92-9.47,13.81-24.8,7.05-37.33-3.18-5.84-1.3-9.62,5.64-11.32,16.43-4.05,27.55-17.12,27.38-32.16-.18-15.12-11.5-26.9-28.01-29.16Zm-64.55-26.43l-.24-.42.36.09-.12.34Z" fill="#fff"/>
      <rect width="300" height="300" fill="none"/>
    </g>
  </g>
</svg>