<?xml version="1.0" encoding="UTF-8"?>
<svg id="_레이어_2" data-name="레이어 2" xmlns="http://www.w3.org/2000/svg" viewBox="0 0 300 300">
  <g id="_레이어_1-2" data-name="레이어 1">
    <g>
      <path id="_패스_644" data-name="패스 644" d="m14.68,72.5c4.86-7.24,10.29-14.08,16.25-20.45,6.03-6.32,12.49-12.2,19.34-17.61,19.72-15.66,42.94-26.32,67.68-31.07,42.11-8.45,81.64-.9,118.35,21.28,17.13,10.35,31.38,23.95,43.56,39.67,4.83,6.24,8.84,13.12,13.12,19.78,7.04,10.95-2.31,23.88-14.18,23.84-86.18-.23-172.35-.11-258.53-.14-12.19,0-19.29-11.35-13.8-22.15,2.11-3.73,4.42-7.35,6.9-10.85.44-.77.87-1.54,1.31-2.31Zm50.34-35.77c-14.83,9.74-27.83,22.03-38.37,36.3-4.83,6.58-9.2,13.74-10.8,21.74,7.02,2.82,14.8,2.86,22.36,2.86l236.15.07c4.74,0,11.34-1.76,9.85-7.57-1.22-4.74-6.02-10.16-8.82-14.13-6.42-9.04-13.8-17.36-22.02-24.8-16.49-14.97-35.94-26.29-57.1-33.23-11.39-3.74-23.2-6.08-35.16-6.97-33.71-2.46-67.94,7.13-96.1,25.73Z" fill="#fff"/>
      <path id="_패스_645" data-name="패스 645" d="m150.1,249.16c34.09,0,68.17.04,102.26-.04,5.41-.01,9.96,1.15,12.35,6.85,2.47,5.91-.3,10.14-4.2,13.91-12.56,12.21-28.27,20.66-45.38,24.42-30.87,7-62.16,6.38-93.41,4.35-13.77-.85-27.47-2.73-40.96-5.63-15.62-3.4-29.37-11.46-41.23-22.88-4.02-3.87-6.54-8.24-4.44-13.93,2.11-5.69,6.79-7.11,12.23-7.1,34.26.06,68.52.07,102.78.03l-.02.03Zm-103.62,10.89l-.37,1.44c.98.96,1.91,1.98,2.95,2.86,2.15,1.82,4.3,3.65,6.57,5.31,19.09,14.03,41.11,17.89,63.54,18.48,24.35.64,48.76.08,73.11-1.02,17.97-.81,35.19-5.67,50.44-16.33,4.05-2.83,7.67-6.36,11.48-9.56l-.65-1.18H46.49Z" fill="#fff"/>
      <path id="_패스_646" data-name="패스 646" d="m120,197.67c-.33,3.76-1.3,7.43-2.86,10.87-1.9,3.77-5.27,6.6-9.32,7.82-5.99,1.48-12.32-.2-16.79-4.46-3.64-3.81-5.57-8.94-5.36-14.2h-4.87s.1,26.39.1,26.39c.01,3.36,0,6.83-1.62,9.93-2.37,4.52-8.3,7.69-14.42,7.7-6.12,0-12.06-3.14-14.45-7.66-1.65-3.11-1.66-6.6-1.65-9.99l.08-26.58-18.07-.17c-2.19-.02-4.65-.14-6.1-1.45-2.02-1.84-.61-4.97,2-6.24s5.86-1.24,8.91-1.15l11.83.33c2.33-.08,4.66.27,6.87,1.03,5.03,2.13,5.64,7.62,5.6,12.19l-.22,23.75c-.03,2.95.86,6.81,4.5,7.21,2.09.16,4.08-.9,5.12-2.72.74-1.62,1.04-3.41.86-5.19l-.32-23.18c-.06-3.95.18-8.46,3.92-11.04,2.58-1.78,6.22-2.15,9.62-2.18,4.67-.05,10.03.72,12.41,3.94,1.9,2.56,1.24,5.78,1.62,8.74s2.95,6.37,6.62,5.94c3.17-.37,4.71-3.38,4.81-5.95s-.6-5.27.66-7.64c2.34-4.37,9.59-5.03,15.53-5.03l94.97.02c5.74,0,12.7.59,15.14,4.75,1.43,2.43.73,5.27.9,7.95.18,2.68,2.03,5.81,5.37,5.92,3.34.11,5.52-2.87,5.9-5.53.38-2.66-.23-5.47,1.09-7.93,2.62-4.89,10.78-5.54,17.41-5.45,2.92.04,6.21.1,8.52,1.73,1.71,1.2,2.74,3.18,1.24,4.79-1.62,1.73-5.15,2.24-7.64,2.57-3.11.42-6.27.37-9.37-.15.01,0-.36-.06-.36-.06,1.46,5.69-.54,11.72-5.13,15.4-4.86,3.92-13.1,5.18-18.95,2.24-6.89-3.45-8.46-10.82-9.36-17.3h-104.74Z" fill="#fff"/>
      <path id="_패스_647" data-name="패스 647" d="m254.78,154.46c-7.48-.05-13.38-3.37-18.16-8.88-2.67-3.08-5.04-6.42-7.87-9.34-5.34-5.52-12.08-5.56-17.51-.11-2.63,2.64-4.83,5.68-7.24,8.53-11.21,13.22-26.83,13.25-38.05.06-2.2-2.58-4.19-5.36-6.51-7.83-6.06-6.46-13.01-6.48-18.99-.04-2.77,2.98-5.15,6.32-7.88,9.34-9.92,11-24.8,11.17-34.95.34-2.9-3.09-5.32-6.62-8.21-9.73-5.93-6.39-13.14-6.33-19.02.12-2.63,2.88-4.87,6.11-7.48,9.01-10.24,11.41-25.26,11.38-35.74.21-4.6-4.9-9.78-9.28-14.2-14.33-1.31-1.5-1.94-5.07-1.03-6.6s4.87-2.94,6.19-2.17c4.27,2.68,8.26,5.78,11.91,9.25,2.12,1.9,3.59,4.52,5.57,6.61,6.03,6.4,12.91,6.34,18.93-.16,2.07-2.24,3.9-4.71,5.84-7.07,11.47-13.94,26.83-14.16,38.69-.51,2.34,2.69,4.41,5.62,6.87,8.19,5.5,5.73,12.4,5.79,17.89.07,3.17-3.3,5.81-7.1,8.96-10.42,9.83-10.38,23.78-10.57,33.85-.41,3.21,3.24,5.86,7.04,8.99,10.39,5.88,6.28,12.6,6.29,18.55.05,2.45-2.57,4.53-5.5,6.84-8.22,10.79-12.72,26.43-12.87,37.39-.33,2.23,2.56,4.23,5.31,6.48,7.86,6.22,7.01,13.28,7.11,19.63.24,2.99-3.24,5.52-6.94,8.72-9.94,2.51-2.5,5.52-4.44,8.83-5.71,1.64-.55,5.03,1.08,6.07,2.71.84,1.31.02,4.72-1.24,6.14-4.46,5.02-9.53,9.5-14.19,14.36-4.93,5.13-10.65,8.34-17.93,8.33Z" fill="#fff"/>
      <ellipse id="_타원_5" data-name="타원 5" cx="145.69" cy="27.64" rx="4.61" ry="4.6" fill="#fff"/>
      <ellipse id="_타원_12" data-name="타원 12" cx="114.71" cy="34.71" rx="4.61" ry="4.6" fill="#fff"/>
      <ellipse id="_타원_13" data-name="타원 13" cx="175.8" cy="61.2" rx="4.61" ry="4.6" fill="#fff"/>
      <ellipse id="_타원_14" data-name="타원 14" cx="171.19" cy="34.71" rx="4.61" ry="4.6" fill="#fff"/>
      <ellipse id="_타원_15" data-name="타원 15" cx="140.64" cy="56.61" rx="4.61" ry="4.6" fill="#fff"/>
      <rect width="300" height="300" fill="none"/>
    </g>
  </g>
</svg>