<?xml version="1.0" encoding="UTF-8"?>
<svg id="_레이어_2" data-name="레이어 2" xmlns="http://www.w3.org/2000/svg" viewBox="0 0 300 300">
  <g id="_레이어_1-2" data-name="레이어 1">
    <g id="_06음식_shape_06_0002" data-name=" 06음식 shape 06 0002">
      <path id="_패스_270" data-name="패스 270" d="m23.85,79.01c-2.2,4.11-4.21,8.33-6.01,12.67l30.4,6.88-24.39-19.55Z" fill="#fff"/>
      <path id="_패스_271" data-name="패스 271" d="m150.02,3.46c-49.42-.02-95.35,25.47-121.46,67.43l40.35,32.34,54.6,12.36-1.63,9-39.8-9.01,29.68,21.99-5.8,7.24-44.54-33.91-46.84-10.6c-8.07,23.75-9.78,49.21-4.98,73.83,9.24,7.21,19.8,12.55,31.08,15.71,22.66,6.38,59.96,7.18,108.92-25.26,36.13-23.95,74.71-22.98,100.72-17.95,14.55,2.85,28.7,7.45,42.13,13.72.44-4.54.67-9.14.67-13.8,0-79.03-64.06-143.09-143.09-143.09h0Z" fill="#fff"/>
      <path id="_패스_272" data-name="패스 272" d="m238.75,202.57c-22.56-3.69-56.49-2.73-90,22.79-30.21,23.01-56.99,28.16-74.89,28.16-.9,0-1.77-.01-2.62-.04-6.51-.17-12.97-1.04-19.29-2.62,6.71,6.31,14.01,11.97,21.79,16.88,14.01,3.1,39.42,3.29,69.27-21.46,32.42-26.88,65.67-29.84,87.85-27.6,12.65,1.28,25.04,4.49,36.73,9.52,3.05-4.38,5.85-8.93,8.39-13.62-11.74-5.83-24.29-9.88-37.23-12.01Z" fill="#fff"/>
      <path id="_패스_273" data-name="패스 273" d="m238.75,201.52c-22.56-3.69-56.49-2.73-90,22.79-30.21,23.01-56.99,28.16-74.89,28.16-.9,0-1.77-.01-2.62-.04-6.51-.17-12.97-1.04-19.29-2.62,6.71,6.31,14.01,11.97,21.79,16.89,14.01,3.1,39.42,3.29,69.27-21.46,32.42-26.88,65.67-29.84,87.85-27.6,12.65,1.28,25.04,4.49,36.73,9.51,3.05-4.38,5.85-8.93,8.39-13.62-11.74-5.83-24.29-9.88-37.23-12.01Z" fill="#fff"/>
      <path id="_패스_274" data-name="패스 274" d="m225.17,235c10.87.62,21.59,2.88,31.79,6.72,3.35-3.76,6.5-7.69,9.43-11.78-11.4-4.85-23.47-7.95-35.8-9.19-21.77-2.19-54.39.74-86.23,27.14-13.04,10.81-33.39,23.48-57.13,23.49-.69,0-1.39-.01-2.08-.03-2.24-.07-4.33-.26-6.29-.51,8.43,4.84,17.34,8.8,26.58,11.83,9.06-.8,24.46-4.86,42.92-20.69,28.35-24.32,57.42-28.08,76.81-26.97Z" fill="#fff"/>
      <path id="_패스_275" data-name="패스 275" d="m245.93,182.7c-23.68-4.33-59.89-4.03-97.89,22.01-19.39,13.29-47.76,27.85-78.97,27.85-5.2,0-10.39-.41-15.52-1.24-8.26-1.31-16.3-3.77-23.87-7.33,5.51,8.55,11.91,16.49,19.1,23.68,7.35,2.23,14.97,3.45,22.66,3.62,17.49.48,44.87-3.95,76.07-27.7,34.12-25.99,68.69-26.95,91.67-23.18,13.13,2.17,25.87,6.29,37.79,12.21,2.81-5.38,5.27-10.94,7.37-16.64-12.05-6.37-25-10.85-38.4-13.3Z" fill="#fff"/>
      <path id="_패스_276" data-name="패스 276" d="m166.1,288.53c19.82-2.21,38.95-8.56,56.15-18.65-10.79-.58-32.54,1.05-56.15,18.65Z" fill="#fff"/>
      <path id="_패스_277" data-name="패스 277" d="m225.3,268.35c5.7-3.54,11.15-7.47,16.31-11.77-13.96-3.33-53.47-8.66-88.58,25.21-3.66,3.26-7.87,5.85-12.43,7.63,3.11.2,6.25.32,9.42.32,4.09,0,8.14-.18,12.14-.52,27.45-21.75,53.02-21.91,63.14-20.88Z" fill="#fff"/>
      <path id="_패스_278" data-name="패스 278" d="m248.02,166.08c-24.94-4.45-62.1-4.67-97.55,19.51-21.39,14.59-51.4,29.94-82.96,29.94-8.18.02-16.33-1.06-24.22-3.23-9.31-2.55-18.1-6.68-26.01-12.22,2.86,7.08,6.28,13.92,10.23,20.46,8.29,4.35,17.24,7.31,26.49,8.75,36.5,5.86,70.64-11.06,92.86-26.29,38.62-26.47,75.44-26.75,99.52-22.33,13.48,2.47,26.51,6.97,38.65,13.34,1.7-4.84,3.14-9.77,4.31-14.76-13.15-6.17-27.04-10.6-41.33-13.17Z" fill="#fff"/>
      <path id="_패스_279" data-name="패스 279" d="m224.96,237.08c-18.99-1.08-47.45,2.63-75.25,26.47-16.08,13.8-29.81,18.91-39.33,20.63,8.29,2.38,16.78,4.01,25.37,4.86,4.83-1.68,11.52-4.57,15.84-8.74,23.13-22.31,47.98-27.7,64.75-28.3,9.18-.36,18.37.62,27.27,2.9,4.17-3.61,8.13-7.46,11.86-11.52-9.8-3.59-20.08-5.72-30.5-6.31Z" fill="#fff"/>
      <path id="_패스_280" data-name="패스 280" d="m249.85,148.66c-25.6-4.94-63.58-5.89-99.1,17.66-21.53,14.27-51.73,29.15-83.97,29.15-9.05.02-18.07-1.21-26.78-3.66-10.71-2.99-20.78-7.9-29.74-14.49,1.42,6.47,3.28,12.83,5.59,19.04,8.38,6.43,17.94,11.17,28.13,13.96,21.62,5.96,57.45,6.2,105.33-26.46,36.05-24.59,73.82-24.35,99.16-19.82,14.29,2.58,28.2,6.99,41.36,13.12,1.05-4.83,1.85-9.71,2.4-14.62-13.49-6.37-27.73-11.03-42.37-13.89Z" fill="#fff"/>
      <path id="_패스_281" data-name="패스 281" d="m249.85,148.66c-25.6-4.94-63.58-5.89-99.1,17.66-21.53,14.27-51.73,29.15-83.97,29.15-9.05.02-18.07-1.21-26.78-3.66-10.71-2.99-20.78-7.9-29.74-14.49,1.42,6.47,3.28,12.83,5.59,19.04,8.38,6.43,17.94,11.17,28.13,13.96,21.62,5.96,57.45,6.2,105.33-26.46,36.05-24.59,73.82-24.35,99.16-19.82,14.29,2.58,28.2,6.99,41.36,13.12,1.05-4.83,1.85-9.71,2.4-14.62-13.49-6.37-27.73-11.03-42.37-13.89Z" fill="#fff"/>
      <line id="_선_3" data-name="선 3" x1="175.81" y1="295.7" x2="175.6" y2="295.59" fill="none"/>
      <rect id="_사각형_62" data-name="사각형 62" width="300" height="300" fill="none"/>
    </g>
  </g>
</svg>