<?xml version="1.0" encoding="UTF-8"?>
<svg id="_레이어_2" data-name="레이어 2" xmlns="http://www.w3.org/2000/svg" viewBox="0 0 300 300">
  <g id="_레이어_1-2" data-name="레이어 1">
    <g id="_01기본_shape_01_0024" data-name=" 01기본 shape 01 0024">
      <rect id="_사각형_17" data-name="사각형 17" width="299.99" height="300" fill="none"/>
      <path id="_패스_198" data-name="패스 198" d="M201.07,51.08c-29.59-.03-57.63,13.22-76.4,36.09,35.15,10.66,55,47.79,44.34,82.93-6.33,20.87-22.49,37.31-43.24,44,35.41,41.6,97.83,46.61,139.43,11.2,41.59-35.41,46.61-97.83,11.2-139.43-18.79-22.08-46.33-34.8-75.32-34.8h0Z" fill="#fff"/>
      <path id="_패스_199" data-name="패스 199" d="M104.01,206.4c-29.39-48.87-16.32-112.13,30.03-145.35l-78.22,22.64C24.32,90.81,0,116.74,0,150c0,35.97,34.05,59.19,63.71,67.22l67.26,19.46c-10.79-8.33-19.94-18.6-26.97-30.28Z" fill="#fff"/>
    </g>
  </g>
</svg>