<?xml version="1.0" encoding="UTF-8"?>
<svg id="_레이어_2" data-name="레이어 2" xmlns="http://www.w3.org/2000/svg" viewBox="0 0 300 300">
  <g id="_레이어_1-2" data-name="레이어 1">
    <g id="_01기본_shape_01_0021" data-name=" 01기본 shape 01 0021">
      <rect id="_사각형_2734" data-name="사각형 2734" width="300" height="300" fill="none"/>
      <path id="circles" d="M63.38,113.77c23.97-8.24,50.32-5.84,72.41,6.59,2.42,1.34,3.29,4.38,1.95,6.8-.23,.42-.52,.8-.86,1.14-13.39,13.06-22.92,29.56-27.54,47.68-.69,2.67-3.42,4.28-6.1,3.58-.5-.13-.97-.33-1.4-.61-21.43-13.29-36.52-34.74-41.8-59.39-.52-2.49,.91-4.98,3.33-5.79h0Zm40.27,77.71c-25.94-13.43-44.97-37.22-52.37-65.47-.7-2.67-3.44-4.26-6.11-3.56-.49,.13-.95,.33-1.38,.6C18.09,139.07,0,167.38,0,200.87c0,68.15,75.07,115,135.3,79.91,2.39-1.38,3.21-4.44,1.83-6.83-.22-.37-.48-.72-.78-1.02-20.42-20.18-31.32-48.08-30-76.76,.09-1.96-.97-3.79-2.71-4.69h0Zm17.86-3.31c18.52,6.09,38.49,6.11,57.02,.05,2.41-.79,3.85-3.25,3.37-5.73-3.86-19.22-13.89-36.65-28.57-49.65-1.92-1.72-4.82-1.71-6.73,.02-14.51,13.06-24.49,30.41-28.47,49.52-.51,2.51,.94,5,3.37,5.79h0Zm41.58-59.94c13.51,13,23.08,29.55,27.62,47.75,.65,2.68,3.34,4.32,6.02,3.67,.5-.12,.99-.32,1.43-.59,21.56-13.32,36.74-34.86,42.03-59.65,.52-2.49-.91-4.98-3.32-5.79-24.1-7.99-50.44-5.58-72.68,6.66-2.42,1.33-3.3,4.38-1.96,6.79,.23,.42,.53,.81,.87,1.15h0Zm-10.41-12.68c24.52-16.07,54.8-20.71,83.01-12.73,2.66,.75,5.42-.81,6.16-3.46,.14-.49,.2-1,.18-1.5-1.62-49.21-42.62-88.84-92.05-88.84-49.39,.06-90.29,39.8-91.82,89-.08,2.76,2.08,5.06,4.84,5.15,.51,.02,1.03-.05,1.52-.19,28.74-8.32,58.36-3.22,82.66,12.59,1.67,1.09,3.82,1.08,5.48,0h0Zm96.29,10.3c-7.44,28.5-26.68,52.46-52.9,65.88-1.72,.88-2.78,2.66-2.73,4.59,.66,27.59-10.28,55.44-31.54,76.56-1.94,1.96-1.93,5.13,.03,7.07,.31,.31,.66,.57,1.04,.79,60.63,34.74,137.13-9.39,137.13-79.86-.09-31.77-16.54-61.25-43.53-78-2.34-1.47-5.43-.76-6.89,1.58-.27,.43-.47,.9-.6,1.39h0Zm-72.06,73.31c-17.79,4.86-36.56,4.79-54.31-.19-2.66-.73-5.41,.84-6.14,3.51-.13,.49-.19,1-.17,1.5,.84,24.4,11.4,47.46,29.35,64.02,1.92,1.79,4.9,1.79,6.83,0,18.66-17.39,29.26-40.35,30.73-63.69,.18-2.75-1.91-5.13-4.67-5.3-.54-.03-1.09,.02-1.62,.16Z" fill="#fff"/>
    </g>
  </g>
</svg>