<?xml version="1.0" encoding="UTF-8"?>
<svg id="_레이어_2" data-name="레이어 2" xmlns="http://www.w3.org/2000/svg" viewBox="0 0 300 300">
  <g id="_레이어_1-2" data-name="레이어 1">
    <g id="_01기본_shape_01_0022" data-name=" 01기본 shape 01 0022">
      <rect id="_사각형_2733" data-name="사각형 2733" x=".02" width="299.98" height="300" fill="none"/>
      <path id="circles" d="M237.08,113.68c-.24-.1-.48-.18-.74-.24-20.86-6.73-43.44-5.79-63.67,2.65-2.55,1.05-3.77,3.98-2.71,6.53,1.05,2.55,3.98,3.77,6.53,2.71,.02,0,.03-.01,.05-.02,16.68-6.96,35.19-8.21,52.65-3.57-6.64,24.98-24.66,45.37-48.62,55.05-13.22-48.53-62.97-77.43-111.68-64.88-6.14-44.8,25.21-86.1,70.01-92.23,44.8-6.14,86.09,25.21,92.23,70.01,.37,2.74,2.89,4.65,5.63,4.28,2.74-.37,4.65-2.89,4.28-5.63h0c-6.27-45.47-45.13-79.34-91.02-79.35-55.95,0-99.46,50.02-90.78,106.01C11.81,133.05-12.01,186.11,6.03,233.54c18.04,47.43,71.1,71.25,118.52,53.21,9.23-3.51,17.84-8.49,25.49-14.75,39.29,32.09,97.15,26.26,129.24-13.03,32.09-39.29,26.26-97.16-13.03-129.25-8.67-7.08-18.55-12.51-29.17-16.04h0Zm-66.02,66.3c-13.78,3.68-28.29,3.69-42.08,.03,3.67-13.88,10.91-26.55,21-36.76,10.15,10.17,17.42,22.84,21.08,36.74h0Zm-28.56-43.38c-10.98,11.23-18.9,25.09-23.02,40.24-23.97-9.69-41.99-30.1-48.64-55.09,24.89-6.62,51.45-1.12,71.66,14.85ZM10.02,200.88c.04-33.41,20.34-63.46,51.32-75.96,7.76,28.36,28.57,51.32,56.02,61.83-4.49,28.62,4.84,57.68,25.15,78.35-35.41,28.02-86.83,22.03-114.85-13.38-11.45-14.47-17.67-32.39-17.64-50.84Zm198.11,81.88c-18.38,.02-36.22-6.18-50.63-17.58,13.74-14,22.63-32.04,25.37-51.47,.46-2.72-1.38-5.3-4.11-5.76-2.72-.46-5.3,1.38-5.76,4.11-.01,.09-.03,.18-.04,.27-2.46,17.46-10.53,33.65-22.99,46.12-17.93-18.04-26.42-43.41-22.96-68.61,48.71,12.56,98.47-16.37,111.68-64.91,41.94,16.88,62.26,64.57,45.38,106.52-12.47,31-42.54,51.31-75.95,51.31Z" fill="#fff"/>
    </g>
  </g>
</svg>