<?xml version="1.0" encoding="UTF-8"?>
<svg id="_레이어_2" data-name="레이어 2" xmlns="http://www.w3.org/2000/svg" viewBox="0 0 300 300">
  <g id="_레이어_1-2" data-name="레이어 1">
    <g id="_01기본_shape_01_0015" data-name=" 01기본 shape 01 0015">
      <rect id="_사각형_2724" data-name="사각형 2724" width="300" height="300" fill="none"/>
      <path id="_패스_295" data-name="패스 295" d="M233.16,293.01l-83.16-52.04-83.16,52.04c-4.11,2.57-9.53,1.33-12.11-2.79-1.27-2.02-1.65-4.48-1.08-6.79l23.79-95.18L3.15,125.25c-3.72-3.12-4.21-8.67-1.09-12.39,1.53-1.83,3.74-2.95,6.12-3.12l96.98-6.77L141.85,11.98c2.7-6.64,13.61-6.64,16.31,0l36.68,90.99,96.98,6.77c4.84,.34,8.5,4.54,8.16,9.39-.17,2.38-1.29,4.59-3.12,6.12l-74.3,63,23.79,95.18c1.18,4.71-1.69,9.48-6.4,10.65-2.31,.58-4.76,.19-6.79-1.08h0Z" fill="#fff"/>
    </g>
  </g>
</svg>