<?xml version="1.0" encoding="UTF-8"?>
<svg id="_레이어_2" data-name="레이어 2" xmlns="http://www.w3.org/2000/svg" viewBox="0 0 300 300">
  <g id="_레이어_1-2" data-name="레이어 1">
    <g id="_01기본_shape_01_0016" data-name=" 01기본 shape 01 0016">
      <rect id="_사각형_2724" data-name="사각형 2724" width="300" height="300" fill="none"/>
      <g id="_패스_295" data-name="패스 295">
        <path d="M233.16,293.01l-83.16-52.04-83.16,52.04c-4.11,2.57-9.53,1.33-12.11-2.79-1.27-2.02-1.65-4.48-1.08-6.79l23.79-95.18L3.15,125.25c-3.72-3.12-4.21-8.67-1.09-12.39,1.53-1.83,3.74-2.95,6.12-3.12l96.98-6.77L141.85,11.98c2.7-6.64,13.61-6.64,16.31,0l36.68,90.99,96.98,6.77c4.84,.34,8.5,4.54,8.16,9.39-.17,2.38-1.29,4.59-3.12,6.12l-74.3,63,23.79,95.18c1.18,4.71-1.69,9.48-6.4,10.65-2.31,.58-4.76,.19-6.79-1.08h0Z" fill="none"/>
        <path d="M64.09,282.94l85.91-53.76,85.91,53.76-24.57-98.29,76.82-65.13-100.26-7L150,18.5l-37.9,94.01-100.26,7,76.82,65.13-24.57,98.29m-1.89,11.42c-1.82,0-3.64-.57-5.18-1.69-2.9-2.1-4.23-5.76-3.36-9.24l23.79-95.18L3.14,125.25c-2.75-2.3-3.82-6.04-2.71-9.45,1.11-3.42,4.18-5.81,7.75-6.06l96.98-6.77L141.85,11.98c2.7-6.64,13.61-6.64,16.31,0l36.68,90.99,96.98,6.77c3.57,.25,6.64,2.64,7.75,6.06,1.11,3.41,.03,7.15-2.71,9.45l-74.3,63,23.79,95.18c.88,3.48-.45,7.13-3.36,9.24-2.97,2.16-6.85,2.2-9.83,.34h0s-83.16-52.04-83.16-52.04l-83.16,52.04c-1.42,.9-3.03,1.34-4.64,1.34Z" fill="#fff"/>
      </g>
    </g>
  </g>
</svg>