<?xml version="1.0" encoding="UTF-8"?>
<svg id="_레이어_2" data-name="레이어 2" xmlns="http://www.w3.org/2000/svg" viewBox="0 0 300 300">
  <g id="_레이어_1-2" data-name="레이어 1">
    <g id="_01기본_shape_01_0012" data-name=" 01기본 shape 01 0012">
      <rect id="_사각형_2727" data-name="사각형 2727" x="4.95" y="2.15" width="290.02" height="294.92" fill="none"/>
      <path d="M18.65,300c-5.34,0-10-3.46-11.54-8.88C-7.27,240.55,.38,184.14,28.09,136.35,56.55,87.3,103.42,51.67,157.15,38.1V12.78h.74c.47-1.62,1.17-3.16,2.09-4.6,2.55-4.01,6.49-6.78,11.08-7.78,4.6-1,9.3-.13,13.25,2.47l107.66,70.81c2.1,1.38,3.86,3.17,5.22,5.31,5.27,8.29,2.93,19.39-5.22,24.74l-107.66,70.81c-2.85,1.88-6.16,2.87-9.56,2.87h0c-4.7,0-9.12-1.86-12.44-5.24-3.32-3.38-5.15-7.87-5.15-12.65v-18.52c-41.75,4.4-75.45,20.69-97.72,47.28-21.72,25.94-31.56,59.91-28.46,98.24,.53,6.51-3.67,12.09-9.98,13.26-.79,.15-1.57,.22-2.34,.22ZM167.22,23.02v23.22l-3.92,.91c-52.68,12.17-98.8,46.59-126.54,94.41C10.45,186.93,3.17,240.4,16.79,288.28c.42,1.47,1.53,1.59,2.38,1.43,.88-.16,1.9-.71,1.77-2.35-3.27-40.51,7.68-78.06,30.83-105.71,25-29.85,63.04-47.61,110.03-51.35l5.43-.43v29.66c0,2.05,.78,3.97,2.2,5.41s3.31,2.24,5.32,2.24h0c1.45,0,2.87-.43,4.09-1.23l107.66-70.81c3.49-2.29,4.49-7.04,2.23-10.58-.58-.92-1.33-1.68-2.23-2.27L178.84,11.47c-1.69-1.11-3.7-1.49-5.67-1.06-1.97,.43-3.65,1.61-4.74,3.33-.79,1.24-1.21,2.68-1.21,4.16v5.12Z" fill="#fff"/>
    </g>
  </g>
</svg>