<?xml version="1.0" encoding="UTF-8"?>
<svg id="_레이어_2" data-name="레이어 2" xmlns="http://www.w3.org/2000/svg" viewBox="0 0 300 300">
  <g id="_레이어_1-2" data-name="레이어 1">
    <g id="_01기본_shape_01_0018" data-name=" 01기본 shape 01 0018">
      <rect id="_사각형_2725" data-name="사각형 2725" width="299.67" height="300" fill="none"/>
      <g id="_패스_294" data-name="패스 294">
        <path d="M36.48,281c-5.58,.02-11.13-.9-16.41-2.72l-11.86-4.11,9.11-8.63c9.62-8.9,15.15-21.37,15.3-34.48C11.78,207.94,.33,179.09,.33,149.5,.33,76.99,67.55,18,150.16,18s149.84,58.99,149.84,131.5-67.22,131.5-149.84,131.5c-24.34,.05-48.4-5.23-70.49-15.46-8.15,5.77-24.62,15.47-43.19,15.47Z" fill="none"/>
        <path d="M36.48,271c15.81,0,30.22-8.54,37.41-13.63l4.75-3.36,5.27,2.47c20.28,9.5,43.19,14.52,66.25,14.52,77.11,0,139.84-54.5,139.84-121.49S227.27,28,150.16,28,10.33,82.51,10.33,149.5c0,27.02,10.55,53.61,29.72,74.87l2.65,2.94-.08,3.96c-.21,10.44-3.16,25.31-15.56,38.65,3.04,.72,6.19,1.08,9.42,1.08m0,10c-5.69,0-11.21-.91-16.41-2.72l-11.86-4.11,9.11-8.63c12.06-11.42,15.1-24.6,15.3-34.48C11.78,207.94,.33,179.09,.33,149.5,.33,76.99,67.55,18,150.16,18s149.84,58.99,149.84,131.5-67.22,131.49-149.84,131.49c-24.6,0-48.86-5.33-70.49-15.46-8.15,5.77-24.62,15.47-43.19,15.47Z" fill="#fff"/>
      </g>
    </g>
  </g>
</svg>