<?xml version="1.0" encoding="UTF-8"?>
<svg id="_레이어_2" data-name="레이어 2" xmlns="http://www.w3.org/2000/svg" viewBox="0 0 300 300">
  <g id="_레이어_1-2" data-name="레이어 1">
    <g id="_01기본_shape_01_0014" data-name=" 01기본 shape 01 0014">
      <rect id="_사각형_2723" data-name="사각형 2723" width="300" height="300" fill="none"/>
      <g id="_패스_293" data-name="패스 293">
        <path d="M74.07,12.71c-12.37,1.16-22.01,4-31.89,9.43-6.43,3.51-12.31,7.96-17.43,13.21-5.33,5.18-9.86,11.13-13.43,17.65C5.24,63.89,1.98,76.14,1.82,88.62c-.7,27.99,8.44,52.79,28.11,76.3,9.96,11.91,19,20.66,44.26,42.91,20.64,18.15,26.37,23.41,36.26,33.15,13.28,12.9,25.44,26.89,36.38,41.83,1.49,2.05,2.85,3.91,2.96,4.1,.19,.31,.24,.31,.43,0,.12-.19,1.37-2.05,2.8-4.1,12.22-17.34,26.11-33.43,41.46-48.07,9.52-9.18,15.55-14.68,35.68-32.57,11.31-10.05,17.09-15.4,23.84-22.06,24.66-24.3,37.12-44.41,42.07-67.86,2.55-12.13,2.87-25.65,.87-36.38-2.42-12.52-7.85-24.26-15.84-34.21-3.69-4.32-7.71-8.34-12.03-12.03-11.15-8.91-24.52-14.6-38.67-16.46-5.41-.56-10.85-.69-16.27-.39-9.79,.75-19.33,3.42-28.08,7.86-7.62,3.7-14.55,8.67-20.49,14.7-3.71,3.65-7.03,7.69-9.88,12.05-2.22,3.33-5.42,8.92-5.42,9.47,0,.17-.1,.29-.24,.29-.15-.02-.25-.14-.24-.29,0-.55-3.21-6.15-5.42-9.47-2.86-4.36-6.17-8.4-9.88-12.05-5.94-6.03-12.87-11.01-20.49-14.7-8.65-4.38-18.06-7.04-27.72-7.83-2.41-.22-10.11-.27-12.18-.1Z" fill="none"/>
        <path d="M78.66,22.6c-1.62,0-3.08,.01-3.66,.06-10.99,1.03-19.37,3.49-28.02,8.24-5.69,3.12-10.08,6.46-15.18,11.53-5.06,5.04-8.57,9.64-11.72,15.37-5.37,9.79-8,19.66-8.27,31.07-.64,25.72,7.55,47.85,25.78,69.63,9.51,11.37,18.39,19.97,43.19,41.82,20.71,18.21,26.53,23.54,36.68,33.54,12.63,12.46,22.84,23.89,32.34,36.25,10.55-14.26,23.21-28.54,37.73-42.57,9.59-9.25,15.64-14.77,35.98-32.84,11.17-9.93,16.87-15.21,23.47-21.71,23.37-23.02,34.75-41.22,39.3-62.8,2.29-10.85,2.59-22.99,.82-32.47-2.01-10.72-6.79-21.02-13.83-29.82-1.96-2.46-8-8.51-10.44-10.44-9.77-7.78-21.15-12.62-33.85-14.39-1.54-.22-5.46-.45-9.71-.45-1.68,0-3.21,.03-4.22,.12-9.46,.88-16.36,2.81-24.61,6.88-6.77,3.32-12.43,7.39-17.83,12.8-3.51,3.51-5.93,6.46-8.63,10.53-1.7,2.55-3.76,6.14-4.35,7.32-1.44,3.95-5.29,6.9-9.64,6.9s-8.19-2.95-9.64-6.9c-.59-1.18-2.65-4.77-4.36-7.33-2.7-4.06-5.12-7.01-8.64-10.53-5.38-5.4-11.04-9.46-17.82-12.79-8.16-4.02-15.19-6-24.2-6.85-1.26-.11-4.15-.16-6.69-.16m0-10c2.87,0,6.15,.07,7.58,.2,10.29,.96,18.51,3.3,27.72,7.83,7.81,3.83,14.32,8.51,20.49,14.71,3.95,3.95,6.77,7.38,9.88,12.05,2.22,3.33,5.42,8.92,5.42,9.47,0,.17,.12,.29,.24,.29,.14,0,.24-.12,.24-.29,0-.55,3.21-6.15,5.42-9.47,3.11-4.68,5.93-8.1,9.88-12.05,6.17-6.2,12.68-10.87,20.49-14.71,9.33-4.6,17.48-6.87,28.08-7.86,3.71-.34,12.56-.15,16.27,.39,14.51,2.02,27.43,7.52,38.67,16.47,3.04,2.41,9.57,8.94,12.03,12.03,8,10,13.52,21.89,15.84,34.21,2,10.73,1.69,24.25-.87,36.38-4.94,23.46-17.41,43.56-42.07,67.86-6.75,6.65-12.54,12-23.84,22.06-20.13,17.89-26.16,23.38-35.68,32.57-16.27,15.72-30.37,32.04-41.46,48.07-1.42,2.05-2.68,3.91-2.8,4.1-.19,.31-.24,.31-.43,0-.12-.19-1.47-2.05-2.97-4.1-10.63-14.58-21.86-27.51-36.38-41.83-9.88-9.74-15.62-14.99-36.26-33.15-25.26-22.25-34.3-31-44.26-42.91C10.26,141.41,1.12,116.61,1.82,88.62c.31-13.09,3.35-24.42,9.5-35.63,3.62-6.58,7.69-11.93,13.43-17.65,5.69-5.67,10.87-9.62,17.43-13.21,9.88-5.42,19.53-8.27,31.89-9.43,.85-.07,2.62-.1,4.6-.1Z" fill="#fff"/>
      </g>
    </g>
  </g>
</svg>