<?xml version="1.0" encoding="UTF-8"?>
<svg id="_레이어_2" data-name="레이어 2" xmlns="http://www.w3.org/2000/svg" viewBox="0 0 300 300">
  <g id="_레이어_1-2" data-name="레이어 1">
    <g id="_01기본_shape_01_0013" data-name=" 01기본 shape 01 0013">
      <rect id="_사각형_2723" data-name="사각형 2723" width="300" height="300" fill="none"/>
      <path id="_패스_293" data-name="패스 293" d="M74.07,12.71c-12.37,1.16-22.01,4-31.89,9.43-6.43,3.51-12.31,7.96-17.43,13.21-5.33,5.18-9.86,11.13-13.43,17.65C5.24,63.89,1.98,76.14,1.82,88.62c-.7,27.99,8.44,52.79,28.11,76.3,9.96,11.91,19,20.66,44.26,42.91,20.64,18.15,26.37,23.41,36.26,33.15,13.28,12.9,25.44,26.89,36.38,41.83,1.49,2.05,2.85,3.91,2.96,4.1,.19,.31,.24,.31,.43,0,.12-.19,1.37-2.05,2.8-4.1,12.22-17.34,26.11-33.43,41.46-48.07,9.52-9.18,15.55-14.68,35.68-32.57,11.31-10.05,17.09-15.4,23.84-22.06,24.66-24.3,37.12-44.41,42.07-67.86,2.55-12.13,2.87-25.65,.87-36.38-2.42-12.52-7.85-24.26-15.84-34.21-3.69-4.32-7.71-8.34-12.03-12.03-11.15-8.91-24.52-14.6-38.67-16.46-5.41-.56-10.85-.69-16.27-.39-9.79,.75-19.33,3.42-28.08,7.86-7.62,3.7-14.55,8.67-20.49,14.7-3.71,3.65-7.03,7.69-9.88,12.05-2.22,3.33-5.42,8.92-5.42,9.47,0,.17-.1,.29-.24,.29-.15-.02-.25-.14-.24-.29,0-.55-3.21-6.15-5.42-9.47-2.86-4.36-6.17-8.4-9.88-12.05-5.94-6.03-12.87-11.01-20.49-14.7-8.65-4.38-18.06-7.04-27.72-7.83-2.41-.22-10.11-.27-12.18-.1Z" fill="#fff"/>
    </g>
  </g>
</svg>