<?xml version="1.0" encoding="UTF-8"?>
<svg id="_레이어_2" data-name="레이어 2" xmlns="http://www.w3.org/2000/svg" viewBox="0 0 300 300">
  <g id="_레이어_1-2" data-name="레이어 1">
    <g id="_01기본_shape_01_0025" data-name=" 01기본 shape 01 0025">
      <rect x="0" width="300" height="300" fill="none"/>
      <path id="_패스_195" data-name="패스 195" d="M268.9,78c-.24,17.36-4.45,34.43-12.31,49.92-8.8,17.32-21.85,32.15-37.94,43.09-8.78,6.01-18.37,10.76-28.48,14.11-11.77,3.92-24.09,5.9-36.5,5.89-.31,0-.6,0-.91-.02,0,0-4.21,.02-6.4,.02-15.4,0-28.75,10.64-32.13,25.61-.41,1.77-.66,3.57-.75,5.38h40.19c8.5,0,16.98-.73,25.36-2.19,8.48-1.47,16.81-3.69,24.9-6.64,29.54-10.81,54.82-30.78,72.12-56.98v-.02c15.35-23.23,23.67-50.37,23.97-78.18h-31.1Z" fill="#fff"/>
      <path id="_패스_196" data-name="패스 196" d="M81.36,128.98c8.78-6.01,18.37-10.76,28.48-14.11,11.77-3.92,24.09-5.9,36.5-5.89h7.32c15.4,0,28.74-10.64,32.13-25.61,.41-1.77,.66-3.57,.75-5.38h-40.19c-8.5,0-16.98,.73-25.36,2.19-8.48,1.47-16.81,3.69-24.9,6.64v.02C38.99,107.64,.75,161.44,0,222H31.1c.24-17.36,4.45-34.43,12.31-49.92,8.8-17.32,21.85-32.15,37.94-43.09h0Z" fill="#fff"/>
      <path id="_패스_197" data-name="패스 197" d="M152.74,165.49h.91c48.82,.07,88.69-38.86,89.61-87.49h-31.1c-.97,31.5-26.88,56.52-58.51,56.51h-7.32c-48.82-.07-88.69,38.86-89.61,87.49h31.1c.97-31.5,26.88-56.52,58.51-56.51h6.4Z" fill="#fff"/>
    </g>
  </g>
</svg>