<?xml version="1.0" encoding="UTF-8"?>
<svg id="_레이어_2" data-name="레이어 2" xmlns="http://www.w3.org/2000/svg" viewBox="0 0 300.01 300">
  <g id="_레이어_1-2" data-name="레이어 1">
    <g id="_01기본_shape_01_0011" data-name=" 01기본 shape 01 0011">
      <rect id="_사각형_2727" data-name="사각형 2727" width="300" height="300" fill="none"/>
      <path d="M162.65,16.02v24.67C47.23,66.92-23.63,185.75,7.24,292.5c2.44,8.45,15.22,6.16,14.49-2.81-6.48-78.89,41.29-146.35,140.92-154.15v24.54c0,7.17,5.81,12.99,12.99,13,2.51,0,4.96-.72,7.07-2.09l111.36-72.03c6.03-3.9,7.75-11.94,3.86-17.97-1-1.54-2.31-2.86-3.86-3.86L182.7,5.1c-6.03-3.9-14.07-2.17-17.97,3.86-1.36,2.1-2.08,4.55-2.08,7.06h0Z" fill="#fff"/>
    </g>
  </g>
</svg>