<?xml version="1.0" encoding="UTF-8"?>
<svg id="_레이어_2" data-name="레이어 2" xmlns="http://www.w3.org/2000/svg" viewBox="0 0 300 300">
  <g id="_레이어_1-2" data-name="레이어 1">
    <g>
      <path d="M150.17,298.77l-3.51-3.52c-9.93-9.97-20.08-19.77-29.9-29.25-22.85-22.06-44.43-42.89-64.08-66.26-30.38-36.14-35.29-80.91-13.82-126.06C57.94,33.57,91.48,9.56,135.87,4.24c51.63-6.49,101.93,20.47,125.13,67.08,23.63,46.79,15.23,101.37-21.4,139.06-18.96,19.5-38.11,38.19-58.38,57.97-8.96,8.75-18.23,17.79-27.5,26.93l-3.54,3.49Zm.96-285.48c-4.65,0-9.34,.29-14.04,.88-41.42,4.96-71.42,26.43-89.19,63.81-19.69,41.4-15.28,82.36,12.44,115.33,19.31,22.97,40.71,43.63,63.37,65.5,8.7,8.4,17.66,17.05,26.53,25.87,8.1-7.97,16.17-15.84,24-23.48,20.22-19.74,39.33-38.38,58.2-57.79,33.62-34.59,41.33-84.67,19.64-127.59v-.03c-19.21-38.58-58.62-62.5-100.94-62.5Z" fill="#fff"/>
      <rect width="300" height="300" fill="none"/>
    </g>
  </g>
</svg>