<?xml version="1.0" encoding="UTF-8"?>
<svg id="Layer_2" data-name="Layer 2" xmlns="http://www.w3.org/2000/svg" viewBox="0 0 300 300">
  <g id="_레이어_1" data-name="레이어 1">
    <g>
      <path d="m45.56,178.64c-4.82-13.85-7.19-28.45-6.99-43.11.05-3.75.26-7.46.63-11.12-11.96,33.55-9.17,70.59,7.69,101.97-3.49-15.68-3.94-31.89-1.33-47.74Z" fill="#fff"/>
      <path d="m160.12,40.5c-34.49-.51-67.69,13.08-91.94,37.61,4.43-15.44,11.78-29.89,21.65-42.56-28.68,21.13-47.07,53.41-50.63,88.85,1.24-3.47,2.64-6.91,4.2-10.32,6.1-13.34,14.49-25.5,24.78-35.96-4.84,16.87-6.12,34.55-3.76,51.94,29.53-45.19,84.51-66.62,136.83-53.33-10.9-14.93-24.94-27.31-41.12-36.25Z" fill="#fff"/>
      <path d="m157.38,263.09c-11.86,6.15-24.62,10.38-37.8,12.52,27.2,3.06,54.66-2.79,78.25-16.68-11.29,3.06-22.95,4.53-34.64,4.37-1.94-.02-3.88-.1-5.8-.21,11.91-6.2,22.76-14.26,32.12-23.89h0c-.54,0-1.08.02-1.62.01-62.5-.79-115.01-47.2-123.48-109.13-9.58,14.71-16,31.24-18.85,48.56,16.8,48.15,60.91,81.46,111.82,84.45Z" fill="#fff"/>
      <path d="m190.65,238.04c-.37.39-.76.76-1.13,1.15,13.43.02,26.78-2.12,39.54-6.32,31.42-36.23,39.6-87.14,21.11-131.39-14.31-11.71-31.01-20.16-48.92-24.74,35.87,49.27,31.41,117.14-10.59,161.3Z" fill="#fff"/>
      <path d="m150,0C67.16,0,0,67.16,0,150s67.16,150,150,150c82.8-.09,149.91-67.2,150-150C300,67.16,232.84,0,150,0Zm0,292.49c-78.7,0-142.49-63.8-142.49-142.49S71.3,7.51,150,7.51h0c78.66.09,142.4,63.83,142.49,142.49h0c0,78.7-63.8,142.49-142.49,142.49Z" fill="#fff"/>
      <path d="m281.32,139.41c-8.07-36.51-31.93-67.54-65.13-84.73h0s-.02-.02-.03-.03c.01,0,.02.02.03.03h0c1.52,1.32,3.03,2.67,4.51,4.07,12.69,12.04,22.72,26.6,29.47,42.73,12.78,10.47,23.36,23.36,31.16,37.92Z" fill="#fff"/>
      <path d="m264.4,214.56c-10.74,7.94-22.67,14.13-35.36,18.32-1.26,1.45-2.56,2.89-3.9,4.3h0c-8.06,8.48-17.25,15.79-27.32,21.74,26.41-7.19,49.78-22.75,66.58-44.36Z" fill="#fff"/>
      <path d="m216.16,54.66c-28.27-24.44-65.93-35.07-102.81-29.01,16.42,1.83,32.31,6.88,46.78,14.85,17.49.27,34.73,4.19,50.62,11.5,1.84.84,3.64,1.74,5.42,2.66Z" fill="#fff"/>
    </g>
  </g>
</svg>