<?xml version="1.0" encoding="UTF-8"?>
<svg id="Layer_2" data-name="Layer 2" xmlns="http://www.w3.org/2000/svg" viewBox="0 0 300 300">
  <g id="_레이어_1" data-name="레이어 1">
    <g>
      <g>
        <path d="m251.37,247.98l-65.21-12.9c.76,16.6,6.55,32.58,16.58,45.8l91.26,19.12c0-25.33-17.86-47.12-42.63-52.02Z" fill="#fff"/>
        <path d="m190.27,205.18c-1.06,3.19-1.92,6.44-2.58,9.73l87.28,16.03c8.76,1.61,17.16-4.21,18.77-13,.18-.96.26-1.94.26-2.91v-61.94c-42.98-14.35-89.43,8.97-103.73,52.09Zm84.05-14.07c0,3.71-3,6.71-6.69,6.71h-6.24v6.26c0,3.71-3,6.71-6.69,6.71s-6.69-3.01-6.69-6.71v-6.26h-6.24c-3.7,0-6.69-3.01-6.69-6.72,0-3.7,3-6.71,6.69-6.71h6.24v-6.26c0-3.71,3-6.71,6.69-6.71s6.69,3.01,6.69,6.71v6.26h6.24c3.7,0,6.69,3.01,6.69,6.71Z" fill="#fff"/>
        <path d="m86.59,92.36v62.98l111.85-20.54c3.03-.56,5.22-3.21,5.22-6.3h0V63.49l-102.94,12.82c-8.08,1.01-14.14,7.89-14.14,16.05Z" fill="#fff"/>
        <path d="m277.87,54.36c-.67,0-1.33.04-1.99.12l-62.47,7.78v66.22c0,7.81-5.56,14.5-13.22,15.91l-113.6,20.87v-9.93l-63.31,11.62c-.39.07-.79.11-1.18.11-3.52-.01-6.36-2.88-6.35-6.41V16.18c0-3.53,2.84-6.39,6.35-6.4.27,0,.54.02.81.05l175.16,21.82c3.19.4,5.59,3.12,5.59,6.35v25.49l9.74-1.21v-24.27c0-8.16-6.06-15.05-14.14-16.05L24.12.12c-.67-.08-1.34-.12-2.02-.12C13.2.02,6,7.26,6,16.18v144.49c-.02,8.92,7.18,16.17,16.08,16.18.99,0,1.98-.09,2.96-.27l61.55-11.3v17.58c0,7.81,5.56,14.51,13.22,15.91l78.29,14.37c9.95-49.88,58.32-82.23,108.05-72.25,2.64.53,5.26,1.18,7.85,1.94v-72.29c0-8.93-7.22-16.18-16.13-16.18Z" fill="#fff"/>
        <path d="m6,199.41c0,23.44,16.39,43.66,39.26,48.46l143.81,30.13c-8.02-13.61-12.4-29.07-12.7-44.88L6,199.41Z" fill="#fff"/>
      </g>
      <rect width="300" height="300" fill="none"/>
    </g>
  </g>
</svg>