<?xml version="1.0" encoding="UTF-8"?>
<svg id="Layer_2" data-name="Layer 2" xmlns="http://www.w3.org/2000/svg" viewBox="0 0 300 300">
  <g id="_레이어_1" data-name="레이어 1">
    <path id="_합치기_17" data-name="합치기 17" d="m79.51,230.16c29.01,24.47,69.07,32.08,105.32,20.03l-38.29,20.92,38.29,28.9h-.76c-8.03,0-77.41-1.98-104.56-69.84Zm-35.63-99.86c-7.09,36.82,6.19,74.57,34.93,99.29l.02.06-37.63-22.02-6.4,46.92s-40.2-63.75,9.07-124.24Zm141.77,119.6c36.11-12.39,62.83-42.56,70.29-79.32l.02-.02-.65,42.94,44.68-18.03s-30.64,55.8-96.31,55.8c-6.04-.01-12.07-.47-18.05-1.37Zm-91.67-99.89c0-30.31,25.08-54.88,56.02-54.88,30.94,0,56.02,24.57,56.02,54.88s-25.08,54.88-56.02,54.88c-30.94,0-56.02-24.57-56.02-54.88h0s0,0,0,0Zm38.75,0c0,9.34,7.73,16.92,17.27,16.92s17.27-7.58,17.27-16.92-7.73-16.92-17.27-16.92c-9.54,0-17.27,7.58-17.27,16.92h0Zm125.27,0c.04-30.49-13.38-59.5-36.81-79.57l-.02-.06,37.63,22.02,6.4-46.94s40.21,63.76-9.07,124.26c1.25-6.5,1.87-13.1,1.87-19.72h0ZM44.68,86.53L0,104.57S36.25,38.59,114.35,50.12c-36.11,12.4-62.83,42.56-70.29,79.32l-.02.02.65-42.94Zm105.32-42.32c-11.84,0-23.6,1.89-34.82,5.62l38.29-20.92L115.18,0s76.49-2.23,105.3,69.85c-19.58-16.58-44.6-25.69-70.48-25.66h0Z" fill="#fff"/>
  </g>
</svg>