<?xml version="1.0" encoding="UTF-8"?>
<svg id="Layer_2" data-name="Layer 2" xmlns="http://www.w3.org/2000/svg" viewBox="0 0 300 300">
  <g id="_레이어_1" data-name="레이어 1">
    <g>
      <g>
        <path d="m260.85,147.49c-22.37-.76-41.13,16.75-41.9,39.12-.76,22.37,16.75,41.13,39.12,41.9h0c22.37.76,41.13-16.75,41.89-39.13.76-22.37-16.75-41.13-39.13-41.9Z" fill="#fff"/>
        <path d="m95.35,101.6s0,0,.01,0c25.39,3.77,49.03-13.75,52.8-39.14,3.77-25.39-13.75-49.03-39.14-52.8-25.39-3.77-49.03,13.75-52.8,39.14-3.77,25.39,13.75,49.03,39.13,52.8Z" fill="#fff"/>
        <path d="m257.84,236.22h-.02c-1.13-.04-2.25-.11-3.36-.23-25.17-2.69-44-24.33-43.2-49.63.32-10.33,3.98-20.27,10.42-28.35-8.39-6.05-17.75-11.58-28.16-16.34,38.26-13.67,68.2-13.16,68.2-13.16l-90.35-91.67c-5.84,1.27-11.46,2.75-16.92,4.4,7.94,28.88-9.04,58.72-37.91,66.65-6.47,1.78-13.22,2.34-19.89,1.66-.81-.08-1.61-.18-2.42-.3-10.59-1.55-20.48-6.22-28.41-13.41C10.93,153.54,0,229.06,0,229.06l52.67,60.59c19.01-54.96,48.8-91.16,79.98-115.03l5.97,45.53s72.56-7.98,101.13,70.7l52.31-23.85c-2.61-12.21-6.56-24.1-11.78-35.45-6.99,3.34-14.69,4.94-22.43,4.66Z" fill="#fff"/>
      </g>
      <rect width="300" height="300" fill="none"/>
    </g>
  </g>
</svg>