<?xml version="1.0" encoding="UTF-8"?>
<svg id="Layer_2" data-name="Layer 2" xmlns="http://www.w3.org/2000/svg" viewBox="0 0 300 300">
  <g id="_레이어_1" data-name="레이어 1">
    <g>
      <g>
        <path d="m150.09,0C102.54-.05,63.94,38.46,63.89,86.02c-.05,47.56,38.46,86.15,86.02,86.2,47.56-.03,86.12-38.55,86.2-86.11C236.11,38.59,197.61.05,150.09,0Zm-.02,158.95c-40.23.05-72.88-32.53-72.92-72.76S109.68,13.31,149.91,13.27c40.23.02,72.86,32.61,72.92,72.84,0,40.2-32.56,72.8-72.76,72.84Z" fill="#fff"/>
        <path d="m169.87,174.17c-13.03,4.06-26.99,4.04-40-.06-.85,5.33-1.44,9.31-1.44,9.31-4.14,25.73-7.99,51.54-12.05,77.29-.69,4.38-.29,7.44,2.85,10.38,9.19,8.58,18.17,17.55,27.01,26.73,2.85,2.96,4.77,2.88,7.55,0,8.86-9.15,17.82-18.15,26.98-26.78,3.08-2.9,3.53-5.7,2.78-10.32-1.61-9.98-10.11-63.49-13.68-86.55Z" fill="#fff"/>
        <path d="m158.84,87.82l-17.39.12c-.88,1.3-1.68,2.52-2.38,3.64l-15.11,23.18,6.27-5.3,6.3,20.87-1.58,6.9c-.98,4.33-2.1,10.11-2.93,14.64,11.73,3.16,24.08,3.18,35.82.05-.72-4-1.22-6.82-1.37-7.78-.15-.96-.56-3.79-1.37-7.62-.52-2.51-1.39-6.3-1.39-6.3l5.8-21.27,6.86,5.8-17.28-26.52c-.16-.27-.25-.42-.25-.42Z" fill="#fff"/>
      </g>
      <rect width="300" height="300" fill="none"/>
    </g>
  </g>
</svg>