<?xml version="1.0" encoding="UTF-8"?>
<svg id="Layer_2" data-name="Layer 2" xmlns="http://www.w3.org/2000/svg" viewBox="0 0 300 300">
  <g id="_레이어_1" data-name="레이어 1">
    <g>
      <path d="m150,0C67.16,0,0,67.16,0,150s67.16,150,150,150,150-67.16,150-150S232.84,0,150,0Zm-18.25,68.42c0-10.08,8.17-18.26,18.25-18.26,10.08,0,18.26,8.17,18.26,18.25,0,10.08-8.17,18.26-18.25,18.26-10.08,0-18.26-8.17-18.26-18.25h0Zm-67.3,99.4c-8.71.18-15.91-6.72-16.1-15.43h32.21c-.19,8.71-7.4,15.61-16.1,15.43Zm113.69,57.24h0c-6.12,13.05-16.14,25.25-29.81,30.7-4.4,1.78-9.09,2.73-13.84,2.81,4.36-1.32,8.5-3.27,12.3-5.78,11.05-7.36,18.24-19.06,22.6-31.36,5.81-16.4,7.12-34.05,3.77-51.13-7.47-37.17-46.28-51.3-79.97-56.03,28.2-3.61,60.1,3.46,79,26.32,18.93,23.57,18.02,58.03,5.95,84.48Zm60.5-41.41c-8.71.18-15.91-6.72-16.1-15.43h32.21c-.19,8.71-7.4,15.61-16.1,15.43Zm1.46-60.87c1.81,5.14,4.22,11.38,5.85,15.64,3.29,8.55,6.25,17.68,8.78,26.55-5.29.12-10.81.2-16.09.2s-10.8-.09-16.09-.21c2.55-8.86,5.5-17.99,8.79-26.53,1.52-3.97,3.69-9.6,5.44-14.5-16.42,5.16-35.76,3.48-52.17-.97-8.26-2.23-16.37-4.94-24.31-8.11-7.66-2.81-15.43-5.4-23.31-7.49-22.66-6.29-48.78-8.99-71.91-2.82,1.84,5.46,4.79,13.1,6.68,18.05,3.29,8.55,6.24,17.68,8.78,26.55-5.3.11-10.81.2-16.09.2-5.28,0-10.8-.09-16.09-.21,2.55-8.86,5.5-17.99,8.79-26.53,1.87-4.86,4.7-12.24,6.55-17.69-12.74,3.44-24.35,10.15-33.7,19.46,5.73-9.91,15.12-17.41,25.13-22.84,25.95-13.69,57.11-12.69,84.87-5.73,11.02,2.87,21.82,6.5,32.34,10.86,14.94,5.74,30.87,10.41,46.79,10.92,22.14,1.03,42.54-9.23,50.89-30.89-.79,5.68-2.73,11.15-5.71,16.05-5.52,9.27-14.07,16.35-24.21,20.05Z" fill="#fff"/>
      <polygon points="240.09 122.78 240.09 122.77 240.09 122.76 240.09 122.78" fill="#fff"/>
      <path d="m63.92,104.85h0c-2.97,12.75-4.46,25.44-7.38,38.03,5.27-.07,10.54-.07,15.81,0-2.94-12.67-4.43-25.45-7.44-38.3-.33.09-.66.17-.99.27Z" fill="#fff"/>
      <path d="m237.43,123.72h0c-2.53,11.73-4.01,23.41-6.7,35,5.27-.07,10.54-.07,15.81,0-2.75-11.85-4.23-23.78-6.87-35.78-.73.28-1.49.53-2.24.78Z" fill="#fff"/>
    </g>
  </g>
</svg>