<?xml version="1.0" encoding="UTF-8"?>
<svg id="Layer_2" data-name="Layer 2" xmlns="http://www.w3.org/2000/svg" viewBox="0 0 300 300">
  <g id="_레이어_1" data-name="레이어 1">
    <g>
      <path id="_패스_515" data-name="패스 515" d="m295.43,123.04c-6.59-6.64-13.16-13.3-19.88-19.81-2.01-1.79-3.12-4.38-3.01-7.07.12-14.6.04-29.19.03-43.79-.01-24.52-17.39-42.08-41.8-42.17-13.63-.05-27.26-.01-40.89.02-23.34.05-39.64,14.32-42.53,37.48-2.65,21.24-5.12,42.5-7.56,63.76-2.11,18.24-4.06,36.49-6.09,54.73-3.03,16.01-4.26,32.25-6.3,48.39-1.32,10.4-6.78,15.51-17.32,15.5-14.42-.02-28.84-.04-43.25-.06-1.06.05-2.11-.12-3.1-.5-7.49-3.06-10.74-7.67-10.77-16.14-.07-17.29-.14-34.58-.03-51.87.14-4.32-1.6-8.5-4.77-11.44-4.89-4.75-9.58-9.7-14.48-14.43-2.04-1.97-2.12-3.4-.01-5.42,4.8-4.59,9.39-9.39,14.07-14.12,2.6-2.63,5.04-5.42,5.03-9.37-.02-16.33-.13-32.66-.2-48.99.1-.79.14-1.58.11-2.37-1.36-12.05,5.09-20.48,20.08-19.84,16.46.7,32.97.44,49.45.39,7.85-.03,12.99-5.31,13.02-12.76.25-6.84-5.1-12.58-11.94-12.83-.33-.01-.67-.01-1,0-18.7-.07-37.43-.47-56.11.24-14.51.55-25.96,7.33-32.93,20.62-4.73,5.71-5.54,12.66-5.66,19.61-.26,14.91-.2,29.83-.08,44.75.18,3-1.01,5.92-3.23,7.94-6.64,6.37-13.07,12.94-19.54,19.48-6.3,6.37-6.32,13.55.04,20.03,6.44,6.57,12.91,13.11,19.56,19.46,2.13,1.9,3.28,4.66,3.12,7.51-.15,15.39-.29,30.79-.1,46.18.26,21.88,17.82,37.98,35.35,38.95,16.7.92,33.5.53,50.25.37,18.3-.12,34.12-12.78,38.26-30.61,2.72-11.96,3.48-24.29,4.3-36.55,2.41-12.45,3.4-25.09,4.95-37.66,4.12-33.39,8.2-66.78,12.25-100.17,1.11-9.29,6.83-14.6,16.37-14.6,13.79,0,27.57.02,41.36.06,10.66.05,16.42,5.82,16.45,16.52.05,17.29.12,34.59.03,51.88-.15,4.16,1.52,8.18,4.57,11.03,4.88,4.75,9.57,9.71,14.48,14.43,2.27,2.19,2.57,3.76.02,6.1-4.55,4.17-8.66,8.84-13.16,13.07-4.06,3.63-6.24,8.91-5.92,14.34.3,16.34.12,32.68.13,49.03,0,11.87-5.82,17.75-17.7,17.82-14.42.09-28.84.17-43.26.25-7.92-.83-15.2-.73-20.74,6.8-7.96,10.79-16.5,21.17-25.04,31.51-5.58,6.76-2.71,13.91,1.81,18.06,5.49,5.04,13.36,3.64,18.32-2.55,6.82-8.51,13.65-17,20.36-25.6.72-.97,1.64-1.77,2.7-2.34.96-.49,2.01-.78,3.09-.86,2.52-.23,7.79-.5,14.69-.6,10.77.06,21.55.15,32.33.17,6.05.09,12.03-1.38,17.35-4.26,14.39-7.84,21.28-20.16,21.52-36.32.23-15.23.26-30.46.29-45.68-.03-2.22.92-4.33,2.59-5.79,6.88-6.76,13.69-13.59,20.41-20.51,5.83-6.04,5.65-13.39-.31-19.4Z" fill="#fff"/>
      <rect x="0" width="300" height="300" fill="none"/>
    </g>
  </g>
</svg>