<?xml version="1.0" encoding="UTF-8"?>
<svg id="Layer_2" data-name="Layer 2" xmlns="http://www.w3.org/2000/svg" viewBox="0 0 300 300">
  <g id="_레이어_1" data-name="레이어 1">
    <g>
      <g id="_그룹_269" data-name="그룹 269">
        <path id="_패스_431" data-name="패스 431" d="m129.88,46.14l-10.06,22.97h-19.21l-26.52,63.15h-20.12L0,256.7l71.13-94.57h23.06l10.1-24.73,123.64,119.3h72.08L115.16,110.76l7.27-17.79h16.72l10.85-28.24,39.33-21.65-59.45,3.06Z" fill="#fff"/>
        <path id="_패스_432" data-name="패스 432" d="m109.57,166.13l84.14,81.54-160.79-.18,51.69-68.73h13.6c3.75,0,7.13-2.27,8.55-5.74l2.81-6.89Zm-3.38-16.13l-7.97,19.53h-18.22L14.44,256.7l202.08.23-.23-.23-110.11-106.7Z" fill="#fff"/>
        <path id="_패스_433" data-name="패스 433" d="m182.19,67.75l23.97,54.07c1.48,3.34,4.79,5.49,8.44,5.49h.25l30.21-.82,23.21,80.66-123.35-95.35h.5s.21.01.21.01c3.86,0,7.31-2.41,8.65-6.03l10.86-29.3,17.05-8.73Zm4.48-12.67l-28.93,14.82-12.12,32.67-15.14-.34-2.02,8.52,156.47,120.95-32.99-114.65-37.35,1.01-27.93-62.99Z" fill="#fff"/>
      </g>
      <rect width="300" height="300" fill="none"/>
    </g>
  </g>
</svg>