<?xml version="1.0" encoding="UTF-8"?>
<svg id="Layer_2" data-name="Layer 2" xmlns="http://www.w3.org/2000/svg" viewBox="0 0 300 300">
  <g id="_레이어_1" data-name="레이어 1">
    <g>
      <g>
        <path d="m189.3,217.56c-2.55.01-5.19,1.4-7.62,2.52-21.71,10.02-43.33,9.79-64.98-.18-2.36-1.29-4.96-2.08-7.64-2.33-30.63-.16-61.25-.1-93.08-.1,2.25,9.5,5.72,14.13,16.02,14.08,78.56-.44,157.13-.24,235.7-.24,10.6,0,12.61-1.89,14.43-13.85-30.99,0-61.91-.06-92.83.11Z" fill="#fff"/>
        <path d="m50.3,256.65c65.78-.33,131.56-.33,197.34,0,8.68.04,14.23-2.59,17.99-10.93H33.35c3.99,7.99,8.76,10.97,16.96,10.93Z" fill="#fff"/>
        <path d="m77.03,163.52H1.38c.76,6.24,1.44,11.77,2.17,17.69h77.74c-1.53-6.37-2.84-11.82-4.26-17.69Z" fill="#fff"/>
        <path d="m296.95,162.97c-24.2,0-47.4-.05-70.59.1-1.74.01-4.65,1.18-5.01,2.39-1.53,5.18-2.31,10.58-3.51,16.6,22.93,0,44.66-.54,66.34.25,9.68.35,13.14-3.13,12.78-11.98-.08-2.05-.01-4.11-.01-7.37Z" fill="#fff"/>
        <path d="m89.21,206.84c2.41,0,4.82-.42,9.36-.85-6.02-5.85-10.23-13.58-14.81-13.79-25.6-1.2-51.29-.58-77.58-.58q3.12,15.23,16.77,15.25c22.09.03,44.17.02,66.26-.03Z" fill="#fff"/>
        <path d="m227.22,191.21c-12.45-.68-19.67,3.8-24.72,15.67,25.07,0,49.25-.01,73.43,0q14.31,0,16.55-15.34c-21.84,0-43.6.85-65.25-.33Z" fill="#fff"/>
        <path d="m65.05,274.96l-.36,2.25c3.56.83,7.12,2.37,10.69,2.38,49.52.16,99.03.15,148.55-.02,3.49-.01,6.97-1.69,10.45-2.6l-.47-2.02H65.05Z" fill="#fff"/>
        <polygon points="118.13 297.99 118.16 300 180.6 300 180.27 297.99 118.13 297.99" fill="#fff"/>
        <path d="m219.7,18.83C163.51-10.58,108.04-5.37,57.72,33.26,18.35,63.5.86,105.19,1.4,154.83h297.22c-1.06-60.67-25.2-107.87-78.92-135.99Zm-38.31-.05c-4.42,26.44-8.84,52.89-13.25,79.33-22.65-8.13-47.96-1.33-63.49,17.05L62.74,51.05c19.84-27.28,81.19-44.38,118.65-32.27Zm8.05,131.14c-10.81-.22-19.55-.23-25.28-.21-1.49,0-2.88.02-4.21.03-.25-5.98-5.3-10.62-11.28-10.37-5.76.24-10.32,4.94-10.38,10.7-2.12.03-4.41.05-6.97.07-9.81.07-17.71.01-22.52-.04-.78-22.14,18.34-41.17,40.54-41.28,22.35-.11,41.11,18.79,40.1,41.09Zm4.4-.16s-.45-5.03-.48-5.34c-.22-2.39-3.49-21.54-20.87-32.36-12.94-7.63-28.79-8.48-42.47-2.27-20.36,9.53-25.8,31.1-26.06,34.95-.02.32-.35,5.51-.35,5.51l-3.78-.04-2.77-.3.38-6.27c.22-3.64,3-14.95,10.67-24.71,9.92-12.47,24.89-19.86,40.83-20.15,6.45-.07,21.09.98,33.63,11.83,13.91,12.03,16.29,28.37,16.93,32.83.3,2.08.48,4.18.54,6.29l-6.2.03Zm-8.66-42.01c-.64-.81-1.36-1.56-2.15-2.23-1.11-.9-2.28-1.71-3.52-2.42l7.33-19.53c7.14-19.04,14.29-38.07,21.43-57.1,10.32,4.03,19.74,10.05,27.73,17.71l-50.83,63.56Z" fill="#fff"/>
      </g>
      <rect width="300" height="300" fill="none"/>
    </g>
  </g>
</svg>