<?xml version="1.0" encoding="UTF-8"?>
<svg id="Layer_2" data-name="Layer 2" xmlns="http://www.w3.org/2000/svg" viewBox="0 0 300 300">
  <g id="_레이어_1" data-name="레이어 1">
    <g id="_09비즈니스_shape_09_0003" data-name=" 09비즈니스 shape 09 0003">
      <circle id="_타원_2" data-name="타원 2" cx="221.39" cy="89.53" r="14.23" fill="#fff"/>
      <circle id="_타원_3" data-name="타원 3" cx="19.33" cy="131.5" r="11.15" fill="#fff"/>
      <path id="_패스_193" data-name="패스 193" d="m275.98,118.88c-4.92,0-9.56,2.28-12.55,6.18-15.73,15.75-40.13,23.78-63.89,15.99-16.89-5.4-30.83-17.48-38.56-33.44-3.15-16.73-19.26-27.74-35.99-24.59-14.57,2.74-25.12,15.47-25.12,30.29,0,.82.05,1.64.1,2.46-2.5,25.52-22.39,46.68-46.48,52.43l.03.03c-3.49,1.11-6.66,3.06-9.23,5.67-3.55,3.92-5.57,8.99-5.69,14.27,0,11.46,9.29,20.75,20.76,20.75,9.91,0,18.44-7.01,20.36-16.73,7.88-24.19,30.48-40.53,55.92-40.43,28.81,0,51.59,21.82,58.14,49.01h0c-.01,18.97,15.36,34.36,34.33,34.37,18.97.01,34.36-15.36,34.37-34.33,0-5.02-1.09-9.97-3.21-14.52-1.64-4.27-2.91-8.94-2.17-13.76,1.73-11.18,10.99-19.38,21.33-22.14,8.65-1.34,14.58-9.44,13.24-18.09-1.2-7.74-7.87-13.44-15.7-13.42h.01Z" fill="#fff"/>
      <rect id="_사각형_18" data-name="사각형 18" width="300" height="300" fill="none"/>
    </g>
  </g>
</svg>