<?xml version="1.0" encoding="UTF-8"?>
<svg id="Layer_2" data-name="Layer 2" xmlns="http://www.w3.org/2000/svg" viewBox="0 0 300 300">
  <g id="_레이어_1" data-name="레이어 1">
    <g>
      <path d="m276.29,105.36s0,0,0,.01c0,0,0,0,0-.01h-.01Z" fill="#fff"/>
      <path d="m231.55,149.82c-14.38,6.71-27.71,14.37-34.66,29.67-1.34,2.95-2.96,2.02-4.22-.22-3.36-5.99-2.44-11.86.58-17.64,6.09-11.68,15.51-20.46,25.48-28.66,3.4-2.8,2.82-3.64-.87-5.08-28.52-11.14-62.25-5.34-80,13.99-7.23,7.87-11.59,17.49-16.4,26.82-1.19,2.24-2.65,4.32-4.35,6.2-1.5,1.7-3.37,3.3-5.64,2.09-1.98-1.05-1.81-3.26-1.39-5.35,1.97-10.14,5-20.04,9.02-29.55,13.84-32.02,40.61-44.56,73.09-48.61,23.51-2.93,45.89-9.02,65.23-23.43C213.2,10.78,129.26-1.43,69.95,42.76,21.19,79.1,3.05,143.7,25.77,200.08c8.09-15.26,21.54-28.63,41.49-37.95,7.89-3.24,15.29-7.57,21.98-12.86,5.25-4.5,9.5-10.05,12.48-16.29,1.47-3.08,2.79-2.81,4.37-.13,2.54,4.51,2.73,9.96.53,14.64-3.46,8.23-8.74,15.56-15.45,21.45-4.04,3.8-7.52,8.18-12.34,11.25-3.57,2.27-.03,2.99,1.47,3.55,20.35,7.51,40.68,8.13,61.05-.1,15.25-6.16,24.72-17.87,31.73-32.11,2.03-5.05,4.79-9.78,8.19-14.04,1.56-1.68,3.34-4.05,5.94-2.85,2.74,1.27,1.7,4.11,1.27,6.33-8.68,44.08-30.55,69.38-75.89,76.36-16.69,2.57-33.4,4.86-49.08,11.65-5.31,2.27-10.45,4.92-15.38,7.94,48.08,56.19,132.64,62.8,188.88,14.76,42.1-35.97,57.71-94.11,39.27-146.3-8.34,20.28-23.81,34.67-44.74,44.44Z" fill="#fff"/>
      <path d="m299.99,149.95s0,.04,0,.06h0c.6,58.35-37.28,114.32-91.77,135.22C88.55,331.94-28.21,214.11,19.48,95.09,49.1,21.59,134.56-14.95,208.22,14.81c54.48,20.88,92.34,76.83,91.77,135.14.7-58.66-36.63-114.94-90.72-137.69C110.56-30.09-.01,42.52,0,150.01c.01,107.49,110.56,180.08,209.27,137.73,54.11-22.75,91.45-79.06,90.72-137.73,0-.02,0-.04,0-.06Z" fill="#fff"/>
    </g>
  </g>
</svg>