<?xml version="1.0" encoding="UTF-8"?>
<svg id="Layer_2" data-name="Layer 2" xmlns="http://www.w3.org/2000/svg" viewBox="0 0 300 300">
  <g id="_레이어_1" data-name="레이어 1">
    <path id="_패스_753" data-name="패스 753" d="m239.56,268.02c20.66,2.92,40.93,8.12,60.44,15.51-5.94,2.77-12.06,5.13-18.31,7.08-8.99,2.61-18.16,4.52-27.44,5.73-84.3,9.96-128.47-3.52-128.47-3.52-22.44-6.85-87.79-26.8-114.7-89.23C-.31,176.43-3,146.42,3.39,117.68,15.28,66.13,52.95,24.36,103.01,7.21,115.7,3.06,128.91.67,142.26.13c26.96-1.12,53.74,4.82,77.7,17.23,11.88,6.16,22.84,13.93,32.58,23.1,9.99,9.53,18.61,20.4,25.59,32.31,7,11.9,12.37,24.68,15.96,38.01,3.6,13.31,5.32,27.07,5.09,40.86-.02,1.03-.05,2.07-.09,3.1-2.13,44.7-23.93,86.17-59.54,113.27Zm-89.59-15c16.48-.12,29.74-13.57,29.62-30.05-.12-16.48-13.57-29.74-30.05-29.62-16.46.12-29.72,13.55-29.62,30.02.17,16.46,13.59,29.69,30.05,29.64v.02Zm-.12-149.3c16.48-.05,29.8-13.45,29.75-29.93-.05-16.48-13.45-29.8-29.93-29.75-16.45.05-29.75,13.4-29.75,29.84.14,16.45,13.48,29.74,29.93,29.82v.02Zm-44.88,44.69c-.07-16.52-13.51-29.85-30.03-29.78-16.52.07-29.85,13.51-29.78,30.03.07,16.39,13.32,29.68,29.71,29.78,16.6.02,30.08-13.43,30.1-30.03Zm149.67.24c.06-16.51-13.28-29.95-29.79-30.01-16.51-.06-29.95,13.28-30.01,29.79s13.28,29.95,29.79,30.01c.04,0,.07,0,.11,0,16.48,0,29.86-13.32,29.91-29.79h-.01Zm-104.86,14.8c8.24.04,14.96-6.6,15-14.85s-6.6-14.96-14.85-15c-8.24-.04-14.96,6.6-15,14.85,0,.02,0,.03,0,.05-.09,8.17,6.47,14.87,14.64,14.95.07,0,.15,0,.22,0h-.01Z" fill="#fff"/>
  </g>
</svg>