<?xml version="1.0" encoding="UTF-8"?>
<svg id="Layer_2" data-name="Layer 2" xmlns="http://www.w3.org/2000/svg" viewBox="0 0 300 300">
  <g id="_레이어_1" data-name="레이어 1">
    <g>
      <g>
        <path d="m236.95,175.22c5.59-4.67,11.64-8.81,17.62-12.99,4.45-3.11,5.85-6.29,2.52-11.42-1.57-2.42-3.08-4.88-4.56-7.37H49.59c-8.24,13.89-8.39,15.01,5.81,23.82,11.48,7.11,16.12,15.84,13.61,28.62-.47,2.88-1.83,5.55-3.89,7.62-5.57,4.7-11.77,8.63-17.55,13.08-1.66,1.54-3.15,3.26-4.45,5.11.6,2.11,1.37,4.17,2.29,6.16,6.59,11.36,13.39,22.6,19.91,34,2.65,4.63,5.82,5.09,10.42,3.02,6.82-3.08,13.82-5.8,20.83-8.42,1.63-.59,3.42-.54,5.01.14,4.97,2.61,9.8,5.48,14.48,8.59,1.6,1.11,2.75,2.75,3.24,4.63,1.51,7.35,2.61,14.78,3.85,22.18.72,4.29,1.49,8.12,7.4,8.02,13.98-.24,27.98-.13,41.96-.05,3.46.02,5.34-1,5.85-4.81,1.04-7.84,2.5-15.63,3.86-23.42.78-4.48,17.26-16.76,21.54-16.01,1.42.33,2.8.81,4.12,1.45,6.52,2.75,13.09,5.41,19.53,8.35,4.36,1.99,7.04,1.44,9.47-3.22,4.92-9.41,10.47-18.49,15.84-27.66q8.18-13.98-4.71-23.12c-15.06-10.67-15.18-10.67-14.58-29.16.23-2.74,1.49-5.29,3.52-7.13Zm-47.27,14.22h0c.05,20.79-17.81,38.6-38.83,38.71-20.24.1-38.09-17.95-38.14-38.58-.05-21.51,17.19-39.49,38.69-39.12,22.82.39,38.85,19.36,38.28,38.99Z" fill="#fff"/>
        <path d="m284.39,120.29c-.02-.19-.05-.38-.09-.57-1.22-7.02-7.32-12.15-14.45-12.14h-1.54c-.04-4.53-.07-9.07-.11-13.6.03-21.53.36-43.05-.03-64.57-.25-14.05-11.06-25.78-24.91-28.51-2.65-.48-5.35-.7-8.05-.66-37.26-.03-74.52-.07-111.78-.11l-11.56.25C89.55-.09,72.19-.05,62.45.12c-3.83-.02-7.63.69-11.19,2.09-11.94,5.05-19.66,16.81-19.53,29.77-.13,15.63-.22,31.26-.3,46.88.71,7.66-.1,15.33.32,22.98.22,3.98-.45,6.02-5.09,6.77-7.12,1.15-11.9,8.35-11.09,15.13.76,7.28,6.83,12.86,14.15,13.01,17.66.08,35.32-.04,52.98-.07.94.03,1.88.07,2.83.08,18.55.03,37.1.05,55.65.07.2.01.4.03.61.03h128.06c8.1.01,14.67-6.54,14.68-14.64h0v-.03h0v-.07c0-.61-.05-1.21-.13-1.82Zm-205.46-28.8c0,4.96-4.02,8.98-8.98,8.98-4.96,0-8.98-4.02-8.98-8.98v-51.13c0-4.96,4.02-8.98,8.98-8.98h0c4.96,0,8.98,4.02,8.98,8.98v51.13Zm40.03,0c-.06,4.96-4.13,8.94-9.09,8.87-4.88-.06-8.82-4-8.87-8.87v-51.13c.06-4.96,4.13-8.94,9.09-8.87h0c4.88.06,8.82,4,8.88,8.87v51.13Zm40.03,0c-.06,4.96-4.13,8.94-9.09,8.87-4.88-.06-8.82-4-8.87-8.87v-51.13c.06-4.96,4.13-8.94,9.09-8.87h0c4.88.06,8.82,4,8.88,8.87v51.13Zm40.03,0c0,4.95-4.03,8.96-8.99,8.96-4.95,0-8.98-4-8.98-8.96v-51.13c0-4.95,4.03-8.96,8.98-8.96,4.95,0,8.98,4,8.99,8.96v51.13Zm40.03,0c-.06,4.96-4.13,8.94-9.09,8.87-4.88-.06-8.82-4-8.87-8.87v-51.13c.06-4.96,4.13-8.94,9.09-8.87h0c4.88.06,8.82,4,8.88,8.87v51.13Z" fill="#fff"/>
      </g>
      <rect y="0" width="300" height="300" fill="none"/>
    </g>
  </g>
</svg>