<?xml version="1.0" encoding="UTF-8"?>
<svg id="Layer_2" data-name="Layer 2" xmlns="http://www.w3.org/2000/svg" viewBox="0 0 300 300">
  <g id="_레이어_1" data-name="레이어 1">
    <g id="_09비즈니스_shape_09_0002" data-name=" 09비즈니스 shape 09 0002">
      <rect id="_사각형_9" data-name="사각형 9" width="300" height="300" fill="none"/>
      <path id="_패스_184" data-name="패스 184" d="m138.09,120.89l47.9,37.48,2.28-2.92-46.95-36.74,14.45-70.39.15-.72-1.46-.3-.66-1.34-67.02,33.13-68.61,16.53.35,1.47-.89,1.22,46.16,33.73,2.19-3-42.34-30.93,63.35-15.25,51.11,38.05Zm-47.17-39.73l60.45-29.88-13.32,64.95-47.13-35.07Z" fill="#fff"/>
      <path id="_패스_185" data-name="패스 185" d="m205.86,156.46c0-10.67-8.64-19.31-19.31-19.31-10.67,0-19.31,8.64-19.31,19.31,0,10.67,8.64,19.31,19.31,19.31h0c10.66,0,19.31-8.64,19.31-19.31Z" fill="#fff"/>
      <path id="_패스_186" data-name="패스 186" d="m38.62,97.23c0-10.66-8.65-19.31-19.31-19.31C8.64,77.93,0,86.58,0,97.24c0,10.66,8.65,19.31,19.31,19.31,10.66,0,19.31-8.65,19.31-19.31Z" fill="#fff"/>
      <circle id="_타원_1" data-name="타원 1" cx="64.28" cy="130.09" r="15.64" transform="translate(-73.16 83.56) rotate(-45)" fill="#fff"/>
      <path id="_패스_187" data-name="패스 187" d="m169.58,47.95c0-8.64-7-15.64-15.64-15.64-8.64,0-15.64,7-15.64,15.64,0,8.64,7,15.64,15.64,15.64h0c8.63,0,15.63-7,15.63-15.64Z" fill="#fff"/>
      <path id="_패스_188" data-name="패스 188" d="m158.58,119.46c0-10.66-8.65-19.31-19.31-19.31-10.66,0-19.31,8.65-19.31,19.31,0,10.66,8.64,19.3,19.31,19.31,10.66,0,19.31-8.64,19.31-19.3h0Z" fill="#fff"/>
      <path id="_패스_189" data-name="패스 189" d="m114.03,80.84c0-14.72-11.93-26.65-26.64-26.65-14.72,0-26.65,11.93-26.65,26.64,0,14.72,11.93,26.65,26.64,26.65,14.71,0,26.64-11.92,26.65-26.64h0Z" fill="#fff"/>
      <path id="_패스_190" data-name="패스 190" d="m186.75,268.77c-62.31-.28-112.64-50.94-112.5-113.25l22.28.07c-.17,50.04,40.26,90.74,90.29,90.91,50.04.17,90.74-40.26,90.91-90.29s-40.26-90.74-90.29-90.91h0l.07-22.27c62.34.37,112.57,51.2,112.2,113.54-.37,62.11-50.85,112.25-112.96,112.2h0Z" fill="#fff"/>
      <path id="_패스_191" data-name="패스 191" d="m187.13,227.92c-39.76-.04-71.98-32.26-72.03-72.03h17.82c0,29.94,24.27,54.21,54.21,54.21,29.94,0,54.21-24.27,54.21-54.21,0-29.94-24.27-54.21-54.2-54.21v-17.82c39.78,0,72.03,32.25,72.03,72.03s-32.25,72.03-72.03,72.03h0Z" fill="#fff"/>
    </g>
  </g>
</svg>