<?xml version="1.0" encoding="UTF-8"?>
<svg id="Layer_2" data-name="Layer 2" xmlns="http://www.w3.org/2000/svg" viewBox="0 0 300 300">
  <g id="_레이어_1" data-name="레이어 1">
    <g>
      <g>
        <path d="m285.56,154.43c-7.18,48.63-48.91,84.65-98.07,84.65h0c-49.16,0-90.89-36.03-98.07-84.65-.7,4.79-1.06,9.63-1.06,14.47.86,54.75,45.94,98.43,100.69,97.57,53.54-.84,96.73-44.04,97.57-97.57,0-4.84-.36-9.68-1.06-14.47Z" fill="#fff"/>
        <path d="m231.61,79.01c10.39,1.8,20.64,4.28,30.7,7.43-9.11-15.34-22.67-27.54-38.87-34.99,3.31,9.01,6.04,18.22,8.17,27.57h0Z" fill="#fff"/>
        <path d="m237.88,128.1h36.6c-.38-11.79-3.15-23.38-8.15-34.07-10.88-3.75-22.04-6.67-33.36-8.73,2.85,14.1,4.49,28.42,4.9,42.8Z" fill="#fff"/>
        <path d="m225.28,78c-2.39-10.1-5.55-20-9.44-29.62-8.35-2.91-17.09-4.54-25.92-4.83v31.72h0c11.83.08,23.65.99,35.36,2.73Z" fill="#fff"/>
        <path d="m226.69,84.22c-12.17-1.91-24.46-2.92-36.77-3v46.88h42.03c-.43-14.76-2.19-29.44-5.26-43.88Z" fill="#fff"/>
        <path d="m57.18,150c0-74.38,54.52-137.52,128.1-148.39-7.25-1.07-14.57-1.6-21.9-1.61C80.53,0,13.37,67.16,13.37,150s67.16,150,150,150c7.33,0,14.65-.54,21.9-1.61-73.58-10.87-128.09-74.01-128.1-148.39Z" fill="#fff"/>
        <path d="m232.06,134.07h-42.13v46.88c12.9-.09,25.78-1.19,38.51-3.28,2.49-14.4,3.7-28.98,3.62-43.59Z" fill="#fff"/>
        <path d="m189.93,218.62c10.31-.34,20.48-2.5,30.04-6.39,2.98-9.31,5.43-18.78,7.33-28.36-12.37,1.93-24.86,2.94-37.37,3.02v31.73Z" fill="#fff"/>
        <path d="m274.49,134.07h-36.5c.09,14.23-1.02,28.44-3.3,42.48,10.74-2.04,21.33-4.85,31.66-8.41,4.99-10.69,7.76-22.28,8.14-34.07Z" fill="#fff"/>
        <path d="m262.31,175.72c-9.43,2.96-19.03,5.32-28.75,7.08h0c-1.66,8.79-3.76,17.48-6.31,26.05,14.55-7.56,26.7-19.03,35.07-33.13Z" fill="#fff"/>
        <path d="m107.25,167.49v.02c10.39,3.51,20.99,6.36,31.74,8.53-2.23-13.88-3.31-27.92-3.23-41.97h-36.36c.37,11.55,3.04,22.92,7.85,33.43Z" fill="#fff"/>
        <path d="m146.49,208.79c-2.59-8.7-4.72-17.53-6.38-26.46-9.78-1.88-19.44-4.31-28.94-7.29h0c8.35,14.36,20.6,26.06,35.33,33.74Z" fill="#fff"/>
        <path d="m183.95,180.92v-46.85h-42.23c-.08,14.46,1.11,28.89,3.54,43.14h0c12.78,2.24,25.72,3.48,38.7,3.71Z" fill="#fff"/>
        <path d="m99.4,128.1h36.47c.41-14.21,2.02-28.36,4.81-42.29-11.33,2.2-22.5,5.17-33.43,8.87-4.81,10.51-7.48,21.87-7.85,33.43Z" fill="#fff"/>
        <path d="m183.96,81.25c-12.39.21-24.74,1.35-36.96,3.4-3.01,14.3-4.74,28.83-5.17,43.44h42.14s0-46.84,0-46.84Z" fill="#fff"/>
        <path d="m183.95,218.62v-31.75c-12.59-.21-25.14-1.35-37.56-3.42,1.9,9.71,4.37,19.3,7.39,28.73h0c9.6,3.92,19.81,6.1,30.17,6.44Z" fill="#fff"/>
        <polygon points="150.29 51.51 150.29 51.51 150.29 51.51 150.29 51.51" fill="#fff"/>
        <path d="m148.4,78.39c11.76-1.86,23.64-2.89,35.55-3.08v-31.74c-8.88.29-17.67,1.93-26.06,4.88h0c-3.92,9.72-7.1,19.74-9.49,29.95Z" fill="#fff"/>
        <path d="m111.16,87.12c10.13-3.17,20.44-5.73,30.87-7.65,2.14-9.49,4.9-18.83,8.25-27.96-16.39,7.58-30.05,20.01-39.13,35.61Z" fill="#fff"/>
      </g>
      <rect width="300" height="300" fill="none"/>
    </g>
  </g>
</svg>