<?xml version="1.0" encoding="UTF-8"?>
<svg id="Layer_2" data-name="Layer 2" xmlns="http://www.w3.org/2000/svg" viewBox="0 0 300 300">
  <g id="_레이어_1" data-name="레이어 1">
    <g>
      <path id="_패스_960" data-name="패스 960" d="m281.14,78.6c0-.09,0-.18,0-.26v-.49s-.02.04-.02.04c-.13-1.98-1.24-3.76-2.95-4.75L156.31,3.07l.02-.04-3.27-1.9c-2.09-1.5-4.91-1.51-7.01-.02C104.79,25.03,63.5,48.88,22.17,72.66c-2.21,1.02-3.54,3.33-3.29,5.76.1,11.39.06,22.79.05,34.18h0v41.8h.14c-.06,3.76-.13,7.82-.16,11.71-.04,3.74-.02,10.05.02,22.66.05,16.82.13,33.16.13,33.16.18,1.02.5,2,.95,2.93.46.8,1.11,1.48,1.88,1.99,16.93,12.25,121.29,70.27,124.57,72.18,1.85,1.3,4.32,1.29,6.16-.04,41.39-23.99,82.81-47.91,124.28-71.76,2.21-1.05,3.52-3.37,3.27-5.81-.08-14.41,0-28.81-.07-43.21-.01-3.17-.1-7.08-.13-14.89,0,0-.04-8.09.01-17.08.05-11.16.41-35.53,1.16-67.65Zm-23.91-3.79l-74.42,10.48-21.66-65.72,96.08,55.24Zm3.69,147.57c-9.3,5.41-17.66,10.38-26.18,15.05-1.06.58-3.24-.09-4.53-.83-13.65-7.75-27.22-15.62-40.81-23.47-23.74-13.72-47.49-27.43-71.25-41.12-1.27-.73-3.32-1.38-4.44-.86-3.49,1.61-6.72,3.81-10.55,6.08l117.92,68.13c-8.57,4.99-16.35,9.38-23.95,14.04-2.74,1.68-4.81,1.42-7.48-.14-13.26-7.8-26.64-15.39-39.96-23.09-23.61-13.66-47.22-27.3-70.83-40.94-1.41-.81-3.61-1.58-4.87-1.04-3.67,1.8-7.23,3.8-10.68,6l118.03,68.17c-10.14,5.87-19.54,11.16-28.77,16.75-1.86,1.32-4.37,1.28-6.19-.11-37.05-21.46-74.13-42.86-111.24-64.2-2.77-1.26-4.42-4.15-4.11-7.17.12-19.96.1-39.93.09-59.89v-31.12c.07-.58.1-1.17.09-1.76-.19-11.74.02-23.49-.16-35.23-.29-2.59,1.11-5.08,3.48-6.18,10.24-5.73,20.36-11.66,30.51-17.54,26.91-15.55,53.82-31.09,80.75-46.61.36-.21.78-.43,1.21-.63l6.88,20.86c-26.06,15.05-52.11,30.11-78.14,45.2-4.76,2.72-8.75,6.61-11.59,11.29-4.72,7.85-7.29,20.04-2.31,29.15,2.5,4.57,7.25,9.04,9.45,11.1,1.36,1.51,2.93,2.81,4.68,3.86,10.88,5.56,21.62,4.8,32.02-.98,12.38-6.88,24.63-14.01,36.8-21.25,2.21-1.66,5.26-1.64,7.44.06,3.82,2.49,7.89,4.6,11.86,6.88l39.07,22.42.05-.05,4.65,2.69c4.69,3.21,9.86,5.75,14.81,8.59l.03-.02,24.98,14.43c4.28,2.51,7.72,4.67,10.2,6.26,3.5,2.25,9.45,6.2,9.45,6.2,0,0,.23,8.33.31,11.08.12,4.66.25,11.35.26,19.99-3.2-1.81-5.43-3.04-7.63-4.31-28.94-16.72-44.02-25.41-69.69-40.18-12.38-7.12-22.95-13.11-31.01-17.69-5.1.87-9.92,2.96-14.03,6.1l115.37,66.05Zm6.98-56.74c-1.65-.75-3.33-1.55-5.04-2.4-.91-.45-1.8-.91-2.68-1.37l.04-.06-55.03-31.41-.04.08c-6.59-3.78-13.18-7.57-19.77-11.35-8.01-4.6-16.03-9.19-24.81-14.22-7.42-4.55-10.97-5.13-12.82-4.63-.31.08-3.74,1.05-3.74,1.05-6.99,3.35-12.49,6.44-16.19,8.62-5.69,3.35-13.84,7.87-24.55,14.08-4.59,2.66-9.29,4.6-14.72,3.8-10.74-1.42-18.3-11.28-16.88-22.02.83-6.29,4.65-11.79,10.26-14.76,25.27-14.6,50.53-29.21,75.8-43.82l15.33,46.51c.9,2.73,3.63,4.43,6.48,4.03l88.69-12.49-.18,4.13c-.2,4.4-.35,21.43-.17,76.24h0Z" fill="#fff"/>
      <rect width="300" height="300" fill="none"/>
    </g>
  </g>
</svg>