<?xml version="1.0" encoding="UTF-8"?>
<svg id="Layer_2" data-name="Layer 2" xmlns="http://www.w3.org/2000/svg" viewBox="0 0 300 300">
  <g id="_레이어_1" data-name="레이어 1">
    <g>
      <g>
        <path d="m296.08,227.07h-35.3c-2.17,0-3.92,1.76-3.92,3.92v27.34H7.84v-27.34c0-2.17-1.76-3.92-3.92-3.92S0,228.82,0,230.99v31.16c0,2.22,1.8,4.02,4.02,4.02h289.77c3.43,0,6.21-2.78,6.21-6.21v-28.98c0-2.17-1.75-3.92-3.92-3.92Z" fill="#fff"/>
        <path d="m285.3,127.94V46.34c0-6.91-5.6-12.52-12.52-12.52h-16.15c-6.91,0-12.51,5.6-12.51,12.52v73.37l-29.41,17.65V63.99c0-6.91-5.6-12.51-12.51-12.52h-16.15c-6.91,0-12.52,5.6-12.52,12.51h0v45.13l-52.2,31.32-28.95-28.95c-2.43-2.43-6.21-2.9-9.16-1.13L1.95,159.12C.74,159.85,0,161.16,0,162.57v32.97C0,197.71,1.76,199.46,3.92,199.46s3.92-1.76,3.92-3.92v-30.8l72.56-43.53v38.82c-.05,1.95.61,3.84,1.84,5.35,2.49,2.94,6.73,3.64,10.03,1.66l76.35-45.82v38.97c-.04,1.58.41,3.13,1.28,4.45,1.47,2.19,3.93,3.5,6.57,3.5,1.42,0,2.82-.39,4.03-1.12l76.36-45.81v74.33c0,2.17,1.76,3.92,3.92,3.92h35.29c2.17,0,3.92-1.76,3.92-3.92h0v-52.88l-14.7-14.71Zm-91.18-2.94l-14.71-14.71v-23.83c4.61,2.13,9.63,3.24,14.71,3.24v35.29Zm70.59-17.65l-14.71,8.82v-47.36c4.61,2.13,9.63,3.24,14.71,3.24v35.3Z" fill="#fff"/>
      </g>
      <rect x="0" width="300" height="300" fill="none"/>
    </g>
  </g>
</svg>