<?xml version="1.0" encoding="UTF-8"?>
<svg id="Layer_2" data-name="Layer 2" xmlns="http://www.w3.org/2000/svg" viewBox="0 0 300 300">
  <g id="_레이어_1" data-name="레이어 1">
    <g id="_09비즈니스_shape_09_0001" data-name=" 09비즈니스 shape 09 0001">
      <path id="_제외_1" data-name="제외 1" d="m148.76,228.97c-.23,0-.46-.03-.68-.1h0c-4.84-1.61-9.59-3.47-14.23-5.57-4.84-2.16-9.65-4.54-14.29-7.1-5.65-3.1-11.13-6.52-16.4-10.23-12.98-9.16-23.44-19.45-31.09-30.59-4.45-6.42-8.04-13.39-10.68-20.74-2.81-7.92-4.41-16.23-4.76-24.63V36.08c-.06-1.44,1.06-2.66,2.5-2.72h179.29c1.44.07,2.56,1.28,2.5,2.72v93.81c-.35,8.42-1.95,16.73-4.76,24.67-2.64,7.36-6.23,14.35-10.68,20.78-7.66,11.15-18.12,21.46-31.09,30.63-5.27,3.71-10.75,7.13-16.4,10.23-4.64,2.56-9.45,4.95-14.29,7.1-4.64,2.11-9.39,3.97-14.23,5.57h0c-.22.07-.44.11-.67.11ZM61.61,38.8v91.09c2.7,63.65,78.51,90.65,87.14,93.52,8.63-2.87,84.44-29.88,87.14-93.65V38.8h-17.5v91.37c-.26,6.42-1.5,12.75-3.65,18.8-2.03,5.6-4.79,10.91-8.2,15.79-6.51,9.08-14.57,16.94-23.83,23.19-7.37,5.08-15.2,9.43-23.4,13.01-3.44,1.53-6.96,2.89-10.54,4.06h-.03c-3.58-1.17-7.1-2.53-10.54-4.06-8.2-3.57-16.04-7.93-23.4-13.01-9.26-6.25-17.33-14.11-23.83-23.19-3.41-4.88-6.17-10.19-8.2-15.79-2.16-6.05-3.39-12.38-3.65-18.8V38.8h-17.5Zm116.48,53.3h0v54.37c-.03.3.04.6.2.86.13.16.46.25,1,.25h9.32c.8,0,1.2-.37,1.2-1.1v-72.24c.07-.6-.04-1.21-.3-1.75-.2-.23-.84-.35-1.9-.35h-11.91c-.47,0-.75.08-.85.25-.17.31-.32.63-.45.95l-23.71,58.88-23.71-58.88c-.13-.32-.28-.64-.45-.95-.1-.17-.38-.25-.85-.25h-11.91c-1.06,0-1.7.12-1.9.35-.27.54-.37,1.15-.3,1.75v72.24c0,.74.39,1.1,1.2,1.1h9.3c.54,0,.87-.08,1-.25.16-.26.22-.56.2-.86v-54.38l21.71,54.18c.07.25.23.46.45.6.41.09.83.12,1.25.1h8c.42.03.84,0,1.25-.1.22-.13.38-.35.45-.6l21.72-54.17Z" fill="#fff"/>
      <rect id="_사각형_23" data-name="사각형 23" width="300" height="300" fill="none"/>
      <path id="_패스_212" data-name="패스 212" d="m269.16,170.85c4.72-9.97,6.28-21.14,4.48-32.02-9.44,4.89-16.98,12.77-21.47,22.41-3.93,8.32-5.67,17.51-5.05,26.69-2.44,6.35-5.78,12.33-9.92,17.73-1.85.96-3.62,2.04-5.32,3.24-6,4.34-10.92,9.98-14.4,16.51-8.36,6.48-17.29,12.2-26.67,17.08-1.92.27-3.82.66-5.69,1.18-6.64,1.91-12.78,5.26-17.97,9.83-5.73,2.35-11.86,4.66-18.38,6.93-7.43-2.57-14.32-5.22-20.73-7.9-4.66-3.61-9.96-6.3-15.62-7.93-1.01-.29-2.03-.51-3.05-.72-11.09-5.55-21.56-12.25-31.25-19.99-3.43-6.03-8.12-11.25-13.75-15.31-1.2-.86-2.44-1.64-3.7-2.37-3.4-4.38-6.3-9.13-8.65-14.15,1.16-10.03-.51-20.18-4.82-29.31-4.48-9.64-12.03-17.52-21.47-22.41-1.8,10.88-.24,22.05,4.48,32.02,3.57,7.58,9.02,14.11,15.84,18.97,1.49,3.77,3.3,7.41,5.4,10.88-5.13-1.58-10.52-2.17-15.87-1.74,3.18,10.26,9.59,19.22,18.28,25.54,8.3,6.02,18.47,8.89,28.69,8.11,4.23,3,8.87,5.99,13.97,8.94-5.22.45-10.33,1.8-15.09,4,6.27,8.98,15.42,15.54,25.94,18.61,10.29,2.93,21.28,2.05,30.98-2.47-.28-.39-.59-.75-.88-1.13,3.41,1.28,6.89,2.56,10.54,3.81.49.17,1.02.17,1.51,0,3.38-1.16,6.64-2.34,9.82-3.53,9.65,4.46,20.59,5.31,30.82,2.4,10.51-3.07,19.66-9.63,25.94-18.61-4.44-2.04-9.18-3.35-14.04-3.87,4.35-2.59,8.36-5.19,12.05-7.81,10.09.68,20.1-2.19,28.29-8.13,8.69-6.32,15.1-15.28,18.28-25.54-5.04-.41-10.12.08-14.98,1.45,2.16-3.51,4.02-7.18,5.56-11,7.79-4.95,14.01-12.03,17.92-20.39Z" fill="#fff"/>
    </g>
  </g>
</svg>