<?xml version="1.0" encoding="UTF-8"?>
<svg id="Layer_2" data-name="Layer 2" xmlns="http://www.w3.org/2000/svg" viewBox="0 0 300 300">
  <g id="_레이어_1" data-name="레이어 1">
    <path id="_합치기_23" data-name="합치기 23" d="m65.16,273.68c35.92-18.26,78.18-47.57,119.41-82.94,3.5-2.99,6.95-6.01,10.34-9.03,8.47,9,20.28,14.1,32.64,14.1,24.84,0,44.97-20.14,44.98-44.98h0c0-12.34-5.07-24.13-14.03-32.6,10.02-11.45,18.99-22.66,26.66-33.36,9.79,20.29,14.87,42.54,14.84,65.08,0,82.88-67.16,150.06-150,150.06-30.3.04-59.89-9.14-84.84-26.32Zm-49.32-56.63c-1.62-3.24-3.13-6.53-4.52-9.89C3.83,189.02-.02,169.57,0,149.94,0,91.4,34.03,38.21,87.16,13.69c-3.63,6.63-5.53,14.08-5.52,21.65-.01,9.63,3.07,19.02,8.8,26.77l-21.96,20.85c-5.64-4.21-12.49-6.49-19.53-6.48-18.06,0-32.7,14.64-32.7,32.71h0c0,18.07,14.64,32.72,32.7,32.72h0c6.65,0,13.15-2.02,18.61-5.82l3.44,3.5,6.63,6.75,17.18,17.47c-2.68,4.46-4.09,9.57-4.09,14.78.02,15.94,12.93,28.85,28.87,28.87,15.93-.02,28.84-12.93,28.86-28.87-.02-15.93-12.93-28.85-28.86-28.87-6.24,0-12.32,2.02-17.31,5.78l-16.62-16.91-6.63-6.75-3.52-3.58c4-5.55,6.15-12.22,6.14-19.07,0-6.46-1.9-12.78-5.49-18.15l21.96-20.85c8.06,6.64,18.17,10.27,28.61,10.25,5.26,0,10.49-.91,15.43-2.72,8.26-3.02,15.46-8.39,20.72-15.44,5.81-7.78,8.95-17.24,8.93-26.96,0-13.77-6.28-26.79-17.08-35.33,25.81.79,50.97,8.26,73.03,21.68,3.14,1.91,6.21,3.91,9.19,6.03,17.69,12.62,32.45,28.91,43.25,47.77-.42.6-.8,1.19-1.23,1.8-8.72,12.21-18.06,23.95-27.99,35.19-7.04-4.35-15.16-6.65-23.43-6.65-24.84,0-44.97,20.15-44.98,44.99,0,8.24,2.28,16.32,6.58,23.34-3.54,3.15-7.11,6.28-10.75,9.4-41.77,35.81-84.52,65.34-120.38,83.14-.47.23-.91.43-1.38.66-17.09-13.61-31.01-30.78-40.81-50.31h-.01Zm75.99-38.48c0-4.91,1.3-9.72,3.78-13.96l3.39,3.45c-1.67,3.25-2.55,6.85-2.55,10.51,0,12.77,10.35,23.13,23.12,23.13s23.12-10.35,23.12-23.13c0-12.77-10.35-23.13-23.12-23.13-4.74,0-9.36,1.46-13.24,4.18l-3.28-3.33c4.77-3.56,10.57-5.48,16.52-5.48,15.32.02,27.73,12.44,27.75,27.76-.02,15.32-12.43,27.74-27.75,27.75-15.31-.03-27.72-12.44-27.73-27.76h-.01Zm18.21-119.71c-3.06-2.17-5.66-4.92-7.67-8.09-2.94-4.61-4.5-9.97-4.5-15.44.02-15.93,12.93-28.85,28.86-28.87,15.93.02,28.84,12.93,28.87,28.87-.02,15.94-12.93,28.85-28.87,28.87-5.98,0-11.81-1.86-16.68-5.33h-.01Zm-6.43-23.54c0,4,1.04,7.93,3.02,11.4,1.87,3.27,4.5,6.05,7.67,8.08,3.71,2.38,8.02,3.64,12.43,3.64,12.77,0,23.12-10.35,23.12-23.13,0-12.77-10.35-23.13-23.12-23.13-12.76,0-23.11,10.36-23.11,23.12h-.01Zm10-.5c0-7.26,5.88-13.14,13.14-13.14s13.13,5.88,13.13,13.14-5.88,13.14-13.13,13.14c-7.25,0-13.12-5.89-13.12-13.14h-.01Z" fill="#fff"/>
  </g>
</svg>