<?xml version="1.0" encoding="UTF-8"?>
<svg id="Layer_2" data-name="Layer 2" xmlns="http://www.w3.org/2000/svg" viewBox="0 0 300 300">
  <g id="_레이어_1" data-name="레이어 1">
    <g>
      <g>
        <rect x="213.86" y="206.59" width="86.14" height="31.37" fill="#fff"/>
        <rect y="206.59" width="86.14" height="31.37" fill="#fff"/>
        <rect y="110.21" width="86.14" height="31.38" fill="#fff"/>
        <rect y="158.41" width="86.14" height="31.36" fill="#fff"/>
        <rect x="213.86" y="110.23" width="86.14" height="31.38" fill="#fff"/>
        <rect x="213.86" y="158.41" width="86.14" height="31.36" fill="#fff"/>
        <rect x="0" y="62.03" width="300" height="31.38" fill="#fff"/>
        <path d="m268.62,13.86H0v31.37h300v-.04c-.01-17.31-14.06-31.34-31.38-31.33Z" fill="#fff"/>
        <polygon points="237.2 286.13 300 286.13 300 254.78 213.86 254.78 237.2 286.13" fill="#fff"/>
        <path d="m0,254.79c0,17.31,14.04,31.35,31.36,31.35h83.03s-23.32-31.35-23.32-31.35H0Z" fill="#fff"/>
      </g>
      <rect width="300" height="300" fill="none"/>
    </g>
  </g>
</svg>