<?xml version="1.0" encoding="UTF-8"?>
<svg id="Layer_2" data-name="Layer 2" xmlns="http://www.w3.org/2000/svg" viewBox="0 0 300 300">
  <g id="_레이어_1" data-name="레이어 1">
    <g>
      <path id="_합치기_16" data-name="합치기 16" d="m22,71.17L150,0l-85.68,68.66s-1.02,117.82,85.68,167.23c86.7-49.41,85.68-167.23,85.68-167.23L150,0l128,71.17s-8.66,184.65-128,228.83C30.65,255.83,22,71.17,22,71.17Zm47.45.44L150.01,7.05l80.56,64.56s.96,110.77-80.56,157.23c-81.53-46.45-80.56-157.23-80.56-157.23h0Zm5.57,3.21s-.9,103.11,74.98,146.35c75.88-43.23,74.98-146.35,74.98-146.35L150,14.73l-74.98,60.09Zm74.98,88.54h-12.21l5.44-29c-5.04-3.71-6.09-10.77-2.35-15.77,3.74-5,10.86-6.04,15.89-2.33,5.04,3.71,6.09,10.77,2.35,15.77-.66.89-1.45,1.67-2.35,2.33l5.44,29h-12.22Z" fill="#fff"/>
      <rect width="300" height="300" fill="none"/>
    </g>
  </g>
</svg>