<?xml version="1.0" encoding="UTF-8"?>
<svg id="Layer_2" data-name="Layer 2" xmlns="http://www.w3.org/2000/svg" viewBox="0 0 300 300">
  <g id="_레이어_1" data-name="레이어 1">
    <g>
      <g>
        <path d="m157.91,143.84v87.3h78V92.27c0-42.66-38.54-77.37-85.9-77.37s-85.91,34.7-85.91,77.37v138.86h75.42v-87.3h-53.66v-18.45h53.66v-50.86h18.39v50.86h53.66v18.45h-53.66Z" fill="#fff"/>
        <path d="m58.05,92.27c0-46.01,41.25-83.44,91.95-83.44s91.95,37.43,91.95,83.44v138.86h7.05V88.4C249,39.58,204.68,0,150,0S51,39.58,51,88.4v142.74h7.05V92.27Z" fill="#fff"/>
        <polygon points="172.77 281.7 151.17 244.17 151.17 299.99 183.3 299.99 176.26 287.76 172.77 281.7" fill="#fff"/>
        <polygon points="64.1 279.7 138.63 236.53 51 236.53 51 287.28 58.05 283.2 64.1 279.7" fill="#fff"/>
        <polygon points="117.93 281.7 141.21 241.25 71.38 281.7 60.91 287.77 51 293.51 51 300 107.42 300 114.45 287.77 117.93 281.7" fill="#fff"/>
        <polygon points="120.65 287.76 113.61 300 145.8 300 145.8 244.05 124.14 281.7 120.65 287.76" fill="#fff"/>
        <polygon points="225.15 281.7 155.89 241.58 178.97 281.7 182.47 287.77 189.51 300 249 300 249 295.52 235.62 287.77 225.15 281.7" fill="#fff"/>
        <polygon points="235.9 236.53 157.9 236.53 235.9 281.7 241.95 285.21 249 289.29 249 236.53 235.9 236.53" fill="#fff"/>
      </g>
      <rect width="300" height="300" fill="none"/>
    </g>
  </g>
</svg>