<?xml version="1.0" encoding="UTF-8"?>
<svg id="Layer_2" data-name="Layer 2" xmlns="http://www.w3.org/2000/svg" viewBox="0 0 300 300">
  <g id="_레이어_1" data-name="레이어 1">
    <g>
      <g>
        <path d="m88.07,239.45c.83.59,1.68,1.18,2.52,1.75h0c14.78,9.85,32.28,15.36,47.36,18.44,3.34-2.93,6.62-5.91,9.84-8.94-12.69-9.74-21.66-23.48-25.42-38.94-.73-2.93-1.26-5.9-1.61-8.9-3.22-27.11,8.08-58.74,38.54-86.5,62.28-56.77,0-116.35,0-116.35,52.39,93.23-102.67,94.63-101.19,182.24.46,27.09,13.15,45.16,29.95,57.21Z" fill="#fff"/>
        <path d="m129.26,272.04h0c5.35-3.6,10.63-7.3,15.84-11.08,0,0,0,0,.01,0,9.24,1.57,18.57,2.44,27.94,2.59h.12c-6.92-2.05-13.53-5.04-19.64-8.86,19.98-15.08,38.54-31.92,55.45-50.32,11.05-12.86,39.68-45.61,25.35-62.55-15.67-15.72-51.25,9.35-65.26,19.05-17.18,12.73-33.32,26.77-48.28,42,.35,3,.89,5.97,1.61,8.9,17.28-14.29,35.51-27.41,54.58-39.26,12.36-7.41,25.12-15.03,38.75-18.77,1.99-.58,4.06-.82,6.13-.7,0-.24,0-.49-.02-.73-.01.04,0,.08.02.12.08,0,.09.31.29.36.03.19.34.23.33.31.03.03.08.04.12.03-.03.01-.06.01-.08,0-.21-.05-.44-.05-.66-.07-.08,2.05-.52,4.07-1.3,5.98-5.09,13.06-13.96,24.91-22.58,36.39-15.28,19.66-32.05,38.14-50.15,55.29-3.23,3.04-6.51,6.02-9.84,8.95-4.34,3.83-8.77,7.56-13.28,11.2-15.28-4.33-29.64-11.35-42.41-20.72.43-.5.85-.98,1.22-1.41l7.08-7.51c-.85-.57-1.69-1.15-2.53-1.75-2.12,2.6-4.22,5.22-6.29,7.85-.35.47-.74,1-1.16,1.57-9.41-6.91-17.71-15.2-24.62-24.57,4.63,11.88,10.65,23.18,17.92,33.67.28.39.55.78.83,1.17,7.74,10.88,17.66,20.08,29.14,27.01.51.3,1.02.6,1.54.9,14.32,8.12,31.98,12.95,54.08,12.96,51.96,0,84.49-43.24,84.49-43.24-47.42,21.43-85.54,22.45-114.74,15.28Z" fill="#fff"/>
      </g>
      <rect width="300" height="300" fill="none"/>
    </g>
  </g>
</svg>