<?xml version="1.0" encoding="UTF-8"?>
<svg id="Layer_2" data-name="Layer 2" xmlns="http://www.w3.org/2000/svg" viewBox="0 0 300 300">
  <g id="_레이어_1" data-name="레이어 1">
    <g>
      <g>
        <path d="m294.83,257.88c.02-80.38.05-160.76.09-241.13,0-7.97.64-15.92-10.61-15.88-12.49.04-24.98-.21-37.46-.14-75.87.37-151.73,1.11-227.6.85-11.64-.04-14.29,3.65-14.25,14.59.27,82.76.1,165.53.12,248.3,0,3.47.55,6.94.85,10.42l3.07-.09V6.61h280.36c.63,1.65,1.08,3.36,1.35,5.1.05,90.9.11,181.8.16,272.7.02,10.18-5.35,11.8-13.32,11.74-18.91-.15-37.82-.04-56.74-.04l-.03,3.1c22.13,0,44.27.32,66.37-.43,2.62-.09,6.9-5.89,7.23-9.37.98-10.43.4-21.01.4-31.54Z" fill="#fff"/>
        <path d="m26.9,274.73c30.16,16.93,157.6,16.04,178.24-1.26-23.3-18.93-163.12-17.94-178.24,1.26Z" fill="#fff"/>
        <path d="m26.9,236.12c.09-.11.18-.22.27-.33v.06L221.34,22.4c-60.33,0-122.03.07-183.73-.09-7.04-.02-10.57,2.13-10.55,10.7.02,6.82.03,13.65.05,20.47-.07-.15-.14-.29-.21-.44v183.08Z" fill="#fff"/>
        <path d="m274.65,266.3V70.11l-57.28,211.66h41.8c8.55,0,15.48-6.93,15.48-15.47Z" fill="#fff"/>
      </g>
      <rect width="300" height="300" fill="none"/>
    </g>
  </g>
</svg>