<?xml version="1.0" encoding="UTF-8"?>
<svg id="Layer_2" data-name="Layer 2" xmlns="http://www.w3.org/2000/svg" viewBox="0 0 300 300">
  <g id="_레이어_1" data-name="레이어 1">
    <g id="_09비즈니스_shape_09_0008" data-name=" 09비즈니스 shape 09 0008">
      <path id="_패스_1295" data-name="패스 1295" d="m247.28,234.5h-36.1c3.01-2.46,3.26-8.17,3.26-8.17l8.09.15,13.08.25,16.47.31,6.65.12-.08,4.21-4.37-.08-.06,3.2h-6.95Zm-46.57,0h-19.88c-2.19-2.32-3.82-5.12-4.77-8.17-.53-1.56-.94-3.15-1.2-4.78l4.24.04,11.9.12.04-2.23,2.31-3.94.42-16.76.06-2.42-11.45-.46-16.25-.66-12.9-.52h-.03l.25-13.28,6.98.13-.03,1.94h.05l12.12,1.74,15.26,2.2,12.12,1.74,15.26,2.19,12.12,1.74,15.26,2.2,12.12,1.74,15.25,2.19,12.12,1.74,17.93,2.58v1.48l-19.38-1.82-12.49-1.16-15.71-1.48-12.49-1.17-15.72-1.47-12.49-1.17h-.16s-2.92-5.3-7.76-5.11c-4.38.18-5.82,4.84-5.82,4.84-2.78,7.76-3.35,16.13-1.65,24.19.99,4.39,2.81,8.55,5.35,12.26.4.57.77,1.08,1.11,1.52h-2.08Zm-59.82,0h-17.39c1.76-1.97,3.13-4.27,4.04-6.75l-.99-.02c1.51-6.46,2.01-13.11,1.49-19.73-.31-4.06-1.46-8-3.38-11.59-.39-.68-.8-1.29-1.21-1.88-2.62-4.18-7.05-6.88-11.97-7.3-.38-.03-.75-.05-1.09-.05l-3.08.37-5.84,8.86,4.75-13,.09-4.66,10,.97,12.85,1.25-.07,3.69s.08.3.2.79c.64,2.54,2.55,10.69,1.99,14.18l-.07,3.4-.4,21.72,3.07.06,13.08.25,5.67.1s-.03,6.32-3.95,9.33h-7.82Zm-43.15,0h-2.64c-1.62-2.36-2.76-5-3.38-7.79l-5.56-.1-13.09-.24-8.77-.17-1.93,2.29-7.25-.14-4.32-.08c-1,2.38-2.52,4.51-4.45,6.23h-25.09l.18-.28c-2.85-2.82-4.9-6.35-5.93-10.23h-.72s-5.87-.12-5.87-.12l.09-4.42-3.66-6.71-3.28-6.03.18-9.73.49-25.96,9-3.71.06-3.1-3.49-.07-.81-1.2-1.84-2.73s.42-6.97,1.07-16.67c.18-2.64.36-5.46.57-8.43h0c.46-6.65.97-13.86,1.51-20.71l-2.68,4.14-.86,13.18-4.07-.08.1-5.6.14-7.21.86-7.25-2.29-1.89,3.97-4.53,3.89-.75-.87,5.42,2.15.04c.64-7.88,1.29-14.93,1.87-19.5.09-.68.17-1.31.25-1.88.15-1.04.29-1.88.43-2.48,1.17-5.13,5.26-8.35,8.7-10.21,1.62-.9,3.34-1.61,5.12-2.14l10.63-1.78,18.68-3.12,14.84-2.48,4.75-.79h11.67c-5.18,2.8-5.77,5.31-5.77,5.31l-.09,4.98-.03,1.7c4.12-.49,8.28-.62,12.43-.4.86.04,1.7.27,2.45.68.97.7,1.44,9.14,1.64,18.86.01.83.03,1.65.05,2.49,1.44-.36,2.93-.53,4.42-.53l.18-9.17.15-7.82,4.16,1.11,11.29,3.03,8.79,2.36-.19,10.19-.4,21.19-.11,5.99-3.37-.58-11.92-2.05-4.24-.72-.9-.02-.24-.18-2.66-.46-.03,1.74-4.39,1.37h-.5c-.02,1.76-.03,2.8-.03,2.8l-6.64.07-4.13.04v.08s-2.92-.05-2.92-.05l-.21,11.2-.3,16.34,6.86-.62,2.95-.27,1.23,1.48,7.62,1.01,15.35,2.04,12.2,1.63,15.35,2.04,1.47-2.29-1.88-22.98-1.49-18.26-1.88-22.98-1.41-17.2-.58-.29-7.2-3.64-3.87-5.07-3.19-4.18h17.92l2.15,3.85,4.26,7.62.24,5.98.97,24.39.77,19.37.97,24.39.5,12.5-2.98,3.44,2.48,4.64.9,1.68-1.95-.04-5.9-.11-2.41-3.54-3.42,1.29-.97.37-15.14-1.24-12.58-1.02h-.17s-1.28-1.93-1.28-1.93l-13.5-.76-6.02-.34-6.02.08-.69,20.06-.15,4.56-3.15.57-.75,1.18-.1,15.26,1.81,6.63.12,1.18.54,5.24,1.93-6.12,10.66,1.05,4.81.48c-.98,4.94-.19,10.07,2.23,14.49.74,1.34,1.6,2.62,2.57,3.8h-5.03Zm17.59-6.4c-.07,0-.14-.01-.21-.02-3.56-.21-6.49-3.85-7.55-8.85-.31-1.47-.45-2.98-.42-4.48.14-7.29,4.02-13.13,8.69-13.04.9.03,1.78.27,2.57.7,3.21,1.69,5.5,6.34,5.61,11.87,0,.27.01.53.01.81-.14,7.23-3.97,13.04-8.58,13.04h-.11Zm86.03-12.66c.02-1.11.18-2.21.48-3.28.43-1.85,1.49-3.5,2.99-4.66.67-.47,1.48-.72,2.3-.72,3.09.06,5.52,4.03,5.43,8.87,0,.15-.01.31-.03.46-.22,4.37-2.48,7.85-5.26,8.17-.16.02-.32.03-.48.03-3.09-.06-5.53-4.03-5.44-8.87h0Zm-107.84-.3l-10.8-.92-.7-1.78-2.54-6.51,2.72.05.05-2.82,5.68.11,5.38.1.16-8.71.5-26.68.02-.77.46.03,11.17.65-.15,8.14-.14,7.3-3.15,7.6-3.2-.07,2.49,6.75-.32,5.69-.7,12.42-6.92-.59Zm.68-59.96l.15-8.4.36-18.94,2.05-.45.51-1.54,2.42.05-.24,12.97-.31,16.42-4.94-.1Z" fill="#fff"/>
      <rect id="_사각형_3020" data-name="사각형 3020" width="300" height="300" fill="none"/>
    </g>
  </g>
</svg>