<?xml version="1.0" encoding="UTF-8"?>
<svg id="Layer_2" data-name="Layer 2" xmlns="http://www.w3.org/2000/svg" viewBox="0 0 300 300">
  <g id="_레이어_1" data-name="레이어 1">
    <g>
      <g>
        <path d="m165.44,86.9c-.31-.05-.63-.04-.94,0-10.6.08-21.2.2-31.8.35-1.74-.24-3.34.98-3.58,2.72-.04.29-.04.59,0,.88.1,11.29.23,22.58.4,33.87-.14,1.71,1.12,3.21,2.83,3.36.18.02.37.01.55,0h0c1.65.06,3.3-.02,4.95-.04,8.88-.11,17.76-.23,26.64-.3,1.6.19,3.15-.67,3.83-2.14.09-.49.14-.98.17-1.48-.12-11.22-.26-22.45-.41-33.67.25-1.71-.94-3.31-2.65-3.55Z" fill="#fff"/>
        <path d="m172.42,97.91c.07,6.11.14,11.87.2,17.88,19.39,3.68,37.39,10.1,52.53,23.09-11.06-20.44-30.19-35.3-52.74-40.97Z" fill="#fff"/>
        <path d="m72.56,138.71c15.78-11.22,33.68-19.09,52.62-23.14-.07-5.64-.14-11.23-.21-17.05-21.75,6.61-40.37,20.89-52.41,40.18Z" fill="#fff"/>
        <path d="m148.68,74.16h-.19c-4.76,0-8.61,3.87-8.6,8.62v.24l17.25-.2c.06-4.73-3.73-8.61-8.46-8.66Z" fill="#fff"/>
        <path d="m214.97,45.29c-4.69-5.44-11.53-8.55-18.71-8.49h-92.53c-7.18-.06-14.02,3.04-18.71,8.49L0,123.83l149.21,139.03c.09.09.19.17.3.23.28.14.6.15.88.04.15-.06.28-.15.39-.27l149.21-139.03-85.03-78.53Zm-54.51,170.89c-.33-25.03-.68-44.32-.89-54.45-.28-13.71-.58-22.85-.7-26.57-.03-1.06-.07-2.12-.11-3.18l-19.18.24c-.03.92-.08,1.61-.08,2.29-.07,13.72-.2,23.95-.13,27.13.19,8.63.26,24.96.1,55.1l-47.95-46.32-51.57-47.2,64.97-55.66c3.25-3.77,8-5.93,12.98-5.89h64.18c4.98-.04,9.73,2.11,12.98,5.89l63.65,57.28c-12.35,11.46-29.73,27.6-42.07,39.07-18.73,17.41-37.46,34.84-56.18,52.28Z" fill="#fff"/>
      </g>
      <rect width="300" height="300" fill="none"/>
    </g>
  </g>
</svg>