<?xml version="1.0" encoding="UTF-8"?>
<svg id="Layer_2" data-name="Layer 2" xmlns="http://www.w3.org/2000/svg" viewBox="0 0 300 300">
  <g id="_레이어_1" data-name="레이어 1">
    <g>
      <g>
        <path d="m233.97,219.04h0c-27.7-2.44-53.68-14.45-73.49-33.96-2.87-2.78-5.69-5.79-8.47-9.01-8.65-10.18-16.05-21.36-22.05-33.3-16.74-32.77-43.39-50.78-79.23-53.54-14-.95-28.07.26-41.7,3.59-28.28,78.1,12.1,164.34,90.2,192.62,70.22,25.43,148.47-4.52,183.76-70.34-11.84,2.99-24,4.51-36.21,4.53-4.11,0-8.39-.18-12.8-.59Z" fill="#fff"/>
        <path d="m135.24,98.69c25.71,0,46.56-20.84,46.57-46.56-.02-25.71-20.86-46.55-46.57-46.58-25.72,0-46.57,20.85-46.57,46.57s20.85,46.57,46.57,46.57Z" fill="#fff"/>
        <path d="m237.08,157.22c17.18,0,31.1-13.93,31.11-31.11-.02-17.17-13.94-31.09-31.11-31.11-17.18,0-31.11,13.93-31.11,31.11,0,17.18,13.93,31.11,31.11,31.11Z" fill="#fff"/>
        <path d="m253.65,180.7c-17.93,5.88-36.66,8.95-55.53,9.09h-.01c-8.63,0-17.24-.72-25.74-2.16,17.59,14.53,39.2,23.33,61.94,25.22,17.65,1.53,35.44-.25,52.43-5.25,7.08-15.15,11.56-31.38,13.26-48.02-14.59,8.79-30.14,15.87-46.35,21.12Z" fill="#fff"/>
      </g>
      <rect x="0" width="300" height="300" fill="none"/>
    </g>
  </g>
</svg>