<?xml version="1.0" encoding="UTF-8"?>
<svg id="Layer_2" data-name="Layer 2" xmlns="http://www.w3.org/2000/svg" viewBox="0 0 300 300">
  <g id="_레이어_1" data-name="레이어 1">
    <g id="symbol_11_01_0002_01" data-name="symbol 11 01 0002 01">
      <path id="_패스_512" data-name="패스 512" d="m149.71,270.44v29.38C85.54,303.49,6.26,251.13.34,160.34-5.57,69.6,65.61-3.13,157.36.1c87.66,3.09,145.28,79.4,142.55,149.64h-30.14c-2.37-44.27-21.89-79.22-60.33-102.37-23.81-14.32-52.02-19.46-79.34-14.45-55.33,9.03-98.11,59.2-98.8,116.92-.64,53.31,40.18,116.02,118.41,120.59Z" fill="#fff"/>
      <path id="_패스_513" data-name="패스 513" d="m150.88,80.65v-28.81c25.93-5.89,66.59,16.48,84.89,46.76,22.75,37.63,18.28,84.76-11.25,118.63-27.25,31.25-73.75,41.56-113.01,25.04-36.63-15.41-63.16-55.21-60.27-91.25h30.45c1.99,22.88,10.92,42.45,30.64,55.76,12.81,8.92,28.39,12.97,43.93,11.41,33.14-2.89,59.34-29.3,61.96-62.46,3.51-36.92-18.28-61.37-67.33-75.08Z" fill="#fff"/>
      <circle id="_타원_10" data-name="타원 10" cx="150.61" cy="150" r="30.18" transform="translate(-30.43 38.62) rotate(-13.28)" fill="#fff"/>
    </g>
  </g>
</svg>