<?xml version="1.0" encoding="UTF-8"?>
<svg id="Layer_2" data-name="Layer 2" xmlns="http://www.w3.org/2000/svg" viewBox="0 0 300 300">
  <g id="_레이어_1" data-name="레이어 1">
    <g id="_09비즈니스_shape_09_0004" data-name=" 09비즈니스 shape 09 0004">
      <circle id="_타원_4" data-name="타원 4" cx="73.1" cy="90.11" r="22.37" fill="#fff"/>
      <circle id="_타원_5" data-name="타원 5" cx="151.12" cy="97.98" r="19.35" fill="#fff"/>
      <circle id="_타원_6" data-name="타원 6" cx="227.32" cy="90.11" r="22.37" fill="#fff"/>
      <path id="_패스_198" data-name="패스 198" d="m114.33,232.24c-.68,0-1.35-.23-1.89-.66l-.28-.22c-14.43-11.47-22.83-28.9-22.79-47.33-.17-17.09,7.06-33.42,19.83-44.77-24.71-17.15-58.65-11.02-75.8,13.69-6.33,9.13-9.73,19.97-9.72,31.08,0,1.67-1.35,3.02-3.02,3.02s-3.02-1.35-3.02-3.02h0c-.02-33.42,27.06-60.52,60.48-60.54,12.93,0,25.52,4.13,35.93,11.8,10.29-7.61,22.74-11.74,35.53-11.8.17-.03.35-.04.52-.04,12.91-.01,25.49,4.12,35.87,11.8,26.9-19.83,64.78-14.09,84.61,12.82,7.67,10.41,11.8,23,11.8,35.93,0,1.67-1.35,3.02-3.02,3.02s-3.02-1.35-3.02-3.02h0c.01-30.08-24.36-54.48-54.44-54.49-11.11,0-21.95,3.39-31.08,9.72,12.64,11.45,19.84,27.72,19.83,44.77-.13,18.39-8.49,35.75-22.78,47.32l-.29.23c-1.1.88-2.67.88-3.77,0-26.13-21.25-30.09-59.67-8.83-85.8,1.89-2.32,3.95-4.5,6.16-6.53-9.01-6.28-19.72-9.67-30.7-9.72-.17.03-.34.04-.51.04-11.09-.01-21.93,3.38-31.03,9.72,24.86,22.73,26.58,61.31,3.85,86.17-2.02,2.21-4.2,4.27-6.53,6.16-.53.43-1.2.66-1.89.66h.02Zm-.28-89.21c-11.84,10.33-18.63,25.28-18.63,40.99-.11,15.87,6.81,30.97,18.89,41.26,22.65-20.23,24.61-54.99,4.38-77.63-1.46-1.63-3.01-3.17-4.65-4.62h0Zm71.92-.05c-22.78,20.08-24.97,54.82-4.89,77.6,1.45,1.64,2.99,3.19,4.62,4.65,12.02-10.33,18.93-25.41,18.89-41.26-.07-15.7-6.85-30.62-18.63-40.99h0Z" fill="#fff"/>
      <rect id="_사각형_22" data-name="사각형 22" width="300" height="300" fill="none"/>
    </g>
  </g>
</svg>