<?xml version="1.0" encoding="UTF-8"?>
<svg id="Layer_2" data-name="Layer 2" xmlns="http://www.w3.org/2000/svg" viewBox="0 0 300 300">
  <g id="_레이어_1" data-name="레이어 1">
    <g>
      <g>
        <path d="m299.96,122.04c-.01-6.8-5.54-12.33-13.14-13.46-1.79-.26-3.61-.39-5.41-.39-7.18,0-14.37,0-21.55,0,0-10.99,0-21.98-.03-32.97-.01-8.34-6.74-15.39-15.99-16.76-1.91-.28-3.9-.43-5.91-.43-63.01-.02-126.01-.01-189.02-.02h-27c-3.79,0-9.42.4-14.56,3.87-3.83,2.59-5.73,6.24-7.08,9.47-.17.41-.26.85-.26,1.29v38.94c0,1.78,1.4,3.26,3.19,3.34,7.14.34,12.73,6.2,12.73,13.34s-5.59,13-12.73,13.34c-1.78.08-3.19,1.56-3.19,3.34v38.47c0,.33.05.66.15.98,2.68,8.77,9.37,13.51,19.89,14.1.37.02.74.03,1.11.03.18,0,.36,0,.55,0h.51s24.62,0,24.62,0v31.72c2.55,8.34,8.85,11.29,16.88,11.74.66.04,1.32.01,1.98.01,71.84,0,143.69,0,215.53,0,5.59,0,10.82-.95,15-5.08,2.47-2.44,3.77-5.38,3.77-8.84.01-35.35.04-70.69-.02-106.04Zm-174.88,69.78h-17.38s-60.88,0-60.88,0h-24.62s-.56,0-.56,0c-.41,0-.82.01-1.22-.01-7.55-.42-11.8-3.18-13.72-8.92v-35.01c9.14-1.91,15.92-9.99,15.92-19.62s-6.77-17.7-15.92-19.61v-35.31c1.3-2.96,2.6-4.69,4.4-5.9,2.8-1.89,6.13-2.73,10.82-2.73h27c63.01,0,126.01,0,189.02.02,1.68,0,3.33.12,4.92.36,6.05.9,10.28,5.07,10.29,10.15.02,10.99.02,21.98.03,32.96,0,10.84,0,21.68,0,32.53,0,5.42,0,10.85,0,16.27,0,3.42,0,6.83,0,10.25v14.02c0,2.5-.92,4.62-2.78,6.46-.79.78-1.66,1.43-2.61,1.98-2.54,1.47-5.71,2.13-10.03,2.13h-6.99s-14.6,0-14.6,0h-35.13s-55.94,0-55.94,0Z" fill="#fff"/>
        <path d="m81.64,102.26h-17.37c-1.85,0-3.34,1.5-3.34,3.34v14.91c0,1.85,1.5,3.34,3.34,3.34h17.37c1.85,0,3.34-1.5,3.34-3.34v-14.91c0-1.85-1.5-3.34-3.34-3.34Zm-3.34,14.91h-10.69v-8.22h10.69v8.22Z" fill="#fff"/>
        <path d="m81.65,71.92h-17.36c-1.85,0-3.34,1.5-3.34,3.34v14.87c0,1.85,1.5,3.34,3.34,3.34h17.36c1.85,0,3.34-1.5,3.34-3.34v-14.87c0-1.85-1.5-3.34-3.34-3.34Zm-3.34,14.87h-10.68v-8.18h10.68v8.18Z" fill="#fff"/>
        <path d="m81.59,163.02h-17.3c-1.85,0-3.34,1.5-3.34,3.34v14.88c0,.34.07.67.16.98.42,1.36,1.68,2.36,3.18,2.36h17.3c1.85,0,3.34-1.5,3.34-3.34v-14.88c0-1.85-1.5-3.34-3.34-3.34Zm-3.34,14.88h-10.61v-8.19h10.61v8.19Z" fill="#fff"/>
        <path d="m81.61,132.63h-17.38c-1.85,0-3.34,1.5-3.34,3.34v14.92c0,1.85,1.5,3.34,3.34,3.34h17.38c1.85,0,3.34-1.5,3.34-3.34v-14.92c0-1.85-1.5-3.34-3.34-3.34Zm-3.34,14.92h-10.69v-8.23h10.69v8.23Z" fill="#fff"/>
        <path d="m217.08,98.07c-.31-1.08-.75-2.08-1.29-2.97-1.63-2.69-4.26-4.52-7.62-5.24-4.64-1.01-8.96.45-12.49,4.2l-1.95,2.06c-2.89,3.05-5.87,6.2-8.72,9.42-.07.08-.12.13-.16.17-.09-.02-.22-.05-.4-.1-9.36-2.89-18.9-5.72-28.13-8.46l-2.39-.71c-.65-.19-1.31-.45-1.99-.71-2.29-.88-4.88-1.86-7.55-1.16-2.65.7-4.42,2.8-5.98,4.65-.48.57-.95,1.13-1.44,1.63-.99,1-2.84,2.85-2.48,5.38.05.32.12.61.22.89.14.39.35.74.57,1.06.89,1.28,2.27,2.07,3.14,2.55l27.63,15.21c-.11.09-.22.19-.32.29-2.84,2.52-5.52,4.9-7.81,7.81-3.14,3.98-5.85,4.81-9.99,3.06-.41-.17-.84-.33-1.3-.47-.91-.27-1.89-.45-2.92-.45-2.57,0-5.41,1.08-8.01,4.49-2.75,3.61-1.35,6.33.3,7.97,3.78,3.75,7.55,7.52,11.32,11.29,3.81,3.8,7.62,7.61,11.44,11.4.19.18.42.4.7.62.83.66,2.06,1.35,3.52,1.35h.01c1.79,0,3.58-1.08,5.31-3.21.79-.97,3.31-4.36,2.7-7.34l-.5-2.4c-.47-2.25-.96-4.57-1.29-6.86,3.74-3.97,7.51-7.87,11.49-11.98l.53-.55,3.68,6.68,2.23,4.06c1.29,2.35,2.59,4.7,3.88,7.06,1.9,3.45,3.79,6.89,5.69,10.34.61,1.1,1.87,3.39,4.39,3.77,2.53.37,4.42-1.48,5.34-2.37.54-.53,1.07-1.08,1.6-1.63.16-.17.31-.32.47-.48.72-.74,1.42-1.45,2.14-2.06,3.38-2.83,2.33-6.27,1.98-7.4-.85-2.79-1.69-5.59-2.53-8.39-.67-2.22-1.34-4.44-2.01-6.66-2.07-6.88-4.13-13.76-6.26-20.63-.23-.74-.2-.98-.2-.98,0,0,.08-.18.53-.57,3.93-3.39,7.62-6.93,11.37-10.56.95-.92,1.73-1.9,2.35-2.95,1.81-3.03,2.25-6.52,1.2-10.12Zm-8.21,8.26h0c-.65.63-1.29,1.24-1.94,1.86-3.01,2.9-6.02,5.75-9.14,8.45-3.54,3.06-3.04,6.37-2.35,8.59,2.12,6.84,4.18,13.7,6.24,20.57.25.82.49,1.63.74,2.45,1.26,4.21,2.53,8.42,3.81,12.63.04.15.07.26.09.34-1.14.96-2.14,2-3.11,3-.26.27-.53.54-.79.81-.07.07-.13.14-.2.21t0,0s0,0,0,0c-.08-.15-.17-.3-.25-.45-3-5.44-5.99-10.87-8.98-16.31l-2.12-3.85-4.14-7.52c-.31-.57-.64-1.13-1.08-1.89l-.84-1.45c-.52-.91-1.45-1.52-2.49-1.65-.07,0-.15,0-.22,0-.97-.05-1.92.3-2.59,1l-3.63,3.75c-4.08,4.21-7.93,8.19-11.77,12.28-1.22,1.3-1.87,3.5-1.57,5.37.39,2.45.9,4.87,1.4,7.22l.42,2.03c-.18.6-.82,1.61-1.42,2.31-3.64-3.62-7.27-7.24-10.9-10.86-3.56-3.56-7.13-7.12-10.8-10.77,1.48-1.81,2.51-1.82,4.07-1.17,6.89,2.91,12.89,1.2,17.84-5.08,1.93-2.44,4.39-4.63,7-6.95,1.26-1.12,2.55-2.27,3.83-3.48.76-.73,1.14-1.77,1.02-2.82-.12-1.05-.73-1.97-1.64-2.5l-1.28-.75c-.68-.4-1.18-.69-1.68-.97l-22.75-12.52-5.55-3.05c.49-.53.95-1.07,1.4-1.6.78-.93,1.97-2.34,2.57-2.5.59-.16,2.38.53,3.45.95.84.32,1.67.63,2.47.87l2.39.71c5.1,1.51,10.3,3.06,15.51,4.62,4.19,1.26,8.39,2.53,12.55,3.81,1.94.59,4.83,1.04,7.54-2.02.53-.6,1.08-1.19,1.63-1.78,2.29-2.53,4.64-5.04,6.95-7.47l1.96-2.07c1.89-2,3.62-2.44,4.98-2.41.27,0,.52.04.77.07.16.02.32.05.47.08,2.06.44,3.34,1.6,3.9,3.54.18.61.27,1.2.29,1.77.05,1.71-.64,3.23-2.07,4.62Z" fill="#fff"/>
      </g>
      <rect width="300" height="300" fill="none"/>
    </g>
  </g>
</svg>