<?xml version="1.0" encoding="UTF-8"?>
<svg id="Layer_2" data-name="Layer 2" xmlns="http://www.w3.org/2000/svg" viewBox="0 0 300 300">
  <g id="_레이어_1" data-name="레이어 1">
    <g>
      <path d="m255.7,111.7c0-58.29-47.42-105.7-105.7-105.7-10.46,0-20.57,1.54-30.12,4.38-.12.03-.24.07-.36.11-43.47,13.12-75.22,53.52-75.22,101.22,0,43.27,26.14,80.54,63.45,96.88l8.42,31.19c-2.99.31-5.33,2.81-5.33,5.88v42.42c0,3.28,2.66,5.94,5.94,5.94h64.33c3.28,0,5.94-2.66,5.94-5.94v-42.42c0-2.35-1.38-4.36-3.36-5.32l8.57-31.74c37.31-16.34,63.45-53.61,63.45-96.88Zm-130.64,90.44c-22.27-34.39-28.97-75.31-19.87-121.67,5.83-29.72,16.67-52.43,20.18-59.29,6.01-1.64,12.26-2.69,18.69-3.09v187.24c-6.53-.41-12.89-1.5-18.99-3.18Zm30.87-184.06c5.4.34,10.67,1.14,15.78,2.36,3.03,5.81,14.5,29.14,20.56,60.02,9.16,46.72,2.3,87.9-20.38,122.46-5.17,1.24-10.5,2.06-15.96,2.4V18.08Zm87.89,93.62c0,37.73-22.4,70.3-54.58,85.19,18.22-34.41,23.29-75.24,14.61-119.09-4.44-22.42-11.44-40.78-16.46-52.13,33.17,14.48,56.43,47.58,56.43,86.03Zm-187.65,0c0-37.22,21.79-69.45,53.28-84.6-4.97,11.43-11.58,29.2-15.84,50.7-8.54,43.16-3.76,83.37,13.76,117.44-30.36-15.55-51.2-47.15-51.2-83.54Zm118.99,170.42h-52.45v-30.54h1.17s0,0,.01,0c0,0,.01,0,.02,0h51.25v30.54Zm-3.62-42.42h-43.1l-7.09-26.25c9.11,2.57,18.72,3.94,28.64,3.94s19.53-1.38,28.64-3.94l-7.09,26.25Z" fill="#fff"/>
      <rect width="300" height="300" fill="none"/>
    </g>
  </g>
</svg>