<?xml version="1.0" encoding="UTF-8"?>
<svg id="Layer_2" data-name="Layer 2" xmlns="http://www.w3.org/2000/svg" viewBox="0 0 300 300">
  <g id="_레이어_1" data-name="레이어 1">
    <g>
      <path id="_패스_608" data-name="패스 608" d="m285.17,106.28c-7.94-6.88-17.53-11.58-27.83-13.63-3.06-.54-6.17-.84-9.28-.87-5.72-.12-13.38.45-31.03,6.39-20.18,6.78-30.3,10.17-32.24,10.99-3.48,1.61-7.3,2.34-11.13,2.11-4.05-.41-7.94-1.84-11.29-4.15-19.77-13.37-42.65-21.44-66.43-23.45-11.99-.8-23.88-.06-34.31,6.8-7.25,4.77-7.51,10.61-1.13,16.41,3.29,3,6.67,5.9,10,8.85,10.09,8.94,20.15,17.89,30.84,27.38-8.47,3.31-16.26,6.18-23.88,9.42-3.51,1.64-7.54,1.76-11.15.36-18.42-6.64-38.23-8.51-57.57-5.45-4.95.14-8.86,4.26-8.72,9.21.07,2.53,1.2,4.91,3.12,6.56,11.44,12.67,23.09,25.16,35.23,37.14,12.42,13.12,30.77,18.84,48.44,15.09,9.66-1.82,19.06-4.84,27.99-8.97,1.1-.56,21.87-8.26,63.41-23.66,7.25-2.69,48.89-18.01,97.14-37.4,9.76-3.92,23.88-9.79,24.64-19.14.54-6.96-6.57-13-14.8-20Zm-100.92,38.59l-4.11,1.58c-3.29,1.26-6.98-.37-8.25-3.66l-1.58-4.11c-1.26-3.29.37-6.98,3.66-8.25l4.11-1.59c3.29-1.26,6.98.37,8.25,3.66l1.58,4.11c1.26,3.29-.37,6.98-3.66,8.25Zm23.99-9.25l-4.11,1.58c-3.29,1.26-6.98-.38-8.25-3.66l-1.59-4.11c-1.26-3.29.37-6.98,3.66-8.25l4.11-1.58c3.29-1.26,6.98.37,8.25,3.66l1.58,4.11c1.26,3.29-.38,6.98-3.66,8.25h0Zm23.19-8.94l-4.11,1.58c-3.29,1.26-6.98-.37-8.25-3.66l-1.58-4.11c-1.26-3.29.37-6.98,3.66-8.25l4.11-1.58c3.29-1.26,6.98.37,8.25,3.66l1.59,4.11c1.26,3.29-.38,6.98-3.67,8.25h0Z" fill="#fff"/>
      <rect width="300" height="300" fill="none"/>
    </g>
  </g>
</svg>