<?xml version="1.0" encoding="UTF-8"?>
<svg id="Layer_2" data-name="Layer 2" xmlns="http://www.w3.org/2000/svg" viewBox="0 0 300 300">
  <g id="_레이어_1" data-name="레이어 1">
    <g>
      <g>
        <path d="m47.2,148.45c.32-.13.64-.26.96-.4.38-.17.77-.34,1.15-.52.33-.16.66-.32.99-.49.17-.09.87-.34.93-.51.1-.33-1.53.02-1.8.06-.75.12-1.5.24-2.24.36-1.49.25-2.98.53-4.47.82-2.98.59-5.93,1.27-8.87,2.03-5.87,1.52-11.66,3.37-17.32,5.54-2.83,1.09-5.64,2.25-8.41,3.5-1.38.62-2.76,1.26-4.13,1.92-.68.33-1.36.67-2.04,1.01-.62.39-1.27.72-1.95.99,14.39-3.91,28.79-7.83,42.88-12.72,1.45-.5,2.9-1.02,4.32-1.6Z" fill="#fff"/>
        <path d="m212.21,161.33c28.74-15.02,56.85-16.93,85.72-4.45-2.67-2.72-5.7-5.54-9.14-6.76-8.46-2.98-17.28-4.6-25.66-7.85-35.4-13.73-71.23-24.14-108.94-20.58-16.79,1.59-32.97,5.94-47.56,16.9,39.06-16.31,78.17-18.55,117.96-1.47-5.53,4.83-11.34,8.96-17.51,9.94-15.41,2.57-30.96,4.19-46.57,4.86-.76.03-36.33.79-107.48,2.51-8.8.15-17.51,1.68-25.83,4.55-2.42.83-4.39,1.64-5.69,2.2l-4.95,2.78c1.5-.35,3.76-.86,6.51-1.42,28.1-5.75,49.31-5.37,68.87-5.06,65.25,1.03,73.37.76,84.38-.33,12.95-1.28,25.82-3.26,38.55-5.93-.85,3.21-1.57,5.92-2.67,10.1Z" fill="#fff"/>
        <path d="m281.03,160.52c-23.83-11.88-58.18-6.16-72.06,18,17.7-18.91,46.8-23.26,70.37-14.24,8.01,3.09,15.12,8.15,20.67,14.71-3.83-8.12-11.01-14.44-18.97-18.48Z" fill="#fff"/>
        <polygon points="208.96 178.54 208.96 178.53 208.95 178.54 208.96 178.54" fill="#fff"/>
      </g>
      <rect width="300" height="300" fill="none"/>
    </g>
  </g>
</svg>