<?xml version="1.0" encoding="UTF-8"?>
<svg id="Layer_2" data-name="Layer 2" xmlns="http://www.w3.org/2000/svg" viewBox="0 0 300 300">
  <g id="_레이어_1" data-name="레이어 1">
    <g id="_12여행_shape_12_0004" data-name=" 12여행 shape 12 0004">
      <rect id="_사각형_67" data-name="사각형 67" width="300" height="300" fill="none"/>
      <path id="_패스_311" data-name="패스 311" d="m131.32,43.86v46.46c1.17,1.01,4.8,3.82,8.7,3.55,2.41-.24,4.6-1.49,6.03-3.43v-44.38c-2.45,1.2-5.22,1.61-7.91,1.16-2.53-.5-4.89-1.67-6.82-3.37Z" fill="#fff"/>
      <path id="_패스_312" data-name="패스 312" d="m102.1,131.52c.56-.09,1.02-.49,1.21-1.02.8-2.19,1.78-4.32,2.92-6.35,0,0,0-.02.01-.03s.01-.02.02-.03c2.76-5.1,6.87-9.34,11.88-12.26.58-.32.98-.89,1.07-1.55.07-.64-.26-1.26-.82-1.57-6.5-3.51-11.78-10.19-15.27-19.33-.16-.48-.54-.86-1.02-1.02-.48.15-.85.51-1.01.99-3.09,8.83-8.52,15.71-15.28,19.36-.56.3-.89.9-.83,1.54.08.67.48,1.26,1.08,1.58,6.49,3.6,11.76,10.23,14.84,18.67.18.54.65.93,1.21,1.03h0Z" fill="#fff"/>
      <path id="_패스_313" data-name="패스 313" d="m86.28,123.28v107.41c1.98,1.64,4.11,3.08,6.36,4.32,2.27,1.2,3.57,3.66,3.29,6.21,0,0,0,.08,0,.08-.06.5-.18.99-.35,1.46l5.67,3.48c1.8,1.1,4.06,1.14,5.9.11,1.55-.8,2.53-2.39,2.55-4.13v-111.96c-.03-1.43-.7-2.77-1.84-3.64-.8,1.55-1.5,3.14-2.1,4.78-.55,1.53-1.94,2.6-3.56,2.74h-.2c-1.62-.14-3.01-1.21-3.56-2.74-1.68-4.81-4.38-9.19-7.91-12.87-2.37.37-4.15,2.36-4.25,4.75Z" fill="#fff"/>
      <path id="_패스_314" data-name="패스 314" d="m138.62,44.67c3.92.69,8.1-1.12,12.42-5.39v-9.65l-5.76-3.54c-.61-.38-.8-1.18-.43-1.79.38-.61,1.18-.8,1.79-.43h0l6.38,3.92,26.9,16.54c.39.24.62.66.62,1.11v14.19c.81,1.51,5.3,9.31,12.6,10.93,4.39.97,9.07-.45,13.93-4.23v-22.97c0-3.99-2.16-7.66-5.64-9.61L143.43,1.4c-5.3-2.96-12.01-1.06-14.97,4.24-.92,1.64-1.4,3.48-1.4,5.36v23.06c.73,1.49,4.93,9.43,11.55,10.6h0Z" fill="#fff"/>
      <path id="_패스_315" data-name="패스 315" d="m187.04,70.74v51.15c1.2.96,4.83,3.56,8.74,3.3,2.34-.21,4.5-1.36,5.99-3.18v-49.65c-1.88.72-3.88,1.09-5.9,1.11-1.11,0-2.23-.12-3.31-.37-1.96-.45-3.83-1.25-5.52-2.36Z" fill="#fff"/>
      <path id="_패스_316" data-name="패스 316" d="m93.33,240.98c.17-1.51-.59-2.96-1.93-3.68-11.07-5.98-20.09-17.4-26.06-33.03-.41-1.22-1.42-2.13-2.67-2.41-1.24.26-2.25,1.17-2.65,2.38-5.29,15.11-14.55,26.85-26.07,33.07-1.32.7-2.08,2.13-1.93,3.62.18,1.47,1.06,2.77,2.36,3.48,11.05,6.13,20.04,17.45,25.31,31.89.36,1.65,1.99,2.7,3.65,2.34,1.17-.25,2.09-1.17,2.34-2.34,3.83-10.49,9.63-19.33,16.76-25.74.01,0,.02-.02.03-.03,2.6-2.35,5.46-4.41,8.52-6.12,1.28-.7,2.16-1.97,2.35-3.42Z" fill="#fff"/>
      <path id="_패스_317" data-name="패스 317" d="m157.49,149.46l-12.59-6.98c-1.81-1-4.02-.97-5.8.08-1.49.81-2.43,2.37-2.44,4.07v111.21c.03,1.66.93,3.19,2.37,4.02l12.6,7.72c1.8,1.1,4.06,1.14,5.9.11,1.55-.8,2.53-2.39,2.54-4.13v-111.96c-.04-1.75-1.03-3.33-2.58-4.15Z" fill="#fff"/>
      <path id="_패스_318" data-name="패스 318" d="m267,254.66c-11.08-5.98-20.08-17.4-26.06-33.03-.4-1.22-1.41-2.14-2.67-2.41-1.25.26-2.26,1.17-2.66,2.38-5.29,15.1-14.55,26.85-26.07,33.07-1.32.7-2.08,2.13-1.93,3.62.18,1.47,1.06,2.77,2.36,3.48,8.02,4.45,14.95,11.65,20.17,20.78.01.02.03.04.04.06s0,.02.01.03c2,3.53,3.71,7.21,5.1,11.02.36,1.65,2,2.7,3.65,2.33,1.17-.26,2.08-1.17,2.33-2.33,5.27-14.43,14.26-25.75,25.31-31.89,1.28-.7,2.15-1.97,2.35-3.41.17-1.5-.59-2.96-1.92-3.68h0Z" fill="#fff"/>
      <path id="_패스_319" data-name="패스 319" d="m208.71,264.03c-2.01-1.1-3.38-3.1-3.67-5.38v-.09c-.29-2.55,1.01-5,3.28-6.2,10.95-5.91,19.77-17.15,24.85-31.63.73-2.19,2.63-3.79,4.92-4.13.1-.01.19-.02.29,0,2.31.31,4.25,1.9,5.02,4.1,1.77,4.67,3.97,9.17,6.59,13.42v-107.98c0-9.3-5.57-17.81-14.52-22.18l-31.07-15.19v33.74c0,.31-.1.6-.3.84-1.96,2.57-4.92,4.19-8.14,4.46-.24.02-.48.02-.71.02-5.58,0-10.18-4.18-10.38-4.36-.27-.25-.42-.59-.42-.96v-43.49l-35.76-17.48v29.39c0,.29-.1.57-.28.8-2.32,2.97-5.08,4.57-8.21,4.78-.22.01-.45.02-.67.02-5.61,0-10.21-4.48-10.41-4.67-.25-.24-.39-.58-.39-.93v-34.4c-3.84.33-7.59,1.41-11.02,3.18l-36.23,18.92c-8.55,4.46-13.86,12.83-13.86,21.85v102.46c.06.14.12.27.18.41,3.95,10.32,9.43,18.9,15.89,25.06v-105.11c.05-2.98,1.87-5.65,4.63-6.78-1.1-.9-2.28-1.7-3.52-2.39-1.32-.72-2.21-2.03-2.4-3.52-.21-1.71.66-3.37,2.18-4.18,3.16-1.75,5.94-4.13,8.15-6.99l-6.24-3.05c-.65-.32-.92-1.1-.6-1.75s1.1-.92,1.75-.6h0l6.65,3.25c1.82-2.74,3.28-5.69,4.35-8.8.49-1.46,1.76-2.52,3.28-2.74.1-.01.19-.02.29,0,1.54.2,2.84,1.25,3.36,2.72,3.22,8.42,8.22,14.8,14.07,17.96,1.51.8,2.37,2.44,2.18,4.13v.07s-.03.08-.03.12l50.26,24.58c9.87,4.83,16,14.23,16,24.52v113.79c0,.72-.58,1.3-1.3,1.3s-1.3-.58-1.3-1.3v-113.79c0-9.29-5.57-17.79-14.54-22.18l-50.21-24.57c-.36.41-.79.75-1.26,1.02-4.24,2.47-7.77,5.98-10.25,10.21,1.95,1.35,3.12,3.56,3.15,5.93v111.96c-.02,2.69-1.51,5.15-3.88,6.41-2.67,1.49-5.93,1.43-8.54-.16l-5.61-3.44c-.57.67-1.25,1.23-2.02,1.66-2.35,1.32-4.58,2.85-6.65,4.58l87.54,45.48c8.53,4.35,18.64,4.35,27.16-.02l26.91-14.05c-4.9-8.17-11.24-14.6-18.51-18.63h0Zm-46.03,1.52c-.02,2.69-1.51,5.14-3.88,6.41-2.67,1.5-5.93,1.44-8.54-.16l-12.59-7.72c-2.22-1.31-3.59-3.68-3.61-6.25v-111.22c.02-2.62,1.44-5.03,3.73-6.32,2.58-1.51,5.77-1.56,8.39-.11l12.59,6.98c2.38,1.27,3.88,3.73,3.92,6.43v111.95Z" fill="#fff"/>
    </g>
  </g>
</svg>