<?xml version="1.0" encoding="UTF-8"?>
<svg id="Layer_2" data-name="Layer 2" xmlns="http://www.w3.org/2000/svg" viewBox="0 0 300 300">
  <g id="_레이어_1" data-name="레이어 1">
    <g>
      <g>
        <path d="m236.99,236.53V73.06c0-15.36-12.5-27.85-27.85-27.85h-23.52V13.7h18.27V0h-107.76v13.7h18.27v31.51h-23.52c-15.36,0-27.85,12.49-27.85,27.85v163.47c0,8.49,3.83,16.09,9.84,21.2-5.94,4.22-9.84,11.15-9.84,18.98,0,12.84,10.45,23.29,23.29,23.29s23.29-10.45,23.29-23.29c0-4.53-1.32-8.75-3.57-12.33h87.96c-2.25,3.58-3.57,7.8-3.57,12.33,0,12.84,10.45,23.29,23.29,23.29s23.29-10.45,23.29-23.29c0-7.83-3.9-14.75-9.84-18.98,6.01-5.11,9.84-12.72,9.84-21.2ZM128.08,13.7h43.84v31.51h-43.84V13.7Zm-51.37,59.36c0-7.8,6.35-14.15,14.16-14.15h118.26c7.81,0,14.16,6.35,14.16,14.15v163.47c0,7.8-6.35,14.15-14.16,14.15h-118.26c-7.81,0-14.16-6.35-14.16-14.15V73.06Zm9.59,213.24c-5.29,0-9.59-4.3-9.59-9.59s4.3-9.59,9.59-9.59,9.59,4.3,9.59,9.59-4.3,9.59-9.59,9.59Zm127.4,0c-5.29,0-9.59-4.3-9.59-9.59s4.3-9.59,9.59-9.59,9.59,4.3,9.59,9.59-4.3,9.59-9.59,9.59Z" fill="#fff"/>
        <rect x="104.79" y="116.44" width="13.7" height="76.71" fill="#fff"/>
        <rect x="143.15" y="116.44" width="13.7" height="76.71" fill="#fff"/>
        <rect x="181.51" y="116.44" width="13.7" height="76.71" fill="#fff"/>
      </g>
      <rect width="300" height="300" fill="none"/>
    </g>
  </g>
</svg>