<?xml version="1.0" encoding="UTF-8"?>
<svg id="Layer_2" data-name="Layer 2" xmlns="http://www.w3.org/2000/svg" viewBox="0 0 300 300">
  <g id="_레이어_1" data-name="레이어 1">
    <g id="_12여행_shape_12_0001" data-name=" 12여행 shape 12 0001">
      <rect id="_사각형_67" data-name="사각형 67" width="300" height="300" fill="none"/>
      <path id="_패스_299" data-name="패스 299" d="m291.55,8.45c-11.27-11.26-29.53-11.26-40.79,0-.14.14-.27.28-.41.42l-61.25,63.83L39.62,23.23l-31.38,31.38,124.59,76.71-63.04,65.7-40.43-6.64L1,218.74l59.44,20.82,20.82,59.44,28.36-28.36-6.64-40.43,65.69-63.04,76.71,124.59,31.38-31.38-49.47-149.48,63.83-61.25c11.49-11.03,11.87-29.29.84-40.78-.14-.14-.27-.28-.41-.42Z" fill="#fff"/>
    </g>
  </g>
</svg>