<?xml version="1.0" encoding="UTF-8"?>
<svg id="Layer_2" data-name="Layer 2" xmlns="http://www.w3.org/2000/svg" viewBox="0 0 300 300">
  <g id="_레이어_1" data-name="레이어 1">
    <g>
      <g>
        <path d="m299.99,150.43c.25-35.32-21.73-67.14-50.17-86.56-43.34-30.03-100.55-36.24-150.82-22.52C39.76,57.05-16.44,110.58,4.45,176.28c8.08,25,26.56,45.4,48.11,59.68,43.54,28.81,99.81,36.89,150,22.97,49.13-13.26,97.36-54.24,97.45-108.5h0Zm-.74,0c-.07,53.86-50.73,90.14-98.42,102.25-40.75,10.52-85.27,9.38-124.43-6.87C37.84,230.18,3.03,194.24,4.11,150.43c1.24-52.57,49.63-89.58,96.93-101.68,48.64-12.7,102.74-7.06,146.15,19.17,28.82,17.25,52.27,47.66,52.08,82.51h0Z" fill="#fff"/>
        <path d="m235.73,75.05c-43.39-26.26-89.96-29.6-137.87-14.8-12.6,3.89-24.39,10.39-38.53,16.55,1.66,1.04,3.42,1.91,5.25,2.6,2.12.34,4.27.42,6.41.25,30.33-4.02,55.14,7.08,76.54,27.8,2.7,2.95,5.88,5.42,9.41,7.3,8.19,3.68,16.5,7.94,25.2,9.51,18.62,3.37,38.19,2.86,56.15,8.12,31.01,9.08,35.63,32.51,21.75,57.53-2,3.6-8.44,6.41-12.81,6.39-2.65-.01-5.63-5.96-7.77-9.65-1.32-2.28-1.27-5.33-1.94-8.01-3.98-15.78-17.97-28.49-32.59-29.66-25.06-2-40.15,11.19-41.81,36.55-.7,10.67-3.47,13.44-14.13,13.5-17.47.1-34.94.33-52.4-.07-14.21-.03-28.01-4.78-39.23-13.52,6.56-1.42,13.28-1.89,19.97-1.4,9.44.63,18.83,2.37,28.27,2.65,7.03.22,13.5-2.23,15.66-10.12,2.24-7.26,3.98-14.66,5.23-22.15.71-5.29-1.82-11.18-.52-16.19,2.62-10.1-3.26-11.09-10.25-11.42-6.3-.29-12.62-.06-19.21-.06,2.19-6.77,3.83-13.71,4.91-20.75.39-2.88.74-6.62-1.53-9.01-.66-.68-1.46-1.2-2.35-1.53-.99-.29-2.04-.36-3.06-.22-7.34,1.16-8.43,14.18-16.49,28.5-5.12,9.1-8.83,14.86-15.88,19.1-8.49,5.12-18.91,6.19-31.16,4.49-13.51-1.87-14.5-.05-13.08,13.61.24,1.82.58,3.62,1.04,5.4,7.31,31.59,28.44,51.37,56.08,65.34,30.21,15.28,62.63,18.99,95.72,15.72,33.68-3.33,64.43-14.68,88.96-39.28,29.92-30.02,33.16-72.86,6.78-105.92-8.6-10.76-18.99-19.95-30.72-27.16Zm-35.56,141.81c-.25,0-.5,0-.75,0-18.09-.37-32.45-15.34-32.08-33.43.05-17.99,14.53-32.61,32.52-32.81,18.36.09,33.17,15.05,33.08,33.41-.03,17.62-15.39,33.01-32.77,32.84Z" fill="#fff"/>
        <path d="m201.71,163.86c-.22,0-.44-.01-.65-.02-11.38-.09-20.68,9.06-20.77,20.44-.3,10.5,8.84,19.27,20.16,19.35,11.68.08,19.42-7.63,19.55-19.48.11-10.7-8.26-20-18.28-20.29Z" fill="#fff"/>
      </g>
      <rect width="300" height="300" fill="none"/>
    </g>
  </g>
</svg>