<?xml version="1.0" encoding="UTF-8"?>
<svg id="Layer_2" data-name="Layer 2" xmlns="http://www.w3.org/2000/svg" viewBox="0 0 300 300">
  <g id="_레이어_1" data-name="레이어 1">
    <g>
      <g>
        <path d="m204.83,294.8c8.58,4.72,19.25,3.21,26.24-3.64l28.6-28,.31-.31,28.6-28c6.99-6.85,8.74-17.48,4.2-26.16-1.93-3.7-3.89-7.32-5.86-10.89l-92.86,90.9c3.52,2.05,7.11,4.08,10.76,6.09Z" fill="#fff"/>
        <path d="m8.08,5.52h-.29s-5.11,145.71,142.01,254.22l45.48-44.52-94.4-111.49c-1.87-2.21,1.16-5.17,3.32-3.25l109.46,96.75,45.25-44.3C153.55,3.53,18.06,5.19,8.08,5.52Z" fill="#fff"/>
        <path d="m183.39,282.34l97.39-95.34c-2.96-5.06-5.95-9.98-8.97-14.76l-102.98,100.81c4.71,3.13,9.57,6.22,14.57,9.28Z" fill="#fff"/>
      </g>
      <rect width="300" height="300" fill="none"/>
    </g>
  </g>
</svg>