<?xml version="1.0" encoding="UTF-8"?>
<svg id="Layer_2" data-name="Layer 2" xmlns="http://www.w3.org/2000/svg" viewBox="0 0 300 300">
  <g id="_레이어_1" data-name="레이어 1">
    <path id="_패스_983" data-name="패스 983" d="m288.97,138.98h-24.25c-2.16-22.89-11.16-44.6-25.81-62.32l17.14-17.15c4.32-4.28,4.35-11.26.07-15.58-4.28-4.32-11.26-4.35-15.58-.07-.02.02-.05.05-.07.07l-17.15,17.15c-17.72-14.65-39.43-23.65-62.32-25.81V11.01C161.01,4.93,156.08,0,149.99,0c-6.08,0-11.01,4.93-11.01,11.01v24.26c-22.89,2.17-44.6,11.16-62.32,25.81l-17.15-17.15c-4.28-4.32-11.26-4.35-15.58-.07-4.32,4.28-4.35,11.26-.07,15.58.02.02.05.05.07.07l17.15,17.15c-14.66,17.72-23.65,39.43-25.82,62.32H11.02C4.94,138.98,0,143.91,0,149.99c0,6.08,4.92,11.02,11.01,11.02h24.26c2.16,22.89,11.16,44.6,25.81,62.32l-17.14,17.15c-4.32,4.28-4.36,11.26-.07,15.58s11.26,4.36,15.58.07c.02-.02.05-.05.07-.07l17.15-17.15c17.72,14.65,39.43,23.65,62.32,25.81v24.26c0,6.08,4.94,11.01,11.02,11.01,6.08,0,11.01-4.93,11.01-11.01v-24.26c22.89-2.17,44.6-11.16,62.32-25.81l17.15,17.15c4.24,4.36,11.22,4.45,15.58.21,4.36-4.24,4.45-11.22.21-15.58-.07-.07-.14-.14-.21-.21l-17.15-17.15c14.66-17.72,23.65-39.43,25.82-62.32h24.25c6.08,0,11.02-4.93,11.02-11.01,0-6.08-4.92-11.02-11.01-11.02h-.01m-138.98,107.21c-53.12,0-96.18-43.07-96.18-96.19,0-53.12,43.06-96.19,96.18-96.19,53.12,0,96.18,43.07,96.18,96.19,0,53.13-43.06,96.19-96.18,96.19" fill="#fff"/>
  </g>
</svg>