<?xml version="1.0" encoding="UTF-8"?>
<svg id="Layer_2" data-name="Layer 2" xmlns="http://www.w3.org/2000/svg" viewBox="0 0 300 300">
  <g id="_레이어_1" data-name="레이어 1">
    <g>
      <g>
        <path d="m41.49,173.92c-6.26,0-11.33,5.07-11.34,11.33,0,6.26,5.07,11.33,11.33,11.34,6.26,0,11.33-5.07,11.34-11.33h0c0-6.26-5.07-11.34-11.33-11.34Zm0,18.05c-3.71,0-6.72-3.01-6.72-6.72s3.01-6.72,6.72-6.72,6.72,3.01,6.72,6.72-3.01,6.72-6.72,6.72Z" fill="#fff"/>
        <path d="m258.52,173.92c-6.26,0-11.34,5.07-11.34,11.33,0,6.26,5.07,11.34,11.33,11.34s11.34-5.07,11.34-11.33h0c0-6.26-5.07-11.34-11.33-11.34Zm6.72,11.33c0,3.71-3.01,6.72-6.72,6.72-3.71,0-6.72-3.01-6.72-6.72,0-3.71,3.01-6.72,6.72-6.72s6.72,3.01,6.72,6.72h0Z" fill="#fff"/>
        <path d="m220.65,173.87c-8.04,0-14.56,6.52-14.56,14.56s6.52,14.56,14.56,14.56,14.56-6.52,14.56-14.56h0c0-8.04-6.52-14.56-14.56-14.56Zm0,23.42h0c-4.9,0-8.87-3.97-8.87-8.87s3.97-8.87,8.87-8.87,8.87,3.97,8.87,8.87c0,4.9-3.97,8.87-8.86,8.87Z" fill="#fff"/>
        <path d="m79.36,173.87c-8.04,0-14.56,6.52-14.56,14.56s6.52,14.56,14.56,14.56,14.56-6.52,14.56-14.56h0c0-8.04-6.52-14.56-14.56-14.56Zm0,23.42h0c-4.9,0-8.87-3.97-8.87-8.87s3.97-8.87,8.87-8.87,8.87,3.97,8.87,8.87c0,4.9-3.97,8.87-8.86,8.87Z" fill="#fff"/>
        <path d="m299.05,173.38c-.32-.46-.82-.77-1.38-.84h0l-107.46-14.1c-1.87-18.11-15.61-32.75-33.57-35.75l-5.84-25.04c-.11-.45-.56-.73-1.01-.63-.31.07-.55.32-.63.63l-5.84,25.04c-17.96,3-31.7,17.63-33.57,35.75L2.32,172.54c-1.09.14-1.86,1.15-1.72,2.24.07.56.38,1.06.84,1.38l2.9,2.02c.33.23.73.36,1.14.36h23.35c3.71-6.99,12.37-9.64,19.36-5.94,2.53,1.34,4.6,3.41,5.94,5.94h10.74c5.46-8,16.37-10.06,24.37-4.6,1.81,1.23,3.37,2.8,4.6,4.6h19.02c8.83,20.51,32.61,29.99,53.12,21.17,9.5-4.09,17.08-11.66,21.17-21.17h19.02c5.46-8,16.37-10.06,24.37-4.6,1.81,1.23,3.37,2.8,4.6,4.6h10.74c3.71-6.99,12.37-9.64,19.36-5.94,2.53,1.34,4.6,3.41,5.94,5.94h23.35c.41,0,.8-.12,1.14-.36l2.9-2.02c.9-.63,1.13-1.88.5-2.78Zm-120.27-10.82h-57.56c0-15.9,12.87-28.79,28.77-28.8,15.9,0,28.79,12.87,28.8,28.77v.03Z" fill="#fff"/>
      </g>
      <rect width="300" height="300" fill="none"/>
    </g>
  </g>
</svg>