<?xml version="1.0" encoding="UTF-8"?>
<svg id="Layer_2" data-name="Layer 2" xmlns="http://www.w3.org/2000/svg" viewBox="0 0 300 300">
  <g id="_레이어_1" data-name="레이어 1">
    <g>
      <path id="_패스_875" data-name="패스 875" d="m256.2,195.99c-6.31-59.76-59.87-103.08-119.63-96.77-16.31,1.72-32.02,7.11-45.95,15.76-1.46.91-2.9,1.85-4.32,2.83-22.98,15.82-39.03,39.85-44.85,67.14-24.28,2.25-40.41,7.25-41.46,16.43h300s-17.39-2.37-43.79-5.39m-108.25-85.87c39.4.04,74.91,23.8,89.98,60.2-4.83-3.43-9.99-6.36-15.41-8.76-17.88-8.1-40.79-12.81-65.33-13.55-8.27-8.05-17.22-15.38-26.75-21.91-5.46-3.76-11.29-6.94-17.41-9.49,11.14-4.3,22.97-6.5,34.91-6.5m-54.4,16.65c.56-.68,1.32-1.17,2.17-1.39.97-.31,1.99-.46,3.01-.44,5.07,0,13.45,2.77,25.32,10.72,5.65,3.83,11.07,8,16.22,12.49-14.96.59-29.81,2.85-44.27,6.73-5.15-14.22-5.79-24.35-2.45-28.11m-36.64,46.25c5.05-13.28,12.94-25.29,23.12-35.2.67,7.05,2.29,13.97,4.81,20.58-4.28,1.53-8.48,3.28-12.57,5.26-5.43,2.59-10.57,5.73-15.36,9.36m5.07,10.71c4.68-3.87,9.83-7.14,15.32-9.73,3.86-1.86,7.82-3.51,11.87-4.94,2.14,4.75,4.62,9.63,7.36,14.59-12.19-.27-23.83-.27-34.55.08m48.09.32c-3.54-5.99-6.77-12.15-9.68-18.46,15.34-3.95,31.11-6.02,46.95-6.15,1.04-.01,2.06-.02,3.08-.02.67,0,1.34.02,2.01.02,8.2,8.17,15.94,16.8,23.16,25.85.79.98,1.55,1.97,2.32,2.95-22.45-1.85-45.77-3.38-67.84-4.18m83.27,5.5c-2.81-3.83-5.73-7.65-8.78-11.46-5.02-6.26-10.17-12.24-15.39-17.86,18.28,1.64,35.05,5.67,48.6,11.8,13.85,6.27,22.97,14.26,26.05,22.57-15.1-1.66-32.33-3.42-50.48-5.05" fill="#fff"/>
      <rect width="300" height="300" fill="none"/>
    </g>
  </g>
</svg>