<?xml version="1.0" encoding="UTF-8"?>
<svg id="Layer_2" data-name="Layer 2" xmlns="http://www.w3.org/2000/svg" viewBox="0 0 300 300">
  <g id="_레이어_1" data-name="레이어 1">
    <g>
      <g>
        <path d="m219.33,167.69c-15.63-6.02-31.83-6.36-48.09-4.07-35.52,5.01-70.97,10.56-106.49,15.6-22.37,3.17-44.45,3.42-64.75-9.42,4.5,7.11,10.5,12.65,18.58,14.8,9.59,2.54,19.35,4.92,29.19,5.95,19.68,2.06,39.17-1.04,58.6-3.99,25.92-3.95,51.77-8.36,77.76-11.7,19.68-2.52,38.9-.07,56.59,9.91.27.15.69.02,1.23.02-5.66-7.83-13.54-13.79-22.62-17.1Z" fill="#fff"/>
        <path d="m218.29,184.63c-3.81-1.36-12.86-1.51-13.6-1.52-10.86-.14-16.19.31-16.19.31-26.43,2.24-37.47,3.91-37.47,3.91l-66.45,8.58c-12.93,1.67-25.96,3.34-38.98,2.56-13.02-.79-26.17-4.19-36.74-11.83,3.2,7.34,10.36,12.38,18,14.78,7.64,2.4,15.79,2.48,23.8,2.31,58.26-1.28,115.65-15.31,173.9-17.02l-.36-.11c-3.26-.99-5.62-1.86-5.91-1.97Z" fill="#fff"/>
        <path d="m197.36,129.63c-38.28,6.35-74.91,18.27-110.83,32.62-10.53,4.21-20.98,8.6-31.47,12.91.5.47,1.2.65,1.86.47,23.7-4.58,47.35-9.4,71.1-13.69,25.36-4.57,50.9-7.08,76.7-4.19,15.68,1.76,29.8,6.43,38.78,20.7.11.17.51.17.92.28l55.58-50.21c-35.03-5.52-68.87-4.5-102.64,1.11Z" fill="#fff"/>
        <path d="m121.67,124.51c.06,3.89.12,7.77.19,11.66-2.69,1.49-5.37,3-8.03,4.55-5.06,2.94-10.09,5.93-15.13,8.9,35.73-12.95,71.94-23.5,109.97-28.97-3.15-1.8-6.53-3.29-9.4-5.46-6.5-4.92-13.22-4.8-20.8-2.77-19.22,5.14-37.12,13.15-54.43,22.56l-.74-13.9c0-1.81-.05-3.7-.18-5.67-.46-6.52-1.71-12.96-3.73-19.18-11.56,4.97-21.65,12.82-29.32,22.8,7.88.93,16.16,2.23,24.77,3.99,2.32.47,4.59.98,6.83,1.49Z" fill="#fff"/>
      </g>
      <rect width="300" height="300" fill="none"/>
    </g>
  </g>
</svg>