<?xml version="1.0" encoding="UTF-8"?>
<svg id="Layer_2" data-name="Layer 2" xmlns="http://www.w3.org/2000/svg" viewBox="0 0 300 300">
  <g id="_레이어_1" data-name="레이어 1">
    <g>
      <path d="m281,77.01c-.15-.34-.32-.66-.54-.96C254.64,30.67,205.84,0,150,0,67.29,0,0,67.29,0,150c0,71.83,50.76,132.02,118.29,146.61.24.07.48.12.73.16,10,2.11,20.37,3.23,30.99,3.23,82.71,0,150-67.29,150-150,0-26.48-6.91-51.37-19-72.99Zm-8.85,4c7.24,23.61-4.46,36.4-12.13,41.94-12.62,9.11-30.74,10.81-40.4,3.78-6.54-4.75-6.85-9.14-7.32-15.79-.81-11.35-1.82-25.47-34.78-40.71-13.84-6.4-22.78-15.27-26.57-26.37-4.81-14.08-.17-28.39,2.17-34.15,51.01,1.12,95.39,29.58,119.04,71.29ZM9.7,151.49c3.18-4.35,10.88-12.56,19.02-12.56h.06c6.11.03,12.13,4.63,17.89,13.67,10.09,15.85,6.58,32.46,3.76,45.81-2.14,10.12-3.98,18.86.82,24.97,3,3.81,8.03,5.77,15.38,5.98,13.05.37,26.33-6.25,38.05-12.11,11.77-5.88,22.89-11.44,30.09-8.25,4.44,1.97,7.99,7.63,10.57,16.82,11.06,39.51-19.21,57.5-26.23,61.07-62.1-14.01-108.72-69.3-109.41-135.4Zm140.3,138.84c-5.69,0-11.29-.35-16.81-1.01,3.32-2.52,6.96-5.76,10.4-9.77,9.23-10.77,18.64-29.28,11.07-56.33-3.44-12.28-8.66-19.82-15.96-23.06-11.36-5.04-24.47,1.51-38.34,8.44-11.22,5.61-22.8,11.43-33.44,11.09-2.92-.09-6.69-.55-8.06-2.29-2.01-2.55-.52-9.56,1.04-16.98,3.02-14.27,7.14-33.82-5.07-53-7.65-12.02-16.41-18.12-26.05-18.15h-.07c-7.3,0-13.63,3.59-18.42,7.58C16.74,68,73.1,13.44,142.71,9.87c-2.81,8.27-5.9,22.49-.96,37.04,4.66,13.74,15.33,24.55,31.7,32.12,27.78,12.84,28.5,22.9,29.19,32.61.52,7.28,1.11,15.52,11.28,22.92,5.66,4.12,13.18,6.13,21.18,6.13,10.36,0,21.54-3.37,30.58-9.9,9.17-6.62,15.01-15.43,17.3-25.62,4.76,14.08,7.34,29.16,7.34,44.83,0,77.37-62.95,140.32-140.32,140.32Z" fill="#fff"/>
      <path d="m220.88,155.99c-14.54-2.2-25.06-.25-31.26,5.8-4.91,4.79-6.83,11.77-5.71,20.75,1.03,8.24,1.3,16.23,1.54,23.28.54,15.91.96,28.48,9.76,34.15,2.75,1.77,6.06,2.67,10.08,2.67,5.94,0,13.43-1.95,23.02-5.91,16.17-6.68,25.69-17.52,28.3-32.22,1.94-10.92-.6-21.95-7.14-31.07-6.71-9.35-17.13-15.71-28.58-17.44Zm26.19,46.82c-2,11.24-9.55,19.64-22.46,24.97-12.31,5.08-20.44,6.45-24.15,4.05-4.54-2.93-4.91-13.78-5.33-26.35-.24-7.26-.52-15.48-1.61-24.16-.73-5.81.24-10.06,2.86-12.62,2.68-2.61,7.34-3.94,13.68-3.94,2.8,0,5.93.26,9.37.78,8.88,1.34,16.96,6.27,22.16,13.52,5.01,6.98,6.95,15.41,5.48,23.74Z" fill="#fff"/>
      <circle cx="78.39" cy="105.48" r="10.65" fill="#fff"/>
      <circle cx="133.55" cy="105.48" r="10.65" transform="translate(-33.31 71.99) rotate(-26.95)" fill="#fff"/>
      <path d="m119.76,129.44c-13.1,11.22-27.07.4-27.69-.1-2.08-1.67-5.11-1.34-6.79.73-1.68,2.08-1.36,5.12.72,6.8,4.17,3.38,11.94,7.31,20.76,7.31,6.2,0,12.93-1.95,19.3-7.4,2.03-1.74,2.27-4.79.53-6.82-1.74-2.03-4.79-2.27-6.82-.53Z" fill="#fff"/>
    </g>
  </g>
</svg>