<?xml version="1.0" encoding="UTF-8"?>
<svg id="Layer_2" data-name="Layer 2" xmlns="http://www.w3.org/2000/svg" viewBox="0 0 300 300">
  <g id="_레이어_1" data-name="레이어 1">
    <g>
      <g>
        <path d="m292.79,72.12h-23.08v-21.63c0-3.98-3.23-7.21-7.21-7.21h-103.85c-3.98,0-7.21,3.23-7.21,7.21v21.63H7.21C3.23,72.12,0,75.34,0,79.33v147.12C0,230.43,3.23,233.65,7.21,233.65h32.63c3.24,13.24,15.15,23.08,29.39,23.08s26.15-9.84,29.39-23.08h102.76c3.24,13.24,15.15,23.08,29.39,23.08s26.15-9.84,29.39-23.08h32.63c3.98,0,7.21-3.23,7.21-7.21V79.33c0-3.98-3.23-7.21-7.21-7.21Zm-126.92-14.42h89.42v14.42h-89.42v-14.42Zm94.29,161.54c-3.24-13.24-15.15-23.08-29.39-23.08s-26.15,9.84-29.39,23.08h-102.76c-3.24-13.24-15.15-23.08-29.39-23.08s-26.15,9.84-29.39,23.08H14.42V86.54h271.15v25.96h-75c-3.98,0-7.21,3.23-7.21,7.21v47.6c0,3.98,3.23,7.21,7.21,7.21h75v44.71h-25.42Zm25.42-59.13h-67.79v-33.17h67.79v33.17Z" fill="#fff"/>
        <path d="m180.29,112.5h-44.71c-3.98,0-7.21,3.23-7.21,7.21v47.6c0,3.98,3.23,7.21,7.21,7.21h44.71c3.98,0,7.21-3.23,7.21-7.21v-47.6c0-3.98-3.23-7.21-7.21-7.21Zm-7.21,47.6h-30.29v-33.17h30.29v33.17Z" fill="#fff"/>
        <path d="m103.85,112.5h-44.71c-3.98,0-7.21,3.23-7.21,7.21v47.6c0,3.98,3.23,7.21,7.21,7.21h44.71c3.98,0,7.21-3.23,7.21-7.21v-47.6c0-3.98-3.23-7.21-7.21-7.21Zm-7.21,47.6h-30.29v-33.17h30.29v33.17Z" fill="#fff"/>
      </g>
      <rect width="300" height="300" fill="none"/>
    </g>
  </g>
</svg>