<?xml version="1.0" encoding="UTF-8"?>
<svg id="Layer_2" data-name="Layer 2" xmlns="http://www.w3.org/2000/svg" viewBox="0 0 300 300">
  <g id="_레이어_1" data-name="레이어 1">
    <g>
      <g>
        <path d="m293.24,128.89h0c-10.52-14.27-28.13-17.16-49.65-13.62-28.99,4.78-65.06,21.25-100.45,37.41-29.7,13.56-60.02,27.4-84.49,33.32-7.02,1.83-14.23,2.83-21.49,2.98-5.12.14-10.22-.79-14.96-2.72-6.67-2.94-11.18-8.28-13.78-16.33-2.54-7.45-1.66-15.64,2.39-22.38,6.6-11.72,20.71-21.34,35.62-28.77,4.19-2.09,8.43-4,12.59-5.73,1.15-2.86,2.43-5.65,3.84-8.38-5.3,2.05-10.88,4.4-16.43,7.07-16.8,8.06-33.33,18.96-41.08,32.73-4.9,8.28-5.95,18.27-2.89,27.39,3.14,9.71,8.93,16.49,17.23,20.14,10.74,4.73,24.98,3.98,41.49-.12,24.52-6.09,54.04-19.56,84.58-33.51,35.55-16.23,71.82-32.79,99.85-37.17,18.8-2.94,33.9-.4,42.59,11.39,5.52,7.49,6.28,15.58,2.25,24.03-1.4,2.86-3.13,5.54-5.17,7.99-5.63,6.91-14.01,13.45-23.92,19.04-1.96,1.1-3.98,2.17-6.05,3.19-5.01,2.47-10.16,4.64-15.43,6.5-1.35,2.77-2.83,5.47-4.42,8.09,6.79-2.04,13.43-4.57,19.85-7.57,6.26-2.9,12.26-6.32,17.96-10.21,4.28-2.92,8.3-6.19,12.01-9.8,4.42-4.18,8.09-9.09,10.83-14.53,5.03-10.56,4.04-21.09-2.86-30.45Z" fill="#fff"/>
        <path d="m112.37,79.62c6.91,0,12.51,5.6,12.51,12.51h0c0,6.91-5.6,12.52-12.51,12.52h31.2c10.14,0,18.35,8.22,18.35,18.35h0c0,10.14-8.22,18.36-18.35,18.35H52.27c-.25,2.85-.4,5.73-.4,8.64,0,10.62,1.71,21.18,5.08,31.25.18-.04.35-.08.53-.12,24.01-5.81,54.3-19.64,83.58-33.01,34.98-15.98,71.14-32.47,100.59-37.59-15.71-36.15-51.37-59.54-90.79-59.54-26.07-.03-51.1,10.26-69.61,28.62h31.11Z" fill="#fff"/>
        <path d="m139.81,202.02c0-10.14,8.22-18.35,18.35-18.35h30.97c-6.91-.06-12.46-5.72-12.4-12.63.06-6.91,5.72-12.46,12.63-12.4h60.1c.25-2.85.4-5.73.4-8.64,0-8.05-.99-16.08-2.93-23.89-.19.03-.37.05-.55.08-27.37,4.28-63.55,20.8-98.54,36.78-30.64,13.99-59.6,27.21-84.36,33.52,17.17,32.32,50.79,52.52,87.39,52.52,26.07.03,51.1-10.26,69.61-28.62h-62.32c-10.14,0-18.35-8.22-18.35-18.35Z" fill="#fff"/>
      </g>
      <rect width="300" height="300" fill="none"/>
    </g>
  </g>
</svg>