<?xml version="1.0" encoding="UTF-8"?>
<svg id="Layer_2" data-name="Layer 2" xmlns="http://www.w3.org/2000/svg" viewBox="0 0 300 300">
  <g id="_레이어_1" data-name="레이어 1">
    <g id="_12여행_shape_12_0002" data-name=" 12여행 shape 12 0002">
      <rect id="_사각형_67" data-name="사각형 67" x="0" y="0" width="300" height="300" fill="none"/>
      <path id="_패스_302" data-name="패스 302" d="m59.58,99.65h0c3.04,8.33,14.53,11.81,25.63,7.77,5.32-1.82,9.87-5.39,12.91-10.13,2.44-3.61,3.08-8.15,1.73-12.3h0S72.56,10,72.56,10c-9.12,5.41-15.71,15.92-18.76,30.28-3.56,19.95-1.56,40.49,5.78,59.37h0Z" fill="#fff"/>
      <path id="_패스_303" data-name="패스 303" d="m109.92,81.33c3.03,8.33,14.53,11.83,25.63,7.77,11.1-4.04,17.67-14.1,14.64-22.43C136.07,27.87,106.79,2.27,82.62,6.31l27.3,75.01h0Z" fill="#fff"/>
      <path id="_패스_304" data-name="패스 304" d="m160.26,63c1.63,4.05,5.04,7.11,9.24,8.31,11.05,3.21,22.91-1.1,29.3-10.67,2.44-3.61,3.08-8.15,1.73-12.3-8.16-20.8-25.47-36.66-46.9-42.98C139.26.67,124.07-.97,109.03.55c20.69,9.79,40.33,32.5,51.23,62.45Z" fill="#fff"/>
      <path id="_패스_305" data-name="패스 305" d="m34.88,125.74c5.32-1.82,9.87-5.39,12.91-10.12,2.44-3.61,3.08-8.15,1.73-12.3-8.02-20.77-10.17-43.36-6.19-65.27,1.1-5.24,2.76-10.35,4.96-15.24C14.2,46.66-2.83,84.79,9.24,117.97c3.03,8.33,14.55,11.82,25.64,7.77Z" fill="#fff"/>
      <path id="_패스_306" data-name="패스 306" d="m251.78,262.5h21.43v32.14h-21.43v-32.14Z" fill="#fff"/>
      <path id="_패스_307" data-name="패스 307" d="m58.93,261.69v32.95h21.43v-32.14h-13.09c-2.8,0-5.59-.27-8.34-.81Z" fill="#fff"/>
      <path id="_패스_308" data-name="패스 308" d="m283.02,219.65H67.27l-39.19-39.19c-6.08-6.33-16.02-6.87-22.74-1.24-6.6,5.93-7.15,16.09-1.22,22.69.19.21.39.42.6.63l39.83,39.83c6.03,6.03,14.2,9.41,22.73,9.41h216.66c8.88,0,16.07-7.19,16.07-16.07,0-.29,0-.58-.02-.87-.78-8.74-8.19-15.39-16.96-15.21h0Z" fill="#fff"/>
      <path id="_패스_309" data-name="패스 309" d="m109.96,97.1c-.68,2.01-1.58,3.95-2.69,5.76-.18.29-.42.54-.61.82l38.3,105.24h11.4l-39.61-108.85c-2.38-.7-4.66-1.7-6.79-2.98h0Z" fill="#fff"/>
      <path id="_패스_310" data-name="패스 310" d="m175.98,262.5h-11.4l10.42,28.62c.92,2.81,3.94,4.35,6.76,3.43,2.81-.92,4.35-3.94,3.43-6.76-.04-.11-.08-.23-.12-.34l-9.08-24.95Z" fill="#fff"/>
    </g>
  </g>
</svg>