<?xml version="1.0" encoding="UTF-8"?>
<svg id="Layer_2" data-name="Layer 2" xmlns="http://www.w3.org/2000/svg" viewBox="0 0 300 300">
  <g id="_레이어_1" data-name="레이어 1">
    <g>
      <path id="_합치기_16" data-name="합치기 16" d="m0,231.35l16.48-27.3h143.1v-11.07H23.16l14-23.19h122.42v-11.07H43.84l14-23.19h101.74v-11.07h-95.06l14-23.19h81.05v-11.07h-74.38l13-21.54h120.44c20.43-.03,40.12,7.67,55.12,21.54h-70.13c-.97,0-1.94.05-2.91.16-6.33.75-11.25,5.87-11.77,12.22-.13,2.18-.11,4.36-.1,6.47v2.39c-.01,1.8,0,3.61,0,5.45h-1.21c-.75,0-1.5,0-2.24.03-4.98-.03-9.18,3.72-9.71,8.68-.24,3.72-.18,7.46-.13,11.08.01.99.03,1.99.04,2.98,0,2.37,1.88,4.32,4.25,4.43.16.01.31.02.46.02,2.12.02,3.96-1.44,4.43-3.5.18-.76.25-1.54.23-2.33,0-1.47,0-2.94,0-4.4,0-2.22,0-4.44.01-6.66,0-.52.16-.75.24-.79.75-.05,1.53-.06,2.3-.06.44,0,.89,0,1.34.01v65.4c0,6.92,0,13.84.01,20.76-.26,7.21,5.21,13.35,12.41,13.93.16.02.33.03.5.05v4.84H0Zm218.65-14.26h-15.45c-1.49,0-4.08-.37-4.67-2.85-.16-.75-.25-1.5-.26-2.27h16.42c1.4.11,2.8-.26,3.97-1.04.15-.11.28-.23.41-.36,1.03-1.25,1.5-2.87,1.29-4.48-.05-2.5-.63-4.97-1.71-7.23-2.79-5.76-8.67-9.37-15.07-9.25-.94,0-1.89-.02-2.84-.01h-2.38v-9.11c.28.23.55.45.83.68,1.51,1.23,3.06,2.51,4.66,3.71,1.16.89,2.57,1.4,4.03,1.46,3.59,0,7.18,0,10.76,0,11.53.01,23.06.02,34.59.03,12.72,0,25.45,0,38.18-.03-6.19,12.34-15.4,22.92-26.78,30.74h-45.99Zm-22.76-12.1v-8.33c3.32-.18,6.64-.15,9.95.08,4.15.62,7.3,4.06,7.56,8.25h-17.52Zm22.76-28.05h-9.36c-.19-.02-.37-.08-.53-.18-4-3.14-7.28-5.8-10.3-8.34-.07-.09-.12-.18-.17-.28-.05-12.43-.07-24.87-.05-37.3v-15.61h93.95c5.15,10.87,7.81,22.75,7.8,34.78,0,9.17-1.55,18.28-4.58,26.93-14.28.02-28.56.03-42.83.03-11.31,0-22.62-.01-33.93-.03Zm0-71.3h-20.28c-.06-.95-.02-1.91.1-2.85.22-1.57,1.45-2.8,3.02-3.01.55-.12,1.11-.17,1.67-.15,5.17,0,10.34,0,15.5,0,15.52,0,31.04,0,46.55,0h17.29c1.53,1.94,2.98,3.95,4.33,6.02h-68.18Z" fill="#fff"/>
      <rect x="0" width="300" height="300" fill="none"/>
    </g>
  </g>
</svg>