<?xml version="1.0" encoding="UTF-8"?>
<svg id="Layer_2" data-name="Layer 2" xmlns="http://www.w3.org/2000/svg" viewBox="0 0 300 300">
  <g id="_레이어_1" data-name="레이어 1">
    <g>
      <g>
        <path d="m75.71,94.66c-13.41,7.67-25.56,17.35-36.03,28.72,2.28.9,4.51,1.88,6.71,2.92,1.87-1.86,6.42-4.78,14.48-.65,4.65,2.39,9.23,1.85,13.27,1.31,5.5-.74,10-1.47,12.34,5.21,2.89,8.25-1.11,17.45-3.64,22.06,16.89,19.71,26.17,44.82,26.15,70.78h41.68c-.03-53.68-28.57-103.3-74.95-130.33Z" fill="#fff"/>
        <path d="m12.39,165.24C4.19,184.09-.03,204.43,0,224.99h60.86c-.04-28.86-20.24-53.76-48.47-59.75Z" fill="#fff"/>
        <path d="m260.64,123.74c0,36.36-4,73.92-11.64,101.25h51c.05-37.49-14-73.63-39.36-101.25Z" fill="#fff"/>
        <path d="m35.99,127.52c-8.54,9.98-15.74,21.03-21.4,32.88,8.25,1.9,16.06,5.37,23.01,10.21.92-2.29,3.07-5,7.78-.97,7.1,6.08,5.47,16.64,13.81,17.51s18.54,4.05,17.45,11.87c-.53,2.69-2.31,4.96-4.8,6.11.87.38,1.79.79,2.77,1.27,9.12,4.49,15.49-.29,16.5,6.22,1.01,6.51,8.1,5.93,8.1,10.56,0,.61-.07,1.22-.22,1.81h4.78c-.05-43.45-27.07-82.3-67.78-97.47Z" fill="#fff"/>
        <path d="m179.46,119.98c-9.68-16.5-21.58-31.59-35.36-44.86-22,.83-43.55,6.51-63.09,16.65,9.44,5.78,18.24,12.55,26.26,20.19l-.02-.04s.77-10.3,16.98,2.73c16.21,13.03,17.22,20.26,40.09,21.27,22.87,1.01-1.16,31.12,1.01,42.11,2.17,11,10.71,19.83,3.48,23.44-4.49,2.01-9.36,3.06-14.28,3.06.89,6.78,1.34,13.61,1.34,20.45h52.1c.03-32.65-7.66-64.84-22.45-93.94-1.91-3.76-3.92-7.45-6.05-11.08Z" fill="#fff"/>
        <path d="m260.64,123.66l-.1-.06c-1.7-2.37-26.49-35.69-79.04-45.28,0,0,0,0,0,0l1.52.87-1.52-.87c-9.89-2.11-19.97-3.22-30.08-3.31,10.61,10.73,20.07,22.55,28.21,35.26,2.04,3.18,3.99,6.42,5.86,9.72,18.19,32,27.73,68.19,27.69,105.01h29.32s0,0,0,0h6.5c7.65-27.33,11.63-64.89,11.64-101.25v-.09Z" fill="#fff"/>
      </g>
      <rect width="300" height="300" fill="none"/>
    </g>
  </g>
</svg>