<?xml version="1.0" encoding="UTF-8"?>
<svg id="Layer_2" data-name="Layer 2" xmlns="http://www.w3.org/2000/svg" viewBox="0 0 300 300">
  <g id="_레이어_1" data-name="레이어 1">
    <g>
      <path d="m178.87,177.57c-22.06,22.99-38.2,50.99-47.05,81.6,4.1,7.8,8.77,16.16,14.12,25.03h66.9c7.32-14.39,16.28-27.88,26.71-40.2l-60.68-66.43Z" fill="#fff"/>
      <path d="m250.72,117.31c-14.57-5.35-29.85-8.52-45.34-9.4-17.6,6.8-34.14,16.09-49.09,27.6l23.05,25.23c20.62-19.14,44.91-33.91,71.38-43.43Z" fill="#fff"/>
      <path d="m231.87,99.79h0c12.69,2.92,25.11,6.9,37.13,11.89,5-1.29,10.06-2.39,15.2-3.3v-13.4c-2.73-.11-5.47-.18-8.22-.18-14.84,0-29.64,1.67-44.11,4.99Z" fill="#fff"/>
      <path d="m79.37,284.2h35.17c1.12-7.9,2.69-15.74,4.71-23.46-8.68-16.6-16-33.88-21.89-51.66-10.94,23.59-17.06,49.13-18,75.12Z" fill="#fff"/>
      <path d="m147.21,142.91c-16.75,14.53-30.94,31.77-41.99,50.99,4.71,17.36,11.11,34.23,19.11,50.34,9.98-28.15,25.89-53.84,46.65-75.31l-23.77-26.02Z" fill="#fff"/>
      <path d="m268.19,124h0c-30.22,8.46-57.99,24.01-80.98,45.37l60.17,65.86c11.05-11.68,23.4-22.05,36.81-30.91v-72.87c-2.9-1.46-5.72-2.83-8.43-4.08-2.58-1.19-5.11-2.31-7.57-3.36Z" fill="#fff"/>
      <path d="m253.03,15.8H46.97c-17.21,0-31.17,13.95-31.17,31.17h0v206.07c0,17.21,13.95,31.17,31.17,31.17h20.71c4.09-112.12,96.1-200.95,208.29-201.08,2.75,0,5.5.07,8.22.18v-36.32c0-17.21-13.95-31.17-31.17-31.17ZM74.77,108.55c-15.6,0-28.24-12.65-28.24-28.25,0-15.6,12.65-28.24,28.25-28.24,15.6,0,28.24,12.64,28.24,28.24,0,15.6-12.65,28.25-28.25,28.25Z" fill="#fff"/>
      <path d="m226.06,284.19h0s26.97,0,26.97,0c6.45,0,12.75-2.01,18-5.75l-23.52-25.75c-8.15,9.79-15.33,20.34-21.44,31.51Z" fill="#fff"/>
      <path d="m255.28,243.88h0l23.85,26.12c3.3-5.05,5.06-10.96,5.05-16.99v-34.51c-10.44,7.51-20.12,16.01-28.91,25.39Z" fill="#fff"/>
      <path d="m255.74,0H44.26C19.83.03.03,19.83,0,44.26v211.47c.03,24.43,19.83,44.23,44.26,44.26h211.47c24.43-.03,44.23-19.83,44.26-44.26V44.26c-.03-24.43-19.83-44.23-44.26-44.26Zm38.42,255.74c-.02,21.21-17.21,38.4-38.42,38.42H44.26c-21.21-.02-38.4-17.21-38.42-38.42V44.26c.03-21.21,17.21-38.4,38.42-38.42h211.47c21.21.03,38.4,17.21,38.42,38.42v211.47Z" fill="#fff"/>
    </g>
  </g>
</svg>