<?xml version="1.0" encoding="UTF-8"?>
<svg id="Layer_2" data-name="Layer 2" xmlns="http://www.w3.org/2000/svg" viewBox="0 0 300 300">
  <g id="_레이어_1" data-name="레이어 1">
    <g id="_12여행_shape_12_0003" data-name=" 12여행 shape 12 0003">
      <rect id="_사각형_67" data-name="사각형 67" y="0" width="300" height="300" fill="none"/>
      <path id="_패스_300" data-name="패스 300" d="m73.06,95.64c1.58-1.55,3.23-3.02,4.96-4.4,2.1-1.79,2.35-4.95.56-7.05-1.73-2.03-4.74-2.35-6.85-.72-2,1.6-3.92,3.3-5.74,5.1-1.99,1.92-2.04,5.08-.12,7.07s5.08,2.04,7.07.12c.04-.04.08-.08.12-.12h0Z" fill="#fff"/>
      <path id="_패스_301" data-name="패스 301" d="m32.03,29.6c9.05-3.57,18.98-4.28,28.44-2.04-2.89.24-5.73.93-8.41,2.04-16.75,7.02-21.68,28.4-21.88,29.32-.6,2.69,1.1,5.36,3.79,5.96.36.08.73.12,1.09.12,2.34,0,4.37-1.62,4.88-3.9.04-.17,4.05-17.3,16-22.28,5.3-1.93,11.14-1.77,16.33.43-11.89,5.84-28.76,19.42-32.18,50.21-.3,2.74,1.68,5.22,4.42,5.52,2.74.3,5.22-1.68,5.52-4.42,3.38-30.41,21.23-40.77,30.38-44.11,1.24,11.24,5.73,20.23,12.03,32.83,3.6,7.2,8.08,16.17,13.03,27.7,12,28,10.68,70.12,9.9,83.4H35.77c-2.92-25.79,3.27-51.79,17.5-73.5.62-1,1.29-1.96,1.96-2.92l.79-1.14c1.55-2.28.96-5.4-1.32-6.95s-5.4-.96-6.95,1.32l-.75,1.09c-.75,1.09-1.5,2.19-2.15,3.22-21.46,32.83-25.73,74-11.49,110.54.04.12.09.23.14.35,7.94,20.09,21.05,37.73,38,51.14.19.17.39.33.61.47,44.33,34.69,106.59,34.69,150.92,0,.22-.14.42-.3.61-.47,16.95-13.4,30.06-31.04,38-51.14.05-.11.09-.23.14-.35,10.21-26.18,11.03-55.1,2.3-81.81-.86-2.62-3.69-4.05-6.31-3.19s-4.05,3.69-3.19,6.31c3.66,11.17,5.52,22.85,5.5,34.6,0,4.15-.24,8.31-.71,12.43h-34.81c.32-1.77.49-3.57.5-5.37,0-16.57-13.43-30-30-30s-30,13.43-30,30c0,1.8.18,3.6.5,5.37h-22.57c6.37-17.59,16.14-39.34,29.33-53.97,8.4-9.29,15.53-16.3,21.27-21.94,10.07-9.89,17.24-16.95,22.05-27.21,7.58,6.14,21.11,21.71,14.5,51.57-.51,2.71,1.28,5.33,3.99,5.84,2.59.49,5.11-1.12,5.77-3.68,6.71-30.23-4.86-48.53-14.23-57.91,5.62-.4,11.19,1.34,15.58,4.87,9.7,8.58,7.96,26.09,7.94,26.26-.29,2.74,1.68,5.2,4.42,5.5.19.02.37.04.56.04,2.55,0,4.68-1.92,4.96-4.45.1-.93,2.36-22.76-11.21-34.81-2.13-1.89-4.54-3.44-7.15-4.6,9.61.99,18.71,4.85,26.1,11.07,2.14,1.75,5.29,1.43,7.04-.71,1.63-1.99,1.47-4.9-.35-6.71-11.69-10.34-27.3-15.09-42.76-13,7.49-4.91,16.73-6.34,25.35-3.92,2.61.89,5.45-.51,6.34-3.13.89-2.61-.51-5.45-3.13-6.34h0c-12.87-3.66-26.72-.95-37.26,7.3-1.01-9.47-5.74-18.15-13.14-24.14-2-1.91-5.16-1.84-7.07.16-1.91,2-1.84,5.16.16,7.07.13.12.27.24.41.35,5.93,4.68,9.51,11.72,9.81,19.26-2.76-4.32-6.56-7.87-11.06-10.32-17.04-9.34-39.22-.69-40.16-.31-2.54,1.07-3.74,4-2.67,6.55,1.04,2.48,3.86,3.69,6.37,2.74.18-.08,18.69-7.31,31.65-.21,3.4,1.93,6.2,4.76,8.09,8.19-22.43-7.19-43.17,8.15-52.04,18.93-1.76,2.13-1.45,5.29.68,7.04,2.13,1.76,5.29,1.45,7.04-.68.95-1.15,22.5-26.73,46.96-13.26-4,9.27-10.21,15.4-20.54,25.54-5.82,5.73-13.08,12.86-21.68,22.37-15.14,16.8-25.88,41.67-32.5,60.67h-7c.86-14.64,2.06-57.5-10.75-87.34-5.05-11.8-9.61-20.91-13.27-28.23-6.49-12.95-10.34-20.75-11.17-30.82,27.38-4.8,39.62,26.35,40.15,27.74,1.01,2.57,3.91,3.84,6.48,2.83,2.51-.99,3.79-3.78,2.88-6.33-4.91-13.09-19.59-34.35-43.2-34.75,2.91-2.63,6.49-4.41,10.35-5.13,14.48-2.5,29.77,10.32,29.93,10.44,2.15,1.74,5.3,1.4,7.03-.75,1.67-2.06,1.43-5.07-.53-6.85-.77-.66-18.96-16.04-38.1-12.7-5.05.87-9.79,3-13.8,6.19,2.72-7.04,8.38-12.54,15.5-15.05,2.57-1.02,3.81-3.93,2.79-6.5-1.02-2.57-3.93-3.81-6.5-2.79-8.95,3.28-16.23,9.97-20.25,18.6C75.65,7.75,63.43.7,50.06,0c-2.76,0-5.01,2.23-5.01,4.99,0,2.76,2.23,5.01,4.99,5.01,8.95.49,17.24,4.84,22.74,11.92-13.97-6.97-30.28-7.52-44.68-1.5-2.56,1.05-3.78,3.96-2.74,6.52s3.96,3.78,6.52,2.74c.05-.02.1-.04.15-.07h0Zm209.03,210.58H54.06c-3.19-4.75-6.01-9.73-8.44-14.9h203.88c-2.43,5.17-5.25,10.15-8.43,14.9Zm-149.45,34.9h111.9c-34.66,19.87-77.25,19.87-111.91,0h0Zm126.56-10H76.96c-5.55-4.48-10.68-9.46-15.29-14.9h171.8c-4.62,5.44-9.74,10.42-15.3,14.9h0Zm35.45-49.81H41.51c-1.74-4.87-3.13-9.85-4.18-14.91h220.46c-1.04,5.06-2.44,10.04-4.18,14.91h0Zm-78.56-30.28c0-11.05,8.95-20,20-20s20,8.95,20,20c-.03,1.82-.3,3.63-.82,5.37h-38.37c-.51-1.75-.78-3.55-.82-5.37Z" fill="#fff"/>
    </g>
  </g>
</svg>