<?xml version="1.0" encoding="UTF-8"?>
<svg id="Layer_2" data-name="Layer 2" xmlns="http://www.w3.org/2000/svg" viewBox="0 0 300 300">
  <g id="_레이어_1" data-name="레이어 1">
    <g>
      <path d="m251.49,75.03l-1,.75c.22,1.51.46,3.01.66,4.52,1.62,12.2,2.56,24.4-1.06,36.43-2.93,9.72-6.73,12.17-17.07,11.7-16.73-.84-33.09-5.07-48.02-12.41-11.36-5.45-23.18-9.54-36.19-8.94-12.04.56-22.96,4.85-33.59,9.92-15.14,7.25-31.75,11.18-48.64,11.49-5.95.68-11.52-2.92-13.14-8.49-.86-1.75-1.43-3.61-1.71-5.53-.52-9.48-.97-18.97-1.1-28.45.18-3.6.62-7.19,1.31-10.73-27.49,35.91-34.36,75-19.47,117.26,4.81,13.65,11.45,26.4,23.71,35.44,11.78,8.87,26.67,12.97,41.52,11.43-4.59-3.25-8.77-5.94-12.64-8.99-17.7-13.7-30.31-32.61-35.91-53.85-2.59-9.56,2.88-16.25,13.12-16.31,3.98-.03,7.95-.03,11.93,0,9.69-.02,18.97,3.76,25.72,10.47,3.97,3.79,7.78,7.74,11.53,11.74,12.93,13.45,20.27,31.03,20.63,49.38.69,6.27-3.14,12.18-9.28,14.33-4.98,2.05-10.26,3.35-15.65,3.86-9.97.6-20.03.17-29.56.17,46,33.9,111.67,28.03,147.94-.9-5.36.42-10.46,1.01-15.59,1.22-10.51.42-20.99.22-30.73-4.4-6.04-2.87-9.64-7.68-8.72-14.27.87-8.42,2.55-16.75,5.03-24.87,5.8-16.81,18.45-28.98,31.93-40.17,5.66-4.39,12.75-6.7,20-6.52,4.37-.07,8.75-.05,13.12-.02,9.82.07,15.26,6.99,12.74,16.3-4.23,16.59-12.95,31.79-25.25,44.06-6.92,6.8-14.84,12.65-22.16,18.78,1.09.15,2.18.23,3.28.27,22.65-.04,40.92-8.88,51.66-28.3,25.45-46.03,22.37-90.98-8.07-134.1-.47-.73-.89-1.49-1.28-2.27Zm-100.15,95.47c-11.34-.02-20.56-8.82-20.72-19.77,0-.06,0-.12,0-.18-.02-11.04,9.23-20,20.65-20.02,11.42-.02,20.7,8.91,20.72,19.95.02,11.04-9.22,20-20.65,20.02Z" fill="#fff"/>
      <path d="m151.2,45.35c37.02-.05,65.53,16.24,86.98,45.96.1-2.14.28-3.54.22-4.93-.95-21.04-10.66-37.2-30.06-46.83-36.92-18.32-74.39-18.39-111.83-1.19-14.25,6.25-25.03,18.11-29.61,32.56-2.27,6.52-3.05,13.44-2.3,20.28,21.3-29.55,49.71-45.81,86.61-45.85Z" fill="#fff"/>
      <path d="m299.99,150.88c.29-47.61-22.47-95.88-62.75-124.03C136.19-42.62-3.94,31.21.08,150.88c2.14,78.03,70.29,147.32,151.65,149.08,86.01,1.99,148.39-68.35,148.26-149.08h-.01Zm-1.51,0c.41,97.32-110.86,161.06-201.6,128.36C42.03,260.35,5.78,207.15,8.37,150.88,11.41,75.9,74.03,15.91,151.74,15.75c76.31-.71,147.16,59.2,146.75,135.14h0Z" fill="#fff"/>
    </g>
  </g>
</svg>