<?xml version="1.0" encoding="UTF-8"?>
<svg id="Layer_2" data-name="Layer 2" xmlns="http://www.w3.org/2000/svg" viewBox="0 0 300 300">
  <g id="_레이어_1" data-name="레이어 1">
    <g>
      <path d="m292.76,69.57h-90.48V30.7c0-3.7-3-6.7-6.7-6.7h-91.15c-3.7,0-6.7,3-6.7,6.7v38.87H7.24c-3.7,0-6.7,3-6.7,6.7v193.02c0,3.7,3,6.7,6.7,6.7h285.51c3.7,0,6.7-3,6.7-6.7V76.28c0-3.7-3-6.7-6.7-6.7Zm-188.33,13.4h139.18v179.62H56.39V82.98h48.03Zm6.7-45.57h77.74v32.17h-77.74v-32.17ZM13.95,82.98h29.04v179.62H13.95V82.98Zm272.11,179.62h-29.04V82.98h29.04v179.62Z" fill="#fff"/>
      <rect width="300" height="300" fill="none"/>
    </g>
  </g>
</svg>