<?xml version="1.0" encoding="UTF-8"?>
<svg id="Layer_2" data-name="Layer 2" xmlns="http://www.w3.org/2000/svg" viewBox="0 0 300 300">
  <g id="_레이어_1" data-name="레이어 1">
    <g>
      <g>
        <path d="m299.69,189.17c-2.1-10.93-4.6-21.78-7.07-32.64-1.62-8.17-7.64-14.75-15.64-17.08-15.33-5.16-30.66-10.35-46.02-15.43-2.05-.5-3.59-2.2-3.88-4.3-1.96-8.76-4.4-17.4-7.3-25.89-6.01-16.34-18.11-26.28-34.85-30.42-4.78-1-9.62-1.66-14.49-1.98-24.69-2.57-49.59-2.18-74.19,1.17-19.55,2.72-33.24,13.58-40.32,31.92-3.53,9.14-5.55,18.88-8.06,28.4-.29,1.9-1.57,3.5-3.36,4.2-8.86,3.84-17.67,7.77-26.45,11.78-7.09,3-12.12,9.46-13.29,17.07-.81,4.52-1.23,9.1-1.89,13.64C1.96,176.01.97,182.36,0,188.73v7.05c.4,1.08.81,2.16,1.19,3.24,3.24,9.39,12.52,16.07,21.47,15.46.26-8.26,2.93-16.26,7.68-23.02,8.3-11.31,21.79-17.62,35.79-16.73,2.99.21,12.78.88,20.68,7.64,5.74,4.91,10.71,13.21,10.84,13.12-.07-.19-.17-.36-.29-.52l38.42-.22c33.59-.2,64.78-.39,67.18-.4,0,0,3.83-4.3,7.01-7.44,2.35-2.49,4.95-4.73,7.74-6.71,4.77-3.07,10.22-4.91,15.88-5.36,9.43-.94,18.88,1.62,26.54,7.2,11.04,7.95,16.42,19,16.95,32.43,12.98.86,25.05-12.6,22.61-25.28ZM127.74,109.65c-.03,4.8-2.63,7.46-7.4,7.49-7.61.05-15.22.01-22.83.01h0c-7.61,0-15.22.06-22.82-.03-.73.05-1.45-.03-2.15-.23-3.46-.97-5.47-4.55-4.51-8.01,2.41-9.57,6.46-18.1,14.85-24.13,5.82-4.18,12.33-5.63,19.18-6.3,5.92-.58,11.85-1.07,17.78-1.53,4.81-.38,7.87,2.39,7.9,7.21.04,8.5.04,17.01,0,25.51Zm72.54,7.48c-7.8.08-15.6.02-23.4.02-7.6.01-15.21.03-22.82,0-5.06-.03-7.59-2.54-7.61-7.53-.03-8.6-.05-17.19.01-25.79-.04-.48-.02-.97.05-1.45.52-3.6,3.86-6.09,7.46-5.56,8.93.78,17.92,1.28,26.73,2.81,10.59,1.84,18.03,8.44,22.6,18.09,1.47,3.4,2.67,6.91,3.6,10.5.34.9.49,1.86.42,2.82-.26,3.63-3.41,6.36-7.04,6.1Z" fill="#fff"/>
        <circle cx="63.3" cy="214.03" r="26.2" fill="#fff"/>
        <circle cx="239.01" cy="214.03" r="26.2" fill="#fff"/>
      </g>
      <rect width="300" height="300" fill="none"/>
    </g>
  </g>
</svg>