<?xml version="1.0" encoding="UTF-8"?>
<svg id="Layer_2" data-name="Layer 2" xmlns="http://www.w3.org/2000/svg" viewBox="0 0 300 300">
  <g id="_레이어_1" data-name="레이어 1">
    <g>
      <path id="_패스_990" data-name="패스 990" d="m295.53,170.62h-14.36c-.97,0-1.88.46-2.45,1.23l-21.6,29.04h-79.24l3.27-27.54,71.02,14.66c1.43.3,2.84-.63,3.13-2.06.3-1.43-.63-2.84-2.06-3.13l-71.46-14.75,8.5-71.64c.2-1.68-1-3.19-2.67-3.39-.12-.01-.24-.02-.36-.02h-20.37c-1.06,0-2.05.55-2.61,1.45l-38.1,62.12-44.46-9.17c-1.43-.3-2.84.63-3.13,2.06s.63,2.84,2.06,3.13h0l42.59,8.79-24.23,39.5H8.46c9.86-32.55,41.13-42.87,52.03-45.52,1.65-.4,2.66-2.05,2.26-3.7-.4-1.65-2.05-2.66-3.7-2.26-7.78,1.88-15.28,4.79-22.29,8.64-18.39,10.12-30.58,25.72-35.24,45.11-.14.55-.14,1.12.02,1.67.39,1.3,1.58,2.18,2.93,2.18h96.24c1.06,0,2.05-.55,2.6-1.46l26.27-42.84,2.95-4.81,36.05-58.78h15.23l-8.03,67.7-.63,5.29-3.74,31.48c-.2,1.68,1,3.2,2.67,3.4.12.01.24.02.36.02h84.21c.97,0,1.88-.46,2.45-1.23l21.59-29.04h9.77v27.21c0,1.69,1.37,3.05,3.06,3.05,1.69,0,3.05-1.37,3.05-3.05v-30.27c0-1.69-1.37-3.06-3.06-3.06" fill="#fff"/>
      <rect width="300" height="300" fill="none"/>
    </g>
  </g>
</svg>