<?xml version="1.0" encoding="UTF-8"?>
<svg id="Layer_2" data-name="Layer 2" xmlns="http://www.w3.org/2000/svg" viewBox="0 0 300 300">
  <g id="_레이어_1" data-name="레이어 1">
    <g>
      <g>
        <path d="m282.31,159.28c-7.88-2-15.75-3.99-23.69-5.99v-3.85c0-20.9,0-41.8,0-62.7,0-13.85-8.55-22.43-22.3-22.45-7.11,0-14.22,0-21.33,0-.92,0-1.85-.12-2.91-.19h-10.51c-20.58,0-41.08,0-61.74,0h-10.5c-.54,0-1.05,0-1.57,0v-31.29c0-10.74-8.74-19.49-19.49-19.49h-63.14c-10.74,0-19.49,8.74-19.49,19.49v31.47c-1.49,0-2.96,0-4.43.02C8.94,64.38.03,73.26.03,85.58c-.03,49.56-.03,99.12,0,148.68,0,12.49,8.91,21.31,21.41,21.39,3.31.02,6.63,0,9.87,0,4.27,21.21,20.04,29.94,33.39,30.93,7.85.58,15.18-1.29,21.84-5.52,9.33-5.93,14.58-14.61,16.59-25.27h93.79c3.78,17.91,16.83,29.84,33.45,30.81,8.22.48,15.81-1.54,22.63-6.17,8.73-5.93,13.7-14.33,15.63-24.78,3.19,0,6.19,0,9.2,0,13.53-.03,22.16-8.69,22.17-22.27.02-17.13,0-34.26,0-51.39,0-12.49-5.56-19.63-17.69-22.71Zm-95.85-84.42c.51-.07,1.11-.22,1.72-.22,16.46-.01,32.92-.04,49.37,0,6.06.02,10.01,3.79,10.61,10.22h-61.71v-10Zm-.01,20.68h61.82c0,9.69,0,19.15,0,28.61,0,9.37.07,18.73-.08,28.1-.02,1.22-1.17,2.43-1.83,3.63-.09.17-.37.22-.53.36-5.95,5.26-12.78,6.84-20.74,6.47-12.78-.59-25.6-.16-38.65-.16v-67.02ZM57.45,60.67V25.16h38.48v35.52h-38.48Zm58.45-27.87v27.87h-8.14V25.16h.49c4.22,0,7.65,3.43,7.65,7.65Zm-78.43,0c0-4.22,3.43-7.65,7.65-7.65h.49v35.52h-8.14v-27.87Zm-17.17,41.88c12.03-.14,24.07-.04,36.35-.04v10.12l.11,10.79v66.83H10.61v-66.83l-.11-10.79c.35-5.79,4.29-10.02,9.8-10.08Zm46.8,201.66c-14.1-.02-25.67-11.62-25.71-25.76-.04-14.3,11.53-25.94,25.82-25.96,14.15-.02,25.81,11.5,25.89,25.58.08,14.46-11.57,26.16-26,26.14Zm46.49-31.21h-10.51c-1.87-10.23-6.84-18.62-15.55-24.56-6.71-4.58-14.18-6.59-22.28-6.23-16.61.73-29.04,11.96-33.98,30.87-4,0-8.1.3-12.13-.08-4.86-.46-8.54-4.78-8.76-9.71-.12-2.58-.03-5.17-.04-7.75,0-.85,0-1.71,0-3.05,3.2,0,6.28.02,9.35,0,7.07-.05,11.28-4.21,11.33-11.22.03-4.74.06-9.48,0-14.21-.08-6.38-4.41-10.67-10.81-10.76-3.12-.04-6.24,0-9.73,0v-15.3h103.1v72.01Zm-103-31.01v-15.14h9.92v15.14h-9.92Zm103.06-51.74h-46.15v-66.83l-.12-10.8v-9.95h46.14v9.95l.13,10.8v66.83Zm10.63-87.59h51.32v9.96h-51.32v-9.96Zm51.35,170.37h-51.34V95.57h51.34v149.59Zm56.9,31.18c-14.09-.05-25.63-11.68-25.64-25.82-.01-14.29,11.59-25.9,25.89-25.89,14.14,0,25.77,11.56,25.82,25.64.05,14.45-11.63,26.13-26.07,26.07Zm56.93-39.93c-.31,4.74-4.54,8.55-9.3,8.82-3.75.21-7.52.04-11.54.04-1.92-10.47-6.97-18.94-15.83-24.88-6.65-4.46-14.03-6.41-22.03-6.06-16.6.73-28.85,11.79-33.99,30.82h-10.37v-72.25h3.56c15.41,0,30.82.07,46.23-.08,2.01-.02,4.03-1.07,6-1.78.79-.28,1.56-.8,2.16-1.39,6.46-6.33,13.71-7.15,22-3.85,4.26,1.69,8.94,2.32,13.42,3.46,7.65,1.95,10.2,5.49,9.74,13.95-6.66-.33-13.06.37-17.53,6.35-3.46,4.63-3.2,9.92-2.97,15.19.22,5.05,2.33,9.58,6.78,11.8,4.06,2.03,8.82,2.67,13.76,4.06,0,4.68.28,10.26-.08,15.8Zm-.04-42.63v15.14c-8.52.69-10.14-.6-10.13-7.9,0-6.58,1.86-7.93,10.13-7.24Z" fill="#fff"/>
        <path d="m217.11,183.28c-5.06-.11-10.13-.1-15.19,0-3.26.07-5.42,2.31-5.35,5.25.07,2.8,2.17,4.88,5.27,5.02,2.47.11,4.95.02,7.43.02,2.58,0,5.17.08,7.75-.02,3.25-.13,5.43-2.35,5.35-5.27-.07-2.8-2.17-4.94-5.27-5.01Z" fill="#fff"/>
        <circle cx="67.07" cy="250.09" r="13.32" fill="#fff"/>
        <circle cx="232.82" cy="250.09" r="13.32" fill="#fff"/>
      </g>
      <rect width="300" height="300" fill="none"/>
    </g>
  </g>
</svg>