<?xml version="1.0" encoding="UTF-8"?>
<svg id="Layer_2" data-name="Layer 2" xmlns="http://www.w3.org/2000/svg" viewBox="0 0 300 300">
  <g id="_레이어_1" data-name="레이어 1">
    <g>
      <g>
        <path d="m289.35,0h-92.9c-2.96,0-5.36,2.4-5.36,5.36v42.85h-87.54c-2.96,0-5.36,2.4-5.36,5.36v36.97H10.65c-2.96,0-5.36,2.4-5.36,5.36v198.73c0,2.96,2.4,5.36,5.36,5.36h92.9c2.96,0,5.36-2.4,5.36-5.36v-36.97h87.54c2.96,0,5.36-2.4,5.36-5.36v-42.85h87.54c2.96,0,5.36-2.4,5.36-5.36V5.36c0-2.96-2.4-5.36-5.36-5.36Zm-87.54,10.72h31.29c3.02,6.76,5.75,16.08,3.97,20.39-.42,1.02-1.06,1.58-2.22,1.95-12.08,3.83-28.62,9.07-26.93,24.28.23,2.03-2.58,4.66-6.11,6.89V10.72Zm-10.72,87.34c-4.55-1.43-10.33-4.26-11.94-9.63-3.27-10.92-10.19-11.82-15.76-12.54-3.29-.43-6.69-.87-10.52-3.31-1.54-.98-2.36-2.09-2.64-3.59-.6-3.17,1.2-7.36,2.72-10.06h38.14v39.13Zm-92.9,52.67c-3.67,3.47-14.2,12.19-25.45,10.08-.8-.15-1.31-.31-1.61-.43.09-.91.53-2.54.83-3.69,1.87-6.96,5.34-19.92-13.12-30.03-5.99-3.28-9.31-7.06-9.85-11.21-.7-5.36,3.15-11.14,5.78-14.18h43.43v49.46ZM16.01,243.84c5.94-3.24,17.14-8.05,24.54-5.95,2.74.78,4.65,2.44,6.02,5.23,3.95,8.05.35,16.03-2.54,22.44-2.27,5.03-4.41,9.77-1.77,13.97,2.49,3.95,7.38,4.07,8.99,4.11,5.2.12,10.06,2.72,13.94,5.65H16.01v-45.44Zm82.18,45.44h-17.46c-4.07-4.73-14.75-15.51-28.24-16.32.4-.97.89-2.07,1.31-2.99,3.41-7.56,8.56-18.99,2.39-31.57-2.69-5.49-7.1-9.23-12.74-10.83-9.26-2.62-20.12.94-27.44,4.28V101.27h25.78c-2.34,4.27-4.19,9.69-3.44,15.51.99,7.77,6.15,14.25,15.34,19.29,11.08,6.07,9.68,11.27,7.91,17.85-1.04,3.88-2.22,8.28.28,12.25,1.69,2.68,4.59,4.38,8.88,5.18,1.88.35,3.73.51,5.54.51,8.65,0,16.32-3.67,21.89-7.43v124.85Zm92.9-42.33h-82.18v-64.39c.08-.09.16-.18.23-.28,4.35-6.05,8.1-12.06,11.2-17.13,1.54-2.53.75-5.82-1.78-7.37-2.52-1.54-5.82-.75-7.37,1.78-.72,1.18-1.48,2.42-2.28,3.69V58.93h32.22c-1.33,3.55-2.22,7.8-1.43,12.02.83,4.42,3.4,8.12,7.43,10.68,5.84,3.72,11.07,4.4,14.89,4.89,4.85.63,5.59.73,6.87,4.99,3.46,11.56,15.4,16.03,22.21,17.67v12.35c-.57.51-1.06,1.14-1.37,1.89-.92,2.17-.29,4.58,1.37,6.07v117.45Zm10.72-112.78c3.77,1.3,7.42,2.28,10.9,2.91.32.06.64.09.95.09,2.54,0,4.8-1.82,5.27-4.41.52-2.91-1.41-5.7-4.33-6.22-3.98-.72-8.27-1.99-12.79-3.79v-46.33c6.23-2.87,17.93-9.72,16.76-20.24-.54-4.83,4.39-8.08,19.52-12.88,4.18-1.32,7.25-4.12,8.88-8.07,3.01-7.29.34-17.46-2.3-24.48h39.32v121.1c-6.44-1.37-15.74-2.08-22.47,2.74-3.68,2.64-7.97,8.01-7.54,18.6.68,16.45-3.04,17.66-14.09,21.27-3.15,1.03-6.71,2.19-10.58,3.88-12.18,5.33-15.7,13.72-15.85,20.41h-11.66v-64.57Zm22.39,64.57c.16-2.93,1.85-7.29,9.41-10.59,3.39-1.48,6.55-2.52,9.61-3.52,13.99-4.57,22.41-9,21.47-31.9-.19-4.66.84-7.84,3.06-9.44,3.92-2.82,11.41-1.69,16.23-.42v55.88h-59.79Z" fill="#fff"/>
        <path d="m87.93,189.76c-4.94,4-10.19,6.67-15.61,7.95-2.88.68-4.67,3.56-3.99,6.45.58,2.47,2.78,4.13,5.21,4.13.41,0,.82-.05,1.23-.14,6.99-1.65,13.68-5.03,19.89-10.04,2.3-1.86,2.66-5.24.8-7.54-1.86-2.3-5.24-2.66-7.54-.8Z" fill="#fff"/>
        <path d="m142.45,125.75c-2.07-2.12-5.46-2.16-7.58-.09-4.25,4.15-8.29,9.29-13.09,16.68-1.61,2.48-.91,5.8,1.58,7.41.9.59,1.91.87,2.91.87,1.75,0,3.47-.86,4.5-2.44,4.35-6.7,7.93-11.28,11.59-14.85,2.12-2.07,2.16-5.46.09-7.58Z" fill="#fff"/>
        <path d="m233.47,136.15c.58,0,1.16-.09,1.74-.29,7.26-2.49,13.42-7.16,18.3-13.89,1.74-2.4,1.2-5.75-1.19-7.49-2.4-1.74-5.75-1.21-7.49,1.19-3.56,4.91-7.97,8.29-13.1,10.05-2.8.96-4.29,4.01-3.33,6.81.76,2.22,2.84,3.62,5.07,3.62Z" fill="#fff"/>
        <path d="m176.6,114.14c-8.18-1.6-15.6-1.55-22.24.15-2.87.73-4.6,3.65-3.87,6.52.62,2.42,2.8,4.03,5.19,4.03.44,0,.89-.05,1.33-.17,5.09-1.3,10.93-1.3,17.53-.01,2.9.57,5.72-1.33,6.29-4.23.57-2.9-1.33-5.72-4.23-6.29Z" fill="#fff"/>
        <path d="m44.95,183.23c-8.29,0-15.01,6.72-15.01,15.01s6.72,15.01,15.01,15.01c5.61,0,10.49-3.08,13.07-7.64.37-.51.67-1.08.85-1.73,0-.03,0-.05.01-.08.69-1.72,1.08-3.59,1.08-5.56,0-8.29-6.72-15.01-15.01-15.01Z" fill="#fff"/>
        <circle cx="259.34" cy="92.12" r="15.01" fill="#fff"/>
        <path d="m155.81,173.62s-.1.01-.15.02c-.92.13-22.48,3.47-23.87,21.22-.81,10.35,7.61,21.96,18.39,25.35,2.02.64,4.02.95,5.96.95,6.68,0,12.67-3.7,16.71-10.55,7.1-12.06,8.46-22.61,3.85-29.68-2.7-4.13-8.51-8.76-20.88-7.3Zm7.8,31.55c-2.68,4.56-6.02,6.13-10.2,4.82-5.93-1.87-11.34-8.94-10.92-14.29.7-8.9,13.69-11.27,14.68-11.44,3.14-.36,8.58-.48,10.55,2.52,1.71,2.61,1.52,8.82-4.11,18.39Z" fill="#fff"/>
      </g>
      <rect width="300" height="300" fill="none"/>
    </g>
  </g>
</svg>