<?xml version="1.0" encoding="UTF-8"?>
<svg id="Layer_2" data-name="Layer 2" xmlns="http://www.w3.org/2000/svg" viewBox="0 0 300 300">
  <g id="_레이어_1" data-name="레이어 1">
    <g>
      <g>
        <path d="m201.43,163.65c4.91,44.52-37.15,62.64-37.15,62.64,88.44,32.55,135.72-52.2,135.72-52.2-51.89-21.8-98.57-10.44-98.57-10.44Z" fill="#fff"/>
        <path d="m152.61,72.76s38.69,83.21,0,150.15c0,0,93.65-28.25,0-150.15Z" fill="#fff"/>
        <path d="m111.26,129.57c-8.89,9.01-21.41,13.44-33.99,12.03-6.47,21.41-10.59,43.46-12.28,65.76,0,0,40.89-2.46,81.79,15.56V31.62s-17.19,12.43-35.92,39.59h0c16.23,16.01,16.4,42.13.4,58.36Z" fill="#fff"/>
        <path d="m122.83,228.75C7.68,197.74,0,255.47,0,255.47,0,255.47,15.41,204.96,148.31,255.47c129.27,49.13,148.31-57.73,148.31-57.73-52.82,58.34-84.72,55-173.8,31.01Z" fill="#fff"/>
        <path d="m81.84,132.64c17.72,0,32.08-14.37,32.08-32.09s-14.37-32.09-32.09-32.09-32.09,14.37-32.09,32.09h0c0,17.73,14.37,32.09,32.09,32.09Z" fill="#fff"/>
      </g>
      <rect width="300" height="300" fill="none"/>
    </g>
  </g>
</svg>