<?xml version="1.0" encoding="UTF-8"?>
<svg id="_레이어_2" data-name="레이어 2" xmlns="http://www.w3.org/2000/svg" viewBox="0 0 300 300">
  <g id="_레이어_1-2" data-name="레이어 1">
    <g id="_04스포츠_shape_04_0021" data-name=" 04스포츠 shape 04 0021">
      <rect id="_사각형_2879" data-name="사각형 2879" width="300" height="300" fill="none"/>
      <path id="_패스_801" data-name="패스 801" d="M82.3,298c-2.16-.57-4.34-1.05-6.47-1.73-5.23-1.55-9.71-4.96-12.59-9.59-5.45-8.72-3.95-18.3,4-24.86,5.42-4.48,11.88-6.43,18.6-7.65,6.74-1.22,13.49-2.39,20.25-3.51,3.73-.62,6.18-2.95,8.17-6.04,4.78-7.43,6.18-15.73,6.09-24.43-.21-20.85-4.41-40.97-11.1-60.55-4.74-13.88-7.22-28.21-8.73-42.71-1.23-11.82-1.61-23.74-2.4-35.62-.32-3.19,.77-6.36,2.98-8.68,9.47-10,18.98-19.95,28.38-30.01,3.43-3.42,6.58-7.11,9.41-11.05,4.85-7.09,7.34-15.54,7.12-24.12-.09-3.56,.96-4.53,4.26-4.46,2.79,.05,3.78,1.1,3.69,4.46-.22,8.59,2.27,17.03,7.12,24.13,2.67,4.01,6.11,7.52,9.4,11.05,9.4,10.06,18.91,20.01,28.38,30.01,2.11,2.26,3.2,5.3,3,8.39-.45,21.35-2.2,42.58-6.88,63.42-2.09,9.32-5.43,18.34-8.06,27.54-4.64,15.85-7.11,32.26-7.33,48.78-.1,6.43,1.04,12.82,3.37,18.82,2.97,7.59,8.3,11.32,16.11,12.35,7.43,.98,14.83,2.38,22.14,4.06,3.19,.84,6.22,2.2,8.97,4.02,12.69,7.97,13.22,23.97,.91,32.59-3.3,2.31-7.52,3.23-11.33,4.76-.68,.27-1.4,.42-2.1,.62h-10.15c-.81-.19-1.61-.44-2.43-.56-6.13-.9-12.29-1.62-18.39-2.69-14.76-2.59-29.6-4.31-44.57-3.11-10.93,.88-21.81,2.43-32.7,3.81-5.66,.71-11.3,1.69-16.95,2.55h-10.15Zm56.71-165.85c-2.27-2.91-4.75-5.46-6.5-8.46-5.17-8.88-4.63-18.54-3.01-28.24,1.35-8.09,6.18-12.95,14.04-13.84,4.93-.52,9.91-.37,14.81,.44,6.2,1,10.37,5.26,11.64,11.5,2.88,14.16,2.88,27.8-9.27,38.2,2.15,5.06,5.07,5.87,8.34,1.74,2.79-3.52,5.49-7.48,6.86-11.72,2.17-7.04,3.8-14.23,4.88-21.51,1.15-7.2,1.29-14.25-2.64-21.15-8.31-14.34-17.61-28.09-27.84-41.13-.09-.11-.34-.1-.68-.18-3.25,4.37-6.63,8.73-9.81,13.23-7.48,10.57-14.97,21.15-20.2,33.14-.81,1.73-1.24,3.61-1.26,5.52,.39,10.97,1.61,21.87,5.59,32.13,1.72,4.22,4.05,8.16,6.93,11.7,3.27,4.11,6.22,3.27,8.11-1.36Z" fill="#fff"/>
    </g>
  </g>
</svg>