<?xml version="1.0" encoding="UTF-8"?>
<svg id="_레이어_2" data-name="레이어 2" xmlns="http://www.w3.org/2000/svg" viewBox="0 0 300 300">
  <g id="_레이어_1-2" data-name="레이어 1">
    <g id="_04스포츠_shape_04_0020" data-name=" 04스포츠 shape 04 0020">
      <g id="_그룹_287" data-name="그룹 287">
        <path id="_패스_852" data-name="패스 852" d="M128.38,149.03c1.32,1.74,2.41,3.2,3.51,4.65,4.42,5.83,9.16,11.45,13.2,17.54,5.41,8.15,4.61,13.74-2.3,20.67-4.52,4.54-9.17,8.95-13.83,13.34-4.44,4.19-8.83,8.45-13.52,12.35-2.28,1.9-3.08,3.37-2.26,6.5,1.98,7.51-.58,14.64-6.36,16.73-3.74,1.4-7.11,3.61-9.89,6.47-.44,.42-.94,.78-1.48,1.07-7.41,4.15-13.55,10.25-17.76,17.63-.68,1.14-1.48,2.2-2.4,3.15-2.33,2.42-1.99,5.03-.93,7.87,.99,2.33,1.72,4.76,2.16,7.25,.95,7.31-3.59,12.5-10.92,12.79-2.11,.08-4.23,.01-6.47,.01-.57,2.05,.72,2.41,2.47,2.45,5.09,.12,10.18,.42,15.27,.42,65.7,.05,131.4,.07,197.1,.07h3.19V.16h-2.03c-24.44-.05-48.88-.1-73.32-.14-3.26,0-6.53-.09-9.76,.19-6.13,.53-12.66,6.71-14.09,13.42,1.62-1.22,2.98-2.25,4.35-3.28,2.36-2.02,5.54-2.79,8.57-2.09,1.8,.34,3.62,.57,5.45,.68,4.98,.53,7.53,3.86,7.03,8.7-.44,4.19-2.97,6.48-6.62,7.95,1.4,5.01-.92,8.36-4.84,10.54-4.39,2.44-9.06,4.37-13.6,6.53-.27,.13-.72,.19-.79,.39-1.21,3.54-4.82,3.77-7.45,5.24-9.75,5.44-19.64,10.65-29.41,16.06-.82,.65-1.36,1.59-1.5,2.63-1.21,6.98,.52,13.51,3.27,19.85,2.02,4.66,4.3,9.22,6.07,13.97,6.83,18.34-.07,36.86-17.15,46.49-.88,.49-1.73,1.02-2.97,1.76Zm-49.27,35.29c3.01,.3,2.81-1.11,2.15-2.98-.36-1.01-.78-2.34-.41-3.19,2.32-5.26,4.86-10.42,7.3-15.57l28.86,20.6c-.33,.42-.68,.82-1.06,1.19-7.08,6.17-12.53,14.13-21.18,18.6-3.46,1.79-6.39,4.58-9.65,6.79-2.52,1.71-5.22,3.17-7.76,4.85-2.52,1.67-3.07,3.66-1.65,6.29,1.82,3.63,5.36,6.08,9.39,6.51,2.95,.26,5.67,1.69,7.56,3.97,1.66,1.9,3.75,3.38,6.1,4.31,4.51,1.7,8.75-1.22,8.52-6.02-.18-3.83-1.42-7.61-2.19-11.42-.58-.05-.53-.28-.38-.38,12.99-8.51,22.69-20.65,34.11-30.9,4.49-4.03,4.78-7.16,1.15-12.13-7.72-10.54-14.67-21.74-24.77-30.36-2.54-2.1-4-5.22-3.98-8.52-.07-2.03-1.45-4.06-2.39-6.02-2.09-4.32-4.29-8.59-6.39-12.91-.2-.58-.27-1.2-.21-1.81,.21-14.12-2.46-27.91-4.82-41.74-.61-3.56,1.37-6.31,5.2-6.47,12.29-.5,23.72-4.76,35.1-8.61,7.98-2.7,15.18-7.69,22.71-11.7,3.67-1.96,7.34-3.93,10.92-6.05,1.03-.79,1.96-1.71,2.77-2.73l-.55-.67c.57-.23,1.15-.68,1.69-.64,5.49,.4,8.82-4.24,13.49-5.8,.88-.29,1.28-2.01,1.9-3.07-1.03-.48-2.03-1.28-3.09-1.36-1.85-.04-3.69,.06-5.53,.29-.25-2.77,1.03-4.23,3.34-4.86,2.55-.69,5.11-1.35,7.71-1.84s4.4-1.46,3.91-4.64c-2.56-.31-5.16-.67-7.76-.93-.68-.07-1.65-.12-2.05,.27-3.74,3.63-9.49,4.61-12.32,9.47-2.33,4.35-6.75,7.18-11.67,7.49-3.3,.31-6.53,1.5-9.77,2.37-14.67,3.96-29.17,8.7-44.43,10.11-.8,.06-1.6,.05-2.4-.03-3.13-.3-6.26-.79-9.39-.93-8.8-.39-17.62,1.4-26.44-.39-2.33-.47-3.12-1.32-2.36-3.37,.99-2.68,1.58-5.53,4.47-7.28,1.04-.63,2.01-3.48,1.47-4.25-2.02-2.88-4.66-5.33-7.08-7.94l2.1-4.03c-2.84,0-4.91,.08-6.97-.02-4.18-.2-6.02-3.07-4.44-6.81,.22-.53,.35-1.1,.55-1.77-3.48-.53-6.89-.69-10.09-1.61-12.13-3.48-22.47,5.72-24.85,15.5-1.61,6.6-.9,12.7,4.52,17.62,2.1,1.91,3.94,4.11,5.88,6.2,1.28,1.7,3.7,2.04,5.41,.77,1.1-.47,2.26-.8,3.45-.97l1.03,5.18c-5.39,3.53-10.7,10.97-7.14,18.6,.85,1.82,.31,3.18-.43,4.83-1.32,2.93-2.98,5.93-3.31,9.02-1.15,9.62-.63,19.36,1.55,28.81,2.71,11.55,6.08,22.93,10.09,34.09,2.07,5.63,6.46,10.41,9.72,15.62,.66,.95,1.04,2.07,1.11,3.22-.17,9.05-.35,18.1-.81,27.14-.23,5.59-.8,11.16-1.7,16.68-1.02,5.86-3.53,11.55-3.94,17.41-.72,10.34-4.53,20.77-.05,31.13,.02,.1,.02,.2,0,.3-.16,4.16-.45,8.33-.44,12.49,.01,4.02-.14,8.13,.62,12.03,1.19,6.09,6.32,9.23,14.26,9.53,5.81,.22,7.88-2.22,6.61-7.86-.2-.88-.67-1.71-.87-2.59-.73-2.69-1.3-5.42-1.7-8.17-.51-4.82-.71-9.67-1-14.5-.19-1.11-.15-2.24,.11-3.33,2.59-6.92,1.76-14.06,1.34-21.12-.36-6.08-.14-11.83,3.69-16.98,1.05-1.51,1.79-3.2,2.2-4.99,1.29-5.11,2.34-10.29,3.55-15.42,.19-.81,.62-2.1,1.16-2.22,4.28-.94,2.84-3.49,1.86-5.97-.38-.95-.7-1.91-1.23-3.39Z" fill="#fff"/>
        <path id="_패스_853" data-name="패스 853" d="M128.38,149.03c1.23-.73,2.09-1.26,2.96-1.76,17.08-9.63,23.98-28.14,17.15-46.49-1.77-4.75-4.05-9.31-6.07-13.97-2.76-6.34-4.49-12.87-3.27-19.85,.14-1.04,.68-1.98,1.5-2.63,9.77-5.41,19.65-10.62,29.41-16.06,2.63-1.47,6.23-1.69,7.45-5.24,.07-.2,.52-.26,.79-.39,4.55-2.15,9.21-4.09,13.6-6.53,3.92-2.18,6.24-5.53,4.84-10.54,3.65-1.46,6.18-3.75,6.62-7.95,.51-4.84-2.05-8.17-7.03-8.7-1.83-.11-3.65-.34-5.45-.68-3.03-.71-6.21,.07-8.57,2.09-1.36,1.04-2.73,2.06-4.35,3.28,1.43-6.7,7.96-12.89,14.09-13.42,3.24-.28,6.51-.2,9.76-.19,24.44,.04,48.88,.08,73.32,.14h2.03V300h-3.19c-65.7-.02-131.4-.04-197.1-.07-5.09,0-10.18-.3-15.27-.42-1.75-.04-3.04-.4-2.47-2.45,2.24,0,4.36,.07,6.47-.01,7.33-.28,11.88-5.48,10.92-12.79-.45-2.49-1.17-4.92-2.16-7.25-1.06-2.83-1.4-5.44,.93-7.87,.92-.95,1.72-2.01,2.4-3.15,4.2-7.38,10.34-13.48,17.76-17.63,.54-.29,1.04-.65,1.48-1.07,2.78-2.86,6.16-5.07,9.89-6.47,5.77-2.09,8.34-9.22,6.36-16.73-.82-3.12-.03-4.6,2.26-6.5,4.69-3.9,9.08-8.16,13.52-12.35,4.66-4.4,9.31-8.81,13.83-13.34,6.91-6.93,7.71-12.52,2.3-20.67-4.04-6.09-8.78-11.71-13.2-17.54-1.1-1.45-2.19-2.9-3.51-4.65Z" fill="#fff"/>
        <path id="_패스_854" data-name="패스 854" d="M79.12,184.33c.53,1.49,.85,2.44,1.22,3.38,.98,2.48,2.42,5.02-1.86,5.97-.53,.12-.96,1.4-1.16,2.22-1.21,5.13-2.26,10.31-3.55,15.42-.41,1.79-1.15,3.48-2.2,4.99-3.83,5.15-4.05,10.9-3.69,16.98,.42,7.06,1.25,14.2-1.34,21.12-.26,1.09-.29,2.23-.11,3.33,.29,4.84,.49,9.69,1,14.5,.4,2.76,.97,5.49,1.7,8.17,.2,.88,.67,1.71,.87,2.59,1.26,5.64-.8,8.08-6.61,7.86-7.94-.3-13.07-3.43-14.26-9.53-.76-3.9-.61-8.01-.62-12.03-.01-4.16,.28-8.33,.44-12.49,.02-.1,.02-.2,0-.3-4.48-10.36-.67-20.79,.05-31.13,.41-5.86,2.92-11.55,3.94-17.41,.9-5.52,1.47-11.09,1.7-16.68,.46-9.04,.63-18.09,.81-27.14-.07-1.16-.45-2.27-1.11-3.22-3.26-5.21-7.65-9.99-9.72-15.62-4.02-11.16-7.39-22.54-10.09-34.09-2.17-9.44-2.69-19.19-1.55-28.81,.34-3.1,2-6.1,3.31-9.02,.74-1.65,1.27-3.01,.43-4.83-3.55-7.63,1.76-15.07,7.14-18.6l-1.03-5.18c-1.19,.17-2.35,.5-3.45,.97-1.71,1.27-4.12,.93-5.41-.77-1.94-2.08-3.78-4.29-5.88-6.2-5.41-4.92-6.12-11.02-4.52-17.62,2.38-9.77,12.72-18.98,24.85-15.5,3.2,.92,6.61,1.08,10.09,1.61-.21,.67-.33,1.24-.55,1.77-1.58,3.74,.26,6.62,4.44,6.81,2.06,.1,4.12,.02,6.97,.02l-2.1,4.03c2.41,2.61,5.06,5.05,7.08,7.94,.54,.77-.43,3.61-1.47,4.25-2.88,1.75-3.48,4.6-4.47,7.28-.76,2.05,.03,2.89,2.36,3.37,8.82,1.8,17.64,0,26.44,.39,3.14,.14,6.26,.63,9.39,.93,.8,.09,1.6,.1,2.4,.03,15.26-1.41,29.75-6.15,44.43-10.11,3.24-.87,6.47-2.06,9.77-2.37,4.93-.31,9.34-3.14,11.67-7.49,2.83-4.86,8.58-5.84,12.32-9.47,.4-.39,1.37-.34,2.05-.27,2.6,.26,5.2,.62,7.76,.93,.48,3.18-1.32,4.16-3.91,4.64s-5.16,1.14-7.71,1.84c-2.31,.63-3.59,2.09-3.34,4.86,1.83-.23,3.68-.32,5.53-.29,1.06,.09,2.06,.89,3.09,1.36-.62,1.06-1.02,2.77-1.9,3.07-4.66,1.56-7.99,6.2-13.49,5.8-.55-.04-1.13,.42-1.69,.64l.55,.67c-.81,1.02-1.74,1.94-2.77,2.73-3.58,2.12-7.24,4.1-10.92,6.05-7.53,4.01-14.73,9-22.71,11.7-11.38,3.85-22.81,8.11-35.1,8.61-3.83,.16-5.81,2.91-5.2,6.47,2.35,13.82,5.03,27.61,4.82,41.74-.07,.61,0,1.23,.21,1.81,2.1,4.32,4.3,8.59,6.39,12.91,.94,1.96,2.32,3.98,2.39,6.02-.02,3.29,1.45,6.42,3.98,8.52,10.1,8.62,17.05,19.82,24.77,30.36,3.64,4.97,3.35,8.09-1.15,12.13-11.42,10.25-21.12,22.38-34.11,30.9-.15,.1-.21,.33,.38,.38,.77,3.8,2.01,7.58,2.19,11.42,.23,4.8-4.01,7.72-8.52,6.02-2.35-.93-4.44-2.4-6.1-4.31-1.89-2.28-4.61-3.7-7.56-3.97-4.04-.43-7.58-2.88-9.39-6.51-1.42-2.63-.88-4.62,1.65-6.29,2.54-1.68,5.24-3.14,7.76-4.85,3.26-2.21,6.19-5,9.65-6.79,8.65-4.47,14.1-12.43,21.18-18.6,.38-.37,.73-.77,1.06-1.19l-28.86-20.6c-2.45,5.15-4.98,10.31-7.3,15.57-.38,.85,.05,2.19,.41,3.19,.68,1.89,.87,3.3-2.14,3Z" fill="#fff"/>
      </g>
      <rect id="_사각형_2869" data-name="사각형 2869" y="0" width="300" height="299.99" fill="none"/>
    </g>
  </g>
</svg>