<?xml version="1.0" encoding="UTF-8"?>
<svg id="_레이어_2" data-name="레이어 2" xmlns="http://www.w3.org/2000/svg" viewBox="0 0 300 300">
  <g id="_레이어_1-2" data-name="레이어 1">
    <g id="_04스포츠_shape_04_0003" data-name=" 04스포츠 shape 04 0003">
      <path id="_패스_417" data-name="패스 417" d="M157.93,155.64c-5.02,70.02-42.91,111.25-69.07,131.5,12.56,5.6,25.83,9.44,39.44,11.4l5.68-4.61c34.38-27.88,75.98-77.48,85.6-155.62-19.14,1.39-39.86,6.6-61.66,17.33Z" fill="#fff"/>
      <path id="_패스_418" data-name="패스 418" d="M294.17,108.51l-7.59-4.67c-27.13-16.73-98.16-50.37-184.63-14.36,10.93,17.29,26.42,34.17,48.26,48.9,62.65-30.58,117.92-18.32,148.82-5.94-.97-8.09-2.59-16.09-4.86-23.92Z" fill="#fff"/>
      <path id="_패스_419" data-name="패스 419" d="M150.07,0c-25.41-.02-50.4,6.44-72.61,18.79l.07,.68c2.09,18.57,7.25,36.66,15.26,53.53,83.22-35.52,153.58-11.78,189.97,7.14C256.85,30.86,205.76,0,150.07,0Z" fill="#fff"/>
      <path id="_패스_420" data-name="패스 420" d="M60.2,30.11c-12.19,9.14-22.92,20.08-31.83,32.44l.81,5.24c6.82,44.01,28.23,105.8,90.19,155.32,10.24-18.45,18.02-41.33,19.95-69.45C85.11,116.88,66.03,68.01,60.2,30.11Z" fill="#fff"/>
      <path id="_패스_421" data-name="패스 421" d="M13.82,87.51c-31.68,68.58-7.29,150.02,56.88,189.88l1.8-1.29c14.16-10.32,26.59-22.83,36.82-37.06C49.04,191.58,23.88,133.4,13.82,87.51Z" fill="#fff"/>
      <path id="_패스_422" data-name="패스 422" d="M297.47,152.15c-18.62-8.27-38.6-13.06-58.94-14.12-8.91,78.57-47.71,130.43-83.03,161.98,79.46-2.85,142.87-67.25,144.51-146.74l-2.53-1.11Z" fill="#fff"/>
    </g>
  </g>
</svg>