<?xml version="1.0" encoding="UTF-8"?>
<svg id="_레이어_2" data-name="레이어 2" xmlns="http://www.w3.org/2000/svg" viewBox="0 0 300 300">
  <g id="_레이어_1-2" data-name="레이어 1">
    <g id="_04스포츠_shape_04_0002" data-name=" 04스포츠 shape 04 0002">
      <ellipse id="_타원_64" data-name="타원 64" cx="206.13" cy="37.5" rx="37.53" ry="37.5" fill="#fff"/>
      <path id="_패스_415" data-name="패스 415" d="M291.7,252l-53.85-53.81c-2.83-2.74-3.52-7.01-1.69-10.5,14.15-25.94,18.34-56.15,11.78-84.96L102.52,248.02c28.84,6.55,59.07,2.37,85.04-11.77,3.49-1.83,7.77-1.14,10.51,1.69l53.85,53.81c10.96,10.98,28.75,11,39.74,.04,.01-.01,.03-.03,.04-.04,10.98-10.85,11.08-28.54,.23-39.51-.08-.08-.16-.16-.24-.24Z" fill="#fff"/>
      <path id="_패스_416" data-name="패스 416" d="M240.91,81.43c-9.86,7.93-22.12,12.27-34.77,12.32-31.08,.01-56.28-25.17-56.29-56.24h0c.04-10.15,2.86-20.08,8.14-28.73C113.62-6.11,62.08-2.55,29.56,29.81-18.85,78.37-3.1,169.5,42.88,215.44c11.33,11.25,24.78,20.13,39.57,26.14L241.49,82.69c-.17-.43-.39-.84-.58-1.26Z" fill="#fff"/>
    </g>
  </g>
</svg>