<?xml version="1.0" encoding="UTF-8"?>
<svg id="_레이어_2" data-name="레이어 2" xmlns="http://www.w3.org/2000/svg" viewBox="0 0 300 300">
  <g id="_레이어_1-2" data-name="레이어 1">
    <g id="_04스포츠_shape_04_0027" data-name=" 04스포츠 shape 04 0027">
      <path id="_패스_838" data-name="패스 838" d="M0,171.17c6.25-16.12,12.21-32.36,18.82-48.32,8.54-20.61,17.63-40.98,26.41-61.48,4.42-10.31,11.32-18.01,21.24-22.83,9.16-4.45,18.24-9.08,27.03-13.48,9.5,10.57,17.8,22.15,24.77,34.53,11.35,20.03,18.74,42.06,21.75,64.89,.79,6.06,4.7,9.95,9.94,10s9.27-3.88,10.07-9.85c4.91-36.45,19.84-68.04,43.16-95.57,.96-1.13,1.79-2.37,3.11-4.14,9.13,4.56,18.38,9.26,27.69,13.81,9.83,4.8,16.19,12.76,20.96,22.73,13.8,28.83,25.33,58.66,36.91,88.48,2.48,6.38,4.9,12.77,7.27,19.19,2.1,5.69,.33,9.99-5.09,12.24-7.6,3.15-15.24,6.21-22.89,9.24-5.5,2.17-9.42,.46-11.88-5.2-7.91-18.15-15.8-36.3-23.66-54.47-.21-.67-.5-1.31-.86-1.91-.62-.69-1.3-1.33-2.02-1.92-.63,.78-1.6,1.46-1.83,2.35-1.65,6.45-3.14,12.94-4.68,19.41-2.9,12.17-5.83,24.33-8.65,36.51-.42,1.8-1.01,2.69-2.89,3.07-17.06,3.36-34.38,5.25-51.77,5.66-1.72,.05-3.56-.87-5.19-1.67-5.22-2.54-10.21-3.33-14.99,1.04-.8,.53-1.76,.76-2.72,.66-18.45-.56-36.85-2.4-55.04-5.51-1.09-.46-1.91-1.39-2.22-2.53-4.21-17.35-8.3-34.73-12.41-52.1-.42-1.77-.74-3.57-1.3-5.28-.26-.71-.83-1.27-1.55-1.5-.57-.07-1.38,.57-1.81,1.13-.48,.76-.87,1.58-1.15,2.44-7.81,17.97-15.62,35.94-23.43,53.91-2.92,6.71-6.53,8.21-13.13,5.53-6.72-2.73-13.4-5.56-20.18-8.1-3.46-1.3-6.19-3.23-7.77-6.73v-4.25Z" fill="#fff"/>
      <path id="_패스_839" data-name="패스 839" d="M218.67,209.06c9.36,25.42,18.23,50.99,21.12,78.3,.8,7.51-3.62,12.56-10.86,12.58-13.28,.05-26.56-.02-39.85,.03-4.23,.01-8.39-1.13-12.02-3.31-5.69-3.32-11.38-6.66-17-10.12-6.73-4.13-13.41-4.25-20.26-.31-6.23,3.58-12.54,7-18.84,10.43-4.23,2.3-8.99,3.44-13.8,3.33-11.82-.13-23.63-.03-35.45-.05-7.88-.01-12.22-4.85-11.41-12.9,2-19.85,7.56-38.8,13.8-57.55,2.03-6.11,4.28-12.15,6.59-18.16,.44-.95,1.33-1.62,2.37-1.79,13.07,1.58,26.12,3.33,39.54,5.08-.52,.84-1.11,1.67-1.58,2.58-2.98,5.78-6.22,11.45-8.82,17.41-2.44,5.07-.31,11.16,4.76,13.6,.17,.08,.35,.16,.53,.24,5.38,2.26,10.93-.33,13.25-6.36,3.59-9.16,8.98-17.51,15.85-24.54,2.57-2.69,8.11-3.53,11.26-1.53,14.86,9.44,24.84,22.57,28.05,40.64,.78,4.4,2.13,8.24,6.41,10.14,3.27,1.6,7.18,1.11,9.94-1.26,3.12-2.39,4.6-6.35,3.82-10.2-2.06-14.62-8.2-28.36-17.71-39.65-.44-.52-.86-1.06-1.53-1.89l31.82-4.74Z" fill="#fff"/>
      <path id="_패스_840" data-name="패스 840" d="M189.53,13.77c-17.33,19.54-30.1,41.69-39.46,66.77-9.71-24.92-22.02-47.37-39.43-66.82,5.04-6.9,11.45-12.44,19.83-13.04,12.55-.82,25.14-.9,37.71-.24,8.96,.42,15.73,5.95,21.35,13.33Z" fill="#fff"/>
    </g>
  </g>
</svg>