<?xml version="1.0" encoding="UTF-8"?>
<svg id="_레이어_2" data-name="레이어 2" xmlns="http://www.w3.org/2000/svg" viewBox="0 0 300 300">
  <g id="_레이어_1-2" data-name="레이어 1">
    <g id="_04스포츠_shape_04_0013" data-name=" 04스포츠 shape 04 0013">
      <g id="_그룹_284" data-name="그룹 284">
        <path id="_패스_846" data-name="패스 846" d="M265.35,.05c1.96,.5,3.94,.96,5.88,1.51,27.81,7.93,38.46,42.76,18.43,63.62-24.39,25.4-49.64,50.03-75.41,74.03-12.44,11.58-26.77,21.17-40.51,31.31-20.11,15.01-39.06,31.52-56.69,49.38-13.79,13.82-27.61,27.61-41.44,41.39-1.28,1.17-1.96,2.86-1.86,4.59,.21,8.79-3.07,17.31-9.13,23.68-2.39,2.57-4.87,5.07-7.42,7.49-3.93,3.74-8.92,3.77-12.8-.09-13.92-13.83-27.79-27.7-41.61-41.63-1.04-1.25-1.98-2.58-2.78-3.99v-4.69c8.63-12.07,19.01-21.12,35.06-20.61,.94-.01,1.84-.37,2.52-1.02,23.59-24.14,47.63-47.86,70.47-72.7,12.63-13.74,23.57-29.1,34.66-44.17,14.17-19.14,29.88-37.07,47-53.63,13.84-13.48,27.44-27.2,40.98-40.97,6.86-6.97,14.69-11.81,24.5-13.13,.28-.09,.54-.21,.78-.38h9.37ZM115.4,196.82c.32-.23,.63-.48,.92-.75,17.62-17.4,37.27-32.33,56.95-47.27,14.21-10.79,28.98-20.91,41.7-33.56,20.2-20.1,40.39-40.22,60.56-60.36,.62-.62,1.21-1.28,1.77-1.96,6.33-7.78,6.48-18.88,.38-26.83-8.18-10.59-23.1-11.39-32.9-1.64-17.23,17.14-34.36,34.39-51.58,51.53-10.85,10.82-20.93,22.38-30.19,34.59-16.13,21.19-31.42,43.05-49.62,62.6-3.57,3.84-7.13,7.7-10.39,11.21l12.41,12.43Zm-24.85,.96l-35.28,35.29,11.38,11.58,35.36-35.44-11.46-11.43Zm-39.44,80.57c4.12-4.35,6.36-9.47,4.69-15.21-2.75-9.46-9.35-15.84-18.55-19.02-5.74-1.98-12.65,.69-15.5,4.88l29.37,29.35Z" fill="#fff"/>
        <path id="_패스_847" data-name="패스 847" d="M181.98,240.77c.08-32.53,26.52-58.83,59.05-58.75,.05,0,.1,0,.15,0,32.57,.13,58.86,26.64,58.73,59.21,0,.02,0,.03,0,.05-.25,32.58-26.81,58.82-59.39,58.66-32.47-.26-58.63-26.7-58.54-59.18Zm40.02-36.31c16.53,24.53,16.52,48.89-.03,73.07,10.5,6.4,28.97,6.38,37.59-.08-8.16-10.45-12.57-23.34-12.53-36.6-.02-13.26,4.43-26.14,12.64-36.56-10.35-6.31-28.38-6.19-37.67,.17h0Zm51.31,11.31c-12.69,15.22-10.48,38.9,.23,50.27,12.42-14.65,10.96-38.07-.23-50.27h0Zm-65.17,.32c-11.4,12.9-11.31,37.81,0,49.67,11.22-12.65,11.27-36.34,0-49.67h0Z" fill="#fff"/>
      </g>
      <rect id="_사각형_2867" data-name="사각형 2867" x="0" width="300" height="300" fill="none"/>
    </g>
  </g>
</svg>