<?xml version="1.0" encoding="UTF-8"?>
<svg id="_레이어_2" data-name="레이어 2" xmlns="http://www.w3.org/2000/svg" viewBox="0 0 300 300">
  <g id="_레이어_1-2" data-name="레이어 1">
    <g id="_04스포츠_shape_04_0019" data-name=" 04스포츠 shape 04 0019">
      <path id="_패스_855" data-name="패스 855" d="M87.28,300c-5.01-2.18-6.93-6-6.59-11.42,.29-4.65,.06-9.32,.06-14.37-1.67,0-3.1,.03-4.52,0-5.25-.15-9-3.84-9-8.8s3.79-8.66,9.01-8.76c1.36-.03,2.72,0,4.3,0v-14.49c-1.07-.08-2.12-.08-3.15-.25-4.35-.63-7.57-4.37-7.54-8.77-.09-15.61-.09-31.23,0-46.84,.03-5.12,3.51-8.49,8.63-8.88,.66-.05,1.32-.13,2.12-.21V97.74c-1.32,0-2.55,0-3.77,0-6.85-.04-10.18-3.38-10.19-10.29-.02-12.2-.02-24.4,0-36.59v-2.77l-.66-.18c-.53,.87-1.06,1.74-1.6,2.6-5.85,9.27-12.04,18.27-20.77,25.14-7.26,5.71-15.3,9.35-24.69,6.48-9.25-2.82-15.63-8.89-18.38-18.4-.14-.35-.31-.68-.52-1v-6.44c2.86-12.1,11.31-20,20.68-27.07C36.35,17.4,53.79,8.7,71.69,.89c1.45-.57,2.99-.84,4.55-.81C86.98,.01,97.71,.08,108.45,.02c3.07-.11,6.01,1.19,8,3.52,11.78,13.37,16.15,32,3.82,49.07-5.06,7.01-6.83,14.51-4.39,22.94,1.16,3.98,.86,8.25-.86,12.02-3.1,7.03-8.63,10.3-16.46,10.22v79.37c.45,.1,.9,.18,1.36,.23,6.11,.41,9.14,3.6,9.15,9.8,.03,11.22,0,22.45,0,33.68v9.66c0,8.21-2.32,10.8-10.76,11.7v14.42c1.83,0,3.37-.05,4.9,0,4.71,.13,8.5,3.92,8.61,8.63,0,4.6-3.5,8.44-8.08,8.86-1.64,.15-3.3,.03-5.43,.03v11.13c0,1.95,.06,3.91-.02,5.86-.2,4.57-2.88,7.24-6.92,8.82h-4.1ZM56.9,28.05c-10.09,4.69-19.54,10.05-27.92,17.05-3.37,2.79-6.45,5.92-9.18,9.33-3.51,4.45-2.74,7.57,2.32,10.03,1.8,.83,3.87,.89,5.71,.14,3.2-1.73,6.53-3.8,8.8-6.56,5.11-6.22,9.74-12.85,14.32-19.49,2.27-3.31,3.99-7,5.96-10.51Z" fill="#fff"/>
      <path id="_패스_856" data-name="패스 856" d="M208.53,300c-5.2-1.93-7.22-5.74-6.98-11.18,.21-4.75,.04-9.52,.04-14.62-1.79,0-3.33,.06-4.85-.01-4.82-.14-8.65-4.09-8.66-8.91,.13-4.82,4.1-8.66,8.92-8.63,1.36-.03,2.73,0,4.34,0v-14.47c-.75-.07-1.59-.13-2.42-.21-4.48-.45-7.98-3.79-8.01-8.24-.11-16.01-.11-32.02,0-48.04,.03-4.5,3.47-7.81,7.97-8.24,.76-.07,1.53-.1,2.51-.16V98.03c-2.15-.22-4.28-.57-6.39-1.06-7.81-2.31-12.86-11.06-11.36-19.49,.46-2.59,1.18-5.15,1.42-7.76,.6-6.46-1.77-12.02-5.47-17.17-4.68-6.51-7.45-13.73-7.31-21.82,.19-10.86,4.47-20.12,11.96-27.79,1.85-1.69,4.24-2.67,6.74-2.77,11.12-.28,22.25-.15,33.38-.1,1.27,0,2.52,.24,3.69,.73,18.97,8.33,37.57,17.4,53.75,30.54,4.99,4.05,9.44,8.74,13.24,13.93,6.8,9.37,6.43,19.31-.05,27.31-7.84,9.68-18.76,12.88-29.47,8.53-8.71-3.54-15.06-10.01-20.65-17.26-3.91-5.08-7.42-10.47-11.58-16.38v39.22c0,7.92-3.05,11-10.92,11.04h-3.03v79.41c.71,.1,1.36,.22,2.01,.26,5.17,.37,8.68,3.67,8.72,8.8,.11,15.62,.11,31.24,0,46.87-.03,5.1-3.61,8.56-8.65,8.91-.66,.05-1.32,.11-2.11,.17v14.49c1.58,0,3.1-.04,4.62,0,4.72-.03,8.61,3.71,8.75,8.43,.22,4.8-3.49,8.87-8.29,9.1-.03,0-.07,0-.1,0-1.55,.1-3.11,.01-5.13,.01,0,4.9,.02,9.64-.01,14.38,.05,1.65-.05,3.31-.32,4.94-.71,3.38-3.4,5.02-6.19,6.48h-4.1ZM243.07,28.07c1.29,2.38,2.53,4.78,3.87,7.13,5.1,8.89,10.41,17.68,18.08,24.63,2.53,2.25,5.42,4.05,8.56,5.31,3.34,1.35,5.58-1.32,7.67-3.54,1.9-2.02,.95-4.11-.29-5.86-1.63-2.42-3.5-4.67-5.57-6.72-9.38-8.98-20.61-15.23-32.34-20.94Z" fill="#fff"/>
      <rect id="_사각형_2870" data-name="사각형 2870" y="0" width="300" height="300" fill="none"/>
    </g>
  </g>
</svg>