<?xml version="1.0" encoding="UTF-8"?>
<svg id="_레이어_2" data-name="레이어 2" xmlns="http://www.w3.org/2000/svg" viewBox="0 0 300 300">
  <g id="_레이어_1-2" data-name="레이어 1">
    <g id="_04스포츠_shape_04_0009" data-name=" 04스포츠 shape 04 0009">
      <rect id="_사각형_2748" data-name="사각형 2748" width="300" height="300" fill="none"/>
      <path id="_패스_479" data-name="패스 479" d="M268.28,266.25h-47.75V49.65c-.05-4.91-4.08-8.85-8.99-8.8-4.84,.05-8.75,3.96-8.8,8.8v13.32H97.27v-13.32c-.05-4.91-4.08-8.85-8.99-8.8-4.84,.05-8.75,3.96-8.8,8.8v216.6H31.73c-4.9,0-8.88,3.97-8.88,8.88s3.97,8.88,8.88,8.88h236.55c4.9,0,8.88-3.97,8.88-8.88s-3.97-8.88-8.88-8.88h0ZM97.27,80.72h105.47v185.53H97.27V80.72Z" fill="#fff"/>
      <path id="_패스_480" data-name="패스 480" d="M291.11,62.97h-4.78v-22c0-13.26-10.75-24.01-24.01-24.01s-24.01,10.75-24.01,24.01v61.75c0,13.26,10.75,24.01,24.01,24.01s24.01-10.75,24.01-24.01v-22h4.78c4.9,0,8.88-3.97,8.88-8.87,0-4.9-3.97-8.88-8.87-8.88h0Z" fill="#fff"/>
      <path id="_패스_481" data-name="패스 481" d="M61.69,102.72V40.97c-.09-13.26-10.9-23.94-24.17-23.86-13.14,.08-23.77,10.72-23.86,23.86v22h-4.77c-4.9,0-8.88,3.97-8.88,8.87s3.97,8.88,8.87,8.88h4.78v22c.09,13.26,10.9,23.94,24.17,23.86,13.14-.08,23.77-10.72,23.86-23.86h0Z" fill="#fff"/>
    </g>
  </g>
</svg>