<?xml version="1.0" encoding="UTF-8"?>
<svg id="_레이어_2" data-name="레이어 2" xmlns="http://www.w3.org/2000/svg" viewBox="0 0 300 300">
  <g id="_레이어_1-2" data-name="레이어 1">
    <g id="_04스포츠_shape_04_0017" data-name=" 04스포츠 shape 04 0017">
      <path id="_패스_812" data-name="패스 812" d="M300,80.34c-.82,6.67-1.64,13.34-2.38,19.35L200.45,2.38l19.28-2.38h68.19c5.61,2.06,10.03,6.48,12.08,12.09V80.34Z" fill="#fff"/>
      <path id="_패스_813" data-name="패스 813" d="M289.22,138.39c-.5,1.51-.8,2.47-1.13,3.41-25.59,72.3-74.52,121.21-146.79,146.73-2.42,.86-3.85,.38-5.59-1.37-40.84-40.96-81.72-81.88-122.65-122.74-1.78-1.78-2.13-3.25-1.29-5.61C37.36,86.57,86.22,37.59,158.33,11.87c2.66-.94,4.35-.67,6.41,1.39,40.61,40.78,81.27,81.51,121.97,122.2,.96,.97,1.78,2.08,2.5,2.94Zm-114.96-44.63l-.61,1.13c-9.79,.04-17.25,8.52-15.02,18.22,1.04,4.52-.21,6.96-3.3,9.43-1.01,.81-1.93,1.74-2.74,2.75-1.8,2.23-3.57,2.75-6.64,1.9-10.71-2.97-21.39,5.95-19.05,16.58,1.24,5.65-.65,8.45-4.25,11.48-.99,.83-1.7,2.1-2.8,2.65-1.32,.66-3.06,1.34-4.36,1.01-7.58-1.95-14.62,.51-18.38,6.75-3.81,6.32-2.94,13.76,2.51,19.41,4.99,5.18,10.07,10.27,15.25,15.27,5.83,5.65,13.35,6.59,19.72,2.65,6.17-3.81,8.53-10.7,6.6-18.47-.26-1.4,.07-2.84,.9-3.99,2.13-2.54,4.47-4.88,7-7.02,1.04-.76,2.37-1.03,3.62-.74,6.18,1.97,11.76,1.08,16.37-3.47,4.62-4.55,5.64-10.09,3.78-16.32-.32-1.4-.04-2.87,.78-4.05,2.12-2.54,4.46-4.89,7-7.01,1.07-.76,2.41-1.04,3.69-.77,8.12,2.14,14.84-.18,18.7-6.68,3.78-6.37,2.73-14.01-2.87-19.76-4.92-5.05-9.69-10.29-15.04-14.85-3.1-2.64-7.21-4.11-10.87-6.1Z" fill="#fff"/>
      <path id="_패스_814" data-name="패스 814" d="M2.55,200.31l97.44,97.52c-5.68,.58-11.87,1.67-18.08,1.77-21.99,.34-43.99,.43-65.98,.4-8.78-.01-15.6-6.11-15.57-14.6,.09-27.89-1.67-55.83,1.91-83.64,.09-.66,.26-1.32,.28-1.45Z" fill="#fff"/>
    </g>
  </g>
</svg>