<?xml version="1.0" encoding="UTF-8"?>
<svg id="_레이어_2" data-name="레이어 2" xmlns="http://www.w3.org/2000/svg" viewBox="0 0 300 300">
  <g id="_레이어_1-2" data-name="레이어 1">
    <g id="_04스포츠_shape_04_0024" data-name=" 04스포츠 shape 04 0024">
      <path id="_패스_790" data-name="패스 790" d="M110.01,185.96c3.16-3.02,6.22-5.79,9.11-8.73,9.85-10.01,10.66-23.46,1.98-34.51-7.53-9.58-15.2-19.04-22.81-28.56-.66-.82-1.29-1.66-2.26-2.92,5.49-4.76,10.82-9.58,16.37-14.12,4.26-3.48,8.73-6.72,13.25-9.86,3.71-2.58,7.25-1.78,9.95,1.83,3.56,4.69,5.57,10.38,5.74,16.27,.96,17.94,10.3,31.21,25.74,40.16,10.11,5.72,21.52,8.73,33.14,8.74,9.49,.15,19.01-.89,28.5-1.55,2.87-.2,7.69,2.2,8.63,4.95,.24,.7-.31,1.76-.69,2.57-3.4,7.21-6.34,14.54-6.65,22.68-.34,8.87,2.49,16.5,8.87,22.64,5.42,5.21,11.1,10.14,16.67,15.19,.77,.7,1.55,1.39,2.78,2.49-6.43,1.09-12.32,2.2-18.25,3.06-15.07,2.17-26.18-3.7-33.03-17.34-5.89-11.73-11.76-23.46-17.63-35.2-.56-1.12-1.13-2.24-1.86-3.68l-8.99,4.45c.5,1.12,.9,2.08,1.36,3.01,6.07,12.11,12.14,24.21,18.23,36.32,8.89,17.63,25.33,25.78,44.73,22.29,7.92-1.42,15.86-2.71,23.81-3.93,1.32-.23,2.67-.01,3.84,.63,6.14,4.15,12.4,8.19,18.11,12.88,3.17,2.6,5.54,6.27,7.92,9.7,.6,.87,.35,2.9-.27,3.96-2.93,5.13-7.72,8.95-13.38,10.66-5.82,1.91-11.83,3.16-17.93,3.73-12.84,.91-25.71,.15-38.09-3.58-6.24-1.94-12.25-4.58-17.9-7.86-8.68-4.97-16.91-4.81-24.71,1.52-2.45,1.99-4.87,4.01-7.65,6.3-22.18-28.01-44.19-55.81-66.65-84.18Z" fill="#fff"/>
      <path id="_패스_791" data-name="패스 791" d="M219.12,137.25c-16.55,1.38-32.6,1.17-47.25-7.19-12.52-7.14-19.69-17.96-20.62-32.62-.24-1.79,.66-3.54,2.26-4.39,19.05-12.61,35.54-28.71,48.6-47.45,10.38-14.72,21.06-29.22,31.61-43.81,.37-.51,.79-.98,1.44-1.79l61.96,44.24c-6.35,5.97-12.42,11.69-18.52,17.4-12.22,11.45-24.26,23.1-36.71,34.29-12.36,11.11-20.56,24.32-22.77,41.32Z" fill="#fff"/>
      <path id="_패스_792" data-name="패스 792" d="M299.79,272.72c1.49,12.12-5.12,22.49-17.75,24.54-20.03,3.26-40.3,4.18-60.27-.46-13.97-3.25-26.29-10.21-37.81-19.49,3.06-2.48,5.69-4.92,8.62-6.92,2.84-2.1,6.71-2.15,9.6-.12,15.87,10.68,33.87,13.19,52.35,13.89,9.89,.37,19.79-.01,29.14-3.49,5.57-2.07,10.74-5.25,16.11-7.94Z" fill="#fff"/>
      <path id="_패스_793" data-name="패스 793" d="M88.87,115.26c8.74,11.01,17.32,21.48,25.5,32.26,3.96,5.22,3.29,12.37-.82,17.41-.67,.82-1.45,1.54-2.17,2.32-2.39,2.54-4.78,5.08-7.33,7.8-7.24-9.14-14.13-17.85-21.03-26.55-1.12-1.41-2.32-2.75-3.46-4.14-4.4-5.09-4.55-12.61-.35-17.87,2.93-3.73,6.19-7.21,9.66-11.23Z" fill="#fff"/>
      <path id="_패스_794" data-name="패스 794" d="M40.7,242.01v-9.79H121.7v9.79H40.7Z" fill="#fff"/>
      <path id="_패스_795" data-name="패스 795" d="M76.44,269.07h80.94v9.9H76.44v-9.9Z" fill="#fff"/>
      <path id="_패스_796" data-name="패스 796" d="M0,205.58v-9.79H60.65v9.79H0Z" fill="#fff"/>
      <path id="_패스_797" data-name="패스 797" d="M91.37,195.83v9.71h-20.05v-9.71h20.05Z" fill="#fff"/>
      <path id="_패스_798" data-name="패스 798" d="M10.18,242.07v-9.79H30.19v9.79H10.18Z" fill="#fff"/>
      <path id="_패스_799" data-name="패스 799" d="M65.86,269.18v9.79h-19.96v-9.79h19.96Z" fill="#fff"/>
    </g>
  </g>
</svg>