<?xml version="1.0" encoding="UTF-8"?>
<svg id="_레이어_2" data-name="레이어 2" xmlns="http://www.w3.org/2000/svg" viewBox="0 0 300 300">
  <g id="_레이어_1-2" data-name="레이어 1">
    <g id="_04스포츠_shape_04_0025" data-name=" 04스포츠 shape 04 0025">
      <path id="_패스_747" data-name="패스 747" d="M48.7,12.58c33.53,0,65.53,.03,97.52-.02,6.86-.14,13.26,3.43,16.75,9.34,14.87,23.08,29.44,46.37,44.33,69.44,2.43,3.76,.46,5.49-1.79,7.76-19.2,19.31-38.24,38.77-57.63,57.88-3.78,3.73-4.02,6.23-1.2,10.63,16.81,26.29,33.35,52.76,49.91,79.2,4.39,7,5.93,14.35,1.44,21.95-4.25,7.2-10.83,9.06-18.88,9-36.3-.26-72.61-.14-108.91-.17h-9.58c8.12-7.85,16.69-15.23,25.66-22.1,2.68-2.03,13.62-10.23,13.62-10.23h0l12.48-.85c6.15-.43,17.01-1.14,37.64-2.48,.71-3.68-1.79-5.66-3.22-7.93-12.69-20.24-25.45-40.45-38.28-60.61-8.23-13.02-7.54-19.61,3.16-30.32,16.22-16.23,32.36-32.54,48.72-48.61,3.25-3.19,4.17-5.54,1.4-9.68-7.16-10.68-14.02-21.56-20.59-32.64-2.3-3.88-4.97-5.09-9.24-5.04-18.63,.21-37.26,.15-55.89,.21-2.86,0-5.62,.26-7.51-2.83-6.31-10.32-12.81-20.54-19.93-31.9Z" fill="#fff"/>
      <path id="_패스_748" data-name="패스 748" d="M4.18,287.45c-2.07-29.58-3.17-45.35-3.17-45.35h0s73.68-66.66,79.9-73.62c.4-.45,1.88-2.15,3.51-1.93,.9,.12,1.74,.95,2.73,2.7,4.05,7.3,8.49,14.36,13.32,21.17,1.23,1.37,1.91,3.14,1.9,4.98-.4,2-1.58,3.75-3.28,4.88-4.3,3.29-42.05,38.14-94.9,87.17Z" fill="#fff"/>
      <path id="_패스_749" data-name="패스 749" d="M219.15,109.84l12.83,19.91c11.88-17.18,17.46-25.53,20.35-29.97,.41-.62,5.95-9.15,5.95-9.15,7.83-.11,15.67-.21,23.51-.31,5.74-.07,11.47-.14,17.2-.21-23.38,36.76-39.96,63.17-45.57,73.22-1.71,2.99-3.84,5.72-6.32,8.1-1.99,1.92-10.88,10.87-19.59,8.52-3.7-1.04-6.93-3.3-9.17-6.43-8.51-11.44-15.66-23.9-23.49-35.86-1.71-2.6,0-3.91,1.51-5.4,7.46-7.36,14.93-14.69,22.79-22.43Z" fill="#fff"/>
      <path id="_패스_750" data-name="패스 750" d="M258.2,48.51l-34.99,31.21-17.48-22.44,35.26-30.15,17.21,21.38Z" fill="#fff"/>
      <rect id="_사각형_2872" data-name="사각형 2872" width="300" height="300" fill="none"/>
    </g>
  </g>
</svg>