<?xml version="1.0" encoding="UTF-8"?>
<svg id="_레이어_2" data-name="레이어 2" xmlns="http://www.w3.org/2000/svg" viewBox="0 0 300 300">
  <g id="_레이어_1-2" data-name="레이어 1">
    <g id="_04스포츠_shape_04_0029" data-name=" 04스포츠 shape 04 0029">
      <path id="_패스_802" data-name="패스 802" d="M227.78,299.91c-19.52-.17-35.81-3.77-50.09-13.68-8.18-5.48-14.54-13.28-18.24-22.41-.88-2.2-2.02-2.87-4.35-2.76-3.74,.17-7.5-.07-11.23,.12-1.16,.09-2.21,.69-2.88,1.64-8.4,20-24.94,30.39-46.07,34.83-23.39,4.91-45.93,2.27-66.73-9.47C11.95,279.01,1.77,265.64,.18,247.31c-1.4-16.03,5.69-28.85,18.06-39.12,11.32-9.4,25-13.83,39.71-15.3,21.62-2.17,41.97,1.53,60.3,13.13,8.61,5.28,15.6,12.82,20.21,21.8,.55,1.52,2.08,2.45,3.69,2.24,5.27-.13,10.54,.03,15.8-.11,1.17-.03,2.27-.55,3.03-1.44,10.83-19.44,28.29-30.21,50.42-34.36,22.07-4.14,43.41-1.96,63.05,9.2,13.64,7.75,22.77,19.01,25.02,34.22,2.32,15.66-3.13,29.3-14.51,40.62-12.24,12.18-27.83,18.11-45.01,20.61-4.73,.69-9.54,.87-12.16,1.1Zm-149.15-23.66c7.84,.21,15.6-1.6,22.55-5.25,19.22-10.36,21.08-34.09,3.11-46.29-15.6-10.59-32.9-12-50.16-4.1-20.88,9.55-22.82,34.21-4.15,47.27,8.5,5.95,18.22,8.34,28.66,8.38Zm147.42-60.45c-10.87-.04-19.58,1.84-27.34,6.67-9.99,6.22-15.81,14.82-15.11,26.53,.65,10.86,6.98,18.4,16.95,22.8,16.61,7.33,33.16,6.46,48.4-3.28,19.83-12.67,17.4-38.84-4.15-48.61-5.9-2.66-12.28-4.06-18.75-4.11Zm-82.8,25.08c.21,3.34,.4,6.29,.59,9.23h12.3c.16-3.22,.31-6.16,.46-9.23h-13.35Z" fill="#fff"/>
      <path id="_패스_803" data-name="패스 803" d="M120.33,135c-2.19-44-10.15-87.53-23.66-129.46,13.56-7.24,89.2-7.45,106.12-.24-1.97,6.79-4,13.61-5.91,20.45-9.75,34.73-15.6,70.44-17.47,106.47-.09,1.81-.12,3.18-2.77,3.17-18.26-.09-36.53-.06-54.8-.07-.51-.07-1.02-.17-1.52-.32Z" fill="#fff"/>
      <path id="_패스_804" data-name="패스 804" d="M213.67,8.42c23.69,9.01,42.56,23.21,56.9,42.84,18.41,25.2,24.02,53.46,21.61,83.82h-101.7c2.14-43.06,9.94-85.64,23.19-126.66Z" fill="#fff"/>
      <path id="_패스_805" data-name="패스 805" d="M85.94,8.81c13.27,40.87,21.05,83.32,23.13,126.24H7.76C1.29,74.03,37.67,26.14,85.94,8.81Z" fill="#fff"/>
      <path id="_패스_806" data-name="패스 806" d="M7.35,146.25H292.9c-.39,7.51-.06,15.12-1.39,22.46-1.24,6.81-8.37,11.06-16.05,11.08-16.62,.04-33.24,.02-49.86,.02-66.25,0-132.5-.16-198.75,.14-11.99,.05-20.42-7.62-19.55-18.87,.38-4.85,.06-9.75,.06-14.82Z" fill="#fff"/>
      <path id="_패스_807" data-name="패스 807" d="M78.53,265.59c-8.26-.06-15.99-1.84-22.61-6.78-10.3-7.7-9.74-20.63,1.14-27.58,11.52-7.36,31.33-6.01,41.68,2.84,9.89,8.46,8.5,21.37-3.02,27.66-5.29,2.76-11.22,4.1-17.18,3.87Z" fill="#fff"/>
      <path id="_패스_808" data-name="패스 808" d="M226.16,226.47c6.59,.08,13,2.21,18.33,6.09,8.44,6.33,9.26,15.72,2.27,23.43-10.5,11.59-33.04,13.4-45.42,3.65-9.42-7.42-9.18-18.7,.65-25.97,6.49-4.8,13.9-7.21,24.18-7.2Z" fill="#fff"/>
    </g>
  </g>
</svg>