<?xml version="1.0" encoding="UTF-8"?>
<svg id="_레이어_2" data-name="레이어 2" xmlns="http://www.w3.org/2000/svg" viewBox="0 0 300 300">
  <g id="_레이어_1-2" data-name="레이어 1">
    <g id="_04스포츠_shape_04_0007" data-name=" 04스포츠 shape 04 0007">
      <rect id="_사각형_2746" data-name="사각형 2746" y="0" width="300" height="298.27" fill="none"/>
      <path id="_합치기_10" data-name="합치기 10" d="M115.31,286.29c-.57,.63-1.16,1.24-1.78,1.85-13.94,13.52-36.18,13.52-50.11,0-.62-.6-1.21-1.22-1.78-1.85-12.75,14.55-34.94,16.07-49.58,3.39C4.39,283.04,0,273.43,0,263.32v-8.74c0-.52,.05-1.04,.14-1.56L35.16,60.37v-7.94c0-13.99,5.69-27.39,15.79-37.13,20.81-20.4,54.24-20.4,75.05,0,8.48,8.19,13.91,19.01,15.4,30.68l143.62,119.1c.49,.41,.94,.87,1.33,1.37l5.54,7.14c12.4,14.86,10.34,36.89-4.61,49.22-7.12,5.88-16.29,8.72-25.51,7.92-.74-.07-1.47-.15-2.21-.26-.46,19.28-16.56,34.54-35.96,34.09-.75-.02-1.49-.06-2.23-.12-.74-.06-1.48-.15-2.2-.26-19.34,33.94-62.69,45.86-96.83,26.64-2.43-1.37-4.78-2.88-7.04-4.53h0Zm8.91-22.96c0,9.65,7.87,17.47,17.58,17.47s17.58-7.82,17.58-17.47v-7.96l-28.02-154.18c-1.61,2.16-3.38,4.19-5.29,6.09-20.43,20.64-53.81,20.9-74.57,.59-.2-.19-.4-.39-.59-.59-1.91-1.9-3.68-3.93-5.29-6.09L17.58,255.36v7.96c0,9.65,7.87,17.47,17.58,17.47s17.58-7.82,17.58-17.47c0-4.83,3.94-8.74,8.79-8.74s8.79,3.91,8.79,8.74c0,9.47,8.32,17.48,18.16,17.48s18.17-8,18.17-17.48c0-4.83,3.94-8.74,8.79-8.74s8.79,3.91,8.79,8.74Zm71.13,13.39c7.44-6.21,8.4-17.23,2.17-24.62-3.12-3.7-2.64-9.21,1.08-12.31,3.72-3.1,9.26-2.62,12.38,1.08h0c6.24,7.39,17.33,8.36,24.76,2.15,7.44-6.2,8.41-17.23,2.17-24.62h0c-3.08-3.73-2.55-9.23,1.2-12.3,3.7-3.03,9.15-2.55,12.26,1.06,6.24,7.39,17.33,8.36,24.77,2.15,7.44-6.2,8.41-17.23,2.17-24.62-.08-.09-.15-.18-.22-.27l-5.06-6.52L143.65,70.59l33.16,182.43c.09,.51,.14,1.03,.14,1.56v8.74c0,4.91-1.04,9.78-3.06,14.26,6.52,4.58,15.33,4.23,21.46-.87h0ZM52.73,69.9c0,19.26,16.37,35.53,35.74,35.53s35.74-16.27,35.74-35.53H52.73Zm71.48-17.47c0-19.28-16.03-34.95-35.74-34.95s-35.74,15.67-35.74,34.95H124.22Zm-17.58,167.19v-70.48c0-4.83,3.94-8.74,8.79-8.74s8.79,3.91,8.79,8.74v70.49c0,4.83-3.94,8.74-8.79,8.74s-8.79-3.91-8.79-8.74h0Zm-53.91,0v-70.48c0-4.83,3.94-8.74,8.79-8.74s8.79,3.91,8.79,8.74v70.49c0,4.83-3.94,8.74-8.79,8.74s-8.79-3.91-8.79-8.74h0Zm156.9-34.76l-45.2-54.13c-3.1-3.71-2.59-9.22,1.15-12.31,3.74-3.08,9.28-2.57,12.38,1.14h0l45.2,54.13c3.1,3.71,2.59,9.22-1.15,12.31-3.74,3.08-9.28,2.57-12.38-1.14h0Z" fill="#fff"/>
    </g>
  </g>
</svg>