<?xml version="1.0" encoding="UTF-8"?>
<svg id="_레이어_2" data-name="레이어 2" xmlns="http://www.w3.org/2000/svg" viewBox="0 0 300 300">
  <g id="_레이어_1-2" data-name="레이어 1">
    <g id="_04스포츠_shape_04_0026" data-name=" 04스포츠 shape 04 0026">
      <path id="_패스_392" data-name="패스 392" d="M185.4,65.7c.47,8.59-.26,17.2-2.17,25.58-7.78,32.82-27.65,63.48-52.2,86.29-7.84,6.84-16.18,13.38-26.1,16.08-2.74,.49-6.81,1.52-8.37-1.16-4.16-15.58,32.8-66.15,39.13-85.18,1.37-3.48,2.51-9.56-2.4-10.91-3.68-.71-6.62,1.14-9.62,2.61l-2.82,1.59c-5.04,2.87-11.12,3.22-16.46,.97-24.54-10.21-46.25-59.34-52.27-84.23,4.2,27.11,23.92,77.41,50.36,88.95,6.75,2.93,14.47,2.61,20.95-.87,2.41-1.53,5.03-2.71,7.77-3.5-.83,5.22-3.75,9.95-6.15,14.84-8.08,15.05-17.31,29.7-25.22,45.22-3.95,8.54-12.41,23.6-8.47,33.03,2.57,5.58,9.97,5.54,14.91,4.2,11.02-2.94,20.09-10.23,28.33-17.71,24.99-24.06,44.12-55.54,50.25-89.9,1.5-8.55,1.68-17.29,.54-25.89" fill="#fff"/>
      <path id="_패스_393" data-name="패스 393" d="M194.97,13.4c-8.27,7.85-12.84,18.73-17.44,28.8-4.96,11.18-9.26,23.04-16.67,32.68-8.5,11.16-19.84,11.2-32.01,5.72,29.75,20.42,44.24-13.2,54.06-36.04,3.71-8.46,7.25-16.92,12.64-24.31,8.88-11.44,25.25-20.56,39.24-12.25-11.98-10.61-29.31-4.35-39.82,5.41" fill="#fff"/>
      <path id="_패스_394" data-name="패스 394" d="M181.6,165.56c1.52-9.25,3.58-18.41,6.19-27.42,1.76-5.33,3.42-10.78,6.71-15.44-5.31,5.54-8.17,12.95-10.95,19.98-2.6,7.18-4.75,14.52-6.42,21.98-7.68,35.17-10.28,79.85,6.54,112.71,3.53,6.85,8.48,12.86,14.53,17.63-5.09-5.51-9.13-11.91-11.93-18.88-13.14-32.72-10.08-76.22-4.66-110.56" fill="#fff"/>
      <path id="_패스_395" data-name="패스 395" d="M107.45,78.96c6.36,0,11.52-5.16,11.52-11.52,0-6.36-5.16-11.52-11.52-11.52-6.36,0-11.52,5.16-11.52,11.52h0c0,6.36,5.16,11.52,11.52,11.52" fill="#fff"/>
      <rect id="_사각형_2873" data-name="사각형 2873" width="300" height="300" fill="none"/>
    </g>
  </g>
</svg>