<?xml version="1.0" encoding="UTF-8"?>
<svg id="_레이어_2" data-name="레이어 2" xmlns="http://www.w3.org/2000/svg" viewBox="0 0 300 300">
  <g id="_레이어_1-2" data-name="레이어 1">
    <path id="_04스포츠_shape_04_0005" data-name=" 04스포츠 shape 04 0005" d="M300,173.87c0,27.64-23.06,50.75-50.64,50.75-28.03,0-50.75-22.73-50.75-50.76,0-28.02,22.72-50.74,50.75-50.75,27.58-.5,50.64,22.61,50.64,50.75Zm-138.87,93.97c-101.77,17.08-129.85,8.54-149.9-44.22-4.01-11.05-19.05-70.35-6.02-86.43,1.5-2.01,4.51-4.52,11.53-3.52,9.02,1.51,17.55,4.02,26.57,6.53,18.05,5.02,38.1,11.06,69.19,11.06,61.67,0,94.75-47.74,104.28-88.94L232.32,0l22.56,6.03-27.07,110.55c-23.83,9-39.61,31.81-39.61,57.29-.05,15.12,5.69,29.68,16.04,40.7l-4.01,16.58c-.5,1.01-8.02,30.65-39.1,36.68h0Zm95.76,3.02v29.15h-15.55v-28.64c0-24.12-15.04-38.69-23.06-44.72,9.36,5.68,20.13,8.64,31.08,8.54,10.94-.04,21.67-2.98,31.08-8.54-8.52,5.53-23.56,20.6-23.56,44.22h0Z" fill="#fff"/>
  </g>
</svg>