<?xml version="1.0" encoding="UTF-8"?>
<svg id="_레이어_2" data-name="레이어 2" xmlns="http://www.w3.org/2000/svg" viewBox="0 0 300 300">
  <g id="_레이어_1-2" data-name="레이어 1">
    <g id="_04스포츠_shape_04_0006" data-name=" 04스포츠 shape 04 0006">
      <rect id="_사각형_2745" data-name="사각형 2745" y=".03" width="299.99" height="299.97" fill="none"/>
      <path id="_합치기_9" data-name="합치기 9" d="M182.63,282.42h-35.8c-12.56-.03-23.36-8.88-25.85-21.19l-6.13-30.66-6.13,30.66c-2.49,12.31-13.3,21.16-25.85,21.19H40.78c-12.56-.03-23.36-8.88-25.85-21.19L1.41,193.64C.48,188.96,0,184.2,0,179.44v-7.12c-.02-21.4,9.45-41.71,25.86-55.45,6-5.03,9.3-11.51,9.3-18.26v-6.18c.03-5.64-1.95-11.11-5.58-15.43-6.23-6.87-12-15.26-12-30.03v-3.02c.04-12.83,5.71-24.99,15.52-33.26C43.14,2.16,56.43-1.53,69.43,.61c20.88,3.4,36.63,22.84,36.63,45.23v1.13c0,14.77-5.77,23.16-11.99,30.03-3.63,4.32-5.61,9.79-5.58,15.43v6.18c0,6.74,3.3,13.23,9.3,18.26-1.9,9.42,4.21,18.6,13.64,20.5,9.43,1.9,18.6-4.21,20.5-13.63,.46-2.26,.46-4.6,0-6.86,5.99-5.03,9.3-11.51,9.3-18.26v-6.18c.03-5.64-1.95-11.11-5.58-15.43-6.23-6.87-11.99-15.26-11.99-30.03v-3.02C123.64,19.67,143.33,0,167.61,0,170.05,0,172.49,.2,174.9,.61c20.88,3.4,36.63,22.84,36.63,45.23v1.13c0,14.77-5.77,23.16-12,30.03-3.63,4.32-5.61,9.79-5.58,15.43v6.18c0,6.74,3.3,13.23,9.3,18.26,12.92,10.87,21.65,25.91,24.69,42.52,.39,0,.78,0,1.17,0,39.09,0,70.9,31.54,70.9,70.31s-31.81,70.31-70.9,70.31c-17.12,.02-33.65-6.23-46.47-17.57Zm-6.27-52.73c.03,29.11,23.62,52.7,52.73,52.73,29.4,0,53.32-23.65,53.32-52.73s-23.91-52.73-53.32-52.73c-29.11,.04-52.7,23.62-52.73,52.73Zm-38.15,28.09c.83,4.1,4.43,7.05,8.62,7.06h21.39c-3.19-5.5-5.62-11.42-7.21-17.58h-24.9l2.11,10.51Zm-106.05,0c.83,4.1,4.43,7.06,8.62,7.06h42.08c4.18,0,7.79-2.96,8.62-7.06l2.1-10.51H30.05l2.11,10.51Zm126.62-28.09c.04-31.66,21.2-59.41,51.73-67.82-2.41-12.32-8.96-23.45-18.57-31.54-9.9-8.31-15.58-19.87-15.58-31.72v-6.18c-.07-10.02,3.54-19.71,10.14-27.24,4.83-5.32,7.44-9.8,7.44-18.22v-1.13c0-13.86-9.4-25.85-21.87-27.88-14.36-2.47-28.01,7.17-30.48,21.54-.25,1.47-.38,2.97-.38,4.46v3.02c0,8.42,2.62,12.9,7.44,18.22,6.61,7.53,10.21,17.23,10.14,27.24v6.18c0,11.85-5.68,23.41-15.58,31.72-12.42,10.4-19.6,25.78-19.58,41.98v7.12c0,3.61,.36,7.21,1.06,10.75l7.9,39.5h26.19Zm-61.69,0l7.9-39.5c.67-3.38,1.03-6.82,1.06-10.27v-8.1c-.12-16.03-7.28-31.2-19.58-41.5-9.9-8.31-15.58-19.87-15.58-31.72v-6.18c-.07-10.02,3.54-19.71,10.14-27.24,4.83-5.32,7.44-9.8,7.44-18.22v-1.13c0-13.86-9.4-25.85-21.87-27.88-1.47-.24-2.96-.36-4.45-.36-6.47,0-12.74,2.29-17.67,6.48-5.88,4.93-9.29,12.2-9.33,19.88v3.02c0,8.42,2.62,12.9,7.44,18.22,6.61,7.53,10.21,17.23,10.14,27.24v6.18c0,11.85-5.68,23.41-15.58,31.72-12.42,10.4-19.6,25.78-19.58,41.98v7.12c0,3.61,.36,7.21,1.06,10.75l7.9,39.5H97.09Zm132.01,8.8c0-4.85,3.94-8.79,8.79-8.78s8.79,3.94,8.78,8.79c0,4.85-3.94,8.79-8.79,8.78-4.85,0-8.79-3.93-8.79-8.78h0s0,0,0,0Zm-35.16,0c0-4.86,3.93-8.79,8.79-8.79s8.79,3.93,8.79,8.79-3.93,8.79-8.79,8.79h0c-4.85,0-8.79-3.94-8.79-8.79Zm17.58-35.15c0-4.85,3.93-8.79,8.79-8.79,4.85,0,8.79,3.93,8.79,8.79,0,4.85-3.93,8.79-8.79,8.79h0c-4.85,0-8.79-3.93-8.79-8.78h0Z" fill="#fff"/>
    </g>
  </g>
</svg>