<?xml version="1.0" encoding="UTF-8"?>
<svg id="_레이어_2" data-name="레이어 2" xmlns="http://www.w3.org/2000/svg" viewBox="0 0 300 300">
  <g id="_레이어_1-2" data-name="레이어 1">
    <g id="_04스포츠_shape_04_0023" data-name=" 04스포츠 shape 04 0023">
      <path id="_패스_824" data-name="패스 824" d="M0,0H52.75V17.5H17.73V52.73H0V0Z" fill="#fff"/>
      <path id="_패스_825" data-name="패스 825" d="M0,247.27H17.52v35.02H52.73v17.72H0v-52.73Z" fill="#fff"/>
      <path id="_패스_826" data-name="패스 826" d="M247.27,300v-17.53h35.03v-35.16h17.7v52.69h-52.73Z" fill="#fff"/>
      <path id="_패스_827" data-name="패스 827" d="M141.21,300l.06-18.25-.1,.11h17.66l-.1-.11c.02,6.08,.04,12.17,.06,18.25h-17.59Z" fill="#fff"/>
      <path id="_패스_828" data-name="패스 828" d="M18.25,158.73l-18.25,.06v-17.58l18.25,.06-.11-.1v17.66l.11-.11Z" fill="#fff"/>
      <path id="_패스_829" data-name="패스 829" d="M158.74,18.24c8.36,1.25,17,1.55,25.04,3.91,51.69,15.18,83.73,49.24,95.9,101.75,1.31,5.65,1.42,11.57,2.08,17.36l.11-.1h-34.65c-8.72-50.55-38-79.86-88.39-88.39V18.13l-.1,.11Z" fill="#fff"/>
      <path id="_패스_830" data-name="패스 830" d="M18.25,141.27c1.26-8.36,1.66-16.95,3.91-25.03C34.53,71.9,62.67,41.72,105.58,25.31c10.17-3.75,20.8-6.11,31.61-7.04,1.35-.13,2.72-.02,4.07-.02l-.1-.11V52.78c-50.55,8.71-79.85,38-88.39,88.39H18.13l.12,.1Z" fill="#fff"/>
      <path id="_패스_831" data-name="패스 831" d="M281.76,158.74c-1.23,8.27-1.56,16.79-3.84,24.76-13.95,48.71-45.45,80.33-94.16,94.36-8.05,2.32-16.68,2.65-25.04,3.9l.1,.11v-34.64c50.56-8.7,79.83-38.03,88.38-88.4h34.66l-.1-.09Z" fill="#fff"/>
      <path id="_패스_832" data-name="패스 832" d="M247.33,.09h52.47V52.75h-17.3V17.74h-35.17V.09Z" fill="#fff"/>
      <path id="_패스_833" data-name="패스 833" d="M281.76,141.26h18.03v17.47h-18.03l.11,.1v-17.67l-.11,.1Z" fill="#fff"/>
      <path id="_패스_834" data-name="패스 834" d="M141.26,18.24V.21h17.47V18.24l.1-.11h-17.66l.09,.11Z" fill="#fff"/>
      <path id="_패스_835" data-name="패스 835" d="M141.27,281.75c-8.17-1.2-16.59-1.53-24.48-3.74-46.44-13.05-77.61-42.59-92.94-88.35-2.85-8.52-3.81-17.68-5.55-26.57-.15-1.45-.17-2.91-.06-4.36l-.11,.1H52.77c8.7,50.57,38.05,79.81,88.39,88.38v34.65l.11-.11Z" fill="#fff"/>
      <path id="_패스_836" data-name="패스 836" d="M141.08,88.13h17.69v-16.71c33.44,2.31,66.45,31.62,69.91,69.72h-16.77v17.68h16.74c-3.12,36.45-34.64,67.02-69.86,69.8v-16.74h-17.47v16.57c-29.16-1.29-65.79-27.6-70.06-69.48h16.75v-17.7h-16.55c1.88-31.85,30.11-66.19,69.61-69.98v16.83Zm8.84,17.82c-24.26-.03-43.96,19.62-43.99,43.88,0,.1,0,.21,0,.31,.02,24.27,19.71,43.93,43.98,43.91,24.28,.1,44.04-19.51,44.13-43.79,0-.09,0-.18,0-.26,.07-24.26-19.55-43.99-43.81-44.05-.1,0-.21,0-.31,0Z" fill="#fff"/>
      <path id="_패스_837" data-name="패스 837" d="M149.94,176.41c-14.55,.01-26.35-11.77-26.36-26.32,0-.05,0-.1,0-.15-.02-14.54,11.75-26.34,26.29-26.35,.06,0,.12,0,.18,0,14.53-.02,26.33,11.74,26.36,26.27,0,.06,0,.13,0,.19,.01,14.54-11.77,26.35-26.31,26.36-.05,0-.11,0-.16,0Z" fill="#fff"/>
    </g>
  </g>
</svg>