<?xml version="1.0" encoding="UTF-8"?>
<svg id="_레이어_2" data-name="레이어 2" xmlns="http://www.w3.org/2000/svg" viewBox="0 0 300 300">
  <g id="_레이어_1-2" data-name="레이어 1">
    <g id="_04스포츠_shape_04_0011" data-name=" 04스포츠 shape 04 0011">
      <path id="_패스_845" data-name="패스 845" d="M300,141.2v17.58c-.24,2.11-.48,4.22-.72,6.32-3.59,32.28-15.91,60.75-37.67,84.9-23.1,25.63-51.71,41.63-85.76,47.66-5.64,1-11.36,1.57-17.05,2.33h-17.57c-1.05-.18-2.09-.39-3.14-.54-6.36-.91-12.81-1.44-19.08-2.78-33.27-7.13-61.24-23.55-83.07-49.62C4.76,209.81-6.24,166.88,3.36,119.33c7.86-38.91,28.86-69.81,61.38-92.53C94.87,5.76,128.56-2.78,165.06,.79c32.33,3.17,60.78,15.81,84.94,37.58,25.64,23.11,41.65,51.74,47.67,85.81,1,5.63,1.56,11.35,2.33,17.02Zm-61.16,87.88c7.32,0,14.64,.06,21.95-.07,1.18-.05,2.28-.59,3.04-1.48,14.75-21.41,23.05-46.61,23.91-72.6,.22-1.54-.48-3.06-1.78-3.91-11.8-8.49-23.5-17.1-35.31-25.56-1.07-.7-2.37-.93-3.61-.64-14.86,4.7-29.68,9.51-44.47,14.42-1.26,.53-2.25,1.56-2.74,2.83-4.83,14.51-9.56,29.05-14.17,43.64-.33,1.33-.1,2.75,.63,3.91,9.02,12.61,18.14,25.16,27.36,37.63,.89,1.03,2.17,1.67,3.53,1.75,7.22,.16,14.44,.08,21.66,.08Zm-177.66,0c7.12,0,14.25-.06,21.37,.04,1.64,.16,3.24-.61,4.12-2,8.94-12.43,17.94-24.82,27-37.17,1.08-1.25,1.38-3,.77-4.53-4.75-14.33-9.42-28.69-13.99-43.08-.42-1.69-1.75-3.01-3.45-3.41-14.47-4.62-28.92-9.31-43.35-14.07-1.51-.65-3.26-.4-4.53,.64-11.53,8.52-23.13,16.95-34.78,25.31-1.48,.93-2.27,2.64-2.04,4.37,.92,25.89,9.2,50.98,23.89,72.31,.76,.9,1.85,1.45,3.03,1.51,7.32,.13,14.63,.07,21.95,.07h0ZM144.07,73.4c0-7.71,.08-15.43-.08-23.13-.09-1.37-.73-2.65-1.77-3.55-11.67-8.67-23.42-17.23-35.24-25.69-1.17-.7-2.57-.88-3.87-.49-24.49,8.8-45.93,24.43-61.8,45.05-.71,1.05-.95,2.34-.66,3.58,4.41,13.83,8.92,27.63,13.54,41.4,.52,1.27,1.54,2.27,2.81,2.78,14.7,4.89,29.46,9.59,44.17,14.44,1.44,.56,3.08,.28,4.25-.74,12.2-8.94,24.43-17.83,36.7-26.67,1.33-.8,2.1-2.28,1.99-3.83-.1-7.71-.04-15.42-.04-23.14h0Zm11.91-.01c0,7.71,.05,15.42-.04,23.14-.11,1.55,.66,3.03,1.98,3.83,12.35,8.89,24.62,17.9,37.01,26.74,1.17,.71,2.58,.91,3.9,.56,14.77-4.66,29.51-9.44,44.21-14.32,1.28-.51,2.3-1.51,2.82-2.78,4.63-13.76,9.15-27.56,13.54-41.39,.29-1.23,.06-2.53-.65-3.58-15.87-20.62-37.31-36.26-61.8-45.06-1.3-.39-2.71-.21-3.88,.48-11.82,8.46-23.57,17.02-35.24,25.69-1.04,.9-1.69,2.18-1.78,3.55-.16,7.71-.08,15.42-.08,23.13h0Zm-5.99,121.43c-7.51,0-15.03-.09-22.54,.08-1.47,.08-2.84,.74-3.81,1.83-9.29,12.54-18.47,25.16-27.55,37.86-.63,1-.82,2.22-.53,3.37,4.44,14.02,8.97,28.02,13.61,41.98,.5,1.17,1.47,2.07,2.67,2.48,24.94,7.35,51.48,7.34,76.42-.02,1.19-.44,2.15-1.35,2.63-2.53,4.62-13.87,9.13-27.77,13.53-41.7,.33-1.23,.15-2.55-.51-3.64-9.09-12.69-18.27-25.31-27.54-37.87-.9-1.05-2.18-1.69-3.55-1.78-7.61-.16-15.22-.08-22.83-.08h0Z" fill="#fff"/>
      <rect id="_사각형_2866" data-name="사각형 2866" x="0" width="300" height="300" fill="none"/>
    </g>
  </g>
</svg>