<?xml version="1.0" encoding="UTF-8"?>
<svg id="_레이어_2" data-name="레이어 2" xmlns="http://www.w3.org/2000/svg" viewBox="0 0 300 300">
  <g id="_레이어_1-2" data-name="레이어 1">
    <g id="_04스포츠_shape_04_0018" data-name=" 04스포츠 shape 04 0018">
      <path id="_패스_857" data-name="패스 857" d="M84.66,0h22.36c6.7,.77,13.4,1.51,20.1,2.33,25.47,3.14,44.72,15.15,55.8,38.85,.6,.86,1.58,1.39,2.63,1.41,18.68-1.68,37.49-.83,55.94,2.52,25.15,4.55,42.66,18.72,51.27,42.61,3.19,8.87,4.26,18.61,5.4,28.07,3.08,25.74,2.13,51.45-1.61,77.1-2.8,19.12-11.35,34.71-27.19,46.08-1.55,1.11-1.74,2.32-1.73,3.95,.03,17.97,.04,35.95,.02,53.92v3.17H127.06v-41.67H32.33v-3.56c0-17.58-.04-35.17,.05-52.75,.22-2.21-.82-4.35-2.69-5.54-9.68-6.94-17.18-16.5-21.62-27.55-4.11-9.89-5.11-20.42-6.3-30.87C-1.03,112.29-.47,86.27,3.44,60.65,6.16,42.08,14.5,26.91,29.5,15.44,40.97,6.68,54.33,3.34,68.34,1.77c5.44-.6,10.88-1.18,16.32-1.77Zm24.91,131.55c-11.48,4.09-19.99,18.6-18.08,30.96,1.04,7.64,2.56,15.21,4.56,22.65,5.7,19.82,18.33,33.45,38.09,40.2,5.41,1.85,11.01,1.26,16.6,1.25,34.23-.1,68.46-.02,102.69-.13,2.01-.05,3.96-.68,5.63-1.81,9.1-6.31,15.37-14.83,18.06-25.53,1.58-6.74,2.73-13.58,3.43-20.48,2.79-24.88,2.23-50.03-1.66-74.76-3.15-20.9-17.81-37.13-38.11-41.07-24.23-4.7-48.59-5.04-72.76,.01-20.22,4.22-33.16,16.92-37.71,36.97-3.9,17.71-4.31,36.01-1.19,53.88,1.19,7.18,2.74,14.31,4.18,21.7l-16.82,4.19c-4.21-15.68-6.53-31.8-6.9-48.03h0Zm-31.92,53.17c-.99-4.98-1.81-9.49-2.8-13.96-5.65-25.4,8.45-47.86,27.79-55.42,6.7-2.62,8.49-6.26,9.28-12.73,3.54-28.96,23.34-50.39,51.89-56.98,.47-.18,.92-.4,1.34-.68-7.21-13.02-18.08-20.91-32.39-23.79-23.71-4.74-48.11-4.89-71.88-.44-21,3.83-35.66,18.44-39.35,39.42-5.16,29.99-5.25,60.64-.27,90.66,1.54,10.42,6.42,20.07,13.92,27.47,4.47,4.46,9.23,7.14,16.05,6.61,8.66-.67,17.41-.16,26.4-.16h0Zm67.27,97.7h68.37v-38h-68.37v38Zm86.41-38.02v37.94h18.43v-37.94h-18.43ZM50.18,202.4v38.3h17.78v-38.3h-17.78Zm35.83,38.28h37.13c-15.78-7.09-27.85-18.26-37.13-33.36v33.36Z" fill="#fff"/>
      <rect id="_사각형_2871" data-name="사각형 2871" width="299.99" height="300" fill="none"/>
    </g>
  </g>
</svg>