<?xml version="1.0" encoding="UTF-8"?>
<svg id="_레이어_2" data-name="레이어 2" xmlns="http://www.w3.org/2000/svg" viewBox="0 0 300 300">
  <g id="_레이어_1-2" data-name="레이어 1">
    <g id="_04스포츠_shape_04_0008" data-name=" 04스포츠 shape 04 0008">
      <rect id="_사각형_2747" data-name="사각형 2747" x="0" width="299.98" height="300" fill="none"/>
      <path id="_패스_470" data-name="패스 470" d="M37.15,216.47c10.86,0,21.18,4.77,28.21,13.05,13.24-15.58,36.61-17.48,52.19-4.24,1.52,1.3,2.94,2.71,4.24,4.24,13.24-15.58,36.61-17.48,52.19-4.24,1.53,1.3,2.94,2.71,4.24,4.24,13.24-15.58,36.61-17.48,52.19-4.24,1.52,1.3,2.94,2.71,4.24,4.24,13.24-15.58,36.6-17.48,52.18-4.24,1.01,.86,1.98,1.77,2.89,2.74,9.1-7.43,12.59-19.75,8.72-30.85-5.83-16.83-22.5-45.06-68.56-45.06-.38,0-.75,0-1.13,0,2.47,8.67,.06,18-6.3,24.38l-12.04,12.06c-9.76,9.62-25.47,9.51-35.09-.25-9.54-9.67-9.52-25.21,.03-34.87l9.85-9.87c-2.61-.97-5.15-1.98-7.63-3.04-.75,5.32-3.2,10.25-7,14.04l-12.04,12.06c-9.7,9.68-25.41,9.67-35.09-.03-9.68-9.7-9.67-25.41,.03-35.09l12.04-12.06c.75-.75,1.55-1.45,2.38-2.09-1.13-.86-2.11-1.63-2.93-2.28v-8.43h-37.48c-13.72,0-24.83-11.12-24.83-24.83s11.12-24.83,24.83-24.83h37.48v-20.02c0-4.93-3.99-8.94-8.93-8.94H28.64c-4.23,0-7.88,2.98-8.74,7.13-.13,.65-10.5,51.28-16.32,113.75H53.06c4.94,.05,8.9,4.1,8.85,9.04-.05,4.87-3.98,8.8-8.85,8.85H2.07c-.28,3.7-.53,7.42-.77,11.17H53.06c4.94,0,8.94,4,8.94,8.94s-4,8.94-8.94,8.94H.36c-.13,3.23-.25,6.46-.35,9.69-.25,7.58,2.6,14.93,7.9,20.35,.74,.77,1.53,1.49,2.36,2.17,6.99-7.38,16.71-11.57,26.87-11.57Z" fill="#fff"/>
      <path id="_패스_471" data-name="패스 471" d="M97.48,74.85c-3.84,0-6.94,3.11-6.94,6.95,0,3.83,3.11,6.94,6.94,6.94h30.42v-13.89h-30.42Z" fill="#fff"/>
      <path id="_패스_472" data-name="패스 472" d="M136.09,144.15c-2.69,2.74-2.65,7.13,.09,9.82,2.7,2.65,7.02,2.65,9.72,0l12.04-12.06c2.72-2.7,2.74-7.09,.04-9.82s-7.09-2.74-9.82-.04c-.01,.01-.02,.02-.03,.03l-12.04,12.06Z" fill="#fff"/>
      <path id="_패스_473" data-name="패스 473" d="M187.98,166.08c-2.71,2.71-2.72,7.1,0,9.82,2.71,2.71,7.1,2.72,9.82,0l12.04-12.06c2.74-2.68,2.79-7.08,.1-9.82-2.68-2.74-7.08-2.79-9.82-.1-.03,.03-.06,.06-.1,.1l-12.04,12.06Z" fill="#fff"/>
      <path id="_패스_474" data-name="패스 474" d="M37.15,234.36c-10.67-.02-19.33,8.62-19.35,19.29-.02,10.67,8.62,19.33,19.29,19.35,10.67,.02,19.33-8.62,19.35-19.29,0-.01,0-.02,0-.03,0-10.66-8.63-19.3-19.29-19.32Z" fill="#fff"/>
      <path id="_패스_475" data-name="패스 475" d="M93.58,234.36c-10.67-.02-19.33,8.62-19.35,19.29-.02,10.67,8.62,19.33,19.29,19.35s19.33-8.62,19.35-19.29c0-.01,0-.02,0-.03,0-10.66-8.63-19.3-19.29-19.32Z" fill="#fff"/>
      <path id="_패스_476" data-name="패스 476" d="M150,234.36c-10.67-.02-19.33,8.62-19.35,19.29s8.62,19.33,19.29,19.35,19.33-8.62,19.35-19.29c0-.01,0-.02,0-.03,0-10.66-8.63-19.3-19.29-19.32Z" fill="#fff"/>
      <path id="_패스_477" data-name="패스 477" d="M206.43,234.36c-10.67-.02-19.33,8.62-19.35,19.29-.02,10.67,8.62,19.33,19.29,19.35s19.33-8.62,19.35-19.29c0-.01,0-.02,0-.03,0-10.66-8.63-19.3-19.29-19.32Z" fill="#fff"/>
      <path id="_패스_478" data-name="패스 478" d="M262.86,234.36c-10.67-.02-19.33,8.62-19.35,19.29-.02,10.67,8.62,19.33,19.29,19.35,10.67,.02,19.33-8.62,19.35-19.29,0-.01,0-.02,0-.03,0-10.66-8.63-19.3-19.29-19.32Z" fill="#fff"/>
    </g>
  </g>
</svg>