<?xml version="1.0" encoding="UTF-8"?>
<svg id="_레이어_2" data-name="레이어 2" xmlns="http://www.w3.org/2000/svg" viewBox="0 0 300 300">
  <g id="_레이어_1-2" data-name="레이어 1">
    <g id="_04스포츠_shape_04_0022" data-name=" 04스포츠 shape 04 0022">
      <path id="_패스_815" data-name="패스 815" d="M300,10.76c-3.9,11.23-7.8,22.45-11.7,33.68-2.42,7.01-4.76,14.04-7.16,21.05-2.88,8.4-9.97,10.07-16.21,3.84-3.66-3.65-7.29-7.33-11.32-11.38l-6.1,7.36c-2.56-2.77-4.48-4.95-6.51-7.03-1.97-2.02-4.05-3.94-6.48-6.29l7-6.15c-3.88-3.88-7.47-7.44-11.03-11.03-5.92-5.97-4.17-13.16,3.81-15.89,17.32-5.91,34.64-11.85,51.95-17.81,7.03-2.41,10.42-1.04,13.76,5.54v4.11Z" fill="#fff"/>
      <path id="_패스_816" data-name="패스 816" d="M182.28,42.6l-41.55,41.64c-.37-.13-.73-.3-1.06-.51-19.04-14.48-40.65-23.74-63.13-31.27-15.6-5.23-31.39-10-46.1-17.59-9.68-4.91-18.57-11.24-26.39-18.76C.24,12.4-.68,8.1,1.57,4.26,3.83,.39,7.95-.78,13.09,.68c8.89,2.53,17.76,5.14,26.76,7.23,4.13,.96,8.52,.87,12.8,1.04,16.27,.65,32.61,.52,48.8,1.95,28.96,2.46,56.61,13.12,79.73,30.73,.39,.29,.72,.63,1.11,.96Z" fill="#fff"/>
      <path id="_패스_817" data-name="패스 817" d="M215.65,159.14l41.46-41.56c.56,.7,1.21,1.48,1.81,2.3,16.38,22.41,26.45,47.43,29.26,75.02,1.61,15.83,2.19,31.81,2.3,47.73-.01,13.7,2.34,27.31,6.96,40.21,.66,1.84,1.34,3.68,1.82,5.57,1.12,4.4-.46,8.33-4.05,10.37-3.61,2.12-8.23,1.32-10.92-1.89-5.35-6.45-10.81-12.9-15.33-19.93-8.78-13.67-13.66-29.12-18.74-44.42-6.13-18.46-12.3-36.91-22.18-53.8-3.89-6.65-8.22-13.03-12.39-19.61Z" fill="#fff"/>
      <path id="_패스_818" data-name="패스 818" d="M203.96,142.64c-2.42-1.38-4.83-2.17-6.46-3.77-12.32-12.13-24.54-24.35-36.67-36.66-3.79-3.83-3.77-9,.02-12.82,12.24-12.34,24.52-24.64,36.84-36.91,3.73-3.71,8.82-3.81,12.56-.1,12.41,12.31,24.76,24.68,37.03,37.13,3.83,3.89,3.7,8.87-.19,12.8-12.16,12.29-24.38,24.51-36.67,36.66-1.62,1.59-4.06,2.34-6.47,3.67Z" fill="#fff"/>
      <path id="_패스_819" data-name="패스 819" d="M95.36,283.76c.94-2.83,1.71-5.73,2.29-8.66,.38-2.75,.08-5.61,.08-8.73,7.91,.63,15.27,1.19,22.63,1.8,20.52,1.69,41.03,3.39,61.55,5.09,17.5,1.46,35,2.92,52.51,4.4,4.28,.36,8.56,.62,12.84,1.04,.99,.1,2.41,.34,2.84,1.02,3.66,5.73,7.13,11.57,10.89,17.75l-165.63-13.71Z" fill="#fff"/>
      <path id="_패스_820" data-name="패스 820" d="M2.74,38.66c6.16,3.76,11.91,7.19,17.54,10.82,.75,.48,1.08,1.98,1.18,3.04,.91,10.52,1.73,21.04,2.59,31.57,1.68,20.66,3.37,41.31,5.06,61.96,1.43,17.54,2.86,35.08,4.27,52.61,.08,.96,.01,1.93,.01,2.63l-17.2,2.61C11.75,149.34,7.26,94.25,2.74,38.66Z" fill="#fff"/>
      <path id="_패스_821" data-name="패스 821" d="M160.38,127.13l11.72,11.88-92.1,92.3-11.4-12.22,91.78-91.96Z" fill="#fff"/>
      <path id="_패스_822" data-name="패스 822" d="M66.99,219.7l-49.52,49.63,12.78,12.15c-5.67,5.84-10.77,11.49-16.31,16.67-3.22,3.01-8.7,2.13-11.64-1.15-3.14-3.41-3.02-8.69,.27-11.96,4.33-4.51,8.81-8.88,13.22-13.31,.68-.68,1.32-1.4,2.1-2.24-4.81-4.8-9.51-9.47-14.19-14.17-4.96-4.98-4.93-9.69,.09-14.72,5.86-5.88,11.76-11.73,17.58-17.66,1.9-2.15,4.62-3.4,7.48-3.45,12.4-.01,24.79-.02,37.19,0,.32,.03,.64,.1,.95,.21Z" fill="#fff"/>
      <path id="_패스_823" data-name="패스 823" d="M30.48,282.25c16.65-16.65,33.07-33.07,49.65-49.66,.12,.66,.2,1.33,.24,2,.02,12.03-.02,24.06,.03,36.09,.08,2.86-1.06,5.63-3.14,7.6-6.25,6.18-12.43,12.43-18.71,18.59-4.23,4.15-9.23,4.09-13.46-.07-4.87-4.8-9.69-9.64-14.62-14.55Z" fill="#fff"/>
    </g>
  </g>
</svg>