<?xml version="1.0" encoding="UTF-8"?>
<svg id="_레이어_2" data-name="레이어 2" xmlns="http://www.w3.org/2000/svg" viewBox="0 0 300 300">
  <g id="_레이어_1-2" data-name="레이어 1">
    <g id="_04스포츠_shape_04_0030" data-name=" 04스포츠 shape 04 0030">
      <rect id="_사각형_2881" data-name="사각형 2881" width="300" height="300" fill="none"/>
      <path id="_패스_800" data-name="패스 800" d="M300,247.14c-.47,1.76-.9,3.52-1.43,5.27-4.33,14.44-16.78,23.73-32.06,23.77-22.46,.05-44.92,.02-67.38,.02-62.69,0-125.39,0-188.08,0-1.36,.07-2.73-.01-4.08-.23-4.39-.9-7.38-4.97-6.92-9.42,.57-4.56,4.53-7.92,9.12-7.73,16.31-.04,32.62-.01,48.92-.02h3.3v-32.88c-2.39,0-4.79,.03-7.18,0-4.51-.07-6.01-1.82-6.23-6.16-.35-7.33-1.02-14.64-1.56-21.96-.06-.86-.15-1.71-.3-3.3l55.36,13.5c-2.64,5.31-5.06,10.23-7.52,15.14-1.03,2.06-2.84,2.8-5.07,2.79-3.2-.02-6.4,0-9.68,0v32.71h122.07v-39.35c-4.25-.91-8.7-1.8-13.12-2.81-18.29-4.33-36.29-9.81-53.89-16.41-13.5-4.93-27.56-8.38-41.49-12.07-13.65-3.61-27.46-6.65-41.19-10-5.3-1.07-9.47-5.16-10.64-10.43-5.01-18.39-3.6-37.94,3.99-55.42,6.09-14.04,10.13-28.88,12-44.07,.76-6.42,3.81-12.36,8.58-16.73,17.48-16.77,38.71-25.18,62.58-27.92,7.48-.86,14.6-.58,21.16,3.55,4.65,2.89,8.33,7.1,10.55,12.1-3.99-.05-6.61,1.93-9.03,4.45-3.57,3.71-7.32,7.25-10.95,10.91-4.01,4.05-4.18,9.33-.47,12.91,3.63,3.51,8.82,3.31,12.82-.55,3.29-3.18,6.49-6.43,9.75-9.64,.66-.65,1.39-1.25,2.33-2.08,1.39,4.58,2.73,8.8,3.91,13.05,.08,.76-.18,1.52-.71,2.07-4.9,4.86-9.95,9.57-14.78,14.49-3.34,3.3-3.38,8.68-.09,12.02,.01,.01,.03,.03,.04,.04,3.38,3.45,8.9,3.54,12.39,.2,1.74-1.55,3.38-3.22,4.99-4.91,1.53-1.62,2.95-3.33,4.65-5.26,2.31,4.66,4.28,8.63,6.33,12.77-4.48,4.42-8.99,8.83-13.46,13.28-4.21,4.19-4.46,9.45-.67,13.11,3.67,3.55,8.92,3.27,13.03-.78,3.6-3.55,7.1-7.18,10.73-10.87,.47,.31,.91,.66,1.31,1.05,12.28,15.33,27.97,26.28,45.56,34.75,12.19,5.87,24.52,11.45,36.66,17.41,16.96,8.33,21.02,20.77,12.54,37.62-1.13,2.24-2.43,4.39-3.76,6.78,1.63,1.72,3.2,3.57,4.96,5.21,6.18,5.66,10.41,13.13,12.09,21.34v8.72Zm-80.77,11.64c15.87,0,31.38,0,46.89,0,6.78,0,11.9-2.84,14.71-9.06,2.87-6.34,1.9-12.24-2.7-17.53-2.93-3.37-5.73-6.86-8.83-10.07-1.11-1.1-2.58-1.77-4.15-1.87-14.34-.14-28.69-.09-43.03-.08-.93,0-1.87,.11-2.89,.18v38.42Z" fill="#fff"/>
    </g>
  </g>
</svg>