<?xml version="1.0" encoding="UTF-8"?>
<svg id="_레이어_2" data-name="레이어 2" xmlns="http://www.w3.org/2000/svg" viewBox="0 0 300 300">
  <g id="_레이어_1-2" data-name="레이어 1">
    <g id="_04스포츠_shape_04_0014" data-name=" 04스포츠 shape 04 0014">
      <path id="_합치기_34" data-name="합치기 34" d="M4.17,238.27c0-15.69,25.31-29.53,63.81-37.71,16.42,29.33,47.4,47.51,81.01,47.54,33.61-.03,64.58-18.21,81-47.54,38.5,8.17,63.81,22.01,63.81,37.71,0,25.13-64.84,45.49-144.81,45.49S4.17,263.39,4.17,238.27Zm63.1-75.16c2.44,29.26,22.53,56.21,50.23,66.28,50.77,19.26,105.8-19.11,105.57-73.09,.2-41.74-32.65-74.15-71.03-77.82-1.03-.09-2.05-.17-3.09-.24-10.72-.57-21.43,1.11-31.46,4.94-27.98,10.71-47.45,36.38-50.21,66.22,3.39-43.38,40.3-75.75,81.67-76.67V16.13c0-.85,.69-1.54,1.55-1.55,.85,0,1.54,.69,1.55,1.54v2.78l39.76,13.99-39.76,13.99v25.83c9.61,.17,19.12,2.01,28.09,5.46,32.36,12.42,53.76,43.46,53.84,78.12-.07,34.67-21.46,65.72-53.83,78.14-9.37,3.61-19.33,5.46-29.38,5.47-42.13,0-80.11-32.76-83.49-76.82h0Zm-.25-6.8c-.01,1.78,.04,3.54,.15,5.29-.12-1.75-.17-3.53-.15-5.29h0Zm.26-6.9c-.18,2.27-.27,4.57-.26,6.9-.03-2.3,.06-4.61,.26-6.91h0Zm40.46-13.65c-1.75-.21-3-1.79-2.8-3.54,.21-1.75,1.79-3,3.54-2.8,1.75,.21,3,1.79,2.8,3.54-.19,1.61-1.55,2.82-3.17,2.82-.12,0-.25-.01-.37-.03h0Zm-19.96-15.25c0-2.84,2.3-5.14,5.14-5.14h0c2.84,0,5.14,2.3,5.15,5.14h0c0,2.84-2.3,5.15-5.14,5.15h0c-2.84,0-5.15-2.3-5.15-5.15h0s0,0,0,0Zm10.29-15.78c0-3.42,2.77-6.19,6.19-6.19h0c3.42,0,6.19,2.76,6.19,6.18h0c0,3.43-2.77,6.2-6.19,6.2h0c-3.41,0-6.18-2.77-6.19-6.18Z" fill="#fff"/>
      <rect id="_사각형_298" data-name="사각형 298" width="300" height="300" fill="none"/>
    </g>
  </g>
</svg>