<?xml version="1.0" encoding="UTF-8"?>
<svg id="_레이어_2" data-name="레이어 2" xmlns="http://www.w3.org/2000/svg" viewBox="0 0 300 300">
  <g id="_레이어_1-2" data-name="레이어 1">
    <g id="_04스포츠_shape_04_0015" data-name=" 04스포츠 shape 04 0015">
      <path id="_패스_848" data-name="패스 848" d="M46.51,300c-3.77-.92-7.62-1.59-11.29-2.82C12.81,289.72-1.9,267.18,.41,244.1c2.47-24.55,20.73-43.63,44.72-46.64,2.71-.33,5.43-.49,8.16-.48,28.58-.03,57.16-.02,85.74,.03,2.14,0,3.24-.56,4.17-2.57,7.45-15.98,15.04-31.89,22.6-47.82,2.13-4.5,4.06-5.18,8.56-3.04,15.75,7.46,31.51,14.93,47.25,22.41,5.03,2.39,5.61,4.11,3.19,9.2-15.13,31.95-30.26,63.91-45.38,95.87-7.59,16.12-19.85,25.89-37.61,28.52-.37,.1-.73,.24-1.08,.42H46.51Zm42.13-18.74h37.74c12.24-.14,22.23-8.44,23.43-20.56,.76-8.06,.77-16.18,.04-24.24-.97-11.53-10.52-20.46-22.09-20.67-25.84-.2-51.68-.28-77.52,.04-16.74,.21-30.63,14.52-31.2,31.23-.81,18.05,13.17,33.33,31.22,34.14,.41,.02,.82,.03,1.23,.03,12.38,.16,24.77,.03,37.15,.04Z" fill="#fff"/>
      <path id="_패스_849" data-name="패스 849" d="M247.9,300c-4.98-1.55-10.21-2.57-14.91-4.73-18.9-8.72-29.31-29.02-26.01-49.93,3.14-19.97,19.76-35.93,40.12-38.54,25.32-3.36,48.65,14.23,52.38,39.5,.13,.55,.31,1.09,.53,1.61v9.95c-.18,.74-.42,1.47-.54,2.21-2.78,18.7-16.53,33.89-34.86,38.5-2.04,.52-4.11,.96-6.16,1.43h-10.54Zm-13.56-56.23c2.54,.01,4.63-1.98,4.75-4.51,.06-2.6-2-4.76-4.6-4.82-.04,0-.08,0-.12,0-2.54,.06-4.57,2.12-4.6,4.65,.01,2.54,2.03,4.61,4.57,4.68h0Zm23.49-4.63c0-2.54-2.02-4.62-4.55-4.7-2.6-.04-4.73,2.04-4.77,4.63,0,.05,0,.1,0,.14,.08,2.54,2.16,4.55,4.7,4.55,2.54-.05,4.58-2.09,4.62-4.63h0Zm14.02,4.63c2.54,0,4.62-2.01,4.71-4.55,.04-2.6-2.04-4.74-4.64-4.78-.04,0-.08,0-.12,0-2.54,.08-4.55,2.16-4.56,4.69,.03,2.54,2.07,4.59,4.61,4.64h0Zm-23.39,9.27c-.09-2.54-2.17-4.55-4.71-4.55-2.54,.05-4.58,2.1-4.62,4.64,0,2.6,2.11,4.7,4.71,4.7,.05,0,.09,0,.14,0,2.53-.14,4.51-2.25,4.48-4.79h0Zm18.73,.17c0-2.54-2-4.62-4.54-4.72-2.54-.04-4.65,1.94-4.79,4.47-.09,2.6,1.95,4.77,4.55,4.86,.04,0,.09,0,.13,0,2.54-.04,4.59-2.08,4.64-4.62h0Zm-14.14,9.33c-2.53,.09-4.54,2.16-4.55,4.7,.04,2.54,2.09,4.59,4.62,4.63,2.61-.01,4.71-2.14,4.7-4.75,0-.03,0-.07,0-.1-.13-2.53-2.24-4.51-4.77-4.48h0Z" fill="#fff"/>
      <path id="_패스_850" data-name="패스 850" d="M218.96,154.36l-33.68-16c5.44-11.49,10.76-22.74,16.09-33.99,15.68-33.11,31.35-66.22,46.99-99.34,1.64-3.5,3.71-4.95,7.61-4.85,9.16,.24,18.34,.06,27.51,.09,5.13,.02,7.15,3.08,4.98,7.66-22.88,48.35-45.77,96.68-68.68,145.01-.2,.43-.47,.82-.82,1.42Z" fill="#fff"/>
      <path id="_패스_851" data-name="패스 851" d="M88.66,225.06h36.85c9.49,.01,15.23,5.79,15.25,15.34,.01,5.65,.04,11.31,0,16.96-.07,8.54-6.03,14.51-14.6,14.52-24.67,.04-49.33,.03-73.99,0-13.39-.03-23.77-10.33-23.79-23.37s10.37-23.35,23.73-23.43c12.18-.07,24.37-.01,36.55-.01Zm.56,9.37H54.09c-.78,0-1.56-.04-2.34,.02-2.57,.02-4.65,2.12-4.63,4.69,.02,2.55,1.9,4.43,4.69,4.64,.68,.05,1.36,.02,2.05,.02,23.61,0,47.22,0,70.83,0,.97,.07,1.95,.03,2.91-.13,2.23-.35,3.84-2.33,3.74-4.58,.08-2.26-1.56-4.21-3.8-4.54-.87-.14-1.75-.17-2.62-.11-11.9,0-23.8-.01-35.7,0Zm.03,18.74c-4.68,0-9.36,0-14.05,0-7.71,0-15.42,0-23.12,.01-2.29,0-4.29,1.02-4.58,3.26-.15,1.75,.37,3.5,1.46,4.88,.81,.94,2.81,1.17,4.29,1.17,20.88,.07,41.76,.05,62.63,.05,3.51,0,7.03,.06,10.54-.03,3.17-.08,5.3-2.43,4.93-5.24-.34-2.58-2.3-4.08-5.51-4.09-12.2-.02-24.39-.03-36.59,0Z" fill="#fff"/>
      <rect id="_사각형_2868" data-name="사각형 2868" width="299.82" height="299.83" fill="none"/>
    </g>
  </g>
</svg>