<?xml version="1.0" encoding="UTF-8"?>
<svg id="_레이어_2" data-name="레이어 2" xmlns="http://www.w3.org/2000/svg" viewBox="0 0 300 300">
  <g id="_레이어_1-2" data-name="레이어 1">
    <g id="_04스포츠_shape_04_0028" data-name=" 04스포츠 shape 04 0028">
      <rect id="_사각형_2880" data-name="사각형 2880" x="0" width="300" height="300" fill="none"/>
      <path id="_패스_809" data-name="패스 809" d="M0,187.78c11.46,.24,21.1,4.76,29.73,12.1,5.19,4.41,10.31,4.25,15.7-.05,6.55-5.22,13.35-9.82,21.88-11.18,11.83-1.89,22.72,.17,32.43,7.43,1.95,1.46,3.84,3.01,5.82,4.44,4.58,3.31,9.52,3.3,14.11-.05,2.52-1.84,4.91-3.87,7.49-5.62,14.49-9.66,33.48-9.21,47.49,1.13,2.11,1.57,4.15,3.25,6.3,4.77,3.96,3,9.43,2.99,13.38-.02,2.86-2.03,5.55-4.33,8.47-6.26,14.29-9.18,32.74-8.69,46.52,1.24,2.04,1.5,4.01,3.11,6.05,4.61,4.83,3.57,9.64,3.45,14.6,.04,4.8-3.3,9.51-6.95,14.77-9.32,4.59-2.06,9.89-2.55,15.25-3.82v30.55c-5.09,.12-8.41,3.79-12.17,6.64-14.77,11.32-35.29,11.37-50.12,.12-1.87-1.41-3.69-2.89-5.59-4.26-4.11-3.11-9.77-3.13-13.9-.05-1.59,1.13-3.1,2.37-4.66,3.55-16.15,12.25-35.63,12.3-51.74,.13-1.87-1.41-3.67-2.94-5.65-4.17-3.66-2.49-8.47-2.5-12.15-.03-1.99,1.22-3.78,2.76-5.65,4.17-15.95,12.1-35.59,12.15-51.51,.1-1.87-1.41-3.67-2.93-5.64-4.18-3.73-2.58-8.66-2.58-12.39,0-2.06,1.3-3.94,2.88-5.88,4.35-15.39,11.72-35.48,11.75-50.8,.08-1.83-1.61-3.81-3.05-5.9-4.3-1.9-.96-4.17-1.18-6.27-1.73v-30.43Z" fill="#fff"/>
      <path id="_패스_810" data-name="패스 810" d="M27.96,123.9c1.36-6.33,2.6-12.2,3.87-18.07,1.3-5.99,2.7-11.96,3.9-17.98,.17-1.56,1.35-2.81,2.89-3.07,20.66-5.79,41.3-11.63,61.93-17.53,1.54-.56,3.27-.25,4.52,.81,18.11,13.58,36.26,27.13,54.43,40.63,1.11,.78,2.06,1.77,2.79,2.91,13.72,23.02,27.4,46.07,41.04,69.13,.24,.41,.45,.85,.74,1.4-3.33,2.49-6.47,5.14-9.91,7.31-3.62,2.41-8.34,2.34-11.89-.17-2.37-1.52-4.53-3.38-6.8-5.08-14.61-10.8-34.55-10.82-49.17-.03-1.8,1.34-3.56,2.74-5.35,4.09-5.05,3.82-10.3,3.85-15.29-.07-5.78-4.54-11.57-9.25-18.97-10.59-5.98-1.09-12.13-1.23-18.06-1.77l59.5-42.54c-7.35-5.47-14.82-10.21-21.28-16.08-6.55-5.95-13.01-6.73-21.45-4.76-18.8,4.38-37.86,7.63-57.45,11.45Z" fill="#fff"/>
      <path id="_패스_811" data-name="패스 811" d="M233.38,172.92c-26.94,.01-48.79-21.8-48.82-48.74,.03-26.83,21.73-48.59,48.55-48.7,26.93-.11,48.86,21.63,48.97,48.57,0,0,0,.01,0,.02,.03,26.94-21.77,48.8-48.71,48.86Z" fill="#fff"/>
    </g>
  </g>
</svg>