<?xml version="1.0" encoding="UTF-8"?>
<svg id="_레이어_2" data-name="레이어 2" xmlns="http://www.w3.org/2000/svg" viewBox="0 0 300 300">
  <g id="_레이어_1-2" data-name="레이어 1">
    <g id="_04스포츠_shape_04_0001" data-name=" 04스포츠 shape 04 0001">
      <path id="_패스_412" data-name="패스 412" d="M135.92,.58C64.14,7.34,7.3,64.19,.55,135.98c36.85,4.27,76.03,23.11,108.2,55.28,32.17,32.17,51.04,71.39,55.28,108.21,71.8-6.7,128.67-63.56,135.37-135.37-36.76-4.27-76.01-23.1-108.18-55.28C159.08,76.65,140.22,37.43,135.92,.58Z" fill="#fff"/>
      <path id="_패스_413" data-name="패스 413" d="M300,145.48c-1.08-38.23-16.76-74.6-43.82-101.63C229.14,16.79,192.77,1.09,154.53,0c4.15,32.23,21.26,66.86,49.95,95.55s63.27,45.78,95.52,49.93Z" fill="#fff"/>
      <path id="_패스_414" data-name="패스 414" d="M0,154.57c1.07,38.23,16.77,74.6,43.85,101.6,27,27.08,63.36,42.76,101.59,43.83-4.15-32.18-21.24-66.79-49.94-95.48-28.67-28.68-63.29-45.77-95.5-49.95Z" fill="#fff"/>
    </g>
  </g>
</svg>