<?xml version="1.0" encoding="UTF-8"?>
<svg id="_레이어_2" data-name="레이어 2" xmlns="http://www.w3.org/2000/svg" viewBox="0 0 300 300">
  <g id="_레이어_1-2" data-name="레이어 1">
    <g id="_04스포츠_shape_04_0012" data-name=" 04스포츠 shape 04 0012">
      <g id="_그룹_281" data-name="그룹 281">
        <path id="_패스_842" data-name="패스 842" d="M67.25,275.04c4.01-10.42,7.95-20.65,11.69-30.4,2.82,.45,5.67,.69,8.52,.71,1.04-.06,2.32-1.59,2.94-2.75,1.97-3.65,.41-5.75-7.71-10.77,2.2-10.25,4.39-20.51,6.47-30.19,2.79-.64,5.49-.96,7.91-1.96,1.01-.41,1.74-2.2,2.03-3.48,.78-3.48-1.24-5.37-8.06-7.9,.71-10.46,1.43-20.92,2.14-31.38,6.66-1.21,8.91-2.91,8.78-6.55-.13-3.66-2.44-5.3-8.83-6.2-.8-10.79-1.6-21.6-2.41-32.41,7.26-2.66,9.26-4.69,8.35-8.4-.93-3.81-3.64-4.93-10.21-4.11-2.29-10.19-4.58-20.4-6.93-30.87,1.77-.92,3.64-1.83,5.46-2.86,3.43-1.94,4.59-5.2,3.02-8.27-1.56-3.05-4.85-3.99-8.47-2.38-1.16,.51-2.3,1.06-3.55,1.64-4.08-10.33-8.09-20.5-12.11-30.68,47.49-34.21,119.21-34.68,167.46-.05-3.98,10.09-7.96,20.19-12.11,30.74-1.2-.57-2.48-1.24-3.81-1.8-3.4-1.45-6.64-.45-8.17,2.48-1.61,3.07-.45,6.41,2.95,8.28,1.83,1.01,3.73,1.89,5.52,2.79l-6.76,30.1c-2.9,.47-5.76,1.16-8.56,2.05-.97,.37-1.8,2.28-1.88,3.54-.39,5.79,4.25,6.46,8.4,7.55-.81,10.95-1.61,21.77-2.41,32.58-6.57,1.15-8.87,2.87-8.83,6.53s2.3,5.27,8.76,6.23c.72,10.43,1.44,20.9,2.17,31.63-4.07,1.16-8.9,1.95-8.06,7.96,.53,3.79,3.26,4.9,9.76,4.5l6.66,31.07c-1.42,.74-2.97,1.53-4.5,2.36-3.52,1.9-4.8,5.01-3.37,8.14,1.48,3.23,4.87,4.23,8.7,2.56,.84-.37,1.68-.74,2.61-1.15l11.88,30.87c-42.17,30.52-111.99,36.45-165.41,.23Z" fill="#fff"/>
        <path id="_패스_843" data-name="패스 843" d="M242.69,267.72c-3.67-9.77-7.28-19.36-11-29.27,1.71-.9,3.02-1.58,4.31-2.29,3.73-2.04,5.02-5.2,3.43-8.38-1.61-3.23-4.7-4.08-8.73-2.43-.62,.25-1.26,.45-2.41,.86-1.98-9.51-3.89-18.74-5.89-28.33,2.1-.57,3.87-1.01,5.61-1.54,3.54-1.06,5.45-3.98,4.71-7.13-.8-3.42-3.85-5.27-7.54-4.55-1.25,.24-2.48,.56-4.38,.99-.65-9.71-1.28-19.12-1.93-28.86,4.9-.75,11.71,1.18,11.36-6.62-.31-6.83-6.46-5.26-11.28-5.97,.69-9.8,1.37-19.44,2.09-29.56,5.04,.78,10.78,2.49,11.66-4.47,.81-6.4-5.19-6.37-9.82-7.92,2.01-9.33,4-18.54,5.91-27.41,3.02,0,5.62,.3,8.09-.14,1.06-.19,2.14-1.78,2.69-2.98,1.57-3.43,.23-5.3-6.97-9.92,3.62-9.42,7.3-18.97,11.02-28.65,74.48,57.49,76.14,174.98-.95,234.59Z" fill="#fff"/>
        <path id="_패스_844" data-name="패스 844" d="M67.36,61.72c-7.42,5.18-8.58,7.08-6.76,10.58,1.72,3.33,4.55,3.93,10.37,1.84l6.16,28.05c-4.72,1.7-10.81,1.52-9.8,8.58,.55,3.86,2.94,4.61,11.56,4.05,.72,9.71,1.44,19.43,2.18,29.34-4.95,.78-11.47-.85-11.31,6.6,.15,7.03,6.27,5.4,11.33,5.97-.62,9.59-1.23,19.07-1.84,28.57-8.94-.74-11.57,.08-11.97,4.16-.69,7.03,5.42,6.69,10.28,8.43-1.92,9.35-3.84,18.67-5.61,27.31-3.38,0-6.2-.28-8.91,.14-1.03,.16-2.25,1.81-2.63,3.01-2,6.35,3.57,7.4,7.84,10.13-3.58,9.62-7.18,19.31-10.84,29.16C-18.12,210.33-19.77,92.5,56.34,33.11c3.73,9.69,7.4,19.22,11.02,28.61Z" fill="#fff"/>
      </g>
      <rect id="_사각형_2865" data-name="사각형 2865" y="0" width="300" height="299.99" fill="none"/>
    </g>
  </g>
</svg>