<?xml version="1.0" encoding="UTF-8"?>
<svg id="_레이어_2" data-name="레이어 2" xmlns="http://www.w3.org/2000/svg" viewBox="0 0 300 300">
  <g id="_레이어_1-2" data-name="레이어 1">
    <path id="_04스포츠_shape_04_0004" data-name=" 04스포츠 shape 04 0004" d="M210,157.03c87.2-16.65,89.98-127.63,90-128.78,.07-5.18-4.07-9.43-9.25-9.51-.04,0-.08,0-.12,0h-65.62V9.38c0-5.18-4.2-9.38-9.37-9.38H84.38c-5.18,0-9.38,4.2-9.38,9.38v9.37H9.38C4.2,18.75,0,22.95,0,28.13c0,.04,0,.08,0,.12,.02,1.14,2.78,112.14,90,128.78,8.15,11.05,19.18,19.65,31.87,24.88v33.13c.07,19.22-11.71,36.49-29.62,43.44l-11.44,4.69c-3.51,1.46-5.81,4.89-5.81,8.7v18.75c0,5.18,4.2,9.37,9.37,9.37H215.62c5.18,0,9.37-4.2,9.37-9.37v-18.75c0-3.81-2.31-7.24-5.83-8.68l-11.55-4.73c-17.85-6.99-29.57-24.23-29.49-43.41v-33.13c12.7-5.23,23.72-13.84,31.87-24.9Zm15-44.53V37.5h55.56c-2.4,22.52-13.09,78.47-59.19,96.9,2.3-7.08,3.53-14.46,3.64-21.9ZM19.37,37.5h55.63V112.5c.11,7.46,1.34,14.86,3.66,21.96C31.93,116.07,21.6,60.15,19.37,37.5Z" fill="#fff"/>
  </g>
</svg>