<?xml version="1.0" encoding="UTF-8"?>
<svg id="_레이어_2" data-name="레이어 2" xmlns="http://www.w3.org/2000/svg" viewBox="0 0 300 300">
  <g id="_레이어_1-2" data-name="레이어 1">
    <g id="_04스포츠_shape_04_0010" data-name=" 04스포츠 shape 04 0010">
      <rect id="_사각형_2749" data-name="사각형 2749" width="299.97" height="300" fill="none"/>
      <path id="_패스_482" data-name="패스 482" d="M242.38,134.83c-3.02,0-6.04,.24-9.03,.71l-21.54-81.19c-.68-2.57-3.01-4.36-5.66-4.36h-44.35c-3.23-.04-5.89,2.55-5.93,5.78-.04,3.24,2.55,5.89,5.78,5.93,.05,0,.1,0,.15,0h39.84l3.91,14.73c-25.34,.99-47.48,8.88-66.03,19.39-15.74,8.96-30.15,20.08-42.8,33.04v-43.6c0-3.23-2.62-5.86-5.86-5.86H50.21c-3.23-.04-5.89,2.55-5.93,5.78-.04,3.24,2.55,5.89,5.78,5.93,.05,0,.1,0,.15,0h34.8v50.5s-.04,.04-.05,.06c-28-15.1-62.93-4.64-78.03,23.36-15.1,28-4.64,62.94,23.36,78.04,28,15.1,62.93,4.64,78.03-23.36,1.53-2.83,2.82-5.79,3.85-8.84h47.55c10.02,0,18.15-8.12,18.15-18.14,0-7.71-4.87-14.59-12.15-17.13,6.88-11.36,15.27-24.92,22.42-35.64,6.76-10.23,16.89-17.77,28.63-21.29l5.27,19.87c-29.75,11.25-44.76,44.49-33.51,74.24,11.25,29.76,44.48,44.76,74.24,33.52,29.75-11.25,44.76-44.49,33.51-74.24-8.47-22.41-29.93-37.24-53.89-37.24Zm-99.15-27.6c16.46-9.68,34.74-15.88,53.7-18.21-17.66,22.53-54.89,31.31-76.96,34.62,7.29-6.1,15.07-11.59,23.26-16.42h0ZM57.6,238.29c-25.33-.01-45.85-20.56-45.84-45.89,.01-25.33,20.56-45.86,45.89-45.84,19.28,.01,36.49,12.08,43.08,30.19-8.83,4.72-12.17,15.71-7.45,24.54,1.65,3.1,4.17,5.65,7.25,7.34-6.76,17.84-23.85,29.65-42.93,29.65Zm102.1-39.11h-50.41c-3.55,0-6.44-2.88-6.44-6.43s2.88-6.44,6.43-6.44h50.42c3.55,0,6.44,2.88,6.44,6.43s-2.88,6.44-6.43,6.44h-.01Zm18.67-65.7c-4.02,6.02-8.41,12.91-12.7,19.8h-25.64c-3.23,0-5.86,2.62-5.86,5.86s2.62,5.86,5.86,5.86h18.42c-2.05,3.36-4.01,6.6-5.81,9.6h-40.26c-3.3-10.25-9.43-19.35-17.67-26.28,3.19-3.7,6.63-7.45,10.32-11.18,13.1-.9,79.63-7.42,104.3-45.36l4.24,15.66c-14.42,4.29-26.88,13.5-35.19,26.04h0Zm64.01,104.81c-25.33,.01-45.87-20.5-45.88-45.83-.01-18.66,11.28-35.46,28.56-42.5l5.66,21.33c-11.67,6.45-15.9,21.14-9.45,32.81,6.45,11.67,21.14,15.9,32.8,9.45,11.67-6.45,15.9-21.14,9.45-32.81-4.25-7.69-12.35-12.47-21.14-12.46-.11,0-.23,0-.34,0l-5.66-21.33c25.11-3.33,48.16,14.33,51.48,39.45,3.33,25.11-14.33,48.16-39.44,51.49-2,.27-4.02,.4-6.04,.4Zm0-58.29c6.86,0,12.42,5.57,12.42,12.43,0,6.86-5.57,12.42-12.43,12.42-6.86,0-12.42-5.56-12.42-12.43,0-6.86,5.57-12.42,12.43-12.43Z" fill="#fff"/>
      <path id="_패스_483" data-name="패스 483" d="M57.6,168.28c-13.33,0-24.14,10.82-24.13,24.15,0,13.33,10.82,24.14,24.15,24.13,13.33,0,24.13-10.81,24.13-24.14-.02-13.33-10.82-24.13-24.15-24.14Zm0,36.57c-6.86,0-12.42-5.57-12.42-12.43,0-6.86,5.57-12.42,12.43-12.42,6.86,0,12.42,5.56,12.42,12.43,0,6.86-5.57,12.42-12.43,12.43Z" fill="#fff"/>
      <path id="_패스_484" data-name="패스 484" d="M120.02,154.23l-.17,.11c-2.71,1.76-3.48,5.39-1.72,8.1,1.76,2.71,5.39,3.48,8.1,1.72h0l.17-.11c2.73-1.74,3.54-5.36,1.8-8.09-1.74-2.73-5.36-3.54-8.09-1.8-.03,.02-.07,.04-.1,.06Z" fill="#fff"/>
    </g>
  </g>
</svg>