<?xml version="1.0" encoding="UTF-8"?>
<svg id="_레이어_2" data-name="레이어 2" xmlns="http://www.w3.org/2000/svg" viewBox="0 0 300 300">
  <g id="_레이어_1-2" data-name="레이어 1">
    <g id="_04스포츠_shape_04_0016" data-name=" 04스포츠 shape 04 0016">
      <rect id="_사각형_2877" data-name="사각형 2877" width="300" height="300" fill="none"/>
      <path id="_패스_841" data-name="패스 841" d="M68.42,253.08c-.77,1.39-1.36,2.37-1.88,3.38-4.93,9.64-9.86,19.29-14.79,28.94-2.22,4.33-4.01,5.09-8.55,3.61-9.53-3.1-19.03-6.28-28.58-9.34-2.35-.75-4.14-1.93-4.54-4.41-.44-2.67,1.08-4.4,3.28-5.68,.09-.06,.18-.12,.27-.17,10.17-4.49,15.58-12.43,18.37-22.82,1.94-7.23,5.02-14.18,7.75-21.18,8.59-21.97,35.61-29.09,54.32-14.3,6.13,4.85,12.13,9.86,18.34,14.92,.4-.39,.78-.81,1.12-1.26,6.54-10.22,13.12-20.42,19.53-30.72,.74-1.35,.99-2.92,.71-4.44-2.97-15.05-6.1-30.08-9.18-45.11-.8-3.92,.12-5.74,3.88-7.23,8.01-3.18,16.02-6.35,24.06-9.43,4.73-1.82,8.47,.38,7.96,5.24-1.01,9.61,1.97,17.93,6.63,26.18,5.43,9.62,9.98,19.71,15.23,29.43,3.39,5.87,3.69,13.04,.78,19.17-4.65,10.81-8.97,21.76-13.42,32.65-.43,1.06-.8,2.14-1.26,3.4h14.07c2.41-9.39,4.52-18.88,7.34-28.17,2.59-8.55,2.13-17.22,1.78-25.82-.51-8.68,1.32-17.33,5.29-25.06,3.26-6.3,5.72-13.01,8.66-19.47,.77-1.28,.54-2.93-.56-3.95-6.57-7.59-13-15.31-19.62-22.86-1.03-.98-2.39-1.54-3.81-1.57-14.6-.11-29.21-.16-43.81-.03-7.43,.07-13.07-2.73-17.4-8.62-11.18-15.21-22.45-30.35-33.81-45.42-1.42-1.66-3.24-2.94-5.28-3.72-3.26-1.38-6.76-2.19-10.1-3.39-4.74-1.7-5.51-6.35-1.51-9.36,6.52-4.9,13.17-9.63,19.7-14.52,2.83-2.11,5.3-1.46,8.01,.25,13.01,8.18,26.07,16.27,39.11,24.39,.89,.55,1.82,1.05,3.24,1.87-1.55-8.31-2.94-16.1-4.51-23.85-.39-.96-1.1-1.75-2.01-2.26-3.64-2.48-7.38-4.8-11.03-7.27-4.31-2.91-4.21-6.92,.25-9.57,7.85-4.67,15.74-9.27,23.62-13.9,4.57-2.68,6.91-2.09,9.49,2.43,7.69,13.49,15.3,27.01,23.08,40.45,.91,1.52,2.25,2.74,3.84,3.51,17.12,7.83,34.33,15.48,51.46,23.31,1.92,.89,3.61,2.2,4.95,3.83,10.86,13.46,21.56,27.04,32.38,40.53,2.54,2.91,3.68,6.79,3.1,10.61-1.03,7.23-1.78,14.5-2.79,21.73-.29,2.05,.34,2.99,2.12,4.25,7.79,5.51,13.83,12.58,16.21,21.82,2.29,8.92-2.74,18.21-11.18,22.14-8.46,4.04-18.58,1.97-24.76-5.09-2.56-3-4.87-6.2-7.51-9.59-4.26,2.98-8.52,5.83-12.58,8.93-.87,.67-1,2.27-1.51,3.51,.74,.17,.95,.29,1.12,.25,7.72-1.77,7.95-1.67,11.49,5.28,1.02,1.99,1.99,4,3.05,5.96,1.48,2.73,.97,5.04-1.24,7.17-4.08,3.94-8.13,7.92-12.14,11.93-.87,.75-1.51,1.74-1.84,2.84-1.82,10.32-3.51,20.66-5.22,30.99,.03,.3,.09,.59,.2,.86,3.38,0,6.82-.02,10.26,0,12.01,.1,21.23,8.93,21.23,20.33s-9.21,20.22-21.23,20.33c-3.35,.03-6.73,.22-10.05-.07-2.76-.24-5.86-.45-8.09-1.8-3.61-2.19-6.77-1.81-10.3-.36-4.66,1.91-9.53,2.32-14.58,2.29-24.56-.12-49.11-.13-73.67-.01-6.22,.22-12.2-2.38-16.28-7.07-10.63-11.72-21.39-23.32-32.1-34.97-1.39-1.49-2.78-2.96-4.53-4.83Zm81.73,36.6c1.11-8.66,2.37-17.12,3.26-25.62,.99-9.51,2.77-18.71,6.75-27.57,4.95-11.02,9.3-22.31,13.58-33.6,.86-2.26,1.14-5.46,.15-7.54-4.99-10.55-10.46-20.88-15.86-31.24-.54-.8-1.43-1.28-2.39-1.29-5.24,1.15-10.44,2.52-15.9,3.89,1.62,8.05,3.1,15.92,4.84,23.74,.59,2.37,.13,4.88-1.28,6.88-8.08,12.52-16.05,25.1-24.09,37.65-3.05,4.77-5.73,5.13-10.22,1.48-7.49-6.09-14.81-12.38-22.52-18.18-11.75-8.84-28.97-5.23-35.5,7.75-3.84,7.62-6.34,15.88-9.56,24.15,4.67,1.17,8.91,2.34,13.22,3.22,1.05-.07,2-.62,2.58-1.5,1.56-2.65,2.84-5.46,4.24-8.2,3.06-5.97,6.48-6.4,11.07-1.41,13.38,14.56,26.72,29.15,40.22,43.61,1.57,1.68,4.01,3.56,6.11,3.63,10.34,.37,20.72,.16,31.29,.16h0ZM110.92,52.73c-2.28,4.45-4.33,8.64-6.59,12.73-.96,1.41-.8,3.31,.38,4.54,8.08,10.73,16.09,21.51,24.03,32.34,2.01,2.98,5.46,4.68,9.05,4.46,15.14-.12,30.28,.07,45.42-.13,4.05-.05,6.99,.96,9.42,4.25,2.62,3.57,5.72,6.8,8.76,10.34l38.42-28.54c-2.4-3.03-4.65-5.62-6.59-8.41-1.4-2.16-3.8-3.47-6.38-3.46-24.93-1.44-49.85-2.97-74.77-4.6-2.22-.15-4.38-.82-6.3-1.94-11.57-7.02-23.02-14.22-34.84-21.58Zm91.22,149.15c4.76-1.15,9.16-2.19,13.54-3.29,5.84-1.46,6.05-1.46,6.61-7.45,.4-4.26,2.28-7.07,5.92-9.49,9.83-6.54,19.37-13.49,29.1-20.18,1.6-1.03,2.61-2.77,2.69-4.67,1.08-9.35,2.25-18.7,3.63-28.01,.53-3.55,.28-6.52-2.45-9.28-2.28-2.54-4.43-5.2-6.43-7.97-2.84-3.56-5.67-7.12-8.58-10.78l-38.14,28.33c2.66,3.13,5.05,6.11,7.62,8.94,2.05,1.97,2.52,5.07,1.14,7.56-4.65,10.35-9.15,20.76-13.68,31.17-.52,1.03-.84,2.16-.94,3.31-.08,7.08-.04,14.17-.04,21.81h0Zm12.77,7.39c-4.03,1-7.74,1.75-11.32,2.89-1.27,.47-2.29,1.45-2.81,2.71-1.39,4.44-2.31,9.02-3.62,13.49-3.82,12.96-6.54,26.04-5.47,39.66,.32,4.03-1.81,6.37-5.02,6.45-3.32,.08-5.29-2.32-5.31-6.53-.02-4.51,0-9.03,0-13.59h-16.21c-1.51,11.81-2.99,23.44-4.52,35.39h3.73c9.3,0,18.61-.24,27.9,.08,6.36,.33,12.72-.8,18.59-3.28,1.13-.53,1.99-1.51,2.35-2.71,3.12-19.11,6.12-38.24,9.09-57.37,.23-1.02,.17-2.08-.18-3.06-2.27-4.67-4.7-9.26-7.21-14.14h0Zm-63.18-143.12l51.71,3.16c-.59-.83-1.42-1.46-2.37-1.83-8.25-3.68-16.48-7.43-24.79-10.97-2.58-1.03-4.71-2.97-5.97-5.45-2.79-5.21-5.81-10.31-8.76-15.51l-14.61,4.83c1.62,8.69,3.17,17,4.8,25.77h0ZM43.7,278.45c2.63-5.17,5.14-10.1,7.77-15.25l-13.86-3.34c-.55,6.62-5.08,10.02-10.78,13.07l16.87,5.53ZM156.41,26.49l-8.15-14.34-13.94,8.2,12.18,9.38,9.91-3.24Zm-6.73,113.4l-14.29,5.6c.78,3.77,1.49,7.25,2.29,11.15l13.84-3.36c-.64-4.59-1.21-8.8-1.85-13.39h0Zm115.41,47.06c5.31,1.91,9.83,.82,12.7-2.76,2.92-3.63,3-8.27,.13-12.38-1.34-1.92-2.8-3.76-4.25-5.59-1.1-1.4-2.27-2.74-3.41-4.1,.27,3.46,.99,6.87,2.14,10.14,.79,2.13,.37,4.51-1.1,6.24-2.03,2.7-4.01,5.44-6.21,8.45h0ZM96.23,58.68l5.87-11.45c-2.61-1.63-5.13-3.24-7.69-4.78-.4-.24-1.16-.48-1.44-.29-3.1,2.15-6.13,4.38-9.18,6.59,6.09,1.19,9.48,4.88,12.44,9.93h0Zm147.46,212.45c0,2.43-.16,4.43,.03,6.4,.37,3.82-1.33,6.15-4.86,7.61-2.81,1.16-5.48,2.66-8.21,4.01,3.09,.54,6.24,.68,9.36,.43,4.39-.53,7.93-3.86,8.72-8.22,.76-3.89-.98-7.69-5.03-10.23Zm-19.35,9.31c8.67-2.74,10.01-4.51,8.49-10.97-1.26,0-2.55,.1-3.82-.02-2.44-.23-3.48,.7-3.58,3.17-.23,2.62-.59,5.23-1.09,7.82h0Zm5.39-64.99c1.75-2.09,3.62-4.09,5.6-5.97,2.17-1.86,2.11-3.37-.06-5.19l-9.98,2.47,4.44,8.7Zm28.18-35.95c1.1-2.88,4.91-4.18,3.2-8.23l-6.12,4.35c.95,1.27,1.77,2.35,2.92,3.88Z" fill="#fff"/>
    </g>
  </g>
</svg>