<?xml version="1.0" encoding="UTF-8"?>
<svg id="Layer_2" data-name="Layer 2" xmlns="http://www.w3.org/2000/svg" viewBox="0 0 300 300">
  <g id="_레이어_1" data-name="레이어 1">
    <g>
      <g>
        <path d="m122.53,245.38h-.68c2.48-3.14,3.9-7.17,3.67-11.54-.49-9.17-8.43-16.18-17.61-16.18h0c-8.72,0-15.79-7.07-15.79-15.79v-61.41c0-8.69,7.05-15.74,15.74-15.74h0c9.43,0,17.51-7.37,17.68-16.8.18-9.6-7.56-17.44-17.12-17.44h-14.42c10.5-8.11,16.77-21.43,14.91-36.09-2.24-17.7-16.62-31.82-34.35-33.77-23.61-2.61-43.58,15.81-43.58,38.88,0,12.61,5.97,23.82,15.24,30.98h-13.85c-9.43,0-17.51,7.37-17.68,16.8-.18,9.6,7.55,17.44,17.12,17.44h.57c8.69,0,15.74,7.05,15.74,15.74v61.41c0,8.72-7.07,15.79-15.79,15.79h0c-9.18,0-17.12,7.01-17.61,16.18-.24,4.37,1.18,8.4,3.67,11.54h-.68c-9.43,0-17.51,7.37-17.68,16.8-.18,9.6,7.55,17.44,17.12,17.44h105.98c9.56,0,17.29-7.84,17.12-17.44s-8.26-16.8-17.68-16.8Z" fill="#fff"/>
        <path d="m277.99,284.51h-105.98c-5.96,0-11.53-2.34-15.71-6.59-4.17-4.25-6.41-9.87-6.3-15.83.17-9.59,6.78-17.75,15.74-20.55-.82-2.55-1.18-5.24-1.03-7.96.63-11.67,10.51-20.81,22.5-20.81,6.01,0,10.89-4.89,10.89-10.89v-61.41c0-5.98-4.86-10.84-10.84-10.84h-.57c-5.96,0-11.53-2.34-15.71-6.59-4.17-4.25-6.41-9.87-6.3-15.83.22-11.91,10.34-21.6,22.57-21.6h2.27c-5.52-7.46-8.54-16.52-8.54-26.09,0-12.5,5.34-24.46,14.66-32.8,9.31-8.34,21.83-12.33,34.35-10.94,19.89,2.19,36.16,18.18,38.67,38.02,1.47,11.57-1.53,22.83-8.18,31.81h2.83c5.95,0,11.53,2.34,15.71,6.59,4.17,4.25,6.41,9.87,6.3,15.83-.22,11.91-10.34,21.6-22.57,21.6-5.98,0-10.84,4.86-10.84,10.84v61.41c0,6.01,4.89,10.89,10.89,10.89,11.98,0,21.87,9.14,22.5,20.8.15,2.72-.21,5.41-1.03,7.96,8.95,2.81,15.56,10.96,15.74,20.56.11,5.96-2.13,11.58-6.3,15.83-4.17,4.25-9.75,6.59-15.71,6.59Zm-105.41-34.24c-6.93,0-12.67,5.38-12.8,12-.06,3.31,1.18,6.44,3.5,8.8,2.32,2.36,5.42,3.66,8.73,3.66h105.98c3.31,0,6.41-1.3,8.73-3.66,2.32-2.36,3.56-5.49,3.5-8.8-.12-6.62-5.86-12-12.8-12h-.68c-1.88,0-3.59-1.07-4.4-2.76s-.6-3.69.57-5.17c1.85-2.34,2.78-5.27,2.62-8.24-.35-6.48-5.94-11.55-12.73-11.55-11.4,0-20.68-9.28-20.68-20.68v-61.41c0-11.37,9.25-20.63,20.63-20.63,6.93,0,12.67-5.38,12.8-12,.06-3.31-1.18-6.44-3.5-8.8-2.32-2.36-5.42-3.66-8.73-3.66h-14.42c-2.09,0-3.95-1.33-4.63-3.31-.68-1.98-.02-4.17,1.64-5.45,9.73-7.51,14.61-19.33,13.05-31.6-1.95-15.4-14.58-27.82-30.04-29.53-9.9-1.09-19.4,1.93-26.75,8.51-7.25,6.49-11.41,15.79-11.41,25.51,0,10.68,4.86,20.56,13.34,27.11,1.66,1.28,2.32,3.47,1.64,5.45-.68,1.98-2.54,3.31-4.63,3.31h-13.85c-6.93,0-12.67,5.38-12.8,12-.06,3.31,1.18,6.44,3.5,8.8,2.32,2.36,5.42,3.66,8.73,3.66h.57c11.37,0,20.63,9.25,20.63,20.63v61.41c0,11.4-9.28,20.68-20.68,20.68-6.79,0-12.38,5.07-12.73,11.55-.16,2.98.77,5.9,2.62,8.24,1.16,1.47,1.38,3.48.57,5.17s-2.53,2.76-4.4,2.76h-.68Z" fill="#fff"/>
      </g>
      <rect width="300" height="300" fill="none"/>
    </g>
  </g>
</svg>