<?xml version="1.0" encoding="UTF-8"?>
<svg id="Layer_2" data-name="Layer 2" xmlns="http://www.w3.org/2000/svg" viewBox="0 0 300 300">
  <g id="_레이어_1" data-name="레이어 1">
    <g>
      <g>
        <polygon points="195.09 96.34 205.02 86.42 214.94 96.34 218.45 92.83 208.53 82.91 218.45 72.99 214.94 69.47 205.02 79.4 195.09 69.47 191.58 72.99 201.5 82.91 191.58 92.83 195.09 96.34" fill="#fff"/>
        <path d="m289.97,72.34c-13.37-13.37-35.12-13.37-48.49,0l-2.17,2.17v-.05c0-18.91-15.38-34.29-34.29-34.29s-34.29,15.38-34.29,34.29v68.63l-17.51,17.51v-86.14c0-18.91-15.38-34.29-34.29-34.29s-34.29,15.38-34.29,34.29v151.08c0,18.91,15.38,34.29,34.29,34.29,14.96,0,27.71-9.63,32.38-23.02,6.9,1.56,14.18.99,20.78-1.75,4.14,14.29,17.33,24.77,32.94,24.77,18.91,0,34.29-15.38,34.29-34.29v-54.04l50.67-50.67c13.37-13.37,13.37-35.12,0-48.49Zm-114.28,2.12c0-16.17,13.15-29.32,29.32-29.32s29.32,13.15,29.32,29.32v5.02l-36.98,36.98-2.26-2.26-3.51,3.51,2.26,2.26-18.15,18.15v-63.66Zm-56.77,180.4c-16.17,0-29.32-13.15-29.32-29.32V74.46c0-16.17,13.15-29.32,29.32-29.32s29.32,13.15,29.32,29.32v91.11l-13.6,13.59c-.92.92-1.75,1.88-2.54,2.86-.5.62-.96,1.26-1.4,1.91-4.86,7.04-6.79,15.48-5.8,23.65.24,1.97.63,3.91,1.21,5.82,1.58,5.22,4.42,10.13,8.54,14.25,3.48,3.48,7.54,6.04,11.86,7.7-4.05,11.34-14.87,19.49-27.59,19.49Zm115.41-29.32c0,16.17-13.15,29.32-29.32,29.32-13.68,0-25.18-9.44-28.39-22.13,2.32-1.4,4.52-3.06,6.52-5.06l14.46-14.46,3.89,3.89-9.92,9.92,3.51,3.51,9.92-9.92,9.92,9.92,3.51-3.51-9.92-9.92,9.92-9.92-3.51-3.51-9.92,9.92-3.89-3.89,33.21-33.21v49.07Zm52.12-108.22l-47.15,47.15-4.97,4.97-36.73,36.73-3.51,3.51-14.46,14.46c-1.2,1.2-2.5,2.25-3.84,3.2-1.51,1.07-3.1,1.97-4.75,2.72-5.81,2.64-12.29,3.29-18.44,1.95-1.63-.36-3.24-.83-4.81-1.47-3.5-1.43-6.78-3.56-9.62-6.4-4.21-4.21-6.85-9.39-7.96-14.82-.33-1.61-.5-3.24-.56-4.88-.27-7.85,2.55-15.79,8.53-21.77l10.08-10.08,4.97-4.97,17.51-17.51,4.97-4.97,21.66-21.66,3.51-3.51,33.47-33.47,4.97-4.97,5.69-5.69c11.43-11.43,30.03-11.43,41.47,0,11.43,11.43,11.43,30.03,0,41.47Z" fill="#fff"/>
        <path d="m34.29,40.17C15.38,40.17,0,55.55,0,74.46v151.08c0,18.91,15.38,34.29,34.29,34.29s34.29-15.38,34.29-34.29V74.46c0-18.91-15.38-34.29-34.29-34.29Zm29.32,185.37c0,16.17-13.15,29.32-29.32,29.32s-29.32-13.15-29.32-29.32V74.46c0-16.17,13.15-29.32,29.32-29.32s29.32,13.15,29.32,29.32v151.08Z" fill="#fff"/>
        <polygon points="44.21 69.47 34.29 79.4 24.37 69.47 20.86 72.99 30.78 82.91 20.86 92.83 24.37 96.34 34.29 86.42 44.21 96.34 47.73 92.83 37.8 82.91 47.73 72.99 44.21 69.47" fill="#fff"/>
        <polygon points="44.21 114.2 34.29 124.12 24.37 114.2 20.86 117.71 30.78 127.64 20.86 137.56 24.37 141.07 34.29 131.15 44.21 141.07 47.73 137.56 37.8 127.64 47.73 117.71 44.21 114.2" fill="#fff"/>
        <polygon points="44.21 158.93 34.29 168.85 24.37 158.93 20.86 162.44 30.78 172.36 20.86 182.29 24.37 185.8 34.29 175.88 44.21 185.8 47.73 182.29 37.8 172.36 47.73 162.44 44.21 158.93" fill="#fff"/>
        <polygon points="44.21 203.66 34.29 213.58 24.37 203.66 20.86 207.17 30.78 217.09 20.86 227.01 24.37 230.53 34.29 220.6 44.21 230.53 47.73 227.01 37.8 217.09 47.73 207.17 44.21 203.66" fill="#fff"/>
      </g>
      <rect width="300" height="300" fill="none"/>
    </g>
  </g>
</svg>