<?xml version="1.0" encoding="UTF-8"?>
<svg id="Layer_2" data-name="Layer 2" xmlns="http://www.w3.org/2000/svg" viewBox="0 0 300 300">
  <g id="_레이어_1" data-name="레이어 1">
    <g>
      <g>
        <path d="m239.17,43.59h-13.53v-16.74c0-14.81-12.05-26.85-26.85-26.85H64.03c-14.81,0-26.85,12.05-26.85,26.85v209.12c0,14.81,12.05,26.85,26.85,26.85h16.74v13.53c0,13.06,10.59,23.65,23.65,23.65h134.76c13.06,0,23.65-10.59,23.65-23.65V67.24c0-13.06-10.59-23.65-23.65-23.65Zm-19.94,0v192.38c0,11.27-9.17,20.44-20.44,20.44H64.03c-11.27,0-20.44-9.17-20.44-20.44V26.85c0-11.27,9.17-20.44,20.44-20.44h134.76c11.27,0,20.44,9.17,20.44,20.44v16.74Z" fill="#fff"/>
        <path d="m139.81,104.72c-2.59.96-4.86,2.4-6.8,4.36-.5.51-1.01,1.01-1.56,1.55-.61-.63-1.14-1.21-1.7-1.76-8.42-8.22-22.24-6.6-28.27,3.49-4.08,6.83-3.39,13.67.94,20.19,1.77,2.67,4.2,4.77,6.53,6.94,6.51,6.07,13.34,11.77,20.21,17.42,1.69,1.39,2.98,1.39,4.66,0,2.98-2.49,5.98-4.96,8.94-7.47,5.02-4.26,9.98-8.58,14.66-13.22,2.68-2.66,4.84-5.64,5.88-9.31.36-1.28.54-2.6.81-3.91v-2.93c-.05-.29-.11-.58-.15-.86-1.47-11.3-13.41-18.47-24.14-14.5Zm14.7,26.13c-2.86,3.01-5.93,5.84-9.04,8.6-4.44,3.92-9,7.7-13.51,11.54-.14.12-.3.23-.52.4-3.07-2.6-6.16-5.1-9.13-7.73-4.32-3.83-8.58-7.73-12.81-11.65-2.29-2.12-3.9-4.67-4.58-7.77-1.55-7.07,3.41-13.99,10.62-14.74,3.98-.42,7.4.8,10.27,3.59,1.09,1.07,2.16,2.16,3.25,3.24,1.58,1.58,3.27,1.58,4.84.02,1.2-1.2,2.38-2.42,3.61-3.59,6.59-6.24,17.7-3.38,20.27,5.28,1.44,4.86.16,9.21-3.26,12.81Z" fill="#fff"/>
      </g>
      <rect width="300" height="300" fill="none"/>
    </g>
  </g>
</svg>