<?xml version="1.0" encoding="UTF-8"?>
<svg id="Layer_2" data-name="Layer 2" xmlns="http://www.w3.org/2000/svg" viewBox="0 0 300 300">
  <g id="_레이어_1" data-name="레이어 1">
    <g>
      <g>
        <path d="m299.48,133.98c-2.71-12.02-12.19-19.73-24.5-19.85-5.08-.05-10.15-.02-15.23,0-3.76.01-5.64,1.51-5.6,4.4.04,2.81,2.02,4.35,5.74,4.37,4.78.03,9.57,0,14.35.01,10.36.04,16.96,6.66,16.97,17.07.01,39.54,0,79.07,0,118.61,0,1.36-.02,2.75-.28,4.08-1.61,8.25-8.05,13.2-17.16,13.2-62.77,0-125.54,0-188.31,0-1.17,0-2.36-.07-3.51.08-2.24.29-3.83,1.78-3.61,3.87.17,1.55,1.47,3.18,2.68,4.33.68.64,2.22.49,3.37.49,63.16.02,126.32.02,189.48.02.78,0,1.56.01,2.34-.05,10.24-.82,17.57-5.88,21.84-15.22.84-1.83,1.31-3.82,1.95-5.74v-128.32c-.18-.44-.42-.87-.52-1.34Z" fill="#fff"/>
        <path d="m53.07,165.25c-18.71,10.55-25.45,33.99-15.31,52.73,10.22,18.88,33.78,26.19,52.74,16.01,13.25-7.12,20.5-18.49,20.86-33.6.37-15.47-6.61-27.19-19.82-35.11-1.96-1.17-2.65-2.31-2.6-4.53.15-6.64.16-13.28,0-19.92-.05-2.16.54-3.27,2.57-4.16,5.89-2.58,10.95-6.43,15.03-11.39,1.45-1.76,2.92-2.41,5.18-2.4,41.11.07,82.22.05,123.33.04,1.26,0,2.57.05,3.78-.22,2.29-.51,3.57-2.1,3.43-4.44-.15-2.46-1.58-3.92-4.13-4.08-.97-.06-1.95-.03-2.93-.03-25.58,0-51.17,0-76.75,0h-4.04c0-3.39-.01-6.4,0-9.41.04-7.24,3.14-10.36,10.33-10.36,13.96,0,27.93.15,41.89-.1,3.61-.06,7.45-.79,10.74-2.23,10.04-4.41,15.36-15.33,13.11-25.82-2.36-11-11.52-18.69-22.72-18.77-14.45-.11-28.9-.02-43.36-.04-6.65,0-9.93-3.22-10-9.82-.05-5.47,0-10.94-.02-16.4-.02-3.71-1.59-5.78-4.31-5.84-2.82-.06-4.45,2.08-4.47,5.97-.03,5.27-.02,10.55,0,15.82.05,12.07,7.07,19.06,19.14,19.07,13.96.01,27.93-.07,41.89.07,2.46.02,5.11.52,7.33,1.53,6.08,2.75,9.29,9.62,7.93,16.08-1.43,6.75-7.24,11.64-14.23,11.68-14.45.08-28.9.02-43.36.04-11.49.01-18.6,7.09-18.71,18.6-.03,3.2,0,6.4,0,9.72h-31.46c7.42-21.92,3.2-40.58-15.23-54.82-14.46-11.18-34.78-12.14-50.06-2.14-21.12,13.82-26.17,33.44-18.48,57.19-1.54,0-2.98,0-4.41,0C10.54,114.17.02,124.64.02,140.04c-.02,39.65-.03,79.29,0,118.94.01,14.8,10.65,25.54,25.42,25.66,11.72.09,23.44.03,35.15.01,3.71,0,5.7-1.55,5.74-4.36.04-2.87-1.87-4.41-5.61-4.41-11.42-.01-22.85,0-34.27,0-11.08-.01-17.65-6.59-17.65-17.67,0-30.17,0-60.35,0-90.52,0-9.67-.08-19.34.03-29,.1-8.77,6.89-15.54,15.62-15.75,3.22-.07,6.45-.14,9.66.05,1.09.07,2.44.69,3.14,1.52,4.54,5.4,9.98,9.61,16.42,12.45,1.65.73,2.03,1.66,2.02,3.3-.08,6.83-.13,13.67.02,20.5.05,2.23-.63,3.37-2.63,4.5Zm-17.35-69.84c.05-20.05,16.49-36.33,36.65-36.3,20.08.02,36.51,16.44,36.54,36.49.02,20.1-16.64,36.74-36.72,36.69-20.16-.06-36.52-16.6-36.47-36.88Zm28.71,48.42v-3.02h15.57c.06.57.19,1.23.19,1.89.01,18.55.02,37.1,0,55.65,0,1.06-.14,2.15-.43,3.17-1.03,3.66-4.57,6.04-8.22,5.62-3.79-.44-6.73-3.32-7.03-7.08-.15-1.94-.07-3.9-.07-5.85,0-16.79,0-33.58,0-50.38Zm-8.79,41.29c0,4.59-.03,9.18,0,13.77.08,9.7,7.38,17.18,16.68,17.13,9.17-.05,16.48-7.4,16.63-16.94.12-7.61.02-15.23.03-22.85,0-.56.07-1.12.13-2.01,11.01,6.81,16.08,21.22,12.26,33.95-4.03,13.42-16.47,22.06-30.98,21.5-13.25-.51-24.8-10.44-27.88-23.97-2.71-11.88,3.13-26.21,13.12-31.42,0,3.74,0,7.3,0,10.85Z" fill="#fff"/>
        <path d="m210.77,242.04h14.87c5.61,0,10.18-4.57,10.18-10.18v-18.79h18.79c5.61,0,10.18-4.56,10.18-10.18v-14.87c0-5.61-4.56-10.18-10.18-10.18h-18.79v-18.79c0-5.61-4.56-10.18-10.18-10.18h-14.87c-5.61,0-10.18,4.57-10.18,10.18v18.79h-18.79c-5.61,0-10.18,4.57-10.18,10.18v14.87c0,5.61,4.56,10.18,10.18,10.18h18.79v18.79c0,5.61,4.56,10.18,10.18,10.18Zm-28.96-36.79c-1.29,0-2.35-1.05-2.35-2.35v-14.87c0-1.3,1.05-2.35,2.35-2.35h26.61v-26.61c0-1.29,1.05-2.35,2.35-2.35h14.87c1.29,0,2.35,1.05,2.35,2.35v26.61h26.61c1.29,0,2.35,1.05,2.35,2.35v14.87c0,1.29-1.05,2.35-2.35,2.35h-26.61v26.61c0,1.29-1.05,2.35-2.35,2.35h-14.87c-1.29,0-2.35-1.05-2.35-2.35v-26.61h-26.61Z" fill="#fff"/>
      </g>
      <rect width="300" height="300" fill="none"/>
    </g>
  </g>
</svg>