<?xml version="1.0" encoding="UTF-8"?>
<svg id="Layer_2" data-name="Layer 2" xmlns="http://www.w3.org/2000/svg" viewBox="0 0 300 300">
  <g id="_레이어_1" data-name="레이어 1">
    <g>
      <path d="m53.32,300c-2.69-1.66-3.42-4.1-3.41-7.18.07-38.57.04-77.15.05-115.72,0-5.59,1.55-7.13,7.14-7.13,13.77,0,27.54-.01,41.31,0,5.59,0,7.56,2.79,5.84,8.14-1.18,3.69-2.91,7.26-1.96,11.35,1.68,7.29,8.62,11.82,15.66,10.1,7.29-1.78,11.53-8.98,9.52-16.26-.54-1.97-1.31-3.88-1.91-5.83-1.41-4.55.72-7.47,5.54-7.48,11.82-.04,23.63-.01,35.45-.01,1.05,0,2.1,0,3.43,0,0-1.34,0-2.39,0-3.43,0-11.72-.01-23.44,0-35.16,0-5.22,2.85-7.3,7.77-5.74,1.95.62,3.86,1.39,5.84,1.89,5.5,1.41,11.07-.74,14.12-5.33,2.95-4.45,2.9-10.24-.13-14.6-3.18-4.57-8.68-6.57-14.18-5.07-2.16.59-4.25,1.43-6.4,2.06-3.93,1.15-6.97-.93-6.99-5.02-.07-14.75-.06-29.49,0-44.24.01-3.22,1.88-5.04,5.05-5.35.68-.07,1.37-.03,2.05-.03,38.57,0,77.15.02,115.72-.04,3.08,0,5.52.72,7.18,3.41v246.68H53.32Zm116.65-120.05c-5.81,0-11.16,0-16.52,0s-10.8,0-16.29,0c3.84,18.32-8.61,28.57-19.3,29.76-6.62.74-12.66-.9-17.7-5.29-7.45-6.49-9.47-14.82-7.33-24.33h-32.64v109.72h109.79c0-1.27,0-2.33,0-3.39,0-11.71-.02-23.43,0-35.14.01-5.15,2.92-7.21,7.85-5.63,2.04.66,4.05,1.44,6.13,1.96,5.29,1.3,10.82-.94,13.79-5.47,2.98-4.54,2.83-10.44-.37-14.84-3.11-4.28-8.58-6.23-13.75-4.82-2.07.56-4.08,1.3-6.13,1.94-4.57,1.43-7.47-.66-7.51-5.47-.05-6.54-.01-13.08-.01-19.62,0-6.33,0-12.66,0-19.38Zm119.9,109.97v-109.97c-1.19,0-2.24,0-3.29,0-11.91,0-23.82.02-35.73-.01-4.63-.01-6.69-2.91-5.31-7.35.66-2.14,1.54-4.23,2.02-6.41,1.15-5.2-.19-9.74-4.37-13.12-4.26-3.44-9.07-4.03-13.98-1.55-4.76,2.41-7.41,6.46-7.07,11.82.19,2.95,1.31,5.86,2.19,8.73,1.59,5.18-.33,7.88-5.82,7.89-11.71.02-23.43,0-35.14,0-1.04,0-2.08,0-3.23,0v32.92c7.17-1.65,13.81-.98,19.77,3.2,5.94,4.16,9.28,9.91,9.86,17.15.52,6.45-1.37,12.2-5.69,17-6.47,7.19-14.7,8.95-23.92,6.96v32.75h109.69Zm-109.79-197.15c18.95-4.16,29.77,9.83,29.97,21.18.11,6.45-1.81,12.13-6.31,16.79-6.53,6.77-14.56,8.5-23.58,6.38v32.84c5.56,0,10.91,0,16.27,0s10.84,0,16.34,0c-4.02-19.32,10.41-29.98,22.01-29.89,6.67.05,12.43,2.4,16.98,7.3,5.91,6.37,7.31,13.97,5.38,22.35h32.75V60.2h-109.81v32.58Z" fill="#fff"/>
      <path d="m130.03,42.87c11.05-2.27,19.98.4,26.06,9.6,5.25,7.95,5.39,16.49.29,24.57-6.03,9.56-15.08,12.36-26.35,10.11,0,1.14,0,2.16,0,3.17,0,10.84,0,21.67,0,32.51,0,5.63-1.54,7.19-7.07,7.19-10.84,0-21.67,0-32.51,0h-3.3c2.28,11.27-.55,20.39-10.26,26.44-7.9,4.92-16.26,4.84-24.07-.16-9.5-6.09-12.27-15.15-9.95-26.28-1.21,0-2.27,0-3.32,0-10.93,0-21.87,0-32.8,0-5.06,0-6.74-1.65-6.74-6.6C0,84.47,0,45.52,0,6.57,0,1.7,1.66,0,6.45,0c39.05,0,78.1,0,117.15,0,4.65,0,6.42,1.73,6.42,6.33.02,11.03,0,22.06,0,33.09,0,1.06,0,2.12,0,3.45ZM10.15,10.07v109.98c1.21,0,2.26,0,3.31,0,11.72,0,23.43-.01,35.15,0,5.4,0,7.35,2.78,5.66,7.96-.63,1.95-1.42,3.86-1.85,5.85-1.11,5.2.23,9.74,4.43,13.11,4.17,3.35,8.9,3.96,13.72,1.62,4.79-2.33,7.55-6.34,7.27-11.71-.16-3.04-1.31-6.05-2.21-9.02-1.53-5.05.37-7.8,5.62-7.81,11.81-.02,23.63,0,35.44,0,1.03,0,2.07,0,3.21,0,.06-1.27.13-2.13.13-3,0-12.11-.02-24.21.02-36.32.02-4.49,2.88-6.53,7.17-5.23,2.14.65,4.25,1.43,6.42,2,5.35,1.41,10.78-.61,13.91-5.09,3.17-4.53,3.1-10.58-.17-15.08-3.18-4.36-8.74-6.28-14.04-4.79-1.87.53-3.7,1.21-5.56,1.81-4.94,1.59-7.74-.44-7.75-5.68-.02-11.81,0-23.63,0-35.44,0-1.03,0-2.06,0-3.17H10.15Z" fill="#fff"/>
    </g>
  </g>
</svg>