<?xml version="1.0" encoding="UTF-8"?>
<svg id="Layer_2" data-name="Layer 2" xmlns="http://www.w3.org/2000/svg" viewBox="0 0 300 300">
  <g id="_레이어_1" data-name="레이어 1">
    <g>
      <g>
        <path d="m293.82,70.87c-1.8-4.02-3.97-7.86-6.49-11.47-2.57-3.69-5.47-7.15-8.67-10.32-6.37-6.32-13.81-11.46-21.98-15.17-2.03-.92-4.11-1.75-6.23-2.48-1.06-.37-2.14-.66-3.2-1.02-.92-.32-1.63-.92-2.57-1.19-4.91-1.35-9.98-2-15.07-1.91-10.31.17-20.47,2.43-29.88,6.63-2.84,1.22-5.61,2.59-8.32,4.09-16.58,9.19-30.38,22.58-43.97,35.8l-36.22,35.25c-4.27,4.16-8.81,8.86-9.3,14.8-.63,7.7,6.45,14.54,14.11,15.59,7.66,1.05,15.32-2.5,21.25-7.45s10.56-11.25,15.72-17.01c6.07-6.78,13.22-13.03,21.92-15.7,7.63-2.3,15.83-1.71,23.05,1.68,3.34,1.59,6.47,3.77,10.08,4.58,8.64,1.92,16.63-4.39,24.29-8.83,2.29-1.56,4.98-2.43,7.76-2.52,2.75.12,5.6,2.1,5.8,4.85.19,2.75-2.12,4.95-4.35,6.57-7.1,5.15-15.23,8.7-23.82,10.42-.77.07-1.5.37-2.1.86-1.3,1.33-.07,3.51,1.12,4.94,15.13,18.25,23.8,41,24.65,64.7,17.45-17.19,39.01-31.22,50.47-52.88,10.12-19.56,10.84-42.64,1.96-62.79Z" fill="#fff"/>
        <path d="m200.7,120.08c-1.07-1-2.18-1.99-3.34-2.93-3.41-3.01-7.59-5.01-12.07-5.77-6.43-.79-12.79,2.26-17.75,6.43-4.96,4.16-8.87,9.42-13.31,14.14-6.84,7.28-15.2,13.42-24.81,16.13-9.6,2.72-20.55,1.66-28.62-4.23-8.07-5.89-12.49-16.97-9.28-26.43,2.04-6.03,6.7-10.73,11.21-15.22l33.32-33.11c1.48-1.47,3.07-3.21,2.95-5.3-.23-1.45-.9-2.79-1.91-3.85-9.06-11.35-20.46-20.6-33.43-27.13-11.68-5.78-24.77-8.05-37.71-6.56-4.87.51-36.88,3.87-55.16,32.19C-5.18,83.2.71,109.27,2.81,118.61c0,0,5.03,22.29,31.17,47.73.73.71,2.55,2.46,4.73,2.23,1.4-.31,2.66-1.08,3.57-2.18,10.17-10.06,19.88-23.47,34.16-24,11.52-.43,21.9,8.71,25.63,19.63.97,2.86,1.74,6.07,4.16,7.86,1.91,1.41,4.41,1.61,6.73,2.1,8.05,1.81,14.62,7.6,17.44,15.35,1.46,4.15,2.14,9.22,5.95,11.42,1.8.82,3.71,1.35,5.68,1.56,8.78,1.92,15.82,8.44,18.4,17.05.87,3.05,1.32,6.55,3.8,8.53,1.74,1.1,3.68,1.82,5.72,2.12,5.47,1.41,10.42,4.38,14.24,8.53.73,1.03,1.78,1.81,2.98,2.21,1.55.3,3-.78,4.2-1.8,10.63-9,20.5-18.86,29.5-29.49,3.8-4.49,7.52-9.24,9.39-14.83,2.45-7.34,1.47-15.39-.4-22.9-4.77-19-14.89-36.23-29.15-49.66Zm-124.5-16.24c-3.07,3.71-8.56,4.24-12.28,1.17,0,0,0,0-.01-.01l-7.44-6.17c-1.23-1.34-3.31-1.44-4.65-.21-.23.21-.43.45-.59.71l-6.16,7.45c-3.07,3.71-8.56,4.24-12.28,1.17,0,0,0,0-.01-.01-3.71-3.08-4.23-8.59-1.16-12.31,2.08-2.52,4.16-5.03,6.23-7.55.77-.73,1.14-1.78,1.02-2.83-.15-.93-.7-1.75-1.5-2.26l-7.54-6.25c-3.7-3.11-4.17-8.62-1.07-12.31,3.07-3.65,8.5-4.17,12.2-1.16l7.15,5.93c.85.82,2.04,1.22,3.21,1.07,1.04-.17,1.96-.76,2.56-1.62l5.92-7.16c2.99-3.79,8.48-4.44,12.27-1.45,3.79,2.99,4.44,8.48,1.45,12.27-.09.11-.18.22-.27.33l-5.99,7.25c-.81.73-1.26,1.78-1.23,2.87.08,1.28.85,2.42,2,2.98l6.99,5.79c3.71,3.08,4.23,8.59,1.16,12.31Zm75.94,82.94c-5.96.65-11.33-4.52-11.54-10.52-.45-5.97,4.02-11.17,9.99-11.63.15-.01.3-.02.45-.02,6.09-.06,11.08,4.82,11.14,10.91,0,.04,0,.08,0,.13-.23,6.53-3.64,10.43-10.04,11.13Zm31.78-22.81c6.03-.04,10.94,4.81,10.99,10.83,0,.1,0,.21,0,.31.04,5.98-5.17,11.45-11.06,10.97-6.31-.51-9.93-4.29-10.66-9.82-.13-7.04,4.76-12.24,10.73-12.29Zm1.17,54.77c-.17,0-.34,0-.51,0-6.56-.27-9.99-4.22-10.48-10.54-.43-5.83,3.95-10.9,9.78-11.33.24-.02.48-.03.72-.03,6.09.02,11.03,4.93,11.08,11.02.08,5.93-4.66,10.8-10.59,10.88Z" fill="#fff"/>
        <path d="m171.62,237.7c-2.6-1.53-4.14-.92-8.16-1.48-4.47-.63-7.56-1.06-9.51-3.4-1.86-2.23-.5-3.59-2.36-9.66-.92-3.61-2.68-6.95-5.13-9.76-1.47-1.52-3.19-2.79-5.08-3.75-9-4.92-12.47-1.37-16.5-5.04-4.51-4.11-1.47-9.78-7.58-16.07-1.5-1.5-3.17-2.81-4.98-3.91-2.8-1.57-5.78-2.79-8.87-3.63-7.14-2.32-7.69-1.86-8.84-3.18-2.13-2.47-.44-4.35-2.83-9.88-1.1-2.53-2.63-4.85-4.51-6.86-1.43-1.69-3.19-3.07-5.17-4.06-3.18-1.38-6.74-1.6-10.07-.65-2.48.66-4.83,1.77-6.92,3.25-2.07,1.34-4.05,2.81-5.92,4.4-.73.6-2.26,1.87-3.73,3.32-2.55,1.57-7.05,4.82-6.97,8.92.13,1.75.88,3.4,2.11,4.65,4.21,4.79,20.41,22.68,42.69,46.91,5.93,6.47,36.41,39.45,49.7,45.21,1.44.66,2.99,1.05,4.57,1.14,5.84.27,8.39-4.03,21.26-15.63,5.35-4.82,8.08-6.94,8.29-10.65.1-1.61,1.09-6.33-5.49-10.19Z" fill="#fff"/>
      </g>
      <rect width="300" height="300" fill="none"/>
    </g>
  </g>
</svg>