<?xml version="1.0" encoding="UTF-8"?>
<svg id="Layer_2" data-name="Layer 2" xmlns="http://www.w3.org/2000/svg" viewBox="0 0 300 300">
  <g id="_레이어_1" data-name="레이어 1">
    <g>
      <g>
        <path d="m0,20.29c2.19-4.24,5.72-5.35,10.35-5.34,73.23.1,146.45.07,219.68.07,7.5,0,9.97,2.48,9.97,10.02,0,33.49.07,66.99-.06,100.48-.02,5.73-.68,11.49-1.43,17.19-.62,4.69-4.04,7.12-8.41,6.59-4.04-.49-6.65-3.89-6.32-8.39,2.64-36.37.49-72.8,1.17-109.2,0-.46-.11-.93-.18-1.48H15.2c-.07.72-.16,1.28-.16,1.84,0,32.22-.08,64.45.07,96.67.1,20.64,7.85,38.64,20.23,54.73,18.47,24.03,42.69,40.42,70.67,51.25,17.29,6.69,10.7,6.63,28.37-.29,9.75-3.82,18.89-9.22,28.23-14.06,5.02-2.6,10.08-1.01,11.63,3.96,1.07,3.43-.3,6.68-3.87,8.89-11.72,7.27-24.04,13.4-37.11,17.8-15.79,5.31-10.47,5.77-27.91-.5-28.84-10.38-54.07-26.49-74.67-49.38-14.7-16.33-25.16-34.93-29.14-56.79-.59-3.25-1.03-6.53-1.54-9.79V20.29Z" fill="#fff"/>
        <path d="m255.35,198.52c2.06-2.26,3.54-4.1,5.23-5.7,3.21-3.03,7.58-3.06,10.53-.22,3.07,2.95,3.21,7.43.03,10.73-3.37,3.52-6.98,6.81-10.6,10.31,1,1.05,1.7,1.82,2.43,2.56,11.18,11.19,22.37,22.37,33.54,33.56,4.63,4.64,4.65,8.44.04,13.07-6.27,6.3-12.55,12.58-18.85,18.85-4.5,4.48-8.4,4.49-12.86.04-11.26-11.24-22.52-22.49-33.75-33.76-.68-.69-1.19-1.55-1.99-2.62-3.84,3.88-7.19,7.39-10.68,10.76-2.56,2.47-6.09,2.93-8.91,1.42-2.75-1.48-4.45-4.46-3.8-7.57.34-1.62,1.32-3.21,2.36-4.56,1.3-1.69,2.95-3.11,4.44-4.65.06-.06.06-.18.73-.92-.96-.66-2.06-1.18-2.88-1.99-27.57-27.52-55-55.18-82.74-82.52-4.82-4.75-7.47-9.75-8.13-16.43-.93-9.41-2.54-18.75-3.92-28.11-1.03-6.98,2.7-11.07,9.67-10.15,11.51,1.52,23.01,3.1,34.45,5,2.39.4,4.99,1.84,6.73,3.57,28.81,28.62,57.5,57.37,86.21,86.1.83.83,1.51,1.79,2.72,3.23Zm-123.56-81.81c.11,1.34.14,2.29.27,3.22.87,6.08,1.63,12.18,2.72,18.22.34,1.86,1.2,3.96,2.5,5.27,27.93,28.09,55.96,56.08,83.93,84.12.73.73,1.01,1.89,1.24,2.33,7.8-7.77,14.75-14.68,22.08-21.98-.62-.49-1.53-1.08-2.28-1.83-26.57-26.55-53.21-53.04-79.61-79.75-4.16-4.21-8.34-7.11-14.44-7.43-5.4-.28-10.75-1.39-16.43-2.18Zm108.19,118.02c10.62,10.65,21.07,21.12,31.36,31.44,3.23-3.26,6.64-6.69,9.58-9.65-10.32-10.35-20.82-20.87-31.24-31.31-3.15,3.09-6.55,6.44-9.69,9.53Z" fill="#fff"/>
      </g>
      <rect width="300" height="300" fill="none"/>
    </g>
  </g>
</svg>