<?xml version="1.0" encoding="UTF-8"?>
<svg id="Layer_2" data-name="Layer 2" xmlns="http://www.w3.org/2000/svg" viewBox="0 0 300 300">
  <g id="_레이어_1" data-name="레이어 1">
    <g>
      <path d="m0,300V0c100,0,200,0,300,0v255.89h-8.88v-13.95h-49.1v49.1h49.26v-25.98h8.5v34.95H0ZM66.95,67.16v74.44c-2.14,0-3.9-.14-5.62.03-2.38.24-3.28-.54-3.16-3.05.2-4.35.05-8.71.05-13.17H8.94v48.99h49.45v-23.8h8.72v82.1h165.57V67.16H66.95Zm.27-58.26v49.09h49.11V8.9h-49.11Zm116.46,0v49.17h49.07V8.9h-49.07Zm-125.61,58.38H9.03v48.9h49.04v-48.9Zm183.87,48.9h49.15v-48.87h-49.15v48.87Zm0,116.53h49.09v-49.11h-49.09v49.11Zm-125.56,58.4v-49.2h-49.11v49.2h49.11Zm67.3-.13h49.08v-49.04h-49.08v49.04Zm-58.11-49.07v49.08h48.96v-49.08h-48.96Zm-116.64-9.22h49.09v-49.1H8.92v49.1Zm282.1-58.23v-49.05h-49.07v49.05h49.07ZM125.5,8.91v49.18h49V8.91h-49Zm165.52,49.02V8.98h-48.96v48.95h48.96ZM9.03,8.91v48.93h48.93V8.91H9.03Zm49.01,282.18v-49.18H9v49.18h49.04Z" fill="#fff"/>
      <path d="m266.42,282.48c-8.94-.02-15.63-6.65-15.6-15.49.02-8.77,6.85-15.5,15.69-15.47,8.91.03,15.59,6.72,15.56,15.56-.04,8.93-6.62,15.41-15.65,15.39Zm6.81-15.55c-.05-3.88-3.09-6.8-6.95-6.68-3.72.11-6.63,3.07-6.65,6.74-.03,3.86,2.92,6.75,6.86,6.74,3.98-.01,6.8-2.86,6.74-6.81Z" fill="#fff"/>
      <path d="m108.91,150.77c14.28,14.27,28.64,28.61,42.77,42.72-10.26,10.26-20.59,20.57-30.69,30.66-14.12-14.07-28.55-28.46-42.81-42.68,10.16-10.15,20.43-20.41,30.73-30.7Zm-18.22,30.36c10.21,10.19,20.51,20.48,30.47,30.42,5.89-5.87,12-11.96,18-17.94-10.06-10.02-20.33-20.26-30.52-30.41-5.98,5.97-12.1,12.1-17.95,17.94Z" fill="#fff"/>
      <path d="m212.21,120.87c-4.58-4.44-9.2-8.91-13.92-13.49,2.2-2.08,4.21-3.98,6.04-5.71,6.48,6.51,13.14,13.18,19.57,19.65-10,9.99-20.26,20.25-30.34,30.32-14.09-14.07-28.56-28.52-42.87-42.81,10.09-10.09,20.35-20.35,30.43-30.43,5.27,5.26,10.69,10.68,15.99,15.98-1.73,1.68-3.67,3.56-5.59,5.42-2.89-3.07-6.14-6.51-9.23-9.79-6.78,6.89-12.89,13.09-18.84,19.14,9.87,9.85,20.15,20.1,30.27,30.2,5.84-5.83,11.97-11.94,18.5-18.47Z" fill="#fff"/>
      <path d="m281.89,34.18c-.02,8.96-6.67,15.64-15.49,15.59-8.78-.05-15.48-6.87-15.44-15.72.04-8.91,6.74-15.6,15.57-15.54,8.93.05,15.38,6.64,15.36,15.67Zm-8.73.05c.05-4.01-2.7-6.86-6.66-6.88-3.9-.02-6.85,2.92-6.82,6.8.02,3.71,2.91,6.69,6.6,6.81,3.85.12,6.83-2.79,6.88-6.72Z" fill="#fff"/>
      <path d="m48.65,34.19c-.02,8.92-6.72,15.64-15.53,15.58-8.77-.05-15.48-6.9-15.43-15.74.05-8.9,6.77-15.59,15.59-15.53,8.92.06,15.39,6.67,15.37,15.69Zm-15.42-6.85c-3.89-.02-6.83,2.93-6.8,6.82.03,3.84,3.09,6.86,6.89,6.79,3.76-.07,6.54-2.91,6.59-6.73.05-3.99-2.74-6.86-6.68-6.88Z" fill="#fff"/>
      <path d="m48.65,266.99c.01,9-6.51,15.62-15.41,15.66-8.84.03-15.53-6.66-15.56-15.56-.02-8.87,6.67-15.66,15.46-15.69,8.84-.03,15.49,6.67,15.5,15.6Zm-8.75.06c0-3.95-2.9-6.89-6.76-6.85-3.8.04-6.79,3.14-6.71,6.96.07,3.78,2.91,6.61,6.68,6.65,3.93.05,6.79-2.8,6.8-6.77Z" fill="#fff"/>
    </g>
  </g>
</svg>