<?xml version="1.0" encoding="UTF-8"?>
<svg id="Layer_2" data-name="Layer 2" xmlns="http://www.w3.org/2000/svg" viewBox="0 0 300 300">
  <g id="_레이어_1" data-name="레이어 1">
    <g>
      <path d="m142.62,116.88c1.19-5.98,3.99-10.84,1.87-16.81-2.28-6.41-3.72-13.12-5.38-19.74-.56-2.22-1.46-2.76-3.73-2.13-12.31,3.4-24.66,6.65-36.99,9.95-4.37,1.17-6.78.39-7.54-2.46-.79-2.96.84-4.88,5.12-6.03,12.24-3.28,24.48-6.56,36.72-9.84,8.14-2.18,12.83.57,15.03,8.82.77,2.89,1.6,5.78,2.59,9.37,1.03-3.82,1.86-6.91,2.69-10.01,1.98-7.36,6.98-10.27,14.4-8.29,19.21,5.13,38.42,10.28,57.62,15.46,8.24,2.22,10.71,5.99,9.6,13.56,5.88,3.23,11.59,6.24,17.18,9.45,13.72,7.85,27.39,15.78,41.08,23.67,7.69,4.43,9.06,9.54,4.61,17.25-14.39,24.92-28.78,49.84-43.17,74.77-4.25,7.37-9.48,8.79-16.82,4.56-17.15-9.9-34.28-19.84-51.46-29.68-3.78-2.16-6.57-4.81-6.93-9.44-.05-.58-.97-1.4-1.64-1.58-8.74-2.42-17.5-4.76-26.27-7.05-.78-.2-1.73-.02-2.54.19-8.49,2.23-16.96,4.51-25.44,6.74-1.43.37-2.37.81-2.49,2.61-.23,3.35-2.18,5.79-5,7.5-2.75,1.67-5.54,3.29-8.36,4.83-2.74,1.5-5.31.86-6.56-1.51-1.18-2.24-.37-4.48,2.26-6.12,1.31-.81,2.64-1.58,3.78-2.86-1.26.34-2.51.68-3.77,1.01-6.86,1.77-12.01-1.19-13.87-7.99-1.24-4.51-2.41-9.04-3.62-13.56-.21-.8-.5-1.58-.87-2.75-2.71,4.76-6.41,7.74-11.8,9.12.82,1.5,1.54,2.8,2.31,4.2.62-.27,1.05-.47,1.48-.65,2.73-1.14,4.91-.6,6.11,1.53,1.25,2.22.51,4.66-2.03,6.19-3.17,1.92-6.39,3.76-9.63,5.57-2.73,1.52-5.04,1.11-6.46-1.02-1.48-2.22-.83-4.45,1.86-6.44.31-.23.59-.49,1.01-.85-.74-1.28-1.46-2.52-2.16-3.71-.38.09-.62.07-.74.18-5.26,4.87-11.29,6.51-18.08,3.91-6.89-2.63-10.63-7.96-12-15.07-1.45-7.51.49-14.52,3.33-21.36.82-1.98,1.98-3.82,2.77-5.8,2.21-5.57,6.29-7.32,12.09-6.84,9.03.75,17.81,2.01,25.65,7.41-3.95-11.36-4.37-23.69-10.86-34.16-1.35-2.18-2.41-2.5-4.62-1.21-17.28,10.07-34.6,20.07-51.95,30-2.07,1.19-2.45,2.2-1.21,4.35,14.65,25.22,29.22,50.49,43.75,75.78,1.21,2.1,2.28,2.36,4.39,1.11,8.55-5.08,17.16-10.08,25.88-14.86,1.37-.75,3.71-.84,5.08-.17,1.08.52,1.89,2.7,1.85,4.11-.03,1.16-1.25,2.69-2.36,3.35-9.23,5.47-18.49,10.9-27.87,16.1-5.4,2.99-10.93.96-14.3-4.88-14.21-24.57-28.41-49.16-42.6-73.74-1.2-2.09-2.39-4.19-3.58-6.28,0-1.76,0-3.52,0-5.27,1.62-3.88,4.71-6.16,8.27-8.19,16.53-9.42,32.95-19.02,49.47-28.45,2.47-1.41,5.26-2.28,8.28-3.56-.02-.12-.12-.84-.24-1.56-.9-5.42,2.34-10.44,7.66-11.85,2.47-.65,4.75.36,5.58,2.48.86,2.2.03,4.66-2.35,5.57-2.25.85-2.31,2-1.76,4.04,7.56,28.05,15.06,56.12,22.54,84.19.5,1.88,1.04,3.21,3.55,2.52,10.52-2.91,21.09-5.68,31.63-8.51.37-.1.7-.32,1.22-.57-4.55-3.87-4.97-8.51-3.27-13.85,1.65-5.17,2.84-10.49,3.93-14.6l8.11-30.12Zm65.96,18.02c6.91-12.36,14.89-23.2,17.11-36.83.42-2.59.13-3.67-2.46-4.35-19.23-5.06-38.45-10.17-57.63-15.42-2.7-.74-3.63-.02-4.29,2.49-7.45,28.08-14.95,56.14-22.53,84.19-.65,2.41-.02,3.28,2.3,3.88,13.11,3.42,26.18,7,39.29,10.41.94.24,2.36-.17,3.16-.79,1.97-1.53,3.91-1.86,5.88-.37,1.87,1.42,2.15,3.4,1.13,5.5-.51,1.05-1.07,2.09-1.73,3.05-1.26,1.86-.92,3.05,1.09,4.21,17.52,10.04,35,20.14,52.46,30.28,1.84,1.07,2.88.89,3.97-1.02,14.64-25.45,29.33-50.88,44.05-76.28,1.11-1.91.72-2.88-1.11-3.94-17.51-10.05-35-20.16-52.46-30.3-1.96-1.14-3.08-.88-4.2,1.13-3.02,5.46-6.21,10.83-9.34,16.24-7.22,12.5-14.45,25-21.64,37.52-1.09,1.89-2.35,3.42-4.73,3.32-3.29-.14-5.1-3.56-3.44-6.69,1.86-3.49,3.91-6.89,6.25-10.99-6.44,2.37-12.07,2.17-17.63-1.36-.46,1.85-.82,3.31-1.18,4.79.98.4,1.72.63,2.4.98,1.97,1.04,2.83,2.75,2.3,4.88-.57,2.24-2.24,3.75-4.52,3.27-4.57-.96-9.1-2.18-13.54-3.62-2.08-.67-2.77-2.7-2.3-4.85.48-2.19,2-3.28,4.23-3.3.86,0,1.73.13,2.83.21.42-1.51.82-2.95,1.26-4.51-.68-.08-1.06-.15-1.44-.17-9.25-.48-15.61-6.19-16.67-14.96-.95-7.87,4.33-15.21,12.62-17.81.97-.31,2-1.36,2.43-2.33,3.49-7.85,11.69-11.95,19.73-9.72,8.19,2.27,13.09,9.72,12.09,18.3-.1.82-.23,2.04.22,2.45,3.43,3.17,5.32,7.11,6.03,12.49Zm-140.51,34.31c7.14.58,11.68-5.77,8.38-12.15-1.19-2.3-3.32-4.41-5.53-5.82-6.04-3.85-12.99-4.51-19.98-4.59-.73,0-1.83.81-2.13,1.51-1.88,4.37-3.88,8.73-5.25,13.27-1.25,4.16-1.21,8.53.95,12.55,1.81,3.36,4.66,5.31,8.53,5.14,3.61-.16,5.79-2.33,7.12-5.62,1.52-3.76,3.33-4.66,7.89-4.29Zm123.61-26.25c3.37.03,6.38-2.02,7.47-5.08,1.12-3.15.33-6.7-2.47-8.66-3.55-2.47-4.58-5.38-3.34-9.56,1.29-4.34-1.3-8.53-5.41-9.56-4.36-1.09-8.6,1.31-9.59,5.87-.85,3.95-3.07,5.87-6.96,6.24-3.47.32-5.74,2.22-6.79,5.53-.99,3.13-.06,5.83,2.26,7.95,2.56,2.35,5.56,2.56,8.71,1.19,4.63-2.01,6.75-1.45,9.72,2.62,1.6,2.19,3.66,3.44,6.41,3.46Z" fill="#fff"/>
      <rect width="300" height="300" fill="none"/>
    </g>
  </g>
</svg>