<?xml version="1.0" encoding="UTF-8"?>
<svg id="Layer_2" data-name="Layer 2" xmlns="http://www.w3.org/2000/svg" viewBox="0 0 300 300">
  <g id="_레이어_1" data-name="레이어 1">
    <g>
      <path d="m228.5,78.5H71.5C32.01,78.5,0,110.51,0,150h0c0,39.49,32.01,71.5,71.5,71.5h157c39.49,0,71.5-32.01,71.5-71.5h0c0-39.49-32.01-71.5-71.5-71.5Zm32.5,51.5c3.74,0,6.77,3.03,6.77,6.77s-3.03,6.77-6.77,6.77-6.77-3.03-6.77-6.77,3.03-6.77,6.77-6.77Zm-209,27h-6v6c0,3.87-3.13,7-7,7s-7-3.13-7-7v-6h-6c-3.87,0-7-3.13-7-7s3.13-7,7-7h6v-6c0-3.87,3.13-7,7-7s7,3.13,7,7v6h6c3.87,0,7,3.13,7,7s-3.13,7-7,7Zm177,29.78c0,7.03-5.7,12.72-12.72,12.72H83.72c-7.03,0-12.72-5.7-12.72-12.72v-73.56c0-7.03,5.7-12.72,12.72-12.72h132.56c7.03,0,12.72,5.7,12.72,12.72v73.56Zm18.77-30.01c-3.74,0-6.77-3.03-6.77-6.77s3.03-6.77,6.77-6.77,6.77,3.03,6.77,6.77-3.03,6.77-6.77,6.77Zm13.23,13.23c-3.74,0-6.77-3.03-6.77-6.77s3.03-6.77,6.77-6.77,6.77,3.03,6.77,6.77-3.03,6.77-6.77,6.77Zm13.23-13.23c-3.74,0-6.77-3.03-6.77-6.77s3.03-6.77,6.77-6.77,6.77,3.03,6.77,6.77-3.03,6.77-6.77,6.77Z" fill="#fff"/>
      <rect width="300" height="300" fill="none"/>
    </g>
  </g>
</svg>