<?xml version="1.0" encoding="UTF-8"?>
<svg id="Layer_2" data-name="Layer 2" xmlns="http://www.w3.org/2000/svg" viewBox="0 0 300 300">
  <g id="_레이어_1" data-name="레이어 1">
    <g>
      <g>
        <path d="m269.2,3.21c0-1.07.06-2.14.09-3.21H30.7v39.71h39.66c.06,1.18.15,2.12.15,3.05,0,34.84.03,69.67-.07,104.51,0,1.56-.75,3.43-1.77,4.62-11.84,13.86-23.77,27.64-35.76,41.38-1.5,1.72-2.17,3.43-2.17,5.74.07,32.49.05,64.99.04,97.48,0,1.17-.06,2.34-.09,3.51h238.6c-.03-1.07-.09-2.14-.09-3.21,0-97.86,0-195.71,0-293.57Zm-76.29,6.17h21.11v20.97h-21.11V9.39ZM40.18,30.31V9.39h143.16v20.91H40.18Zm134.13,260.28H40.21v-88.29h134.1v88.29Zm.67-97.83c-42.38.08-84.77.07-127.15.07-.54,0-1.08-.06-2.19-.13,3.49-4.05,6.63-7.72,9.79-11.37,6.38-7.38,12.85-14.68,19.08-22.18,1.94-2.34,3.95-3.5,6.96-3.09,1.43.2,2.91.03,4.66.03v-9h-6.11V40h133.94v106.93h-103.01v9.22h97.67c-1.58,1.84-2.69,3.15-3.82,4.46-8.8,10.18-17.58,20.39-26.46,30.5-.77.88-2.23,1.65-3.37,1.65Zm84.83,97.77h-76.23v-3.42c0-28.31-.03-56.62.08-84.93,0-1.74.78-3.84,1.91-5.17,11.83-13.88,23.77-27.66,35.76-41.41,1.37-1.57,1.98-3.12,1.98-5.23-.05-45.69-.04-91.37-.04-137.06v-3.9h36.55v281.11Z" fill="#fff"/>
        <path d="m98.18,58.29h97.39v70.31h-72.4v9.01h81.65V49.27h-115.75v58.23h9.11v-49.21Z" fill="#fff"/>
        <path d="m114.9,128.07c-1.39-6.98-7.76-12.58-14.97-13.16-7.4-.6-14.55,3.9-17.07,10.74-2.7,7.31-.64,16,6.17,19.49,4.98,2.55,5.07,5.85,4.91,10.16-.16,4.29-.04,8.59-.04,12.88v6.17h9.19v-26.38c1.1-.5,2-.87,2.86-1.3,6.91-3.46,10.48-10.89,8.95-18.6Zm-16.6,11.22c-4.04-.15-7.51-3.89-7.37-7.95.13-3.98,3.64-7.31,7.66-7.28,4.13.03,7.62,3.6,7.54,7.71-.08,4.01-3.88,7.66-7.83,7.51Z" fill="#fff"/>
        <path d="m160.33,210.57H48.27v68.12h112.06v-68.12Zm-7.32,60.79H55.59v-53.47h97.41v53.47Z" fill="#fff"/>
        <path d="m161.06,161.87c-6.26,0-11.35,5.09-11.35,11.35s5.09,11.35,11.35,11.35,11.35-5.09,11.35-11.35-5.09-11.35-11.35-11.35Zm0,15.38c-2.22,0-4.03-1.81-4.03-4.03s1.81-4.03,4.03-4.03,4.03,1.81,4.03,4.03-1.81,4.03-4.03,4.03Z" fill="#fff"/>
        <path d="m129.56,161.87c-6.26,0-11.35,5.09-11.35,11.35s5.09,11.35,11.35,11.35,11.35-5.09,11.35-11.35-5.09-11.35-11.35-11.35Zm0,15.38c-2.22,0-4.03-1.81-4.03-4.03s1.81-4.03,4.03-4.03,4.03,1.81,4.03,4.03-1.81,4.03-4.03,4.03Z" fill="#fff"/>
      </g>
      <rect width="300" height="300" fill="none"/>
    </g>
  </g>
</svg>