<?xml version="1.0" encoding="UTF-8"?>
<svg id="Layer_2" data-name="Layer 2" xmlns="http://www.w3.org/2000/svg" viewBox="0 0 300 300">
  <g id="_레이어_1" data-name="레이어 1">
    <g>
      <g>
        <path d="m139.17,43.33c-7.13.84-14.14,2.52-20.87,5.02-1.52.56-2.53,2.01-2.53,3.63,0,2.14,1.73,3.87,3.87,3.87h0c.46,0,.92-.08,1.34-.24,6.16-2.28,12.57-3.82,19.09-4.59,2.12-.25,3.64-2.17,3.39-4.3s-2.17-3.64-4.3-3.39Z" fill="#fff"/>
        <path d="m181.51,48.27c-6.74-2.48-13.76-4.15-20.89-4.97-2.1-.22-3.98,1.28-4.25,3.37-.27,2.12,1.23,4.06,3.36,4.33,6.53.76,12.94,2.28,19.11,4.55.43.16.88.24,1.34.25h0c1.62-.01,3.07-1.02,3.63-2.54.74-2.01-.29-4.23-2.29-4.97Z" fill="#fff"/>
        <path d="m99.19,58.12c-5.96,4-11.43,8.68-16.3,13.96-.66.72-1.03,1.66-1.03,2.63,0,2.14,1.74,3.87,3.88,3.87h0c1.08,0,2.11-.45,2.85-1.24,4.46-4.83,9.47-9.12,14.92-12.78,1.78-1.19,2.25-3.6,1.06-5.37-1.19-1.78-3.6-2.25-5.37-1.06Z" fill="#fff"/>
        <path d="m75.57,88.01c-1.85-1.07-4.22-.43-5.29,1.43-3.51,6.27-6.27,12.93-8.21,19.84-.1.34-.15.7-.15,1.06,0,2.14,1.74,3.87,3.87,3.86,1.73,0,3.26-1.15,3.73-2.82,1.78-6.32,4.3-12.42,7.51-18.15,1.01-1.85.36-4.16-1.47-5.21Z" fill="#fff"/>
        <path d="m62.55,167.96c-2.14,0-3.87,1.73-3.88,3.87v20.61c0,2.14,1.73,3.87,3.87,3.87h0c2.14,0,3.87-1.73,3.87-3.87v-20.6c0-2.14-1.73-3.87-3.87-3.87Z" fill="#fff"/>
        <path d="m62.69,126.67c-2.14-.04-3.91,1.66-3.95,3.8-.05,1.18-.07,2.36-.07,3.55v17.2c0,2.14,1.73,3.87,3.87,3.87,2.14,0,3.87-1.73,3.87-3.87v-17.2c0-1.09.02-2.17.06-3.25,0-.05,0-.1,0-.15.04-2.14-1.66-3.91-3.8-3.95Z" fill="#fff"/>
        <path d="m233.5,130.6c.05,1.13.07,2.27.07,3.42v17.02h0c0,2.14,1.74,3.87,3.87,3.87h0c2.14,0,3.87-1.74,3.87-3.87v-17.02c0-1.25-.02-2.5-.07-3.73,0-.04,0-.09,0-.13-.12-2.14-1.95-3.77-4.09-3.64-2.14.12-3.77,1.95-3.64,4.09Z" fill="#fff"/>
        <path d="m222.88,93.07c3.22,5.72,5.76,11.81,7.55,18.13.47,1.67,1.99,2.82,3.72,2.82.36,0,.71-.05,1.06-.15,2.06-.58,3.25-2.72,2.67-4.78-1.96-6.91-4.73-13.56-8.25-19.82-1.05-1.86-3.41-2.52-5.28-1.47-1.86,1.05-2.52,3.41-1.47,5.28Z" fill="#fff"/>
        <path d="m237.35,167.68c-2.14.05-3.83,1.83-3.77,3.97v20.6h0c0,2.14,1.74,3.87,3.87,3.87h0s0,0,0,0c2.14,0,3.87-1.74,3.87-3.87v-20.6c0-.07,0-.13,0-.2-.05-2.14-1.83-3.83-3.97-3.77Z" fill="#fff"/>
        <path d="m200.66,58.02c-1.78-1.19-4.18-.71-5.37,1.07-1.19,1.78-.71,4.18,1.07,5.37,5.46,3.65,10.47,7.93,14.93,12.75.73.79,1.76,1.24,2.84,1.23h.02c.97,0,1.91-.36,2.63-1.02,1.57-1.45,1.66-3.9.21-5.47-4.88-5.26-10.36-9.94-16.33-13.92Z" fill="#fff"/>
        <path d="m280.02,236.31h-16.82v-102.47c-.07-62.5-50.72-113.15-113.22-113.22-62.5.07-113.14,50.73-113.21,113.23v102.45h-16.8c-11.03,0-19.98,8.95-19.98,19.98v3.1c0,11.04,8.95,19.98,19.98,19.98h260.04c11.03,0,19.98-8.94,19.98-19.98v-3.1c0-11.04-8.95-19.98-19.98-19.98Zm-24.54,0h-15.43c.77-.7,1.27-1.71,1.27-2.84v-20.61c-.05-2.06-1.71-3.72-3.77-3.77-2.14-.05-3.92,1.64-3.97,3.77v20.61c0,1.13.49,2.14,1.27,2.85h-15.43c0-8.31-6.75-15.05-15.07-15.04-8.31,0-15.05,6.74-15.05,15.05h-7.31c0-8.31-6.74-15.05-15.05-15.05s-15.05,6.74-15.05,15.05h-51.92v-22.25c6.6-1.75,11.19-7.73,11.19-14.55,0-8.31-6.74-15.05-15.05-15.05s-15.05,6.74-15.05,15.05c0,6.83,4.59,12.8,11.19,14.55v22.25h-26.91c.67-.7,1.08-1.64,1.08-2.68v-20.6h0c0-2.14-1.74-3.88-3.88-3.88-2.14,0-3.87,1.74-3.87,3.88v20.6c0,1.04.42,1.98,1.08,2.68h-15.22v-102.47c.06-58.22,47.24-105.41,105.46-105.48,58.23.07,105.41,47.25,105.48,105.48v102.46Z" fill="#fff"/>
      </g>
      <rect width="300" height="300" fill="none"/>
    </g>
  </g>
</svg>