<?xml version="1.0" encoding="UTF-8"?>
<svg id="Layer_2" data-name="Layer 2" xmlns="http://www.w3.org/2000/svg" viewBox="0 0 300 300">
  <g id="_레이어_1" data-name="레이어 1">
    <g>
      <path d="m0,0v300h300V0H0Zm158.94,17.88h123.22v122.99h-123.22V17.88Zm-141.19.01h123.2v122.9H17.75V17.89Zm123.32,264.15H17.82v-122.98h123.25v122.98Zm141.12.02h-123.24v-122.99h123.24v122.99Z" fill="#fff"/>
      <path d="m87.7,36.09c-7.41-1.48-15.22-1.01-23.01-1.42v18c5.29,0,10.26,0,15.23,0,4.48,0,7.02,2.06,6.97,5.63-.04,3.53-2.58,5.49-7.11,5.5-2.54,0-5.07,0-7.61,0h-7.61c0,8.96-.03,17.44.07,25.92,0,.63.98,1.77,1.53,1.79,5.24.14,10.48.08,16.13.08v-10.08c.99-.1,1.57-.13,2.14-.22,11.51-1.85,19.41-10.53,20.15-22.09.66-10.38-6.46-21.02-16.88-23.1Z" fill="#fff"/>
      <path d="m64.77,123.33h17.3v-15.5h-17.3v15.5Z" fill="#fff"/>
      <path d="m220.56,205.83c-4.49.04-8.98.09-13.46-.03-1.97-.05-2.52.67-2.47,2.55.11,4,.03,8,.03,12,0,4.36,0,8.73,0,13.23h17.7c0-2.46.12-4.7-.03-6.91-.16-2.21.38-3.19,2.88-3.53,10.95-1.46,19.33-11.3,19.53-22.57.19-10.86-7.76-21.36-18.45-22.82-6.95-.95-14.14-.18-21.43-.18v17.13c5.33,0,10.48-.04,15.64.01,4.03.04,6.49,2.2,6.51,5.56.02,3.4-2.39,5.51-6.45,5.55Z" fill="#fff"/>
      <path d="m204.91,265.43h17.27v-15.64h-17.27v15.64Z" fill="#fff"/>
      <circle cx="221" cy="79" r="40" fill="#fff"/>
      <circle cx="82" cy="217" r="40" fill="#fff"/>
    </g>
  </g>
</svg>