<?xml version="1.0" encoding="UTF-8"?>
<svg id="Layer_2" data-name="Layer 2" xmlns="http://www.w3.org/2000/svg" viewBox="0 0 300 300">
  <g id="_레이어_1" data-name="레이어 1">
    <g>
      <path id="_패스_775" data-name="패스 775" d="m272.42,241.33c-.13,2.56-.42,5.1-.89,7.62-1.6,8.6-5.15,16.72-10.39,23.73-8.06,10.31-20.14,13.38-29.45,16.51-26.16,8.79-54.13,10.9-81.73,10.8-27.55-.1-55.46-2.42-81.43-11.57-12.86-4.53-25.8-11.32-32.68-23.05-5.55-9.46-6.4-20.86-6.95-31.81-1.51-30.15-1.72-60.33-.62-90.54.42-11.38,1.12-23.18,6.43-33.27,5.76-10.95,16.42-18.68,27.85-23.53s23.74-7.12,35.87-9.73c1.8-.39,3.94-1.11,4.29-2.91.09-.85-.07-1.71-.46-2.47-2.89-6.89-8.62-12.11-13.03-18.16s-7.51-14.15-4.25-20.87c2.23-4.6,6.9-7.45,11.47-9.75s9.71-4.34,14.62-2.99c5.21,1.44,8.62,6.26,11.6,10.75l28.44,42.89,38.79-62.42C192.54,6.33,197-.23,202.77,0c1.09.16,2.13.56,3.04,1.18,1.62.75,3.42,1.19,5.08,1.85,3.37,1.25,6.55,2.99,9.42,5.15,4.61,3.64,7.99,9.37,7.22,15.18-.76,3.63-2.29,7.04-4.5,10.02-7.86,12.34-15.72,24.69-23.58,37.05-.73,1.15-1.48,2.64-.74,3.79.59.7,1.42,1.16,2.33,1.28,15.39,3.92,31.4,6.48,45.41,13.94,14.01,7.45,26,21.29,25.72,37.12-38.24-13.2-79.58-15.31-119.92-12.11-14.17,1.12-30.42,4.25-37.22,16.69-3.59,6.58-3.66,14.42-3.63,21.91.07,23.07.13,46.15.2,69.23.02,5.07.06,10.31,2.04,14.98,3.63,8.55,12.93,13.34,22.03,15.39,8.53,2.02,17.32,2.74,26.07,2.14,20.88-2.72,59.79-7.11,110.69-13.44Z" fill="#fff"/>
      <rect width="300" height="300" fill="none"/>
    </g>
  </g>
</svg>