<?xml version="1.0" encoding="UTF-8"?>
<svg id="Layer_2" data-name="Layer 2" xmlns="http://www.w3.org/2000/svg" viewBox="0 0 300 300">
  <g id="_레이어_1" data-name="레이어 1">
    <g>
      <path d="m296.91,87.72l-64.45,64.18v-17.73l56.36-56.12c-4.75-3.62-10.66-5.79-17.09-5.79h-39.27v-29.84c0-19.05-15.5-34.55-34.55-34.55H34.55C15.5,7.85,0,23.35,0,42.41v163.35c0,19.05,15.5,34.55,34.55,34.55h45.55v23.56c0,6.21,2.03,11.94,5.42,16.6l40.33-40.16h17.81l-48.67,48.47c3.98,2.15,8.54,3.37,13.38,3.37h163.35c5.58,0,10.76-1.64,15.15-4.43l-61.36-61.2c2.66-3.52,4.65-7.57,5.81-11.95l64.39,64.22c2.7-4.33,4.29-9.43,4.29-14.92V100.52c0-4.62-1.13-8.96-3.09-12.81ZM34.55,20.42h163.35c6.02,0,11.47,2.43,15.44,6.36l-45.67,45.47-39.56,39.39-7.89,7.85L23.76,23.27c3.19-1.81,6.87-2.85,10.79-2.85ZM12.57,205.76V42.41c0-3.64.9-7.06,2.47-10.09l65.26,65.09,31.04,30.96-31.23,31.1-61.57,61.31c-3.69-3.93-5.97-9.21-5.97-15.01Zm125.91,21.99H34.55c-1.61,0-3.18-.19-4.7-.52l50.25-50.04,40.13-39.96,54.53,54.38,8.9,8.87,24.68,24.62c-3.11,1.68-6.66,2.64-10.43,2.64h-59.43Zm81.42-21.99c0,3.79-.96,7.36-2.66,10.48l-88.1-87.87,7.89-7.85,48.47-48.27,34.02-33.87c.24,1.31.39,2.65.39,4.03v163.35Z" fill="#fff"/>
      <rect width="300" height="300" fill="none"/>
    </g>
  </g>
</svg>