<?xml version="1.0" encoding="UTF-8"?>
<svg id="Layer_2" data-name="Layer 2" xmlns="http://www.w3.org/2000/svg" viewBox="0 0 300 300">
  <g id="_레이어_1" data-name="레이어 1">
    <g>
      <g>
        <path d="m237.27,0H62.73c-9.99,0-18.12,8.13-18.12,18.12v263.76c0,9.99,8.13,18.12,18.12,18.12h174.55c9.99,0,18.12-8.13,18.12-18.12V18.12c0-9.99-8.13-18.12-18.12-18.12Zm8.31,281.88c0,4.58-3.73,8.31-8.31,8.31H62.73c-4.58,0-8.31-3.73-8.31-8.31V18.12c0-4.58,3.73-8.31,8.31-8.31h174.55c4.58,0,8.31,3.73,8.31,8.31v263.76Z" fill="#fff"/>
        <path d="m205.33,30.39h-110.66c-9.99,0-18.12,8.13-18.12,18.12v136.31c0,9.99,8.13,18.12,18.12,18.12h110.66c9.99,0,18.12-8.13,18.12-18.12V48.51c0-9.99-8.13-18.12-18.12-18.12Zm8.31,154.43c0,4.58-3.73,8.31-8.31,8.31h-110.66c-4.58,0-8.31-3.73-8.31-8.31V48.51c0-4.58,3.73-8.31,8.31-8.31h110.66c4.58,0,8.31,3.73,8.31,8.31v136.31Z" fill="#fff"/>
        <path d="m117.85,239.22h-8.33v-8.33c0-4.06-3.29-7.35-7.35-7.35s-7.35,3.29-7.35,7.35v8.33h-8.33c-4.06,0-7.35,3.29-7.35,7.35s3.29,7.35,7.35,7.35h8.33v8.33c0,4.06,3.29,7.35,7.35,7.35s7.35-3.29,7.35-7.35v-8.33h8.33c4.06,0,7.35-3.29,7.35-7.35s-3.29-7.35-7.35-7.35Z" fill="#fff"/>
        <circle cx="200.7" cy="234.31" r="6.86" fill="#fff"/>
        <circle cx="200.7" cy="262.75" r="6.86" fill="#fff"/>
        <circle cx="214.91" cy="248.53" r="6.86" fill="#fff"/>
        <circle cx="186.48" cy="248.53" r="6.86" fill="#fff"/>
      </g>
      <rect width="300" height="300" fill="none"/>
    </g>
  </g>
</svg>