<?xml version="1.0" encoding="UTF-8"?>
<svg id="Layer_2" data-name="Layer 2" xmlns="http://www.w3.org/2000/svg" viewBox="0 0 300 300">
  <g id="_레이어_1" data-name="레이어 1">
    <g>
      <path id="_패스_809" data-name="패스 809" d="m154.74,4.75c-80.24.03-145.27,65.09-145.24,145.34,0,21.63,4.85,42.99,14.16,62.52L0,286.16l73.41-15.83c66.46,44.92,156.75,27.45,201.67-39.01,44.92-66.46,27.45-156.75-39.01-201.67-24.02-16.23-52.34-24.9-81.33-24.91m24.09,88.29c5.66,0,10.24,4.59,10.24,10.24,0,5.66-4.59,10.24-10.24,10.24-5.66,0-10.24-4.59-10.24-10.24h0c0-5.66,4.59-10.24,10.24-10.24m-48.21,0c5.66,0,10.24,4.59,10.24,10.24,0,5.66-4.59,10.24-10.24,10.24-5.66,0-10.24-4.59-10.24-10.24h0c0-5.65,4.58-10.24,10.24-10.24h0m67.98,39.53c-10.67,24.15-38.89,35.09-63.05,24.42-11.13-4.91-19.96-13.88-24.71-25.09-1.26-2.81,0-6.12,2.8-7.38,2.81-1.26,6.12,0,7.38,2.8.03.07.06.15.09.22,7.9,18.63,29.4,27.33,48.03,19.44,8.58-3.64,15.45-10.41,19.22-18.93,1.25-2.82,4.55-4.1,7.37-2.85s4.1,4.55,2.85,7.37h0" fill="#fff"/>
      <rect width="300" height="300" fill="none"/>
    </g>
  </g>
</svg>