<?xml version="1.0" encoding="UTF-8"?>
<svg id="Layer_2" data-name="Layer 2" xmlns="http://www.w3.org/2000/svg" viewBox="0 0 300 300">
  <g id="_레이어_1" data-name="레이어 1">
    <g>
      <g>
        <path d="m205.86,145.69c-9.68-1.46-19.34-3.03-29.06-4.17-5.93-.69-9.85-3.3-12.37-8.82-4.11-8.98-8.67-17.76-13.1-26.58-.34-.69-1.19-1.56-1.8-1.55-.61,0-1.38.91-1.77,1.59-.97,1.69-1.77,3.49-2.63,5.24-3.81,7.72-7.63,15.44-11.43,23.16-1.77,3.59-4.56,5.82-8.54,6.44-4.35.68-8.71,1.3-13.07,1.93-6.34.92-12.69,1.81-19.03,2.79-.67.1-1.67.64-1.79,1.15-.15.61.33,1.55.81,2.1,1.06,1.22,2.29,2.28,3.45,3.41,6.42,6.26,12.81,12.54,19.26,18.77,3.06,2.96,4.27,6.48,3.57,10.65-1.19,7.04-2.42,14.08-3.64,21.12-.64,3.71-1.27,7.42-1.89,11.05-.02,1.43,1,2.18,2.24,1.71.41-.15.79-.39,1.18-.59,9.14-4.8,18.3-9.56,27.41-14.41,4.01-2.14,7.88-2.11,11.89.02,9.28,4.95,18.6,9.82,27.94,14.66.59.31,1.65.43,2.1.1.46-.33.71-1.37.6-2.03-1.71-10.28-3.41-20.56-5.28-30.81-.86-4.71.32-8.51,3.78-11.82,7.47-7.14,14.84-14.39,22.2-21.64.55-.55,1.16-1.59.98-2.18-.17-.59-1.26-1.16-2.01-1.28Z" fill="#fff"/>
        <path d="m282.11,132.11v-60.55c0-19.76-16.02-35.78-35.78-35.78h-60.55c0-19.76-16.02-35.78-35.78-35.78s-35.78,16.02-35.78,35.78h-60.55c-19.76,0-35.78,16.02-35.78,35.78v192.66c0,19.76,16.02,35.78,35.78,35.78h59.88c.37-19.44,16.23-35.09,35.76-35.09s35.39,15.65,35.76,35.09h61.26c19.76,0,35.78-16.02,35.78-35.78v-60.55c-19.76,0-35.78-16.02-35.78-35.78s16.02-35.78,35.78-35.78Zm-67.99,23.11c-7.46,7.37-14.97,14.68-22.54,21.94-1.32,1.27-1.71,2.45-1.39,4.25,1.83,10.21,3.55,20.44,5.29,30.67.78,4.59-.65,8.38-4.41,11.08-3.76,2.71-7.82,2.76-11.91.61-8.48-4.47-16.95-8.97-25.47-13.38-5.13-2.66-3.19-2.61-8.19-.02-8.65,4.48-17.22,9.09-25.87,13.56-6.89,3.56-14.73-.32-16.11-7.9-.1-.57-.11-1.17-.2-2.15.52-3.1,1.1-6.57,1.7-10.04,1.31-7.67,2.61-15.34,3.97-23,.24-1.35-.08-2.29-1.07-3.25-7.64-7.39-15.25-14.81-22.84-22.26-3.69-3.62-4.49-8.83-2.08-13.21,1.77-3.21,4.52-5.1,8.14-5.63,10.6-1.57,21.21-3.12,31.82-4.62,1.29-.18,1.97-.76,2.52-1.88,4.69-9.58,9.38-19.16,14.14-28.7,3.09-6.19,10.55-8.25,16.05-4.31,1.6,1.14,2.98,2.88,3.88,4.65,4.76,9.32,9.34,18.74,13.94,28.14.61,1.26,1.35,1.91,2.83,2.11,10.52,1.46,21.03,3.02,31.53,4.59,4.47.66,7.57,3.15,9,7.43,1.44,4.29.45,8.18-2.75,11.34Z" fill="#fff"/>
      </g>
      <rect width="300" height="300" fill="none"/>
    </g>
  </g>
</svg>