<?xml version="1.0" encoding="UTF-8"?>
<svg id="Layer_2" data-name="Layer 2" xmlns="http://www.w3.org/2000/svg" viewBox="0 0 300 300">
  <g id="_레이어_1" data-name="레이어 1">
    <g>
      <g>
        <path d="m290.03,62.24c-22.19-3.46-44.4-6.86-66.6-10.29-30.98-4.79-61.96-9.56-92.93-14.47-1.15-.18-2.65-1.52-3.05-2.65-2.73-7.83-5.19-15.76-7.78-23.64-3.22-9.82-9.79-13.21-19.55-10.04C71.94,10.32,43.76,19.53,15.56,28.69c-9.26,3.01-12.91,9.87-9.92,19.1,9.18,28.38,18.38,56.74,27.61,85.1,3.09,9.5,9.93,12.95,19.42,9.87,9.71-3.15,19.4-6.33,29.1-9.48,8.76-2.84,17.52-5.67,26.39-8.53.13.68.29,1.04.24,1.36-3.62,23.68-7.26,47.35-10.91,71.02-3.64,23.67-7.3,47.34-10.94,71.02-.55,3.61.96,5.78,4.48,6.54,1.17.25,2.36.44,3.55.62,16.38,2.51,32.77,4.99,49.15,7.53,36.44,5.64,72.88,11.33,109.32,16.97,4.92.76,6.91-.77,7.67-5.69,3.37-21.89,6.73-43.78,10.1-65.67,8.13-52.94,16.26-105.88,24.4-158.82.68-4.46-.77-6.7-5.18-7.39ZM50.54,132.83c-5.33,1.74-6.35,1.21-8.1-4.18-8.94-27.57-17.87-55.13-26.8-82.7-1.74-5.36-1.28-6.22,4.21-8.02,27.61-9.02,55.22-18.03,82.84-27.04,1.02-.33,2.07-.61,3.1-.92.29-.18.58-.37.86-.55,1.13,1.58,2.73,3,3.32,4.75,4.32,12.88,8.44,25.83,12.63,38.75,4.9,15.1,9.81,30.19,14.71,45.29,1.61,4.96,1.05,6.03-3.92,7.65-27.62,8.99-55.24,17.98-82.86,26.96Zm97.26-34.66c-.68-2.55-1.27-5.2-2.43-7.54-3.71-7.55-1.55-15.01-.14-22.93,39.86,6.15,79.55,12.27,119.67,18.46-9.4,61.2-18.75,122.05-28.15,183.27-40.15-6.19-79.75-12.3-119.74-18.46,1.17-7.8,2.28-15.27,3.43-22.73,5.18-33.66,10.37-67.31,15.55-100.97.29-1.9.63-3.8.81-5.72.37-3.77,1.14-6.72,5.32-8.69,5.21-2.45,7.2-8.96,5.68-14.67Zm103.41,191.04c-51.32-7.92-102.49-15.81-154.02-23.76,3.72-24.32,7.34-47.99,10.98-71.66,3.46-22.48,6.96-44.96,10.42-67.45.92-6.01,1.27-6.36,8.34-7.2-.94,6.26-1.83,12.41-2.78,18.55-4.95,32.24-9.91,64.48-14.87,96.72-.93,6.07-1.96,12.12-2.81,18.2-.75,5.41.37,6.99,5.79,7.83,27.41,4.28,54.84,8.5,82.26,12.73,14.72,2.27,29.44,4.51,44.16,6.79,4.65.72,6.79-.7,7.51-5.38,4.89-31.76,9.74-63.53,14.61-95.3,4.69-30.58,9.4-61.15,14.09-91.73.16-1.07.3-2.15.44-3.22.67-5.1-.61-6.93-5.56-7.7-11.27-1.75-22.56-3.45-33.84-5.19-30.63-4.72-61.25-9.45-91.87-14.21-3.26-.51-6.29-.65-8.35,3.4-1.43-4.44-2.65-8.23-4.06-12.6,51.18,7.9,101.83,15.72,152.95,23.62-11.13,72.45-22.23,144.71-33.42,217.55Z" fill="#fff"/>
        <circle cx="43.69" cy="55.17" r="9.15" fill="#fff"/>
        <circle cx="61.04" cy="102.39" r="9.15" fill="#fff"/>
        <circle cx="90.91" cy="40.71" r="9.15" fill="#fff"/>
        <circle cx="106.33" cy="86.97" r="9.15" fill="#fff"/>
        <circle cx="76.45" cy="70.59" r="9.15" fill="#fff"/>
        <path d="m164.65,175.83c2.89,5.21,6.6,9.8,10.78,14.01,2.64,2.66,5.48,5.12,8.23,7.67.57.53,1.24.64,1.96.33,7.94-3.37,15.48-7.43,22.15-12.95,3.05-2.52,5.74-5.37,7.77-8.82,4.16-7.07,2.59-15.67-2.35-20.67-5.33-5.39-13.58-5.93-19.57-1.24-.97.76-1.84,1.66-2.8,2.53-.08-.16-.17-.37-.27-.58-2.09-4.38-5.36-7.44-10.12-8.62-4.84-1.2-9.21-.03-13.04,3.11-2.94,2.41-4.8,5.52-5.76,9.19-.04.16-.11.31-.17.47-.13.88-.27,1.76-.4,2.65.06,1.14.06,2.3.21,3.43.45,3.4,1.73,6.52,3.38,9.49Z" fill="#fff"/>
      </g>
      <rect width="300" height="300" fill="none"/>
    </g>
  </g>
</svg>