<?xml version="1.0" encoding="UTF-8"?>
<svg id="Layer_2" data-name="Layer 2" xmlns="http://www.w3.org/2000/svg" viewBox="0 0 300 300">
  <g id="_레이어_1" data-name="레이어 1">
    <g>
      <path id="_패스_808" data-name="패스 808" d="m282.26,83.71c-8.31,0-15.5,5.77-17.31,13.89C238.69,33.83,165.7,3.43,101.93,29.7c-30.24,12.46-54.39,36.29-67.25,66.36-2.91-9.35-12.86-14.57-22.21-11.66C5.05,86.71,0,93.57,0,101.34v76.86C0,187.99,7.94,195.94,17.74,195.94s17.74-7.94,17.74-17.74v-34.56c.83-62.98,52.55-113.36,115.53-112.54,62.98.83,113.36,52.55,112.54,115.53-.76,57.87-44.74,106-102.31,111.94-4.05-6.49-12.59-8.47-19.07-4.42-6.49,4.05-8.47,12.59-4.42,19.07,4.05,6.49,12.59,8.47,19.07,4.42,3.05-1.91,5.25-4.93,6.11-8.42,47.5-5.16,87.9-36.95,104.08-81.91,4.97,8.43,15.84,11.24,24.27,6.27,5.41-3.19,8.73-9,8.72-15.28v-76.86c0-9.8-7.94-17.74-17.74-17.74" fill="#fff"/>
      <rect width="300" height="300" fill="none"/>
    </g>
  </g>
</svg>