<?xml version="1.0" encoding="UTF-8"?>
<svg id="Layer_2" data-name="Layer 2" xmlns="http://www.w3.org/2000/svg" viewBox="0 0 300 300">
  <g id="_레이어_1" data-name="레이어 1">
    <g>
      <g>
        <path d="m219.61,9.49c-25.15-4.4-48.8.29-70.08,14.52-26.15,17.49-40.45,42.32-43.56,73.8C52.8,93.29,7.33,132.11.78,182.68c-6.02,46.44,23.49,91.96,68.94,105.24,22.84,6.67,45.47,5.53,67.06-4.54,34.5-16.1,53.1-43.9,57.51-81.37,56.94,4.36,102.25-38.71,105.51-90.53,3.08-48.99-30.92-93.36-80.2-101.98Zm-12.16,8.13c20.74,1.28,38.41,8.71,53.52,21.92-3.41,3.42-6.66,6.69-10.15,10.19-1-.77-2.35-1.82-3.71-2.86-10.97-8.34-23.31-13.23-37.03-14.5-1.94-.18-2.74-.69-2.66-2.74.14-3.9.04-7.8.04-12.01Zm-70.14,29.22c3.52,3.48,6.81,6.74,9.58,9.47-4.09,7.33-8.93,14.28-11.97,21.94-3.04,7.68-4.28,16.07-6.37,24.41-3.74-.99-8.27-2.2-13.23-3.52,1.36-19.88,8.82-37.21,21.99-52.31Zm-35.11,60.47c20.42,1.14,38.08,8.55,53.35,22.03-3.53,3.34-6.94,6.55-10.52,9.94-12.02-10.3-26.37-16.29-42.83-17.6v-14.38Zm-70.46,29.21c3.4,3.49,6.69,6.85,10.11,10.36-10.35,12.06-16.35,26.41-17.69,42.92h-14.37c1.18-20.42,8.69-38.04,21.94-53.28Zm60.86,145.76c-20.73-1.31-38.42-8.73-53.65-22.09,3.47-3.45,6.76-6.71,10-9.93,4.05,2.71,8.1,5.75,12.46,8.28,8.89,5.15,18.54,8.11,28.78,9.13.84.08,2.26,1.03,2.29,1.63.2,4.21.11,8.43.11,12.98Zm4.59-23.53c-35.14,0-63.95-28.9-63.88-64.04.07-35.22,28.89-63.99,64.01-63.91,35.21.08,63.93,28.87,63.89,64.04-.04,35.17-28.84,63.92-64.02,63.91Zm65.55-5.73c-3.53-3.48-6.83-6.72-9.89-9.74,3.28-5.24,6.83-10.33,9.77-15.74,4.29-7.9,6.66-16.47,7.4-25.44.16-1.93.79-2.73,2.82-2.66,3.9.13,7.8.04,11.96.04-1.38,20.67-8.72,38.32-22.05,53.55Zm35.07-60.3c-1.22-.14-2.23-.26-3.26-.37-.48-4.78-.94-9.39-1.43-14.22h4.69v14.59Zm-3.71-24.18c-2.35-.33-3.65-1.13-4.49-3.64-8.48-25.23-24.56-44.1-48.11-56.51-2.08-1.09-2.68-2.27-2.65-4.53.58-36.63,32.71-65.59,69.28-62.35,33.36,2.96,58.65,30.44,58.59,63.66-.08,38.78-34.36,68.68-72.61,63.36Zm74.29-5.19c-3.42-3.46-6.73-6.8-10.19-10.3,10.4-12.07,16.37-26.45,17.69-42.95h14.4c-1.16,20.45-8.66,38.08-21.91,53.25Z" fill="#fff"/>
        <path d="m129.54,187.71c-9.86-10.78-19.89-21.38-26.94-34.39-2.6-4.79-8.06-4.74-10.67.07-6.64,12.27-15.92,22.41-25.25,32.56-3.2,3.48-6.37,7.19-8.61,11.32-5.93,10.92-.28,24.69,11.48,28.7,8.64,2.95,16.06.57,23.06-6.38,0,5.53-.06,10.26.02,14.98.05,3.07,1.74,4.9,4.37,5.02,2.76.13,4.71-1.72,4.93-4.85.12-1.75.04-3.52.04-5.28,0-3.12,0-6.24,0-10.13,1.42,1.55,2.15,2.41,2.94,3.21,3.21,3.28,6.97,5.51,11.65,5.9,13.2,1.09,23.7-10.64,22.09-24.2-.82-6.9-4.78-11.77-9.12-16.52Zm-2.28,26.49c-3.85,5.97-10.92,6.7-15.8,1.57-1.71-1.8-3.28-3.73-4.91-5.61-4.36-5.03-10.42-5.86-15.78-1.91-2.06,1.52-3.79,3.51-5.58,5.37-4.61,4.8-10.81,5.58-15.62,1.9-4.83-3.7-5.76-10.32-2.23-15.88.5-.78,1.05-1.54,1.66-2.25,9.64-11.19,20.64-21.25,28.29-34.81,7.98,13.93,19.33,24.14,28.99,35.74,3.84,4.61,4.17,10.92.98,15.88Z" fill="#fff"/>
        <path d="m234.04,87.04c-4.77-.06-9.54-.16-14.31.04-2.55.1-3.85-.56-4.55-3.2-1.21-4.6-2.83-9.09-4.37-13.6-1.36-4-4.29-6.2-8.01-6.2-3.74,0-6.61,2.17-7.97,6.21-1.56,4.61-3.11,9.22-4.47,13.89-.61,2.11-1.53,3.11-3.88,2.89-2.47-.23-4.97-.05-7.46-.05-2.28,0-4.56-.02-6.84,0-4.59.05-7.43,1.89-8.69,5.62-1.23,3.64.01,7.04,3.63,9.7,3.92,2.89,7.83,5.8,11.85,8.54,1.64,1.12,2.06,2.17,1.38,4.07-1.67,4.67-3.18,9.41-4.67,14.15-1.31,4.16-.21,7.73,2.94,9.94,3.09,2.17,6.49,2.04,10.1-.52,4.14-2.94,8.27-5.9,12.31-8.97,1.3-.99,2.23-1,3.52-.03,4.05,3.06,8.17,6.03,12.31,8.98,3.69,2.63,7.19,2.71,10.35.36,2.99-2.23,3.96-5.6,2.67-9.76-1.35-4.35-2.53-8.77-4.26-12.97-1.2-2.92-.4-4.39,2.04-5.98,3.9-2.54,7.62-5.37,11.33-8.19,3.24-2.47,4.28-5.81,3.13-9.33-1.13-3.44-4.07-5.53-8.09-5.58Zm-14.51,17.52c-4.46,3.25-5.39,6.05-3.74,11.27,1.33,4.21,2.69,8.42,4.27,13.37-4.26-3.08-7.85-5.71-11.47-8.28-4.3-3.06-7.31-3.03-11.64.07-3.53,2.53-7.03,5.08-10.54,7.63-.19-.12-.38-.25-.57-.37,1.3-4.01,2.62-8.03,3.91-12.04,1.78-5.53.86-8.34-3.86-11.8-3.26-2.39-6.52-4.78-9.77-7.18-.12-.09-.12-.33-.31-.85,4.42,0,8.72.02,13.03,0,5.36-.03,7.94-1.91,9.64-7.03,1.3-3.93,2.56-7.87,3.85-11.81.06-.19.18-.37.57-1.11,1.35,4.09,2.58,7.76,3.78,11.44,2.33,7.18,4.15,8.51,11.65,8.51,3.79,0,7.59,0,11.6.61-3.47,2.52-6.94,5.04-10.4,7.57Z" fill="#fff"/>
      </g>
      <rect width="300" height="300" fill="none"/>
    </g>
  </g>
</svg>