<?xml version="1.0" encoding="UTF-8"?>
<svg id="Layer_2" data-name="Layer 2" xmlns="http://www.w3.org/2000/svg" viewBox="0 0 300 300">
  <g id="_레이어_1" data-name="레이어 1">
    <g id="_10게임_shape_10_0003" data-name=" 10게임 shape 10 0003">
      <rect id="_사각형_26" data-name="사각형 26" width="300" height="300" fill="none"/>
      <path id="_패스_349" data-name="패스 349" d="m265.44,104.38h-125.12c-19.09.05-34.55,15.53-34.56,34.62v125.06c.01,19.09,15.47,34.58,34.56,34.62h125.12c19.09-.05,34.55-15.53,34.56-34.62v-125.06c-.01-19.09-15.47-34.58-34.56-34.62Zm-99.38,83c-12.55.02-22.73-10.14-22.75-22.69-.02-12.55,10.14-22.73,22.69-22.75,12.55-.02,22.73,10.14,22.75,22.69,0,.02,0,.04,0,.06-.03,12.52-10.17,22.66-22.69,22.69h0Zm73.62,73.69c-12.55.02-22.73-10.14-22.75-22.69s10.14-22.73,22.69-22.75,22.73,10.14,22.75,22.69c0,.02,0,.04,0,.06-.02,12.52-10.17,22.67-22.69,22.69Z" fill="#fff"/>
      <path id="_패스_350" data-name="패스 350" d="m140.31,91.88h53.94v-56.31c-.02-19.08-15.48-34.54-34.56-34.56H34.56C15.48,1.02.02,16.48,0,35.56v125.12c.02,19.08,15.48,34.54,34.56,34.56h58.69v-56.25c.01-26,21.07-47.08,47.06-47.12Zm-6.31-53.31c12.53.03,22.66,10.22,22.63,22.75s-10.22,22.66-22.75,22.63c-12.51-.03-22.63-10.18-22.63-22.69.02-12.55,10.2-22.7,22.75-22.69Zm-73.69,119.06c-12.53,0-22.69-10.16-22.69-22.69s10.16-22.69,22.69-22.69,22.69,10.16,22.69,22.69h0c0,12.53-10.16,22.68-22.69,22.69Zm0-73.69c-12.53,0-22.69-10.16-22.69-22.69s10.16-22.69,22.69-22.69,22.69,10.16,22.69,22.69h0c0,12.53-10.16,22.68-22.69,22.69h0Z" fill="#fff"/>
    </g>
  </g>
</svg>