<?xml version="1.0" encoding="UTF-8"?>
<svg id="Layer_2" data-name="Layer 2" xmlns="http://www.w3.org/2000/svg" viewBox="0 0 300 300">
  <g id="_레이어_1" data-name="레이어 1">
    <g>
      <g>
        <path d="m147.4,139.56c.01-6.7-2.85-11.13-8.76-13.55-4.27-1.74-8.57-3.7-12.73-5.6-1.91-.87-3.82-1.74-5.74-2.59l-16.5-7.36c-25.24-11.26-51.34-22.91-77.04-34.29-1.64-.73-4.89-1.88-8.23-1.43-6.01.81-9.46,5.5-9.47,12.86,0,16.86,0,33.73,0,50.6,0,30.07,0,61.17-.02,91.76,0,9.72,4.49,16.63,13.38,20.53,14.71,6.46,29.62,13.12,44.04,19.57,3.78,1.69,7.56,3.38,11.34,5.07,12.8,5.72,25.6,11.45,38.4,17.18l16.62,7.44c.4.18.83.27,1.27.27h4.01c.42,0,.84-.09,1.23-.26,5.54-2.4,8.23-6.92,8.21-13.83-.1-45.07-.1-92.95-.02-146.35Zm-10.12,154.22h-2.66l-16.02-7.17c-12.8-5.73-25.6-11.46-38.4-17.18-3.78-1.69-7.56-3.38-11.33-5.06-14.43-6.45-29.36-13.12-44.08-19.59-6.69-2.94-9.67-7.51-9.66-14.83.02-30.59.02-61.69.02-91.76,0-16.86,0-33.73,0-50.59,0-6.14,2.97-6.54,4.08-6.69,1.31-.18,3.13.18,4.88.95,25.69,11.38,51.79,23.02,77.02,34.28l16.5,7.36c1.9.85,3.8,1.71,5.69,2.57,4.22,1.92,8.57,3.91,12.96,5.7,3.57,1.46,4.9,3.57,4.89,7.78-.09,53.41-.08,101.3.02,146.38,0,4.18-1.1,6.44-3.91,7.86Z" fill="#fff"/>
        <path d="m84.83,161.77c-2.91-3.26-6.57-4.94-10.33-4.74-3.77.21-7.25,2.3-9.8,5.88-7.36,10.36-6.25,29.05,2.28,38.45,2.84,3.13,6.31,4.82,9.84,4.82.26,0,.53,0,.79-.03,3.81-.27,7.31-2.5,9.86-6.28,3.13-4.64,4.54-10.04,4.57-17.51,0-.03,0-.06,0-.09-.22-8.6-2.59-15.31-7.22-20.51Z" fill="#fff"/>
        <path d="m248.92,118.24c-3.92-.28-7.83,1.56-11,5.2-8.04,9.24-9.17,27.04-2.37,37.36,2.66,4.04,6.32,6.38,10.29,6.59.19.01.38.01.58.01,3.74,0,7.35-1.91,10.24-5.42,4.43-5.39,6.53-11.94,6.63-20.61,0,0,0-.01,0-.01.04-6.51-1.36-11.88-4.28-16.43-2.59-4.03-6.17-6.41-10.08-6.69Z" fill="#fff"/>
        <path d="m199.8,202.3c-3.91-.26-7.79,1.59-10.94,5.23-8.04,9.3-9.17,27.12-2.36,37.38,2.66,4,6.3,6.33,10.25,6.54.19.01.39.02.58.02,3.74,0,7.38-1.91,10.28-5.42,5.41-6.54,6.44-14.36,6.74-20.44,0-.1,0-.19,0-.29-.22-5.05-.92-10.93-4.43-16.34-2.62-4.04-6.22-6.41-10.13-6.67Z" fill="#fff"/>
        <path d="m291.08,87.61c0-5.19-1.85-9.25-5.19-11.42-3.34-2.17-7.78-2.2-12.5-.1-10.18,4.54-20.35,9.08-30.53,13.63-26.62,11.89-54.15,24.19-81.26,36.19-6.13,2.71-8.97,7.14-8.96,13.93.09,49.78.09,98.92,0,146.05-.01,6.9,2.66,11.43,8.17,13.85.39.17.82.26,1.25.26h4.01c.46,0,.92-.1,1.33-.3.27-.13.54-.26.82-.39.57-.27,1.11-.53,1.65-.78l22.64-10.11c28.18-12.58,57.33-25.59,86-38.36,8.36-3.72,12.6-10.39,12.59-19.83v-45.08c0-32.52,0-65.03,0-97.55Zm-6.21,142.63c0,6.94-2.83,11.44-8.91,14.15-28.67,12.77-57.82,25.78-86,38.37l-22.64,10.11c-.62.28-1.23.57-1.81.85-.05.02-.1.05-.15.07h-2.61c-2.8-1.43-3.91-3.7-3.9-7.88.1-47.14.1-96.29,0-146.08,0-4.3,1.42-6.53,5.26-8.23,27.12-12,54.66-24.3,81.28-36.19,10.17-4.54,20.35-9.09,30.52-13.63,2.73-1.22,5.07-1.35,6.59-.37,1.52.99,2.36,3.19,2.36,6.2.01,32.52.01,65.03,0,97.55v45.08Z" fill="#fff"/>
        <path d="m174.08,114.47c2.49-1.11,4.99-2.21,7.48-3.32,5.79-2.58,11.58-5.16,17.37-7.75,23.25-10.37,47.29-21.09,70.9-31.74,3.16-1.42,5.89-3.75,7.32-6.23,1.54-2.67,1.87-5.53.95-8.27-1.11-3.31-3.97-6.08-8.05-7.8l-1.42-.6c-35.89-15.16-73.01-30.83-109.54-46.19-1.85-.78-3.78-1.27-5.64-1.75-.85-.22-1.72-.44-2.58-.69-.57-.17-1.18-.16-1.75,0-.81.24-1.63.46-2.49.69-1.95.52-3.96,1.06-5.93,1.88-16.2,6.77-32.65,13.71-48.56,20.43-4.64,1.96-9.29,3.92-13.93,5.88l-14.33,6.04c-11.3,4.77-22.6,9.54-33.9,14.29-2.98,1.25-6.58,3.29-7.92,7.92-1.78,6.11,1.11,11.36,7.91,14.4,10.19,4.55,20.39,9.09,30.58,13.64,27.31,12.18,55.55,24.77,83.3,37.2,2.11.94,4.17,1.42,6.23,1.42s4.13-.48,6.21-1.44c5.9-2.72,11.95-5.4,17.81-8Zm-27.71,2.35c-27.76-12.43-56-25.03-83.31-37.21-10.19-4.55-20.39-9.09-30.58-13.64-5.76-2.57-4.86-5.66-4.47-6.99.5-1.71,1.72-2.81,4.36-3.92,11.31-4.75,22.61-9.52,33.91-14.29l14.33-6.04c4.64-1.96,9.29-3.92,13.93-5.88,15.9-6.71,32.34-13.65,48.54-20.42,1.59-.66,3.31-1.12,5.14-1.61.59-.16,1.19-.32,1.79-.49.64.18,1.27.34,1.89.5,1.72.44,3.35.86,4.78,1.46,36.53,15.35,73.64,31.03,109.53,46.18l1.42.6c2.38,1.01,4.05,2.48,4.58,4.05.35,1.03.2,2.07-.44,3.19-.78,1.35-2.54,2.79-4.49,3.67-23.59,10.65-47.63,21.37-70.87,31.73-5.79,2.58-11.58,5.16-17.37,7.75-2.49,1.11-4.98,2.21-7.47,3.32-5.88,2.6-11.95,5.29-17.89,8.04-2.51,1.16-4.7,1.16-7.3,0Z" fill="#fff"/>
        <path d="m105.38,49.11c-6.1-4.51-13.01-5.29-19.56-5.46-.03,0-.06,0-.08,0-6.66,0-13.85,2.42-18.34,6.16-3.39,2.83-5.24,6.44-5.2,10.19.04,3.71,1.92,7.25,5.31,9.96,4.93,3.95,12.08,5.93,19.24,5.93s14.13-1.93,19.03-5.81c3.67-2.9,5.66-6.64,5.6-10.54-.06-3.92-2.19-7.62-5.99-10.43Z" fill="#fff"/>
        <path d="m194.6,70.39c6.16,4.6,13.16,5.38,18.57,5.56.03,0,.07,0,.1,0,.04,0,.08,0,.11,0,5.42-.2,12.43-1.03,18.64-5.71,3.77-2.85,5.85-6.58,5.85-10.51,0-3.92-2.05-7.63-5.79-10.47-9.78-7.41-27.62-7.43-37.44-.03-3.86,2.91-5.98,6.69-5.97,10.65,0,3.93,2.12,7.67,5.94,10.52Z" fill="#fff"/>
        <path d="m168.7,49.16c-5.8-4.32-12.31-5.33-20.3-5.52-.06,0-.12,0-.18,0-5.82,0-12.73,2.35-17.23,5.87-3.56,2.79-5.52,6.45-5.52,10.31,0,3.85,1.94,7.5,5.48,10.27,4.97,3.9,11.99,5.84,19.01,5.84s14.01-1.94,18.98-5.82c3.7-2.88,5.71-6.63,5.66-10.54-.04-3.92-2.14-7.62-5.91-10.42Z" fill="#fff"/>
      </g>
      <rect width="300" height="300" fill="none"/>
    </g>
  </g>
</svg>