<?xml version="1.0" encoding="UTF-8"?>
<svg id="Layer_2" data-name="Layer 2" xmlns="http://www.w3.org/2000/svg" viewBox="0 0 300 300">
  <g id="_레이어_1" data-name="레이어 1">
    <g id="_10게임_shape_10_0001" data-name=" 10게임 shape 10 0001">
      <rect id="_사각형_26" data-name="사각형 26" x="0" width="300" height="300" fill="none"/>
      <path id="_패스_326" data-name="패스 326" d="m299.97,213.01c-.7-39.14-5.33-78.72-12.91-118.67-6.18-27.75-28.39-52.48-63.9-54.29-26.2-1.08-31.27,13.85-60.97,13.56-8.13-.05-16.26-.05-24.39,0-29.7.29-34.78-14.64-60.98-13.56-35.51,1.81-58.42,26.47-63.92,54.29C5.32,134.29.7,173.86,0,213c-.17,27.25,26.74,45.38,44.49,46.62,34.29,2.59,61.54-57.88,82.3-57.89,15.47.09,30.95.09,46.42,0,20.76,0,47.99,60.49,82.31,57.9,17.75-1.24,45.35-19.49,44.47-46.62h0Zm-188.12-76.38h-16v16c0,6.75-5.47,12.22-12.22,12.22s-12.22-5.47-12.22-12.22v-16h-16c-6.75,0-12.22-5.47-12.22-12.22s5.47-12.22,12.22-12.22h16v-16c0-6.75,5.47-12.22,12.22-12.22s12.22,5.47,12.22,12.22h0v16h16c6.75,0,12.22,5.47,12.22,12.22s-5.47,12.22-12.22,12.22h0Zm98.77,28.21c-9.58.25-17.54-7.31-17.8-16.88-.25-9.58,7.31-17.54,16.88-17.8s17.54,7.31,17.8,16.88c0,0,0,0,0,0,.26,9.57-7.29,17.53-16.86,17.79,0,0-.01,0-.02,0Zm28.86-46.2c-9.57.25-17.54-7.31-17.79-16.88-.25-9.57,7.31-17.54,16.88-17.79,9.57-.25,17.54,7.31,17.79,16.88,0,0,0,0,0,0,.25,9.57-7.31,17.53-16.88,17.78h0Z" fill="#fff"/>
    </g>
  </g>
</svg>