<?xml version="1.0" encoding="UTF-8"?>
<svg id="Layer_2" data-name="Layer 2" xmlns="http://www.w3.org/2000/svg" viewBox="0 0 300 300">
  <g id="_레이어_1" data-name="레이어 1">
    <g>
      <g>
        <path d="m164.92,70.13h3.49c16.88,0,33.76.3,50.63-.06,39.96-.84,75.1,33.95,80.08,68.99.2,1.43.49,2.86.74,4.28v13.47c-.18.75-.43,1.48-.55,2.24-4.9,33.09-22.99,55.52-54.49,66.78-5.98,2.14-12.48,2.82-18.73,4.17h-12.29c-.56-.15-1.11-.4-1.68-.45-12.57-1.15-24-5.48-34.83-11.85-18.13-10.65-36.47-10.61-54.62,0-7.89,4.61-16.1,8.3-25.03,10.26-3.79.83-7.64,1.36-11.46,2.03h-12.29c-5.42-1.09-10.96-1.79-16.25-3.35C21.86,216.14-1.78,182.96.26,145.8c1.31-23.88,12.9-42.57,30.91-57.53,14.69-12.21,31.6-18.47,50.9-18.19,16.48.24,32.97.05,49.46.05,1.04,0,2.09,0,3.41,0l10.17-.13h9.7l10.1.13Zm-14.85,9.97c-22.93,0-45.86-.04-68.78.04-4.08.02-8.21.25-12.23.93-14.53,2.48-26.68,9.66-37,19.92-18.36,18.24-26.2,39.93-19.88,65.57,11.45,46.49,63.43,67.51,104.95,42.82,21.77-12.95,43.84-12.92,65.66-.03,15.4,9.09,31.72,12.45,49.41,9.56,36.51-5.96,62.78-42.44,57-78.93-4.7-29.72-35.64-60.79-70.35-59.98-22.92.54-45.85.1-68.78.1Z" fill="#fff"/>
        <path d="m95,135.1c6.39,0,12.42,0,18.45,0,5,0,6.6,1.62,6.61,6.7.01,5.66.03,11.32,0,16.98-.03,4.44-1.8,6.22-6.22,6.24-6.13.03-12.27,0-18.82,0,0,2.49,0,4.79,0,7.09,0,4,.03,8,0,12-.04,3.95-1.77,5.87-5.63,5.93-6.24.1-12.49.1-18.73,0-3.7-.06-5.52-2.02-5.54-5.72-.05-6.32-.01-12.64-.01-19.29-6.18,0-12.1,0-18.02,0-5.44,0-7.01-1.54-7.02-6.92-.01-5.66-.04-11.32.01-16.98.04-4.28,1.82-6.01,6.11-6.02,6.14-.02,12.28,0,18.92,0,0-1.04,0-1.97,0-2.89,0-5.46-.03-10.93.01-16.39.03-3.75,1.84-5.71,5.49-5.75,6.34-.08,12.68-.09,19.02,0,3.49.05,5.35,2.01,5.38,5.55.05,6.33.01,12.67.01,19.48Zm-19.65-14.91c-.14.41-.25.59-.25.77-.02,4.58-.04,9.17-.05,13.75,0,10.06-.3,10.36-10.29,10.36h-14.56v9.98c6.08,0,12,0,17.92,0,5.43,0,6.93,1.5,6.94,6.94,0,5.92,0,11.85,0,17.88h9.98c0-5.36,0-10.52,0-15.68,0-8.45.69-9.14,9.14-9.14h15.75v-9.98c-6.06,0-11.98,0-17.9,0-5.41,0-6.99-1.58-6.99-6.95,0-5.93,0-11.85,0-17.94h-9.68Z" fill="#fff"/>
        <path d="m239.9,179.92c.09,10.9-8.86,19.98-19.81,20.1-10.97.12-20.22-9.06-20.18-20.05.04-10.97,8.98-19.86,19.98-19.89,11.01-.02,19.92,8.81,20.01,19.83Zm-19.93-9.82c-5.57-.03-10.07,4.41-10.06,9.94,0,5.47,4.64,10.06,10.08,10,5.4-.06,9.79-4.45,9.87-9.87.08-5.57-4.3-10.03-9.89-10.06Z" fill="#fff"/>
        <path d="m165.04,150.1c-.03-11.02,8.77-19.95,19.79-20.06,10.98-.12,20.18,9.06,20.13,20.09-.05,10.93-9.06,19.89-20.01,19.89-10.98,0-19.88-8.9-19.91-19.92Zm10-.1c-.02,5.61,4.38,10.03,9.96,10,5.54-.03,10.06-4.58,9.98-10.06-.07-5.37-4.52-9.82-9.9-9.89-5.52-.08-10.02,4.38-10.04,9.95Z" fill="#fff"/>
        <path d="m219.91,139.99c-11,0-19.94-8.89-19.99-19.86-.05-11.01,9.14-20.15,20.16-20.06,10.94.09,19.89,9.16,19.82,20.08-.07,11.02-8.97,19.85-19.99,19.84Zm.07-9.99c5.58-.02,9.97-4.49,9.89-10.07-.08-5.43-4.46-9.82-9.87-9.88-5.45-.05-10.07,4.52-10.08,10-.02,5.51,4.5,9.97,10.06,9.95Z" fill="#fff"/>
        <path d="m274.79,150.13c-.04,11.02-8.95,19.9-19.94,19.88-11.08-.02-20.06-9.12-19.95-20.22.11-10.91,9.28-19.91,20.15-19.76,11.02.15,19.78,9.07,19.74,20.1Zm-9.98-.16c-.03-5.55-4.58-10.03-10.07-9.93-5.4.1-9.81,4.53-9.86,9.92-.05,5.52,4.44,10.03,9.99,10.04,5.58,0,9.97-4.41,9.94-10.02Z" fill="#fff"/>
      </g>
      <rect width="300" height="300" fill="none"/>
    </g>
  </g>
</svg>