<?xml version="1.0" encoding="UTF-8"?>
<svg id="Layer_2" data-name="Layer 2" xmlns="http://www.w3.org/2000/svg" viewBox="0 0 300 300">
  <g id="_레이어_1" data-name="레이어 1">
    <g>
      <g>
        <path d="m30.31,216.69c-7.89,0-15.78,0-23.68,0-.73,0-1.38-.09-1.85-.16l-.4-.05c-2.5-.28-4.39-2.39-4.39-4.9v-51.87c0-1.33.54-2.6,1.49-3.53.95-.93,2.22-1.42,3.57-1.4l1.52.04c4.6.14,8.95.27,12.86-1.17,7.8-2.86,12.19-8.67,15.11-20.02-.05-.33-.23-.96-.35-1.39-.11-.4-.23-.8-.32-1.18-.07-.29-.27-.75-.47-1.23-.27-.63-.53-1.26-.74-1.91-2.88-8.89-8.64-13.9-17.59-15.29-2.09-.33-4.35-.34-6.74-.36-1.2,0-2.39-.02-3.58-.07-2.65-.1-4.74-2.28-4.74-4.93v-51.87c0-2.72,2.21-4.93,4.93-4.93h46.9c.09-2.77.21-5.62.64-8.48,2.39-15.78,16.9-27.2,33.03-26.02,15.66,1.15,28.26,14.36,28.7,30.06.04,1.48.05,2.93.04,4.41h46.94c2.72,0,4.93,2.21,4.93,4.93v47.02c1.03,0,2.05,0,3.09.04,14.87.47,27.2,10.99,29.97,25.6,2.67,14.08-5.23,28.74-18.4,34.12-3.4,1.39-7.04,1.88-10.25,2.31l-1.25.17c-1.02.14-2.02.19-3,.2v46.73c0,2.72-2.21,4.93-4.93,4.93h-52.06c-2.72,0-4.93-2.21-4.93-4.93,0-.97,0-1.92.01-2.86.01-1.94.03-3.84-.02-5.74-.27-11.05-8.37-19.6-19.7-20.77-10.04-1.05-19.98,6.23-22.16,16.22-.58,2.68-.71,5.62-.84,8.75-.07,1.58-.14,3.18-.26,4.78-.18,2.35-2.01,4.25-4.35,4.52l-.29.04c-.48.07-1.2.18-2.01.18-8.14,0-16.29,0-24.43,0Zm-20.45-9.87c13.97,0,27.95,0,41.93,0,0-.03,0-.06,0-.08.14-3.4.29-6.92,1.06-10.44,3.28-14.99,17.68-25.5,32.82-23.92,16.42,1.71,28.15,14.19,28.54,30.35.03,1.3.04,2.59.03,3.9h42.17v-46.83c0-2.72,2.21-4.93,4.93-4.93.9,0,1.77.03,2.61.05,1.52.05,2.83.09,3.95-.07l1.3-.18c2.88-.39,5.61-.76,7.84-1.67,8.9-3.63,14.25-13.58,12.43-23.14-1.91-10.03-10.37-17.26-20.6-17.58-1.62-.05-3.29-.04-5.05-.02-.87,0-1.75.01-2.66.01-2.72,0-4.93-2.21-4.93-4.93v-47.05h-46.97c-2.72,0-4.93-2.21-4.93-4.93,0-1.07,0-2.11.01-3.12.01-2.07.03-4.03-.02-5.95-.3-10.71-8.89-19.72-19.57-20.5-11.01-.81-20.93,6.94-22.55,17.66-.38,2.52-.46,5.19-.55,8.01-.04,1.39-.09,2.79-.17,4.2-.15,2.61-2.31,4.66-4.92,4.66H9.86v42.08c2.19.03,4.43.11,6.72.47,12.62,1.97,21.42,9.57,25.45,22,.12.37.28.72.43,1.07.32.74.71,1.66.98,2.72.07.28.15.57.24.86.47,1.63,1.1,3.87.49,6.28-2.51,9.89-7.21,21.91-21.34,27.1-4.43,1.63-8.76,1.89-12.97,1.85v42.06Zm24.7-73.08h.01-.01Z" fill="#fff"/>
        <path d="m300,174.11c-3.36,3.27-6.76,6.51-10.08,9.81-8.1,8.06-16.17,16.15-24.24,24.23-.73.73-1.43,1.51-2.57,2.71,1.74,1.57,3.45,2.95,4.97,4.51,7.55,7.81,9.94,17.05,6.46,27.3-3.49,10.28-11.07,16.16-21.84,17.54-7.64.98-14.46-1.3-20.2-6.4-2.13-1.89-3.87-4.23-5.87-6.45-12.67,12.68-24.79,24.8-36.73,36.75-16.44-16.44-32.65-32.65-49.38-49.38,1.65-1.45,3.49-3.26,5.55-4.79.82-.61,2.09-.85,3.15-.86,8.64-.07,17.28-.04,25.93-.04h3.31v-52.82c2.02-.72,3.9-1.33,5.75-2.05,17.25-6.69,28.38-23.47,27.75-41.81-.65-18.84-12.77-34.88-30.63-40.31-2.1-.64-2.95-1.45-2.83-3.71.2-3.93-.08-7.88.13-11.8.07-1.37.71-2.96,1.62-3.98,2.87-3.2,5.99-6.17,9.03-9.24,12.31,12.33,24.37,24.41,36.69,36.74,2.43-2.36,4.62-4.58,6.91-6.69,12.54-11.55,32.47-8.33,40.7,6.56,5.33,9.65,4.18,21.57-3.15,29.79-2.21,2.47-5,4.43-7.53,6.62.26.26.52.51.77.77.02.09,0,.22.06.28,12.09,12.05,24.18,24.1,36.28,36.15v.58Z" fill="#fff"/>
      </g>
      <rect width="300" height="300" fill="none"/>
    </g>
  </g>
</svg>