<?xml version="1.0" encoding="UTF-8"?>
<svg id="Layer_2" data-name="Layer 2" xmlns="http://www.w3.org/2000/svg" viewBox="0 0 300 300">
  <g id="_레이어_1" data-name="레이어 1">
    <g>
      <path d="m234.51,157.32c13.94-18.56,26.01-38.45,36.03-59.39,15.44-33.49,16.93-57.27,4.28-68.8-12.64-11.53-36.19-7.85-68.11,10.61-6.91,4-14.02,8.61-21.25,13.72.2.4.38.82.57,1.22-.2-.4-.37-.81-.57-1.21-9.4-18.62-24.88-33.48-43.87-42.12-46.07-20.95-100.4-.59-121.35,45.48-20.95,46.07-.59,100.39,45.48,121.34-9.35,13.77-17.61,28.25-24.7,43.31-15.44,33.49-16.93,57.28-4.28,68.8,5.28,4.55,12.1,6.9,19.07,6.58,5.39-.09,10.75-.91,15.92-2.43,11.61-3.53,22.74-8.49,33.12-14.76,16.84-9.99,32.77-21.44,47.6-34.22,16.7-14.22,32.47-29.5,47.21-45.75,7.01-7.67,13.76-15.58,20.31-23.65-6.54,8.07-13.29,15.98-20.3,23.65-14.75,16.24-30.52,31.53-47.21,45.76,3.18,10.25,8.7,19.63,16.12,27.38,9.27,9.66,21.14,16.44,34.18,19.5,37.29,8.77,74.63-14.35,83.4-51.64,8.77-37.29-14.35-74.63-51.64-83.4Zm-29.48,46.14c.44-.2.91-.35,1.37-.48.11-.03.21-.08.31-.1.44-.1.88-.15,1.33-.19.15-.01.29-.04.44-.05.5-.02,1.01,0,1.51.07.06,0,.13,0,.19.02.52.08,1.03.21,1.53.38.05.02.11.03.16.05,1.1.39,2.14,1,3.06,1.84,1.39,1.26,2.29,2.86,2.7,4.55.68,2.83,0,5.93-2.11,8.24-.78.85-1.69,1.5-2.66,1.99-.09.04-.17.11-.26.15-.37.17-.75.28-1.14.39-.19.06-.38.14-.57.18-.35.08-.7.11-1.06.15-.25.03-.49.07-.74.08-.4.01-.8-.02-1.2-.06-.17-.02-.34-.02-.51-.05-.4-.06-.78-.17-1.17-.29-.17-.05-.34-.08-.51-.14-.4-.15-.78-.34-1.16-.54-.14-.07-.28-.13-.41-.21-.5-.3-.98-.65-1.43-1.06-3.69-3.37-3.95-9.1-.58-12.8.82-.9,1.78-1.59,2.82-2.08.03-.01.06-.04.09-.05Zm8.95,46.3c-.35.16-.72.26-1.08.38-.21.06-.41.15-.62.2-.36.08-.72.12-1.09.16-.23.03-.46.07-.7.07-.43.01-.87-.01-1.3-.06-.13-.01-.26-.02-.38-.04-.48-.07-.94-.19-1.39-.34-.09-.03-.18-.04-.27-.08-1.09-.39-2.13-.99-3.04-1.82-3.7-3.37-3.98-9.1-.61-12.8,1.28-1.41,2.96-2.36,4.78-2.76.08-.02.16-.02.23-.03.52-.1,1.05-.16,1.58-.17.17,0,.34.02.51.02.4.02.79.04,1.18.11.16.03.32.08.48.12.39.09.78.19,1.16.33.14.05.27.13.4.19.38.17.77.34,1.13.56.08.05.15.12.23.17.39.26.77.53,1.12.84,3.7,3.37,3.98,9.1.61,12.8-.73.81-1.59,1.42-2.5,1.9-.15.08-.28.18-.43.24Zm-24.5-187.08c20.56-14.68,38.93-24.19,53.16-28.14,11.74-3.26,20.66-2.73,25.62,1.79,14.31,13.05-1.49,61.83-44.69,119.33,0,0,0,0,0,0-1.37-.1-2.73-.18-4.11-.18-8.03-.08-15.65-3.56-20.98-9.58l-.41-.47c-6.37-7.25-8.65-17.22-6.07-26.52,5.17-18.86,4.14-38.79-2.78-56.92.09.22.19.44.27.67Zm-75.15,16.32l4.93-4.12c.28-.23.57-.44.86-.65,7.27-5.32,17.5-4.15,23.34,2.87,6.07,7.3,5.08,18.13-2.21,24.21,0,0,0,0,0,0l-4.92,4.1h0s0,0,0,0l1.29,1.55.54.64,2.27,2.73c5.99,7.36,4.88,18.19-2.49,24.18-7.25,5.9-17.88,4.92-23.94-2.2h0s-.15-.18-.15-.18l-3.04-3.65-.91-1.1-.94.79-3.99,3.32c-.13.11-.26.2-.39.3-7.25,5.6-17.66,4.55-23.62-2.5-6.13-7.25-5.22-18.09,2.03-24.22l4.92-4.1-.97-1.17-3.11-3.75c-.18-.21-.33-.42-.5-.63-.55-.69-.99-1.44-1.42-2.19-.36-.64-.68-1.3-.95-1.97-.05-.13-.1-.25-.15-.38-2.48-6.69-.6-14.5,5.23-19.26,7.35-6,18.18-4.91,24.18,2.44l4.1,4.93h0s.01.01.01.01Zm78.13,114.16c-13.31,14.66-27.48,28.53-42.42,41.52-49.95,43.19-93.14,60.82-106.73,48.42-12.79-11.66-1.51-51.83,31.8-101.27,0,0,0,0,0,0,13.47,4.39,27.77,5.62,41.79,3.58,9.52-1.41,19.11,2.07,25.51,9.27l.64.73c5.22,5.99,7.65,13.92,6.7,21.81h0c-.64,5.82-.55,11.68.27,17.46,14.95-12.99,29.12-26.86,42.43-41.52,6.29-6.9,12.19-13.76,17.77-20.54-5.57,6.78-11.47,13.64-17.77,20.54Zm39.5,11.07c3.37-3.69,9.1-3.95,12.8-.58,3.69,3.37,3.95,9.1.58,12.8-.01.01-.03.02-.04.04-.41.44-.86.85-1.34,1.19-.16.12-.35.2-.52.31-.34.21-.68.43-1.05.6-.25.11-.52.18-.78.27-.3.11-.6.22-.92.3-.3.07-.61.09-.91.13-.29.04-.58.08-.87.09-.37.01-.74-.02-1.11-.05-.2-.02-.4-.02-.59-.06-.37-.06-.72-.16-1.08-.27-.2-.06-.4-.1-.6-.17-.36-.13-.7-.31-1.04-.49-.17-.09-.36-.16-.53-.26-.48-.29-.94-.63-1.36-1.01-.02-.01-.03-.02-.05-.04h0s0,0,0,0c-.92-.84-1.63-1.83-2.13-2.9-1.47-3.21-.98-7.12,1.55-9.89Zm17.09,36.26c-.01.33,0,.65-.05.98-.25,1.73-1,3.4-2.26,4.78-.72.79-1.55,1.39-2.44,1.86-.17.09-.32.2-.49.28-.35.16-.71.26-1.07.37-.21.07-.41.15-.62.2-.36.08-.72.12-1.09.16-.23.03-.46.07-.69.07-.42.01-.85-.02-1.27-.06-.14-.02-.28-.02-.42-.04-.44-.07-.87-.18-1.29-.32-.13-.04-.26-.06-.39-.11-.47-.17-.92-.39-1.35-.63-.07-.04-.15-.07-.21-.11-.51-.3-1-.66-1.45-1.08-3.23-2.94-3.84-7.68-1.71-11.3,0,0,0-.02.01-.03.04-.07.1-.12.14-.19.28-.45.59-.88.96-1.29h0c.43-.47.9-.88,1.4-1.25.08-.05.16-.09.24-.14.43-.29.87-.56,1.34-.76.21-.09.43-.15.65-.22.35-.12.69-.26,1.05-.34.29-.07.58-.09.87-.12.3-.04.6-.09.91-.1.38-.01.76.02,1.14.06.18.02.37.02.55.05.4.06.8.18,1.19.29.16.05.32.08.47.13.45.16.89.38,1.31.62.08.05.17.07.25.12.51.31.99.66,1.45,1.08,1.85,1.69,2.84,3.96,2.94,6.28.01.25-.03.5-.04.75Z" fill="#fff"/>
      <rect width="300" height="300" fill="none"/>
    </g>
  </g>
</svg>