<?xml version="1.0" encoding="UTF-8"?>
<svg id="Layer_2" data-name="Layer 2" xmlns="http://www.w3.org/2000/svg" viewBox="0 0 300 300">
  <g id="_레이어_1" data-name="레이어 1">
    <g>
      <g>
        <path d="m18.4,149.83c0-38.62-.03-77.23.01-115.85.02-15.47,8.43-27.67,22.37-32.16,3.58-1.15,7.49-1.72,11.26-1.73C98.42-.02,144.8-.03,191.17.06c13.39.03,23.3,6.18,29.81,17.94.68,1.23,2.12,2.34,3.46,2.86,11.38,4.41,22.83,8.65,34.25,12.98,19.5,7.39,27.61,25.31,20.25,44.88-17.71,47.11-35.47,94.21-53.16,141.33-.65,1.74-1.02,3.69-1.03,5.55-.09,13.51-.02,27.02-.05,40.53-.05,19.59-14.23,33.83-33.82,33.85-46.16.03-92.32.01-138.49-.02-19.89-.02-33.94-14.01-33.97-33.96-.06-38.72-.02-77.44-.02-116.17Zm13.54-.07c0,38.39,0,76.78,0,115.18,0,13.75,7.57,21.39,21.24,21.39,45.51.01,91.02.01,136.53,0,13.6,0,21.43-7.8,21.43-21.33,0-76.68,0-153.36,0-230.03,0-13.19-8.06-21.26-21.26-21.26-45.62-.01-91.23-.01-136.85,0-13.48,0-21.09,7.67-21.09,21.21,0,38.29,0,76.57,0,114.86ZM224.86,35.63v146.72c.86-1.02,1.34-2.14,1.77-3.28,6.1-16.19,12.21-32.38,18.3-48.57,7.22-19.17,14.45-38.34,21.62-57.53,3.79-10.16.09-20.82-9.28-24.85-10.51-4.52-21.34-8.27-32.41-12.5Z" fill="#fff"/>
        <path d="m128.3,182.15c0,4.85.04,9.42-.01,13.99-.05,4.63-2.74,7.58-6.79,7.6-4.11.02-6.71-2.8-6.78-7.54-.07-4.64-.02-9.28-.02-14.38-9.49,4.31-18.49,4.4-27.3-.44-6.27-3.44-10.37-8.73-12.49-15.48-4.02-12.8,1.57-29.63,19.67-35.05-2.02-11.02.4-20.83,9.43-28.16,5.85-4.75,12.71-6.61,20.26-5.93,13.9,1.26,27.76,13.41,24.01,34.14,9.21,2.57,15.85,8.18,19.24,17.29,2.52,6.78,2.3,13.57-.45,20.22-6.12,14.77-20.65,19.98-38.78,13.73Zm7.69-57.88c-.56-8.1-6.71-14.24-14.57-14.2-7.72.04-14.18,6.1-13.72,13.71.19,3.17,1.79,6.47,3.46,9.3,2.31,3.92,2.18,8.42-1.5,10.24-1.91.94-4.5.92-6.73.73-5.86-.5-10.55,1.36-13.58,6.4-3.07,5.11-2.89,10.43.57,15.3,3.37,4.76,8.21,6.63,13.96,5.59,5.97-1.08,9.44-4.77,10.87-10.66,1.28-5.26,6.1-7.69,10.06-4.9,1.69,1.19,2.92,3.57,3.52,5.65,2.04,7.09,8.71,11.4,15.92,9.91,7.56-1.56,12.5-8.44,11.26-15.66-1.37-7.97-7.83-12.68-15.93-11.47-3.36.5-6.46.4-8.41-2.88-1.97-3.32-.74-6.11,1.29-9.09,1.61-2.36,2.39-5.29,3.54-7.97Z" fill="#fff"/>
      </g>
      <rect width="300" height="300" fill="none"/>
    </g>
  </g>
</svg>