<?xml version="1.0" encoding="UTF-8"?>
<svg id="Layer_2" data-name="Layer 2" xmlns="http://www.w3.org/2000/svg" viewBox="0 0 300 300">
  <g id="_레이어_1" data-name="레이어 1">
    <g id="_10게임_shape_10_0002" data-name=" 10게임 shape 10 0002">
      <rect id="_사각형_26" data-name="사각형 26" y="0" width="300" height="300" fill="none"/>
      <path id="_패스_327" data-name="패스 327" d="m16,86.99v58.8l53.67,30.99v-61.99l-53.46-30.86c-.14,1.02-.21,2.04-.21,3.07Z" fill="#fff"/>
      <path id="_패스_328" data-name="패스 328" d="m87.24,186.92l53.72,31.02v-62.01l-53.72-31.01v62Z" fill="#fff"/>
      <path id="_패스_329" data-name="패스 329" d="m149.75,78.71l-53.71,31,53.71,31,53.71-31-53.71-31Z" fill="#fff"/>
      <path id="_패스_330" data-name="패스 330" d="m158.54,217.94l53.72-31.02v-62l-53.72,31.01v62.01Z" fill="#fff"/>
      <path id="_패스_331" data-name="패스 331" d="m283.3,83.92l-53.46,30.86v61.99l53.67-30.99v-58.8c0-1.03-.07-2.05-.2-3.07h0Z" fill="#fff"/>
      <path id="_패스_332" data-name="패스 332" d="m271.94,66.96c-12.31-7.11-31.29-18.07-50.9-29.4l-53.71,31,53.71,31,53.49-30.87c-.82-.63-1.69-1.21-2.59-1.73Z" fill="#fff"/>
      <path id="_패스_333" data-name="패스 333" d="m203.47,27.41c-15.95-9.21-31.11-17.96-42.14-24.32-7.17-4.11-15.98-4.11-23.14,0-10.79,6.23-25.99,15.01-42.13,24.33l53.7,31,53.72-31.01Z" fill="#fff"/>
      <path id="_패스_334" data-name="패스 334" d="m78.47,37.56c-19.3,11.14-38.17,22.03-50.9,29.39-.9.52-1.77,1.1-2.59,1.74l53.48,30.87,53.71-31-53.7-30.99Z" fill="#fff"/>
      <path id="_패스_335" data-name="패스 335" d="m16,214.73c0,8.26,4.41,15.89,11.56,20.03h0c10.78,6.24,25.97,15,42.1,24.31v-62l-53.67-30.99v48.65Z" fill="#fff"/>
      <path id="_패스_336" data-name="패스 336" d="m87.24,269.23c19.32,11.15,38.2,22.05,50.94,29.41.89.51,1.82.97,2.78,1.36v-61.76l-53.72-31.02v62Z" fill="#fff"/>
      <path id="_패스_337" data-name="패스 337" d="m158.54,300c.96-.39,1.89-.85,2.78-1.36,13.04-7.52,31.86-18.38,50.93-29.4v-62.01l-53.72,31.02v61.76Z" fill="#fff"/>
      <path id="_패스_338" data-name="패스 338" d="m229.84,259.09c16.38-9.46,31.65-18.28,42.1-24.32,7.15-4.14,11.56-11.77,11.57-20.04v-48.65l-53.67,30.99v62.02h0Z" fill="#fff"/>
    </g>
  </g>
</svg>