<?xml version="1.0" encoding="UTF-8"?>
<svg id="_레이어_2" data-name="레이어 2" xmlns="http://www.w3.org/2000/svg" viewBox="0 0 300 300">
  <g id="_레이어_1-2" data-name="레이어 1">
    <g>
      <path d="m300,186.78c-1.98,5.22-4.9,9.52-10.81,10.78-1.23.26-2.51.37-3.77.37-52.22.02-104.45.02-156.67,0-.86,0-1.71-.09-2.68-.15,0-5.01.49-9.92-.08-14.7-3.06-25.81-17.05-43.36-41.03-53.04-4.83-1.95-9.85.34-11.61,4.88-1.83,4.69.44,9.51,5.53,11.54,15.87,6.36,25.94,17.74,29.12,34.61.9,4.8.31,9.88.4,14.83.04,2.25-1.54,2.02-3.03,2.02-19.82-.01-39.63,0-59.45,0h-3.08c-.18.31-.37.63-.55.94,5.38,4.71,10.5,9.77,16.19,14.08,18.89,14.29,40.5,22.8,63.17,28.83,26.91,7.16,54.35,10.47,82.18,10.74,1.66.02,3.33,0,4.97.19,4.76.59,8.11,4.4,7.98,8.92-.14,4.7-3.81,8.5-8.73,8.44-9.07-.11-18.16-.23-27.21-.87-23.01-1.63-45.72-5.2-67.93-11.57-24.75-7.1-48.11-17.06-68.48-33.22-22.51-17.86-35.77-41.35-41.98-69.09-4.28-19.13-3.25-37.88,5.47-55.68,10.87-22.2,29.26-35.27,52.65-41.72,21.85-6.02,43.63-4.7,65.27,1.41,15.64,4.41,30.57,10.54,44.88,18.2.6.32,1.2.63,1.93,1.01,7.4-21.33,22.01-32.81,44.82-30.76,17.07,1.54,29.09,11.4,34.18,27.83,5.67,18.3-.65,33.26-15.58,45.01,6.02,5.02,12.14,9.81,17.91,14.99,12.79,11.46,25.4,23.13,38.09,34.7,3.32,3.03,6.33,6.27,7.92,10.58v5.86Zm-87.2-34.1c.05-5.01-4.05-9.19-9.01-9.16-4.82.03-8.93,4.11-8.99,8.94-.07,4.96,4.08,9.15,9.07,9.13,4.88-.01,8.88-4,8.93-8.91Z" fill="#fff"/>
      <rect x="0" width="300" height="300" fill="none"/>
    </g>
  </g>
</svg>