<?xml version="1.0" encoding="UTF-8"?>
<svg id="_레이어_2" data-name="레이어 2" xmlns="http://www.w3.org/2000/svg" viewBox="0 0 300 300">
  <g id="_레이어_1-2" data-name="레이어 1">
    <g>
      <g>
        <path d="m209.54,175.75c1.88,0,3.76,0,5.64,0,6.99,0,13.98.03,20.98,0,11.02-.05,19.34,4.58,23.66,14.79,4.32,10.2,1.96,19.42-5.84,27.25-.26.26-.46.59-1.05,1.36,4.27,0,8.07-.07,11.86.02,5.05.12,10.19-.13,15.14.67,12.58,2.02,20.72,13.06,19.79,26.14-.82,11.61-11.03,21.29-23.05,21.85-.91.04-1.82.04-2.74.04-82.59,0-165.18,0-247.77,0-12.79,0-22.51-7.29-25.32-18.94-3.44-14.25,6.84-28.7,21.47-29.72,6.96-.49,13.97-.21,20.96-.28,1.08-.01,2.17,0,3.87,0-.9-1.06-1.37-1.64-1.87-2.19-6.98-7.7-9-16.53-5.01-26.14,4.04-9.73,11.84-14.75,22.33-14.96,12.16-.24,24.32-.06,36.48-.06.97,0,1.95,0,3.37,0-4.34-2.71-8.44-4.86-12.08-7.62-16.55-12.52-25.54-29.2-26.76-49.95-1.99-33.77,15.93-64.45,46.11-78.68,14.74-6.95,30.3-9.04,46.2-5.42,5.9,1.35,11.59,4.22,16.95,7.17,6.81,3.74,13.43,7.95,19.72,12.53,9.79,7.13,13.59,17.1,10.87,28.86-2.7,11.64-10.43,19.33-22.25,20.84-7.68.98-15.73-.31-23.55-1.17-5.4-.6-10.68-2.24-16.03-3.35-8.97-1.87-17.02,2.94-19.53,11.6-2.49,8.57,1.97,17.77,10.32,20.73,2.42.86,5.13,1.2,7.72,1.21,17.63.1,35.27,0,52.9.07,15.31.06,26.14,12.04,24.61,27.17-.63,6.23-3.63,11.29-8.1,16.19Zm-62.38-110.39c.9,0,1.81.04,2.71,0,2.22-.12,3.71-1.28,3.73-3.52.02-2.24-1.45-3.42-3.67-3.58-.9-.07-1.81-.02-2.71-.02-4.39,0-6.15,1.01-6.18,3.54-.03,2.56,1.75,3.6,6.11,3.59Z" fill="#fff"/>
        <path d="m210.61,84.32c-.11-.35-.18-.44-.17-.53.74-6.52.8-7.1,7.35-6.38,8.63.96,15.33-1.41,20.37-8.52.92-1.3,2.28-2.29,3.41-3.45,1.73-1.78,3.7-2.36,5.55-.45,1.72,1.77,1.22,3.74-.47,5.35-3.52,3.34-7.08,6.63-10.92,10.22,3.92,3.82,7.26,7.04,10.55,10.31,2.24,2.23,2.59,4.58.83,6.02-2.22,1.81-4.08.8-5.82-.97-3.26-3.33-6.48-6.69-9.92-9.82-1.06-.96-2.75-1.64-4.18-1.69-5.55-.19-11.1-.08-16.56-.08Z" fill="#fff"/>
      </g>
      <rect width="300" height="300" fill="none"/>
    </g>
  </g>
</svg>