<?xml version="1.0" encoding="UTF-8"?>
<svg id="_레이어_2" data-name="레이어 2" xmlns="http://www.w3.org/2000/svg" viewBox="0 0 300 300">
  <g id="_레이어_1-2" data-name="레이어 1">
    <g id="_05동물_shape_05_0008" data-name=" 05동물 shape 05 0008">
      <rect id="_사각형_2755" data-name="사각형 2755" x=".02" width="299.96" height="300" fill="none"/>
      <g>
        <path d="m237.42,104h-36.56v-27h81.67V30.26h-16v30.74h-25.04V8h-16v53h-24.64v-25.28h-16v68.28h-69.53V35.72h-16v25.28h-24.64V8h-16v53h-25.04v-30.74h-16v46.74h81.67v27H0l.02,8.02c.07,29.17,23.82,52.86,52.96,52.86h9.93v40.21c0,47.92,39.14,86.91,87.26,86.91,23.3,0,45.21-9.03,61.68-25.44,16.49-16.42,25.57-38.24,25.57-61.46v-40.22h9.58c29.16,0,52.91-23.69,52.98-52.87l.02-8.02h-62.58Zm-184.34,44.88h-.08c-17.6,0-32.38-12.37-36.09-28.88h46v28.88h-9.83Zm97.02,88.17c-5.83,0-10.57-4.71-10.57-10.49s4.74-10.49,10.57-10.49,10.57,4.71,10.57,10.49-4.74,10.49-10.57,10.49Zm71.32-31.95c0,18.93-7.41,36.73-20.86,50.12-11.57,11.52-26.43,18.58-42.47,20.33v-23.73c10.75-3.39,18.57-13.43,18.57-25.26,0-14.61-11.92-26.49-26.57-26.49s-26.57,11.88-26.57,26.49c0,11.83,7.82,21.87,18.57,25.26v23.71c-35.51-4-63.19-34.06-63.19-70.44v-85.09h142.51v85.1Zm25.56-56.22h-9.57v-28.88h45.67c-3.71,16.52-18.49,28.88-36.1,28.88Z" fill="#fff"/>
        <rect x="107.38" y="151.84" width="19.53" height="18.06" fill="#fff"/>
        <rect x="174.14" y="151.84" width="19.53" height="18.06" fill="#fff"/>
      </g>
    </g>
  </g>
</svg>