<?xml version="1.0" encoding="UTF-8"?>
<svg id="_레이어_2" data-name="레이어 2" xmlns="http://www.w3.org/2000/svg" viewBox="0 0 300 300">
  <g id="_레이어_1-2" data-name="레이어 1">
    <g>
      <path d="m111.21,103.73c0-5.35,0-10.71,0-16.06,0-4.05-.06-8.09.02-12.14.08-3.93,1.99-5.58,5.96-5.33,12.25.77,21.62,9.64,23.01,21.76.12,1.01.26,2.02.4,3.14h18.74c.29-1.98.43-3.94.86-5.83,2.44-10.7,11.51-18.33,22.58-19.06,4.1-.27,5.97,1.4,5.99,5.59.05,8.3.02,16.6.02,24.9,0,1,0,1.99,0,3.61.99-.9,1.52-1.3,1.97-1.79,27.14-29.83,71.21-36.03,105.53-14.87,2.47,1.52,4.49,3.17,3.4,6.45-.86,2.58-3.03,3.48-6.69,2.93-21.77-3.24-40.4,17.51-34.96,38.91.13.5.24,1.01.39,1.51,1.69,5.94-.27,8.34-6.36,7.63-8.86-1.03-16.39,1.75-22.63,7.94-8.31,8.24-10.32,20.79-5.23,31.33.27.56.57,1.11.87,1.65,1.11,2.05,1.04,4.03-.61,5.72-1.75,1.8-3.75,1.67-6,.76-4.39-1.78-8.75-3.96-13.34-4.85-11.63-2.26-21.64,1.93-30.49,9.22-9.18,7.57-15.47,17.22-19.62,28.3-.92,2.45-1.93,4.73-5.02,4.68-3.21-.06-4.13-2.44-5.04-5.03-5.4-15.31-14.85-27.25-29.73-34.26-10.63-5.01-21.3-4.48-31.74.87-.55.28-1.09.6-1.63.9-2.22,1.23-4.4,1.36-6.27-.55-1.76-1.8-1.67-3.84-.48-5.99,2.58-4.64,3.61-9.63,3.39-14.96-.64-15.42-14.88-27.61-30.22-25.78-6.46.77-8.42-1.56-6.63-7.88,6.29-22.09-12.14-43.24-34.93-40.05-2.83.4-5.3,0-6.39-2.99-1.12-3.07.78-4.77,3.13-6.29,32.99-21.24,78.6-15.15,105.14,14.05.62.68,1.24,1.36,1.86,2.04.25-.06.5-.12.74-.18Zm30.72,18.82c-.01-3.69-2.96-6.65-6.67-6.69-3.83-.05-6.98,3.02-6.94,6.77.04,3.59,3.11,6.69,6.72,6.78,3.73.09,6.9-3.07,6.89-6.85Zm16.17.06c.02,3.69,3.05,6.76,6.72,6.8,3.72.04,6.99-3.28,6.89-6.99-.1-3.67-3.19-6.6-6.92-6.55-3.76.05-6.7,3.02-6.68,6.75Z" fill="#fff"/>
      <rect width="300" height="300" fill="none"/>
    </g>
  </g>
</svg>