<?xml version="1.0" encoding="UTF-8"?>
<svg id="_레이어_2" data-name="레이어 2" xmlns="http://www.w3.org/2000/svg" viewBox="0 0 300 300">
  <g id="_레이어_1-2" data-name="레이어 1">
    <g id="symbol_01_01_0004_01" data-name="symbol 01 01 0004 01">
      <path id="_패스_1046" data-name="패스 1046" d="m287.88,5.85c-18.27-14.02-49.76-2.68-75.34,32.17-13.37,18.2-21.35,37.7-23.35,54.18-7.81-3.38-15.99-5.78-24.36-7.14.24-.5.47-1.01.68-1.54,3.13-7.94,1.22-16.21-4.27-18.47-3.79-1.56-8.29.14-11.74,3.95-1.76-5.06-5.38-8.54-9.57-8.54-5.92,0-10.72,6.94-10.72,15.5-.03,3.17.68,6.3,2.07,9.13-7.06,1.16-13.98,3.05-20.65,5.65-2.27-16.16-10.18-35.05-23.16-52.71C61.87,3.17,30.39-8.17,12.12,5.85S-4.29,53.95,21.3,88.79c12.9,17.56,28.34,30.56,42.82,37.34-20.5,27.35-27.01,63.06-17.53,96.13-2.76,5.25-4.22,11.11-4.27,17.06,0,33.51,47.37,60.67,105.8,60.67s105.8-27.16,105.8-60.67c-.05-5.96-1.51-11.82-4.27-17.06,9.33-32.54,3.19-67.66-16.6-94.88,15.28-6.34,31.91-19.87,45.66-38.6,25.59-34.85,27.46-68.92,9.18-82.94M43.7,92.94c-20.05-27.3-23.85-52.21-12.41-60.98,11.43-8.77,33.77,1.91,53.82,29.21,7.51,10,13.47,21.12,17.68,32.97,3.48,10.33,4.37,19.44,2.32,25.77.02-.54,0-1.08-.05-1.61-.46-3.9-2.97-6.8-5.61-6.48-2.34.29-3.98,3.04-3.99,6.4-3.43-1.69-7.04-1.36-8.46.94-1.58,2.57.18,6.6,3.93,9.01.49.31,1.01.59,1.54.83-6.43-.05-14.45-3.48-22.88-9.58-9.9-7.43-18.63-16.35-25.9-26.47m67.04,141.36c-4.81,0-8.71-5.02-8.71-11.21s3.9-11.21,8.71-11.21,8.71,5.02,8.71,11.21-3.9,11.21-8.71,11.21m48.43-5l-6.77,6.02c-.82.73-2.04.73-2.86,0l-6.77-6.02c-.87-.85-.9-2.26-.07-3.15.78-.83,2.04-.92,2.92-.21l5.35,4.75,5.34-4.75c.94-.76,2.31-.6,3.06.36.7.9.61,2.2-.2,2.99m30.09,5c-4.81,0-8.71-5.02-8.71-11.21s3.9-11.21,8.71-11.21,8.71,5.02,8.71,11.21-3.9,11.21-8.71,11.21m67.04-141.36c-8.91,12.13-18.89,21.82-28.23,28.09-7.56,5.07-14.71,7.9-20.53,7.95.53-.24,1.05-.51,1.54-.83,3.74-2.41,5.5-6.44,3.93-9.01-1.42-2.3-5.03-2.62-8.46-.94,0-3.35-1.64-6.11-3.99-6.4-2.63-.33-5.14,2.58-5.6,6.48-.06.54-.08,1.08-.06,1.62-1.94-6-1.24-14.48,1.79-24.13,4.19-12.47,10.34-24.16,18.21-34.61,20.05-27.3,42.38-37.99,53.82-29.21s7.63,33.68-12.42,60.98" fill="#fff"/>
    </g>
  </g>
</svg>