<?xml version="1.0" encoding="UTF-8"?>
<svg id="_레이어_2" data-name="레이어 2" xmlns="http://www.w3.org/2000/svg" viewBox="0 0 300 300">
  <g id="_레이어_1-2" data-name="레이어 1">
    <g>
      <path d="m64.71,217.04c-.85-4.66-1.64-9.01-2.46-13.52-7.39,0-14.76-.31-22.08.17-2.49.16-5.24,1.89-7.2,3.65-4.88,4.39-9.36,9.24-14.04,13.86-4.85,4.79-11.39,5.04-15.77.67-4.38-4.37-4.14-10.93.65-15.76,4.7-4.75,9.46-9.46,14.19-14.19,6.64-6.65,14.66-9.9,24.05-9.84,6.1.04,12.21,0,18.4,0,.43-4.06.99-7.8,1.11-11.56.03-.79-1.4-1.98-2.4-2.41-14.03-6.02-22.94-16.42-25.93-31.33-1.15-5.71-.8-11.75-.91-17.64-.04-2.21-.53-3.45-2.69-4.6C10.58,104.37.79,88.44.06,66.83c-.4-12.02,1.06-23.56,7.42-34.08,5.87-9.7,13.87-16.95,24.77-21.86,0,1.65,0,2.82,0,3.98,0,16.16-.04,32.33.03,48.49.03,5.79,4.21,10.23,9.83,10.79,5.12.51,10.14-3.21,11.28-8.46.28-1.29.26-2.66.26-3.99.02-15.61.01-31.21.01-46.82v-3.97c9.58,4.16,16.9,10.31,22.54,18.41,6.55,9.41,9.53,19.9,9.69,31.41.16,11.34-1.14,22.21-6.87,32.23-5.4,9.45-12.86,16.77-22.65,21.56-2.12,1.04-2.92,2.23-2.76,4.55.34,4.77-.11,9.65.78,14.3,1.47,7.68,6.52,12.63,13.95,15.46,2.01-3.28,3.76-6.48,5.83-9.47,10.1-14.56,23.75-24.24,40.75-29.13,2.45-.7,3.16-1.73,3.02-4.11-.19-3.22-.11-6.46-.03-9.7.16-6.06,4.76-10.65,10.61-10.68,5.83-.04,10.56,4.55,10.75,10.55.11,3.44.02,6.9.02,10.59h21.42c0-3.27-.03-6.58,0-9.88.08-6.53,4.6-11.27,10.7-11.27,6.07,0,10.61,4.78,10.69,11.3.04,3.46-.09,6.92.09,10.36.04.82.88,2.1,1.6,2.31,21.42,6.1,37.21,19.06,47.47,38.72,6.32-.9,13-7.28,14.26-14.71.92-5.43.65-11.08.73-16.64,0-.67-.99-1.61-1.74-2.01-20.46-10.85-30.23-27.8-30.42-50.97-.12-15.69,3.96-29.44,14.75-40.97,4.83-5.16,10.45-9.25,17.5-12.18,0,1.58,0,2.76,0,3.93,0,16.16-.04,32.33.03,48.49.03,5.78,4.24,10.23,9.86,10.77,5.12.49,10.15-3.24,11.25-8.49.29-1.4.25-2.88.25-4.32.02-16.6.01-33.21.01-50.39,1.36.6,2.45.98,3.44,1.53,18.52,10.47,28.11,26.29,28.75,47.61.35,11.55-.96,22.67-6.84,32.9-5.42,9.44-12.87,16.77-22.66,21.54-2.15,1.05-2.67,2.31-2.77,4.56-.3,6.87-.1,13.93-1.63,20.56-3.17,13.78-13.04,23.72-27.71,29.4.36,4.15.73,8.42,1.13,13.01,5.92,0,11.69.11,17.45-.03,10.29-.25,18.91,3.32,26.03,10.76,4.24,4.43,8.68,8.66,12.99,13.02,4.86,4.91,5.11,11.33.68,15.77-4.43,4.43-10.87,4.19-15.78-.65-4.52-4.46-9.04-8.94-13.47-13.49-2.64-2.71-5.71-4.07-9.53-4.01-6.68.1-13.35.03-20.06.03-.82,4.58-1.59,8.92-2.42,13.56,4.36,1.47,8.76,2.96,13.17,4.43,11.6,3.89,18.91,11.76,21.91,23.61,2.54,10.03,5.05,20.08,7.5,30.13,1.56,6.39-1.6,11.94-7.58,13.53-5.81,1.55-11.54-1.96-13.18-8.28-2.56-9.91-5.04-19.85-7.43-29.81-1.09-4.53-3.68-7.49-8.09-8.93-5.61-1.84-11.18-3.78-16.83-5.48-1.04-.31-2.67-.07-3.51.58-8.43,6.57-17.96,9.52-28.59,9.49-28.43-.08-56.86-.09-85.29,0-10.76.04-20.4-2.89-28.9-9.57-.77-.61-2.27-.87-3.21-.58-5.96,1.83-11.86,3.83-17.76,5.83-4.04,1.37-6.33,4.27-7.34,8.38-2.42,9.95-4.89,19.89-7.42,29.81-1.39,5.48-5.29,8.74-10.33,8.88-4.85.13-9.13-2.9-10.42-7.77-.47-1.75-.53-3.8-.11-5.56,2.51-10.61,5.05-21.22,7.89-31.75,3-11.14,10.18-18.57,21.06-22.38,4.59-1.61,9.24-3.07,13.79-4.57Z" fill="#fff"/>
      <rect width="300" height="300" fill="none"/>
    </g>
  </g>
</svg>