<?xml version="1.0" encoding="UTF-8"?>
<svg id="_레이어_2" data-name="레이어 2" xmlns="http://www.w3.org/2000/svg" viewBox="0 0 300 300">
  <g id="_레이어_1-2" data-name="레이어 1">
    <g>
      <path d="m125.51,92.67c1.33.05,2.65,0,4.26,0,.44,5.71.93,11.03,1.24,16.36,1.82,30.79-1.34,60.99-10.76,90.46-.43,1.34-1.28,2.16-1.28,2.16-.95,1.08-1.67,1.2-1.64,1.48.11.86,7.3,2.52,13.11-.72,3.34-1.86,2.9-3.16,6.78-6.43,7.39-6.24,16.32-6.12,23.6.28,3.56,3.13,3.05,3.73,6.71,6.5,1.59,1.2,6.74,4.98,14.11,5.32,3.76.17,6.8-.61,8.66-1.24-.41-1.24-.82-2.47-1.24-3.71h0c-4.73-14.12-9.51-32.63-11.67-54.67-2.15-21.99-1.06-41.04.83-55.78,6.6,0,13-.02,19.4,0,17.89.07,34.21-4.96,48.58-15.6,22.82-16.9,34.74-40.06,38.17-67.91.42-3.39-.8-6.16-3.78-7.93-3.31-1.97-6.49-1.45-9.54.73-14.23,10.18-30.34,15.07-47.55,16.84-7.83.8-15.79,1.08-23.46,2.69-20.63,4.31-34.84,17.17-44.71,35.31-.43.8-.87,1.59-1.45,2.65-.62-1.21-1.03-2.08-1.5-2.93-12.33-22.19-30.62-35.24-56.44-36.67-14.65-.81-29.11-2.71-42.6-8.81-5.9-2.67-11.42-6.2-17.03-9.48-3.05-1.79-6.03-2.15-9.08-.29-2.84,1.73-4.12,4.38-3.75,7.67,1.74,15.6,6.44,30.22,15.03,43.42,13.58,20.88,32.18,34.87,57.03,38.93,9.8,1.6,19.97.99,29.98,1.37Z" fill="#fff"/>
      <path d="m9.05,205.36c2.07,1.04,4.22,1.72,5.87,3.03,2.81,2.23,5.34,4.82,7.91,7.33,10.99,10.75,24.99,10.91,36.14.35,2.4-2.27,4.67-4.71,7.21-6.81,6.86-5.66,15.27-5.74,22.22-.17,2.5,2,4.69,4.38,6.99,6.62,11.15,10.83,24.83,10.95,36.1.29,2.26-2.14,4.4-4.43,6.78-6.43,7.39-6.24,16.32-6.12,23.6.28,2.34,2.05,4.44,4.37,6.71,6.5,10.55,9.89,24.2,10,34.88.28,2.23-2.03,4.28-4.26,6.5-6.3,7.69-7.04,16.9-7.16,24.7-.28,2.7,2.38,5.12,5.07,7.82,7.45,9.44,8.35,22.62,8.5,32.22.31,2.88-2.46,5.42-5.31,8.24-7.86,2.29-2.07,4.77-3.91,8.33-4.2.09,1.2.22,2.14.23,3.09.02,9.44-.05,18.88.05,28.32.02,2.04-.55,2.82-2.63,3.24-4.61.92-8.36,3.57-11.68,6.82-2.16,2.11-4.23,4.32-6.49,6.31-7.22,6.38-16.24,6.53-23.59.32-2.74-2.32-5.17-5.01-7.82-7.45-9.8-9.01-23.3-9.17-33.33-.38-2.34,2.05-4.45,4.36-6.72,6.49-8.47,7.92-18.05,7.86-26.44-.16-2.11-2.02-4.09-4.17-6.26-6.12-9.9-8.91-23.43-8.92-33.32-.02-2.31,2.08-4.43,4.38-6.72,6.49-8.35,7.68-17.74,7.62-25.99-.15-2.27-2.14-4.38-4.44-6.71-6.5-9.92-8.74-23.29-8.66-33.09.18-2.38,2.15-4.56,4.53-6.95,6.67-8.35,7.5-17.66,7.36-25.77-.34-1.55-1.47-3.04-3.02-4.53-4.55-3.74-3.84-7.98-6.78-13.36-7.89-.66-.14-1.62-1.19-1.63-1.83-.09-10.41-.04-20.83,0-31.24,0-.36.23-.72.56-1.7Z" fill="#fff"/>
      <path d="m9.33,246.74c2.51,1.55,5.2,2.87,7.47,4.7,2.71,2.19,5,4.9,7.58,7.26,9.73,8.88,23.22,9.02,33.08.32,2.7-2.38,5.14-5.05,7.83-7.43,7.49-6.63,16.43-6.71,24.02-.18,2.43,2.09,4.59,4.49,6.93,6.69,10.33,9.72,23.84,9.87,34.39.38,1.81-1.63,3.5-3.38,5.24-5.08,9.27-9.1,18.9-9.1,28.11-.03,2.35,2.32,4.66,4.72,7.23,6.79,8.68,6.99,20.91,7.08,29.69.2,2.59-2.03,4.92-4.42,7.27-6.74,9.6-9.45,19.14-9.42,28.75.11,2.14,2.12,4.26,4.29,6.58,6.2,9.09,7.49,22.18,7.34,31.09-.38,2.57-2.22,4.86-4.77,7.32-7.12,3.45-3.29,6.14-4.73,9.59-5.08,0,1.65,0,3.27,0,4.9,0,8.66-.06,17.32.04,25.98.02,2.16-.42,3.35-2.81,3.83-4.73.95-8.43,3.84-11.83,7.12-2.31,2.23-4.55,4.56-7.02,6.58-6.77,5.54-15.11,5.64-21.98.22-2.58-2.04-4.85-4.49-7.22-6.79-11.15-10.85-25.09-10.89-36.35-.1-2.46,2.35-4.79,4.87-7.45,6.97-6.57,5.2-14.65,5.26-21.27.14-2.6-2.01-4.88-4.46-7.24-6.77-11.48-11.24-25.44-11.22-36.96.04-2.16,2.11-4.24,4.32-6.57,6.21-7.22,5.86-15.83,5.72-22.89-.35-2.72-2.35-5.14-5.05-7.81-7.45-10.2-9.15-23.64-9.06-33.73.2-2.65,2.43-5.08,5.12-7.84,7.42-7.18,6-15.69,5.96-22.87-.04-2.31-1.93-4.41-4.11-6.57-6.22-3.61-3.52-7.66-6.24-12.64-7.5-.79-.2-1.95-1.26-1.96-1.93-.12-10.78-.09-21.56-.09-32.35.29-.24.59-.48.88-.71Z" fill="#fff"/>
      <rect width="300" height="300" fill="none"/>
    </g>
  </g>
</svg>