<?xml version="1.0" encoding="UTF-8"?>
<svg id="_레이어_2" data-name="레이어 2" xmlns="http://www.w3.org/2000/svg" viewBox="0 0 300 300">
  <g id="_레이어_1-2" data-name="레이어 1">
    <g>
      <path d="m115.84,92.08c-.86-4.1-3.13-5.33-6.52-5.31-13.27.05-26.54.04-39.8.01-34.67-.06-62.29-23.03-68.6-57.13C.31,26.33.09,22.9,0,19.52-.17,12.77,4.13,7.98,10.22,7.84c6.1-.14,10.58,4.48,10.8,11.18.44,13.86,5.72,25.51,16.05,34.77,6.41,5.74,13.89,9.41,22.99,11.08-.75-1.04-1.17-1.69-1.66-2.28-10.53-12.55-16.02-27.01-16.31-43.4-.11-6.48,4.26-11.21,10.24-11.35,6.1-.14,10.62,4.53,10.8,11.17.69,26.07,20.88,46.18,46.9,46.71,15.17.31,25.23,9.99,26.96,26.32h25.83c.48-2.55.75-4.93,1.4-7.21,3.29-11.62,13.23-18.86,26.09-19.13,20.31-.41,38.17-13.53,44.19-32.87,1.38-4.44,1.93-9.21,2.28-13.87.49-6.63,4.76-11.29,10.89-11.14,5.95.15,10.34,4.92,10.22,11.38-.3,16.14-5.65,30.43-15.91,42.89-.61.74-1.22,1.47-2.28,2.75,9.04-1.55,16.4-5.12,22.75-10.66,10.53-9.21,15.99-20.91,16.5-34.89.25-7,4.6-11.63,10.83-11.47,6.18.16,10.31,5.03,10.23,12.04-.42,33.55-26.77,62.7-60.08,66.27-5.32.57-10.72.56-16.08.6-11.07.09-22.15,0-33.22.04-3.98,0-5.25,1.03-6.27,4.89,3.19.51,6.42.83,9.55,1.57,18.54,4.4,31.8,20.11,32.31,39.09.42,15.77.23,31.57,0,47.36-.11,8.12-3.1,15.41-8.18,21.76-3.22,4.02-6.53,7.97-9.85,11.91-8.85,10.47-12.79,23.01-15.44,36.14-1.32,6.54-2.8,13.06-4.56,19.5-3.71,13.55-15.78,22.87-29.81,23-8.76.08-17.61.51-26.27-.52-13.4-1.6-23-11.23-26.21-24.32-2.91-11.9-5.72-23.84-9.21-35.57-2.69-9.04-7.81-16.97-14.62-23.5-9.48-9.08-13.6-20.21-13.68-33.02-.09-14.36-.25-28.73.13-43.08.56-21.28,18.85-39.25,40.13-39.91,2.29-.07,4.58,0,7.22,0Zm31.56,173.66c-2.4,0-4.81-.02-7.21,0-4.42.04-7.22,1.9-8.31,5.5-1.08,3.55.13,6.99,3.77,9.26,3.42,2.13,7.07,3.88,10.67,5.7.56.28,1.52.26,2.08-.03,3.76-1.98,7.55-3.94,11.17-6.17,3.02-1.86,4.15-5.35,3.22-8.56-1.01-3.45-3.76-5.58-7.52-5.69-2.62-.07-5.24-.01-7.87-.02Zm-26.4-92.2c-.05-4.33-3.72-7.88-8.04-7.78-4.19.09-7.67,3.6-7.71,7.79-.04,4.31,3.57,7.96,7.88,7.96,4.32,0,7.92-3.64,7.87-7.96Zm60.56-7.78c-4.32,0-7.92,3.63-7.87,7.95.05,4.19,3.52,7.71,7.71,7.79,4.31.09,7.99-3.48,8.03-7.8.05-4.33-3.54-7.95-7.87-7.95Z" fill="#fff"/>
      <path d="m70.75,99.69c-14.78,15.69-12.95,35.18-12.9,55.21-5.79-2.23-11.23-3.7-16.06-6.3-19.64-10.57-29.98-27.25-31.26-49.49-.3-5.17,1.62-7.11,6.69-7.05,10.96.14,21.92.12,32.86.71,7.26.39,14.04,2.99,20.67,6.91Z" fill="#fff"/>
      <path d="m224.22,99.73c8.33-5.21,17.33-7.33,26.75-7.6,9.09-.26,18.19-.12,27.28-.07,3.91.02,5.85,2.03,5.96,5.86.7,25.51-20.53,51.63-45.48,55.93-.52.09-1.07.01-1.89.01,0-6.49.08-12.94-.02-19.39-.16-10.02-2.2-19.56-7.83-28.07-1.44-2.18-3.04-4.26-4.78-6.68Z" fill="#fff"/>
      <rect width="300" height="300" fill="none"/>
    </g>
  </g>
</svg>