<?xml version="1.0" encoding="UTF-8"?>
<svg id="_레이어_2" data-name="레이어 2" xmlns="http://www.w3.org/2000/svg" viewBox="0 0 300 300">
  <g id="_레이어_1-2" data-name="레이어 1">
    <g>
      <path d="m55.36,209.55c-10.67,0-22.1-1.81-32.41-9.28-17.09-12.39-24.46-34.14-18.34-54.12,6.23-20.31,24.6-34.24,45.72-34.65,2.03-.04,4.05-.03,6.02-.03,2.78.01,5.41.02,8.06-.09.15-.01.49-.14.61-.23,3.71-3.58,7.48-7.36,11.13-11.02,1.65-1.65,3.29-3.31,4.95-4.95,6.31-6.28,14.13-6.3,20.41-.05,3.3,3.28,6.58,6.58,9.92,9.95l.84.84.87-.87c3.22-3.23,6.37-6.39,9.52-9.54,6.82-6.81,14.36-6.79,21.23.06,1.55,1.54,3.09,3.09,4.64,4.64,3.66,3.67,7.45,7.46,11.22,11.11.06.03.16.07.21.08,2.37.07,4.92.07,7.39.05,1.83,0,3.7-.01,5.59.02,5.53-12.78,17.77-21,31.48-21.02h.07c13.85,0,25.84,8.02,31.57,21.03,8.86-.04,17.83-.04,26.52-.04,2.75,0,5.51,0,8.26,0,.56-6.18,4.42-10.81,10.33-12.23,5.99-1.44,11.73,1.31,14.96,7.18,0,0,.07.08.13.16.11.15.22.3.33.45l.91,1.3v21.03l-.45.98c-.09.2-.19.39-.29.59l-.03.07c-3.21,11.87-12.75,19.41-24.95,19.72-4.52.11-9.07.09-13.48.07-2.96-.01-5.91-.03-8.86,0-1.97.02-2.08.64-2.13.9-.05.29-.1.82.15,1.12.27.32.89.51,1.66.52,4.25.02,8.49.02,12.74.02,4.57,0,9.13,0,13.7.02,6.83.05,12.48,4.9,13.45,11.54.93,6.37-3.07,12.62-9.29,14.54-1.78.55-3.56.62-4.74.62-4.23.01-8.46.01-12.69.01-4.4,0-8.79,0-13.18.01h-.13c-7.92,0-14.8-2.8-20.46-8.33-8.91-.05-17.97-.03-26.73,0h-.51c.11.52.3.94.55,1.26.71.87,2.38,1.36,4.69,1.38h.34c1.73.01,3.89.03,6.03.69,5.89,1.82,9.61,7.52,9.05,13.86-.55,6.26-5.4,11.3-11.53,11.99-20.9,2.34-33.07-11.12-35.52-24.61-.27-1.49-.4-2.96-.47-4.39h-31.85c.11.3.25.58.43.82.74,1.01,2.13,1.59,3.91,1.62.44,0,.87,0,1.31,0,.6,0,1.2,0,1.79,0,7.27.18,13.01,5.6,13.34,12.61.35,7.27-5.1,13.44-12.41,14.06-13.17,1.1-21.43-3.93-26.04-8.34-5.64-5.4-8.94-12.94-9.28-20.99h-9.07c-15.13-.02-30.78-.03-46.17.01-2.07,0-3.81.79-4.9,2.21-1.01,1.31-1.3,3.01-.83,4.77.62,2.34,2.73,3.89,5.5,4.02.32.02.64.03.97.03,1.38.04,3.1.09,4.86.6,5.92,1.74,9.86,7.51,9.37,13.73-.52,6.52-5.52,11.75-11.64,12.17-2.7.18-5.5.31-8.34.31Zm-1.33-88.08c-1.17,0-2.35,0-3.51.03-16.79.33-31.39,11.41-36.35,27.58-4.87,15.89,1.02,33.21,14.65,43.09,10.44,7.57,22.61,7.88,34.2,7.09,1.11-.08,2.23-1.5,2.35-2.98.12-1.47-.85-2.94-2.21-3.33-.52-.15-1.44-.18-2.33-.2-.4-.01-.79-.02-1.19-.04-7.16-.36-12.91-4.85-14.66-11.44-1.26-4.75-.33-9.65,2.56-13.42,2.98-3.88,7.65-6.11,12.81-6.13,15.4-.04,31.06-.03,46.2-.02h11.97c.75,0,1.41.1,1.94.17.17.02.35.05.54.07l4.21.45.25,4.23c.01.24.03.47.05.68.05.62.11,1.33.08,2.13-.25,6.19,2.01,12.04,6.2,16.05,4.48,4.29,10.81,6.23,18.29,5.6,1.95-.16,3.35-1.72,3.26-3.62-.09-1.83-1.5-3.04-3.6-3.09-.5-.01-.99,0-1.49,0-.51,0-1.02,0-1.54,0-4.99-.08-9.19-2.12-11.82-5.72-2.61-3.58-3.29-8.38-1.84-13.16l1.07-3.55h49.73l.31,4.67c.07,1,.1,1.99.14,2.95.07,1.79.13,3.49.4,4.98,1.58,8.68,8.95,18.2,24.57,16.46,1.61-.18,2.56-1.61,2.68-2.93.15-1.65-.66-3-2.04-3.43-.74-.23-1.96-.24-3.15-.24h-.35c-6.85-.06-10.5-2.78-12.36-5.06-1.88-2.3-3.83-6.48-2.49-13.34l.53-2.7,2.4-.94c.42-.21,1.29-.58,2.44-.59h4.8c9.02-.03,18.35-.06,27.54,0,3.12.02,5.42,2.07,6.06,2.7,3.81,3.79,8.27,5.63,13.62,5.63h.09c4.41-.02,8.82-.01,13.23-.01,4.22,0,8.43,0,12.65-.01.84,0,1.46-.06,1.83-.18,1.51-.47,2.57-2.06,2.35-3.55-.26-1.77-1.71-2.97-3.62-2.98-4.54-.03-9.08-.03-13.62-.02-4.27,0-8.54,0-12.81-.02-3.8-.02-7.09-1.49-9.29-4.12-2.1-2.53-2.92-5.82-2.31-9.27,1-5.59,5.55-9.09,11.89-9.15,3-.03,6-.01,8.99,0,4.34.02,8.82.04,13.18-.07,7.88-.2,13.57-4.75,15.59-12.5.11-.41.24-.78.38-1.09v-15.67c-.04-.07-.08-.14-.12-.22-.72-1.3-1.97-2.74-3.87-2.29-1.25.3-2.7,1.03-2.74,3.99,0,.72,0,1.44,0,2.17v5.21s-4.03.79-4.03.79c-.14.03-.27.06-.38.08-.46.11-1.08.26-1.88.26-3.97,0-7.93,0-11.9,0-9.23,0-18.78,0-28.16.05h-.05c-3.34,0-5.73-1.72-7.1-5.12-3.96-9.82-12.69-15.92-22.78-15.92h-.05c-10.12.02-18.8,6.06-22.64,15.76-1.42,3.6-4.01,5.36-7.74,5.29-2.2-.06-4.47-.05-6.67-.04-2.56.01-5.19.02-7.83-.07-2.41-.08-4.97-1.15-6.67-2.8-3.86-3.73-7.7-7.59-11.42-11.31-1.54-1.54-3.08-3.08-4.62-4.62-2.92-2.91-4.25-2.92-7.11-.07-3.15,3.15-6.29,6.3-9.5,9.52l-7.96,7.98-7.92-7.96c-3.33-3.35-6.59-6.64-9.88-9.9-2.37-2.36-3.9-2.35-6.31.05-1.64,1.64-3.28,3.28-4.92,4.92-3.68,3.7-7.49,7.52-11.33,11.21-1.79,1.72-4.5,2.86-7.08,2.97-2.87.12-5.74.11-8.51.1-.75,0-1.51,0-2.28,0Zm242.76,9.25s0,.02,0,.02c0,0,0-.02,0-.02Zm-92.3,7.48h-.12c-7.29-.07-13.22-6.08-13.21-13.4h0c0-7.43,5.82-13.27,13.23-13.32h.08c3.63,0,7.02,1.41,9.56,3.98,2.54,2.56,3.9,5.96,3.83,9.56-.12,7.17-6.24,13.17-13.38,13.17Zm-.02-16.71h-.02c-1.88.01-3.29,1.44-3.29,3.32h0c0,1.82,1.51,3.38,3.31,3.39,1.72,0,3.38-1.61,3.41-3.34.02-.89-.32-1.73-.95-2.36-.65-.65-1.52-1.01-2.46-1.01Z" fill="#fff"/>
      <rect width="300" height="300" fill="none"/>
    </g>
  </g>
</svg>