<?xml version="1.0" encoding="UTF-8"?>
<svg id="_레이어_2" data-name="레이어 2" xmlns="http://www.w3.org/2000/svg" viewBox="0 0 300 300">
  <g id="_레이어_1-2" data-name="레이어 1">
    <g id="_05동물_shape_05_0004" data-name=" 05동물 shape 05 0004">
      <rect id="_사각형_65-5" data-name="사각형 65-5" width="300" height="300" fill="none"/>
      <path id="_패스_406" data-name="패스 406" d="m191.83,157.9c-23.51-22.26-60.32-22.26-83.83,0l-50.56,47.81c-28.98,26.34-8.07,76.69,31.05,74.72,21.22-.57,38.45-11.44,61.37-11.02,23.75-.41,41.4,9.16,62.71,11.02,38.45.88,58.32-48.9,29.75-74.72l-50.5-47.81Z" fill="#fff"/>
      <path id="_패스_407" data-name="패스 407" d="m278.86,87.63c-19.77-3.88-34.88,18.11-38.81,37.05-11.8,58.63,45.02,69.8,58.32,12.94,5.43-24.37-3.16-46.36-19.51-49.99Z" fill="#fff"/>
      <path id="_패스_408" data-name="패스 408" d="m195.09,119.3c19.66,0,35.65-22.35,35.65-49.78-1.97-66.03-69.34-66.03-71.25,0,0,27.43,15.99,49.78,35.6,49.78Z" fill="#fff"/>
      <path id="_패스_409" data-name="패스 409" d="m59.77,124.68c-3.88-18.94-19.04-40.93-38.81-37.05C-15.67,96.89-.14,174.98,35.67,175.18c20.28-.67,29.65-24.22,24.11-50.5h0Z" fill="#fff"/>
      <path id="_패스_410" data-name="패스 410" d="m104.74,119.3c19.61,0,35.6-22.35,35.6-49.78-1.91-66.03-69.29-66.03-71.25,0,0,27.43,15.99,49.78,35.65,49.78Z" fill="#fff"/>
    </g>
  </g>
</svg>