<?xml version="1.0" encoding="UTF-8"?>
<svg id="_레이어_2" data-name="레이어 2" xmlns="http://www.w3.org/2000/svg" viewBox="0 0 300 300">
  <g id="_레이어_1-2" data-name="레이어 1">
    <g id="_05동물_shape_05_0007" data-name=" 05동물 shape 05 0007">
      <rect id="_사각형_2751" data-name="사각형 2751" width="300" height="300" fill="none"/>
      <g>
        <path d="m230.1,78.56h17.7s.01,0,.01-.01v-17.65s0-.01-.01-.01h-17.7s-.01,0-.01.01v17.65s0,0,0,0c0,0,0,.01.01.01Z" fill="#fff"/>
        <path d="m259.51,265l18.41-23.54-9.45-7.39-24.19,30.93h-45.12v-21.42c39.7-2.58,71.28-35.62,71.41-75.99.05-15.97-4.87-31.42-14-44.33,8.05-3.64,14.88-9.16,20.05-15.95l13.78,8.19,6.13-10.32-13.79-8.19c3.18-7.11,4.81-15.02,4.53-23.27v-.03c-1.04-27.46-23.37-49.71-50.85-50.67-16.86-.54-32.83,7.49-45,22.62C177.08,63.51,11.88,261.62,10.21,263.62l-8.21,9.84h93.56l27.79-29.7h28.96v21.23h-22.65v12h167.16v-12h-37.31Zm-58.72-211.83c6.89-8.57,18.6-18.68,35.24-18.15,21.21.74,38.45,17.92,39.26,39.12.61,18.99-11.79,35.64-30.16,40.49l-9.47,2.5,6.52,7.3c10.61,11.88,16.43,27.19,16.38,43.12,0,1.18-.04,2.35-.11,3.51-45.32,11.84-63.91-15.39-64.7-16.58l-2.92,1.9,19.99-24.79-9.34-7.53-28.55,35.4c-13.58,16.74-33.73,26.34-55.29,26.34h-26.96c47.28-56.77,102.08-122.65,110.12-132.64Zm-82.65,178.6l-27.79,29.7H27.63c10.62-12.74,30.46-36.54,53.05-63.66h36.96c25.19,0,48.74-11.22,64.62-30.79l3.06-3.79c2.65,3.31,8.55,9.68,18.2,14.84,7.66,4.1,18.75,7.95,33.38,7.95,5.92,0,12.43-.65,19.51-2.15-7.31,27.56-32.47,47.91-62.28,47.91-.07,0-.14,0-.21,0h-75.79Zm46.16,12h22.85v21.23h-22.85v-21.23Z" fill="#fff"/>
      </g>
    </g>
  </g>
</svg>