<?xml version="1.0" encoding="UTF-8"?>
<svg id="_레이어_2" data-name="레이어 2" xmlns="http://www.w3.org/2000/svg" viewBox="0 0 300 300">
  <g id="_레이어_1-2" data-name="레이어 1">
    <g>
      <path d="m0,208.02c1.38-5.41,2.7-10.84,4.18-16.23.45-1.63,1.35-3.13,2.03-4.67,5.83,3.68,11.27,7.42,16.99,10.67,21.96,12.47,45.67,18.73,70.97,18.91,15.43.11,30.87.34,46.29-.06,40.37-1.06,74.64-16.14,102.72-44.9,4.98-5.1,7.27-11.35,7.17-18.89,1.98,0,3.89-.08,5.79.01,6.61.32,13.39-.12,19.78,1.24,13.89,2.96,23.88,15.51,24.05,29.56.08,6.63.13,13.49-1.42,19.86-3.99,16.32-19.18,27.58-36.17,27.7-13.08.1-26.15.02-39.44.02v31.95c2.69,0,5.39-.03,8.09,0,5.29.07,9.16,3.65,9.25,8.5.08,4.73-3.85,8.81-8.97,8.86-12.01.11-24.03.22-36.03-.04-10.56-.23-19.14-9.06-19.39-19.57-.14-5.89-.03-11.78-.03-17.88H47.07v20.12c2.79,0,5.5-.03,8.2,0,5.25.08,9.12,3.71,9.19,8.57.07,4.77-3.83,8.75-8.99,8.8-10.16.1-20.32.21-30.47-.05-11.57-.3-21.53-8.72-24.32-20.07-.2-.83-.45-1.66-.68-2.49,0-16.65,0-33.29,0-49.94Z" fill="#fff"/>
      <path d="m0,152.28c1.57-1.92,2.89-4.12,4.74-5.7,7.44-6.35,12.15-14.24,14.26-23.83,5.34,2.85,10.5,5.75,15.79,8.39,11.27,5.62,23.06,9.94,35.31,12.94,2.2.54,2.95,1.34,2.91,3.64-.19,13.37-.66,26.7-4.47,39.66-.82,2.77-1.79,5.5-2.9,8.87-6.03-1.97-12.02-3.62-17.76-5.87-16.94-6.62-31.77-16.46-44.39-29.49C2.18,159.51,1.16,157.86,0,156.34c0-1.35,0-2.71,0-4.06Z" fill="#fff"/>
      <path d="m167.18,195.85c-4.76-11.55-6.44-23.39-7.08-35.4-.24-4.54-.23-9.09-.16-13.64.01-.78.79-2.06,1.44-2.23,18.45-4.72,35.82-11.94,51.95-21.81,1.6,3.93,2.6,8.08,4.82,11.44,3,4.55,6.59,8.86,10.56,12.61,4.93,4.66,5.51,9.1.78,13.92-16.94,17.28-37.21,28.87-60.76,34.83-.46.12-.93.17-1.55.27Z" fill="#fff"/>
      <path d="m83.3,198.85c6-16.56,7.21-33.37,7.22-50.69,17.32,2.39,34.4,2.35,51.75.03-.04,17.23,1.22,34.03,7.22,50.66h-66.2Z" fill="#fff"/>
      <path d="m73.19,126.97c-4.58-1.45-9.24-2.76-13.77-4.4-13.15-4.76-25.57-10.98-37.04-18.96-.82-.57-1.66-1.98-1.53-2.87,2.1-14.27,7.32-27.37,15.49-39.32.21-.31.5-.58.89-1.03,12.3,10.16,26.04,17.67,40.89,22.53-1.65,14.72-3.26,29.17-4.93,44.05Z" fill="#fff"/>
      <path d="m154.68,82.93c14.86-4.88,28.53-12.34,41.16-22.76,2.33,3.97,4.7,7.7,6.75,11.59,4.72,8.97,7.8,18.51,9.3,28.52.15.98-.34,2.58-1.09,3.09-15.42,10.62-32.22,18.35-50.33,23.28-.26.07-.57,0-.92,0-1.61-14.44-3.22-28.88-4.87-43.73Z" fill="#fff"/>
      <path d="m95.22,87.14c14.25,2.38,27.83,2.41,41.77.1,2.77,14.27,3.91,28.62,4.77,43.33-16.87,2.61-33.6,2.6-51.12-.05,1.52-14.42,3.04-28.75,4.58-43.37Z" fill="#fff"/>
      <path d="m151.08,65.73c-3.22-8.55-6.02-16.89-9.54-24.92-1.91-4.37-4.82-8.38-7.7-12.26-3.18-4.28-7.51-7.26-12.69-8.94,24.41,1.27,45.36,10.33,63.18,27.31-10.09,8.46-21.2,14.63-33.26,18.81Z" fill="#fff"/>
      <path d="m112.51,19.32c-14.31,5.23-19.69,16.87-24.51,28.82-2.27,5.63-3.89,11.51-5.92,17.64-12.3-4.09-23.4-10.39-33.62-18.85,17.78-16.96,38.77-26.03,64.06-27.61Z" fill="#fff"/>
      <path d="m132.96,70.19c-11.06,1.85-22.08,1.83-33.57-.06.69-2.45,1.11-4.83,2.02-7,2.93-7.02,5.38-14.36,9.26-20.85,4.5-7.53,6.59-7.31,11.55-.11,5.62,8.17,8.43,17.56,10.87,27.04.06.25-.06.55-.12.97Z" fill="#fff"/>
      <rect x="0" width="300" height="300" fill="none"/>
    </g>
  </g>
</svg>