<?xml version="1.0" encoding="UTF-8"?>
<svg id="_레이어_2" data-name="레이어 2" xmlns="http://www.w3.org/2000/svg" viewBox="0 0 300 300">
  <g id="_레이어_1-2" data-name="레이어 1">
    <g>
      <path d="m141.22,300h-5.27c-7.26-.77-14.53-1.43-21.77-2.34-19.56-2.48-38.51-7.14-56.1-16.33-30.68-16.03-47.4-41.28-49.95-75.9-1.23-16.64,1-32.91,4.88-49,7.31-30.29,18.96-58.62,38.69-83.08,27.86-34.53,63.9-51.26,108.39-48.1,31.39,2.23,57.92,15.4,79.59,38.17,20.24,21.27,33.38,46.65,42.14,74.43,6.96,22.07,11.79,44.48,10.05,67.86-2.3,30.91-16.08,55-42.54,71.43-20.66,12.83-43.72,18.23-67.54,21.07-5.89.7-11.81,1.2-17.71,1.79h-5.27c0-9.95.02-19.89-.02-29.84,0-1.36.15-2.26,1.64-2.92,9.02-4.06,14.87-11.16,18.45-20.17,3.51-8.82.34-18.12-7.64-23.21-13.06-8.33-30.66-8.15-43.34.7-6.29,4.39-9.34,10.69-7.77,18.26,2.26,10.93,8.82,18.94,18.73,24.03,1.84.95,2.45,1.91,2.43,3.91-.1,9.75-.05,19.5-.04,29.25Zm68.6-81.87c8.88.14,16.61-3.23,23.97-7.6,17.94-10.64,24.2-33.64,13.85-51.74-5.9-10.32-12.12-20.47-18.62-30.42-10.67-16.34-32.41-21.75-49.64-12.72-17.23,9.03-25.11,30-17.82,48.07,4.37,10.83,8.81,21.67,13.84,32.2,6.84,14.32,18.71,21.39,34.41,22.22Zm-162.65-40.87c.42,2.98.62,6.02,1.3,8.94,3.19,13.62,12.08,22.17,24.45,27.92,20.07,9.33,42.79,1.36,51.95-18.74,4.72-10.36,9.21-20.85,13.47-31.41,7.48-18.53-.57-39.65-18.27-48.58-17.61-8.88-39.21-2.87-49.77,13.96-5.9,9.41-11.65,18.92-17.4,28.43-3.61,5.96-5.47,12.46-5.73,19.5Z" fill="#fff"/>
      <path d="m26.26,78.61c-13.1-10.72-18.7-29.81-13.79-46.59C17.54,14.72,32.46,2.4,50.98.24c15.35-1.8,33.67,6.79,40.77,19.38-13.62,6.26-26.01,14.41-37.02,24.58-11.02,10.18-20.3,21.83-28.47,34.41Z" fill="#fff"/>
      <path d="m207.96,19.47C218.39,5.53,231.89-1.04,248.71.3c18.38,1.46,33.45,14.04,38.73,31.4,5.09,16.73-.48,36.04-13.67,46.91-8.12-12.6-17.41-24.22-28.45-34.38-10.99-10.11-23.27-18.3-37.36-24.75Z" fill="#fff"/>
      <path d="m149.93,234.58c3.86,1.27,7.43,2.38,10.96,3.62,1.69.59,2.29,1.92,1.21,3.45-1.95,2.76-3.8,5.68-6.2,8.01-2.89,2.8-7.76,3.22-10.76.59-2.92-2.55-5.08-5.99-7.35-9.2-.3-.43.47-2.34,1.13-2.61,3.55-1.43,7.21-2.56,11.01-3.86Z" fill="#fff"/>
      <path d="m235.1,175.82c-.32,8.83-3,14.68-8.97,18.66-6.19,4.13-12.7,7.34-20.53,5.49-6.36-1.5-11.3-5.02-13.99-10.97-4.82-10.65-9.53-21.36-13.85-32.22-3.89-9.79.67-20.86,10-25.63,9.25-4.73,20.72-2.07,26.44,6.7,6.39,9.79,12.42,19.83,18.27,29.96,1.64,2.84,2.11,6.37,2.63,8.01Zm-28.14-24.11c0-4.9-3.76-8.7-8.63-8.73-4.83-.03-8.74,3.79-8.81,8.61-.08,4.88,3.97,8.97,8.84,8.92,4.83-.05,8.61-3.92,8.6-8.8Z" fill="#fff"/>
      <path d="m101.27,128.91c15.93,0,26.17,14.28,21.01,27.76-4.21,11-8.97,21.81-13.95,32.49-4.43,9.48-15.44,13.7-25.26,10.06-8.33-3.09-15.44-7.6-17.54-17.17-1.14-5.18-.53-10.15,2.18-14.68,5.86-9.79,11.75-19.56,17.87-29.18,3.95-6.22,9.98-9.06,15.7-9.27Zm.71,14.08c-4.89-.11-8.82,3.64-8.92,8.51-.1,4.92,3.61,8.87,8.46,9.02,4.76.14,8.83-3.74,8.98-8.55.15-4.81-3.7-8.86-8.51-8.97Z" fill="#fff"/>
      <rect width="300" height="300" fill="none"/>
    </g>
  </g>
</svg>