<?xml version="1.0" encoding="UTF-8"?>
<svg id="_레이어_2" data-name="레이어 2" xmlns="http://www.w3.org/2000/svg" viewBox="0 0 300 300">
  <g id="_레이어_1-2" data-name="레이어 1">
    <g id="_05동물_shape_05_0003" data-name=" 05동물 shape 05 0003">
      <rect id="_사각형_65-2" data-name="사각형 65-2" x="0" width="300" height="300" fill="none"/>
      <path id="_패스_403" data-name="패스 403" d="m287.55,85.54c-9.55-16.07-22.96-31.36-32.02-39.39-19.77-17.51-36.26-17.09-44.33-15.27-3.26.72-6.39,1.97-9.25,3.7-14.09-10.46-31.22-15.58-51.95-15.58s-37.87,5.12-51.95,15.57c-2.86-1.73-5.98-2.98-9.25-3.7-8.07-1.81-24.56-2.24-44.33,15.27-9.06,8.03-22.47,23.32-32.02,39.39C-.47,107.31-3.35,124.91,3.89,137.86c8.85,15.82,22.27,19.87,33.11,20.87-2.96,11.5-4.4,23.33-4.31,35.2,0,18.28,4.16,34,12.37,46.74,7.21,11.2,17.6,20.16,30.87,26.65,24.52,11.99,54.02,13.37,74.07,13.37s49.56-1.39,74.07-13.37c13.27-6.49,23.65-15.45,30.87-26.65,8.2-12.74,12.37-28.46,12.37-46.74.1-11.87-1.35-23.7-4.31-35.2,10.84-1,24.26-5.05,33.11-20.87,7.25-12.96,4.37-30.56-8.56-52.33Zm-244.85,55.11c-9.59-.25-17.39-2.11-22.78-11.75-3.66-6.54-.62-18.93,8.32-33.99,8.49-14.29,20.67-28.17,28.4-35.02,12.77-11.31,22.34-11.93,26.84-11.33-13.4,16.33-21.61,37.56-28.48,58.2-2.84,8.55-5.58,15.84-8.24,22.9-1.41,3.78-2.78,7.41-4.06,10.98Zm95.32,60.21c-4.75-4.75-7.24-9.73-7.24-12.2,0-2.2.38-2.36,1.78-2.95,4-1.68,11.87-1.88,17.43-1.88s13.43.2,17.43,1.88c1.4.59,1.78.75,1.78,2.95,0,2.47-2.49,7.45-7.24,12.2-4.67,4.67-9.66,7.19-11.98,7.19s-7.3-2.52-11.98-7.19h0Zm77.99,49.97c-14.09,6.89-32.75,10.62-56.83,11.36v-37.62c7.21-2.78,13.08-8.03,15.78-10.73,3.79-3.79,12.62-13.84,12.62-25.19,0-9.29-4.62-16.35-13.02-19.88-5.6-2.35-12.71-3.32-24.55-3.32s-18.96.96-24.55,3.32c-8.4,3.53-13.02,10.59-13.02,19.88,0,11.35,8.82,21.4,12.62,25.19,2.7,2.7,8.57,7.95,15.78,10.73v37.61c-24.08-.74-42.73-4.48-56.83-11.36-22.16-10.83-32.93-29.44-32.93-56.89,0-23.48,5.41-37.88,12.9-57.81,2.59-6.88,5.51-14.68,8.47-23.56,16.23-48.77,33.4-75.2,77.57-75.2s61.34,26.43,77.57,75.2c2.95,8.88,5.88,16.68,8.47,23.56,7.49,19.93,12.9,34.33,12.9,57.81,0,27.45-10.77,46.05-32.93,56.89h0Zm64.07-121.92c-5.39,9.64-13.19,11.49-22.78,11.75-1.28-3.57-2.65-7.21-4.06-10.98-2.65-7.06-5.39-14.35-8.24-22.9-6.87-20.64-15.08-41.87-28.48-58.2,4.5-.6,14.07.02,26.84,11.33,7.73,6.85,19.91,20.72,28.4,35.02,8.94,15.06,11.98,27.44,8.32,33.99Z" fill="#fff"/>
      <path id="_패스_404" data-name="패스 404" d="m119.44,116.59c-6.74-.08-12.27,5.31-12.36,12.06s5.31,12.27,12.06,12.36c6.74.08,12.27-5.31,12.36-12.06,0-.05,0-.1,0-.15.04-6.7-5.36-12.16-12.06-12.21Z" fill="#fff"/>
      <path id="_패스_405" data-name="패스 405" d="m180.46,116.5c-6.79-.09-12.37,5.35-12.46,12.14-.09,6.79,5.35,12.37,12.14,12.46,6.79.09,12.37-5.35,12.46-12.14,0-.05,0-.11,0-.16.04-6.75-5.39-12.25-12.14-12.3Z" fill="#fff"/>
    </g>
  </g>
</svg>