<?xml version="1.0" encoding="UTF-8"?>
<svg id="_레이어_2" data-name="레이어 2" xmlns="http://www.w3.org/2000/svg" viewBox="0 0 300 300">
  <g id="_레이어_1-2" data-name="레이어 1">
    <g>
      <path d="m142.99,40.24c-12.81,5.84-20.16,16.73-27.3,27.97-10.21,16.08-24.35,26.58-43.63,29.27-1.33.19-2.68.23-4.25.36.84-3.68,1.63-7.07,2.36-10.47.19-.88.58-2.05.2-2.67-.79-1.3-1.96-3.12-3.12-3.23-1.09-.11-3.29,1.6-3.41,2.69-1.19,10.61-6.65,19.22-12.21,27.89-8.61,13.43-11.29,28-7.13,43.5,4.8,17.86,17.01,29.36,33.35,36.6,38.54,17.08,73.87,10.53,105.83-15.87,14.7-12.14,30-23.01,48.03-29.57,16.04-5.85,32.49-8.96,49.62-6.54,10.42,1.47,12.01,3.88,10.75,14.29-.44,3.58-1.9,5.15-5.26,6.29-20.37,6.92-39.99,15.41-56.63,29.45-6.18,5.21-11.9,10.97-17.81,16.49-7.41,6.93-14.6,14.11-22.27,20.74-9.32,8.07-11.35,18.2-9.71,29.7,1.38,9.69,2.95,19.37,4.01,29.1.36,3.3-.19,6.85-1.03,10.09-.96,3.69-3.34,4.51-6.7,2.86-4.49-2.2-9.05-4.31-13.36-6.84-5.77-3.39-8.9-8.76-8.46-15.38.54-8.15,1.83-16.26,2.96-24.37.95-6.84,1.3-13.62-.99-20.28-1.48-4.3-3.81-8-7.83-10.42-3.22,3.66-3.31,4.94-.77,8.42,2.81,3.85,3.41,8.27,3.52,13.06-11.36,1.09-22.31.15-33.14-2.24-28.09-6.21-52.81-19.56-75.92-36.19-5.91-4.26-11.52-8.94-17.15-13.57-1.04-.86-1.9-2.29-2.22-3.61-6.08-24.79-4.37-49.11,5.26-72.7,3.26-7.98,7.98-15.34,11.6-23.19,1.7-3.67,2.47-7.79,3.5-11.74.6-2.3-.22-4.24-2.71-4.66-2.52-.43-3.63,1.12-4.04,3.52-.41,2.42-1.13,4.79-1.74,7.33-13.17-8.53-26.86-26.65-23.09-50.65C13.98,23.5,13.6,11.58,7.56.3c.43-.13.77-.36.99-.28,14.94,5.58,29.06,12.59,40.54,24,5.33,5.3,9.37,11.42,11.32,18.8,1.78,6.71,7.35,9.04,13.79,6.06,5.67-2.63,11.3-5.46,17.2-7.47,16.94-5.79,34.14-6.08,51.59-1.16Zm-23.84,177.46c1.71,0,3.43.16,5.12-.03,5.42-.6,10.83-1.27,16.23-2.05,2.14-.31,3.16-1.82,2.77-3.95-.4-2.19-1.98-2.9-4.06-2.65-1.02.13-2.02.32-3.04.47-29.91,4.4-57.18-1.69-81.23-20.51-1.97-1.54-3.96-2.77-5.94-.48-2.03,2.36-.42,4.18,1.49,5.73.62.5,1.23,1.02,1.86,1.5,19.66,15.24,42.31,21.49,66.8,21.97Zm75.89-27.63c-.11,3.76,2.67,6.79,6.4,6.95,3.8.16,7.03-2.9,7.06-6.7.03-3.64-3.02-6.78-6.63-6.84-3.63-.06-6.72,2.92-6.83,6.59Zm-36.97,20.62c2.91-1.36,5.51-2.25,7.7-3.76.82-.56,1.25-2.82.79-3.79-.47-.99-2.42-2.05-3.45-1.83-2.38.52-4.76,1.55-6.79,2.89-.9.6-1.51,2.62-1.22,3.73.28,1.08,1.88,1.81,2.97,2.75Z" fill="#fff"/>
      <path d="m189.56,273.58c-.94-9.35-2.32-17.9-2.43-26.47-.04-3.62,1.61-8.36,4.2-10.73,17.03-15.6,32.23-33.24,51.03-46.87,13.67-9.91,29.22-16.14,44.99-21.8.39-.14.85-.1,1.99-.21-5.91,19.25-14.38,36.77-26.97,51.94-19.56,23.57-42.05,43.48-72.81,54.14Z" fill="#fff"/>
      <path d="m150.87,250.71c-1.23,8.99-2.47,17.96-3.71,27.02-37.9,5.54-108.85-38.72-118.16-74.22,36.44,27.03,74.73,48.74,121.87,47.2Z" fill="#fff"/>
      <rect y="0" width="300" height="300" fill="none"/>
    </g>
  </g>
</svg>