<?xml version="1.0" encoding="UTF-8"?>
<svg id="_레이어_2" data-name="레이어 2" xmlns="http://www.w3.org/2000/svg" viewBox="0 0 300 300">
  <g id="_레이어_1-2" data-name="레이어 1">
    <g id="_05동물_shape_05_0002" data-name=" 05동물 shape 05 0002">
      <rect id="_사각형_65-4" data-name="사각형 65-4" x=".04" y="0" width="299.96" height="300" fill="none"/>
      <path id="_패스_399" data-name="패스 399" d="m299.12,190.53c0-4.46-3.53-23.15-13.73-43.55,2.71-34.86,6.21-120.33-19.05-144.4-2.31-2.2-5.57-3.07-8.67-2.32-33.9,8.21-61.77,32.26-74.85,64.59-21.46-5.25-43.87-5.27-65.34-.07-.35.08-16.9-50.5-74.83-64.53-3.1-.75-6.36.13-8.67,2.32C3.91,31.24,15.07,146.2,14.84,146.61c0,.78-10.7,17.94-13.95,44.19-1.98,13.81-.66,27.89,3.84,41.1,19.48,54.24,87.5,67.93,145.28,67.93s125.9-13.72,145.28-67.93c4.47-13.31,5.77-27.47,3.81-41.37h0Zm-42.69-170.49c15.34,25.18,11.7,100.35,11.64,100.29-17.66-22.24-40.87-39.43-67.3-49.83,10.25-24.17,30.6-42.62,55.66-50.45h0Zm-212.52,0c25.02,7.82,45.36,26.23,55.62,50.36-26.42,10.34-49.65,27.47-67.34,49.66-.83-24.69-1.11-79.01,11.71-100.02h0Zm200.97,242.01c-46.42,25.53-143.25,25.55-189.7,0-11.4-6.27-20.13-13.98-26.19-23.12h27.35c5.17,0,9.37-4.2,9.37-9.37s-4.19-9.37-9.37-9.37H20.81c-1.47-6.13-2.12-12.44-1.93-18.74h37.45c5.17,0,9.37-4.2,9.37-9.37s-4.19-9.37-9.37-9.37H21.3c9.54-41.54,45.76-82.92,93.08-97.63,75.84-23.55,149.71,33.83,164.37,97.63h-35.04c-5.17,0-9.37,4.2-9.37,9.37s4.19,9.37,9.37,9.37h37.45c.19,6.3-.46,12.61-1.93,18.74h-35.52c-5.17,0-9.37,4.2-9.37,9.37s4.19,9.37,9.37,9.37h27.36c-6.05,9.12-14.78,16.82-26.2,23.12h0Z" fill="#fff"/>
      <path id="_패스_400" data-name="패스 400" d="m201.55,227.22c-5.17,0-9.37,4.19-9.37,9.37h0c-.02,9.06-7.37,16.39-16.43,16.37-7.26-.01-13.64-4.8-15.7-11.76,15.71-7.74,24.07-32.85,13.1-43.73-6.49-6.44-15.87-5.31-25.53-5.4-7.45-.05-15.17-.12-20.72,5.4-11.09,11.01-2.46,36.07,13.1,43.73-2.56,8.69-11.68,13.65-20.37,11.09-6.96-2.05-11.74-8.44-11.76-15.7,0-5.17-4.19-9.37-9.37-9.37s-9.37,4.2-9.37,9.37c0,32,39.31,47.16,60.89,23.85,21.57,23.29,60.89,8.17,60.89-23.85,0-5.17-4.19-9.37-9.37-9.37h0,0Zm-42.16-16.24c-.09,6.61-5.61,13.89-9.37,13.89s-9.28-7.28-9.37-13.89c2.22-.27,16.72-.24,18.73,0h0Z" fill="#fff"/>
      <path id="_패스_401" data-name="패스 401" d="m105.52,173.34c9.06,0,16.4-7.34,16.4-16.4s-7.34-16.4-16.4-16.4-16.4,7.34-16.4,16.4h0c0,9.05,7.35,16.39,16.4,16.4Z" fill="#fff"/>
      <path id="_패스_402" data-name="패스 402" d="m194.52,140.55c-9.06,0-16.4,7.34-16.4,16.4s7.34,16.4,16.4,16.4,16.4-7.34,16.4-16.4h0c0-9.05-7.34-16.39-16.4-16.4Z" fill="#fff"/>
    </g>
  </g>
</svg>