<?xml version="1.0" encoding="UTF-8"?>
<svg id="_레이어_2" data-name="레이어 2" xmlns="http://www.w3.org/2000/svg" viewBox="0 0 300 300">
  <g id="_레이어_1-2" data-name="레이어 1">
    <g>
      <path d="m83.49,230.96h-18.71c-.14-.37-.34-.63-.27-.77,7.09-16.44,15.95-31.69,29.51-43.77,12.69-11.3,27.98-16.17,44.53-17.87,3.04-.31,6.08-.53,9.13-.74,7.32-.51,10.74-6.64,7.09-12.99-3.35-5.83-5.67-11.88-4.44-18.71,1.67-9.3,9.33-16.88,18.48-18.53,10.07-1.82,19.51,2.39,24.72,10.95.99,1.62,2,3.35,3.41,4.57,2.96,2.56,7.93,2.44,10.46-.61,9.2-11.11,21.86-13.99,35.19-14.62,7.59-.36,15.25.72,22.52,1.13,1.13,7.09,1.69,13.31,3.15,19.3,4.07,16.72,13.44,29.47,29.27,36.9,2.74,1.29,2.8,2.89,2.06,5.43-8.68,29.59-29.21,46.69-59.97,49.83-1.23.13-2.46.31-4.08.51v21.3c0,10.97-.3,11.28-11.13,11.28-10.03,0-10.59-.56-10.59-10.46v-21.9h-10.86c0,8.05,0,16.04,0,24.04,0,6.93-1.39,8.32-8.32,8.32-2.38,0-4.75.04-7.13-.01-4.22-.09-6.23-2.05-6.26-6.28-.05-8.59-.02-17.18-.02-26.04h-43.45c0,2.95,0,5.96,0,8.97,0,5.66.04,11.31-.01,16.97-.04,4.27-2.01,6.29-6.17,6.37-3.17.06-6.34.07-9.5,0-3.97-.09-5.99-2.13-6.02-6.17-.06-7.58-.02-15.16-.02-22.74,0-1.1,0-2.21,0-3.48h-10.86c0,1.04,0,2.12,0,3.19,0,7.58.03,15.16-.01,22.74-.03,4.44-2.01,6.4-6.42,6.47-2.94.05-5.88.05-8.82,0-4.43-.07-6.42-2.02-6.45-6.44-.05-7.47-.01-14.93-.01-22.4,0-1.11,0-2.22,0-3.74Zm152.04-65.06c.06-5.89-4.78-10.87-10.66-10.96-5.94-.1-10.89,4.65-11.04,10.57-.15,6.04,4.79,11.13,10.82,11.14,5.9.01,10.82-4.85,10.88-10.74Z" fill="#fff"/>
      <path d="m202.9,113.6c-15.25-15.56-35.73-15.35-49.38-7.49-16.01,9.21-22.05,24.59-17.99,46.3-4.84.92-9.71,1.7-14.51,2.8-24.55,5.63-43.22,19.74-56.47,40.78-6.41,10.18-11.46,21.23-16.93,31.99-1.04,2.04-1.89,3.08-4.4,3.05-13.12-.15-26.24-.03-39.36-.13-1.29,0-2.57-.84-3.86-1.29.59-1.24.9-2.75,1.81-3.66,8.95-8.96,17.99-17.84,27.04-26.7.88-.86,1.99-1.48,3.12-2.31-1.5-2.19-2.56-3.77-3.65-5.32-5.9-8.43-11.82-16.84-17.72-25.27-2.77-3.95-2.55-4.61,1.94-6.04,9.15-2.9,18.3-5.79,27.44-8.69,1.06-.34,2.11-.71,3.37-1.14-3.49-12.32-6.94-24.47-10.39-36.62-.8-2.82-1.66-5.63-2.4-8.47-.88-3.39.12-4.41,3.54-3.67,14.13,3.04,28.26,6.11,42.38,9.16.75.16,1.51.29,2.59.5.55-6.49,1.11-12.75,1.61-19.03.78-9.81,1.5-19.62,2.29-29.42.4-4.99,1.16-5.41,5.6-3.31,13.36,6.34,26.71,12.7,40.32,19.17.49-.93,1-1.77,1.4-2.66,5.49-12.15,10.95-24.3,16.43-36.45,1.67-3.69,2.38-3.91,5.79-1.7,9.58,6.21,19.18,12.38,28.69,18.7,1.86,1.24,3.22,1.33,5.18.22,11.29-6.43,22.66-12.71,34-19.05,3.99-2.23,4.43-2.09,6.15,2.17,4.27,10.57,8.61,21.12,12.73,31.76.91,2.36,2.04,2.71,4.29,2.15,13.04-3.25,26.1-6.39,39.16-9.56.77-.19,1.53-.41,2.31-.51,2.84-.38,3.83.81,2.71,3.52-1.97,4.81-4.08,9.55-6.15,14.32-2.83,6.53-5.81,13-8.44,19.6-1,2.52-2.09,3.02-4.75,2.45-18.07-3.9-35.94-3.49-53.27,3.56-4.15,1.69-8,4.11-12.23,6.32Z" fill="#fff"/>
      <rect width="300" height="300" fill="none"/>
    </g>
  </g>
</svg>