<?xml version="1.0" encoding="UTF-8"?>
<svg id="_레이어_2" data-name="레이어 2" xmlns="http://www.w3.org/2000/svg" viewBox="0 0 300 300">
  <g id="_레이어_1-2" data-name="레이어 1">
    <g>
      <path d="m88.39,0c3.9.79,7.85,1.41,11.7,2.39,6.65,1.7,12.67,4.95,16.08,8.46-9.84,3.72-19.32,8.05-27.65,14.33-8.25,6.21-16.09,12.95-24.14,19.49-7.64-16.94-22.41-25.82-40.07-32.27,5.12-1.74,9.57-3.37,14.09-4.78C49.69,4.12,61.13,1.33,72.97.43c.46-.04.91-.28,1.37-.43,4.69,0,9.37,0,14.06,0Z" fill="#fff"/>
      <path d="m118.52,227.21c23.59-13.45,48.44-14.46,74.53-8.29-.87.65-1.39,1.14-2,1.47-12.03,6.64-23.95,13.5-36.15,19.79-5.69,2.94-11.91,4.93-18.86,3.56-3.4,10.93-10.06,20.02-15.99,29.54-4.98,8-7.62,16.85-8.98,26.72-.66-1.21-1.11-1.91-1.44-2.67-7.52-17.35-9.77-35.5-7.96-54.22.24-2.47-.18-4.04-2.28-5.68-18.49-14.4-34.69-30.91-46.4-51.46-8.93-15.67-14.31-32.47-15.95-50.43-.11-1.18.24-2.86,1.04-3.61,26.59-25.11,56.78-44.48,91.28-56.81,18.21-6.51,37.12-7.89,56.27-6.85,22.41,1.21,44.81,2.52,67.21,3.79.28.02.56.1,1.57.3-2.67,2.01-5.05,3.58-7.19,5.43-5.77,5.01-11.67,6.63-19.63,4.56-16.74-4.37-33.95-4.73-51.15-2.52-1.9.24-3.45.78-3.78,2.95-.32,2.15.99,3.15,2.71,3.98,8.18,3.9,16.34,7.83,24.48,11.8,1.09.53,2.03,1.38,3.66,2.51-6.76,2.45-12.81,4.79-18.96,6.85-23.08,7.71-46.62,13.54-70.83,16.25-7.55.85-15.18,1-22.78,1.36-2.29.11-4.14.51-4.32,3.22-.15,2.28,1.3,3.58,4.37,3.36,10.89-.8,21.76-1.76,32.64-2.67.65-.05,1.29-.13,2.31-.24-19.91,31.46-23.16,63.92-7.43,98.01Z" fill="#fff"/>
      <path d="m279.99,37.13c-3.11,10.79-9.21,19.4-16.74,27.1-.59.6-1.72.96-2.58.94-15.31-.45-30.62-.87-45.93-1.51-14.91-.63-29.81-2.04-44.71-2.12-22.22-.12-43.19,5.84-63.12,15.42-29.89,14.36-57.04,32.66-80.08,56.75-2.15,2.25-4.21,4.59-6.82,6.68,1.13-4.13,2.17-8.28,3.41-12.38,12.15-39.91,34.52-72.63,68.48-97.06,15.35-11.04,32.76-17.36,51.27-20.17,47.49-7.22,92.14,1.75,134.15,24.74.85.46,1.65,1,2.68,1.63Zm-123.66-18.99c-.57.55-1.86,1.31-2.47,2.45-5.67,10.56-5.18,20.94,1.22,31.06,1.23,1.94,2.8,3.19,5.06,1.65,2.19-1.5,1.52-3.26.53-5.36-1.55-3.31-3.04-6.77-3.74-10.32-.98-4.93.34-9.65,2.78-14.08,1.46-2.65.13-5.23-3.38-5.39Zm-22.75,18.74c.18,6.09,1.84,11.72,5.31,16.77,1.26,1.84,2.84,2.81,4.92,1.36,2.02-1.41,1.83-3.21.59-5.11-5.19-8.01-5.5-16.24-1.01-24.65,1.11-2.08.88-3.86-1.25-4.95-2.02-1.04-3.51-.11-4.58,1.77-2.62,4.6-3.84,9.56-3.98,14.83Zm32.71-3.7c.09,6.23,1.8,11.94,5.34,17.08,1.28,1.86,2.89,2.73,4.94,1.27,1.86-1.32,1.86-3.04.66-4.87-5.31-8.08-5.7-16.39-1.1-24.91,1.05-1.94.89-3.63-1.08-4.78-2.16-1.27-3.67-.3-4.8,1.68-2.58,4.51-3.83,9.36-3.96,14.53Zm49.95-1.38c-.86-.6-2.05-2.06-3.41-2.23-1.92-.25-3.24,1.2-3.19,3.31.05,1.96,1.24,3.08,3.14,3.13,2.05.05,3.22-1.11,3.45-4.2Z" fill="#fff"/>
      <path d="m199.84,169.11c-16.16-18.29-33.76-34.64-57.72-42.65,9.03-2.28,17.81-4.47,26.56-6.71,2.83-.72,5.6-1.68,8.43-2.36.76-.18,2.08-.04,2.46.46,8.73,11.55,17.14,23.34,20.24,37.87.92,4.29.84,8.8,1.23,13.2-.4.06-.8.12-1.2.18Z" fill="#fff"/>
      <rect width="300" height="300" fill="none"/>
    </g>
  </g>
</svg>