<?xml version="1.0" encoding="UTF-8"?>
<svg id="_레이어_2" data-name="레이어 2" xmlns="http://www.w3.org/2000/svg" viewBox="0 0 300 300">
  <g id="_레이어_1-2" data-name="레이어 1">
    <g>
      <path d="m151.14,300c-32.64-.54-61.95-8.32-87.14-28.01-29.47-23.04-42.64-53.59-39.2-90.89,3.43-37.22,16.46-71.43,34.16-103.99,11.24-20.68,24.71-39.75,42.43-55.48,10.7-9.5,22.56-17.03,36.73-20.26,13.76-3.14,26.75-.64,39.16,5.59,14.71,7.38,26.61,18.27,36.94,30.84,29.72,36.17,48.29,77.7,58.05,123.31,3.28,15.34,4.66,30.84,2.24,46.5-4.12,26.66-17.36,47.9-38.44,64.33-21.35,16.65-45.94,24.96-72.69,27.34-4.43.39-8.89.55-12.25.75Zm-.88-25.17c7.77.32,15.76-.87,23.11-4.82,14.79-7.94,23.56-20.3,24.02-37.13.39-14.27,5.91-25.57,15.75-35.27,6.27-6.18,12.57-12.34,18.82-18.54,12.12-12.03,12.22-28.56.15-40.72-11.78-11.87-23.61-23.68-35.49-35.44-9.53-9.43-21.64-9.53-31.55-.39-9.05,8.36-21.04,8.4-30.1.09-10.24-9.39-22.15-9.16-32.02.67-11.61,11.56-23.2,23.15-34.76,34.76-12.64,12.68-12.37,29.08.45,41.66,7.71,7.57,15.41,15.17,22.73,23.11,6.86,7.43,10.51,16.35,10.88,26.65.17,4.74.8,9.59,2.1,14.14,4.53,15.95,20.38,32.19,45.91,31.23Z" fill="#fff"/>
      <path d="m149.72,251.7c-6.68,0-13.37.03-20.05,0-4-.02-6.36-2-6.43-5.24-.07-3.35,2.39-5.44,6.55-5.45,13.48-.02,26.95-.02,40.43,0,3.97,0,6.37,2.01,6.43,5.24.07,3.33-2.41,5.44-6.56,5.45-6.79.03-13.59,0-20.38,0Z" fill="#fff"/>
      <path d="m115.32,166c-4.38.07-8.09-3.58-8.12-7.98-.02-4.26,3.46-7.88,7.71-8.04,4.38-.16,8.16,3.41,8.28,7.8.11,4.39-3.49,8.14-7.87,8.21Z" fill="#fff"/>
      <path d="m184.72,166c-4.38,0-8.04-3.7-8-8.09.04-4.26,3.57-7.83,7.83-7.92,4.39-.09,8.11,3.52,8.16,7.92.05,4.39-3.6,8.09-7.99,8.1Z" fill="#fff"/>
      <path d="m144.61,211.61c0,.56.01,1.12,0,1.67-.09,3.89-2.19,6.31-5.42,6.26-3.22-.05-5.21-2.45-5.27-6.41-.02-1.34-.05-2.68.01-4.01.17-3.4,2.36-5.63,5.39-5.59,3.02.04,5.1,2.3,5.27,5.73.04.78,0,1.56.01,2.34Z" fill="#fff"/>
      <path d="m155.31,211.4c0-.67-.02-1.34,0-2.01.14-3.61,2.33-5.94,5.47-5.86,3.01.08,5.06,2.34,5.2,5.8.06,1.45.05,2.9,0,4.35-.13,3.6-2.35,5.95-5.47,5.86-3.01-.08-5.05-2.35-5.2-5.8-.03-.78,0-1.56,0-2.34Z" fill="#fff"/>
      <rect width="300" height="300" fill="none"/>
    </g>
  </g>
</svg>