<?xml version="1.0" encoding="UTF-8"?>
<svg id="_레이어_2" data-name="레이어 2" xmlns="http://www.w3.org/2000/svg" viewBox="0 0 300 300">
  <g id="_레이어_1-2" data-name="레이어 1">
    <path d="m299.98,100.02v-3.22c-7.5-6.41-12.31-10.52-12.31-10.52,0,0-1.56,5.88-3.98,15.04-1.38,4.73-4.42,12.48-11.42,18.81-8.14,7.35-17.17,10.89-28.29,10.41-15.43-.67-30.91-.18-46.36-.21-5.72,0-11.43,0-17.89,0,1.31-1.97,2.14-3.16,2.92-4.37,10.82-16.77,15.3-35.08,12.79-54.96C189.58,24.57,146.22-7.19,100.58,1.41c-31.45,5.93-53.61,28.93-61.85,56.26-5.25.7-10.46,1.44-15.68,1.47-6.3.03-12.61-1.46-18.93-2.12-1.39-.14-3.35-1.53-4.13,1.07v15.78c.63,3.39,1.13,6.81,1.9,10.17,4.48,19.56,14.47,34.94,33.05,43.67,5.86,2.75,12.02,4.45,18.87,5.3.86,1.4.85,2.6.1,4.36-5.79,13.61-11.68,27.18-17.03,40.96-6.81,17.55-10.34,35.6-7.09,54.59,6.3,36.92,39.8,66.4,76.96,66.86,28.82.36,57.65.21,86.47-.04,6.52-.06,13.15-.92,19.54-2.32,51.56-11.37,87.09-55.9,87.21-109.07.06-29.45.01-58.89.01-88.34Zm-214.87-23.47c-5.13.08-9.23-4.19-9.15-9.53.07-4.58,4.3-8.62,9.08-8.66,4.89-.04,8.96,4.24,8.97,9.43.01,4.65-4.09,8.69-8.91,8.76Z" fill="#fff"/>
  </g>
</svg>