<?xml version="1.0" encoding="UTF-8"?>
<svg id="_레이어_2" data-name="레이어 2" xmlns="http://www.w3.org/2000/svg" viewBox="0 0 300 300">
  <g id="_레이어_1-2" data-name="레이어 1">
    <g>
      <path d="m273.79,94.73c.42-.56.82-1.07,1.19-1.55.78-1.01,1.45-1.89,2.12-2.84,13.05-18.5,20.71-39.59,22.79-62.67,1.13-12.5-6.4-22.84-18.74-25.74-2.11-.49-4.22-.9-6.26-1.29-.91-.17-1.82-.35-2.72-.53-.37-.07-.74-.11-1.11-.11h-11.75c-.39,0-.78.04-1.17.12-.33.07-.67.15-1,.22-.53.12-1.03.24-1.42.29-19.05,2.63-35.88,11.12-54.58,27.55-.94.82-1.56,1.92-1.8,3.1-8.77-2.69-18.09-4.52-28.1-5.51-26.7-2.62-49.84-.74-70.7,5.72-.18-.98-.62-1.91-1.29-2.68C88.79,16.87,65.34,4.22,48.04,1.18c-1.26-.22-2.52-.47-3.78-.72l-1.81-.36c-.36-.07-.72-.1-1.08-.1h-12.34c-.4,0-.79.04-1.18.13-1.06.23-2.13.43-3.2.64-2.51.49-5.1.99-7.7,1.75C6.35,5.6-.75,15.56.06,26.21c1.33,17.4,5.88,33.68,13.51,48.4,2.45,4.72,5.27,9.23,8,13.6,1.22,1.95,2.43,3.89,3.61,5.85.93,1.54,2.5,2.51,4.23,2.7-7.22,18.45-8.73,35.6-8.55,47.56.19,26.29,2.77,44.75,8.63,61.73,7.82,22.64,20.77,38.69,39.6,49.06.96.53,2.17,2,3.09,3.75,4.9,9.35,12.5,15.55,22.6,18.41,2.33.66,4.62,1.18,6.89,1.57-.63,2.07-.04,4.33,1.56,5.8,11.12,10.26,29.04,15.37,46.9,15.37s36.08-5.24,46.87-15.7c1.46-1.42,2.03-3.5,1.54-5.44,14.03-2.11,24.13-9.27,30.12-21.39.44-.88,1.44-1.92,2.33-2.4,17.86-9.76,30.42-24.71,38.4-45.7,5.34-14.04,8.33-29.39,9.41-48.31,1.26-21.91-.21-38.63-4.76-54.2-1.01-3.45-2.14-6.81-3.39-10.06,1.23-.31,2.34-1.03,3.13-2.07Zm-16.53-82.87c.9-.12,1.71-.31,2.43-.48.08-.02.16-.04.24-.05h10.57c.75.15,1.51.29,2.27.44,2.02.39,3.92.75,5.81,1.19,6.92,1.62,10.67,6.74,10.04,13.7-1.77,19.66-7.98,37.73-18.46,53.75-6.21-11.44-13.69-21.1-22.7-29.36-9.11-8.34-19.52-15.05-31.63-20.34,14.07-10.97,27.12-16.87,41.43-18.84ZM23.62,69.39c-6.93-13.35-11.06-28.17-12.27-44.05-.41-5.33,3.28-10.36,8.76-11.96,2.11-.61,4.34-1.05,6.7-1.5.94-.18,1.88-.36,2.81-.56h11.19l1.23.24c1.34.27,2.69.54,4.04.77,12.12,2.12,28.19,9.92,38.53,18.22-24.05,10.45-42.38,27.12-54.65,49.73-2.28-3.67-4.44-7.21-6.35-10.89Zm100.75,214.89c8.92-1.95,16.92-5.71,23.87-11.24,1.7-1.35,2.45-.96,3.33-.25,7.1,5.66,15.23,9.49,24.31,11.47-15.25,5.89-36.02,5.91-51.51.02Zm143.13-123.87c-1.02,17.74-3.78,32.02-8.7,44.94-6.98,18.36-17.85,31.37-33.24,39.79-2.94,1.61-5.57,4.34-7.04,7.31-5.47,11.05-15.15,16.05-30.49,15.74-9.66-.19-18.28-3.32-25.6-9.28-7.29-5.93-17.22-5.77-25.31.4-11.68,8.91-24.52,11.22-39.25,7.05-7.09-2.01-12.21-6.18-15.66-12.76-1.15-2.2-3.68-6.23-7.66-8.42-16.26-8.95-27.5-22.96-34.36-42.83-5.44-15.75-7.84-33.14-8.02-58.14,0-.02,0-.03,0-.05-.28-18.43,4.08-37.37,12.29-53.34,12.08-23.52,31.78-39.75,58.57-48.25,13.93-4.42,29.05-6.61,45.79-6.61,6.82,0,13.91.36,21.31,1.09,19.37,1.9,35.91,7.18,50.56,16.12,21.2,12.95,35.1,31.55,42.5,56.87,4.17,14.27,5.5,29.81,4.32,50.37Z" fill="#fff"/>
      <path d="m97.49,135.46c-2.89-.81-5.76-1.25-8.53-1.68-1.16-.18-2.32-.36-3.47-.56-.93-.17-1.85-.1-2.7.17-.76-.01-1.62,0-2.56.17-1.31.23-2.4.65-3.27,1-.24.1-.49.19-.73.28-1.56.55-2.81,1.75-3.41,3.29-.6,1.54-.5,3.27.28,4.73.14.26.27.52.41.79.36.69.76,1.48,1.26,2.29.49.78,1.01,1.45,1.46,2.05.26.34.64.83.8,1.09,2.1,9.05,8.1,14.71,17.82,16.82,1.72.37,3.76,1.29,6.06,2.74,1.34.84,3.52,2.21,6.01,2.21.91,0,1.86-.18,2.82-.64,3.6-1.69,4.1-5.55,4.35-7.4.29-2.23.41-3.96.38-5.62-.21-11.14-6.09-18.64-17-21.7Zm-.23,19.35c-5.47-1.18-8.14-3.63-9.22-8.44-.11-.47-.24-.92-.41-1.34,2.41.37,4.68.74,6.8,1.33,6.01,1.69,8.49,4.66,8.72,10.55-2.04-.99-3.99-1.69-5.89-2.1Z" fill="#fff"/>
      <path d="m159.87,214.44c-1.9.35-3.46,1.09-5.02,1.88-1.48.75-2.71,1.4-3.77,1.95-1.35.71-2.75,1.45-3.4,1.69-.65-.24-2.02-.97-3.36-1.67-1.08-.57-2.36-1.25-3.89-2.02-1.31-.66-2.61-1.12-3.76-1.52-.44-.15-.88-.31-1.31-.47-.81-.31-1.67-.43-2.54-.35-5.53.51-10.13,3.73-11.98,8.42-2.12,5.34-.59,10.94,4.08,14.97,5.4,4.66,10.09,8.79,14.33,12.64,2.54,2.3,5.53,3.45,8.49,3.45s6.12-1.24,8.62-3.71c.75-.74,1.48-1.49,2.22-2.25,1.53-1.56,2.97-3.04,4.48-4.37,1.18-1.04,2.48-2.02,3.86-3.07,1.31-.99,2.66-2.02,3.99-3.15,4.64-3.96,5.88-10.25,3.07-15.64-2.66-5.12-8.33-7.84-14.12-6.78Zm3.7,13.8c-1.08.92-2.25,1.8-3.48,2.74-1.48,1.12-3.01,2.28-4.5,3.59-1.84,1.62-3.5,3.32-5.11,4.96-.69.71-1.39,1.42-2.09,2.12-.55.55-.68.68-1.53-.09-4.31-3.91-9.07-8.1-14.54-12.83-1.36-1.18-1.12-1.81-.95-2.23.16-.4.67-.85,1.48-1.11.03,0,.05.02.08.03.9.32,1.75.61,2.4.94,1.46.74,2.67,1.38,3.7,1.93,7.68,4.06,9.62,4.06,17.33,0,1.01-.53,2.18-1.15,3.6-1.87.6-.3,1.51-.76,1.96-.85.87-.16,1.67.18,2.02.87.38.74.28,1.25-.38,1.8Z" fill="#fff"/>
      <path d="m219.04,133.51c-1.03.07-2.06.13-3.09.19-3.8.21-7.72.43-11.66,1.3-12.04,2.64-18.71,10.86-18.8,23.16,0,.23.01.46.04.69.05.44.1.89.15,1.33.11,1.07.23,2.19.41,3.33.18,1.2.74,4.87,4.15,6.56,1.04.52,2.07.71,3.04.71,2.22,0,4.09-1.02,4.96-1.5,2.61-1.43,5.42-2.85,8.25-3.65,8.8-2.47,14.31-7.79,16.37-15.81.11-.35.76-1.27,1.2-1.87.49-.69,1.05-1.47,1.56-2.34l.18-.29c.66-1.09,1.9-3.13,1.64-5.71-.48-4.69-5.69-6.29-8.37-6.1Zm-7.17,13.5c-1.05,4.1-3.5,6.34-8.46,7.73-2.32.65-4.53,1.56-6.59,2.53.31-6.4,3.31-9.78,9.88-11.22,1.84-.4,3.76-.63,5.77-.79-.24.55-.44,1.13-.6,1.75Z" fill="#fff"/>
    </g>
  </g>
</svg>