<?xml version="1.0" encoding="UTF-8"?>
<svg id="_레이어_2" data-name="레이어 2" xmlns="http://www.w3.org/2000/svg" viewBox="0 0 300 300">
  <g id="_레이어_1-2" data-name="레이어 1">
    <g>
      <path d="m149.68,300c-47.39,0-94.78,0-142.17,0-6.18,0-7.56-1.36-7.51-7.48.21-25.36,1.99-50.55,8.73-75.14,4.13-15.06,9.81-29.45,20.4-41.31,2.61-2.92,5.65-5.57,8.87-7.8,2.16-1.5,2.81-3.01,2.94-5.53.81-15.69,1.25-31.43,2.92-47.04,2.67-24.88,8.49-49.01,21.5-70.8C81.78,17.44,106.43,3.32,137.99.58c17.32-1.51,34.34-.22,50.79,5.71,22.6,8.15,38.46,23.82,49.36,44.88,9.04,17.48,13.84,36.25,16.88,55.56,2.95,18.77,3.85,37.68,4.09,56.64.03,2.03.52,3.33,2.39,4.53,8.58,5.48,14.38,13.45,19.15,22.24,7.93,14.63,12.13,30.48,14.94,46.74,3.22,18.62,4.34,37.41,4.42,56.28.02,5.26-1.58,6.85-6.9,6.85-47.81,0-95.61,0-143.42,0Zm69.53-10.09c.08-1,.16-1.71.2-2.42.89-15.28,1.99-30.55,2.62-45.84,1.69-40.81,2.57-81.62-2.03-122.32-1.48-13.04-3.6-25.98-8.74-38.2-3.01-7.16-6.77-13.87-12.92-18.87-7.62-6.2-15.86-6.39-23.29-.06-3.2,2.72-6.13,6.03-8.34,9.59-8.51,13.68-10.85,29.07-11.5,44.82-.03.75,1.06,1.82,1.89,2.29,3.54,1.98,7.36,3.5,10.72,5.73,4.14,2.75,8.17,5.76,11.8,9.15,4.44,4.14,5.86,9.37,3.95,15.39-4.69,14.8-11.24,28.66-20.75,40.99-2.19,2.85-4.94,5.35-7.76,7.6-3.19,2.55-6.87,2.5-10.12.01-2.46-1.88-4.87-3.98-6.79-6.39-10.05-12.6-16.84-26.92-21.71-42.21-1.92-6.02-.33-11.06,3.9-15.45,1.51-1.57,3.04-3.24,4.87-4.37,5.55-3.46,11.15-6.87,16.94-9.89,2.25-1.17,3.01-2.32,2.68-4.74-.51-3.81-.59-7.69-1.12-11.5-1.68-12.06-4.82-23.65-11.9-33.82-3.01-4.32-6.62-8.04-11.53-10.24-7.59-3.41-15.48-1.13-22.22,6.52-6.18,7.02-9.87,15.37-12.44,24.24-5.48,18.94-7.07,38.46-8.01,58.01-2.03,41.77-.6,83.5,1.94,125.21.34,5.57.83,11.13,1.25,16.76h138.42Zm-68.69-99.61c1.1-1.56,1.84-2.7,2.67-3.78,9.04-11.72,15.88-24.6,20.61-38.63,1.3-3.87.29-6.91-2.95-8.94-6.41-4.02-12.99-7.79-19.57-11.54-.71-.41-2.09-.28-2.85.14-6.07,3.38-12.27,6.61-18.04,10.46-5.44,3.64-5.75,5.21-3.66,11.35,4.42,13,10.93,24.93,19.12,35.94,1.1,1.48,2.52,2.72,4.67,4.99Z" fill="#fff"/>
      <path d="m112.88,99.41c-4.17-.07-7.39-3.45-7.29-7.66.1-3.99,3.45-7.27,7.42-7.28,4.07,0,7.55,3.51,7.51,7.56-.04,4.1-3.51,7.44-7.65,7.37Z" fill="#fff"/>
      <path d="m186.86,99.41c-4.12-.05-7.51-3.55-7.39-7.63.12-3.96,3.49-7.27,7.45-7.31,4.1-.03,7.5,3.4,7.48,7.53-.02,4.2-3.33,7.45-7.55,7.4Z" fill="#fff"/>
    </g>
  </g>
</svg>