<?xml version="1.0" encoding="UTF-8"?>
<svg id="_레이어_2" data-name="레이어 2" xmlns="http://www.w3.org/2000/svg" viewBox="0 0 300 300">
  <g id="_레이어_1-2" data-name="레이어 1">
    <g id="_05동물_shape_05_0005" data-name=" 05동물 shape 05 0005">
      <rect id="_사각형_65-3" data-name="사각형 65-3" y="0" width="300" height="300" fill="none"/>
      <circle id="_타원_62" data-name="타원 62" cx="195.27" cy="45.33" r="7.06" fill="#fff"/>
      <path id="_패스_411" data-name="패스 411" d="m295.82,42.6c-2.64-2.65-6.23-4.13-9.97-4.12h-.03l-49.9.1-10.59-13.57C213.05,9.17,194.13-.06,174.09,0h-1.45c-6.81.01-13.57,1.05-20.07,3.08-.31,0-.63-.02-.94-.02-7.9-.02-15.49,3.12-21.06,8.72L62.92,79.43c-12.87,12.85-13.37,33.54-1.15,47-5.08,5.96-9.97,12.1-14.67,18.4C28.27,170.5,12.58,198.34.37,227.74c-1.01,2.39.12,5.15,2.51,6.16,2.39,1.01,5.15-.12,6.16-2.51,11.92-28.71,27.24-55.89,45.62-80.95,4.57-6.17,9.35-12.16,14.33-17.98,2.44,1.52,5.07,2.73,7.81,3.6,19.99,6.3,41.78-.64,54.45-17.34,12-15.95,20.91-32.6,26.5-49.48.82-2.47-.52-5.13-2.99-5.95-2.47-.82-5.13.52-5.95,2.99-5.27,15.91-13.71,31.65-25.09,46.78-10.26,13.53-27.92,19.14-44.11,14.02-13-4.09-20.23-17.94-16.15-30.94,1.19-3.79,3.28-7.24,6.1-10.06L137.22,18.44c7.96-7.96,20.86-7.96,28.81,0,0,0,0,0,0,0,1.84,1.84,4.82,1.84,6.65,0,1.84-1.84,1.84-4.82,0-6.65-.82-.82-1.69-1.59-2.6-2.31.85-.04,1.7-.06,2.56-.06h1.43c17.13-.06,33.32,7.84,43.82,21.38l12.01,15.39c.89,1.14,2.26,1.81,3.71,1.81h0l22.43-.05v5.08c-.02,5.15,3.33,9.71,8.26,11.23l26.23,8.2v5.55c.03,6.98-5.06,12.92-11.96,13.95l-76.39,11.8c-.41.07-.81.19-1.19.37-10.65-.19-20-4.4-29.33-13.24-1.89-1.79-4.86-1.71-6.65.18-1.79,1.89-1.71,4.86.18,6.65,8.77,8.31,17.97,13.27,27.92,15.06-4.24,5.65-8.05,11.62-11.39,17.85l.21-4.77c.19-4.29-3.13-7.92-7.42-8.11-1.96-.09-3.89.57-5.39,1.85l-11.37,9.69c-42.32,36.07-64.81,90.21-60.51,145.64l.27,3.51c.42,5.33.1,10.69-.94,15.93-.51,2.55,1.15,5.03,3.69,5.53s5.03-1.15,5.54-3.69h0c1.21-6.09,1.58-12.31,1.1-18.5l-.27-3.51c-4.07-52.43,17.21-103.64,57.24-137.76l8.5-7.25-1.15,25.77c-.02.39,0,.79.02,1.18,0,.02,0,.04-.01.06-.5,2.98-1.52,5.86-3,8.49l-5.86,5.86c-2.38,1.3-4.99,2.13-7.69,2.42-2.58.33-4.4,2.69-4.06,5.27.33,2.58,2.69,4.4,5.27,4.06h0c10.93-1.41,18.6-7.27,22.51-17.07.79.26,1.61.42,2.44.48,5.41.35,14.1.94,22.77,1.52,13.93.96,25.26,11.6,27.1,25.45l1.4,10.69c.64,4.95,4.74,8.73,9.73,8.97l11.82.57c5.66.27,10.02,5.08,9.74,10.74-.04.82-.18,1.63-.41,2.41l-5.32,18.01c-2.02,6.88-7.99,11.86-15.12,12.61l-37.43,3.99c-8.74.93-15.07,8.76-14.15,17.5.23,2.12.87,4.18,1.91,6.04.34.61.68,1.23,1.01,1.84,1.93,3.58,3.75,7.32,5.39,11.11,1.03,2.38,3.8,3.48,6.19,2.45,2.38-1.03,3.48-3.8,2.45-6.19-1.75-4.03-3.68-8.02-5.74-11.84-.35-.65-.71-1.3-1.07-1.95-1.74-3.14-.6-7.1,2.54-8.83.76-.42,1.6-.69,2.47-.78l37.43-3.99c10.92-1.14,20.06-8.77,23.15-19.3l5.32-18.01c3.08-10.41-2.87-21.35-13.29-24.43-1.5-.44-3.05-.71-4.62-.78l-11.82-.57c-.44-.02-.8-.35-.85-.79l-1.4-10.69c-2.42-18.29-17.39-32.35-35.8-33.62-8.68-.58-17.38-1.16-22.79-1.52-.49-.03-.86-.45-.84-.93l.08-1.87c.5-.45.9-1.01,1.17-1.63,7.31-16.88,14.97-29.68,23.39-39.08l74.75-11.55c11.5-1.72,19.99-11.62,19.93-23.25v-25.41c.01-3.75-1.48-7.35-4.14-9.99Zm-28.69,12.68c-.98-.3-1.65-1.22-1.65-2.25v-5.1l20.36-.04h.01c2.6,0,4.7,2.1,4.7,4.69h0v10.01l-23.42-7.32Z" fill="#fff"/>
      <circle id="_타원_63" data-name="타원 63" cx="201.15" cy="198.84" r="7.06" fill="#fff"/>
    </g>
  </g>
</svg>