<?xml version="1.0" encoding="UTF-8"?>
<svg id="_레이어_2" data-name="레이어 2" xmlns="http://www.w3.org/2000/svg" viewBox="0 0 300 300">
  <g id="_레이어_1-2" data-name="레이어 1">
    <g>
      <path d="m274.24,246.94c-3.72-.73-6.4-4.17-7.3-8.64-1.78-.4-3.46-1.16-4.93-2.24-1.82-1.25-3.07-3.17-3.48-5.35-.91-5.54,4.52-11.06,12.14-12.31,2.5-.43,5.06-.31,7.51.33,1.51.39,2.95,1.04,4.24,1.92.06.04.12.08.18.13.15.11.31.22.45.34s.31.26.46.4c.13.11.24.23.36.35s.23.24.34.36c.14.15.26.31.38.48.12.15.23.3.34.46.04.06.08.13.13.19,2.12,3.55,2.79,7.78,1.87,11.81-1.36,6.91-6.2,11.9-11.23,11.9-.49,0-.97-.05-1.45-.14Z" fill="#fff"/>
      <path d="m12.95,235.19c-.92-4.03-.25-8.26,1.87-11.81.04-.07.08-.13.13-.19.1-.16.22-.31.34-.46s.25-.32.38-.48c.11-.13.22-.25.34-.36s.23-.24.36-.35c.15-.15.31-.27.46-.4s.3-.23.45-.35c.06-.04.12-.08.18-.13,2-1.35,4.31-2.17,6.71-2.39,1.68-.19,3.37-.14,5.04.14,7.62,1.25,13.05,6.76,12.14,12.31-.31,1.71-1.16,3.28-2.43,4.46-1.68,1.56-3.75,2.63-5.98,3.12-.9,4.47-3.58,7.91-7.3,8.64-.48.1-.97.14-1.46.14-5.02,0-9.86-4.99-11.22-11.89Z" fill="#fff"/>
      <path d="m291.1,236.11c-1.37-1.66-1.14-4.11.5-5.49,1.44-1.6,3.9-1.74,5.51-.32,1.37,1.66,1.14,4.11-.5,5.49-.82.82-1.92,1.28-3.08,1.31-.91.02-1.78-.34-2.42-.98h0Z" fill="#fff"/>
      <path d="m3.27,235.79c-1.64-1.38-1.87-3.83-.5-5.49,1.61-1.42,4.07-1.28,5.51.32,1.64,1.39,1.86,3.83.5,5.49-.64.64-1.51,1-2.42.98-1.16-.02-2.26-.49-3.08-1.31Z" fill="#fff"/>
      <path d="m288.95,224.65c-1.37-1.66-1.14-4.11.5-5.5,1.43-1.6,3.89-1.74,5.5-.32,1.37,1.66,1.15,4.11-.5,5.49-.82.82-1.93,1.29-3.09,1.31-.91.02-1.78-.34-2.42-.98Z" fill="#fff"/>
      <path d="m5.42,224.32c-1.64-1.38-1.87-3.83-.5-5.49,1.61-1.42,4.07-1.28,5.5.32,1.65,1.38,1.87,3.83.5,5.5-.64.64-1.51.99-2.42.98-1.16-.02-2.27-.49-3.09-1.31Z" fill="#fff"/>
      <path d="m281.08,216.53c-1.37-1.66-1.14-4.11.5-5.5,1.43-1.6,3.89-1.74,5.5-.33,1.37,1.66,1.15,4.11-.5,5.5-.82.82-1.93,1.29-3.09,1.31-.9.02-1.78-.34-2.41-.98h0Z" fill="#fff"/>
      <path d="m13.28,216.2c-1.64-1.39-1.87-3.83-.5-5.5,1.62-1.41,4.07-1.27,5.51.33,1.65,1.38,1.87,3.83.5,5.5-.64.64-1.51.99-2.42.98-1.16-.02-2.27-.49-3.09-1.31h0Z" fill="#fff"/>
      <path d="m224.5,193.33v-39.49c0-9.03-1.63-17.99-4.84-26.43-.8-2.12-1.69-4.18-2.67-6.2-.5-1.04-1.03-2.06-1.59-3.08,8.45-4.27,13.79-12.93,13.79-22.4,0-13.88-11.25-25.13-25.13-25.13h0c-7.52-.01-14.66,3.36-19.42,9.19-1.55,1.88-2.81,3.98-3.76,6.22-1.29,3.08-1.95,6.38-1.95,9.72,0,.36.03.7.05,1.07-2,3.02-4.46,5.72-7.29,7.99-6.16,4.97-13.84,7.67-21.76,7.66-7.92,0-15.6-2.7-21.77-7.66-2.83-2.27-5.29-4.96-7.29-7.99.01-.36.06-.71.06-1.07,0-3.34-.66-6.64-1.95-9.72-.94-2.25-2.21-4.34-3.76-6.22-4.77-5.82-11.9-9.2-19.42-9.19-13.88,0-25.13,11.25-25.13,25.13h0c0,9.47,5.34,18.13,13.79,22.4-.56,1.01-1.08,2.04-1.59,3.08-.98,2.02-1.87,4.09-2.67,6.2-3.21,8.44-4.85,17.4-4.84,26.43v39.49c-6.09,6.38-10.28,14.32-12.11,22.94l-24.85-15.45c-4.7-2.92-10.02-4.68-15.53-5.15,2.46-8.71,8.22-16.13,16.05-20.68-7.33-6.58-11.53-15.96-11.53-25.82,0-19.22,15.58-34.81,34.81-34.81h0c1.04,0,2.07.07,3.09.15-3.62-5.6-5.54-12.12-5.54-18.79,0-19.22,15.58-34.81,34.81-34.82,7.92,0,15.6,2.7,21.77,7.66,4.09-15.19,17.86-25.75,33.6-25.75,15.73.01,29.49,10.57,33.58,25.75,6.17-4.97,13.85-7.67,21.77-7.66,19.23,0,34.81,15.59,34.81,34.82,0,6.67-1.92,13.19-5.54,18.79,1.02-.08,2.05-.15,3.09-.15,19.22,0,34.81,15.57,34.81,34.8v.02c0,9.39-3.79,18.38-10.53,24.92,8.61,4.39,15.01,12.17,17.67,21.46-6.42.06-12.7,1.88-18.15,5.26l-24.85,15.45c-1.83-8.62-6.02-16.56-12.11-22.94h0Z" fill="#fff"/>
      <path d="m269.88,214.22c-1.37-1.66-1.14-4.11.5-5.5,1.43-1.6,3.89-1.74,5.5-.32,1.37,1.66,1.14,4.1-.5,5.49-.82.82-1.93,1.29-3.09,1.31-.91.02-1.78-.34-2.42-.98Z" fill="#fff"/>
      <path d="m24.49,213.89c-1.64-1.38-1.86-3.83-.5-5.49,1.61-1.42,4.07-1.28,5.51.32,1.64,1.39,1.86,3.83.5,5.5-.64.64-1.51.99-2.42.98-1.16-.02-2.27-.49-3.09-1.31h0Z" fill="#fff"/>
      <path d="m141.37,203.38c0-3.25,3.84-5.89,8.57-5.89s8.57,2.64,8.57,5.89-3.83,5.89-8.57,5.89-8.57-2.64-8.57-5.89h0Z" fill="#fff"/>
      <path d="m170.92,186.29c-.29-.73-.44-1.51-.45-2.3,0-3.44,2.79-6.23,6.23-6.23,3.44,0,6.24,2.79,6.24,6.23,0,1.83-.82,3.56-2.22,4.73-3.09-1.42-6.42-2.25-9.81-2.44h0Z" fill="#fff"/>
      <path d="m116.93,183.99c0-3.45,2.8-6.24,6.24-6.23,3.44,0,6.23,2.79,6.23,6.23,0,.79-.16,1.57-.45,2.3-3.39.19-6.72,1.02-9.81,2.44-1.4-1.17-2.22-2.91-2.22-4.73h0Z" fill="#fff"/>
      <path d="m184.75,95.15c1.31-1.79,2.95-3.29,4.85-4.44,5.8-3.52,13.15-3.21,18.63.8,6.99,5.11,8.94,14.71,4.5,22.15-.27.45-.55.9-.87,1.33l-27.11-19.84Z" fill="#fff"/>
      <path d="m87.14,113.67c-4.44-7.44-2.49-17.03,4.5-22.15,5.48-4.01,12.83-4.33,18.63-.8,1.89,1.15,3.54,2.65,4.85,4.44l-27.11,19.84c-.31-.44-.6-.88-.87-1.33Z" fill="#fff"/>
      <rect width="300" height="300" fill="none"/>
    </g>
  </g>
</svg>