<?xml version="1.0" encoding="UTF-8"?>
<svg id="_레이어_2" data-name="레이어 2" xmlns="http://www.w3.org/2000/svg" viewBox="0 0 300 300">
  <g id="_레이어_1-2" data-name="레이어 1">
    <g>
      <path d="m130.08,300c-5.09-2.33-6.7-6.36-6.52-11.81.29-8.68-.05-17.38.15-26.06.06-2.79-.73-4.28-3.24-5.67-7.6-4.21-13.75-9.9-16.71-18.41-1.83-5.26-1.31-10.57-.53-15.91,5.79-40.05,11.61-80.1,17.34-120.16.92-6.42,1.94-12.75,6-18.09,7.22-9.5,16.9-13.34,28.55-11.54,11.22,1.73,20.98,10.85,22.89,21.58,2.33,13.15,4.08,26.4,6,39.62,3.43,23.64,6.81,47.3,10.21,70.94,1.04,7.24,2.26,14.46,3.13,21.72,1.39,11.54-3.72,20.17-12.61,26.95-1.24.95-2.45,2.1-3.87,2.6-4.03,1.42-4.71,4.2-4.56,8.13.31,8.09-.12,16.21.17,24.3.19,5.44-1.42,9.48-6.52,11.8h-4.69c-5.07-2.33-6.82-6.34-6.51-11.78.29-4.95.06-9.93.06-14.9v-9.36h-17.58c0,8.12-.21,16.2.07,24.26.19,5.43-1.44,9.45-6.52,11.78h-4.69Zm28.7-176.14c0-2.93.07-5.86-.01-8.79-.14-5.23-3.93-9.02-8.86-8.96-4.8.05-8.57,3.81-8.66,8.87-.11,5.76-.1,11.52,0,17.28.09,5.23,3.93,9.02,8.86,8.96,4.83-.06,8.51-3.77,8.67-8.86.09-2.83.02-5.66.02-8.49Z" fill="#fff"/>
      <path d="m300,157.65c-1.4,4.04-2.81,8.06-6.03,11.14-6.16,5.91-13.46,7.8-21.59,5.59-21.81-5.93-43.56-12.08-65.35-18.1-1.51-.42-2.37-1.08-2.46-2.72-.09-1.63-.36-3.25-.57-5.05,9.98-2.03,19.8-4.03,29.62-6.01,13.28-2.67,26.57-5.31,39.85-7.98,11.19-2.25,21.47,2.94,25.33,12.85.49,1.25.8,2.56,1.2,3.84v6.44Z" fill="#fff"/>
      <path d="m98.53,131.02c-6.06-1.15-11.88-2.23-17.69-3.36-17.78-3.46-35.56-6.93-53.34-10.42-8.57-1.69-14.95-6.28-17.72-14.73-4.28-13.05,6.05-26.45,20.02-26.36,5.16.03,9.73,1.66,13.83,4.75,18.06,13.62,36.11,27.24,54.21,40.81,1.44,1.08,2.04,2.15,1.61,3.92-.41,1.67-.59,3.4-.92,5.4Z" fill="#fff"/>
      <path d="m201.43,130.85c-.35-2.24-.82-4.33-.92-6.44-.04-.76.6-1.83,1.26-2.32,18.51-14,36.91-28.14,55.64-41.82,12.93-9.45,30.09-2.52,33.49,13.07,2,9.15-4.47,20.03-14.23,22.64-8.92,2.39-18.06,3.95-27.13,5.75-15.09,3-30.21,5.9-45.32,8.83-.84.16-1.7.18-2.79.29Z" fill="#fff"/>
      <path d="m95.86,148.57c.06.3.1.4.09.49q-.6,6.47-6.81,8.21c-20.28,5.64-40.56,11.31-60.85,16.9-10.14,2.79-19.02-.32-24.75-8.49-8.62-12.29-.62-30.24,14.4-31.26,6.17-.42,12.56,1.01,18.74,2.19,19.44,3.73,38.82,7.75,58.22,11.65.28.06.54.17.97.3Z" fill="#fff"/>
      <path d="m92.28,174.73c-.73,5.19-1.36,10.1-2.16,14.98-.12.74-.89,1.47-1.53,2.02-13.38,11.66-26.72,23.36-40.19,34.91-8.28,7.1-19.19,7.82-26.94,2.07-10.84-8.04-10.95-25.11-.05-33.08,2.46-1.8,5.34-3.35,8.26-4.16,20.18-5.57,40.41-10.91,60.63-16.31.53-.14,1.07-.23,1.97-.42Z" fill="#fff"/>
      <path d="m207.71,174.6c14.55,3.89,28.65,7.66,42.75,11.43,6.96,1.86,13.97,3.57,20.86,5.66,11.52,3.5,18.04,15.73,14.53,26.83-4.08,12.89-19.76,18.36-30.99,10.38-6.25-4.45-11.87-9.8-17.7-14.81-8.28-7.12-16.48-14.34-24.77-21.44-1.63-1.4-2.68-2.82-2.88-5.09-.38-4.23-1.14-8.43-1.79-12.96Z" fill="#fff"/>
      <path d="m102.2,102.8c-.46-.28-1.1-.61-1.67-1.04-15.21-11.44-30.42-22.88-45.59-34.36-6.28-4.75-9.9-10.97-9.78-18.99.23-15.76,16.7-24.84,30.28-16.8,4.26,2.52,7.38,6.01,9.61,10.36,6.88,13.46,13.74,26.92,20.58,40.39.38.75.9,1.69.75,2.41-1.3,5.98-2.74,11.93-4.17,18.04Z" fill="#fff"/>
      <path d="m197.46,103.06c-.63-3.85-1.22-7.49-1.83-11.14-.08-.48-.13-1-.35-1.42-2.5-4.81-.76-8.91,1.59-13.3,6.22-11.6,12.01-23.42,18.05-35.11,4.45-8.61,11.39-13.51,21.3-13.28,11.75.28,20.45,11.31,18.48,22.96-1.09,6.4-4.2,11.49-9.3,15.35-15.48,11.72-31.01,23.39-46.53,35.07-.37.28-.8.49-1.42.86Z" fill="#fff"/>
      <path d="m141.14,55.12c-8.8,1.88-16.48,5.92-23.2,12.14-.46-.71-.82-1.14-1.06-1.64-5.81-11.91-11.94-23.69-17.29-35.8-3.74-8.48-1.76-16.71,4.74-23.17,5.97-5.93,13.4-8.33,21.76-5.39,9,3.17,14.32,9.86,14.88,19.15.7,11.47.17,23.02.17,34.72Z" fill="#fff"/>
      <path d="m182.29,67.45c-6.94-6.38-14.59-10.45-23.41-12.32,0-11.78-.46-23.41.13-34.99.59-11.5,11.34-20.65,22.32-20.04,11.75.65,20.93,10.4,20.66,22.33-.07,2.94-.79,6.08-2.03,8.73-5.64,11.99-11.57,23.84-17.66,36.28Z" fill="#fff"/>
    </g>
  </g>
</svg>