<?xml version="1.0" encoding="UTF-8"?>
<svg id="_레이어_2" data-name="레이어 2" xmlns="http://www.w3.org/2000/svg" viewBox="0 0 300 300">
  <g id="_레이어_1-2" data-name="레이어 1">
    <path d="m242.19,253.16c0,3.91.28,6.79-.05,9.59-1.39,11.71-10.47,19.5-23.23,19.86-12.06.34-22.19-4.46-31.04-12.32-.96-.85-1.91-1.71-2.97-2.66-4.84,21-16.91,32.26-34.48,32.37-17.65.12-30.07-11.19-35.39-32.43-.97.87-1.83,1.63-2.69,2.42-9.08,8.3-19.76,12.7-32.07,12.66-12.19-.03-22.23-9.98-22.66-22.16-.07-2.11-.01-4.22-.01-7.18-6.1,5.81-12.37,10-19.92,10.86-7.96.91-16.1,1.46-24.07.9-10.13-.71-15.87-10.88-12.78-21.14,4.21-14.02,8.75-27.96,12.57-42.09,6.55-24.25,9.51-49.03,9.53-74.15.03-27.64,7.72-52.94,24.16-75.2C69.89,21.63,100.51,3.86,138.84.5c62.33-5.46,118.12,33.97,133.95,94.49,2.2,8.42,4.02,17.3,3.88,25.93-.62,39.97,7.67,78.26,20.19,115.88.98,2.96,1.91,5.95,2.66,8.97,2.28,9.25-3.84,18.75-13.3,19.33-7.86.49-15.87.02-23.71-.9-7.59-.89-13.95-4.96-20.33-11.04Zm-140.57-95.25c16.48,16.54,32.64,32.76,47.76,47.94,16.22-15.66,32.7-31.57,48.91-47.23-4.97-5.17-9.31-10.58-14.52-14.95-15.55-13.06-33.15-15.89-52.32-9.23-12.86,4.47-21.02,14.79-29.83,23.48Zm-17.9-59.9c-4.74-.09-8.76,3.82-8.79,8.56-.03,4.59,3.71,8.52,8.3,8.7,4.72.19,8.83-3.65,8.97-8.39.14-4.73-3.74-8.79-8.48-8.88Zm132.6,0c-4.75.02-8.67,4.02-8.59,8.76.07,4.59,3.91,8.43,8.5,8.51,4.73.08,8.74-3.85,8.77-8.59.03-4.75-3.93-8.7-8.68-8.68Z" fill="#fff"/>
  </g>
</svg>