<?xml version="1.0" encoding="UTF-8"?>
<svg id="_레이어_2" data-name="레이어 2" xmlns="http://www.w3.org/2000/svg" viewBox="0 0 300 300">
  <g id="_레이어_1-2" data-name="레이어 1">
    <g>
      <path d="m153.11,300c-40.65-1.67-76.12-10.38-106.98-33.19-25.31-18.71-38.51-43.92-38.98-75.64-.57-38.64,3.41-76.69,15.3-113.58,2.09-6.49,1.91-10.49-2.91-15.86-9.61-10.71-14.22-23.58-9.89-38.19C15.47,3.93,37.16-5.52,55.55,3.34c7.03,3.39,12.84,8.33,17.54,14.46,1.82,2.37,3.33,2.52,5.92,1.47,25.3-10.3,51.59-15.35,78.94-14.11,21.69.98,42.64,5.66,62.73,13.93,2.93,1.21,4.49.81,6.54-1.71,7.2-8.84,15.88-15.89,27.62-17.16,23.98-2.59,41.95,19.2,35.66,42.81-2.35,8.84-7.02,16.31-13.43,22.7-1.82,1.81-2.21,3.27-1.31,5.8,9.34,25.96,13.9,52.94,15.94,80.33,1.04,13.99,1.39,28.09,1.07,42.11-.69,29.71-13.63,53.44-36.93,71.57-21.9,17.04-47.19,26.28-74.2,31.04-10.37,1.83-20.94,2.54-28.54,3.43Zm-3.05-165.43c-30.54-.11-55.8,24.73-56.01,55.08-.21,31.33,24.6,56.71,55.59,56.84,30.89.14,56.12-24.89,56.23-55.79.11-30.95-24.81-56.02-55.81-56.14ZM55.29,31.05c-4.58-4.49-9.23-8.6-16.22-7.58-4.25.62-7,3.43-7.84,7.6-1.29,6.37,1.72,11.33,5.37,16.1,6.39-5.51,12.36-10.66,18.69-16.12Zm207.98,15.78c6.95-7.66,7.73-16.75,1.9-21.45-5.42-4.38-14.53-1.73-20.07,5.89,5.98,5.12,11.96,10.25,18.16,15.56Zm-169.63,97.92c3.16-.86,5.53-1.23,7.64-2.15,3.04-1.33,4.22-3.9,3.51-7.19-.97-4.49-6.09-9.41-10.58-10.22-3.96-.71-7.94,1.13-9.9,4.6-2.03,3.58-1.71,8.53,1.49,11.09,2.35,1.88,5.49,2.76,7.83,3.87Zm111.76-.51c1.29-.15,2.56-.19,3.77-.47,3.86-.87,6.49-3.25,7.39-7.09.9-3.82-.2-7.21-3.37-9.66-3.14-2.43-6.78-2.97-10.11-.85-2.49,1.59-4.89,3.75-6.51,6.2-3.44,5.2-1.35,9.8,4.74,11.29,1.34.33,2.74.39,4.09.57Z" fill="#fff"/>
      <path d="m154.98,184.81c0,5.81-.19,11.51.14,17.18.08,1.32,1.84,3.52,2.97,3.62,3.8.34,7.68.08,11.49-.28,2.47-.24,4.85-1.24,7.32-1.57,2.81-.38,5,.8,5.61,3.74.59,2.84-.56,5.02-3.45,5.78-9.26,2.44-18.52,5.55-27.98.53-.82-.43-2.35.03-3.36.49-9.6,4.42-18.84,1.35-27.94-1.62-1.25-.41-2.65-4.08-2.08-5.43.7-1.63,3.43-3.34,5.27-3.33,3.4.02,6.78,1.32,10.18,1.97,1.63.31,3.31.53,4.96.5,5.58-.07,6.82-1.38,6.83-6.89,0-4.85,0-9.71,0-14.17-4.26-1.66-8.29-2.84-11.95-4.75-5.35-2.79-9.17-7.15-10.93-13.09-1.18-4-.67-7.73,3.02-9.97,7.1-4.31,14.33-8.44,21.74-12.18,1.82-.92,4.92-.79,6.77.15,7.16,3.62,14.16,7.61,21.01,11.79,4.01,2.44,4.58,6.41,3.12,10.67-3.05,8.89-9.9,13.4-18.46,15.89-1.32.38-2.69.61-4.31.97Z" fill="#fff"/>
      <rect width="300" height="300" fill="none"/>
    </g>
  </g>
</svg>