<?xml version="1.0" encoding="UTF-8"?>
<svg id="_레이어_2" data-name="레이어 2" xmlns="http://www.w3.org/2000/svg" viewBox="0 0 300 300">
  <g id="_레이어_1-2" data-name="레이어 1">
    <g id="_05동물_shape_05_0006" data-name=" 05동물 shape 05 0006">
      <rect id="_사각형_65-6" data-name="사각형 65-6" x="0" y="0" width="300" height="299.8" fill="none"/>
      <path d="m260.76,146.11v-53.67c0-4.85-3.94-8.78-8.79-8.78h-74.93V8.78C177.05,3.93,173.11,0,168.26,0h-75.75c-4.85,0-8.79,3.93-8.79,8.78v74.88H8.79c-4.85,0-8.79,3.93-8.79,8.78v75.7c0,4.85,3.94,8.78,8.79,8.78h74.93v74.88c0,4.85,3.94,8.78,8.79,8.78h52.88c14.74,23.64,40.95,39.39,70.85,39.41,46.05-.04,83.39-37.34,83.46-83.4-.04-29.68-15.58-55.71-38.94-70.49Zm-159.47,96.91v-74.88c0-4.85-3.94-8.78-8.79-8.78H17.58v-58.13h74.93c4.85,0,8.79-3.93,8.79-8.78V17.57h58.17v74.88c0,4.85,3.94,8.78,8.79,8.78h74.93v36.46c-8.46-2.89-17.51-4.48-26.94-4.49-46.05.04-83.39,37.35-83.46,83.4.01,9.24,1.55,18.11,4.33,26.42h-35.82Zm114.95,39.41c-36.35-.03-65.83-29.48-65.88-65.83.05-36.35,29.52-65.81,65.88-65.84h0c36.36.03,65.83,29.48,65.88,65.84-.05,36.35-29.52,65.81-65.88,65.83Z" fill="#fff"/>
      <path id="path1166" d="m196.62,194.78c0,4.85-3.94,8.78-8.79,8.78-4.85,0-8.79-3.93-8.79-8.78,0-4.85,3.94-8.78,8.79-8.78,4.85,0,8.79,3.93,8.79,8.78" fill="#fff"/>
      <path id="path1170" d="m224.51,182.84c0,4.85-3.94,8.78-8.79,8.78-4.85,0-8.79-3.93-8.79-8.78,0-4.85,3.94-8.78,8.79-8.78,4.85,0,8.79,3.93,8.79,8.78" fill="#fff"/>
      <path id="path1174" d="m253.45,194.78c0,4.85-3.94,8.78-8.79,8.78-4.85,0-8.79-3.93-8.79-8.78,0-4.85,3.94-8.78,8.79-8.78,4.85,0,8.79,3.93,8.79,8.78" fill="#fff"/>
      <path id="path1178" d="m201.36,259.14h0c-10.73,0-19.47-8.61-19.61-19.34-.08-18.8,15.09-34.11,33.89-34.19.02,0,.05,0,.07,0,18.04,0,32.92,14.1,33.91,32.11.03.61.05,1.21.05,1.81.03,5.31-2.12,10.39-5.94,14.07-3.66,3.56-8.57,5.55-13.67,5.54-2.6,0-5.18-.52-7.58-1.52-2.14-.89-4.44-1.35-6.77-1.34-2.32,0-4.62.45-6.76,1.34-2.4,1.01-4.98,1.52-7.59,1.52Zm14.41-35.97c-9.06-.02-16.42,7.31-16.44,16.38,0,1.12.9,2.02,2.02,2.02,0,0,0,0,.01,0,.29,0,.57-.06.83-.17,4.28-1.79,8.88-2.7,13.52-2.69,4.64,0,9.24.91,13.52,2.69.26.11.54.17.82.17.54,0,1.06-.22,1.45-.6.39-.37.61-.89.59-1.43,0-.29,0-.59-.02-.9-.57-8.62-7.67-15.35-16.3-15.47Z" fill="#fff"/>
      <path id="path1152" d="m0,0h300v299.8H0V0Z" fill="none"/>
    </g>
  </g>
</svg>