<?xml version="1.0" encoding="UTF-8"?>
<svg id="_레이어_2" data-name="레이어 2" xmlns="http://www.w3.org/2000/svg" viewBox="0 0 300 300">
  <g id="_레이어_1-2" data-name="레이어 1">
    <g id="_05동물_shape_05_0001" data-name=" 05동물 shape 05 0001">
      <rect id="_사각형_65" data-name="사각형 65" y="0" width="300" height="300" fill="none"/>
      <path id="bone" d="m283.64,69.62c-9.83-9.88-23.01-15.7-36.93-16.3C245.29,22.49,219.16-1.35,188.33.06c-13.92.64-27.09,6.45-36.95,16.3-19.38,19.43-21.81,50.05-5.73,72.29l-57,57c-9.53-6.94-21.01-10.66-32.8-10.63h0C25.01,135.04,0,160.06.02,190.91c.01,29.84,23.47,54.4,53.27,55.78,1.41,30.83,27.55,54.67,58.38,53.25,13.92-.64,27.09-6.45,36.94-16.3,19.38-19.43,21.81-50.05,5.73-72.29l57-57c24.98,18.11,59.91,12.55,78.02-12.42,16.12-22.23,13.7-52.88-5.72-72.3h0Zm-12.43,66.57c-14.95,14.95-39.18,14.95-54.13,0h0c-3.43-3.43-8.99-3.44-12.43,0h0s-68.46,68.46-68.46,68.46c-3.43,3.43-3.43,9,0,12.43h0c14.95,14.95,14.95,39.19,0,54.14-14.95,14.95-39.19,14.95-54.14,0-8.52-8.52-12.53-20.56-10.82-32.49.68-4.81-2.66-9.25-7.46-9.94-.41-.06-.82-.09-1.24-.09-.41,0-.83.03-1.24.09-1.8.26-3.61.38-5.42.38-21.14,0-38.28-17.14-38.28-38.28,0-21.14,17.14-38.28,38.28-38.28,10.15,0,19.89,4.03,27.06,11.21,3.43,3.43,9,3.43,12.43,0l68.46-68.46c3.43-3.43,3.43-9,0-12.43-14.95-14.95-14.95-39.19,0-54.14,14.95-14.95,39.19-14.95,54.14,0,8.52,8.52,12.53,20.56,10.82,32.49-.68,4.81,2.66,9.25,7.47,9.94.82.12,1.65.12,2.47,0,1.8-.25,3.61-.38,5.42-.38,21.14,0,38.28,17.14,38.28,38.28,0,10.15-4.03,19.89-11.21,27.07h0Z" fill="#fff"/>
    </g>
  </g>
</svg>