<?xml version="1.0" encoding="UTF-8"?>
<svg id="_레이어_2" data-name="레이어 2" xmlns="http://www.w3.org/2000/svg" viewBox="0 0 300 300">
  <g id="_레이어_1-2" data-name="레이어 1">
    <g>
      <path d="m29.3,0C30.47,0,31.64,0,32.82,0c1.7,1.9,3.65,3.63,5.04,5.73,3.21,4.86,5.66,10.31,9.29,14.81,12.61,15.65,29.53,24.07,48.91,28.15,2.99.63,5.34.09,7.93-1.46,6.75-4.03,14.13-6.5,21.84-8.01,12.27-2.4,24.68-1.96,37.05-1.42,10.51.45,20.91,2.47,29.97,7.93,6.03,3.64,11.55,3.57,17.64,1.39,1.01-.36,2.08-.53,3.1-.86,21.75-7.01,38.82-19.56,48.75-40.77.99-2.12,3.21-3.67,4.86-5.48,1.17,0,2.34,0,3.52,0,4.06,2.38,4.83,5.96,3.8,10.24-.23.94-.24,1.93-.33,2.9-1.08,11.45-1.86,22.94-5.19,34.05-3.1,10.35-7.81,19.74-16.07,27.02-1.29,1.14-2.63,2.21-4.24,3.56,11.23,2.89,21.04,7.69,29.73,14.72,8.64,6.98,15.73,15.33,21.6,24.72v3.52c-1.67,2.84-4.4,4.16-7.32,5.32-14.8,5.88-30.17,9.21-46.01,10.55-3.07.26-6.15.52-8.76.74-.58,5.31-.16,10.6-1.88,15.06-2.78,7.2-6.82,13.95-10.62,20.73-3.38,6.02-6.46,12.09-6.58,19.15-.15,8.69-.12,17.38-.1,26.07,0,.92.53,1.84.84,2.75,1.55,4.6,3.62,9.08,4.58,13.8,3.6,17.54-3.44,31.34-19.37,36.34-6.48,2.03-11.18,5.4-15.21,10.4-.43.53-.94.99-1.39,1.51-9.73,11.22-22.11,16.67-36.86,16.86-9.5.12-18.93-1.02-26.89-6.49-5.64-3.88-10.7-8.74-15.5-13.67-3.67-3.77-7.34-6.62-12.63-8.14-11.86-3.42-19.44-11.35-21.02-23.97-.91-7.26-.43-14.75,2.9-21.21,3.36-6.52,3.09-13.11,3.11-19.88,0-3.91.02-7.81,0-11.72-.04-6.05-1.16-11.85-4.22-17.14-2.49-4.3-5.07-8.56-7.62-12.83-3.06-5.14-5.91-10.42-6.54-16.45-.38-3.63-.07-7.34-.07-11.1-1.08-.12-1.65-.17-2.22-.24-9.38-1.19-18.9-1.73-28.09-3.76-9.46-2.09-18.68-5.42-27.87-8.6-4.6-1.59-5.96-5.84-3.39-9.67,8.79-13.06,19.43-24.23,33.78-31.24,5.09-2.48,10.49-4.32,15.87-6.49-.66-.55-1.33-1.1-1.99-1.65-.75-.62-1.52-1.22-2.24-1.88-10-9.07-14.99-20.86-17.37-33.73-1.82-9.86-2.43-19.94-3.9-29.87C24.81,5.92,25.23,2.38,29.3,0Zm120.41,212.61s0,.03,0,.05c-10.83,0-21.67-.31-32.49.08-13.04.46-26.28,7.17-28.98,23.44-.38,2.3-.65,4.65-.66,6.98-.03,5.54,1.48,10.65,6.5,13.56,3.56,2.06,7.54,3.65,11.53,4.62,10.01,2.44,19.23,1.47,27.65-5.7,6.65-5.65,15.16-7.11,23.5-4.58,5.09,1.54,9.56,5.04,14.42,7.43,3.18,1.56,6.55,3.81,9.84,3.82,6.16.02,12.45-.87,18.46-2.31,5.89-1.42,10.79-4.99,12.22-11.35.75-3.34.7-6.99.33-10.42-.77-7.17-3.35-13.56-9.24-18.27-6.47-5.18-13.95-7.22-22.04-7.3-10.34-.1-20.69-.03-31.03-.03ZM87.54,59.67c-17.83-4.93-33.53-13.39-46.7-26.58.79,4.55,1.71,8.92,3.06,13.16,4.94,15.59,15.59,24.71,31.7,27.4.85.14,2.24-.21,2.7-.83,3.12-4.21,6.06-8.56,9.25-13.14Zm171.44-26.54c-13.08,13.3-28.89,21.61-46.5,26.57,3.17,4.55,6.11,8.89,9.21,13.11.43.59,1.74,1.08,2.41.86,5.15-1.67,10.64-2.82,15.28-5.45,13.43-7.61,17.32-20.97,19.6-35.1Zm-155.58,116.89c2.93,0,5.85.01,8.78,0,2.68-.01,4.75-1.16,5.9-3.59,1.15-2.43.66-4.71-.95-6.84-4.56-6.03-10.78-8.49-18.13-8.24-6.74.23-10.74,4.25-11.37,11-.42,4.58,2.09,7.51,6.69,7.66,3.02.1,6.05.02,9.07.01Zm93.19,0h0c3.12-.01,6.25.08,9.36-.04,3.66-.14,5.87-2.17,6.39-5.6.86-5.69-2.64-11.05-8.18-12.53-7.44-1.99-16.28,1.18-21.12,7.49-1.69,2.2-2.35,4.53-1.13,7.08,1.21,2.55,3.4,3.63,6.19,3.6,2.83-.02,5.66,0,8.49,0Z" fill="#fff"/>
      <path d="m124.86,242.87c.02,3.7-1.67,6.01-4.33,6.82-2.63.8-5.42-.14-6.88-2.48-.72-1.14-1.14-2.47-1.79-3.66-1.64-3.02-3.29-5.84-7.3-6.41-3.01-.43-4.74-3.54-4.37-6.65.36-3.07,2.89-5.36,6.26-5.4,3.76-.04,7,1.46,9.82,3.88,4.58,3.93,7.37,8.92,8.61,13.9Z" fill="#fff"/>
      <path d="m175.14,244.44c-.13-8.18,9.73-18.84,17.4-19.34,3.82-.25,6.8,1.9,7.27,5.24.5,3.57-1.45,6.25-5.35,7.02-3.45.68-4.75,3.45-6.24,6.05-.73,1.26-1.14,2.7-1.92,3.92-1.46,2.28-4.38,3.23-6.94,2.32-2.65-.94-4.06-2.88-4.21-5.2Z" fill="#fff"/>
    </g>
  </g>
</svg>