<?xml version="1.0" encoding="UTF-8"?>
<svg id="Layer_2" data-name="Layer 2" xmlns="http://www.w3.org/2000/svg" viewBox="0 0 300 300">
  <g id="_레이어_1" data-name="레이어 1">
    <g>
      <g>
        <path d="m151.81,12.71C68.97,11.71,1,78.06,0,160.9v.02c0,.98.8,1.76,1.78,1.76.96,0,1.73-.77,1.73-1.73C4.44,81.38,68.72,17.11,148.29,16.17c80.91-.95,147.27,63.87,148.22,144.78,0,.96.78,1.73,1.73,1.73h0c.98,0,1.76-.8,1.76-1.78-.98-81.43-66.76-147.21-148.19-148.19Z" fill="#fff"/>
        <path d="m296.51,283.8h-39.26v-26.05c9.43-1.74,16.59-17.41,16.59-37.11,0-20.9-8.06-37.28-18.35-37.28s-18.35,16.37-18.35,37.28c0,19.69,7.15,35.36,16.58,37.11v26.05h-26.04V117.74c0-.49-.2-.95-.56-1.28l-79.97-74.13c-.32-.3-.75-.47-1.19-.47-.97,0-1.75.78-1.75,1.75v90.26c0,.58-.29,1.12-.77,1.45l-72.71,49.26c-.48.33-.77.87-.77,1.45v97.77h-27.58v-26.05c9.43-1.74,16.59-17.42,16.59-37.11,0-20.9-8.06-37.28-18.35-37.28s-18.35,16.37-18.35,37.28c0,19.69,7.15,35.36,16.58,37.11v26.05H3.49s-.07,0-.11,0c-.97.03-1.73.84-1.7,1.8.03.97.84,1.73,1.8,1.7h293.02s.07,0,.11,0c.97-.03,1.73-.84,1.7-1.8s-.84-1.73-1.8-1.7ZM25.8,220.64c0-18.29,6.79-33.75,14.82-33.75s14.82,15.46,14.82,33.75-6.79,33.75-14.82,33.75-14.82-15.46-14.82-33.75Zm121.92-83.06c0-.58.29-1.12.77-1.45l22.29-15.1c.29-.2.63-.3.98-.3.97,0,1.75.78,1.75,1.75l.08,88.31c0,.32-.08.63-.25.91-.5.83-1.57,1.1-2.4.61l-22.37-13.33h0c-.53-.32-.86-.89-.85-1.51v-59.88Zm-21.69,146.22h-21.79v-32.98c0-.97.78-1.75,1.75-1.75h18.29c.97,0,1.75.78,1.75,1.75v32.98Zm98.16,0h-94.66v-36.48c0-.97-.79-1.75-1.75-1.75h-25.3c-.97,0-1.75.78-1.75,1.75v36.48h-27.26v-95.91c0-.58.29-1.12.77-1.45l67.24-45.56c.29-.2.63-.3.98-.3.97,0,1.75.78,1.75,1.75v57.12c0,.62.32,1.19.85,1.51l29.39,17.51c.27.16.59.25.9.25.97,0,1.75-.79,1.74-1.76l-.1-101.08c0-.35-.11-.69-.3-.98-.54-.8-1.63-1.01-2.43-.47l-23.82,16.13c-.29.2-.63.3-.98.3-.97,0-1.75-.78-1.75-1.75V51.63c0-.44.17-.87.47-1.19.66-.71,1.76-.75,2.47-.09l72.97,67.64c.36.33.56.8.56,1.28v164.54Zm16.48-63.16c0-18.29,6.79-33.75,14.82-33.75s14.82,15.46,14.82,33.75-6.79,33.75-14.82,33.75-14.82-15.46-14.82-33.75Z" fill="#fff"/>
      </g>
      <rect x="0" width="300" height="300" fill="none"/>
    </g>
  </g>
</svg>