<?xml version="1.0" encoding="UTF-8"?>
<svg id="Layer_2" data-name="Layer 2" xmlns="http://www.w3.org/2000/svg" viewBox="0 0 300 300">
  <g id="_레이어_1" data-name="레이어 1">
    <g>
      <path id="_패스_575" data-name="패스 575" d="m299.87,67.92c-.09-1.14-.99-3.07-1.71-3.17-4.26-.67-8.56-1.01-12.87-1.01-28.8.56-54.4-7.1-74.51-28.92-1.24-1.72-2.08-3.7-2.48-5.78-.79-3.96-1.82-7.88-3.1-11.71-3.15-7.3-4.95-7.7-10.68-2.3-27.82,26.27-61.68,34.7-98.71,34.05-13.85-.25-27.71-.56-41.56-.65-6.84-.04-8.52,2.78-5.85,9.17.64,1.77,1.44,3.49,2.39,5.12,2.7,4.12,1.27,7.31-2.34,9.56-14.07,8.77-28.08,17.65-42.45,25.91-7.24,4.16-7.66,3.96-2.72,11.02-.71,1.01-1.42,2.02-2.45,3.49,2.53.59,4.49,1.11,6.47,1.5,16.78,3.32,33.57,6.59,50.34,9.98,1.42.29,3.47,1.03,3.9,2.1,2.22,5.59,14.31,9.84,17.92,5.28,1.08-1.41,2.44-2.59,3.99-3.46-13.36,13.43-21.89,30.24-26.92,49.51l-.76-.34,6.23-22.58c-1.56,3.01-2.65,6.18-4.04,9.22-1.86,4.06-1.43,9.07-5.48,12.28-1.08,1.26-1.68,2.86-1.68,4.52-.33,3.87-.44,7.76-.35,11.64.37,13.39,3.51,26.56,9.23,38.67,7.44,16.96,19.51,31.48,34.82,41.9,7.9,5.19,16.42,9.38,25.34,12.5,2.88.91,5.8,1.67,8.76,2.28.87.21,1.76.33,2.65.36,5.17.22,10.34.51,15.52.59,2.67.04,5.34-.06,8.01-.17l-5.53-.19c-.02-.28-.03-.55-.05-.83,11.05-.37,21.92-2.88,32.02-7.38,14.72-7.06,25.1-15.39,26.37-18.48-4.96,3.47-10.37,7.06-15.56,10.94-5.43,3.66-11.4,6.45-17.7,8.26,6.09-3.39,12.57-6.09,18.46-10.53l-1.3.27c.03-.41.22-.78.53-1.05,2.93-2.65,5.89-5.28,8.78-7.97.65-.5,1.1-1.22,1.27-2.02.02-2.04,1.01-3.95,2.67-5.14,1.07-.7,1.36-2.13.66-3.2-.07-.11-.15-.21-.24-.3-1.52.77-2.67,1.56-2.56,3.47.05.76-.2,1.51-.7,2.09-1.67,1.47-3.62,2.62-5.25,4.12-6.15,5.2-12.99,9.53-20.33,12.86-2.97,1.52-6.18,2.6-9.28,3.87,3.07-1.82,6.37-3.11,9.42-4.84,2.99-1.71,5.72-3.87,8.57-5.83-17.45,10.15-35.86,14.68-55.91,10.86,5.39-.47,10.86,2.32,16.24-.5-.52-.16-1.05.1-1.58.11-9.05.18-18.05-1.47-26.44-4.87-14.08-5.37-26.44-14.45-35.79-26.27-6.34-7.51-10.83-16.4-13.11-25.96-.22-1.11.13-2.7-1.76-2.97-.22-.03-.37-.97-.43-1.5-.1-.81.02-1.64-.14-2.43-2.1-10.2-1.58-20.77,1.51-30.72,3.66-12.38,10.36-23.16,17.84-33.5.7-.83,1.46-1.6,2.27-2.31-9.79,14.2-19.05,28.53-20.4,46.39.39-1.14.71-2.3.95-3.47,1.18-4.57,2.07-9.24,3.66-13.67,3.34-8.41,8.14-16.16,14.18-22.9,4.42-5.7,9.52-10.84,15.19-15.29,5.12-3.92,10.71-7.19,16.63-9.74,1.57.6,2.25,2,2.82,4.24,2.38,9.42,2.67,9.69,12.19,8.08,8.97-1.52,9.06-.05,6.43-9.66-.31-1.14-.47-2.32-1.03-5.18,9.34,0,17.99-.01,26.65,0,3.19-.22,6.1,1.84,6.94,4.93,1.22,3.37,3.96,5.82,7.52,4.71,2.84-.89,5.53-2.21,7.98-3.91,1.7,1.3,3.24,2.8,4.57,4.47,2.92,3.59,6.5,6.65,8.11,11.19.1.3.53.48.81.72l.38-.27c-1.41-2.59-2.83-5.19-4.25-7.79l.67-.39,7.88,12.41c-.26-1.38-.43-2.33-.61-3.29l.55-.07c2.6,9.61,7.7,18.68,5.71,29.3,4.72-5.85,1.24-12.27,1.8-18.5l2.64,4.61c.36-2.32-1.51-4.38-.2-6.51.4.76.46,1.58.77,2.31.72,1.69,1.58,3.32,2.31,5.01.18.41.27,1.29.12,1.36-1.45.68-.61,1.76-.32,2.47,1.55,4.54,1.94,9.4,1.14,14.13-.11.39-.3.75-.56,1.07-1.61,2.62-3.34,5.19-4.8,7.89-.71,1.36-2.06,2.26-3.59,2.39-.86.17-1.62.66-2.14,1.36-1.11,1.67-1.87,3.57-2.94,5.27-4.48,7.45-6.46,16.14-5.65,24.8.1,4.36,3.28,8.04,7.58,8.76,2.87.61,5.78,1.05,8.7,1.3,1.49.06,2.89.88,4.15.71,4.25-.5,8.05-2.9,10.32-6.53,1.33-2,3.05-3.74,4.5-5.68,1.8-1.89,3.27-4.07,4.35-6.45,1.5-5.03,2.29-10.29,3.31-15.46.41-1.82.67-3.68.77-5.55.13-5.13-.11-10.28.18-15.4.78-15.56-2.6-31.05-9.81-44.86-1.27-2.34-2.74-4.57-4.41-6.65-4.28-5.68-9.38-10.74-14.17-16.03h0c4.99,6.93,10.11,13.96,15.11,21.08.79,1.42,1.43,2.93,1.9,4.49l-.67.53c-4.78-10.61-12-19.93-21.07-27.21.84-.32,1.69-.65,2.53-.98,3.49-1.43,7.45-1.13,10.68.82,8.82,4.63,10.86,3.99,16.21-4.7,1.16-2.46,2.18-4.99,3.06-7.56.64-2.05,1.79-3.91,3.34-5.41,6.93-4.6,14.14-8.77,21.26-13.1.05.76.11,1.52.17,2.27,2.58.97,5.22,1.8,7.89,2.47,2.04.14,4.09.17,6.13.08,8.8,1.15,16.87-5.06,18.01-13.86.18-1.37.18-2.76,0-4.14ZM76.46,242.16c-4.62-7.03-7.95-14.82-9.83-23.02,3.27,7.63,6.7,15.66,9.83,23.02Zm17.98-142.07c2.5-8.55,3.52-17.47,3.03-26.37-.5-10.61,6.04-15.44,19.82-15.57.3,2.73.67,5.53.92,8.35.9,10.08,2.25,20.15,2.49,30.25,0,7.69-.62,15.37-1.87,22.96-.91,1.98-2.74,3.37-4.89,3.7-8.44.39-16.91.17-25,.17,2.01-8.68,3.36-16.21,5.51-23.5h-.01Zm-18.82,11.48c-4.19,7.56-10.58,10.05-19.18,8.37-11.9-2.33-23.8-4.68-35.69-7.06l-.93-1.46c1.15-.56,2.26-1.2,3.31-1.93,12.63-10.21,24.56-21.29,38.37-30.03,4.29-2.72,7.89-6.54,7.91-12.48.23-1.47,1.19-2.74,2.54-3.36,5.03-1.36,10.18-2.26,16.57-3.6-2.52,18.81-4.32,36.07-12.9,51.56h0Zm-13.46,61.62c1.23-6.64,3.45-13.05,6.6-19.02l.67.27-7.27,18.74Zm19.39-36.2c-1.4,1.88-3.07,3.57-4.45,5.48-1.98,2.74-3.81,5.6-5.7,8.4,3.27-7.59,8.12-14.39,14.24-19.94-1.46,2.21-2.68,4.2-4.07,6.07h-.01Zm58.67-15.51c-1.02.03-2.89-2.48-3.07-3.97-1.84-15.66-3.37-31.35-5.06-47.02-.3-3.75-.87-7.47-1.69-11.14-.83-3.28.36-4.4,3.34-4.78,6.42-.82,12.83-1.74,19.8-2.69,1.69,23.19,2.4,46.42,13.89,67.9-9.52.67-18.35,1.43-27.19,1.71h-.01Zm47.79-5.46c-1.85.25-3.71-.44-4.95-1.84-6.49-9.42-12.84-18.94-18.8-28.69-1.28-2.58-1.81-5.48-1.51-8.35.39-7,1.25-13.98,2.05-20.95,1.06-9.18,1.38-9.43,11.2-10.35.31.56.54,1.16.68,1.78,1.97,20.24,15.65,33.09,29,46.11,3.86,3.76,7.95,7.29,12.07,11.06-10.31,3.97-19.95,7.81-29.74,11.24h0Zm56.13-24.43c-5.68,5.03-10.13,4.74-16.7,1.86-9.94-4.26-18.51-11.16-24.8-19.95-7.25-9.93-16.09-18.74-20.45-31.19,2.46-.28,4.96.09,6.76-.87,9.12-4.83,15.39.67,21.81,5.67,11.99,9.36,22.87,20.26,37.16,26.38,4.84,2.07,9.56,4.39,14.39,6.61-5.97,3.68-12.81,6.74-18.16,11.49h-.01Z" fill="#fff"/>
      <rect width="300" height="300" fill="none"/>
    </g>
  </g>
</svg>