<?xml version="1.0" encoding="UTF-8"?>
<svg id="Layer_2" data-name="Layer 2" xmlns="http://www.w3.org/2000/svg" viewBox="0 0 300 300">
  <g id="_레이어_1" data-name="레이어 1">
    <g>
      <path id="_합치기_24" data-name="합치기 24" d="m250.3,215.37c-8.89,11.08-25.07,12.85-36.15,3.97-1.46-1.17-2.79-2.5-3.97-3.97-8.89,11.08-25.08,12.85-36.16,3.97-1.46-1.17-2.79-2.5-3.97-3.97-8.89,11.08-25.08,12.85-36.16,3.97-1.46-1.17-2.79-2.5-3.97-3.97-8.89,11.08-25.07,12.85-36.15,3.97-1.46-1.17-2.79-2.5-3.97-3.97-4.88,6.09-12.26,9.63-20.06,9.62-7.8,0-15.18-3.54-20.06-9.62-4.88,6.09-12.26,9.63-20.06,9.62-14.21,0-25.73-11.52-25.73-25.74,0-14.21,11.52-25.73,25.73-25.73h0c7.8,0,15.18,3.53,20.06,9.62,4.88-6.09,12.26-9.63,20.06-9.62,7.8,0,15.18,3.53,20.06,9.62,3.35-4.17,7.92-7.19,13.07-8.65v-9.68c0-1.61.41-2.03,2-2.03h4.02v-19.96c-.36,0-.7,0-1.04,0-1.79-.03-2.35-.93-1.56-2.51,1.99-3.99,3.98-7.97,5.97-11.94,1.83-3.64,3.65-7.28,5.46-10.93.22-.45.34-.93.35-1.43.02-4.01,0-8.02.01-12.04,0-1.84.91-2.42,2.54-1.61,2.72,1.35,5.43,2.7,8.14,4.06.67.33,1.3.69,1.28,1.58-.02.85-.63,1.17-1.27,1.49-2.4,1.2-4.8,2.41-7.21,3.59-.41.15-.68.55-.66.99-.1,1.66.27,3.33,1.06,4.79,3.6,7.02,7.1,14.09,10.63,21.15.11.23.23.45.33.68.39.67.16,1.53-.51,1.92-.22.13-.47.19-.72.19-.49.05-1,0-1.63,0v4.78h2.96q3.13,0,3.13,3.17v1.31h3.18v-19.9c-.5,0-.96.02-1.43,0-.78.07-1.47-.51-1.54-1.28-.03-.31.05-.62.22-.89.11-.26.25-.51.38-.76,3.72-7.42,7.43-14.85,11.14-22.28.27-.56.42-1.18.43-1.8.04-3.89.04-7.77,0-11.66-.1-.82.23-1.63.87-2.15h1.14c1.02.55,2.03,1.12,3.06,1.64,1.91.97,3.83,1.93,5.77,2.88.64.31,1.15.71,1.15,1.47s-.53,1.16-1.16,1.47c-2.38,1.17-4.74,2.39-7.14,3.53-.55.23-.89.79-.85,1.38-.07,1.57.29,3.14,1.06,4.51,3.59,7.03,7.05,14.12,10.66,21.13,1,1.96.07,3.08-1.69,2.82-.26,0-.53,0-.79.06v19.87h3.19c0-.97-.01-1.9,0-2.83.02-1.19.48-1.65,1.68-1.67,1.42-.02,2.84,0,4.33,0v-4.77c-.44,0-.85.02-1.25,0-1.51-.06-2.1-1.01-1.43-2.36,1.97-3.96,3.96-7.9,5.94-11.85,1.85-3.7,3.72-7.38,5.54-11.1.26-.53.39-1.11.4-1.7.03-3.98.01-7.97.02-11.95,0-1.71.91-2.28,2.46-1.52,2.78,1.37,5.54,2.77,8.31,4.14.63.31,1.17.68,1.19,1.45.02.81-.56,1.21-1.22,1.53-2.35,1.16-4.68,2.36-7.05,3.49-.56.21-.91.75-.88,1.35-.07,1.63.31,3.26,1.11,4.68,3.58,7,7.06,14.04,10.58,21.07.97,1.94.48,2.74-1.7,2.78-.25,0-.49.04-.77.06v19.9c1.44,0,2.82,0,4.21,0,1.35,0,1.82.48,1.82,1.83v9.88c5.15,1.46,9.72,4.48,13.07,8.65,8.9-11.08,25.09-12.85,36.17-3.95,1.46,1.17,2.78,2.49,3.95,3.95,8.9-11.08,25.1-12.85,36.18-3.96,11.08,8.9,12.85,25.09,3.96,36.18-8.9,11.08-25.1,12.85-36.18,3.96-1.46-1.17-2.79-2.5-3.96-3.96h0Zm-100.28-51.07c6.2-.04,11.39,4.67,11.95,10.84.03.46.05.92.06,1.37,3,1.59,5.66,3.76,7.82,6.38v-32.4h-3.19c0,.92,0,1.77,0,2.62-.02,1.35-.5,1.85-1.83,1.87-1.77.02-3.54.02-5.32,0-1.3-.01-1.77-.49-1.79-1.78-.01-.9,0-1.8,0-2.72h-3.12c-.06.12-.1.18-.1.23-.01.85,0,1.7-.04,2.56-.04,1.17-.52,1.69-1.69,1.7-1.84.03-3.67.02-5.51,0-1.23-.01-1.71-.51-1.74-1.75-.02-.9,0-1.81,0-2.76h-3.26c0,.92,0,1.8,0,2.68-.02,1.35-.48,1.82-1.83,1.84-1.74.02-3.48.02-5.23,0-1.4,0-1.87-.5-1.88-1.9,0-.88,0-1.74,0-2.59h-3.18v32.4c2.15-2.61,4.8-4.77,7.78-6.37.02-.48.04-.95.08-1.43.63-6.15,5.82-10.82,12-10.8h0Zm22.78,15.92c5.78-5.28,13.66-7.63,21.39-6.38v-8.19h-3.17c0,.95,0,1.86,0,2.76-.02,1.21-.52,1.74-1.73,1.75-1.8.02-3.6.02-5.41,0-1.29,0-1.77-.5-1.79-1.77,0-.9,0-1.81,0-2.79h-3.25v2.42c0,1.71-.42,2.14-2.11,2.14h-3.93v10.05Zm-45.62,0v-10.05c-1.46,0-2.88.01-4.29,0-1.21-.01-1.72-.53-1.74-1.75-.02-.9,0-1.81,0-2.73h-3.24v2.71c-.01,1.24-.49,1.75-1.7,1.77-1.83.02-3.67.02-5.51,0-1.21,0-1.71-.54-1.72-1.76-.01-.9,0-1.81,0-2.75h-3.17v8.19c7.73-1.25,15.6,1.1,21.38,6.37Zm31.94-5.03c-.63-5.04-5.22-8.62-10.26-7.99-4.18.52-7.47,3.81-7.99,7.99,5.88-2.23,12.37-2.23,18.25,0Zm24.04-12.42c1.28,0,1.76.5,1.77,1.79,0,.9,0,1.8,0,2.72h3.19v-24.41h-15.27v24.39h3.16c0-.94,0-1.82,0-2.7,0-1.31.46-1.78,1.75-1.79.9,0,1.81,0,2.71,0,.9,0,1.8,0,2.7,0Zm-60.83,0c1.17,0,1.64.5,1.66,1.68.01.94,0,1.87,0,2.82h3.16v-24.4h-15.25v24.4h3.06c.04-.07.06-.15.08-.24,0-.85,0-1.71.02-2.56.02-1.18.51-1.69,1.67-1.7.87,0,1.74-.01,2.6-.01,1,0,2,0,3,.01h0Zm24.11-15.2c1.51,0,1.92.41,1.93,1.91,0,.87,0,1.74,0,2.61h3.25c0-1.02-.02-1.93,0-2.84.03-1.2.48-1.65,1.68-1.68,1.17-.02,2.34-.04,3.51,0,.71.03.92-.18.92-.9-.03-4.55-.03-9.1,0-13.64,0-.72-.22-.9-.92-.9-4.53.03-9.05.03-13.58,0-.71,0-.99.15-.98.93.04,4.55.01,9.1.02,13.65,0,.27.05.54.08.86h2.08c.68,0,1.35,0,2.01,0h0Zm-36.75-7.65h19.72l-9.87-19.68-9.85,19.68Zm60.92-.02h19.7c-3.29-6.57-6.53-13.04-9.85-19.66-3.31,6.61-6.56,13.09-9.85,19.66h0Zm-30.45-10.66h19.68c-3.29-6.56-6.52-13.02-9.84-19.63-3.32,6.64-6.54,13.06-9.84,19.64h0Zm-19.14-19.07c1.5-.75,2.89-1.44,4.48-2.23-1.61-.8-3.03-1.51-4.48-2.22v4.45Zm60.93,0c1.49-.74,2.89-1.44,4.46-2.22-1.59-.79-2.99-1.48-4.46-2.21v4.43Zm-30.45-10.64c1.51-.76,2.92-1.46,4.44-2.22-1.54-.77-2.96-1.48-4.44-2.21v4.43Zm96.45,65.77c-1.36-6.14-3.19-12.16-5.47-18.02-.49-1.19.08-2.55,1.27-3.04,1.19-.49,2.55.08,3.04,1.27.01.02.02.05.03.08,2.37,6.08,4.27,12.33,5.68,18.7.36,1.24-.36,2.53-1.6,2.89-1.24.36-2.53-.36-2.89-1.6-.03-.09-.05-.19-.06-.28h0Zm-198.68,1.7c-1.26-.28-2.05-1.53-1.77-2.78,1.42-6.37,3.32-12.62,5.69-18.7.47-1.2,1.82-1.79,3.02-1.33,1.2.47,1.79,1.82,1.33,3.02-2.28,5.86-4.12,11.88-5.49,18.02-.23,1.07-1.18,1.83-2.27,1.83-.17,0-.34-.02-.5-.05h0Zm162.09-3.19c-.63-1.15-1.25-2.31-1.91-3.46-.15-.25-.37-.47-.62-.62-1.33-.76-2.69-1.48-4.09-2.25.54-.3,1.04-.58,1.53-.85.86-.48,1.73-.93,2.58-1.43.25-.14.45-.35.6-.6.68-1.2,1.34-2.42,2.01-3.64.08-.14.16-.28.27-.47.65,1.19,1.31,2.31,1.88,3.47.33.71.91,1.29,1.62,1.62,1.04.5,2.03,1.09,3.04,1.64.13.07.26.16.43.25-1.28.7-2.5,1.39-3.75,2.04-.51.25-.92.66-1.17,1.17-.64,1.25-1.34,2.48-2.04,3.76-.14-.24-.25-.44-.36-.65h0Zm-128.44-4.61c-.71-1.29-1.4-2.59-2.13-3.87-.17-.29-.41-.53-.7-.7-1.5-.85-3.02-1.66-4.57-2.51.6-.33,1.15-.64,1.71-.94.97-.53,1.94-1.04,2.89-1.59.27-.17.5-.4.67-.67.77-1.34,1.5-2.71,2.24-4.07.09-.16.18-.32.3-.53.73,1.32,1.46,2.58,2.11,3.88.37.8,1.01,1.44,1.82,1.81,1.15.56,2.26,1.22,3.4,1.84.14.08.29.17.48.28-1.42.78-2.8,1.56-4.19,2.28-.57.28-1.03.74-1.31,1.3-.73,1.4-1.51,2.78-2.29,4.21-.14-.27-.27-.5-.4-.72h0Zm36.58-4.23c-2.46-.05-4.43-2.05-4.44-4.51.03-2.46,2.05-4.43,4.51-4.4h0c2.43,0,4.41,1.96,4.42,4.4,0,.03,0,.05,0,.08-.02,2.45-2,4.42-4.44,4.44h-.04Zm-1.58-4.46c.03.86.71,1.55,1.56,1.6.89.02,1.63-.69,1.65-1.58,0,0,0,0,0,0,.04-.86-.63-1.58-1.49-1.62-.03,0-.07,0-.1,0h0c-.89,0-1.61.71-1.61,1.6,0,0,0,0,0,0h0Zm62.5,4.45c-2.46-.02-4.44-2.04-4.42-4.5,0-2.43,1.97-4.4,4.4-4.4h.09c2.46,0,4.45,2.01,4.44,4.47,0,0,0,0,0,0-.04,2.44-2.01,4.4-4.45,4.43h-.06Zm-.03-6.06c-.86.01-1.55.72-1.53,1.58,0,.03,0,.07,0,.1.05.86.76,1.52,1.62,1.52.89-.03,1.6-.76,1.6-1.66-.03-.87-.75-1.56-1.62-1.54h-.06Zm-34.85-9.02c-.02-2.46,1.96-4.48,4.43-4.5,2.46-.02,4.48,1.96,4.5,4.43.02,2.46-1.96,4.48-4.43,4.5h-.04c-2.45,0-4.43-1.98-4.45-4.42h0Zm2.86-.12c-.05.88.63,1.64,1.51,1.69s1.64-.63,1.69-1.51c.05-.88-.63-1.64-1.51-1.69-.03,0-.05,0-.08,0h0c-.85,0-1.56.66-1.6,1.51h0Zm71.41,1.29c-.38-.69-.75-1.39-1.14-2.07-.09-.16-.22-.28-.37-.37-.79-.45-1.61-.89-2.44-1.35.32-.18.62-.34.91-.5.52-.29,1.04-.56,1.55-.86.15-.09.27-.21.36-.36.41-.72.8-1.45,1.2-2.18.05-.08.1-.17.17-.28.38.71.78,1.38,1.12,2.07.2.43.54.77.97.97.62.3,1.21.65,1.82.98.08.04.15.09.25.15-.76.42-1.49.83-2.24,1.22-.3.15-.55.4-.7.7-.39.75-.8,1.48-1.22,2.25-.08-.14-.15-.26-.22-.38h0Zm14.48-10.74c-3.17-5.42-6.79-10.57-10.81-15.39-.76-1.04-.54-2.5.5-3.26.95-.69,2.26-.58,3.07.27,4.19,5.02,7.95,10.38,11.26,16.03.65,1.11.28,2.54-.83,3.19-1.11.65-2.54.28-3.19-.83h0Zm-171.73.76c-1.11-.65-1.48-2.08-.83-3.19,3.31-5.64,7.07-10.99,11.26-16.01.83-.99,2.3-1.12,3.28-.29.99.83,1.12,2.3.29,3.28-4.03,4.82-7.65,9.96-10.82,15.38-.42.71-1.19,1.15-2.01,1.15-.41,0-.82-.11-1.17-.32h0Zm147.67-29.47c-4.79-4.03-9.95-7.6-15.41-10.67-1.12-.63-1.52-2.05-.9-3.17s2.05-1.52,3.17-.9c5.71,3.21,11.12,6.95,16.13,11.16.99.82,1.12,2.29.29,3.28-.44.53-1.1.84-1.79.83-.55,0-1.08-.19-1.49-.54h0Zm-123.69-.33c-.83-.98-.7-2.45.29-3.28,5.02-4.22,10.42-7.95,16.14-11.16,1.12-.63,2.54-.23,3.17.9.63,1.12.23,2.54-.9,3.17-5.46,3.06-10.62,6.63-15.42,10.66-.42.35-.95.55-1.49.54-.69,0-1.34-.3-1.78-.83h0Zm91.13-17.82c-5.95-1.91-12.08-3.19-18.29-3.84-1.27-.2-2.14-1.39-1.94-2.67.19-1.18,1.24-2.04,2.43-1.97,6.53.68,12.98,2.04,19.23,4.05,1.22.39,1.9,1.7,1.51,2.93-.31.96-1.21,1.62-2.22,1.62-.24,0-.48-.04-.72-.11h0Zm-58.2-1.53c-.39-1.22.28-2.53,1.5-2.92h0c6.26-2,12.7-3.35,19.24-4.03,1.28-.15,2.43.76,2.59,2.03s-.76,2.43-2.03,2.59c-.02,0-.05,0-.07,0-6.21.65-12.35,1.93-18.3,3.83-.23.07-.47.11-.71.11-1.01,0-1.91-.66-2.21-1.62h0Z" fill="#fff"/>
      <rect width="300" height="300" fill="none"/>
    </g>
  </g>
</svg>