<?xml version="1.0" encoding="UTF-8"?>
<svg id="Layer_2" data-name="Layer 2" xmlns="http://www.w3.org/2000/svg" viewBox="0 0 300 300">
  <g id="_레이어_1" data-name="레이어 1">
    <path id="_패스_741" data-name="패스 741" d="m252.81,0H47.2C21.13,0,0,21.13,0,47.2h0v205.61c0,26.07,21.13,47.2,47.2,47.2h205.61c26.07,0,47.2-21.13,47.2-47.2h0V47.2c0-26.07-21.13-47.2-47.19-47.2h0Zm-36.57,179.45c-.13,3.74-.49,7.48-1.08,11.18-3.3,18.58-14.36,34.87-30.4,44.79-16.14,9.72-35.55,12.44-53.74,7.53-16.81-4.47-31.11-15.52-39.66-30.66-6.62-12.18-8.71-26.3-9.34-40.16-.13-2.8.03-6.09,2.31-7.71,1.44-.82,3.08-1.21,4.74-1.1,6.16-.19,12.33-.1,18.49.27,1.1-.01,2.19.22,3.19.67,2.66,1.45,2.66,5.18,2.5,8.2-.39,5.29.08,10.61,1.42,15.75,5.37,19.15,25.24,30.32,44.39,24.95,17.36-4.87,28.45-21.82,25.94-39.68-.37-2.65-.91-5.76.96-7.66.85-.76,1.86-1.31,2.96-1.6,5.69-1.86,11.73-2.35,17.64-1.42,6.43,1,10.06,2.5,9.9,9.53-.07,2.37-.12,4.75-.23,7.12h.01Zm46.24-50.65c-.8,17.12-.21,34.3-.22,51.45,0,18.2-.28,36.41.12,54.6.18,7.81-2.64,10.27-10.38,10.25-20.94-.05-20.94.27-20.94-21.09,0-28-.2-56.01.17-84.01.09-6.82-1.9-10.61-8.17-13.86-22.01-11.44-43.71-23.49-65.34-35.62-4.71-3.09-10.79-3.12-15.53-.09-22.04,12.13-44.19,24.1-66.56,35.63-9.79,5.04-8.17,14.16-8.2,21.83-.12,27.25.43,54.49,1.63,81.73.47,10.82-3.13,14.07-13.7,13.49-20.21-1.12-17.46,3.06-17.69-18.03-.13-11.55-.13-23.1-.02-34.66.16-15.44-.6-48.98.35-64.36.12-5.04,1.75-9.92,4.67-14.03,1-1.25,2.09-2.42,3.27-3.51,2.86-2.69,6.09-4.97,9.58-6.76,7.84-4.12,15.19-9.15,23.13-13.08,30.45-15.09,50.85-26.99,50.85-26.99,5.22-3.05,11.71-6.92,20.52-6.76,5.79.24,11.41,1.99,16.31,5.08,27.12,15.85,55.07,30.29,82.8,45.07,9.73,5.17,13.86,12.43,13.34,23.73h.01Z" fill="#fff"/>
  </g>
</svg>