<?xml version="1.0" encoding="UTF-8"?>
<svg id="Layer_2" data-name="Layer 2" xmlns="http://www.w3.org/2000/svg" viewBox="0 0 300 300">
  <g id="_레이어_1" data-name="레이어 1">
    <g>
      <path id="_패스_849" data-name="패스 849" d="m262.52,69.26C238.98,21.96,188.13-5.3,135.71,1.29,90.12,6.75,56.66,31.11,37.39,71.65c-21.06,44.28-17.88,89.72,13.87,127.48,29.75,35.38,64.83,66.28,98.97,100.55,31.38-30.94,61.58-59.71,90.64-89.6,37.47-38.55,45.46-93.76,21.67-140.83Zm-114.68,120.72h-15.08v-16.58h15.08v16.58Zm0-19.82h-15.08v-16.59h15.08v16.59Zm20.2,19.82h-15.08v-16.58h15.08v16.58Zm0-19.82h-15.08v-16.59h15.08v16.59Zm39.91,25.85c-.07-15.58-.14-31.16-.22-46.74l20.46-.23-68.93-65.67c-2.13-2.49-5.04-4.18-8.26-4.81-1.8-.23-3.62-.11-5.38.34-11.9,3.18-49.07,45.09-70.81,65.35-2.41,2.25-4.37,3.98-5.06,4.59h25.1c.07,16.51.14,33.03.22,49.54-27.69-21.1-42.44-54.67-37.85-87.84,6.01-43.4,43.32-75.54,82.12-79.07,28.92-2.63,55.52,6.27,74.9,23.79,4.18,3.78,17.32,15.88,24.14,35.02,11.96,33.59-.71,74.33-30.44,105.73h0Z" fill="#fff"/>
      <rect width="300" height="300" fill="none"/>
    </g>
  </g>
</svg>