<?xml version="1.0" encoding="UTF-8"?>
<svg id="Layer_2" data-name="Layer 2" xmlns="http://www.w3.org/2000/svg" viewBox="0 0 300 300">
  <g id="_레이어_1" data-name="레이어 1">
    <g id="_13건축_shape_13_0003" data-name=" 13건축 shape 13 0003">
      <path id="_패스_197" data-name="패스 197" d="m29.31,116.92c-1.58,0-2.86-1.28-2.86-2.86,0-.91.43-1.76,1.16-2.3L150,20.87l122.39,90.89c1.26.96,1.5,2.75.54,4.01-.94,1.23-2.69,1.49-3.95.59L150,28,31.01,116.35c-.49.36-1.09.56-1.7.57Z" fill="#fff"/>
      <rect id="_사각형_15" data-name="사각형 15" x="29.7" y="129.95" width="111.23" height="51.2" rx="4.71" ry="4.71" fill="#fff"/>
      <rect id="_사각형_16" data-name="사각형 16" x="29.7" y="197.03" width="111.23" height="82.09" rx="4.71" ry="4.71" fill="#fff"/>
      <rect id="_사각형_17" data-name="사각형 17" x="159.46" y="129.95" width="111.23" height="149.18" rx="4.71" ry="4.71" fill="#fff"/>
      <rect id="_사각형_21" data-name="사각형 21" width="300" height="300" fill="none"/>
    </g>
  </g>
</svg>