<?xml version="1.0" encoding="UTF-8"?>
<svg id="Layer_2" data-name="Layer 2" xmlns="http://www.w3.org/2000/svg" viewBox="0 0 300 300">
  <g id="_레이어_1" data-name="레이어 1">
    <g>
      <g>
        <path d="m35.95,168.35h234.94c1.1,0,2-.9,2-2v-5.06h-.02c-.15-1.88-.86-3.66-2.04-5.13-.13-.19-.27-.39-.4-.57l-23.19-32.46c-1.54-2.49-3.58-4.63-6-6.28-3.38-1.98-7.58-2.02-11.56-2.01l-62.09.26c-2.66.01-5.55-.05-7.64-1.6-4.36-3.23-1.67-10.53,3.35-12.73s10.87-1.02,16.31-.11c18.54,3.11,37.51,2.73,56.34,2.33,4.02-.08,8.16-.19,11.84-1.72,3.68-1.53,6.84-4.86,6.78-8.68-.06-3.82-3.29-7.03-6.99-8.47-3.7-1.44-7.83-1.46-11.83-1.45l-42.78.04c-2.42-.11-4.85.12-7.21.67-2.43.7-4.59,2.08-6.98,2.89-5.42,1.83-11.54.56-17.07,2.07-7.56,2.06-12.68,9.09-14.43,16.36-1.75,7.28-.72,14.87.31,22.27l77.75.18c2.21-.15,4.43.17,6.51.95,1.99.91,3.58,3,3.08,5.05-.74,3.09-5,3.74-8.34,3.74l-138.84-.11c-3.66,0-8.47-.92-8.84-4.38-.43-3.94,5.27-5.42,9.45-5.41l50.39.03c-1.19-13.02-1.82-27.67,7.36-37.4,10.47-11.08,28.48-10.59,43.51-14.85-.01-13.65-.12-27.3-.16-40.95-.02-6.83-.01-13.65.01-20.48.01-2.6,2.13-14.4-2.5-13.29-2.32.55-5.37,3.62-7.36,4.94-4.73,3.13-9.49,6.22-14.28,9.27-9.58,6.09-19.29,12-29.12,17.74-33.91,19.78-69.07,37.35-105.25,52.59-1.25.38-2.35,1.13-3.17,2.15-.5.99-.72,2.1-.62,3.21v30.18c-.02.27-.04.53-.04.8v38.59c0,4.86,3.94,8.81,8.81,8.81Z" fill="#fff"/>
        <rect x="122.92" y="225.39" width="54.2" height="74.43" rx="16.23" ry="16.23" fill="#fff"/>
        <rect x="27.03" y="176.04" width="21.66" height="27.88" rx="6.39" ry="6.39" fill="#fff"/>
        <rect x="54.37" y="176.04" width="69.02" height="27.88" rx="6.39" ry="6.39" fill="#fff"/>
        <rect x="130.11" y="176.04" width="68.04" height="27.88" rx="6.39" ry="6.39" fill="#fff"/>
        <rect x="203.79" y="176.04" width="69.18" height="27.88" rx="6.39" ry="6.39" fill="#fff"/>
        <rect x="27.03" y="209.59" width="63.61" height="27.88" rx="6.39" ry="6.39" fill="#fff"/>
        <rect x="240.65" y="209.59" width="32.31" height="27.88" rx="6.39" ry="6.39" fill="#fff"/>
        <rect x="27.03" y="243.32" width="27.34" height="27.88" rx="6.39" ry="6.39" fill="#fff"/>
        <rect x="60.67" y="243.32" width="56.24" height="27.88" rx="6.39" ry="6.39" fill="#fff"/>
        <rect x="182.47" y="243.32" width="17.4" height="27.88" rx="6.39" ry="6.39" fill="#fff"/>
        <rect x="205.91" y="243.32" width="67.06" height="27.88" rx="6.39" ry="6.39" fill="#fff"/>
        <rect x="27.03" y="276.52" width="64.71" height="23.48" rx="6.39" ry="6.39" fill="#fff"/>
        <rect x="240.65" y="276.52" width="32.31" height="23.48" rx="6.39" ry="6.39" fill="#fff"/>
        <path d="m117.33,230.41v-1.94c-.16-1.74.34-3.47,1.39-4.87,2.2-2.71,6.55-2.85,9.17-2.94.55-.02,1,0,1.32,0h12.96c.48,0,.95.03,1.43.08v-6.36c-.06-2.71-2.31-4.85-5.01-4.79h-35.54c-2.7-.06-4.95,2.08-5.01,4.78v16.03c-.05,3.86,3.04,7.02,6.9,7.07h5.5l6.69-.21s.08-2.68.21-6.85Z" fill="#fff"/>
        <path d="m207.86,237.59c5.59.22,11.2-.05,16.78.34,2.04.15,4.09-.18,5.97-.96,1.12-.47,3.42-1.36,4.36-3.59.45-1.31.63-2.69.54-4.07,0-3.39,0-6.77,0-10.16,0-2.86-.17-6.1-2.28-7.96-1.32-1.02-2.95-1.56-4.61-1.55-.65-.04-1.3-.05-1.95-.05h-35.51s-17.75.01-17.75.01h-8.88c-1.48,0-2.96-.05-4.44,0-.99.1-1.88.67-2.37,1.54-.77,1.06-1.26,2.28-1.45,3.58-.22,1.95-.17,3.93.15,5.87h8.49c.93,0,2.53,0,5.72,0,5.66.02,6.5.05,7.61.59,1.9,1.03,3.36,2.73,4.07,4.77.11,1.12.21,2.26.3,3.42.2,2.73.32,5.36.36,7.89l7.12.15c10.91.23,11.42-.09,17.78.16Z" fill="#fff"/>
        <path d="m115.77,284.87v-8.36h-12.92c-2.66,0-4.82,2.67-4.82,5.95v11.58c0,3.29,2.16,5.95,4.82,5.95h25.16c-6.76,0-12.25-6.77-12.25-15.13Z" fill="#fff"/>
        <path d="m228.72,276.52h-38.74c-3.76,0-6.81,2.67-6.81,5.95v6.08c-.49,6.33-5.67,11.27-12.01,11.45h57.56c3.76,0,6.81-2.66,6.81-5.95v-11.58c0-3.29-3.05-5.95-6.81-5.95Z" fill="#fff"/>
      </g>
      <rect width="300" height="300" fill="none"/>
    </g>
  </g>
</svg>