<?xml version="1.0" encoding="UTF-8"?>
<svg id="Layer_2" data-name="Layer 2" xmlns="http://www.w3.org/2000/svg" viewBox="0 0 300 300">
  <g id="_레이어_1" data-name="레이어 1">
    <g>
      <path id="_패스_740" data-name="패스 740" d="m298.85,269.7c-1.35-1.53-3.24-2.47-5.28-2.6-6.88-1.18-14.77.47-17.3-.42l-1.95-.69s.11-8.68.12-9.05c.69-51.7.18-103.4.27-155.11,0-5.6-.05-11.47-2.71-16.36s-8.92-8.28-13.88-5.81l.1,177.12c0,2.99-.15,6.35-2.32,8.37-2.18,1.55-4.87,2.24-7.53,1.92h-19.89c-1.75.16-3.5-.15-5.09-.89-3.04-1.76-3.43-5.98-3.45-9.53-.42-72.69-.22-145.38.6-218.08l52.76,22.48c.44.19,1.61-6.63,1.65-7.24.14-2.54-.13-5.1-.81-7.55-.46-2.34-1.5-4.53-3.02-6.37-.54-.43-1.17-.74-1.84-.89-1.19-.39-2.32-.92-3.46-1.43l-29.71-13.16c-4.39-2.28-9.17-3.71-14.09-4.22-5.81-.23-11.37,2.14-16.72,4.45l-49.35,21.37c-3.77,1.63-7.86,3.58-9.53,7.37-.79,2.21-1.11,4.56-.95,6.89.15,68.93.3,137.85.45,206.77l-46.91-.04c.14-58.49.28-116.99.42-175.49l27.75,10.86c1.27-.14,2.45-.77,3.27-1.75.97-1.76,1.37-3.79,1.13-5.79h0s-.4-3.23-.44-3.51c-.81-5.86-22.89-13.45-28.73-15.93-1.25-.54-2.57-.94-3.91-1.19-1.22-.21-2.45-.31-3.69-.29-4.29.36-8.5,1.43-12.44,3.17-4.16,1.65-6.23,2.47-9.25,3.74-7.73,3.26-13.02,5.56-23.61,10.08-3.15.98-5.92,2.92-7.92,5.56-1.25,2.61-1.77,5.51-1.52,8.39-.02,54.05-.04,108.09-.07,162.13l-34.02.1c-1.21-.08-2.43.1-3.56.53-3.45,1.62-2.97,7.24,0,9.65,2.97,2.41,7.09,2.52,10.9,2.52,20.39,0,268.64-.11,274.73,0,.14,0,8.47.15,10.91-3.57.7-1.06,1.06-2.3,1.06-3.56-.12-1.07-.51-2.1-1.15-2.97Z" fill="#fff"/>
      <rect width="300" height="300" fill="none"/>
    </g>
  </g>
</svg>