<?xml version="1.0" encoding="UTF-8"?>
<svg id="Layer_2" data-name="Layer 2" xmlns="http://www.w3.org/2000/svg" viewBox="0 0 300 300">
  <g id="_레이어_1" data-name="레이어 1">
    <g>
      <g>
        <path d="m296.43,123.92c-3.56-3.52-9.5-1.71-14.07.32-9.96,4.41-20.44,9.23-26.55,18.24-5.4,7.95-6.57,18.04-6.18,27.64.21,5.17.78,10.59-1.32,15.33-2.66,6.01-8.93,9.43-14.77,12.43l-82.16,42.14c-7.55,3.87-15.3,7.81-23.73,8.79-8.43.99-17.8-1.59-22.69-8.53-4.56-6.46-4.32-15.02-3.91-22.91.47-9.14.95-18.28,1.42-27.42.16-3.07.27-6.34-1.28-8.99-1.54-2.62-4.42-4.11-7.14-5.47l-16.2-8.06c-1.38-.91-3.05-1.26-4.68-.96-2.49.82-2.95,4.08-2.97,6.69-.11,16.14-.23,32.28-.34,48.42-8.8,1.75-17.54-4.91-21.23-13.09s-3.54-17.52-3.33-26.49l1.22-51.07c.11-4.63.28-9.5,2.63-13.5,1.9-2.82,4.31-5.27,7.1-7.21l17.15-13.58c1.11-1.04,2.47-1.79,3.94-2.18,2.45-.43,4.77,1.14,6.65,2.77,13.58,11.75,21.32,30.95,38.17,37.17,6.84,2.53,14.38,2.49,21.6,1.45,4.78-.5,9.39-2.04,13.51-4.51l76.41-36.17,6.73-3.19,38.07-18.02c.92-.39,1.83-.82,2.71-1.28l.17-.08c.8-.43,1.58-.89,2.35-1.38,3.19-2.07,6.32-5.27,5.98-9.06-.23-2.67-2.14-4.86-3.94-6.84l-31.97-35.12c-7.78-8.55-16.39-17.57-27.74-19.74-10.98-2.1-22.22,2.85-31.05,9.7-2.13,1.95-4.6,3.48-7.29,4.53-2.83.83-5.85.38-8.8.25-9.96-.38-19.68,3.05-27.19,9.59-1.99,1.75-3.92,3.78-6.48,4.45-2.77.72-5.65-.29-8.46-.82-11.39-2.14-22.79,3.93-31.57,11.5-1.73,1.8-3.87,3.14-6.23,3.92-2.7.6-5.45-.43-8.13-1.08-14.39-3.45-29.13,4.32-40.5,13.79-6.86,5.71-13.1,12.12-19.98,17.8-6.43,5.31-13.89,8.67-19.06,15.32C1.34,102.26,1.06,120.12,1.1,135.59c.06,20.46.12,40.91.18,61.37.05,16.71.61,34.9,11.28,47.75,6.34,7.64,15.46,12.31,24.32,16.79l52.25,26.39c12.51,6.32,25.75,12.8,39.74,12.05,11.16-.6,21.49-5.76,31.46-10.81l109.9-55.73c8.49-4.3,17.38-8.96,22.52-16.96,5.49-8.53,5.73-19.3,5.8-29.44.07-10.44.14-20.89.21-31.33l.15-22.36c.02-3.33-.11-7.04-2.47-9.39Z" fill="#fefefe"/>
        <path d="m174.62,153.81l-10.81,4.63c-4.37,1.87-7.88,6.59-7.86,10.56l.12,21.3c.02,3.96,3.58,5.66,7.94,3.8l10.81-4.63c4.36-1.87,7.88-6.59,7.86-10.56l-.12-21.3c-.02-3.96-3.58-5.66-7.94-3.8Z" fill="#fefefe"/>
        <path d="m213.03,138.25l-10.81,4.63c-4.36,1.87-7.88,6.6-7.86,10.56l.12,21.3c.02,3.96,3.58,5.66,7.94,3.8l10.81-4.63c4.37-1.87,7.89-6.6,7.86-10.56l-.12-21.3c-.02-3.96-3.58-5.66-7.94-3.8Z" fill="#fefefe"/>
      </g>
      <rect width="300" height="300" fill="none"/>
    </g>
  </g>
</svg>