<?xml version="1.0" encoding="UTF-8"?>
<svg id="Layer_2" data-name="Layer 2" xmlns="http://www.w3.org/2000/svg" viewBox="0 0 300 300">
  <g id="_레이어_1" data-name="레이어 1">
    <g>
      <path id="_패스_601" data-name="패스 601" d="m299.58,210.17l-52.37-96.14c-.61-1.12-1.78-1.82-3.06-1.82h-61.78c-1.32,0-2.53.75-3.12,1.93l-17.06,34.31c-.03.06-.04.13-.07.19h7.77l14.65-29.45h57.55l48.57,89.16h-15.67l-34.29-63.82c-.97-1.66-3.11-2.22-4.77-1.25-.59.34-1.07.85-1.37,1.47l-31.41,63.61h-79.28l-47.86-91.64c-.6-1.15-1.79-1.87-3.09-1.87h-.05c-1.32.02-2.51.78-3.08,1.96l-44.36,91.55H8.96l54.41-116.69h126.74l10.31,12.82h8.95l-14.87-18.49c-.66-.82-1.66-1.3-2.72-1.3H61.15c-1.36,0-2.59.79-3.16,2.01L.33,210.36c-.81,1.75-.06,3.82,1.69,4.63.46.22.96.33,1.47.33h24.12c1.34,0,2.55-.76,3.14-1.97l42.29-87.28,45.63,87.37c.6,1.15,1.79,1.87,3.09,1.87h83.56c1.33,0,2.54-.75,3.13-1.94l29.49-59.74,32.03,59.95c.62,1.07,1.77,1.73,3.01,1.73h23.54c1.93,0,3.49-1.56,3.49-3.49,0-.58-.15-1.16-.42-1.67" fill="#fff"/>
      <rect width="300" height="300" fill="none"/>
    </g>
  </g>
</svg>