<?xml version="1.0" encoding="UTF-8"?>
<svg id="Layer_2" data-name="Layer 2" xmlns="http://www.w3.org/2000/svg" viewBox="0 0 300 300">
  <g id="_레이어_1" data-name="레이어 1">
    <g>
      <path id="_패스_774" data-name="패스 774" d="m300,102.89c0-3.85-1.3-7.59-3.68-10.61l-22.25-28.15c-5.86-7.41-16.62-8.67-24.03-2.81-1.04.83-1.99,1.77-2.81,2.81l-22.25,28.15c-2.39,3.02-3.68,6.76-3.68,10.61v14.29h-31.94v-14.29c0-3.85-1.3-7.59-3.69-10.61l-22.25-28.15c-5.86-7.41-16.62-8.67-24.03-2.81-1.04.83-1.99,1.77-2.81,2.81l-22.25,28.15c-2.39,3.02-3.68,6.76-3.68,10.61v14.29h-31.94v-14.29c0-3.85-1.3-7.59-3.68-10.61l-22.25-28.15c-5.86-7.41-16.61-8.67-24.03-2.81-1.04.83-1.99,1.77-2.81,2.81L3.68,92.29C1.3,95.31,0,99.04,0,102.89v139.47h26.65v-22.51c0-7.01,5.69-12.7,12.7-12.7s12.7,5.69,12.7,12.7h0v22.51h26.65v-59.55h31.94v59.55h26.65v-22.51c0-7.01,5.69-12.7,12.71-12.7,7.01,0,12.69,5.69,12.7,12.7v22.51h26.65v-59.55h31.94v59.55h26.65v-22.51c-.07-7.01,5.56-12.76,12.58-12.82,7.01-.07,12.76,5.56,12.82,12.58,0,.08,0,.16,0,.25v22.51h26.65V102.89ZM39.35,181.1c-4.03,0-7.29-3.27-7.29-7.29s3.27-7.29,7.29-7.29,7.29,3.27,7.29,7.29c0,4.03-3.27,7.29-7.29,7.29m0-47.62c-4.03,0-7.29-3.27-7.29-7.29s3.27-7.29,7.29-7.29,7.29,3.27,7.29,7.29c0,4.03-3.27,7.29-7.29,7.29m71.29,31.33h-31.94v-29.61h31.94v29.61Zm39.35,16.3c-4.03,0-7.29-3.27-7.29-7.29,0-4.03,3.27-7.29,7.29-7.29,4.03,0,7.29,3.27,7.29,7.29s-3.27,7.29-7.29,7.29h0m0-47.62c-4.03,0-7.29-3.27-7.29-7.29,0-4.03,3.27-7.29,7.29-7.29,4.03,0,7.29,3.27,7.29,7.29s-3.27,7.29-7.29,7.29h0m71.29,31.33h-31.94v-29.61h31.94v29.61Zm39.35,16.3c-4.03,0-7.29-3.27-7.29-7.29,0-4.03,3.27-7.29,7.29-7.29,4.03,0,7.29,3.27,7.29,7.29,0,4.03-3.27,7.29-7.29,7.29m0-47.62c-4.03,0-7.29-3.27-7.29-7.29,0-4.03,3.27-7.29,7.29-7.29,4.03,0,7.29,3.27,7.29,7.29,0,4.03-3.27,7.29-7.29,7.29" fill="#fff"/>
      <rect width="300" height="300" fill="none"/>
    </g>
  </g>
</svg>