<?xml version="1.0" encoding="UTF-8"?>
<svg id="Layer_2" data-name="Layer 2" xmlns="http://www.w3.org/2000/svg" viewBox="0 0 300 300">
  <g id="_레이어_1" data-name="레이어 1">
    <g>
      <path id="_합치기_21" data-name="합치기 21" d="m179.61,241.87H0v-3.08h20.76v-21.72c-8.39-1.58-14.76-15.99-14.76-34.11,0-19.22,7.16-34.27,16.3-34.27s16.3,15.05,16.3,34.27c0,18.12-6.37,32.53-14.76,34.11v21.72h96.56v-45.43c0-16.35,13.26-29.61,29.61-29.61s29.61,13.26,29.61,29.61v45.42h96.56v-21.72c-8.39-1.58-14.76-15.99-14.76-34.11,0-19.22,7.16-34.27,16.3-34.27s16.3,15.05,16.3,34.27c0,18.12-6.37,32.53-14.76,34.11v21.72h20.75v3.08h-120.39Zm-56.13-48.5v45.42h53.05v-45.42c0-14.65-11.88-26.53-26.53-26.53s-26.53,11.88-26.53,26.53h0Zm141.01-10.41c0,16.91,6.05,31.19,13.22,31.19s13.22-14.28,13.22-31.19-6.05-31.19-13.22-31.19-13.22,14.29-13.22,31.19h0Zm-255.41,0c0,16.91,6.05,31.19,13.22,31.19s13.22-14.28,13.22-31.19-6.05-31.19-13.22-31.19-13.21,14.29-13.21,31.19h0Zm205.44,50.95v-3.08h40.56v3.08h-40.56Zm-169.59,0v-3.08h40.56v3.08h-40.56Zm201-7.02v-94.12h3.08v94.12h-3.08Zm-12.67,0v-94.12h3.08v94.12h-3.08Zm-12.66,0v-94.12h3.08v94.12h-3.08Zm-144.26,0v-94.12h3.08v94.12h-3.08Zm-12.66,0v-94.12h3.08v94.12h-3.08Zm-12.67,0v-94.12h3.08v94.12h-3.08Zm163.52-98.06v-3.08h40.56v3.08h-40.56Zm-169.59,0v-3.08h40.56v3.08h-40.56Zm169.26-8.27l-64.18-47.2-64.18,47.2h-40.89v-3.08h39.88l65.19-47.94,65.19,47.94h39.88v3.08h-40.89Zm-73.68-17.37c0-5.25,4.25-9.5,9.5-9.49s9.5,4.25,9.49,9.5c0,5.24-4.25,9.49-9.49,9.49-5.24,0-9.49-4.25-9.5-9.5h0Zm3.08,0c0,3.55,2.87,6.42,6.42,6.42s6.42-2.87,6.42-6.42-2.87-6.42-6.42-6.42c-3.55,0-6.42,2.87-6.42,6.42h0s0,0,0,0Zm70.42,6.14l-64.01-47.37-64.01,47.37H30.04v-3.08h54.94l65.03-48.12,65.03,48.12h54.94v3.08h-55.96Z" fill="#fff"/>
      <rect width="300" height="300" fill="none"/>
    </g>
  </g>
</svg>