<?xml version="1.0" encoding="UTF-8"?>
<svg id="Layer_2" data-name="Layer 2" xmlns="http://www.w3.org/2000/svg" viewBox="0 0 300 300">
  <g id="_레이어_1" data-name="레이어 1">
    <g id="_13건축_shape_13_0023" data-name=" 13건축 shape 13 0023">
      <path id="_패스_1353" data-name="패스 1353" d="m33.34,168.86h6.14v33h-6.14v-33Zm9.98,0h5.15v33h-5.15v-33Zm8.99,0h5.15v33h-5.15v-33Zm8.99,0h5.15v33h-5.15v-33Zm8.98,0h5.15v33h-5.15v-33Zm8.99,0h6.14v33h-6.14v-33Zm13.81,0h39.42v33h-39.42v-33Zm56.93,0h24.83v33h-24.83v-33Zm32.5,0h41.13v33h-41.13v-33Zm44.97,0h44.46v33h-44.46v-33Zm-91.16,0h9.84v33h-9.84v-33Zm91.15-22.2l39.95,18.37h-39.95v-18.37Zm-134.41,1.48l39.42-18.47v35.36h-39.42v-16.89Zm89.43-22.17l41.13,18.92v20.13h-41.13v-39.05Zm-46.18,1.9l9.84-4.61v41.77h-9.84v-37.16Zm13.68-6.41l24.83-11.64v55.2h-24.83v-43.56Zm24.82-31.46v11.36l-81.75,38.32v-9.77h-7.68v13.37l-.17.08.17.37v21.31h-52.05v-5.44h-3.84v5.44h-6.03v3.83h6.03v33H0v7.66h300v-7.66h-20.39v-33h6.56v-3.83h-6.56v-13.56h-7.67v7.2l-89.43-41.13v-27.54h-7.68Z" fill="#fff"/>
      <rect id="_사각형_3070" data-name="사각형 3070" width="300" height="300" fill="none"/>
    </g>
  </g>
</svg>