<?xml version="1.0" encoding="UTF-8"?>
<svg id="Layer_2" data-name="Layer 2" xmlns="http://www.w3.org/2000/svg" viewBox="0 0 300 300">
  <g id="_레이어_1" data-name="레이어 1">
    <g>
      <rect x="60.24" y="187.22" width="9.13" height="9.44" fill="#fff"/>
      <rect x="60.14" y="174.98" width="9.23" height="9.25" fill="#fff"/>
      <path d="m226.73,122.86l-25.97,29.2-51.14-54.06-52.23,55.2-25.71-29.55L1.7,191.72l8.26,10.12,61.04-59.29c2.14,2.02,3.69,3.45,5.19,4.92,17.4,16.93,34.71,33.94,52.28,50.69,2.36,2.06,5.32,3.29,8.44,3.5,8.47.46,16.95.46,25.42,0,3.12-.22,6.08-1.45,8.43-3.51,17.58-16.74,34.89-33.75,52.3-50.67,1.61-1.56,3.29-3.05,5.24-4.84l60.12,58.33,9.86-8.59-71.57-69.51Zm-63.33,64.31c-.88.91-2.8,1.05-4.26,1.13q-21.3,1.1-36.57-13.99c-4.5-4.46-8.83-9.08-13.72-14.13l40.77-43.19,40.09,42.47c-8.92,9.44-17.53,18.66-26.32,27.71Z" fill="#fff"/>
      <rect x="72.7" y="187.2" width="9.11" height="9.31" fill="#fff"/>
      <rect x="216.73" y="187.16" width="9.27" height="9.41" fill="#fff"/>
      <rect x="229.22" y="187.26" width="9.09" height="9.46" fill="#fff"/>
      <rect x="72.51" y="175.08" width="9.48" height="9.07" fill="#fff"/>
      <rect x="216.56" y="175.11" width="9.47" height="9.02" fill="#fff"/>
      <rect x="229.37" y="175.11" width="9.14" height="9.09" fill="#fff"/>
      <rect x="138.4" y="148.47" width="9.44" height="9.3" fill="#fff"/>
      <rect x="151.08" y="148.22" width="8.96" height="9.39" fill="#fff"/>
      <rect x="138.45" y="160.78" width="9.15" height="9.23" fill="#fff"/>
      <polygon points="160.37 160.84 150.97 160.84 150.97 170.54 160.37 170.04 160.37 160.84" fill="#fff"/>
    </g>
    <rect width="300" height="300" fill="none"/>
  </g>
</svg>