<?xml version="1.0" encoding="UTF-8"?>
<svg id="Layer_2" data-name="Layer 2" xmlns="http://www.w3.org/2000/svg" viewBox="0 0 300 300">
  <g id="_레이어_1" data-name="레이어 1">
    <g id="_그룹_415" data-name="그룹 415">
      <path id="_패스_1341" data-name="패스 1341" d="m249.39,247.79h-20.21v-108.82h0l-24.86-17.56h-3.35v15.83l-27.49,16.43v-73.13h0l-44.67-31.55h-3.35v21.45l-24.6,13.71v58.54l48.47,28.56-.39,76.54h-51.22v-102.9l-28.98,18.75v84.15H2v3.21h295.17v-3.21h-47.77Zm-108.76-86.38l-11.84-6.95V53.23l11.84,8.36v99.83Zm12.5,86.38v-79.03l-9.04-5.31v-99.41l13.14,9.28v174.48h-4.1Zm7.55,0V75.75l9.33,6.59v99h.01v66.44s-9.35,0-9.35,0Zm43.63,0v-122.14l21.41,15.12v107.02h-21.41Z" fill="#fff"/>
      <rect id="_사각형_3060" data-name="사각형 3060" width="300" height="300" fill="none"/>
    </g>
  </g>
</svg>