<?xml version="1.0" encoding="UTF-8"?>
<svg id="Layer_2" data-name="Layer 2" xmlns="http://www.w3.org/2000/svg" viewBox="0 0 300 300">
  <g id="_레이어_1" data-name="레이어 1">
    <g>
      <path id="_패스_876" data-name="패스 876" d="m73.2,155.87v-2.95c1.82,0,3.56,0,5.3,0,1.16.12,2.32-.28,3.16-1.09.54-.72,1-1.49,1.39-2.29v-1.56c-.49-1.26-1.32-2.36-2.4-3.18-1.76-1.55-3.46-3.16-5.22-4.71-.36-.3-.55-.75-.52-1.21.01-6.37.02-12.75,0-19.12,0-2.05-.83-2.89-2.88-2.89-5,0-10.01,0-15.01,0-2.34,0-3.05.71-3.09,3.07,0,.12-.01.25-.03.48-.24-.19-.42-.32-.58-.46-2.39-2.17-4.78-4.34-7.17-6.52-2.11-1.92-4.21-1.93-6.31-.02-11.7,10.64-23.39,21.27-35.09,31.9-.82.72-1.44,1.63-1.82,2.66v1.56c.22.55.47,1.09.77,1.6.81,1.19,2.19,1.87,3.63,1.77,1.51,0,3.02,0,4.54,0h.92v32.16c0,2.11.81,2.93,2.92,2.93h40.82c4.63,0,9.26,0,13.89,0,1.9,0,2.77-.88,2.77-2.77,0-7.17,0-14.34,0-21.5h184.37v24.28h11.33v-8.88h8.39v8.89h11.33v-24.28h8.45v-7.85H73.2Zm-35.6,23.29c0,1.24-1.01,2.25-2.25,2.25h-10.01c-1.24,0-2.25-1.01-2.25-2.25h0v-19.36c0-1.24,1.01-2.25,2.25-2.25h10.01c1.24,0,2.25,1.01,2.25,2.25h0v19.36Z" fill="#fff"/>
      <rect width="300" height="300" fill="none"/>
    </g>
  </g>
</svg>