<?xml version="1.0" encoding="UTF-8"?>
<svg id="Layer_2" data-name="Layer 2" xmlns="http://www.w3.org/2000/svg" viewBox="0 0 300 300">
  <g id="_레이어_1" data-name="레이어 1">
    <g>
      <path d="m299.95,261.24c-.1-2.79-1.69-5.31-4.18-6.59-3.01-1.88-6.4-1.72-9.76-1.77,0-69.41,0-138.81,0-208.22,0-.78-.06-1.56-.11-2.34.56-.02,1.12-.03,1.68-.04,7.24-.14,12.33-4.75,12.31-11.16-.02-6.24-5.15-10.81-12.32-10.81-91.69-.01-183.38-.01-275.07,0-5.85,0-10.51,3.13-12.03,7.95-1.58,5.04.84,9.98,5.97,12.56,2.86,1.43,5.95,1.5,9.08,1.53h.9c-.05.77-.11,1.54-.11,2.31,0,69.4,0,138.79,0,208.19h-.93c-1.51.02-3.03.02-4.55.05-6.67.16-10.71,3.67-10.74,9.38-.03,4.28.06,8.55-.03,12.82-.08,1.67.83,3.24,2.33,3.99,1.45.88,3.13.54,4.72.54,95.28,0,190.56.01,285.85.01.71,0,1.42.02,2.12-.01,3.09-.11,4.84-1.58,4.87-4.26.06-4.71.06-9.42,0-14.13Zm-222.85-67.89c-2.51-4.05-5.39-7.85-8.6-11.32v-19.06c4.85-8.14,8.81-16.82,11.82-25.88,5.63-16.78,9.44-34.16,11.35-51.83,1.59-13.38,2.39-26.86,2.4-40.34,0-.86-.09-1.71-.17-2.57,20.02-.04,40.05-.06,60.07-.07,17.76.02,35.52.04,53.28.06h1.19c-.39,8.31-.21,16.64.55,24.92,1.05,19.14,4.05,38.11,8.94,56.59,3.71,13.52,8.38,26.73,15.85,39.02l-.3,19.19c-17.6,21.2-23.85,45.32-24.99,70.77h-114.63c-.9-20.78-5.47-40.82-16.77-59.49Z" fill="#fff"/>
      <rect x="0" width="300" height="300" fill="none"/>
    </g>
  </g>
</svg>