<?xml version="1.0" encoding="UTF-8"?>
<svg id="Layer_2" data-name="Layer 2" xmlns="http://www.w3.org/2000/svg" viewBox="0 0 300 300">
  <g id="_레이어_1" data-name="레이어 1">
    <g>
      <path d="m299.63,178.82c-18.19-7.59-33.76-7.48-47.65-3.69v-25.97l-.09-.07h.09s-40.2-66.15-15.22-108.15h-17.99s-11.31,40.22,12.75,85.98c-12.21-17.8-24.33-46.36-18.67-85.98h-40.81s-17.85,85.62,61.2,105.08c.08,13.38-2,26.74-5.21,39.36-5.12,2.87-10.05,5.96-14.84,8.96-16.89,10.6-31.49,19.75-47.16,14.72-12.92-4.15-15.4-15.3-14.89-24.81,2.3-.52,4.55-1.26,6.71-2.22,14.21-6.29,22.8-21.02,19.15-32.84-1.38-4.46-3.83-5.2-5.64-5.03-7.42.72-19.28,19.36-21.22,37.45-.06.53-.1,1.05-.14,1.56-12.79,2.39-36.51-.4-60.95-40.13,67.55-23.92,51.25-102.11,51.25-102.11h-40.82c5.61,39.16-6.18,67.51-18.25,85.35,23.63-45.49,12.42-85.35,12.42-85.35h-17.99c15.16,25.51,6.3,59.91-3,83-4.7-3.14-9.8-4.95-15.29-5.38C29.31,116.36.42,150.82.14,151.17c-.21.26-.17.63.08.84.26.21.64.18.85-.07.28-.34,28.77-34.33,56.18-32.17,5.35.42,10.33,2.21,14.92,5.32-5.87,14.31-11.75,24-11.75,24l-.09.07v109.9h56.59s-38.17-56.46-37.83-113.03c3.07-.76,5.98-1.63,8.77-2.57,11.36,18.53,23.8,31.09,37.02,37.34,7.72,3.91,16.5,5.21,25.02,3.73-.6,13.16,4.92,22.24,15.74,25.71,16.21,5.2,31.03-4.09,48.18-14.85,4.46-2.8,9.03-5.66,13.77-8.36-10.54,39.99-32.2,72.04-32.2,72.04h56.59v-82.65c13.77-3.81,29.2-3.98,47.19,3.53.14.06.29.06.43.01h0c.16-.06.29-.18.36-.34,0,0,0,0,0,0,.13-.31-.02-.66-.33-.79Zm-128.17-33.44c1.98-.19,3.45,1.21,4.36,4.18,3.41,11.06-5.05,25.43-18.49,31.38-1.97.86-4.02,1.53-6.12,1.99.03-.4.07-.79.11-1.18,1.86-17.26,13.28-35.71,20.14-36.37Z" fill="#fff"/>
      <rect x="0" width="300" height="300" fill="none"/>
    </g>
  </g>
</svg>