<?xml version="1.0" encoding="UTF-8"?>
<svg id="Layer_2" data-name="Layer 2" xmlns="http://www.w3.org/2000/svg" viewBox="0 0 300 300">
  <g id="_레이어_1" data-name="레이어 1">
    <g>
      <g>
        <rect x="141.87" y="126.68" width="17.21" height="18.38" rx="1.72" ry="1.72" fill="#fff"/>
        <rect x="141.87" y="235.13" width="17.21" height="18.38" rx="1.72" ry="1.72" fill="#fff"/>
        <rect x="41.14" y="184.29" width="17.21" height="18.38" rx="1.72" ry="1.72" fill="#fff"/>
        <rect x="241.48" y="184.29" width="17.21" height="18.38" rx="1.72" ry="1.72" fill="#fff"/>
        <path d="m299.72,152.88c-.22-8.47.61-19.64.12-24.1,0-.06-.42-3.83-.42-3.83l-1.52-.92c-14.82-7.54-28.99-14.93-43.37-21.84-2.86-1.24-6.1-1.29-9-.14-13.84,6.57-27.36,13.84-41.14,20.56-1.83.75-3.31,2.16-4.14,3.95v-9.86c.05-14.47.12-28.94-.12-43.41-.03-1.72-2.08-4.11-3.8-5-13.92-7.21-27.9-14.31-42.08-21-2.75-1.09-5.83-1.06-8.56.09-13.64,6.46-26.98,13.53-40.57,20.08-3.66,1.77-5.09,3.86-5.02,7.95.23,14.88.09,29.77.06,44.65,0,1.42-.26,2.84-.46,4.87-15.31-7.68-29.9-15.2-44.73-22.23-2.87-1.22-6.1-1.27-9-.14-13.84,6.49-27.36,13.65-41.14,20.28C1.1,124.66-.06,126.99,0,130.98c.21,14.5.06,29,.11,43.49,0,1.79.32,3.59.57,6.18,15.42-7.72,29.98-14.89,44.4-22.33,3.6-1.86,6.52-2.08,10.24-.14,13.38,6.98,26.87,13.73,40.48,20.25,3.58,1.71,4.54,3.88,4.48,7.62-.21,14.3-.11,28.61-.1,42.91,0,1.99.19,3.98.34,6.86,15.44-7.77,29.97-14.96,44.36-22.42,3.65-1.9,6.69-1.97,10.31,0,7.48,4.06,15.14,7.8,22.76,11.6,7.04,3.51,14.12,6.93,22.36,10.96.01-8.67.02-17.32.02-25.98,0-9.6,0-19.21,0-28.83,15.38-7.81,29.92-15.07,44.31-22.6,3.6-1.88,6.52-2.11,10.24-.14,13.38,7.07,26.87,13.92,40.48,20.53.94.43,1.79,1.02,2.54,1.74.22,0,.45-.05.65-.15,1.12-.58,1.08-2.72,1.06-3.38-.14-8.08.3-16.18.1-24.26Zm-100.6-21.36h0c-.16,1.97-.24,15.89-.19,49.5v.02c-.88-1.09-1.97-2-3.2-2.69-10.42-5.53-21.53-9.94-31.44-16.24-10.39-6.61-19.05-5.76-29.2.49-10.76,6.63-22.59,11.55-34.36,17.41-.24-.97-.41-1.95-.51-2.95-.03-16.04-.16-32.09.14-48.13.04-1.83,2.18-4.35,4-5.29,13.72-7.15,27.53-14.15,41.52-20.77,2.74-1.07,5.78-1.04,8.5.07,8.14,3.58,15.97,7.85,23.93,11.84.12.06,6.71,3.34,19.9,9.9l.7.35c.11.77.21,1.74.26,2.87.05,1.2.03,2.41-.07,3.61Z" fill="#fff"/>
      </g>
      <rect width="300" height="300" fill="none"/>
    </g>
  </g>
</svg>