<?xml version="1.0" encoding="UTF-8"?>
<svg id="Layer_2" data-name="Layer 2" xmlns="http://www.w3.org/2000/svg" viewBox="0 0 300 300">
  <g id="_레이어_1" data-name="레이어 1">
    <g>
      <g>
        <path d="m3.33,160.53h121.63c1.64,0,2.97-1.33,2.97-2.97s-1.33-2.97-2.97-2.97h-41.64v-46.7l132.55.84v45.86h-41.31c-1.64,0-2.97,1.33-2.97,2.97s1.33,2.97,2.97,2.97h122.48c1.64,0,2.97-1.33,2.97-2.97s-1.33-2.97-2.97-2.97h0s-75.24,0-75.24,0v-46.47l32.67-14.42h.01c.12-.07.24-.13.36-.21.05-.03.11-.06.16-.09.05-.04.1-.08.15-.13.1-.08.2-.17.29-.26h.01c.04-.06.07-.12.12-.17.08-.09.15-.19.22-.3.05-.09.09-.18.13-.27.04-.08.08-.16.12-.25.03-.1.06-.2.08-.3.02-.08.05-.17.06-.25.01-.08.02-.19.02-.29,0-.1.02-.19.01-.29,0-.1-.02-.2-.03-.29-.01-.09-.02-.18-.04-.27-.03-.13-.07-.25-.12-.37-.02-.06-.03-.11-.06-.17h0c-.06-.13-.12-.25-.2-.36-.03-.06-.06-.12-.1-.17-.04-.05-.08-.08-.12-.13-.09-.11-.18-.22-.28-.31h-.01s-34.44-31.55-34.44-31.55c-.55-.5-1.26-.78-2.01-.78H80.87c-.73,0-1.44.27-1.99.76-26.71,24.03-32.76,29.93-34.27,31.59-.04.04-.07.08-.1.11-.07.08-.13.15-.18.21-.05.06-.09.11-.13.17-.04.06-.08.12-.12.19-.03.05-.04.1-.07.15-.03.05-.06.09-.08.15-.03.05-.02.08-.04.12-.04.1-.07.19-.09.29-.02.09-.05.18-.06.28-.02.1-.03.19-.03.29,0,.1-.01.19,0,.29,0,.1.01.18.03.28.01.09.03.19.05.29.02.09.05.18.08.27.03.09.06.18.1.27s.08.17.13.25c.04.08.1.16.15.24.05.08.11.15.18.22.06.08.13.15.2.22.07.06.14.13.21.18.08.06.17.13.25.18.04.02.07.05.11.08.08.05.17.08.25.12.02,0,.03.02.05.03l31.9,13.72v47.16H3.33c-1.64,0-2.97,1.33-2.97,2.97s1.33,2.97,2.97,2.97Zm218.47-94.34l26.11,23.92-26.11,11.53v-35.44Zm-44.88-3.78h38.94v40.39l-38.94-.25v-40.14Zm-51.25,0h45.31v40.1l-45.31-.29v-39.82Zm-42.36,0h36.43v39.78l-36.43-.23v-39.55Zm-31.49,27.57c5.14-4.88,16.27-15,25.55-23.39v34.38l-25.55-10.99Z" fill="#fff"/>
        <path d="m296.67,237.59H2.97c-1.64,0-2.97,1.33-2.97,2.97s1.33,2.97,2.97,2.97h293.7c1.64,0,2.97-1.33,2.97-2.97s-1.33-2.97-2.97-2.97Z" fill="#fff"/>
        <path d="m133.91,141.63v16.16c0,1.64,1.33,2.97,2.97,2.97h.02l13.04-.08,13.54.08h.02c1.64,0,2.97-1.33,2.97-2.97v-16.16c0-10.93-7.3-19.82-16.27-19.82s-16.27,8.89-16.27,19.82Zm26.61,0v13.17l-10.57-.06h-.04s-10.07.07-10.07.07v-13.17c0-7.65,4.64-13.88,10.34-13.88s10.34,6.23,10.34,13.88Z" fill="#fff"/>
      </g>
      <rect width="300" height="300" fill="none"/>
    </g>
  </g>
</svg>