<?xml version="1.0" encoding="UTF-8"?>
<svg id="Layer_2" data-name="Layer 2" xmlns="http://www.w3.org/2000/svg" viewBox="0 0 300 300">
  <g id="_레이어_1" data-name="레이어 1">
    <g>
      <g>
        <path d="m125.35,106.4v63.45h17.82V1.95c-35.6,49.5-57.9,107.31-64.76,167.9h37.26l9.68-63.45Z" fill="#fff"/>
        <path d="m81.35,277.22L0,298.04h143.17v-104.45h-66.84c-2.79,49.82,5.02,83.62,5.02,83.62Z" fill="#fff"/>
        <path d="m218.66,277.22s-.39-76.87-28.34-138.75c10.25-6.1,22.4-18.62,20.25-43.33,0,0-21.77,6.43-31.01,22.74-6.25-10.55-13.9-20.21-22.72-28.73v208.89h21.81v-90.78l8.44,90.78h112.91l-81.34-20.83Z" fill="#fff"/>
      </g>
      <rect width="300" height="300" fill="none"/>
    </g>
  </g>
</svg>