<?xml version="1.0" encoding="UTF-8"?>
<svg id="Layer_2" data-name="Layer 2" xmlns="http://www.w3.org/2000/svg" viewBox="0 0 300 300">
  <g id="_레이어_1" data-name="레이어 1">
    <g>
      <path id="_합치기_11" data-name="합치기 11" d="m236.8,239.83v-119.99c0-1.38,1.12-2.51,2.5-2.51h0c1.39,0,2.51,1.12,2.5,2.51h0v119.99c0,1.38-1.12,2.51-2.5,2.51h0c-1.39,0-2.51-1.12-2.51-2.5h0Zm-178.6,0v-119.99c0-1.38,1.12-2.51,2.5-2.51h0c1.39,0,2.51,1.12,2.51,2.51v119.99c0,1.39-1.13,2.51-2.51,2.51-1.39,0-2.51-1.11-2.51-2.5h0s0-.01,0-.01ZM0,124.34c-.08-1.38.97-2.57,2.35-2.66.4-.02,40.51-3.31,61.81-62.36.36-1,1.3-1.66,2.36-1.66h166.76c1.06,0,2,.66,2.36,1.66,21.35,59.06,61.59,62.34,61.99,62.37,1.38.09,2.43,1.28,2.34,2.67-.08,1.32-1.17,2.35-2.49,2.35h-.16c-1.77-.1-43.12-3.27-65.81-64.02H68.28C45.66,123.43,4.42,126.61,2.66,126.7h-.19c-1.31-.02-2.39-1.05-2.47-2.36h0Z" fill="#fff"/>
      <rect width="300" height="300" fill="none"/>
    </g>
  </g>
</svg>