<?xml version="1.0" encoding="UTF-8"?>
<svg id="Layer_2" data-name="Layer 2" xmlns="http://www.w3.org/2000/svg" viewBox="0 0 300 300">
  <g id="_레이어_1" data-name="레이어 1">
    <g>
      <g>
        <rect x="134.91" y="99.94" width="4.81" height="6.9" fill="#fff"/>
        <rect x="144.54" y="99.94" width="4.82" height="6.9" fill="#fff"/>
        <path d="m295.06,207.21h-82.03v-59.34h0c0-1.32-1.07-2.39-2.39-2.39h-24.98v-31.97h0c0-1.32-1.07-2.39-2.39-2.39h-17.26c-1.32,0-2.39,1.07-2.39,2.39v34.37h0c0,1.32,1.07,2.4,2.39,2.4h14.86v56.94h-19.84v-116.81c0-1.32-1.07-2.39-2.39-2.39h-51.4c-1.32,0-2.39,1.07-2.39,2.39v57.55l-14.12,9.17c-.68.44-1.09,1.2-1.09,2.01v48.09H4.94c-1.32,0-2.39,1.07-2.39,2.39s1.07,2.39,2.39,2.39h87.09c1.32,0,2.39-1.07,2.39-2.39v-49.18l10.42-6.77v55.95h0c0,1.32,1.07,2.39,2.39,2.39h14.29c1.32,0,2.39-1.07,2.39-2.39v-69.64c0-.46-.13-.92-.39-1.31-.72-1.11-2.2-1.42-3.31-.7l-10.59,6.88v-52.05h46.6v116.82h0c0,1.32,1.07,2.4,2.4,2.39h24.63c1.32,0,2.39-1.07,2.39-2.39v-59.34h22.58v59.34h0c0,1.33,1.08,2.4,2.4,2.39h84.43c1.32,0,2.4-1.07,2.4-2.4s-1.07-2.4-2.4-2.4Zm-175.93-62.83v62.83h-9.49v-56.66s9.49-6.17,9.49-6.17Zm61.74,1.1h-12.47v-29.57s12.47,0,12.47,0v29.57Z" fill="#fff"/>
        <rect x="134.91" y="110.87" width="4.81" height="6.9" fill="#fff"/>
        <rect x="144.54" y="110.87" width="4.82" height="6.9" fill="#fff"/>
        <rect x="134.91" y="121.8" width="4.81" height="6.9" fill="#fff"/>
        <rect x="144.54" y="121.8" width="4.82" height="6.9" fill="#fff"/>
      </g>
      <rect width="300" height="300" fill="none"/>
    </g>
  </g>
</svg>