<?xml version="1.0" encoding="UTF-8"?>
<svg id="Layer_2" data-name="Layer 2" xmlns="http://www.w3.org/2000/svg" viewBox="0 0 300 300">
  <g id="_레이어_1" data-name="레이어 1">
    <g>
      <path id="_패스_1157" data-name="패스 1157" d="m196.65,280.66c23.2-11.96,40.95-27.96,53.63-48.05.03-.04.05-.08.08-.13.64-1.01,1.24-2.05,1.85-3.09.46-.79.93-1.57,1.38-2.37.33-.59.65-1.2.98-1.79.72-1.33,1.43-2.66,2.1-4.02.11-.21.21-.43.32-.64,1.76-3.58,3.39-7.27,4.89-11.07h.03c7.4-18.73,11.55-40.17,12.64-64.38v-27.43h-28.84v60.68h-11.21s-9.3.02-9.3.02h-.12l-43.84.04c-.04,17.08-.08,34.16-.12,51.25h-11.59c-.02-20.67-.05-41.33-.07-62l18.37-.12-.07-15.62h0c.05-1.31.05-2.62.04-3.9-.01-1.14-.02-2.27-.03-3.4l.06-50.05-40.61-22.02c-.07,52.37-.13,104.75-.2,157.12h-15.61c.02-31.17.03-62.34.05-93.51l.5-77.78-39.31-19.82v30.93l.03.05.16,160.12h-14.78c.09-47.79.18-95.58.26-143.36v-.04c.04-23.56.09-47.11.13-70.67,0-1.41-.03-2.87-.13-4.32V.17h-8.25c-1.2-.14-2.41-.19-3.62-.17L25.51.17c-.02,78.38-.05,156.77-.07,235.15,39.87,62.61,96.25,83.98,171.22,45.35Zm37.55-93.18h10.49v17.37h-10.49v-17.37Zm-14.44,0h10.49v17.37h-10.49v-17.37Zm-14.44,0h10.49v17.37h-10.49v-17.37Zm-14.44,0h10.49v17.37h-10.49v-17.37ZM62.14,26.47h7.73v13.6h-7.73v-13.6Zm0,23.74h7.73v13.59h-7.73v-13.59Zm0,23.74h7.73v13.6h-7.73v-13.6Zm0,23.74h7.73v13.59h-7.73v-13.59Zm0,23.74h7.73v13.59h-7.73v-13.59Zm0,23.74h7.73v13.6h-7.73v-13.6Z" fill="#fff"/>
      <rect width="300" height="300" fill="none"/>
    </g>
  </g>
</svg>