<?xml version="1.0" encoding="UTF-8"?>
<svg id="Layer_2" data-name="Layer 2" xmlns="http://www.w3.org/2000/svg" viewBox="0 0 300 300">
  <g id="_레이어_1" data-name="레이어 1">
    <g>
      <g>
        <path d="m294.08,238.78c-11.19-5.84-22.37-11.67-33.56-17.51-35.12-18.22-70.16-36.52-105.11-54.9-3.46-1.83-5.64-1.66-8.95.12-15.25,8.16-30.71,16.1-46.1,24.11-30.34,15.76-60.65,31.56-90.93,47.4-2.91,1.52-6.75,2.76-6.34,6.33.42,1.19.41,3.15,1.33,3.42,2.6.78,4.77-.73,6.84-1.81,34.72-18.11,69.4-36.27,104.04-54.48,9.51-4.99,18.67-10.34,28.17-15.35,4.44-2.34,8.95-2.98,14.08-.19,13.11,7.1,26.59,13.83,39.87,20.77,31.42,16.47,62.85,32.92,94.3,49.34,1.72.9,3.72,2.93,5.71,1.41,1.2-.92.68-3.19.66-4.85-.03-1.94-2.09-2.83-3.99-3.82Z" fill="#fff"/>
        <path d="m293.99,211.18c-46.21-24.05-92.37-48.15-138.46-72.32-3.84-2.01-6.67-2.15-10.61-.03-15.7,8.43-31.65,16.6-47.51,24.87-29.55,15.5-59.19,30.92-88.92,46.26-4.38,2.26-7.33,5.53-4.34,8.37,3.01,2.86,6.31-1.19,8.91-2.53,43.55-22.44,86.95-45.05,130.2-67.81,5.39-2.84,9.13-2.72,14.29.13,13.26,7.32,26.94,14.23,40.46,21.29,31.22,16.33,62.46,32.65,93.7,48.96,1.58.83,3.02,2.31,5.18,1.83,2.18-.49.93-2.17.99-2.34.93-3.68-1.14-5.25-3.88-6.68Z" fill="#fff"/>
        <path d="m9.76,203.05c42.18-21.65,84.26-43.42,126.22-65.31,4.4-2.3,8.14-6,13.23-6.74,6.11-.89,9.18,4.09,13.79,6.24,27.73,12.98,53.83,27.68,80.72,41.54,17.5,9.02,34.91,18.15,53.1,27.62,4.37-8.2-3.74-10.21-9.23-13.09-43.06-22.59-86.3-45-129.25-67.7-5.81-3.07-9.79-3.3-15.74-.17-45.58,23.98-91.31,47.8-137.19,71.46-4.48,2.31-4.59,5.22-2.68,7.5,2.19,2.61,5.05-.34,7.02-1.36Z" fill="#fff"/>
        <path d="m12.98,229.75c43.02-22.22,86.02-44.46,128.67-67.06,6.87-3.64,11.35-3.19,17.81.23,43,22.62,86.07,45.17,129.21,67.64,2.67,1.39,4.73,3.79,9.16,3.51.13-3.48,1.55-6.6-3.93-9.31-18.85-9.33-37.33-19.08-55.87-28.74-27.54-14.3-54.99-28.69-82.34-43.18-3.87-2.05-6.64-2.14-10.56-.08-45.35,23.81-90.8,47.52-136.34,71.13-4.3,2.23-7.72,5.18-4.73,8.19,2.94,2.95,6.35-1,8.92-2.33Z" fill="#fff"/>
        <path d="m291.53,181.56c-28.17-14.71-56.33-29.43-84.48-44.16-16.91-8.85-33.82-17.69-50.6-26.66-4.27-2.29-7.47-2.33-12.17-.05-15.68,7.59-29.96,16.56-45.8,24.04-21.62,10.21-42.16,21.67-63.13,32.65-9.78,5.12-19.45,10.37-29.2,15.52-3.78,1.99-3.85,5.12-2.26,7.37,1.61,2.27,4.2.08,6.19-.96,44.99-23.48,89.95-47.01,134.86-70.57,3.71-1.95,6.38-2.33,10.52-.13,24.71,13.18,49.7,26.06,74.58,39.06,20.49,10.74,41,21.45,61.55,32.13,1.56.81,3.07,2.27,5.23,1.74,2.1-.51,1.09-2.14,1.33-3.28.78-3.87-3.48-5.03-6.62-6.69Z" fill="#fff"/>
        <path d="m16.11,129.23c42.55-22.18,85.19-44.28,127.51-66.7,5.81-3.08,9.44-2.64,14.73.32,12.25,6.85,25,13.21,37.58,19.74,1.53.79,3.34,2.48,5.08,1.2,1.1-.81.88-2.75.92-4.19.06-2.23-2.34-3.2-4.43-4.3-13.44-7.08-27.02-14.01-40.22-21.33-5.02-2.78-8.66-2.47-13.57.12C98.73,77.73,53.67,101.29,8.51,124.75c-4.99,2.59-6.36,5.44-3.94,10.22,4.13-2.05,7.89-3.84,11.54-5.74Z" fill="#fff"/>
        <path d="m196.85,90.13c-14.13-7.46-28.36-14.83-42.36-22.42-3.34-1.8-5.78-1.81-9.07-.09C99.52,91.63,53.62,115.61,7.7,139.58c-2.4,1.25-4.51,2.63-4.15,6.43-.09.83.24,1.66.88,2.19,1.4.88,3.12-.26,4.52-.99,6.01-3.15,12.03-6.3,18.05-9.45,38.58-20.16,77.23-40.24,115.64-60.59,5.8-3.07,9.71-2.47,14.99.47,12.25,6.85,24.93,13.29,37.56,19.75,1.72.87,3.97,3.47,6.24,1.07,1.56-1.65,1.28-4.15-.61-5.97-1.21-.96-2.54-1.76-3.96-2.37Z" fill="#fff"/>
        <path d="m13.68,173.37c42.9-22.18,85.65-44.51,128.26-66.99,5.66-2.99,9.35-3.53,15.44-.21,12.78,6.98,25.38,14.25,39.45,19.86,1.36.54,2.66,2.02,4.35.66,1.25-1,1.03-2.38.41-3.6-1.07-1.91-2.72-3.44-4.71-4.35-13.96-7.26-27.98-14.46-41.7-21.97-4.28-2.34-7.35-1.91-11.28.23-9.84,5.37-19.92,10.5-29.92,15.71-33.96,17.69-67.92,35.38-101.88,53.08-5.32,2.77-11.53,5.23-7.84,11.55,3.97-.23,6.49-2.45,9.41-3.96Z" fill="#fff"/>
        <path d="m4.85,162.39c2.48.67,4.06-1.18,5.84-2.11,43.8-22.76,87.5-45.63,131.09-68.6,5.91-3.11,9.65-3.53,16.01.32,12.24,7.42,25.92,13.52,39.05,20.13,1.09.55,2.74,1.17,3.78.93,1.97-.45,1.4-2.06,1.46-3.26.11-2.06-.99-3.52-3.36-4.75-14.92-7.73-29.74-15.56-44.48-23.48-3.34-1.79-5.95-1.62-9.19.08-45.88,24.13-91.79,48.23-137.73,72.29-2.23,1.17-4.02,2.34-3.89,4.76.28,1.13-.94,3.05,1.42,3.69Z" fill="#fff"/>
        <path d="m250.17,145.23c0,2.32.05,4.77,1.6,6.79.68.92,1.64,1.59,2.74,1.93,1.2.39,2.51.22,3.57-.46.78-.74,1.16-1.81,1-2.88l-.08-35.89-.08-35.62c0-1.71-.07-3.56-1.46-4.92-1.5-1.47-4.79-1.72-6.17-.05-1.63,1.96-1.32,5.08-1.31,7.28.06,21.27.12,42.54.19,63.81Z" fill="#fff"/>
        <path d="m237.18,143.12c1.02,2.39,3.37,3.92,5.97,3.89,3.72-.11,2.36-2.84,2.38-4.47.13-10.96.07-21.91.07-32.87h-.11c0-11.16.05-22.32-.05-33.49-.01-1.73.38-4.21-3.47-4-2.97.16-5.32,1.41-5.28,4,.01.83,0,1.65,0,2.48-.02,20.05-.01,40.11,0,60.16-.11,1.45.06,2.91.49,4.3Z" fill="#fff"/>
        <path d="m209.68,124.62c0,1.82.03,3.73,1.17,5.34,1.23,1.44,2.73,2.61,4.43,3.45.55.38,1.18.61,1.85.66.78,0,1.5-.4,1.9-1.07.27-.58.38-1.21.33-1.85,0-9.11,0-18.21,0-27.32-.01-9.5-.03-19.01-.06-28.52.06-.72-.08-1.43-.4-2.08-.68-1.13-2.44-1.75-4.11-1.75-1.23,0-3.97.34-4.75,1.15s-.45,2.66-.45,3.61l.11,48.37Z" fill="#fff"/>
        <path d="m222.75,130.9c0,2.23.07,4.63,1.85,6.42,1.59,1.61,4.24,2.39,6.76,3.07.97-22.01.38-44.04-.21-66.05.03-.49-.07-.98-.28-1.43-.55-.99-2.15-1.48-3.59-1.41-1.4.07-3.79.54-4.4,1.59-.74,1.27-.09,3.71-.09,5.09l-.03,52.71Z" fill="#fff"/>
        <path d="m271.43,122.52l21.05,11.11c1.47.78,3.67,1.52,4.88.51.42-.4.67-.95.7-1.52.11-.6.17-1.21.2-1.83.1-1.25-.22-2.5-.91-3.55-1.08-1.53-3.11-2.54-5.05-3.49l-21.25-10.32c-.72-.4-1.51-.66-2.32-.77-3.74-.28-3.68,4.62-2.51,6.15,1.2,1.56,3.23,2.66,5.21,3.7Z" fill="#fff"/>
        <path d="m292.47,139.16l-19.79-10.33c-.97-.58-2.04-.97-3.15-1.15-4.05-.44-4.7,3.96-3.21,5.82,1.14,1.43,3.05,2.4,4.89,3.34l26.11,13.21c.84-2.3,1.66-4.82.34-6.99-1.02-1.69-3.15-2.82-5.19-3.89Z" fill="#fff"/>
        <path d="m294.86,169.63c-7.65-4.41-15.45-8.65-23.41-12.74-.83-.45-1.79-.6-2.71-.43-.26.09-.51.22-.74.37-1.61,1.07-2.06,3.24-.99,4.85.46.54,1.04.95,1.71,1.2,2.97,1.18,13.42,6.58,28.48,14.59.88-1.76,1.75-3.75.68-5.45-.81-1.01-1.84-1.83-3.01-2.38Z" fill="#fff"/>
        <path d="m286.21,150.27c-7.91-3.73-15.04-7.73-15.04-7.73-.67-.26-1.39-.35-2.11-.27-1,.44-1.62,1.47-1.54,2.56-.08.97.13,1.94.58,2.81.98,1.54,2.86,2.63,4.69,3.65,6.68,3.72,13.51,7.29,20.49,10.68.55.3,1.14.51,1.76.62,1.39.19,2.73-.57,3.3-1.85.26-1.15-.04-2.36-.8-3.26-2.27-3.28-6.89-5.12-11.34-7.22Z" fill="#fff"/>
      </g>
      <rect width="300" height="300" fill="none"/>
    </g>
  </g>
</svg>