<?xml version="1.0" encoding="UTF-8"?>
<svg id="Layer_2" data-name="Layer 2" xmlns="http://www.w3.org/2000/svg" viewBox="0 0 300 300">
  <g id="_레이어_1" data-name="레이어 1">
    <g id="_13건축_shape_13_0002" data-name=" 13건축 shape 13 0002">
      <rect id="_사각형_68" data-name="사각형 68" width="300" height="300" fill="none"/>
      <path id="_패스_264" data-name="패스 264" d="m24.54,291.82h-8.18V98.9L150.27,13.6l132.01,83.92-4.39,6.89L150.27,23.28,24.54,103.38v188.44Z" fill="#fff"/>
      <path id="_패스_265" data-name="패스 265" d="m172.85,264.73c-28.24-.05-51.09-22.98-51.04-51.22.05-28.24,22.98-51.09,51.22-51.04,28.2.05,51.04,22.93,51.04,51.13-.06,28.25-22.97,51.12-51.22,51.12Zm0-94.09c-23.73.04-42.93,19.31-42.89,43.04.04,23.73,19.31,42.93,43.04,42.89,23.7-.04,42.88-19.26,42.89-42.96-.05-23.74-19.3-42.96-43.04-42.97h0Z" fill="#fff"/>
      <rect id="_사각형_50" data-name="사각형 50" x="73.02" y="8.18" width="8.18" height="56.09" fill="#fff"/>
      <path id="_패스_267" data-name="패스 267" d="m168.86,217.68h-87.93v-87.78h87.93v87.78Zm-79.75-8.16h71.58v-71.45h-71.58v71.45Z" fill="#fff"/>
    </g>
  </g>
</svg>