<?xml version="1.0" encoding="UTF-8"?>
<svg id="Layer_2" data-name="Layer 2" xmlns="http://www.w3.org/2000/svg" viewBox="0 0 300 300">
  <g id="_레이어_1" data-name="레이어 1">
    <path id="_패스_1156" data-name="패스 1156" d="m284.97,0H15.03C6.73,0,0,6.73,0,15.03v269.94c0,8.3,6.73,15.03,15.03,15.03h269.94c8.3,0,15.03-6.73,15.03-15.03h0V15.03c0-8.3-6.73-15.03-15.03-15.03h0Zm-24.9,269.86c0,3.58-2.9,6.48-6.48,6.48H45.38c-3.58,0-6.48-2.9-6.48-6.48h0v-97.54c-.08-3.58,2.76-6.54,6.34-6.61s6.54,2.76,6.61,6.34c0,.09,0,.18,0,.27v91.07h73.12c-.13-.59-.2-1.19-.2-1.8v-52.55c0-4.57,3.7-8.27,8.27-8.27h32.87c4.57,0,8.27,3.7,8.27,8.27v52.53c0,.61-.07,1.21-.2,1.8h73.12v-91.06c0-3.58,2.9-6.48,6.48-6.48s6.48,2.9,6.48,6.48v97.54Zm-62.26-82.1h8.84c1.43,0,2.6,1.16,2.6,2.6h0v12.8c0,1.43-1.16,2.6-2.6,2.6h-8.84c-1.43,0-2.6-1.16-2.6-2.6h0v-12.8c0-1.43,1.15-2.6,2.59-2.61h.01Zm-2.6-5.62v-12.8c0-1.43,1.16-2.6,2.6-2.6h8.84c1.43,0,2.6,1.16,2.6,2.6h0v12.8c0,1.43-1.16,2.6-2.6,2.6h-8.84c-1.43,0-2.6-1.16-2.6-2.59,0,0,0-.01,0-.02h0Zm19.88,5.65h8.84c1.43,0,2.6,1.16,2.6,2.6h0v12.8c0,1.43-1.16,2.6-2.6,2.6h-8.84c-1.43,0-2.6-1.16-2.6-2.6h0v-12.8c0-1.43,1.15-2.6,2.59-2.61h.01Zm-2.6-5.62v-12.8c0-1.43,1.16-2.6,2.6-2.6h8.84c1.43,0,2.6,1.16,2.6,2.6h0v12.8c0,1.43-1.16,2.6-2.6,2.6h-8.84c-1.43,0-2.6-1.16-2.6-2.59,0,0,0-.01,0-.02h0Zm50.44-29.96c-2.17.89-4.51,1.26-6.84,1.08l-212.8.11c-2.48.2-4.97-.21-7.26-1.18-3.74-1.95-5.19-6.57-3.24-10.31,1.13-2.16,3.21-3.65,5.62-4.02,1.79.02,3.57-.24,5.28-.77,2.57-1.32,2.94-4.76,3.11-7.65,3.09-40.64,30.02-75.55,68.53-88.87l.57,18.72c.11,3.68.75,8.16,4.16,9.55,3.11.87,6.39-.63,7.77-3.54,1.26-2.87,1.8-6,1.58-9.12l.26-26.04c-.39-3.25.55-6.52,2.6-9.07,1.99-1.5,4.43-2.32,6.92-2.31,6.84-.63,13.72-.59,20.55.13,2.16.03,4.27.73,6.02,2,1.94,2.26,2.9,5.2,2.65,8.17.35,8.53.43,17.06.25,25.61-.3,3.02.08,6.07,1.11,8.93,1.13,2.91,4.11,4.66,7.2,4.25,3.96-.97,5.07-5.99,5.27-10.06.29-5.87.3-11.73.03-17.61,6.86,2.03,13.46,4.88,19.64,8.48,9.42,5.48,17.9,12.43,25.14,20.58,6.97,7.91,12.63,16.88,16.79,26.57,4.16,9.63,6.73,19.87,7.6,30.32.37,4.56,1.24,10.26,5.64,11.55,1.13.23,2.28.38,3.44.44l.38.06c4.05.76,6.72,4.66,5.96,8.71-.43,2.28-1.89,4.23-3.96,5.28l.03.02Z" fill="#fff"/>
  </g>
</svg>