<?xml version="1.0" encoding="UTF-8"?>
<svg id="Layer_2" data-name="Layer 2" xmlns="http://www.w3.org/2000/svg" viewBox="0 0 300 300">
  <g id="_레이어_1" data-name="레이어 1">
    <g>
      <path id="_패스_820" data-name="패스 820" d="m295.34,72.41c-15.18-45.37-64.26-69.84-109.63-54.66-11.31,3.78-21.71,9.86-30.56,17.85-.97,1.05-2.19,1.84-3.54,2.31-2.69.67-5.21-1.39-7.3-3.21-18.03-15.47-41.53-23.02-65.2-20.95-11.68,1.12-23.02,4.59-33.33,10.18C28.85,33.07,13.13,48.61,5.97,66.68c-7.3,18.42-7.22,39.29-3.44,58.5.62,4.88,2.45,9.52,5.32,13.52,3.13,3.76,8.65,5.96,13.07,3.85,3.88-2.31,6.14-6.6,5.86-11.11-.34-4.41-1.21-8.76-2.6-12.96-.31-1.25-.59-2.5-.82-3.76-5.34-28.96,10.57-60.83,37.29-73.46,27.88-13.18,64.47-3.98,82.81,20.82,2.28,3.09,5.73,6.82,9.2,5.18,1.07-.62,1.99-1.47,2.68-2.5,17.74-21.98,48.11-34.69,75.3-27.04,21.68,6.09,39.06,24.61,45.1,46.3,5.72,22.13,1.4,45.66-11.81,64.32-.55,1-1.43,1.77-2.49,2.2-1.46.17-2.93-.29-4.03-1.27l-91.04-61.05c-5.35-3.59-11.23-7.32-17.65-6.88-5.1.35-9.59,3.31-13.83,6.16l-38.51,25.98c-.86.78-1.96,1.24-3.12,1.29-2.48-.17-3.93-3.31-7.19-9.35-3.38-6.27-5.09-9.41-6.24-10.14-4.54-2.88-10.8-.47-16.4,1.68-3.05,1.2-5.78,3.1-7.97,5.53-.54.72-1,1.49-1.37,2.3-.41.98-.69,2.01-.84,3.06-.63,4.92,10.04,24.09,10.04,24.09-.04.02-10.08,6.87-19.66,12.8-10.16,6.29-22.97,13.5-22.93,18.57.04,1.42.23,2.82.57,4.2.33,1.59.96,3.11,1.85,4.47,28.27,40.84,63.44,76.45,103.92,105.24,6.13,4.36,12.72,8.67,20.2,9.42,10.78,1.07,20.72-5.46,29.4-11.95,23.37-17.48,45.26-36.86,65.45-57.93,18.67-19.49,36.07-40.76,46.97-65.45,10.9-24.7,14.83-53.29,6.26-78.89Zm-150.94,132.67c0,2.28-1.84,4.12-4.12,4.12h-15.75c-2.28,0-4.12-1.85-4.12-4.12h0v-15.75c0-2.27,1.84-4.12,4.12-4.12h15.75c2.27,0,4.12,1.85,4.12,4.12v15.75Zm0-31.46c0,2.27-1.84,4.12-4.12,4.12h-15.75c-2.27,0-4.12-1.84-4.12-4.12h0v-15.76c0-2.28,1.84-4.12,4.12-4.12h15.75c2.28,0,4.12,1.85,4.12,4.12h0v15.75Zm36.91,31.47c0,2.28-1.84,4.12-4.12,4.12h-15.75c-2.28,0-4.12-1.85-4.12-4.12v-15.75c0-2.28,1.84-4.12,4.12-4.12h15.75c2.27,0,4.12,1.84,4.12,4.12h0v15.76Zm0-31.46c0,2.27-1.84,4.12-4.12,4.12h-15.75c-2.28,0-4.12-1.84-4.12-4.12v-15.75c0-2.28,1.84-4.12,4.12-4.12h15.75c2.28,0,4.12,1.85,4.12,4.12h0v15.75Z" fill="#fff"/>
      <rect width="300" height="300" fill="none"/>
    </g>
  </g>
</svg>