<?xml version="1.0" encoding="UTF-8"?>
<svg id="Layer_2" data-name="Layer 2" xmlns="http://www.w3.org/2000/svg" viewBox="0 0 300 300">
  <g id="_레이어_1" data-name="레이어 1">
    <g id="_13건축_shape_13_0001" data-name=" 13건축 shape 13 0001">
      <rect id="_사각형_67" data-name="사각형 67" width="300" height="300" fill="none"/>
      <path id="_패스_284" data-name="패스 284" d="m259.52,98.02c-21.61,3.57-27.87,5.05-72.08,7.51s-82.81-12.24-107.47-11.86-21.51,6.29-21.51,6.29c0,0-3.67-.03-4.76,4.58-1.11,4.68,3.49,8.51,7.41,10.76,1.86,1.06,11.34,3.78,13.51,4.15,90.4,15.49,176.59-2.59,183.34-4.76,6.8-2.19,16.11-19.07,1.57-16.67Zm-186.44,4.14s10.39-3.31,19.73,0c4.84,1.79,9.79,3.24,14.83,4.35-11.68.54-23.37-.93-34.56-4.35h0Z" fill="#fff"/>
      <path id="_패스_285" data-name="패스 285" d="m49.14,127.75s4.81-5.24,8.08-1.83-.9,9.69-4.56,18.14-9.86,31.27-23.09,36.13c0,0-26.52,7.45-28.83-8.05,0,0-.26-9.59,12.25-11.69,15.25-2.56,36.15-32.71,36.15-32.71Z" fill="#fff"/>
      <path id="_패스_286" data-name="패스 286" d="m81.14,138.74s3.71-6.07,7.57-3.35.98,9.68-.97,18.68-3.4,25.74-15.44,33.07c0,0-12.92,14.85-18.17.09,0,0-2.11-9.36,9.77-13.83,14.47-5.45,17.24-34.65,17.24-34.65Z" fill="#fff"/>
      <path id="_패스_287" data-name="패스 287" d="m263.88,137.75s-3.59-6.63-6.03-2.31.68,12.25,3.4,22.94,7.36,39.55,17.23,45.7c0,0,19.79,9.42,21.51-10.18,0,0,.2-12.13-9.15-14.78-11.38-3.23-26.98-41.36-26.98-41.36Z" fill="#fff"/>
      <path id="_패스_288" data-name="패스 288" d="m219.27,145.17s-2.45-5.06-4.12-1.77.46,9.35,2.32,17.51,5.03,30.19,11.77,34.89c0,0,13.52,7.19,14.7-7.77,0,0,.13-9.26-6.25-11.28-7.77-2.47-18.43-31.57-18.43-31.57Z" fill="#fff"/>
      <path id="_패스_289" data-name="패스 289" d="m177.06,143.34s-.88-5.55-3.43-2.88-2.27,9.08-2.85,17.43-3.93,30.35,1.17,36.8c0,0,10.86,10.8,16.32-3.18,0,0,2.81-8.82-2.71-12.61-6.73-4.61-8.5-35.56-8.5-35.56Z" fill="#fff"/>
    </g>
  </g>
</svg>