<?xml version="1.0" encoding="UTF-8"?>
<svg id="_레이어_2" data-name="레이어 2" xmlns="http://www.w3.org/2000/svg" viewBox="0 0 62 101">
  <g id="Logo">
    <g id="symbol_13_01_0004_01" data-name="symbol 13 01 0004 01">
      <path id="_패스_943" data-name="패스 943" d="m36.1,6.35c-.09.41-.03.83.15,1.2.82,2.04,1.61,4.1,2.46,6.12.22.39.14.88-.18,1.19-1.49,1.72-2.96,3.47-4.43,5.2-.17.21-.34.42-.51.63-.39.4-.51.99-.3,1.51.25.54.8.88,1.4.86,1.91.11,3.82.35,5.73.28,1.24-.09,2.4.58,2.93,1.7,1.11,1.81,2.33,3.55,3.55,5.29.41.65,1.27.84,1.91.42.26-.16.45-.41.56-.69.52-1.35.94-2.74,1.4-4.11.35-1.04.71-2.08,1.07-3.12.12-.36.47-.59.85-.56,1.87-.09,3.74-.19,5.61-.3.31-.02.62-.05.92-.07.54,0,1.02-.36,1.17-.88.2-.52.08-1.11-.3-1.52-1.54-1.81-3.04-3.65-4.64-5.41-.63-.68-.89-1.62-.7-2.53.28-2.26.46-4.53.65-6.8.11-.61-.18-1.23-.72-1.53-.53-.26-1.17-.19-1.64.18-2.05,1.28-4.1,2.54-6.14,3.84-.36.26-.82.34-1.25.21-2.51-.69-5.03-1.37-7.54-2.04-.22-.07-.45-.11-.68-.14-.65-.07-1.25.39-1.35,1.04" fill="#fff"/>
      <path id="_패스_944" data-name="패스 944" d="m7.17,45.62c-.08.38-.16.76-.25,1.13-.15.39-.03.84.28,1.11.34.28.81.33,1.2.12,1.42-.61,2.85-1.2,4.25-1.85.43-.23.95-.2,1.36.07,1.18.69,2.38,1.37,3.57,2.04.33.2.68.37,1.04.5.46.23,1.02.05,1.26-.41.09-.18.12-.38.09-.58-.02-.44-.06-.89-.14-1.32-.17-1.32-.35-2.64-.54-3.96-.07-.33.1-.67.42-.79,1.17-.64,2.33-1.3,3.49-1.95.28-.14.52-.33.72-.57.34-.43.28-1.05-.15-1.39-.11-.09-.24-.15-.38-.19-1.56-.67-3.12-1.34-4.7-1.98-.49-.18-.87-.58-1.03-1.08-.55-1.46-1.14-2.91-1.71-4.37-.03-.07-.05-.15-.09-.21-.22-.45-.42-.96-1.02-.99s-.91.42-1.19.88c-.87,1.44-1.75,2.86-2.62,4.3-.15.23-.4.37-.67.39-1.76.35-3.52.69-5.29,1.05-.5.1-1.02.23-1.16.81-.16.62.25,1.02.66,1.38,1.09.98,2.18,1.97,3.29,2.92.31.24.43.65.3,1.01-.31,1.31-.59,2.64-.88,3.95l-.11-.02" fill="#fff"/>
      <path id="_패스_945" data-name="패스 945" d="m32.45,73.67c-.01.74.01,1.47.08,2.21.16.74-.28,1.48-1.01,1.68-.75.37-1.49.79-2.19,1.25-.32.17-.44.57-.27.88.05.1.13.18.23.24.1.07.21.13.33.18.74.32,1.48.65,2.24.93.46.16.79.58.85,1.06.17.84.39,1.67.58,2.5.08.35.19.67.59.76.39.09.61-.15.82-.41.55-.69,1.14-1.37,1.67-2.08.23-.39.72-.53,1.13-.32.72.26,1.45.47,2.19.65.76.19,1.13-.21.88-.95-.31-.91-.61-1.84-.99-2.72-.2-.43-.17-.92.08-1.32.43-.83.81-1.68,1.21-2.53.25-.29.22-.73-.07-.99-.22-.19-.53-.22-.78-.09-.98.2-1.95.39-2.93.6-.29.07-.6,0-.83-.19-.8-.59-1.61-1.17-2.42-1.75-.12-.09-.26-.17-.4-.24-.51-.23-.85-.04-.98.62" fill="#fff"/>
      <path id="_패스_946" data-name="패스 946" d="m22.84,58.96c-.37,1.67.68,3.33,2.35,3.7,1.67.37,3.33-.68,3.7-2.35.37-1.67-.68-3.33-2.35-3.7,0,0,0,0,0,0-1.67-.37-3.32.68-3.69,2.35" fill="#fff"/>
      <path id="_패스_947" data-name="패스 947" d="m24.11,96.19c-.19.83.34,1.66,1.17,1.85.83.19,1.66-.34,1.85-1.17.19-.83-.34-1.66-1.17-1.85,0,0,0,0,0,0-.83-.18-1.66.34-1.85,1.18" fill="#fff"/>
      <path id="_패스_948" data-name="패스 948" d="m47.11,41c-.64,2.87,1.17,5.71,4.04,6.34s5.71-1.17,6.34-4.04c.64-2.87-1.17-5.71-4.04-6.34-2.87-.64-5.71,1.17-6.35,4.04,0,0,0,0,0,0" fill="#fff"/>
      <rect id="_사각형_343" data-name="사각형 343" width="62" height="101" fill="none"/>
    </g>
  </g>
</svg>