<?xml version="1.0" encoding="UTF-8"?>
<svg id="Layer_2" data-name="Layer 2" xmlns="http://www.w3.org/2000/svg" viewBox="0 0 406 292">
  <g id="Logo">
    <g id="symbol_12_01_0008_01" data-name="symbol 12 01 0008 01">
      <path id="_합치기_39" data-name="합치기 39" d="m284.85,274.13H17.68c-2.03-.03-3.66-1.7-3.63-3.73.03-1.99,1.64-3.6,3.63-3.63h38.96v-20.07c-12.23-2.86-21.34-19.8-21.34-40.91,0-23.18,10.99-41.34,25.02-41.34s25.03,18.16,25.03,41.34c0,21.11-9.12,38.05-21.35,40.91v20.07h53.78V55.22c0-2.03,1.65-3.68,3.68-3.68h20.79c1.91-19.03,17.91-33.52,37.03-33.54h47.74c19.12.02,35.12,14.51,37.03,33.54h20.79c2.03,0,3.68,1.64,3.68,3.67h0v211.55h53.78v-20.07c-12.23-2.86-21.35-19.8-21.35-40.91,0-23.18,10.99-41.34,25.03-41.34s25.02,18.16,25.02,41.34c0,21.11-9.11,38.05-21.34,40.91v20.07h38.96c2.03.03,3.66,1.7,3.63,3.73-.03,1.99-1.64,3.6-3.63,3.63h-103.78Zm-67.79-63.34c2.03,0,3.68,1.64,3.68,3.67h0v52.3h60.43V58.89H125.13v207.87h60.43v-52.29c0-2.03,1.64-3.68,3.67-3.68h27.83Zm-24.14,54.24h20.46v-46.88h-20.46v46.88Zm135.4-59.25c0,18.42,8.09,33.97,17.67,33.97s17.66-15.56,17.66-33.97-8.09-33.98-17.66-33.98-17.67,15.56-17.67,33.98h0Zm-285.66,0c0,18.42,8.09,33.97,17.66,33.97s17.67-15.56,17.67-33.97-8.09-33.98-17.67-33.98-17.67,15.56-17.67,33.98h0ZM149.65,51.54h107.01c-1.88-14.94-14.57-26.16-29.63-26.18h-47.74c-15.06.02-27.76,11.23-29.64,26.18h0Zm87.26,194.44c-2.03,0-3.68-1.65-3.68-3.68v-27.82c0-2.03,1.65-3.68,3.68-3.68h27.82c2.03,0,3.68,1.64,3.68,3.67h0v27.83c0,2.03-1.65,3.68-3.68,3.68h-27.82Zm3.68-7.37h20.46v-20.46h-20.46v20.46Zm-99.01,7.37c-2.03,0-3.68-1.65-3.68-3.68v-27.82c0-2.03,1.64-3.68,3.67-3.68h27.83c2.03,0,3.68,1.64,3.68,3.67h0v27.83c0,2.03-1.65,3.68-3.68,3.68h-27.83Zm3.68-7.37h20.47v-20.46h-20.47v20.46Zm91.66-38.98c-2.03,0-3.68-1.65-3.68-3.68v-27.83c0-2.03,1.65-3.68,3.68-3.68h27.82c2.03,0,3.68,1.65,3.68,3.68v27.83c0,2.03-1.65,3.68-3.68,3.68h-27.82Zm3.68-7.36h20.46v-20.47h-20.46v20.47Zm-51.35,7.36c-2.03,0-3.68-1.65-3.68-3.68v-27.83c0-2.03,1.65-3.68,3.68-3.68h27.82c2.03,0,3.68,1.64,3.68,3.68h0v27.83c0,2.03-1.64,3.68-3.68,3.68h-27.82Zm3.68-7.36h20.46v-20.47h-20.46v20.47Zm-51.35,7.36c-2.03,0-3.68-1.65-3.68-3.68v-27.83c0-2.03,1.65-3.68,3.68-3.68h27.83c2.03,0,3.68,1.65,3.68,3.68v27.83c0,2.03-1.65,3.68-3.68,3.68h-27.83Zm3.68-7.36h20.47v-20.47h-20.47v20.47Zm91.66-38.98c-2.03,0-3.68-1.65-3.68-3.68v-27.83c0-2.03,1.65-3.68,3.68-3.68h27.82c2.03,0,3.68,1.65,3.68,3.68v27.83c0,2.03-1.65,3.68-3.68,3.68h-27.82Zm3.68-7.36h20.46v-20.47h-20.46v20.47Zm-51.35,7.36c-2.03,0-3.68-1.65-3.68-3.68h0v-27.83c0-2.03,1.65-3.68,3.68-3.68h27.82c2.03,0,3.68,1.64,3.68,3.68h0v27.83c0,2.03-1.64,3.68-3.67,3.68h-27.83Zm3.68-7.36h20.46v-20.47h-20.46v20.47Zm-51.35,7.36c-2.03,0-3.68-1.65-3.68-3.68v-27.83c0-2.03,1.65-3.68,3.68-3.68h27.83c2.03,0,3.68,1.65,3.68,3.68v27.83c0,2.03-1.65,3.68-3.68,3.68h-27.83Zm3.68-7.36h20.47v-20.47h-20.47v20.47Zm91.66-38.98c-2.03,0-3.68-1.65-3.68-3.68v-27.83c0-2.03,1.65-3.68,3.68-3.68h27.82c2.03,0,3.68,1.65,3.68,3.68h0v27.83c0,2.03-1.65,3.68-3.68,3.68h-27.82Zm3.68-7.36h20.46v-20.47h-20.46v20.47Zm-51.35,7.36c-2.03,0-3.68-1.65-3.68-3.68v-27.83c0-2.03,1.65-3.68,3.68-3.68h27.82c2.03,0,3.68,1.64,3.68,3.67h0v27.83c0,2.03-1.64,3.68-3.68,3.68h-27.82Zm3.68-7.36h20.46v-20.47h-20.46v20.47Zm-51.35,7.36c-2.03,0-3.68-1.65-3.68-3.68v-27.83c0-2.03,1.65-3.68,3.68-3.68h27.83c2.03,0,3.68,1.65,3.68,3.68h0v27.83c0,2.03-1.65,3.68-3.68,3.68h-27.83Zm3.68-7.36h20.47v-20.47h-20.47v20.47Z" fill="#fff"/>
      <rect id="_사각형_400" data-name="사각형 400" width="406" height="292" fill="none"/>
    </g>
  </g>
</svg>