<?xml version="1.0" encoding="UTF-8"?>
<svg id="Layer_2" data-name="Layer 2" xmlns="http://www.w3.org/2000/svg" viewBox="0 0 128 88">
  <g id="Logo">
    <g id="symbol_15_02_0004_01" data-name="symbol 15 02 0004 01">
      <path id="_패스_1152" data-name="패스 1152" d="m120.19,10.85l-5.86-4.05c-.67-.46-1.59-.31-2.07.34l-13.14,17.52-4.69-2.75c-.61-.36-1.39-.25-1.87.27l-28.62,30.38-28.63-30.38c-.49-.51-1.26-.63-1.87-.27l-4.7,2.75L15.6,7.14c-.49-.66-1.41-.81-2.08-.34l-5.86,4.05c-.61.42-.83,1.22-.51,1.89l17.19,36.8c.08.17.19.33.33.46l17.12,16.34v13.3c0,.84.68,1.52,1.52,1.52h41.25c.84,0,1.52-.68,1.52-1.52v-13.3l17.12-16.33c.14-.13.25-.29.33-.46l17.19-36.8c.31-.67.1-1.47-.51-1.89m-57.79,67.27h-17.59v-12.44c0-.42-.17-.81-.47-1.1l-17.39-16.58L10.43,12.62l3.61-2.49,13.08,17.44c.15.19.33.34.55.45l11.08,17.35c.46.7,1.41.89,2.1.42.68-.45.88-1.36.45-2.05l-10.65-16.68,3.27-1.92,28.49,30.23v22.75Zm38.48-30.12l-17.39,16.59c-.3.29-.47.68-.47,1.1v12.44h-17.59v-22.76l28.49-30.23,3.66,2.15-10.5,16.45c-.46.7-.28,1.64.42,2.1.7.46,1.64.28,2.1-.42.01-.02.02-.03.03-.05l11.43-17.9c.12-.2.2-.42.22-.65l12.52-16.69,3.61,2.49-16.53,35.39Z" fill="#fff"/>
      <rect id="_사각형_474" data-name="사각형 474" width="128" height="88" fill="none"/>
    </g>
  </g>
</svg>