<?xml version="1.0" encoding="UTF-8"?>
<svg id="Layer_2" data-name="Layer 2" xmlns="http://www.w3.org/2000/svg" viewBox="0 0 274 274">
  <g id="Logo">
    <g id="symbol_15_03_0003_01" data-name="symbol 15 03 0003 01">
      <path id="_패스_1157" data-name="패스 1157" d="m213.21,147.68c5.99-21.88,9.08-44.45,9.19-67.13l-85.41-48.1-85.41,48.1c.12,22.77,3.23,45.43,9.26,67.39,13.48,47.88,39.09,79.58,76.14,94.25,37.12-14.69,62.76-46.48,76.21-94.5m-76.21,37.22c-26.39,0-47.78-21.39-47.78-47.78,0-26.39,21.39-47.78,47.78-47.78,26.39,0,47.78,21.39,47.78,47.78s-21.39,47.78-47.78,47.78h0" fill="#fff"/>
      <path id="_패스_1158" data-name="패스 1158" d="m137,266.24c-71.31,0-129.12-57.81-129.12-129.12,0-71.31,57.81-129.12,129.12-129.12,71.31,0,129.12,57.81,129.12,129.12-.08,71.28-57.84,129.04-129.12,129.12m0-252.1c-67.92,0-122.97,55.06-122.97,122.98s55.06,122.97,122.97,122.97,122.97-55.06,122.98-122.97c-.08-67.89-55.09-122.9-122.98-122.97" fill="#fff"/>
      <rect id="_사각형_481" data-name="사각형 481" width="274" height="274" fill="none"/>
    </g>
  </g>
</svg>