<?xml version="1.0" encoding="UTF-8"?>
<svg id="Layer_2" data-name="Layer 2" xmlns="http://www.w3.org/2000/svg" viewBox="0 0 212 212">
  <g id="Logo">
    <g id="symbol_11_02_0007_02" data-name="symbol 11 02 0007 02">
      <path id="_패스_954" data-name="패스 954" d="m157.95,140.96c-11.04,7.26-21.66,9.85-31.17,9.85-22.99,0-39.51-15.03-39.76-15.26-2.18-2.07-2.26-5.52-.19-7.69,2.04-2.14,5.41-2.27,7.6-.28,1.19,1.09,28.51,25.64,60.17,2.46-1.84-7.53-2.8-15.24-2.87-22.99-5.31-.99-8.82-6.11-7.83-11.42.86-4.6,4.85-7.94,9.53-7.99,4.32-22.98,16.55-43.73,34.57-58.63C145.4-6.26,82.28-.32,47.02,42.28c-35.26,42.6-29.32,105.72,13.28,140.98,37.04,30.67,90.66,30.67,127.7,0-13.55-11.22-23.91-25.81-30.05-42.3m-63.19-53.33c5.41,0,9.8,4.38,9.81,9.79s-4.38,9.8-9.79,9.81-9.8-4.38-9.81-9.79h0c0-5.42,4.39-9.8,9.79-9.81" fill="#fff"/>
      <rect id="_사각형_337" data-name="사각형 337" width="212" height="212" fill="none"/>
    </g>
  </g>
</svg>