<?xml version="1.0" encoding="UTF-8"?>
<svg id="Layer_2" data-name="Layer 2" xmlns="http://www.w3.org/2000/svg" viewBox="0 0 257 257">
  <g id="Logo">
    <g id="symbol_07_03_0003_02" data-name="symbol 07 03 0003 02">
      <rect id="_사각형_290" data-name="사각형 290" width="257" height="257" fill="none"/>
      <path id="_패스_1109" data-name="패스 1109" d="m156.08,136.01c-3.04.12-6.17.28-9.4.49l.67,4.59c.09.62.17,1.17.24,1.64,1.73.14,4.06.33,4.86.39h0c6.9.43,13.82.43,20.72,0,1.95-.09,3.94-.21,5.93-.35v-6.89l-4.01-.04-19,.17Z" fill="#fff"/>
      <path id="_패스_1110" data-name="패스 1110" d="m178.16,185.96c-.07-7.57-.14-15.4-.18-23.1-.03-5.02-.03-10-.04-15.04-1.52.1-3.03.19-4.52.26-3.26.15-7.23.34-11.61.34-3.08,0-6.35-.09-9.73-.35h0c-.44-.03-1.38-.11-2.42-.19v.32c-.34,14.85-.68,30.21-.89,45.31-.09,6.44-3.08,9.44-10.01,10.05-15.28,1.33-30.2,3.3-42.78,5.04-1.17.44-2.13,1.3-2.71,2.41-.51,2.26-.83,4.56-.96,6.88-.14,2.04-.39,4.06-.74,6.07-.23,1.18-1.54,4.67-3.68,6.04,13.04,5.23,26.95,7.91,41,7.9,17.38.03,34.51-4.08,49.99-11.98-.35-1.18-.52-2.4-.5-3.63,0-12.11-.12-24.42-.23-36.33Z" fill="#fff"/>
      <path id="_패스_1111" data-name="패스 1111" d="m187.17,116.56c-.47-.15-.97-.17-1.45-.05-1.43.33-2.93-.02-4.07-.94-2.22-1.89-2.3-4.9-2.36-7.82v-.36c-.24-9.38-5.94-15.31-15.23-15.87-.55-.03-1.1-.05-1.63-.05-5.9,0-10.75,2.02-13.76,5.76-1.73,2.16-2.26,4.23-3.19,8.36-.02.07-1.59,7.54-.22,25.52l10.75-.1c4.59-.18,8.97-.26,13.08-.23,1.03,0,3.5.03,6.01.06l6.3-.06c3.03-2.22,5.56-5.05,7.43-8.31.5-.72.78-1.56.83-2.44-.14-1.52-1.09-2.84-2.47-3.47Z" fill="#fff"/>
      <path id="_패스_1112" data-name="패스 1112" d="m140.62,104.46c.83-3.68,1.47-6.47,3.32-9.23-8.48-4.68-18.01-7.14-27.7-7.13-19.94.01-38.46,10.34-48.95,27.3h-.1c-.37.64-.71,1.26-1.02,1.84-.37.7-1.05,1.18-1.83,1.31l-15.98,2.52,92.09,12.23c-1.69-20.22.1-28.5.18-28.85Z" fill="#fff"/>
      <path id="_패스_1113" data-name="패스 1113" d="m91.51,61.89l1.63-7.97-25.86,9.31,19.59,19.73,4.64-21.07Z" fill="#fff"/>
      <path id="_패스_1114" data-name="패스 1114" d="m187.39,107.83l1.59.37c3.2.75,6.52,1.54,9.8,2.14,1.4.21,2.71-.76,2.91-2.17,0,0,0,0,0,0,2.13-9.37,4.23-18.98,6.24-28.56.41-1.33-.33-2.75-1.67-3.16-.02,0-.04-.01-.06-.02-3.22-.81-6.54-1.44-9.75-2.05l-1.62-.31-5.56,25.06-1.89,8.69Z" fill="#fff"/>
      <path id="_패스_1115" data-name="패스 1115" d="m93.92,86.57c4.5-1.69,9.19-2.84,13.96-3.43,14.17-2.57,28.18.18,38.44,7.55.32.23.63.47.94.71.04.02.07.04.11.06,4.3-3.56,10.3-5.34,17-4.94,10.06.61,17.05,6.29,19.23,15.23v-.02s0-.02,0-.02l.82-3.68,5.43-25.03-91.28-19.96-2.18,9.91-4.74,23.13,2.28.5Z" fill="#fff"/>
      <path id="_패스_1116" data-name="패스 1116" d="m143.2,146.17q-.18-.36-.77-4.38l-.48-3.25-80.48-10.69c-1.8,5.53-2.75,11.31-2.81,17.13.11,0,.23-.02.34-.02,2.66,0,4.82,2.16,4.82,4.82,0,2.52-1.95,4.62-4.47,4.8.44,2.8,1.08,5.56,1.93,8.26.75-1.05,2.16-1.36,3.28-.72l5.97,3.41,12.01-4.1c1.31-.45,2.74.25,3.19,1.57.45,1.31-.25,2.74-1.57,3.19l-13.09,4.47c-.26.09-.54.13-.81.13-.44,0-.87-.11-1.25-.33l-6.31-3.6c7.33,18.38,23.55,31.74,43,35.39,10.14-1.34,21.28-2.67,32.64-3.66,4.87-.42,5.38-1.81,5.42-5.11.21-15.12.55-30.49.88-45.35l.02-.7c-.64-.21-1.17-.66-1.48-1.26Zm-72.41,13.83c-3.19,0-5.77-1.29-5.77-2.89s2.59-2.89,5.77-2.89,5.77,1.29,5.77,2.89-2.58,2.89-5.77,2.89Zm17.14-4.96c-2.66,0-4.82-2.16-4.82-4.82,0-2.66,2.16-4.82,4.82-4.82h0c2.66,0,4.82,2.16,4.82,4.82,0,2.66-2.15,4.82-4.82,4.82h0Z" fill="#fff"/>
      <path id="_패스_1117" data-name="패스 1117" d="m128.91,254.06c-68.89-.08-124.72-55.91-124.8-124.8C4.19,60.37,60.02,4.54,128.91,4.46c68.89.08,124.72,55.91,124.8,124.8-.08,68.89-55.91,124.72-124.8,124.8Zm0-243.61c-65.58.07-118.73,53.22-118.81,118.81.07,65.58,53.22,118.73,118.81,118.81,65.58-.07,118.73-53.22,118.81-118.81-.07-65.59-53.22-118.73-118.81-118.81h0Z" fill="#fff"/>
    </g>
  </g>
</svg>