<?xml version="1.0" encoding="UTF-8"?>
<svg id="Layer_2" data-name="Layer 2" xmlns="http://www.w3.org/2000/svg" viewBox="0 0 108 90">
  <g id="Logo">
    <g id="symbol_04_02_0004_02" data-name="symbol 04 02 0004 02">
      <path id="_패스_1105" data-name="패스 1105" d="m44.23,70.67c2.52-1.71,5.01-3.47,7.47-5.27,1.33-.98,2.66-1.98,3.97-2.99,9.42-7.18,18.17-15.19,26.14-23.95,5.21-6.12,18.71-21.71,11.95-29.77-7.39-7.48-24.16,4.45-30.76,9.07-8.1,6.06-15.71,12.74-22.76,19.99.17,1.43.42,2.84.76,4.24,8.14-6.8,16.74-13.04,25.73-18.69,5.83-3.53,11.84-7.15,18.27-8.93.94-.28,1.92-.39,2.89-.33,0-.12,0-.23,0-.35,0,.02,0,.04,0,.06.04,0,.04.15.14.17.01.09.16.11.16.15.02.01.04.02.06.01-.01,0-.03,0-.04,0-.1-.02-.21-.02-.31-.03-.04.98-.25,1.94-.61,2.85-2.4,6.22-6.58,11.86-10.65,17.32-7.2,9.36-15.11,18.15-23.64,26.32-1.52,1.44-3.07,2.86-4.64,4.26-2.05,1.82-4.13,3.6-6.26,5.33-7.2-2.06-13.97-5.4-19.99-9.86.2-.24.4-.47.58-.67l3.34-3.57c-.4-.27-.8-.55-1.19-.83-1,1.24-1.99,2.48-2.96,3.74-.16.22-.35.48-.55.75-4.44-3.29-8.35-7.23-11.61-11.7,2.18,5.65,5.02,11.03,8.45,16.03.13.19.26.37.39.56,3.65,5.18,8.32,9.56,13.73,12.85.24.14.48.29.73.43,6.75,3.86,15.07,6.17,25.49,6.17,24.49,0,39.83-20.58,39.83-20.58-22.35,10.2-40.32,10.69-54.09,7.27" fill="#fff"/>
      <rect id="_사각형_288" data-name="사각형 288" width="108" height="90" fill="none"/>
    </g>
  </g>
</svg>