<?xml version="1.0" encoding="UTF-8"?>
<svg id="_레이어_2" data-name="레이어 2" xmlns="http://www.w3.org/2000/svg" viewBox="0 0 97 56">
  <g id="Logo">
    <g id="symbol_04_03_0006_02" data-name="symbol 04 03 0006 02">
      <path id="_패스_1257" data-name="패스 1257" d="m89.04,19.42c-5.63.15-8.86-2.41-11.93-5.34-7.35-7.01-9.9-6.99-17.21.03-7.73,7.43-15.72,7.42-23.62-.02-7.32-6.9-9.87-6.9-17.12.21-3.46,3.39-7.25,5.62-12.38,5.11-2.85-.29-4.38-1.53-4.92-4.27-.53-2.7-1-5.14,3.25-3.51,3.67,1.4,6.48-.17,8.93-2.87,2.94-3.24,6.19-6.09,10.67-6.94,6.03-1.14,10.94,1.02,15.21,5.21,7.13,7,9.78,6.99,16.71.16,7.92-7.8,16.07-7.86,23.89.04,3.45,3.48,6.85,6.4,12.15,4.03.94-.42,2.16-.55,2.12.84-.07,2.5.12,5.35-2.6,6.74-1,.4-2.08.59-3.16.58" fill="#fff"/>
      <path id="_패스_1259" data-name="패스 1259" d="m83.45,25.06c-14.76-11.57-14.92-11.52-29.43-.25-4.58,3.56-8.01,3.39-12.3-.64-1.05-.98-2-2.07-3.05-3.05-6.53-6.05-15.01-6.08-21.57-.11-2,1.82-3.73,4.36-6.09,5.29-4.95,1.95-3.3,4.42-1.23,7.12,9.86,12.82,22.8,19.68,40.5,19.82,12.86-.6,24.84-6.13,34.2-17.04,1.86-2.17,4.42-4.42,4.41-7.2-.01-2.48-3.61-2.5-5.44-3.94" fill="#fff"/>
      <rect id="_사각형_409" data-name="사각형 409" width="97" height="56" fill="none"/>
    </g>
  </g>
</svg>