<?xml version="1.0" encoding="UTF-8"?>
<svg id="_레이어_2" data-name="레이어 2" xmlns="http://www.w3.org/2000/svg" viewBox="0 0 323 246">
  <g id="Logo">
    <g id="symbol_17_06_0002_02" data-name="symbol 17 06 0002 02">
      <path id="_패스_1196" data-name="패스 1196" d="m102.89,231.36c.18-20.18.07-40.36.07-60.55h.06c0-19.75.13-39.51-.08-59.26,0-.71.02-1.42.1-2.13H34.53c-1.51-.08-13-.46-21.44,8.88s-6.91,20.72-6.68,22.22l1.63,5.6,24.29,53.26c3.92,8.52,9.15,16.37,15.51,23.27,3.59,3.83,8.25,7.98,15.09,9.88,2.01.56,4.08.89,6.16.99h33.91c-.08-.72-.12-1.44-.11-2.16" fill="#fff"/>
      <path id="_패스_1197" data-name="패스 1197" d="m308.92,118.3c-8.44-9.33-19.93-8.95-21.44-8.88h-70.13c.06,1.08.07,2.37.07,3.94.11,39.3.14,78.6.37,117.89,0,.75-.03,1.51-.12,2.26h35.24c2.08-.1,4.15-.43,6.16-.99,6.84-1.9,11.5-6.05,15.09-9.88,6.36-6.89,11.59-14.75,15.51-23.27l24.29-53.26,1.63-5.6c.23-1.49,1.76-12.88-6.68-22.21" fill="#fff"/>
      <path id="_패스_1199" data-name="패스 1199" d="m199.9,11.58h0c-9.14-8.12-23.14-7.28-31.25,1.86l-7.64,8.61-7.64-8.61c-8.17-9.1-22.17-9.84-31.26-1.67-9.02,8.1-9.84,21.95-1.85,31.07l23.23,26.17c4.42,4.99,10.86,7.71,17.52,7.41,6.66.3,13.1-2.43,17.52-7.41l23.23-26.17c8.11-9.14,7.28-23.13-1.86-31.25" fill="#fff"/>
      <rect id="_사각형_556" data-name="사각형 556" width="323" height="246" fill="none"/>
    </g>
  </g>
</svg>