<?xml version="1.0" encoding="UTF-8"?>
<svg id="Layer_2" data-name="Layer 2" xmlns="http://www.w3.org/2000/svg" viewBox="0 0 334 66">
  <g id="Logo">
    <g id="symbol_20_03_0001_01" data-name="symbol 20 03 0001 01">
      <path id="_패스_508" data-name="패스 508" d="m103.03,9H8.89c0,15.16,7.3,29.4,19.63,38.23-.54.61-.84,1.39-.84,2.2v4.11c0,1.85,1.5,3.35,3.35,3.35h49.87c1.85,0,3.35-1.5,3.35-3.35h0v-4.11c0-.81-.3-1.59-.84-2.2,12.33-8.83,19.64-23.07,19.63-38.23" fill="#fff"/>
      <path id="_패스_509" data-name="패스 509" d="m213.96,9h-94.15c0,15.16,7.3,29.4,19.63,38.23-.54.61-.84,1.39-.84,2.2v4.11c0,1.85,1.5,3.35,3.35,3.35h49.87c1.85,0,3.35-1.5,3.35-3.35h0v-4.11c0-.81-.3-1.59-.84-2.2,12.33-8.83,19.64-23.07,19.63-38.23" fill="#fff"/>
      <path id="_패스_510" data-name="패스 510" d="m324.88,9h-94.15c0,15.17,7.3,29.4,19.63,38.23-.54.61-.84,1.39-.84,2.2v4.11c0,1.85,1.5,3.35,3.35,3.35h49.87c1.85,0,3.35-1.5,3.35-3.35h0v-4.11c0-.81-.3-1.59-.84-2.2,12.33-8.83,19.64-23.07,19.63-38.23" fill="#fff"/>
      <rect id="_사각형_180" data-name="사각형 180" width="334" height="66" fill="none"/>
    </g>
  </g>
</svg>