<?xml version="1.0" encoding="UTF-8"?>
<svg id="Layer_2" data-name="Layer 2" xmlns="http://www.w3.org/2000/svg" viewBox="0 0 78 78">
  <g id="Logo">
    <g id="symbol_02_04_0003_02" data-name="symbol 02 04 0003 02">
      <path id="_패스_1370" data-name="패스 1370" d="m39.36,6.75c-17.96,0-32.51,14.56-32.51,32.52,0,2.61.31,5.21.94,7.74.01.08.03.15.06.23,4.41,17.4,22.09,27.94,39.49,23.53,17.4-4.41,27.94-22.09,23.53-39.49-3.65-14.42-16.63-24.53-31.51-24.53m27.65,32.51c0,2.04-.23,4.07-.68,6.06l-.26-.26.03-.03c-.42.4-4.3,3.81-11.31-1.26-3.48-2.52-3.38-3.98-3.2-6.4.2-2.72.46-6.45-4.87-10.48-1.18-.75-1.92-2.02-1.99-3.42-.1-3.36,3.43-7.51,5.61-9.61,10.12,4.38,16.68,14.35,16.69,25.38m-54.09,8.09c3.04-2.58,7.56-5.43,9.68-4.75,1.86.59,1.93,3.19,1.4,7.77-.32,2.78-.57,4.97,1,6.3.85.7,2.01.91,3.06.55,1.67-.49,4.62-1.04,5.7.84,1,1.75.39,5.16-2.01,7.77-8.99-2.59-16.06-9.54-18.82-18.48m26.44,19.56c-.77,0-1.54-.04-2.29-.1,2.25-3.67,2.7-8,.91-11.15-.85-1.49-3.37-4.58-9.27-3.57.04-.39.09-.8.13-1.16.47-4.13,1.27-11.03-4.75-12.95-3.99-1.27-8.94,1.57-12.23,4.02-.09-.9-.14-1.81-.14-2.73,0-15.26,12.36-27.64,27.62-27.65,1.96,0,3.92.21,5.84.62-2.43,2.73-5.44,7-5.31,11.39.11,2.87,1.56,5.52,3.92,7.16,3.23,2.44,3.13,3.88,2.96,6.26-.2,2.78-.47,6.58,5.2,10.68,2.85,2.25,6.34,3.52,9.96,3.64.82,0,1.63-.08,2.44-.24-4.58,9.64-14.3,15.78-24.97,15.79" fill="#fff"/>
      <rect id="_사각형_431" data-name="사각형 431" width="78" height="78" fill="none"/>
    </g>
  </g>
</svg>