<?xml version="1.0" encoding="UTF-8"?>
<svg id="_레이어_2" data-name="레이어 2" xmlns="http://www.w3.org/2000/svg" viewBox="0 0 116 116">
  <g id="Logo">
    <g id="symbol_05_01_0004_01" data-name="symbol 05 01 0004 01">
      <rect id="_사각형_418" data-name="사각형 418" width="116" height="116" fill="none"/>
      <path id="_패스_1326" data-name="패스 1326" d="m102.21,3.48H14.18c-5.23,0-9.47,4.24-9.47,9.47h0v88.04c0,5.23,4.24,9.47,9.47,9.47h88.04c5.23,0,9.47-4.24,9.47-9.47h0V12.94c0-5.23-4.24-9.47-9.47-9.47h0m-52.3,25.72c2.23-4.66,4.71-9.21,7.42-13.61.62-1.05,1.13-1.1,1.8,0,3.58,5.58,6.61,11.51,9.03,17.68.69,1.8,1.09,3.7,1.17,5.63-.07,6.42-3.34,11.16-8.22,12.49-6.4,1.75-12.58-2.37-13.81-9.01-.89-4.79.68-9,2.6-13.18m53.7,59.87c-1.42,1.62-3.19,2.89-5.18,3.72-6.64,3.12-13.9,4.34-21.23,5.29-6.69.83-13.43,1.17-20.16,1.03-.73-.01-1.65.24-2.1-.49-.48-.79.02-1.54.52-2.18,1.79-2.28,4.55-2.63,7.38-2.74,7.38-.2,14.73-.94,22-2.2,3.47-.54,6.86-1.51,10.09-2.89,1.77-.83,3.88-1.7,3.84-3.74-.04-2.16-2.25-3-4.15-3.88-.31-.11-.63-.2-.96-.26.85,1.26,1.65,2.39.71,3.66-.91,1.09-2.09,1.92-3.42,2.42-5.27,2.16-10.83,3.54-16.5,4.1-12.67,1.68-25.52,1.37-38.1-.91-4.22-.79-8.42-1.74-12.12-3.85-2.87-1.63-3.17-2.48-1.78-5.35-2.05.65-3.66,1.47-4.63,3.07-.66,1.1-.2,2.02.64,2.85,1.32,1.2,2.89,2.08,4.61,2.57,2.72.87,5.49,1.63,8.23,2.46,2.08.63,4.17,1.29,5.19,3.24.38.72.75,1.53.23,2.24-.57.79-1.53.32-2.28.19-6.05-1.05-12.04-2.27-17.42-5.08-1.06-.55-2.05-1.21-2.97-1.96-3.39-2.82-3.18-6.29.47-8.85,4.33-3.04,9.46-4.48,14.7-5.61,7.1-1.52,14.32-2.37,21.58-2.54.98.07,1.9-.48,2.31-1.37,1.82-3.46,2.81-7.29,2.9-11.2.07-1.25.03-2.5.14-3.75.09-1.05.51-2.04,1.98-1.98,1.39.06,1.85.96,1.87,2.08.04,2.61.26,5.21.64,7.79,1.09,7.22,5.62,12.44,12.26,16.45.65.4,1.67.58,1.58,1.5-.09.9-1.03,1.22-1.81,1.58-1.66.73-3.41,1.24-5.21,1.49-1.28.11-2.49.65-3.43,1.55,3.58,0,7.16-.28,10.7-.87,3.03-.33,5.98-1.14,8.76-2.4.89-.45,2.02-.87,1.92-2.03-.1-1.1-1.15-1.52-2.12-1.91-2.99-1.06-6.09-1.79-9.24-2.15-.93-.14-1.87-.26-2.78-.47-1.19-.19-2.21-.95-2.74-2.04-.61-1.39-.19-2.08,1.46-1.98,9.9.6,19.64,1.88,28.62,5.95,1.94.78,3.67,2.03,5.02,3.64,1.5,1.66,1.49,4.18-.01,5.83" fill="#fff"/>
    </g>
  </g>
</svg>