<?xml version="1.0" encoding="UTF-8"?>
<svg id="Layer_2" data-name="Layer 2" xmlns="http://www.w3.org/2000/svg" viewBox="0 0 110 110">
  <g id="Logo">
    <g id="symbol_14_01_0006_01" data-name="symbol 14 01 0006 01">
      <path id="_패스_1116" data-name="패스 1116" d="m54.79,2.79C25.96,2.79,2.58,26.17,2.58,55s23.37,52.21,52.21,52.21,52.21-23.37,52.21-52.21c-.03-28.82-23.39-52.18-52.21-52.21m6.56,97.35v-9.18c.1-.9.67-1.68,1.51-2.04,7.96-4.43,10.82-14.47,6.38-22.43-1-1.8-2.33-3.4-3.92-4.71-.26-.22-.55-.41-.95-.71v1.01c0,3.99,0,7.98.01,11.96.04.43-.19.85-.58,1.04-2.83,1.67-5.65,3.37-8.46,5.09-.35.26-.83.24-1.17-.03-2.74-1.67-5.49-3.33-8.26-4.96-.51-.24-.81-.78-.74-1.33.03-4.19.02-8.38.02-12.6-.12-.02-.15-.03-.17-.02-.09.04-.18.09-.26.15-4.67,3.44-7.11,9.14-6.39,14.9.63,6,3.84,10.34,9.17,13.12.42.17.69.57.7,1.01v9.73c-24.93-3.62-42.21-26.76-38.59-51.7C13.27,23.51,36.42,6.24,61.35,9.85s42.21,26.76,38.59,51.7c-2.9,19.99-18.6,35.69-38.59,38.59" fill="#fff"/>
      <path id="_패스_1117" data-name="패스 1117" d="m39.56,54.4c-.77.69-1.78,1.06-2.81,1.01-1.51-.03-2.88-.91-3.55-2.26-1-1.87-1.47-3.99-1.37-6.11-.12-1.95.37-3.89,1.39-5.56.71-1.19,1.98-1.94,3.37-1.97.9-.06,1.78.2,2.51.73.59.49.98,1.19,1.09,1.95h5.37c-.06-1.88-1.01-3.61-2.56-4.67-1.76-1.16-3.84-1.74-5.95-1.66-2.78-.08-5.47.96-7.47,2.89-2.01,1.92-3.01,4.73-3.01,8.41,0,3.75.95,6.67,2.84,8.76,3.82,3.81,9.88,4.2,14.16.91,1.56-1.4,2.5-3.37,2.61-5.47h-5.37c-.01,1.13-.45,2.22-1.24,3.04" fill="#fff"/>
      <path id="_패스_1118" data-name="패스 1118" d="m74.76,54.4c-.77.69-1.78,1.06-2.81,1.01-1.51-.03-2.88-.91-3.55-2.26-1-1.87-1.47-3.99-1.37-6.11-.12-1.95.37-3.89,1.39-5.56.71-1.19,1.98-1.94,3.37-1.97.9-.06,1.78.2,2.51.73.59.49.98,1.19,1.09,1.95h5.37c-.06-1.88-1.01-3.61-2.56-4.68-1.76-1.16-3.84-1.74-5.95-1.66-2.78-.08-5.47.96-7.47,2.89-2.01,1.92-3.01,4.73-3.01,8.41s.95,6.67,2.84,8.76c3.82,3.81,9.88,4.2,14.16.91,1.56-1.4,2.5-3.37,2.61-5.47h-5.37c-.01,1.13-.45,2.22-1.24,3.04" fill="#fff"/>
      <rect id="_사각형_504" data-name="사각형 504" width="110" height="110" fill="none"/>
    </g>
  </g>
</svg>