<?xml version="1.0" encoding="UTF-8"?>
<svg id="Layer_2" data-name="Layer 2" xmlns="http://www.w3.org/2000/svg" viewBox="0 0 238 180">
  <g id="Logo">
    <g id="symbol_14_01_0001_01" data-name="symbol 14 01 0001 01">
      <rect id="_사각형_124" data-name="사각형 124" width="238" height="180" fill="none"/>
      <path id="_패스_350" data-name="패스 350" d="m151.56,83.15c.99-.25,1.97-.5,2.96-.74,5.08-1.26,10.17-2.42,15.28-3.49,2.52-.68,5.08-1.19,7.66-1.53,2.16-.16,2.68,1.09,2.69,3.4-.02,2.06-.16,4.11-.41,6.15-.36,3.18-1.01,6.45-2.76,8.94-2.42,3.45-6.42,4.75-10.15,5.9-25.71,7.93-50.85,17.6-75.23,28.96-4.32,2.01-9.2,4.08-13.49,2-2.1-1.22-3.93-2.87-5.34-4.85-2.52-3.08-4.93-6.28-7.23-9.6-.56-.8-1.12-1.93-.62-2.78.25-.35.59-.61.99-.76,18.89-9.26,38.41-17.18,58.41-23.7,9.02-2.93,18.11-5.56,27.27-7.9Z" fill="#fff"/>
      <path id="_패스_351" data-name="패스 351" d="m147.62,139.35c-4.46,2.97-9.12,5.63-13.96,7.94-6.93,3.28-15.92,6.62-15.92,6.62h0c-6.67-1.92-13.16-4.43-19.4-7.48-4.12-2.12-8.02-4.65-11.63-7.55,24.79-10.84,49.87-20.77,75.23-29.79,3.13-1.2,6.34-2.16,9.62-2.88.7-.26,1.49-.1,2.03.42.58.75.2,1.92-.21,2.8-8.12,17.33-25.76,29.9-25.76,29.9Z" fill="#fff"/>
      <path id="_패스_352" data-name="패스 352" d="m161.66,27.02s.09.08.13.12c1.77,2.02-1.18,12.3-1.87,14.62-1.36,4.69-3.49,9.12-6.31,13.12-5.68,7.96-14,13.38-22.87,14.89-2.52.43-5.16.59-7.37,2.05s-3.74,4.79-2.52,7.36c-1.64-4.43-2.05-9.23-1.17-13.87.08-.39.22-.77.41-1.12.26-.31.73-.84,1.33-1.48,1.77-1.87,3.75-3.55,5.88-4.99,2.01-1.38,6.75-5.73,18.74-18.76-10.38,1.37-18.26,11.04-24.93,20.28-.22-10.5,6.43-19.92,14.49-24.9,4.08-2.43,8.5-4.22,13.12-5.31,2.19-.56,11-3.59,12.94-2.01Z" fill="#fff"/>
      <path id="_패스_353" data-name="패스 353" d="m116.75,11.16c2.49,3.15,4.15,6.86,4.84,10.82.37,1.66.6,3.35.67,5.05.03,5.17-1.51,10.24-4.4,14.53.12-3.27.02-6.55-.3-9.81-.18-2.05-.47-4.09-.88-6.11-1.14-4.88-3.48-9.4-6.82-13.13.33,2.36.8,4.7,1.42,6.99,1.6,5.92,2.85,6.61,3.99,12.04.57,2.77.94,5.57,1.11,8.39.02.46.14,3.53.14,3.53h0l-2.1-.7c-2.54-1.2-4.78-2.94-6.57-5.1-4.34-5.16-5.9-13.46-6.36-17.38-.62-6.34-.34-12.74.83-19,0-.04,5.91,3.01,6.44,3.34,2.13,1.34,4.15,2.86,6.03,4.53.7.63,1.36,1.3,1.96,2.03Z" fill="#fff"/>
      <path id="_패스_354" data-name="패스 354" d="m97.69,43.11c6.94,1.39,14.71,4.92,16.69,13.13.04.19.1.95.17,1.91.14,2.14.06,8.58.08,6.43h0c.32.64-2.26-4.32-2.65-4.95,0,0-.52-.83-1.12-1.66-2.54-3.53-9.23-7.17-10.11-7.65,5.86,5.72,10.8,12.31,14.66,19.53-4.06,1.15-8.42.32-11.77-2.24-3.53-2.72-6.32-6.29-8.1-10.38-1.87-4.23-3.35-8.63-4.42-13.13-.06-.17-.08-.35-.05-.53.05-.19.16-.35.32-.46,1.58-1.32,4.56-.35,6.31,0Z" fill="#fff"/>
      <path id="_패스_355" data-name="패스 355" d="m54.42,86.16l-.29-11.98,69.67,11.17c-7.43,2.62-13.96,4.88-20.47,7.24-2.27.8-4.71.99-7.08.55-13.95-2.3-27.9-4.62-41.84-6.98Z" fill="#fff"/>
      <path id="_패스_356" data-name="패스 356" d="m55.85,93.22l29.92,4.62.19,1.26c-6.83,3.11-13.67,6.22-20.5,9.33-2.86,1.3-4.86.61-5.88-3-1.07-3.8-2.3-7.54-3.74-12.21Z" fill="#fff"/>
      <path id="_패스_357" data-name="패스 357" d="m125.87,177.42c22.42-5.4,44.82-15.71,58.03-35.32,5.25-7.53,9.37-15.79,12.24-24.51,2.19-6.63,2.58-14.05,5.43-20.72,3.1-7.17,9.91-13.43,18.05-13.63,16.16-1.12,21.52,17.71,12.68,29-6.82,8.51-26.01,6.24-20.99-7.47,1.29-3.44,4.27-7.09,8.28-6.88,1.76.05,4.32.84,4.43,2.99,0,1.91-1.53,3.4-3.05,4.26,1.62-1.1,3.69-3.85,1.7-5.45-6.41-3.64-12.06,6.53-9.21,11.69,3.33,4.95,12.86,2.98,16.02-1.41,4.6-6.17,4.08-17.87-3.69-21.21-8.44-3.07-16.41,2.22-19.7,10.07-2.56,6.41-3.01,13.44-5.3,20.21-2.23,6.91-5.36,13.49-9.32,19.58-13.72,23.58-39.39,35.6-65.6,38.8h0Z" fill="#fff"/>
      <path id="_패스_358" data-name="패스 358" d="m112.31,177.42c-26.23-3.22-51.87-15.21-65.6-38.8-3.96-6.09-7.09-12.67-9.32-19.58-2.29-6.77-2.75-13.79-5.3-20.21-3.28-7.85-11.27-13.14-19.7-10.07-7.78,3.33-8.28,15.04-3.69,21.21,3.15,4.39,12.7,6.36,16.02,1.41,2.86-5.15-2.8-15.33-9.21-11.69-1.99,1.6.09,4.35,1.7,5.45-1.52-.86-3.06-2.35-3.05-4.26.11-2.14,2.67-2.94,4.43-2.99,4.01-.21,6.99,3.44,8.28,6.88,5.03,13.72-14.18,15.97-20.99,7.47-8.83-11.28-3.48-30.12,12.68-29,8.14.2,14.95,6.45,18.05,13.63,2.85,6.68,3.24,14.09,5.43,20.72,2.86,8.72,6.99,16.97,12.23,24.5,13.21,19.61,35.61,29.92,58.03,35.32h0Z" fill="#fff"/>
    </g>
  </g>
</svg>