<?xml version="1.0" encoding="UTF-8"?>
<svg id="_레이어_2" data-name="레이어 2" xmlns="http://www.w3.org/2000/svg" viewBox="0 0 262 197">
  <g id="Logo">
    <g id="symbol_06_02_0004_02" data-name="symbol 06 02 0004 02">
      <rect id="_사각형_309" data-name="사각형 309" width="262" height="197" fill="none"/>
      <path id="_패스_1158" data-name="패스 1158" d="M61.77,184.68c-1.99-.88-3.2-1.38-4.38-1.95-20.53-9.86-20.65-9.9-12.47-33.82,1.67-4.88,.78-7.95-1.24-12.23-6.97-14.73-19.05-12.87-32.3-8.7-4.93,1.55-8.95,1.74-8.77-5.58l43.89-20.7c26.57,41.9,64.15,56.23,114.16,30.43,38.11-19.67,54.1-55.68,51.88-108.67L258.78,1.64c-1.38,3.78-1.7,6.35-3.08,8.01-1.91,2.25-4.24,4.13-6.85,5.51-11.79,6.28-15.17,15.46-13.7,27.83,.7,5.86,2.05,9.37,7.2,11.86,20.53,9.92,20.43,10.12,8.37,38.86-6.94,.53-14.28,.52-21.54,1.89-3.45,.65-7.35,3.33-10.03,6.13-10.95,11.45-10.85,23.03-3.21,34.12,3.92,5.69,2.33,10.03-3.15,15.2-16.18,15.26-16.01,15.45-31.71,4.12-11.14-8.04-29.39,.7-32.93,15.66-1.53,6.45-1.95,16.56-5.53,18.48-7.44,4-16.66,3.91-25.14,4.87-1.54,.17-3.73-2.33-4.42-4.2-1.86-4.86-3.26-9.89-4.2-15.01-1.05-6.02-4.76-7.6-9.97-9.36-11.39-3.84-20.3-1.06-28.18,9.88-2.38,3.31-5.74,5.92-8.96,9.17Z" fill="#fff"/>
    </g>
  </g>
</svg>