<?xml version="1.0" encoding="UTF-8"?>
<svg id="Layer_2" data-name="Layer 2" xmlns="http://www.w3.org/2000/svg" viewBox="0 0 352 200">
  <g id="Logo">
    <g id="symbol_15_01_0005_01" data-name="symbol 15 01 0005 01">
      <path id="_패스_1139" data-name="패스 1139" d="m176,77.41c16.04.02,29.05-12.97,29.07-29.01.02-16.04-12.97-29.05-29.01-29.07-16.04-.02-29.05,12.97-29.07,29.01,0,7.61,2.97,14.92,8.3,20.36,5.45,5.58,12.91,8.72,20.71,8.71" fill="#fff"/>
      <path id="_패스_1140" data-name="패스 1140" d="m300.61,130.68c-.9,3.71-2.33,7.27-4.23,10.57-7,12.29-20.09,19.85-34.23,19.76-14.12-.02-27.15-7.55-34.23-19.76l-16.12-27.92c-11.43-.73-23.42-1.13-35.79-1.13s-24.36.39-35.79,1.13l-16.12,27.92c-7.08,12.21-20.12,19.74-34.23,19.76-14.14.08-27.23-7.47-34.23-19.76-1.91-3.31-3.33-6.87-4.23-10.57-10.12,4.74-15.88,10.12-15.88,15.84,0,18.95,62.9,34.32,140.48,34.32s140.48-15.36,140.48-34.32c0-5.72-5.76-11.1-15.88-15.84" fill="#fff"/>
      <rect id="_사각형_469" data-name="사각형 469" width="352" height="200" fill="none"/>
    </g>
  </g>
</svg>