<?xml version="1.0" encoding="UTF-8"?>
<svg id="_레이어_2" data-name="레이어 2" xmlns="http://www.w3.org/2000/svg" viewBox="0 0 244 244">
  <g id="Logo">
    <g id="symbol_17_01_0003_01" data-name="symbol 17 01 0003 01">
      <path id="_패스_1164" data-name="패스 1164" d="m122.8,5.15c-64.01,0-115.89,51.89-115.89,115.89,0,64.01,51.89,115.89,115.89,115.89,64.01,0,115.89-51.89,115.89-115.89S186.81,5.15,122.8,5.15h0m8.2,63.83c.12-1.93,1.78-3.4,3.71-3.28,1.93.12,3.4,1.78,3.28,3.71-.16,3.69,1.54,7.22,4.54,9.39,5.37,3.9,14.32,4.06,19.54.35,2.69-1.91,4.32-4.98,4.41-8.28.03-1.93,1.63-3.47,3.56-3.44,1.93.03,3.47,1.63,3.44,3.56-.13,5.52-2.86,10.67-7.36,13.87-3.96,2.67-8.64,4.06-13.42,3.98-5.1.06-10.1-1.47-14.29-4.38-4.95-3.55-7.75-9.39-7.41-15.48m-66.46,0c.1-1.93,1.75-3.41,3.68-3.31,1.93.1,3.41,1.75,3.31,3.68,0,.02,0,.03,0,.05-.16,3.69,1.54,7.22,4.54,9.39,5.37,3.9,14.32,4.06,19.54.35,2.69-1.91,4.33-4.98,4.41-8.28.03-1.93,1.62-3.47,3.56-3.44,1.93.03,3.47,1.62,3.44,3.56-.13,5.53-2.86,10.67-7.36,13.88-3.96,2.67-8.64,4.06-13.42,3.98-5.1.06-10.1-1.47-14.29-4.38-4.95-3.56-7.75-9.39-7.41-15.48m145.91,76.97c2.5-.53,5.07-.64,7.61-.34,1.84.06,3.44,1.29,3.99,3.05.59,1.99-.42,3.43-1.84,4.64-2.47,2.12-5.58,2.7-8.61,3.27-4.22.78-6.53,2.36-7.1,7.37-.81,7.16-3.89,13.83-8.01,19.88-1.8,2.64-4.38,4.35-6.95,6.09-9.6,6.48-20.47,8.75-31.76,9.7-23.45,2-47.06.52-70.08-4.39-6.5-1.38-13.12-2.14-19.54-3.98-10.74-3.07-20.44-7.59-27.79-16.54-4.06-4.94-9.15-9.03-12.66-14.49-.36-.56-.74-1.11-1.05-1.69-1.24-2.27-2.68-4.77-.62-7.07,2.09-2.33,4.67-1.2,7.03.02.52.2,1.06.37,1.6.49-.57-2.67-2.44-4.17-3.66-6.01-1.79-2.69-3.51-5.38-4.05-8.65-.56-3.34.07-6.25,3.18-8.06,1.47-.85,1.46-1.93,1.3-3.36-.29-2.56.22-4.99,2.7-6.3,2.5-1.33,4.71-.16,6.78,1.3,3.95,2.8,6.16,7.18,9.82,10.38-1.48-3.16-2.93-6.33-4.46-9.46-2.19-4.52-1.87-8.52.89-10.26,2.61-1.65,6.33-.36,9.6,3.21,3.22,3.51,4.78,7.96,6.94,12.07,1.43,2.88,3.19,5.59,5.23,8.07.55.64,1.06,1.77,2.03,1.37,1.09-.45.43-1.56.27-2.36-.72-3.14-1.04-6.36-.94-9.57,0-2.46.88-4.85,2.47-6.73,2.03-2.42,5.64-2.74,8.06-.71.25.21.48.44.69.68,1.39,1.59,2.39,3.49,2.93,5.54,1.97,6.82,4.32,13.54,5.86,20.46,1.8,8.09,7.36,11.74,14.57,13.72,5.79,1.53,11.73,2.47,17.71,2.79,14.37.92,28.75,1.97,43.17.86,6.98-.4,13.85-1.85,20.4-4.3,7.45-2.93,15.51-2.35,23.21-3.82,2.54-.48,5.29-.32,7.2-3.04-2.38.32-4.76.68-7.14.96-2.86.33-5.76.72-8.57-.25-1.61-.56-3.1-1.5-3.16-3.45s1.26-3.08,2.92-3.62c2.95-.96,5.97-1.7,8.94-2.57,2.76-.8,5.61-1.38,8.17-2.76.58-.31,1.31-.65,1.06-1.45-.26-.83-1.07-.67-1.7-.52-1.84.39-3.66.88-5.45,1.46-3.88,1.33-7.92,2.17-12.01,2.5-1.6.16-3.22.11-4.26-1.26-1.15-1.51-.17-2.9.54-4.3,1.23-2.26,3.26-3.98,5.7-4.83,3.68-1.53,7.35-3.1,10.99-4.72.76-.34,1.85-.9,1.48-1.91-.4-1.1-1.56-.63-2.33-.37-2.73.92-5.42,1.97-8.13,2.94-3.69,1.32-7.48,2.22-11.4,1.43-3.25-.66-3.83-2.59-1.97-5.25,2.01-2.87,4.92-4.38,7.92-5.85,3.35-1.64,6.87-3,9.83-5.84-1.49-.66-2.55-.01-3.62.42-7.08,2.88-14.15,5.81-21.25,8.65-4.04,1.61-8.16,2.85-12.61,2.56-3.76-.25-4.51-1.24-3.57-4.77,1.15-4.11,1.99-8.29,2.52-12.52-1.43.99-2.51,2.41-3.08,4.05-2.66,5.49-5.4,10.94-7.83,16.53-1.46,3.36-3.93,5.17-7.18,6.4-11.52,4.39-23.35,4.69-35.36,2.87-5.37-.81-10.72-1.71-16.08-2.59-.77-.13-1.52-.33-2.25-.58-2.06-.71-4.4-1.58-3.55-4.27.76-2.39,2.98-1.51,4.86-1.18,13.97,2.46,27.92,5.16,42.22,2.62,3.79-.82,7.49-1.99,11.07-3.5,1.13-.5,1.94-1.52,2.16-2.74,2.24-6.5,5.14-12.76,8.63-18.68.93-1.77,2.2-3.35,3.73-4.65,3.1-2.5,6.33-1.6,7.53,2.19,1.36,4.29.09,8.31-1.5,12.27-.39.96-1.56,2.04-.6,3.01.86.88,2.17.11,3.12-.28,7.08-2.89,14.1-5.92,21.18-8.82,3.03-1.38,6.19-2.45,9.44-3.19,3.84-.73,7.39.78,8.53,3.55,1.12,2.74-.17,5.8-3.61,8.11-1.55,1.04-3.27,1.81-4.84,3.07,2.13-.51,4.23-1.13,6.38-1.51,4.16-.72,6.93.42,7.95,3.09,1.05,2.73-.39,5.82-3.79,8.03-4.76,3.11-10.37,4.45-15.17,7.76,2.74-.72,5.5-1.39,8.21-2.18,2.95-.99,6.02-1.55,9.12-1.67,2.66,0,5.04.71,5.69,3.54.61,2.7-1.32,4.33-3.43,5.49-4.33,2.38-9.16,3.28-13.87,4.52-.82.14-1.57.54-2.15,1.14,1.82-.3,3.65-.56,5.45-.93" fill="#fff"/>
      <path id="_패스_1165" data-name="패스 1165" d="m191.68,160.75c-5.88,1.6-11.46,4.18-17.58,4.98-14.37,1.86-28.75,1.47-43.15.43-9.07-.58-18.1-1.63-27.06-3.16-9.24-1.66-15.01-6.78-17.52-15.87-1.95-7.05-4.27-13.99-6.48-20.97-.42-1.26-.94-2.48-1.56-3.66-.34-.69-.87-1.36-1.82-1.09-.64.24-1.09.83-1.15,1.51-.35,1.74-.34,3.54.05,5.28.63,3.26,1.27,6.53,1.88,9.79.33,1.74.94,3.61-.91,4.86-1.95,1.32-3.97,1.03-5.98-.04-4.28-2.29-7.01-6.04-9.47-10.02-2.45-3.96-4.79-7.99-7.32-11.89-.82-1.27-1.78-3.71-3.34-2.78-1.2.72.17,3.05.92,4.48,2.53,4.8,5.17,9.55,7.74,14.34,1.23,2.29,1.96,4.84-.38,6.65s-4.42.03-6.15-1.57c-4.13-3.86-7.95-8.04-11.42-12.51-1.12-1.42-2.14-4.76-3.89-3.46-1.59,1.17.83,3.7,2.04,5.3,4.41,5.83,8.96,11.56,13.4,17.37,1.02,1.34,2.93,2.98,1.22,4.57-1.59,1.48-3.3-.27-4.6-1.38-1.44-1.22-2.74-2.59-3.89-4.08-2.82-3.7-5.49-7.52-8.26-11.26-.92-1.24-1.55-3.47-3.72-2.21-2.21,1.27-.66,3.1-.2,4.7.13.31.29.6.49.87,3.03,5.3,6.68,10.22,10.89,14.64,2.32,2.11,3.93,4.88,4.62,7.94.37,2.02.53,4.1-1.51,5.39-1.97,1.25-3.75.44-5.55-.7-3.43-2.17-5.54-5.7-9.24-7.75,3.36,3.63,6.95,7.08,10.05,10.93,8.44,10.49,19.75,15.71,32.54,18.48,3.7.72,7.42,1.25,11.17,1.59,9.02,1.01,17.91,2.94,26.88,4.18,10.53,1.46,21.21,1.01,31.84.99,9.87.04,19.71-1.16,29.28-3.58,13.15-3.38,21.98-11.08,24.73-24.83,1.69-8.43,1.08-8.82-7.62-6.45" fill="#fff"/>
      <rect id="_사각형_516" data-name="사각형 516" width="244" height="244" fill="none"/>
    </g>
  </g>
</svg>