<?xml version="1.0" encoding="UTF-8"?>
<svg id="_레이어_2" data-name="레이어 2" xmlns="http://www.w3.org/2000/svg" viewBox="0 0 128 128">
  <g id="Logo">
    <g id="symbol_13_02_0005_01" data-name="symbol 13 02 0005 01">
      <path id="_패스_1001" data-name="패스 1001" d="m64.08,18.9c-24.91,0-45.1,20.19-45.1,45.1h0c0,.74.02,1.49.06,2.22l10.54-4.22c1.34-.68,2.91-.77,4.32-.27,1.16.49,2.47.44,3.58-.15,4.53-1.86,9.08-3.71,13.66-5.45,1.41-.54,1.93-1.09,1.19-2.6-.57-1.16-1.01-2.12-2.47-2.5-1.72-.45-2.36-2.23-1.78-4.03.32-.82.3-1.73-.05-2.54l15.81-6.18c.28.69.8,1.25,1.45,1.6,1.63.62,2.45,2.44,1.83,4.07-.08.22-.19.44-.33.63-.46.65-.55,1.48-.25,2.21,1.51,3.63,2.96,7.29,4.41,10.94.29.93,1.03,1.65,1.97,1.92,2.04.64,2.74,2.35,2.03,4.35-.17.47-.93.86-.34,1.49.04.04.07.08.1.12l-15.85,6.19c-.23-.38-.56-.69-.96-.89-1.66-.55-2.55-2.33-2.01-3.99.07-.22.17-.43.29-.63.52-1.47.31-3.1-.57-4.39-.55-.59-1.06-.18-1.55.01-4.35,1.72-8.66,3.52-13.04,5.17-1.86.7-3.51,1.4-4.31,3.47-.49,1.27-1.88,1.77-3.1,2.26-4.16,1.67-8.33,3.33-12.49,5,7.63,23.71,33.04,36.75,56.75,29.12s36.75-33.04,29.12-56.75c-6-18.65-23.35-31.29-42.94-31.29m-.35,17.38c-.08.21-.12.43-.13.65l-16.51,6.45c-.23-.17-.48-.32-.74-.45-.92-.38-1.53-1.28-1.54-2.28-.06-1.07.59-2.05,1.6-2.41,4.6-1.86,9.2-3.71,13.8-5.54,1.04-.56,2.33-.4,3.2.4.92.93.74,2.04.31,3.19m-4.31,38.15c.16-.44.17-.92.02-1.36l15.88-6.2c.17.43.53.77.97.91,1.18.23,2.02,1.27,1.99,2.47-.04,1.24-.9,2.31-2.11,2.61-4.4,1.74-8.79,3.51-13.18,5.26-1.17.47-2.38.64-3.35-.36s-.78-2.14-.22-3.32m35.03,15.39c-.13.41-.56.29-.88.32-.23.01-.46.02-.68,0h-45c-.5,0-1.01-.05-1.89-.1,1.49-1.66,3.19-2.39,4.68-3.39,1.25-.63,1.99-1.97,1.86-3.36-.12-1.17.41-1.6,1.59-1.6,10.89.03,21.78.03,32.68,0,1.21,0,1.71.5,1.55,1.63-.26,1.33.46,2.65,1.71,3.16,1.32.79,2.6,1.66,3.82,2.58.27.18.68.34.55.76" fill="#fff"/>
      <path id="_패스_1002" data-name="패스 1002" d="m64.08,122.16c-32.12,0-58.16-26.04-58.16-58.16S31.96,5.84,64.08,5.84s58.16,26.04,58.16,58.16h0c-.04,32.11-26.06,58.13-58.16,58.16m0-112.95c-30.26,0-54.79,24.53-54.79,54.79s24.53,54.79,54.79,54.79,54.79-24.53,54.79-54.79c-.03-30.24-24.54-54.75-54.79-54.79" fill="#fff"/>
      <path id="_패스_1003" data-name="패스 1003" d="m64.08,115.88c-28.65,0-51.88-23.23-51.88-51.88,0-28.65,23.23-51.88,51.88-51.88,28.65,0,51.88,23.23,51.88,51.88-.03,28.64-23.24,51.85-51.88,51.88m0-102.28c-27.84,0-50.4,22.56-50.4,50.4s22.56,50.4,50.4,50.4,50.4-22.56,50.4-50.4h0c-.03-27.82-22.58-50.37-50.4-50.4" fill="#fff"/>
      <rect id="_사각형_392" data-name="사각형 392" width="128" height="128" fill="none"/>
    </g>
  </g>
</svg>