<?xml version="1.0" encoding="UTF-8"?>
<svg id="Layer_2" data-name="Layer 2" xmlns="http://www.w3.org/2000/svg" viewBox="0 0 243 204">
  <g id="Logo">
    <g id="symbol_10_03_0002_02" data-name="symbol 10 03 0002 02">
      <path id="_합치기_27" data-name="합치기 27" d="m11.27,191.12c-5.64-6.9-2-18.58,4.61-30.34h6.67c-7.75,12.84-10.3,22.42-6.81,26.68,4.65,5.68,20.72,2.72,42.99-7.93,11.45-5.58,22.54-11.84,33.23-18.76,8.24-5.27,16.72-11.1,25.28-17.39,4.79-3.52,9.6-7.18,14.43-10.98,2.8-2.21,5.61-4.44,8.41-6.74,5.02-4.1,9.83-8.18,14.45-12.23,5.88-5.15,11.44-10.23,16.68-15.23,6.48-6.2,12.45-12.24,17.88-18.07,6.32-6.79,11.88-13.28,16.68-19.36v9.24c-5.06,6.03-10.66,12.24-16.68,18.49-5.64,5.86-11.63,11.76-17.88,17.6-5.41,5.06-10.99,10.07-16.68,14.97-3.56,3.07-7.16,6.09-10.79,9.06-4.02,3.28-8.04,6.48-12.06,9.59-4.83,3.73-9.64,7.34-14.43,10.81-4.96,3.58-9.87,6.99-14.74,10.24-13.18,8.94-26.98,16.95-41.28,23.97-12.02,5.75-26.37,11.27-37.14,11.27-5.43,0-9.95-1.41-12.81-4.89Zm48.75-84.31c8-7.9,16.65-15.89,25.83-23.8v7.65c-6.12,5.38-11.98,10.76-17.56,16.15h-8.27Zm57.22-49c22.1-16.48,43.78-30.05,62.59-39.04,18.09-8.65,41.44-16.78,49.95-6.38,5.46,6.68,2.62,18.3-5.75,32.46l-7.76,1.38c9.52-14.67,12.85-25.53,9.04-30.19-1.56-1.9-4.4-2.84-8.32-2.84-7.79,0-19.86,3.68-34.67,10.76-19.46,9.3-42.1,23.61-65.08,41.04v-7.21Z" fill="#fff"/>
      <rect id="_사각형_251" data-name="사각형 251" width="243" height="204" fill="none"/>
    </g>
  </g>
</svg>