<?xml version="1.0" encoding="UTF-8"?>
<svg id="Layer_2" data-name="Layer 2" xmlns="http://www.w3.org/2000/svg" xmlns:xlink="http://www.w3.org/1999/xlink" viewBox="0 0 260 120">
  <defs>
    <clipPath id="clippath">
      <rect width="260" height="120" fill="none"/>
    </clipPath>
  </defs>
  <g id="Logo">
    <g id="symbol_01_02_0001_02" data-name="symbol 01 02 0001 02">
      <g clip-path="url(#clippath)">
        <g id="_그룹_221" data-name="그룹 221">
          <g id="symbol">
            <path id="_패스_328" data-name="패스 328" d="m100.5,13.79c-.11,1.28-.08,2.59-.3,3.85-.25,1.4-.7,2.75-1.05,4.06,2.06-.79,3.49-2.7,3.68-4.9.14-1.39.03-2.81.03-4.22v-4.67c-1.56,1.45-2.17,3.55-2.37,5.88" fill="#fff"/>
            <path id="_패스_329" data-name="패스 329" d="m167.17,69.82c1.78-.39,3.57-.75,5.34-1.11-.88-1.01-2.13-1.64-3.47-1.74-1.14-.1-2.29-.1-3.43,0-1.86.3-3.76,0-5.43-.86.93,2.93,4.04,4.58,6.99,3.71" fill="#fff"/>
            <path id="_패스_330" data-name="패스 330" d="m113.38,47.73c.69,1.05,1.56,1.94,2.31,2.93.79,1.04,1.54,2.12,2.32,3.18.25-2.03-.2-4.08-1.26-5.81-.56-.96-1.23-1.85-1.73-2.85-.76-1.52-1.43-3.11-2.13-4.67-1.08,2.33-.9,5.05.49,7.22" fill="#fff"/>
            <path id="_패스_331" data-name="패스 331" d="m97.78,22.33c1.74-2.05,2.07-4.68,2.29-7.4.14-1.71.51-3.39.76-4.99-1.62.35-3.49,3.17-3.55,5.83.02,1.2.1,2.39.24,3.58.08.98.17,1.96.26,2.98" fill="#fff"/>
            <path id="_패스_332" data-name="패스 332" d="m170.63,66.65c-1.27-2.7-4.41-3.96-7.19-2.9-1.23.4-2.45.81-3.76,1.25,1.48,1.14,3.31,1.71,5.17,1.62,1.98-.07,3.96.01,5.78.03" fill="#fff"/>
            <path id="_패스_333" data-name="패스 333" d="m118.49,50.68c1.16-2.92.47-6.25-1.75-8.48-1-1.04-2.01-2.05-3.03-3.1-.05,1.89.42,3.75,1.35,5.4,1.18,2.1,2.34,4.2,3.44,6.17" fill="#fff"/>
            <path id="_패스_334" data-name="패스 334" d="m157.94,54.4c1.26-2.97,3.53-4.17,5.32-6.02,1.14-1.05,1.84-2.49,1.96-4.04-1.5.99-3.08,2.02-4.64,3.08-1.99,1.37-3.06,3.73-2.76,6.13,0,.15.04.3.13.85" fill="#fff"/>
            <path id="_패스_335" data-name="패스 335" d="m113.34,25.7c-.74-.1-1.47-.28-2.17-.52,1.38,2.71,3.43,3.72,6.06,3.18,1.67-.35,3.35-.69,4.91-1.01-.81-1.03-2.05-1.62-3.36-1.62-1.81-.05-3.63.04-5.44-.03" fill="#fff"/>
            <path id="_패스_336" data-name="패스 336" d="m88.29,37.65c-1,.21-2.01.35-3.03.42,1.02,1.61,3,2.33,4.82,1.74,1-.44,1.98-.93,2.93-1.49,1.04-.53,2.08-1.05,3.13-1.58-1.33-.78-2.95-.91-4.38-.35-1.16.4-2.29.95-3.46,1.26" fill="#fff"/>
            <path id="_패스_337" data-name="패스 337" d="m80.44,26.71c.3,1.54,1.63,2.66,3.2,2.69,1.35.08,2.7.02,3.92.02-.29-.58-.6-1.23-.92-1.86-.63-1.59-2.23-2.57-3.93-2.41-.85.07-1.69.21-2.61.33.13.17,3.95,1.79,5.17,2.3l-4.84-1.07" fill="#fff"/>
            <path id="_패스_338" data-name="패스 338" d="m127.36,21.47c1.09.15,2.2.24,3.3.27,1.63-.03,2.86-1.22,3.44-3,.22-.45.5-.87.83-1.24-1.36,0-2.73-.06-4.1.01-1.59.1-2.91,1.26-3.2,2.83.93-.28,1.87-.62,2.83-.84.93-.21,1.88-.3,3.08-.49-2.12.99-4.45.36-6.17,2.45" fill="#fff"/>
            <path id="_패스_339" data-name="패스 339" d="m123.64,67.67c1.84.02,2.84-.95,3.58-3.06.17-.48.69-.78,1.06-1.17-1.49,0-2.88-.05-4.27.01-1.53.11-2.8,1.21-3.13,2.7l4.63-1.1.06.3c-1.68.39-3.5.29-4.97,1.99,1.11.13,2.08.32,3.04.33" fill="#fff"/>
            <path id="_패스_340" data-name="패스 340" d="m120.43,25.44c-.86-1.93-2.87-3.08-4.97-2.86-.91.2-1.81.46-2.69.76-.65.19-1.31.36-2.14.59,1.26,1.01,2.84,1.55,4.46,1.51,1.81-.04,3.61,0,5.34,0" fill="#fff"/>
            <path id="_패스_341" data-name="패스 341" d="m160.13,51.81c-.81,1.09-1.51,2.25-2.11,3.47l.24.12,3.02-1.53c2.69-1.36,3.91-3.66,3.76-6.88-1.6,1.54-3.34,3.07-4.91,4.82" fill="#fff"/>
            <path id="_패스_342" data-name="패스 342" d="m87.35,34.9c-1,.69-2,1.41-3.05,2.15,1.48.56,3.12.56,4.6,0,1.69-.6,3.41-1.1,5.02-1.61-1.4-1.88-4.18-2.19-6.57-.54" fill="#fff"/>
            <path id="_패스_343" data-name="패스 343" d="m127.9,31.7c.99.14,1.99.21,2.99.22,1.4-.07,2.36-1.13,2.83-2.68.2-.4.47-.76.79-1.07-1.31,0-2.61-.08-3.9.02s-2.17.99-2.72,2.58l1.58-.63.05.15-1.66,1.13c.01.09.03.18.04.28" fill="#fff"/>
            <path id="_패스_344" data-name="패스 344" d="m92.97,19.98c-.32-1.24-.63-2.48-.94-3.73l.92,1.57c1.28-4.76-1.82-6.57-4.58-8.65.46,1.23.92,2.47,1.4,3.7.14.36.32.71.48,1.06-.46-.58-.88-1.18-1.27-1.81-.32-.65-.6-1.32-.85-2-.84,1.91-.52,4.14.81,5.75,1.26,1.45,2.61,2.82,4.03,4.11" fill="#fff"/>
            <path id="_패스_345" data-name="패스 345" d="m152.02,43.16c1-1.29,2.21-2.41,2.47-4.28,0-.06,0-.13,0-.19-1.53,1.06-3.09,2.07-4.6,3.2-1.58,1.27-2.25,3.35-1.7,5.3.86-1.68,2.18-3.08,3.82-4.03" fill="#fff"/>
            <path id="_패스_346" data-name="패스 346" d="m145.98,71.64c.54,1.29,1.71,2.23,3.09,2.47.82.08,1.64.04,2.45-.13,1.3-.2,2.58-.5,4.03-.78l-1.74-1.18c-.04-.32.02-.73-.13-.93-1.11-1.74-3.28-2.48-5.23-1.79-.96.3-1.91.65-2.92,1.01,1.04.89,2.39,1.34,3.76,1.24,1.11-.04,2.21-.1,3.32-.04.44.1.85.29,1.23.53h0c-1.17-.07-2.35-.14-3.52-.2-1.41-.07-2.82-.14-4.33-.21" fill="#fff"/>
            <path id="_패스_347" data-name="패스 347" d="m106.02,51.71c1.1,1.54,2.31,3.01,3.62,4.39-.23-1.22-.46-2.43-.69-3.65l.79,1.54c1.48-4.45-1.18-6.51-3.7-8.7.3,1.13.58,2.26.9,3.39.12.42.31.82.47,1.23l-1.81-3.49c-.86,1.08-.78,3.62.42,5.3" fill="#fff"/>
            <path id="_패스_348" data-name="패스 348" d="m178.13,42.87c-.83,1.07-1.68,2.11-2.48,3.21-.2.38-.35.79-.45,1.21.93-.47,1.8-.92,2.68-1.35,1.86-.91,3.03-2.79,3.04-4.86-.04-.44-.16-.87-.34-1.27.21-.61.42-1.21.67-1.94-1.6,1.1-3.1,2.07-4.53,3.15-1.43,1.13-2.11,2.97-1.76,4.76l3.17-2.9" fill="#fff"/>
            <path id="_패스_349" data-name="패스 349" d="m138.74,37.83c2.1-.43,3.71-2.11,4.03-4.22.29-1.22.52-2.46.79-3.76-1.23.72-2.19,1.82-2.76,3.12-.48,1.06-.94,2.13-1.48,3.16-.27.41-.58.8-.92,1.15.69-1.44,1.34-2.91,2.08-4.32.57-1.08,1.25-2.08,1.86-3.08-1.31-.4-3.25.85-3.99,2.79-.49,1.28-.82,2.65-1.26,3.96-.21.65-.49,1.26-.83,2.11l1.95-1.28c.18.13.37.4.52.37" fill="#fff"/>
            <path id="_패스_350" data-name="패스 350" d="m150.52,44.67c-1.08,1-1.84,2.29-2.18,3.72.97-.49,1.9-.96,2.82-1.43,2.18-1.13,3.2-3.1,3.09-5.92l-2.27,2.16.04-.04h-.01c-.49.51-.97,1.05-1.49,1.51" fill="#fff"/>
            <path id="_패스_351" data-name="패스 351" d="m117.95,18.22c-.61.8,1.53,2.24,3.28,2.22.7-.01,1.41,0,2.06,0-.91-3.32-2.91-3.96-5.61-3.02l1.26,1.06-.99-.26" fill="#fff"/>
            <path id="_패스_352" data-name="패스 352" d="m87.17,18.81l-1.01-.84s.03-.09.05-.13l.92.31c-1.27-3.32-3.82-1.91-5.7-2.4,1.01,3.12,2.95,4.13,5.74,3.06" fill="#fff"/>
            <path id="_패스_353" data-name="패스 353" d="m174.46,55.15c-.87,0-1.96-.02-3.04,0-1,.04-1.89.68-2.25,1.62-.11.44-.14.89-.09,1.34,2.58.97,4.59.2,5.38-2.96" fill="#fff"/>
            <path id="_패스_354" data-name="패스 354" d="m142.29,61.6c1.12-.08,2.39.18,3.34-.34s1.55-1.82,2.3-2.78c-1.65.31-3.39-.7-4.8.69-.39.46-.74.95-1.05,1.46l1.05-.19-.87.79.04.38" fill="#fff"/>
            <path id="_패스_355" data-name="패스 355" d="m139.49,81.76c-1.49.61-2.49,2.04-2.55,3.65l2.7-1.68c-.59.5-1.2.98-1.76,1.52-.36.41-.7.84-1.01,1.29,1.29-.24,2.36-.36,3.4-.65,1.35-.47,2.34-1.62,2.6-3.02.05-.19-.2-.49-.3-.74l1.23-1.68c-1.6.48-2.98.83-4.31,1.32" fill="#fff"/>
            <path id="_패스_356" data-name="패스 356" d="m150.1,53.62l-1.11-1.17c.03-.21.14-.48.07-.61-.61-1.42-2.09-2.26-3.62-2.05-.67.07-1.34.18-2.37.32.71.47,1.18.81,1.68,1.1.43.26.89.46,1.33.69l-2.5-.8c.33,2.13,1.71,2.7,6.52,2.53" fill="#fff"/>
            <path id="_패스_357" data-name="패스 357" d="m140.9,44.33l2.41-.81c-.54.29-1.09.56-1.61.88-.33.22-.64.46-.95.72.02.12.04.23.06.35,1.15.07,2.29.06,3.44-.03,1.32-.27,2.29-1.39,2.38-2.73l.82-.83c-3.55-.35-5.65-.46-6.54,2.45" fill="#fff"/>
            <path id="_패스_358" data-name="패스 358" d="m184.49,56.14c-1.15-.02-2.27.41-3.11,1.2,1.13.25,2.11.53,3.11.67,1.38.13,2.7-.6,3.32-1.84.04-.07-.11-.31-.17-.48l1.49-1.13c-1.45-.25-2.91-.43-4.38-.52-1.36.01-2.57.88-3.02,2.17l4.92-.44c-.71.16-1.44.29-2.17.37" fill="#fff"/>
            <path id="_패스_359" data-name="패스 359" d="m106.62,24.44c1.05-.47,1.62-1.61,1.38-2.74.23-.35.46-.7.88-1.34-2.18,1.05-4.84.52-5.35,4l1.06-.66-1.16,1.6c1.08-.2,2.15-.49,3.19-.86" fill="#fff"/>
            <path id="_패스_360" data-name="패스 360" d="m133.62,55.31c2.52-.11,2.68-.25,3.56-3.22-.93.25-1.83.63-2.65,1.13-.46.37-.59,1.31-.9,2.09" fill="#fff"/>
            <path id="_패스_361" data-name="패스 361" d="m134.66,112.95c.08-.84.15-1.68.15-2.52.05-5.37-.04-10.74-.03-16.1,0-.67.2-1.32.56-1.87,1.73-2.42,3.77-4.31,6.62-4.62-2.76-.49-4.92,1.09-7.02,2.89l-.28-.17c.29-2.32.42-4.68.9-6.95,1.99-9.49,7.07-15.64,15.1-18.46.53-.17,1.11-.15,1.63.05,2.75,1.05,5.24,2.67,7.31,4.75-1.5-2.5-3.7-4.01-5.84-5.9,2.96-.45,5.92-.91,8.88-1.36,3.64-.56,7.33-.89,10.92-1.76,3.96-1,8.11-.86,11.99.4.13.04.26.07.4.1-2.32-1.75-4.94-2.12-7.59-2.57.87-1.02,1.65-2.12,2.32-3.28.52-1.28.85-2.63.97-4.01-.73,4.3-3.3,6.4-6.6,7.51-4.95,1.67-10.01,1.27-15.1.96,6.96-3.5,13.94-6.9,19.45-13.27l-6.17,4.29c-.1-1.73-.2-3.29-.29-4.85l-.13.08c-.29,1.44-.52,2.89-.88,4.3-.2.88-.85,1.59-1.7,1.89-5.65,2.21-11.3,4.43-16.92,6.75-4.63,1.91-9.14,4.12-12.97,7.82-1.15,1.11-2.2,2.37-3.46,3.75.38-1.17.69-2.11,1-3.06.63-1.9,1.4-3.75,1.89-5.69.75-3.04,2.35-4.94,4.96-5.74-.03-.13-.07-.25-.1-.38l-3.72,1.11c.45-3.4.13-6.87-.95-10.13.13,1.27.32,2.53.39,3.81.22,3.68-.43,7.37-1.9,10.76-1.78,4.11-3.7,8.13-5.67,12.43-.04-.76-.1-1.32-.09-1.88.05-5.58.16-11.15.16-16.73-.01-2.08-.15-4.15-.43-6.21-.44-3.47.99-5.88,3.1-7.95.24-.21.5-.4.76-.57-1.41,0-2.22.77-4.58,4.27-.76-1.81-1.55-3.6-2.27-5.42-1.3-3.28-2.69-6.51-3.79-9.88-.77-2.77-.89-5.69-.35-8.51.05-.28.04-.57-.01-.86-.87,2.96-1.13,6.07-.76,9.14l-3.64-1.06c-.04.11-.07.23-.11.34,2.71.7,4.15,2.71,4.92,5.73.64,2.53,1.64,4.95,2.59,7.73-1.23-1.33-2.21-2.48-3.27-3.51-3.42-3.1-7.4-5.5-11.73-7.09-5.05-2.08-10.14-4.01-15.19-6.07-2.11-.86-3.11-2.88-2.89-5.51.02-.28.07-.56.1-.84l-.34-.04-.39,4.79-6.27-4.48c5.28,6.16,11.92,9.44,18.59,12.65,0,.14-.01.28-.02.42-1.71,0-3.42.04-5.13,0-3.18-.08-6.37-.14-9.42-1.39-2.63-.92-4.6-3.13-5.2-5.85-.27,1.63.33,2.87,2.82,5.83-2.53.49-5.06.79-7.07,2.19,1.81-.26,3.83-.59,5.85-.85,2.59-.33,5.03.67,7.55,1.12,4.27.76,8.58,1.19,12.88,1.8,1.16.16,2.32.46,3.47.7l-5.55,4.99.24.39c1.85-1.92,4.11-3.42,6.6-4.38.55-.23,1.16-.25,1.72-.08,8.15,2.99,12.87,9.47,14.25,19.26.2,1.42.28,2.87.43,4.54-2.13-1.72-4.12-3.29-6.8-2.88.89.24,1.76.56,2.6.95.83.52,1.6,1.12,2.31,1.8,1.51,1.19,2.23,3.13,1.87,5.01-.12,1.42-.13,2.85-.04,4.27l-2.32-.99c.08.25.09.35.12.36,1.65.66,2.18,1.92,2.1,3.99-.34,4.31.02,8.66,1.08,12.85.6,2.24.87,4.55.8,6.87-.03,4.87.09,9.75-.25,14.59-.19,1.86-.55,3.7-1.1,5.49-38.04-.1-81.37.89-124.73,4.16h248.13s-50.54-3.82-119.41-4.15" fill="#fff"/>
          </g>
        </g>
      </g>
    </g>
  </g>
</svg>