<?xml version="1.0" encoding="UTF-8"?>
<svg id="_레이어_2" data-name="레이어 2" xmlns="http://www.w3.org/2000/svg" viewBox="0 0 103 118">
  <g id="Logo">
    <g id="symbol_09_05_0001_01" data-name="symbol 09 05 0001 01">
      <g id="Group_213" data-name="Group 213">
        <path id="Path_282" data-name="Path 282" d="M99.29,.24c-9.6,.91-18.99,3.4-27.78,7.35-19.09,8.64-30.87,23.15-34.07,41.98C30.73,89.05,4.58,89.78,3.49,89.79H0v28.21H103V0l-3.71,.24ZM6.97,96.42c4.38-.75,8.59-2.27,12.46-4.47v19.06H6.97v-14.6Zm89.06,14.6H26.4v-24.04c11.27-9.96,15.97-24.83,17.91-36.24,2.82-16.6,12.88-28.95,29.88-36.71,6.96-3.11,14.3-5.26,21.84-6.39V111.02Z" fill="#fff"/>
        <path id="Path_283" data-name="Path 283" d="M68.14,69.57l-1.59-1.62c-.4-.41-9.76-10.12-8.14-23.08,1.18-9.4,7.72-17.79,19.46-24.93l2.65-1.61,1.92,2.44c.48,.62,11.8,15.26,7.76,29.58-2.31,8.19-9.02,14.39-19.94,18.43l-2.13,.79Zm10.59-41.85c-8.06,5.5-12.55,11.55-13.36,18.02-.86,6.92,2.66,12.78,4.75,15.57,7.35-3.16,11.84-7.48,13.36-12.86,2.23-7.9-2.12-16.52-4.74-20.73h0Z" fill="#fff"/>
      </g>
    </g>
  </g>
</svg>