<?xml version="1.0" encoding="UTF-8"?>
<svg id="_레이어_2" data-name="레이어 2" xmlns="http://www.w3.org/2000/svg" viewBox="0 0 240 320">
  <g id="Logo">
    <g id="symbol_09_15_0001_01" data-name="symbol 09 15 0001 01">
      <rect id="_사각형_95" data-name="사각형 95" width="240" height="320" fill="none"/>
      <path id="_패스_644" data-name="패스 644" d="M10.16,62.35c3.93-5.86,8.33-11.4,13.15-16.55,4.88-5.11,10.11-9.87,15.66-14.25,15.97-12.68,34.76-21.31,54.78-25.15,34.09-6.84,66.08-.73,95.8,17.23,13.87,8.38,25.4,19.39,35.26,32.12,3.91,5.05,7.15,10.62,10.62,16.01,5.7,8.86-1.87,19.33-11.48,19.3-69.76-.18-139.51-.09-209.27-.12-9.86,0-15.62-9.18-11.17-17.93,1.71-3.02,3.57-5.95,5.58-8.78,.35-.62,.71-1.25,1.06-1.87Zm40.75-28.96c-12.01,7.88-22.52,17.83-31.06,29.38-3.91,5.32-7.45,11.12-8.74,17.6,5.68,2.28,11.98,2.32,18.1,2.32l191.15,.05c3.83,0,9.18-1.43,7.97-6.13-.99-3.84-4.87-8.23-7.14-11.43-5.2-7.32-11.17-14.05-17.82-20.07-13.35-12.11-29.09-21.28-46.22-26.9-9.22-3.02-18.78-4.92-28.46-5.64-27.29-1.99-54.99,5.77-77.79,20.83Z" fill="#fff"/>
      <path id="_패스_645" data-name="패스 645" d="M119.71,274.35c27.59,0,55.18,.04,82.77-.04,4.38-.01,8.07,.93,10,5.54,2,4.78-.25,8.21-3.4,11.26-10.16,9.88-22.89,16.73-36.73,19.77-24.99,5.66-50.32,5.16-75.61,3.52-11.15-.69-22.23-2.21-33.16-4.55-12.64-2.76-23.78-9.27-33.38-18.52-3.26-3.14-5.29-6.67-3.59-11.27s5.5-5.76,9.9-5.75c27.73,.05,55.47,.06,83.2,.02v.02Zm-83.89,8.82l-.3,1.16c.79,.78,1.54,1.6,2.39,2.32,1.74,1.47,3.48,2.96,5.32,4.3,15.45,11.36,33.28,14.48,51.43,14.96,19.71,.52,39.47,.06,59.18-.82,14.54-.65,28.49-4.59,40.83-13.22,3.28-2.29,6.21-5.14,9.29-7.74l-.53-.96H35.83Z" fill="#fff"/>
      <path id="_패스_646" data-name="패스 646" d="M95.95,232.68c-.27,3.04-1.05,6.02-2.31,8.8-1.54,3.05-4.27,5.34-7.54,6.33-4.85,1.2-9.97-.16-13.59-3.61-2.94-3.09-4.51-7.23-4.34-11.49h-3.95s.08,21.36,.08,21.36c.01,2.72,0,5.53-1.31,8.04-1.92,3.66-6.72,6.22-11.67,6.23s-9.76-2.54-11.7-6.2c-1.33-2.52-1.35-5.35-1.34-8.09l.06-21.51-14.62-.14c-1.77-.02-3.77-.11-4.94-1.17-1.64-1.49-.49-4.02,1.62-5.05s4.74-1,7.21-.93l9.58,.27c1.89-.06,3.77,.22,5.56,.83,4.07,1.73,4.56,6.17,4.53,9.86l-.18,19.23c-.02,2.39,.69,5.51,3.64,5.84,1.69,.13,3.3-.73,4.14-2.2,.6-1.31,.84-2.76,.7-4.2l-.26-18.76c-.05-3.2,.15-6.85,3.18-8.93,2.09-1.44,5.03-1.74,7.79-1.77,3.78-.04,8.12,.58,10.05,3.19,1.54,2.07,1,4.68,1.31,7.07s2.39,5.16,5.36,4.81c2.57-.3,3.82-2.73,3.89-4.82s-.49-4.27,.54-6.18c1.89-3.54,7.77-4.07,12.57-4.07l76.88,.02c4.65,0,10.28,.47,12.26,3.85,1.15,1.96,.59,4.26,.73,6.43s1.64,4.7,4.35,4.79,4.47-2.32,4.77-4.47-.18-4.43,.88-6.42c2.12-3.96,8.72-4.48,14.09-4.41,2.36,.03,5.03,.08,6.9,1.4,1.39,.98,2.22,2.58,1,3.88-1.31,1.4-4.17,1.81-6.19,2.08-2.52,.34-5.08,.3-7.59-.12,.01,0-.29-.05-.3-.05,1.19,4.61-.44,9.49-4.15,12.46-3.93,3.18-10.61,4.19-15.34,1.82-5.58-2.79-6.85-8.76-7.58-14H95.95Z" fill="#fff"/>
      <path id="_패스_647" data-name="패스 647" d="M204.91,128.7c-6.05-.04-10.83-2.73-14.7-7.19-2.16-2.49-4.08-5.2-6.37-7.56-4.33-4.47-9.78-4.5-14.17-.09-2.12,2.13-3.91,4.6-5.86,6.91-9.07,10.7-21.72,10.72-30.8,.05-1.78-2.09-3.39-4.34-5.27-6.34-4.91-5.23-10.53-5.25-15.37-.03-2.24,2.41-4.17,5.11-6.38,7.56-8.03,8.9-20.07,9.04-28.29,.28-2.35-2.5-4.31-5.36-6.64-7.87-4.8-5.17-10.64-5.13-15.4,.1-2.13,2.33-3.95,4.94-6.05,7.29-8.29,9.23-20.45,9.21-28.93,.17-3.72-3.97-7.92-7.51-11.49-11.6-1.06-1.21-1.57-4.1-.83-5.34s3.95-2.38,5.01-1.76c3.45,2.17,6.68,4.68,9.64,7.49,1.72,1.54,2.91,3.65,4.51,5.35,4.88,5.18,10.45,5.13,15.32-.13,1.68-1.81,3.15-3.81,4.73-5.72,9.29-11.29,21.72-11.46,31.32-.42,1.89,2.18,3.57,4.55,5.56,6.63,4.45,4.64,10.04,4.68,14.48,.06,2.57-2.67,4.7-5.75,7.25-8.44,7.96-8.4,19.25-8.56,27.4-.34,2.6,2.63,4.74,5.7,7.27,8.41,4.76,5.08,10.2,5.09,15.02,.04,1.99-2.08,3.67-4.45,5.54-6.65,8.74-10.3,21.39-10.42,30.26-.27,1.81,2.07,3.43,4.3,5.25,6.36,5.03,5.67,10.75,5.76,15.89,.19,2.42-2.62,4.46-5.62,7.06-8.04,2.03-2.02,4.47-3.6,7.15-4.62,1.33-.44,4.07,.87,4.92,2.19,.68,1.06,.02,3.82-1.01,4.97-3.61,4.07-7.71,7.69-11.49,11.62-3.99,4.15-8.62,6.75-14.51,6.74Z" fill="#fff"/>
      <ellipse id="_타원_5" data-name="타원 5" cx="123.42" cy="25.04" rx="3.73" ry="3.72" fill="#fff"/>
      <ellipse id="_타원_12" data-name="타원 12" cx="98.34" cy="30.76" rx="3.73" ry="3.72" fill="#fff"/>
      <ellipse id="_타원_13" data-name="타원 13" cx="147.79" cy="52.21" rx="3.73" ry="3.72" fill="#fff"/>
      <ellipse id="_타원_14" data-name="타원 14" cx="144.06" cy="30.76" rx="3.73" ry="3.72" fill="#fff"/>
      <ellipse id="_타원_15" data-name="타원 15" cx="119.33" cy="48.49" rx="3.73" ry="3.72" fill="#fff"/>
    </g>
  </g>
</svg>