<?xml version="1.0" encoding="UTF-8"?>
<svg id="Layer_2" data-name="Layer 2" xmlns="http://www.w3.org/2000/svg" viewBox="0 0 214 170">
  <g id="Logo">
    <g id="symbol_01_01_0004_02" data-name="symbol 01 01 0004 02">
      <path id="_합치기_28" data-name="합치기 28" d="m107.17,158.2l-4.96-4.3c-.66-.58-.72-1.59-.13-2.25.58-.65,1.56-.72,2.22-.16l3.91,3.4,3.91-3.4c.67-.57,1.68-.48,2.25.19.56.66.49,1.64-.15,2.22l-4.96,4.3c-.6.53-1.49.53-2.09,0Zm22.68-8.75c0-4.43,2.85-8.02,6.37-8.02s6.37,3.59,6.37,8.02-2.85,8.02-6.37,8.02-6.37-3.59-6.37-8.02Zm-57.44,0c0-4.43,2.85-8.02,6.37-8.02s6.37,3.59,6.37,8.02-2.85,8.02-6.37,8.02-6.37-3.59-6.37-8.02Zm78.29-67.93c2.74-1.72,4.03-4.61,2.87-6.45-1.04-1.65-3.68-1.88-6.19-.67,0-2.41-1.2-4.37-2.92-4.58-1.92-.23-3.76,1.85-4.1,4.64-.04.38-.05.77-.04,1.15-1.42-4.29-.91-10.36,1.31-17.27,3.07-8.92,7.57-17.28,13.32-24.75,14.66-19.54,31-27.18,39.36-20.9s5.58,24.09-9.08,43.63c-6.51,8.68-13.81,15.61-20.65,20.1-5.53,3.63-10.75,5.65-15.02,5.69.39-.17.77-.37,1.13-.59Zm-102.02-6.26c-7.24-5.31-13.62-11.7-18.94-18.94C15.09,36.79,12.31,18.97,20.67,12.7s24.7,1.36,39.36,20.9c5.49,7.15,9.86,15.11,12.93,23.59,2.54,7.39,3.2,13.91,1.7,18.44.02-.38,0-.77-.04-1.15-.33-2.79-2.17-4.87-4.09-4.64-1.71.21-2.91,2.18-2.92,4.58-2.51-1.21-5.15-.98-6.19.67-1.15,1.84.13,4.72,2.87,6.45.36.22.74.42,1.13.59-4.7-.04-10.57-2.49-16.73-6.85Z" fill="#fff"/>
      <rect id="_사각형_257" data-name="사각형 257" width="214" height="170" fill="none"/>
    </g>
  </g>
</svg>