<?xml version="1.0" encoding="UTF-8"?>
<svg id="Layer_2" data-name="Layer 2" xmlns="http://www.w3.org/2000/svg" viewBox="0 0 332 264">
  <g id="Logo">
    <g id="symbol_16_03_0003_01" data-name="symbol 16 03 0003 01">
      <path id="_패스_1437" data-name="패스 1437" d="m315.98,150.79c-8.44-2.35-25.58-4.85-37.82,8.27,2.35-8.79,3.84-17.79,4.47-26.87.06-.06.12-.12.18-.18,18.93-20.56,6.94-40.78.25-49.15-1.37-1.99-4.09-2.5-6.09-1.13-.44.3-.83.69-1.13,1.13-6.48,8.11-17.94,27.36-1.4,47.25-3.68,63.38-50.9,113.69-108.42,113.69s-104.41-49.95-108.38-113.01c17.37-20.13,5.74-39.72-.82-47.93-1.37-1.99-4.09-2.5-6.09-1.13-.44.3-.83.69-1.13,1.13-6.62,8.29-18.44,28.22-.24,48.59.57,9.02,2,17.97,4.27,26.73-12.18-12.11-28.71-9.68-36.96-7.39-2.37.48-3.9,2.79-3.42,5.16.11.53.31,1.03.6,1.48,5.08,9.43,18.99,28.39,45.31,19.03.18-.06.35-.14.52-.22,3.6,8.73,8.13,17.06,13.49,24.84-21.96-.41-31.07,17.5-34.28,26.62-.96,2.22.05,4.8,2.27,5.76.49.21,1.02.34,1.56.36,9.88,1.14,30.84.74,39.71-20.89,21.25,24.15,50.87,39.16,83.59,39.16s62.73-15.21,84.01-39.64c8.76,22.11,29.96,22.52,39.91,21.37,2.42-.11,4.29-2.15,4.18-4.56-.02-.54-.15-1.06-.36-1.56-3.24-9.21-12.5-27.37-34.92-26.6,5.43-7.87,9.99-16.3,13.62-25.14.32.2.67.37,1.03.49,26.33,9.36,40.23-9.6,45.32-19.03,1.3-2.04.69-4.75-1.35-6.04-.45-.29-.95-.49-1.48-.6" fill="#fff"/>
      <path id="_패스_1438" data-name="패스 1438" d="m247.67,168.03V10l-81.65,52.54L84.37,10v158.03l81.65,52.54,81.65-52.54ZM91.61,23.27l74.41,47.88,74.41-47.88v140.81l-74.41,47.88-74.41-47.88V23.27Z" fill="#fff"/>
      <path id="_패스_1439" data-name="패스 1439" d="m233.19,36.55l-67.17,43.22-67.17-43.22v123.58l67.17,43.22,67.17-43.22V36.55Z" fill="#fff"/>
      <rect id="_사각형_704" data-name="사각형 704" width="332" height="264" fill="none"/>
    </g>
  </g>
</svg>