<?xml version="1.0" encoding="UTF-8"?>
<svg id="Layer_2" data-name="Layer 2" xmlns="http://www.w3.org/2000/svg" viewBox="0 0 118 118">
  <g id="Logo">
    <g id="symbol_15_05_0003_01" data-name="symbol 15 05 0003 01">
      <path id="_패스_1367" data-name="패스 1367" d="m19.57,47.73v-11.43c0-4.3-3.49-7.79-7.79-7.79s-7.79,3.49-7.79,7.79v11.43c0,4.3,3.49,7.79,7.79,7.79s7.79-3.49,7.79-7.79" fill="#fff"/>
      <path id="_패스_1368" data-name="패스 1368" d="m56.87,55.52c4.3,0,7.79-3.49,7.79-7.79h0v-11.43c0-4.3-3.49-7.79-7.79-7.79s-7.79,3.49-7.79,7.79v11.43c0,4.3,3.49,7.79,7.79,7.79h0" fill="#fff"/>
      <path id="_패스_1369" data-name="패스 1369" d="m99.19,7.8c-1.64-1.96-4.55-2.22-6.51-.59-1.96,1.64-2.22,4.55-.59,6.51h0c19.25,23,16.2,57.25-6.8,76.5-20.47,17.13-50.35,16.84-70.49-.67-1.93-1.67-4.85-1.47-6.52.46-1.67,1.93-1.47,4.85.46,6.52,26.48,23.04,66.62,20.25,89.66-6.23,20.5-23.57,20.84-58.54.79-82.5" fill="#fff"/>
      <rect id="_사각형_659" data-name="사각형 659" width="118" height="118" fill="none"/>
    </g>
  </g>
</svg>