<?xml version="1.0" encoding="UTF-8"?>
<svg id="_레이어_2" data-name="레이어 2" xmlns="http://www.w3.org/2000/svg" viewBox="0 0 92 88">
  <g id="Tag">
    <g id="symbol_03_21_0001_01" data-name="symbol 03 21 0001 01">
      <rect id="_사각형_77" data-name="사각형 77" x="0" y="0" width="92" height="88" fill="none"/>
      <path id="_패스_572" data-name="패스 572" d="M24.56,52.34c.15-.03,.41-.08,.66-.14,5.4-1.4,10.8-2.81,16.2-4.21,.27-.06,.54-.06,.81,0,3.76,.97,7.52,1.95,11.27,2.93,1.76,.46,3.52,.95,5.3,1.36,1,.25,2.02-.36,2.27-1.36,0,0,0,0,0,0,0-.03,.02-.07,.02-.1,.21-.99-.38-1.97-1.35-2.26-.18-.06-.37-.1-.56-.15-5.5-1.44-11-2.89-16.51-4.3-.56-.14-1.14-.14-1.7,0-2.94,.72-5.86,1.5-8.79,2.27-2.74,.72-5.48,1.44-8.22,2.16-.96,.23-1.6,1.14-1.48,2.12,.16,1.01,1.06,1.74,2.08,1.68Z" fill="#fff"/>
      <path id="_패스_573" data-name="패스 573" d="M84.89,0H7.11C3.18,0,0,3.18,0,7.11H0V80.89c0,3.93,3.18,7.11,7.11,7.11H84.89c3.93,0,7.11-3.18,7.11-7.11h0V7.11C92,3.19,88.82,0,84.89,0h0ZM38.21,11.28c.28-1.01,1.22-1.7,2.27-1.67,.91-.01,1.82-.02,2.73,0,1.21-.06,2.25,.84,2.36,2.04,.16,1.09,.29,2.18,.43,3.32h-8.38c.19-1.25,.31-2.49,.59-3.69h0Zm-2.23,8.77c-.07-1.83,1.36-3.36,3.19-3.43h.1c1.7-.05,3.4-.05,5.1,0,1.82,.01,3.28,1.49,3.27,3.31,0,0,0,0,0,0v.07c.02,1.63,0,3.26,0,4.95h-11.62c-.02-.19-.05-.35-.05-.51,0-1.47,0-2.93,0-4.39h0Zm31.31,58.52c-.25,.03-.51,.03-.76,.02H17.1c-.25,.01-.51,0-.76-.02-.57-.07-.98-.58-.91-1.16,.05-.45,.39-.82,.84-.9,.25-.04,.5-.05,.76-.04h49.58c.25-.01,.51,0,.76,.04,.57,.11,.94,.65,.83,1.22-.08,.45-.45,.79-.9,.84h0Zm4.1-6.18c-.28,.02-.56,.01-.84,.01H13c-.3,.01-.61,0-.91-.03-.55-.11-.92-.64-.81-1.19,.08-.41,.4-.73,.81-.81,.25-.03,.5-.04,.76-.03h57.93c.2,0,.4,0,.61,.01,.57,.03,1.01,.51,.98,1.07-.02,.53-.45,.96-.98,.98h0Zm3.5-6.14H8.76c-1.19,0-1.68-.3-1.69-1.05s.48-1.07,1.66-1.07h11.62c-2.17-5.47-4.33-10.95-6.5-16.43-.47-1.18-.2-1.71,1.03-2.03,8.8-2.3,17.61-4.6,26.42-6.9,.33-.09,.67-.09,1-.02,8.83,2.3,17.65,4.6,26.48,6.92,1.19,.31,1.47,.87,1.02,2-2.18,5.49-4.35,10.97-6.53,16.46h11.6c1.19,0,1.68,.3,1.69,1.04s-.49,1.07-1.66,1.07h0Zm6.1-36.13c-.38,1.48-1.59,2.6-3.1,2.86-2.24,.34-4.33-1.19-4.68-3.43,0,0,0,0,0,0-.03-.17-.04-.34-.05-.52-.04-.59,.41-1.11,1-1.15h.09c.6-.04,1.13,.41,1.18,1.01,0,.02,0,.04,0,.06,0,.8,.53,1.49,1.3,1.7,.81,.11,1.6-.3,1.98-1.03,.38-.69,.19-1.56-.45-2.02-1.15-.93-1.89-2.28-2.07-3.75-.11-1.12-.04-2.25-.05-3.38v-1.94l-.14-.04c-1.68,1.84-3.36,3.68-5.05,5.52-3.08,3.39-6.16,6.78-9.24,10.17v6.91c-2.17-.56-4.23-1.1-6.28-1.64-4.2-1.1-8.4-2.22-12.62-3.28-.64-.16-1.31-.16-1.95-.01-6.15,1.57-12.29,3.19-18.43,4.8-.14,.04-.29,.06-.5,.1-.01-.24-.04-.44-.04-.64v-11.44c0-1.24,.42-1.66,1.67-1.66H60.04c.12,0,.22,0,.33,.02l12.78-11.56c.43-.34,.71-.83,.77-1.37,.34-1.86,2.12-3.09,3.98-2.76,1.28,.23,2.31,1.17,2.67,2.41,.48,1.54-.21,3.19-1.63,3.94-.37,.13-.59,.51-.54,.89,.03,1.39,.03,2.77,0,4.15-.06,1.14,.44,2.25,1.33,2.97,1.25,.97,1.75,2.62,1.25,4.12h0Z" fill="#fff"/>
    </g>
  </g>
</svg>