<?xml version="1.0" encoding="UTF-8"?>
<svg id="Layer_2" data-name="Layer 2" xmlns="http://www.w3.org/2000/svg" viewBox="0 0 190 162">
  <g id="Logo">
    <g id="symbol_15_01_0001_01" data-name="symbol 15 01 0001 01">
      <path id="_패스_294" data-name="패스 294" d="m107.69,7.88c-3.47.75-6.82,1.64-10.07,2.62,4.72,17.18-5.38,34.93-22.56,39.65-3.85,1.06-7.86,1.39-11.84.99-.48-.05-.96-.11-1.44-.18-6.3-.92-12.19-3.7-16.9-7.98C12.25,77.31,5.75,122.24,5.75,122.24l31.33,36.05c33.71-97.46,124.37-95.87,124.37-95.87L107.69,7.88Z" fill="#fff"/>
      <path id="_패스_295" data-name="패스 295" d="m184.2,98.64c.46-13.31-9.97-24.47-23.28-24.92-13.31-.46-24.47,9.97-24.92,23.28-.46,13.31,9.97,24.47,23.28,24.92,0,0,0,0,0,0,13.31.45,24.47-9.97,24.92-23.28" fill="#fff"/>
      <rect id="_사각형_101" data-name="사각형 101" width="190" height="162" fill="none"/>
    </g>
  </g>
</svg>