<?xml version="1.0" encoding="UTF-8"?>
<svg id="_레이어_2" data-name="레이어 2" xmlns="http://www.w3.org/2000/svg" viewBox="0 0 248 190">
  <g id="Logo">
    <g id="symbol_02_03_0002_01" data-name="symbol 02 03 0002 01">
      <rect id="_사각형_159" data-name="사각형 159" width="248" height="190" fill="none"/>
      <path id="_패스_825" data-name="패스 825" d="M110.92,76.89c1.33,.05,2.66-.02,3.99-.03,7.14-.09,14.29-.18,21.43-.24,1.29,.15,2.53-.54,3.08-1.72,.07-.39,.12-.79,.13-1.19-.1-9.03-.21-18.06-.33-27.08,.2-1.38-.76-2.66-2.13-2.86-.25-.04-.5-.03-.75,0-8.53,.07-17.06,.16-25.58,.28-1.4-.19-2.69,.79-2.88,2.19-.03,.23-.03,.47,0,.71,.08,9.08,.18,18.17,.32,27.25-.12,1.38,.9,2.59,2.28,2.7,.15,.01,.3,.01,.44,0h0Z" fill="#fff"/>
      <path id="_패스_826" data-name="패스 826" d="M185.13,85.58c-8.9-16.44-24.29-28.4-42.42-32.96,.05,4.92,.11,9.55,.16,14.38,15.6,2.96,30.08,8.13,42.26,18.57Z" fill="#fff"/>
      <path id="_패스_827" data-name="패스 827" d="M104.54,53.12c-17.5,5.32-32.48,16.8-42.16,32.32,12.69-9.03,27.1-15.36,42.33-18.61-.05-4.54-.11-9.03-.17-13.71Z" fill="#fff"/>
      <path id="_패스_828" data-name="패스 828" d="M123.46,33.51c-3.83,0-6.93,3.11-6.92,6.94v.19l13.88-.16c.04-3.8-3-6.93-6.81-6.97h-.15Z" fill="#fff"/>
      <path id="_패스_829" data-name="패스 829" d="M176.94,10.29c-3.77-4.38-9.27-6.87-15.05-6.83H87.45c-5.78-.05-11.28,2.45-15.05,6.83L4,73.47l120.04,111.84c.07,.08,.15,.14,.24,.18,.22,.11,.48,.12,.71,.03,.12-.05,.23-.12,.31-.22l120.04-111.84L176.94,10.29ZM88.41,28.19c2.62-3.04,6.43-4.77,10.44-4.74h51.63c4.01-.03,7.82,1.7,10.44,4.74l51.2,46.08c-9.93,9.22-23.92,22.2-33.84,31.43-15.07,14.01-30.13,28.03-45.19,42.06-.27-20.14-.55-35.65-.71-43.8-.23-11.03-.46-18.38-.57-21.38-.03-.85-.06-1.71-.09-2.56l-15.43,.19c-.03,.74-.06,1.29-.07,1.84-.06,11.04-.16,19.27-.11,21.83,.15,6.94,.21,20.08,.08,44.32l-38.57-37.26-41.49-37.97L88.41,28.19Z" fill="#fff"/>
    </g>
  </g>
</svg>