<?xml version="1.0" encoding="UTF-8"?>
<svg id="Layer_2" data-name="Layer 2" xmlns="http://www.w3.org/2000/svg" viewBox="0 0 190 100">
  <g id="Tag">
    <g id="symbol_03_03_0001_01" data-name="symbol 03 03 0001 01">
      <path id="_패스_447" data-name="패스 447" d="m18.25,75.99l39.35-23.61v21.05c-.02,1.06.33,2.08,1,2.9,1.35,1.59,3.65,1.97,5.44.9l41.4-24.85v21.13c-.02.86.22,1.7.69,2.42.8,1.18,2.13,1.9,3.56,1.9.77,0,1.53-.21,2.19-.61l41.41-24.84v40.31c0,1.17.95,2.13,2.13,2.13h19.14c1.17,0,2.13-.95,2.13-2.13h0v-28.68l-7.97-7.97V11.79c0-3.75-3.04-6.79-6.79-6.79h0s-8.76,0-8.76,0c-3.75,0-6.79,3.04-6.79,6.79v39.78l-15.95,9.57V21.36c0-3.75-3.04-6.79-6.78-6.79h-8.76c-3.75,0-6.79,3.04-6.79,6.79h0v24.48l-28.31,16.99-15.7-15.7c-1.32-1.32-3.37-1.57-4.97-.61l-44.06,26.44c-.66.39-1.06,1.1-1.06,1.87v17.88c0,1.17.95,2.13,2.13,2.13s2.13-.95,2.13-2.13v-16.7ZM149.57,23.98c2.5,1.16,5.22,1.76,7.98,1.76v19.14l-7.98,4.78v-25.68Zm-38.28,9.57c2.5,1.16,5.22,1.76,7.97,1.76v19.14l-7.97-7.97v-12.92Z" fill="#fff"/>
      <rect id="_사각형_2" data-name="사각형 2" width="190" height="100" fill="none"/>
    </g>
  </g>
</svg>