<?xml version="1.0" encoding="UTF-8"?>
<svg id="Layer_2" data-name="Layer 2" xmlns="http://www.w3.org/2000/svg" viewBox="0 0 180 180">
  <g id="Logo">
    <g id="symbol_16_02_0003_02" data-name="symbol 16 02 0003 02">
      <path id="_패스_1427" data-name="패스 1427" d="m170.65,69.27c-26.43-13.68-52.88-27.33-79.33-40.96-1.16-.45-2.45-.41-3.57.12-15.9,8.12-31.75,16.35-47.61,24.56-10.4,5.38-20.8,10.75-31.47,16.26-.45.23-.63.79-.4,1.24.08.15.2.28.35.37.29.17.56.32.84.47,25.84,13.37,51.67,26.76,77.49,40.15,1.69.88,3.71.88,5.41,0,24.13-12.55,48.29-25.06,72.47-37.53,1.91-.99,3.8-1.99,5.83-3.07.44-.23.62-.78.38-1.23-.09-.16-.22-.3-.38-.38" fill="#fff"/>
      <path id="_패스_1428" data-name="패스 1428" d="m144.14,91.91c-.77.37-1.39.67-2.01.98-16.41,8.48-32.85,16.92-49.21,25.49-2.07,1.24-4.66,1.22-6.71-.05-16.52-8.65-33.1-17.18-49.67-25.75-.46-.24-.93-.46-1.46-.71-.46-.22-1.01-.01-1.23.45-.06.12-.09.25-.09.39,0,9.26-.04,18.13.07,26.99.18.97.77,1.82,1.62,2.32,17.51,10.19,35.05,20.31,52.63,30.38.97.46,2.09.46,3.06.02,17.67-10.09,35.29-20.26,52.87-30.49.72-.42,1.22-1.14,1.37-1.96.09-8.94.06-17.89.06-27.24,0-.51-.42-.92-.93-.92-.14,0-.27.03-.39.09" fill="#fff"/>
      <rect id="_사각형_699" data-name="사각형 699" width="180" height="180" fill="none"/>
    </g>
  </g>
</svg>