<?xml version="1.0" encoding="UTF-8"?>
<svg id="Layer_2" data-name="Layer 2" xmlns="http://www.w3.org/2000/svg" viewBox="0 0 220 220">
  <g id="Logo">
    <g id="symbol_13_04_0002_01" data-name="symbol 13 04 0002 01">
      <path id="_합치기_14" data-name="합치기 14" d="m99.49,176.57c-5.31,3.34-12.32,1.74-15.66-3.57-3.34-5.31-1.74-12.32,3.57-15.66,1.36-.85,2.88-1.41,4.46-1.63l-20.65-56.45c-4.42,4.46-11.61,4.49-16.07.08s-4.49-11.61-.08-16.07c2.13-2.15,5.04-3.37,8.07-3.37.35,0,.68.02,1.02.05l-2.74-7.49c6.54.22,18.76.2,41.64-.35,27.3-.65,60.69-1.83,85.06-2.7l7.55-.26c.73-.03,1.41-.05,2.07-.07.48,1.03.95,2.08,1.39,3.14-12.89,3.01-36.45,7.32-56.57,11-27.4,5.01-53.29,9.75-59.89,12.2-.89.33-1.89.81-1.76,1.65.35,2.28,12.84,3.17,43.43,4.79,19.34,1.02,41.17,2.18,51.06,4.15-3.76.67-14.35,1.54-25.45,2.46-24.06,1.98-54,4.45-58.98,7.84-.34.18-.52.57-.43.94.47,1.66,9.79,2.33,39.47,3.67,13.57.61,28.78,1.3,32.54,2.14-.29.07-.66.15-1.18.25-2.62.47-6.37,1.08-10.71,1.79-30.68,4.99-47.39,8.33-47.81,11.67-.1.73.44,1.37,1.59,1.87,4.18,1.73,8.51,3.03,12.95,3.9,4.58,1.03,8.2,1.84,9.12,3.89.57,1.26.15,3.12-1.29,5.68-6.24,11.17-16.84,30.6-16.94,30.79-.1.19-.08.43.05.6l16.65,22.02c-4.79.75-9.63,1.14-14.48,1.17l-11.02-30.12Zm9.95,6.55c1.4-2.56,10.96-20.08,16.77-30.47,1.63-2.92,2.06-5.04,1.33-6.67-1.14-2.56-4.81-3.38-9.88-4.51-4.37-.85-8.63-2.13-12.74-3.84-.78-.34-.96-.62-.95-.72.4-3.16,31.8-8.26,46.89-10.72,4.35-.71,8.1-1.32,10.73-1.79,1.88-.34,2.81-.65,2.76-1.39-.09-1.41-5.22-1.89-34.29-3.2-15.68-.71-35.01-1.58-38.15-2.78,5.67-3.13,35.92-5.62,58.13-7.45,25.56-2.1,27.61-2.46,27.69-3.54.04-.64-.71-.8-1.07-.89-9.44-2.13-31.21-3.28-52.26-4.39-18.92-1-40.31-2.14-42.32-3.81.3-.2.63-.36.98-.48,6.51-2.42,32.34-7.14,59.7-12.15,29.21-5.34,46.96-8.71,56.79-11.06,20.19,49.58-3.63,106.14-53.21,126.33-2.45,1-4.93,1.89-7.45,2.69l12.64-16.56c.12-.16.14-.38.06-.57l-15.28-33.77c-.12-.28-.45-.4-.73-.28-.28.12-.4.45-.28.73l15.14,33.47-13.37,17.51c-1.5.44-3.01.84-4.53,1.21v-13.59c1.43-.72,3.53-2.53,3.03-5.21,0,0-.02-.11-.02-.12-.34-1.69-1.55-3.08-3.18-3.63-1.74-.62-3.69-.27-5.1.93-.91.72-1.45,1.8-1.49,2.96-.08,2.24,1.09,4.34,3.04,5.44v14.03c-.87.17-1.73.33-2.6.48l-16.78-22.2Zm20.49,7.35c0-.22-.12-.41-.32-.5-1.71-.87-2.78-2.65-2.72-4.57.02-.84.42-1.63,1.09-2.15,1.11-.94,2.64-1.22,4.02-.73,1.3.44,2.25,1.55,2.48,2.9.51,2.76-2.58,4.1-2.71,4.15-.21.09-.34.29-.34.51v14.2c-.5.11-.99.23-1.49.33v-14.15Zm-79.2-3.93c1.4-6.11,7.5-9.93,13.62-8.53,6.12,1.41,9.93,7.5,8.53,13.62-.55,2.38-1.85,4.53-3.71,6.11-6.54-3.04-12.72-6.79-18.43-11.2h0Zm-3.73-43.22c0-6.28,5.09-11.36,11.37-11.36,6.28,0,11.36,5.09,11.36,11.37,0,6.27-5.09,11.36-11.36,11.36-6.28,0-11.36-5.09-11.36-11.36h0Zm-32.81-18.34c-.79-5.01-1.19-10.07-1.19-15.14,0-2.21.08-4.39.23-6.56,5.91-2.11,12.42.98,14.53,6.89,2.11,5.91-.98,12.42-6.89,14.52-2.15.77-4.47.87-6.68.29Zm46.83-53.61l-.48-1.32c1.67-.26,3.83-.56,6.62-.91,57.27-7.21,79.68-34.49,78.47-46.81-.09-.98-.34-1.93-.75-2.82,22.96,8.93,41.67,26.26,52.34,48.47-.52.02-1.04.03-1.6.05l-7.55.27c-34.05,1.21-90.11,3.19-117.41,3.19-3.82,0-7.09-.04-9.64-.12h0Zm-13.15-35.96c22.89-19.04,53.25-26.52,82.36-20.28-1.69.49-3.16,1.57-4.14,3.03-2.7,4.18-.49,10.33-.39,10.58.1.29.42.44.71.33,0,0,0,0,0,0,.29-.11.44-.43.33-.72-.02-.06-2.12-5.89.29-9.6,1.12-1.72,3.07-2.74,5.79-3.04,3.53.86,7.01,1.91,10.41,3.16.75,1.04,1.2,2.28,1.3,3.56,1.25,12.71-23.59,38.81-77.5,45.6-2.87.36-5.12.67-6.87.95l-12.29-33.58Zm-22.74,27.47c3.69-6.64,8.14-12.82,13.27-18.43,5.15,3.58,6.42,10.66,2.84,15.81-3.58,5.15-10.66,6.42-15.81,2.84-.1-.07-.21-.14-.3-.22Z" fill="#fff"/>
      <rect id="_사각형_207" data-name="사각형 207" width="220" height="220" fill="none"/>
    </g>
  </g>
</svg>