<?xml version="1.0" encoding="UTF-8"?>
<svg id="_레이어_2" data-name="레이어 2" xmlns="http://www.w3.org/2000/svg" viewBox="0 0 130 130">
  <g id="Logo">
    <g>
      <g id="symbol_03_18_0001_01" data-name="symbol 03 18 0001 01">
        <g id="_사각형_9" data-name="사각형 9">
          <rect x="0" width="130" height="130" fill="none"/>
        </g>
        <g id="_그룹_17" data-name="그룹 17">
          <path d="M80.84,59.19c-2.39,0-4.54,1-6.06,2.61l-7.38-5.77c.83-1.3,1.32-2.84,1.32-4.49h0c0-3.77-2.49-6.95-5.91-8l3.33-16.24c.19,.02,.37,.03,.56,.03h0c3.74,0,6.77-3.03,6.77-6.77,0-3.74-3.03-6.78-6.77-6.78-3.74,0-6.78,3.03-6.78,6.77,0,.79,.14,1.55,.39,2.26l-12.5,6.18c-2-3.42-5.71-5.73-9.96-5.73-6.38,0-11.55,5.17-11.55,11.54,0,.65,.07,1.29,.17,1.92l-10.22,2.46c-1.13-3.28-4.24-5.64-7.9-5.64C3.74,33.54,0,37.28,0,41.9c0,4.62,3.75,8.37,8.37,8.37,2.48,0,4.71-1.09,6.24-2.81l7.34,5.37c-.55,.98-.87,2.11-.87,3.31,0,3.74,3.03,6.77,6.77,6.77s6.77-3.03,6.77-6.77-3.03-6.77-6.77-6.77c-1.96,0-3.72,.84-4.96,2.17l-7.34-5.36c.74-1.25,1.18-2.71,1.18-4.27,0-.39-.04-.78-.09-1.16l10.21-2.46c1.48,4.67,5.84,8.06,11.01,8.06,3.5,0,6.64-1.56,8.75-4.03l6.58,4.9c-.76,1.26-1.21,2.74-1.21,4.32,0,4.62,3.75,8.37,8.37,8.37,2.39,0,4.53-1,6.06-2.61l7.38,5.77c-.83,1.3-1.32,2.84-1.32,4.49,0,4.62,3.75,8.37,8.37,8.37h0c4.62,0,8.37-3.75,8.37-8.37,0-4.62-3.75-8.37-8.37-8.37Zm-33.26-18.17c1.15-1.8,1.83-3.93,1.83-6.22h0c0-1.55-.31-3.03-.87-4.39l12.49-6.17c.83,1.27,2.07,2.24,3.54,2.73l-3.33,16.24c-.29-.03-.59-.05-.89-.05-2.46,0-4.66,1.07-6.19,2.75l-6.58-4.9Z" fill="#fff"/>
          <g id="_패스_190" data-name="패스 190">
            <path d="M80.93,116.23c-27-.12-48.81-22.07-48.75-49.07l9.65,.03c-.07,21.68,17.45,39.31,39.13,39.39,21.68,.07,39.32-17.44,39.39-39.12,.07-21.68-17.44-39.31-39.13-39.39l.03-9.65c27.01,.09,48.84,22.06,48.75,49.07s-22.06,48.84-49.07,48.74h0Z" fill="#fff"/>
          </g>
          <g id="_패스_191" data-name="패스 191">
            <path d="M81.09,98.53c-17.23-.02-31.19-13.98-31.21-31.21h7.72c0,12.97,10.52,23.49,23.49,23.49,12.97,0,23.49-10.52,23.49-23.49,0-12.97-10.52-23.49-23.49-23.49v-7.72c17.24,.1,31.13,14.15,31.03,31.39-.1,17.1-13.93,30.94-31.03,31.03Z" fill="#fff"/>
          </g>
        </g>
      </g>
      <rect x="0" width="130" height="130" fill="none"/>
    </g>
  </g>
</svg>