<?xml version="1.0" encoding="UTF-8"?>
<svg id="Layer_2" data-name="Layer 2" xmlns="http://www.w3.org/2000/svg" viewBox="0 0 128 128">
  <g id="Logo">
    <g id="symbol_11_03_0007_02" data-name="symbol 11 03 0007 02">
      <path id="_패스_1005" data-name="패스 1005" d="m42.42,55.42c8.64,0,16.67-4.47,21.21-11.82,7.25,11.71,22.62,15.34,34.33,8.09,11.71-7.25,15.34-22.62,8.09-34.33s-22.62-15.34-34.33-8.09c-3.29,2.03-6.06,4.8-8.09,8.09-7.24-11.72-22.62-15.34-34.33-8.09s-15.34,22.62-8.09,34.33c4.55,7.35,12.57,11.82,21.21,11.82" fill="#fff"/>
      <path id="_패스_1006" data-name="패스 1006" d="m106.06,51.95c-11.75,11.62-30.67,11.62-42.42,0h0c-11.75,11.62-30.67,11.62-42.42,0-4.77,7.4-7.69,17.3-7.69,28.18,0,22.92,12.94,41.49,28.9,41.49,8.38,0,15.93-5.13,21.21-13.32,5.28,8.19,12.83,13.32,21.21,13.32,15.96,0,28.9-18.58,28.9-41.49,0-10.88-2.92-20.78-7.69-28.18" fill="#fff"/>
      <rect id="_사각형_366" data-name="사각형 366" width="128" height="128" fill="none"/>
    </g>
  </g>
</svg>