<?xml version="1.0" encoding="UTF-8"?>
<svg id="_레이어_2" data-name="레이어 2" xmlns="http://www.w3.org/2000/svg" viewBox="0 0 227 274">
  <g id="Logo">
    <g id="symbol_08_03_0005_01-2" data-name="symbol 08 03 0005 01-2">
      <path id="_패스_1449" data-name="패스 1449" d="m146.26,202.98c-11.96-15.41-25.16-29.83-37.4-45.02-1.11-1.38-4.06-5.06-8.71-5.77-.24-.04-1.61-.02-3.29,0-1.48.02-3.39.09-3.38.09l-16.51.22s-4.58-.31-5.96,1.48c-.79,1.02-.42,2.49.81,5.95,2.35,6.63,3.52,9.95,3.56,10.04,1.18,3.01,1.39,4.03,3.25,9.93,1.63,5.16,5.77,18.02,16.53,51,1.24.08,2.59.15,4.03.21,10.09.44,17.18-.03,22.09.11.45.01,1.97.05,4.05.02.58,0,1.2-.03,2.06-.07,4.63-.19,9.24-.66,13.82-1.38,7.6-1.08,14.9-3.65,21.51-7.55-7.32-7.82-12.82-14.59-16.45-19.26" fill="#fff"/>
      <path id="_패스_1450" data-name="패스 1450" d="m224.05,115.49c-.19-12.55-.49-25.16-2.11-37.61-2-16.11-8.71-31.27-19.3-43.57-12.46-14.89-29.78-24.91-48.91-28.26-5.78-1.08-12.42-1.35-25.73-1.79-2.02-.07-17.17-.55-28.22,0-2.83.14-7.08.18-12.49.49-5.73.34-8.6.51-11.3.91-6.02.96-11.89,2.71-17.46,5.2-5.43,2.09-10.62,4.74-15.5,7.9-4.77,3.12-9.19,6.73-13.19,10.77-14.92,15.47-23.6,35.9-24.37,57.38-.2,6.28-.94,12.54-.95,18.79-.02,12.52-1.1,25.04-.46,37.53.5,9.82-.09,19.65.82,29.45.62,6.68.42,13.45,1.22,20.1,1.84,15.21,6.72,29.36,16.25,41.59,3.38,4.33,6.65,8.75,11,12.27,4.36,3.64,8.97,6.96,13.81,9.93,10.37,6.19,21.33,10.27,33.43,11.08,1.55.11,4.22.3,7.55.49,17.5,1.05,35.05,1.05,52.56,0,10.08-.62,13.2-1.19,14.38-1.42,8.56-1.67,16.8-4.7,24.41-8.96,23.12-12.91,38.84-35.94,42.43-62.18.66-4.76.87-9.59,1.18-14.39,1.43-21.88,1.29-43.8.95-65.7m-27.91,24.09c-.02,9.65-.64,19.28-.96,28.91-.15,4.45-.55,8.89-.63,13.35-.28,14.92-4.41,28.42-14.73,39.74-8.51,9.52-20.11,15.73-32.76,17.52-4.77.74-9.6.75-14.39,1.1-10.34.63-20.7.73-31.04.32-7.88-.22-15.84-.16-23.62-1.93-21.8-4.79-38.63-22.16-42.74-44.1-.64-3.38-1.07-6.79-1.27-10.22-.33-4.81-.34-9.64-.58-14.45-.72-14.04-1.42-28.09-.88-42.13.27-7.01,0-14.05.76-21.06.51-4.61.41-9.29.54-13.93.35-12.11,2.51-23.63,9.18-33.96,4.75-7.39,11.15-13.58,18.71-18.07,9.77-5.86,20.5-7.55,31.68-7.94,7.15-.25,14.3-.4,23.34-.45,7.73-.37,15.48-.13,23.18.73,8.39.83,16.81,2.11,24.51,6.41,17.05,9.54,26.9,23.91,29.56,43.12.74,5.35.87,10.8,1.1,16.21.28,6.71.16,13.45.61,20.15.47,6.9.45,13.78.44,20.68" fill="#fff"/>
      <rect id="_사각형_512" data-name="사각형 512" width="227" height="274" fill="none"/>
    </g>
  </g>
</svg>