<?xml version="1.0" encoding="UTF-8"?>
<svg id="_레이어_2" data-name="레이어 2" xmlns="http://www.w3.org/2000/svg" viewBox="0 0 227 197">
  <g id="Tag">
    <g id="symbol_03_15_0001_02" data-name="symbol 03 15 0001 02">
      <rect id="_사각형_69" data-name="사각형 69" width="227" height="196.74" fill="none"/>
      <path id="_패스_448" data-name="패스 448" d="M59.55,104.62c4.66-2.22,9.45-4.21,13.95-6.71,6.47-3.6,11.93-8.43,14.37-15.66,3.17-9.38,.39-17.8-5.5-25.19-4.34-5.44-9.35-10.33-13.92-15.59-2.45-2.82-4.61-2.92-7.97-1.11-11.45,6.18-23.09,12.03-35.96,14.76-1.97,.41-3.99,.56-6,.45-4.78-.03-8.63-3.93-8.6-8.72,0-.04,0-.07,0-.11-.24-5.85,2.04-11.53,6.26-15.59,1.54-1.53,4.15-2.2,6.39-2.78,4.75-1.23,9.6-2.12,14.39-3.22,1.03-.31,2.03-.71,2.99-1.18,20.83-8.55,36.27-5.04,51.23,11.86,3.91,4.41,7.63,9.01,11.12,13.76,9.37,12.71,8.24,28.34-2.88,39.51-8.81,8.85-18.95,15.4-31.76,16.64-2.68,.26-5.42-.22-8.14-.35l.04-.77Z" fill="#fff"/>
      <path id="_패스_449" data-name="패스 449" d="M73.88,81.21c-10.93,3.19-21.04,6.18-31.2,9.04-1.03,.23-2.1-.01-2.93-.66-6.83-6.95-13.54-14.02-20.83-21.62,6.47-1.97,12.17-3.71,17.88-5.44,4.49-1.36,8.95-2.83,13.5-3.95,1.31-.32,3.45-.13,4.23,.72,6.33,6.89,12.43,13.99,19.35,21.9Z" fill="#fff"/>
      <path id="_패스_450" data-name="패스 450" d="M109.19,45.31c-13.33-12.24-26.91-23.68-42.73-32.23-7.96-4.31-16.28-6.08-25.21-4.11-2.32,.51-4.56,1.44-6.83,2.18C38.49,2.77,51.8-1.96,62.2,1.34s17.97,10.56,24.84,18.49c2.84,3.27,4.94,4,8.68,1.62,4.12-2.62,8.66-4.57,13.81-7.22-2.14,10.92-3.3,20.97-.35,31.08Z" fill="#fff"/>
      <path id="_패스_451" data-name="패스 451" d="M127.46,143.93c2.44,5.11,4.65,9.74,6.86,14.36l-.78,.45-14.24-18.23c6.48-7.02,14.33-11.42,22.88-14.69,1.14-.16,2.29,.18,3.15,.94,15.25,12.99,19.07,29.67,15.57,48.66-.22,.57-.5,1.12-.83,1.64-1.48-5.33-2.81-10.06-4.1-14.8-2.4-8.88-6.59-16.62-13.94-22.47-1.94-1.54-3.61-1.92-5.8-.61-2.75,1.64-5.63,3.05-8.78,4.74Z" fill="#fff"/>
      <path id="_패스_452" data-name="패스 452" d="M169.15,144.76l-19.82-19.28,35.09-16.34-7.35,7.53,14.8,4.2-.24,.82-25.81,1.79,.07,1.11,13.35,10.38-.6,.94-18.42-5.51,8.32,15.42,.63-1.06Z" fill="#fff"/>
      <path id="_패스_453" data-name="패스 453" d="M118.37,78.74c2.32,13.77,4.41,27.59,10.02,41.27v-24.24l1-.13c1.08,6.77,1.51,13.75,6.05,20.14l4.2-8.93,2.16,16.24-15.37,9.29c-4.78-17.94-7.73-35.56-8.06-53.63Z" fill="#fff"/>
      <path id="_패스_454" data-name="패스 454" d="M18.56,64.32c1.7-1.29,3.21-3.13,5.12-3.78,9.9-3.36,19.87-6.56,29.92-9.45,2.01-.38,4.08,.18,5.64,1.5,6.71,6.94,13.08,14.21,19.58,21.35,3.06,3.35-.3,4.17-2.47,5.96-5.58-5.95-11.65-11.47-16.52-17.91-4.27-5.64-8.42-6.77-14.86-4.15-6.68,2.72-13.8,4.38-20.73,6.47-1.63,.49-3.29,.89-4.93,1.33l-.75-1.32Z" fill="#fff"/>
      <path id="_패스_455" data-name="패스 455" d="M60.7,16.9c-13.58-.91-24.59,8.23-37.73,9.56,1.61-6.11,5.65-9.57,10.97-11.83,9.45-4.03,20.11-3.32,26.76,2.28Z" fill="#fff"/>
      <path id="_패스_456" data-name="패스 456" d="M16.67,132.72c.51,.38,.96,.83,1.35,1.33v-.04s2.54,2.77,2.54,2.77l13.14,9.2c-14.69-20.3-18.44-32.74-11.61-41.04l8.33,9.88c-1.92-7.6-4.02-15.88-5.99-23.68-7.65,15.92-15.68,32.65-24.21,50.4l13.13-12.49c1,1.32,2.11,2.54,3.32,3.67Z" fill="#fff"/>
      <path id="_패스_457" data-name="패스 457" d="M127.33,172.17c-.17-2.84-.6-5.66-1.29-8.42-1.38-6.11-3.1-12.23-6.23-17.65-1.71-2.97-3.93-5.79-6.98-7.36-3.03-1.42-6.42-1.88-9.71-1.32-4.52,.6-9.12,2.39-13.48,1.08-3.58-1.08-6.34-4.13-9.96-5.08-.85-.33-1.81-.21-2.55,.32-.37,.41-.6,.92-.66,1.47-.76,4.34,2.52,8.47,6.36,10.65s8.28,3.05,12.29,4.87c-6.86,6.67-16.99,8.27-26.08,11.25-3.18,1.04-6.53,2.48-8.19,5.38-.23,.35-.36,.75-.39,1.16,.03,.49,.21,.96,.51,1.35,1.12,1.65,2.77,2.87,4.69,3.43,1.76,.41,3.57,.53,5.37,.36l16.39-.64c-1.84,1.37-4.63,1.38-6,3.22-.82,1.29-.96,2.9-.38,4.31,1.57,3.91,5.98,5.85,9.93,4.35l-4.45,4.21c3.03,3.78,8.23,5.05,12.67,3.08l-.45,4.19c-.03,.28,3.28,.59,3.6,.6,1.17,.04,2.31-.17,3.47-.23,.95-.19,1.85-.6,2.62-1.19,3.73-2.24,6.74-5.49,8.71-9.36l-.81,5.41c4.9-3.62,9.29-8.43,10.59-14.37,.35-1.67,.49-3.37,.42-5.07Z" fill="#fff"/>
      <path id="_패스_458" data-name="패스 458" d="M91.71,151.05c-4.12-3.28-7.68-3.66-9.76-1.28-1.06-1.41-1.84-3.55-3.29-4.2-6.27-2.8-12.76-5.09-19.11-7.7-6.47-2.66-12.08-1.39-17.03,3.34-4.1,3.93-8.17,7.89-12.21,11.88-.65,.66-1.18,1.43-1.58,2.27-.99,2.03-1.55,4.36-2.88,6.12-2.99,3.96-6.3,7.67-9.54,11.43l-.05,.05,15.7-8.53c1.33-.83,2.76-1.56,3.99-2.52,2.09-1.63,4.98-3.17,5.77-5.37,2.46-6.89,9.7-11.15,16.45-8.67,3.86,1.42,7.59,3.2,11.33,4.79-2.68,2.39-2.56,3.34,.74,4.9,5.26,2.48,18.17-1.19,21.45-6.12,.06-.1,.02-.27,.02-.4Z" fill="#fff"/>
      <path id="_패스_459" data-name="패스 459" d="M224.67,109.85c-1.82-4.47-4.98-8.31-8.3-11.84-8.82-9.36-19.16-17.14-28.71-25.76s-18.52-18.26-30.08-23.89c-11.71-5.71-25.06-6.82-38.05-7.84-1.47-.12-3.25-.09-4.04,1.16-.34,.65-.48,1.39-.43,2.12-.06,4.85,.29,9.69,1.07,14.47,.08,.94,.39,1.84,.89,2.63,.81,.88,1.87,1.51,3.03,1.79l21.76,7.65c2.41,.34,4.22,2.36,4.32,4.79l3.42,17.61c2.49-3.25,5.14-6.64,8.9-8.27s8.94-.77,10.74,2.91c.63,1.55,.93,3.22,.88,4.89,.2,5.19,.39,10.37,.56,15.56l10.38-17.3,25.58,27.71c.94,.85,1.63,1.95,2,3.17,.13,1.04,0,2.1-.37,3.09-3.29,10.85-10.77,19.95-19.02,27.73-8.25,7.79-17.42,14.57-25.35,22.67-.5,.52,4.12-.59,4.44-.7,2.26-.75,4.57-1.33,6.9-1.86,4.67-1.05,9.4-1.78,14.07-2.82,8.08-1.8,16.33-4.74,21.9-10.86,3.95-4.34,6.21-9.91,8.49-15.32,4.32-10.24,9.04-21.55,5.52-32.09-.16-.46-.33-.92-.52-1.38Z" fill="#fff"/>
    </g>
  </g>
</svg>