<?xml version="1.0" encoding="UTF-8"?>
<svg id="Layer_2" data-name="Layer 2" xmlns="http://www.w3.org/2000/svg" viewBox="0 0 98 102">
  <g id="Logo">
    <g id="symbol_05_03_0004_01" data-name="symbol 05 03 0004 01">
      <path id="_패스_1363" data-name="패스 1363" d="m13.4,99.58h72.7c5.26,0,9.52-4.26,9.52-9.52h0v-30.16h-8.98c-.83,0-1.67,0-2.5,0h-13.76c-1.27.02-2.54.01-3.81-.01-.79-.13-1.55-.42-2.23-.84-1.51-.96-2.48-3.64-2.19-6.78v-25.29c-.78-.46-1.59-.87-2.41-1.23-9.64-4.26-18.86-.71-20.02-.26-.8.31-1.59.68-2.35,1.09l-.04.29v25.41c.05.57.38,5.08-2.17,6.82-.64.47-1.4.76-2.19.82-1.58.02-3.16.02-4.73,0h-11.98c-1.5.03-3,.03-4.5,0H3.88v30.17c0,5.26,4.26,9.52,9.52,9.52h0m54.93-18.59c-.57,5.24-3.32,10-7.57,13.11l-8.12-7.78c3.36-1.4,5.32-4.93,4.72-8.52l10.98,3.19m-18.57,2.47c-2.36-.01-4.27-1.94-4.25-4.3.01-2.36,1.94-4.27,4.3-4.25,2.34.01,4.24,1.91,4.25,4.25.02,2.35-1.86,4.28-4.21,4.3-.03,0-.06,0-.09,0m-7.14-21.38c2.69-1.11,5.6-1.58,8.5-1.37,2.01.15,3.98.61,5.84,1.38.28.11.38.24.3.55-.85,3.43-1.69,6.86-2.53,10.3-.02.1-.07.19-.11.31-2.83-2.27-6.86-2.27-9.69,0-.18-.72-.36-1.41-.53-2.11-.69-2.81-1.37-5.63-2.07-8.43-.08-.34-.03-.49.3-.62m-11.1,18.82c3.5-1,6.99-2.01,10.48-3.02.06-.02.11-.03.2-.05-.59,3.58,1.36,7.09,4.7,8.49l-8.1,7.76c-1.09-.77-2.09-1.67-2.97-2.68-2.51-2.82-4.11-6.33-4.58-10.07-.03-.24,0-.37.27-.44" fill="#fff"/>
      <path id="_패스_1364" data-name="패스 1364" d="m34.48,49.27c.54.48,1.01.86,1.33,1.12v-23.54h.01c.35-3.98,2.49-7.58,5.82-9.79,4.91-3.32,10.06-3.45,15.21-.58,3.85,2.15,7.03,7.19,6.74,10.49l.02,23.47c.31-.25.74-.6,1.26-1.04,2.11-1.82,5.35-4.51,7.51-8.48,1.39-2.59,2.32-5.39,2.74-8.3,2.06-14.03-7.65-27.06-21.67-29.12-14.03-2.06-27.06,7.65-29.12,21.67-.63,4.32-.16,8.72,1.39,12.8,2.19,5.63,6.6,9.38,8.77,11.3" fill="#fff"/>
      <rect id="_사각형_427" data-name="사각형 427" width="98" height="102" fill="none"/>
    </g>
  </g>
</svg>