<?xml version="1.0" encoding="UTF-8"?>
<svg id="_레이어_2" data-name="레이어 2" xmlns="http://www.w3.org/2000/svg" viewBox="0 0 189 224">
  <g id="Logo">
    <g id="symbol_17_05_0003_02" data-name="symbol 17 05 0003 02">
      <path id="_패스_1192" data-name="패스 1192" d="m180.55,137.98c-11.15,1.32-22.02-.33-32.54-3.79-33.85-11.14-58.87-33.14-76.65-63.63-8.97-15.38-14.14-32-14.11-49.97,0-3.38.52-6.77.81-10.32-.31.13-.6.29-.88.47-10.42,9-15.23,20.62-15.78,34.15-.34,11.24,1.75,22.41,6.12,32.77,10.71,26.51,28.87,46.73,53.07,61.56,15.12,9.26,31.47,14.96,49.47,14.41,12.39-.38,23.46-4.35,32.22-13.55.52-.55,1.53-.92,1.12-2.12-.95-.05-1.9-.05-2.85.01" fill="#fff"/>
      <path id="_패스_1194" data-name="패스 1194" d="m112.41,152.18c-4.06-1.83-8.23-3.87-12.51-6.11-1.63-.86-3.22-1.73-4.78-2.6-1.42,4.2-3.32,8.22-5.66,11.99-2.37,3.61-5.05,7-8.02,10.13-12.65,14.39-27.45,25.83-45.59,32.52-7.09,2.67-14.6,4.09-22.18,4.17-.64,0-1.29.09-2.26.16,8.19,10.92,19.18,13.14,31.32,11.33,15.55-2.32,28.57-10.06,40.41-19.99,2.93-2.46,5.73-5.05,8.38-7.76,6.58-6.73,12.52-12.71,16.83-21.86,1.8-3.83,3.16-7.84,4.06-11.97" fill="#fff"/>
      <rect id="_사각형_554" data-name="사각형 554" width="189" height="224" fill="none"/>
    </g>
  </g>
</svg>