<?xml version="1.0" encoding="UTF-8"?>
<svg id="_레이어_2" data-name="레이어 2" xmlns="http://www.w3.org/2000/svg" viewBox="0 0 227 265">
  <g id="Logo">
    <g id="symbol_01_02_0002_01" data-name="symbol 01 02 0002 01">
      <rect id="_사각형_141" data-name="사각형 141" width="227" height="265" fill="none"/>
      <path id="_패스_799" data-name="패스 799" d="M173.39,129.39c27.52-.13,50.3,21.35,51.78,48.83,.7,12.35-10.44,22.79-22.58,20.55-20.71-3.82-41.38-7.9-62-12.24-12.88-2.7-19.14-15.97-13.67-27.97,8.01-17.58,26.4-29.12,46.48-29.17Z" fill="#fff"/>
      <path id="_패스_800" data-name="패스 800" d="M56.22,147.2c11.34,.41,23,6.07,31.7,17.47,5.54,7.26,3.26,15.9-5.2,19.13-18.94,7.23-37.92,14.32-56.96,21.29-8.31,3.04-15.37-1.68-16.48-10.57-3.09-24.67,18.17-47.54,46.94-47.31Z" fill="#fff"/>
      <path id="_패스_801" data-name="패스 801" d="M218.92,253.73c-6.06,.04-12.11,0-18.17,0h-17.89c5.07-6.04,7.52-12.05,7.07-18.85-.73-10.88-1.79-21.74-2.76-33.2l-35.18-6.98c-4.83,9.5-9.04,18.19-13.62,26.67-3.51,6.5-4.96,13.23-2.74,20.27,1.27,4.01,3.57,7.7,5.38,11.49-7.96,1.78-9.82,.84-12.6-6.65-3.55-9.07-2.8-19.27,2.04-27.73,2.51-4.62,5.26-9.12,7.78-13.74,2.65-4.86,.14-12.45-4.8-14.83-10.42-5.02-16.12-13.35-16.66-24.86-.45-9.7,4.52-17.38,10.23-24.65,1.06-1.35,2.46-2.76,2.76-4.32,1.6-8.56,2.9-17.18,4.35-26.01h-41.61c5.49,16.66,6.56,33.25,4.39,50.09-2.71,21.01-8.59,41.25-15.83,61.05-4.09,11.18-5.54,21.6,2.77,31.55-9.18,1.82-10.68,.99-13.13-7.18-2.24-7.57-1.83-15.68,1.17-22.99,.99-2.58,2.47-5.8,1.72-8.05-2.09-6.29-5.24-12.23-8.11-18.64l-21.84,8.2c5.01,10.85,7.7,21.53,7.46,32.97-.11,5.31,1.01,10.64,1.61,16.39-9.18,0-18.87-.01-28.56,0-5.9,.01-11.81-.18-17.68,.26-1.46,.11-2.76,2.36-4.14,3.62,1.37,1.29,2.58,2.84,4.16,3.76,.96,.56,2.49,.14,3.77,.14h121.95c28.85,0,57.71,0,86.56,.01,2.97,0,6.3-.02,6.2-4.07-.09-3.68-3.18-3.73-6.04-3.71Zm-104.53-.16h-18.17v-19.86c0-2.94,2.38-5.32,5.32-5.33h7.55c2.94,0,5.32,2.39,5.32,5.33h0v19.86Zm2.96-45.53c0,.34-.27,.61-.61,.61h-3.75c-.34,0-.61-.27-.61-.61v-5.12c0-.34,.27-.61,.61-.61h3.75c.34,0,.61,.27,.61,.61h0v5.12Zm0-7.58c0,.34-.27,.61-.61,.61h-3.75c-.34,0-.61-.27-.61-.61v-5.12c0-.34,.27-.61,.61-.61h3.75c.34,0,.61,.27,.61,.61h0v5.12Zm6.37,7.58c0,.34-.27,.61-.61,.61h-3.75c-.34,0-.61-.27-.61-.61v-5.12c0-.34,.27-.61,.61-.61h3.75c.34,0,.61,.27,.61,.61h0s0,5.12,0,5.12Zm0-7.58c0,.34-.27,.61-.61,.61h-3.75c-.34,0-.61-.27-.61-.61v-5.12c0-.34,.27-.61,.61-.61h3.75c.34,0,.61,.27,.61,.61v5.12Z" fill="#fff"/>
      <path id="_패스_802" data-name="패스 802" d="M183.47,87.8c-.84-3.55-2.14-6.97-3.85-10.18-3.08-5.85-6.8-11.35-11.07-16.4-22.83-25.54-49.69-27.26-49.69-27.26-.84-.05-1.67-.09-2.5-.11v-10.86l14.49-8.39c.47-.27,.63-.87,.36-1.34-.09-.15-.21-.27-.36-.36L113.03,2.57c-.47-.27-1.06-.11-1.33,.35-.09,.15-.13,.32-.13,.49v30.51c-21.17,1.18-36.26,13.14-42.82,18.35-10.28,8.15-15.48,16.54-20.52,24.66-1.96,3.62-3.43,7.49-4.36,11.5-2.53,9.77,2.58,16.4,12.63,16.4,19.11,0,38.21,0,57.32,0,18.95,0,37.9-.01,56.84-.02,10.71-.03,15.62-6.59,12.81-17.02Z" fill="#fff"/>
    </g>
  </g>
</svg>