<?xml version="1.0" encoding="UTF-8"?>
<svg id="_레이어_2" data-name="레이어 2" xmlns="http://www.w3.org/2000/svg" viewBox="0 0 108 108">
  <g id="Logo">
    <g id="symbol_14_02_0007_01" data-name="symbol 14 02 0007 01">
      <path id="_패스_1113" data-name="패스 1113" d="m51.29,3.85h6.05c.57.08,1.15.2,1.72.22,2.35.09,3.57,1.3,3.43,3.63,0,.26,0,.52.03.78.33,5.76,5.11,10.24,10.88,10.21,3.09.01,6.06-1.23,8.22-3.45.98-1.18,2.73-1.34,3.91-.36.01.01.03.02.04.03,2.89,2.32,5.51,4.97,7.81,7.88.77.9.85,2.2.21,3.19-.37.54-.79,1.03-1.26,1.48-4.03,4.52-3.64,11.45.87,15.48.97.87,2.08,1.55,3.29,2.03,1.32.43,2.69.71,4.08.83,2.19.26,3.23,1.22,3.41,3.38.05.58.15,1.15.22,1.73v6.05c-.12.93-.23,1.86-.38,2.79-.21,1.3-1.3,2.27-2.62,2.33-.68.03-1.36.05-2.04.12-6.05.62-10.45,6.03-9.83,12.08.06.63.18,1.25.35,1.85.6,1.96,1.69,3.75,3.16,5.18,1.12.97,1.27,2.65.34,3.8-2.37,2.99-5.09,5.68-8.1,8.01-1.07.83-2.59.77-3.59-.15-.37-.32-.72-.66-1.08-.99-3.38-2.87-8.13-3.51-12.15-1.62-3.65,1.73-6.01,5.38-6.1,9.42-.17,2.92-.92,3.77-3.85,3.84s-5.85.02-8.77-.01c-2.59-.04-3.75-1.25-3.62-3.74,0-.23,0-.46-.02-.68-.29-5.06-4.06-9.24-9.07-10.05-3.63-.62-7.33.57-9.91,3.2-1.51,1.45-2.96,1.54-4.46.09-2.48-2.39-4.89-4.85-7.24-7.36-1.08-1.05-1.11-2.78-.06-3.86.05-.06.11-.11.17-.16.2-.22.4-.43.59-.65,2.89-2.98,3.78-7.37,2.29-11.24-1.24-3.78-4.51-6.53-8.45-7.12-.92-.18-1.89-.15-2.8-.36-1.22-.12-2.2-1.04-2.4-2.25-.5-3.81-.49-7.67.04-11.48.12-1.37,1.3-2.4,2.67-2.35,1.04-.07,2.07-.2,3.09-.38,5.09-.98,8.76-5.44,8.75-10.62.03-3.07-1.23-6-3.45-8.11-1.2-.96-1.4-2.72-.44-3.92.03-.03.05-.07.08-.1,2.34-2.92,5.02-5.56,7.97-7.87,1.08-.88,2.65-.81,3.66.15.34.3.67.62,1.01.92,4.34,3.77,10.83,3.63,15-.32,2.17-2.16,3.39-5.1,3.36-8.16.06-1.95,1.02-2.86,2.95-3.08.67-.08,1.34-.17,2.01-.25m18.34,74.28c-.09-.13-.18-.26-.29-.38-3.98-3.98-7.96-7.96-11.92-11.96-.46-.47-.83-.28-1.29-.12-3.72,1.4-7.81,1.47-11.57.19-8.65-2.83-13.71-11.78-11.68-20.65.2-.93.44-1.79,1.45-2.12,1.07-.35,1.77.28,2.46.97,2.42,2.42,4.86,4.8,7.26,7.24.54.62,1.37.91,2.18.76,1.63-.27,3.27-.53,4.91-.75.61,0,1.11-.49,1.13-1.1.23-1.67.49-3.34.77-5.01.15-.81-.15-1.64-.78-2.16-2.53-2.48-5.03-5.01-7.51-7.54-1.28-1.31-.87-3.12.84-3.47,1.55-.37,3.13-.56,4.73-.58,9.72.11,17.52,8.07,17.41,17.8-.02,2.03-.39,4.04-1.1,5.94-.25.49-.11,1.09.33,1.43,3.79,3.76,7.57,7.52,11.33,11.31.2.2.42.38.64.58,6.5-10.21,5.81-26.48-6.05-36.62-12.11-10.32-30.28-8.86-40.6,3.24s-8.86,30.28,3.24,40.6c9.62,8.2,23.46,9.16,34.12,2.39" fill="#fff"/>
      <rect id="_사각형_510" data-name="사각형 510" width="108" height="108" fill="none"/>
    </g>
  </g>
</svg>