<?xml version="1.0" encoding="UTF-8"?>
<svg id="Layer_2" data-name="Layer 2" xmlns="http://www.w3.org/2000/svg" viewBox="0 0 272 272">
  <g id="Logo">
    <g id="symbol_19_01_0003_01" data-name="symbol 19 01 0003 01">
      <path id="_합치기_43" data-name="합치기 43" d="m13.29,143.43l74.11-.51c10.4-8.56,22.35-11.84,36.08-10.13-.55.64-.95,1.14-1.39,1.61-4.93,5.19-9.85,10.38-14.78,15.56-5.24,5.54-5.38,13.16-.36,18.31s12.9,5.16,18.51-.02c5.99-5.52,11.95-11.07,18.06-16.74.6.37,1.19.71,1.75,1.1,16.4,11.39,32.82,22.76,49.16,34.26,1.45,1.07,2.54,2.55,3.14,4.25.68,2.08-.37,4.06-2.25,5.3-1.87,1.31-4.38,1.26-6.19-.13-3.26-2.27-6.43-4.65-9.64-6.98-.46-.33-.9-.69-1.38-.99-1.64-1.17-3.91-.79-5.08.85,0,0,0,0,0,0-1.15,1.53-.84,3.7.69,4.85.03.02.06.04.08.06,3.79,2.85,7.67,5.59,11.5,8.39,1.04.71,2.03,1.5,2.96,2.36,2.09,1.92,2.29,5.14.45,7.3-1.71,2.15-4.79,2.63-7.08,1.11-2.26-1.46-4.39-3.12-6.56-4.7-2.86-2.08-5.7-4.2-8.58-6.27-2.07-1.48-4.18-1.32-5.48.36-1.36,1.76-.94,3.89,1.2,5.48,3.92,2.91,7.93,5.72,11.83,8.66,2.29,1.54,3.01,4.59,1.64,6.98-1.2,2.29-3.88,3.38-6.34,2.59-.92-.35-1.79-.84-2.57-1.45-2.21-1.54-4.35-3.17-6.57-4.7-1.98-1.36-4.03-1.09-5.28.57-1.28,1.7-.85,3.85,1.12,5.34,1.81,1.37,3.69,2.64,5.49,4.01,1.9,1.44,2.34,3.52,1.19,5.18-1.22,1.75-3.44,2.08-5.43.66-3.57-2.55-7.09-5.17-10.73-7.83,3.55-7.54-.24-15.76-9.73-16.69-2.49-8.38-5.33-10.85-13.69-11.71-.41-4.35-2.18-8.08-6.09-10.47-3.72-2.35-8.4-2.58-12.33-.6-2.84-5.17-7.07-8.06-13.12-7.5-5.99.56-9.23,4.71-11.73,9.85l-3.9,6.18c-3.09,4.92-3.63,9.9-.39,14.8,3.2,4.84,7.97,6.27,13.47,5.47,4.12,8.13,6.93,9.82,15.62,9.41,2.48,6.88,7.34,10.22,14.94,9.48,1.19,4.52,4.4,7.01,8.72,8.32h3.83c5.43-1.37,7.96-5.73,10.38-10.43,3.39,2.46,6.58,4.79,9.78,7.11,7.83,5.68,16.4,2.34,18.34-7.34,7.59-.69,12.04-4.84,12.97-12.53,10.26-.08,15.59-9.06,12.72-17.49,3.43-1.2,6.19-3.78,7.62-7.12,1.49-3.52,1.24-7.03-.42-11.02-1.76-2.37-3.95-4.37-6.46-5.92-15.66-10.96-32.49-22.72-48.2-33.63-4.43-3.08-7.37-2.83-11.36.87-5.77,5.35-11.49,10.74-17.32,16.02-3.56,3.23-8.85,1.62-9.44-2.96-.16-1.73.36-3.45,1.45-4.8,7.14-7.77,14.4-15.43,21.79-22.97,3.96-4.06,9.68-4.87,14.92-2.3,7.18,3.52,14.32,7.12,21.43,10.78,2.88,1.53,6.1,2.3,9.35,2.26,11.73-.11,62.92-.05,78.99-.04-3.83,64.98-57.64,115.71-122.72,115.71-64.99,0-118.75-50.59-122.7-115.46Zm115.48,93.79c-2.54-1.47-3.41-4.72-1.94-7.26l5.72-9.9c1.46-2.54,4.71-3.42,7.25-1.95,0,0,0,0,0,0,2.54,1.47,3.42,4.72,1.95,7.26,0,0,0,0,0,0l-5.72,9.9c-.95,1.65-2.71,2.66-4.61,2.66-.93,0-1.85-.24-2.65-.71h0Zm-14.24-8.57c-2.54-1.47-3.42-4.72-1.95-7.26l6.8-11.78c1.47-2.54,4.72-3.41,7.26-1.95,0,0,0,0,0,0,2.54,1.47,3.41,4.72,1.94,7.26l-6.8,11.78c-.95,1.65-2.71,2.66-4.61,2.66-.93,0-1.85-.25-2.65-.71Zm-16.8-7.86c-3.08-1.78-4.14-5.71-2.36-8.79,0,0,0,0,0,0l8.56-14.83c1.78-3.08,5.72-4.13,8.79-2.36,0,0,0,0,0,0,3.08,1.78,4.13,5.71,2.36,8.79l-8.56,14.83c-1.15,1.99-3.28,3.22-5.58,3.22-1.13,0-2.24-.29-3.22-.86h0Zm-14.86-9.63c-2.54-1.46-3.42-4.71-1.95-7.26h0s8.1-14.03,8.1-14.03c1.47-2.54,4.72-3.42,7.27-1.95,2.54,1.47,3.41,4.72,1.94,7.26l-8.1,14.03c-.95,1.65-2.71,2.66-4.61,2.66-.93,0-1.85-.25-2.66-.71h0ZM13.07,136.68c0-.24,0-.49,0-.74-.04-30.89,11.59-60.66,32.57-83.34,4.8,0,9.63.01,14.53.01-.24.55-.5,1.08-.79,1.6-6.87,10.81-13.76,21.61-20.59,32.44-.51.91-.77,1.95-.77,2.99-.08,4.46-.08,8.92-.02,13.37.13,8.64,6.14,14.68,14.77,14.74,9.5.08,19.01.08,28.51,0,8.62-.07,14.67-6.2,14.74-14.78.03-4.39.09-8.79-.05-13.17-.07-1.31-.47-2.58-1.15-3.7-6.8-10.85-13.68-21.65-20.54-32.47-.14-.22-.24-.47-.47-.9h40.7c.91,4.57,3.18,8.76,6.52,12.01.32.45.48,1,.44,1.55.02,19.32.02,38.64,0,57.96-.03.32-.07.64-.14.95-.68,0-1.31.05-1.92,0-13.53-1.22-25.23,3.34-35.72,11.46H13.07Zm165.74-.79c-1.47-.03-2.92-.38-4.24-1.02-7.64-3.72-15.23-7.52-22.78-11.41-.7-.46-1.15-1.21-1.23-2.04-.07-18.32-.08-36.65-.03-54.98-.02-.68.21-1.35.63-1.88,3.23-3.24,5.43-7.37,6.31-11.85h40.68c-.34.64-.59,1.19-.92,1.7-6.83,10.74-13.66,21.49-20.48,32.24-.49.85-.75,1.81-.75,2.79-.08,4.67-.08,9.34-.02,14.01-.04,7.84,6.28,14.24,14.12,14.28h.01c9.93.14,19.85.14,29.78,0,7.69,0,13.96-6.19,14.06-13.88.16-4.88.1-9.77.01-14.64-.08-1.04-.42-2.04-1-2.91-6.86-10.89-13.76-21.77-20.68-32.62-.14-.22-.24-.47-.54-1.06h2.48c4.05,0,8.1-.01,12.14-.01,20.98,22.68,32.62,52.45,32.57,83.34h-33.02c-19.21,0-39.97-.01-47.12-.05h0Zm-49.96-66.35c4.63,1.47,9.61,1.47,14.24,0v51.53c-2.52.48-5,1.1-7.44,1.88-2.34,1.04-4.61,2.22-6.8,3.54v-56.95Zm-76.68,40.95c-3.5.04-6.45-2.6-6.79-6.08-.22-3.86-.05-7.74-.05-11.86h43.13c0,4.29.35,8.59-.12,12.8-.34,3.09-3.28,5.11-6.43,5.13-5.25.04-10.49.06-15.74.06-4.67,0-9.34-.02-14-.05h0Zm137.76-.02c-3.5-.06-6.38-2.79-6.63-6.28-.2-3.79-.05-7.61-.05-11.57h43.39c0,4.06.19,8.01-.05,11.94-.36,3.33-3.15,5.86-6.49,5.9-5.14.05-10.29.07-15.43.07-4.91,0-9.83-.02-14.74-.07h0Zm-141.51-25.42c6.22-9.82,12.28-19.38,18.58-29.32l18.6,29.32h-37.17Zm138.02-.05c6.2-9.78,12.27-19.35,18.55-29.26,6.24,9.84,12.31,19.4,18.57,29.26h-37.12Zm-64.94-35.88c-.09-8.01,6.34-14.58,14.35-14.67h.09c7.96-.03,14.46,6.37,14.55,14.34.13,7.94-6.21,14.49-14.15,14.62-.1,0-.19,0-.29,0h-.08c-7.94.05-14.42-6.35-14.47-14.29h0Zm8.99-.19c0,3.02,2.45,5.47,5.48,5.47h0c3.02,0,5.48-2.45,5.48-5.47,0-3.03-2.45-5.48-5.48-5.48-3.03,0-5.48,2.45-5.48,5.47h0s0,0,0,0Zm26.38-5.79c-2.53-9.44-11.11-15.98-20.88-15.93-9.77-.04-18.34,6.49-20.88,15.92-.49,1.79-1.19,2.27-2.98,2.27-19.75-.04-39.5-.06-59.24-.05,22.65-20.84,52.32-32.39,83.1-32.35,30.78-.04,60.45,11.5,83.1,32.35-19.75.01-39.49.03-59.24.05h-.02c-1.78,0-2.49-.48-2.97-2.26h0Z" fill="#fff"/>
      <rect id="_사각형_726" data-name="사각형 726" width="272" height="272" fill="none"/>
    </g>
  </g>
</svg>