<?xml version="1.0" encoding="UTF-8"?>
<svg id="Layer_2" data-name="Layer 2" xmlns="http://www.w3.org/2000/svg" viewBox="0 0 240 150">
  <g id="Logo">
    <g id="symbol_19_02_0001_01" data-name="symbol 19 02 0001 01">
      <path id="_패스_411" data-name="패스 411" d="m18.34,53.46l9.36-17.39c-10.32,7.48-16.29,16.3-16.29,25.76,0,11.01,8.08,21.17,21.72,29.33v-7.05l-14.8-28.44c-.36-.69-.36-1.52.01-2.21" fill="#fff"/>
      <path id="_패스_412" data-name="패스 412" d="m82.39,86.33v21.35c4.07.67,8.24,1.24,12.53,1.69v-25.26l-4.9-9.41-7.63,11.64Z" fill="#fff"/>
      <path id="_패스_413" data-name="패스 413" d="m77.68,106.84v-21.21c0-.46.13-.91.39-1.29l9.46-14.44,2.96-4.52,2.31-3.52-5.56-11.65-1.35-2.84h-23.93v12.58h14.15c1.3,0,2.36,1.06,2.36,2.36s-1.06,2.36-2.36,2.36h-16.51c-1.3,0-2.36-1.06-2.36-2.36v-17.3c0-1.3,1.06-2.35,2.36-2.35h18.87v-11.53h-42.75l-12.63,23.48,14.49,27.85c.18.34.27.71.27,1.09v10.26c10.8,5.62,24.41,10.11,39.83,13.05" fill="#fff"/>
      <path id="_패스_414" data-name="패스 414" d="m83.18,28.77v13.89h2.77l8.08-15.01c.41-.76,1.21-1.24,2.08-1.24h46.51c1.3,0,2.36,1.06,2.36,2.36h0v13.89h2.77l8.07-15.01c.41-.76,1.21-1.24,2.08-1.24h36.43c-19.42-8.31-45.67-13.41-74.57-13.41s-55.14,5.1-74.57,13.41h35.64c1.3,0,2.36,1.06,2.36,2.36" fill="#fff"/>
      <path id="_패스_415" data-name="패스 415" d="m156.71,84.11l-4.9-9.41-7.63,11.63v23.08c4.28-.44,8.45-1,12.53-1.67v-23.63Z" fill="#fff"/>
      <path id="_패스_416" data-name="패스 416" d="m119.75,110.66c6.74,0,13.32-.28,19.72-.81v-24.22c0-.46.13-.91.39-1.29l9.46-14.44,2.96-4.52,2.31-3.52-5.56-11.65-1.35-2.84h-23.93v12.58h14.15c1.3,0,2.36,1.06,2.36,2.36s-1.06,2.36-2.36,2.36h-16.51c-1.3,0-2.36-1.06-2.36-2.36v-17.3c0-1.3,1.06-2.36,2.36-2.36h18.87v-11.53h-42.75l-7.5,13.94,7.62,15.97c.36.74.3,1.62-.16,2.31l-4.48,6.84,6.38,12.27c.17.34.27.71.27,1.09v26.28c6.52.55,13.24.84,20.11.84" fill="#fff"/>
      <path id="_패스_417" data-name="패스 417" d="m183.18,42.65h18.87v-11.53h-42.75l-7.5,13.94,7.62,15.97c.35.74.29,1.62-.16,2.31l-4.48,6.84,6.38,12.27c.17.34.27.71.27,1.09v23.38c15.4-2.9,29-7.35,39.83-12.92v-8.36c0-.46.13-.91.38-1.29l14.73-22.47-6.91-14.49h-23.93v12.58h14.15c1.3,0,2.36,1.06,2.36,2.36s-1.06,2.36-2.36,2.36h-16.51c-1.3,0-2.36-1.06-2.36-2.36h0v-17.3c0-1.3,1.06-2.36,2.36-2.36" fill="#fff"/>
      <path id="_패스_418" data-name="패스 418" d="m213.08,44l8.12,17.03c.36.74.3,1.62-.16,2.31l-15.07,23v5.06c13.87-8.21,22.12-18.45,22.12-29.56s-7.93-20.97-21.33-29.1v9.92h4.19c.91,0,1.74.52,2.13,1.34" fill="#fff"/>
      <path id="_패스_420" data-name="패스 420" d="m228.09,81.25c-4.61,27.37-54.26,36.84-77.47,39.36,0,0-1.74,3.65-11.14,7.69-4.68,1.97-9.59,3.33-14.62,4.06-37.48,5.75-66.11-4.01-74.91-7.57,1.31.56,2.64,1.09,3.98,1.61l.06.02c1.32.51,2.66,1.01,4.01,1.49l.11.04c1.33.47,2.68.92,4.03,1.36l.18.06c1.34.43,2.69.84,4.05,1.24l.24.07c1.34.39,2.69.76,4.05,1.12.11.03.21.06.32.08,1.34.35,2.69.68,4.04,1l.4.09c1.33.31,2.67.61,4.02.89l.48.1c1.33.27,2.66.53,4,.78l.56.1c1.32.24,2.64.46,3.96.67.22.03.44.07.65.1,1.3.2,2.6.39,3.91.56l.75.1c1.28.17,2.56.32,3.85.46l.85.09c1.26.13,2.52.25,3.78.36.32.03.64.05.95.08,1.23.1,2.47.19,3.71.27.35.02.7.04,1.05.06,1.21.07,2.42.13,3.63.18.38.02.77.03,1.16.04,1.18.04,2.36.07,3.54.09.42,0,.85.01,1.27.01,1.15.01,2.29.02,3.44.01.46,0,.91-.01,1.37-.02,1.11-.01,2.23-.03,3.34-.07.49-.01.98-.03,1.47-.05,1.08-.04,2.16-.08,3.24-.14.52-.03,1.04-.06,1.57-.09,1.04-.06,2.09-.13,3.13-.21.55-.04,1.1-.09,1.66-.14,1.01-.08,2.02-.17,3.02-.27.58-.06,1.16-.12,1.74-.18.98-.1,1.95-.21,2.92-.33.61-.07,1.21-.16,1.82-.24.94-.12,1.88-.25,2.81-.38.64-.09,1.27-.2,1.91-.3.9-.14,1.8-.28,2.69-.43.66-.11,1.32-.24,1.97-.36.86-.16,1.73-.31,2.58-.48.68-.14,1.36-.28,2.04-.43.82-.17,1.65-.34,2.47-.53.7-.16,1.4-.33,2.1-.5.79-.19,1.57-.37,2.35-.57.72-.18,1.44-.38,2.16-.57.74-.2,1.49-.39,2.23-.6s1.49-.44,2.23-.66c.7-.21,1.4-.41,2.1-.62.77-.24,1.54-.5,2.31-.75.65-.21,1.3-.42,1.95-.64.82-.28,1.62-.58,2.43-.87.58-.21,1.17-.41,1.75-.63.9-.34,1.79-.7,2.67-1.05.47-.19.95-.37,1.41-.56,1.35-.56,2.68-1.13,3.99-1.72,15.86-7.19,38.34-22.38,35.72-42.3" fill="#fff"/>
      <rect id="_사각형_146" data-name="사각형 146" width="240" height="150" fill="none"/>
    </g>
  </g>
</svg>