<?xml version="1.0" encoding="UTF-8"?>
<svg id="Layer_2" data-name="Layer 2" xmlns="http://www.w3.org/2000/svg" viewBox="0 0 278 278">
  <g id="Logo">
    <g id="symbol_19_06_0003_01" data-name="symbol 19 06 0003 01">
      <path id="_패스_1540" data-name="패스 1540" d="m138.15,9h3.04c.28.29.59.55.91.79,21.98,13.64,43.96,27.28,65.94,40.91,16.61,10.31,33.22,20.62,49.82,30.93,1.82,1.12,3.27,2.41,3.28,4.72.01,5.23.06,10.46-.02,15.69-.04,2.53-1.62,4-4.17,4.13-1.23.06-2.47.01-3.89.01v3.03c0,13.33,0,26.65,0,39.98,0,2.01-.23,3.83-2.09,5.12-.46.53-.67,1.23-.58,1.92,1.48,15.95,2.98,31.89,4.52,47.83.71,7.47,1.45,14.93,2.13,22.4.29,3.24-.8,4.62-4.02,5.32-1.29.28-2.59.51-3.83.75v11.34c5.13,0,10.09-.02,15.05,0,3.61.02,5.01,1.43,5.02,5.09.02,4.47,0,8.94,0,13.41,0,4.62-1.19,5.79-5.86,5.79-82.48,0-164.96.01-247.44.04-2.47,0-4.44-.52-5.87-2.57v-19.23c1.29-1.93,3.58-2.93,5.87-2.56,2.01.16,4.04.03,6.07.03h8.13v-11.43c-1.08-.16-2-.26-2.91-.44-4.44-.89-5.32-2.17-4.86-6.61.57-5.36,1.04-10.74,1.55-16.1,1.68-17.7,3.35-35.4,5.01-53.11.07-.69-.15-1.39-.63-1.9-1.84-1.31-2.05-3.13-2.05-5.14.02-13.41.02-26.81,0-40.22v-2.73h-2.41c-4.49-.03-5.68-1.22-5.68-5.7,0-4.13.15-8.27-.05-12.39-.15-3.17,1.1-5.11,3.77-6.77,31.32-19.35,62.61-38.75,93.86-58.2,7.49-4.66,14.92-9.42,22.38-14.13m-45.25,100.5c-4.42,13.19-12.83,24.69-24.05,32.92-.65.48-.9,2.04-.74,3,3.39,19.68,6.77,39.36,10.41,58.99.7,3.77-.28,6.65-3,8.73-2.47,1.98-5.29,3.47-8.31,4.41-2.61.73-5.59.15-8.02.15-.68,1.7-.89,3.91-2.09,4.88-2.32,1.87-2.65,4.01-2.52,6.63.13,2.35.03,4.72.03,7.09v7.44h170.08c0-6.01.02-11.9-.03-17.78-.02-.57-.26-1.11-.68-1.5-2.34-1.78-3.92-3.91-3.26-7.15-1.2.18-2.03.28-2.86.43-6.5,1.2-13.05-1.8-16.38-7.5-.72-1.3-1.01-2.8-.83-4.28,3.42-20.01,6.95-40.01,10.57-59.99.4-2.21-.14-3.28-1.85-4.55-9.26-6.88-16.5-16.12-20.98-26.75-.69-1.6-1.28-3.23-1.92-4.86-9.07,4.46-9.15,4.4-18.99,4.54-1.82.03-3.62.89-5.43,1.36-2.22.73-4.49,1.29-6.79,1.68-1.31,0-2.51.73-3.1,1.9-5.2,8.6-17.15,9.78-23.4,2-2.12-2.64-4-4.22-7.43-4.16-1.4.02-2.8-1.06-4.24-1.52-1.63-.51-3.31-1.29-4.95-1.25-6.78.15-13.32-.4-19.24-4.86m36.53-43.77c7.18-5.44,12.42-5.44,20.51-.13,4.82-5.29,11.72-8.22,18.87-8.01,3.46.04,6.92-.01,10.37.01,3.6.02,5.07,1.44,4.99,5.1-.11,5-.38,10-.6,15.14,2.1,0,4.55.11,6.98-.03,3.07-.17,5.31.72,5.92,3.89h45.92c-.79-.55-1.17-.85-1.59-1.11-33.14-20.57-66.28-41.16-99.41-61.76-1.57-.98-2.55-.52-3.84.28-32.85,20.42-65.7,40.82-98.56,61.2-.59.37-1.15.8-2.12,1.47h45.97c.65-2.96,2.49-4.08,5.36-3.97,2.66.11,5.33.02,7.51.02-.2-5.37-.47-10.48-.56-15.6-.06-3.14,1.51-4.59,4.68-4.64,2.44-.04,4.9.1,7.34-.03,8.56-.46,16.24,1.44,22.27,8.15m131.6,186.41H18.39v7.79h242.65v-7.79ZM44.44,144.63c18.66-3.71,36.21-20.62,40.67-38.32h-50.61v39.75l9.95-1.43Zm200.33,3.21v-41.5h-50.64c5.32,19.01,22.79,34.52,40.54,38.27l10.1,3.23Zm3.89,76.51c-2.24-23.57-4.45-46.76-6.65-69.86l-9.56-1.74c-.09.35-.16.7-.2,1.06-1.13,20.87-2.25,41.74-3.35,62.62-.07.73.16,1.45.62,2.01,5.31,4.48,12.21,6.62,19.13,5.91M37.31,154.5c-2.21,23.22-4.41,46.4-6.62,69.56,5.47,1.4,15.9-1.73,19.2-5.7.42-.69.6-1.51.5-2.32-.78-15.57-1.59-31.15-2.43-46.72-.29-5.51-.64-11.02-.96-16.59l-9.69,1.76m124.76-69.01c-.58-4.98-4.8-7.83-9.44-6.36-3.97,1.26-5.63.31-6.49-3.71-.74-3.47-3.24-5.66-6.47-5.67s-5.75,2.19-6.49,5.64c-.86,4.04-2.52,5-6.46,3.74-3.38-1.08-6.52,0-8.11,2.81s-.91,6.02,1.75,8.4c2.95,2.64,2.96,4.73.04,7.34-2.66,2.38-3.37,5.63-1.82,8.4,1.6,2.86,4.82,3.93,8.34,2.77,3.56-1.18,5.49-.08,6.22,3.53.74,3.69,3.19,5.92,6.5,5.93s5.79-2.23,6.54-5.89,2.63-4.75,6.18-3.59,6.76.12,8.36-2.72c1.56-2.76.87-6.04-1.77-8.41-2.95-2.64-2.84-4.59-.07-7.39,1.33-1.34,2.14-3.2,3.19-4.83m-103.92,123.38c1.9.44,3.83.78,5.77,1.02,4.52.33,6.87-2.34,6.1-6.65-2.46-13.85-4.9-27.7-7.31-41.55-.81-4.62-1.65-9.24-2.5-13.97-.61.32-1.24.59-1.89.8-2.85.62-3.4,2.36-3.21,5.13.69,10.01,1.1,20.03,1.64,30.05.45,8.32.93,16.65,1.4,25.17m161.11-61.03c-.17.38-.3.78-.41,1.18-3.29,18.66-6.61,37.32-9.77,56-.03,1.26.5,2.47,1.45,3.3,3.34,2.69,6.97,1.33,10.6.45.06-.73.12-1.31.15-1.89.94-17.34,1.88-34.68,2.82-52.02q.28-5.12-4.83-7.01M26.39,97.95h57.71c-.47-2.68-.92-5.22-1.38-7.83H26.39v7.83Zm226.61-7.84h-56.41c-.46,2.67-.9,5.21-1.35,7.79h57.76v-7.79Zm-143.14,15.8c-.43-3.98,0-7.83,2.34-11.29.19-.52.09-1.11-.26-1.54-3.62-2.39-7.3-4.68-10.97-7-.08-.03-.16-.05-.25-.04h-9.47c-1.1,12.74,7.14,21.54,18.62,19.87m59.56.02c8.93,1.4,17.31-4.7,18.71-13.63.33-2.1.25-4.25-.24-6.32-2.83,0-5.69-.04-8.54.03-.75.04-1.47.28-2.1.68-3.05,1.9-6.1,3.81-9.03,5.88-.58.41-1.16,1.84-.89,2.28,1.98,3.33,2.73,7.25,2.1,11.08m-46.76-35.41c-5.66-5.86-12.55-4.83-19.25-4.72-.77,7.8,1.67,14.03,6.35,16.44,3.14-7.65,5.34-9.69,12.9-11.72m53.32-4.78c-6.83.01-13.76-1.1-19.31,4.83,6.91,1.33,11.14,5.28,12.89,12.11,5.57-4.45,7.07-10.1,6.42-16.94M46.34,243.78v-13.7l-7.76,2.25v11.45h7.76Zm186.64-13.67v13.58h7.78v-11.35l-7.78-2.22" fill="#fff"/>
      <rect id="_사각형_759" data-name="사각형 759" width="278" height="278" fill="none"/>
    </g>
  </g>
</svg>