<?xml version="1.0" encoding="UTF-8"?>
<svg id="Layer_2" data-name="Layer 2" xmlns="http://www.w3.org/2000/svg" viewBox="0 0 138 138">
  <g id="Logo">
    <g id="symbol_11_03_0004_01" data-name="symbol 11 03 0004 01">
      <path id="_패스_963" data-name="패스 963" d="m69.05,35.55c8.71,0,15.77-7.06,15.77-15.78,0-8.71-7.06-15.77-15.78-15.77-8.71,0-15.77,7.06-15.77,15.77,0,8.71,7.06,15.77,15.78,15.77h0" fill="#fff"/>
      <path id="_패스_964" data-name="패스 964" d="m69.05,42.25c-21.18-10.99-47.17-5.47-62.05,13.19l15.99,12.75c6.78-8.51,17.7-12.59,28.41-10.61-11.38,16-12.34,37.17-2.45,54.13,2.19-7.32,8.17-12.87,15.62-14.52-3.77-9.79-2.07-20.84,4.48-29.04,6.54,8.2,8.25,19.25,4.48,29.04,7.46,1.65,13.44,7.2,15.63,14.52,9.89-16.96,8.93-38.14-2.45-54.14,10.7-1.98,21.62,2.1,28.4,10.61l16-12.75c-14.88-18.66-40.87-24.18-62.05-13.19" fill="#fff"/>
      <path id="_패스_965" data-name="패스 965" d="m69.05,101.91c-8.71,0-15.77,7.06-15.77,15.78,0,8.71,7.06,15.77,15.77,15.77,8.71,0,15.77-7.06,15.77-15.77,0-8.71-7.06-15.78-15.77-15.78" fill="#fff"/>
      <rect id="_사각형_346" data-name="사각형 346" width="138" height="138" fill="none"/>
    </g>
  </g>
</svg>