<?xml version="1.0" encoding="UTF-8"?>
<svg id="Layer_2" data-name="Layer 2" xmlns="http://www.w3.org/2000/svg" viewBox="0 0 308 248">
  <g id="Logo">
    <g id="symbol_19_03_0003_01" data-name="symbol 19 03 0003 01">
      <path id="_패스_1517" data-name="패스 1517" d="m290.29,113.48c-2.95-.71-5.94-1.34-8.94-1.83-5.82-.95-11.65-1.83-17.49-2.64-2.32-.32-4.17.56-4.8,3.02-.66,1.9.26,3.99,2.1,4.8,1.06.43,2.17.71,3.3.84,7.58,1.33,15.18,2.56,22.75,3.95,4.82.89,5.54,2.78,2.83,6.86-9.19,14.03-19.9,26.99-31.94,38.66-12.55,11.98-26.31,21.94-43.91,25.14-5.14,1-10.39,1.23-15.59.69,4.42-2.95,8.85-5.57,12.92-8.68,14.32-10.94,22.57-25.98,28.1-42.72,8.01-24.3,10.36-49.43,10.69-74.83.1-7.35-5.69-11.34-12.59-8.89-4.3,1.53-8.57,3.14-12.73,5.01-6.85,3.07-13.63,6.3-20.36,9.63-3.26,1.61-3.9,5.81-1.06,7.28,1.69.69,3.59.69,5.29,0,5.93-2.55,11.64-5.62,17.55-8.23,4.91-2.17,9.98-3.96,15.35-6.07,0,1.43.04,2.36,0,3.29-.3,6.56-.44,13.13-.96,19.67-1.48,18.63-4.41,36.98-10.78,54.67-8.25,22.92-23.33,38.9-46.86,46.23-5.17,1.61-10.57,2.49-15.87,3.7-.1-.28-.21-.57-.31-.85.62-.68,1.27-1.33,1.86-2.04,3.86-4.58,8-8.96,11.49-13.8,9.75-13.37,15.81-29.07,17.56-45.53,1.52-13.87-.22-27.54-3.72-40.99-6.8-26.1-18.44-50.06-32.5-72.91-4.1-6.66-11.21-6.55-15.37.14-3.36,5.41-6.55,10.92-9.57,16.54-10.08,18.83-18.58,38.29-23.54,59.17-3.81,16.03-4.94,32.16-1.28,48.35,4.28,18.95,13.67,35.14,27.24,48.96.68.69,1.33,1.42,1.99,2.13-2.93.08-5.87-.22-8.73-.87-16.18-3.5-30.22-10.75-40.85-23.77-9.35-11.45-14.38-24.95-18.01-39.05-3.71-15.06-5.98-30.44-6.75-45.94-.33-5.54-.05-11.12-.05-17.22,8.2,3.53,16.31,6.97,24.37,10.5,3.04,1.33,5.94,2.99,8.99,4.33,1.88.99,4.21.26,5.19-1.62.05-.09.09-.18.13-.28,1.18-2.18.5-4.06-1.44-5.49-.7-.49-1.45-.91-2.24-1.24-10.18-4.47-20.3-9.05-30.56-13.32-7.76-3.23-13.65.88-13.45,9.24.17,7.32.41,14.66.98,21.96,1.37,17.68,4.02,35.14,9.67,52.03,5.62,16.82,13.87,31.94,28.28,42.92,4.04,3.08,8.44,5.67,12.69,8.49,0,0-.03.13-.08.14-.47.06-.94.11-1.41.13-14.07.68-26.93-3.16-38.65-10.76-21.77-14.11-37.61-33.89-51.94-55.05-1.77-2.61-.75-4.84,2.34-5.55,3.06-.7,6.13-1.31,9.23-1.83,5.62-.96,11.28-1.73,16.88-2.77,2.15-.26,3.68-2.21,3.42-4.36-.02-.15-.05-.3-.08-.45-.46-2.47-2.14-3.46-4.52-3.43-.76.02-1.52.09-2.27.22-7.31,1.25-14.59,2.66-21.93,3.71-6.23.9-10.6,3.8-12.54,9.95v4.57c.64,1.56,1.39,3.07,2.23,4.53,11.66,17.49,24.67,33.83,40.82,47.45,1.43,1.21,2.84,2.44,4.69,4.04-2.3.26-3.99.41-5.67.65-4.03.56-6.92,2.54-7.96,6.67-1.01,4.03.62,7.03,3.76,9.41,9.7,7.54,20.25,13.91,31.43,18.99,15.2,6.71,30.46,8.67,45.93.73,1.07-.32,2.23-.13,3.15.51,4.82,3.55,9.42,7.41,14.29,10.89,8.49,6.06,18.66,6.03,27.16-.05,4.79-3.43,9.42-7.1,13.99-10.82.98-1.05,2.57-1.24,3.77-.45,14.02,7.05,28.21,6.53,42.52.88,12.51-4.94,23.51-12.39,34.15-20.46,3.77-2.86,5.06-6.05,4.01-9.84-1.08-3.92-3.92-6.05-8.69-6.56-1.44-.15-2.87-.38-4.78-.63,1.01-.9,1.55-1.41,2.13-1.88,17.13-13.99,30.9-30.92,43.07-49.24,5.22-7.86,1.67-16.55-7.51-18.77m-170.75,22.52c-2.56-14.21-1.22-28.24,2.14-42.13,4.86-20.1,13.16-38.82,22.95-56.93,2.88-5.32,6-10.51,9.29-16.25,10.56,16.79,19.37,34.62,26.32,53.2,5.35,14.53,9.15,29.41,9.53,44.98.45,18.65-4.88,35.64-15.33,51.03-4.53,6.7-9.86,12.83-15.86,18.26v-72.39c-.04-2.53-2.12-4.55-4.65-4.51-2.48.04-4.47,2.03-4.51,4.51v72.35c-2.53-2.38-5.04-4.79-7.35-7.37-11.51-12.87-19.45-27.6-22.54-44.74m-1.94,76.98c-10.16,4.72-20.43,4.34-30.79.73-13.08-4.56-24.57-11.91-35.56-20.16-.19-.14-.27-.43-.49-.82,4.73-.68,9.29-1.4,13.88-1.93,1.12-.06,2.23.22,3.19.79,12.62,7.23,27.04,10.69,41.57,9.98,4.56-.18,9.09-.8,13.52-1.85,3.75-.91,7.09-.19,10.87.85-4.39,5.31-9.93,9.55-16.19,12.4m42.52,12.71c-3.75,2.37-8.53,2.37-12.27-.01-5.45-3.37-10.53-7.33-15.64-10.95,4-4.33,7.55-8.25,11.21-12.06.69-.59,1.57-.9,2.47-.9,5.41-.08,10.83-.07,16.24,0,.82-.04,1.63.21,2.27.72,3.71,3.89,7.33,7.88,11.37,12.27-5.12,3.62-10.21,7.58-15.66,10.95m97.14-32.97c-.14.33-.33.63-.57.9-10.69,8-21.93,14.99-34.5,19.8-20.53,7.85-37.77-.65-48.44-13.53,3.96-.09,7.42-.82,10.57-.15,19.2,4.09,37.43,1.83,54.67-7.61,2.05-1.18,4.47-1.56,6.78-1.07,3.73.7,7.52,1.1,11.49,1.65" fill="#fff"/>
      <path id="_패스_1518" data-name="패스 1518" d="m154.01,105.2c3.76,0,6.8-3.04,6.8-6.8s-3.04-6.8-6.8-6.8-6.8,3.04-6.8,6.8,3.04,6.8,6.8,6.8h0" fill="#fff"/>
      <rect id="_사각형_754" data-name="사각형 754" width="308" height="248" fill="none"/>
    </g>
  </g>
</svg>