<?xml version="1.0" encoding="UTF-8"?>
<svg id="_레이어_2" data-name="레이어 2" xmlns="http://www.w3.org/2000/svg" viewBox="0 0 228 172">
  <g id="Logo">
    <g id="symbol_11_03_0003_02" data-name="symbol 11 03 0003 02">
      <rect id="_사각형_267" data-name="사각형 267" width="228" height="172" fill="none"/>
      <path id="_패스_734" data-name="패스 734" d="M118.11,169.63V58.37c4.08,5.34,7.2,9.41,10.3,13.5,7.18,9.5,11.92,10.94,22.76,6.62,15.41-6.14,30.78-12.4,46.17-18.58,1.88-.75,3.81-1.38,6.46-2.33,.19,2.44,.45,4.22,.45,6.01,.03,17.91-.11,35.83,.1,53.74,.07,5.56-1.82,9.02-6.92,11.62-25.35,12.94-50.54,26.18-75.79,39.31-.82,.42-1.73,.68-3.54,1.38Z" fill="#fff"/>
      <path id="_패스_735" data-name="패스 735" d="M26.52,57.55c9.41,3.76,18.26,7.3,27.11,10.84,8.92,3.57,17.8,7.26,26.77,10.68,7.8,2.97,13.74,1.05,18.86-5.65,3.88-5.08,7.79-10.15,11.71-15.21,.17-.21,.65-.18,1.37-.35v111.79c-1.5-.43-2.97-.95-4.4-1.57-25.09-13.01-50.12-26.14-75.27-39.04-4.61-2.36-6.59-5.44-6.54-10.66,.2-18.28,.07-36.57,.08-54.86,0-1.66,.17-3.33,.31-5.97Z" fill="#fff"/>
      <path id="_패스_736" data-name="패스 736" d="M109.7,50.15c-6.26,8.32-12.11,16.61-18.67,24.31-1.25,1.47-5.66,1.51-7.98,.6-23.3-9.16-46.47-18.65-69.68-28.05-2.92-1.18-5.82-2.42-10.02-4.18,6.7-6.07,12.47-11.61,18.66-16.63,1.41-1.15,4.46-1.15,6.43-.59,26.6,7.62,53.15,15.43,79.71,23.22,.32,.09,.56,.46,1.54,1.32Z" fill="#fff"/>
      <path id="_패스_737" data-name="패스 737" d="M210.92,29.98c-3.72-3.9-7.66-4.65-12.76-3.08-5.33,1.64-10.69,3.21-16.05,4.76-7.84,2.27-15.69,4.49-23.53,6.78l-1.52,.45c0,.08,.01,.15,.01,.23h0c0-.08,0-.15-.01-.23l-3.96,1.16h0c-4.9,1.44-9.82,2.89-14.82,4.37-6.37,1.88-12.87,3.81-19.64,5.81,6.07,8.09,11.68,14.92,16.54,22.26,3.33,5.01,6.75,5.33,11.89,3.16,15.96-6.71,32.08-13.05,48.12-19.55,9.7-3.93,19.38-7.89,30.14-12.27-5.34-5.09-10.07-9.29-14.43-13.85Z" fill="#fff"/>
      <path id="_패스_738" data-name="패스 738" d="M40.53,22.86c2.06-.1,4.1-.43,6.08-1l52.33-12.82c3-1,6.23-1.11,9.3-.34l11.98,2.24c.22-.65,1.97-5.55,2.39-5.46l-14.25-3.21c-4.69-1.06-8.68,.49-13.23,1.68l-14.45,3.75-28.9,7.5-18.21,4.72c1.53,1.82,3.78,2.89,6.16,2.93,.27,0,.53,.01,.8,0Z" fill="#fff"/>
    </g>
  </g>
</svg>