<?xml version="1.0" encoding="UTF-8"?>
<svg id="Layer_2" data-name="Layer 2" xmlns="http://www.w3.org/2000/svg" viewBox="0 0 268 108">
  <g id="Logo">
    <g id="symbol_21_01_0003_01" data-name="symbol 21 01 0003 01">
      <path id="_패스_875" data-name="패스 875" d="m218.13,89.89c-4.99-47.19-47.28-81.4-94.47-76.41-12.88,1.36-25.28,5.62-36.29,12.45-1.16.72-2.29,1.46-3.41,2.23-18.15,12.49-30.82,31.47-35.41,53.02-19.17,1.78-31.91,5.72-32.74,12.98h236.9s-13.73-1.87-34.58-4.26M132.65,22.08c31.11.03,59.15,18.79,71.05,47.54-3.81-2.71-7.89-5.02-12.17-6.92-14.12-6.39-32.21-10.12-51.59-10.7-6.53-6.36-13.6-12.15-21.12-17.3-4.31-2.97-8.92-5.48-13.75-7.49,8.79-3.39,18.14-5.13,27.57-5.13m-42.96,13.15c.44-.54,1.04-.92,1.71-1.1.77-.24,1.57-.36,2.38-.35,4,0,10.62,2.19,19.99,8.47,4.46,3.03,8.74,6.32,12.81,9.86-11.81.47-23.54,2.25-34.96,5.32-4.07-11.23-4.57-19.23-1.93-22.2m-28.93,36.52c3.99-10.48,10.22-19.97,18.26-27.8.53,5.56,1.81,11.03,3.8,16.25-3.38,1.21-6.69,2.59-9.93,4.15-4.28,2.05-8.35,4.52-12.13,7.39m4.01,8.46c3.7-3.05,7.76-5.64,12.1-7.68,3.05-1.47,6.18-2.77,9.37-3.9,1.69,3.75,3.65,7.61,5.81,11.52-9.62-.21-18.82-.21-27.29.06m37.98.25c-2.79-4.73-5.34-9.59-7.64-14.58,12.11-3.12,24.56-4.75,37.07-4.86.82-.01,1.63-.02,2.43-.02.53,0,1.06.01,1.58.02,6.48,6.45,12.58,13.27,18.29,20.42.62.78,1.23,1.55,1.83,2.33-17.73-1.46-36.14-2.67-53.57-3.3m65.76,4.35c-2.22-3.03-4.53-6.04-6.93-9.05-3.96-4.95-8.03-9.66-12.15-14.1,14.44,1.29,27.68,4.48,38.37,9.32,10.93,4.95,18.14,11.26,20.57,17.82-11.93-1.31-25.53-2.7-39.86-3.99" fill="#fff"/>
      <rect id="_사각형_309" data-name="사각형 309" width="268" height="108" fill="none"/>
    </g>
  </g>
</svg>