<?xml version="1.0" encoding="UTF-8"?>
<svg id="_레이어_2" data-name="레이어 2" xmlns="http://www.w3.org/2000/svg" viewBox="0 0 318 262">
  <g id="Logo">
    <g id="symbol_20_02_0006_01" data-name="symbol 20 02 0006 01">
      <path id="_패스_1501" data-name="패스 1501" d="m310.9,71.09c-1.33-.22-2.67-.3-4.01-.26-2.58.01-5.15.09-7.73.17-2.48.08-3.55-1.03-3.49-3.55.1-4.3.05-8.6,0-12.9-.05-4.25-1.91-6.5-5.3-6.52-3.41-.02-5.36,2.25-5.41,6.42-.04,3.75,0,7.5,0,11.69-.47-.3-.92-.64-1.33-1.01-7.58-9.18-16.54-16.38-28.15-19.9-2.61-.67-4.38-3.11-4.2-5.8,0-5.77-.02-11.55-.12-17.32-.09-1.33.45-2.63,1.47-3.5,2.83-2.69,2.36-5.87-1.32-7.21-8.98-3.26-18.82-3.21-27.77.14-2.8,1-3.95,4.52-1.97,6.31,3.02,2.72,2.22,5.96,2.42,9.17.18,2.83-.8,3.96-3.66,2.85-.91-.35-1.89-.53-2.83-.8-19.31-5.56-37.5-3.65-54.74,7.3-10.04,6.38-19.76,13.34-30.56,18.48-6.14,2.92-12.48,5.06-19.4,5.22-12.28.3-22.62-4.93-32.53-11.29-8.05-5.17-16.31-10.13-24.08-15.55-4.85-3.39-8.2-3.44-13.38-2.79-13.44,1.67-23.33,7.87-29.3,20-5.08,10.34-6.22,21.38-4.83,32.69,2.46,19.98,9.03,38.18,23.59,52.76,1.45,1.33,2.24,3.23,2.17,5.19-.08,7.25.43,14.53-.14,21.73-.47,5.91,2.3,8.9,7.09,10.98,1.12.51,2.27.94,3.44,1.29,1.38.25,2.35,1.5,2.27,2.9.26,7.13-.93,14.37,2.99,21.13,1.63,2.82.89,6.71,2.61,10.28,1.53-2.45,1.22-4.86,1.54-7.07.88-6.3,4.64-12.08,3.24-18.8-1.23-5.94.87-9.79,7.1-11.27,3.08-.73,4.45-2.97,4.16-6.38-.3-3.54.05-7.12-.12-10.68-.12-2.73,1.07-3.18,3.34-2.48,3.87,1.2,7.8,2.22,11.61,3.57,6.51,2.32,12.09,5.93,15.86,11.97,6.45,10.35,3.9,24.77-5.53,30.92-4.86,3.17-12.51,2.33-16.23-1.8-1.97-2.18-2.44-6.39-.74-8.16,2.2-2.28,4.41-1.43,6.51.3.14.11.45.01,1.16.01-1.16-3.17-3.33-3.85-5.99-3.33-3,.73-5,3.56-4.7,6.64.3,3.93,2.64,6.52,5.93,8.32,7.83,4.3,16.72,1.13,21.73-7.69,7.38-12.98,1.68-29.69-12.52-36.7-5.54-2.66-11.37-4.68-17.37-6-2.21-.51-3.09-1.59-3.03-3.81.12-4.17-.03-8.35.15-12.53.23-5.63,3.03-9.68,7.97-12.37,4.08-2.22,8.48-2.24,12.91-2.19,35.25.42,70.5.09,105.74-.52,1.1-.02,2.21-.12,3.29-.3,4.74-.79,9.59-.62,14.26.49,10.49,2.27,17.16,12.61,14.89,23.1-.44,2.04-1.21,4-2.28,5.8-6.12,10.68-15.63,17.93-25.61,24.45-5.81,3.74-10.19,9.34-12.43,15.88-2.26,6.25-3.43,12.84-3.47,19.48.02,1.22-.04,2.44-.18,3.66H21.9c-4.5,0-8.16,3.65-8.17,8.16v27.21c0,4.51,3.66,8.16,8.16,8.16h280.16c4.51,0,8.16-3.66,8.16-8.16v-27.21c0-4.51-3.66-8.16-8.16-8.16h-14.48c-.17-.69-.26-1.39-.26-2.1-.48-23.7-.42-47.4-.44-71.1,0-.98.02-1.97,0-2.95-.02-1.18.33-1.64,1.71-1.68,6.18-.19,7.1-1.22,7.1-7.44,0-14.99.1-29.97-.07-44.96-.04-3.45,1.08-4.57,4.44-4.33,3.42.24,6.88.06,10.31-.01,1.68.1,3.12-1.18,3.22-2.86,0-.02,0-.04,0-.06.21-1.92-.96-3.02-2.7-3.37M44.17,44.81c-6.59,3.08-9.75,8.67-9.75,15.99-.01,23.07-.03,46.13-.05,69.19,0,1.44.3,2.93-.58,4.9-3.79-3.26-7-7.14-9.51-11.47-11.9-19.61-17.12-40.67-12.26-63.4,3.19-14.91,12.39-24.47,27.84-27.23,3.79-.68,6.21,1.02,7.59,5.77.86,2.96-.16,4.8-3.28,6.25m179.14-2.64c-1.5,2.88-4.07,5.06-7.15,6.08-7.65,2.74-14.79,6.71-21.16,11.77-11.12,8.83-24.08,12.3-37.77,14.07-10.89,1.41-21.82.23-30.72.67-11.08,0-20.17-.06-29.25.04-2.28.03-3.54-.69-4.42-2.88-3.76-9.34-10.87-13.9-20.86-13.95-2.28,0-3.5-.67-4.25-3.02-1.75-6.08-6.85-10.6-13.09-11.6-3.61-.69-3.28-2.93-2.67-5.12.71-2.54,2.53-3.35,5.15-2.05,7.29,3.62,13.78,8.48,20.52,12.96,8.51,5.66,17.3,10.68,27.7,12.22,8.68,1.27,17.53-.07,25.45-3.83,9.63-4.4,18.32-10.45,27.21-16.12,4.35-2.77,8.84-5.27,13.42-7.65,16.32-8.52,32.98-6.75,49.74-1.75,2.91.87,3.98,6.87,2.14,10.17m84.96,177.93v27.21c0,3.43-2.78,6.21-6.21,6.21H21.89c-3.43,0-6.21-2.78-6.21-6.21v-27.21c0-3.43,2.78-6.21,6.21-6.21h280.16c3.43,0,6.21,2.78,6.21,6.21" fill="#fff"/>
      <rect id="_사각형_749" data-name="사각형 749" width="318" height="262" fill="none"/>
    </g>
  </g>
</svg>