<?xml version="1.0" encoding="UTF-8"?>
<svg id="_레이어_2" data-name="레이어 2" xmlns="http://www.w3.org/2000/svg" viewBox="0 0 162 203">
  <g id="Logo">
    <g id="symbol_05_03_0001_01" data-name="symbol 05 03 0001 01">
      <rect id="_사각형_81" data-name="사각형 81" width="162" height="203" fill="none"/>
      <g>
        <path id="_패스_425" data-name="패스 425" d="M149.4,94.39c-9.62-19.42-23.29-36.55-40.1-50.22-1.79-1.45-3.75-3.1-4.02-5.39-.06-1.28,.17-2.57,.67-3.75l5.91-17.7c1.38-4.14,1.97-8.52-1.13-11.99-1.42-1.59-4.22-1.86-6.21-2.13-2.84-.32-5.7-.43-8.56-.35l-33.98,.27c-4.71,.04-10.34,.6-12.54,4.76-1.68,3.17-.53,7.03,.64,10.42,1.97,5.71,3.94,11.42,5.92,17.12,.54,1.19,.73,2.51,.55,3.81-.48,1.34-1.36,2.51-2.53,3.33-12.79,11.24-24.71,23.64-34,37.9S4.09,110.96,2.46,127.91c-.04,.37-.06,.75-.06,1.14-.55,2.34-.82,4.74-.81,7.15-.07,3.82,.67,7.6,2.15,11.12,.03,.2,.05,.4,.09,.59,1.74,8.3,5.94,15.88,12.04,21.76,1.72,1.64,3.57,3.13,5.53,4.47,3.57-7.47,11.14-12.21,19.42-12.14,11.67,.15,21.03,9.71,20.94,21.38-.01,.88-.08,1.75-.2,2.62,13.86,1.33,27.81,1.17,41.64-.46-.06-.63-.1-1.27-.1-1.92,.03-11.74,9.57-21.25,21.31-21.22,.06,0,.12,0,.17,0,7.24,.09,13.94,3.88,17.74,10.04,1.14-.87,2.24-1.8,3.28-2.78,2.13-2.03,4.04-4.27,5.69-6.71,5.87-8.62,8.64-19.38,8.57-29.89-.1-13.47-4.48-26.6-10.45-38.67Zm-79.08,43.69c-6.15,.01-12.3,.01-18.45,0-4.63-.01-6.86-3.89-4.52-7.85,2.74-4.64,5.51-9.25,8.31-13.85,1.65-2.72,4.5-3.56,6.96-2.1,2.44,1.45,3.05,4.38,1.45,7.12-1.29,2.2-2.61,4.38-4.11,6.88,3.66,0,7.02,0,10.38,0,3.21,.01,5.4,1.96,5.45,4.82,.04,2.93-2.18,4.97-5.46,4.98Zm12.72-40.47c-.73-1.21-1.45-2.42-2.34-3.89-1.68,2.78-3.14,5.32-4.72,7.78-1.01,1.7-2.99,2.58-4.93,2.19-2.03-.25-3.63-1.83-3.91-3.86-.14-1.23,.09-2.47,.65-3.57,2.77-4.87,5.68-9.67,8.62-14.44,1.24-2.37,4.16-3.28,6.53-2.04,.87,.45,1.58,1.16,2.03,2.02,2.95,4.77,5.82,9.58,8.66,14.42,1.47,2.26,.82,5.28-1.44,6.75-.05,.03-.11,.07-.16,.1-2.32,1.39-5.33,.64-6.72-1.68-.03-.04-.05-.09-.08-.14-.75-1.19-1.46-2.42-2.19-3.63h0Zm27.11,40.45c-6.59,.08-13.17,.06-19.76,0-2.69-.04-4.84-2.24-4.8-4.93,0-.01,0-.03,0-.04,.06-2.63,2.19-4.75,4.82-4.79,3.57-.07,7.14-.02,11.03-.02-1.53-2.56-2.96-4.84-4.29-7.19-1.45-2.27-.78-5.28,1.48-6.73,.47-.3,.98-.51,1.52-.64,2.02-.54,4.16,.32,5.24,2.11,3.04,4.96,6.08,9.92,8.96,14.98,1.35,2.27,.6,5.21-1.67,6.56-.76,.45-1.64,.69-2.53,.67Z" fill="#fff"/>
        <path id="_패스_426" data-name="패스 426" d="M125.55,170.77c-8.35-.09-15.19,6.61-15.28,14.97,0,.04,0,.08,0,.12,.04,8.3,6.74,15.03,15.04,15.09,8.3,0,15.06-6.68,15.15-14.98,.05-8.3-6.61-15.09-14.91-15.2Z" fill="#fff"/>
        <path id="_패스_424" data-name="패스 424" d="M40.37,170.32c-8.36-.08-15.21,6.64-15.29,15,0,.03,0,.06,0,.09,.04,8.3,6.75,15.03,15.05,15.1,8.3,0,15.06-6.68,15.14-14.98,.07-8.31-6.59-15.1-14.9-15.21Z" fill="#fff"/>
      </g>
    </g>
  </g>
</svg>