<?xml version="1.0" encoding="UTF-8"?>
<svg id="_레이어_2" data-name="레이어 2" xmlns="http://www.w3.org/2000/svg" viewBox="0 0 266 247">
  <g id="Logo">
    <g id="symbol_04_03_0001_02" data-name="symbol 04 03 0001 02">
      <rect id="_사각형_76" data-name="사각형 76" width="266" height="247" fill="none"/>
      <path id="_패스_400" data-name="패스 400" d="M57.08,214.61c-2.94-3.04-5.95-6.03-8.82-9.14-6.78-7.42-12.52-15.73-17.07-24.69-1.31-2.54-.95-4.43,.99-5.37,1.86-.9,3.53-.16,4.79,2.27,5.33,10.49,12.36,20.02,20.81,28.21,22.14,21.24,48.62,31.62,79.24,30.69,28.1-.85,52.41-11.35,72.32-31.16,21.44-21.34,32.13-47.41,32.2-77.74,0-.35-.06-.71-.17-1.8-2.46,3.93-4.57,7.28-6.67,10.65-.9,1.44-1.74,2.92-2.65,4.36-1.17,1.86-3.11,2.43-4.77,1.44-1.52-.94-1.99-2.93-1.06-4.44,.05-.08,.1-.16,.16-.23,4.12-6.81,8.33-13.57,12.51-20.34,1.18-1.91,2.34-3.82,3.53-5.72,1.72-2.76,4.67-2.79,6.22,.06,4.88,8.95,9.7,17.92,14.48,26.93,1.07,2.01,.52,3.91-1.18,4.81-1.65,.87-3.51,.2-4.61-1.82-2.59-4.74-5.12-9.52-7.68-14.28-.36-.66-.76-1.3-1.46-2.5-.02,1.66-.03,2.69-.04,3.72-.36,30.84-11.05,57.54-32.42,79.78-34.47,35.82-88.14,45.25-132.76,23.32-4.49-2.21-8.7-5-13.04-7.51-.6-.34-1.23-.63-1.84-.94l-10.98-8.55Z" fill="#fff"/>
      <path id="_패스_401" data-name="패스 401" d="M24.85,120.69c3.3-5.29,6.25-10.09,9.27-14.85,1.37-2.17,3.13-2.73,4.84-1.72,1.73,1.02,1.98,3.1,.63,5.3-5.15,8.35-10.31,16.7-15.48,25.05-2.1,3.4-4.89,3.31-6.81-.24-4.67-8.63-9.31-17.26-13.94-25.9-1.27-2.38-.91-4.24,.93-5.21,1.82-.95,3.55-.21,4.84,2.15,2.55,4.68,5.07,9.37,7.61,14.06,.32,.59,.69,1.14,1.24,2.05,.17-4.39,.19-8.37,.51-12.33C23.26,45.95,78.28-1.3,141.37,3.49h0c9.99,.76,19.84,2.83,29.3,6.15,28.88,10.05,50.22,29.1,64.42,56.17,1.25,2.39,.87,4.26-.96,5.24-1.8,.96-3.6,.2-4.83-2.19C202.25,15.63,137.17-5.6,83.93,21.45c0,0,0,0,0,0-7.05,3.58-13.68,7.92-19.78,12.95-26.14,21.7-39.16,49.94-39.45,83.97,0,.59,.07,1.19,.14,2.32Z" fill="#fff"/>
    </g>
  </g>
</svg>