<?xml version="1.0" encoding="UTF-8"?>
<svg id="Layer_2" data-name="Layer 2" xmlns="http://www.w3.org/2000/svg" viewBox="0 0 272 272">
  <g id="Logo">
    <g id="symbol_12_02_0006_01" data-name="symbol 12 02 0006 01">
      <path id="_합치기_40" data-name="합치기 40" d="m14.44,135.89c-.04-25.72,8.1-50.79,23.24-71.59,0,11.76,0,23.51.01,35.26-.15,1.7,1.11,3.2,2.81,3.35.18.02.36.02.54,0,8.7.03,17.4.03,26.11,0,2.18,0,3.34-1.27,3.41-3.5.03-.99,0-1.99,0-3.07,6.2,0,12.09.05,17.98-.03,1.56-.02,3.12-.24,4.63-.65,6.96-1.92,13.9-3.94,21.4-6.08-.82.76-1.2,1.15-1.61,1.48-4.22,3.4-8.45,6.79-12.68,10.17-10.43,8.35-20.87,16.71-31.3,25.07-2.23,1.8-2.35,3.72-.34,5.76,3.03,3.09,6.11,6.12,9.16,9.18,1.17,1.45,3.29,1.68,4.75.52.02-.01.03-.03.05-.04.37-.21.75-.4,1.15-.57,0,11.26-.05,22.31.04,33.36.05,1.92-.66,3.78-1.97,5.18-.37-.16-.68-.28-.98-.44-6.98-3.62-13.92-7.34-20.95-10.87-9.96-5-21.96,1.99-22.21,12.8-.17,1.74.77,3.4,2.35,4.15,29.14,16.19,58.29,32.37,87.44,48.55,1.25.63,2.68.8,4.04.49,20.98-5.38,41.93-10.87,62.89-16.34,2.53-.66,5.07-1.29,7.64-1.94.46,5.19.79,5.48,5.78,5.48h15.22c-47.32,47.88-124.49,48.34-172.38,1.03-23.18-22.9-36.22-54.13-36.22-86.71h0Zm114.45,91.19c-27.65-15.32-55.29-30.66-82.92-46.03-1.36-.76-1.5-1.44-.88-2.73,2.07-4.33,7.25-6.16,11.58-4.1.16.07.31.15.46.24,5.92,3,11.79,6.1,17.67,9.17,15.23,7.93,30.46,15.87,45.68,23.81.12.07.25.12.37.18,2.48,1.26,4.3.9,5.29-1.04.94-1.86.22-3.57-2.12-4.8-5.99-3.15-11.99-6.29-18.01-9.4-5.34-2.79-10.68-5.56-16.02-8.33-.65-.34-1.29-.73-1.91-1.08,1.9-5.21,8.02-7.41,13.36-4.8,7.3,3.58,14.54,7.26,21.81,10.89v-22.3c0-7.23,5.86-13.09,13.09-13.09s13.09,5.86,13.09,13.09v24.85c10.52-2.98,21.04-6,31.56-8.97,1.38-.38,2.79-.58,4.22-.6,5.54-.07,11.09-.03,16.8-.03v27.14c-14.85,3.88-29.67,7.75-44.47,11.61-8.53,2.23-17.05,4.48-25.6,6.63-.36.09-.72.13-1.09.13-.68.02-1.35-.13-1.95-.43Zm79.99-12.26v-39.3h19.5v39.3h-19.5Zm26.17-13.47v-28.63c0-2.47-1.09-3.84-3.26-3.86-8.77-.04-17.54-.04-26.32,0-2.07.01-3.22,1.29-3.3,3.4-.04,1,0,2.01,0,3.03h-13.07v-34.06c3.68,1.87,4.05,1.8,7.1-1.26,2.52-2.52,5.04-5.05,7.56-7.57,2.48-2.5,2.36-4.22-.44-6.46-9.69-7.75-19.37-15.51-29.06-23.27-.47-.33-.95-.64-1.45-.92.12-.17.23-.35.35-.52,7.89.81,13.74-2.31,17.67-9.22.75.36,1.42.67,2.08,1.01,6.74,3.5,13.41,7.14,20.24,10.47,9.89,4.83,21.75-2.3,21.93-13.02.15-1.68-.75-3.27-2.26-4.01-29.2-16.22-58.4-32.43-87.6-48.64-1.19-.6-2.55-.77-3.86-.48-20.65,5.31-41.28,10.73-61.91,16.12-2.88.76-5.78,1.48-8.89,2.27,0-.89.02-1.49,0-2.1-.1-2.22-1.25-3.43-3.47-3.44-5.81-.02-11.62-.02-17.43-.01C96.97,2.34,174.15,1.89,222.03,49.22c42.78,42.29,48.32,109.47,13.03,158.19v-6.04Zm-75.33-35.83c-2.43-.02-3.59-1.22-3.6-3.71-.03-3.77,0-7.54,0-11.3,0-3.56-.01-7.13,0-10.69.01-2.83,1.12-3.93,4-3.94,3.97-.01,7.94-.01,11.9,0,2.61.01,3.81,1.16,3.82,3.71.02,7.4.02,14.8,0,22.2,0,2.49-1.17,3.71-3.59,3.73-2.08.02-4.17.03-6.26.03s-4.17,0-6.26-.03Zm-59.22,0c-2.43-.02-3.59-1.22-3.6-3.71-.03-3.7,0-7.4,0-11.1s0-7.26,0-10.9c.01-2.83,1.12-3.93,4-3.93,3.97-.01,7.93-.01,11.9,0,2.61.01,3.81,1.16,3.81,3.71.02,7.4.02,14.8,0,22.2,0,2.49-1.17,3.71-3.59,3.73-2.08.02-4.17.03-6.26.03s-4.17,0-6.26-.02Zm-24.87-36.01c4.13-3.32,8.21-6.61,12.3-9.88,14.07-11.27,28.14-22.53,42.22-33.78,2.55-2.03,5.2-2.74,8.64-1.18,7.14,3.23,12.78,8.41,18.76,13.17,12.66,10.07,25.29,20.17,37.88,30.32.53.43,1.03.88,1.59,1.38-1.73,1.64-3.42,3.24-5.28,5.01-3.5-2.67-7.24-5.52-10.97-8.38-13.76-10.54-27.52-21.08-41.29-31.62-2.77-2.12-3.5-2.11-6.31.05-16.98,12.99-33.95,25.99-50.92,38.99-.48.37-.99.71-1.49,1.08-1.69-1.7-3.33-3.33-5.13-5.14h0Zm141.03-31.71c-1.07-.45-2.11-.96-3.13-1.53-20.14-10.5-40.28-21-60.41-31.5-.54-.28-1.09-.58-1.64-.85-2.16-1.04-4-.55-4.91,1.3-.86,1.76-.22,3.53,1.81,4.59,4.66,2.46,9.35,4.86,14.02,7.3,6.98,3.63,13.95,7.27,20.92,10.92.47.24.91.54,1.34.8-1.96,4.86-7.49,7.2-12.35,5.23-.3-.12-.6-.26-.89-.42-7.13-3.48-14.2-7.08-21.29-10.64-3.85-1.93-7.66-3.96-11.59-5.72-1.22-.53-2.58-.65-3.88-.34-14.08,3.93-28.12,8-42.19,11.96-1.84.5-3.73.77-5.63.79-5.34.11-10.67.04-16.15.04v-27.12c9.8-2.55,19.62-5.11,29.47-7.68,13.62-3.55,27.24-7.1,40.86-10.63.89-.23,1.84-.14,2.68.24,27.95,15.5,55.88,31.04,83.78,46.61.17.1.33.22.49.34-.29,3.96-4.12,6.86-8.22,6.86-1.06,0-2.11-.19-3.09-.57Zm-172.27-1.57v-39.32h19.5v39.32h-19.5Z" fill="#fff"/>
      <rect id="_사각형_424" data-name="사각형 424" width="272" height="272" fill="none"/>
    </g>
  </g>
</svg>