<?xml version="1.0" encoding="UTF-8"?>
<svg id="Layer_2" data-name="Layer 2" xmlns="http://www.w3.org/2000/svg" viewBox="0 0 232 232">
  <g id="Logo">
    <g id="symbol_11_03_0005_01" data-name="symbol 11 03 0005 01">
      <path id="_패스_966" data-name="패스 966" d="m106.33,54.96V20.23c0-4.55-3.69-8.23-8.23-8.23,0,0,0,0,0,0H18.34c-4.54,0-8.23,3.68-8.23,8.23v79.77c0,4.55,3.68,8.23,8.23,8.23h36.45c3.15-27.37,24.29-49.22,51.55-53.27" fill="#fff"/>
      <path id="_패스_967" data-name="패스 967" d="m212.61,123.84h-37.32c-3.88,26.33-24.4,47.09-50.67,51.28v36.72c0,4.55,3.68,8.23,8.23,8.23h79.76c4.55,0,8.23-3.68,8.23-8.23h0v-79.76c0-4.55-3.68-8.23-8.23-8.23h0" fill="#fff"/>
      <rect id="_사각형_349" data-name="사각형 349" width="232" height="232" fill="none"/>
    </g>
  </g>
</svg>