<?xml version="1.0" encoding="UTF-8"?>
<svg id="Layer_2" data-name="Layer 2" xmlns="http://www.w3.org/2000/svg" viewBox="0 0 284 284">
  <g id="Logo">
    <g id="symbol_12_01_0007_01" data-name="symbol 12 01 0007 01">
      <path id="_패스_1038" data-name="패스 1038" d="m229.68,54.32c-48.43-48.41-126.94-48.4-175.35.04-48.4,48.42-48.4,126.9,0,175.32,48.41,48.43,126.92,48.45,175.35.04,48.43-48.41,48.45-126.92.04-175.35-.01-.01-.02-.02-.04-.04m-87.68,206.1c-65.41,0-118.43-53.02-118.43-118.43,0-65.41,53.02-118.43,118.43-118.43,65.41,0,118.43,53.02,118.43,118.43h0c-.08,65.38-53.05,118.35-118.43,118.43" fill="#fff"/>
      <path id="_패스_1039" data-name="패스 1039" d="m102.55,103.7c14.16-9.84,28.33-19.68,42.5-29.53,2.26-1.57,2.86-1.58,5.12,0,14.07,9.77,28.15,19.55,42.22,29.33.6.41,1.2.81,1.88,1.26,1.21-1.74,2.3-3.3,3.49-5-.32-.27-.53-.46-.76-.62-16.11-11.2-32.22-22.41-48.32-33.63-1.06-.74-1.64-.27-2.4.26-12.6,8.75-25.2,17.51-37.8,26.25-3.65,2.54-7.3,5.08-11.05,7.69,1.21,1.74,2.35,3.37,3.53,5.06.65-.42,1.13-.72,1.6-1.04" fill="#fff"/>
      <path id="_패스_1040" data-name="패스 1040" d="m65.8,177.88l40.12,40.06,11.99-11.95-40.14-40.1-11.97,11.99" fill="#fff"/>
      <path id="_패스_1041" data-name="패스 1041" d="m142,28.9c-62.46,0-113.1,50.64-113.1,113.1s50.64,113.1,113.1,113.1,113.1-50.64,113.1-113.1S204.46,28.9,142,28.9h0m-49.51,67.45c17.64-12.27,35.28-24.54,52.92-36.82,1.28-1.09,3.16-1.08,4.43.02,4.67,3.32,9.41,6.55,14.47,10.06v-6.72c0-3.58.69-4.28,4.23-4.28h13.92c3.36,0,4.12.75,4.12,4.04,0,7,.02,14.01-.02,21.01-.08.92.38,1.8,1.17,2.26,4.93,3.37,9.81,6.79,14.7,10.2,2.41,1.68,2.61,2.88.91,5.33-1.91,2.76-3.83,5.52-5.77,8.26-1.4,1.97-2.73,2.22-4.71.88-2-1.36-3.97-2.76-6.28-4.36v27.13c0,1.79.02,3.59,0,5.38-.03,2.08-1.06,3.24-2.81,3.22s-2.74-1.18-2.75-3.29c-.01-11.52-.03-23.04.03-34.56.09-1.14-.49-2.24-1.48-2.81-10.25-7.06-20.48-14.17-30.67-21.32-.72-.68-1.84-.68-2.56,0-10.24,7.18-20.52,14.33-30.82,21.43-.89.52-1.42,1.5-1.35,2.53.05,11.46.05,22.92,0,34.38.07.96-.2,1.92-.76,2.69-.77.64-1.79.9-2.77.71-.88-.45-1.56-1.22-1.9-2.15-.19-.85-.23-1.72-.1-2.58v-30.76c-2.05,1.42-3.88,2.68-5.7,3.94-2.73,1.89-3.8,1.69-5.69-1.03s-3.78-5.41-5.65-8.13c-1.34-1.95-1.08-3.33.9-4.7m57.75,17.93v25.5c0,1.54-1.24,2.79-2.78,2.79-1.54,0-2.79-1.24-2.79-2.78h0v-25.51h-8.2v1.9c0,7.58-.01,15.17,0,22.75,0,1.31-.25,2.43-1.55,3.02-1.32.71-2.96.21-3.67-1.11-.21-.39-.32-.83-.32-1.27-.05-9.38-.05-18.75,0-28.13-.07-1.46,1.06-2.71,2.52-2.78.13,0,.27,0,.4.01,9.16-.03,18.33-.03,27.49,0,1.48-.14,2.8.94,2.94,2.42.02.17.02.34,0,.51.03,9.15.03,18.29,0,27.44.15,1.47-.92,2.78-2.38,2.93-.12.01-.23.02-.35.01-1.7.02-2.8-1.11-2.81-3.04-.02-7.47-.01-14.93-.01-22.4v-2.26h-8.51Zm-60.86,43.1c4.83-4.88,10.39-8.57,17.37-9.42,3.29-.32,6.59-.44,9.89-.38,7.83-.05,15.65-.02,23.48-.01,9.97,0,19.94-.04,29.91.02,6.5.04,12.1,4.61,13.45,10.97,1.42,6.41-1.92,12.93-7.96,15.52-1.87.77-3.86,1.19-5.89,1.22-9.91.12-19.83.06-29.74.05-2.27,0-3.41-.95-3.42-2.76s1.13-2.78,3.4-2.78c9.97,0,19.94.03,29.91-.02,4.6.09,8.39-3.57,8.48-8.16.09-4.6-3.57-8.39-8.16-8.48-.08,0-.17,0-.25,0-6.2-.03-12.41-.01-18.61-.01-13.04,0-26.09.09-39.13-.04-6.51-.21-12.82,2.28-17.43,6.88-.48.5-1,.97-1.54,1.4-1.1.93-2.76.79-3.69-.31-.02-.02-.03-.04-.05-.05-1-.94-1.06-2.51-.12-3.51.03-.04.07-.07.1-.1m132.7-6.47c-7.73,11.26-15.52,22.48-23.36,33.66-6.1,8.75-14.32,13.21-25.2,13.05-15.01-.22-30.03-.04-45.05-.07-2.77-.15-5.47.87-7.45,2.82,1.05,1.07,2.09,2.11,3.11,3.17,1.6,1.67,1.65,3.04.02,4.67-5.31,5.34-10.64,10.66-15.99,15.96-1.63,1.61-3.03,1.59-4.67-.04-14.61-14.56-29.21-29.12-43.8-43.69-1.64-1.64-1.64-3.02,0-4.66,5.31-5.33,10.64-10.65,15.99-15.96,1.7-1.69,3.04-1.6,4.91.27,11.69,11.66,23.37,23.32,35.04,35,.43.54.79,1.13,1.09,1.75,4.43-4.26,9.32-4.93,14.59-4.88,14.38.14,28.76-.04,43.14.08,7.88.07,14.14-2.92,18.64-9.26,8.4-11.85,16.64-23.82,24.9-35.76.64-.96,1.15-2.01,1.5-3.11,1.2-3.64.12-6.74-2.9-8.61-2.96-1.87-6.82-1.43-9.27,1.06-4.88,4.79-9.69,9.64-14.53,14.47-.62.61-1.21,1.25-1.85,1.83-.99,1.11-2.7,1.21-3.81.22-.07-.06-.14-.13-.2-.2-1.06-.97-1.13-2.62-.16-3.67.06-.07.13-.14.2-.2,5.64-5.67,11.21-11.4,17.02-16.89,4.38-3.96,10.89-4.44,15.8-1.17,4.89,3.08,6.99,9.14,5.05,14.58-.65,1.97-1.58,3.84-2.77,5.55" fill="#fff"/>
      <path id="_패스_1042" data-name="패스 1042" d="m170.38,73.83c3.43,2.42,6.9,4.8,10.54,7.32v-16.9h-11.04c0,2.92-.02,5.74.02,8.56.02.39.19.75.48,1.01" fill="#fff"/>
      <rect id="_사각형_399" data-name="사각형 399" width="284" height="284" fill="none"/>
    </g>
  </g>
</svg>