<?xml version="1.0" encoding="UTF-8"?>
<svg id="_레이어_2" data-name="레이어 2" xmlns="http://www.w3.org/2000/svg" viewBox="0 0 109 108">
  <g id="Logo">
    <g id="symbol_15_02_0002_01" data-name="symbol 15 02 0002 01">
      <rect id="_사각형_188" data-name="사각형 188" width="109" height="108" fill="none"/>
      <path id="_패스_530" data-name="패스 530" d="M58.1,.56C28.6-1.17,3.29,21.34,1.56,50.84c-1.73,29.5,20.78,54.81,50.27,56.54,1.09,.06,2.18,.09,3.27,.09,27.22,1.04,52.54-22.85,53.56-50.53C109.76,26.94,87.18,1.95,58.1,.56Zm15.75,69.08c-3.88,5.63-10.11,9.17-16.93,9.63-1.72-4.85-1.23-10.2-.09-15.22s2.89-9.9,3.64-14.98c-7.22,7.84-10.51,18.46-12.86,28.85-7.58-2.86-13.12-9.45-14.64-17.4-1.32-8.01,1.92-16.09,8.41-20.97-3.08,6.14-2.96,13.39,.33,19.42-.37-5.74-.7-11.74,1.64-16.99,2.54-5.7,7.9-9.69,13.55-12.33,3.77-1.77,8.01-3.1,12.22-2.58,.93,.03,1.82,.39,2.51,1.02,.7,.64,1.31,1.38,1.82,2.18,.99,1.63,1.75,3.38,2.27,5.21,1.69,5.41,2.57,11.05,2.59,16.72,.02,5.64-.86,11.44-3.72,16.3-.23,.39-.47,.77-.73,1.15h0Z" fill="#fff"/>
    </g>
  </g>
</svg>