<?xml version="1.0" encoding="UTF-8"?>
<svg id="Layer_2" data-name="Layer 2" xmlns="http://www.w3.org/2000/svg" viewBox="0 0 224 224">
  <g id="Logo">
    <g id="symbol_06_01_0011_01" data-name="symbol 06 01 0011 01">
      <path id="_패스_1427" data-name="패스 1427" d="m156.61,66.43h39.12v-27.86h-62.08V13.96H29.17v171.41h104.48v24.61h62.08v-27.86h-39.12c-1.14,0-2.06-.92-2.06-2.06v-7.08c0-1.14.92-2.06,2.06-2.06h39.12v-14.92h-39.12c-1.14,0-2.06-.92-2.06-2.06h0v-7.08c0-1.14.92-2.06,2.06-2.06h39.12v-14.91h-39.12c-1.14,0-2.06-.92-2.06-2.06h0v-7.08c0-1.14.92-2.06,2.06-2.06h39.12v-14.91h-39.12c-1.14,0-2.06-.92-2.06-2.06v-7.08c0-1.14.92-2.06,2.06-2.06h39.12v-14.91h-39.12c-1.14,0-2.06-.92-2.06-2.06v-7.08c0-1.14.92-2.06,2.06-2.06h0m-94.28,95.38c0,1.68-1.36,3.05-3.05,3.05h-10.26c-1.68,0-3.05-1.36-3.05-3.05h0v-10.26c0-1.68,1.37-3.05,3.05-3.05h10.26c1.68,0,3.05,1.36,3.05,3.05v10.26Zm0-29.53c0,1.68-1.36,3.05-3.05,3.05h-10.26c-1.68,0-3.05-1.36-3.05-3.05v-10.26c0-1.68,1.36-3.05,3.05-3.05h10.26c1.68,0,3.05,1.37,3.05,3.05v10.26Zm0-29.53c0,1.68-1.36,3.05-3.05,3.05h-10.26c-1.68,0-3.05-1.36-3.05-3.05v-10.26c0-1.68,1.37-3.05,3.05-3.05h10.26c1.68,0,3.05,1.36,3.05,3.05v10.26Zm0-29.53c0,1.68-1.36,3.05-3.05,3.05h-10.26c-1.68,0-3.05-1.36-3.05-3.05v-10.26c0-1.68,1.36-3.05,3.05-3.05h10.26c1.68,0,3.05,1.36,3.05,3.05h0v10.26Zm0-29.53c0,1.68-1.36,3.05-3.05,3.05h-10.26c-1.68,0-3.05-1.36-3.05-3.05v-10.26c0-1.68,1.36-3.05,3.05-3.05h10.26c1.68,0,3.05,1.37,3.05,3.05v10.26Zm27.25,118.11c0,1.68-1.36,3.05-3.05,3.05h-10.26c-1.68,0-3.05-1.36-3.05-3.05h0v-10.26c0-1.68,1.37-3.05,3.05-3.05h10.26c1.68,0,3.05,1.36,3.05,3.05v10.26Zm0-29.53c0,1.68-1.36,3.05-3.05,3.05h-10.26c-1.68,0-3.05-1.36-3.05-3.05v-10.26c0-1.68,1.36-3.05,3.05-3.05h10.26c1.68,0,3.05,1.37,3.05,3.05v10.26Zm0-29.53c0,1.68-1.36,3.05-3.05,3.05h-10.26c-1.68,0-3.05-1.36-3.05-3.05v-10.26c0-1.68,1.37-3.05,3.05-3.05h10.26c1.68,0,3.05,1.36,3.05,3.05v10.26Zm0-29.53c0,1.68-1.36,3.05-3.05,3.05h-10.26c-1.68,0-3.05-1.36-3.05-3.05v-10.27c0-1.68,1.36-3.05,3.05-3.05h10.26c1.68,0,3.05,1.36,3.05,3.05h0v10.27Zm0-29.53c0,1.68-1.36,3.05-3.05,3.05h-10.26c-1.68,0-3.05-1.36-3.05-3.05v-10.26c0-1.68,1.36-3.05,3.05-3.05h10.26c1.68,0,3.05,1.37,3.05,3.05v10.26Zm27.26,118.11c0,1.68-1.36,3.05-3.05,3.05h-10.26c-1.68,0-3.05-1.36-3.05-3.05h0v-10.26c0-1.68,1.37-3.05,3.05-3.05h10.25c1.68,0,3.05,1.36,3.05,3.05v10.26Zm0-29.53c0,1.68-1.37,3.05-3.05,3.05h-10.26c-1.68,0-3.05-1.36-3.05-3.05v-10.26c0-1.68,1.36-3.05,3.05-3.05h10.25c1.68,0,3.05,1.36,3.05,3.05v10.26Zm0-29.53c0,1.68-1.36,3.05-3.05,3.05h-10.26c-1.68,0-3.05-1.36-3.05-3.05v-10.26c0-1.68,1.37-3.05,3.05-3.05h10.25c1.68,0,3.05,1.36,3.05,3.05v10.26Zm0-29.53c0,1.68-1.37,3.05-3.05,3.05h-10.26c-1.68,0-3.05-1.36-3.05-3.05v-10.27c0-1.68,1.36-3.05,3.05-3.05h10.25c1.68,0,3.05,1.36,3.05,3.04h0v10.27Zm0-29.53c0,1.68-1.37,3.05-3.05,3.05h-10.26c-1.68,0-3.05-1.36-3.05-3.05v-10.26c0-1.68,1.36-3.05,3.05-3.05h10.25c1.68,0,3.05,1.36,3.05,3.05v10.26Z" fill="#fff"/>
      <rect id="_사각형_451" data-name="사각형 451" width="224" height="224" fill="none"/>
    </g>
  </g>
</svg>