<?xml version="1.0" encoding="UTF-8"?>
<svg id="_레이어_2" data-name="레이어 2" xmlns="http://www.w3.org/2000/svg" viewBox="0 0 138 128">
  <g id="Logo">
    <g id="symbol_16_06_0002_01" data-name="symbol 16 06 0002 01">
      <rect id="_사각형_206" data-name="사각형 206" width="138" height="128" fill="none"/>
      <path id="_패스_575" data-name="패스 575" d="M136.6,27.21c-.04-.51-.44-1.38-.77-1.42-1.91-.3-3.85-.45-5.79-.45-12.95,.25-24.46-3.19-33.49-13-.56-.78-.94-1.66-1.11-2.6-.35-1.78-.82-3.54-1.39-5.26-1.42-3.28-2.22-3.46-4.8-1.03-12.51,11.81-27.73,15.6-44.38,15.31-6.23-.11-12.46-.25-18.68-.29-3.07-.02-3.83,1.25-2.63,4.12,.29,.8,.65,1.57,1.07,2.3,1.22,1.85,.57,3.29-1.05,4.3-6.32,3.94-12.62,7.94-19.09,11.65-3.25,1.87-3.44,1.78-1.22,4.95-.32,.45-.64,.91-1.1,1.57,1.14,.27,2.02,.5,2.91,.67,7.54,1.49,15.09,2.96,22.63,4.48,.64,.13,1.56,.46,1.75,.94,1,2.52,6.43,4.42,8.06,2.37,.49-.64,1.1-1.16,1.79-1.56-6.01,6.04-9.84,13.59-12.1,22.26l-.34-.15,2.8-10.15c-.7,1.36-1.19,2.78-1.82,4.14-.84,1.82-.64,4.08-2.46,5.52-.49,.57-.75,1.29-.76,2.03-.15,1.74-.2,3.49-.16,5.23,.17,6.02,1.58,11.94,4.15,17.39,3.35,7.62,8.77,14.15,15.65,18.84,3.55,2.33,7.38,4.22,11.39,5.62,1.29,.41,2.61,.75,3.94,1.03,.39,.09,.79,.15,1.19,.16,2.32,.1,4.65,.23,6.98,.27,1.2,.02,2.4-.03,3.6-.08l-2.49-.09c0-.12-.01-.25-.02-.37,4.97-.17,9.85-1.29,14.39-3.32,6.62-3.17,11.29-6.92,11.86-8.31-2.23,1.56-4.66,3.17-6.99,4.92-2.44,1.65-5.13,2.9-7.96,3.71,2.74-1.52,5.65-2.74,8.3-4.73l-.59,.12c.01-.18,.1-.35,.24-.47,1.32-1.19,2.65-2.37,3.95-3.58,.29-.23,.49-.55,.57-.91,.01-.92,.46-1.78,1.2-2.31,.48-.31,.61-.96,.3-1.44-.03-.05-.07-.09-.11-.14-.68,.34-1.2,.7-1.15,1.56,.02,.34-.09,.68-.32,.94-.75,.66-1.63,1.18-2.36,1.85-2.77,2.34-5.84,4.28-9.14,5.78-1.34,.68-2.78,1.17-4.17,1.74,1.38-.82,2.86-1.4,4.24-2.18,1.34-.77,2.57-1.74,3.85-2.62-7.85,4.56-16.12,6.6-25.14,4.88,2.42-.21,4.88,1.04,7.3-.22-.24-.07-.47,.04-.71,.05-4.07,.08-8.11-.66-11.89-2.19-6.33-2.42-11.89-6.5-16.09-11.81-2.85-3.38-4.87-7.37-5.89-11.67-.1-.5,.06-1.21-.79-1.33-.1-.01-.17-.43-.19-.67-.04-.36,.01-.74-.06-1.09-.94-4.59-.71-9.34,.68-13.81,1.64-5.56,4.66-10.41,8.02-15.06,.31-.37,.65-.72,1.02-1.04-4.4,6.39-8.56,12.83-9.17,20.86,.18-.51,.32-1.03,.43-1.56,.53-2.05,.93-4.15,1.64-6.14,1.5-3.78,3.66-7.27,6.37-10.29,1.99-2.56,4.28-4.87,6.83-6.88,2.3-1.76,4.81-3.23,7.47-4.38,.71,.27,1.01,.9,1.27,1.91,1.07,4.24,1.2,4.36,5.48,3.63,4.03-.68,4.07-.02,2.89-4.34-.14-.51-.21-1.04-.46-2.33,4.2,0,8.09,0,11.98,0,1.44-.1,2.74,.83,3.12,2.22,.55,1.52,1.78,2.62,3.38,2.12,1.28-.4,2.49-.99,3.59-1.76,.77,.58,1.46,1.26,2.06,2.01,1.31,1.61,2.92,2.99,3.65,5.03,.05,.13,.24,.21,.37,.32l.17-.12c-.64-1.17-1.27-2.33-1.91-3.5l.3-.18,3.54,5.58c-.12-.62-.2-1.05-.27-1.48l.25-.03c1.17,4.32,3.46,8.4,2.57,13.17,2.12-2.63,.56-5.52,.81-8.32l1.18,2.07c.16-1.04-.68-1.97-.09-2.93,.18,.34,.21,.71,.35,1.04,.32,.76,.71,1.49,1.04,2.25,.08,.19,.12,.58,.05,.61-.65,.31-.27,.79-.14,1.11,.7,2.04,.87,4.22,.51,6.35-.05,.18-.13,.34-.25,.48-.72,1.18-1.5,2.33-2.16,3.55-.32,.61-.93,1.02-1.61,1.07-.39,.08-.73,.3-.96,.61-.5,.75-.84,1.61-1.32,2.37-2.01,3.35-2.9,7.26-2.54,11.15,.04,1.96,1.47,3.61,3.41,3.94,1.29,.28,2.6,.47,3.91,.58,.67,.03,1.3,.39,1.87,.32,1.91-.22,3.62-1.3,4.64-2.94,.6-.9,1.37-1.68,2.02-2.55,.81-.85,1.47-1.83,1.96-2.9,.68-2.26,1.03-4.62,1.49-6.95,.19-.82,.3-1.65,.35-2.49,.06-2.31-.05-4.62,.08-6.92,.35-7-1.17-13.96-4.41-20.17-.57-1.05-1.23-2.05-1.98-2.99-1.93-2.55-4.22-4.83-6.37-7.21h0c2.24,3.11,4.55,6.27,6.79,9.48,.36,.64,.64,1.32,.85,2.02l-.3,.24c-2.15-4.77-5.39-8.96-9.47-12.23,.38-.15,.76-.29,1.14-.44,1.57-.64,3.35-.51,4.8,.37,3.97,2.08,4.88,1.79,7.29-2.11,.52-1.11,.98-2.24,1.38-3.4,.29-.92,.81-1.76,1.5-2.43,3.12-2.07,6.36-3.94,9.56-5.89,.02,.34,.05,.68,.08,1.02,1.16,.44,2.35,.81,3.55,1.11,.92,.06,1.84,.07,2.76,.04,3.96,.52,7.58-2.27,8.1-6.23,.08-.62,.08-1.24,0-1.86ZM36.17,105.54c-2.08-3.16-3.58-6.66-4.42-10.35,1.47,3.43,3.01,7.04,4.42,10.35Zm8.08-63.87c1.12-3.85,1.58-7.85,1.36-11.85-.22-4.77,2.72-6.94,8.91-7,.14,1.23,.3,2.49,.41,3.75,.41,4.53,1.01,9.06,1.12,13.6,0,3.46-.28,6.91-.84,10.32-.41,.89-1.23,1.51-2.2,1.67-3.79,.17-7.6,.08-11.24,.08,.9-3.9,1.51-7.29,2.48-10.57h0Zm-8.46,5.16c-1.89,3.4-4.76,4.52-8.62,3.76-5.35-1.05-10.7-2.11-16.04-3.18l-.42-.66c.52-.25,1.02-.54,1.49-.87,5.68-4.59,11.04-9.57,17.25-13.5,1.93-1.22,3.55-2.94,3.56-5.61,.11-.66,.53-1.23,1.14-1.51,2.26-.61,4.58-1.02,7.45-1.62-1.13,8.46-1.94,16.22-5.8,23.18h0Zm-6.05,27.7c.55-2.98,1.55-5.87,2.97-8.55l.3,.12-3.27,8.43Zm8.72-16.27c-.63,.85-1.38,1.61-2,2.46-.89,1.23-1.71,2.52-2.56,3.78,1.47-3.41,3.65-6.47,6.4-8.97-.65,.99-1.2,1.89-1.83,2.73h0Zm26.37-6.97c-.46,.02-1.3-1.11-1.38-1.78-.82-7.04-1.52-14.09-2.28-21.14-.14-1.69-.39-3.36-.76-5.01-.37-1.47,.16-1.98,1.5-2.15,2.89-.37,5.77-.78,8.9-1.21,.76,10.42,1.08,20.87,6.24,30.52-4.28,.3-8.25,.64-12.22,.77h0Zm21.48-2.45c-.83,.11-1.67-.2-2.23-.83-2.92-4.23-5.77-8.51-8.45-12.9-.58-1.16-.81-2.46-.68-3.76,.18-3.15,.56-6.28,.92-9.42,.48-4.13,.62-4.24,5.04-4.65,.14,.25,.24,.52,.31,.8,.89,9.1,7.03,14.88,13.04,20.73,1.74,1.69,3.57,3.28,5.43,4.97-4.63,1.78-8.97,3.51-13.37,5.05h0Zm25.23-10.98c-2.55,2.26-4.55,2.13-7.51,.84-4.47-1.91-8.32-5.02-11.15-8.97-3.26-4.46-7.23-8.42-9.19-14.02,1.11-.12,2.23,.04,3.04-.39,4.1-2.17,6.92,.3,9.81,2.55,5.39,4.21,10.28,9.11,16.71,11.86,2.18,.93,4.3,1.97,6.47,2.97-2.68,1.65-5.76,3.03-8.16,5.17h0Z" fill="#fff"/>
    </g>
  </g>
</svg>