<?xml version="1.0" encoding="UTF-8"?>
<svg id="_레이어_2" data-name="레이어 2" xmlns="http://www.w3.org/2000/svg" viewBox="0 0 102 102">
  <g id="Logo">
    <g id="symbol_08_03_0006_01" data-name="symbol 08 03 0006 01">
      <path id="_패스_1452" data-name="패스 1452" d="m51.1,72.38h-16.26q-1.19,0-1.19-1.08c0-1.42.02-2.84-.01-4.26-.01-.56.21-.85.83-1.02,2.93-.83,5.84-1.72,8.76-2.55.61-.17.84-.44.84-1.01-.02-3.53,0-7.06-.01-10.6,0-.8-.08-.85-.97-.73-6.55.83-13.09,1.66-19.64,2.48-2.1.26-3.58-.87-3.6-2.72,0-1.01-.01-2.03,0-3.04.12-1.88,1.47-3.45,3.31-3.85,6.03-1.53,12.06-3.06,18.09-4.58.66-.17,1.31-.37,1.97-.49.47,0,.85-.38.85-.85,0-.05,0-.09-.01-.14-.02-4.61-.02-9.22,0-13.83-.08-1.75.55-3.46,1.76-4.74,2.59-2.42,6.48-2.78,9.47-.87,1.86,1.22,2.93,3.34,2.81,5.56,0,4.57.01,9.13-.01,13.7,0,.69.19,1.01,1,1.22,6.6,1.63,13.2,3.31,19.79,4.98,1.92.37,3.34,2.01,3.44,3.97,0,1.03.01,2.07,0,3.1-.04,1.49-1.29,2.67-2.78,2.63-.13,0-.26-.02-.39-.04-1.58-.11-3.14-.36-4.71-.56-5.19-.65-10.38-1.31-15.58-1.97-.56-.07-.75.13-.74.6,0,3.64.01,7.28,0,10.92,0,.52.29.71.79.85,2.92.85,5.83,1.72,8.76,2.56.64.18.9.45.88,1.05-.04,1.51-.04,3.02,0,4.52.01.62-.23.82-.93.82-5.49-.02-10.99-.01-16.48-.01" fill="#fff"/>
      <path id="_패스_1453" data-name="패스 1453" d="m50.98,89.24c-.54,0-.98-.44-.98-.98v-11.05c0-.54.44-.98.98-.98s.98.44.98.98v11.05c0,.54-.44.98-.98.98" fill="#fff"/>
      <path id="_패스_1454" data-name="패스 1454" d="m46.15,86.11c-.47.06-.91-.27-.98-.74v-8.39c.15-.54.71-.86,1.25-.71.34.1.61.36.71.71v8.39c-.07.47-.51.8-.98.74" fill="#fff"/>
      <path id="_패스_1455" data-name="패스 1455" d="m55.99,86.11c-.47.06-.91-.27-.98-.74v-8.39c.15-.54.71-.86,1.25-.71.34.1.61.36.71.71v8.39c-.07.47-.51.8-.98.74" fill="#fff"/>
      <path id="_패스_1456" data-name="패스 1456" d="m51.07,3c26.41-.1,49.15,20.48,48.65,47.47-.23,22.46-17.49,42.49-39.29,47.08C21.23,106.11-10.58,65.67,6.93,29.58,14.92,13.13,32.97,2.81,51.07,3m0,.33C22.24,3.2.68,31.65,6.38,59.36c5.2,28.02,36.06,45.05,62.58,34.3,25.64-10.22,35.08-40.91,22.6-64.83-7.52-15.02-23.46-25.7-40.49-25.49" fill="#fff"/>
      <rect id="_사각형_519" data-name="사각형 519" width="102" height="102" fill="none"/>
    </g>
  </g>
</svg>