<?xml version="1.0" encoding="UTF-8"?>
<svg id="Layer_2" data-name="Layer 2" xmlns="http://www.w3.org/2000/svg" viewBox="0 0 132 132">
  <g id="Logo">
    <g id="symbol_14_03_0002_01" data-name="symbol 14 03 0002 01">
      <path id="_합치기_17" data-name="합치기 17" d="m38.41,98.81c11.46,9.87,27.29,12.94,41.61,8.08l-15.13,8.43,15.13,11.65h-.3c-3.17,0-30.58-.8-41.3-28.16Zm-14.07-40.27c-2.8,14.85,2.45,30.07,13.8,40.04v.02s-14.86-8.88-14.86-8.88l-2.53,18.92s-15.88-25.71,3.58-50.1Zm56.01,48.23c14.26-5,24.82-17.16,27.77-31.98h0s-.26,17.31-.26,17.31l17.65-7.27s-12.11,22.5-38.04,22.5c-2.39,0-4.77-.19-7.13-.55Zm-36.21-40.28c0-12.22,9.91-22.13,22.13-22.13,12.22,0,22.13,9.91,22.13,22.13s-9.91,22.13-22.13,22.13c-12.22,0-22.13-9.91-22.13-22.13h0s0,0,0,0Zm15.31,0c0,3.77,3.05,6.82,6.82,6.82s6.82-3.06,6.82-6.82-3.05-6.82-6.82-6.82c-3.77,0-6.82,3.05-6.82,6.82h0Zm49.49,0c.02-12.29-5.29-23.99-14.54-32.09v-.02s14.86,8.88,14.86,8.88l2.53-18.93s15.88,25.71-3.58,50.11c.49-2.62.74-5.28.74-7.95h0ZM24.65,40.89l-17.65,7.27s14.32-26.61,45.17-21.95c-14.26,5-24.82,17.16-27.77,31.98h0s.26-17.3.26-17.3Zm41.61-17.06c-4.68,0-9.32.76-13.75,2.27l15.13-8.43-15.13-11.66s30.22-.9,41.6,28.17c-7.73-6.69-17.62-10.36-27.84-10.35h0Z" fill="#fff"/>
      <rect id="_사각형_212" data-name="사각형 212" width="132" height="132" fill="none"/>
    </g>
  </g>
</svg>