<?xml version="1.0" encoding="UTF-8"?>
<svg id="_레이어_2" data-name="레이어 2" xmlns="http://www.w3.org/2000/svg" viewBox="0 0 98 155">
  <g id="Logo">
    <g id="symbol_10_01_0003_01" data-name="symbol 10 01 0003 01">
      <path id="_패스_1492" data-name="패스 1492" d="m81.1,149.36c-3.5,1.38-7.22,2.14-10.98,2.25-3.77.11-7.52-.63-10.97-2.15-16.01-7.29-32.01-14.59-48.01-21.9-1.52-.59-2.46-2.11-2.32-3.73-.46-27.03-.95-54.06-1.46-81.09-.12-6.55-.24-13.11-.36-19.66-.06-3.1,1.65-4.26,4.45-2.98,15.47,7.07,30.93,14.17,46.42,21.2,7.08,3.47,15.46,2.99,22.1-1.27.53-.34,1-.75,1.4-1.23,1.64-1.88,1.48-3.52-.41-5.09-.88-.68-1.84-1.24-2.86-1.67-13.72-6.27-27.44-12.54-41.16-18.81-2.72-1.21-5.81-1.27-8.57-.16-.74.26-1.63.58-1.66,1.41-.03.73.9.89,1.49,1.15,13.85,6.34,27.69,12.67,41.54,19,.76.31,1.48.69,2.16,1.15,1.13.78,1.42,2.33.64,3.47-.58.84-1.62,1.24-2.62,1.01-.52-.12-1.02-.29-1.49-.53-14.16-6.46-28.32-12.93-42.47-19.41-.57-.27-1.12-.57-1.65-.9-3.92-2.41-4.11-7.16-.29-9.77,4.79-3.25,9.91-3.41,15.12-1.11,4.76,2.1,9.48,4.31,14.21,6.47,9.07,4.15,18.15,8.29,27.22,12.44,2.4,1.1,4.66,2.45,5.99,4.8,2.14,3.81,1.28,7.89-2.15,10.92-3.31,2.77-7.34,4.53-11.61,5.09-6.03,1.03-12.23.16-17.73-2.5-13.8-6.43-27.68-12.68-41.54-19.01-.34-.16-.7-.27-1.24-.48.03,2.43.06,4.73.1,7.02.53,29.29,1.06,58.59,1.57,87.88-.13,1.25.64,2.41,1.84,2.79,14.79,6.7,29.57,13.44,44.32,20.22,6.44,3.19,14.03,3,20.3-.5,4.67-2.5,7.46-6.7,9.28-11.59.85-2.31,1.25-4.77,1.18-7.23-.48-26.07-.96-52.13-1.43-78.2-.05-2.64.76-3.89,2.56-3.9,1.67-.01,2.59,1.31,2.63,3.77.47,26.02.94,52.04,1.42,78.05.14,7.65-2.71,14.07-7.84,19.6-.36.39-.7.79-1.05,1.19l-6.05,3.96" fill="#fff"/>
      <path id="_패스_1493" data-name="패스 1493" d="m45.94,92.4c.54.77.57,1.79.09,2.6-.46.88-1.41,1.39-2.4,1.3-.38-.04-.76-.13-1.11-.28-1.98-.73-1.97-.73-1.93,1.34.13,6.31.28,12.62.37,18.93-.08.82.42,1.59,1.2,1.85,4.75,2.12,9.49,4.28,14.2,6.48,1.07.5,1.2.14,1.17-.84-.19-6.69-.35-13.39-.49-20.09.08-.79-.41-1.52-1.17-1.74-1.03-.4-2.05-.85-3.03-1.36-1.53-.78-2.06-2.09-1.48-3.44.53-1.29,2.01-1.9,3.3-1.37.08.03.15.07.22.11,1.88.76,3.71,1.61,5.56,2.44,1.06.44,1.74,1.48,1.71,2.63.23,9.35.48,18.69.65,28.04.04,2.42-1.87,3.41-4.29,2.31-5.7-2.59-11.4-5.2-17.09-7.81-1.27-.58-2.53-1.18-3.81-1.76-1.11-.44-1.82-1.54-1.77-2.73-.18-9.15-.39-18.31-.54-27.46-.04-2.4,1.68-3.52,3.88-2.62,1.78.73,3.53,1.54,5.29,2.33.59.22,1.1.62,1.45,1.15" fill="#fff"/>
      <path id="_패스_1494" data-name="패스 1494" d="m69.01,134.23c-.47-.78-.69-1.69-.61-2.6-.48-19.66-.95-39.31-1.42-58.97-.08-3.13-.15-6.26-.24-9.39-.12-.87.1-1.75.6-2.47.63-.85,1.72-1.19,2.72-.86,1.12.32,1.87,1.35,1.83,2.51.12,3.32.21,6.65.29,9.97.47,19.32.93,38.64,1.38,57.96.05.87.03,1.74-.04,2.6-.1,1.1-.94,2-2.04,2.15-.93.24-1.91-.12-2.47-.9" fill="#fff"/>
      <path id="_패스_1495" data-name="패스 1495" d="m25.42,115.73c-.36-.67-.53-1.43-.49-2.19-.39-21.62-.79-43.25-1.17-64.88-.03-.62.04-1.25.2-1.85.28-1.08,1.31-1.79,2.41-1.68,1.11-.04,2.09.7,2.36,1.78.14.56.2,1.14.19,1.72.4,21.43.79,42.87,1.18,64.3.07.72,0,1.45-.17,2.15-.24.97-1.08,1.67-2.08,1.74-.95.11-1.88-.3-2.43-1.08" fill="#fff"/>
      <path id="_패스_1496" data-name="패스 1496" d="m57.14,59.49c1.1-.85,2.68-.65,3.53.45.37.48.56,1.08.52,1.68.15,2.98.18,5.96.25,8.94.15,5.96.29,11.93.42,17.89.04.67,0,1.35-.1,2.01-.16,1.21-1.23,2.09-2.45,2.01-1.22.08-2.29-.79-2.46-2-.09-.47-.15-.95-.16-1.43-.22-8.9-.43-17.8-.64-26.7-.03-1.15.08-2.23,1.09-2.86" fill="#fff"/>
      <path id="_패스_1497" data-name="패스 1497" d="m46.35,86.5c-.36-.63-.53-1.36-.48-2.08-.2-8.91-.4-17.82-.6-26.74-.03-1.34.23-2.53,1.58-3.13.95-.44,2.08-.23,2.81.52.85.77.78,1.83.81,2.83.14,5.59.25,11.18.38,16.76.07,3.18.15,6.36.21,9.54.03.53,0,1.06-.12,1.58-.34,1.35-1.71,2.17-3.07,1.83-.63-.16-1.18-.56-1.52-1.11" fill="#fff"/>
      <path id="_패스_1498" data-name="패스 1498" d="m35.51,81.8c-.35-.65-.52-1.39-.48-2.13-.18-8.91-.36-17.82-.53-26.73-.04-2.02.9-3.16,2.53-3.22,1.55-.06,2.62,1.15,2.66,3.11.19,8.91.37,17.82.53,26.73.04,2.02-.63,3.03-2.09,3.31-1.01.19-2.04-.22-2.63-1.06" fill="#fff"/>
      <rect id="_사각형_549" data-name="사각형 549" width="98" height="155" fill="none"/>
    </g>
  </g>
</svg>