<?xml version="1.0" encoding="UTF-8"?>
<svg id="Layer_2" data-name="Layer 2" xmlns="http://www.w3.org/2000/svg" viewBox="0 0 203 135">
  <g id="Logo">
    <g id="symbol_18_01_0002_02" data-name="symbol 18 01 0002 02">
      <path id="_패스_652" data-name="패스 652" d="m40.26,121.02s0-.02.01-.03c-1.59.04-3.15.02-4.68-.08-10.96-.98-16.32-8.34-13.19-19.05,5.91-18.89,26.76-38.93,44.98-53.55.03.02.06.05.08.07-14.95,12.22-28.67,26.12-38.25,42.88-10.67,19.78-4.04,29.78,18.42,24.77,18.08-4.43,34.81-13.16,50.53-23.22.41-.27.83-.53,1.24-.8,4.43-2.86,8.78-5.82,13.05-8.81.27-.2.54-.4.81-.6.74-.55,1.48-1.1,2.22-1.65,4.76-3.56,9.49-7.23,14.11-11.05,1.17-.96,2.33-1.94,3.48-2.93,11.9-10.2,22.84-21.52,31.2-34.71,11.82-19.5,4.76-29.22-17.61-25.38-2.27.45-4.52.96-6.76,1.55-.15-.51-.32-1.03-.49-1.53,6.29-2.01,12.86-3.05,19.47-3.07,11.09.48,16.41,7.76,13.83,18.56-4.73,18.28-22.72,37.76-39.91,52.51-.99.85-1.98,1.69-2.96,2.5-4.85,4.04-9.57,7.67-13.83,10.74-.24.17-.5.35-.75.53-.59.41-1.18.83-1.79,1.26-4.26,2.97-9.06,6.11-14.21,9.21-.32.19-.63.38-.95.57-8.84,5.34-18.08,10-27.63,13.94,11.56-1.02,25.61-1.62,40.79-1.62,39.32,0,71.2,4.02,71.2,8.98H40.26Zm31.26-75.99c3.07-2.38,6.03-4.59,8.77-6.59-2.93,2.15-5.83,4.36-8.72,6.63l-.05-.04Zm25.58-17.78v.16c-5.75,3.49-11.35,7.21-16.8,11.03,4.87-3.46,10.59-7.33,16.8-11.19h0Zm3.35-2.05c3.55-2.15,7.24-4.26,11-6.29v.49c-3.72,1.89-7.39,3.89-11.01,6.01v-.22h0Zm16.86-9.32c6.27-3.17,12.76-5.89,19.42-8.13.15.47.28.95.41,1.45-6.8,1.97-13.43,4.45-19.85,7.42l.02-.73Z" fill="#fff"/>
      <rect id="_사각형_234" data-name="사각형 234" width="203" height="135" fill="none"/>
    </g>
  </g>
</svg>