<?xml version="1.0" encoding="UTF-8"?>
<svg id="_레이어_2" data-name="레이어 2" xmlns="http://www.w3.org/2000/svg" viewBox="0 0 90 81">
  <g id="Logo">
    <g id="symbol_05_01_0006_01" data-name="symbol 05 01 0006 01">
      <path id="_패스_1346" data-name="패스 1346" d="m57.6,54.43c-4.2-6.62-6.22-13.56-5.67-21.06.58-8.32,3.83-16.23,9.28-22.54,3.42-4.02,7.56-7.07,13.13-7.6,5.45-.51,10.45,2.29,12.31,7.11,1.96,5.22.16,11.11-4.39,14.34-3.32,2.24-7.01,3.87-10.89,4.84-8.57,2.36-15.91,12.33-13.18,22.96.24.71,0,1.49-.58,1.95" fill="#fff"/>
      <path id="_패스_1347" data-name="패스 1347" d="m57.31,9.53c-4.41,7.37-9.81,12.93-17.42,16.23-6.84,2.97-13.98,3.51-21.24,2.7-4.75-.48-9.21-2.55-12.65-5.86-3.6-3.17-4.93-8.2-3.36-12.73,1.44-4.52,4.97-7.09,9.66-7.75,3.65-.52,6.91.73,9.96,2.69,2.75,1.77,4.96,4.17,7.53,6.14,7.73,5.92,16.62,5.92,24.36.06.77-.58,1.38-1.53,3.16-1.47" fill="#fff"/>
      <path id="_패스_1348" data-name="패스 1348" d="m56.57,63.92c-2.15-17.17-17.81-31.32-35.15-31.77-2.1-.05-3.1.23-2.93.81.37,1.23,1.67.94,2.56,1.3,6.86,2.81,11.15,7.72,12.57,15.06.87,4.52-.66,8.82-1.18,13.2-.58,4.9-.04,9.55,3.7,13.1,3.55,3.5,8.93,4.36,13.39,2.13,4.55-2.41,7.71-8.6,7.05-13.84" fill="#fff"/>
      <rect id="_사각형_420" data-name="사각형 420" width="90" height="81" fill="none"/>
    </g>
  </g>
</svg>