<?xml version="1.0" encoding="UTF-8"?>
<svg id="Layer_2" data-name="Layer 2" xmlns="http://www.w3.org/2000/svg" viewBox="0 0 101 135">
  <g id="Logo">
    <g id="symbol_10_01_0002_01" data-name="symbol 10 01 0002 01">
      <path id="_합치기_19" data-name="합치기 19" d="m33,124.22c-.93-3.38,1.05-6.87,4.42-7.8,3.38-.93,6.87,1.05,7.8,4.42.93,3.38-1.05,6.87-4.42,7.8-.55.15-1.11.23-1.68.23-2.85,0-5.35-1.9-6.11-4.65Zm-27-9.02c-4.66-4.25-4.12-13.02,1.58-25.38,2.62-5.55,5.67-10.9,9.11-15.98,1.13.51,2.28.96,3.46,1.34-12.29,18.24-16.45,33.06-11.73,37.36,5.01,4.57,20.95-1.93,39.37-17.86,5.51-4.79,10.74-9.91,15.65-15.31,4.28-4.69,8.1-9.33,11.47-13.83,15.93-21.21,21.76-39.2,16.48-44.01-1.83-1.67-5.12-1.86-9.45-.66-5.25,1.46-12.02,4.97-19.61,10.38-.43-1.16-.93-2.3-1.48-3.4,2.67-1.89,5.29-3.58,7.84-5.06,11.77-6.81,20.46-8.16,25.12-3.91s4.12,13.02-1.58,25.38c-3.69,7.72-8.15,15.06-13.29,21.91-4.01,5.43-8.3,10.65-12.85,15.64-5.44,5.99-11.25,11.63-17.41,16.87-5.47,4.72-11.35,8.94-17.56,12.62-3.83,2.31-7.94,4.14-12.22,5.44-1.91.56-3.88.86-5.87.89-2.57.12-5.09-.75-7.03-2.43Zm61.73-15.51c-1.37-1.25-1.47-3.36-.22-4.73,1.25-1.37,3.36-1.47,4.73-.22,1.37,1.25,1.47,3.36.22,4.73-.63.7-1.53,1.09-2.47,1.09-.83,0-1.64-.31-2.25-.87h0Zm11-.51c-1.36-1.24-1.46-3.36-.22-4.72,1.24-1.36,3.36-1.46,4.72-.22,1.36,1.24,1.46,3.36.22,4.72-.63.69-1.53,1.09-2.47,1.09-.83,0-1.63-.31-2.25-.87h0Zm-11.51-10.49c-1.36-1.24-1.46-3.36-.22-4.72,1.24-1.36,3.36-1.46,4.72-.22,1.36,1.24,1.46,3.36.22,4.72-.63.69-1.53,1.09-2.47,1.09-.83,0-1.64-.31-2.25-.87Zm11-.51c-1.36-1.24-1.46-3.36-.21-4.72,1.24-1.36,3.36-1.46,4.72-.21,1.36,1.24,1.46,3.36.21,4.72-.63.69-1.53,1.09-2.47,1.09-.83,0-1.63-.31-2.25-.87h0Zm-43.72-31.24l-.06-.07-1.46-1.75-1.82,1.51c-2.67,2.27-6.67,1.94-8.94-.72-2.27-2.67-1.94-6.67.72-8.94.03-.03.07-.06.1-.08l1.82-1.52-1.51-1.81c-2.3-2.64-2.03-6.64.6-8.95,2.64-2.3,6.64-2.03,8.95.6.07.08.13.16.2.24l1.51,1.82,1.82-1.52c2.67-2.26,6.67-1.93,8.93.74,2.26,2.67,1.93,6.67-.74,8.93-.03.02-.05.04-.08.07l-1.82,1.51.47.57,1.04,1.25c2.21,2.72,1.8,6.71-.92,8.92-2.67,2.18-6.6,1.82-8.83-.81h0ZM60.07,12.23c-1.03-3.72,1.16-7.58,4.88-8.6s7.58,1.16,8.6,4.88c1.03,3.72-1.16,7.58-4.88,8.6-.61.17-1.23.25-1.86.25-3.14,0-5.9-2.1-6.74-5.13Zm19.3-4.07c-.56-2.01.62-4.1,2.64-4.65,2.01-.56,4.1.62,4.65,2.64.56,2.01-.62,4.1-2.64,4.65-.33.09-.67.14-1.01.14-1.7,0-3.19-1.13-3.65-2.77h0Z" fill="#fff"/>
      <rect id="_사각형_243" data-name="사각형 243" width="101" height="135" fill="none"/>
    </g>
  </g>
</svg>