<?xml version="1.0" encoding="UTF-8"?>
<svg id="_레이어_2" data-name="레이어 2" xmlns="http://www.w3.org/2000/svg" viewBox="0 0 257 159">
  <g id="Logo">
    <g id="symbol_10_02_0003_01" data-name="symbol 10 02 0003 01">
      <path id="_패스_1501" data-name="패스 1501" d="m233.4,148.26c-6.77-.07-12.21-5.61-12.14-12.38s5.61-12.21,12.38-12.14c6.64.07,12.02,5.4,12.14,12.04.14,6.76-5.23,12.35-11.99,12.49-.13,0-.26,0-.39,0" fill="#fff"/>
      <path id="_패스_1502" data-name="패스 1502" d="m22.66,29.79c-.85-.8-1.58-1.45-2.24-1.98h0l-3.38-2.97-2.29,2.81c-.06.07-.12.14-.17.21l-.14.18h0c-.81,1.09-1.55,2.24-2.23,3.42-7.27,12.25-6.1,25.58-5.61,38.8v7.37h9.43c7.05,0,14.1,0,21.16,0h2.72c1.33-2,2.93-3.83,4.75-5.42.91-.79,2.06-1.69,7.07-4.71,1.67-1.01,3.88-2.32,6.51-3.82-11.82-11.33-23.68-22.63-35.57-33.88" fill="#fff"/>
      <path id="_패스_1503" data-name="패스 1503" d="m44.67,86.71c-1.29-.74-2.43-1.72-3.37-2.87h-2.95c-10.19.22-18.1.36-22.96.26h-.39c-.62-.02-1.2-.04-1.71-.07-.34-.02-.87-.04-1.47-.01l-5.15-.12v4.95c-1.74,28.25,6.4,40.27,6.4,40.27.81,1.2,5.38,7.75,5.38,7.75l4.05-3.9c2.07-1.99,10.57-10.45,37.35-37.31-5.07-2.97-10.14-5.95-15.19-8.95" fill="#fff"/>
      <path id="_패스_1504" data-name="패스 1504" d="m77.7,25.72c-.03-3.11,0-5.68.01-7.82V7.59h-10.31c-2.1,0-4.6.03-7.63-.02-11.28-.2-22,1.6-31.79,7.68-.55.34-1.05.67-1.49,1h0l-.06.04c-.16.12-.31.24-.46.35l-3.58,2.78,4.36,3.88h0l1.65,1.56c12.25,11.6,24.33,23.37,36.46,35.09,4.26-2.47,8.53-4.93,12.81-7.37,0-4.44,0-8.87,0-13.31h.05c0-4.52.04-9.04,0-13.56" fill="#fff"/>
      <path id="_패스_1505" data-name="패스 1505" d="m77.15,143.72h-.03v-22h.02v-16.42c-3.61-2.06-7.22-4.13-10.82-6.22-24.54,24.28-33.32,33.43-36.19,36.76l-5.58,6.49s4,4.43,4.38,4.83c6.85,7.44,29.18,6.51,43.66,5.9.08,0,.2-.01.3-.02h4.26v-9.31Z" fill="#fff"/>
      <path id="_패스_1506" data-name="패스 1506" d="m130.48,24.93h0l.05-.05,1.61-1.62c.41-.43.84-.83,1.29-1.21l15.82-15.45c-19.83.25-39.67.71-59.5.91-.25,0-.47.02-.7.04h-5.24v10.31h.01c.01,10.43,0,20.86-.01,31.28,2.3-1.29,4.59-2.6,6.89-3.88,6.58-3.67,12.1-.31,12.43,7.19.91-.93,1.82-1.85,2.73-2.78,8.19-8.26,16.39-16.51,24.61-24.75" fill="#fff"/>
      <path id="_패스_1507" data-name="패스 1507" d="m214.3,69.63c.01-.34.01-.69,0-1.06v-4.94c-.05-1.46-.13-3.79-.28-6.65-.19-3.65-.38-6.37-.41-6.61-3.16-27.08-22.13-44.08-49.29-43.93-1.12,0-2.24.03-3.36.03l-25.71,23.66h0c-.38.38-.76.78-1.14,1.17-10.28,10.3-20.56,20.6-30.83,30.91,0,4.71-.02,9.42-.04,14.13,16.08.02,32.15.02,48.23.01,18.2.24,36.51.13,54.94-.35l1.29-.03h6.62v-6.36Z" fill="#fff"/>
      <path id="_패스_1508" data-name="패스 1508" d="m130.43,133.79c-9.14-8.77-18.26-17.56-27.36-26.38-1.1,6.63-6.23,9.05-12.87,5.35-2.19-1.22-4.38-2.46-6.57-3.7,0,4.19,0,8.38,0,12.57h-.12c0,7.36-.04,14.73.01,22.09h-.04v9.32h3.78c.57,0,1.4.01,2.42.02,3.67.03,6.26.03,7.13.03,4.43.01,8.17.23,10.19.2,5.84-.08,17.97,0,44.58.61l-21.17-20.11h0" fill="#fff"/>
      <path id="_패스_1509" data-name="패스 1509" d="m214.45,91.29c-.04-.84-.08-1.57-.13-2.26v-6.52h-11.64v.02c-33.11.26-66.23-.39-99.34.8.02,4.95.04,9.9.02,14.85,10.5,10.39,20.99,20.79,31.47,31.19.83.83.82.73,2.02,1.82,10.19,9.21,17.58,16.51,22.44,21.46,1.98-.09,4.79-.27,8.13-.69,4.74-.59,11.44-1.23,17.43-3.81,6.56-2.87,12.41-7.14,17.16-12.5,11.68-12.89,13.22-28.16,12.43-44.37" fill="#fff"/>
      <rect id="_사각형_551" data-name="사각형 551" width="257" height="159" fill="none"/>
    </g>
  </g>
</svg>