<?xml version="1.0" encoding="UTF-8"?>
<svg id="Layer_2" data-name="Layer 2" xmlns="http://www.w3.org/2000/svg" viewBox="0 0 200 200">
  <g id="Logo">
    <g id="symbol_16_05_0003_01" data-name="symbol 16 05 0003 01">
      <path id="_패스_1416" data-name="패스 1416" d="m167.26,45.56H32.92c-12.11,0-21.92,9.82-21.92,21.92v74.06c0,12.11,9.82,21.92,21.92,21.92h31.77v-33.26c0-4.03,1.1-7.98,3.2-11.41v-50.37c.73-1.37,2.23-2.16,3.78-1.98,21.59.04,43.18.05,64.78.03,2.87,0,3.74.87,3.74,3.73,0,8.9,0,17.79,0,26.69v1.63c3.02-.25,5.87-.48,8.72-.73,9.09-.8,18.18-1.6,27.26-2.4,4.34-.38,8.68-.76,13.01-1.14v-26.78c0-12.11-9.82-21.92-21.92-21.92" fill="#fff"/>
      <path id="_패스_1417" data-name="패스 1417" d="m104,98.77c1.45-.08,2.59-1.27,2.61-2.72.16-1.5-.9-2.86-2.4-3.07-1.63-.15-3.29-.03-4.95-.03v5.85c1.63,0,3.19.07,4.74-.02" fill="#fff"/>
      <path id="_패스_1418" data-name="패스 1418" d="m105.92,104.62c-2.18-.22-4.39-.05-6.67-.05v7.78h4.73c.42,0,.83,0,1.25-.04,1.98-.15,3.53-1.74,3.63-3.72,0-.1,0-.21,0-.31.07-1.78-1.18-3.34-2.93-3.66" fill="#fff"/>
      <path id="_패스_1419" data-name="패스 1419" d="m134.62,131.61c-.57-7.78-1.14-15.56-1.75-23.33-.13-1.64-.25-3.28-.38-4.91-.16-1.98-.03-3.63,2.05-4.37v-26.87h-60.99v61.02h61.08c0-.62.03-1.08,0-1.54m-21.88-17.81c-1.7,2.5-4.51,4.02-7.53,4.07-2.87.1-5.74.06-8.61.04-1.48.16-2.81-.92-2.97-2.4-.02-.18-.02-.36,0-.53,0-2.23-.01-4.46-.01-6.7-.01-6.01,0-12.02.02-18.02-.12-1.49.98-2.79,2.46-2.92.18-.01.35-.01.53,0,2.27-.03,4.54-.02,6.8,0,4.7-.14,8.63,3.56,8.77,8.26.05,1.61-.36,3.21-1.19,4.6-.09.16-.17.32-.29.55,2.28,1.85,3.63,4.6,3.71,7.53.03,1.97-.56,3.91-1.69,5.52" fill="#fff"/>
      <rect id="_사각형_692" data-name="사각형 692" width="200" height="200" fill="none"/>
    </g>
  </g>
</svg>