<?xml version="1.0" encoding="UTF-8"?>
<svg id="_레이어_2" data-name="레이어 2" xmlns="http://www.w3.org/2000/svg" viewBox="0 0 133 94">
  <g id="Logo">
    <g id="symbol_18_01_0006_01" data-name="symbol 18 01 0006 01">
      <path id="_패스_1212" data-name="패스 1212" d="m4.79,89.62h13.73v-26.24l.88-.23c.98,2.95,1.96,5.89,2.94,8.84.7,2.13,1.39,4.26,2.07,6.4q4.02,12.59,17.43,11.1c-1.3-4.18-2.56-8.28-3.86-12.37-3.3-10.41-6.69-20.79-9.87-31.24-.81-2.67-1.9-3.9-4.78-3.78-5.98.25-11.99.08-18.54.08v47.44h0Z" fill="#fff"/>
      <path id="_패스_1213" data-name="패스 1213" d="m33.82,42.17c5.18,16.26,10.14,31.85,15.11,47.46h13.87c-1.02-3.32-1.9-6.29-2.84-9.24-3.7-11.67-7.49-23.31-11.07-35.02-.75-2.46-1.88-3.36-4.27-3.24-3.38.16-6.78.04-10.8.04" fill="#fff"/>
      <path id="_패스_1214" data-name="패스 1214" d="m127.09,23.48c.15-2.5-1.01-3.69-4.18-4.48-15.07-3.76-30.06-7.73-45.08-11.62-3.8-.98-7.62-1.91-11.89-2.97-4.27,1.07-8.09,1.99-11.89,2.97-15.02,3.88-30,7.86-45.08,11.62-3.16.79-4.32,1.98-4.18,4.48.21,3.55.05,7.11.05,11.33l61.09-15.85,61.09,15.85c0-4.22-.15-7.78.05-11.33" fill="#fff"/>
      <path id="_패스_1215" data-name="패스 1215" d="m127.1,89.62h-13.73v-26.24l-.88-.23c-.98,2.95-1.96,5.89-2.94,8.84-.7,2.13-1.39,4.26-2.07,6.4q-4.02,12.59-17.43,11.1c1.3-4.18,2.56-8.28,3.85-12.37,3.3-10.41,6.69-20.79,9.87-31.24.81-2.67,1.9-3.9,4.78-3.78,5.98.25,11.99.08,18.54.08v47.44h0Z" fill="#fff"/>
      <path id="_패스_1216" data-name="패스 1216" d="m98.06,42.17c-5.18,16.26-10.14,31.85-15.11,47.46h-13.87c1.02-3.32,1.9-6.29,2.84-9.24,3.7-11.67,7.49-23.31,11.07-35.02.75-2.46,1.88-3.36,4.27-3.24,3.38.16,6.78.04,10.8.04" fill="#fff"/>
      <path id="_패스_1217" data-name="패스 1217" d="m65.87,25.09l-8.97,12.84,9.05,22.64,8.82-22.13-8.9-13.35" fill="#fff"/>
      <rect id="_사각형_607" data-name="사각형 607" width="133" height="94" fill="none"/>
    </g>
  </g>
</svg>