<?xml version="1.0" encoding="UTF-8"?>
<svg id="_레이어_2" data-name="레이어 2" xmlns="http://www.w3.org/2000/svg" viewBox="0 0 107 98">
  <g id="Logo">
    <g id="symbol_21_02_0001_01" data-name="symbol 21 02 0001 01">
      <rect id="_사각형_179" data-name="사각형 179" width="107" height="98" fill="none"/>
      <path id="_패스_505" data-name="패스 505" d="M58.23,64.97c-7.85,2.22-15.85,3.86-23.94,4.91-6.43,.84-12.9,1.32-19.38,1.43,1.35,3.09,3.11,5.99,5.22,8.62l-1.46,14.76c-.1,1,.63,1.89,1.63,2,.28,.03,.56,0,.83-.11l12.93-4.93c2.78,1.5,5.71,2.7,8.74,3.58,4.05,1.09,8.22,1.68,12.41,1.75,13.73,.15,26.84-5.76,35.82-16.15,8.77-11.51,8.5-24.81,8.43-28.26-.04-2-.21-3.99-.52-5.97-12.64,8.01-26.34,14.2-40.71,18.38Z" fill="#fff"/>
      <path id="_패스_506" data-name="패스 506" d="M106.23,35.57c-.29-.9-2.31-1.99-3.68-2.45-1.73-.45-3.51-.68-5.29-.67-.27,0-.49,0-.55,0-.35,.01-.71,.06-1.05,.13-.32,.06-.62,.17-.9,.33h0l-.28-.55C87.57,13.88,70.72,1.27,52.63,1.38,27.59,1.53,7.43,21.13,7.67,46.08c.04,3.86,.58,7.7,1.6,11.43-.15,.08-.31,.17-.48,.27-3.9,2.26-7.56,6.46-7.19,8,.88,3.64,26.93,3.33,55.26-4.85,28.57-8.25,50.53-21.78,49.36-25.35Zm-26.4-16.17c-4.09,2.55-7.76-.04-8.87-6.52l8.87,6.52ZM17.06,60.44l-.19,.02h0c-.25,.02-.49,.04-.74,.06-2.37-5.74-3.34-11.96-2.83-18.15,2.47,6.34,4.8,7.94,6.58,8.08,2.07,.16,3.35-1.67,8.58-4.48,1.78-.96,3.62-1.81,5.5-2.56,.28,0,.64,.02,.75,.23,.56,1.07-6.89,4.2-9.59,9.85-.89,1.93-1.27,4.06-1.09,6.18-2.21,.28-4.43,.53-6.65,.74-.11,0-.21,.02-.32,.03h0Zm13.07-1.63c-.07-2.95,1.72-5.61,3.76-7.74s4.41-3.97,6.02-6.44c1.04-1.35,1.4-3.09,.99-4.74-.69-1.91-2.97-2.85-4.99-2.65-2,.35-3.91,1.14-5.57,2.31l-9.42,5.65-4.18-8.73c-.54-.97-.9-2.02-1.06-3.12-.03-1.44,.32-2.87,1.01-4.14,1.49-3.19,3.45-6.15,5.82-8.76,.95-1.04,2.48-3.13,3.82-3.63,1.5-.56,2.58,2.54,3.45,3.64,1.96,2.48,4.75,4.16,7.86,4.73,3.72,.67,7.57-.31,11.31,.24,1.35,.14,2.64,.65,3.73,1.48,1.1,1.04,1.9,2.37,2.32,3.83,.62,1.57,.86,3.26,.7,4.94-.42,2.82-2.57,5.05-4.81,6.82s-4.72,3.33-6.31,5.7c-1.34,2.31-2.2,4.87-2.51,7.52-.02,.3-.14,.58-.35,.8-.17,.12-.36,.19-.56,.22-3.66,.8-7.33,1.49-11.03,2.07Zm30.89-7.48c-4.37,1.33-8.77,2.58-13.09,4.06-.54-1.66-.13-3.49,1.07-4.76,1.19-1.23,2.55-2.29,4.03-3.14,3.75-2.53,7.23-6.07,7.94-10.54,.53-3.36-.57-6.77-1.98-9.86-.98-2.14-2.2-4.31-4.18-5.58-4.9-3.14-11.81,.55-17.07-1.96-2.83-1.35-4.58-4.24-5.93-7.08-.18-.37,6.65-3.25,7.29-3.48,2.62-.95,5.32-1.64,8.07-2.06,4.25-.65,10.19-1.25,13.67,1.86,1.23,1.23,2.21,2.68,2.9,4.27,1.31,2.92,2.88,5.72,4.7,8.36,1.51,2.24,3.76,3.87,6.36,4.6,3.37,.72,6.76-.89,9.83-2.46l5.33,11.81c.19,.33,.28,.72,.26,1.1-.12,.43-.38,.8-.73,1.06-5.66,5.08-12.66,8.44-19.81,11.01-2.86,1.02-5.75,1.93-8.65,2.81h0Z" fill="#fff"/>
    </g>
  </g>
</svg>