<?xml version="1.0" encoding="UTF-8"?>
<svg id="_레이어_2" data-name="레이어 2" xmlns="http://www.w3.org/2000/svg" viewBox="0 0 330 153">
  <g id="Logo">
    <g id="symbol_15_03_0002_01" data-name="symbol 15 03 0002 01">
      <rect id="_사각형_189" data-name="사각형 189" width="330" height="153" fill="none"/>
      <path id="_패스_531" data-name="패스 531" d="M321.65,17.02c-14.73-.04-29.47-.01-44.2-.01s-30.03,.07-45.05-.05c-3.43-.03-4.85,1.07-4.71,4.63,.22,5.37,.2,10.77,.02,16.15-.11,3.25,.96,4.51,4.35,4.49,23.37-.11,46.75,.06,70.12-.12,11.76-.09,21.16-7.92,23.97-19.26,1.23-4.95,.62-5.81-4.5-5.82Z" fill="#fff"/>
      <path id="_패스_532" data-name="패스 532" d="M95.17,17.22c-14.62-.01-29.23-.01-43.85,0-14.9,0-29.8,0-44.7,0-4.86,0-5.35,.69-4.27,5.55,2.37,10.78,11.59,18.68,22.6,19.37,5.52,.34,11.06,.24,16.6,.24,17.88,.02,35.76,.01,53.64-.02,5.58,0,5.62-.07,5.63-5.79,.01-4.54,.04-9.08-.01-13.62-.07-5.7-.11-5.72-5.65-5.73Z" fill="#fff"/>
      <path id="_패스_533" data-name="패스 533" d="M96.02,47.31c-10.78,.13-21.56,.05-32.34,.05-10.92,0-21.84,.06-32.76-.03-3.58-.03-4.75,1.26-4.09,4.91,2.27,11.74,12.53,20.23,24.48,20.28,14.89,.17,29.79-.02,44.68,.09,3.24,.02,4.71-1.07,4.65-4.39-.1-5.53-.12-11.07,.03-16.59,.09-3.42-1.46-4.35-4.65-4.32Z" fill="#fff"/>
      <path id="_패스_534" data-name="패스 534" d="M297.23,47.23c-10.62-.03-21.25,0-31.87,0h0c-11.05,.01-22.1,.07-33.15-.02-2.97-.02-4.45,.86-4.36,4.11,.16,5.8,.11,11.62,.02,17.42-.04,2.67,.92,3.83,3.71,3.81,15.72-.1,31.45,.14,47.17-.2,10.9-.24,20.62-8.94,22.83-19.56,1.01-4.84,.5-5.54-4.34-5.55Z" fill="#fff"/>
      <path id="_패스_535" data-name="패스 535" d="M100.63,81.74c.04-3.12-1.33-4.2-4.4-4.13-6.79,.16-13.59,.05-20.39,.05v-.03c-6.66,0-13.31-.02-19.97,0-4.94,.02-5.29,.49-4.3,5.46,2.33,11.24,12.09,19.4,23.57,19.69,7.21,.28,14.44,.02,21.67,.11,2.69,.04,3.87-1.01,3.83-3.75-.09-5.8-.09-11.61,0-17.42Z" fill="#fff"/>
      <path id="_패스_536" data-name="패스 536" d="M273.34,77.52c-6.8,.19-13.62,.05-20.43,.05-6.95,0-13.9,.07-20.85-.04-2.77-.04-4.23,.71-4.16,3.8,.14,5.96,.1,11.92,.03,17.87-.03,2.32,.97,3.53,3.22,3.5,8.51-.13,17.05,.69,25.51-.42,10.26-1.34,18.92-10.16,20.51-20.09,.51-3.19-.19-4.77-3.83-4.67Z" fill="#fff"/>
      <path id="_패스_537" data-name="패스 537" d="M169.77,26.62c-1.44-.74-2.86-1.55-4.28-2.32h-.52c-.35,.23-.69,.49-1.06,.69-9.58,4.97-19.17,9.93-28.75,14.88-1.36,.7-2.7,1.42-4.1,2.15,.18,.25,.26,.4,.37,.53,3.58,4.14,7.14,8.28,10.76,12.38,.42,.39,.97,.61,1.55,.6,14.34,.03,28.68,.03,43.02,0,.65-.03,1.27-.31,1.73-.77,3.09-3.41,6.12-6.89,9.17-10.35,.67-.77,1.34-1.54,2.05-2.36-.46-.26-.79-.46-1.14-.63-9.6-4.93-19.2-9.87-28.8-14.8Z" fill="#fff"/>
      <path id="_패스_538" data-name="패스 538" d="M145.84,61.58c-.06,.22-.09,.44-.11,.67,0,3.57-.14,7.15,.04,10.72,.51,10.61,6.84,17.67,16.96,19.1,10.25,1.64,19.88-5.34,21.52-15.59,.02-.11,.03-.22,.05-.33,.6-4.27,.33-8.67,.45-13.01,.01-.51,0-1.01,0-1.57h-38.9Z" fill="#fff"/>
      <path id="_패스_539" data-name="패스 539" d="M218,13.15c-16.67-3.38-33.28-7.05-49.9-10.66-2.35-.54-4.8-.54-7.15-.01-16.6,3.72-33.19,7.48-49.83,11.02-3.17,.67-4.11,2.08-4.08,5.16,.13,12.59,.05,25.18,.05,37.76h.01c0,11.88-.21,23.77,.05,35.64,.38,16.67,7.74,29.63,22.08,38.27,10.56,6.36,21.45,12.16,32.05,18.46,3.01,1.79,5.29,1.54,8.16-.14,10.02-5.89,20.19-11.5,30.25-17.32,15.4-8.9,23.44-22.29,23.59-40.02,.2-23.76-.04-47.53,.14-71.29,.03-4.18-1.28-6.03-5.43-6.87Zm-15.91,99.79h-21.7v-5.95h21.7v5.95Zm17.31-20.41c.03,7.89-2.3,15.6-6.7,22.15,0-2.38,0-4.75,0-7.13,.01-5.6-2.53-9.47-7.67-11.68-.56-.24-1.12-.48-1.69-.73l-10.84-4.78c-.12-.07-.25-.14-.38-.19-.51-.2-1.01-.42-1.51-.64l-2.78-1.23-18.06,10.71,.1,.3c-.08,.2-.11,.41-.1,.63,.04,2.45,.01,4.9,.01,7.35v36.67c-.43,.25-.86,.49-1.29,.74-1.88,1.32-4.37,1.36-6.29,.11-.29-.17-.58-.33-.87-.5v-37.02c0-2.45-.02-4.9,.01-7.35,.01-.21-.02-.43-.1-.63l.1-.3-18.05-10.71-2.78,1.23c-.5,.22-1,.44-1.51,.64-.13,.05-.26,.12-.38,.19l-10.86,4.78c-.57,.25-1.13,.49-1.69,.73-5.14,2.21-7.68,6.07-7.67,11.68,0,2.69,0,5.39,0,8.08-4.78-6.6-7.26-14.53-7.42-23.64-.2-11.31-.04-22.63-.04-33.94h-.06c0-12.02,.07-24.04-.05-36.06-.03-3.19,.96-4.82,4.3-5.52,15.54-3.26,31.02-6.74,46.52-10.19,2.23-.44,4.53-.38,6.73,.18,15.65,3.39,31.29,6.83,46.97,10.1,3.07,.64,4.19,2,4.18,5.13-.1,23.61,.2,47.23-.15,70.85Z" fill="#fff"/>
    </g>
  </g>
</svg>