<?xml version="1.0" encoding="UTF-8"?>
<svg id="Layer_2" data-name="Layer 2" xmlns="http://www.w3.org/2000/svg" viewBox="0 0 178 150">
  <g id="Logo">
    <g>
      <path d="m36.72,105.98c11.55,4.26,22.24,7.95,32.73,12.15,7.47,2.99,13.04,1.41,19.7-3.43,26.35-19.19,53.32-37.5,80.08-56.11,1.17-.81,2.45-1.47,3.67-2.2.24.29.48.58.72.87-6.76,6.67-13.57,13.28-20.27,20.02-21.64,21.76-43.24,43.55-64.85,65.34-6.6,6.65-8.56,6.69-15.21.05-12.02-12.02-24.01-24.08-36.58-36.68Z" fill="#fff"/>
      <path d="m172.3,3.18c-.08-.02-.27-.07-.52-.11-1.14-.15-2.06.26-2.19.31-1.07.41-55.08,17.12-130.71,40.5,1.42.18,3.38.66,5.68,1.4,7.85,2.52,12.36,7.99,13.57,16.12,1.47,9.89-7.6,17.01-9.4,18.43-9.24,7.25-20.52,5.24-22.92,4.81-13.39-2.39-21.54-12.76-22.08-12.1-.49.59,7.4,7.43,13.7,13.72,6.11,6.09,13.62,8.89,22.4,9.7,3.33-.05,5.83-.68,7.51-1.25,2.05-.7,7.95-3.43,5.98-2.52h0c-3.65,1.49,55.48-25.61,57.76-26.54,31.71-12.8,34.75-15.66,47.94-21.93,14.44-6.86,20.94-23.19,15.62-37.66-.59-1.6-1.29-2.55-2.35-2.88Z" fill="#fff"/>
      <rect width="178" height="150" fill="none"/>
    </g>
  </g>
</svg>