<?xml version="1.0" encoding="UTF-8"?>
<svg id="Layer_2" data-name="Layer 2" xmlns="http://www.w3.org/2000/svg" viewBox="0 0 216 216">
  <g id="Logo">
    <g id="symbol_18_03_0002_02" data-name="symbol 18 03 0002 02">
      <path id="_합치기_23" data-name="합치기 23" d="m10,108.01c.01-54.13,43.9-98,98.03-97.98,54.13.01,98,43.9,97.98,98.03,0,37.72-21.67,72.09-55.69,88.38-1.2.58-2.42,1.13-3.65,1.65-12.21,5.25-25.37,7.95-38.67,7.93-54.13,0-98.01-43.88-98.01-98.01Zm8.38,0c-.03,25.7,11,50.17,30.28,67.16.03.02.04.04.07.06,16.36,14.46,37.44,22.44,59.28,22.41,9.86,0,19.64-1.61,28.97-4.79,1.79-.62,3.55-1.28,5.29-2,33.51-13.87,55.37-46.57,55.36-82.84,0-49.5-40.14-89.62-89.64-89.62-49.49,0-89.61,40.13-89.62,89.62h0Zm32.28,64.61l21.29-27.21c.81.94,1.68,1.89,2.64,2.87,6.97,7.06,14.54,13.5,22.62,19.27,11.56,8.35,23.55,16.07,35.94,23.13-8.15,2.47-16.62,3.73-25.14,3.72-21.15.03-41.56-7.72-57.36-21.79h0Zm50.97-10.15c-9-6.71-18.47-13.62-26.06-21.68l14.36-18.36.29-.37,19.74-25.23,6.85-18.78,9.19-4.89,19.37-16.04-13.49,20.54-9.78,5.09v19.76l9.19-6.46-14.47,20.93,11.54,44.8,18.78-8.61,3.72-25.82,6.26,24.06,13.3-4.89-5.28-26.21,10.76,20.15,17.08-16.7v.02c-1.44,7.79-3.94,15.35-7.45,22.45-9.62,19.46-26.2,34.6-46.44,42.42-12.57-8.64-25.19-17.2-37.44-26.17h0Zm-73.42-21.27l15.43-20.11,6.85,3.52,15.84-31.1h6.06l7.82-14.09-19.57,45.39-8.41,11.74-7.05-1.17,3.1,35.1c-8.65-8.26-15.5-18.23-20.1-29.28h0Z" fill="#fff"/>
      <rect id="_사각형_250" data-name="사각형 250" width="216" height="216" fill="none"/>
    </g>
  </g>
</svg>