<?xml version="1.0" encoding="UTF-8"?>
<svg id="Layer_2" data-name="Layer 2" xmlns="http://www.w3.org/2000/svg" viewBox="0 0 242 242">
  <g id="Logo">
    <g id="symbol_19_02_0002_02" data-name="symbol 19 02 0002 02">
      <path id="_패스_1504" data-name="패스 1504" d="m109.93,78.53c-5.87-6.12-11.85-12.13-17.94-18.04-2.26-2.22-5.67-2.8-8.53-1.44-2.96,1.09-4.96,3.86-5.08,7.01-.02,1.15.38,2.27,1.13,3.14,10.56,11.31,21.17,22.58,31.84,33.79.47.57,1.05,1.04,1.72,1.37,2.97,1.15,5.99,2.19,9.6,3.48-3.1-8.23-5.89-15.97-8.95-23.6-.89-2.13-2.18-4.08-3.79-5.74" fill="#fff"/>
      <path id="_패스_1505" data-name="패스 1505" d="m194.49,195.71l-12.26-12.24c-7.55-7.52-15.08-15.05-22.6-22.6-.58-.68-1.11-1.4-1.57-2.16l-.74.4c-.03.76-.1,1.52-.1,2.27,0,14.6-.04,29.21.02,43.81.02,4.04-.42,7.88-3.56,11.6,1.01.68,1.98,1.43,2.89,2.24,5.39,5.35,10.77,10.72,16.13,16.1,11.92-8.29,22.32-18.57,30.74-30.4-.88-.9-1.77-1.81-2.66-2.7-2.1-2.1-4.23-4.18-6.3-6.32" fill="#fff"/>
      <path id="_패스_1506" data-name="패스 1506" d="m101.33,7c-22.63-.03-44.84,6.09-64.26,17.73,4.11,4.28,8.21,8.57,12.31,12.86,7.14,7.5,14.26,15.02,21.36,22.56.46.49.89.99,1.51,1.68.45-.87.77-1.51,1.1-2.14,3.77-7.27,12.72-10.1,19.99-6.33,1.18.61,2.27,1.38,3.25,2.28,6.23,5.88,12.42,11.84,18.07,18.26,2.88,3.49,5.18,7.43,6.81,11.65,3.17,7.61,5.81,15.45,8.54,23.24.42,1.41,1.55,2.51,2.97,2.9,8.06,2.87,16.07,5.85,24.1,8.79,4.77,1.76,9.09,4.55,12.65,8.18,6.15,6.18,12.34,12.31,18.48,18.5,8.77,8.82,5.81,21.52-5.96,25.67-.2.07-.39.16-1.22.49l18.22,17.71c2.68,2.65,5.36,5.31,8.02,7.98,36.88-58.52,19.34-135.85-39.18-172.73-19.99-12.6-43.14-19.28-66.76-19.29" fill="#fff"/>
      <path id="_패스_1507" data-name="패스 1507" d="m66.49,135.48c3.48.16,6.43-2.53,6.59-6.01,0-.13,0-.25,0-.38-.02-3.61-2.75-6.25-6.66-6.33-3.2-.06-6.4-.01-9.6-.01-3.27,0-6.55-.05-9.82.01-3.86.08-6.64,2.81-6.62,6.39.03,3.53,2.92,6.36,6.45,6.33.08,0,.16,0,.24,0,6.47.05,12.95.05,19.42,0" fill="#fff"/>
      <path id="_패스_1508" data-name="패스 1508" d="m75.22,142.42c-4.52-.27-9.05-.26-13.57.01-3.29.26-5.74,3.13-5.48,6.42,0,0,0,.01,0,.02.07,3.36,2.77,6.07,6.13,6.14,2,.09,4.01.02,6.02.02h0c2.08.01,4.16.07,6.24,0,3.35-.06,6.09-2.69,6.3-6.03.24-3.37-2.28-6.3-5.64-6.58" fill="#fff"/>
      <path id="_패스_1509" data-name="패스 1509" d="m37.99,96.4c3.2-.21,5.72-2.81,5.83-6.01.15-3.18-2.08-5.99-5.21-6.56l-18.29.11c-2.89.85-4.81,3.59-4.62,6.6.18,3.12,2.64,5.62,5.76,5.85,5.51.16,11.02.16,16.53,0" fill="#fff"/>
      <path id="_패스_1510" data-name="패스 1510" d="m54.97,116.02c3.99-.04,6.8-2.86,6.73-6.54-.07-3.58-2.85-6.22-6.74-6.29-3.2-.06-6.4-.01-9.61-.01-3.28,0-6.55-.04-9.83.01-3.89.07-6.68,2.72-6.76,6.3-.02,3.59,2.86,6.51,6.45,6.54.11,0,.21,0,.32,0,6.48.07,12.96.07,19.44,0" fill="#fff"/>
      <rect id="_사각형_751" data-name="사각형 751" width="242" height="242" fill="none"/>
    </g>
  </g>
</svg>