<?xml version="1.0" encoding="UTF-8"?>
<svg id="_레이어_2" data-name="레이어 2" xmlns="http://www.w3.org/2000/svg" viewBox="0 0 89 89">
  <g id="Logo">
    <g id="symbol_17_03_0003_01" data-name="symbol 17 03 0003 01">
      <path id="_패스_1187" data-name="패스 1187" d="m50.63,48.45s-4.77-.15-7.78-3.16c-.03-.03-.17-.17-.33-.35-2.14-2.41-2.23-5.33-2.38-8.27-.3-5.84-.84-11.17-.84-11.17l-.72-23.18H8.37c-2.88-.08-5.28,2.18-5.36,5.06v37.64c.09,2.88,2.49,5.14,5.36,5.06h29.84v30.53c.09,2.88,2.49,5.14,5.36,5.06h37.18c2.88.08,5.28-2.18,5.37-5.06v-32.1c-12.39.12-20.16.17-35.5-.05" fill="#fff"/>
      <rect id="_사각형_549" data-name="사각형 549" width="89" height="89" fill="none"/>
    </g>
  </g>
</svg>