<?xml version="1.0" encoding="UTF-8"?>
<svg id="Layer_2" data-name="Layer 2" xmlns="http://www.w3.org/2000/svg" viewBox="0 0 148 102">
  <g id="Logo">
    <g id="symbol_03_21_0002_02" data-name="symbol 03 21 0002 02">
      <path id="_패스_879" data-name="패스 879" d="m95.74,40.5l-2.42-11.16h-37.71l-2.42,11.16h42.56Z" fill="#fff"/>
      <path id="_패스_880" data-name="패스 880" d="m92.1,23.76l-1.97-9.05c-10.29-2.61-21.07-2.61-31.36,0l-1.97,9.05h35.29Z" fill="#fff"/>
      <path id="_패스_881" data-name="패스 881" d="m46.95,69.16l-5.01,28.66h65.04l-5.01-28.66h-55.01Z" fill="#fff"/>
      <path id="_패스_882" data-name="패스 882" d="m100.75,63.58l-3.8-17.5h-44.99l-3.8,17.5h52.59Z" fill="#fff"/>
      <path id="_패스_883" data-name="패스 883" d="m6.3,76.61c0-37.64,30.52-68.15,68.16-68.14,37.64,0,68.15,30.52,68.14,68.16,0,7.2-1.14,14.35-3.38,21.19h3.47c11.7-37.69-9.36-77.73-47.05-89.43C57.96-3.32,17.92,17.75,6.22,55.43c-4.29,13.8-4.29,28.58,0,42.39h3.47c-2.25-6.84-3.39-14-3.39-21.21" fill="#fff"/>
      <rect id="_사각형_177" data-name="사각형 177" width="148" height="102" fill="none"/>
    </g>
  </g>
</svg>