<?xml version="1.0" encoding="UTF-8"?>
<svg id="Layer_2" data-name="Layer 2" xmlns="http://www.w3.org/2000/svg" viewBox="0 0 288 288">
  <g id="Logo">
    <g id="symbol_19_03_0004_01" data-name="symbol 19 03 0004 01">
      <path id="_패스_1519" data-name="패스 1519" d="m146.04,255.09c-8.68,0-17.34-.68-25.91-2.06-.08,4.84-.51,9.33-1.55,12.43,18.2,2.89,36.74,2.89,54.94,0-1.04-3.1-1.47-7.59-1.55-12.43-8.57,1.38-17.23,2.07-25.91,2.06" fill="#fff"/>
      <path id="_패스_1520" data-name="패스 1520" d="m263.36,133.49c0-31.97-12.27-60.94-34.54-81.56-21.55-19.95-50.95-30.93-82.78-30.93s-61.24,10.99-82.79,30.93c-22.27,20.62-34.53,49.59-34.53,81.56,0,11.23,1.49,22.41,4.46,33.24-2.93,6.89-4.44,14.3-4.46,21.78,0,21.64,12.56,41.79,35.36,56.75,12.75,8.36,27.9,14.52,44.38,18.24-2.46-4.67-4.54-9.54-6.21-14.55-11.07-3.17-21.61-7.95-31.29-14.18-19.15-12.56-29.7-28.99-29.7-46.27.03-6.46,1.48-12.84,4.25-18.67.64-1.38.76-2.95.33-4.42-3.05-10.37-4.59-21.12-4.58-31.93,0-57.92,44.07-99.96,104.79-99.96s104.79,42.04,104.79,99.96c0,10.81-1.53,21.56-4.58,31.93-.43,1.46-.31,3.04.33,4.42,2.77,5.84,4.22,12.21,4.25,18.67,0,17.27-10.55,33.71-29.7,46.27-9.68,6.23-20.23,11-31.29,14.18-1.67,5.01-3.75,9.88-6.21,14.55,16.49-3.72,31.64-9.88,44.38-18.24,22.8-14.96,35.36-35.11,35.36-56.75-.02-7.49-1.53-14.89-4.46-21.78,2.97-10.83,4.47-22.01,4.46-33.24" fill="#fff"/>
      <path id="_패스_1521" data-name="패스 1521" d="m212.43,207.83c0-21.02-17.04-38.07-38.06-38.07-10.81,0-21.11,4.59-28.33,12.63-14.05-15.64-38.12-16.94-53.76-2.89-15.64,14.05-16.94,38.12-2.89,53.76,7.22,8.04,17.52,12.63,28.33,12.63.78,0,1.55-.03,2.31-.07,9.99-.6,19.33-5.11,26.01-12.56,6.68,7.45,16.02,11.96,26.01,12.56.76.05,1.54.07,2.31.07,21.02,0,38.07-17.03,38.07-38.05v-.02m-106.67-2.67c1.85,0,3.34,1.5,3.34,3.34s-1.5,3.34-3.34,3.34-3.34-1.5-3.34-3.34,1.5-3.34,3.34-3.34h0m-14.16,6.69c-1.85,0-3.34-1.5-3.34-3.34,0-1.85,1.5-3.34,3.34-3.34,1.85,0,3.34,1.5,3.34,3.34h0c0,1.85-1.5,3.34-3.34,3.34m3.34-15.81c0-1.85,1.5-3.34,3.34-3.34s3.34,1.5,3.34,3.34-1.5,3.34-3.34,3.34-3.34-1.5-3.34-3.34h0m51.09,7.24c-7.35,0-13.3-3.9-13.3-8.7s5.96-8.71,13.3-8.71,13.3,3.9,13.3,8.71-5.96,8.7-13.3,8.7m54.43,1.88c1.85,0,3.34,1.5,3.34,3.34,0,1.85-1.5,3.34-3.34,3.34-1.85,0-3.34-1.5-3.34-3.34h0c0-1.85,1.5-3.34,3.34-3.34m-7.48-12.47c1.85,0,3.34,1.5,3.34,3.34s-1.5,3.34-3.34,3.34-3.34-1.5-3.34-3.34,1.5-3.34,3.34-3.34h0m-6.69,12.47c1.85,0,3.34,1.5,3.34,3.34s-1.5,3.34-3.34,3.34-3.34-1.5-3.34-3.34,1.5-3.34,3.34-3.34h0" fill="#fff"/>
      <rect id="_사각형_755" data-name="사각형 755" width="288" height="288" fill="none"/>
    </g>
  </g>
</svg>