<?xml version="1.0" encoding="UTF-8"?>
<svg id="_레이어_2" data-name="레이어 2" xmlns="http://www.w3.org/2000/svg" viewBox="0 0 165 149">
  <g id="Logo">
    <g id="symbol_10_04_0003_02" data-name="symbol 10 04 0003 02">
      <path id="_패스_1565" data-name="패스 1565" d="m4.89,5.58c.96-.65,2.05-.32,3.07-.32,32.42-.02,64.84-.02,97.26,0,7.04,0,14.07.85,20.5,3.64,16.04,6.96,26.53,18.78,30,36.27.88,4.85,1.27,9.77,1.17,14.7-.04,26.49-.02,52.98.05,79.48.01,2.81-.55,3.67-3.55,3.66-28.11-.13-56.23-.08-84.35-.07-1.15,0-2.29.05-3.44.07-4.58-.04-9.17-.25-13.75-.04-2.8.13-3.47-.78-3.46-3.51.1-26.94,0-53.88.1-80.82.04-8.77-.65-17.4-4.92-25.18-2.74-4.99-5.75-9.81-10.04-13.93-5.2-5.04-11.39-8.94-18.19-11.43-3.4-1.26-7.01-1.53-10.47-2.5" fill="#fff"/>
      <rect id="_사각형_589" data-name="사각형 589" width="165" height="149" fill="none"/>
    </g>
  </g>
</svg>