<?xml version="1.0" encoding="UTF-8"?>
<svg id="_레이어_2" data-name="레이어 2" xmlns="http://www.w3.org/2000/svg" viewBox="0 0 253 262">
  <g id="Logo">
    <g id="symbol_04_03_0007_01" data-name="symbol 04 03 0007 01">
      <path id="_패스_1260" data-name="패스 1260" d="m66.67,250.93c-3.76-1.12-7.74-1.76-11.23-3.44-14.69-7.08-22.34-18.96-22.42-35.28-.15-29.34-.04-58.68-.04-88.03v-2.51l-.8-.57c-2.25,2.7-4.65,5.28-7.17,7.74-3.81,3.5-9.73,3.25-13.23-.55-1.18-1.29-1.98-2.88-2.31-4.6-.59-2.59.02-5.31,1.66-7.4.78-1,1.63-1.93,2.54-2.81C45.97,81.25,78.27,49.02,110.57,16.78c11.85-11.82,29.54-11.76,41.29.17,17.43,17.69,34.85,35.38,52.26,53.09,2.33,2.36,3.9,4.96,3.6,8.4-.17,3.5-2.35,6.58-5.59,7.9-3.15,1.52-6.9,1.06-9.59-1.18-.86-.7-1.67-1.46-2.42-2.27-17.14-17.41-34.28-34.83-51.42-52.25-4.86-4.93-10.18-4.96-15.09-.06-23.34,23.3-46.68,46.59-70.04,69.88-1.1.99-1.71,2.42-1.66,3.9.05,35.67.06,71.34.04,107.01,0,12.62,7.96,20.58,20.58,20.59,23.64,0,47.29.02,70.93.04,1.73-.05,3.46.21,5.09.78,3.55,1.28,5.9,4.68,5.82,8.45.19,3.76-1.96,7.24-5.4,8.77-.69.35-1.42.63-2.14.95h-80.19Z" fill="#fff"/>
      <path id="_패스_1261" data-name="패스 1261" d="m207.77,218.19c-5.23,0-9.48-4.22-9.49-9.46s4.22-9.48,9.46-9.49c5.21,0,9.45,4.19,9.49,9.4.01,5.24-4.21,9.51-9.46,9.55" fill="#fff"/>
      <path id="_패스_1262" data-name="패스 1262" d="m83.74,153.89l-.02-.02h0c-.35-.37-.7-.74-1.05-1.11-2.48-2.45-3.75-5.86-3.49-9.34.46-3.51,2.43-6.64,5.4-8.57.18-.12.36-.24.59-.39.69-.41,1.33-.89,1.93-1.42,2.61-2.42,3.13-5.78,1.32-8.55-.74-1.16-1.71-2.14-2.86-2.89-1.29-.96-2.93-1.33-4.51-1.03-.1.03-.24.07-.38.12l-.17.05c-.63.18-1.24.42-1.82.72-7.37,4.15-12.47,11.42-13.87,19.77-1.29,7.21.9,14.62,5.91,19.96.39.42.78.83,1.17,1.24l.23.24c1.31,1.37,2.66,2.79,3.82,4.23,3.44,4.26,3.34,9.25-.27,13.34-1.11,1.19-2.32,2.29-3.6,3.29-.38.32-.77.64-1.15.96-3.4,2.88-3.96,7.02-1.42,10.29,1.17,1.59,2.95,2.62,4.91,2.85.23.02.47.04.71.04,1.74-.03,3.42-.67,4.74-1.82l.54-.45c2.57-2.01,4.94-4.27,7.06-6.76,7.66-9.57,7.32-22.3-.85-31.66-.94-1.08-1.92-2.11-2.87-3.1" fill="#fff"/>
      <path id="_패스_1263" data-name="패스 1263" d="m118.07,153.89l-.02-.02h0c-.35-.37-.7-.74-1.05-1.11-2.48-2.45-3.75-5.86-3.49-9.34.46-3.51,2.43-6.64,5.4-8.57.18-.12.36-.24.59-.39.69-.41,1.33-.89,1.93-1.42,2.61-2.42,3.13-5.78,1.32-8.55-.74-1.16-1.71-2.14-2.86-2.89-1.29-.96-2.93-1.33-4.51-1.03-.1.03-.24.07-.38.12l-.17.05c-.63.18-1.24.42-1.82.72-7.37,4.15-12.47,11.42-13.87,19.77-1.29,7.21.9,14.62,5.91,19.96.39.42.78.83,1.17,1.24l.23.24c1.31,1.37,2.66,2.79,3.82,4.23,3.44,4.26,3.34,9.25-.27,13.34-1.11,1.19-2.32,2.29-3.6,3.29-.38.32-.77.64-1.15.96-3.4,2.88-3.96,7.02-1.42,10.29,1.17,1.59,2.95,2.62,4.91,2.85.23.02.47.04.71.04,1.74-.03,3.42-.67,4.74-1.82l.54-.45c2.57-2.01,4.94-4.27,7.06-6.76,7.66-9.57,7.32-22.3-.85-31.66-.94-1.08-1.92-2.11-2.87-3.1" fill="#fff"/>
      <path id="_패스_1264" data-name="패스 1264" d="m152.4,153.89l-.02-.02h0c-.35-.37-.7-.74-1.05-1.11-2.48-2.45-3.75-5.86-3.49-9.34.46-3.51,2.43-6.64,5.4-8.57.18-.12.36-.24.59-.39.69-.41,1.33-.89,1.93-1.42,2.61-2.42,3.13-5.78,1.32-8.55-.74-1.16-1.71-2.14-2.86-2.89-1.29-.96-2.93-1.33-4.51-1.03-.1.03-.24.07-.38.12l-.17.05c-.63.18-1.24.42-1.82.72-7.37,4.15-12.47,11.42-13.87,19.77-1.29,7.21.9,14.62,5.91,19.96.39.42.78.83,1.17,1.24l.23.24c1.31,1.37,2.66,2.79,3.82,4.23,3.44,4.26,3.34,9.25-.27,13.34-1.11,1.19-2.32,2.29-3.6,3.29-.38.32-.77.64-1.15.96-3.4,2.88-3.96,7.02-1.42,10.29,1.17,1.59,2.95,2.62,4.91,2.85.23.02.47.04.71.04,1.74-.03,3.42-.67,4.74-1.82l.54-.45c2.57-2.01,4.94-4.27,7.06-6.76,7.66-9.57,7.32-22.3-.85-31.66-.94-1.08-1.92-2.11-2.87-3.1" fill="#fff"/>
      <path id="_패스_1265" data-name="패스 1265" d="m236.41,180.85l-.04-18.98h-.02v-9.15l-.04-24.07h-.05c-.06-1.02-.09-1.72-.14-2.42-1.07-15.68-14.65-27.53-30.33-26.46-14.91,1.02-26.5,13.4-26.53,28.34-.12,16.68-.06,33.35,0,50.02.06,1.72-.56,3.39-1.73,4.65-16.75,19.19-10.64,49.94,12.27,61.04.33.16,1.61.73,3.31,1.37,5.03,1.85,10.32,2.88,15.68,3.04,5.78-.18,11.44-1.64,16.59-4.28,13.31-6.9,22.51-21.92,21.84-37.02-.55-12.5-7.73-22.18-8.9-23.72-.77-1.02-1.46-1.82-1.94-2.36m-11.03,38.54c-4.28,7.28-13.64,11.23-22.12,9.34-8.46-1.99-14.84-8.97-16.05-17.58-.87-7.36,1.59-13.39,6.9-18.29,2.77-2.42,4.29-5.96,4.15-9.63-.09-18.11-.06-36.22-.03-54.33.01-7.09,5.96-11.73,12.34-9.74,4.08,1.26,6.79,5.1,6.62,9.37.04,9.33.01,18.67.01,28,0,8.78.11,17.56-.05,26.34-.18,3.91,1.45,7.68,4.42,10.24,7.75,7.18,9.11,17.26,3.8,26.3" fill="#fff"/>
      <rect id="_사각형_410" data-name="사각형 410" width="253" height="262" fill="none"/>
    </g>
  </g>
</svg>