<?xml version="1.0" encoding="UTF-8"?>
<svg id="_레이어_2" data-name="레이어 2" xmlns="http://www.w3.org/2000/svg" viewBox="0 0 71 69">
  <g id="Logo">
    <g id="symbol_02_04_0002_01" data-name="symbol 02 04 0002 01">
      <rect id="_사각형_167" data-name="사각형 167" width="71" height="69" fill="none"/>
      <path id="_패스_843" data-name="패스 843" d="M37.52,37.22c-4.32-4.67-9.98-7.89-16.21-9.21-.06,2.38-.12,4.77-.19,7.15,7.86,2.18,13.98,8.35,16.07,16.23l7.62,.2c-1.09-5.36-3.61-10.33-7.3-14.37Z" fill="#fff"/>
      <path id="_패스_844" data-name="패스 844" d="M21.11,37.15l-.36,13.79,14.47,.39c-2-6.8-7.3-12.13-14.1-14.18h0Z" fill="#fff"/>
      <path id="_패스_845" data-name="패스 845" d="M19.4,35.28l.24-6.5c-3.53,2.44-6.51,5.6-8.74,9.26-5.76,9.58-4.39,19.59-3.36,23.94l3.52-3.33c-1.21-5.01-.7-10.28,1.45-14.96,1.57-3.31,3.92-6.19,6.85-8.39,.01-.01,.03-.02,.04-.03Z" fill="#fff"/>
      <path id="_패스_846" data-name="패스 846" d="M12.62,57.09l6.11-5.78c.16-4.49,.33-8.98,.49-13.47-2.12,1.85-3.84,4.12-5.05,6.67-1.81,3.93-2.36,8.33-1.55,12.58Z" fill="#fff"/>
      <path id="_패스_847" data-name="패스 847" d="M33.14,59.47c3.84-1.62,7.46-3.71,10.78-6.23l-6.88-.17c-.07,.12-.16,.23-.28,.31-6.36,4.54-13.98,6.98-21.79,6.98-.94,0-1.88-.04-2.82-.11,0,0-.02,0-.03,0h-.03l-3.06,2.9c8.22,.75,16.49-.51,24.11-3.67Z" fill="#fff"/>
      <path id="_패스_848" data-name="패스 848" d="M18.65,68.62c5.32-.23,14.98-.77,24.49-6.95,3.47-2.26,6.57-5.03,9.2-8.22l-5.43-.13s-.05,.05-.07,.07c-3.91,3.24-8.27,5.89-12.96,7.86-6.43,2.67-13.32,4.04-20.28,4.02-2.07,0-4.14-.12-6.2-.35-.07,0-.14-.03-.21-.05l-2.76,2.61c4.67,.96,9.45,1.35,14.21,1.14Z" fill="#fff"/>
      <path id="_패스_849" data-name="패스 849" d="M44,31.44c-5.85-6.39-13.89-10.35-22.53-11.08-.05,1.9-.1,3.79-.15,5.69h.04c6.74,1.37,12.88,4.82,17.55,9.86,3.98,4.37,6.68,9.74,7.82,15.53,.01,.06,.02,.13,.02,.19l5.74,.15c-.49-7.53-3.47-14.69-8.47-20.35Z" fill="#fff"/>
      <path id="_패스_850" data-name="패스 850" d="M10.68,26.92c-4.11,4.72-7.13,10.28-8.87,16.28-1.88,7.62-1.43,15.62,1.3,22.97l2.92-2.77c-.11-.12-.19-.27-.24-.43-1.09-4.27-2.93-15.34,3.45-25.94,2.62-4.31,6.21-7.95,10.48-10.64,.07-2,.14-4,.22-6-.79,.29-1.57,.63-2.32,1.02-2.64,1.38-4.99,3.24-6.94,5.5Z" fill="#fff"/>
      <path id="_패스_851" data-name="패스 851" d="M22.25,57.65c4.07-.87,7.96-2.45,11.49-4.66l-13.76-.34-6.08,5.76c2.8,.08,5.61-.18,8.35-.76Z" fill="#fff"/>
      <ellipse id="_타원_18" data-name="타원 18" cx="53.63" cy="16.57" rx="4.18" ry="4.17" fill="#fff"/>
      <ellipse id="_타원_19" data-name="타원 19" cx="64.72" cy="21.79" rx="3.05" ry="3.04" fill="#fff"/>
      <ellipse id="_타원_20" data-name="타원 20" cx="64.49" cy="6.35" rx="5.53" ry="5.53" fill="#fff"/>
    </g>
  </g>
</svg>