<?xml version="1.0" encoding="UTF-8"?>
<svg id="Layer_2" data-name="Layer 2" xmlns="http://www.w3.org/2000/svg" viewBox="0 0 126 126">
  <g id="Logo">
    <g id="symbol_17_02_0002_02" data-name="symbol 17 02 0002 02">
      <path id="_패스_630" data-name="패스 630" d="m83.75,118.29c-3.72,0-7.25-1.68-9.59-4.58-4.38-5.29-5.66-11.02-6.59-15.2-1.17-5.26-1.62-5.72-3.2-5.53-1.29.15-1.87,3.45-2.42,6.64-1.21,6.98-3.04,17.53-15.87,18.37-.43.03-.86.04-1.29.04-17.11,0-29.18-22.89-36.87-69.88-3.11-19.01,1.51-33.19,12.68-38.9,9.05-4.63,21.07-2.49,28.6,5.07,13.12,13.19,26.22,14.76,26.35,14.77.98.11,1.71.93,1.71,1.91v14.32c0,1.06-.86,1.92-1.92,1.92h-12.5v8.85h12.5c1.06,0,1.92.86,1.92,1.92h0v12.5h8.85v-12.5c0-1.06.86-1.92,1.92-1.92h12.5v-8.85h-12.5c-1.06,0-1.92-.85-1.92-1.91l-.1-14.3c0-1.06.85-1.93,1.91-1.94h.01c1.06,0,1.92.85,1.92,1.91l.08,12.39h12.51c1.06,0,1.92.86,1.92,1.92v12.7c0,1.06-.86,1.92-1.92,1.92h-12.5v12.5c0,1.06-.86,1.92-1.92,1.92h-12.7c-1.06,0-1.92-.86-1.92-1.92h0v-12.5h-12.5c-1.06,0-1.92-.86-1.91-1.92v-12.7c0-1.06.86-1.92,1.92-1.92h12.5v-10.77c-4.23-.87-15.56-4.15-26.94-15.59-6.38-6.41-16.52-8.25-24.12-4.37-9.58,4.9-13.46,17.6-10.64,34.86,7.4,45.2,18.88,67.6,34.11,66.62,9.81-.64,11.15-8.37,12.33-15.19.83-4.78,1.61-9.31,5.75-9.8,5.38-.64,6.41,4.01,7.42,8.51.9,4.01,2.01,9.01,5.8,13.59,1.81,2.27,4.66,3.46,7.55,3.14,3.22-.33,9.59-2.69,16.04-14.83,8.3-15.63,22.84-59.15,9.54-74.14-6.01-6.77-17.42-6.96-33.92-.58-.99.38-2.1-.11-2.49-1.1-.38-.99.11-2.1,1.1-2.49h0c18.15-7.02,31-6.48,38.18,1.62,15.41,17.36-1.47,64.28-9.02,78.5-5.4,10.17-12.17,16.15-19.05,16.86-.43.04-.87.07-1.31.07" fill="#fff"/>
      <rect id="_사각형_220" data-name="사각형 220" width="126" height="126" fill="none"/>
    </g>
  </g>
</svg>