<?xml version="1.0" encoding="UTF-8"?>
<svg id="Layer_2" data-name="Layer 2" xmlns="http://www.w3.org/2000/svg" viewBox="0 0 306 260">
  <g id="Logo">
    <g id="symbol_01_01_0007_01" data-name="symbol 01 01 0007 01">
      <path id="_패스_1266" data-name="패스 1266" d="m255.32,48.26c-56.35-56.35-147.71-56.35-204.06,0-27.06,27.06-42.26,63.76-42.26,102.03,0,38.03,16.7,74.78,47.01,103.49.24.23.53.4.85.51.62.32,1.36.31,1.97-.02.72-.32,1.42-.69,2.12-1.06,11.64-6.22,23.81-11.39,36.36-15.45,22.72-7.41,46.68-10.27,70.51-8.42,22.66,1.9,44.83,7.74,65.49,17.25,5.17,2.33,10.19,4.97,15.3,7.44.64.33,1.36.46,2.07.37h.06c.14-.03.28-.07.41-.12.01,0,.03-.01.04-.02.11-.04.21-.09.31-.15.17-.09.32-.21.46-.34,29.42-28.01,45.63-64.76,45.63-103.49.1-38.29-15.11-75.03-42.26-102.03m-167.66,51.47c-1.32,0-2.38,1.07-2.38,2.38v13.7c-7.85-8.84-7.11-25.24,2.24-32.82,10.29,8.74,9.9,23.51,2.53,32.42v-13.3c0-1.32-1.07-2.38-2.38-2.38m17.56,35.34c-.9-.96-2.41-1-3.37-.1,0,0,0,0,0,0l-11.72,11.05c0-3.53,1.06-6.99,3.05-9.91,4.87-7.96,12.1-11.76,21.5-11.9,1.15,12-8.95,23.47-20.82,24.84l11.26-10.62c.96-.9,1-2.41.1-3.37,0,0,0,0,0,0m.86,34.29c-.88-.97-2.39-1.05-3.36-.17-6.8,6.15-10.51,9.52-12.56,11.38-.23-3.86,1.2-7.38,3.32-10.71,4.89-7.67,12.03-11.28,21.18-11.41.87,11.48-7.92,23-20.33,24.77,3.54-3.21,8.96-8.12,11.59-10.5.97-.88,1.05-2.39.17-3.36,0,0,0,0,0,0m8.57,23.25c1.01,12.22-9.15,23.38-20.93,24.6l12.25-11.76c.93-.93.94-2.44.01-3.37-.91-.91-2.37-.94-3.31-.07l-12.58,12.08c.27-10.6,11.06-22.64,24.56-21.48m38.88-112.02c-1.31,0-2.38,1.07-2.38,2.38h0v13.61c-7.47-8.7-7.56-24.17,2.57-32.87,9.21,8.74,9.41,23.43,2.19,32.69v-13.43c0-1.31-1.07-2.38-2.38-2.38m48.74,124.84l12.22,11.88c-11.73-.69-22.93-13.02-21.52-24.66,12.62-1.33,23.93,9.92,24.56,20.98l-11.95-11.62c-.94-.92-2.45-.9-3.37.05-.92.94-.9,2.45.05,3.37m.02-68.49l12.83,12.21c-10.9-.32-22.92-10.57-22.17-24.75,11.79-1.18,23.73,9.5,24.57,20.46l-11.95-11.37c-.95-.91-2.45-.89-3.37.06-.91.95-.89,2.45.06,3.37,0,0,.02.02.03.02m17.55-38.85c-1.31,0-2.38,1.07-2.38,2.38v15.19c-7.66-9.03-7.42-24.06,2.23-32.7,10.25,8.68,10.01,23.3,2.53,32.51v-15c0-1.31-1.07-2.38-2.38-2.38h0m29.78,151.3c-7.24-3.49-14.53-6.88-21.81-10.28-1.66-.77-3.99-1.05-4.84-2.33-.86-1.3-.3-3.57-.31-5.41-.02-3.01,0-6.02,0-9.07,1.74-.12,3.19-.12,4.61-.34,15.83-2.45,26.23-15.59,25.2-31.75.1-1.49-1.02-2.78-2.5-2.88-.11,0-.22,0-.33,0-10.33-.49-19.07,2.78-25.75,10.92-.27.34-.56.66-1.07,1.25v-11.1c.75-.05,1.34-.09,1.93-.13,17.04-1.23,28.92-14.95,27.71-32.02-.11-1.59-.78-2.65-2.49-2.76-9.06-.57-17.13,1.75-23.72,8.26-1.14,1.13-2.19,2.35-3.46,3.73v-11.2c2.41-.31,4.73-.42,6.96-.93,14.42-3.25,24.15-16.73,22.71-31.44.04-1.47-1.12-2.69-2.59-2.73-.07,0-.13,0-.2,0-10.25-.49-18.95,2.71-25.64,10.73-.34.41-.73.78-1.37,1.47,0-2.9-.11-5.34.05-7.77.06-1.01.47-1.98,1.16-2.72,11.24-10.62,12.51-30.2-2.36-43.06-.87-.96-2.35-1.03-3.31-.16-.08.07-.15.14-.21.22-1.09,1.05-2.18,2.11-3.2,3.24-5.6,5.95-8.35,14.05-7.53,22.18.62,6.91,3.73,13.36,8.75,18.15.63.62,1.44,1.42,1.5,2.19.19,2.46.07,4.94.07,7.76-.29-.24-.57-.49-.83-.76-6.6-8.39-15.36-11.91-25.88-11.48-2.24.09-3.03.89-3.08,3.18-.02,1.19-.02,2.38.02,3.57.29,13.14,9.48,24.41,22.29,27.34,2.4.56,4.9.72,7.4,1.07v11.01c-.15.01-.24.04-.27.02-.2-.17-.38-.36-.55-.55-6.64-8.35-15.4-11.87-25.93-11.33-2.19.11-2.91.82-2.96,3.06-.03,1.32-.02,2.64.03,3.96.46,13.43,10.17,24.75,23.38,27.25,2.05.39,4.15.52,6.3.79v11c-.25-.21-.48-.43-.71-.66-6.63-8.47-15.46-12-26.04-11.54-2.05.09-2.88.89-2.95,2.91-.04,1.32-.03,2.64.02,3.96.35,13.07,9.48,24.25,22.22,27.2,2.41.56,4.91.72,7.43,1.07v12.7c-19.61-6.98-40.21-10.75-61.02-11.16v-21.59c.55-.06,1-.12,1.45-.15,16.17-.49,28.89-13.99,28.41-30.17-.02-.64-.06-1.28-.12-1.91-.13-1.57-.78-2.65-2.5-2.76-10.42-.65-19.22,2.6-26,10.75-.34.41-.72.79-1.22,1.34v-10.77c.52-.04.91-.09,1.3-.1,14.72-.15,29.68-12.37,28.41-32.13.1-1.4-.96-2.61-2.36-2.71-.07,0-.13,0-.2,0-10.33-.59-19.09,2.61-25.85,10.68-.36.43-.74.83-1.32,1.5v-11.39c.62-.07,1.14-.14,1.66-.17,17.33-1.19,29.1-14.55,28.08-31.87-.1-1.77-.81-2.85-2.72-2.96-10.59-.59-19.44,2.84-26.17,11.25-.3.32-.63.61-.97.89,0-1.85.12-3.37-.03-4.86-.2-1.96.55-3.9,2.01-5.23,11.2-12.03,10.53-30.87-1.51-42.07-.37-.34-.74-.67-1.12-.99-1.38-1.15-2.48-1.08-3.8.1-15.26,13.64-12.96,33.15-1.56,43.74.47.36.79.87.93,1.44.09,2.54.04,5.08.04,8.07-.6-.7-.88-1.02-1.16-1.36-5.47-6.98-13.86-11.04-22.73-10.98-5.91-.06-6.07.09-5.93,6.08.09,14.04,10.24,25.99,24.08,28.34,1.85.34,3.75.41,5.6.6v11.46c-.55-.68-.83-1.03-1.12-1.38-5.49-6.97-13.9-10.99-22.77-10.89-5.75-.05-5.89.1-5.8,5.84.22,14.03,9.46,25.46,23.05,28.39,2.16.47,4.4.58,6.69.87v10.71c-.5-.55-.8-.86-1.07-1.19-5.95-7.19-13.53-10.96-22.92-10.99-5.71-.01-5.85.11-5.75,5.87,0,13.96,9.96,25.93,23.68,28.48,1.98.38,4.01.47,6.02.7v21.55c-20.78.37-41.37,4.12-60.94,11.11v-12.81c.31-.06.61-.1.92-.12,13.8.15,29.6-11.49,28.47-31.87-.1-1.79-.87-2.9-2.72-2.99-10.17-.51-18.84,2.62-25.53,10.53-.29.41-.54.84-.74,1.29l-.44-.41v-10.32l2.04-.17c16.89-1.39,28.57-15.01,27.4-31.92-.12-1.67-.79-2.75-2.61-2.86-10.1-.6-18.72,2.46-25.45,10.23-.4.46-.83.89-1.36,1.46v-11.01c.35-.06.7-.1,1.05-.13,13.79.11,29.57-11.57,28.37-31.96-.11-1.81-.97-2.82-2.81-2.9-10.25-.48-18.95,2.72-25.63,10.75-.3.3-.63.58-.97.83-.31-4.8-.09-8.75,3.47-12.79,9.4-10.67,9-28.39-4.79-40.24-.87-.9-2.3-.92-3.2-.06-.06.06-.11.12-.17.18-1.04,1.01-2.07,2.04-3.07,3.09-10.88,11.46-10.41,29.57,1.04,40.45.14.13.28.26.42.39.38.35.96.77.97,1.18.09,2.64.04,5.29.04,7.94-.35-.03-.67-.22-.86-.52-6.53-8.13-15.12-11.6-25.41-11.22-2.22.08-3.06.93-3.1,3.18-.02,1.06,0,2.11,0,3.17.16,13.22,9.29,24.63,22.14,27.7,2.35.55,4.78.74,7.11,1.09v11.18c-.36-.41-.5-.55-.63-.7-6.59-8.3-15.27-11.82-25.73-11.31-2.03.1-2.83.9-2.89,2.95-.03,1.25-.02,2.51,0,3.76.39,13.42,9.97,24.82,23.12,27.51,2.04.39,4.13.56,6.18.83v11.66c-.65-.78-1.06-1.26-1.46-1.74-5.35-6.72-13.45-10.67-22.05-10.75-5.85-.15-5.86-.09-5.8,5.85.1,13.29,9.27,24.79,22.2,27.85,2.29.54,4.66.72,7.25,1.1,0,4.25-.04,8.59.03,12.93.13,1.05-.54,2.04-1.56,2.31-6.71,2.91-13.39,5.9-20.03,8.96-1.76.81-3.47,1.74-5.18,2.68-28.71-27.66-44.51-62.78-44.51-99.06C13.76,73.36,76.36,10.76,153.29,10.76s139.53,62.59,139.53,139.53c0,36.98-15.33,72.12-43.18,99.1m-11.91-46.12c-.93-.93-2.44-.92-3.37.01,0,0,0,0,0,0l-11.63,11.73c-.64-11.24,13.01-24.15,24.91-22.38.33,12.12-8.37,22.61-20.34,24.54l10.44-10.53c.93-.93.92-2.44-.01-3.37,0,0,0,0,0,0m1.76-36.58c-.94-.92-2.45-.91-3.37.03l-13.27,13.49c.57-10.68,10.87-22.53,24.61-21.53,1.18,10.51-7.55,23.15-20.99,24.64l13.04-13.26c.92-.94.91-2.45-.03-3.37m.17-31.49c-.83-1.02-2.34-1.16-3.35-.33l-13.49,11.08c.43-11.55,12.73-22.84,24.78-21.53.47,12.47-8.71,23.21-21.11,24.68l12.84-10.54c1.02-.83,1.16-2.34.33-3.35m-39.14,34.9l13.55,13.21c-10.76-.82-22.09-11.51-21.02-24.7,12.31-1.02,23.95,9.7,24.46,21.41l-13.67-13.33c-.94-.92-2.45-.9-3.37.04-.92.94-.9,2.45.04,3.37h0m-29.92,13.2c-.93-.93-2.44-.92-3.37,0l-10.6,10.66c.7-11.44,11.97-22.48,24.56-21.3,1.2,10.78-7.9,23.26-21.12,24.6l10.55-10.6c.93-.93.92-2.44,0-3.37,0,0,0,0,0,0m.91-32.36c-.87-.99-2.37-1.09-3.36-.23l-11.56,10.1c.13-9.86,10.1-22.76,24.7-21.79,1.18,11.78-8.85,23.1-20.71,24.63l10.71-9.35c.99-.87,1.09-2.37.23-3.36m-.02-34.49c-.88-.98-2.38-1.07-3.36-.19l-11.59,10.32c.05-11.36,12.59-23.08,24.7-21.84.95,12.18-8.99,23.35-20.7,24.66l10.75-9.59c.98-.87,1.07-2.38.19-3.36,0,0,0,0,0,0m-34.48,2.3l10.39,10.67c-12.82-1.51-21.85-13.18-21-24.53,10.65-2.74,24.16,9.69,24.66,21.46l-10.65-10.93c-.93-.93-2.44-.93-3.37,0-.91.91-.93,2.38-.04,3.32m.14,35.55l10.32,9.06c-12.39-1.46-21.59-12.19-21.14-24.65,13.81-.99,24.25,10.86,24.74,21.48l-10.79-9.47c-.99-.87-2.49-.77-3.36.22s-.77,2.49.22,3.36c0,0,0,0,0,0m-.1,32.4l10.88,10.6c-11.25-.74-22.3-11.39-21.54-24.63,11.68-1.58,23.84,9.43,24.67,21.03l-10.67-10.41c-.94-.92-2.45-.9-3.37.04-.92.94-.9,2.45.04,3.37h0m-68.87-15.68l12.2,12.15c-11.24-1.64-20.91-12.7-19.87-24.6,12.8-.48,24.85,11.11,24.31,22.3l-13.28-13.22c-.93-.93-2.44-.93-3.37,0s-.93,2.44,0,3.37m1.51-32.37l12.08,10.66c-10.55.14-21.91-12.35-21.4-24.86,13.81-.88,23.93,11.11,24.43,21.18l-11.95-10.55c-.97-.89-2.48-.82-3.37.14s-.82,2.48.14,3.37c.02.02.05.04.07.06m-.43,66.57l12.46,12.03c-10.67-.74-22.12-11.04-21.28-24.59,11-1.99,23.58,9.55,24.29,20.87l-12.16-11.74c-.93-.93-2.44-.93-3.37,0s-.93,2.44,0,3.37c.02.02.04.04.07.06" fill="#fff"/>
      <rect id="_사각형_382" data-name="사각형 382" width="306" height="260" fill="none"/>
    </g>
  </g>
</svg>