<?xml version="1.0" encoding="UTF-8"?>
<svg id="_레이어_2" data-name="레이어 2" xmlns="http://www.w3.org/2000/svg" viewBox="0 0 104 138">
  <g id="Logo">
    <g id="symbol_17_04_0004_02" data-name="symbol 17 04 0004 02">
      <path id="_패스_1190" data-name="패스 1190" d="m98.05,78.66c-1.9-8.72-5.75-16.9-11.27-23.92-2.08-2.72-7.63-9.98-9.78-12.79-7.57-9.93-14.93-20.12-22-30.42-.79-1.17-2.12-3.08-3.11-4.24l2.43-.05c-2.61,3.32-6.65,8.82-9.22,12.25-6.64,9.03-16.3,21.86-22.7,30.98-4.4,6.23-8.08,12.95-10.96,20.02-2.73,7-3.65,14.58-2.69,22.03,2.55,16.22,13.42,29.8,29.31,34.51,12.71,3.7,27.8,2.6,39.51-3.68,9.93-5.35,17.18-15.05,20.28-25.83,1.65-6.17,1.71-12.66.18-18.86m.38-.08c1.44,5.64,1.68,11.52.71,17.26-1.58,9.08-5.8,17.48-12.13,24.17-7.83,8.22-19.27,12.38-30.42,12.99-23.86,2.24-45.38-12.4-50.22-36.19-1.24-6.52-1.02-13.24.65-19.66,4.2-15.02,14.62-27.28,23.36-39.84,7.31-10.36,14.19-21.49,21.47-31.89.49-.68,1.43-.84,2.12-.35.12.08.22.19.31.3,1.21,1.36,2.34,2.8,3.38,4.29,9.43,12.81,18.61,26.44,27.28,39.81l2.94,4.49c5.04,7.47,8.62,15.83,10.53,24.64" fill="#fff"/>
      <rect id="_사각형_552" data-name="사각형 552" width="104" height="138" fill="none"/>
    </g>
  </g>
</svg>