<?xml version="1.0" encoding="UTF-8"?>
<svg id="Layer_2" data-name="Layer 2" xmlns="http://www.w3.org/2000/svg" viewBox="0 0 278 278">
  <g id="Logo">
    <g id="symbol_19_05_0003_01" data-name="symbol 19 05 0003 01">
      <path id="_패스_1528" data-name="패스 1528" d="m202.84,228.73c-9.38-3.09-18.66-6.49-27.88-10.03-6.59-2.54-10.6-7.6-12.12-14.47-.57-2.59-.67-5.29-1.08-7.93-.24-1.51.39-2.3,1.64-3.1,12.31-7.86,21.71-18.13,26.64-32.12.31-.68.89-1.2,1.6-1.42,11.37-2.75,17.67-10.13,19.85-21.38.17-.73.6-1.38,1.21-1.81,2.82-1.61,4.58-4.59,4.62-7.84.02-3.63-.36-7.24-1.13-10.79-.65-2.64-.76-5.37-.34-8.06,2.54-14.73.93-29.2-3.35-43.43-6.65-22.11-20.56-37.9-41.79-47.09-9.53-4.12-19.36-5.97-29.58-2.31-.69.15-1.41.08-2.06-.2-5.4-1.85-11.2-2.24-16.8-1.14-12.08,2.14-22.35,7.98-31.65,15.71-12.76,10.59-19.84,24.57-23.76,40.33-3.36,13.51-4.31,27.15-1.43,40.92.07,1.03-.03,2.06-.29,3.06-.57,4.3-1.48,8.59-1.64,12.91-.09,3.09,1.51,5.99,4.19,7.54,1.04.57,1.72,1.63,1.81,2.81,1.62,10.21,9.29,18.4,19.37,20.71.86.23,1.57.83,1.96,1.62,4.74,13.28,13.47,23.35,25.14,30.93,2.56,1.67,3.29,3.33,3.04,6.23-.85,10.19-5.2,17.73-15.25,21.31-1.98.71-3.9,1.58-5.88,2.3-8.9,3.24-17.97,6.09-26.68,9.77-11.74,4.96-18.21,14.9-22.9,26.19-.7,1.28-.23,2.9,1.05,3.6.15.08.31.15.47.2,1.39.66,3.06.06,3.71-1.33.04-.09.08-.18.11-.27.25-.51.37-1.09.66-1.57,2.55-4.21,4.9-8.56,7.75-12.57,5.07-7.13,12.97-9.95,20.77-12.8,8.52-3.11,17.16-5.9,25.57-9.27,8.52-3.42,13.51-10.07,15.43-18.99.52-2.43.8-4.91,1.27-7.83,10.18,5.59,20.39,5.73,30.81-.12.11,1.23.15,1.79.2,2.35.84,8.24,3.24,15.84,10.25,20.93,3.24,2.29,6.76,4.14,10.48,5.51,8.24,3.15,16.65,5.87,24.96,8.84,7.14,2.56,13.66,6.14,18.01,12.62,2.43,3.62,4.48,7.48,6.69,11.24.18.36.33.74.47,1.12.96,2.1,2.56,2.96,4.19,2.1,1.88-.99,1.94-2.58,1.2-4.37-5.7-13.79-14.96-23.82-29.51-28.62m1.77-86.89c-2.17,5.44-6.54,9.7-12.03,11.73.83-4.44,1.44-8.57,2.46-12.6.48-1.22,1.53-2.12,2.8-2.43,2.41-.26,3.54-1.28,3.6-3.79.51.32.91.55,1.29.81,3.2,2.22,3.43,2.71,1.89,6.28m-62.23-118.54c.26-.58,1.24-.97,1.96-1.2,5.79-1.77,12-1.63,17.71.41,21.79,7.09,36.7,21.26,44.03,43.1,4.04,11.92,5.71,24.5,4.93,37.06-.04.57-.09,1.13-.18,1.69-.06.39-.19.78-.36,1.44-1.35-1.47-2.39-2.7-3.53-3.83-.91-1.17-2.6-1.37-3.77-.46-.12.09-.23.19-.33.31-1.34,1.26-1.27,2.72-.11,4.11,1.4,1.68,2.9,3.28,4.22,5.01,3.72,4.87,4.91,10.52,4.52,16.47-.1,1.55-.87,2.98-2.11,3.91-.9.47-3.03-.34-4-1.24-9.76-9.01-19.7-17.86-28.97-27.35-10.41-10.67-20.18-21.95-30.24-32.97-.65-.71-1.26-1.46-1.94-2.24,4.01-6.19,3-12.43.4-18.65-1.4-3.35-3.02-6.62-4.4-9.98-2.3-5.58-.05-10.62,2.17-15.6m-67.04,115.23c0-.65.27-1.27.75-1.7,1.03-.75,2.11-1.43,3.22-2.03.14,2.39,1.23,3.56,3.71,3.73,1.22.26,2.23,1.1,2.71,2.25,1.02,4.11,1.66,8.31,2.45,12.53-5.91-1.48-12.29-8.8-12.86-14.78m5.11-12.51c-1.76,1.56-3.58,3.05-5.43,4.49-2.79,2.18-5.28,1.25-5.66-2.25-.65-4.94.28-9.96,2.67-14.33,1.61-2.61,3.46-5.07,5.52-7.35,1.28-1.54,2.07-2.97.52-4.69-1.32-1.45-2.98-1.2-4.79.69-.94.98-1.82,2.02-2.97,3.29-.2-.86-.35-1.72-.45-2.59-1.09-18.79,2.1-36.71,12.05-52.87,9.5-15.41,23.58-24.86,41.23-28.91,4.26-1.03,8.72-.87,12.9.46-.83,3.44-1.8,6.76-2.39,10.14-.8,4.59.87,8.74,2.71,12.85,1.58,3.36,2.97,6.81,4.18,10.32,1.26,3.53.44,7.47-2.11,10.21-18.45,21.01-36.97,41.96-57.96,60.55m62.39,69.42c-1.66.38-3.38.37-5.03-.05-22.64-6.05-37.37-20.2-43.6-42.88-2.33-8.52-3.52-17.32-3.53-26.15.05-1,.46-1.96,1.15-2.69,4.73-4.78,9.52-9.52,14.4-14.15l7.49-7.72,26.69-29.52,26.91,29.74,7.39,7.63c4.85,4.55,9.55,9.25,14.25,13.95.64.57,1.06,1.35,1.18,2.2-.31,14.71-2.23,29.19-9.79,42.1-8.45,14.44-21.14,23.64-37.52,27.54" fill="#fff"/>
      <path id="_패스_1529" data-name="패스 1529" d="m198.35,190.84c-.03,8.35,6.72,15.13,15.06,15.16s15.13-6.72,15.16-15.06h0c.03-8.35-6.72-15.13-15.06-15.16s-15.13,6.72-15.16,15.06m24.37,0c.06,5.1-4.03,9.29-9.13,9.35-.02,0-.04,0-.05,0-5.03.14-9.22-3.82-9.36-8.85,0-.09,0-.18,0-.27-.06-5.12,4.04-9.33,9.16-9.39s9.33,4.04,9.39,9.16h0" fill="#fff"/>
      <path id="_패스_1530" data-name="패스 1530" d="m36.31,126.74c-7.76-.07-14.11,6.15-14.21,13.9-.03,7.71,6.19,13.99,13.9,14.02,7.71.03,13.99-6.19,14.02-13.9.03-7.64-6.08-13.88-13.71-14.02m-.32,22c-4.42-.03-8-3.61-8.03-8.03-.01-4.49,3.61-8.14,8.1-8.15,4.49-.01,8.14,3.61,8.15,8.1,0,.09,0,.19,0,.28-.09,4.41-3.74,7.9-8.15,7.81-.02,0-.04,0-.07,0" fill="#fff"/>
      <path id="_패스_1531" data-name="패스 1531" d="m245.36,136.52c-5.69.12-10.27,4.71-10.38,10.4-.02,5.76,4.63,10.44,10.38,10.47.03,0,.06,0,.1,0,5.7.06,10.37-4.5,10.43-10.2,0-.08,0-.16,0-.25-.02-5.77-4.72-10.44-10.49-10.42-.02,0-.03,0-.05,0m-.1,15.02c-2.46-.1-4.4-2.13-4.41-4.59.09-2.55,2.18-4.57,4.73-4.58,2.54.07,4.54,2.18,4.47,4.72,0,.02,0,.03,0,.05-.05,2.48-2.11,4.46-4.59,4.41-.07,0-.13,0-.2,0" fill="#fff"/>
      <path id="_패스_1532" data-name="패스 1532" d="m38.65,109.27c5.76.11,10.52-4.47,10.63-10.22,0-.04,0-.08,0-.12.02-5.77-4.63-10.47-10.41-10.5-5.77-.02-10.47,4.63-10.5,10.41-.03,5.71,4.56,10.38,10.27,10.43m.19-15.01c2.55.07,4.58,2.15,4.6,4.7-.06,2.52-2.15,4.52-4.68,4.46-.03,0-.06,0-.09,0-2.47-.04-4.45-2.05-4.45-4.52,0-2.56,2.06-4.64,4.62-4.65" fill="#fff"/>
      <path id="_패스_1533" data-name="패스 1533" d="m243.1,93.54c5.62-.05,10.17-4.58,10.24-10.2-.01-5.62-4.58-10.17-10.2-10.16-5.57-.06-10.13,4.4-10.2,9.97,0,.05,0,.1,0,.16,0,5.63,4.54,10.2,10.16,10.24m-.15-14.53c2.41-.1,4.45,1.77,4.55,4.18,0,.05,0,.09,0,.14-.08,2.37-1.96,4.27-4.33,4.37-2.38,0-4.32-1.89-4.39-4.26-.09-2.35,1.74-4.33,4.1-4.43.02,0,.04,0,.07,0" fill="#fff"/>
      <path id="_패스_1534" data-name="패스 1534" d="m65.68,208.68c4.89.07,8.91-3.83,8.99-8.73.07-4.89-3.83-8.91-8.73-8.99-.03,0-.07,0-.1,0-4.89.04-8.83,4.03-8.79,8.92.03,4.78,3.86,8.67,8.64,8.79m.09-11.84c1.68,0,3.04,1.37,3.04,3.05,0,.08,0,.17-.01.25-.12,1.52-1.4,2.68-2.93,2.65-1.64,0-2.97-1.34-2.97-2.99,0-1.6,1.27-2.91,2.87-2.97" fill="#fff"/>
      <path id="_패스_1535" data-name="패스 1535" d="m153.9,53.29c.81.05,1.61.14,2.41.28,7.13,1.38,13.76,4.64,19.2,9.46,6.97,5.9,13.45,12.38,20.06,18.68,1.84,1.76,3.4,2.24,4.81,1.01,1.39-1.22,1.29-2.93-.41-4.87-1.82-2.07-3.66-4.12-5.59-6.08-7.99-8.12-16.48-15.66-26.93-20.5-4.13-1.91-8.65-2.99-13-4.44-.07.21-.14.42-.21.63-2.81-.09-4.17.83-4.2,2.82-.03,1.92,1.18,2.85,3.86,3.02" fill="#fff"/>
      <path id="_패스_1536" data-name="패스 1536" d="m128.3,53.12c1-.05,1.93-1.47,2.57-1.99-.25-2.72-1.37-3.97-3.24-3.62-4.19.78-8.57,1.3-12.41,2.97-14.14,6.16-24.92,16.69-34.94,28.05-1.1,1.05-1.14,2.8-.09,3.9.02.02.04.04.06.06,1.32,1.51,3.1,1.09,4.97-.75,5.53-5.46,10.85-11.17,16.78-16.16,7.59-6.39,15.8-11.91,26.31-12.47" fill="#fff"/>
      <path id="_패스_1537" data-name="패스 1537" d="m114.44,140.65c-2.85,0-5.16,3.37-5.16,7.54s2.31,7.54,5.16,7.54,5.16-3.38,5.16-7.54-2.31-7.54-5.16-7.54" fill="#fff"/>
      <path id="_패스_1538" data-name="패스 1538" d="m163.56,140.65c-2.85,0-5.16,3.37-5.16,7.54s2.31,7.54,5.16,7.54,5.16-3.38,5.16-7.54-2.31-7.54-5.16-7.54" fill="#fff"/>
      <path id="_패스_1539" data-name="패스 1539" d="m150.07,165.97c-11.29,6.46-19.8.47-20.19.19-1.3-.95-3.13-.67-4.09.63-.94,1.29-.68,3.1.6,4.06,3.9,2.62,8.49,4,13.18,3.97,4.72-.05,9.35-1.36,13.4-3.78,1.42-.76,1.96-2.53,1.21-3.95-.76-1.42-2.53-1.96-3.95-1.21-.05.03-.1.06-.15.09" fill="#fff"/>
      <rect id="_사각형_758" data-name="사각형 758" width="278" height="278" fill="none"/>
    </g>
  </g>
</svg>