<?xml version="1.0" encoding="UTF-8"?>
<svg id="_레이어_2" data-name="레이어 2" xmlns="http://www.w3.org/2000/svg" viewBox="0 0 203 183">
  <g id="Logo">
    <g id="symbol_14_03_0007_01" data-name="symbol 14 03 0007 01">
      <path id="_패스_1142" data-name="패스 1142" d="m138.98,173.07c2.18-.77,4.32-1.61,6.41-2.51-.66,0-1.32-.06-1.98-.15-3.28-.48-4.3.43-4.43,2.66" fill="#fff"/>
      <path id="_패스_1143" data-name="패스 1143" d="m138.94,74.86c.13-4.58.03-9.16.03-14.06-7.47,0-14.11-.06-20.75.03-3.16.04-4.58-.65-3.79-3.94,1.06-4.38-.56-8.62-5.07-10.26-3.66-1.19-7.59-1.23-11.27-.1-4.59,1.53-6.37,5.7-5.35,10.11.77,3.37-.41,4.29-3.98,4.21-6.64-.16-13.3-.05-20.69-.05,0,5.12-.09,9.6.03,14.07.09,3.19-.23,5.05-4.94,4.24-6.73-1.15-12.36,3.33-12.62,9.25-.28,6.25,4.9,11.06,12.01,10.29,4.74-.51,5.79.86,5.62,4.76-.28,6.4-.08,12.82-.08,19.5,7.06,0,13.38.15,19.69-.05,4.12-.13,6.06.32,5.12,4.95-1.21,5.96,4.3,10.84,10.95,10.72,6.38-.12,11.79-5.11,10.52-10.72-1.06-4.7,1.09-5.05,5.12-4.94,6.41.17,12.83.04,19.48.04,0-6.9.2-13.06-.07-19.2-.17-3.96.67-5.68,5.79-5.09,6.94.81,12.06-3.78,11.98-9.81-.08-6.13-5.76-10.82-12.68-9.7-4.61.75-5.14-.98-5.05-4.25" fill="#fff"/>
      <path id="_패스_1144" data-name="패스 1144" d="m144.28,150.88c-4.61.55-5.49-.88-5.36-4.54.23-6.4.06-12.82.06-19.36h-19.84c-1.29,9.9-6.53,15.23-14.98,15.51-8.64.29-13.83-4.61-16.41-15.52h-19.67c0,7.03-.05,13.76.02,20.49.03,2.89-.47,4.58-4.54,3.77-4.27-1.01-8.72.73-11.17,4.38-2.36,2.97-2.45,7.16-.21,10.23,2.24,3.77,6.65,5.69,10.94,4.75,4.42-.82,5.1.88,5.01,4.12,23.2,6.88,47.97,6.31,70.84-1.62.14-2.22,1.15-3.14,4.43-2.66.66.09,1.32.14,1.98.15,3.39-1.45,6.7-3.08,9.92-4.89.88-1.45,1.36-3.11,1.39-4.81.12-6.09-5.33-10.83-12.41-9.98" fill="#fff"/>
      <path id="_패스_1145" data-name="패스 1145" d="m63.83,13.28c-4.25-1.09-8.74.51-11.36,4.04-2.56,3.03-2.77,7.4-.51,10.65,2.45,3.96,6.51,5.69,11.38,4.85,4.17-.72,4.86.89,4.78,4.07-.16,6.56-.05,13.13-.05,19.89h19.74c1.61-10.32,7.11-15.74,15.77-15.78,8.69-.04,14.06,5.26,15.75,15.77h19.63c0-6.23.24-12.21-.08-18.17-.25-4.48.74-6.43,6.52-5.8,5.4.78,10.41-2.96,11.2-8.36.08-.55.11-1.1.1-1.65-.18-5.88-5.93-10.7-12.4-9.56-4.37.77-5.32-.56-5.39-3.45-5.84,3.09-10.71,7.74-14.06,13.43-15.68-3.26-31.87-3.26-47.56,0-2.44-4.19-5.73-7.82-9.66-10.66-.51.88-1.58,1.24-3.81.74" fill="#fff"/>
      <path id="_패스_1146" data-name="패스 1146" d="m18.79,127.08c-.94,4.23.92,7.76,4.98,10.01,3.65,2.16,8.2,2.09,11.79-.17,3.96-2.39,5.67-5.91,4.6-10.15-.82-3.26.75-3.94,3.9-3.89,6.44.1,12.88.03,19.54.03v-19.67c-11.41-1.62-17.34-6.15-17.22-13.87.04-2.96.92-6.85,3.1-8.65,3.77-3.12,8.87-4.94,13.98-7.6v-12.04H15.59c.35.32.7.63,1.07.93-7.63,11.25-11.74,24.51-11.8,38.1,0,7.78,1.37,15.5,4.04,22.82,1.94,0,3.87-.03,5.79-.06,3.48-.07,4.84.84,4.09,4.22" fill="#fff"/>
      <path id="_패스_1147" data-name="패스 1147" d="m159.08,4.76c-5.28-.01-10.52.95-15.45,2.84v1.33c10.92.96,16.9,5.72,17.27,13.44.39,8.34-4.85,12.95-17.36,15.13v19.26h47.09c4.28-5.31,6.63-11.92,6.67-18.75,0-18.36-17.11-33.25-38.22-33.25" fill="#fff"/>
      <path id="_패스_1148" data-name="패스 1148" d="m63.54,37.33c-11.34-1.41-17.43-6.52-17.38-14.37.04-7.44,5.13-12.02,15.64-13.93-5.83-2.83-12.23-4.3-18.72-4.27C21.97,4.76,4.86,19.65,4.86,38.01c.04,6.81,2.38,13.4,6.65,18.71h52.04v-19.39Z" fill="#fff"/>
      <path id="_패스_1149" data-name="패스 1149" d="m63.55,146.73v-19.8h-18.47c-1.36,9.84-5.95,15.04-14.35,15.4-3.27.02-6.5-.73-9.43-2.2-5.66-2.74-7.04-7.95-7.22-13.07h-3.53c7,16,20.05,29.61,36.88,38.95-.66-1.71-.97-3.53-.92-5.36.06-7.79,5.47-12.25,17.05-13.9" fill="#fff"/>
      <path id="_패스_1150" data-name="패스 1150" d="m143.25,70.71c.02,1.33.15,2.66.23,3.93,11.29,1.41,16.92,5.77,17.42,13.27.55,8.35-4.33,12.75-17.45,15.59v19.4c6.53,0,12.51.1,18.48-.04,3.73-.09,6.13.18,4.99,4.65-1.03,4.03,1.15,7.41,5.03,9.55,3.65,2.17,8.21,2.1,11.79-.18,3.74-2.29,5.81-5.71,4.69-9.71-1.12-3.98.9-4.34,4.29-4.29.19,0,.37,0,.56,0,2.66-7.3,4.02-15,4.03-22.77-.06-13.59-4.17-26.85-11.8-38.1.37-.31.73-.63,1.08-.95h-43.35c0,3.39-.02,6.51.01,9.64" fill="#fff"/>
      <path id="_패스_1151" data-name="패스 1151" d="m168.9,139.59c-3.44-3.43-5.55-7.94-8.62-12.61h-17.05v19.4c11.93,1.37,17.63,6.13,17.69,14.29,0,.54-.02,1.09-.08,1.63,8.55-5.53,16.07-12.51,22.21-20.63-1.63.48-3.33.7-5.03.65-3.13-.06-7.23-.85-9.13-2.74" fill="#fff"/>
      <rect id="_사각형_515" data-name="사각형 515" width="203" height="183" fill="none"/>
    </g>
  </g>
</svg>