<?xml version="1.0" encoding="UTF-8"?>
<svg id="_레이어_2" data-name="레이어 2" xmlns="http://www.w3.org/2000/svg" viewBox="0 0 139 110">
  <g id="Logo">
    <g id="symbol_11_03_0003_01" data-name="symbol 11 03 0003 01">
      <rect id="_사각형_268" data-name="사각형 268" width="139" height="110" fill="none"/>
      <path id="_패스_732" data-name="패스 732" d="M37.77,60.9c-15.98,3.37-31.67-6.86-35.04-22.84S9.6,6.39,25.58,3.02c15.98-3.37,31.67,6.86,35.04,22.84,0,0,0,0,0,0v.04c3.32,15.97-6.89,31.61-22.84,35Zm-5.12-14.21c.29,1.38,.56,2.75,.88,4.12,.15,1.16,1.2,1.98,2.36,1.83s1.98-1.2,1.83-2.36c0-.02,0-.04,0-.06-.02-.08-.04-.15-.06-.23-.21-1.12-.43-2.25-.72-3.35-.2-.54,.04-1.14,.57-1.38,3.36-2.12,4.77-6.31,3.38-10.04-1.46-3.86-5.48-6.11-9.54-5.33-2.26,.55-4.54-.84-5.09-3.1-.55-2.26,.84-4.54,3.1-5.09,2.26-.55,4.54,.84,5.09,3.1,0,0,0,0,0,0,.46,1.42,1.4,2.04,2.64,1.72,1.26-.33,1.83-1.46,1.4-2.94-.77-2.66-2.37-4.95-5.03-5.47-2.76-.55-3.29-2.16-3.52-4.38-.03-.26-.09-.52-.17-.77-.24-1.14-1.36-1.86-2.49-1.62-1.14,.24-1.86,1.36-1.62,2.49,.2,1.13,.42,2.25,.71,3.35,.24,.62-.03,1.32-.63,1.6-2.87,1.77-4.34,5.12-3.7,8.42,.77,4.58,5.11,7.67,9.69,6.9l.11-.02c2.98-.49,5.39,1.34,5.36,4.09,0,2.33-1.88,4.22-4.21,4.22-1.95,0-3.64-1.33-4.1-3.22-.18-1.16-1.27-1.95-2.42-1.76-1.16,.18-1.95,1.27-1.76,2.42,.02,.1,.04,.2,.07,.3,.02,.06,.04,.12,.06,.19,.72,2.83,2.9,5.07,5.71,5.88,.66,.22,1.36,.32,2.1,.49h0Z" fill="#fff"/>
      <path id="_패스_739" data-name="패스 739" d="M104.36,102.61c-.02-1.05-.01-2.09,0-3.14v-.73c-.69-.29-1.35-.52-1.95-.84-2.51-1.16-4.19-3.61-4.36-6.38-.01-.06-.02-.12-.02-.18-.05-1.12,.82-2.07,1.95-2.12,0,0,.02,0,.03,0,1.16-.08,2.16,.79,2.25,1.94,0,.03,0,.07,0,.11,.15,2.07,1.83,3.69,3.9,3.76,2.03,.2,3.91-1.09,4.44-3.06,.6-2.46-1.37-4.57-4.39-4.7h-.11c-4.64-.18-8.24-3.79-8.04-8.05,.05-1.74,.75-3.41,1.95-4.67,.93-1.01,2.11-1.76,3.42-2.19,.62-.11,1.05-.7,.95-1.32-.05-1.05-.04-2.1,0-3.15,.11-1.16,1.15-2.01,2.31-1.89,1,.1,1.8,.89,1.89,1.89,.02,.24,.02,.49,0,.73-.23,2.03-.05,3.59,2.54,4.61,1.81,.75,3.13,2.36,3.51,4.29,.13,.52,.22,1.06,.27,1.6,.21,1.08-.5,2.13-1.59,2.34-.13,.03-.26,.04-.4,.04-1.11,.11-2.1-.7-2.21-1.82,0-.08-.01-.16,0-.24-.06-1.28-.75-2.44-1.85-3.09-.71-.44-1.54-.68-2.38-.67-.21,0-.43,.03-.64,.06-1.98,.21-3.5,1.84-3.57,3.83,.02,2.17,1.78,3.74,4.34,3.85,3.97-.05,7.42,2.73,8.22,6.62,.47,3.36-1.35,6.62-4.45,7.99-.31,.15-.62,.28-.95,.39-.54,.09-.92,.59-.85,1.13,.05,1.05,.04,2.1,0,3.15h0s1.52-.4,1.52-.4c7.83-2.1,15.69-4.15,23.53-6.24,.63-1.35,1.15-2.74,1.54-4.18,.57-2.1,.87-4.27,.88-6.45v-.03c0-1.21-.09-2.41-.26-3.61-1.89-13.31-14.25-23.6-29.25-23.63-9.91-.15-19.27,4.58-25.04,12.64-2.97,4.25-4.57,9.3-4.59,14.49,.03,7.2,3.04,14.05,8.32,18.95,1.4,1.33,2.94,2.52,4.58,3.55,5-1.36,9.92-2.69,14.82-4.01-.2-.34-.28-.74-.23-1.14Z" fill="#fff"/>
    </g>
  </g>
</svg>