<?xml version="1.0" encoding="UTF-8"?>
<svg id="_레이어_2" data-name="레이어 2" xmlns="http://www.w3.org/2000/svg" viewBox="0 0 117 150">
  <g id="Logo">
    <g id="symbol_03_02_0002_01" data-name="symbol 03 02 0002 01">
      <path id="_패스_876" data-name="패스 876" d="M110.55,50.73c-1-3.47-2.33-7.07-5.46-9.55-3.21-2.54-7.79-3.49-11.68-5.3-5.32-2.47-9.38-6.69-11.06-11.49-2.31-6.61-1.33-8.63-4.46-13.33-3.97-5.96-11.05-7.93-12.6-8.36C50.47-1.42,35.46,11.02,29.98,15.56c-8.51,7-15.13,16.01-19.28,26.22C2.2,62.34,1.99,84.99,9.12,105.89c3.58,10.49,9.14,20.78,18.36,28.66s22.51,13.09,35.81,12c9.58-.9,18.68-4.65,26.12-10.76,8.37-7,14.75-16.06,18.53-26.3,3.94-10.27,6.04-21.15,6.2-32.15,.12-9-1.09-17.97-3.58-26.61Zm-67.43,8.19c2.29-1.77,5.1-2.75,7.99-2.8,1.87,.01,2.51,.55,2.8,.88,.23,.27,.76,1.05,.35,3.21-.47,2.78-1.85,5.33-3.94,7.23-3.5,3.11-9.59,4.77-11.5,2.48s.73-8.02,4.29-10.99h0Zm11.15,16.15c-.47,2.78-1.85,5.33-3.93,7.23-3.5,3.11-9.59,4.77-11.5,2.48s.73-8.02,4.29-10.99c2.3-1.77,5.1-2.75,7.99-2.8,1.87,.01,2.51,.55,2.8,.88,.23,.28,.75,1.05,.35,3.21h0Zm0,14.64c-.46,2.78-1.85,5.33-3.93,7.23-3.5,3.11-9.59,4.77-11.5,2.48s.73-8.02,4.29-10.99c2.29-1.77,5.1-2.75,7.99-2.8,1.87,.01,2.51,.55,2.8,.88,.23,.28,.75,1.05,.35,3.21h0ZM30,38.56c.61-2.11,1.42-2.56,1.75-2.7,.41-.17,1.22-.36,2.89,.48,2.56,1.37,4.63,3.51,5.88,6.13,1.85,4.27,1.64,10.59-1.08,11.76s-7.42-3.07-9.16-7.43c-1.01-2.64-1.11-5.54-.28-8.24Zm5.01,60.18c-1.92,2.29-8,.63-11.5-2.48-2.08-1.9-3.47-4.45-3.93-7.23-.4-2.16,.12-2.93,.36-3.21,.29-.34,.93-.87,2.8-.88,2.9,.05,5.7,1.04,7.99,2.8,3.55,2.98,6.2,8.71,4.29,10.99Zm0-14.64c-1.92,2.29-8,.63-11.5-2.48-2.08-1.9-3.47-4.45-3.93-7.23-.4-2.16,.12-2.93,.36-3.21,.29-.34,.93-.87,2.8-.88,2.9,.05,5.7,1.04,7.99,2.8,3.55,2.98,6.2,8.71,4.28,10.99h0Zm0-14.86c-1.92,2.29-8,.63-11.5-2.48-2.08-1.9-3.47-4.45-3.93-7.23-.4-2.16,.12-2.93,.36-3.21,.29-.34,.93-.87,2.8-.88,2.9,.05,5.7,1.04,7.99,2.8,3.55,2.98,6.2,8.71,4.29,10.99h0Zm52.08,43.56c-2.74,4.76-8.66,10.72-21.33,12.1-1.16,.12-2.34,.19-3.51,.18-7.28,.13-14.36-2.41-19.89-7.15-2.44-2.17-4.48-4.75-6.03-7.62-.73-1.35-.25-3.03,1.09-3.78,1.33-.73,3-.25,3.74,1.08,0,0,0,.02,.01,.02,1.25,2.3,2.88,4.37,4.84,6.12,7.18,6.36,16.48,5.9,19.16,5.61,10.37-1.13,15.05-5.71,17.14-9.35,1.32-2.34,2.07-4.95,2.19-7.63,.06-1.52,1.34-2.71,2.87-2.65,1.52,.06,2.71,1.34,2.65,2.87,0,.03,0,.07,0,.1-.17,3.55-1.17,7.01-2.92,10.11h0Z" fill="#fff"/>
      <rect id="_사각형_174" data-name="사각형 174" width="117" height="150" fill="none"/>
    </g>
  </g>
</svg>