<?xml version="1.0" encoding="UTF-8"?>
<svg id="Layer_2" data-name="Layer 2" xmlns="http://www.w3.org/2000/svg" viewBox="0 0 132 132">
  <g id="Logo">
    <g id="symbol_04_01_0003_01" data-name="symbol 04 01 0003 01">
      <path id="_합치기_31" data-name="합치기 31" d="m9.95,80.84c18.44-2.66,37.14,2.57,51.53,14.4,15.91,12.96,28.81,17.21,38.88,17.22-9.96,7.39-22.04,11.38-34.45,11.36-26.23,0-49.19-17.63-55.96-42.97Zm59.68,9.18c-27.63-19.68-49.71-15.27-60.16-11.08-.02-.08-.03-.15-.05-.23,10.49-4.35,33.87-8.87,71.75,10.5,13.69,7.01,24.71,8.93,33.53,7.9-1.44,2.24-3.02,4.37-4.75,6.39-1.08.08-2.19.13-3.36.13-9.66,0-22.21-3.09-36.96-13.6Zm14.05-12.64c-18.76-7.67-34.33-9.31-46.63-8.23v-17.63l13.8,5.93-12.69-9.47-1.86-15.73-1.86,15.73-8.29,6.19-.65-5.56-.79,6.63-2.96,2.21,2.84-1.22-.24,2.05-7.8,5.83,8.48-3.64v10.77c-5.55,1.43-10.87,3.63-15.81,6.54-.81-3.9-1.22-7.87-1.22-11.86,0-31.98,25.93-57.91,57.91-57.91s57.91,25.92,57.91,57.91c0,6.33-1.03,12.62-3.06,18.62-1.65.17-3.31.25-4.97.25-8.42,0-18.96-2.02-32.11-7.39Zm-57.73-16.92l8.49,3.64-7.8-5.83-.33-2.78,9.24-3.97v17.77c-3.23.35-6.44.91-9.59,1.69v-10.53Z" fill="#fff"/>
      <rect id="_사각형_265" data-name="사각형 265" width="132" height="132" fill="none"/>
    </g>
  </g>
</svg>