<?xml version="1.0" encoding="UTF-8"?>
<svg id="Layer_2" data-name="Layer 2" xmlns="http://www.w3.org/2000/svg" viewBox="0 0 98 98">
  <g id="Logo">
    <g id="symbol_14_01_0002_01" data-name="symbol 14 01 0002 01">
      <path id="_합치기_15" data-name="합치기 15" d="m60.84,94.34c1.48-4.24.93-8.92-1.49-12.69,4.3-3.5,4.95-9.84,1.45-14.14-2.56-3.15-6.77-4.44-10.66-3.29-.1-.6-.23-1.2-.4-1.78l44.23-25.96v47.3c0,5.83-4.73,10.56-10.56,10.56h-22.57Zm8.09-11.71c0,3.03,2.46,5.49,5.49,5.49,3.03,0,5.49-2.46,5.49-5.49s-2.46-5.49-5.49-5.49c-3.03,0-5.49,2.46-5.49,5.49Zm11.71-6.09c0,1.76,1.43,3.19,3.19,3.19,1.76,0,3.19-1.43,3.19-3.19,0-1.76-1.43-3.19-3.19-3.19s-3.19,1.43-3.19,3.19h0Zm-54-31.01c-2.77,0-5.27,1.67-6.33,4.24-3.98-4.74-10.51-6.48-16.32-4.33V14.93c0-5.83,4.73-10.56,10.56-10.56h40.79l-22.09,46.28c-.78-3.01-3.49-5.12-6.6-5.13h0Zm-13.45-7.67c0,2.52,2.04,4.55,4.56,4.55,2.52,0,4.56-2.04,4.55-4.56,0-2.52-2.04-4.55-4.56-4.55-2.52,0-4.55,2.04-4.55,4.56h0Z" fill="#fff"/>
      <rect id="_사각형_209" data-name="사각형 209" width="98" height="98" fill="none"/>
    </g>
  </g>
</svg>