<?xml version="1.0" encoding="UTF-8"?>
<svg id="_레이어_2" data-name="레이어 2" xmlns="http://www.w3.org/2000/svg" viewBox="0 0 289 194">
  <g id="Logo">
    <g id="symbol_18_03_0004_02" data-name="symbol 18 03 0004 02">
      <path id="_패스_1225" data-name="패스 1225" d="m49.83,97.05c8.02-.1,15.91,1.99,22.83,6.05.99.51,1.6,1.56,1.54,2.68.33,5.19-.73,10.38-3.07,15.03-3.07,6.01-5.28,12.43-6.56,19.07-2.42,12.95-.93,26.33,4.28,38.43.63,1.48.63,1.47-.8,2.1-6.14,2.77-12.85,4.04-19.57,3.7-24.03-1.15-42.58-21.57-41.43-45.6.76-15.84,10.07-30.02,24.31-37.01,5.72-2.91,12.05-4.43,18.47-4.44m-11.87,19.2c0,2.02,1.64,3.66,3.66,3.66s3.66-1.64,3.66-3.66c0-2.02-1.64-3.66-3.66-3.66,0,0,0,0-.01,0-2,.03-3.62,1.65-3.65,3.66m7.32,15.38c-.04-2.02-1.71-3.63-3.73-3.59s-3.63,1.71-3.59,3.73c.04,1.97,1.63,3.56,3.6,3.59,2.05-.02,3.71-1.68,3.72-3.73m-10.26-7.6c.03-2.05-1.6-3.74-3.65-3.77h0c-2.05.04-3.69,1.73-3.65,3.79.04,2.01,1.66,3.62,3.67,3.65,2-.04,3.61-1.67,3.64-3.67" fill="#fff"/>
      <path id="_패스_1226" data-name="패스 1226" d="m258.64,101.5c21.59,10.61,30.5,36.71,19.89,58.31-6.99,14.24-21.17,23.55-37.02,24.31-6.73.34-13.44-.93-19.57-3.7-1.43-.63-1.42-.63-.8-2.1,5.22-12.1,6.71-25.48,4.28-38.43-1.28-6.63-3.48-13.05-6.56-19.07-2.34-4.65-3.4-9.84-3.07-15.03-.05-1.12.55-2.16,1.55-2.68,6.92-4.06,14.81-6.15,22.83-6.05,6.42.01,12.74,1.54,18.47,4.44m-10.25,11.1c-2.05-.04-3.75,1.6-3.79,3.65s1.6,3.75,3.65,3.79c2.05.04,3.75-1.6,3.79-3.65,0-.04,0-.09,0-.13-.04-2-1.65-3.61-3.65-3.66m.05,22.76c2.05,0,3.72-1.66,3.72-3.72,0-2.05-1.66-3.72-3.72-3.72-2.05,0-3.71,1.66-3.72,3.71-.01,2.05,1.64,3.72,3.69,3.73,0,0,.02,0,.03,0m10.18-7.66c2.05.05,3.76-1.58,3.8-3.64.05-2.05-1.58-3.76-3.64-3.8-2.05-.05-3.76,1.58-3.8,3.64,0,.04,0,.09,0,.13.04,2,1.64,3.61,3.64,3.67" fill="#fff"/>
      <path id="_패스_1227" data-name="패스 1227" d="m88.33,122.52c3.11,0,6.22.02,9.33-.01.77-.08,1.5.36,1.78,1.07,3.36,6.76,5.53,14.05,6.42,21.55,1.39,11.8-.64,23.75-5.87,34.42-2.43,5.13-2.1,4.6-7.14,4.6-3.83,0-7.66-.03-11.49.02-1.43.12-2.77-.68-3.34-1.99-4.22-7.99-6.78-16.75-7.53-25.76-.9-11.47,1.62-22.24,6.52-32.56.33-.92,1.25-1.48,2.21-1.36,3.03.07,6.06.02,9.1.02" fill="#fff"/>
      <path id="_패스_1228" data-name="패스 1228" d="m88.19,99.79c-2.24,0-4.47-.04-6.71.02-.91.02-1.39-.28-1.57-1.2-1.19-5.42-1.85-10.94-1.95-16.48-.09-5.83,4.56-10.62,10.38-10.72.02,0,.04,0,.06,0,5.76.09,10.35,4.83,10.26,10.58,0,.05,0,.09,0,.14-.06,5.51-.71,10.99-1.92,16.36-.2.93-.6,1.34-1.61,1.31-2.31-.07-4.63-.02-6.94-.02" fill="#fff"/>
      <path id="_패스_1230" data-name="패스 1230" d="m145.34,88.68c4.91,0,9.82.03,14.73-.02,1.21-.13,2.36.57,2.81,1.7,5.3,10.68,8.73,22.18,10.14,34.02,2.3,19.03-1.12,37.12-9.27,54.33-3.83,8.1-3.32,7.26-11.27,7.26-6.05,0-12.09-.05-18.13.02-2.25.19-4.37-1.08-5.27-3.15-6.67-12.61-10.71-26.44-11.88-40.66-1.42-18.1,2.56-35.11,10.29-51.39.52-1.45,1.97-2.34,3.5-2.15,4.78.1,9.57.04,14.36.04" fill="#fff"/>
      <path id="_패스_1231" data-name="패스 1231" d="m145.12,52.79c-3.53,0-7.06-.05-10.58.03-1.13.22-2.22-.51-2.45-1.63-.02-.09-.03-.17-.04-.26-1.88-8.55-2.92-17.26-3.09-26.01-.14-9.2,7.2-16.77,16.39-16.91.03,0,.06,0,.08,0,9.05.03,16.23,7.5,16.2,16.93-.1,8.69-1.11,17.35-3.03,25.83-.32,1.47-.94,2.12-2.54,2.07-3.65-.1-7.31-.03-10.96-.03" fill="#fff"/>
      <path id="_패스_1233" data-name="패스 1233" d="m201.85,122.52c3.11,0,6.22.02,9.33-.01.77-.08,1.5.36,1.78,1.07,3.36,6.76,5.53,14.05,6.42,21.55,1.39,11.8-.64,23.75-5.87,34.42-2.43,5.13-2.1,4.6-7.14,4.6-3.83,0-7.66-.03-11.49.02-1.43.12-2.77-.68-3.34-1.99-4.22-7.99-6.78-16.75-7.53-25.76-.9-11.47,1.62-22.24,6.52-32.56.33-.92,1.25-1.48,2.21-1.36,3.03.07,6.06.02,9.1.02" fill="#fff"/>
      <path id="_패스_1234" data-name="패스 1234" d="m201.7,99.79c-2.23,0-4.47-.04-6.7.02-.92.02-1.39-.28-1.57-1.2-1.19-5.42-1.85-10.94-1.96-16.48-.09-5.83,4.56-10.62,10.38-10.72.02,0,.04,0,.06,0,5.76.09,10.35,4.82,10.27,10.58,0,.05,0,.1,0,.14-.06,5.51-.71,10.99-1.92,16.36-.2.93-.6,1.34-1.61,1.31-2.31-.07-4.63-.02-6.94-.02" fill="#fff"/>
      <rect id="_사각형_611" data-name="사각형 611" width="289" height="194" fill="none"/>
    </g>
  </g>
</svg>