<?xml version="1.0" encoding="UTF-8"?>
<svg id="_레이어_2" data-name="레이어 2" xmlns="http://www.w3.org/2000/svg" viewBox="0 0 260 212">
  <g id="Logo">
    <g id="symbol_08_02_0005_01" data-name="symbol 08 02 0005 01">
      <path id="_패스_1464" data-name="패스 1464" d="m252.31,125.79c-4.18-4.36-10.72-4.39-15.33-.1-.46.43-1.03,1.04-1.56,1.05-5.09.08-10.19.05-15.35.05-1.43-19.48-9.09-37.98-21.85-52.77,2.31-2.19,4.51-4.18,6.59-6.29,2.53-2.56,4.79-5.5,9-5.04.33-.04.64-.14.93-.3,4.96-1.75,7.9-6.87,6.9-12.03-1.03-5.83-6.59-9.73-12.42-8.7-4.93.87-8.6,5.03-8.85,10.02-.07.87.04,2.03-.46,2.56-3.45,3.65-7.04,7.16-10.69,10.81-14.71-12.71-33.12-20.34-52.5-21.76v-13.99c-.07-.41-.06-.83.04-1.23.29-.65.69-1.25,1.16-1.78,4.18-4.22,4.15-11.02-.06-15.2-4.22-4.18-11.02-4.15-15.2.06-4.21,4.21-4.19,10.63,0,15.18.47.51,1.09,1.18,1.1,1.79.09,5.02.05,10.05.05,15.17-19.47,1.46-37.95,9.15-52.71,21.94-2.49-2.63-4.8-5.2-7.26-7.63-2.13-2.09-4.34-4.04-3.93-7.46-.02-.5-.14-.98-.36-1.43-1.7-4.98-6.79-7.96-11.96-7.01-5.85,1.01-9.77,6.57-8.77,12.42.85,4.9,4.95,8.59,9.91,8.9.88.08,2.05-.08,2.57.42,3.69,3.5,7.25,7.13,10.88,10.76-12.7,14.75-20.33,33.19-21.77,52.6-5.13,0-10,.04-14.86-.05-.78-.13-1.49-.52-2.03-1.1-4.55-4.19-10.95-4.22-15.16-.01-4.15,4.21-4.18,10.97-.06,15.21,4.13,4.21,10.89,4.28,15.1.15.02-.02.03-.03.05-.05.51-.48,1.17-1.13,1.77-1.14,5.02-.09,10.04-.05,15.21-.05.68,8.66,2.56,17.19,5.6,25.33,5.56-.79,11.09-1.28,16.54-1.62,5.02.22,10.02.7,14.99,1.44-4.57-7.63-7.43-16.16-8.38-25h24.15c2.06,4.99,4.03,9.77,5.97,14.47-3.96,3.97-8.07,8.09-12.28,12.29,5.14,1.16,10.21,2.65,15.16,4.47l6.88-6.94,14.6,6.06c-.08,9.88-.16,19.76-.23,29.64,2.82-3.08,5.81-6.01,8.96-8.75,1.59-1.38,3.19-2.71,4.8-3.99-.12-5.64-.24-11.27-.35-16.91l14.38-5.92,8.5,8.49c4.64-2.27,9.44-4.21,14.35-5.8l-12.81-12.85,5.93-14.31h24.13c-.92,8.71-3.7,17.12-8.15,24.67,10.6-2.37,21.5-3.18,32.34-2.42,2.42-7.24,3.95-14.75,4.57-22.36,5.11,0,10.05-.04,14.99.04.7.13,1.34.48,1.83,1.01,4.69,4.32,11.11,4.35,15.33.02,4.04-4.19,4.07-10.81.06-15.03m-158.99.86h-24.09c1.2-11.64,5.73-22.68,13.04-31.81l17.13,17.18c-1.98,4.76-3.96,9.53-6.09,14.63m-1.24-41.57c9.07-7.27,20.05-11.78,31.62-12.99v24.18l-14.44,5.99c-5.48-5.48-11.23-11.23-17.17-17.18m37.97,62.82c-8.95,0-16.21-7.26-16.21-16.21s7.26-16.21,16.21-16.21,16.21,7.26,16.21,16.21h0c0,8.95-7.26,16.21-16.21,16.21h0m6.81-51.62v-24.19c11.61,1.21,22.62,5.74,31.72,13.06l-17.14,17.17-14.57-6.04m30.34,30.42c-2.08-5.04-4.07-9.87-6.06-14.7l17.11-17.15c7.33,9.14,11.88,20.2,13.1,31.85h-24.15Z" fill="#fff"/>
      <rect id="_사각형_506" data-name="사각형 506" width="260" height="212" fill="none"/>
    </g>
  </g>
</svg>