<?xml version="1.0" encoding="UTF-8"?>
<svg id="_레이어_2" data-name="레이어 2" xmlns="http://www.w3.org/2000/svg" viewBox="0 0 112 112">
  <g id="Logo">
    <g id="symbol_11_01_0002_01" data-name="symbol 11 01 0002 01">
      <path id="_패스_512" data-name="패스 512" d="M55.89,100.96v10.97C31.93,113.3,2.34,93.76,.13,59.86-2.08,25.99,24.5-1.17,58.75,.04c32.73,1.15,54.24,29.64,53.22,55.87h-11.25c-.88-16.53-8.17-29.57-22.52-38.22-8.89-5.35-19.42-7.26-29.62-5.39C27.91,15.66,11.94,34.39,11.69,55.94c-.24,19.9,15,43.32,44.21,45.02Z" fill="#fff"/>
      <path id="_패스_513" data-name="패스 513" d="M56.33,30.11v-10.76c9.68-2.2,24.86,6.15,31.69,17.46,8.49,14.05,6.82,31.64-4.2,44.29-10.17,11.67-27.53,15.52-42.19,9.35-13.67-5.75-23.58-20.61-22.5-34.06h11.37c.74,8.54,4.07,15.85,11.44,20.82,4.78,3.33,10.6,4.84,16.4,4.26,12.37-1.08,22.15-10.94,23.13-23.32,1.31-13.78-6.82-22.91-25.14-28.03Z" fill="#fff"/>
      <circle id="_타원_10" data-name="타원 10" cx="56.23" cy="56" r="11.27" fill="#fff"/>
    </g>
  </g>
</svg>