<?xml version="1.0" encoding="UTF-8"?>
<svg id="_레이어_2" data-name="레이어 2" xmlns="http://www.w3.org/2000/svg" viewBox="0 0 71 71">
  <g id="Logo">
    <g id="symbol_11_02_0003_01" data-name="symbol 11 02 0003 01">
      <rect id="_사각형_266" data-name="사각형 266" width="71" height="71" fill="none"/>
      <path id="_패스_732" data-name="패스 732" d="M34.42,68.8c-18.42-.04-33.32-15-33.28-33.41C1.18,16.97,16.13,2.07,34.55,2.11c18.42,.04,33.32,15,33.28,33.41,0,.01,0,.03,0,.04-.09,18.39-15.03,33.24-33.41,33.24Zm-2.31-16.88c0,1.59-.02,3.17,0,4.75-.15,1.27,.76,2.43,2.04,2.58,.13,.01,.25,.02,.38,.01,1.27,.02,2.32-.99,2.34-2.26,0-.09,0-.18-.01-.27,.04-1.29,.05-2.58,0-3.87-.1-.64,.32-1.25,.95-1.39,4.21-1.55,6.75-5.84,6.09-10.28-.71-4.6-4.62-8.02-9.27-8.12-2.89-.14-4.88-2.06-4.89-4.73-.01-2.63,2.11-4.76,4.74-4.77,2.58,0,4.7,2.04,4.77,4.62,.17,1.68,1.07,2.58,2.51,2.52,1.46-.07,2.36-1.18,2.24-2.92-.22-3.11-1.45-6.01-4.26-7.22-2.91-1.25-3.12-3.16-2.86-5.65,.02-.3,.02-.6,0-.89,0-1.31-1.06-2.37-2.37-2.37s-2.37,1.06-2.37,2.37c-.05,1.29-.06,2.58,0,3.87,.13,.74-.34,1.45-1.07,1.62-3.57,1.28-5.98,4.63-6.05,8.42-.22,5.23,3.83,9.66,9.07,9.88,.04,0,.08,0,.13,0,3.41,.16,5.63,2.74,4.95,5.77-.49,2.33-2.63,3.94-5.01,3.76-2.4-.15-4.11-1.95-4.4-4.61-.17-1.62-1.18-2.61-2.54-2.51-1.33,.1-2.33,1.27-2.23,2.6,0,.07,.01,.15,.03,.22,.13,3.3,2,6.28,4.92,7.83,.67,.39,1.42,.67,2.2,1.03Z" fill="#fff"/>
    </g>
  </g>
</svg>