<?xml version="1.0" encoding="UTF-8"?>
<svg id="_레이어_2" data-name="레이어 2" xmlns="http://www.w3.org/2000/svg" viewBox="0 0 55 55">
  <g id="Logo">
    <g id="symbol_19_03_0002_01" data-name="symbol 19 03 0002 01">
      <path id="_패스_637" data-name="패스 637" d="M54.95,40.65h0v-1.46c0-.73,0-1.4,0-2.04l.04-15.43h-.02c.03-3.44,.06-6.88-.14-10.31C54.43,4.33,48.97-.29,41.89,.01c-6.16,.26-11.04,5.78-11.04,12.47,0,1.64,.02,3.29,0,4.93,.03,6.23-4.29,11.64-10.37,13.02-2.9,.71-5.83,.36-8.74,.43C5.54,30.96,.45,35.8,.03,41.99c-.41,6.1,3.81,11.55,9.82,12.68,3.13,.57,6.27,.11,9.4,.3,.7,0,1.4,0,2.1-.02l-.02,.05,4.34-.03c.22,0,.43,0,.65,.02,.32,.02,.64,0,.96-.03l5.78-.04c.28,.06,.57,.08,.85,.07,4.35-.15,8.7-.21,13.04-.31,3.7,.07,6.92-2.52,7.64-6.15,.68-2.76,.14-5.55,.35-7.88Z" fill="#fff"/>
    </g>
  </g>
</svg>