<?xml version="1.0" encoding="UTF-8"?>
<svg id="_레이어_2" data-name="레이어 2" xmlns="http://www.w3.org/2000/svg" viewBox="0 0 208 208">
  <g id="Logo">
    <g id="symbol_17_04_0003_01" data-name="symbol 17 04 0003 01">
      <path id="_패스_1162" data-name="패스 1162" d="m97.82,154.88c-6.52-.02-13.04.02-19.56-.06-2.58-.03-4.22-1.42-4.24-4.1s1.58-4.02,4.17-4.18c1.3-.08,2.62.08,3.91-.08,1.94-.25,5.23,1.05,5.53-.83.37-2.35-2.54-3.94-4.77-5.08-.82-.4-1.7-.67-2.6-.8-7.66-1.28-14.85-.26-20.97,4.89-1.97,1.71-4.53,2.6-7.13,2.47-5.8-.09-11.61,0-17.42-.04v19.63h18.39c1.03.13,2.01.54,2.83,1.17,1.5,1.2,1.49,2.6,3.02,4.31.81.83,1.75,1.53,2.78,2.07,2.8,1.7,5.94,2.78,9.2,3.15,5.34.7,10.68.14,14.95.4,5.36,0,9.67,0,13.97,0,3.52.01,5.33-1.69,5.34-5.24,0-3.39.01-6.78.01-10.17-.01-6.55-.93-7.48-7.4-7.5" fill="#fff"/>
      <path id="_패스_1163" data-name="패스 1163" d="m185.78,9.23H19.41c-7.22,0-13.06,5.85-13.06,13.06h0v166.36c0,7.22,5.85,13.06,13.06,13.07h166.37c7.22,0,13.06-5.85,13.06-13.06h0V22.3c0-7.22-5.85-13.06-13.06-13.06m-79.23,26.12c.39-2.32.67-4.67,1.21-6.95.58-2.45,2.19-4.01,4.78-3.62,2.76.42,3.91,2.43,3.62,5.15-.23,2.21-.67,4.4-.99,6.6-.42,2.87-1.87,4.7-4.93,4.32-3.15-.39-3.85-2.67-3.69-5.5m10.12,47.14c.02,3.19-.92,5-3.3,5.5-2.11.62-4.32-.59-4.93-2.7-.05-.16-.08-.32-.11-.48-.69-2.79-1.17-5.62-1.41-8.49-.28-2.07,1.16-3.98,3.23-4.27,2.05-.63,4.22.52,4.85,2.57.02.08.04.15.06.23.8,2.75,1.2,5.61,1.6,7.63m-11.35-30.18c-.09-2.11,1.55-3.89,3.66-3.98.12,0,.24,0,.36,0,2.65-.04,4.07,1.52,4.24,4.15.09,1.31.02,2.63.02,3.94.02,1.38-.08,2.76-.3,4.12-.37,2.34-.82,2.85-1.1,3.11-.78.62-1.77.91-2.76.82-2.1.15-3.93-1.44-4.07-3.54,0-.12-.01-.24,0-.36-.18-2.76-.19-5.52-.03-8.27m8.28,120.92c-.07,7.98-4.78,12.82-12.62,12.86-10.02.05-19.86.48-27.28,0-4.3-.11-8.55-.96-12.55-2.53-2.2-.87-10.18-3.87-11.46-8.19h-19.64c-2.21,0-4-1.79-4-4v-28.75c0-2.21,1.79-4,4-4h.35c5.96-.02,11.93-.02,17.9.05,2.6.15,5.17-.64,7.23-2.22,4.14-3.25,9.17-5.17,14.43-5.5,3.22-.19,3.91-1.8,3.98-4.5.38-14.59-2.42-20.12-2.42-20.12-5.9-17.4-5.96-15.94-8.06-23.21-1.82-6.25-3.19-12.63-4.08-19.09-.38-2.84-.15-1.95-.69-6.51-.33-4.06-.45-8.14-.35-12.21.07-2.62,1.57-4.18,4.24-4.13,2.06-.15,3.85,1.4,4,3.46.01.17.01.34,0,.52.15,19.03,6.43,36.62,12.28,54.34,3.04,8.85,4.23,18.24,3.49,27.57-.21,2.34.64,3.55,2.86,4.4,5.39,1.95,9.63,6.21,11.56,11.61.92,2.46,2.37,2.99,4.72,3.04,7.46.18,12.07,4.99,12.15,12.51.06,4.87.05,9.73,0,14.6m1.08-64.54c-1.18-2.92-2.1-5.94-2.75-9.02-.46-2.2.95-3.78,3-4.5,1.81-.71,3.86.09,4.72,1.83,1.71,2.99,2.34,6.38,3.08,9.56-.18,2.21-1.15,3.71-3.12,4.26-2.14.61-4.1-.08-4.93-2.14m6.74,9.3c2.62-.5,4.25,1.04,4.87,3.46.65,2.53,1,5.13,1.35,6.98.04,3.26-.88,5.19-3.52,5.63-2.61.43-4.28-.99-4.88-3.46-.63-2.54-1.08-5.12-1.36-7.72-.43-2.25,1.05-4.42,3.3-4.85.08-.01.15-.03.23-.04m6.46,53.3c-.39,2.18-.66,4.4-1.22,6.54-.64,2.46-2.31,3.87-4.91,3.36-2.55-.5-3.68-2.37-3.46-4.9.18-2.08.69-4.12.93-6.2.37-3.15,1.7-5.45,5.18-4.87,3.28.55,3.78,3.14,3.48,6.07m1.29-17.51c-.25,2.42-1.63,3.85-4.1,3.86-2.06.2-3.89-1.31-4.09-3.37-.01-.15-.02-.3-.02-.46-.18-2.62-.21-5.25-.17-7.88.05-2.58,1.34-4.34,3.99-4.45,2.85-.12,4.25,1.65,4.43,4.41.08,1.31.01,2.63.01,3.94h-.03c.06,1.31.05,2.63-.02,3.94m18.93-94c-3.13.05-6.26.09-9.39.01-1.84-.04-2.44.21-1.9,2.41.8,3.22-1.05,5.4-3.9,5.42-1.33.02-2.6-.53-3.48-1.53-2.32-2.31-4.66-4.6-6.91-6.98-2.15-2.27-2.23-4.7-.07-7,2.24-2.39,4.58-4.68,6.9-6.99,1.65-1.64,3.58-2.24,5.68-1.03,1.85.97,2.62,3.22,1.75,5.12-.81,2.17.36,2.13,1.82,2.12,3.13-.01,6.26,0,9.39.02,2.72.03,4.62,1.21,4.65,4.15s-1.8,4.21-4.54,4.26m26.85,3.54c-1.25,6.01-2.06,9.83-3.62,15.9-1,3.91-1.9,7.13-2.54,9.34-2.98,8.65-6.15,17.02-7.51,25.99-1.98,13.05.39,25.45,5.37,37.46,3.08,7.3,5.51,14.87,7.26,22.6.46,3.2-1.21,5.99-3.54,6.67-1.45.33-2.96.03-4.18-.82-1.09-6.42-2.81-12.73-5.12-18.82-3.08-8.23-6.55-16.32-8.07-25.09-2.71-15.63-.12-30.59,5.25-45.24,5.36-14.63,9.21-29.59,9.61-45.29.07-2.92,1.26-4.93,4.4-4.81,2.93.1,3.92,2.13,3.99,4.84.17,5.79-.27,11.57-1.3,17.27" fill="#fff"/>
      <rect id="_사각형_522" data-name="사각형 522" width="208" height="208" fill="none"/>
    </g>
  </g>
</svg>