<?xml version="1.0" encoding="UTF-8"?>
<svg id="_레이어_2" data-name="레이어 2" xmlns="http://www.w3.org/2000/svg" viewBox="0 0 12 20">
  <g id="Logo">
    <g id="symbol_09_17_0001_02" data-name="symbol 09 17 0001 02">
      <rect id="_사각형_99" data-name="사각형 99" x="0" y=".02" width="12" height="19.96" fill="none"/>
      <path id="_패스_687" data-name="패스 687" d="M12,9.95c-.01,1.45-.14,2.9-.36,4.33-.11,1.7-.83,3.3-2.03,4.52-1.18,.89-2.64,1.31-4.11,1.18-1.7,.03-3.32-.72-4.39-2.04-.57-1-.87-2.12-.88-3.27C0,11.9-.06,9.13,.06,6.37c.07-1.66,.25-3.45,1.38-4.71C2.82,.35,4.74-.23,6.62,.09c.84,.07,1.65,.31,2.39,.7,.71,.43,1.28,1.06,1.63,1.81,.76,1.57,1.2,3.29,1.28,5.04,.06,.77,.09,1.54,.08,2.31Z" fill="#fff"/>
    </g>
  </g>
</svg>