<?xml version="1.0" encoding="UTF-8"?>
<svg id="_레이어_2" data-name="레이어 2" xmlns="http://www.w3.org/2000/svg" viewBox="0 0 250 173">
  <g id="Logo">
    <g id="symbol_11_01_0004_01" data-name="symbol 11 01 0004 01">
      <rect id="_사각형_291" data-name="사각형 291" width="250" height="173" fill="none"/>
      <path id="_패스_813" data-name="패스 813" d="M124.25,3.21c19.17,1.6,34.21,9.63,42.27,27.88,7.79,17.65,4.43,33.72-8.23,47.85q-30.84,34.42-64.88,2.25c-13.75-13-17.75-31.56-10.53-48.88C89.98,15.29,107.37,3.05,124.25,3.21Z" fill="#fff"/>
      <path id="_패스_814" data-name="패스 814" d="M4.48,123.92c-.44-18.6,8.38-31.63,24.23-40.42,16.4-9.09,32.89-7.21,46.82,3.69,16.6,13,33.62,21.51,33.32,35.26-.18,8.36-6.44,14.38-18.96,26.42-9.61,9.24-16.07,15.45-27.22,18.33-14.71,3.8-27.15-.93-31.51-2.82-17.2-7.45-26.38-21.33-26.68-40.46Z" fill="#fff"/>
      <path id="_패스_815" data-name="패스 815" d="M247.76,123.92c.44-18.6-8.38-31.63-24.23-40.42-16.4-9.09-32.89-7.21-46.82,3.69-17.41,13.63-33.1,21.51-33.32,35.26-.22,13.37,13.23,23.74,26.23,33.77,6.07,4.69,11.47,8.76,19.95,10.98,14.53,3.8,26.87-.81,31.51-2.82,17.2-7.45,26.38-21.33,26.68-40.46Z" fill="#fff"/>
    </g>
  </g>
</svg>