<?xml version="1.0" encoding="UTF-8"?>
<svg id="Layer_2" data-name="Layer 2" xmlns="http://www.w3.org/2000/svg" viewBox="0 0 168 208">
  <g id="Logo">
    <g id="symbol_14_02_0002_01" data-name="symbol 14 02 0002 01">
      <path id="_합치기_16" data-name="합치기 16" d="m10.61,58.32L84.33,17l-49.35,39.86s-.59,68.4,49.35,97.08c49.94-28.68,49.35-97.08,49.35-97.08l-49.35-39.86,73.73,41.32s-4.99,107.2-73.73,132.84C15.59,165.52,10.61,58.32,10.61,58.32Zm27.33.26l46.4-37.48,46.4,37.48s.55,64.31-46.4,91.28c-46.96-26.97-46.4-91.28-46.4-91.28h0Zm3.21,1.86s-.52,59.86,43.19,84.96c43.71-25.1,43.19-84.96,43.19-84.96l-43.19-34.89-43.19,34.89Zm43.19,51.4h-7.03l3.13-16.84c-2.9-2.15-3.51-6.25-1.35-9.15s6.25-3.51,9.15-1.35,3.51,6.25,1.35,9.15c-.38.51-.84.97-1.35,1.35l3.13,16.84h-7.04Z" fill="#fff"/>
      <rect id="_사각형_211" data-name="사각형 211" width="168" height="208" fill="none"/>
    </g>
  </g>
</svg>