<?xml version="1.0" encoding="UTF-8"?>
<svg id="_레이어_2" data-name="레이어 2" xmlns="http://www.w3.org/2000/svg" viewBox="0 0 290 120">
  <g id="Logo">
    <g>
      <g>
        <polygon points="4.88 41.1 1.92 83.31 27.45 13.34 4.88 41.1" fill="#fff"/>
        <polygon points="50.1 114.35 96.22 87.62 75.06 63.47 50.1 114.35" fill="#fff"/>
        <polygon points="69.02 1.8 35.39 4.11 1.41 97.23 44.05 116.93 72.37 59.2 69.02 1.8" fill="#fff"/>
        <polygon points="73.49 4.69 76.65 58.77 96.52 81.45 88.36 18.4 73.49 4.69" fill="#fff"/>
      </g>
      <g>
        <polygon points="107.73 65.79 123.61 93.82 110.37 38.66 107.73 65.79" fill="#fff"/>
        <polygon points="167.26 93.24 185.28 56.85 161.69 50.43 167.26 93.24" fill="#fff"/>
        <polygon points="131.9 13.83 111.53 29.46 129.14 102.88 164.5 97.42 158.18 48.85 131.9 13.83" fill="#fff"/>
        <polygon points="135.95 13.78 160.72 46.78 182.88 52.8 151.16 16.22 135.95 13.78" fill="#fff"/>
      </g>
      <g>
        <polygon points="208.38 31.94 192.71 67.98 236.75 14.62 208.38 31.94" fill="#fff"/>
        <polygon points="225.3 110.1 273.97 100.98 262.91 73.28 225.3 110.1" fill="#fff"/>
        <polygon points="276.72 17.4 246.56 9 187.95 80.02 219.21 110.48 261.89 68.7 276.72 17.4" fill="#fff"/>
        <polygon points="279.74 21.31 265.76 69.66 276.14 95.67 288.52 37.92 279.74 21.31" fill="#fff"/>
      </g>
      <rect width="290" height="120" fill="none"/>
    </g>
  </g>
</svg>