<?xml version="1.0" encoding="UTF-8"?>
<svg id="Layer_2" data-name="Layer 2" xmlns="http://www.w3.org/2000/svg" viewBox="0 0 78 118">
  <g id="Logo">
    <g>
      <path id="_패스_408" data-name="패스 408" d="m11.77,51.96l-.13-14.56,6.85-5.53.43-.35,4.11-3.32,4.65,4.45-1.19,2.89-.2.47-7.09,17.17-7.43-1.23ZM27.1,14.98l-1.43,1.16L3,34.45l.43,48.19,24.62,4.06,23.45-56.82.65-1.57,3.95-9.57-15.4-14.73-13.6,10.98Z" fill="#fff"/>
      <path id="_패스_409" data-name="패스 409" d="m29.72,86.73l38.59,6.36,5.7-5v-46.47l-21.05-11.2-23.24,56.31Z" fill="#fff"/>
      <path id="_패스_410" data-name="패스 410" d="m57.36,19.98l-3.76,9.12,20.4,10.85v-4.05l-16.64-15.92Z" fill="#fff"/>
      <path id="_패스_411" data-name="패스 411" d="m3.48,87.9l18.89,12.09,1.45.92,20.47,13.09,22.37-19.66-37.58-6.2-1.71-.28-23.92-3.95.04,3.98Z" fill="#fff"/>
      <rect id="_사각형_2" data-name="사각형 2" width="78" height="118" fill="none"/>
    </g>
  </g>
</svg>