<?xml version="1.0" encoding="UTF-8"?>
<svg id="Layer_2" data-name="Layer 2" xmlns="http://www.w3.org/2000/svg" viewBox="0 0 172 172">
  <g id="Logo">
    <g id="symbol_13_01_0003_01" data-name="symbol 13 01 0003 01">
      <path id="_패스_742" data-name="패스 742" d="m52.17,110.29c-33.14-15.53-48.35.95-48.57,1.2.65,27.68,23.62,49.59,51.3,48.94,27.68-.65,49.59-23.62,48.94-51.3-.02-.8-.06-1.6-.11-2.4-.21.23-18.35,19.12-51.55,3.56" fill="#fff"/>
      <path id="_패스_743" data-name="패스 743" d="m168.36,14.63c-4.79-2.05-18.83-6.18-33.57,7.21-8.42,7.65-16.68,8.76-23.13,7.75-.73-.11-1.44-.25-2.13-.42-2.94-.71-5.76-1.86-8.36-3.41.51,3.11,1.45,6.13,2.79,8.98,2.89,6.19,7.58,11.37,13.46,14.85,11.85,7.1,26.82,6.29,37.83-2.05,2.68-2.01,5.05-4.41,7.03-7.12,5.43-7.42,7.62-16.73,6.08-25.79" fill="#fff"/>
      <path id="_패스_744" data-name="패스 744" d="m87.68,107.9c4.86,0,8.81-3.94,8.81-8.81s-3.94-8.81-8.81-8.81-8.81,3.94-8.81,8.81h0c0,4.86,3.94,8.81,8.81,8.81" fill="#fff"/>
      <path id="_패스_745" data-name="패스 745" d="m69.88,90.28c3.14,0,5.69-2.55,5.69-5.69s-2.55-5.69-5.69-5.69-5.69,2.55-5.69,5.69,2.55,5.69,5.69,5.69h0" fill="#fff"/>
      <rect id="_사각형_271" data-name="사각형 271" width="172" height="172" fill="none"/>
    </g>
  </g>
</svg>