<?xml version="1.0" encoding="UTF-8"?>
<svg id="Layer_2" data-name="Layer 2" xmlns="http://www.w3.org/2000/svg" viewBox="0 0 270 130">
  <g id="Logo">
    <g id="symbol_14_01_0004_01" data-name="symbol 14 01 0004 01">
      <path id="_합치기_29" data-name="합치기 29" d="m49.23,105.27c0-6.17,2.92-11.97,7.87-15.64.37-.28.76-.54,1.15-.79s.79-.49,1.21-.72c9.47-5.12,21.29-1.6,26.42,7.87,1.54,2.85,2.35,6.04,2.35,9.28,0,1.25-.12,2.49-.36,3.71-.09.46-.19.91-.31,1.36-.12.45-.26.9-.41,1.34-3.54,10.17-14.65,15.54-24.82,12-7.84-2.73-13.09-10.12-13.09-18.41Zm-45.73,6.7c0-3.98,3.22-7.21,7.21-7.21,3.98,0,7.21,3.23,7.21,7.21s-3.22,7.21-7.21,7.21h0c-3.98,0-7.2-3.23-7.21-7.21Zm88.21-2.77c-.35,0-.71-.01-1.06-.03,2.16-12.1-5.9-23.66-18-25.82-4.85-.87-9.84-.1-14.21,2.18-4.63-13.3-.88-28.07,9.54-37.55,3.12,6.18,8.6,10.29,14.84,10.29,7.25,0,13.5-5.56,16.17-13.47,2.67,7.91,8.91,13.47,16.17,13.47,9,0,16.43-8.55,17.44-19.52h50.35c6.23,0,12.35,1.65,17.73,4.81-6.28,11.82-1.78,26.5,10.04,32.77,2.23,1.18,4.63,2.01,7.11,2.45-2.42,17.42-17.3,30.38-34.88,30.41h-91.23Zm2.89-39.52c-.38.66-.16,1.51.5,1.89h0c4.11,2.23,8.69,3.45,13.37,3.56,1.99.01,3.98-.28,5.89-.85,5.29-1.63,9.45-5.54,12.37-11.62.34-.69.05-1.52-.63-1.85-.69-.34-1.52-.06-1.85.63,0,0,0,.01-.01.02-2.57,5.35-6.16,8.77-10.67,10.17-8.22,2.55-16.96-2.39-17.07-2.45-.66-.38-1.5-.16-1.89.5,0,0,0,0,0,0Zm47.49-12.84c0,1.44,1.16,2.6,2.6,2.6s2.6-1.16,2.6-2.6c0-1.44-1.16-2.6-2.6-2.6h0c-1.43,0-2.6,1.15-2.6,2.59h0Zm-9.47.01c0,1.44,1.16,2.6,2.6,2.6s2.6-1.16,2.6-2.6c0-1.44-1.16-2.6-2.6-2.6h0c-1.44,0-2.6,1.16-2.6,2.6Zm4.74-8.43c0,1.44,1.16,2.6,2.6,2.6s2.6-1.16,2.6-2.6c0-1.44-1.16-2.6-2.6-2.6h0c-1.44,0-2.6,1.16-2.6,2.6Zm116.44,60.38c-.4-.08-.79-.18-1.17-.3-2.66-.83-4.95-2.54-6.51-4.85-2.79-4.13-2.79-9.55,0-13.68,1.55-2.31,3.85-4.02,6.51-4.85.38-.12.77-.22,1.17-.3.81-.17,1.63-.25,2.46-.25.42,0,.84.02,1.25.07,6.72.69,11.62,6.69,10.93,13.41-.33,3.21-1.91,6.16-4.4,8.21-1.22,1.01-2.63,1.78-4.14,2.25-.78.24-1.58.4-2.39.48-.42.04-.83.07-1.25.07-.83,0-1.65-.08-2.46-.25h0ZM17.92,85.77c0-6.09,4.94-11.02,11.02-11.02,6.09,0,11.02,4.94,11.02,11.02,0,6.08-4.94,11.02-11.02,11.02-6.08,0-11.01-4.94-11.02-11.02Zm202.94-9.41c-.46-.03-.92-.07-1.38-.13s-.92-.13-1.37-.21c-11.64-2.19-19.31-13.41-17.12-25.05.39-2.06,1.07-4.05,2.04-5.91.21-.42.44-.83.69-1.23s.49-.77.75-1.15c6.76-9.74,20.14-12.16,29.88-5.39,9.74,6.76,12.16,20.14,5.39,29.88-4.01,5.78-10.61,9.23-17.64,9.23-.42,0-.83-.02-1.24-.04Zm-120.35-37.61c-.04-.46-.08-.92-.1-1.39-.02-.38-.03-.77-.03-1.15,0-.08,0-.16,0-.23,0-1.12.09-2.24.25-3.35h18.34c-.39,1.08-.64,2.21-.75,3.35-.04.45-.07.91-.07,1.38s.03.93.07,1.39c.47,4.92,3.38,8.72,6.91,8.72.81,0,1.6-.21,2.31-.58-2.65,5.18-7.18,8.61-12.3,8.61-7.49,0-13.69-7.31-14.65-16.75Zm-30.35,7.4c-.2-.44-.39-.89-.56-1.34s-.33-.9-.47-1.36c-.72-2.34-1.09-4.78-1.09-7.24,0-1.23.09-2.46.28-3.68.17.07.34.1.52.1h16.99c-.46,1.27-.72,2.6-.78,3.95-.01.26-.03.52-.03.79,0,.21.01.41.02.62.02.47.06.94.12,1.39.64,4.62,3.46,8.1,6.85,8.1,1.29-.03,2.54-.51,3.5-1.37-2.59,5.63-7.3,9.4-12.69,9.4s-10.07-3.76-12.66-9.35h0Zm112.44-27.72c0-6.76,5.48-12.24,12.24-12.24,6.76,0,12.24,5.48,12.24,12.24s-5.48,12.24-12.24,12.24c-6.76-.01-12.23-5.49-12.23-12.24h0Zm-62.12,11.43h-19.28c2.02-7.52,7.51-12.93,13.96-12.93s11.94,5.41,13.96,12.93h-8.63Zm-23.81,0h-27.8c2.01-7.52,7.51-12.93,13.95-12.93s11.94,5.41,13.96,12.93h-.11Zm126.81-15.42c0-4.56,3.69-8.25,8.25-8.25,4.56,0,8.25,3.69,8.25,8.25s-3.69,8.25-8.25,8.25c-4.55,0-8.24-3.7-8.25-8.25h0Z" fill="#fff"/>
      <rect id="_사각형_284" data-name="사각형 284" width="270" height="130" fill="none"/>
    </g>
  </g>
</svg>