<?xml version="1.0" encoding="UTF-8"?>
<svg id="_레이어_2" data-name="레이어 2" xmlns="http://www.w3.org/2000/svg" viewBox="0 0 107 130">
  <g id="Logo">
    <g id="symbol_08_03_0004_01" data-name="symbol 08 03 0004 01">
      <path id="_패스_1439" data-name="패스 1439" d="m52.01,90.79c-.74-2.07-.32-3.96-.29-5.81.08-4.29.36-8.57.4-12.86,0-2.1.68-4.14,1.97-5.79,11.17-15.1,22.26-30.24,33.14-45.66-2.92,2.41-5.86,4.81-8.76,7.24-13.44,11.27-26.88,22.55-40.3,33.84-1.53,1.29-2.93,1.77-4.92.93-9.31-3.93-18.67-7.73-28-11.6-.76-.32-1.92-.45-2-1.4-.1-1.21,1.21-1.32,2.01-1.68,25.25-11.48,50.52-22.94,75.79-34.38,5.73-2.6,11.43-5.27,17.18-7.82,2.65-1.18,3.14-.83,2.81,1.9-2.95,24.41-5.93,48.81-8.94,73.21-.38,3.1-.69,3.18-3.63,2.07-8.2-3.1-16.43-6.14-24.6-9.31-1.86-.72-2.75-.24-3.55,1.48-2.06,4.4-4.25,8.74-6.41,13.1-.41.83-.58,1.84-1.89,2.53" fill="#fff"/>
      <path id="_패스_1440" data-name="패스 1440" d="m38.34,74.89c-6.63,7.97-9.88,19.61-4.72,29.03,1.17,2.18,2.73,4.13,4.6,5.75,2.74,2.47,5.73,4.65,8.92,6.5,3.53,1.86,7.24,3.35,11.07,4.46.1.07.17.18.18.3,0,.13-.06.25-.17.33-3.55,1.13-7.32,1.33-10.97.59-10.39-1.97-17.23-10.14-19.54-20.17-1.73-7.23.4-15,4.56-20.95,1.59-2.34,3.48-4.45,5.63-6.29.14-.08.33-.05.43.08.08.11.08.26,0,.37" fill="#fff"/>
      <rect id="_사각형_509" data-name="사각형 509" width="107" height="130" fill="none"/>
    </g>
  </g>
</svg>