<?xml version="1.0" encoding="UTF-8"?>
<svg id="Layer_2" data-name="Layer 2" xmlns="http://www.w3.org/2000/svg" viewBox="0 0 65 151">
  <g id="Tag">
    <g id="symbol_03_02_0001_02" data-name="symbol 03 02 0001 02">
      <path id="_패스_438" data-name="패스 438" d="m61.05,64.49c-.38-.41-.92-.64-1.47-.64h-.31c-7.61-.09-20.94-.22-28.57-.36l-6.62-.06h-3.32s-.26-.01-.26-.01c-1.37,0-2.47,1.12-2.46,2.48h0c0,.46.14.9.38,1.29l.83,1.44c3.58,6.22,8.09,13.81,11.78,19.96,2.73,4.58,4.44,9.69,5.03,14.98.22,1.88.27,4.59.33,6.52.23,6.41.49,13.51.87,19.87,0,.1.09.17.19.16.09,0,.16-.08.16-.16.44-7.52.74-15.64.97-23.19.3-8.34-2.07-15.6-6.36-22.71-2.86-5.17-6.52-11.62-9.62-17,11.1-.08,24.81-.31,35.67-.42-.3.54-.62,1.1-.78,1.38-2.06,3.66-7.64,13.55-9.76,17.31-2.37,3.86-4.09,8.09-5.1,12.51-.49,2.21-.78,4.47-.87,6.73-.08,1.97.01,4.67.01,6.67.04,3.49.19,14.93.23,18.22-.07,3.51,1.26,6.89,3.7,9.41.9.94,2.74,2.66,3.65,3.65.03.09-.03.19-.12.22,0,0,0,0,0,0-.01,0-.02,0-.03,0h-.1c-2.5.03-9.02.12-13.81.2-8.69-.43-17.86-.75-26.52-.96-.47.03-.93-.03-1.37-.2-.72-.32-1.2-1.01-1.26-1.79l.06-3.58c.11-4.59.3-17.6.35-22.29.27-16.87-.2-34.99-.22-51.9.24-3.76,1.58-7.37,3.87-10.38,1.04-1.31,3.04-3.66,4.12-4.98,1.12-1.39,1.73-3.12,1.71-4.91,0-.18,0-.95-.01-1.16-.08-8.47-.19-21.15-.27-29.72v-.93s0-.11,0-.11v-.08c.01-.61.26-1.2.69-1.63.44-.44,1.02-.7,1.64-.73h.08s.12,0,.12,0h.93c2.07-.03,5.36-.06,7.43-.08,1.41-.01,2.58,1.11,2.61,2.53.1,8.4.25,21.55.34,29.95l.02,1.86c-.01,1.66.58,3.27,1.67,4.53,1.88,2.03,3.66,4.17,5.31,6.39,1.34,2.06,2.3,4.34,2.83,6.74.02.1.11.16.21.14.1-.02.16-.11.14-.21-.48-2.46-1.4-4.82-2.71-6.96-.66-1.06-1.41-2.07-2.23-3.02-.43-.52-2.57-3.12-2.96-3.58-.94-1.13-1.43-2.56-1.38-4.03l.02-1.86.08-7.43c.06-4.81.2-17.67.25-22.29.08-1.55-.69-3.03-2.01-3.85-1.12-.79-2.78-.63-4.06-.66l-3.72-.03c-.62,0-2.19-.03-2.79-.03-2.42-.08-4.44,1.82-4.52,4.24,0,.07,0,.15,0,.22-.07,8.1-.19,20.75-.26,28.79,0,.65-.02,2.14-.02,2.79.04,1.26-.39,2.5-1.2,3.47-1.13,1.32-3.18,3.64-4.26,4.96-2.68,3.41-4.3,7.52-4.67,11.84-.48,21.88-.53,45.08-.14,66.98.04,1.84.16,8.54.2,10.22,0,.31.02.76.04,1.06.28,2.32,2.22,4.08,4.56,4.13.61,0,1.95-.04,2.6-.06,2.38-.06,8.69-.26,11.14-.34,4.51-.17,9.02-.34,13.54-.57l8.82.13,3.31.04,1.66.02h.11c.06,0,.12,0,.17-.01.59-.11.97-.68.86-1.27-.05-.24-.17-.45-.35-.61-.87-.92-2.56-2.64-3.43-3.58-2.17-2.36-3.31-5.49-3.15-8.69.04-3.37.19-14.7.23-18.22.03-1.94,0-4.67.12-6.58.32-5.38,1.83-10.62,4.41-15.36,1.12-2,7.1-12.03,8.39-14.24.56-.96,3.73-6.32,4.21-7.13.13-.22.51-.87.63-1.07.46-.77.36-1.75-.25-2.41m-2.14,1.03v.02s.03-.07,0-.02" fill="#fff"/>
      <rect id="_사각형_3" data-name="사각형 3" width="65" height="151" fill="none"/>
    </g>
  </g>
</svg>