<?xml version="1.0" encoding="UTF-8"?>
<svg id="Layer_2" data-name="Layer 2" xmlns="http://www.w3.org/2000/svg" viewBox="0 0 257 124">
  <g id="Logo">
    <g id="symbol_06_02_0001_01" data-name="symbol 06 02 0001 01">
      <path id="_패스_601" data-name="패스 601" d="m245.29,108.72l-40.78-74.86c-.48-.87-1.39-1.42-2.38-1.42h-48.11c-1.03,0-1.97.58-2.43,1.51l-13.29,26.71s-.04.1-.06.15h6.05l11.41-22.94h44.82l37.82,69.43h-12.2l-26.7-49.7c-.76-1.3-2.42-1.73-3.72-.98-.46.27-.83.67-1.06,1.14l-24.46,49.53h-61.73l-37.27-71.36c-.47-.9-1.4-1.46-2.41-1.46h-.04c-1.02.02-1.95.61-2.4,1.53L31.8,107.3h-12.82L61.35,16.43h98.69l8.03,9.98h6.97l-11.58-14.4c-.52-.64-1.29-1.01-2.12-1.01H59.62c-1.06,0-2.02.61-2.46,1.57L12.25,108.87c-.63,1.36-.05,2.97,1.31,3.61.36.17.75.25,1.15.25h18.79c1.04,0,1.99-.59,2.44-1.53l32.93-67.97,35.53,68.04c.47.9,1.4,1.46,2.41,1.46h65.07c1.03,0,1.98-.59,2.43-1.51l22.97-46.52,24.94,46.68c.49.83,1.38,1.35,2.35,1.35h18.33c1.5,0,2.71-1.22,2.71-2.72,0-.45-.11-.9-.33-1.3" fill="#fff"/>
      <rect id="_사각형_2" data-name="사각형 2" width="257" height="124" fill="none"/>
    </g>
  </g>
</svg>