<?xml version="1.0" encoding="UTF-8"?>
<svg id="_레이어_2" data-name="레이어 2" xmlns="http://www.w3.org/2000/svg" viewBox="0 0 134 116">
  <g id="Logo">
    <g id="symbol_10_03_0004_01" data-name="symbol 10 03 0004 01">
      <path id="_패스_1549" data-name="패스 1549" d="m116.5,63.14h8.89c-2.3-16.18-8.02-30.78-21.13-41.97-2.04,4.61-4.13,5.31-8.15,3.17-19.01-10.15-38.04-10.16-57.07-.02-4.03,2.14-6.06,1.52-8.02-2.89-12.86,11.1-18.72,25.5-21.21,41.68h7.74v39.69c-5.68,1.11-7.97-.76-8.9-7.25-4.04.13-4.63-.42-4.62-4.51.03-12.02-.49-24.07,2.03-35.97,3.33-15.73,10.15-29.45,23.34-39.35,14.07-10.57,30.21-13.17,47.3-11.31,27.88,3.04,48.13,21.81,52.67,53.49,1.63,11.38,1.23,23.06,1.63,34.6.09,2.56-1.27,3.3-4.45,2.93-1.58,7.11-2.81,8.06-10.05,7.54l-.02-39.84Z" fill="#fff"/>
      <path id="_패스_1550" data-name="패스 1550" d="m114.93,83.45c0,6.95.03,13.9,0,20.85-.03,5.08-2.57,7.54-7.68,7.56-1.31,0-2.63.04-3.94-.05-3.76-.27-6.33-2.77-6.35-6.57-.07-14.37-.07-28.73,0-43.1.02-3.88,2.68-6.48,6.54-6.74,1.4-.09,2.82-.05,4.23-.02,4.52.11,7.17,2.73,7.2,7.23.05,6.95.01,13.9,0,20.85" fill="#fff"/>
      <path id="_패스_1551" data-name="패스 1551" d="m37.08,83.45c0,6.95.03,13.9,0,20.85-.03,4.94-2.55,7.39-7.51,7.41-1.22,0-2.44.02-3.66-.01-3.91-.12-6.75-2.61-6.78-6.44-.1-14.46-.1-28.92,0-43.38.03-3.98,2.89-6.37,6.95-6.6,8.57-.49,11.49,1.6,11.07,10.72-.27,5.81-.05,11.64-.05,17.46" fill="#fff"/>
      <rect id="_사각형_586" data-name="사각형 586" width="134" height="116" fill="none"/>
    </g>
  </g>
</svg>