<?xml version="1.0" encoding="UTF-8"?>
<svg id="Layer_2" data-name="Layer 2" xmlns="http://www.w3.org/2000/svg" viewBox="0 0 138 138">
  <g id="Logo">
    <g id="symbol_04_03_0003_01" data-name="symbol 04 03 0003 01">
      <path id="_합치기_33" data-name="합치기 33" d="m33.91,132.99c-15.96-.02-28.89-12.95-28.91-28.91V33.91c.02-15.96,12.95-28.9,28.91-28.91h70.16c15.96.02,28.89,12.95,28.91,28.91v70.16c-.02,15.96-12.95,28.89-28.91,28.91H33.91ZM7.27,33.91v70.16c.02,14.71,11.94,26.62,26.64,26.64h70.16c14.71-.02,26.62-11.93,26.64-26.64V33.91c-.02-14.71-11.93-26.62-26.64-26.64H33.91c-14.71.02-26.63,11.94-26.64,26.64Zm29.58,93.78c-8.92,0-17.24-4.47-22.15-11.92h27.25c-.69,1.28-1.05,2.71-1.05,4.16,0,3.27,1.83,6.27,4.74,7.76h-8.79Zm82.9-7.76c0-4.82-3.91-8.72-8.73-8.72h-22.83c.69-1.28,1.05-2.71,1.05-4.16,0-4.82-3.9-8.72-8.72-8.73H10.3v-52.19h52.37c4.82,0,8.72-3.9,8.73-8.72,0-4.82-3.9-8.73-8.72-8.73H11.59c3.54-10.96,13.75-18.38,25.27-18.38h64.29c14.67,0,26.55,11.89,26.55,26.55h0v36.46c-1.65-2.13-4.19-3.37-6.88-3.37h-12.34c.82-1.35,1.25-2.91,1.25-4.49,0-4.82-3.9-8.72-8.72-8.72h-61.74c-4.82,0-8.72,3.9-8.73,8.72h0c0,4.82,3.91,8.73,8.73,8.73h12.34c-.81,1.35-1.25,2.9-1.25,4.48h0c0,4.82,3.91,8.72,8.72,8.72h61.74c2.69,0,5.23-1.24,6.88-3.37v17.11c0,7.12-2.86,13.95-7.95,18.94,0-.04,0-.09,0-.14h0Z" fill="#fff"/>
      <rect id="_사각형_289" data-name="사각형 289" width="138" height="138" fill="none"/>
    </g>
  </g>
</svg>