<?xml version="1.0" encoding="UTF-8"?>
<svg id="_레이어_2" data-name="레이어 2" xmlns="http://www.w3.org/2000/svg" viewBox="0 0 116 199">
  <g id="Logo">
    <g id="symbol_17_02_0004_01" data-name="symbol 17 02 0004 01">
      <path id="_패스_1173" data-name="패스 1173" d="m15.42,36.34c0,2.5-2.03,4.53-4.53,4.53s-4.53-2.03-4.53-4.53,2.03-4.53,4.53-4.53h0c2.5,0,4.53,2.03,4.53,4.53" fill="#fff"/>
      <path id="_패스_1174" data-name="패스 1174" d="m12.4,28.31h-2.45c-1.67,0-3.02-1.36-3.02-3.02v-9.44c0-1.67,1.35-3.02,3.02-3.02h2.45c1.67,0,3.02,1.36,3.02,3.02v9.43c0,1.67-1.36,3.02-3.02,3.02" fill="#fff"/>
      <path id="_패스_1175" data-name="패스 1175" d="m102.82,30.9c0-2.83,2.29-5.12,5.12-5.12s5.12,2.29,5.12,5.12-2.29,5.12-5.12,5.12-5.12-2.29-5.12-5.12h0" fill="#fff"/>
      <path id="_패스_1176" data-name="패스 1176" d="m52.97,26.85c0-2.24,1.82-4.05,4.05-4.05,2.24,0,4.05,1.82,4.05,4.05,0,2.24-1.81,4.05-4.05,4.05-2.24,0-4.05-1.81-4.05-4.05" fill="#fff"/>
      <path id="_패스_1177" data-name="패스 1177" d="m52.97,15.54c0-2.24,1.81-4.05,4.05-4.05,2.24,0,4.05,1.81,4.05,4.05,0,2.24-1.81,4.05-4.05,4.05h0c-2.24,0-4.05-1.81-4.05-4.05" fill="#fff"/>
      <path id="_패스_1178" data-name="패스 1178" d="m50.47,168.96c0-2.3,1.86-4.16,4.16-4.16s4.16,1.86,4.16,4.16-1.86,4.16-4.16,4.16h0c-2.3,0-4.16-1.86-4.16-4.16" fill="#fff"/>
      <path id="_패스_1179" data-name="패스 1179" d="m75.88,7h2.12c1.88,0,3.41,1.53,3.41,3.41v24.77c0,1.88-1.53,3.41-3.41,3.41h-2.13c-1.88,0-3.41-1.53-3.41-3.41V10.41c0-1.88,1.53-3.41,3.42-3.41" fill="#fff"/>
      <path id="_패스_1180" data-name="패스 1180" d="m63.99,154.66c1.22.63,1.69,2.14,1.06,3.35-.05.1-.11.19-.17.28-.55,1.2-1.25,2.32-2.1,3.33-1.23,1.46-1.93,1.87-1.77,2.22.23.51,1.96.33,3.13.21.3-.03.58-.07.73-.09,12.33-1.8,21.29-8.53,27.51-19.07,3.45-5.63,5.34-12.08,5.48-18.68.11-.66-.08-1.33-.5-1.85-.4-.27-.9-.37-1.38-.26-5,.75-9.86,2.23-14.43,4.39-6.68,3.62-9.11,5.95-10.06,7.43-.16.25-1.94,3.1-1.94,3.1-.6-.05-1.17-.26-1.66-.6-.41-.38-.69-.88-.78-1.43-.17-.97-.28-1.94-.34-2.93-.74-9.73-4.49-18.99-10.74-26.48-.99-1.22-1.82-1.52-2.91-.13-6.19,7.91-10.81,16.44-10.94,25.76,0,0-.33,16.77,11.08,28.34l1.46,1.48s1.05-1.38,1.24-1.63c1.56-2.05,2.52-3.61,4.31-5.99.77-1.22,2.38-1.58,3.6-.82.04.02.07.05.11.07m3.1-10c1.57-.06,2.5.96,2.78,2.53.03,1.45-1.1,2.67-2.54,2.75-1.35.2-2.6-.74-2.8-2.08-.02-.1-.02-.21-.03-.31-.22-1.36.71-2.65,2.07-2.86.17-.03.34-.04.51-.03" fill="#fff"/>
      <path id="_패스_1181" data-name="패스 1181" d="m31.67,184.66c-.76,5.21-.32,5.86,0,6.18.3.29.67.51,1.07.62,2.63.87,6.53-.81,8.8-2.28,6.55-4.25,9-12.91,9.64-15.44-5.8,3.9-11.42,6.64-17.65,7.97-.26.08-.5.21-.71.38-.7.68-1.11,1.6-1.14,2.57" fill="#fff"/>
      <path id="_패스_1182" data-name="패스 1182" d="m85.57,110.5h-.13c-3.68,0-3.74-.08-3.76-3.76-.02-3.57.44-3.16-3.15-3.16s-3.05-.4-3.07,3.08c-.03,3.85,0,3.83-3.88,3.85-3.46.02-3-.47-3.02,2.99-.02,3.22,0,3.22,3.18,3.22,3.71,0,3.69,0,3.72,3.75.03,3.64-.56,3.17,3.23,3.18,3.34.01,2.98.34,2.99-2.93.01-4,0-4,4.05-4q3.01,0,3.01-2.99,0-3.23-3.17-3.23" fill="#fff"/>
      <path id="_패스_1183" data-name="패스 1183" d="m45.14,170.98l1.73-1.45-2.15-.23c-5.63-.6-12.33-3.82-12.33-3.82-1.72-.83-9.27-4.59-10.81-5.82-.36-.3-.78-.5-1.24-.59-.51-.08-1.03-.02-1.51.18-4.22,1.62-8.17,3.85-11.72,6.63-.93.7-1.07,1.37-.07,2.14,10.44,8.07,19.19,8.44,19.19,8.44,3.71.19,7.43-.3,10.97-1.44,2.86-.89,5.55-2.26,7.95-4.05" fill="#fff"/>
      <path id="_패스_1184" data-name="패스 1184" d="m33.45,160.38c4.33,2.31,9.13,3.6,14.03,3.75-.16-.34-.88-1.88-1.04-2.22-6.92-14.71-7.09-14.96-7.5-16.49-.43-1.63-2.3-9.26-2.26-11.3.02-.41-.06-.82-.22-1.2-.39-.71-.99-1.28-1.71-1.65-6.71-4.3-14.18-6.25-21.99-7.19-1.93-.23-1.94,1-1.83,2.32,1.28,15.45,8.73,26.85,22.52,33.98" fill="#fff"/>
      <path id="_패스_1185" data-name="패스 1185" d="m78.01,183.63c-.42-1.17-1.46-1.99-2.69-2.13-2.77-.52-9.86-3.41-14.03-5.73-.57-.32-1.57-.9-2.79-1.72.04.6.12,1.19.23,1.77,2.32,12.9,18.75,17.29,20.24,17.3,1.11,0,1.43-.38,1.27-1.47-.4-2.76-1.15-5.46-2.23-8.03" fill="#fff"/>
      <path id="_패스_1186" data-name="패스 1186" d="m101.89,165.7c-3.43-2.67-7.23-4.82-11.29-6.4-1.31-.53-2.81-.24-3.84.73-2.18,1.67-10.47,6.04-16.75,7.95-3.05.93-7.62,1.92-7.62,1.92l1.88,1.2c1.99,1.27,4.07,2.47,4.24,2.57,4,1.92,8.39,2.88,12.83,2.8,0,0,9.73.22,20.69-8.29,1.22-.95.95-1.66-.13-2.49" fill="#fff"/>
      <rect id="_사각형_520" data-name="사각형 520" width="116" height="199" fill="none"/>
    </g>
  </g>
</svg>