<?xml version="1.0" encoding="UTF-8"?>
<svg id="_레이어_2" data-name="레이어 2" xmlns="http://www.w3.org/2000/svg" viewBox="0 0 256 252">
  <g id="Logo">
    <g id="symbol_17_02_0003_02" data-name="symbol 17 02 0003 02">
      <path id="_패스_1168" data-name="패스 1168" d="m247.62,227.5c-.46-4.15-1.53-6.92-2.05-9.53-1.05-5.25-2.09-10.5-3.07-15.76-1.18-6.39-2.31-12.79-3.41-19.2-.72-4.17-1.88-8.24-2.4-12.45-.55-4.48-.24-8.97-.17-13.45.17-10.12-2.94-19.11-8.44-27.46-3.75-5.69-7.26-11.55-10.84-17.35-4.96-8.03-9.81-16.12-14.88-24.08-1.12-1.72-1.68-3.73-1.63-5.78.04-19.51.05-39.01.01-58.52.06-3.25-.73-6.46-2.31-9.31-1.16-2.09-2.78-3.89-4.73-5.27-1.57-.99-3.3-1.7-5.12-2.1-7.32-1.53-157.77-.73-167.16-.68-2.32.17-4.54,1-6.41,2.39-2.6,2.04-4.31,5.02-4.75,8.3v58.11c2.44,3.04,3.32,3.25,5.87,1.9,1.31-.73,2.05-2.17,1.89-3.65-.02-.33,0-.67.06-1V20.25c0-3.76,3.04-6.8,6.8-6.8h141.08c4.41.06,7.82.09,10.11.1,1.31.01,2.63.07,3.94.09,1.23.02,1.29,0,1.74.01,1.97-.04,3.93.29,5.78.97,1.55.67,2.93,1.68,4.04,2.96,2.25,2.67,2.47,5.91,2.58,8.09.45,8.65.08,17.27-.1,20.85-.17,23.07-.23,31.56-.23,31.81v.42c-.85-.14-1.71-.19-2.57-.15-8.08.35-16.17,8.52-17.13,16.89-.36,4.35.71,8.7,3.06,12.39,4.63,7.96,9.22,15.94,13.88,23.89,1.05,1.72,1.61,3.7,1.6,5.71-.01,2.72-.02,5.44-.02,8.16,0,4.21-.17,10.87,0,18.1,0,0,.46,20.06-.39,33.62-.06.9-.22,2.95-1.61,3.84-.32.2-.67.33-1.04.38-2.66.43-21.13.4-23.65.39H24.91c-3.76,0-6.8-3.04-6.8-6.8-.05-1.7-.12-4.27-.19-7.37-.46-20.23-.17-33.51-.07-48.36.05-8.41.07-20.43-.14-35.15-.64-1.8-2.55-2.82-4.4-2.35-1.4.27-2.16,1.31-3.03,2.25-.13,17.32-.62,89.68.8,93.96.24.72.54,1.41.54,1.41.98,2.24,2.47,4.23,4.34,5.8,1.83,1.52,4,2.59,6.32,3.11,1.91.33,3.85.48,5.79.45l1.85-.05c35.64,0,71.28,0,106.92-.03,1.3-.09,2.57.42,3.45,1.37,6.64,6.97,14.84,12.29,23.91,15.51,3.73,1.49,7.67,2.37,11.68,2.59,1.38.02,1.55.92,1.83,1.89.9,3.11,1.45,6.32,3.23,9.15,1.24,1.84,2.95,3.32,4.96,4.27,0,0,.35.23.71.46,5.14,3.18,39.57,4.67,53.36-.11,3.89-1.18,6.87-4.34,7.82-8.29.17-2.72.11-5.45-.19-8.16" fill="#fff"/>
      <path id="_패스_1169" data-name="패스 1169" d="m18.42,90.02c0,2.3-1.86,4.16-4.16,4.16-2.3,0-4.16-1.86-4.16-4.16,0-2.3,1.86-4.16,4.16-4.16h0c2.3,0,4.16,1.86,4.16,4.16" fill="#fff"/>
      <rect id="_사각형_519" data-name="사각형 519" width="256" height="252" fill="none"/>
    </g>
  </g>
</svg>