<?xml version="1.0" encoding="UTF-8"?>
<svg id="_레이어_2" data-name="레이어 2" xmlns="http://www.w3.org/2000/svg" viewBox="0 0 285.23 285.68">
  <g id="Logo">
    <g id="symbol_01_01_0002_01" data-name="symbol 01 01 0002 01">
      <path id="_패스_792" data-name="패스 792" d="M157.24,163.42c1.82-.15,3.65-.15,5.48-.15l22.31-.02c2.56-.15,5.13,.15,7.59,.9,1.37,.45,2.56,1.34,3.37,2.53,1.11,1.81,.83,4.12,.42,6.2-1.18,6.5-3.66,12.69-7.29,18.2-1.3,1.89-2.95,3.78-5.2,4.21-1.61,.23-3.26-.14-4.62-1.03-1.35-.89-2.58-1.95-3.67-3.14l-13.11-13.2-6.49-6.53c-1.4-1.41-5.09-4.12-3.45-6.52,.64-.72,1.55-1.16,2.51-1.2,.71-.11,1.43-.2,2.16-.25Z" fill="#fff"/>
      <path id="_패스_793" data-name="패스 793" d="M169.83,208.79c-4.59,2.94-9.73,4.93-15.1,5.87-1.5,.28-3.03,.31-4.53,.08-4.95-.93-5.22-5.74-5.23-9.91l-.1-29.71c-.06-1,.05-2,.33-2.96,.29-.97,1.07-1.73,2.05-2,1.39-.28,2.66,.8,3.67,1.8l4.47,4.42c6.08,6.01,12.17,12.03,18.11,18.17,1.63,1.69,3.35,3.61,3.41,5.96-.02,1.48-.57,2.91-1.55,4.02-.97,1.1-2.1,2.06-3.34,2.84-.71,.48-1.44,.95-2.17,1.41Z" fill="#fff"/>
      <path id="_패스_794" data-name="패스 794" d="M130.7,176.78c1.51-1.45,3.01-2.91,4.49-4.39,.63-.69,1.36-1.29,2.17-1.76,.83-.47,1.82-.53,2.7-.16,1.51,.74,1.71,2.78,1.69,4.47l-.21,31.45c-.01,2.14-.08,4.45-1.39,6.15-1.27,1.48-3.14,2.32-5.09,2.3-1.93-.04-3.84-.39-5.65-1.03-5.79-1.77-11.52-4-16.39-7.6-.86-.58-1.62-1.31-2.23-2.16-1.13-2.01-1.15-4.45-.06-6.48,1.1-1.98,2.58-3.72,4.35-5.13,3.44-3.02,6.33-6.52,9.56-9.77,1.98-1.99,4.01-3.94,6.04-5.89Z" fill="#fff"/>
      <path id="_패스_795" data-name="패스 795" d="M122.74,180.11c-4.18,4.16-8.44,8.24-12.82,12.19-1.41,1.27-2.99,2.6-4.88,2.7-4.88,.26-7.72-6.18-9.51-9.74-2.37-4.51-3.87-9.43-4.42-14.51-.17-1.94-.09-4.12,1.27-5.52,1.23-1.27,3.15-1.53,4.92-1.66,4.73-.36,9.47-.34,14.21-.32l20.75,.08c.7-.06,1.4,.07,2.03,.39,.92,.71,1.26,1.93,.84,3.01-.43,1.04-1.09,1.97-1.93,2.72-3.45,3.59-6.94,7.14-10.46,10.66Z" fill="#fff"/>
      <circle id="_타원_16" data-name="타원 16" cx="179.61" cy="139.89" r="6.85" fill="#fff"/>
      <circle id="_타원_17" data-name="타원 17" cx="110.14" cy="139.89" r="6.85" fill="#fff"/>
      <path id="_패스_796" data-name="패스 796" d="M127.59,285.67c-2.72-1.93-3.16-4.34-2.15-7.51,2.92-9.2,5.6-18.46,8.37-27.71,.25-.85,.44-1.71,.86-3.38-4.53,2.87-8.36,5.28-12.17,7.71-3.29,2.09-6.5,4.32-9.87,6.29-5.89,3.43-11.79,3.21-17.22-.9-5.31-4.02-7.33-9.56-5.7-16.04,1.65-6.58,6.09-10.43,12.78-11.63l2.63-.47c-2.04-1.24-3.78-2.22-5.44-3.32-23.9-15.94-36.43-38.28-37.3-66.99-.31-10.31-.06-20.63-.05-30.95,0-3.59,1.55-5.6,4.32-5.69,2.86-.09,4.59,2.02,4.6,5.7,.01,9.94-.03,19.89,.01,29.83-.1,35.19,25.41,65.22,60.15,70.81,37.99,6.42,75.68-20.41,81.44-58.36,1.22-8.02,.95-16.29,1.17-24.45,.17-6.04,.02-12.08,.04-18.12,.01-3.34,1.64-5.32,4.32-5.41,2.78-.09,4.61,1.99,4.58,5.43-.11,12.73,.59,25.53-.6,38.16-2.58,27.27-16.39,47.82-39.84,61.93-.56,.33-1.12,.66-1.67,1-.07,.04-.11,.14-.33,.44,1.02,.21,1.94,.39,2.86,.58,6.45,1.34,10.63,5.21,12.23,11.54,1.6,6.38-.36,11.86-5.5,15.88s-10.98,4.73-16.69,1.41c-6.66-3.87-13.04-8.21-19.55-12.34-.84-.53-1.72-1.02-3.18-1.87,.38,1.52,.56,2.39,.82,3.23,2.74,9.16,5.38,18.34,8.28,27.44,1.03,3.23,.77,5.75-2.07,7.78h-3.36c-1.08-1.75-2.57-3.37-3.18-5.28-2.61-8.12-4.96-16.32-7.41-24.48-.27-.9-.59-1.79-.88-2.68-3.31,9.12-5.92,18.18-8.78,27.16-.61,1.9-2.1,3.53-3.18,5.28h-3.34Zm-1.13-43.95l-.2-.56c-7.09,0-14.18-.05-21.27,.02-3.44,.04-5.58,1.65-6.57,4.58-.96,2.61-.09,5.54,2.13,7.21,2.4,1.87,5.09,1.98,8.01,.16,5.18-3.24,10.32-6.56,15.47-9.84,.81-.52,1.62-1.04,2.43-1.56h0Zm32.58-.49l-.25,.58c6.55,4.06,13.04,8.23,19.7,12.11,2.29,1.33,4.75,.44,6.65-1.33,1.9-1.61,2.63-4.21,1.85-6.58-.83-2.76-2.77-4.63-5.58-4.71-7.45-.2-14.91-.07-22.37-.07h0Z" fill="#fff"/>
      <path id="_패스_797" data-name="패스 797" d="M136.93,163.52c-.03,.05-.05,.12-.04,.18,0,0,.02,.14,.05,.28,.04,.2,1.93,5.57,6.77,5.57,0,0,4.64,0,6.74-5.52,.03-.08,.05-.16,.05-.24,0-.14-.02-.29-.08-.42-.19-.15-.42-.22-.66-.19-.46,.05-5.09,.08-10.74,.12-.28,0-.55,.03-.83,.01-.31-.01-.62,0-.93,.04-.13,0-.25,.06-.34,.16Z" fill="#fff"/>
      <path id="_패스_798" data-name="패스 798" d="M283.5,90.83c-1.29-1.04-2.83-1.72-4.47-1.98l-60.52-14.94c-1.6-.26-3.12-.91-4.4-1.91-1.37-1.26-1.88-3.18-2.33-4.99-5.06-20.37-10.13-40.73-15.19-61.1-.23-1.59-.94-3.07-2.02-4.26-1.44-1.27-3.54-1.34-5.46-1.34l-43.57,.03-46.09-.36V.04c-.6-.04-1.2-.05-1.76-.03-2.66,.1-5.64,.34-7.4,2.33-.95,1.27-1.58,2.75-1.84,4.32l-14.93,60.48c-.21,3.5-2.98,6.31-6.48,6.56l-10.9,2.79-45.43,11.61c-2.79,.71-6.67,1-9.01,2.84-.55,.43-.98,1-1.24,1.64-.42,1.2-.56,2.49-.4,3.76,.54,6.07,3.67,11.6,8.6,15.18,5.88,4.31,13.54,5.7,20.8,5.06,.56-.05,1.11-.13,1.66-.24h37.61l.02-.04c.5,.04,.99,.07,1.47,.07l185.62,.02c5.44,0,11.03-.03,16.08-2.06,6.93-2.87,11.89-9.11,13.14-16.5,.39-2.45,.23-5.27-1.56-6.99ZM97.12,9.27l4.72-.03h38.77c.42,.03,.83,.05,1.22,.05h46.36s11.1,44.45,11.1,44.45H86.02c3.7-14.82,7.4-29.65,11.1-44.47Zm-13.42,53.63h117.9l2.16,8.72H81.55c.74-3,1.45-5.84,2.16-8.72Zm184.03,43.24c-3.75,1.35-7.83,1.36-11.81,1.36l-180.42-.11h-5.05c-.31,0-.63,.01-.95,.03-10.29-.09-39.98-.33-40.53-.36h0c-.74-.02-1.49,0-2.23,.07-1.75,.22-3.51,.33-5.27,.33-5.74-.41-10.57-4.48-11.93-10.08,22.15-4.35,43.46-12.76,65.87-15.51,10.67-1.31,21.45-1.32,32.19-1.33l59.33-.05c13.61-.01,27.25-.02,40.79,1.44,23.16,2.5,45.62,9.24,67.93,15.95-.74,3.92-4.16,6.9-7.9,8.25h0Z" fill="#fff"/>
    </g>
  </g>
</svg>