<?xml version="1.0" encoding="UTF-8"?>
<svg id="_레이어_2" data-name="레이어 2" xmlns="http://www.w3.org/2000/svg" viewBox="0 0 175 162">
  <g id="Logo">
    <g id="symbol_05_02_0004_01-2" data-name="symbol 05 02 0004 01-2">
      <path id="_패스_1353" data-name="패스 1353" d="m8.54,144.89c5.09-1.64,10.41-2.49,15.76-2.51,10.71,0,19.52,4.64,26.6,12.21,3.49,3.73,6.67,4.43,11.1,2.74,3.96-1.51,8.17-1.55,12.35-1.32,2.28.24,4.47-.97,5.49-3.02,4.93-8.04,9.34-16.41,14.85-24.08,4.26-5.93,8.66-11.82,15.03-15.64,11.86-7.11,25.92-4.24,34.58,7.02,5.26,6.83,8.95,14.61,12.73,22.31.53.93,1.01,1.89,1.42,2.88,1.1,3.18,3.29,3.74,6.34,3.17,2.81-.52,3.97-.27,3.95,1.3C185.85,93.06,124.76,29.78,85.72,3.48l-.43-.29-.06.04C-6.13,71.4,3.71,138.96,5.68,148.62c-.18-1.93.74-3.08,2.86-3.73" fill="#fff"/>
      <rect id="_사각형_422" data-name="사각형 422" width="175" height="162" fill="none"/>
    </g>
  </g>
</svg>