<?xml version="1.0" encoding="UTF-8"?>
<svg id="Layer_2" data-name="Layer 2" xmlns="http://www.w3.org/2000/svg" viewBox="0 0 106 54">
  <g id="Logo">
    <g id="symbol_07_02_0006_01" data-name="symbol 07 02 0006 01">
      <path id="_패스_1515" data-name="패스 1515" d="m78.11,13.72c-1.63,0-2.95,1.76-2.95,3.93s1.32,3.93,2.95,3.93,2.95-1.76,2.95-3.93-1.32-3.93-2.95-3.93" fill="#fff"/>
      <path id="_패스_1516" data-name="패스 1516" d="m101.05,13.72c-1.63,0-2.95,1.76-2.95,3.93s1.32,3.93,2.95,3.93,2.95-1.76,2.95-3.93-1.32-3.93-2.95-3.93" fill="#fff"/>
      <path id="_패스_1517" data-name="패스 1517" d="m73.29,41.55c-22.14,5-39.5,3.18-51.61-5.42C10.38,28.12,6.96,16.27,6.06,11.98c12.95-3.03,24.33-1.59,33.83,4.3,4.35,2.63,8.07,6.17,10.91,10.39.54.89,1.71,1.18,2.6.63.87-.53,1.17-1.66.66-2.55-3.1-4.7-7.2-8.66-12.01-11.58C34.6,8.49,21.83,3.92,3.42,8.73c-.91.24-1.5,1.11-1.4,2.04,1.8,11.41,8.06,21.63,17.41,28.41,8.33,5.93,18.85,8.91,31.44,8.91,7.83-.09,15.63-1.04,23.26-2.85,1.02-.23,1.66-1.25,1.43-2.27-.23-1.02-1.25-1.66-2.27-1.43" fill="#fff"/>
      <path id="_패스_1518" data-name="패스 1518" d="m17.91,19.81c-.54.9-.24,2.06.66,2.6,0,0,0,0,0,0,24.12,14.28,41.02,15.17,41.74,15.2h.08c1.05.02,1.91-.82,1.92-1.86.02-1.04-.8-1.89-1.84-1.92-.17,0-16.74-.93-39.97-14.68-.9-.53-2.06-.24-2.6.67" fill="#fff"/>
      <path id="_패스_1519" data-name="패스 1519" d="m96,24.25c-5.32,5.12-10.96.49-11.58-.06-.78-.69-1.98-.62-2.67.17s-.62,1.98.17,2.67c2.42,2.1,5.5,3.3,8.7,3.38,3.02-.03,5.91-1.26,8.02-3.43.75-.73.78-1.93.05-2.68-.73-.75-1.93-.78-2.68-.05" fill="#fff"/>
      <rect id="_사각형_553" data-name="사각형 553" width="106" height="54" fill="none"/>
    </g>
  </g>
</svg>