<?xml version="1.0" encoding="UTF-8"?>
<svg id="Layer_2" data-name="Layer 2" xmlns="http://www.w3.org/2000/svg" viewBox="0 0 85 105">
  <g id="Logo">
    <g id="symbol_14_02_0001_01" data-name="symbol 14 02 0001 01">
      <path id="_사각형_130" data-name="사각형 130" d="m32.48,78.63l6.05,1.61c2.23.6,3.56,2.88,2.96,5.11l-2.28,8.53c-.6,2.23-2.89,3.55-5.12,2.96l-6.05-1.61c-2.23-.6-3.56-2.88-2.96-5.11l2.28-8.53c.6-2.23,2.89-3.55,5.12-2.96Z" fill="#fff"/>
      <path id="_패스_362" data-name="패스 362" d="m45.48,19.75c-.31-.06-.56-.28-.67-.57l-2.63-6.93c-.18-.47.05-1,.52-1.18.47-.18,1,.05,1.18.52,0,0,0,0,0,.01l2.62,6.93c.18.47-.06,1-.53,1.18-.16.06-.34.07-.51.04Z" fill="#fff"/>
      <path id="_패스_363" data-name="패스 363" d="m53.4,17.83c-.49-.1-.81-.58-.71-1.08l1.38-6.8c.1-.49.58-.82,1.08-.72t0,0h0c.49.1.81.58.71,1.08l-1.38,6.8c-.1.49-.58.82-1.08.72,0,0,0,0,0,0h0Z" fill="#fff"/>
      <path id="_패스_364" data-name="패스 364" d="m58.71,24.34c-.49-.1-.81-.59-.71-1.08.04-.21.16-.4.33-.53l6.01-4.75c.41-.29.98-.2,1.28.22.27.38.21.91-.14,1.22l-6.01,4.75c-.21.17-.49.23-.75.18Z" fill="#fff"/>
      <path id="_패스_365" data-name="패스 365" d="m40.52,57.03c.48-1.54.75-3.15.81-4.76l-7.65.85c-.68.08-1.66-.12-1.6-.8l9.6-5.05c.58-.26,1.11-.63,1.53-1.11.45-.77.74-1.62.88-2.51.47-1.57,1.56-2.89,3.02-3.66.76,1.38.93,3.01.48,4.52-.29.7-.5,1.43-.63,2.18.05,1.07.41,2.1,1.04,2.96l4.58,7.69c.24.4.45,1.01.06,1.28-.33.23-.77-.02-1.09-.27l-6.59-5.19c-5.6,13.44.76,28.87,14.21,34.46,1.76.73,3.6,1.27,5.49,1.61.23.07.48.05.7-.06.29-.2.25-.64.18-.98-2.64-12.99-5.3-25.97-7.97-38.96l-3-14.6c-.51-2.47-1.02-4.93-1.53-7.4-.16-.79-.16-2.33-1.03-2.73-.86-.4-1.77.6-2.3,1.15L6.26,70.23c-.5.51-1.04,1.21-.76,1.87.27.44.71.74,1.21.82,1.93.54,3.93.83,5.93.87,6.64.25,13.48-1.2,18.98-4.94,4.21-2.83,7.34-7,8.89-11.82Z" fill="#fff"/>
      <path id="_패스_366" data-name="패스 366" d="m23.65,0l61.35,16.4-23.65,88.6L0,88.6,23.65,0Z" fill="none"/>
    </g>
  </g>
</svg>