<?xml version="1.0" encoding="UTF-8"?>
<svg id="_레이어_2" data-name="레이어 2" xmlns="http://www.w3.org/2000/svg" viewBox="0 0 112 115">
  <g id="Logo">
    <g id="symbol_07_01_0002_01" data-name="symbol 07 01 0002 01">
      <rect id="_사각형_229" data-name="사각형 229" width="112" height="115" fill="none"/>
      <path id="_패스_954" data-name="패스 954" d="M30.19,95.11c3.45,0,7.09,.16,10.7-.07,1.95-.19,3.86-.68,5.67-1.45,2.22-.8,3.61-3.02,3.36-5.37-.13-6.88-2.79-13.46-7.47-18.5-1.36-1.5-2.74-2.98-4.17-4.4-2.44-2.51-5.8-3.93-9.31-3.92-1.44-.01-2.88-.01-4.32,0-3.71,.02-5.69,2.53-4.75,6.11,2.03,7.96,6.59,15.04,13,20.17,1.4,1.14,2.91,2.15,4.57,3.37-5.38,.58-10.76-.96-15.03-4.28-4.44-3.39-6.84-8.16-8.58-13.28-5.39-15.84-2.9-30.48,7.05-43.94-.25,1.33-.41,2.67-.47,4.02,.05,3.55,.21,7.11,.4,10.66,.1,.72,.31,1.42,.62,2.07,.58,2.09,2.6,3.44,4.76,3.18,6.12-.12,12.13-1.59,17.61-4.31,3.85-1.9,7.8-3.51,12.16-3.72,4.71-.23,8.99,1.31,13.1,3.35,5.4,2.75,11.33,4.34,17.38,4.65,3.74,.17,5.12-.74,6.18-4.38,1.31-4.51,.97-9.08,.38-13.65-.07-.57-.16-1.13-.24-1.69l.36-.28c.14,.29,.29,.57,.46,.85,11.02,16.16,12.13,33,2.92,50.24-3.89,7.28-10.5,10.59-18.7,10.61-.4-.01-.79-.05-1.19-.1,2.65-2.3,5.51-4.49,8.02-7.04,4.45-4.6,7.61-10.29,9.14-16.51,.91-3.49-1.06-6.08-4.61-6.11-1.58-.01-3.17-.02-4.75,0-2.63-.07-5.19,.8-7.24,2.44-4.88,4.19-9.46,8.75-11.56,15.05-.9,3.04-1.51,6.16-1.82,9.32-.33,2.47,.97,4.27,3.16,5.35,3.52,1.73,7.32,1.81,11.12,1.65,1.85-.08,3.7-.3,5.64-.46-13.13,10.84-36.9,13.04-53.55,.34Zm26.7-29.87c4.14,0,7.48-3.36,7.48-7.5s-3.36-7.48-7.5-7.48c-4.14,0-7.48,3.36-7.48,7.5,0,.02,0,.05,0,.07,.06,4.1,3.4,7.4,7.5,7.41h0Z" fill="#fff"/>
      <path id="_패스_955" data-name="패스 955" d="M25.49,35.52c-.27-2.56,0-5.16,.83-7.6,1.66-5.42,5.56-9.86,10.72-12.2,13.55-6.44,27.12-6.42,40.49,.45,7.02,3.61,10.54,9.66,10.88,17.55,.02,.52-.04,1.04-.08,1.85-7.76-11.14-18.09-17.24-31.49-17.22-13.36,.02-23.64,6.11-31.35,17.18Z" fill="#fff"/>
      <path id="_패스_956" data-name="패스 956" d="M110.71,57.89c.05,30.25-22.54,56.6-53.67,55.86-29.45-.66-54.13-26.62-54.9-55.86C.68,13.05,51.4-14.61,87.99,11.42c14.58,10.55,22.82,28.63,22.72,46.47h0Zm-.55,0c.15-28.45-25.5-50.9-53.12-50.63C28.9,7.32,6.23,29.79,5.13,57.89c-.94,21.08,12.19,41.02,32.04,48.09,32.85,12.25,73.13-11.63,72.98-48.09h0Z" fill="#fff"/>
    </g>
  </g>
</svg>