<?xml version="1.0" encoding="UTF-8"?>
<svg id="Layer_2" data-name="Layer 2" xmlns="http://www.w3.org/2000/svg" viewBox="0 0 402 248">
  <g id="Logo">
    <g id="symbol_01_01_0005_01" data-name="symbol 01 01 0005 01">
      <path id="_합치기_38" data-name="합치기 38" d="m9.53,231.75c-1.81,0-3.29-1.47-3.29-3.29s1.47-3.29,3.29-3.29h19.67v-32.43c-6.01-1.06-11.49-5.03-15.69-11.46-4.68-7.15-7.26-16.6-7.26-26.61s2.58-19.45,7.26-26.6c4.96-7.58,11.7-11.76,18.97-11.76s14.02,4.18,18.98,11.76c4.68,7.15,7.26,16.6,7.26,26.6s-2.58,19.45-7.26,26.61c-4.21,6.43-9.68,10.39-15.69,11.46v32.43h70.71c-1.36-11.31-5.31-46.96-6.58-86.19-.38-8.56.18-17.13,1.68-25.56-13.86-14.42-15.68-30.15-14.7-40.92.59-6.57,2.28-13,5-19.01-5.14-8.92-6.1-16.72-2.83-23.2,6.35-12.57,26.32-14.56,27.17-14.64,1.49-.14,2.88.75,3.39,2.15,4.44,12.27,4.13,21.93-.92,28.72-5.71,7.68-15.76,9.19-20.72,9.46-2.5,5.48-4.05,11.35-4.57,17.35-1.15,11.7,2.48,23.37,10.08,32.34,6.8-22.33,22.05-30.26,36.65-35.79,19.59-7.42,76.82-1.76,79.25-1.51.22.02.44.06.65.13.97-1.07,1.87-2.2,2.7-3.37,7.82-10.95,18.53-11.01,24.93-9.01-.29-5.38.09-16.04,6.93-21.34,1.95-1.61,4.57-2.15,7-1.46,7.23,2,12.68,14.46,14.04,17.84.21,0,.41.02.62.03,1.33-3.33,6.8-15.87,14.04-17.87,2.43-.69,5.04-.14,6.99,1.46,7.24,5.61,7.25,17.21,6.87,22.22,5.83-2.71,18.38-4.27,27.23,8.13,7.35,10.29,12.23,8.31,12.8,8.03,1.16-.87,2.77-.82,3.88.1,1.16.96,1.54,2.58.91,3.96-4.88,10.12-15.19,16.5-26.43,16.34-.86,0-1.74-.03-2.65-.1-.32-.03-.64-.11-.94-.23-.17,7.07-1.3,14.08-3.34,20.85,3.05,4.04,4.37,9.13,3.66,14.15-1.26,8.47-8.2,16.45-20.64,23.77,0,7.58-3.22,14.79-8.85,19.86-2.34,2.09-4.95,3.86-7.76,5.25l-3.76,33.94,6.55,14.13h82.43v-32.43c-6-1.06-11.48-5.03-15.69-11.46-4.68-7.15-7.26-16.6-7.26-26.61s2.58-19.45,7.26-26.6c4.96-7.58,11.7-11.76,18.98-11.76s14.01,4.18,18.97,11.76c4.68,7.15,7.26,16.6,7.26,26.6s-2.58,19.45-7.26,26.61c-4.21,6.43-9.69,10.39-15.69,11.46v32.43h19.66c1.81,0,3.29,1.47,3.29,3.29s-1.47,3.29-3.29,3.29H9.53Zm244.84-6.57h23.19l-4.77-10.3h-18.42v10.3Zm-20.56-14.45l7.84,14.45h6.14v-41.38c-4.46.03-8.25-.18-10.76-.38l-3.22,27.31Zm-20.52,14.45h20.88l-5.7-10.52h-16.06l.88,10.52Zm-30.97-14.31l5.85,14.31h18.53l-3.17-37.67h-20.25l-.96,23.37Zm-23.73,14.31h22.48l-4.27-10.45h-19.18l.96,10.45Zm-23.77-14.81l7.4,14.81h9.77l-3.48-37.67h-10.7l-2.99,22.86Zm-21.73,14.81h21.79l-5.47-10.95h-17.56c.52,4.85.96,8.59,1.25,10.95Zm141.28-41.59v24.72h17.58l3.15-28.37c-6.73,2.08-13.7,3.3-20.73,3.64Zm-97.35,24.58h18.83l.85-20.66h-21.6l1.92,20.66Zm49.54-27.23c1.71,0,3.13,1.31,3.27,3.01l2.04,24.15h15.64l3.38-28.64c.21-1.8,1.85-3.09,3.65-2.88,0,0,0,0,.01,0,.3.04,25.87,3.06,42.85-4.53.06-.03.12-.06.18-.08,2.84-1.24,5.46-2.92,7.78-4.97,3.31-2.94,5.54-6.92,6.3-11.29-5.86,2.77-12.26,4.22-18.74,4.25-18,0-33.15-11.44-39.93-22.8-5.78-9.66-5.6-19.02.25-24.55-1.61-6.23-2.5-12.63-2.64-19.06-10.9-.19-20.76-6.51-25.49-16.33-.49-1.12-.35-2.4.37-3.39-18.24-1.26-50.31-2.62-63.03,2.2-19,7.19-37.43,17.96-35.99,62.75.87,26.94,3.01,52.16,4.7,68.88h17.39l3.13-23.86c.21-1.63,1.61-2.86,3.26-2.86h71.62Zm144.31-26.24c0,17.23,9.01,31.8,19.67,31.8s19.66-14.56,19.66-31.8-9.01-31.79-19.66-31.79-19.67,14.56-19.67,31.79Zm-338.05,0c0,17.23,9.01,31.8,19.66,31.8s19.67-14.56,19.67-31.8-9.01-31.79-19.67-31.79-19.66,14.56-19.66,31.79Zm226.03-38.18c-5.51,3.78-3.71,11.4-.2,17.29,7.96,13.33,29.38,26.82,52.04,15.09,13.32-6.89,20.95-14.34,22.08-21.53.54-3.71-.62-7.47-3.15-10.24-.05-.05-.09-.11-.14-.16-.35-.09-.68-.24-.98-.44-12.96-8.65-27.69-7.74-27.84-7.73-1.81.11-3.37-1.26-3.48-3.07-.11-1.79,1.23-3.33,3.01-3.48,10.44-.35,20.78,2.23,29.82,7.47,2.05-7.91,5.32-25.99-3.19-38.43-5.86-8.57-16.49-13.13-31.58-13.56-.73-.02-1.45-.03-2.16-.03-13.71,0-23.6,3.9-29.42,11.61-9.23,12.23-6.42,31.15-4.57,39.41,8.62-4.57,18.3-6.8,28.05-6.47,1.81.14,3.16,1.73,3.02,3.54-.14,1.79-1.7,3.14-3.49,3.02-.04,0-.53-.03-1.39-.03-3.99,0-15.8.65-26.43,7.74h0Zm69.13-53.97c1.59,1.54,3.02,3.23,4.27,5.05,3.83,5.87,6.07,12.64,6.51,19.63.51-.25,1.07-.36,1.64-.32,9.69.75,15.72-3.51,19.08-7.21-3.73-.9-8.42-3.7-13.45-10.75-4.17-5.84-9.01-7.3-12.83-7.3-1.78,0-3.54.31-5.21.89Zm-79.91,6.41c-5.04,7.04-9.73,9.85-13.46,10.75,4.14,4.6,10.03,7.24,16.21,7.28.63-7.44,2.72-15.2,7.58-21.64.99-1.3,2.08-2.53,3.25-3.67-.25-.01-.5-.02-.76-.02-3.82,0-8.66,1.47-12.82,7.3Zm63.95-29.3c-2.8.77-6.61,7.04-8.9,12.11,5.01.59,9.9,1.89,14.53,3.88.26-4.78-.27-12.47-4.41-15.68-.24-.22-.55-.35-.87-.38-.12,0-.23.02-.35.06h0Zm-33.42.32c-3.71,2.87-4.52,9.33-4.46,14.09,4.63-1.6,9.46-2.54,14.35-2.79-2.31-4.97-5.96-10.87-8.68-11.62-.11-.04-.23-.05-.34-.06-.33.02-.63.16-.88.38h0Zm-163.7-6.71c-2.12,4.21-1.37,9.65,2.23,16.18,3.61-.14,12.04-1.1,16.3-6.86,3.32-4.49,3.61-11.22.85-20.02-4.96.88-15.78,3.56-19.37,10.7h0Zm187.57,95.73c0-2.74,1.47-4.96,3.28-4.96s3.29,2.22,3.29,4.96-1.47,4.97-3.29,4.97-3.28-2.22-3.28-4.96h0Zm-23.02,0c0-2.74,1.46-4.96,3.28-4.96s3.28,2.22,3.28,4.96-1.47,4.97-3.28,4.97-3.28-2.22-3.28-4.96h0Zm26.68-38.13c0-2.93,1.76-5.31,3.92-5.31s3.92,2.38,3.92,5.31-1.76,5.31-3.92,5.31-3.91-2.38-3.91-5.31h0Zm-32.35,0c0-2.93,1.76-5.31,3.92-5.31s3.92,2.38,3.92,5.31-1.76,5.31-3.92,5.31-3.92-2.38-3.92-5.31h0Z" fill="#fff"/>
      <rect id="_사각형_333" data-name="사각형 333" width="402" height="248" fill="none"/>
    </g>
  </g>
</svg>