<?xml version="1.0" encoding="UTF-8"?>
<svg id="Layer_2" data-name="Layer 2" xmlns="http://www.w3.org/2000/svg" viewBox="0 0 340 221">
  <g id="Logo">
    <g id="symbol_18_01_0004_02" data-name="symbol 18 01 0004 02">
      <path id="_패스_1200" data-name="패스 1200" d="m334.3,166.39c.08-5.02-1.59-6.81-6.52-7.98-13.14-3.09-21.05-13.39-20.96-25.93.09-12.43,8.91-22.78,22.34-25.41,4.58-.89,5.39-3.43,5.39-7.21-.02-13.11,0-26.22,0-39.33q-.01-10.62-10.82-10.63c-98.64,0-197.27,0-295.91,0-5.37,0-10.75.1-16.12,0-4.18-.08-6.36,1.4-6.31,5.98.14,15.04.1,30.08.02,45.13-.02,3.63,1.41,5.24,5.07,6.04,13.68,2.96,21.9,12.67,22.05,25.46.15,12.81-7.77,22.88-21.35,26.1-4.54,1.08-5.88,3.1-5.82,7.44.18,13.32.05,26.65.07,39.97.01,9.32.03,9.35,9.28,9.35,51.57.01,103.15.01,154.72,0,52.22,0,104.44-.09,156.66.12,6.06.03,8.6-1.72,8.47-7.88-.29-13.74-.47-27.5-.25-41.24" fill="#fff"/>
      <path id="_패스_1203" data-name="패스 1203" d="m166.92,32.86c3.8-7.57,8.08-13.66,15.49-17.99-9.95-4.66-11.57,4.15-15.54,10.14-3.86-5.77-5.81-14.43-14.03-9.75,6.41,3.67,9.71,10.74,14.08,17.6" fill="#fff"/>
      <path id="_패스_1204" data-name="패스 1204" d="m171.86,40.81c15.01-17.52,23.28-16.58,34.52,5.28-3.4-13.39,6.43-6.59,8.5-12.16-5.49-.88-9.76-4.55-14.31-7.78-12.74-9.06-24.62-3.26-28.71,14.66" fill="#fff"/>
      <path id="_패스_1205" data-name="패스 1205" d="m128.16,45.78c3.33-9.44,7.41-15.78,14.84-17.23,7.8-1.52,12.44,5.57,18.22,11.22-3.67-16.75-15.35-22.34-27.64-14.04-4.96,3.35-9.26,8.18-17.54,7.8,11.2,5.55,11.26,5.61,12.13,12.24" fill="#fff"/>
      <path id="_패스_1206" data-name="패스 1206" d="m170.59,8.54c0,1.95-1.58,3.54-3.54,3.54s-3.54-1.58-3.54-3.54,1.58-3.54,3.54-3.54c1.95,0,3.54,1.58,3.54,3.54" fill="#fff"/>
      <rect id="_사각형_604" data-name="사각형 604" width="340" height="221" fill="none"/>
    </g>
  </g>
</svg>