<?xml version="1.0" encoding="UTF-8"?>
<svg id="_레이어_2" data-name="레이어 2" xmlns="http://www.w3.org/2000/svg" viewBox="0 0 215 212">
  <g id="Logo">
    <g id="symbol_07_03_0002_01" data-name="symbol 07 03 0002 01">
      <rect id="_사각형_233" data-name="사각형 233" width="215" height="212" fill="none"/>
      <path id="_패스_962" data-name="패스 962" d="M15.43,151.4c21.87,0,42.91-.04,63.95,.07,1.84,.17,3.63,.71,5.25,1.6,14.88,6.85,29.73,7.01,44.64,.13,1.67-.77,3.48-1.72,5.23-1.73,21.24-.12,42.48-.08,63.77-.08-1.25,8.22-2.63,9.52-9.91,9.52-53.98,0-107.96-.14-161.93,.17-7.07,.04-9.46-3.15-11.01-9.67Z" fill="#fff"/>
      <path id="_패스_963" data-name="패스 963" d="M27.36,170.82H186.95c-2.58,5.73-6.4,7.54-12.36,7.51-45.19-.23-90.39-.23-135.58,0-5.63,.03-8.91-2.02-11.65-7.51Z" fill="#fff"/>
      <path id="_패스_964" data-name="패스 964" d="M6.89,126.49c-.5-4.06-.96-7.87-1.49-12.15H57.37c.97,4.04,1.87,7.78,2.93,12.15H6.89Z" fill="#fff"/>
      <path id="_패스_965" data-name="패스 965" d="M208.46,113.97c0,2.24-.05,3.65,0,5.06,.25,6.08-2.13,8.47-8.78,8.23-14.89-.54-29.82-.17-45.58-.17,.82-4.14,1.36-7.85,2.41-11.41,.25-.83,2.24-1.63,3.44-1.64,15.93-.11,31.87-.07,48.5-.07Z" fill="#fff"/>
      <path id="_패스_966" data-name="패스 966" d="M8.69,133.65c18.06,0,35.71-.43,53.3,.4,3.14,.15,6.04,5.45,10.17,9.47-3.12,.29-4.77,.58-6.43,.58-15.17,.03-30.35,.04-45.52,.02q-9.38,0-11.52-10.47Z" fill="#fff"/>
      <path id="_패스_967" data-name="패스 967" d="M143.57,144.13c3.47-8.15,8.43-11.23,16.99-10.76,14.88,.81,29.83,.23,44.83,.23q-1.53,10.54-11.37,10.54c-16.61,0-33.22,0-50.45,0Z" fill="#fff"/>
      <path id="_패스_968" data-name="패스 968" d="M165.47,192.29c-2.39,.62-4.78,1.77-7.18,1.78-34.02,.12-68.04,.12-102.06,.02-2.45,0-4.89-1.07-7.34-1.64l.25-1.55h116.01l.32,1.38Z" fill="#fff"/>
      <path id="_패스_969" data-name="패스 969" d="M128.53,208.11h-42.9l-.02-1.38h42.69l.23,1.38Z" fill="#fff"/>
      <path id="_패스_961" data-name="패스 961" d="M155.39,14.94C116.79-5.27,78.68-1.69,44.11,24.85,17.05,45.62,5.04,74.27,5.41,108.37H209.61c-.73-41.68-17.31-74.11-54.22-93.43Zm-26.32-.04c-3.03,18.17-6.07,36.33-9.11,54.5-15.56-5.58-32.95-.91-43.62,11.71l-28.79-44.04c13.63-18.74,55.78-30.49,81.51-22.17h0Zm5.53,90.1c-7.43-.15-13.43-.16-17.37-.14-1.02,0-1.98,.01-2.89,.02-.17-4.11-3.64-7.3-7.75-7.13-3.95,.17-7.09,3.4-7.13,7.35-1.45,.02-3.03,.04-4.79,.05-6.74,.05-12.17,0-15.47-.02-.54-15.21,12.6-28.28,27.85-28.36,15.36-.08,28.24,12.91,27.55,28.23Zm3.02-.11s-.31-3.46-.33-3.67c-.15-1.65-2.4-14.8-14.34-22.23-8.89-5.24-19.78-5.82-29.18-1.56-13.99,6.54-17.73,21.37-17.91,24.01-.02,.22-.24,3.79-.24,3.79l-2.6-.03-1.9-.21,.26-4.31c.15-2.5,2.06-10.27,7.33-16.97,6.82-8.57,17.1-13.64,28.05-13.84,4.43-.05,14.49,.67,23.11,8.13,9.56,8.27,11.19,19.49,11.63,22.56,.21,1.43,.33,2.87,.37,4.32l-4.26,.02Zm-5.95-28.86c-.44-.56-.93-1.07-1.47-1.53-.76-.62-1.57-1.17-2.42-1.66l5.04-13.42c4.91-13.08,9.82-26.15,14.72-39.23,7.09,2.77,13.56,6.9,19.05,12.17l-34.92,43.67Z" fill="#fff"/>
    </g>
  </g>
</svg>