<?xml version="1.0" encoding="UTF-8"?>
<svg id="Layer_2" data-name="Layer 2" xmlns="http://www.w3.org/2000/svg" viewBox="0 0 122 148">
  <g id="Logo">
    <g id="symbol_16_06_0003_02" data-name="symbol 16 06 0003 02">
      <path id="_패스_1381" data-name="패스 1381" d="m116.33,25.01l-8.43-13.58c-1.5-2.42-4.67-3.16-7.09-1.66,0,0,0,0,0,0l-56.81,35.25c-.89.55-1.59,1.37-2.01,2.33l-5.57,12.86c-1.13,2.61.07,5.64,2.68,6.77.56.24,1.17.39,1.78.42l14,.72c1.05.05,2.09-.21,2.98-.77l56.81-35.25c2.42-1.5,3.16-4.67,1.66-7.09,0,0,0,0,0,0" fill="#fff"/>
      <path id="_패스_1382" data-name="패스 1382" d="m37.61,83.13L5,51.15v61.54l26.3,25.78c4.27,4.18,9.56-1.14,9.56-9.62v-36.1c0-.19,0-.38-.01-.56-.11-3.76-1.32-7.19-3.23-9.06m-22.66,6.52c-.92,0-1.67-1.71-1.67-3.82s.75-3.82,1.67-3.82,1.67,1.71,1.67,3.82-.75,3.82-1.67,3.82m9.97,5.89c-.92,0-1.67-1.71-1.67-3.82s.75-3.82,1.67-3.82,1.67,1.71,1.67,3.82-.75,3.82-1.67,3.82" fill="#fff"/>
      <rect id="_사각형_679" data-name="사각형 679" width="122" height="148" fill="none"/>
    </g>
  </g>
</svg>