<?xml version="1.0" encoding="UTF-8"?>
<svg id="_레이어_2" data-name="레이어 2" xmlns="http://www.w3.org/2000/svg" viewBox="0 0 220 223">
  <g id="Logo">
    <g id="symbol_05_03_0005_01" data-name="symbol 05 03 0005 01">
      <path id="_패스_1365" data-name="패스 1365" d="m164.55,72.65c-8.05-6.23-17.1-11.04-26.76-14.24-27.83-9.21-51.91-1.91-59.16.6-5.52,1.87-10.83,4.3-15.85,7.27-25.5,15.68-40.18,38.07-40.95,68.38-.68,26.87,10.74,48.36,31.51,64.88,13.65,10.89,30.3,17.35,47.73,18.52,3.7.29,4.58-.89,4.3-4.42-.35-4.47-.09-8.99-.09-13.48h-.08c0-4.83,0-9.66,0-14.49,0-2.46.05-4.69,3.5-4.79,3.64-.11,3.99,2.06,3.97,4.84-.04,8.33,0,16.66,0,24.98,0,7.82.1,8.09,7.71,7.02,22.24-3.11,41.27-12.39,56.1-29.62,30.39-35.27,25.05-87.08-11.93-115.47m-17.26,87.36c-6.43,9.3-16.16,15.79-27.22,18.15-5.77,1.33-6.13,1.01-6.16-5.11,0-1.67,0-3.33,0-5,.07-.83.07-1.67-.02-2.49-1.3-6.36,1.87-9.93,7.32-12.37,2.87-1.29,5.48-3.16,8.29-4.6,3.32-1.7,5.05-4.26,3.17-7.68-1.98-3.61-5.09-2.16-7.83-.71-2.65,1.4-5.21,2.95-7.83,4.42-2.44,1.37-3.18.5-3.17-2.13.02-2.95.94-5.01,3.69-6.45,4.28-2.23,8.38-4.79,12.58-7.18,2.85-1.62,4.36-3.99,2.67-7.01-1.75-3.13-4.69-2.66-7.44-1.24-2.51,1.3-4.99,2.68-7.38,4.19-3.21,2.02-4.09.67-4.06-2.51.04-3.83.06-7.66-.08-11.49-.11-3.15-1.46-5.72-4.95-5.74-3.57-.02-4.75,2.63-4.85,5.77-.11,3.66-.19,7.33-.04,10.99.17,4.23-1.46,4.57-4.68,2.6-2.41-1.49-4.89-2.85-7.44-4.08-2.43-1.16-5.06-1.38-6.62,1.28-1.62,2.76-.58,5.21,2.04,6.82,4.11,2.53,8.33,4.89,12.45,7.4,1.33.68,2.5,1.63,3.44,2.79,1.25,1.66,1.3,3.94.13,5.66-1.42,1.82-3.01-.08-4.37-.76-2.53-1.26-4.91-2.81-7.45-4.07-2.52-1.25-5.09-1.16-6.49,1.55-1.42,2.75-.45,5.24,2.2,6.83,4.43,2.65,8.93,5.17,13.4,7.76,1.45.84,3.11,1.68,3.15,3.58.13,5.82.17,11.65.09,17.47-.04,2.55-2,2.11-3.69,1.93-18.95-1.93-36.42-20.8-37.09-40.06-1.13-32.46,33.15-55.21,63.76-42.3,26.87,11.34,36.44,40.89,20.47,63.76" fill="#fff"/>
      <path id="_패스_1366" data-name="패스 1366" d="m208.68,60.1l-17.63-7.99V10.82c0-3.87-3.13-7-7-7h-29.94c-3.87,0-7,3.13-7,7v21.38l-36.15-16.38c-1.87-.85-4.01-.83-5.87.04C69.88,32.41,16.22,57.46,10.43,59.71c-3.74.98-5.97,4.81-4.99,8.55.54,2.03,1.96,3.72,3.87,4.59.78.44,1.65.69,2.55.73,2.22,0,5.96-1.71,18.6-7.5,8-3.66,19.09-8.8,32.95-15.26,18.75-8.74,37.62-17.59,44.71-20.92l71.47,32.4c.94.78,2.08,1.29,3.28,1.49l20.01,9.07c3.52,1.6,7.67.03,9.27-3.49,1.6-3.52.03-7.67-3.49-9.27m-47.56-21.95v-20.33h15.94v27.95l-15.96-7.23c0-.13.02-.25.02-.38" fill="#fff"/>
      <rect id="_사각형_429" data-name="사각형 429" width="220" height="223" fill="none"/>
    </g>
  </g>
</svg>