<?xml version="1.0" encoding="UTF-8"?>
<svg id="_레이어_2" data-name="레이어 2" xmlns="http://www.w3.org/2000/svg" viewBox="0 0 223 177">
  <g id="Logo">
    <g id="symbol_14_03_0004_01" data-name="symbol 14 03 0004 01">
      <path id="_패스_1137" data-name="패스 1137" d="m3.74,120.1c.88-27.2,8.1-52.92,18.43-77.9,3.6-9.02,8.16-17.63,13.61-25.67,5.37-7.71,11.89-12.85,22.12-11.85,5.4.53,10.87-.83,16.39.02,6.64,1.03,12.11,3.71,15.63,9.53,1.52,2.51,3.36,3.31,6.2,3.28,10.83-.13,21.66-.07,32.49-.04,2.02,0,3.9,0,5.1-2.11,5.65-9.87,15.05-11.3,25.16-11.04,3.51.09,7.03.61,10.52.45,5.96-.27,10.63,2.03,14.58,6.26,8.62,9.23,13.79,20.49,18.58,31.92,9.07,21.64,15.38,44.08,17.66,67.47.94,9.63.98,19.39-1.5,28.94-3.41,13.08-11.11,20.32-23.31,21.6-6.34.67-11.89-1.72-16.97-5.22-11.22-7.73-19.63-18.18-26.71-29.53-3.57-5.72-7.53-7.35-13.96-7.2-18.28.44-36.57.24-54.86.08-3.76-.03-6.13.97-8.23,4.31-6.15,9.78-13.14,18.97-21.71,26.82-5.34,4.88-11.08,9.19-18.47,10.45-10.39,1.78-20.25-3.18-25.37-12.69-4.69-8.72-5.55-18.18-5.38-27.87m37.02-47.95c.23,2.44,1.86,4.54,4.17,5.37,1.84.73,3.84.96,5.8.66,4.1-.46,5.72,1.26,5.18,5.26-.06.7-.06,1.4,0,2.1.13,4.43,2.67,7.66,6.1,7.78,3.76.13,6.14-2.84,6.25-7.82q.16-7.13,7-7.29c5.45-.13,8.14-2.23,8.18-6.39.04-4.19-2.64-6.35-8.06-6.5-.56-.05-1.12-.05-1.68,0-4.36.68-5.9-1.38-5.44-5.49.07-.98.07-1.97-.02-2.95-.23-4.02-2.7-6.71-6.1-6.67-3.17.03-5.91,3.04-6.2,6.81q-.6,7.68-8.02,8.33c-4.23.37-7.1,2.93-7.15,6.78M112.21,31.56c-3.78,0-7.56-.02-11.34.02-.65,0-1.57.1-1.89.52-.67.87.3,1.49.79,2.1,5.95,7.36,18.97,7.36,24.88,0,.49-.61,1.46-1.23.78-2.1-.33-.42-1.24-.51-1.89-.52-3.78-.05-7.56-.02-11.34-.02m35.38,33.82c-3.97.06-6.71,2.77-6.63,6.55.08,3.7,3.05,6.35,6.96,6.22,3.74-.12,6.99-3.22,6.88-6.56-.11-3.37-3.49-6.28-7.21-6.22m36.05,6.51c.08-3.4-3.08-6.39-6.9-6.51-3.51-.31-6.61,2.28-6.92,5.79-.01.16-.02.32-.02.47-.06,3.76,2.75,6.5,6.69,6.51,3.76.02,7.07-2.88,7.15-6.26m-27.47-14.84c-.05,4.49,2,6.93,5.9,7.02,3.79.09,6.38-2.61,6.41-6.66.03-3.95-2.58-7.05-6.08-7.23-3.48-.18-6.18,2.81-6.23,6.87m5.91,22.43c-3.94.1-5.99,2.57-5.9,7.11.08,3.92,2.63,6.79,6.02,6.76,3.68-.04,6.47-3.37,6.29-7.54-.17-3.9-2.72-6.43-6.4-6.33" fill="#fff"/>
      <path id="_패스_1138" data-name="패스 1138" d="m112.21,171.49c-1.29,0-2.59-.06-3.89-.19-21.77-2.1-31.78-20.8-32.85-22.92-1.48-2.91-.32-6.47,2.59-7.95,2.91-1.48,6.47-.32,7.95,2.59,0,.01.01.03.02.04.31.61,7.7,14.95,23.43,16.47,11.68,1.14,23.38-5.42,29.1-16.29,1.47-2.92,5.02-4.09,7.93-2.62s4.09,5.02,2.62,7.93c-.03.06-.06.13-.1.19-7.08,13.84-21.26,22.6-36.8,22.73" fill="#fff"/>
      <rect id="_사각형_512" data-name="사각형 512" width="223" height="177" fill="none"/>
    </g>
  </g>
</svg>