<?xml version="1.0" encoding="UTF-8"?>
<svg id="_레이어_2" data-name="레이어 2" xmlns="http://www.w3.org/2000/svg" viewBox="0 0 122 145">
  <g id="Logo">
    <g id="symbol_20_01_0004_01" data-name="symbol 20 01 0004 01">
      <rect id="_사각형_314" data-name="사각형 314" width="122" height="145" fill="none"/>
      <path id="_패스_896" data-name="패스 896" d="M48.16,92.17h0s1.43-1.42,2.97-2.68c.85-.7,1.51-1.17,1.72-1.32,3.03-2.2,9.3-8.68,9.61-9,2.45-2.53,6.79-5.56,15-7.35h0l9.06-.96h0c.09-.98,.19-1.75,.27-2.29,.04-.3,.2-1.29,.2-1.29h0s-10.4-4.84-16.18-7.46c-.11-.05-.22-.1-.38-.16-2.82-.93-5.92-.24-8.09,1.79-1.38,1.32-.64,1.73-2.05,3.16-1.76,1.8-4.87,3.14-7.35,2.36-.66-.21-.88-.44-2.56-1.05-.92-.37-1.89-.6-2.88-.68-.54-.03-1.09,.02-1.62,.14-2.08,.58-4.03,1.53-5.77,2.8-3.16,4.86-6.33,9.71-9.49,14.57l7.92,7.65,5.51-6.47,2.37,4.74s1.07,2.14,1.75,3.5Z" fill="#fff"/>
      <path id="_패스_897" data-name="패스 897" d="M115.26,60.37c-10.74-24.59-37.87-38.7-62.01-35.35C26.75,28.63,5.97,49.6,2.62,76.14c-4.26,32.05,18.62,62.03,50.49,66.16,26.09,3.6,51.39-10.6,61.91-34.74,1.32-3.04,10.2-24.37,.24-47.19Zm-54.22,74.31c-28.39-.35-51.12-23.3-50.73-51.23,.4-28.76,23.28-51.23,51.87-50.7,28.06,.6,50.31,23.84,49.71,51.89-.32,27.52-23.55,50.37-50.85,50.03h0Z" fill="#fff"/>
      <path id="_패스_898" data-name="패스 898" d="M86.18,71.75c-.57,2.22-1.13,4.44-1.7,6.66l-.29,.3-4.27-1.56v.02s-2.79-1.15-2.79-1.15l-2.77-1.09c.81,4.71,1.59,9.21,2.36,13.71l.2,.79c.87,5.8,1.52,9.77,1.85,10.88,.15,.39,.14,.82-.04,1.2-.28,.36-.7,.59-1.15,.64-7.65,2-15.27,4.12-22.9,6.2l-.51-.12c-1.78-4.71-3.19-9.56-5.32-14.14l.02-.03h0l-.45-1.14-1.23,.96c-1.48,1.16-2.93,2.15-2.93,2.15,0,0-2.06,1.41-3.77,2.31h-.02c-.37,.21-.75,.37-1.14,.5-3.73,1.55-7.83,1.99-11.8,1.26-3.01-1.04-5.89-2.44-8.56-4.18,1.03,4.54,2.95,8.83,5.66,12.61,8.12,12.33,21.91,19.74,36.68,19.7,24.11,0,43.65-19.25,43.65-43,0-.18,0-.36,0-.53-.03-2.03-.11-3.75-.13-4.18-.21-2.18-.66-4.32-1.34-6.4-.36,.67-.75,1.33-1.15,1.96-5.11-2.32-10.57-3.79-16.16-4.34h0Zm-38.9,22.78c-.24,.15-.49,.27-.76,.37,.26-.1,.52-.22,.76-.37h0Z" fill="#fff"/>
      <path id="_패스_899" data-name="패스 899" d="M88.39,70h.03v-.04s-.03,.04-.03,.04Z" fill="#0883c4"/>
      <circle id="_타원_16" data-name="타원 16" cx="112.66" cy="31.25" r="7.83" fill="#fff"/>
      <circle id="_타원_17" data-name="타원 17" cx="97.51" cy="11.83" r="9.92" fill="#fff"/>
    </g>
  </g>
</svg>