<?xml version="1.0" encoding="UTF-8"?>
<svg id="_레이어_2" data-name="레이어 2" xmlns="http://www.w3.org/2000/svg" viewBox="0 0 218 144">
  <g id="Logo">
    <g>
      <path d="M128.41,34.28c4.23-8.98,16.71-13.09,25.16-8.38,2.61,1.45,4.18,3.72,5.47,6.23,7.23,14.13,12.94,28.92,19.11,43.52,6.55,15.51,11.98,31.54,20.64,46.11,1.43,2.41,3.1,4.68,4.74,6.96,3.11,4.32,7.61,6.41,12.61,7.64-1.68,1.03-3.57,1.29-5.47,1.29-13.15,.04-26.32-.38-39.45,.19-12.33,.53-17.25-6.82-20.55-15.78-2.49-6.78-3.16-14.03-3.9-21.18-1.46-14.07-2.25-28.23-6.55-41.87-2.78-8.82-5.78-17.49-11.82-24.73Z" fill="#fff"/>
      <path d="M5.53,122.97c.8-.99,1.88-2.43,2.97-4.28,0,0,1.63-2.76,2.81-5.9,8.13-21.71,5.51-61.39,5.51-61.39-.42-6.3-.63-12.61-1.25-18.89-.62-6.25-.17-12.58-.75-18.84-.02-.27-.11-1.19,.12-2.36,.12-.6,.32-1.23,.64-1.92,1.69,2.63,4.17,6.75,6.66,12.05,1.35,2.88,6.57,14.37,9.32,31.79,.53,3.38,.86,7.15,1.53,14.68,1.44,16.44,1.69,29.4,1.71,37.32,0,.94,0,1.58,0,2.46-.03,17.48-.7,24.1-1.12,27.56-.11,.89-.2,1.6-.26,2.01-5.5,.09-10.97-.23-16.42-.95-9.52-1.26-11.42-3.48-11.47-13.35Z" fill="#fff"/>
      <path d="M40.35,137.44c-.36-20.73-.4-39.13-.3-54.71,.14-21.21,.5-30.37,3.81-42.05,4.03-14.23,10.41-25.03,15.32-32.06-.13,3.47-.37,9-.8,15.81-.44,7.04-.87,12.04-1.01,13.78-1.71,21.04-.16,43.38,.37,50.97,.69,9.98,1.63,18.31,6.44,27.52,1.53,2.94,3.07,5.21,4.13,6.68,.32,8.71-1.77,11.36-10.18,12.73-5.88,.96-11.83,1.15-17.78,1.33Z" fill="#fff"/>
      <rect width="218" height="144" fill="none"/>
    </g>
  </g>
</svg>