<?xml version="1.0" encoding="UTF-8"?>
<svg id="Layer_2" data-name="Layer 2" xmlns="http://www.w3.org/2000/svg" viewBox="0 0 127 185">
  <g id="Logo">
    <g id="symbol_13_01_0002_02" data-name="symbol 13 01 0002 02">
      <path id="_합치기_10" data-name="합치기 10" d="m6.49,174.79l17.77-30.79c4.66-.5,11.58.13,19.66,5.26,8.3,5.26,18.36,3.88,25.71,1.59,10.49,10.21,26.5,12.17,39.14,4.8l11.06,19.15H6.49Zm58.54-47.4c0-15.1,12.24-27.34,27.34-27.34s27.34,12.24,27.34,27.34-12.24,27.34-27.34,27.34h0c-15.1,0-27.34-12.24-27.34-27.34h0ZM21.99,44.63c0-4.43,3.59-8.02,8.02-8.02s8.02,3.59,8.03,8.02c0,4.43-3.59,8.02-8.02,8.02h0c-4.43,0-8.02-3.59-8.02-8.02h0Zm21.69-21.4c0-7.55,6.12-13.67,13.67-13.67s13.67,6.12,13.67,13.67-6.12,13.67-13.67,13.67h0c-7.54,0-13.66-6.12-13.66-13.66h0Z" fill="#fff"/>
      <rect id="_사각형_197" data-name="사각형 197" width="127" height="185" fill="none"/>
    </g>
  </g>
</svg>