<?xml version="1.0" encoding="UTF-8"?>
<svg id="Layer_2" data-name="Layer 2" xmlns="http://www.w3.org/2000/svg" viewBox="0 0 270 318">
  <g id="Logo">
    <g id="symbol_04_02_0006_02" data-name="symbol 04 02 0006 02">
      <rect id="_사각형_401" data-name="사각형 401" width="270" height="318" fill="none"/>
      <path id="_패스_1219" data-name="패스 1219" d="m74.7,76.9c73.91-41.5,167.7,4.4,178.3,89.07,6.54,47.51-18.2,97.08-60.14,120.42-57.54,33.63-134.17,12.84-166.22-45.79C-5.91,183.02,17.3,108.14,74.7,76.9m.36.64C19.23,108.82,1.03,182.49,33.05,236.99c40.26,70.92,140.65,79.3,191.38,15.05,39.94-49.73,30.96-124.32-18.97-163.8-36.12-29.66-89.92-34.37-130.39-10.69" fill="#fff"/>
      <path id="_패스_1220" data-name="패스 1220" d="m153.13,174.4c4.55,3.11,18.17,12.89,25.56,25.84,2.74,5.04,5.14,10.25,7.18,15.61,1.83,4.85,3.3,9.96,3.3,9.96.25.86.44,1.58.58,2.08-8.9,11.51-20.29,20.85-33.32,27.34-.21-.69-.57-1.8-1.06-3.15-1.45-3.99-5.93-15.09-21.28-31.01-6.92-7.17-14.43-13.65-14.25-13.85.03-.04.33.17.59.37,5.72.6,10.5.09,14.08,0,5.42-.15,9.11-1.08,11.8-3.21,3.59-2.85,4.77-6.79,6.01-11.38,1.61-6.07,1.88-12.41.81-18.6" fill="#fff"/>
      <path id="_패스_1221" data-name="패스 1221" d="m145.66,33.2c-.97,9.99-7.59,16.57-13.19,16.33-6.52-.27-12.24-9.78-11.07-16.71,1.1-6.49,7.86-8.53,14.48-21.32.9-1.73,1.54-3.17,1.92-4.06,4.47,5.64,7.22,12.46,7.91,19.62.17,2.04.15,4.1-.05,6.14" fill="#fff"/>
    </g>
  </g>
</svg>