<?xml version="1.0" encoding="UTF-8"?>
<svg id="_레이어_2" data-name="레이어 2" xmlns="http://www.w3.org/2000/svg" viewBox="0 0 183 146">
  <g id="Logo">
    <g id="symbol_14_02_0005_01" data-name="symbol 14 02 0005 01">
      <path id="_패스_1108" data-name="패스 1108" d="m6.18,45.88h169.95v2.08c0,23.83,0,47.67,0,71.5,0,13.54-9.92,23.48-23.45,23.48-41.02.01-82.04.01-123.07,0-13.52,0-23.42-9.95-23.43-23.5,0-23.83,0-47.67,0-71.5v-2.06Zm63.45,48.48v.02c1.07-.05,2.15-.03,3.22.03.53.06,1.32.37,1.45.74.14.61,0,1.25-.38,1.75-1.35,1.51-2.86,2.87-4.25,4.33-2.36,2.36-2.36,6.2,0,8.56,2.36,2.36,6.2,2.36,8.56,0h0c1.47-1.39,2.82-2.9,4.33-4.25.5-.38,1.14-.52,1.75-.38.37.12.71.93.73,1.45.08,1.96,0,3.92.04,5.88-.06,3.35,2.6,6.11,5.95,6.17,3.35.06,6.11-2.6,6.17-5.95,0-.04,0-.09,0-.13.05-1.96-.05-3.92.05-5.88.03-.62.34-1.2.84-1.57.62-.11,1.25.06,1.72.48,1.46,1.31,2.78,2.77,4.19,4.12,2.31,2.42,6.15,2.5,8.57.18,2.42-2.31,2.5-6.15.18-8.57-.06-.07-.13-.13-.2-.2-1.35-1.42-2.81-2.74-4.12-4.2-.41-.47-.58-1.11-.47-1.72.38-.5.96-.8,1.58-.82,1.89-.1,3.79-.01,5.69-.05,3.35.1,6.14-2.53,6.25-5.88.1-3.35-2.53-6.14-5.88-6.25-.1,0-.2,0-.3,0-1.96-.04-3.92.04-5.88-.04-.51-.02-1.32-.38-1.43-.75-.13-.61.01-1.25.4-1.74,1.35-1.51,2.86-2.86,4.25-4.33,2.39-2.34,2.44-6.17.1-8.56-2.34-2.39-6.17-2.44-8.56-.1-.04.04-.09.09-.13.13-1.33,1.26-2.55,2.64-3.92,3.86-.52.46-1.45.96-1.97.78-.47-.16-.86-1.2-.9-1.88-.12-1.83,0-3.67-.05-5.5.06-3.35-2.61-6.1-5.96-6.16-3.35-.06-6.1,2.61-6.16,5.96,0,.05,0,.1,0,.15-.05,1.96.05,3.92-.05,5.88.14.77-.37,1.51-1.14,1.65-.55.1-1.1-.13-1.42-.58-1.46-1.31-2.78-2.77-4.19-4.12-2.31-2.42-6.14-2.52-8.56-.21-2.42,2.31-2.52,6.14-.21,8.56.07.08.15.15.23.22,1.35,1.42,2.81,2.74,4.12,4.19.41.47.58,1.11.46,1.72-.38.5-.96.8-1.58.82-2.08.1-4.17-.04-6.26.07-3.18.18-5.67,2.81-5.68,5.99,0,3.18,2.43,5.83,5.6,6.09,1.07.08,2.15.01,3.22.01" fill="#fff"/>
      <path id="_패스_1109" data-name="패스 1109" d="m176.12,40.71H6.35c-.08-.4-.13-.81-.16-1.23.09-5.3-.27-10.66.4-15.9,1.54-10.99,10.93-19.16,22.03-19.18,41.72-.05,83.43-.05,125.15,0,12.23.18,22.12,10.02,22.35,22.25.07,4.61.01,9.22.01,14.05M36.5,28.65c3.35.01,6.07-2.69,6.09-6.03.01-3.35-2.69-6.07-6.03-6.09-3.35-.01-6.07,2.69-6.09,6.03,0,.01,0,.03,0,.04.03,3.32,2.71,6.01,6.03,6.04m18.17-12.12c-3.35.04-6.03,2.78-6,6.13s2.78,6.03,6.13,6,6.03-2.78,6-6.13c0-.02,0-.03,0-.05-.08-3.32-2.8-5.97-6.13-5.95m24.34,6.17c.06-3.35-2.61-6.11-5.96-6.16s-6.11,2.61-6.16,5.96c-.06,3.35,2.61,6.11,5.96,6.16.02,0,.03,0,.05,0,3.32.02,6.05-2.63,6.12-5.96" fill="#fff"/>
      <path id="_패스_1110" data-name="패스 1110" d="m97.22,88.31c0,3.35-2.73,6.05-6.08,6.05-3.35,0-6.05-2.73-6.05-6.08,0-3.35,2.73-6.05,6.08-6.05.02,0,.03,0,.05,0,3.32.05,5.99,2.76,6,6.08" fill="#fff"/>
      <rect id="_사각형_507" data-name="사각형 507" width="183" height="146" fill="none"/>
    </g>
  </g>
</svg>