<?xml version="1.0" encoding="UTF-8"?>
<svg id="Layer_2" data-name="Layer 2" xmlns="http://www.w3.org/2000/svg" viewBox="0 0 198 226">
  <g id="Logo">
    <g id="symbol_15_03_0004_02" data-name="symbol 15 03 0004 02">
      <rect id="_사각형_618" data-name="사각형 618" x="70.38" y="88.68" width="58.13" height="17.7" fill="#fff"/>
      <rect id="_사각형_619" data-name="사각형 619" x="42.86" y="7" width="23.3" height="9.13" fill="#fff"/>
      <rect id="_사각형_620" data-name="사각형 620" x="132.72" y="7" width="23.3" height="9.13" fill="#fff"/>
      <path id="_패스_1269" data-name="패스 1269" d="m33.6,146.48h21.75v6.08h88.27v-6.18h21.66v-26.68h11.58c0-10.87-.02-21.73-.05-32.6-.07-.85-.47-1.64-1.12-2.2-9.83-8.1-15.63-18.53-18.02-30.9-.83-4.32-1.33-8.7-1.99-13.16h-22.95c-.13.56-.26.96-.32,1.36-1.48,10.19-7.24,17.15-16.46,21.33-8.53,3.93-18.18,4.66-27.2,2.05-12.08-3.33-20.27-10.5-22.27-23.42-.2-1.31-.88-1.46-1.98-1.45-6.65.03-13.31.01-19.97.02-.47,0-.94.07-1.51.12-.17,1.51-.33,2.94-.49,4.37-.16,1.44-.3,2.89-.51,4.33-2.02,14.06-7.66,26.18-18.85,35.39-.7.69-1.1,1.63-1.11,2.61-.04,10.72-.05,21.44-.04,32.16h11.59v26.78Zm23.99-62.63h83.67v27.38H57.58v-27.38Z" fill="#fff"/>
      <path id="_패스_1270" data-name="패스 1270" d="m143.5,206.1H55.35v6.18H22.14v7.15h154.56v-7.22h-33.2v-6.11Z" fill="#fff"/>
      <path id="_패스_1271" data-name="패스 1271" d="m127.41,187.25h16.01v-15.82H55.39v15.82h72.01Z" fill="#fff"/>
      <path id="_패스_1272" data-name="패스 1272" d="m143.44,196.64v-5.31H55.42v10.71h88.02v-5.39Z" fill="#fff"/>
      <rect id="_사각형_621" data-name="사각형 621" x="33.6" y="150.34" width="17.82" height="5.71" fill="#fff"/>
      <rect id="_사각형_622" data-name="사각형 622" x="147.47" y="150.32" width="17.8" height="5.73" fill="#fff"/>
      <rect id="_사각형_623" data-name="사각형 623" x="38.88" y="20.27" width="31" height="16.53" fill="#fff"/>
      <rect id="_사각형_624" data-name="사각형 624" x="128.48" y="20.25" width="30.92" height="16.58" fill="#fff"/>
      <path id="_패스_1273" data-name="패스 1273" d="m143.46,156.59H55.41v10.76h88.05v-10.76Z" fill="#fff"/>
      <rect id="_사각형_626" data-name="사각형 626" width="198" height="226" fill="none"/>
    </g>
  </g>
</svg>