<?xml version="1.0" encoding="UTF-8"?>
<svg id="_레이어_2" data-name="레이어 2" xmlns="http://www.w3.org/2000/svg" viewBox="0 0 91 70">
  <g id="Logo">
    <g id="symbol_11_01_0004_02" data-name="symbol 11 01 0004 02">
      <path id="_패스_816" data-name="패스 816" d="M80.32,47.27h-11.07c-1.9-.35-6.32-.47-9.66-3.64-2.2-2.28-3.55-5.23-3.84-8.38V10.6c.02-4.82-3.87-8.74-8.68-8.77h-3.12c-4.82,.02-8.71,3.95-8.69,8.77h0v24.64c-.29,3.15-1.64,6.11-3.84,8.39-3.34,3.18-7.76,3.29-9.66,3.64H10.68c-4.82,.02-8.71,3.95-8.69,8.77h0v3.15c-.02,4.82,3.87,8.74,8.69,8.77H80.32c4.82-.02,8.71-3.95,8.69-8.77v-3.15c.02-4.82-3.87-8.74-8.69-8.77Z" fill="#fff"/>
      <rect id="_사각형_292" data-name="사각형 292" width="91" height="70" fill="none"/>
    </g>
  </g>
</svg>