<?xml version="1.0" encoding="UTF-8"?>
<svg id="_레이어_2" data-name="레이어 2" xmlns="http://www.w3.org/2000/svg" viewBox="0 0 255 204">
  <g id="Logo">
    <g id="symbol_07_02_0003_01" data-name="symbol 07 02 0003 01">
      <rect id="_사각형_296" data-name="사각형 296" width="255" height="204" fill="none"/>
      <path id="_패스_1124" data-name="패스 1124" d="M30.28,138.95c-1.71,.16-3.39,.41-5.07,.46-10.35,.27-18.99-6.72-21.35-17.23-2.53-11.07,3.03-22.41,13.33-27.19,2.39-1.09,5.06-1.55,7.98-2.42,.74-3.25,1.46-6.92,2.43-10.52,5.16-19.35,15.9-36.76,30.88-50.05,10.48-9.61,22.7-17.13,36-22.16,14-5.24,28.88-7.71,43.82-7.26,16.31,.28,32.33,4.45,46.71,12.16,25.89,13.94,42.55,35.05,48.79,64.03,.15,.7,.31,1.4,.52,2.36,6.14,.8,11.32,3.36,14.7,8.78,2.79,4.32,4.04,9.46,3.55,14.58-.98,10.1-7.84,20.53-21.25,21-1.72,4.05-3.4,8.18-5.23,12.25-6.11,13.63-15.25,25.01-26.34,34.87-12.16,10.88-26.64,18.85-42.34,23.28-23.8,6.77-47.53,6.56-70.7-2.32-25.36-9.72-44.05-26.89-55.01-52.04-.29-.67-.6-1.32-.91-1.98-.15-.21-.31-.41-.49-.59ZM150.27,12.75c.79,1.02,1.52,2.08,2.19,3.19,1.19,2.37,2.75,4.69,3.31,7.21,2.92,13.02-4.32,24.84-17.33,28.07-7.61,1.89-14.73,.73-20.34-5.43-4-4.39-5.04-10.66-2.63-15.56,3.65-7.22,11.96-10.78,19.71-8.43,4.16,1.26,7.4,4.54,8.61,8.71,.64,1.81-.23,3.8-1.99,4.56-1.66,.95-3.78,.44-4.82-1.17-.33-.51-.62-1.04-.88-1.59-2.14-3.76-6.47-4.73-10.32-2.33-4.02,2.51-4.84,6.48-2.07,10.23,2.68,3.62,6.46,4.4,10.67,4.11,11.17-.76,18.02-13.16,12.38-22.8-4.5-7.7-12.16-10.13-20.3-9.58-16.05,1.05-31.6,6.05-45.26,14.54-26.49,16.38-42.83,39.54-46.72,70.88-.5,4.05-2.63,5.82-6.72,5.13-4.54-.94-9.19,.98-11.76,4.84-3.42,4.46-4.06,10.46-1.65,15.54,2.85,6.65,9.78,9.36,15.93,6.07,.85-.46,1.78-.76,2.73-.91,2.11-.45,4.23,.74,4.95,2.78,.29,.66,.46,1.38,.71,2.07,6.2,17.81,18.18,33.03,34.03,43.24,19.67,12.86,41.38,17.5,64.57,15.08,17.86-1.7,34.92-8.21,49.37-18.84,17.73-13.06,30.29-29.87,36.8-51.03,1.44-4.67,2.66-5.57,7.34-4.85,4.96,.77,8.45-1.32,10.99-5.36,2.11-3.33,2.82-7.36,1.98-11.21-1.15-5.68-5.09-10.62-11.93-9.66-.36,.06-.72,.09-1.09,.1-2.16,.17-4.08-1.35-4.41-3.49-.26-1.06-.38-2.15-.55-3.23-1.47-9.37-4.64-18.4-9.36-26.62-13.46-23.35-33.95-37.01-59.84-43.13-1.86-.44-3.76-.68-6.29-1.14h0Z" fill="#fff"/>
      <path id="_패스_1125" data-name="패스 1125" d="M164.72,88.85c-.12-1.51-.31-2.69-.29-3.87-.07-2.29,1.69-4.23,3.98-4.38,2.18-.45,4.32,.95,4.77,3.13,.02,.08,.03,.17,.04,.25,3.38,17.42,2.14,34.1-8.83,48.86-6.17,8.31-14.21,14.35-24.51,16.49-12.69,2.64-24.7,.82-34.88-7.76-6-5.06-9.46-11.88-11.15-19.55-.1-.48-.16-.96-.17-1.44-.08-2.71,1.37-4.64,3.74-5.01,2.77-.44,4.44,.83,5.4,3.64,1.01,3.47,2.34,6.85,3.96,10.08,4.05,7.17,10.72,10.44,18.65,11.82,15.42,2.7,27.39-5.53,34.32-16.75,4.38-7.09,6.51-16.49,5.98-25.45-2.15-.65-4.43-1.34-6.71-2.03-.82-.19-1.64-.44-2.43-.73-2.1-.91-3.15-2.71-2.79-4.57,.42-2.1,2.26-3.62,4.4-3.63,2.19,.19,4.36,.49,6.52,.92Z" fill="#fff"/>
      <path id="_패스_1126" data-name="패스 1126" d="M100.85,86.92c1.6,.16,3.19,.43,4.75,.81,4.52,1.58,7.3,6.12,6.65,10.86-.79,5.56-4.66,9.61-9.49,9.94-2.04,.14-4.08,.29-6.11,.41-2.3,.28-4.38-1.36-4.66-3.66-.01-.12-.02-.24-.03-.36-.25-2.28-.23-4.6-.28-6.9-.11-4.85-.27-9.69-.24-14.54,.02-3.2,1.72-4.95,4.51-5.03,2.55-.07,4.15,1.17,4.54,3.71,.23,1.54,.25,3.11,.37,4.76Zm.99,12.84c1.47-1.39,1.52-2.35,.35-3.62-.33,.57-.7,.95-.73,1.35,.05,.77,.18,1.53,.38,2.27h0Z" fill="#fff"/>
      <path id="_패스_1127" data-name="패스 1127" d="M138.09,95.3c0,2.17,.1,4.35-.02,6.51-.19,3.14-1.96,4.83-4.76,4.78-2.56-.05-4.16-1.71-4.28-4.84-.16-4.1-.26-8.21-.1-12.31,.11-1.41,.68-2.75,1.62-3.82,1.2-1.29,3.11-1.63,4.68-.83,1.53,.54,2.56,2,2.56,3.62,.06,2.29,.01,4.59,.01,6.88h.29Z" fill="#fff"/>
    </g>
  </g>
</svg>