<?xml version="1.0" encoding="UTF-8"?>
<svg id="Layer_2" data-name="Layer 2" xmlns="http://www.w3.org/2000/svg" viewBox="0 0 228 228">
  <g id="Logo">
    <g id="symbol_02_01_0004_02" data-name="symbol 02 01 0004 02">
      <path id="_합치기_43" data-name="합치기 43" d="m36.43,212.01c-8.87-5.23-13.92-15.11-12.95-25.36.2-2.01.62-3.99,1.26-5.91.37-1.02.48-2.11.31-3.18-4.55-20.71-9.13-41.4-13.76-62.08-.08-.35-.22-.69-.36-1.09-4.66-.18-8.54-2.11-9.19-6.88-.67-4.96-.32-10.09-.05-15.12.13-2.44,1.95-4.15,3.98-5.54.95-.63,1.73-1.47,2.28-2.47,4.55-9.2,9.05-18.43,13.48-27.69.87-2.03,2.59-3.57,4.71-4.19,10.37-3.42,20.71-6.97,31.03-10.54,1.02-.38,1.94-.98,2.7-1.76,8.06-8.24,16.12-16.49,24.08-24.84,1.61-1.95,4.21-2.78,6.65-2.11,11.64,2.39,23.34,4.49,34.96,6.9,1.96.46,3.78,1.43,5.26,2.8,5.3,4.88,10.42,9.94,15.53,15.01.94,1.02,2.3,1.54,3.68,1.41,8.14-.38,16.29-.61,24.44-1,2.22-.24,4.4.79,5.64,2.65,3.78,5.15,7.64,10.24,11.58,15.27.77.95,1.74,1.71,2.86,2.22,6.41,2.9,12.86,5.74,19.33,8.5,2.1.75,3.66,2.54,4.09,4.73,1,4.28,2.15,8.53,3.39,12.75.47,1,1.09,1.92,1.84,2.74l3.84,5.47v14.55c-1.56,4.47-4.53,7.09-9.67,7.1-1.03,4.55-2.05,9.11-3.08,13.66-3.63,16.32-7.24,32.65-10.84,48.98-.26,1.27-.19,2.58.2,3.81,4.65,13.85-2.8,28.84-16.65,33.49-13.84,4.65-28.84-2.8-33.49-16.65-.23-.68-.43-1.37-.6-2.06-.14-.57-.3-1.14-.48-1.81h-76.5c-.96,5.06-3.32,9.75-6.82,13.53-5.03,5.34-12.03,8.38-19.37,8.39-4.68.01-9.28-1.25-13.3-3.65Zm-4.24-22.78c0,1.31.15,2.62.45,3.9,2.16,9.49,11.61,15.43,21.1,13.27,9.49-2.16,15.43-11.61,13.27-21.1-1.82-8-8.93-13.69-17.14-13.71h-.03c-9.74.02-17.62,7.9-17.64,17.64h0Zm128.72-.17c-.04,7.35,4.47,13.96,11.32,16.62,1.98.76,4.08,1.16,6.2,1.17,8.25,0,15.41-5.67,17.29-13.7.28-1.2.42-2.43.44-3.67.12-9.74-7.67-17.75-17.41-17.89h-.17c-9.68,0-17.56,7.79-17.67,17.47Zm-84.89-4.35h76.39c2.22-9.93,7.82-16.99,17.38-20.39,9.53-3.39,18.3-1.32,26.3,4.97,4.09-18.44,8.13-36.61,12.2-54.93H20.09c.66,2.98,1.29,5.81,1.94,8.72l1.94,8.82c2.8,12.59,5.54,24.9,8.32,37.38,4.94-4.11,11.16-6.38,17.58-6.44,12.85.03,23.85,9.22,26.16,21.86ZM10.24,105.31h207.88v-10.75H10.24v10.75Zm184.29-19.76h17.93c-.69-2.62-1.49-4.99-1.88-7.42-.42-2.63-1.83-3.96-4.25-4.87-3.94-1.49-7.75-3.31-11.8-5.07v17.36Zm-109.68,0h15.62c.58-2.58,1.15-5.11,1.75-7.74-5.76-1.87-11.32-3.66-17.37-5.62v13.36Zm27.18-8.12c-.38.2-.68.53-.83.93-.58,2.34-1.07,4.69-1.62,7.18h30.4c-2.63-6.4-5.17-12.6-7.85-19.11-6.86,3.75-13.49,7.36-20.1,11Zm-51.64,8.11h15.26c.21-5.72.46-11.21.58-16.71-.09-.77-.44-1.49-1-2.04-2.52-2.77-5.11-5.48-7.68-8.21-1.11-1.19-2.23-2.36-3.7-3.91-1.42,10.62-4.71,20.42-3.46,30.87Zm-43.13-.01h34.1c0-2.38.05-4.64-.04-6.9-.09-.56-.41-1.05-.88-1.36-7.41-4.59-14.84-9.12-22.47-13.81-3.63,7.49-7.13,14.71-10.7,22.06h0Zm144.27-.06h23.91v-15.82c-7.99,5.28-15.73,10.4-23.91,15.82Zm-12.11-37.24c-.75.17-1.4.62-1.83,1.25-2.47,3.28-4.82,6.65-7.29,9.92-.73.82-.87,2-.36,2.97,2.15,5.05,4.21,10.14,6.3,15.21.34.82.7,1.63,1.17,2.75,6.83-11.07,13.43-21.77,20.27-32.85-6.42.24-12.35.44-18.27.75Zm12.03,26.15c.1.12.21.24.31.35,7.24-4.79,14.47-9.58,21.84-14.45-2.53-3.34-4.9-6.46-7.42-9.77-5.03,8.15-9.88,16.01-14.73,23.87h0Zm-54.6-23.16c-2.01,1.47-3.94,3.07-5.89,4.62-3.54,2.82-7.08,5.64-10.96,8.73,5.58,1.82,10.65,3.54,15.76,5.08.97.18,1.97.02,2.84-.46,4.87-2.56,9.68-5.24,14.5-7.89.6-.33,1.15-.74,1.97-1.27-5.64-3.18-10.98-6.22-16.37-9.17-.14-.07-.3-.11-.46-.1-.5.02-.98.17-1.39.45h0Zm-70.37,7.12c5.62,3.44,10.71,6.56,16.07,9.85l2.9-16.33c-6.48,2.21-12.49,4.27-18.97,6.48h0Zm30.73-13c4.74,5.04,9.35,9.95,14.04,14.94,6.83-5.45,13.51-10.77,20.22-16.12-4.68-6.76-9.19-13.26-13.81-19.92-6.89,7.11-13.62,14.05-20.44,21.09h0Zm47.3-1.36c6.31,3.55,12.41,6.98,18.55,10.44,2.47-3.41,4.79-6.6,6.58-9.08-4.46-4.91-8.69-9.55-13.02-14.31-4.15,4.44-8.09,8.64-12.12,12.95h0Zm-6.56-5.92c3.29-3.5,6.45-6.87,9.85-10.49-6.69-1.29-12.96-2.5-19.75-3.82,3.47,5,6.59,9.51,9.91,14.31h0Zm-58.27,155.58c-2.39-.04-4.3-2.01-4.26-4.4s2.01-4.3,4.4-4.26c2.39.04,4.3,2.01,4.26,4.4-.04,2.34-1.92,4.22-4.26,4.26-.04,0-.09,0-.13,0h0Zm128.75,0c-2.41-.03-4.34-2.01-4.31-4.42.03-2.41,2.01-4.34,4.42-4.31,2.41.03,4.34,2.01,4.31,4.42-.03,2.37-1.94,4.28-4.31,4.31-.03,0-.07,0-.11,0h0Zm-79.79-51.23h32.46c-.07,8.96-7.39,16.17-16.35,16.11-8.87-.07-16.04-7.24-16.11-16.11Zm29.2-9.56c0-3.4,2.75-6.15,6.15-6.15,3.4,0,6.15,2.75,6.15,6.15,0,3.4-2.75,6.15-6.15,6.15h0c-3.4,0-6.15-2.76-6.14-6.15h0Zm-39.6,0c0-3.4,2.75-6.15,6.15-6.15,3.4,0,6.15,2.75,6.15,6.15,0,3.4-2.75,6.15-6.15,6.15s-6.15-2.75-6.15-6.15h0s0,0,0,0Z" fill="#fff"/>
      <rect id="_사각형_397" data-name="사각형 397" width="228" height="228" fill="none"/>
    </g>
  </g>
</svg>