<?xml version="1.0" encoding="UTF-8"?>
<svg id="_레이어_2" data-name="레이어 2" xmlns="http://www.w3.org/2000/svg" viewBox="0 0 185 80">
  <g id="Logo">
    <g id="symbol_09_18_0001_02" data-name="symbol 09 18 0001 02">
      <rect id="_사각형_101" data-name="사각형 101" width="185" height="80" fill="none"/>
      <path id="_패스_696" data-name="패스 696" d="M49.49,15.03c-.07,.53-.45,.96-.96,1.1-1.96,.73-3.49,2.28-4.19,4.25-.23,.67-.95,1.03-1.62,.8-.38-.13-.67-.42-.8-.8-.72-2-2.28-3.58-4.28-4.3-.51-.15-.87-.61-.89-1.15-.03-.57,.34-1.09,.89-1.26,2-.71,3.58-2.29,4.29-4.29,.15-.56,.67-.93,1.24-.9,.57,.04,1.05,.43,1.2,.97,.69,1.94,2.21,3.46,4.14,4.17,.62,.16,1.04,.75,.99,1.4Zm-6.38-2.37c-.07,.04-.13,.08-.19,.13-.55,.7-1.18,1.33-1.88,1.88-.31,.25-.07,.43,.12,.56,.74,.51,1.21,1.65,1.9,1.74,.73,.09,1.18-1.16,1.9-1.65,.08-.06,.16-.13,.23-.2,.12-.07,.16-.23,.09-.35-.02-.03-.05-.06-.08-.08-.71-.53-1.34-1.16-1.87-1.87-.06-.06-.14-.11-.22-.15h0Z" fill="#fff"/>
      <path id="_패스_697" data-name="패스 697" d="M175.51,54.53c-.88,.1-1.71-.45-1.94-1.31-.92-2.63-2.98-4.7-5.6-5.63-.75-.29-1.33-.71-1.35-1.57-.04-.77,.44-1.48,1.18-1.71,2.71-.97,4.85-3.1,5.83-5.8,.24-.89,1.16-1.42,2.05-1.18,.57,.15,1.01,.59,1.17,1.16,.98,2.71,3.11,4.84,5.82,5.82,.75,.21,1.25,.92,1.18,1.7-.07,.76-.6,1.4-1.34,1.61-2.62,.94-4.67,3.01-5.59,5.64-.28,.74-.76,1.26-1.42,1.29Zm-.33-5.6c.7-.27,.86-1,1.36-1.4,.6-.49,1.51-1,1.6-1.61,.11-.71-1.02-1.04-1.55-1.61-1.3-1.41-1.33-1.38-2.74,.03-.52,.52-1.39,.95-1.5,1.53-.14,.76,1.04,.89,1.45,1.51,.24,.34,.49,.67,.77,.98,.18,.2,.39,.37,.6,.57h0Z" fill="#fff"/>
      <path id="_패스_698" data-name="패스 698" d="M93.91,25.68c-1.41,.15-2.73-.74-3.1-2.11-1.09-3.07-3.47-5.51-6.51-6.68-1.42-.61-2.59-1.58-2.58-3.14,.09-1.49,1.15-2.75,2.6-3.11,2.9-1.06,5.21-3.3,6.35-6.17,.58-1.33,1.16-2.65,2.98-2.68,1.86-.04,2.78,1.13,3.36,2.59,1.12,2.97,3.49,5.31,6.47,6.38,1.44,.43,2.41,1.77,2.37,3.27-.17,1.39-1.17,2.54-2.52,2.91-2.92,1.21-5.23,3.54-6.42,6.47-.61,1.34-1.4,2.31-3.01,2.28Zm-.34-14.2c-.69,.77-2.12,1.3-1.96,2.32,.16,.99,1.21,2.27,2.44,2.06,.87-.15,2.13-1.1,1.91-2.19-.39-1.08-1.28-1.9-2.39-2.18Z" fill="#fff"/>
      <path id="_패스_699" data-name="패스 699" d="M171.35,61.81c0,1.29-.01,2.59,0,3.89,.01,1.14-.44,1.92-1.65,1.94-1.19,.02-1.73-.7-1.72-1.87,0-2.68,0-5.37,0-8.05,0-1.1,.52-1.79,1.64-1.8,1.2-.01,1.73,.7,1.72,1.87,0,1.34,0,2.68,0,4.02h0Z" fill="#fff"/>
      <path id="_패스_700" data-name="패스 700" d="M179.15,61.64v-3.89c0-1.16,.54-1.87,1.74-1.84,1.13,.03,1.61,.74,1.61,1.83v8.05c0,1.16-.55,1.87-1.75,1.84-1.13-.03-1.62-.74-1.62-1.83,0-1.39,0-2.78,0-4.16Z" fill="#fff"/>
      <path id="_패스_701" data-name="패스 701" d="M173.57,66.99c0-1.02-.02-2.04,0-3.06,.03-1.08,.59-1.82,1.69-1.81,.9-.03,1.65,.68,1.68,1.58,0,.08,0,.17-.01,.25,.02,2.09,.04,4.18,0,6.26,.06,.84-.56,1.57-1.39,1.63-.1,0-.19,0-.29,0-.85,.07-1.59-.55-1.66-1.4,0-.08,0-.17,0-.25-.04-1.07,0-2.13,0-3.2Z" fill="#fff"/>
      <path id="_패스_702" data-name="패스 702" d="M1.46,67.72c.02-3.01,2.42-5.47,5.43-5.55,2.99,.15,5.39,2.53,5.57,5.52-.11,3-2.52,5.4-5.52,5.5-3.01-.03-5.44-2.46-5.48-5.47Z" fill="#fff"/>
      <path id="_패스_703" data-name="패스 703" d="M140.08,24.65c-3.01,0-5.45-2.45-5.45-5.46,0-3.01,2.45-5.45,5.46-5.45,2.99,0,5.42,2.41,5.45,5.4-.1,2.98-2.48,5.38-5.46,5.51Z" fill="#fff"/>
      <path id="_패스_704" data-name="패스 704" d="M40.23,23.65c0,.72,.03,1.44,0,2.15,0,.68-.57,1.23-1.25,1.22s-1.23-.57-1.22-1.25c-.03-1.4-.02-2.8,0-4.2-.06-.63,.41-1.2,1.04-1.26,.05,0,.11,0,.16,0,.65-.06,1.22,.42,1.28,1.07,0,.07,0,.15,0,.22,.02,.68,0,1.37,0,2.05Z" fill="#fff"/>
      <path id="_패스_705" data-name="패스 705" d="M48.47,23.72c0,.68,.03,1.37,0,2.05,.05,.63-.43,1.18-1.06,1.23-.05,0-.11,0-.16,0-.62,.07-1.17-.38-1.24-1,0-.07,0-.14,0-.2-.04-1.4-.02-2.8,0-4.2-.04-.68,.49-1.27,1.17-1.3,.68-.04,1.27,.49,1.3,1.17,0,.03,0,.06,0,.09,.02,.72,0,1.44,0,2.16Z" fill="#fff"/>
      <path id="_패스_706" data-name="패스 706" d="M44.35,34.11c0,.62,.02,1.23,0,1.85,.04,.65-.46,1.21-1.11,1.25-.04,0-.08,0-.11,0-.64,.04-1.2-.44-1.24-1.08,0-.05,0-.1,0-.15-.04-1.23-.04-2.46,0-3.69,.03-.68,.61-1.2,1.29-1.17,.63,.03,1.13,.52,1.17,1.15,.05,.61,.01,1.23,.01,1.85Z" fill="#fff"/>
      <path id="_패스_707" data-name="패스 707" d="M44.34,27.59c0,.48,.04,.96,0,1.43-.01,.64-.54,1.15-1.18,1.13-.02,0-.03,0-.05,0-.62,.05-1.17-.41-1.22-1.03,0-.03,0-.06,0-.09-.05-.99-.05-1.98,0-2.97,.09-.67,.7-1.15,1.37-1.06,.55,.07,.99,.5,1.06,1.05,.05,.51,0,1.02,0,1.53h0Z" fill="#fff"/>
      <path id="_패스_708" data-name="패스 708" d="M176.88,76.01c.02,.37,.02,.74,0,1.11-.05,.9-.82,1.59-1.72,1.54-.85-.05-1.52-.74-1.54-1.58-.04-.69-.04-1.39-.01-2.09-.1-.84,.5-1.61,1.34-1.71,.08-.01,.17-.01,.25,0,1.14-.02,1.66,.67,1.69,1.76,0,.32,0,.65,0,.97h0Z" fill="#fff"/>
      <path id="_패스_709" data-name="패스 709" d="M37.75,30c0-.27-.02-.55,0-.82,.04-.68,.62-1.21,1.3-1.17,.65,.04,1.16,.57,1.17,1.21,.02,.48,0,.95,0,1.43,.09,.65-.37,1.25-1.02,1.34-.07,0-.13,.01-.2,.01-.84,.01-1.29-.53-1.27-1.4v-.61h0Z" fill="#fff"/>
      <path id="_패스_710" data-name="패스 710" d="M48.47,29.98v.41c-.01,1.05-.48,1.65-1.25,1.65s-1.22-.61-1.23-1.67v-1.02c0-.8,.36-1.32,1.2-1.34,.9-.02,1.28,.51,1.29,1.36,0,.2,0,.41,0,.61Z" fill="#fff"/>
      <path id="_패스_711" data-name="패스 711" d="M171.36,71.66c0,1.93-.52,2.82-1.66,2.85-1.16,.03-1.72-.88-1.72-2.79,0-.32,0-.65,0-.97-.03-.93,.69-1.71,1.62-1.74,.93-.03,1.71,.69,1.74,1.62,0,.02,0,.04,0,.06,.02,.32,0,.65,0,.97Z" fill="#fff"/>
      <path id="_패스_712" data-name="패스 712" d="M182.51,71.71c0,.23,0,.46,0,.69-.03,1.26-.73,2.13-1.7,2.11s-1.65-.87-1.67-2.15c0-.55-.02-1.11,0-1.66-.07-.85,.56-1.6,1.41-1.68,.07,0,.15,0,.22,0,.86-.1,1.64,.52,1.73,1.38,.01,.11,.01,.22,0,.33,.01,.32,0,.65,0,.97Z" fill="#fff"/>
      <path id="_패스_713" data-name="패스 713" d="M100.7,41c-2.07,.02-3.77-1.65-3.79-3.72s1.65-3.77,3.72-3.79c1.67-.04,3.86,2.12,3.85,3.8-.09,2.04-1.74,3.66-3.78,3.71Z" fill="#fff"/>
      <path id="_패스_714" data-name="패스 714" d="M25.56,35.4c-.07,2.01-1.66,3.64-3.67,3.76-1.74-.06-3.83-2.11-3.83-3.75s2.08-3.69,3.82-3.76c2.01,.12,3.6,1.74,3.68,3.75Z" fill="#fff"/>
    </g>
  </g>
</svg>