<?xml version="1.0" encoding="UTF-8"?>
<svg id="Layer_2" data-name="Layer 2" xmlns="http://www.w3.org/2000/svg" viewBox="0 0 225 225">
  <g id="Logo">
    <g id="symbol_09_16_0001_01" data-name="symbol 09 16 0001 01">
      <rect id="_사각형_97" data-name="사각형 97" width="225" height="225" fill="none"/>
      <path id="_패스_662" data-name="패스 662" d="m111.76.09C50.66.09,1.13,49.62,1.13,110.72s49.53,110.63,110.63,110.63,110.63-49.53,110.63-110.63C222.33,49.65,172.84.16,111.76.09Zm65.53,191.7c1.21-4.48,2.76-10.38,4.67-17.73,8.1-1.59,13.23-5.56,16.79-13.41,1.09-2.29,1.93-4.69,2.51-7.15,4.09-19.07.56-36.83-9.78-53.21-5.21-8.5-13.05-15.07-22.33-18.72-2.27-.9-4.07-.26-4.88,1.66-.8,1.9.05,3.59,2.42,4.54,7.72,3.1,14.27,8.56,18.72,15.59,8.42,12.78,12.07,28.11,10.31,43.31-.55,5.4-2,10.61-5.35,15.07-2.44,3.55-6.5,5.64-10.81,5.56-3.42-.02-4.34,1.08-4.77,4.5-.49,3.92-1.43,7.77-2.04,11.68-.75,3.43-1.67,6.82-2.76,10.16-.39,1.32-.84,2.82-1.36,4.46-33.2,21.66-75.83,22.58-109.94,2.36-5.43-7.09-9.04-15.41-10.51-24.22-.63-3.97-.79-8-.48-12.01h19.57c.12-.06.25-.11.38-.14,2.69-.46,4.96-2.24,6.07-4.73.49-1.09.74-2.27.74-3.47v-51.23h.01c0-.87,0-1.71-.02-2.54-.04-.57.2-1.12.64-1.49,2.38-2.07,3.28-5.37,2.3-8.37-.32-1.13-.86-2.19-1.61-3.1,2.29-6.67,4.13-13.48,5.49-20.4,2.89-14.94,14.92-24.57,30.09-24.53,15.08.04,27.05,9.74,29.91,24.53,2.76,13.83,7.13,27.3,13.01,40.12,4.93,10.96,9.93,21.88,14.84,32.85.93,2.07,1.53,4.28,2.38,6.38.62,1.74,2.53,2.66,4.27,2.04,0,0,.02,0,.03,0,1.66-.61,2.59-2.39,2.13-4.1-.13-.57-.32-1.13-.56-1.66-4.65-10.65-9.17-21.35-13.99-31.92-5.94-13.02-11.48-26.18-14.48-40.24-1.31-6.12-2.49-12.25-6-17.58-.84-1.28-.86-2.02.16-3.31,4.43-5.58,5.32-11.82,2.3-18.29-2.58-6.13-8.63-10.07-15.28-9.96-2.01.11-3.96-.71-5.3-2.21-3.01-3.18-6.99-4.59-11.17-5.5h-5.46c-.42.14-.83.31-1.27.4-4.17.83-7.97,2.99-10.8,6.17-.66.86-1.74,1.3-2.82,1.13-7.22-.47-13.96,3.63-16.86,10.27-1.08,2.49-.55,4.17,1.63,5.19,1.81.85,3.36.04,4.54-2.37,2.45-5,6.91-7.18,12.39-5.98,1.86.55,3.86-.26,4.82-1.95,5.67-8.13,16.6-8.12,22.3.05,1.07,1.78,3.23,2.58,5.2,1.93,3.88-.98,7.98.4,10.49,3.52,3.47,3.92,2.77,11.21-.52,13.44-.63-.51-1.27-1.05-1.93-1.57-9.65-7.52-20.54-10.13-32.4-7.44-15.58,3.54-24.64,13.76-28.23,29.12-.68,2.89-1.28,5.8-1.88,8.64l-3.1,10.51c-1.03-.01-2.08.12-3.12.14-.09.18-.16.1-.23.02-2.09-3.03-5.94-4.31-9.43-3.13-.36.04-.71-.06-.99-.29-6.1-5.33-15.36-4.7-20.69,1.4,0,0,0,.01-.01.02-.89,1.13-2.25,1.79-3.69,1.79-6.92.38-13.11,6.53-13.37,13.45-.21,5.65-.1,11.31-.11,16.97-3.14,1.09-5.4,4.72-5.4,9.18-.14,3.18,1.23,6.25,3.69,8.27,0,.23,0,.46,0,.69,0,7.73,3.52,14.37,8.5,17.12v3.02c0,.47,0,.94.04,1.4.11,2.73,1.63,5.21,4.02,6.54,1.01.49,2.05.89,3.13,1.2h8.83c-.44,7.31.43,14.64,2.57,21.65.53,1.75,1.16,3.48,1.87,5.17C.92,154.36-5.34,88.62,31.35,44.21,68.04-.2,133.79-6.45,178.19,30.24c44.41,36.69,50.66,102.43,13.97,146.84-4.45,5.39-9.43,10.32-14.87,14.71h0Zm-124.19-37.44c-.3-.03-.61-.04-.91-.02h-24.04v-1.05c.6.11,1.21.17,1.82.17,7.51,0,13.62-8.29,13.62-18.48,0-6.18-2.25-11.65-5.69-15.01v-4.9c0-1.56-.59-2.37-1.69-2.34-1.08.03-1.62.8-1.62,2.33v2.54c-1.44-.72-3.02-1.09-4.63-1.1-.61,0-1.23.06-1.83.17,0-2.12,0-4.24,0-6.36,0-.78.22-1.06.98-1.24,3.08-.69,5.72-2.66,7.27-5.42.53-.89.65-.93,1.45-.21,1.37,1.29,3.09,2.15,4.94,2.49,3.08.62,6.28-.3,8.56-2.47.37-.41.93-.61,1.47-.52.9.11,1.79.27,2.67.48,1.32.31,2.24,1.51,2.2,2.86.06,2.48.1,4.96.07,7.44-.2,2.18.97,4.25,2.94,5.21.23.2.36.49.36.79.03,1.6.02,3.19.02,4.79v20.66c-.01.36,0,.72.05,1.07.15.88.99,1.47,1.88,1.32.66-.12,1.19-.63,1.31-1.29.05-.38.07-.77.06-1.15,0-8.35,0-16.69,0-25.04-.08-.59.23-1.17.78-1.41,1.68-.89,2.67-2.69,2.54-4.58,0-3.42,0-6.83,0-10.25v-.99h3.4v51.5h-4.35c-1.49,0-2.28.58-2.27,1.67.01,1.06.78,1.62,2.23,1.62h4.05c-.57,1.88-2.26,3.2-4.22,3.31-.19.01-.38.01-.58.01h-32.57c-1.89.08-3.67-.91-4.59-2.57-.12-.24-.22-.49-.31-.74h23.73c.3.01.61,0,.91-.03.9-.13,1.52-.95,1.4-1.85-.1-.73-.68-1.3-1.41-1.4h0Zm-33.51-23.61c-1.1-.4-2.23-2.29-2.23-4.75,0-2.77,1.41-4.84,2.67-4.84.81.13,1.49.66,1.82,1.41.65,1.12,2.09,1.49,3.21.84.14-.08.28-.18.4-.3,1.21-1.19,2.82-1.89,4.51-1.95,4.84,0,8.94,6.32,8.94,13.8s-4.09,13.8-8.94,13.8-8.94-6.32-8.94-13.8c0-.59.03-1.18.08-1.81.09-1.05-.53-2.04-1.53-2.4h0Zm44.77-29.62v12.4c0,.28,0,.55-.01.83.02.89-.7,1.63-1.59,1.65,0,0-.01,0-.02,0-.87.04-1.62-.63-1.67-1.5,0-.05,0-.11,0-.16-.04-2.07,0-4.13-.02-6.2.02-.94-.03-1.87-.16-2.8-.56-3.15-2.73-5.06-6.24-5.54-.76-.1-1.53-.14-2.3-.18-1.09-.05-2.15.35-2.93,1.11-3.06,2.77-6.37,2.77-9.56.1-.62-.5-1.33-.86-2.1-1.07-1.57-.51-3.27.24-3.96,1.74-1.33,2.75-4.09,4.52-7.14,4.6-1.28.07-1.81.68-1.81,2.06,0,3.22,0,6.45,0,9.67-.2.11-.4.22-.6.34-.81-.74-1.8-1.27-2.87-1.52v-6.27c0-3-.02-6.01,0-9.01-.13-5.73,3.99-10.67,9.65-11.58,1.06-.15,2.14-.19,3.21-.09.86.11,1.7-.33,2.11-1.1,3.19-5.47,10.21-7.31,15.68-4.12.96.56,1.83,1.25,2.59,2.06.95.97,1.45,1.06,2.62.46,2.37-1.31,5.35-.44,6.66,1.93.09.17.17.34.24.51.64,1.43,1.46,1.71,2.82.96,2.35-1.4,5.38-.62,6.77,1.72.93,1.57.93,3.52-.01,5.08-1.24,1.99-3.67,2.88-5.9,2.15-.39-.12-.77-.3-1.15-.44-.82-.36-1.77,0-2.14.82-.08.18-.13.38-.14.58-.02.27-.03.55-.02.83h0Z" fill="#fff"/>
      <path id="_패스_663" data-name="패스 663" d="m121.97,82.32c-.73-2.13-2.53-3.72-4.74-4.18-1.79-.3-3.62.16-5.05,1.26-.19.14-.37.29-.54.46-.25-.25-.51-.48-.79-.69-1.11-.79-2.43-1.24-3.79-1.3-2.27.07-4.35,1.32-5.47,3.3-1.6,2.83-.46,5.99.18,7.7.83,1.88,1.91,3.64,3.21,5.23.84,1.33,1.92,2.48,3.19,3.41.91.73,2,1.19,3.16,1.33,1.59.04,3.14-.5,4.35-1.52,1.18-.98,2.15-2.19,2.86-3.55,1.23-1.89,2.23-3.92,2.99-6.05.76-2.2.97-3.79.47-5.36v-.04Zm-4.05,3.74c-.15.84-.42,1.66-.81,2.42-.79,1.96-1.96,3.75-3.44,5.26-.63.74-1.61,1.08-2.56.89-.42-.19-.78-.48-1.06-.83-1.04-1.17-1.99-2.41-2.86-3.71-.93-1.16-1.55-2.54-1.82-4-.24-1.51.57-2.99,1.97-3.6.77-.21,1.59-.13,2.3.24.7.37,1.34.85,1.87,1.44.84-.77,1.84-1.34,2.93-1.68,2.25-.51,3.77,1.46,3.48,3.58h0Z" fill="#fff"/>
      <path id="_패스_664" data-name="패스 664" d="m151.39,166.75c-1.19.36-2.2,1.15-2.85,2.22-.41.77-.06,2.14.32,3.11,1.7,4.35-1.13,8.17-5.75,7.66-3.6-.4-4.93.82-4.79,4.39.14,3.66-1.7,6.16-5.34,6.69-1.66.11-3.33-.02-4.95-.38-1.78-.4-3.58.62-4.15,2.35-.53,1.76.47,3.61,2.23,4.14.02,0,.03,0,.05.01,1.66.5,3.4.74,5.1,1.09,6.44-.18,11.69-3.82,13.3-9.57.2-1.25,1.21-2.22,2.47-2.38,6.36-1.41,10.37-7.7,8.97-14.06-.26-1.19-.71-2.34-1.33-3.39-.75-1.3-1.88-2.28-3.28-1.89Z" fill="#fff"/>
      <path id="_패스_665" data-name="패스 665" d="m94.58,190.46c-.76.15-1.51.39-2.27.51-4.82.76-8.25-2.33-8.02-7.2.14-3-1.47-4.5-4.41-4.11-5.04.67-7.97-3.07-6.05-7.72.93-2.26.39-4.09-1.46-4.96-1.85-.87-3.61-.05-4.7,2.15-3.02,5.8-.76,12.95,5.04,15.97.95.49,1.95.85,3,1.08.89.21,1.77.15,2.11,1.51,1.57,6.28,6.68,10.11,13.28,10.35,1.77-.35,3.57-.58,5.29-1.08,1.77-.49,2.82-2.32,2.33-4.1,0-.01,0-.03-.01-.04-.52-1.77-2.34-2.81-4.12-2.37Z" fill="#fff"/>
      <path id="_패스_666" data-name="패스 666" d="m105.55,73.59c.25-2.31.24-4.65-.03-6.96-.19-1.58-1.63-2.7-3.22-2.51-.07,0-.14.02-.2.03-1.65.01-2.99,1.33-3.03,2.98-.1.96-.02,1.94-.02,2.92h-.03c0,1.04-.08,2.08.02,3.11.08,1.7,1.47,3.05,3.18,3.08,1.75-.01,3.16-.9,3.34-2.65Z" fill="#fff"/>
      <path id="_패스_667" data-name="패스 667" d="m123.38,67.24c-.12-1.84-1.7-3.23-3.54-3.11-1.57.1-2.86,1.29-3.09,2.85-.16,2.13-.16,4.26,0,6.39.22,1.68,1.67,2.93,3.36,2.89,1.76-.05,3.18-1.44,3.26-3.2.07-.96.01-1.94.01-2.91s.06-1.95,0-2.91Z" fill="#fff"/>
      <path id="_패스_668" data-name="패스 668" d="m49.47,112.75c-.93.03-1.66.81-1.63,1.75,0,.02,0,.05,0,.07,0,.25,0,.49,0,.74v29.76c0,.33,0,.66.03.99.09.89.88,1.54,1.78,1.45.76-.08,1.36-.66,1.45-1.42.03-.3.05-.6.04-.9v-30.09c0-.19,0-.38,0-.58.05-.93-.65-1.72-1.58-1.77-.03,0-.06,0-.1,0Z" fill="#fff"/>
      <path id="_패스_669" data-name="패스 669" d="m59.5,157.49c.9.01,1.63-.7,1.64-1.6h0c0-.92-.74-1.65-1.65-1.65-.91,0-1.64.74-1.64,1.65.01.9.75,1.61,1.64,1.6,0,0,0,0,0,0Z" fill="#fff"/>
    </g>
  </g>
</svg>