<?xml version="1.0" encoding="UTF-8"?>
<svg id="Layer_2" data-name="Layer 2" xmlns="http://www.w3.org/2000/svg" viewBox="0 0 262 262">
  <g id="Logo">
    <g id="symbol_07_02_0007_01" data-name="symbol 07 02 0007 01">
      <path id="_패스_1523" data-name="패스 1523" d="m226.01,216.7c44.01-50.89,39.83-127.49-9.47-173.28,8.64-4.66,11.87-15.44,7.21-24.08-3.1-5.75-9.11-9.34-15.65-9.34H54.87c-9.82,0-17.77,7.96-17.77,17.78,0,6.53,3.59,12.54,9.34,15.64C-2.85,89.21-7.04,165.81,36.97,216.7c-9.51,2.42-15.26,12.1-12.84,21.61,2.01,7.88,9.11,13.39,17.24,13.39h180.23c9.82,0,17.78-7.95,17.79-17.76,0-8.13-5.51-15.23-13.39-17.24m-38.32-134.45c0-8.64,7.01-15.65,15.65-15.65s15.65,7.01,15.65,15.65c0,8.64-7.01,15.65-15.65,15.65h0c-8.64,0-15.65-7.01-15.65-15.65m27.39,44.08c-4.34,0-7.87-3.52-7.87-7.87s3.52-7.87,7.87-7.87,7.87,3.52,7.87,7.87-3.52,7.87-7.87,7.87h0" fill="#fff"/>
      <rect id="_사각형_555" data-name="사각형 555" width="262" height="262" fill="none"/>
    </g>
  </g>
</svg>