<?xml version="1.0" encoding="UTF-8"?>
<svg id="Layer_2" data-name="Layer 2" xmlns="http://www.w3.org/2000/svg" viewBox="0 0 222 222">
  <g id="Logo">
    <g id="symbol_16_04_0002_01" data-name="symbol 16 04 0002 01">
      <path id="_합치기_42" data-name="합치기 42" d="m118.22,202.69c0-5.13,0-10.27,0-15.4,32.46-3.82,56.93-31.3,56.99-63.98-.05-32.6-24.41-60.05-56.78-63.96.86-4.69,2.96-9.06,6.09-12.66,13.01-16,30.21-24.81,50.03-28.68,8.87-1.74,18.01-2.25,27.05-2.95,6.25-.48,10.26,3.86,10.26,10.47.01,27.71.01,55.43,0,83.15v54.83c0,8.4-3.34,11.75-11.83,11.93-16.32.32-32.25,2.8-47.54,8.73-12,4.51-22.94,11.44-32.15,20.35-.53.52-1.11.99-2.12,1.87v-3.7Zm-20.29-1.5c-15.38-13.29-33.46-20.6-53.35-23.59-8.03-1.2-16.19-1.61-24.3-2.16-6.57-.44-10.26-4.06-10.26-10.67,0-46.42,0-92.85,0-139.27,0-6.94,4.13-10.69,11.06-10.49,13.27.38,26.31,2.02,38.93,6.34,17.15,5.88,31.4,15.64,41.33,31.05,1.36,2.06,2.13,4.46,2.23,6.92h0c-32.39,3.85-56.82,31.28-56.9,63.9.02,32.71,24.51,60.23,56.99,64.05v17.75c0,.25-.06.5-.16,1.25-2.05-1.88-3.76-3.54-5.56-5.09h0Zm38.25-39.34c.15-.33.45-.58.81-.66,5.29-.04,10.59-.03,16.24-.03-6.63,7.39-15.11,12.89-24.57,15.91,3.14-4.74,5.67-9.86,7.53-15.23h0Zm-67.51-.68h4.12c3.9,0,7.79-.02,11.69.04.51.04.98.32,1.25.76,1.88,5.32,4.41,10.4,7.52,15.11-9.46-3.01-17.95-8.51-24.57-15.91h0Zm49.58.05h10.11c-1.29,2.67-2.4,5.21-3.72,7.64-1.59,3.11-3.76,5.89-6.39,8.19,0-5.28,0-10.55,0-15.83h0Zm-21.89,6c-.96-1.88-1.78-3.84-2.77-5.99h10.07v15.81c-3.07-2.75-5.55-6.09-7.3-9.82h0Zm59.49-13.49c-5.66-.22-11.32-.07-17.21-.07,2.06-8.68,3.21-17.54,3.43-26.46h25.46c-.63,8.29-2.98,16.35-6.92,23.67-1.04,1.98-2.19,2.86-4.4,2.86-.12,0-.24,0-.36,0h0Zm-37.59-.06c0-8.83,0-17.66,0-26.48h16.26c-.15,2.56-.13,5.1-.5,7.57-.9,5.91-2,11.78-2.97,17.68-.16.99-.62,1.24-1.6,1.24-3.73-.01-7.46-.02-11.19-.02h0Zm-27.32-.91c-2.11-8.25-3.28-16.72-3.5-25.24.03-.12.06-.23.12-.34h16.11v26.48h-11.38c-.64,0-1.11-.02-1.34-.91h0Zm-26.89.87c-.58-.02-1.11-.3-1.47-.74-4.73-7.65-7.54-16.33-8.18-25.3,0-.13.03-.25.05-.37h25.38c.25,8.88,1.4,17.72,3.43,26.37-.46.03-.8.07-1.14.08-2.53,0-5.07,0-7.61,0-3.49,0-6.98-.01-10.46-.04h0Zm78.05-34.1c-.27-8.93-1.43-17.81-3.47-26.51h6.39c4.29,0,8.59-.03,12.89.03.57.04,1.1.32,1.46.78,4.69,7.62,7.49,16.25,8.15,25.18,0,.18-.02.35-.05.52h-25.37Zm-23.84-.01c0-8.84-.03-17.67-.05-26.51,3.7,0,7.39-.01,11.08-.02,1.11,0,1.5.34,1.76,1.39,1.97,7.92,3.1,16.04,3.35,24.2,0,.26,0,.53,0,.95h-16.15Zm-30.68,0c-.07-.23-.12-.47-.13-.72.25-8.21,1.37-16.36,3.34-24.34.26-1.06.64-1.48,1.83-1.48,3.67.01,7.34.01,11,.02.01,8.84.03,17.67.04,26.51h-16.07Zm-33.19-.02c.2-4.64,1.09-9.22,2.66-13.59,1.56-4.08,3.55-8,5.43-11.95.3-.5.8-.83,1.38-.9,6.25-.06,12.49-.04,18.74-.03.23.01.46.04.68.08-2.07,8.65-3.22,17.5-3.44,26.4h-25.44Zm81.64-34.99c-1.71-5.13-4.14-10-7.22-14.46-.12-.22-.23-.45-.32-.69,9.47,3.11,17.96,8.63,24.65,16.02-.45.05-.69.1-.93.1h-4.61c-3.38,0-6.76,0-10.14.02h-.02c-.66.1-1.28-.34-1.42-.99h0Zm-67.36.98c6.62-7.37,15.04-12.88,24.44-16.01-1.82,3.47-3.67,6.89-5.4,10.36-.77,1.54-1.25,3.21-1.94,4.8-.16.35-.63.81-.96.81-3.4.03-6.81.04-10.31.04h-5.83Zm49.5-.08c-.01-5.3-.04-10.6-.06-15.9,3.14,2.78,5.68,6.18,7.45,9.98.96,1.88,1.77,3.83,2.72,5.92h-10.11Zm-24.49,0c2.43-5.93,5.06-11.57,9.9-15.7.02,5.23.02,10.47.02,15.7h-9.92Z" fill="#fff"/>
      <rect id="_사각형_705" data-name="사각형 705" width="222" height="222" fill="none"/>
    </g>
  </g>
</svg>