<?xml version="1.0" encoding="UTF-8"?>
<svg id="Layer_2" data-name="Layer 2" xmlns="http://www.w3.org/2000/svg" viewBox="0 0 274 130">
  <g id="Logo">
    <g id="symbol_14_01_0004_02" data-name="symbol 14 01 0004 02">
      <path id="_합치기_28" data-name="합치기 28" d="m48.46,105.27c0-7.29,3.57-14.11,9.55-18.27-5.4-14.8-1.1-31.4,10.82-41.71-1.05-2.91-1.58-5.99-1.57-9.08,0-12.17,7.87-22.06,17.55-22.06,7.26,0,13.5,5.56,16.17,13.47,2.67-7.91,8.91-13.47,16.17-13.47,9.62,0,17.45,9.77,17.55,21.83h50.24c6.74,0,13.36,1.79,19.17,5.21,7.58-11.04,22.68-13.84,33.71-6.25,11.04,7.58,13.84,22.68,6.25,33.71-4.52,6.58-12,10.52-19.99,10.52-.51,0-1.01-.02-1.51-.05-2.59,18.81-18.65,32.83-37.64,32.85h-91.23c-.58,0-1.16-.02-1.73-.04-3.67,11.74-16.16,18.27-27.9,14.6-9.29-2.91-15.62-11.52-15.62-21.25Zm13-17.15c-.41.22-.81.47-1.21.72s-.78.51-1.15.79c-8.64,6.42-10.44,18.63-4.02,27.27,6.42,8.64,18.63,10.44,27.28,4.02,3.13-2.33,5.49-5.54,6.78-9.23.15-.45.29-.89.41-1.34s.23-.9.31-1.36c2.05-10.57-4.85-20.8-15.41-22.85-4.43-.86-9.02-.16-12.99,1.99h0Zm31.54,17.15c0,1.31-.12,2.61-.35,3.9.35,0,.71.03,1.06.03h91.23c17.58-.02,32.46-13,34.89-30.41-11.56-2.08-19.97-12.12-19.99-23.87,0-3.96.97-7.87,2.84-11.36-5.38-3.15-11.5-4.81-17.74-4.81h-50.35c-1.01,10.97-8.44,19.52-17.44,19.52-7.26,0-13.5-5.56-16.17-13.46-2.67,7.91-8.91,13.46-16.17,13.46-6.24,0-11.73-4.12-14.84-10.3-10.42,9.48-14.17,24.26-9.54,37.56,10.9-5.69,24.34-1.46,30.03,9.43,1.66,3.18,2.53,6.72,2.53,10.31h0Zm113.46-62.59c-.26.38-.52.76-.75,1.15s-.47.82-.68,1.23c-5.46,10.52-1.35,23.47,9.17,28.93,1.86.96,3.85,1.65,5.9,2.04.45.09.91.16,1.38.21s.91.1,1.38.13c.41.02.82.04,1.23.04,11.86,0,21.49-9.6,21.49-21.46,0-11.86-9.6-21.49-21.46-21.5-7.05,0-13.65,3.45-17.66,9.24Zm-104.08-6.7c0,.08,0,.15,0,.23,0,.39.01.77.03,1.16.02.47.06.93.1,1.38.96,9.44,7.16,16.75,14.65,16.75,5.12,0,9.65-3.42,12.3-8.6-.71.37-1.51.57-2.31.58-3.53,0-6.44-3.8-6.91-8.72-.04-.45-.07-.91-.07-1.38s.03-.93.07-1.39c.1-1.14.35-2.27.75-3.35h-18.34c-.16,1.11-.24,2.23-.25,3.34h0Zm-32.34.23c0,2.45.36,4.89,1.08,7.24.14.46.3.92.47,1.36.17.46.36.91.56,1.34,2.59,5.6,7.3,9.35,12.67,9.35s10.1-3.77,12.68-9.4c-.96.86-2.21,1.35-3.5,1.37-3.38,0-6.2-3.48-6.85-8.1-.06-.45-.1-.92-.11-1.39,0-.21-.02-.41-.02-.62,0-.27.02-.53.03-.79.06-1.35.33-2.68.79-3.94h-17c-.18,0-.36-.04-.52-.1-.18,1.22-.27,2.45-.27,3.69h0Zm33.16-6.36h27.91c-2.02-7.52-7.51-12.93-13.95-12.93s-11.94,5.41-13.95,12.93h0Zm-32.34,0h27.91c-2.02-7.52-7.51-12.93-13.95-12.93s-11.94,5.41-13.95,12.93h0ZM2.73,111.96c0-5.51,4.47-9.98,9.98-9.98s9.98,4.47,9.98,9.98c0,5.51-4.47,9.98-9.98,9.98h0c-5.51,0-9.97-4.47-9.98-9.98h0Zm2.77,0c0,3.98,3.23,7.21,7.21,7.21s7.21-3.23,7.21-7.21-3.23-7.21-7.21-7.21h0c-3.98,0-7.2,3.23-7.21,7.21h0Zm238.97-15.18c0-7.62,6.17-13.79,13.79-13.79s13.79,6.17,13.79,13.79-6.17,13.79-13.79,13.79h0c-7.61,0-13.78-6.17-13.79-13.78h0Zm2.77,0c0,6.09,4.94,11.02,11.02,11.02s11.02-4.94,11.02-11.02c0-6.09-4.93-11.02-11.02-11.02h0c-6.08,0-11.01,4.94-11.02,11.02h0Zm-191.99,8.47c.01-8.54,6.94-15.46,15.48-15.47.77.02,1.38.65,1.36,1.42-.02.74-.62,1.34-1.36,1.36-7.01,0-12.69,5.69-12.7,12.7.02.77-.59,1.4-1.36,1.42-.77.02-1.4-.59-1.42-1.36v-.06h0Zm-38.11-19.5c0-7.62,6.18-13.79,13.79-13.79,7.62,0,13.79,6.18,13.79,13.79s-6.18,13.79-13.79,13.79h0c-7.61,0-13.78-6.18-13.79-13.79h0Zm2.77,0c0,6.09,4.93,11.02,11.02,11.02,6.08,0,11.02-4.93,11.02-11.02,0-6.09-4.93-11.02-11.02-11.02h0c-6.08,0-11.01,4.94-11.01,11.02h0Zm229.22,11.02c0-5.04,4.09-9.12,9.12-9.12.77-.01,1.4.59,1.41,1.36.02.76-.59,1.4-1.36,1.41h-.05c-3.51,0-6.35,2.85-6.35,6.35-.02.77-.65,1.38-1.42,1.36-.74-.02-1.34-.61-1.36-1.36Zm-226.71-11.02c0-4.7,3.81-8.5,8.51-8.51.77,0,1.39.62,1.39,1.39s-.62,1.39-1.39,1.39c-3.17,0-5.73,2.57-5.73,5.74.02.77-.59,1.4-1.36,1.42-.77.02-1.4-.59-1.42-1.36v-.06h0Zm74.68-14.2c-.66-.38-.89-1.23-.51-1.89.38-.66,1.23-.89,1.89-.51.11.06,8.85,5,17.06,2.45,4.52-1.4,8.11-4.82,10.67-10.17.33-.69,1.16-.98,1.85-.65.69.33.98,1.16.65,1.85-2.92,6.08-7.08,9.99-12.37,11.62-1.91.58-3.89.87-5.88.86-4.67-.11-9.26-1.33-13.37-3.55h0Zm46.99-14.74c0-1.44,1.16-2.6,2.6-2.6s2.6,1.16,2.6,2.6c0,1.44-1.16,2.6-2.6,2.6h0c-1.43,0-2.6-1.16-2.6-2.59h0s0,0,0,0Zm-9.47,0c0-1.44,1.16-2.6,2.6-2.6s2.6,1.16,2.6,2.6c0,1.44-1.16,2.6-2.6,2.6h0c-1.43,0-2.59-1.16-2.6-2.59h0Zm71.92-1.93c.01-9.69,7.86-17.54,17.55-17.55.77,0,1.39.62,1.39,1.39s-.62,1.39-1.39,1.39c-8.16.01-14.77,6.62-14.78,14.78-.02.77-.65,1.37-1.41,1.36-.74-.01-1.35-.62-1.36-1.36h0Zm-67.18-6.51c0-1.44,1.16-2.6,2.6-2.6s2.6,1.16,2.6,2.6c0,1.44-1.16,2.6-2.6,2.6h0c-1.43,0-2.59-1.16-2.6-2.59h0Zm42.47-29.99c0-8.29,6.72-15.01,15.01-15.02,8.29,0,15.02,6.72,15.02,15.01,0,8.29-6.72,15.01-15.01,15.02h0c-8.28-.01-14.99-6.72-15.01-15.01h0Zm2.77,0c0,6.76,5.48,12.24,12.24,12.24,6.76,0,12.24-5.48,12.24-12.24,0-6.76-5.48-12.24-12.24-12.24-6.76,0-12.24,5.49-12.24,12.25h0Zm38.11-4c0-6.09,4.94-11.02,11.02-11.02s11.02,4.93,11.02,11.02c0,6.09-4.94,11.02-11.02,11.02-6.08,0-11.01-4.93-11.02-11.01h0Zm2.77,0c0,4.56,3.7,8.25,8.25,8.25,4.56,0,8.25-3.7,8.25-8.25,0-4.55-3.69-8.24-8.25-8.25-4.56,0-8.25,3.7-8.25,8.26h0Zm-37.76,3.98c0-5.04,4.09-9.12,9.12-9.12.77,0,1.38.62,1.38,1.39s-.62,1.39-1.38,1.39c-3.51,0-6.35,2.85-6.35,6.35.01.76-.59,1.4-1.36,1.41s-1.4-.59-1.41-1.36v-.05h0Z" fill="#fff"/>
      <rect id="_사각형_285" data-name="사각형 285" width="274" height="130" fill="none"/>
    </g>
  </g>
</svg>