<?xml version="1.0" encoding="UTF-8"?>
<svg id="_레이어_2" data-name="레이어 2" xmlns="http://www.w3.org/2000/svg" viewBox="0 0 214 264">
  <g id="Logo">
    <g id="symbol_05_02_0004_01" data-name="symbol 05 02 0004 01">
      <path id="_패스_1352" data-name="패스 1352" d="m105.24,6.34s-.53-.35-.52-.35c-14.01,10.43-27.16,21.97-39.32,34.5-26.97,27.98-48.52,62.95-54.38,101.79-1.88,13.23-2.26,27.15.78,40.09,1.42,4.56,3.1,9.03,5.03,13.4,6.05,13.66,15.21,25.7,26.76,35.17,9.23,7.89,19.81,14.04,31.24,18.13l3.81,1.27c2.29.61,5.49,1.52,7.8,1.92.65.15,2.32.45,2.95.59,2.73.39,6.24.88,8.98,1.01,23.99,1.27,49.28-4.77,68.63-19.1,13.05-9.54,23.13-22.91,29.91-37.6.41-.83,1.77-3.92,2.12-4.65.33-.81.79-2.09,1.1-2.87.6-1.79,2.23-5.2,2.4-7.02,5.3-16.98,5.1-35.31.39-52.51-13.54-49.51-56.28-95.01-97.68-123.8m0,0c52.97,36.53,120.96,109.33,102.63,176.36-.09,3.02-1.63,6.15-2.5,8.93-.24.7-.83,2.35-1.06,3.02-3.21,8.36-7.35,16.34-12.35,23.78-1.61,2.39-3.34,4.7-5.19,6.92-.91,1.12-1.78,2.28-2.8,3.3-2.92,3.21-6.03,6.25-9.31,9.1-5.59,4.61-11.65,8.63-18.08,11.99-2.57,1.2-5.28,2.51-7.92,3.56-2.38.87-5.76,2.23-8.16,2.89-5.49,1.72-11.1,3.04-16.79,3.94-8.54,1.53-17.23,1.98-25.88,1.34-2.96-.11-6.77-.76-9.71-1.17-.69-.13-2.48-.52-3.2-.66-2.5-.44-5.96-1.46-8.44-2.14l-4.12-1.41c-12.24-4.47-23.52-11.24-33.23-19.94-3.07-2.82-6.45-5.92-9.24-9-7.77-8.54-13.95-18.41-18.25-29.13-1.89-4.62-3.5-9.35-4.83-14.15-2.75-12.96-1.99-28.4.54-42.18,7.4-39.06,30.06-73.62,57.76-101.46,12.3-12.42,25.54-23.86,39.61-34.22l.52.35" fill="#fff"/>
      <path id="_패스_1354" data-name="패스 1354" d="m184.8,178.65c-3.05.57-5.24,0-6.34-3.17-.41-.99-.89-1.95-1.42-2.88-3.78-7.7-7.47-15.48-12.73-22.31-8.66-11.26-22.72-14.13-34.58-7.02-6.37,3.82-10.77,9.71-15.03,15.64-5.51,7.67-9.92,16.04-14.85,24.08-1.03,2.05-3.22,3.25-5.5,3.01-4.17-.23-8.39-.19-12.35,1.32-4.42,1.69-7.6.99-11.1-2.74-7.09-7.57-15.89-12.21-26.6-12.21-5.35.02-10.67.87-15.76,2.51-2.13.65-3.04,1.8-2.86,3.73.04.47.13.94.27,1.4,3.92,13.42,10.11,25.6,19.81,35.66,19.44,20.15,43.39,29.59,71.03,26.08,35.65-4.53,59.78-24.46,71.35-59.04.34-.89.55-1.82.62-2.77.01-1.57-1.14-1.82-3.95-1.3" fill="#fff"/>
      <rect id="_사각형_423" data-name="사각형 423" width="214" height="264" fill="none"/>
    </g>
  </g>
</svg>