<?xml version="1.0" encoding="UTF-8"?>
<svg id="Layer_2" data-name="Layer 2" xmlns="http://www.w3.org/2000/svg" viewBox="0 0 256 256">
  <g id="Logo">
    <g id="symbol_08_02_0002_01" data-name="symbol 08 02 0002 01">
      <path id="_패스_983" data-name="패스 983" d="m237.02,119.02h-19.02c-1.7-17.96-8.75-34.99-20.25-48.88l13.45-13.45c3.39-3.36,3.42-8.83.06-12.22-3.36-3.39-8.83-3.42-12.22-.06-.02.02-.04.04-.06.06l-13.45,13.45c-13.9-11.49-30.93-18.55-48.88-20.25v-19.03c0-4.77-3.87-8.64-8.65-8.64-4.77,0-8.63,3.87-8.64,8.64v19.03c-17.96,1.7-34.99,8.75-48.88,20.25l-13.45-13.45c-3.36-3.39-8.83-3.42-12.22-.06-3.39,3.36-3.42,8.83-.06,12.22.02.02.04.04.06.06l13.45,13.45c-11.5,13.9-18.55,30.93-20.25,48.88h-19.02c-4.77,0-8.64,3.86-8.65,8.64,0,4.77,3.86,8.64,8.64,8.65h19.03c1.7,17.96,8.75,34.99,20.25,48.88l-13.45,13.45c-3.39,3.36-3.42,8.83-.06,12.22s8.83,3.42,12.22.06c.02-.02.04-.04.06-.06l13.45-13.45c13.9,11.49,30.93,18.55,48.88,20.25v19.03c0,4.77,3.87,8.64,8.65,8.64,4.77,0,8.63-3.87,8.64-8.64v-19.03c17.96-1.7,34.99-8.75,48.88-20.25l13.45,13.45c3.33,3.42,8.8,3.49,12.22.16,3.42-3.33,3.49-8.8.16-12.22-.05-.06-.11-.11-.17-.16l-13.45-13.45c11.5-13.9,18.55-30.93,20.25-48.88h19.03c4.77,0,8.64-3.86,8.65-8.64,0-4.77-3.86-8.64-8.64-8.65h-.01m-109.03,84.09c-41.67,0-75.45-33.78-75.45-75.45,0-41.67,33.78-75.45,75.45-75.45,41.67,0,75.45,33.78,75.45,75.45,0,41.67-33.78,75.45-75.45,75.45" fill="#fff"/>
      <rect id="_사각형_237" data-name="사각형 237" width="256" height="256" fill="none"/>
    </g>
  </g>
</svg>