<?xml version="1.0" encoding="UTF-8"?>
<svg id="Layer_2" data-name="Layer 2" xmlns="http://www.w3.org/2000/svg" viewBox="0 0 184 184">
  <g id="Logo">
    <g id="symbol_15_05_0004_01" data-name="symbol 15 05 0004 01">
      <path id="_패스_1358" data-name="패스 1358" d="m175.19,156.55l-70.52-65.03c-1.45-1.34-3.29-2.19-5.26-2.43,15.23-23.79,8.3-55.42-15.49-70.65C60.13,3.22,28.5,10.15,13.27,33.94-1.96,57.72,4.97,89.35,28.76,104.59c18.79,12.03,43.21,10.5,60.34-3.8.45,1.78,1.4,3.39,2.75,4.63l70.52,65.03c3.84,3.54,9.82,3.3,13.36-.54s3.3-9.82-.54-13.36m-99.51-56.66c-21.04,10.55-46.65,2.04-57.2-19-10.55-21.04-2.04-46.65,19-57.2,21.04-10.55,46.65-2.04,57.2,19,2.97,5.93,4.52,12.47,4.52,19.11.05,16.14-9.07,30.91-23.52,38.1" fill="#fff"/>
      <rect id="_사각형_652" data-name="사각형 652" width="184" height="184" fill="none"/>
    </g>
  </g>
</svg>