<?xml version="1.0" encoding="UTF-8"?>
<svg id="_레이어_2" data-name="레이어 2" xmlns="http://www.w3.org/2000/svg" viewBox="0 0 450 123">
  <g id="Logo">
    <g id="symbol_13_04_0003_01" data-name="symbol 13 04 0003 01">
      <path id="_패스_1030" data-name="패스 1030" d="m122.38,49.17c-1.36-.04-2.66.54-3.54,1.57-1.84,2.72-1.85,6.28-.03,9.01.91,1.01,2.21,1.57,3.57,1.52,1.37.04,2.69-.51,3.63-1.52,1.89-2.71,1.89-6.31-.02-9.01-.91-1.03-2.24-1.61-3.61-1.57" fill="#fff"/>
      <path id="_패스_1031" data-name="패스 1031" d="m88.83,49.17c-1.36-.04-2.66.54-3.54,1.57-1.84,2.72-1.85,6.28-.03,9.01.91,1.01,2.21,1.57,3.57,1.52,1.37.04,2.69-.51,3.63-1.52,1.89-2.71,1.89-6.31-.01-9.01-.91-1.03-2.24-1.61-3.61-1.57" fill="#fff"/>
      <path id="_패스_1032" data-name="패스 1032" d="m443.08,108.32h-220.4c-19.72,0-39.45-.05-59.17.05-2.94.01-4.05-.9-4-3.91.19-11.74-.48-23.47-2.02-35.11-1.97-14.93-5.46-29.34-14.25-41.98C126.78,3.68,92.63-2.4,69.17,14.36c-12.47,8.91-19.13,21.77-23.44,36.01-5.14,16.96-6.64,34.4-6.36,52.04.09,5.79-.08,5.9-5.97,5.9H8.61c-1.79.07-3.18,1.57-3.12,3.36.07,1.79,1.57,3.18,3.36,3.12.16,0,.32-.02.48-.05,4.96.02,9.92.11,14.88.33,11.9.51,22.78-1.18,32.69-8.15,4.29-3.01,9.43-3.73,14.69-3.72,25.43.06,50.85.05,76.28-.04,3.47-.02,4.84.81,4.79,4.54-.07,5.11,2.36,7.2,7.42,7.21,10.72.02,21.43,0,32.15,0h8.89c7.52,0,15.04,0,22.55,0v.25h219.4c1.89.03,3.44-1.47,3.47-3.35.03-1.89-1.47-3.44-3.35-3.47-.04,0-.08,0-.12,0M59.92,69.75c-.79,8.18-.85,16.38-1.09,24.57-.07,2.42-.8,4.14-3,5.27-2.43,1.25-4.8,2.61-7.17,3.98-1.65.95-2.69,1.17-2.67-1.36.19-20.15,1.65-40.12,9.55-59,4.54-10.85,11.11-20.14,21.76-25.94.49-.27,1-.48,1.51-.72-12.49,15.68-17.02,33.94-18.88,53.2m38.44-10.21c-.37,1.21-.99,2.33-1.81,3.29l1.62,3.06c-.05,1.55-1.35,2.77-2.9,2.72-.68-.02-1.34-.29-1.83-.76-.43-.77-.85-1.55-1.28-2.32-.53.14-1.06.24-1.6.3-.57.07-1.14.1-1.71.1-2.76.16-5.46-.87-7.4-2.83-1.76-1.89-2.64-4.51-2.64-7.85,0-3.34.88-5.96,2.64-7.85,1.94-1.96,4.64-3,7.4-2.83,2.78-.16,5.49.87,7.47,2.83,1.79,1.89,2.68,4.51,2.68,7.85.02,1.46-.19,2.91-.62,4.31m33.54,0c-.37,1.21-.99,2.33-1.81,3.29l1.61,3.06c.03,1.52-1.18,2.77-2.69,2.8-.77.02-1.51-.29-2.04-.85-.42-.77-.85-1.55-1.27-2.32-.53.14-1.06.24-1.6.3-.57.07-1.14.1-1.71.1-2.76.16-5.46-.87-7.4-2.83-1.76-1.89-2.64-4.51-2.64-7.85,0-3.34.88-5.96,2.64-7.85,1.94-1.96,4.64-3,7.4-2.83,2.78-.16,5.49.87,7.47,2.83,1.79,1.89,2.68,4.51,2.68,7.85.02,1.46-.19,2.91-.62,4.31" fill="#fff"/>
      <rect id="_사각형_395" data-name="사각형 395" width="450" height="123" fill="none"/>
    </g>
  </g>
</svg>