<?xml version="1.0" encoding="UTF-8"?>
<svg id="Layer_2" data-name="Layer 2" xmlns="http://www.w3.org/2000/svg" viewBox="0 0 332 250">
  <g id="Logo">
    <g id="symbol_18_02_0003_01" data-name="symbol 18 02 0003 01">
      <path id="_합치기_32" data-name="합치기 32" d="m110.95,240.15c0-2.52.18-5.03.52-7.52l-56.41-35.06c-12.36-7.68-16.15-23.93-8.47-36.29,5.24-8.43,14.78-13.2,24.67-12.32,4.12.35,8.1,1.67,11.62,3.85l18.59,11.56c1.37-6.45,4.51-12.39,9.06-17.16v-29.54c0-6.76,1.22-13.46,3.62-19.77.6-1.59,1.27-3.13,2-4.64.38-.78.78-1.54,1.19-2.3-6.32-3.19-10.31-9.67-10.32-16.76,0-10.38,8.42-18.8,18.8-18.8h0c5.63,0,10.96,2.52,14.53,6.87,1.16,1.41,2.1,2.98,2.8,4.66.97,2.3,1.46,4.77,1.46,7.27,0,.27-.03.53-.04.8,1.5,2.26,3.34,4.28,5.45,5.98,4.61,3.71,10.36,5.74,16.28,5.73,5.92,0,11.67-2.02,16.28-5.73,2.12-1.7,3.96-3.71,5.45-5.98-.01-.27-.04-.53-.04-.8,0-2.5.49-4.97,1.46-7.27.71-1.68,1.65-3.25,2.81-4.66,3.57-4.36,8.9-6.88,14.53-6.87,10.38,0,18.79,8.42,18.79,18.79h0c0,7.09-3.99,13.57-10.32,16.77.41.76.81,1.53,1.19,2.3.73,1.51,1.4,3.06,2,4.64,2.4,6.32,3.62,13.02,3.62,19.77v29.54c4.55,4.77,7.69,10.71,9.06,17.16l18.59-11.56c4.08-2.53,8.78-3.89,13.58-3.94,9.22-.13,17.84,4.58,22.71,12.41,7.68,12.36,3.9,28.6-8.46,36.29,0,0,0,0,0,0l-56.41,35.06c.34,2.49.51,5.01.52,7.52h-110.74Zm145.7-74.18c-5.7.93-9.77,5.06-9.09,9.21.3,1.62,1.24,3.06,2.6,3.99,1.1.8,2.36,1.37,3.69,1.67.68,3.36,2.68,5.92,5.47,6.47,4.12.82,8.37-3.12,9.49-8.79.68-3.02.18-6.18-1.41-8.84-.03-.05-.06-.09-.09-.14-.08-.12-.16-.23-.25-.35-.09-.12-.19-.24-.29-.36-.08-.09-.17-.18-.25-.27s-.17-.18-.27-.26c-.11-.11-.22-.2-.34-.3l-.34-.26s-.09-.06-.14-.1c-.97-.66-2.04-1.14-3.17-1.44-1.09-.29-2.21-.44-3.34-.44-.76,0-1.53.07-2.28.2h0Zm-184.43-.11c-1.8.17-3.52.79-5.02,1.79-.05.03-.09.07-.14.1-.11.09-.22.18-.34.26-.12.1-.24.19-.35.3-.09.08-.18.18-.27.26s-.17.18-.25.27c-.1.12-.19.23-.29.36l-.25.35s-.06.1-.09.14c-1.59,2.66-2.09,5.82-1.41,8.84,1.12,5.67,5.37,9.6,9.49,8.79,2.78-.55,4.79-3.12,5.46-6.47,1.68-.36,3.22-1.16,4.47-2.33.95-.88,1.59-2.05,1.82-3.33.68-4.15-3.39-8.27-9.09-9.21-.76-.12-1.53-.19-2.3-.19-.49,0-.99.02-1.48.07h0Zm108.59,17.03c11.33,0,20.51-9.18,20.51-20.51,0-8.01-4.68-15.29-11.97-18.62,1.05-.88,1.66-2.17,1.66-3.54,0-2.58-2.09-4.67-4.67-4.67-2.58,0-4.66,2.08-4.67,4.66h0c0,.6.12,1.18.34,1.73-.4-.03-.8-.06-1.21-.06-5.44,0-10.65,2.15-14.49,6-3.84-3.85-9.05-6.01-14.49-6-.41,0-.81.04-1.21.06.22-.55.34-1.13.34-1.72,0-2.58-2.09-4.67-4.67-4.67h0c-2.57,0-4.66,2.09-4.66,4.66h0c0,1.37.61,2.66,1.66,3.54-7.29,3.33-11.96,10.61-11.96,18.62,0,11.33,9.18,20.51,20.51,20.51h0c5.44,0,10.65-2.15,14.49-6,3.84,3.85,9.06,6.01,14.49,6h0Zm91.49-7.79c-1.23,1.04-1.39,2.87-.37,4.11,1.21,1.06,3.04.95,4.12-.24,1.23-1.04,1.39-2.87.37-4.11-.48-.48-1.13-.75-1.81-.74-.87.02-1.7.36-2.31.97h0Zm-216.08-.24c-1.02,1.24-.85,3.07.37,4.11,1.08,1.2,2.91,1.3,4.12.24,1.02-1.24.86-3.07-.37-4.11-.62-.61-1.44-.96-2.31-.98-.68-.01-1.34.25-1.82.74h0Zm214.48-8.34c-1.23,1.04-1.39,2.87-.37,4.11,1.21,1.06,3.04.96,4.12-.24,1.23-1.04,1.39-2.87.37-4.11-.48-.48-1.13-.75-1.81-.73-.87.01-1.7.37-2.32.98h0Zm-212.88-.24c-1.02,1.24-.85,3.08.38,4.11,1.07,1.2,2.91,1.3,4.11.24,1.03-1.24.86-3.07-.37-4.11-.62-.61-1.44-.96-2.31-.98-.68-.01-1.34.25-1.82.73h0Zm206.99-5.83c-1.23,1.04-1.39,2.87-.37,4.11,1.21,1.06,3.04.96,4.12-.24,1.23-1.04,1.4-2.87.37-4.11-.48-.48-1.13-.75-1.81-.73-.87.01-1.7.37-2.32.98h0Zm-201.1-.24c-1.02,1.24-.85,3.07.37,4.11,1.08,1.2,2.91,1.3,4.12.24,1.02-1.24.86-3.07-.37-4.11-.62-.61-1.44-.96-2.31-.98-.68-.02-1.34.25-1.82.73h.01Zm192.72-1.48c-1.23,1.04-1.39,2.87-.37,4.11,1.21,1.06,3.05.95,4.12-.25,1.23-1.04,1.39-2.87.37-4.11-.48-.48-1.13-.74-1.81-.73-.87.01-1.7.37-2.32.98h0Zm-184.33-.25c-1.03,1.24-.86,3.07.37,4.11,1.07,1.2,2.91,1.31,4.11.25,1.03-1.24.86-3.07-.37-4.11-.61-.61-1.44-.96-2.31-.98-.68-.01-1.33.25-1.81.73h0Zm123.89-88.05c-1.41.86-2.64,1.99-3.62,3.32l20.28,14.85c.24-.33.45-.66.66-1,3.32-5.57,1.86-12.74-3.37-16.57-2.15-1.58-4.75-2.43-7.41-2.42-2.31,0-4.57.63-6.54,1.83h0Zm-73.27.6c-5.23,3.83-6.69,11.01-3.37,16.57.2.34.41.67.65,1l20.28-14.85c-.98-1.33-2.21-2.46-3.62-3.32-1.97-1.19-4.23-1.82-6.53-1.82-2.67,0-5.26.85-7.41,2.42h0Zm178.77,79.28c0-74.53-60.63-135.16-135.16-135.16S31.16,75.78,31.16,150.31c0,1.7-1.38,3.08-3.07,3.08h0c-1.7,0-3.08-1.38-3.08-3.07h0C25.01,72.39,88.4,9,166.32,9s141.32,63.39,141.32,141.31c0,1.7-1.37,3.07-3.07,3.08h-.01c-1.7,0-3.08-1.37-3.08-3.07h0s0,0,0,0Z" fill="#fff"/>
      <rect id="_사각형_295" data-name="사각형 295" width="332" height="250" fill="none"/>
    </g>
  </g>
</svg>