<?xml version="1.0" encoding="UTF-8"?>
<svg id="Layer_2" data-name="Layer 2" xmlns="http://www.w3.org/2000/svg" viewBox="0 0 146 216">
  <g id="Logo">
    <g id="symbol_12_02_0008_01" data-name="symbol 12 02 0008 01">
      <path id="_패스_1086" data-name="패스 1086" d="m47.89,131.09h21.54s.04-.02.04-.04h0v-33.8s-.02-.04-.04-.04h-21.54s-.04-.02-.04-.04v-9.89s.02-.04.04-.04h21.54s.04-.02.04-.04v-33.8s-.02-.04-.04-.04h-21.54s-.04-.02-.04-.04v-9.89s.02-.04.04-.04h21.54s.04-.02.04-.04v-22.34s-.02-.04-.04-.04H9.04s-.04.02-.04.04v174.03s.02.04.04.04h22.44s.04-.02.04-.03c0,0,0,0,0,0v-20.28c-.07-4.27,3.25-7.84,7.52-8.08,4.26-.11,7.81,3.25,7.92,7.51,0,.07,0,.14,0,.21v20.64s.02.04.04.04h22.44s.04-.02.04-.04v-53.98s-.02-.04-.04-.04h-21.54s-.04-.02-.04-.04v-9.89s.02-.04.04-.04h0" fill="#fff"/>
      <path id="_패스_1087" data-name="패스 1087" d="m77.15,108.42v11.46c0,6.19,5.02,11.21,11.21,11.21h38.05c6.19,0,11.21-5.02,11.21-11.21v-11.46c0-6.19-5.02-11.21-11.21-11.21h-38.05c-6.19,0-11.21,5.02-11.21,11.21" fill="#fff"/>
      <path id="_패스_1088" data-name="패스 1088" d="m126.41,21h-38.05c-6.19,0-11.21,5.02-11.21,11.21,0,6.19,5.02,11.21,11.21,11.21h38.06c6.19,0,11.21-5.02,11.21-11.21,0-6.19-5.02-11.21-11.21-11.21" fill="#fff"/>
      <path id="_패스_1089" data-name="패스 1089" d="m77.18,195.1h22.44s.04-.02.04-.03c0,0,0,0,0,0v-20.28c-.07-4.27,3.25-7.84,7.52-8.08,4.26-.11,7.81,3.25,7.92,7.51,0,.07,0,.14,0,.21v20.64s.02.04.04.04h22.44s.04-.02.04-.03c0,0,0,0,0,0v-53.97s-.02-.04-.04-.04c0,0,0,0,0,0h-60.4s-.04.02-.04.04v53.97s.02.04.04.04h0" fill="#fff"/>
      <path id="_패스_1090" data-name="패스 1090" d="m137.62,76.04v-11.46c0-6.19-5.02-11.21-11.21-11.21h-38.05c-6.19,0-11.21,5.02-11.21,11.21v11.46c0,6.19,5.02,11.21,11.21,11.21h38.05c6.19,0,11.21-5.02,11.21-11.21h0" fill="#fff"/>
      <rect id="_사각형_426" data-name="사각형 426" width="146" height="216" fill="none"/>
    </g>
  </g>
</svg>