<?xml version="1.0" encoding="UTF-8"?>
<svg id="Layer_2" data-name="Layer 2" xmlns="http://www.w3.org/2000/svg" viewBox="0 0 388 246">
  <g id="Logo">
    <g id="symbol_11_03_0006_01" data-name="symbol 11 03 0006 01">
      <path id="_패스_999" data-name="패스 999" d="m345.19,100.16c-9.32,12.47-26.99,15.02-39.46,5.7-2.24-1.67-4.21-3.67-5.86-5.92-8.37,4.82-14.98,12.18-18.88,21.02-1.42,3.16-4.57,5.18-8.03,5.15h-.13c-4.84-.02-8.75-3.95-8.74-8.79,0-1.14.23-2.26.66-3.31,4.18-10.13,6.07-21.07,5.52-32.02-1.33-25.71-11.64-46.73-34.23-60.15-27.26-16.19-60.42-9.6-80.37,15.45-3.33,4.18-6.05,8.86-9.04,13.31-.39.58-.75,1.19-1.19,1.88-2.43-3.79-4.6-7.5-7.09-10.98-8.1-11.3-18.2-20.15-31.49-24.87-26.03-9.26-55.68.34-72.33,23.4-7.76,10.76-12.49,23.39-13.71,36.6-.11.72-.26,1.42-.44,2.12v12.24c.87,4.63,1.48,9.32,2.66,13.87,3.82,14.64,11.72,27.1,21.22,38.64,12.32,14.97,26.62,27.93,41.2,40.59,18.07,15.7,36.27,31.25,54.42,46.85,3.73,3.21,7.23,3.26,10.92.07,22.53-19.5,45.18-38.87,67.51-58.6,3.41-3.01,6.75-6.08,10.03-9.22,7.29-7.04,17.02-10.98,27.15-11h.66c12.07.09,23.44,5.67,30.89,15.16,15.55,19.54,43.99,22.77,63.52,7.22s22.77-43.99,7.22-63.52c-3.49-4.38-7.76-8.08-12.6-10.9m-270.59-11.09c-12.49,0-22.61-10.12-22.61-22.61,0-12.49,10.12-22.61,22.61-22.61,12.49,0,22.61,10.12,22.61,22.61h0c0,12.49-10.12,22.61-22.61,22.61" fill="#fff"/>
      <path id="_패스_1000" data-name="패스 1000" d="m322.61,102.99c10.89,0,19.73-8.82,19.73-19.71,0-10.89-8.82-19.73-19.71-19.73-10.89,0-19.73,8.82-19.73,19.71,0,4.82,1.76,9.47,4.95,13.07,3.74,4.24,9.12,6.67,14.77,6.66" fill="#fff"/>
      <rect id="_사각형_357" data-name="사각형 357" width="388" height="246" fill="none"/>
    </g>
  </g>
</svg>