<?xml version="1.0" encoding="UTF-8"?>
<svg id="Layer_2" data-name="Layer 2" xmlns="http://www.w3.org/2000/svg" viewBox="0 0 188 96">
  <g id="Logo">
    <g id="symbol_01_03_0007_02" data-name="symbol 01 03 0007 02">
      <path id="_패스_1277" data-name="패스 1277" d="m15.78,79.31c-5.21,0-9.43-4.22-9.43-9.43s4.22-9.43,9.43-9.43c5.21,0,9.43,4.22,9.43,9.43h0c0,5.2-4.22,9.42-9.43,9.43m0-14.38c-2.73,0-4.95,2.22-4.95,4.95s2.22,4.95,4.95,4.95c2.73,0,4.95-2.22,4.95-4.95,0-2.73-2.22-4.95-4.95-4.95" fill="#fff"/>
      <path id="_패스_1278" data-name="패스 1278" d="m70.57,40.22c-4.07,0-7.38-3.3-7.38-7.38,0-4.07,3.3-7.38,7.38-7.38,4.07,0,7.38,3.3,7.38,7.38,0,4.07-3.3,7.37-7.38,7.38m0-10.28c-1.6,0-2.9,1.3-2.9,2.9,0,1.6,1.3,2.9,2.9,2.9,1.6,0,2.9-1.3,2.9-2.9h0c0-1.6-1.3-2.9-2.9-2.9" fill="#fff"/>
      <path id="_패스_1279" data-name="패스 1279" d="m147.46,45.86c-5.21,0-9.43-4.22-9.43-9.43s4.22-9.43,9.43-9.43c5.21,0,9.43,4.22,9.43,9.43h0c0,5.2-4.22,9.42-9.43,9.43m0-14.37c-2.73,0-4.95,2.22-4.95,4.95s2.22,4.95,4.95,4.95c2.73,0,4.95-2.22,4.95-4.95,0-2.73-2.22-4.95-4.95-4.95" fill="#fff"/>
      <path id="_패스_1280" data-name="패스 1280" d="m157.82,22.75c-4.07,0-7.38-3.3-7.38-7.38,0-4.07,3.3-7.38,7.38-7.37,4.07,0,7.37,3.3,7.38,7.37,0,4.07-3.3,7.37-7.38,7.38m0-10.27c-1.6,0-2.9,1.3-2.9,2.9,0,1.6,1.3,2.9,2.9,2.9s2.9-1.3,2.9-2.9h0c0-1.6-1.3-2.9-2.9-2.9" fill="#fff"/>
      <path id="_패스_1281" data-name="패스 1281" d="m174.84,88.34c-4.07,0-7.38-3.3-7.38-7.38,0-4.07,3.3-7.38,7.38-7.38,4.07,0,7.38,3.3,7.38,7.38,0,4.07-3.3,7.37-7.38,7.38m0-10.28c-1.6,0-2.9,1.3-2.9,2.9,0,1.6,1.3,2.9,2.9,2.9,1.6,0,2.9-1.3,2.9-2.9h0c0-1.6-1.3-2.9-2.9-2.9" fill="#fff"/>
      <rect id="_사각형_396" data-name="사각형 396" width="188" height="96" fill="none"/>
    </g>
  </g>
</svg>