<?xml version="1.0" encoding="UTF-8"?>
<svg id="Layer_2" data-name="Layer 2" xmlns="http://www.w3.org/2000/svg" viewBox="0 0 118 118">
  <g id="Logo">
    <g id="symbol_02_04_0005_01" data-name="symbol 02 04 0005 01">
      <path id="_패스_1372" data-name="패스 1372" d="m91.08,29.76c-.16,2.05-1.67,3.74-3.69,4.13-2.38.55-4.88.27-7.08-.79-1.22-.5-2.42-1.06-3.64-1.58-.38-.24-.88-.13-1.12.25-.02.04-.05.08-.06.12-.8,1.31-1.69,2.56-2.67,3.74-.79.71-.95,1.89-.36,2.79.45.76.92,1.5,1.39,2.24.79,1.17,1.06,2.62.73,3.99-.5,2.17-1.76,4.09-3.54,5.42-1.48,1.21-3.61,1.22-5.1.02-.55-.43-1.03-.93-1.45-1.49-.71-.97-1.84-1.53-3.04-1.5-2.28,0-4.56.09-6.46-1.64v66.76c10.88-.48,21.34-4.37,29.9-11.11-.71-1.33-1.4-2.5-1.97-3.73-.87-1.88-1.06-2-3.16-1.98-1.54.06-3.08.02-4.61-.12-2.06-.09-3.83-1.47-4.44-3.44-.88-2.86-.36-6.31,3.26-7.76.78-.31,1.58-.6,2.36-.9,1.09-.43,2.2-.83,3.27-1.31.65-.19,1.02-.87.83-1.52-.02-.06-.04-.11-.06-.17-.28-.81-.56-1.41-1.65-1.35-1.57.17-3.15.11-4.71-.17-3.41-.82-5.14-3.51-6.28-6.54-.96-2.44,0-5.21,2.25-6.54,2.31-1.57,5.14-2.16,7.89-1.65,3.37.6,6.6,1.8,9.56,3.52,1.71.95,3.32,1.29,4.97-.03.16-.09.33-.17.5-.23,2.87-1.41,5.47-1.33,7.83,1.13.95.78,1.99,1.46,3.09,2.03,2.7-15.91-.78-29.91-10.37-42.41-1.99.55-2.22.7-2.36,1.84" fill="#fff"/>
      <path id="_패스_1373" data-name="패스 1373" d="m28.31,98.17c-3.88,0-7.02,3.14-7.02,7.02s3.14,7.02,7.02,7.02h22.88v-14.04h-22.88Z" fill="#fff"/>
      <path id="_패스_1374" data-name="패스 1374" d="m21.31,53.26c-3.88,0-7.02,3.14-7.02,7.02s3.14,7.02,7.02,7.02h29.88v-14.04h-29.88Z" fill="#fff"/>
      <path id="_패스_1375" data-name="패스 1375" d="m21.29,15.38c0,3.88,3.14,7.02,7.02,7.02h22.88v-14.04h-22.88c-3.88,0-7.02,3.14-7.02,7.02h0" fill="#fff"/>
      <rect id="_사각형_435" data-name="사각형 435" width="118" height="118" fill="none"/>
    </g>
  </g>
</svg>