<?xml version="1.0" encoding="UTF-8"?>
<svg id="Layer_2" data-name="Layer 2" xmlns="http://www.w3.org/2000/svg" viewBox="0 0 352 244">
  <g id="Logo">
    <g id="symbol_19_01_0004_01" data-name="symbol 19 01 0004 01">
      <path id="_합치기_44" data-name="합치기 44" d="m114.91,221.58c-3.66-2.45-7.39-4.83-11.25-6.95-6.29-3.7-14.1-3.69-20.38.03-3.77,2.07-7.41,4.41-10.98,6.81l-3.56,2.15-5.53-7.51c-.68-.99-1.25-1.88-1.89-2.72-9.8-12.97-19.65-25.9-29.34-38.94-1.13-1.59-1.77-3.47-1.86-5.42-.21-6.9-.08-13.82-.08-21.05h8.78v-27h-8.5v-9.11h18.76c1.54-12.18,3.04-24.09,4.57-36.23h21.89v-27.13h9v-22.42h9.08v22.18h8.96v-31.28h9.07v58.61h8.99v36.11h17.96v9.01h-8.64v27.05h22.94v-35.97h19.99v-36.05l18.29-.11v-35.94h80.93v35.84h18.07v36.09h16.12v18.16h14.86c-.76,3.07-1.41,5.74-2.08,8.41-3.02,12.06-5.91,24.16-9.1,36.17-4.49,16.92-11.9,32.16-26.25,43.14,0,0-10.56,6.61-12.21,5.61-2.66-1.59-5.21-3.39-7.9-4.93-3.88-2.22-7.85-4.29-12.2-6.66.43-2.26.97-5.07,1.54-8.03,5.98,1.03,10.83,3.98,15.6,7.1q5.04,3.3,9.86-.45c10.26-7.99,19.28-22.45,21.73-34.96H43.78c9.26,12.26,18.22,24.12,27.3,36.14,2.16-1.3,4.19-2.55,6.24-3.76,10.95-6.42,21.89-6.24,32.74.22,3.61,2.15,7.14,4.45,10.66,6.76,7.52,4.92,14.98,4.92,22.51,0,3.77-2.46,7.55-4.93,11.45-7.19,10.66-6.16,21.36-6.01,31.95.19,3.54,2.07,7,4.3,10.4,6.6,7.96,5.38,15.83,5.38,23.82.04,4.08-2.73,8.25-5.34,12.54-7.71,2.61-1.57,5.45-2.72,8.42-3.41.66,3.21,1.23,5.99,1.67,8.11-6.33,3.78-12.38,7.22-18.26,10.94-10.99,6.95-21.83,6.87-32.72-.18-3.87-2.5-7.73-5.04-11.75-7.27-6.36-3.79-14.3-3.77-20.64.04-3.76,2.1-7.4,4.42-10.98,6.81-5.72,3.83-11.44,5.75-17.14,5.75-5.68,0-11.37-1.91-17.08-5.72Zm185.42-55.52c1.94.02,2.8-.5,3.22-2.51,1.01-4.8,2.33-9.54,3.52-14.3.83-3.35,1.65-6.7,2.48-10.09-.42-.11-.84-.19-1.27-.23-24.65-.01-49.3,0-73.95.05-1.09.16-2.05.79-2.62,1.74-2.38,4.41-4.7,8.86-6.73,13.44-1.03,2.32-2.42,2.88-4.81,2.88-59.02-.06-118.05-.08-177.07-.04h-3.83v9.04h231.6c5.14,0,10.29-.01,15.43-.01,4.68,0,9.36.02,14.03.05h0Zm-90.12-17.98c2.75.2,5.52.4,7.45-.77,2.63-1.58,3.27-6.21,5.23-9.2,3.59-5.46,1.94-11.34,2.34-17.05h-27v26.88c3.05,0,5.83.03,8.61-.01h.3c.99,0,2.03.06,3.07.15h0Zm-47.97-.33h26.69v-26.68h-26.69v26.68Zm-113.87-.06h72.17v-26.68H48.37v26.68Zm186.04-18h26.77v-8.65h-26.78v8.65Zm36.08-.05h26.78v-8.66h-26.78v8.66Zm-52.2-18.02h26.69v-26.71h-26.69v26.71Zm-160.02-.02h53.22v-26.79h-49.9c-1.11,8.95-2.2,17.77-3.32,26.79h0Zm123.88-.04h26.65v-26.7h-26.65v26.7Zm72.19,0h26.74v-26.69h-26.74v26.69Zm-54.27-54.18v18.21l26.8-.16v-26.78h-26.8v8.72Zm-115.21,18.07h17.61v-17.75h-17.61v17.75Zm151.45-.06h26.7v-26.75h-26.7v26.75Zm42.54,77.1c0-4.45,3.61-8.06,8.07-8.06s8.06,3.61,8.06,8.06h0c0,4.46-3.61,8.06-8.06,8.06h0c-4.45,0-8.06-3.61-8.06-8.06h0Zm5.74,0c0,1.29,1.04,2.33,2.33,2.33h0c1.29,0,2.33-1.04,2.33-2.33h0c0-1.29-1.04-2.33-2.33-2.33h0c-1.28,0-2.33,1.04-2.33,2.33h0Zm-28.04,0c0-4.45,3.61-8.06,8.06-8.06h0c4.45,0,8.06,3.61,8.06,8.06h0c0,4.46-3.61,8.06-8.06,8.06h0c-4.45,0-8.06-3.61-8.06-8.06h0s0,0,0,0Zm5.74,0c0,1.29,1.04,2.33,2.33,2.33h0c1.29,0,2.33-1.04,2.33-2.33h0c0-1.29-1.04-2.33-2.33-2.33h0c-1.28,0-2.33,1.04-2.33,2.33h0Zm-172.87-49.89v-8.66h8.65v8.66h-8.65Zm-18.01-.02v-8.71h8.64v8.71h-8.64Z" fill="#fff"/>
      <rect id="_사각형_739" data-name="사각형 739" width="352" height="244" fill="none"/>
    </g>
  </g>
</svg>