<?xml version="1.0" encoding="UTF-8"?>
<svg id="Layer_2" data-name="Layer 2" xmlns="http://www.w3.org/2000/svg" viewBox="0 0 257 147">
  <g id="Logo">
    <g id="symbol_08_01_0002_01" data-name="symbol 08 01 0002 01">
      <path id="_합치기_16" data-name="합치기 16" d="m8.71,138.67l13.14-21.76h114.05v-8.83H27.17l11.16-18.48h97.57v-8.83H43.65l11.16-18.48h81.08v-8.83H60.14l11.16-18.48h64.6v-8.83h-59.28l10.36-17.17h95.99c16.29-.02,31.98,6.11,43.93,17.17h-55.9c-.77,0-1.55.04-2.32.12-5.05.6-8.97,4.68-9.38,9.74-.1,1.74-.09,3.48-.08,5.16v1.91c-.01,1.44,0,2.88,0,4.34h-.97c-.6,0-1.19,0-1.79.02-3.97-.02-7.32,2.97-7.74,6.92-.19,2.96-.15,5.94-.11,8.83.01.79.02,1.58.03,2.38,0,1.89,1.5,3.45,3.39,3.53.12.01.25.02.37.02,1.69.02,3.16-1.14,3.53-2.79.14-.61.2-1.23.18-1.85,0-1.17,0-2.34,0-3.51,0-1.77,0-3.54.01-5.31,0-.42.13-.6.19-.63.6-.04,1.22-.05,1.84-.05.35,0,.71,0,1.07.01v52.12c0,5.51,0,11.03.01,16.55-.21,5.75,4.15,10.64,9.89,11.1.13.02.26.03.4.04v3.86H8.71Zm174.27-11.36h-12.31c-1.19,0-3.25-.29-3.72-2.27-.13-.59-.2-1.2-.21-1.81h13.08c1.12.08,2.23-.21,3.16-.83.12-.09.23-.18.33-.29.82-1,1.2-2.29,1.03-3.57-.04-2-.5-3.96-1.36-5.76-2.22-4.59-6.91-7.47-12.01-7.38-.75,0-1.51-.01-2.26-.01h-1.9v-7.26c.22.18.44.36.66.54,1.2.98,2.44,2,3.72,2.95.92.71,2.05,1.12,3.21,1.16,2.86,0,5.72,0,8.57,0,9.19.01,18.38.02,27.57.02,10.14,0,20.29,0,30.43-.03-4.93,9.84-12.27,18.27-21.34,24.5h-36.66Zm-18.14-9.64v-6.64c2.64-.14,5.29-.12,7.93.07,3.31.49,5.82,3.23,6.03,6.57h-13.96Zm18.14-22.36h-7.46c-.15-.01-.29-.06-.42-.14-3.19-2.5-5.81-4.62-8.21-6.65-.05-.07-.1-.14-.13-.22-.04-9.91-.05-19.82-.04-29.73v-12.44h74.88c4.1,8.66,6.22,18.13,6.22,27.72,0,7.31-1.23,14.57-3.65,21.47-11.38.02-22.76.02-34.14.02-9.01,0-18.03,0-27.04-.02Zm0-56.83h-16.17c-.04-.76-.02-1.52.08-2.27.18-1.25,1.16-2.23,2.41-2.4.44-.09.88-.13,1.33-.12,4.12,0,8.24,0,12.36,0,12.37,0,24.73,0,37.1,0h13.78c1.22,1.54,2.37,3.14,3.45,4.8h-54.34Z" fill="#fff"/>
      <rect id="_사각형_236" data-name="사각형 236" width="257" height="147" fill="none"/>
    </g>
  </g>
</svg>