<?xml version="1.0" encoding="UTF-8"?>
<svg id="_레이어_2" data-name="레이어 2" xmlns="http://www.w3.org/2000/svg" viewBox="0 0 212 245">
  <g id="Logo">
    <g id="symbol_13_01_0006_02" data-name="symbol 13 01 0006 02">
      <path id="_패스_962" data-name="패스 962" d="m107,6.62c-55.83-.03-101.11,45.21-101.14,101.04-.01,30.07,13.36,58.59,36.49,77.81-.31.36-.6.74-.86,1.14l-24.15,38.09c-2.93,4.63-1.55,10.76,3.07,13.7l1.15.73h0c4.63,2.93,10.76,1.56,13.7-3.07l24.15-38.09c.16-.25.3-.51.44-.77,49.4,26.04,110.56,7.1,136.61-42.3,26.04-49.4,7.1-110.56-42.3-136.61-14.54-7.66-30.73-11.67-47.17-11.67m0,189.86c-49,0-88.72-39.72-88.72-88.72,0-49,39.72-88.72,88.72-88.72,49,0,88.72,39.72,88.72,88.72-.06,48.98-39.75,88.67-88.72,88.72" fill="#fff"/>
      <rect id="_사각형_348" data-name="사각형 348" width="212" height="245" fill="none"/>
    </g>
  </g>
</svg>