<?xml version="1.0" encoding="UTF-8"?>
<svg id="_레이어_2" data-name="레이어 2" xmlns="http://www.w3.org/2000/svg" viewBox="0 0 110 82">
  <g id="Logo">
    <g id="symbol_09_17_0001_01" data-name="symbol 09 17 0001 01">
      <rect id="_사각형_98" data-name="사각형 98" x="0" y="0" width="110" height="82" fill="none"/>
      <path id="_패스_680" data-name="패스 680" d="M36.8,22.21c-6.71,9.87-6.58,27.13,.05,35.07-5.7,0-11.46,.63-17.02-.15-8.72-1.22-14.75-9.6-14.17-18.43,.56-8.86,7.64-15.92,16.5-16.45,4.72-.23,9.47-.04,14.63-.04Zm-7.81,3.51c-3.73,1.83-4.72,5.22-2.49,9.03l2.49-9.03Zm-8.97,8.82c.84-3.08,1.55-5.67,2.37-8.66-3.71,1.59-4.78,5.3-2.37,8.66Z" fill="#fff"/>
      <path id="_패스_681" data-name="패스 681" d="M62.33,39.64l.03-.9c.05-1.79,.1-3.58,.28-5.36,.14-2.12,.65-4.19,1.51-6.13,.88-1.95,2.45-3.5,4.41-4.35,1.56-.5,3.19-.71,4.82-.63,3.81,.02,7.62-.24,11.4-.78,3.29-.54,6.53-1.46,9.86-1.56,3.21-.21,6.37,.84,8.82,2.92,2.55,2.26,3.77,5.93,4.3,9.21,.42,3.28,.52,6.59,.31,9.89,.04,3.12-.33,6.24-1.08,9.27-.78,3.06-2.7,5.7-5.38,7.38-3.94,2.21-8.8,1.22-13.25,.46-4.35-.73-8.74-1.21-13.14-1.43-2.91-.15-6.01-.26-8.43-1.89-3.4-2.29-4.39-6.84-4.5-10.94-.05-1.69,0-3.38,.05-5.06v-.09Zm22.25,.51v.2c.03,1.02,.13,2.03,.28,3.03,.23,2.03,.57,4.04,1.01,6.03,.28,1.55,.95,2.99,1.95,4.21,1,1.01,2.29,1.69,3.69,1.94,1.39,.25,2.81,.31,4.22,.17,1.6,0,3.18-.42,4.56-1.23,1.77-1.21,2.58-3.39,3.1-5.47,1.34-5.45,1.46-11.14,.35-16.64-.4-2-.97-4.53-2.42-6.08-1.46-1.34-3.37-2.09-5.36-2.11-.77-.05-1.53-.05-2.3,0-2.05,.12-4.24,.5-5.71,1.94-1.07,1.21-1.78,2.7-2.05,4.3-.45,2.07-.79,4.16-1.03,6.26-.18,1.15-.28,2.31-.31,3.47h0Zm-5.14-13.82c-.17-.19-.5-.17-1.01,.19-2.33,1.69-2.84,4.95-1.15,7.27,.02,.03,.04,.06,.07,.09l2.11-6.38c.18-.37,.18-.81-.01-1.17h0Zm-9.63,7.33c.17,.25,.46,.41,.77,.41,.11,0,.21-.04,.29-.11,.04-.06,.08-.13,.09-.2l2.08-6.91c.18-.62-.13-.77-.7-.53-1.14,.52-2.03,1.47-2.48,2.65-.44,1.17-.57,2.43-.38,3.66,.03,.34,.12,.66,.29,.96,.02,.03,.04,.05,.06,.08Z" fill="#fff"/>
      <path id="_패스_682" data-name="패스 682" d="M63.87,22.3c-6.81,9.21-6.74,26.91-.08,34.97-7.12,0-14.16,.41-21.1-.26-2.04-.2-4.76-3.14-5.5-5.38-2.53-7.65-2.53-15.91,0-23.55,.9-3.41,4.01-5.78,7.54-5.74,6.23-.15,12.47-.04,19.14-.04Zm-18.25,11.84l2.26-8.45c-3.59,1.91-4.49,4.7-2.26,8.45Zm9.04-8.4c-3.73,1.65-4.64,4.22-2.8,8.38l2.8-8.38Z" fill="#fff"/>
      <path id="_패스_683" data-name="패스 683" d="M1.62,79.78c9.95-.36,19.91-.74,29.86-1.08,24.31-.84,48.61-1.66,72.92-2.48,.5-.02,1,.01,1.5-.03,2.16-.19,3.71,.94,3.31,2.92-.55,1.46-1.8,2.54-3.32,2.87-8.35,.11-16.71-.16-25.07-.29-24.69-.38-49.39-.75-74.08-1.11-1.73-.02-3.47,0-5.2,0l.07-.79Z" fill="#fff"/>
      <path id="_패스_684" data-name="패스 684" d="M107.69,70.8c-15.44,0-30.89-.11-46.33,.03-18.95,.17-37.91,.59-56.86,.74-1.42,.01-3.54-.88-4.13-1.99-1.21-2.29,.64-3.91,4.09-3.8,13.58,.44,27.17,.91,40.75,1.39,20.8,.72,41.6,1.45,62.39,2.17l.09,1.45Z" fill="#fff"/>
      <path id="_패스_685" data-name="패스 685" d="M58.96,11.74c-2.2,.48-7.33-8.76-5.29-11.1,.99-1.14,3.66-.63,5.19,.51,3.73,2.78,1.91,10.19,.1,10.59Z" fill="#fff"/>
      <path id="_패스_686" data-name="패스 686" d="M62.61,14.11c-1.44-.92,.77-8.61,3.11-8.78,1.14-.08,2.3,1.62,2.51,3.05,.51,3.48-4.43,6.48-5.61,5.72Z" fill="#fff"/>
    </g>
  </g>
</svg>