<?xml version="1.0" encoding="UTF-8"?>
<svg id="Layer_2" data-name="Layer 2" xmlns="http://www.w3.org/2000/svg" viewBox="0 0 358 242">
  <g id="Logo">
    <g id="symbol_07_01_0006_01" data-name="symbol 07 01 0006 01">
      <path id="_패스_1485" data-name="패스 1485" d="m323.24,140.18c-12.84-.03-25.68-.03-38.52,0h-3.23c5.6-5.61,12.18-8.87,19.42-10.96,8.44-2.44,11.48-9.76,7.32-17.49-7.5-13.96-18.15-25.1-30.93-34.29-20.74-14.93-44.15-23.76-68.8-29.52-29.09-7.64-86.81-8.16-86.81-8.16-7.75,0-15.18.04-22.61-.05-1.02-.13-1.99-.49-2.84-1.06-9.45-5.15-18.83-10.41-28.31-15.47-7.38-3.94-14.82-7.79-22.37-11.37-3.29-1.56-4.62-.89-5.62,2.51-2.97,10.1-5.96,20.2-8.42,30.43-1.37,5.68-1.71,11.61-2.51,17.43v19.26c.82,5.92,1.32,11.91,2.52,17.75,11.64,56.6,43.9,96.61,96.99,119.53,16.67,7.2,34.3,10.66,52.45,11.39,1.12.04,2.24.29,3.36.44h8.08c.91-.16,1.81-.36,2.72-.47,8.61-1.09,17.39-1.45,25.8-3.38,47.09-10.78,83.04-36.79,106.62-79.28,2.68-4.83,1.22-7.21-4.3-7.22m-38.66-46.36c-31.72-3.48-58.53-17.18-81.34-39.19,30.21,6.56,58.45,17.27,81.34,39.19m-230.74,47.5c-8.49-16.04-13.91-33.51-16-51.54-2.74-22.27-.47-44.88,6.66-66.16.39-1.16.83-2.3,1.33-3.7l42.3,22.89,9.71,3.88h14.35c24.78-.39,49.47.59,73.98,4.44,1.98.35,3.8,1.3,5.22,2.72,23.92,25.17,52.55,41.56,87.07,47.06,4.18.67,8.43.93,12.63,1.49.99.05,1.93.45,2.65,1.14,2.79,4.08,5.62,8.17,7.99,12.5,1.63,2.96.77,4.44-2.37,5.81-.85.38-1.72.7-2.61.97-18.05,5.3-29.87,17.5-37.51,34.15-1.31,2.85-2.85,4.15-6,4.12-10.45-.12-20.9-.04-31.88-.04.97-2.3,1.71-4.27,2.66-6.14,1.03-2.51,1.88-5.09,2.54-7.72,8.93-39.75-19.61-76.25-57.83-78.75-13-.96-25.98,2.17-37.11,8.96-22.83,13.72-34.76,40.16-29.94,66.35-15.33,0-30.22.04-45.11-.1-.94,0-2.21-1.32-2.74-2.34m166.84-8.96c-.16,31.47-25.26,56.02-57.18,55.9-30.38-.11-55.65-25.67-55.44-56.08.05-31.18,25.37-56.42,56.55-56.37.22,0,.44,0,.67,0,30.53.19,55.56,25.73,55.4,56.55m-159.63,21.37c-.37-.58-.68-1.2-1.18-2.09,1.14-.08,1.92-.18,2.7-.17,12.92.2,25.85.45,38.77.57,2.01.02,2.94.71,3.5,2.57.61,2.04,1.56,3.97,2.47,6.22h-33.44q-8.38,0-12.83-7.09m143.62,67.88c-53.03,5.76-97.05-12.89-132.36-52.35.11-.29.23-.59.35-.89,12.62,0,25.24-.03,37.86.07,1.06.17,2.01.75,2.65,1.61,26.59,34.31,75.67,34.49,102.12.27.97-1.33,2.57-2.03,4.21-1.85,11.69.03,23.38-.03,35.08-.02,4.96,0,8.26-2.04,10.39-6.74,2.11-4.25,4.51-8.36,7.19-12.28.61-.9,1.58-1.49,2.66-1.63,14.28-.08,28.57-.03,42.85,0,.16,0,.32.19.89.57-26.5,42.37-64.12,67.82-113.88,73.23" fill="#fff"/>
      <path id="_패스_1486" data-name="패스 1486" d="m164.02,83.93c-26.4-.01-47.74,21.58-47.71,48.28.03,26.32,21.57,48,47.68,47.99,26.52.26,48.23-21.03,48.49-47.55,0-.3,0-.6,0-.9.06-26.58-21.46-47.81-48.46-47.82m3.65,7.66c12.12,1.11,21.66,6.51,29.42,16.25-6.15,3.71-12.09,7.33-18.08,10.85-.65.21-1.36.14-1.95-.2-2.72-1.39-5.42-2.85-8.06-4.4-.66-.38-1.12-1.02-1.27-1.76-.09-6.79-.06-13.58-.06-20.74m-8.12.15c.12,1.63.29,3.02.32,4.4.12,5.28.28,10.55.2,15.83-.23,1.05-.87,1.97-1.78,2.54-1.85,1.29-4.17,2.01-5.77,3.52-1.79,1.7-3.2,1.69-5.15.57-5.45-3.12-10.96-6.13-16.63-9.28,7.21-9.99,16.5-15.83,28.81-17.58m-31.65,58.16c-5.21-11.23-5.35-22.32-.81-33.97,6.28,3.43,12.1,6.53,17.83,9.81.8.63,1.3,1.57,1.36,2.59.16,3.25.06,6.51.06,10.33l-18.44,11.24m33.26,22.64c-12.11-1.12-21.73-6.51-29.34-16.22l18.32-11.18c3.49,1.73,6.69,3.26,9.84,4.91.59.33,1,.91,1.12,1.57.07,6.9.05,13.8.05,20.91m-7.77-40.73c.18-5.98,5.09-10.72,11.07-10.69,6.34-.01,10.78,4.56,10.76,11.09s-4.37,10.78-10.99,10.8c-6.06-.07-10.92-5.05-10.85-11.11,0-.03,0-.05,0-.08m15.3,40.62c0-7.35-.03-14.24.06-21.13,0-.55.82-1.24,1.41-1.6,2.8-1.68,5.66-3.27,9.1-5.24l18.87,10.34c-7.26,10.07-16.58,15.94-29.44,17.64m33.05-24.23c-6.34-3.47-12.39-6.74-18.38-10.13-.55-.51-.86-1.23-.86-1.99-.09-3.36-.04-6.72-.04-10.59l18.49-11.26c5.14,11.24,5.38,22.34.79,33.97" fill="#fff"/>
      <rect id="_사각형_500" data-name="사각형 500" width="358" height="242" fill="none"/>
    </g>
  </g>
</svg>