<?xml version="1.0" encoding="UTF-8"?>
<svg id="Layer_2" data-name="Layer 2" xmlns="http://www.w3.org/2000/svg" viewBox="0 0 251 233">
  <g id="Logo">
    <g id="symbol_09_06_0001_01" data-name="symbol 09 06 0001 01">
      <path id="_패스_727" data-name="패스 727" d="m172.07,50.23h19.68v24.54h2.1v-24.25l-2.4-2.4h-17.63l-1.74,2.1Z" fill="#fff"/>
      <path id="_패스_728" data-name="패스 728" d="m58.25,74.78v-24.54h24.54v-2.1h-24.25l-2.4,2.4v24.24h2.1Z" fill="#fff"/>
      <path id="_패스_729" data-name="패스 729" d="m58.25,144.58c-.73-.33-1.43-.68-2.1-1.03v13.53h2.1v-12.5Z" fill="#fff"/>
      <path id="_패스_730" data-name="패스 730" d="m193.85,78.04v-1.16h-2.1v2.38l2.1-1.22Z" fill="#fff"/>
      <path id="_패스_731" data-name="패스 731" d="m57.2,48.13c-.58,0-1.05.47-1.05,1.05v1.35l2.4-2.4h-1.35Z" fill="#fff"/>
      <path id="_패스_732" data-name="패스 732" d="m193.85,49.18c0-.58-.47-1.05-1.05-1.05h-1.35l2.4,2.4v-1.35Z" fill="#fff"/>
      <path id="_패스_733" data-name="패스 733" d="m83.85,76.88c.58,0,1.05-.47,1.05-1.05v-25.6h-2.1v24.55h-24.55v2.1h25.6Z" fill="#fff"/>
      <path id="_패스_734" data-name="패스 734" d="m56.15,74.78h-24.25l-2.1,2.1h26.35v-2.1Z" fill="#fff"/>
      <path id="_패스_735" data-name="패스 735" d="m84.9,48.13v-26.35l-2.1,2.1v24.25h2.1Z" fill="#fff"/>
      <rect id="_사각형_111" data-name="사각형 111" x="56.15" y="74.78" width="2.1" height="2.1" fill="#fff"/>
      <rect id="_사각형_112" data-name="사각형 112" x="82.8" y="48.13" width="2.1" height="2.1" fill="#fff"/>
      <path id="_패스_736" data-name="패스 736" d="m167.2,43.48v-19.6l-2.1-2.1v24.23l2.1-2.53Z" fill="#fff"/>
      <path id="_패스_737" data-name="패스 737" d="m195.86,76.88l3.64-2.1h-5.65v2.1h2.01Z" fill="#fff"/>
      <rect id="_사각형_113" data-name="사각형 113" x="191.75" y="74.78" width="2.1" height="2.1" fill="#fff"/>
      <path id="_패스_738" data-name="패스 738" d="m165.1,216.32c-.03.58.42,1.07,1,1.1.58.03,1.07-.42,1.1-1,0-.03,0-.06,0-.09v-6.25l-2.1,2.1v4.15Z" fill="#fff"/>
      <path id="_패스_739" data-name="패스 739" d="m56.15,157.08h-26.35l2.1,2.1h24.25v-2.1Z" fill="#fff"/>
      <path id="_패스_740" data-name="패스 740" d="m84.9,158.13c0-.58-.47-1.05-1.05-1.05h-25.6v2.1h24.55v24.54h2.1v-25.59Z" fill="#fff"/>
      <path id="_패스_741" data-name="패스 741" d="m82.8,185.82v24.25l2.1,2.1v-26.35h-2.1Z" fill="#fff"/>
      <path id="_패스_742" data-name="패스 742" d="m25.66,157.08c-.58-.03-1.07.42-1.1,1-.03.58.42,1.07,1,1.1.03,0,.06,0,.09,0h6.25l-2.1-2.1h-4.15Z" fill="#fff"/>
      <rect id="_사각형_114" data-name="사각형 114" x="56.15" y="157.08" width="2.1" height="2.1" fill="#fff"/>
      <rect id="_사각형_115" data-name="사각형 115" x="82.8" y="183.72" width="2.1" height="2.1" fill="#fff"/>
      <path id="_패스_743" data-name="패스 743" d="m172.07,50.23l1.74-2.1h-6.61v2.1h4.87Z" fill="#fff"/>
      <path id="_패스_744" data-name="패스 744" d="m167.2,48.13v-4.64l-2.1,2.53v2.12h2.1Z" fill="#fff"/>
      <path id="_패스_745" data-name="패스 745" d="m226.95,73.23l-3.17-3.17-5.9-5.9-6.59,3.81-11.79,6.81-3.64,2.1-2.01,1.16-2.1,1.21-21.4,12.37c-9.34-2.46-18.88-4.12-28.5-4.99l23.26-28v17.2c0,.58.47,1.05,1.05,1.05h25.6v-2.1h-24.55v-26.65h-82.3v2.1h76.7l-29.7,35.76c-2.29-.08-4.58-.14-6.89-.14-24.05,0-47.05,4.6-66.75,13.15v-22.12h-2.1v23.06c-6.03,2.71-11.85,5.9-17.38,9.52-3.27,2.15-6.43,4.49-9.44,6.98-.36.29-.7.6-1.05.89.35-.3.69-.6,1.05-.89v-39.08l.47-.47,2.1-2.1,24.25-24.25v-1.35c0-.58.47-1.05,1.05-1.05h1.35l24.25-24.25,2.1-2.1v-4.15c.03-.58-.42-1.07-1-1.1-.58-.03-1.07.42-1.1,1,0,.03,0,.06,0,.09-.03-.58.42-1.07,1-1.1.58-.03,1.07.42,1.1,1,0,.03,0,.06,0,.09v4.15l.47-.47h79.25l.47.47,2.1,2.1,8.89,8.89,5.72,5.72,9.63,9.63h1.35c.58,0,1.05.47,1.05,1.05v1.35l17.44,17.44,6.59-3.81-31.34-31.35-.8.96.8-.96-5.72-5.72-2.14,2.58,2.14-2.58-12.07-12.06c-.69-.69-1.62-1.08-2.6-1.08h-82.3c-.97,0-1.91.39-2.6,1.08l-58.2,58.19c-.69.69-1.08,1.63-1.08,2.6v47.39h0v11.14h0v23.77c0,.98.39,1.91,1.08,2.6l58.19,58.2c.69.69,1.62,1.08,2.6,1.08h82.3c.98,0,1.91-.39,2.6-1.08l58.2-58.2c.69-.69,1.08-1.62,1.08-2.6v-82.3c0-.98-.39-1.91-1.08-2.6m-90.87,20.33c8.41.51,16.76,1.65,25,3.4l-24.55,14.18c4.24.69,8.21,1.52,11.87,2.45l23.9-13.8c6.65,1.93,13.15,4.35,19.45,7.24v8.46l-14.93,5.57c-3.73,1.35-7.86.97-11.28-1.04-5.41-2.89-11.17-5.05-17.14-6.44l-8.55,4.94c5.04,12.8-1.41,25.38-1.41,25.38v-24.56l-21.03,12.14c-.33,4.3-1.43,8.51-3.25,12.42v-10.55l-12.57,7.25-4.03-6.97,1.88-1.09,8.17-4.72,28.92-16.69c-4.3-.71-8.86-1.28-13.63-1.7l13.19-15.88Zm-77.83,13.47c18.85-8.7,41.9-13.82,66.75-13.82.3,0,.6,0,.89,0l-12.93,15.56c-3.27-.14-6.6-.21-10.01-.21-20.57,0-35.33,2.67-44.7,6.92v-8.45Zm31.63,36.87v-28.41c7.52,13.78,0,28.41,0,28.41m-17.69-15c0,1.29-1.05,2.34-2.34,2.34-1.29,0-2.34-1.05-2.34-2.34s1.05-2.34,2.34-2.34,2.34,1.05,2.34,2.34h0m95,87.43c.03.58-.42,1.07-1,1.1-.58.03-1.07-.42-1.1-1,0-.03,0-.06,0-.09v-4.15l2.1-2.1v6.25Zm0-6.25v-24.25h24.25l-24.25,24.25Zm26.65-26.65v-24.25h24.25l-24.25,24.25Zm26.82-26.82l-.47.47h-26.35v-11.72l-2.1-.78v12.51h-25.6c-.58,0-1.05.47-1.05,1.05h0v25.6h2.1v-24.55h24.54v24.54h-106.84v2.1h80.2v26.35l-.47.47h-79.25l-.47-.47-2.1-2.1v6.25c0,.58.47,1.05,1.05,1.05h0c-.58,0-1.05-.47-1.05-1.05h0v-6.25l-24.25-24.25h24.25v-2.1h-24.54v-24.55h-2.1v24.25l-24.25-24.25h-6.25c-.58-.03-1.03-.52-1-1.1.02-.54.46-.98,1-1h4.15l-.47-.47v-30.36c7.93-7.44,16.98-13.58,26.82-18.22v8.49c-7,3.69-10.4,8.39-10.4,13.52s3.4,9.83,10.4,13.52c.67.35,1.37.69,2.1,1.03,9.37,4.26,24.13,6.92,44.7,6.92,27.15,0,50.73-4.64,62.58-11.46,3.42-2.01,7.55-2.39,11.28-1.04l14.93,5.56,2.1.78,2.41.9c1.75.65,3.7-.24,4.36-1.99.14-.38.21-.78.21-1.18v-26.09c0-1.87-1.52-3.39-3.39-3.39-.4,0-.8.07-1.18.21l-2.41.9v-6.68c9.84,4.64,18.89,10.78,26.82,18.22v30.36Zm0-40.16c-3.02-2.5-6.17-4.83-9.44-6.98-5.53-3.62-11.34-6.81-17.38-9.52v-12.59l-2.1,1.21v10.44c-3.51-1.52-7.12-2.92-10.84-4.18l10.84-6.26,2.1-1.21,18.12-10.46,3.64-2.1,1.58-.91.91.91h-2.49l-3.64,2.1h8.23l.47.47v39.09Z" fill="#fff"/>
      <rect id="_사각형_116" data-name="사각형 116" width="251" height="233" fill="none"/>
    </g>
  </g>
</svg>