<?xml version="1.0" encoding="UTF-8"?>
<svg id="_레이어_2" data-name="레이어 2" xmlns="http://www.w3.org/2000/svg" viewBox="0 0 223 270">
  <g id="Logo">
    <g id="symbol_05_04_0004_02" data-name="symbol 05 04 0004 02">
      <path id="_패스_1385" data-name="패스 1385" d="m137.04,246.66c-.18-2.92,3.01-5.03,5.58-7.5,1.28-1.23,3.52-2.23,2.48-4.36-1.02-2.1-3.4-1.27-5.26-1.43-2.11-.03-4.22-.19-6.31-.48-4.4-.96-7.08-4.09-7.18-7.91-.11-3.99,2.62-7.26,7.02-8.51,2.07-.43,4.19-.63,6.31-.58,1.88-.1,4.31.7,5.34-1.3,1.07-2.08-1.33-3.05-2.53-4.34-1.17-1.25-2.56-2.34-3.61-3.66-2.81-3.36-2.36-8.36,1-11.17,0,0,0,0,.01-.01,3.39-2.96,8.34-3.27,12.07-.75,1.76,1.26,3.45,2.63,5.05,4.09,1.2.97,2.18,2.42,4.23,1.58,1.82-.74,1.44-2.22,1.49-3.53.06-1.77-.07-3.54.09-5.3.42-4.47,4.4-7.93,9.2-8.13,4.52-.25,8.55,2.8,9.53,7.22.32,2.15.51,4.32.57,6.49.1,1.36.02,2.8,1.79,3.43,1.67.6,2.48-.63,3.43-1.42,1.55-1.3,2.96-2.74,4.59-3.95,3.64-2.91,8.82-2.87,12.42.08,3.8,3.05,4.4,7.54,1.3,11.38-1.45,1.58-2.99,3.08-4.6,4.5-.98.97-2.51,1.8-1.62,3.44.83,1.52,2.49,1.32,3.99,1.35,1.52.04,3.04-.03,4.55.05,6.38.35,10.26,3.77,10.15,8.89-.1,4.92-3.97,8.18-10.13,8.49-1.51.08-3.03,0-4.55.05-1.49.04-3.17-.21-3.99,1.32-.98,1.84.82,2.69,1.87,3.75,1.21,1.22,2.61,2.28,3.76,3.54,3.47,3.82,3.42,8.11-.02,11.47-3.51,3.42-8.74,3.81-13.13.82-1.8-1.23-3.34-2.76-5.01-4.15-.91-.76-1.91-1.44-3.24-1.01-1.4.45-1.44,1.61-1.53,2.71-.08,2.31-.28,4.61-.6,6.9-.99,4.41-5.02,7.47-9.54,7.23-4.68.06-8.65-3.45-9.17-8.1-.2-2.16.07-4.36-.18-6.52-.32-2.73-2.31-3.4-4.66-1.6-1.95,1.5-3.61,3.32-5.63,4.74-2.99,2.19-6.95,2.51-10.26.83-3.39-1.57-5.03-4.21-5.09-8.63m44.98-21.77c.06-5.15-3.87-8.94-9.39-9.08-5.59-.13-10.25,3.91-10.22,8.87.03,4.84,4.46,8.9,9.76,8.96,5.37.05,9.8-3.88,9.86-8.75" fill="#fff"/>
      <path id="_패스_1386" data-name="패스 1386" d="m45.32,93.68c-22.76-.18-41.7-18.84-41.38-40.76.32-21.57,19.38-39.75,41.8-39.86,22.88-.11,42.32,18.82,42.02,40.93-.3,21.98-19.42,39.87-42.45,39.68m1.01-28.22c7.14-.12,12.25-5.31,12.15-12.34-.19-6.83-5.85-12.22-12.68-12.07-6.95,0-12.59,5.64-12.58,12.6,0,.11,0,.22,0,.33.2,6.73,5.77,11.61,13.1,11.49" fill="#fff"/>
      <path id="_패스_1387" data-name="패스 1387" d="m98.93,22.41c-4.44-.09-8.06-3.6-8.3-8.04.18-4.42,3.66-8,8.08-8.31,4.52-.06,8.23,3.55,8.29,8.06s-3.55,8.23-8.06,8.29" fill="#fff"/>
      <rect id="_사각형_438" data-name="사각형 438" width="223" height="270" fill="none"/>
    </g>
  </g>
</svg>