<?xml version="1.0" encoding="UTF-8"?>
<svg id="_레이어_2" data-name="레이어 2" xmlns="http://www.w3.org/2000/svg" viewBox="0 0 320 320">
  <g id="Logo">
    <g id="symbol_17_03_0001_01" data-name="symbol 17 03 0001 01">
      <rect id="Rectangle_19" data-name="Rectangle 19" width="320" height="320" fill="none"/>
      <path id="Path_200" data-name="Path 200" d="M189.6,130.01h55.57s42.65,.33,42.65-31.67c0-27.79-34.43-27.64-49.11-22.61-16.11,5.52-43.94,26.01-49.11,54.28Z" fill="#fff"/>
      <path id="Path_201" data-name="Path 201" d="M238.71,129.36v55.57s-.33,42.65,31.67,42.65c27.79,0,27.64-34.43,22.61-49.11-5.52-16.11-26.01-43.94-54.28-49.11Z" fill="#fff"/>
      <path id="Path_202" data-name="Path 202" d="M189.6,189.59v55.57s-.33,42.65,31.67,42.65c27.79,0,27.64-34.42,22.61-49.11-5.52-16.12-26.01-43.94-54.28-49.11Z" fill="#fff"/>
      <path id="Path_203" data-name="Path 203" d="M190.25,238.7h-55.57s-42.65-.33-42.65,31.67c0,27.79,34.42,27.64,49.11,22.61,16.12-5.52,43.94-26.01,49.11-54.28Z" fill="#fff"/>
      <path id="Path_204" data-name="Path 204" d="M129.98,189.59h-55.57s-42.65-.33-42.65,31.67c0,27.79,34.43,27.64,49.11,22.61,16.11-5.52,43.94-26.01,49.11-54.28Z" fill="#fff"/>
      <path id="Path_205" data-name="Path 205" d="M80.87,190.23v-55.57s.33-42.65-31.67-42.65c-27.79,0-27.64,34.43-22.61,49.11,5.52,16.11,26.01,43.94,54.28,49.11Z" fill="#fff"/>
      <path id="Path_206" data-name="Path 206" d="M129.99,129.97v-55.57s.33-42.65-31.67-42.65c-27.79,0-27.64,34.43-22.61,49.11,5.52,16.11,26.01,43.94,54.28,49.11Z" fill="#fff"/>
      <path id="Path_207" data-name="Path 207" d="M129.35,80.87h55.57s42.65,.33,42.65-31.67c0-27.79-34.43-27.64-49.11-22.61-16.11,5.52-43.94,26.01-49.11,54.28Z" fill="#fff"/>
    </g>
  </g>
</svg>