<?xml version="1.0" encoding="UTF-8"?>
<svg id="_레이어_2" data-name="레이어 2" xmlns="http://www.w3.org/2000/svg" viewBox="0 0 136 98">
  <g id="Logo">
    <g id="symbol_18_02_0001_02" data-name="symbol 18 02 0001 02">
      <rect id="_사각형_150" data-name="사각형 150" width="136" height="98" fill="none"/>
      <path id="_패스_433" data-name="패스 433" d="M133.94,90.4c-.08-.92-.89-1.6-1.81-1.52-.02,0-.04,0-.06,0-14.58,.04-29.16,.06-43.75,.04h-5.57c-.16-.03-.32-.04-.48-.04-14.58,.04-29.16,.06-43.75,.04-7.8,0-15.6,.04-23.4-.06-2.57-.03-4.67-1.58-6-4.54-3.11-6.95,.44-15.07,6.61-15.09,9.92-.03,19.84,0,29.77,0h37.1c.06,0,.11,0,.16,0,4.18,0,8.35,0,12.53,.01h37.1c2.47,0,3.33-1.93,2.11-4.76-.51-1.36-1.08-2.68-1.74-3.98-3.21-6.66-2.57-4.65-2.81-5.35-.14-.5-.43-.95-.83-1.28-.63-.39-1.36-.57-2.1-.53-.49-.05-.98-.05-1.46,0-2.97,.3-37.37,.04-67.19,.04-12.24,0-24.47,.05-36.71-.07-3.9,.06-7.52-2.02-9.41-5.43-4.89-8.31,.68-18.03,10.37-18.05,15.57-.04,31.14,0,46.71,0,19.41,0,38.81,0,58.22,0,3.88,0,5.22-2.31,3.31-5.69-3.23-5.73-6.64-11.36-9.7-17.18-2.06-3.92-5.21-5.37-9.36-5.37h-21.94c-20.85,0-41.71,0-62.57,0-3.38,0-6.54,.79-8.43,3.95C14.06,13.6,9.25,21.67,4.58,29.83c-3.1,5.4-3.54,8.65-3.59,11.27-.17,8.27,5.16,14.62,7.97,17.5-.56,1.24-1.38,3.08-2.38,5.31-.79,1.77-1.57,3.55-2.35,5.33-1.36,2.96-2.14,6.16-2.29,9.42-.29,9.73,5.94,18.13,13.55,18.17,11.12,.06,22.24,.02,33.36,.02h27.3c7.5,.01,15,0,22.5,0h33.64c2.57,0,3.37-1.73,2.23-4.81-.23-.53-.43-1.08-.6-1.63Z" fill="#fff"/>
    </g>
  </g>
</svg>