<?xml version="1.0" encoding="UTF-8"?>
<svg id="_레이어_2" data-name="레이어 2" xmlns="http://www.w3.org/2000/svg" viewBox="0 0 132 156">
  <g id="Logo">
    <g id="symbol_17_02_0003_01" data-name="symbol 17 02 0003 01">
      <path id="_패스_1167" data-name="패스 1167" d="m62.33,112.46v-21.72c-3.42.87-6.73,1.86-10.1,2.54-8.06,1.6-16.42.46-23.75-3.25-2.56-1.11-3.9-3.94-3.13-6.62.77-2.69,3.48-4.33,6.22-3.76,1.12.2,2.22.48,3.3.85,8.74,2.58,17.31,2.44,25.71-1.4,1.35-.62,2.04-1.35,1.87-2.93-.16-1.5-.05-3.04-.07-4.56-.03-.13-.08-.25-.14-.37-2.68.51-5.37,1.13-8.08,1.53-12.1,1.77-23.92,1.03-35.2-4.2-2.39-.88-3.85-3.3-3.52-5.82.14-2.25,1.75-4.14,3.95-4.63,1.31-.28,2.68-.18,3.93.31,7.05,3.22,14.82,4.57,22.54,3.9,5.2-.44,10.34-1.7,15.49-2.65.4-.07.99-.61,1.01-.95.09-2.49.05-4.98.05-7.61-2.46.57-4.74,1.21-7.06,1.62-6.75,1.18-13.64,1.28-20.42.28-8.91-1.32-17.62-3.78-25.91-7.32-2.35-.79-3.87-3.08-3.67-5.56,0-2.26,1.52-4.23,3.7-4.81,1.53-.26,3.09-.16,4.57.3,5.87,1.71,11.61,3.96,17.55,5.35,8.91,2.09,17.92,2.46,26.84-.36,4.39-1.39,4.41-1.33,4.41-5.91v-4.19c-1.95.38-3.73.79-5.52,1.07-9.11,1.4-17.81-.15-26.23-3.67-.85-.36-1.7-.73-2.51-1.17-2.71-1.39-3.79-4.71-2.4-7.43,1.29-2.51,4.26-3.65,6.89-2.64,3.07,1.07,6.08,2.35,9.2,3.19,6.32,1.73,13.03,1.46,19.19-.79.93-.17,1.56-1.05,1.4-1.99-.11-1.68-.05-3.37-.02-5.05-.13-3.08,2.27-5.68,5.35-5.81s5.68,2.27,5.81,5.35c0,.13,0,.26,0,.39.04,1.68.1,3.37-.02,5.05-.08,1.22.44,1.7,1.5,2.08,6.11,2.21,12.76,2.48,19.03.78,3.08-.81,6.04-2.06,9.05-3.14,2.33-.98,5.03-.27,6.58,1.73,1.52,1.96,1.52,4.69,0,6.65-.71.81-1.58,1.47-2.56,1.93-8.18,4.02-17.32,5.68-26.39,4.8-2.35-.23-4.67-.84-7.18-1.32,0,2.62-.06,5.16.06,7.69.02.43.74.97,1.26,1.2,4.44,1.92,9.2,2.96,14.04,3.09,9.86.35,19.28-1.79,28.5-5.07,1.99-.71,3.94-1.55,5.95-2.2,2.89-.97,6.02.6,6.98,3.49.91,2.73-.43,5.7-3.07,6.83-11.08,4.65-22.54,7.84-34.64,8.12-5.97.2-11.94-.57-17.67-2.28-.4-.12-.81-.19-1.33-.32v8.41c2.48.58,5.02,1.24,7.59,1.76,8.19,1.82,16.7,1.65,24.82-.49,2.5-.7,4.88-1.8,7.34-2.64,2.52-.86,5.29.24,6.53,2.6,1.25,2.27.74,5.11-1.23,6.8-.59.47-1.25.86-1.94,1.16-9.11,4.1-19.14,5.72-29.08,4.68-4.3-.38-8.54-1.33-12.81-2.01-.37-.06-.75-.07-1.28-.12,0,2.11-.07,4.17.06,6.21.03.46.69,1.04,1.19,1.29,6.19,3.16,13.23,4.24,20.08,3.07,2.77-.47,5.5-1.22,8.21-1.94,4.51-1.2,8.1,1.47,7.65,5.79-.24,2.29-1.67,3.65-3.67,4.6-8.67,4.13-18.56,4.87-27.75,2.07-1.86-.53-3.7-1.13-5.67-1.73v22.04c2.39-1.21,4.63-2.22,6.74-3.45,3-1.75,5.85-3.75,8.84-5.51,4.42-2.6,9.14-3.51,14.02-1.56,4.36,1.74,6.75,5.28,7.84,9.74,1.27,5.24.57,10.13-2.9,14.4-1.88,2.13-4.35,3.66-7.09,4.41-3.03.99-6.09,1.9-9.14,2.83-2.46.74-4.59,2.3-6.03,4.43-2.95,4.2-6.28,8.04-10.79,10.69-5.51,3.24-10.75,2.58-15.83-.95-3.55-2.54-6.59-5.7-8.99-9.35-1.66-2.51-4.18-4.33-7.08-5.12-3.43-1.01-6.89-1.97-10.21-3.29-6.01-2.39-8.68-7.24-8.71-13.45-.04-6.06,2.02-11.31,7.87-14.09,4.97-2.36,9.88-1.37,14.48,1.28,4.14,2.38,8.17,4.95,12.28,7.37,1.08.55,2.19,1.04,3.33,1.45m38.39,3.17c-.03-4.8-3.35-6.72-7.56-4.39-2.33,1.35-3.92,3.7-4.29,6.37-1,4.81.83,6.6,5.58,5.36,4.21-1.1,6.29-3.52,6.27-7.34m-53.26,4.12c-.12-4.51-2.37-7.91-6.03-9.13-2.07-.69-3.98-.27-5.03,1.11-1.72,2.24-1.36,6.97.73,8.87,1.87,1.69,4.28,2.65,6.8,2.71,2.46.1,3.61-1.13,3.54-3.56" fill="#fff"/>
      <rect id="_사각형_518" data-name="사각형 518" width="132" height="156" fill="none"/>
    </g>
  </g>
</svg>