<?xml version="1.0" encoding="UTF-8"?>
<svg id="Layer_2" data-name="Layer 2" xmlns="http://www.w3.org/2000/svg" viewBox="0 0 258 120">
  <g id="Logo">
    <g id="symbol_05_04_0002_02" data-name="symbol 05 04 0002 02">
      <path id="_합치기_15" data-name="합치기 15" d="m186.8,113.38c-2.64-.38-5.25-.95-7.82-1.67-7.01-1.99-13.57-5.28-19.36-9.7-9.66-7.42-20.19-11.34-30.45-11.34s-20.79,3.92-30.45,11.34c-10.29,7.81-22.87,12.03-35.79,12.01-31.43,0-56.99-24.28-56.99-54.13,0-6.48,1.22-12.9,3.6-18.93,2.18,2.27,4.52,4.37,7,6.29-1.27,4.09-1.92,8.36-1.92,12.64,0,25.06,21.67,45.45,48.3,45.45,11.01.03,21.73-3.56,30.5-10.21,11.19-8.6,23.55-13.14,35.74-13.14s24.54,4.54,35.74,13.14c8.77,6.65,19.49,10.24,30.5,10.21,19.55,0,36.41-10.99,44.01-26.73,2.37,1.86,4.58,3.91,6.59,6.15-9.5,17.37-28.61,29.27-50.6,29.27-2.88,0-5.75-.22-8.6-.64Zm54.12-38.27c1.85-4.86,2.8-10.02,2.8-15.23,0-25.06-21.67-45.45-48.31-45.45-11.01-.03-21.73,3.56-30.5,10.21-11.19,8.6-23.55,13.14-35.74,13.14s-24.54-4.55-35.74-13.14c-8.77-6.65-19.49-10.24-30.5-10.21-20.58,0-38.18,12.17-45.12,29.27-2.39-1.93-4.63-4.04-6.69-6.31C20.13,18.73,39.96,5.74,62.94,5.74c1.17,0,2.34.05,3.5.12,2.13.12,4.26.36,6.37.71,9.42,1.55,18.32,5.39,25.91,11.18,9.66,7.42,20.19,11.34,30.45,11.34s20.79-3.92,30.45-11.34c10.29-7.82,22.86-12.04,35.79-12.01,31.43,0,56.99,24.29,56.99,54.14,0,7.39-1.59,14.7-4.66,21.42-2.1-2.25-4.38-4.32-6.82-6.2Z" fill="#fff"/>
      <rect id="_사각형_235" data-name="사각형 235" width="258" height="120" fill="none"/>
    </g>
  </g>
</svg>