<?xml version="1.0" encoding="UTF-8"?>
<svg id="Layer_2" data-name="Layer 2" xmlns="http://www.w3.org/2000/svg" viewBox="0 0 204 204">
  <g id="Logo">
    <g id="symbol_06_02_0010_01" data-name="symbol 06 02 0010 01">
      <path id="_패스_1451" data-name="패스 1451" d="m198.34,14.91v-5.91h-112.54v73.64l-2.95.17v13.46c-.42.13-.84.24-1.27.31-3.98.3-7.43,2.87-8.87,6.6-2.17,4.92-2.07,10.11-1.49,15.31.31,3.84,1.76,7.49,4.16,10.5-.78.68-1.43,1.26-2.09,1.83-7.14,6.21-14.26,12.44-21.44,18.59-.77.63-1.73.99-2.73,1.03-11.65.07-23.3.04-34.95.04h-1.96v8.85h5.68v8.88h-5.63v8.72h-6.26v8.9h7.76v8.9h164.84v-8.9h-7.76v-8.9h6.21v-8.83h-8.57v-8.79h8.57v-8.83h-2.1c-14.38,0-28.77-.07-43.15.06-2.76.03-4.97-.5-6.81-2.6-.92-.93-1.91-1.8-2.95-2.6-6.43-5.6-12.87-11.2-19.32-16.79-.82-.45-1.11-1.49-.66-2.3,0,0,0,0,0,0,.71-1.83,1.3-3.71,1.78-5.61.64-2.28,1.78-3.96,4.36-4.26,1.27,0,2.3-1.04,2.29-2.31,0-.01,0-.03,0-.04-.24-1.12-.76-2.16-1.51-3.03-.29-.4-1.05-.54-1.63-.66-2.85-.68-5.83.36-7.65,2.66-1.37,1.77-2.62,3.61-3.77,5.53-.56.84-1.09,1.69-1.69,2.61-.98-.84-1.75-1.53-2.55-2.18-1.79-1.48-3.04-1.48-4.8.01-1.2,1.02-2.38,2.06-3.7,3.2-.52-.59-1-1.23-1.42-1.9-1.96-3.6-2.39-7.84-1.18-11.76,1.71-5.38,4.52-6.36,8.47-5.92,1.82.2,3.64.44,5.51.67v-20.43l-2.88-.21V14.91h106.64Zm-116.8,117.94c4.97,1.42,10.27,1.24,15.13-.51.52-.18,1.1-.12,1.57.16,6.79,5.84,13.55,11.74,20.62,17.9h-59.08c.88-.77,1.51-1.33,2.15-1.89,5.81-5.06,11.62-10.12,17.43-15.19.57-.58,1.42-.76,2.18-.47" fill="#fff"/>
      <rect id="_사각형_475" data-name="사각형 475" width="204" height="204" fill="none"/>
    </g>
  </g>
</svg>