<?xml version="1.0" encoding="UTF-8"?>
<svg id="Layer_2" data-name="Layer 2" xmlns="http://www.w3.org/2000/svg" viewBox="0 0 188 220">
  <g id="Logo">
    <g id="symbol_16_01_0002_02" data-name="symbol 16 01 0002 02">
      <rect id="_사각형_194" data-name="사각형 194" width="188" height="220" fill="none"/>
      <path id="_패스_549" data-name="패스 549" d="m96.06,217.53c-.51,0-1.02-.1-1.49-.29-17.29-6.9-33.33-16.61-47.46-28.73-18.66-16.07-33.41-36.17-43.14-58.79-.21-.5-.32-1.03-.32-1.57V7.48c0-2.21,1.79-4,4-4h173.63c2.21,0,4,1.79,4.01,3.99h0v120.65c0,.51-.1,1.02-.29,1.5-9.15,22.49-23.34,42.57-41.47,58.72-13.61,12.08-29.12,21.83-45.91,28.87-.49.21-1.02.31-1.56.31ZM11.66,127.33c9.25,21.19,23.15,40.03,40.68,55.12,13.04,11.19,27.79,20.22,43.69,26.75,15.4-6.64,29.63-15.69,42.17-26.82,17.02-15.15,30.38-33.97,39.08-55.03V11.48H11.66v115.85Z" fill="#fff"/>
      <path id="_패스_550" data-name="패스 550" d="m123.02,140.7c-18.78,8.95-37.57,8.72-56.38-.04-.22,0-.44.07-.61.22-.32.39-.29.95.06,1.31,4.08,6.07,8.1,12.17,12.26,18.19,5.1,7.39,25.01,9.74,30.92,2.96,5.62-6.44,9.79-14,14.6-21.07.35-.22.5-.64.37-1.03-.21-.46-.73-.69-1.21-.54Z" fill="#fff"/>
      <path id="_패스_551" data-name="패스 551" d="m130.31,91.75v-20.09c-6.3,3.06-11.29,5.33-16.07,7.93-1.29.77-2.17,2.08-2.39,3.56-.15,17.74-.1,35.49-.1,54.1,4.58-1.4,8.25-2.8,12.05-3.61,5.3-1.14,6.85-3.9,6.65-8.93-.44-10.97-.14-21.97-.14-32.96Z" fill="#fff"/>
      <path id="_패스_552" data-name="패스 552" d="m77.5,83.07c-.1-1.3-.8-2.48-1.88-3.2-5.02-2.66-10.21-5.05-16.59-8.14,0,19.59-.06,37.6.11,55.62.02,1.63,1.15,4.14,2.49,4.7,4.82,2.03,9.96,3.4,15.95,5.33,0-18.8.03-36.55-.08-54.31Z" fill="#fff"/>
      <path id="_패스_553" data-name="패스 553" d="m95.07,182.3l6.72-10.14h-13.65l6.92,10.14Z" fill="#fff"/>
      <path id="_패스_554" data-name="패스 554" d="m91.48,25.07c-15.55,7.88-31,15.95-48.23,24.87,17.36,9.03,33.2,17.3,49.12,25.44,1.32.6,2.83.63,4.18.08,16.12-8.15,32.16-16.45,49.68-25.46-17.39-9.02-33.22-17.32-49.18-25.36-1.45-.73-4.01-.37-5.58.43Z" fill="#fff"/>
      <path id="_패스_555" data-name="패스 555" d="m94.31,140.73c4.67-.1,10.03,1.17,9.84-6.51-.43-17.19,0-34.4-.25-51.6,0-.61.01-1.19.06-1.75h0s-18.54,0-18.54,0c.02.34.04.67.04,1.03-.18,17.42.23,34.85-.21,52.26-.18,7.05,4.36,6.67,9.08,6.57Z" fill="#fff"/>
      <path id="_패스_556" data-name="패스 556" d="m50.12,88.77c-.66.88-1.66,1.44-2.76,1.51-1.22.02-2.38-.54-3.12-1.51v-33.42l5.66,2.63c.07,10.26.15,20.53.22,30.79Z" fill="#fff"/>
    </g>
  </g>
</svg>