<?xml version="1.0" encoding="UTF-8"?>
<svg id="_레이어_2" data-name="레이어 2" xmlns="http://www.w3.org/2000/svg" viewBox="0 0 140 140">
  <g id="Logo">
    <g id="symbol_08_01_0001_01" data-name="symbol 08 01 0001 01">
      <rect id="_사각형_17" data-name="사각형 17" width="140" height="140" fill="none"/>
      <g id="_그룹_20" data-name="그룹 20">
        <path id="_패스_198" data-name="패스 198" d="M93.8,23.8c-13.8,0-26.9,6.2-35.7,16.8,16.4,5,25.7,22.3,20.7,38.7-3,9.7-10.5,17.4-20.2,20.5,16.5,19.4,45.7,21.8,65.1,5.2,19.4-16.5,21.8-45.7,5.2-65.1-8.7-10.1-21.5-16.1-35.1-16.1h0Z" fill="#fff"/>
        <path id="_패스_199" data-name="패스 199" d="M48.5,96.3c-13.7-22.8-7.6-52.3,14-67.8l-36.5,10.6C11.3,42.4,0,54.5,0,70c0,16.8,15.9,27.6,29.7,31.4l31.4,9.1c-5-3.9-9.3-8.7-12.6-14.2Z" fill="#fff"/>
      </g>
    </g>
  </g>
</svg>