<?xml version="1.0" encoding="UTF-8"?>
<svg id="Layer_2" data-name="Layer 2" xmlns="http://www.w3.org/2000/svg" viewBox="0 0 136 118">
  <g id="Logo">
    <g id="symbol_03_23_0002_02" data-name="symbol 03 23 0002 02">
      <path id="_합치기_8" data-name="합치기 8" d="m15.1,111.14c-4.47,0-8.1-3.63-8.1-8.1v-1.26c0-4.47,3.63-8.1,8.1-8.1h6.81v-41.53c.03-25.34,20.55-45.87,45.89-45.9,25.34.03,45.87,20.56,45.89,45.9v41.54h6.82c4.47,0,8.1,3.63,8.1,8.1v1.26c0,4.47-3.63,8.1-8.1,8.1H15.1Zm95.46-17.46v-41.53c-.03-23.6-19.15-42.73-42.76-42.76-23.6.03-42.73,19.15-42.75,42.76v41.54h19.34v-9.02c-2.67-.71-4.54-3.13-4.54-5.9,0-3.37,2.73-6.1,6.1-6.1s6.1,2.73,6.1,6.1c0,2.77-1.86,5.19-4.54,5.9v9.02h21.05c0-3.37,2.73-6.1,6.1-6.1s6.1,2.73,6.1,6.1h2.96c0-3.37,2.73-6.1,6.1-6.1,3.37,0,6.11,2.73,6.11,6.1h14.62Z" fill="#fff"/>
      <rect id="_사각형_198" data-name="사각형 198" width="136" height="118" fill="none"/>
    </g>
  </g>
</svg>