<?xml version="1.0" encoding="UTF-8"?>
<svg id="_레이어_2" data-name="레이어 2" xmlns="http://www.w3.org/2000/svg" viewBox="0 0 265 121">
  <g id="Logo">
    <g id="symbol_20_02_0005_02" data-name="symbol 20 02 0005 02">
      <path id="_패스_1489" data-name="패스 1489" d="m254.53,5.39c2.34,1.01,6.07-1.85,6.46,2.65.34,3.9-1.12,6.58-5.66,7.31-24.5,3.82-48.51,10.31-71.61,19.34-38.47,15.06-74.13,36.48-105.48,63.37-4.86,3.95-11.98,3.3-16.04-1.46-2.18-2.75.41-3.98,1.84-5.33,10.09-9.49,21.26-17.58,32.61-25.47,40.34-28.05,84.48-47.2,132.74-56.62,8.38-1.63,16.89-2.56,25.15-3.78" fill="#fff"/>
      <path id="_패스_1490" data-name="패스 1490" d="m94.08,111.31c-1.03-.35-3.68-1.43-6.42-2.18-4.64-1.27-4.62-3.47-1.27-6.15,7.68-6.15,15.21-12.54,23.25-18.19,33.33-23.58,70.39-41.37,109.64-52.62,9.46-2.7,19.16-4.64,28.83-6.5,2.54-.49,7.02-3.41,7.75.95.66,3.97-1.04,8.61-6.54,9.93-8.09,1.93-16.17,3.96-24.13,6.37-36.75,11.13-71.44,28.2-102.69,50.51-7.5,5.33-15.16,10.44-21.97,16.67-1.35,1.24-2.82,2.09-6.46,1.21" fill="#fff"/>
      <path id="_패스_1491" data-name="패스 1491" d="m123.04,116.86c-3.82-.48-9.69.7-10.77-2.68-1.15-3.61,4.46-5.67,7.47-7.9,35.07-26.07,74.6-45.54,116.64-57.45,3.26-.93,8.25-3.29,9.7-.79,2.02,3.48-2.4,6.9-4.54,10.08-1.42,2.12-3.95,2.59-6.24,3.36-36,12.03-69.97,29.44-100.76,51.65-3.54,2.55-7.04,4.4-11.51,3.73" fill="#fff"/>
      <path id="_패스_1492" data-name="패스 1492" d="m122.37,37.98c-7.93,9.01-16.07,6.7-24.69,2.62C70.56,27.74,41.82,20.22,12.35,15.23c-2.17-.26-4.3-.76-6.35-1.5-2.67-1.12-2.73-3.79-2.56-6.21.2-2.84,2.42-2.72,4.42-2.53,38.88,3.69,76.8,14.22,112.01,31.11.9.54,1.74,1.17,2.51,1.88" fill="#fff"/>
      <path id="_패스_1493" data-name="패스 1493" d="m14.67,24.8c17.06,2.64,33.85,6.83,50.15,12.52,10.12,3.47,20.03,7.6,30.01,11.46,4.48,1.73,5.53,3.36.89,6.9-4.99,3.81-9.1,4-14.85,1.4-20.52-9.35-42.02-16.38-64.1-20.97-3.91-.8-6.9-2.21-8.01-6.56-.95-3.72-.3-5.58,5.92-4.73" fill="#fff"/>
      <path id="_패스_1494" data-name="패스 1494" d="m226.45,75.38c-20.47,22.91-46.03,36.07-76.67,39.45,23.24-17.24,49.14-30.57,76.67-39.45" fill="#fff"/>
      <path id="_패스_1495" data-name="패스 1495" d="m20.16,45.98c19.02,4.69,37.61,10.94,55.59,18.7,1.19.52,2.5.99,2.07,2.77-.79,3.27-9.67,7.84-12.93,6.48-12.71-5.32-25.58-10.18-38.7-14.42-5.32-1.72-7.02-7.08-9.07-11.49-1.33-2.86,1.95-1.62,3.04-2.05" fill="#fff"/>
      <path id="_패스_1496" data-name="패스 1496" d="m58.51,82.11c.01,3.25-6.19,7.44-8.31,5.75-4.77-3.81-9.14-8.12-13.61-12.29-.42-.48-.6-1.13-.48-1.76.3-1.01,1.28-1.09,2.14-.76,6.31,2.48,12.61,4.96,18.87,7.54.68.28,1.1,1.18,1.39,1.52" fill="#fff"/>
      <rect id="_사각형_748" data-name="사각형 748" width="265" height="121" fill="none"/>
    </g>
  </g>
</svg>