<?xml version="1.0" encoding="UTF-8"?>
<svg id="Layer_2" data-name="Layer 2" xmlns="http://www.w3.org/2000/svg" viewBox="0 0 70 70">
  <g id="Logo">
    <g id="symbol_11_01_0007_02" data-name="symbol 11 01 0007 02">
      <path id="_합치기_38" data-name="합치기 38" d="m4.2,34.87c0-17.01,13.8-30.8,30.81-30.8s30.81,13.79,30.8,30.81c0,17.01-13.79,30.8-30.8,30.8-17.02,0-30.81-13.79-30.81-30.81h0Zm33.88,4.75c.68,2.46,1.39,4.91,2.09,7.36.63,2.21,1.25,4.42,1.89,6.63.25,1.27,1.49,2.09,2.75,1.84.05,0,.11-.02.16-.04.91-.27,1.59-1.04,1.76-1.98,1.3-4.61,2.63-9.22,3.94-13.83.1-.36.25-.49.63-.48,1.61.02,3.22.03,4.83,0,1.28-.03,2.29-1.09,2.26-2.38-.03-1.25-1.04-2.25-2.29-2.27-1.1-.02-2.19,0-3.29,0h-.67c.35-1.25.68-2.4,1.01-3.55.92-3.21,1.83-6.41,2.75-9.62.46-1.2-.13-2.55-1.33-3.03-1.18-.48-2.54.09-3.02,1.27-.05.11-.08.23-.11.35-.92,3.18-1.83,6.38-2.74,9.56-.48,1.66-.95,3.32-1.44,5.02-1.71,0-3.39-.03-5.07.01-.57.02-.8-.12-.97-.71-1.28-4.6-2.61-9.18-3.92-13.78-.14-.59-.48-1.12-.97-1.47-1.07-.74-2.53-.47-3.26.6-.17.25-.3.54-.36.83-1.33,4.64-2.66,9.29-3.97,13.94-.13.45-.3.61-.78.6-1.58-.03-3.17-.02-4.76,0-.28.05-.54-.13-.59-.41,0-.02,0-.03,0-.05-.68-2.42-1.38-4.84-2.07-7.26-.66-2.29-1.3-4.59-1.97-6.88-.32-1.25-1.59-2.01-2.84-1.69-1.25.32-2.01,1.59-1.69,2.84.02.09.05.18.09.27,1.17,4.11,2.34,8.21,3.51,12.3.07.26.13.52.22.86h-.65c-1.1,0-2.19,0-3.29,0-.95-.02-1.8.57-2.12,1.46-.48,1.18.08,2.52,1.26,3,.27.11.56.17.86.17,1.75.04,3.5,0,5.28,0,.06.2.11.37.16.54,1.31,4.58,2.62,9.15,3.94,13.72.1.42.28.83.52,1.19.5.73,1.4,1.08,2.27.88.96-.18,1.72-.93,1.9-1.89,1.32-4.63,2.64-9.25,3.95-13.88.11-.4.26-.56.7-.55,1.58.03,3.18.02,4.77,0h.03c.31-.04.6.17.65.48,0,0,0,0,0,.02Zm-12.47,4.84c-.49-1.74-.99-3.49-1.51-5.29h3.13c-.51,1.78-1.01,3.55-1.52,5.31-.03,0-.06-.02-.1-.02Zm17.19-5.3h3.13c-.51,1.79-1.01,3.55-1.51,5.3l-.1.02c-.51-1.76-1.01-3.51-1.53-5.32Zm-9.35-4.71c.51-1.79,1-3.53,1.5-5.28h.13c.5,1.74.99,3.47,1.51,5.28h-3.14Z" fill="#fff"/>
      <rect id="_사각형_322" data-name="사각형 322" width="70" height="70" fill="none"/>
    </g>
  </g>
</svg>