<?xml version="1.0" encoding="UTF-8"?>
<svg id="_레이어_2" data-name="레이어 2" xmlns="http://www.w3.org/2000/svg" viewBox="0 0 242 234">
  <g id="Logo">
    <g id="symbol_21_01_0007_01" data-name="symbol 21 01 0007 01">
      <path id="_패스_1318" data-name="패스 1318" d="m203.02,159.84c.14,3.09-2.25,5.71-5.34,5.85-.13,0-.26,0-.39,0-3.11-.11-5.58-2.64-5.62-5.75.08-3.11,2.57-5.62,5.68-5.74,3.12,0,5.66,2.52,5.68,5.64" fill="#fff"/>
      <path id="_패스_1319" data-name="패스 1319" d="m59.92,83.89c-.09,3.2-2.75,5.72-5.95,5.63-.03,0-.06,0-.09,0-3.17-.2-5.57-2.93-5.37-6.09.19-3.08,2.79-5.46,5.87-5.38,3.11.16,5.55,2.74,5.54,5.85" fill="#fff"/>
      <path id="_패스_1320" data-name="패스 1320" d="m153.87,194.37c0-3.12,2.52-5.66,5.64-5.67,3.11,0,5.67,2.46,5.79,5.58-.07,3.22-2.66,5.81-5.89,5.88-3.12-.07-5.6-2.66-5.54-5.78" fill="#fff"/>
      <path id="_패스_1321" data-name="패스 1321" d="m106.83,35.92c3.12.07,5.61,2.64,5.56,5.76-.02,3.16-2.6,5.7-5.76,5.68s-5.7-2.6-5.68-5.76c.02-3.16,2.6-5.7,5.76-5.68.04,0,.08,0,.12,0" fill="#fff"/>
      <path id="_패스_1322" data-name="패스 1322" d="m96.2,47.65c-.07,3.11-2.57,5.6-5.68,5.66-3.12.06-5.7-2.42-5.76-5.54,0-.09,0-.18,0-.27.12-3.1,2.68-5.55,5.79-5.54,3.1.09,5.59,2.59,5.66,5.69" fill="#fff"/>
      <path id="_패스_1323" data-name="패스 1323" d="m148.73,199.62c.07,3.16-2.43,5.78-5.58,5.85s-5.78-2.43-5.85-5.58,2.43-5.78,5.58-5.85,5.78,2.43,5.85,5.58h0" fill="#fff"/>
      <path id="_패스_1324" data-name="패스 1324" d="m53.71,99.83c.13,3.09-2.27,5.7-5.36,5.83-3.09.13-5.7-2.27-5.83-5.36,0-.09,0-.18,0-.27-.08-3.11,2.38-5.7,5.49-5.78h0c3.08-.07,5.63,2.37,5.7,5.45,0,.04,0,.09,0,.13" fill="#fff"/>
      <path id="_패스_1325" data-name="패스 1325" d="m207.49,115.46c-3.17-.04-5.71-2.63-5.67-5.8s2.63-5.71,5.8-5.67c3.17.04,5.71,2.63,5.67,5.8,0,.03,0,.06,0,.09-.15,3.1-2.69,5.55-5.8,5.59" fill="#fff"/>
      <path id="_패스_1326" data-name="패스 1326" d="m46.9,128.76c3.06,0,5.54,2.47,5.54,5.53,0,.05,0,.11,0,.16.04,3.13-2.46,5.69-5.59,5.73-3.13.04-5.69-2.46-5.73-5.59,0-.11,0-.23,0-.34.07-3.1,2.63-5.56,5.73-5.49.01,0,.03,0,.04,0" fill="#fff"/>
      <path id="_패스_1327" data-name="패스 1327" d="m75.84,51.36c3.1-.07,5.67,2.39,5.74,5.49,0,.02,0,.03,0,.05.01,3.11-2.42,5.67-5.52,5.82-3.14.06-5.73-2.43-5.79-5.57-.06-3.14,2.43-5.73,5.57-5.79" fill="#fff"/>
      <path id="_패스_1328" data-name="패스 1328" d="m69.25,69.29c.01,3.13-2.52,5.67-5.64,5.68-.09,0-.19,0-.28,0-2.99-.21-5.34-2.64-5.44-5.63-.01-3.18,2.56-5.77,5.74-5.78.04,0,.08,0,.12,0,3.06.01,5.52,2.5,5.51,5.56,0,.06,0,.12,0,.18" fill="#fff"/>
      <path id="_패스_1329" data-name="패스 1329" d="m51.3,117.09c0,3.11-2.44,5.67-5.55,5.81-3.21-.05-5.8-2.63-5.86-5.84.1-3.11,2.64-5.58,5.75-5.6,3.11,0,5.64,2.52,5.66,5.64" fill="#fff"/>
      <path id="_패스_1330" data-name="패스 1330" d="m207.63,121.29c3.17.05,5.7,2.66,5.64,5.83-.05,3.17-2.66,5.7-5.83,5.64-3.17-.05-5.7-2.66-5.64-5.83,0-.04,0-.09,0-.13.13-3.11,2.71-5.56,5.83-5.51" fill="#fff"/>
      <path id="_패스_1331" data-name="패스 1331" d="m187.27,168.39c3.1-.01,5.66,2.42,5.81,5.52-.02,3.22-2.62,5.82-5.84,5.83-3.13,0-5.67-2.56-5.66-5.69s2.56-5.67,5.69-5.66" fill="#fff"/>
      <path id="_패스_1332" data-name="패스 1332" d="m168.88,185.83c-.09-3.11,2.37-5.71,5.48-5.8s5.71,2.37,5.8,5.48c.08,3.21-2.44,5.88-5.65,5.98-3.12,0-5.63-2.54-5.62-5.66h0" fill="#fff"/>
      <path id="_패스_1333" data-name="패스 1333" d="m204.39,138.39c3.12.08,5.59,2.67,5.52,5.79-.08,3.12-2.67,5.59-5.79,5.52-.08,0-.16,0-.23-.01-3.1-.19-5.48-2.81-5.38-5.91.15-3.11,2.78-5.52,5.89-5.39" fill="#fff"/>
      <path id="_패스_1334" data-name="패스 1334" d="m145.94,118.57c-4.43,0-8.86-.03-13.29.02-1.47.01-2.11-.41-2.08-2.04.09-6.13.04-12.27.03-18.41,0-1.04.33-1.59,1.49-1.59,6.27,0,12.54-.03,18.82-.06,1.92,0,3.83,0,5.74-.06,1-.19,1.96.47,2.15,1.47.02.09.03.18.03.27.83,6.14,1.64,12.28,2.47,18.41.23,1.65-.59,2.02-2.07,2-4.43-.06-8.86-.02-13.29-.02h0Z" fill="#fff"/>
      <path id="_패스_1335" data-name="패스 1335" d="m110.18,118.38c-4.44,0-8.88-.05-13.31.03-1.53.03-2.23-.35-1.99-1.99.87-6.07,1.71-12.15,2.53-18.23.18-1.32.85-1.67,2.14-1.66,8.01.05,16.02.07,24.04,0,1.64-.02,2.03.6,2.02,2.09-.05,5.96-.07,11.92,0,17.88.02,1.47-.42,1.95-1.92,1.92-4.5-.09-9.01-.03-13.51-.03" fill="#fff"/>
      <path id="_패스_1336" data-name="패스 1336" d="m130.73,144.73v-13.08c0-2.12.05-4.23-.01-6.35-.03-1.16.32-1.65,1.56-1.65,9.12.04,18.24.03,27.36,0,1.31,0,1.82.45,1.65,1.74-.81,6.07-1.58,12.14-2.47,18.2-.21.68-.75,1.2-1.44,1.39-8.66.07-17.32.04-25.97.02-.24-.06-.47-.15-.69-.27" fill="#fff"/>
      <path id="_패스_1337" data-name="패스 1337" d="m125.3,145.05h-16.13c-3.31,0-6.61-.04-9.92.02-1.22.02-1.84-.4-1.99-1.62-.78-5.95-1.57-11.9-2.38-17.85-.2-1.43.28-1.99,1.82-1.98,8.99.06,17.99.03,26.99.02,1.07,0,1.93,0,1.92,1.51-.06,6.35-.04,12.7-.05,19.05-.05.28-.13.56-.24.83" fill="#fff"/>
      <path id="_패스_1338" data-name="패스 1338" d="m156.86,150.19c-2.45,13.95-17.01,30.39-26.15,29.66-.04-.56-.1-1.14-.1-1.72,0-8.54.04-17.07-.04-25.61-.02-1.8.49-2.41,2.36-2.38,7.28.1,14.56.04,21.84.05h2.1" fill="#fff"/>
      <path id="_패스_1339" data-name="패스 1339" d="m125.31,180.34c-2.06-.6-4.07-1.32-6.04-2.16-6.65-3.31-11.15-8.83-14.63-15.17-2.15-3.92-3.78-8.12-5.8-12.55.69-.12,1.39-.21,2.09-.26,7.6-.01,15.21.02,22.81-.03,1.35,0,1.86.34,1.85,1.77-.05,8.8-.02,17.59-.03,26.39,0,.51-.12,1.02-.25,2.02" fill="#fff"/>
      <path id="_패스_1340" data-name="패스 1340" d="m156.61,91.26c-.74.06-1.37.16-2,.16-7.27.01-14.55-.04-21.82.05-1.78.02-2.24-.57-2.22-2.28.08-8.26.03-16.52.03-24.78,0-2.28.29-2.51,2.6-1.87,5.94,1.63,10.31,5.47,14.06,10.13,4,5.2,7.1,11.02,9.17,17.24.1.45.16.9.17,1.36" fill="#fff"/>
      <path id="_패스_1341" data-name="패스 1341" d="m99.75,91.21c1.37-12.43,16.03-28.93,25.66-28.87.05.6.16,1.22.16,1.84,0,8.34-.04,16.68.03,25.03.01,1.64-.45,2.15-2.12,2.13-7.21-.09-14.43-.03-21.65-.04-.65,0-1.3-.05-2.08-.09" fill="#fff"/>
      <path id="_패스_1342" data-name="패스 1342" d="m163.96,96.55h5.04c3.84,0,7.67-.06,11.51.06.85.04,1.64.47,2.13,1.17,2.55,5.89,4.1,12.17,4.58,18.57.11,1.51-.25,2.1-1.9,2.08-5.69-.1-11.38-.05-17.06-.02-1.13,0-1.73-.14-1.88-1.56-.67-6.16-1.52-12.3-2.3-18.44-.06-.51-.06-1.02-.11-1.84" fill="#fff"/>
      <path id="_패스_1343" data-name="패스 1343" d="m92.24,96.56c-.69,4.74-1.38,9.15-1.96,13.58-.28,2.16-.44,4.33-.49,6.5-.03,1.23-.33,1.78-1.68,1.76-5.88-.06-11.76-.06-17.64,0-1.28.01-1.58-.52-1.5-1.67.38-6.6,1.98-13.08,4.71-19.1.21-.45.8-1.02,1.23-1.02,5.74-.07,11.47-.05,17.35-.05" fill="#fff"/>
      <path id="_패스_1344" data-name="패스 1344" d="m69.31,123.66h18.64c1,0,1.68.04,1.83,1.41.69,6.15,1.52,12.29,2.3,18.43.03.42.03.84,0,1.25-.21.12-.45.21-.69.25-5.49.03-10.98.05-16.47.01-.56-.02-1.07-.29-1.4-.74-2.66-6.45-4.58-13.07-4.45-20.14.06-.17.14-.33.23-.48" fill="#fff"/>
      <path id="_패스_1345" data-name="패스 1345" d="m163.94,144.95c.45-2.6.97-4.98,1.25-7.39.48-4.06.86-8.13,1.19-12.2.09-1.1.27-1.72,1.55-1.71,6.08.05,12.17.04,18.25.05.39.05.78.13,1.16.23-.14,2.6-.44,5.19-.89,7.76-.86,3.79-2.13,7.48-3.17,11.22-.47,1.67-1.44,2.22-3.18,2.18-4.62-.12-9.26-.04-13.88-.04-.71,0-1.42-.06-2.28-.1" fill="#fff"/>
      <path id="_패스_1346" data-name="패스 1346" d="m147.84,176.49c.91-1.05,1.68-1.9,2.42-2.79,5.19-6.46,9.11-13.85,11.55-21.77.42-1.3.94-1.79,2.33-1.77,4.57.08,9.13.03,13.7.04.51.03,1.02.08,1.52.15-2.68,8.85-22.98,25.79-31.51,26.14" fill="#fff"/>
      <path id="_패스_1347" data-name="패스 1347" d="m76.99,150.43c.43-.11.86-.19,1.3-.23,4.7-.02,9.4.04,14.09-.05,1.35-.03,1.65.71,1.97,1.71,2.19,7.09,5.55,13.76,9.94,19.74,1.19,1.57,2.48,3.06,3.77,4.64-7.25.6-28.5-17.07-31.08-25.83" fill="#fff"/>
      <path id="_패스_1348" data-name="패스 1348" d="m178.93,91.17c-1.14.09-2.22.24-3.31.24-4.09.02-8.18.06-12.27-.08-.57-.02-1.41-.87-1.63-1.51-2.14-6.61-5.26-12.85-9.28-18.52-1.43-1.95-3.02-3.79-4.55-5.69,6.77-.85,28.34,16.8,31.04,25.54" fill="#fff"/>
      <path id="_패스_1349" data-name="패스 1349" d="m108.14,65.61c-2.15,2.9-4.54,5.46-6.16,8.43-2.7,4.98-4.99,10.19-7.28,15.38-.6,1.35-1.18,1.95-2.71,1.93-4.3-.07-8.6.03-12.9.04-.58-.03-1.16-.1-1.73-.21,1.82-7.94,22.39-25.05,30.79-25.56" fill="#fff"/>
      <path id="_패스_1350" data-name="패스 1350" d="m233.82,41.74c-2.13-1.94-4.91-3.01-7.79-3-.67.03-.7.24-1.44.17-6.33-.54-12.18-3.62-16.2-8.53-3.51-4.18-6.97-8.41-10.48-12.59-6.31-7.5-14.28-11.77-24.16-12-7.01-.16-14.02-.1-21.03-.09-9.08.01-18.16-.11-27.23.17-6.88.31-12.36,5.89-12.55,12.77-.32,6.92,4.42,13.45,11.17,14.01,7.26.6,14.6.27,21.9.19,2.09-.16,3.72-1.89,3.75-3.99.18-2.07-1.2-3.96-3.23-4.43-.93-.21-1.89-.31-2.84-.3-5.61-.03-11.22.04-16.83-.04-3.57-.05-5.73-2.78-4.94-6,.56-2.27,2.48-3.51,5.7-3.51,14.91-.02,29.81-.02,44.72,0,7.21-.14,14.07,3.07,18.58,8.7,3.36,4.02,6.73,8.03,10.05,12.08,4.4,5.63,10.53,9.64,17.45,11.41,2.27.56,4.61.83,6.95,1.24v26.01c-5.15,0-10.15-.02-15.16,0-8.67.18-17.03-3.21-23.14-9.37-5.8-5.68-11.67-11.28-17.5-16.93-1.96-1.9-3.99-3.74-5.8-5.77-1.57-1.62-1.53-4.2.09-5.77.01-.01.02-.02.04-.03,1.59-1.58,4.11-1.7,5.84-.29.65.49,1.22,1.07,1.82,1.62,5.61,5.13,11.18,10.3,16.84,15.37,2.17,1.95,4.84,1.79,6.5-.11,1.6-1.83,1.42-4.36-.53-6.35-.98-1-2.05-1.91-3.09-2.85-5.01-4.58-10.01-9.17-15.02-13.75-3.71-3.37-8.02-4.66-12.88-3.25-10.03,2.91-12.84,14.91-5.21,22.45,7.88,7.78,15.84,15.46,23.9,23.05,3.85,3.7,8.42,6.56,13.42,8.41,3.49,1.18,7.12,1.91,10.8,2.18.8.08,1.1.09,9.8.26,4.75.1,7.16.15,8.57.02,3.08-.27,6.12-.92,9.04-1.94.04-13.07.08-26.15.12-39.22" fill="#fff"/>
      <path id="_패스_1351" data-name="패스 1351" d="m117.12,200.78c-7.16-.6-14.4-.27-21.6-.19-2.08.18-3.68,1.9-3.7,3.99-.18,2.06,1.17,3.94,3.18,4.43.92.21,1.86.31,2.81.3,5.53.03,11.07-.04,16.6.05,3.52.05,5.65,2.78,4.87,6-.55,2.27-2.45,3.51-5.62,3.51-14.7.02-29.41.02-44.12,0-7.13.13-13.92-3.09-18.33-8.7-3.32-4.02-6.64-8.03-9.92-12.08-4.31-5.61-10.37-9.63-17.22-11.41-2.24-.56-4.55-.83-6.85-1.24v-26.01c5.08,0,10.02.02,14.95,0,8.58-.17,16.84,3.22,22.82,9.37,5.72,5.68,11.51,11.28,17.27,16.93,1.93,1.9,3.94,3.74,5.72,5.77,1.56,1.64,1.5,4.23-.12,5.8-1.56,1.57-4.06,1.7-5.76.28-.64-.48-1.2-1.07-1.79-1.62-5.53-5.13-11.03-10.3-16.61-15.37-2.14-1.95-4.77-1.79-6.41.11-1.58,1.83-1.4,4.36.52,6.35.96,1,2.03,1.91,3.05,2.86,4.94,4.58,9.88,9.17,14.82,13.75,3.66,3.37,7.91,4.66,12.71,3.25,9.89-2.91,12.67-14.91,5.14-22.45-7.77-7.78-15.63-15.47-23.58-23.06-3.87-3.78-8.5-6.69-13.59-8.54-3.34-1.1-6.8-1.79-10.31-2.06-1.27-.12-3.62-.15-8.33-.22-4.65-.07-9.79-.07-9.79-.07,2.51.06-5.36-.05-7.39,1.41-1.04.78-1.81,1.86-2.23,3.09,0,.01,0,.04,0,.07.01.12.02.24.02.36,0,11.44,0,22.88,0,34.32,0,.3-.03.6-.1.9.02.89.19,1.77.51,2.6.97,1.81,4.4,2.2,6.02,1.79.6-.16,1.2-.29,1.82-.39.46-.14.94-.19,1.41-.16,6.27.55,12.04,3.63,15.98,8.54,3.46,4.18,6.88,8.41,10.34,12.58,6.22,7.5,14.08,11.77,23.83,12,6.91.16,13.83.1,20.74.09,8.95-.01,17.91.11,26.86-.17,6.82-.21,12.07-5.9,12.38-12.77.31-6.92-4.36-13.45-11.01-14.01" fill="#fff"/>
      <rect id="_사각형_684" data-name="사각형 684" width="242" height="234" fill="none"/>
    </g>
  </g>
</svg>