<?xml version="1.0" encoding="UTF-8"?>
<svg id="Layer_2" data-name="Layer 2" xmlns="http://www.w3.org/2000/svg" viewBox="0 0 49 108">
  <g id="Logo">
    <g id="symbol_03_10_0001_02" data-name="symbol 03 10 0001 02">
      <path id="_패스_595" data-name="패스 595" d="m16.83,54.11c0,3.68-2.98,6.67-6.67,6.67s-6.67-2.98-6.67-6.67,2.98-6.67,6.67-6.67h0c3.68,0,6.67,2.98,6.67,6.67h0" fill="#fff"/>
      <path id="_패스_597" data-name="패스 597" d="m42.59,13.81c0,5.93-4.81,10.75-10.75,10.74-5.93,0-10.75-4.81-10.75-10.75,0-5.93,4.81-10.74,10.74-10.74,5.94,0,10.75,4.81,10.75,10.74h0" fill="#fff"/>
      <path id="_패스_598" data-name="패스 598" d="m42.59,94.41c0,5.93-4.82,10.74-10.75,10.74s-10.74-4.82-10.74-10.75c0-5.93,4.81-10.74,10.74-10.74,5.94,0,10.75,4.81,10.75,10.75h0" fill="#fff"/>
      <rect id="_사각형_2-2" data-name="사각형 2-2" width="49" height="108" fill="none"/>
    </g>
  </g>
</svg>