<?xml version="1.0" encoding="UTF-8"?>
<svg id="_레이어_2" data-name="레이어 2" xmlns="http://www.w3.org/2000/svg" viewBox="0 0 103 122">
  <g id="Logo">
    <g id="symbol_21_01_0009_01" data-name="symbol 21 01 0009 01">
      <path id="_패스_1378" data-name="패스 1378" d="m58.95,113.08l-31.7-16.6c-.57-.3-.79-1.01-.48-1.58.3-.56,1-.78,1.57-.49l31.28,16.38c.95.3,1.93.49,2.93.56,3.05-.9,5.93-2.29,8.53-4.12l-32.05-16.79c-.57-.3-.79-1-.49-1.58s1-.79,1.58-.49h0l32.67,17.12c.45.12.92.2,1.39.25,3.37-.83,6.53-2.36,9.28-4.47l-32.39-16.97c-.58-.28-.82-.98-.54-1.56s.98-.82,1.56-.54c.02,0,.04.02.06.03l33.5,17.54c.2.05.4.1.6.13,1.95-.73,3.86-1.56,5.73-2.48,1.59-.79,3.05-1.59,4.38-2.39-.06-.1-.12-.2-.18-.3-.07-.1-.14-.19-.21-.29-7.68-3.77-15.38-7.53-23.05-11.33-6.01-2.97-12.06-5.88-17.96-9.06-1.22-.73-2.61-1.13-4.03-1.14-1.23.06-2.42.42-3.47,1.07-4.02,2.27-12.51,7.11-14.84,8.11-.46.19-.92.37-.92.37-.98.42-2.01.72-3.07.89-1.29.16-2.59.04-3.83-.35-.74-.28-1.45-.61-2.14-.98-1.56-.78-1.53-.85-3.27-1.76-.05-.03-1.22-.78-3.57-2.28-.16-.1-.44-.28-.47-.56-.08-.76,1.75-1.53,2.56-1.87,1.76-.75,4.17-1.85,7.56-3.54l3.37.32c-.6.35-1.57.92-2.79,1.57-4.14,2.25-6.04,2.85-5.98,3.71.03.34.35.45,2.38,1.49,3.31,1.7,3.73,2.07,4.76,2.1,1.13-.02,2.22-.36,3.15-1,2.9-1.68,6-3,8.85-4.77,7.94-4.9,9.93-5.47,12.06-5.19,1.11.16,2.17.52,3.15,1.06,9.84,4.88,17.86,9.23,23.4,11.95,4.37,2.15,8.04,3.7,11.89,5.81.9.5,1.85.91,2.77,1.38,2.94,1.52,5.04,2.76,5.92,2.1.25-.2.45-.44.61-.72.19-.34.3-.71.33-1.1.33-3.74.05-15.68,0-20.08-.04-3.22-1.23-5.35-3.17-6.16,1.67-5.6,2.26-11.46,1.74-17.28-2.11-23.81-23.12-45.15-51.98-41.87C21.06,8.27,3.12,30.5,5.48,55.4c.26,3.07.82,6.1,1.68,9.05-1.82.77-3,2.65-3.07,5.44-.16,7.01-.08,14.03-.03,21.05-.1,2.51,1.34,4.82,3.63,5.84,11.86,5.91,23.84,11.62,35.49,17.92,2.23,1.31,4.71,2.15,7.28,2.48.84-.14,1.66-.35,2.47-.61,2.22-.74,4.26-1.93,6.01-3.48m16.72-58.64c-.58,4.39-1.14,8.78-1.79,13.17-.15.49-.54.87-1.04,1.01-1.49.01-2.98.01-4.47.02-2.78-1.36-5.57-2.71-8.34-4.1-3.22-1.62-5.07-2.69-6.48-3.22v-2.34c0-1.53.03-3.06,0-4.59-.02-.84.23-1.2,1.13-1.19,6.6.03,13.2.03,19.79,0,.95,0,1.32.33,1.19,1.26m-1.49-4.93c-3.2-.04-6.41-.02-9.61-.02h0c-3.2,0-6.41-.02-9.61.01-1.06.01-1.53-.3-1.51-1.48.06-4.44.03-8.88.02-13.31,0-.75.24-1.15,1.08-1.15,4.54,0,9.07-.02,13.61-.05,1.39,0,2.77,0,4.15-.04.72-.14,1.42.34,1.55,1.06.01.06.02.13.02.19.6,4.44,1.18,8.88,1.79,13.32.16,1.2-.43,1.46-1.5,1.45m19.69,9.49c-.41,1.81-.95,3.58-1.49,5.36-.68.18-1.33.43-1.96.74-2.43,1.18-4.85,2.36-7.27,3.55-1.31,0-2.61.01-3.92.01-.51,0-1.03-.04-1.65-.07.32-1.88.7-3.6.91-5.34.35-2.94.62-5.88.86-8.83.06-.8.2-1.24,1.12-1.24,4.4.03,8.8.03,13.2.04.28.04.56.09.84.17-.1,1.88-.32,3.76-.64,5.61m-2.76-24.54c1.84,4.26,2.96,8.8,3.31,13.43.08,1.09-.18,1.52-1.38,1.5-4.11-.07-8.23-.04-12.34-.02-.82,0-1.25-.1-1.36-1.13-.48-4.45-1.1-8.9-1.66-13.34-.05-.37-.04-.74-.08-1.33h3.64c2.77,0,5.55-.04,8.32.04.62.03,1.18.34,1.54.84m-2.68-4.77c-.82.06-1.61.17-2.4.17-2.96.02-5.92.04-8.88-.05-.42-.01-1.02-.63-1.18-1.09-1.54-4.78-3.81-9.3-6.71-13.4-1.03-1.41-2.19-2.74-3.29-4.11,4.9-.61,20.5,12.15,22.45,18.48M53.46,10.34c0-1.65.21-1.81,1.88-1.36,4.3,1.18,7.46,3.96,10.17,7.32,2.89,3.76,5.13,7.97,6.64,12.47.07.32.12.65.12.99-.54.05-.99.12-1.45.12-5.26,0-10.52-.03-15.78.03-1.29.02-1.62-.41-1.61-1.65.05-5.97.02-11.95.02-17.92m-3.66,50.84c-1.55.42-3.16,1.46-6.52,3.4-1.48.86-4.12,2.38-7.28,4.09-1.74,0-3.48-.01-5.22.02-.88.02-1.33-.29-1.44-1.17-.56-4.3-1.13-8.61-1.72-12.91-.14-1.03.2-1.44,1.32-1.43,6.51.04,13.01.02,19.52.02.77,0,1.4,0,1.39,1.1-.02,2.29-.03,4.59-.03,6.88m-1.34-11.77c-3.26-.06-6.51-.02-9.77-.02s-6.42-.04-9.63.02c-1.1.02-1.61-.25-1.44-1.44.63-4.39,1.24-8.79,1.83-13.19.13-.96.62-1.21,1.55-1.2,5.8.04,11.59.05,17.39,0,1.19-.01,1.47.44,1.46,1.51-.04,4.31-.05,8.62,0,12.93.01,1.07-.31,1.41-1.39,1.39m1.25-40.56c.04.43.12.88.12,1.33,0,6.03-.03,12.07.02,18.1,0,1.18-.33,1.55-1.54,1.54-5.22-.06-10.44-.02-15.66-.03-.47,0-.94-.04-1.51-.07.99-8.99,11.6-20.93,18.56-20.88m-12.49,2.36c-1.62,1.93-3.11,3.97-4.45,6.1-1.95,3.6-3.61,7.37-5.27,11.12-.43.98-.86,1.41-1.96,1.39-3.11-.05-6.22.02-9.33.03-.42-.02-.84-.08-1.25-.15,1.32-5.74,16.2-18.11,22.27-18.49M8.87,48.19c.27-4.78,1.43-9.46,3.41-13.82.15-.33.58-.74.89-.74,4.15-.05,8.3-.03,12.55-.03-.5,3.43-1,6.62-1.42,9.82-.2,1.56-.32,3.13-.35,4.7-.02.89-.24,1.28-1.22,1.28-4.25-.04-8.51-.04-12.76,0-.93,0-1.14-.38-1.09-1.21m3.81,16.76c-.62-.3-1.27-.53-1.94-.69-1.2-3.44-1.8-7.07-1.78-10.71.04-.12.1-.24.17-.35h2.29c3.73,0,7.47,0,11.19,0,.72,0,1.22.03,1.33,1.02.5,4.45,1.1,8.89,1.66,13.33.02.3.02.6,0,.91-.16.09-.32.15-.5.18-1.65,0-3.3.01-4.95.02-.34-.17-.65-.34-.94-.48-1.06-.54-.9-.46-4.71-2.34-.6-.3-1.21-.59-1.82-.89" fill="#fff"/>
      <rect id="_사각형_689" data-name="사각형 689" width="103" height="122" fill="none"/>
    </g>
  </g>
</svg>