<?xml version="1.0" encoding="UTF-8"?>
<svg id="Layer_2" data-name="Layer 2" xmlns="http://www.w3.org/2000/svg" viewBox="0 0 142 179">
  <g id="Logo">
    <g id="symbol_16_05_0001_01" data-name="symbol 16 05 0001 01">
      <path id="_합치기_9" data-name="합치기 9" d="m112.62,164.39v-11.3h20.04c-1.3,3.61-1.72,7.49-1.21,11.3h-18.83Zm-57.89,0v-11.3h30.38v11.3h-30.38Zm-45,0c.14-1.03.21-2.06.22-3.1,0-2.8-.49-5.57-1.42-8.2h18.7v11.3H9.73Zm45.97-48.01c0-5.57,6.53-10.09,14.6-10.09s14.59,4.52,14.59,10.09-6.54,10.08-14.6,10.08-14.6-4.51-14.6-10.08h0Zm8,0c0,2.52,2.95,4.56,6.6,4.56s6.59-2.04,6.59-4.56-2.95-4.56-6.59-4.56-6.61,2.04-6.61,4.56h0Zm-22.19-34.23c-15.39-2.32-21.97-6.74-24.73-10.55-1.18-1.55-1.84-3.43-1.88-5.38,0-3.58,2.59-12.3,26.61-15.94,2.62-.39,5.45-.77,8.42-1.1.11-.01.22-.03.32-.04-.11.01-.22.02-.33.04-.47-3.62-1.85-7.06-4-10-11.1-16.25,4.93-25.23,4.93-25.23,0,0-5.94,6.95,4.36,24.44,1.93,2.98,2.9,6.48,2.79,10.03,3.86-.27,7.89-.44,12.04-.44.32,0,.62,0,.94.01-.63-3.18-1.94-6.2-3.83-8.83-11.1-16.26,4.93-25.22,4.93-25.22,0,0-5.94,6.95,4.35,24.44,1.9,2.93,2.87,6.37,2.8,9.86h0c-.16,2.61-1.07,5.13-2.64,7.23-1.97-.12-4-.18-6.08-.19h-.48c-4.01,0-8.02.21-12,.65-1.17.13-2.29.29-3.38.46h0l-.03.05c-2.14.36-4.26.78-6.36,1.28v-.03c-.35.09-.72.18-1.06.28-5.37,1.55-8.66,3.64-8.66,5.94,0,4.77,14.11,8.64,31.51,8.64s31.51-3.86,31.51-8.64c0-2-2.47-3.83-6.61-5.29h0c-3.09,2.62-6.64,4.64-10.47,5.97,2.7-1.81,4.9-4.28,6.39-7.16.75.18,1.46.37,2.14.57-.68-.2-1.4-.39-2.14-.57-4.69-1.07-9.46-1.73-14.26-1.97,1.57-2.1,2.48-4.61,2.64-7.23,4.64.25,9.07.67,13.16,1.17.25,2.76-.29,5.54-1.54,8.02,1.25-2.48,1.79-5.25,1.54-8.02,2.15.27,4.22.55,6.17.84-1.96-.29-4.02-.58-6.17-.84-.42-3.71-1.81-7.25-4.02-10.26-11.1-16.25,4.93-25.22,4.93-25.22,0,0-5.94,6.95,4.35,24.44,2.79,4.74,3.28,8.77,2.48,12.14,22.55,3.77,25.04,12.18,25.04,15.68-.04,1.85-.64,3.65-1.72,5.15-2.65,3.86-9.2,8.41-24.89,10.78-9.45,1.31-18.99,1.93-28.54,1.86-9.54.07-19.08-.55-28.54-1.86Zm13.59-33.48c.96-.08,1.92-.15,2.9-.23h0c-.98.07-1.95.15-2.9.23Zm15.42,6.64c2.08,0,4.12.07,6.08.19-4.56,6.32-13.36,9.13-13.36,9.13,3.37-2.24,5.92-5.51,7.28-9.32Zm-22.26,2.44c2.09-.5,4.21-.92,6.36-1.28-4.71,5.63-12.61,8.16-12.61,8.16,2.61-1.75,4.75-4.11,6.25-6.88Z" fill="#fff"/>
      <rect id="_사각형_167" data-name="사각형 167" width="142" height="179" fill="none"/>
    </g>
  </g>
</svg>