<?xml version="1.0" encoding="UTF-8"?>
<svg id="_레이어_2" data-name="레이어 2" xmlns="http://www.w3.org/2000/svg" viewBox="0 0 148 212">
  <g id="Logo">
    <g id="symbol_03_13_0001_01" data-name="symbol 03 13 0001 01">
      <rect id="_사각형_66" data-name="사각형 66" x=".25" y=".37" width="147.75" height="211.63" fill="none"/>
      <path id="_패스_440" data-name="패스 440" d="M21.17,24.3c-2.26-5.65-4.52-11.29-6.85-17.13L28.63,0c-2.41,8.44-4.67,16.38-6.93,24.32l-.53-.02Z" fill="#fff"/>
      <path id="_패스_441" data-name="패스 441" d="M7.87,50l24.34-6.96-7.16,14.31-17.19-6.88v-.48Z" fill="#fff"/>
      <path id="_패스_442" data-name="패스 442" d="M0,35.66v-6.82H6.98v6.82H0Z" fill="#fff"/>
      <path id="_패스_443" data-name="패스 443" d="M21.57,78.78v-6.91h6.95v6.91h-6.95Z" fill="#fff"/>
      <path id="_패스_444" data-name="패스 444" d="M72.29,51.82c-1.66,.25-2.81,1.79-2.56,3.46,.25,1.66,1.79,2.81,3.46,2.56,1.66-.25,2.81-1.79,2.57-3.45-.24-1.67-1.79-2.82-3.46-2.57,0,0,0,0,0,0Z" fill="#fff"/>
      <path id="_패스_445" data-name="패스 445" d="M147.23,5.99V3.69H50.29v.03h-10.6v6.49h-.07v11.98c9.33-4.65,20-10.03,20-10.03l-17.86,30.48,2.36,8.44,5.33,3.75c1.05,.15,2.11,.15,3.16-.02l5.48-1.39,2.14,1.41,.5,4.07-4.56,1.31c-.23,.14-.49,.25-.75,.32-.42,.11-.84,.19-1.26,.26h-.02c-1.71,.31-3.46,.35-5.18,.13l.06,.28,6.36,10.66,2.71,11.63s-8.05-11.97-8.05-12.26c0-.12-.25-1.97-.55-4.11l-9.86-5.92v7.83h0c0,6-.01,11.95,.02,17.88-.01,5.69,.99,11.34,2.96,16.68,7.62,20.18,22.17,32.01,43.38,35.73,2.85,.5,3.84,1.54,3.84,4.26,.02,13.23,.03,26.45-.02,39.67,0,4.37-1.41,8.62-4.02,12.13-3.94,5.61-10.35,8.97-17.2,9.04-5.08,.2-9,2.9-10.08,7.06h69.98c-.1-.4-.23-.78-.39-1.16-2.23-4.06-5.73-5.79-10.29-5.94-11.05-.37-20.4-9.13-20.67-20.01-.35-13.74-.12-27.49-.11-41.24-.13-1.9,1.28-3.55,3.17-3.72,1.32-.24,2.66-.41,3.97-.69,25.23-5.11,43.3-27.4,43.06-53.15,.04-26.53,.04-53.05,0-79.58Zm-30.61,60.64c-.94,1.38-1.95,2.72-2.97,4.05-1.28,1.68-2.98,3-4.94,3.8-.56,.23-1.13,.43-1.7,.64l-11.17,1.7c-.78-.05-1.57-.06-2.35-.17-2.72-.37-5.24-1.65-7.14-3.62-3.05-3.1-6.1-6.19-9.14-9.3-.29-.42-.85-.55-1.29-.31-4.72,1.71-9.95-.66-11.78-5.33-1.77-4.73,.63-10.01,5.36-11.78,.06-.02,.11-.04,.17-.06,1.19-.34,2.42-.51,3.66-.52,.42,.04,.82-.2,.98-.59,1.98-3.87,3.97-7.73,5.97-11.6,1.79-3.69,5.32-6.23,9.39-6.75,2.81-.43,5.63-.85,8.45-1.29,3.28-.55,6.64,.27,9.29,2.27,1.05,.76,2.13,1.49,3.12,2.32,.64,.6,1.25,1.23,1.82,1.9l.18,1.21c-.12,1.08-.76,2.03-1.71,2.55-1.04,.56-2.31,.45-3.24-.28-1.24-.89-2.47-1.8-3.69-2.71-1.41-1.09-3.21-1.53-4.96-1.21-2.79,.45-5.58,.86-8.37,1.28-2.09,.25-3.91,1.55-4.82,3.45-2.02,3.91-4.02,7.82-6.05,11.73-.22,.31-.17,.74,.1,1,2.18,2.6,2.72,6.2,1.41,9.32-.18,.31-.11,.7,.16,.93,3.15,3.18,6.27,6.38,9.43,9.56,1.4,1.46,3.45,2.12,5.44,1.76,2.87-.43,5.73-.86,8.6-1.31,1.63-.22,3.11-1.11,4.08-2.44,.9-1.2,1.78-2.42,2.67-3.62,1.6-2.16,4.09-2.02,5.45,.31,.04,.06,.09,.12,.14,.18l.18,1.21c-.18,.6-.43,1.18-.73,1.73Z" fill="#fff"/>
    </g>
  </g>
</svg>