<?xml version="1.0" encoding="UTF-8"?>
<svg id="_레이어_2" data-name="레이어 2" xmlns="http://www.w3.org/2000/svg" viewBox="0 0 114 86">
  <g id="Logo">
    <g id="symbol_05_02_0005_01" data-name="symbol 05 02 0005 01">
      <path id="_패스_1357" data-name="패스 1357" d="m111.68,72.04c-.03-.37-.04-.77-.03-1.19.07-20.95,0-41.91.09-62.86.01-2.77-.6-3.96-3.62-3.95-33.58.11-67.15.14-100.73.09-2.79,0-3.54.84-3.5,3.54.15,8.59,0,17.18.09,25.77.02.53-.02,1.06-.12,1.58v3.36c.52.03,1.33.08,2.33.14,4.92.33,8.57.75,9.46.85,0,0,33.72,3.75,48.66,11.29.86.43,3.04,1.47,2.83,2.76-.08.47-.12,1.48-3.55,3.72-3.09,2.02-6.48,3.55-10.05,4.52-.55.14-4.58,1.03-5.44,1.21,1.41.86,2.88,1.61,4.4,2.26.81.34,1.5.51,2.16.78,5.92,2.49,12.26,3.57,18.41,5.29,12.72,3.55,26.13,4.62,38.41,9.63l.21.09v-8.86Z" fill="#fff"/>
      <rect id="_사각형_425" data-name="사각형 425" width="114" height="86" fill="none"/>
    </g>
  </g>
</svg>