<?xml version="1.0" encoding="UTF-8"?>
<svg id="_레이어_2" data-name="레이어 2" xmlns="http://www.w3.org/2000/svg" viewBox="0 0 170 175">
  <g id="Logo">
    <g id="symbol_21_01_0001_01" data-name="symbol 21 01 0001 01">
      <rect id="_사각형_175" data-name="사각형 175" width="170" height="175" fill="none"/>
      <path id="_패스_482" data-name="패스 482" d="M165.56,96.91c-.73-4.94-1.8-9.83-3.19-14.63-1.13-3.92-5.53-18.72-14.53-31.2-17.22-23.88-45.07-30.64-49.13-31.57,0,0-17.92-4.29-49.78-1.77-.08,0-1.46,.12-3.35,.25-1.22,.09-2.27,.16-3.1,.22,7.09-4.95,14.89-8.81,23.12-11.46,6.54-2.15,26.76-8.06,49.82,.02,30.69,10.76,43,38.25,45.28,43.64,6.1,14.7,7.79,30.86,4.86,46.51Z" fill="#fff"/>
      <path id="_패스_483" data-name="패스 483" d="M53.99,163.26c20.77-3.14,42.6-6.73,59.03-19.83,12.67-10.1,20.93-25.34,23.32-41.37s-.94-32.72-8.55-47.03c.47,.89,3.56,1.69,4.52,2.33,1.46,1.05,2.83,2.23,4.07,3.53,2.61,2.59,4.9,5.49,6.82,8.63,3.93,6.57,6.6,13.81,7.88,21.35,2.59,13.95,1.13,28.34-4.21,41.49-4.86,11.91-13.24,22.06-24.03,29.07-10.25,6.3-22.06,9.61-34.1,9.56-12-.09-23.85-2.72-34.75-7.72Z" fill="#fff"/>
      <path id="_패스_484" data-name="패스 484" d="M87.73,58.87h9.56c2.85,.17,5.72,.15,8.57-.08,3.9-.54,5.61,1.21,7.04,4.58,3.06,7,4.81,14.5,5.17,22.13h-27c-1.1-8.82-2.2-17.6-3.33-26.64Z" fill="#fff"/>
      <path id="_패스_485" data-name="패스 485" d="M29.08,85.61H2.09c.25-2.43,.38-4.75,.74-7.02,.99-6.33,3.05-12.44,6.1-18.08,.4-.78,1.11-1.34,1.96-1.55,7.22-.11,14.44-.07,21.57-.07-1.13,8.94-2.24,17.71-3.38,26.72Z" fill="#fff"/>
      <path id="_패스_486" data-name="패스 486" d="M32.7,115.63c-7.43,0-14.98,.02-22.52-.05-.71-.09-1.33-.5-1.71-1.11-4-7.66-6.16-16.16-6.3-24.8H29.23c1.15,8.57,2.29,17.09,3.48,25.96Z" fill="#fff"/>
      <path id="_패스_487" data-name="패스 487" d="M87.47,115.63c1.18-8.81,2.31-17.27,3.48-25.96h27.09c-.23,8.65-2.47,17.12-6.54,24.75-.37,.62-.99,1.05-1.7,1.16-7.47,.08-14.95,.05-22.33,.05Z" fill="#fff"/>
      <path id="_패스_488" data-name="패스 488" d="M61.93,85.71v-26.64h22.01c.89,6.65,1.99,13.34,2.61,20.07,.6,6.54,.38,6.56-6.17,6.56h-18.45Z" fill="#fff"/>
      <path id="_패스_489" data-name="패스 489" d="M58.04,85.57h-24.43c-.14-2.65-.12-5.31,.05-7.96,.66-5.42,1.68-10.79,2.45-16.2,.3-2.1,1.3-2.65,3.37-2.6,6.12,.15,12.25,.05,18.56,.05v26.7Z" fill="#fff"/>
      <path id="_패스_490" data-name="패스 490" d="M61.96,89.56h24.91c-.29,3.83-.39,7.58-.91,11.27-.62,4.4-1.56,8.77-2.51,13.12-.26,.78-.9,1.38-1.69,1.6-6.54,.11-13.09,.07-19.8,.07v-26.06Z" fill="#fff"/>
      <path id="_패스_491" data-name="패스 491" d="M33.71,89.56h24.29v26.08h-3.82c-5.04,0-10.08,.07-15.12-.06-.81-.02-2.21-.84-2.3-1.45-1.21-7.87-2.23-15.76-3.29-23.65,.03-.32,.11-.63,.24-.92Z" fill="#fff"/>
      <path id="_패스_492" data-name="패스 492" d="M48.23,144.67c-15.55-3.51-27.64-11.77-36.97-25.3h5.38c5.29,0,10.58-.05,15.87,.06,.89,.07,1.7,.56,2.18,1.32,3.03,8.56,7.14,16.47,13.34,23.19,.1,.1,.09,.31,.2,.73Z" fill="#fff"/>
      <path id="_패스_493" data-name="패스 493" d="M108.72,119.36c-9.23,13.45-21.25,21.66-36.75,25.29,.17-.5,.18-.76,.32-.91,6.06-6.41,10.02-14.04,12.86-22.29,.25-1.42,1.6-2.38,3.03-2.15,6.62,.11,13.25,.04,20.54,.04Z" fill="#fff"/>
      <path id="_패스_494" data-name="패스 494" d="M107.97,55.19c-7.11,0-13.9,.03-20.68-.05-.68-.13-1.27-.56-1.59-1.17-1.96-4.07-3.52-8.38-5.8-12.25s-5.26-7.32-7.8-10.77c12.1,1.15,29.02,12.37,35.88,24.24Z" fill="#fff"/>
      <path id="_패스_495" data-name="패스 495" d="M12.04,55.2c9.28-13.08,21.2-21.05,36.74-24.72-.67,.87-1,1.37-1.4,1.79-5.56,5.88-9.78,12.89-12.36,20.56-.62,1.77-1.43,2.47-3.39,2.43-6.29-.14-12.58-.05-19.58-.05Z" fill="#fff"/>
      <path id="_패스_496" data-name="패스 496" d="M61.94,119.46h19.87c-.52,1.5-.91,2.85-1.44,4.13-3.31,8-7.58,15.37-14.43,20.91-.99,.8-2.43,1.06-4,1.71v-26.75Z" fill="#fff"/>
      <path id="_패스_497" data-name="패스 497" d="M38.25,119.46h19.77v26.52c-1.18-.33-2.39-.34-3.13-.92-8.34-6.56-13.07-15.47-16.64-25.59Z" fill="#fff"/>
      <path id="_패스_498" data-name="패스 498" d="M82.16,55.08h-20.18V29.22c1.14,.33,2.33,.37,3.09,.95,8.2,6.39,13.52,14.78,17.09,24.91Z" fill="#fff"/>
      <path id="_패스_499" data-name="패스 499" d="M38.01,55.04c3.58-10.06,8.89-18.44,17.07-24.84,.93-.49,1.93-.84,2.96-1.04v25.88h-20.03Z" fill="#fff"/>
    </g>
  </g>
</svg>