<?xml version="1.0" encoding="UTF-8"?>
<svg id="Layer_2" data-name="Layer 2" xmlns="http://www.w3.org/2000/svg" viewBox="0 0 436 150">
  <g id="Logo">
    <g id="symbol_01_03_0001_01" data-name="symbol 01 03 0001 01">
      <g id="symbol">
        <path id="_패스_381" data-name="패스 381" d="m67.59,45.74c-1.51,16.97-16.49,29.51-33.47,28-14.88-1.32-26.67-13.12-28-28h-.13v53.81c0,17.04,13.82,30.86,30.86,30.86s30.86-13.82,30.86-30.86v-53.81h-.13Z" fill="#fff"/>
        <path id="_패스_382" data-name="패스 382" d="m124.43,67.94v31.6c0,14.28-11.58,25.86-25.86,25.86s-25.86-11.58-25.86-25.86v-31.6c13.91,14.28,36.76,14.58,51.04.67.23-.22.45-.45.68-.67m5-22.2h-.13c-1.51,16.97-16.49,29.51-33.47,28-14.88-1.32-26.67-13.12-28-28h-.13v53.8c0,17.04,13.82,30.86,30.86,30.86s30.86-13.82,30.86-30.86v-53.8Z" fill="#fff"/>
        <path id="_패스_383" data-name="패스 383" d="m363.28,67.94v31.6c-.09,14.28-11.74,25.79-26.02,25.7-14.16-.09-25.61-11.54-25.7-25.7v-31.6c13.91,14.28,36.76,14.58,51.04.67.23-.22.45-.45.67-.67m5-22.2h-.13c-1.51,16.97-16.49,29.51-33.47,28-14.88-1.32-26.67-13.12-28-28h-.13v53.8c.1,17.04,13.99,30.78,31.03,30.68,16.91-.1,30.59-13.78,30.68-30.68v-53.8Z" fill="#fff"/>
        <path id="_패스_384" data-name="패스 384" d="m399.14,73.85c-15.98,0-29.31-12.2-30.73-28.11h-.13v53.81c.01,17.04,13.83,30.85,30.88,30.84,17.03-.01,30.83-13.81,30.84-30.84v-53.81h-.13c-1.42,15.91-14.75,28.11-30.73,28.11" fill="#fff"/>
        <path id="_패스_385" data-name="패스 385" d="m164.47,73.57c-16.88,2.31-32.43-9.49-34.74-26.37,0,0,0,0,0,0-.07-.49-.12-.97-.17-1.46h-.13v53.8c0,17.04,13.81,30.85,30.85,30.86,5.95,0,11.77-1.72,16.76-4.95-12.79-14.01-17.53-33.58-12.57-51.89" fill="#fff"/>
        <path id="_패스_386" data-name="패스 386" d="m306.44,45.74c-1.51,16.97-16.48,29.5-33.45,27.99-.49-.04-.98-.1-1.46-.17,4.96,18.31.22,37.88-12.57,51.89,14.31,9.25,33.41,5.16,42.66-9.15,3.23-4.99,4.95-10.82,4.95-16.76v-53.81h-.13Z" fill="#fff"/>
        <path id="_패스_387" data-name="패스 387" d="m254.28,14.85c-3.22-.02-5.84,2.57-5.86,5.79-.02,3.22,2.57,5.84,5.79,5.86,3.22.02,5.84-2.57,5.86-5.79v-.06c-.03-3.19-2.6-5.77-5.79-5.8m.03,7.76c-1.07.04-1.96-.8-2-1.87s.8-1.96,1.87-2c1.07-.04,1.96.8,2,1.87v.03c.01,1.05-.82,1.93-1.87,1.97" fill="#fff"/>
        <path id="_패스_388" data-name="패스 388" d="m231.09,51.42l2.87-1.92c-.76-1.12-1.44-2.12-2.18-3.21l-2.86,1.94,2.17,3.19" fill="#fff"/>
        <path id="_패스_389" data-name="패스 389" d="m278.69,20.93c-1.38-1.64-2.95-2.59-5.15-2.2-.28.01-.57,0-.85-.04.14-.2.3-.39.48-.56,2.01-1.33,2.99-3.77,2.46-6.12-.01-.16-.01-.32,0-.49-.01-1.83-.67-2.5-2.48-2.5-6.8,0-13.6-.05-20.41.03-2.63.04-5.26.22-7.87.55-11.57,1.38-22.66,5.47-32.36,11.94-.39.38-1.01.37-1.39-.02-.05-.05-.09-.1-.13-.16-2.27-2.31-4.57-4.59-6.86-6.88-2.83-2.82-5.97-2.86-8.67.05-8.3,8.96-12.44,19.13-12.42,30.5,1.29-1.05,2.63-2.04,4.01-2.97.7-9.29,4.63-18.04,11.1-24.73,1.36-1.45,1.88-1.43,3.29-.03,2.32,2.31,4.63,4.62,7.04,7.02l-3.45,2.8-5.73-5.89c-.91,1.01-1.71,1.91-2.65,2.95l5.62,5.28-3.4,3.34-3.32-3.94-2.85,2.88,3.94,3.71-1.75,2.2-1.86.89-1.5-1.77-2.98,3.01c.3.25.6.49.9.73.49.38.95.78,1.4,1.21.25.3.33.7.23,1.07-.79,1.34-1.6,2.67-2.46,4.04-.47.76-.95,1.53-1.45,2.34-.09-.36-.16-.72-.21-1.09v-.02c-1.23.95-2.41,1.95-3.54,3.01.14,1.13.31,2.27.52,3.43.16.57.16,1.18,0,1.75-1.28,3.18-2.34,6.45-3.18,9.77-.94,3.69-1.6,7.45-1.97,11.24-.6,6.03-.63,12.04.99,17.95,1.65,6.11,4.67,11.76,8.83,16.53,7.82,8.88,19.11,13.94,30.94,13.86,7.98.02,15.95-.05,23.93.04,2.67.03,3.22-1.17,2.9-3.37-.46-3.84-2.7-7.25-6.04-9.2-.99-.61-1.99-1.21-2.91-1.76-.04-.17-.06-.21-.05-.25.07-.27.16-.54.23-.82,1.3-4.36.26-9.08-2.74-12.5-1.3-1.57-2.04-1.66-3.72-.54-4.85,3.23-9.71,6.44-14.53,9.72-.81.55-1.27.5-1.9-.22-.93-1.06-2.01-2-2.97-3.04-3-3.16-4.49-7.46-4.12-11.79.12-2.28.82-4.48,2.02-6.42,2.75,2.2,5.39,4.33,8.06,6.43,1.39,1.1,2.67.85,3.38-.65,2.35-4.98,3.4-10.03.82-15.36l16.98-9.62c.59,3.72,2.34,7.15,5,9.82.31.3.63.6.96.88,1.07.94,2.2,1.82,3.3,2.72,1.44,1.34,3.58,1.63,5.32.72,1.78-.84,2.86-2.68,2.72-4.64,0-2.96,0-5.93,0-8.89v-2.77c0-.57-.05-1.13-.14-1.69-.36-2.21-1.53-4.22-3.28-5.62.97-.87,1.93-1.72,2.88-2.56-.87-.97-1.77-1.9-2.71-2.79-1.72,1.5-3.48,2.95-5.29,4.33-.92.7-1.85,1.37-2.79,2.04-3.39,2.39-6.91,4.6-10.54,6.6-6.87,3.79-13.67,7.71-20.48,11.59-9.43,5.16-12.89,16.99-7.74,26.42.92,1.68,2.08,3.21,3.45,4.55,1.45,1.47,2.93,2.91,4.37,4.39.61.63,1.14,1.34,1.77,2.09-5.21.28-11.9-4.42-17.2-12-1.07.55-2.16,1.12-3.34,1.73,4.15,8.04,12.06,13.47,21.06,14.44.82.08,1.14.41,1.11,1.22-.04.92,0,1.84,0,2.83-6.59-.28-12.97-2.39-18.41-6.11-3.3-2.26-6.26-5-8.77-8.11-5.84-7.32-8.33-16.25-7.68-26.65.5-9.73,3.02-19.24,7.42-27.93.42-.81.86-1.59,1.29-2.38,1.55-2.82,3.26-5.54,5.14-8.15,1.92-2.65,4.02-5.16,6.28-7.53,9.37-9.83,21.23-16.52,35.57-20.07.15-.04.3-.05.5-.09-1.07,2.84-2.08,5.56-3.14,8.26-.13.34-.53.59-.85.83-3.92,3.04-7.85,6.07-11.77,9.1l-3.02,2.34c-.28.22-.55.45-.88.72l1.24,1.61,1.1,1.43,1.6-1.24,5.34-4.11,6.8-5.24c.36,1.44.6,2.75,1.02,3.99.49,1.44,1.18,2.8,2.03,4.06,3.06,4.49,8.05,7.29,13.47,7.58.22,0,.43.03.65.03,2.67.03,5.34,0,8.32,0-.52.57-.88.97-1.26,1.36-.92.97-1.85,1.91-2.8,2.83.92.89,1.81,1.81,2.67,2.77,8.11-7.84,14.86-16.99,19.95-27.06.57-.97.39-2.2-.43-2.96m-35.42,42.72c.52-.38,1.05-.74,1.59-1.12,1.32-.92,2.66-1.83,3.97-2.77.23-.2.55-.3.85-.25.19.04.37.12.52.25,1.05.77,1.77,1.91,2.01,3.19.06.32.09.64.1.97.02,1.94,0,3.88,0,5.81s.03,3.96-.02,5.94c0,.46-.2.89-.55,1.19-.44.09-.91-.02-1.26-.32-1.68-1.32-3.26-2.75-4.76-4.28-.32-.35-.61-.72-.88-1.11-1.25-1.87-1.99-4.02-2.16-6.26,0-.48.21-.94.58-1.25m-24.8,14.03c1.44,3.11,1.42,6.69-.04,9.78l-6.68-5.34,6.73-4.44m14.05,23.31c1.83,2.53,2.27,5.8,1.16,8.72-.19.37-.52.66-.92.8-.75.25-1.51.45-2.29.62.31,1.23.59,2.4.9,3.63.29.01.57-.02.85-.09,1.66-.77,3.04-.23,4.49.71,1.87,1.22,3.85,2.27,4.89,4.39.28.57.49,1.18.78,1.89h-21.2c.42-3.95-.61-7.92-2.9-11.17l14.24-9.49m40.18-73.49c-2.65,3.96-5.4,7.86-8.09,11.79-.37.58-1.04.9-1.72.83-3.4-.04-6.8,0-10.2-.02-7.42.13-13.55-5.78-13.68-13.2-.04-1.99.37-3.96,1.19-5.77.95-2.23,1.93-4.45,2.98-6.63.26-.46.7-.77,1.21-.87,3.38-.3,6.77-.63,10.16-.7,5.3-.11,10.6-.03,15.9-.03h1.58c-.23.62-.54,1.2-.91,1.74-1.41,1.5-2.9,2.94-4.36,4.39-.74.55-1.01,1.54-.65,2.39.38.84,1.27,1.33,2.18,1.2,1.86-.02,3.72-.01,5.58,0,.42,0,.83.1,1.47.17-.95,1.71-1.68,3.28-2.64,4.71" fill="#fff"/>
        <path id="_패스_390" data-name="패스 390" d="m218.23,59.77c2.99.24,5.97.47,8.96.7,5.33.42,9.72-1.33,12.9-5.7,1.84-2.54,2.71-5.65,2.48-8.78h-3.84c.05,4.28-1.55,7.51-5.26,9.56-2.96,1.63-6.07,1.03-9.46.71l4.2-2.91-2.15-3.14c-.32.19-.56.32-.78.48-2.25,1.52-4.52,3-6.72,4.57-.88.63-1.4.33-1.9-.38-.83-1.16-.44-2.56,1-3.48,5.66-3.61,11.33-7.22,17-10.81.11-.07.22-.15.33-.22.29-.19.57-.38.88-.59-.73-1.14-1.4-2.17-2.09-3.25-1.25.79-2.47,1.57-3.71,2.36-5.07,3.22-10.08,6.4-15.04,9.62-2.21,1.45-3.21,4.18-2.47,6.72.73,2.57,3.02,4.4,5.69,4.55" fill="#fff"/>
        <path id="_패스_391" data-name="패스 391" d="m197.15,85.5c2.98-1.03,5.67-2.77,7.83-5.07l-2.67-2.77c-2.72,2.83-6.35,4.62-10.25,5.04,0-2-.05-3.9.02-5.79,0-.99.8-1.8,1.79-1.8.64-.06,1.29-.02,1.94-.02h5.9v-3.89h-2.99l4.61-11.13-3.24-1.72c-.2.33-.39.68-.56,1.03-1.43,3.47-2.9,6.93-4.24,10.44-.36.94-.63,1.4-1.76,1.44-.84.04-1.65.27-2.38.69-1.73.93-2.85,2.69-2.96,4.65-.11,2.71-.06,5.42-.02,8.14-.05,1.06.76,1.96,1.82,2.02,0,0,0,0,0,0,.09,0,.19,0,.28,0,.29,0,.58,0,.88,0h.98c-.2,4.2-.17,8.26,1.28,12.25l3.54-1.16c-.02-.27-.05-.54-.11-.8-.86-3.29-1.14-6.72-.81-10.1-.04-.69.44-1.3,1.12-1.43" fill="#fff"/>
        <path id="_패스_392" data-name="패스 392" d="m215.48,38.56c-1.36,1.46-2.63,2.83-3.95,4.24l2.65,2.5,3.92-3.75c-.86-.98-1.68-1.91-2.62-2.99" fill="#fff"/>
        <path id="_패스_393" data-name="패스 393" d="m207.92,52.87l-3.16-2.23-2.63,3.98,3.33,2.01,2.46-3.77Z" fill="#fff"/>
        <path id="_패스_394" data-name="패스 394" d="m227.5,115.84c-.33-1.29-.63-2.48-.95-3.74l-3.87.97c.34,1.33.65,2.52.97,3.75l3.86-.98Z" fill="#fff"/>
        <path id="_패스_395" data-name="패스 395" d="m271.53,73.57c-2.28-8.4-6.51-16.15-12.35-22.61-.86-.95-1.75-1.88-2.67-2.77-1.16,1.12-2.36,2.2-3.57,3.26.94.9,1.84,1.83,2.71,2.79,18.69,20.79,16.99,52.8-3.8,71.5s-52.8,16.99-71.5-3.8c-18.45-20.52-17.07-52.03,3.1-70.86,1.13-1.06,2.32-2.06,3.54-3.01-.1-2.01-.07-4.02.09-6.02-1.38.93-2.72,1.92-4.01,2.97-23.77,19.3-27.39,54.22-8.09,77.99,19.3,23.77,54.22,27.39,77.99,8.09,17.02-13.82,24.3-36.38,18.56-57.54" fill="#fff"/>
      </g>
      <rect id="_사각형2" data-name=" 사각형2" width="436" height="150" fill="none"/>
    </g>
  </g>
</svg>