<?xml version="1.0" encoding="UTF-8"?>
<svg id="Layer_2" data-name="Layer 2" xmlns="http://www.w3.org/2000/svg" viewBox="0 0 214 126">
  <g id="Logo">
    <g id="symbol_05_01_0003_02" data-name="symbol 05 01 0003 02">
      <path id="_패스_1121" data-name="패스 1121" d="m179.35,94.23c-8.7,2.59-17.72,3.91-26.8,3.91-13.69,0-29.68-3-46.94-11.93-28.6-14.8-53.42-14.08-69.21-10.87-9.32,1.82-18.27,5.15-26.51,9.86v2.79c0,17.82,14.44,32.26,32.26,32.26h161.96v-37.39c-7.67,4.95-16,8.78-24.76,11.38m-126.11,12.48c-5.44,0-9.85-4.41-9.85-9.85s4.41-9.85,9.85-9.85,9.85,4.41,9.85,9.85-4.41,9.85-9.85,9.85h0" fill="#fff"/>
      <path id="_패스_1122" data-name="패스 1122" d="m108.39,41.54c22.88,11.84,46.09,14.42,68.98,7.66,9.56-2.78,18.58-7.17,26.67-12.98-1.07-16.99-15.16-30.23-32.19-30.23H9.89v32.97c7.89-4.07,16.3-7.03,25.01-8.79,16.8-3.47,43.19-4.32,73.49,11.36m52.37-21.93c5.44,0,9.85,4.41,9.85,9.84s-4.41,9.84-9.85,9.84-9.85-4.41-9.85-9.84,4.41-9.85,9.85-9.85h0" fill="#fff"/>
      <rect id="_사각형_294" data-name="사각형 294" width="214" height="126" fill="none"/>
    </g>
  </g>
</svg>