<?xml version="1.0" encoding="UTF-8"?>
<svg id="Layer_2" data-name="Layer 2" xmlns="http://www.w3.org/2000/svg" viewBox="0 0 282 282">
  <g id="Logo">
    <g id="symbol_19_02_0003_01" data-name="symbol 19 02 0003 01">
      <path id="_패스_1511" data-name="패스 1511" d="m111.28,255.15c-1.44,0-2.61-1.17-2.61-2.61h0v-30.48c-.06-1.15-.53-2.24-1.32-3.06-7.41-7.15-14.91-14.22-22.41-21.29-10.22-9.64-12.81-22.84-6.94-35.62,2.58-5.61,5.23-11.18,7.81-16.79,1.68-3.97,4.8-7.16,8.74-8.91.96-.29,1.56-1.24,1.41-2.23-.06-5.61.02-11.23-.04-16.84-.07-7.72,3.13-13.58,10.22-16.72s13.6-1.58,19.19,3.78c.16.12.34.22.52.31,4.15-4.14,9.16-6.29,15.13-5.42,5.88.86,10.14,4.16,13.03,9.47,4.41-2.9,9.12-4.05,14.22-2.77,4.84,1.18,8.92,4.4,11.18,8.83,2.35-1.02,4.76-1.88,7.23-2.56,10-2.06,19.9,5.53,20.07,15.73.2,11.57.09,23.15-.32,34.73-.35,10.2-3.24,19.99-5.67,29.85-2.24,9.08-4.19,18.24-5.96,27.42-.56,3.65-.8,7.35-.71,11.04v21.52c0,1.44-1.17,2.61-2.61,2.61h-3.36c-1.43,0-2.58-1.15-2.59-2.58,0,0,0-.01,0-.02v-.02c.06-9.24-.11-18.48.24-27.71.43-11.35,3.39-22.27,6.3-33.19,1.77-6.65,3.21-13.38,4.79-20.07.08-.47.14-.94.17-1.42-9.81,3.35-17.34.59-22.77-8.19-4.95,3.52-11.38,4.2-16.96,1.8-3.09,6.45-8.36,11.61-14.88,14.56.56.79.99,1.4,1.43,2.01,7.53,10.19,11.66,22.49,11.8,35.16.06,3.17-1.52,5.08-4.12,5.14-2.71.07-4.32-1.81-4.4-5.11-.18-12.12-4.57-23.8-12.4-33.04-.77-1.11-2.08-1.72-3.42-1.58-4.62.22-9.22-.68-13.41-2.63-3.89-1.75-7.77-3.55-11.61-5.4-2.5-1.2-3.38-3.58-2.28-5.82,1.06-2.17,3.35-2.97,5.81-1.88,3.89,1.73,7.7,3.63,11.6,5.35,8.28,3.77,18.05,1.85,24.28-4.78.52-.55.98-1.17,1.61-1.93-3.14-1.47-6.08-2.84-9.02-4.21-10.68-4.98-21.35-9.96-32.03-14.93-5.99-2.79-10.52-.91-13.21,5.47-2.09,4.96-4.45,9.79-6.83,14.62-4.89,9.9-3.24,19.31,4.71,26.86,7.89,7.49,15.75,15,23.72,22.4,1.83,1.59,2.82,3.94,2.68,6.35-.11,10.73-.05,21.46-.05,32.19h0c0,1.45-1.17,2.62-2.61,2.62h-3.37Zm36.42-100.63c-.2-4.08-.52-8.13-.57-12.19-.09-8.51-.01-17.03-.03-25.54-.01-5.36-3.59-9.18-8.52-9.18s-8.51,3.83-8.53,9.18c-.02,7.24-.02,14.47,0,21.71,0,2.55-.85,5.69.33,7.5,1.22,1.88,4.4,2.52,6.76,3.64,3.62,1.72,7.27,3.38,10.57,4.9m25-19.21c0-4.12.02-8.23,0-12.35-.04-5.17-3.67-8.97-8.53-8.97s-8.51,3.8-8.52,8.97c-.03,8.23-.03,16.46,0,24.69.02,5.17,3.66,8.97,8.52,8.97s8.49-3.79,8.53-8.97c.03-4.11,0-8.23,0-12.35m25.59,6.41c0-4.11.02-8.23,0-12.35-.04-5.18-3.65-8.97-8.51-8.98s-8.52,3.8-8.54,8.95c-.03,8.23-.03,16.46,0,24.69.02,5.18,3.65,8.98,8.51,8.98s8.5-3.79,8.54-8.96c.03-4.12,0-8.23,0-12.35m-76.78.59c0-9.16.09-17.88-.04-26.6-.18-4.66-4.1-8.3-8.76-8.12-.52.02-1.04.09-1.55.2-3.86.9-6.6,4.32-6.65,8.28-.15,5.91-.06,11.82,0,17.74.11.62.49,1.15,1.04,1.44,2.05.94,4.2,1.67,6.27,2.59,3.15,1.4,6.26,2.89,9.69,4.47" fill="#fff"/>
      <path id="_패스_1512" data-name="패스 1512" d="m9.85,179.51C3.07,125.64,37.47,71.07,87.26,50.12c34.2-14.81,73-14.82,107.2-.02,49.8,20.95,84.23,75.54,77.4,129.41-1.03-8.47-2.74-16.85-5.12-25.04-11.33-39.45-40.97-72.9-79.21-87.63-39.08-15.56-85.36-10.09-119.82,14.04-32.74,22.38-53.44,59.21-57.85,98.64" fill="#fff"/>
      <rect id="_사각형_752" data-name="사각형 752" width="282" height="282" fill="none"/>
    </g>
  </g>
</svg>