<?xml version="1.0" encoding="UTF-8"?>
<svg id="_레이어_2" data-name="레이어 2" xmlns="http://www.w3.org/2000/svg" viewBox="0 0 195 208">
  <g id="Logo">
    <g id="symbol_09_02_0001_01" data-name="symbol 09 02 0001 01">
      <path id="Path_264" data-name="Path 264" d="M6,208H0V66.53L98.19,3.97l96.81,61.54-3.22,5.05L98.2,11.07,6,69.81V208Z" fill="#fff"/>
      <path id="Path_265" data-name="Path 265" d="M114.76,188.14c-20.71-.04-37.46-16.85-37.43-37.56,.04-20.71,16.85-37.46,37.56-37.43,20.68,.04,37.43,16.81,37.43,37.49-.04,20.72-16.84,37.49-37.56,37.49Zm0-69c-17.4,.03-31.48,14.16-31.45,31.57,.03,17.4,14.16,31.48,31.57,31.45,17.38-.03,31.45-14.13,31.45-31.51-.03-17.41-14.16-31.51-31.57-31.51h0Z" fill="#fff"/>
      <rect id="Rectangle_50" data-name="Rectangle 50" x="41.55" width="6" height="41.13" fill="#fff"/>
      <path id="Path_267" data-name="Path 267" d="M111.83,153.63H47.35V89.26H111.83v64.37Zm-58.49-5.99h52.49v-52.4H53.35v52.4Z" fill="#fff"/>
    </g>
  </g>
</svg>