<?xml version="1.0" encoding="UTF-8"?>
<svg id="_레이어_2" data-name="레이어 2" xmlns="http://www.w3.org/2000/svg" viewBox="0 0 77 83">
  <g id="Logo">
    <g id="symbol_20_01_0003_02" data-name="symbol 20 01 0003 02">
      <rect id="_사각형_274" data-name="사각형 274" width="77" height="83" fill="none"/>
      <path id="_패스_751" data-name="패스 751" d="M73.14,32.01c-.8-.6-2.37-1.09-4.95-1.7h0l-18.87-4.28c-1.61-.33-3.1-1.07-4.35-2.14-.86-.75-1.49-1.72-1.84-2.8-.09-.56-.18-1.19-.26-1.89-.08-.67-.15-1.38-.21-2.13s-.13-1.77-.14-3.09c-.03-5.76-.2-6.95-.19-9.4,0-.84-2.65-2.4-3.92-2.32-1.34,.09-3.37,1.65-3.57,2.73-.53,2.94-.28,5.96-.29,8.95-.01,10.23-.3,10.51-13.69,12.92C2.11,30.25,1.31,30.86,3.94,45.44c2.37,13.18,8.47,24.94,24.23,32.52,6.48,3.37,14.18,3.4,20.68,.09,13.39-6.23,20.33-15.69,23.08-26.88,2.28-9.26,5.66-15.83,1.21-19.15Z" fill="#fff"/>
    </g>
  </g>
</svg>