<?xml version="1.0" encoding="UTF-8"?>
<svg id="Layer_2" data-name="Layer 2" xmlns="http://www.w3.org/2000/svg" viewBox="0 0 198 204">
  <g id="Logo">
    <g id="symbol_21_02_0002_02" data-name="symbol 21 02 0002 02">
      <path id="_합치기_27" data-name="합치기 27" d="m18.6,144.56c22.72-5.8,49.31-17.93,77.44-30.78,32.12-14.67,65.35-29.84,90.47-33.76.17-.03.34-.04.51-.07,1.79,7.17,2.69,14.54,2.69,21.93,0,2.68-.14,5.32-.37,7.94h-55.18c-6.35-.06-11.54,5.04-11.6,11.38-.06,6.35,5.04,11.54,11.38,11.6.07,0,.14,0,.21,0h-28.65c-9.31,0-16.85,7.54-16.85,16.85s7.54,16.85,16.85,16.85h57.21c-16.99,16.86-39.97,26.31-63.91,26.28-33.6,0-64.46-18.54-80.23-48.21Zm-10.66-42.68c0-2.68.14-5.32.37-7.94h83.82c9.3,0,16.85-7.54,16.85-16.85,0,0,0,0,0,0,0-9.3-7.54-16.85-16.85-16.85h-28.65c6.34,0,11.49-5.14,11.49-11.49h0c0-6.35-5.14-11.49-11.49-11.49h-28.56c16.99-16.86,39.97-26.3,63.9-26.27,36.19,0,68.93,21.47,83.35,54.66-27.05,4.7-60.24,19.84-92.35,34.51-26.89,12.28-54.69,24.98-76.74,30.31-.17.04-.32.07-.49.11-3.09-9.25-4.66-18.94-4.66-28.69Z" fill="#fff"/>
      <rect id="_사각형_262" data-name="사각형 262" width="198" height="204" fill="none"/>
    </g>
  </g>
</svg>