<?xml version="1.0" encoding="UTF-8"?>
<svg id="_레이어_2" data-name="레이어 2" xmlns="http://www.w3.org/2000/svg" viewBox="0 0 109 115">
  <g id="Logo">
    <g id="symbol_04_03_0004_01" data-name="symbol 04 03 0004 01">
      <rect id="_사각형_404" data-name="사각형 404" width="109" height="115" fill="none"/>
      <path id="_패스_1245" data-name="패스 1245" d="m66.36,37.54c6.44-3.78,12.64-4.7,19.12-2.4,10.98,3.9,16.64,12.51,18.67,23.33,3.41,18.21-3.91,32.59-17.8,43.84-17.42,14.11-42.18,12.95-59.6,1.47-13.23-8.72-21.16-20.93-23.71-36.44-2.28-12.72.33-25.83,7.31-36.7.81,1.1.28,1.9.07,2.66-8.84,30.97,17.58,56.38,44.51,55.06,16.54-.77,29.33-14.8,28.56-31.34-.03-.72-.09-1.43-.18-2.15-.62-6.44-4.67-12.04-10.58-14.66-1.89-.89-3.86-1.62-6.37-2.67" fill="#fff"/>
      <path id="_패스_1246" data-name="패스 1246" d="m67.18,6.49c-4.91,1.49-10.06,1.91-14.86,3.85-23.5,9.53-31.68,34.51-20.65,54.32,7.53,13.53,23.07,18.63,37.11,12.06,1.58-.79,3.21-1.47,4.89-2.02-4.37,5.35-10.73,8.7-17.61,9.26-16.04,1.74-28.71-4.75-37.45-17.92-8.56-12.9-9.13-26.73-1.8-40.59,2.86-5.27,7.07-9.68,12.19-12.8,11.79-7.48,24.66-8.85,38.19-6.16" fill="#fff"/>
    </g>
  </g>
</svg>