<?xml version="1.0" encoding="UTF-8"?>
<svg id="Layer_2" data-name="Layer 2" xmlns="http://www.w3.org/2000/svg" viewBox="0 0 172 300">
  <g id="Logo">
    <g id="symbol_04_02_0006_01" data-name="symbol 04 02 0006 01">
      <rect id="_사각형_400" data-name="사각형 400" width="172" height="300" fill="none"/>
      <path id="_패스_1222" data-name="패스 1222" d="m115.04,249.34c-.56,9.12-2.82,18.06-6.66,26.35-1.62,3.47-3.52,6.79-5.68,9.95-1.14,1.41-2.37,2.75-3.69,4,.89,5.75-1.26-11.65-3.08-17.18-1.93-5.63-4.79-10.9-8.46-15.59-1.8-2.39-3.79-4.63-5.94-6.71-18.28-17.76-36.88-35.38-53.34-54.77-15.46-18.22-21.72-39.66-14.8-64.28,3.09-11,6.34-21.26,14.18-30.24.22,8.9,2.11,17.69,5.59,25.89,7.16,16.66,17.01,20.67,41,43.71,20.14,19.34,30.33,29.35,36.2,45.63,3.81,10.65,5.39,21.97,4.67,33.25" fill="#fff"/>
      <path id="_패스_1223" data-name="패스 1223" d="m78.95,107.77c-9.94-11.63-14.91-17.44-18.31-25.13-11.46-25.94.31-55.85,9.75-73.66,2.4,11.65,4.09,23.38,12.67,32.15,12.65,12.94,25.54,25.66,38.33,38.47,12.82,12.84,26.99,24.74,33.15,42.62,6.72,19.49,8.14,38.93-2.84,57.66-2.34,3.99-4.63,8.02-6.95,12.02-.8-2.99-2.04-7.16-3.88-12.05-1.89-5.42-4.29-10.65-7.18-15.61-3.44-5.44-7.76-10.26-12.78-14.28-14.96-13.06-28.99-27.16-41.96-42.2" fill="#fff"/>
    </g>
  </g>
</svg>