<?xml version="1.0" encoding="UTF-8"?>
<svg id="Layer_2" data-name="Layer 2" xmlns="http://www.w3.org/2000/svg" viewBox="0 0 246 202">
  <g id="Logo">
    <g id="symbol_02_04_0001_01" data-name="symbol 02 04 0001 01">
      <path id="_패스_412" data-name="패스 412" d="m68.37,30.89v44.16c0,1.08-.29,2.14-.83,3.07L4.85,184.86c-1.7,2.89-.73,6.61,2.17,8.31.93.55,2,.84,3.08.83h225.82c3.35,0,6.08-2.71,6.08-6.06,0-1.08-.29-2.14-.83-3.08l-50.32-85.67c-1.71-2.9-5.44-3.86-8.33-2.16-.89.52-1.63,1.27-2.16,2.16l-25.22,42.94-37.59-64c-.55-.93-.84-1.99-.83-3.07V11.07c0-3.36-2.73-6.07-6.08-6.07h-30.51c-1.18,0-2.14.96-2.14,2.14,0,0,0,.02,0,.03l.08,5.85c.02,1.17.97,2.11,2.14,2.11h26.37v59.92c0,2.88.77,5.71,2.23,8.19l37.44,63.75c1.4,2.47,3.75,4.27,6.51,4.98,4.35,1.05,8.88-.86,11.15-4.72l21.71-36.97,43.22,73.59H17.19l59.1-100.62c1.46-2.48,2.23-5.31,2.23-8.19l-.21-44.28c0-1.18-.97-2.13-2.15-2.13-.01,0-.02,0-.03,0l-5.66.11c-1.17.02-2.1.97-2.1,2.14" fill="#fff"/>
      <rect id="_사각형_2" data-name="사각형 2" width="246" height="202" fill="none"/>
    </g>
  </g>
</svg>