<?xml version="1.0" encoding="UTF-8"?>
<svg id="_레이어_2" data-name="레이어 2" xmlns="http://www.w3.org/2000/svg" viewBox="0 0 114 63">
  <g id="Logo">
    <g id="symbol_08_01_0005_02" data-name="symbol 08 01 0005 02">
      <path id="_패스_1436" data-name="패스 1436" d="m23.61,15.61c0,3.68-.02,7.28.01,10.87-.02,1.14.07,2.29.28,3.41,1.07,5.18,5.59,8.92,10.87,9.01,3.56.08,7.12.03,10.68.03h1.47v16.5c-.21.04-.43.07-.64.08-4.79-.02-9.59.13-14.37-.1-12.76-.63-23.69-11.13-24.64-23.87-.39-5.26-.07-10.57-.07-15.94h16.4Z" fill="#fff"/>
      <path id="_패스_1437" data-name="패스 1437" d="m106.59,15.61c.06.13.1.28.12.42-.06,5.21.15,10.44-.23,15.63-.84,11.6-10.56,22-22.11,23.41-5.36.65-10.83.33-16.25.45-.41,0-.82-.04-1.31-.07v-16.52h1.36c3.35,0,6.7.01,10.05,0,7.04-.04,11.88-4.88,11.92-11.93.02-3.31,0-6.61,0-9.92v-1.47h16.44Z" fill="#fff"/>
      <rect id="_사각형_458" data-name="사각형 458" x="52.2" y="34.15" width="9.31" height="27.31" fill="#fff"/>
      <rect id="_사각형_459" data-name="사각형 459" x="2" y="1.42" width="27.31" height="9.3" fill="#fff"/>
      <rect id="_사각형_460" data-name="사각형 460" x="84.45" y="1.39" width="27.31" height="9.3" fill="#fff"/>
      <rect id="_사각형_503" data-name="사각형 503" width="114" height="63" fill="none"/>
    </g>
  </g>
</svg>