<?xml version="1.0" encoding="UTF-8"?>
<svg id="_레이어_2" data-name="레이어 2" xmlns="http://www.w3.org/2000/svg" viewBox="0 0 227 251">
  <g id="Logo">
    <g id="symbol_18_04_0005_01" data-name="symbol 18 04 0005 01">
      <path id="_패스_1243" data-name="패스 1243" d="m43.36,41.86c.57.62,1.06,1.3,1.48,2.04.97,2.54,1.77,5.14,2.8,7.65.38.85,1.03,1.56,1.84,2.01,2.17,1.14,4.49,2.01,6.68,3.12.66.33,1.14.94,1.3,1.66,0,.56-.73,1.33-1.33,1.64-2.01,1.04-4.07,1.98-6.18,2.8-1.29.46-2.26,1.54-2.58,2.87-.76,2.4-1.62,4.78-2.54,7.12-.23.57-.99,1.43-1.33,1.35-.69-.23-1.24-.73-1.54-1.39-.96-2.4-1.64-4.92-2.68-7.28-.5-1.07-1.31-1.96-2.33-2.55-2.02-1.13-4.25-1.89-6.33-2.95-.65-.33-1.11-.94-1.26-1.65.17-.71.64-1.31,1.3-1.63,2.07-1.05,4.29-1.82,6.33-2.94.97-.55,1.75-1.38,2.23-2.39,1.05-2.43,1.79-4.99,2.74-7.46.4-.72.87-1.39,1.41-2.01" fill="#fff"/>
      <path id="_패스_1244" data-name="패스 1244" d="m123.61,6.75c.62.68,1.16,1.42,1.61,2.22,1.06,2.76,1.92,5.6,3.05,8.33.41.93,1.12,1.69,2.01,2.18,2.37,1.24,4.88,2.19,7.27,3.4.72.36,1.24,1.02,1.42,1.8,0,.61-.8,1.45-1.45,1.79-2.19,1.14-4.43,2.15-6.73,3.05-1.4.5-2.46,1.67-2.81,3.12-.83,2.62-1.76,5.2-2.77,7.76-.25.62-1.08,1.55-1.45,1.47-.75-.24-1.36-.79-1.67-1.51-1.05-2.61-1.79-5.35-2.92-7.92-.54-1.16-1.43-2.13-2.53-2.77-2.2-1.23-4.63-2.06-6.89-3.21-.71-.36-1.21-1.02-1.38-1.8.18-.77.7-1.43,1.41-1.78,2.26-1.14,4.67-1.99,6.89-3.2,1.06-.59,1.91-1.5,2.43-2.6,1.14-2.64,1.95-5.43,2.98-8.13.43-.78.95-1.51,1.54-2.18" fill="#fff"/>
      <path id="_패스_1245" data-name="패스 1245" d="m121.59,117.55c-.4-.41-.75-.87-1.04-1.37-.56-1.42-1.11-2.86-1.53-4.32-.27-1.11-1.11-2.01-2.2-2.35-1.22-.46-2.41-1-3.56-1.61-.4-.21-.89-.68-.91-1.05-.02-.35.52-.74.83-1.11.04-.04.09-.07.15-.08,4.28-.96,6.31-3.91,7.14-7.99.09-.45.66-.81,1.01-1.21.35.4.7.79,1.04,1.19.03.05.06.1.07.16.76,4.05,2.89,6.84,7.06,7.86.49.21.84.65.93,1.18-.13.52-.51.94-1.01,1.12-4.18,1.04-6.23,3.88-7.03,7.91-.24.6-.56,1.16-.94,1.68" fill="#fff"/>
      <path id="_패스_1246" data-name="패스 1246" d="m64.9,86.68c-3.34-.04-6.01-2.79-5.96-6.12,0-.02,0-.04,0-.06.04-3.35,2.78-6.04,6.14-6,3.35.04,6.04,2.78,6,6.14,0,.04,0,.08,0,.11-.02,3.3-2.72,5.96-6.02,5.94-.05,0-.1,0-.16,0" fill="#fff"/>
      <path id="_패스_1247" data-name="패스 1247" d="m186.56,203.58c0,2.86.13,5.34-.08,7.79-.25.88-.85,1.62-1.66,2.04-16.58,9.12-33.26,18.05-49.74,27.34-4.32,2.48-9.24,3.72-14.21,3.58-17.74-.22-35.49-.06-53.24-.13-1.6-.06-3.17-.43-4.61-1.11-3.02-1.36-5.97-2.9-8.86-4.52-.87-.53-1.56-1.31-2-2.22-.86-1.77-1.46-3.66-2.2-5.49-1.08-2.69-2.26-3.46-5.2-3.29-3.03.17-6.06.49-9.1.6-1.1.06-2.2-.15-3.21-.6-7.96-3.97-15.87-8.04-23.81-12.04-1.02-.33-1.66-1.33-1.54-2.39.11-2.37.03-4.76.03-7.44.9.4,1.53.66,2.14.96,6.92,3.51,13.81,7.1,20.79,10.49,1.53.65,3.18.93,4.84.82,3.11-.14,6.2-.47,9.27-.98,0,0,.64-.1,1.84-.17,1.77-.11,2.1.03,2.24.09.97.48,1.21,1.96,1.29,2.42.38,2.03.89,4.03,1.53,5.99.08.27.18.55.28.83.31.82.68,1.61,1.12,2.36l1.43,1.62c.76.56,1.66.9,2.6.99,2.39.47,5.43,1.01,8.97,1.51,3.2.45,6.84.86,11.19,1.18,5.07.37,10.8.43,22.05.53,16.03.14,21.04-.04,25.13-.05,1.36,0,2.71-.1,4.05-.31,1.81-.06,3.58-.51,5.2-1.33,17.08-9.23,34.09-18.58,51.13-27.89.67-.36,1.35-.68,2.34-1.18" fill="#fff"/>
      <path id="_패스_1248" data-name="패스 1248" d="m183.89,113.02c.09.25.19.5.28.76"/>
      <path id="_패스_1249" data-name="패스 1249" d="m186.26,181.05c-.06-1.14-.52-2.22-1.3-3.05-9.11-8.66-18.29-17.25-27.52-25.78-1.06-.87-2.31-1.5-3.64-1.83-7.54-3.55-15.12-5.69-36.97-8.61-3.73-.5-8.81-1.14-14.86-1.81.02,4.35.04,8.69.06,13.04l12.11,1.14c5.86.59,19.23,1.88,33.27,8.45,4.9,2.29,9.42,5.14,12.9,9.39,5.04,6.15,5.27,13.45.25,19.57-2.13,2.53-4.62,4.75-7.38,6.58-6.8,4.61-14.54,7.09-22.47,8.96-15.17,3.45-30.78,4.55-46.29,3.27-11.22-.82-22.27-2.7-32.86-6.67-6.46-2.42-12.61-5.41-17.38-10.58-6.54-7.1-6.4-15.54.25-22.51,3.55-3.56,7.76-6.4,12.4-8.34,3.95-1.49,7.3-2.56,9.74-3.28,1.1-.33,15.41-4.53,27.39-5.27.99-.06,7.42-.44,7.42-.44l-.06-13.25c-2.61.39-7.46,1.14-13.52,2.24-20.73,3.74-38.71,8.44-38.74,8.31.13-.06.26-.1.4-.12.02.05-2.57,1.03-2.81,1.24-9.53,8.83-19.02,17.71-28.46,26.63-.6.64-.95,1.47-.99,2.35-.08,6.14,0,12.29-.07,18.43-.12,1.13.54,2.19,1.6,2.58,7.57,3.78,15.13,7.59,22.62,11.52,1.74.92,3.73,1.24,5.67.91,3.84-.52,7.71-.91,11.57-1.29,2.13-.36,4.18.97,4.71,3.06.49,1.4.9,2.82,1.23,4.26.47,1.96.7,2.94.82,3.62.02.09.14.76.38,1.64.08.34.18.68.32,1.01.41.71,1.07,1.23,1.85,1.48,1.14.32,2.31.5,3.49.55h0s9.59,1.18,11.66,1.43c5.27.62,10.23.86,24.65.84,7.98-.01,17.8-.1,29.12-.37,1.32.05,2.64-.14,3.9-.56.6-.2,1.18-.46,1.74-.77,1.37-.75,50.55-26.91,52.78-29.33.33-.37.6-.79.81-1.24.21-.48.32-1,.32-1.52-.06-5.3.05-10.6-.08-15.89" fill="#fff"/>
      <path id="_패스_1250" data-name="패스 1250" d="m214.36,151.5c-2.37-.55-2.96-1.85-3.51-3.88-7.07-26.45-22.99-46.54-45.23-61.84-15.98-10.99-33.94-17.06-53.04-19.8-4.6-.66-9.27-.88-13.92-1.09-2.25-.19-4.23,1.48-4.42,3.73,0,.06,0,.11-.01.17-.03.45,0,.9.11,1.33v112.59l-11.61-.07c-14,1.6-27.74,3.9-40.56,12.08,3.5,1.83,6.38,3.58,9.44,4.89,10.56,4.52,21.72,6.48,33.09,7.34,17.17,1.29,34.13.21,50.68-4.87,5.51-1.51,10.71-4.01,15.33-7.37-5.58-5.5-28.56-12.28-39.8-11.9l-11.81-.08v-109.18l.36.06,5.52.39c4.03-.36,19.46,2.49,24.45,4.54l6.05,1.75c8.1,2.77,15.85,6.49,23.09,11.07,1.49.95,3.79,2.47,6.47,4.49,9.96,7.44,18.42,16.7,24.94,27.28,2.58,4.3,4.8,8.8,6.63,13.46-4.68-.89-9.51.51-12.99,3.77-2.97,2.84-4.8,6.67-5.14,10.77-.15,2.88.48,5.75,1.82,8.3,3.27,6.57,9.02,9.21,16.39,8.94v18.75c.22,12.2.33,18.42.33,18.42.24,1.01.53,2.01.87,2.99.53,1.31,1.37,2.48,2.45,3.39v-.09c.48.23.73.33.96.47,7.68,4.52,16.15,1.84,19.57-6.2v-47.46c-1.23-3.27-2.93-6.32-6.54-7.16m-19.84,8.32c-4.18-.08-7.5-3.52-7.42-7.7s3.52-7.5,7.7-7.42c4.18.08,7.5,3.52,7.42,7.7-.14,4.15-3.55,7.44-7.7,7.43m15.15,45.73c-2.09-.09-3.13-.11-3.64-.64-.99-1.03-.62-2.95-.51-3.58l-.07-34.91c.57-2.11,1.69-4.04,3.24-5.57.3-.26,1.91-1.68,2.87-1.19.69.35.76,1.52.76,1.99.05,6.98.03,13.96.03,20.94s-.06,13.54.04,20.31c.03,2.06-.72,2.73-2.73,2.65" fill="#fff"/>
      <rect id="_사각형_617" data-name="사각형 617" width="227" height="251" fill="none"/>
    </g>
  </g>
</svg>