<?xml version="1.0" encoding="UTF-8"?>
<svg id="_레이어_2" data-name="레이어 2" xmlns="http://www.w3.org/2000/svg" viewBox="0 0 63 51">
  <g id="Logo">
    <g id="symbol_02_02_0003_01" data-name="symbol 02 02 0003 01">
      <rect id="_사각형_260" data-name="사각형 260" width="63" height="51" fill="none"/>
      <path id="_패스_1072" data-name="패스 1072" d="M12.95,50.21c-2.46,.34-4.79-1.2-5.43-3.6-2.2-6.47-4.29-12.97-6.41-19.46-.82-2.52,.25-4.43,2.14-5.85C11.9,14.82,20.59,8.38,29.31,1.99c2.38-1.74,4.82-1.28,6.74,.79,8.33,8.94,16.68,17.87,24.82,26.99,1.98,2.01,1.96,5.25-.05,7.23-.61,.61-1.37,1.05-2.2,1.28-14.78,4.08-29.62,7.92-44.44,11.83-.41,.07-.82,.1-1.24,.1Z" fill="#fff"/>
    </g>
  </g>
</svg>