<?xml version="1.0" encoding="UTF-8"?>
<svg id="Layer_2" data-name="Layer 2" xmlns="http://www.w3.org/2000/svg" viewBox="0 0 126 126">
  <g id="Logo">
    <g id="symbol_14_02_0004_02" data-name="symbol 14 02 0004 02">
      <path id="_패스_809" data-name="패스 809" d="m65.25,7.69c-30.64,0-55.48,24.86-55.47,55.5,0,8.26,1.85,16.42,5.41,23.88l-9.04,28.09,28.03-6.04c25.38,17.15,59.86,10.48,77.01-14.9,17.15-25.38,10.48-59.86-14.9-77.01-9.17-6.2-19.99-9.51-31.06-9.51m9.2,33.72c2.16,0,3.91,1.75,3.91,3.91,0,2.16-1.75,3.91-3.91,3.91-2.16,0-3.91-1.75-3.91-3.91h0c0-2.16,1.75-3.91,3.91-3.91m-18.41,0c2.16,0,3.91,1.75,3.91,3.91,0,2.16-1.75,3.91-3.91,3.91-2.16,0-3.91-1.75-3.91-3.91h0c0-2.16,1.75-3.91,3.91-3.91h0m25.96,15.09c-4.07,9.22-14.85,13.4-24.08,9.33-4.25-1.88-7.62-5.3-9.44-9.58-.48-1.07,0-2.34,1.07-2.82,1.07-.48,2.34,0,2.82,1.07.01.03.02.06.04.08,3.02,7.11,11.23,10.44,18.34,7.42,3.28-1.39,5.9-3.97,7.34-7.23.48-1.08,1.74-1.57,2.81-1.09s1.57,1.74,1.09,2.81h0" fill="#fff"/>
      <rect id="_사각형_288" data-name="사각형 288" width="126" height="126" fill="none"/>
    </g>
  </g>
</svg>