<?xml version="1.0" encoding="UTF-8"?>
<svg id="_레이어_2" data-name="레이어 2" xmlns="http://www.w3.org/2000/svg" viewBox="0 0 104 117">
  <g id="Logo">
    <g id="symbol_08_04_0005_01" data-name="symbol 08 04 0005 01">
      <path id="_패스_1483" data-name="패스 1483" d="m57.82,58.98c2.01,2.28,3.46,4.46,6.65,4,1.11-.26,2.22.43,2.48,1.54.05.22.07.44.05.66.11,1.17-.75,2.2-1.92,2.31-.18.02-.36.01-.54-.02-1.28-.02-1.78.48-1.76,1.76.19,1.16-.59,2.25-1.74,2.45-.18.03-.36.04-.55.02-1.13.11-2.13-.71-2.25-1.83-.02-.23,0-.46.05-.69.54-3.24-1.83-4.58-3.98-6.78,0,2.84-.03,5.15.01,7.46.02,1.21,1.09,1.77,1.8,2.53,1.09,1.15,1.72,2.42.51,3.75-1.12,1.22-2.45.94-3.56-.14-.41-.59-1.22-.75-1.82-.34-.13.09-.25.2-.34.34-1.11,1.08-2.44,1.36-3.57.14-.89-.87-.91-2.31-.04-3.2.13-.13.28-.25.44-.35,1.77-1.41,2.15-3.17,1.98-5.27-.12-1.45-.02-2.92-.02-4.78-2.28,2.02-4.46,3.46-4,6.65.26,1.11-.43,2.22-1.54,2.48-.22.05-.44.07-.66.05-1.17.11-2.2-.75-2.31-1.92-.02-.18-.01-.37.02-.55.02-1.28-.48-1.78-1.76-1.76-1.16.19-2.25-.59-2.44-1.75-.03-.18-.04-.36-.02-.54-.11-1.13.72-2.14,1.86-2.25.22-.02.45,0,.67.05,3.19.47,4.64-1.72,6.64-3.98-2.69,0-5.01-.03-7.32.01-1.21.02-1.77,1.09-2.53,1.8-1.15,1.09-2.42,1.72-3.75.52-1.22-1.11-.94-2.45.14-3.56.6-.4.75-1.21.35-1.8-.09-.14-.21-.26-.35-.35-1.08-1.11-1.36-2.43-.15-3.56.87-.9,2.3-.92,3.2-.05.13.13.25.28.35.44,1.26,1.57,3.29,2.33,5.27,1.98,1.45-.12,2.93-.02,4.78-.02-2.01-2.28-3.45-4.46-6.64-4-1.11.26-2.22-.42-2.49-1.53-.05-.22-.07-.44-.05-.67-.12-1.17.74-2.2,1.9-2.32.19-.02.37-.01.56.02,1.27.02,1.79-.46,1.76-1.75-.2-1.16.58-2.25,1.74-2.45.18-.03.36-.04.54-.02,1.13-.11,2.14.71,2.25,1.84.02.23,0,.45-.04.68-.47,3.2,1.72,4.64,3.98,6.65,0-2.7.03-5.01-.01-7.32-.02-1.21-1.08-1.77-1.8-2.53-1.09-1.15-1.72-2.42-.52-3.74,1.11-1.23,2.45-.95,3.56.13.41.6,1.22.75,1.82.35.13-.09.25-.2.34-.33,1.1-1.08,2.43-1.37,3.56-.16.9.87.92,2.31.05,3.2-.13.13-.28.25-.43.35-1.57,1.26-2.33,3.28-1.99,5.27.12,1.45.02,2.93.02,4.78,2.28-2,4.46-3.45,4-6.64-.26-1.11.42-2.22,1.53-2.49.22-.05.44-.07.66-.05,1.17-.11,2.2.74,2.32,1.9.02.18.01.37-.02.55-.02,1.27.46,1.8,1.75,1.77,1.16-.2,2.25.58,2.45,1.73.03.18.04.37.02.55.12,1.13-.71,2.14-1.84,2.26-.23.02-.45,0-.68-.04-3.2-.47-4.64,1.73-6.66,3.98,2.7,0,5.01.03,7.32-.01,1.21-.02,1.78-1.08,2.53-1.8,1.15-1.09,2.42-1.73,3.74-.52,1.23,1.11.95,2.45-.13,3.56-.6.41-.75,1.23-.34,1.82.09.13.2.24.33.33,1.08,1.11,1.36,2.44.15,3.57-.87.9-2.31.92-3.2.04-.13-.13-.25-.28-.35-.44-1.27-1.57-3.29-2.33-5.27-1.98-1.45.12-2.92.02-4.78.02" fill="#fff"/>
      <path id="_패스_1484" data-name="패스 1484" d="m101.14,14.59c0-6.89-4.42-11.3-11.32-11.3-25.2-.01-50.4-.01-75.59,0C7.22,3.29,2.86,7.69,2.85,14.75c-.01,13.2-.01,26.4,0,39.61,0,13.35.02,26.69-.02,40.03,0,2.02.32,3.93,1.89,5.21,1.26.96,1.89,2.52,1.65,4.08-.08.99-.02,1.99-.01,2.98.04,4.45,1.59,5.99,6.06,5.99,20.23,0,40.46,0,60.69,0,6.18,0,12.35.01,18.52,0,3.75,0,5.23-1.52,5.25-5.33,0-1.49.03-2.98,0-4.47-.12-.86.29-1.71,1.04-2.14,2.43-1.46,3.26-3.69,3.25-6.48-.04-26.55-.05-53.09-.03-79.64M9.08,10.06c1.28-1.48,3.17-2.28,5.12-2.17,3.29-.04,6.59-.04,9.88-.04h0s6.43,0,6.43,0c.15-.01.3-.01.45,0h13.78v.02c.6,0,1.2,0,1.8,0h42.54c2.27,0,4.38.45,5.92,2.31.3.37.74.76.43,1.31-.25.43-.75.32-1.16.32-3.69.01-7.37.01-11.06,0-12.82,0-25.64,0-38.46-.03v.03h-20.67c-2.06,0-4.12-.01-6.18-.01-2.69,0-5.39,0-8.08,0-.47,0-1.1.15-1.3-.43-.18-.52.26-.92.57-1.3m83.27,93.8c-.14,4.89.5,4.22-4.17,4.23-11.42.03-22.85,0-34.27,0v-.02c-11.28,0-22.56,0-33.85-.01-2.34,0-4.68-.19-7.01-.21-1.39,0-1.92-.63-1.84-1.96.04-.71-.02-1.42.01-2.13.04-.95-.27-2.16,1.3-2.16,1.21,0,2.62-.46,2.88,1.54.13,1.05,1.03,1.82,2.09,1.79,1.04.13,2.01-.53,2.28-1.55.12-1.15,1.15-1.98,2.3-1.86.01,0,.03,0,.04,0,1.38.02,1.58.79,1.87,1.81.22.93,1.06,1.59,2.02,1.58,1.04.12,2.01-.53,2.28-1.55.12-1.15,1.15-1.98,2.3-1.86.01,0,.03,0,.04,0,1.38.02,1.59.79,1.87,1.81.22.94,1.06,1.61,2.03,1.59,1.04.12,2.01-.53,2.28-1.54.36-1.25.9-1.88,2.34-1.86,1.37.02,1.59.78,1.87,1.8.21.94,1.06,1.61,2.03,1.6,1.04.13,2.01-.53,2.28-1.54.36-1.25.89-1.88,2.34-1.86,1.37.02,1.59.78,1.87,1.8.21.94,1.06,1.61,2.02,1.6,1.04.13,2.01-.53,2.28-1.54.36-1.24.89-1.89,2.34-1.86,1.37.02,1.6.77,1.87,1.8.21.94,1.05,1.61,2.02,1.6,1.04.13,2.01-.53,2.29-1.54.36-1.24.88-1.89,2.34-1.86,1.37.02,1.6.77,1.88,1.8.21.94,1.05,1.61,2.02,1.6,1.04.13,2.02-.52,2.29-1.54.36-1.24.88-1.9,2.34-1.87,1.36.03,1.6.76,1.88,1.8.21.94,1.05,1.61,2.02,1.61,1.04.13,2.02-.53,2.29-1.54.36-1.24.88-1.9,2.34-1.87,1.36.03,1.6.76,1.88,1.79.23,1.02,1.18,1.71,2.23,1.61,1.04.02,1.95-.71,2.16-1.73.12-1.02,1.02-1.76,2.04-1.67,1.77-.07,2.36.54,2.31,2.31m4.23-10.58c0,3.12-.62,3.74-3.73,3.74-27.26,0-54.53,0-81.79,0-.78.09-1.57,0-2.3-.29-.89-.42-1.42-1.36-1.32-2.35h-.07v-12.35h.02c.07-13.78.03-27.56.03-41.34,0-7.31.06-14.63-.04-21.94-.03-1.9.6-2.4,2.44-2.39,14.06.07,28.11.04,42.17.04s27.97.04,41.96-.04c2.01-.01,2.68.5,2.67,2.6-.07,24.78-.04,49.55-.05,74.33" fill="#fff"/>
      <rect id="_사각형_525" data-name="사각형 525" width="104" height="117" fill="none"/>
    </g>
  </g>
</svg>