<?xml version="1.0" encoding="UTF-8"?>
<svg id="Layer_2" data-name="Layer 2" xmlns="http://www.w3.org/2000/svg" viewBox="0 0 358 194">
  <g id="Logo">
    <g id="symbol_11_01_0005_01" data-name="symbol 11 01 0005 01">
      <path id="_패스_926" data-name="패스 926" d="m333.1,11.52h-89.76l-1.54-2.67c-2.68-4.64-8.62-6.24-13.26-3.56-1.48.85-2.7,2.08-3.56,3.56l-1.54,2.67h-117.97l-1.54-2.67c-2.68-4.64-8.62-6.24-13.27-3.55-1.48.85-2.7,2.08-3.55,3.55l-1.54,2.67h-30.12c-5.82,0-10.53,4.71-10.53,10.53h0v12.99h-19.28c-5.82,0-10.53,4.72-10.53,10.53h0v133.22c0,5.82,4.71,10.53,10.53,10.53h277.65c5.82,0,10.53-4.71,10.53-10.53h0v-13h19.29c5.82,0,10.53-4.72,10.53-10.53V22.06c0-5.82-4.71-10.53-10.53-10.53h0m-112.5,4.92l-10.31,17.85c-.14.25-.25.5-.37.75h-90.93c-.12-.25-.23-.5-.37-.75l-10.3-17.85h112.28Zm-104.05,88.34c3.74,0,6.77,3.77,6.77,8.41s-3.03,8.41-6.77,8.41-6.77-3.76-6.77-8.41,3.03-8.41,6.77-8.41m20.69,21.68c0-11.25,12.18-20.38,27.21-20.38s27.21,9.12,27.21,20.38-12.18,20.38-27.21,20.38-27.21-9.12-27.21-20.38m75.12-21.68c3.74,0,6.77,3.77,6.77,8.41s-3.03,8.41-6.77,8.41-6.77-3.76-6.77-8.41,3.03-8.41,6.77-8.41M49.84,22.06c0-3.1,2.51-5.6,5.61-5.61h27.28l-10.31,17.85c-.14.25-.25.5-.37.75h-22.22v-13Zm288.86,133.22c0,3.1-2.51,5.6-5.61,5.61h-19.29V45.58c0-5.82-4.72-10.53-10.53-10.53h-46.42c-.12-.25-.23-.5-.37-.75l-10.3-17.85h86.91c3.1,0,5.6,2.51,5.61,5.61v133.22Z" fill="#fff"/>
      <path id="_패스_927" data-name="패스 927" d="m186.75,126.47c0-8.38-10.21-15.46-22.29-15.46s-22.29,7.08-22.29,15.46,10.21,15.45,22.29,15.45,22.29-7.08,22.29-15.46m-8.86-4.25c1.84,0,3.33,1.9,3.33,4.25s-1.49,4.25-3.33,4.25-3.33-1.9-3.33-4.25,1.49-4.25,3.33-4.25m-26.86,8.5c-1.84,0-3.33-1.9-3.33-4.25s1.49-4.25,3.33-4.25,3.33,1.9,3.33,4.25-1.49,4.25-3.33,4.25" fill="#fff"/>
      <rect id="_사각형_318" data-name="사각형 318" width="358" height="194" fill="none"/>
    </g>
  </g>
</svg>