<?xml version="1.0" encoding="UTF-8"?>
<svg id="Layer_2" data-name="Layer 2" xmlns="http://www.w3.org/2000/svg" viewBox="0 0 148 148">
  <g id="Logo">
    <g id="symbol_16_04_0001_01" data-name="symbol 16 04 0001 01">
      <path id="_패스_377" data-name="패스 377" d="m100.57,16.91c-26.6-12.33-58.17-4.93-76.52,17.94,11.09,11.45,28.94,22.18,54.2,14.87,0,0-7.16,34.83,13.25,56.85,0,0-28.27-13.3-28.77-43.57,0,0-27.87,2.57-43.44-21.4-12.56,20.65-12.37,46.62.5,67.07,2.86-29.14,39.03-40.35,39.03-40.35-.05,12.94,6.62,20.63,6.62,20.63,0,0-25.68,5.7-27.96,23.85-1.15,9.16,2.48,14.92,6.88,18.51,4.85,2.53,10.02,4.42,15.36,5.62,2.04.07,4.09-.07,6.1-.43,18.71-3.33,26.9-21.07,26.9-21.07-.07,8.58-3.76,16.73-10.15,22.45,12.79-1.78,24.73-7.41,34.24-16.15-28.8-33.31-22.26-80.68-16.24-104.83m-31.7,30.87c-7.7,1.05-14.79-4.33-15.85-12.03-1.05-7.7,4.33-14.79,12.03-15.85,7.7-1.05,14.79,4.33,15.85,12.03,1.05,7.7-4.33,14.79-12.03,15.85,0,0,0,0,0,0" fill="#fff"/>
      <path id="_패스_378" data-name="패스 378" d="m122.4,115.93c21.56-25.44,19.85-63.21-3.92-86.59-13.66,37.89-6.04,67.41,3.92,86.59" fill="#fff"/>
      <rect id="_사각형_134" data-name="사각형 134" width="148" height="148" fill="none"/>
    </g>
  </g>
</svg>