<?xml version="1.0" encoding="UTF-8"?>
<svg id="Layer_2" data-name="Layer 2" xmlns="http://www.w3.org/2000/svg" viewBox="0 0 222 114">
  <g id="Logo">
    <g id="symbol_03_20_0002_02" data-name="symbol 03 20 0002 02">
      <path id="_합치기_6" data-name="합치기 6" d="m202.34,104.47l12.91-20.06v21.92l-12.91-1.86Zm-19.69-2.83l32.6-50.66v18.63l-21.63,33.61-10.97-1.58Zm-19.69-2.83l52.29-81.26v18.63l-41.31,64.2-10.98-1.58Zm-19.69-2.83L200.52,7h11.99l-58.27,90.55-10.98-1.58Zm-19.69-2.83L179,7h11.99l-56.44,87.71-10.98-1.58Zm-8.76-1.26l.03-1.39-5.02-.09-.83-5.8-.64-1.21,1.3-2.02L157.48,7.01h11.99l-52.21,81.13-2.41,3.75h-.04Zm-7.17-40.86l28.33-44.03h11.99l-39.62,61.57-.7-17.54ZM9.53,26.09l48.12-8.33h7.37l.25,29.78-8.37.48-49.54,5.61,2.17-27.54Zm96.86-6.54l8.08-12.55h11.99l-19.36,30.09-.7-17.54Z" fill="#fff"/>
      <rect id="_사각형_173" data-name="사각형 173" width="222" height="114" fill="none"/>
    </g>
  </g>
</svg>