<?xml version="1.0" encoding="UTF-8"?>
<svg id="Layer_2" data-name="Layer 2" xmlns="http://www.w3.org/2000/svg" viewBox="0 0 100 100">
  <g id="Logo">
    <g id="symbol_02_02_0004_02" data-name="symbol 02 02 0004 02">
      <path id="_패스_1314" data-name="패스 1314" d="m93.19,30.27c-1.8-2.51-3.45-5.15-5.39-7.55-3.8-4.67-8.41-8.61-13.63-11.63h0c-.75.84-1.45,1.7-2.24,2.48-5.93,5.77-11.86,11.56-17.77,17.36-.25.24-.53.74-.43,1,.61,1.71,1.32,3.39,2.04,5.17l1.35-1.23,4.24,4.19c-.27.19-.54.4-.79.63-7.89,7.89-15.77,15.77-23.66,23.66-4.88,4.85-9.74,9.72-14.58,14.61-.37.5-1.07.64-1.59.3-1.15-.55-2.34-.98-3.5-1.51-.37-.23-.84-.13-1.1.21-.41.4-.85.78-1.31,1.14l10.79,10.78c.29-.43.63-.83,1-1.19h.01c.46-.34.57-.98.24-1.44-.5-1.06-.86-2.19-1.4-3.22-.38-.58-.22-1.36.36-1.75,12.74-12.72,25.47-25.44,38.2-38.17.25-.25.51-.49.7-.67l4.13,4.12-1.28,1.37c1.71.69,3.32,1.31,4.9,1.99.43.25.97.14,1.28-.25,6.42-6.41,12.84-12.8,19.29-19.17.43-.43.5-.73.14-1.23" fill="#fff"/>
      <path id="_패스_1315" data-name="패스 1315" d="m22.51,25.17c-6.69,5.76-11.88,13.05-15.11,21.26l31.02-31.03c-1.62-.31-10.28,4.8-15.91,9.77" fill="#fff"/>
      <rect id="_사각형_414" data-name="사각형 414" width="100" height="100" fill="none"/>
    </g>
  </g>
</svg>