<?xml version="1.0" encoding="UTF-8"?>
<svg id="_레이어_2" data-name="레이어 2" xmlns="http://www.w3.org/2000/svg" viewBox="0 0 86 84">
  <g id="Logo">
    <g id="symbol_17_03_0003_01-2" data-name="symbol 17 03 0003 01-2">
      <path id="_패스_1188" data-name="패스 1188" d="m61.54,35.55h-13.87v-11.71c-.57-4.45-2.29-8.67-5-12.24-1.08-1.41-7.51-9.78-18.29-9.67-.52,0-10.01.24-15.65,7.04-4.59,5.52-6.21,14.88-6.21,14.88l.35,11.71.68,23.18s.51,5.32.79,11.17c.14,2.94.22,5.86,2.24,8.27.15.18.28.32.31.35,2.84,3.01,7.33,3.16,7.33,3.16,14.46.22,21.78.18,33.46.05l4.41-.05c5.59-.06,7.29-.11,8.58-.33.06-.01.35-.07.92-.2l2.9-.61c1.04-.23,17.2-5.92,18.38-20.67.97-12.11-8.81-22.46-17.76-24.1-1.17-.21-2.36-.29-3.55-.22" fill="#fff"/>
      <rect id="_사각형_548" data-name="사각형 548" width="86" height="84" fill="none"/>
    </g>
  </g>
</svg>