<?xml version="1.0" encoding="UTF-8"?>
<svg id="_레이어_2" data-name="레이어 2" xmlns="http://www.w3.org/2000/svg" viewBox="0 0 167 170">
  <g id="Logo">
    <g id="symbol_04_01_0005_02" data-name="symbol 04 01 0005 02">
      <rect id="_사각형_393" data-name="사각형 393" width="167" height="170" fill="none"/>
      <path id="_패스_1208" data-name="패스 1208" d="m158.54,141.53c-2.1-6.55-4.63-12.97-7.02-19.43-2.92-7.89-5.91-15.74-8.83-23.63-2.83-7.66-5.57-15.35-8.4-23.01-2.89-7.84-5.81-15.68-8.8-23.48-.86-2.25-1.08-4.7-.62-7.07.49-2.84.85-5.71,1.2-8.57.44-3.55.79-7.11,1.25-10.65.56-3.33.94-6.69,1.14-10.07,1.66.19,3.3-.46,4.37-1.74,1.51-1.89,1.2-4.64-.69-6.14-.54-.43-1.17-.73-1.84-.87-.43-.1-.88-.16-1.32-.15-15.17,0-30.33,0-45.49.02-15.16-.01-30.33-.02-45.49-.02-.44,0-.89.05-1.32.15-2.36.49-3.88,2.8-3.39,5.17.14.67.44,1.3.87,1.84,1.07,1.28,2.71,1.94,4.37,1.74.19,3.38.57,6.74,1.14,10.07.46,3.55.81,7.1,1.25,10.65.36,2.86.71,5.73,1.2,8.57.46,2.37.24,4.82-.62,7.07-3,7.8-5.91,15.64-8.8,23.48-2.83,7.66-5.57,15.35-8.4,23.01-2.91,7.89-5.91,15.74-8.83,23.63-2.39,6.46-4.92,12.87-7.02,19.43-2.1,6.57-.47,13.05,7.25,16.41.86.38,1.87.23,2.63.87h130.34c.75-.64,1.77-.5,2.63-.87,7.73-3.36,9.35-9.84,7.25-16.41m-41.99-41.33c-.18,4.12-1.1,8.18-2.71,11.98-2.73,6.59-7.53,12.11-13.67,15.74-1.95,1.42-4.68.98-6.1-.97-.14-.19-.26-.38-.36-.59-.6-.96-1.15-1.95-1.7-2.94-1.54-2.75-3.25-5.4-4.8-8.15-1.01-1.78-1.77-3.76-3.3-5.24.03.24-.13.45-.37.48-.24.03-.45-.13-.48-.37,0-.04,0-.08,0-.12-1.52,1.47-2.29,3.45-3.3,5.24-1.55,2.75-3.26,5.4-4.8,8.15-.55.99-1.1,1.98-1.7,2.94-1.09,2.15-3.72,3.01-5.87,1.92-.21-.1-.4-.23-.59-.36-6.14-3.63-10.94-9.15-13.67-15.74-1.62-3.8-2.53-7.86-2.71-11.98-.15-3.22,1.85-5.19,5.08-5.21,5.39-.03,10.78-.01,16.18-.01.89,0,1.78-.05,2.67.01,1.25.08,1.48-.23.81-1.37-3.23-5.5-6.37-11.04-9.6-16.54-.51-.9-.73-1.94-.62-2.97.09-1.47.97-2.78,2.29-3.42,2.55-1.37,5.24-2.46,8.03-3.25,1.66-.46,3.25-1.05,5.02-.75.4.05.8-.07,1.1-.33.66-.68,1.32-.43,2.02-.19-.03-.04-.02-.11.02-.14s.11-.02.14.02c.03.04.03.08,0,.12.7-.24,1.36-.5,2.02.19.3.26.7.38,1.1.33,1.77-.3,3.35.29,5.02.75,2.79.79,5.48,1.88,8.03,3.25,1.32.65,2.2,1.95,2.29,3.42.11,1.03-.11,2.07-.62,2.97-3.22,5.5-6.37,11.05-9.59,16.54-.67,1.14-.44,1.45.81,1.37.89-.06,1.78-.01,2.67-.01,5.39,0,10.78-.02,16.18.01,3.23.02,5.23,1.99,5.08,5.21" fill="#fff"/>
    </g>
  </g>
</svg>