<?xml version="1.0" encoding="UTF-8"?>
<svg id="_레이어_2" data-name="레이어 2" xmlns="http://www.w3.org/2000/svg" viewBox="0 0 215 236">
  <g id="Logo">
    <g id="symbol_21_02_0008_01" data-name="symbol 21 02 0008 01">
      <path id="_패스_1355" data-name="패스 1355" d="m192.15,148.29c6.13-6.01,10.51-13.56,12.7-21.86h-9.29c-1.87,5.97-5.1,11.42-9.44,15.91-1.28,1.36-1.97,1.44-3.41.15-6.01-5.36-12.02-10.72-18.05-16.07h-13.05c10.08,9.1,20.16,18.2,30.24,27.3,2.87,2.59,2.84,4.17-.08,6.78-1.46,1.31-2.92,2.62-4.42,3.91-2.47,2.12-4.4,2.13-6.88-.02-7.89-6.85-15.76-13.71-23.62-20.58-.67-.58-1.31-1.18-2.01-1.72-1.84-1.56-4.55-1.55-6.37.04-1.52,1.3-1.7,3.59-.41,5.11.17.2.36.38.57.54,3.52,3.17,7.13,6.27,10.7,9.39,4.96,4.32,9.94,8.63,14.87,12.98,2.33,2.06,2.3,3.84,0,5.95-1.6,1.46-3.22,2.9-4.87,4.32-2.54,2.19-4.48,2.19-7.02-.06-8.07-7.14-16.13-14.29-24.18-21.45-.9-.97-2.08-1.64-3.38-1.9-2.21-.3-4.23.48-5.1,2.09-.97,1.57-.58,3.62.9,4.73,3.32,2.99,6.65,5.96,10,8.92,5.07,4.49,10.16,8.96,15.2,13.48,2.27,2.03,2.27,3.77.05,5.8-2.3,2.1-4.62,4.17-7,6.2-1.92,1.63-3,1.55-4.84-.15-2.04-1.88-4.08-3.75-6.18-5.57-1.9-1.69-4.29-2.73-6.82-3-1.11.06-2.07-.75-2.2-1.85-.61-2.45-1.99-4.63-3.95-6.22-1.9-1.64-3.77-3.31-5.63-4.99-1.79-1.68-4.03-2.8-6.45-3.22-1.08-.18-1.74-.52-1.93-1.65-.5-2.54-1.89-4.82-3.92-6.42-1.85-1.59-3.67-3.22-5.47-4.86-1.98-1.8-4.48-2.93-7.14-3.24-1.16-.15-1.8-.49-2.02-1.55-.72-2.91-2.43-5.47-4.84-7.25-1.62-1.34-3.14-2.79-4.72-4.18-5.24-4.72-13.18-4.76-18.46-.11-3.55,3.06-7.02,6.18-10.5,9.3-.76.68-1.32,1.03-2.26.15-4.45-4.15-9.35-7.9-13.49-12.3-4.02-4.19-7.09-9.19-9-14.67h-9.45c1.94,6.68,5.34,12.84,9.98,18.04,4.87,5.62,10.96,10.22,16.49,15.28,1.01.74,1.56,1.94,1.47,3.18-.29,2.2.28,4.42,1.61,6.2,2.86,3.7,6.66,6.63,10.39,9.6,1.08.82,2.37,1.31,3.72,1.4,1.73-.09,3.24,1.18,3.43,2.91.53,1.86,1.63,3.5,3.15,4.7,1.83,1.61,3.67,3.22,5.47,4.86,1.96,1.9,4.44,3.18,7.13,3.69.96.04,1.74.8,1.81,1.76.52,2.46,1.88,4.67,3.84,6.25,1.9,1.64,3.81,3.27,5.61,5.01,1.95,1.93,4.49,3.15,7.21,3.48,1.22.15,1.72.61,1.94,1.63.63,2.44,2.05,4.61,4.03,6.17,1.74,1.52,3.45,3.05,5.18,4.57,5.9,5.17,13.3,5.16,19.23-.04,4.13-3.62,8.21-7.29,12.33-10.91,1.66-1.33,2.88-3.13,3.51-5.15.24-1,1.07-1.76,2.09-1.91,2.3-.58,4.42-1.74,6.15-3.36,2.19-2.01,4.44-3.98,6.69-5.94,2.03-1.61,3.48-3.83,4.14-6.33.23-1,.77-1.47,1.98-1.62,2.73-.32,5.27-1.54,7.22-3.46,1.65-1.59,3.39-3.11,5.16-4.6,2.14-1.58,3.65-3.87,4.26-6.46.18-.97.72-1.39,1.78-1.58,2.36-.37,4.57-1.4,6.37-2.98,2.22-1.99,4.46-3.95,6.67-5.95,4.31-3.9,5.16-8.86,2.16-13.62-.79-1.25-.57-1.94.42-2.95m-132.42,22.77c-.78.6-1.71.97-2.69,1.08-1.14-.06-2.22-.49-3.09-1.23-1.93-1.7-3.89-3.38-5.75-5.14-1.81-1.72-1.82-3.52.07-5.24,4.15-3.77,8.35-7.5,12.61-11.18,1.63-1.63,4.28-1.62,5.91.01,0,0,0,0,0,0,1.98,1.65,3.9,3.36,5.76,5.13,1.76,1.68,1.85,3.47.07,5.1-4.23,3.88-8.57,7.66-12.89,11.47m18.4,16.13c-.85.75-1.9,1.21-3.02,1.33-1.13-.04-2.22-.48-3.06-1.24-1.96-1.68-3.93-3.34-5.78-5.11-1.82-1.74-1.81-3.5.09-5.24,4.15-3.78,8.35-7.5,12.61-11.18,1.99-1.72,3.84-1.65,5.86.05,1.87,1.57,3.7,3.17,5.5,4.82,2.16,1.97,2.22,3.73.1,5.65-4.05,3.68-8.19,7.29-12.29,10.92m18.09,15.99c-2.13,1.84-4.12,1.83-6.23.05-1.92-1.62-3.81-3.28-5.62-4.99-1.84-1.73-1.89-3.55-.02-5.24,4.15-3.78,8.36-7.51,12.62-11.19,2.08-1.79,3.91-1.72,6.04.07,1.88,1.57,3.67,3.22,5.49,4.84.86.71,1.41,1.74,1.53,2.85-.16,1.05-.68,2.01-1.48,2.71-4.11,3.64-8.18,7.31-12.33,10.91m30.85,5.45c-4.16,3.68-8.28,7.4-12.48,11.04-2,1.74-4.03,1.7-6.08,0-1.93-1.62-3.81-3.28-5.62-4.99-1.96-1.85-1.92-3.57.07-5.35,4.08-3.66,8.17-7.3,12.29-10.93,2.17-1.91,4.19-1.9,6.38-.01,1.85,1.59,3.63,3.25,5.46,4.86.8.68,1.31,1.63,1.44,2.67-.13,1.06-.65,2.03-1.46,2.73" fill="#fff"/>
      <path id="_패스_1356" data-name="패스 1356" d="m159.01,119.59c.35-2.4.06-4.85-.83-7.1-1.56-3.31-.88-6.18-.51-9.3.38-3.17.44-6.24-2.64-8.3-1.38-.92-1.04-1.71.39-2.35,1-.57,2.26-.32,2.96.59.99,1.09,1.93.81,2.82-.15,1.45-1.58,2.88-3.17,4.33-4.75,5.3-5.78,5.26-12.18,1.24-18.24-1.65-2.48-4.37-2.68-6.84-1.12-2.36,1.49-2.36,3.81-2.9,6.08-.34,1.44.46,3.83-1.47,4.1-1.8.26-1.64-2.14-2.22-3.42-.56-1.24-1.13-1.5-2.3-.74-3.61,2.36-3.63,2.32-6.92-.52-.56-.49-1.18-.9-1.74-1.39-1.26-1.11-2.37-.84-3.69.06-3.23,2.19-5.62,4.47-4.47,9.15.77,3.13-2.43,6.32-5.65,6.39-2.93.05-5.83,2.1-6.28,4.97-.28,1.78-1.36,1.92-2.46,1.99-1.19.05-2.38-.12-3.51-.5-2.31-.74-3.97-.09-5.53,1.83-2.08,2.55-4.27,3.13-6.6.9-3.52-3.37-6.46-2.03-9.78-.11-1.8,1.16-3.37,2.64-4.64,4.37-1.65,2.01-3.32,3.43-6.07,2.27-1.17-.37-2.45-.1-3.38.71-1.48,1.01-2.27.34-3.03-1.05-.7-1.45-1.08-3.03-1.11-4.64-.18-2.16-1.08-4.2-2.55-5.8-1.39-1.63-2.75-3.29-4.16-4.9-2.47-2.83-2.46-5.88.09-8.74,3.28-3.69,3-5.99-1.28-8.35-2.07-.92-3.44-2.94-3.54-5.2-.09-2.46-.51-4.9-1.25-7.24-1.03-2.96-.86-6.21.46-9.05.5-1.32,1.15-2.57,1.95-3.73.45-.52.5-1.28.11-1.85-.34-.57-1.07-.76-1.64-.42-.02.01-.04.03-.06.04-1.76.97-2.21.13-2.4-1.57-.31-2.88-1.26-3.43-3.71-1.94-1.31.8-2.22.57-2.65-.64-1.18-3.32-3.44-3.77-6.37-2.99-.66.18-1.54.34-1.9-.6-.28-.73.31-1.21.65-1.76,1.92-3.1,4.89-3.76,8.12-3.64,5.49.2,11.03.25,14.7,5.64,1.1,1.77,3.07,2.81,5.15,2.71,2.12-.08,3.53.91,4.72,2.76.92,1.44,1.63,3.74,3.45,3.75,2.21,0,3.3,1.34,4.63,2.57,1.81,1.46,3.48,3.09,4.98,4.87,3.21,4.45,7.19,4.52,11.67,2.8.77-.3,1.52-.65,2.24-1.05.67-.38,1.35-.75,2.04-.19,1.71,1.4,3.77,1.51,5.76,1.43,5.11-.19,9.41,1.06,12.45,5.79.91,1.42,1.77,2.53,1.36,4.29-.21.92-.34,1.86-.39,2.81-.18,3.01,2.7,3.24,4.19,4.7,1.18,1.16,2.19-.09,2.99-.98,2.59-2.9,5.61-4.31,9.52-3.49,2.56.54,4.83-.38,6.91-2,1.1-.86,2.12-1.81,3.91-.75,1.36.8,2.45-.62,3.09-1.99,1.51-3.22,4.44-4.69,7.45-5.42,2-.57,4.15,0,5.61,1.48,1.26,1.45,2.99,2.43,4.89,2.76,3.47.59,6.84,1.13,9.64,3.58.51.61,1.43.68,2.03.17.14-.12.26-.26.34-.43.76-1.14-.15-1.7-.83-2.31-2.37-2.15-5.24-2.93-8.29-3.32-1.1-.14-2.77-.21-2.42-1.95.29-1.45,1.6-1.78,3.09-1.52,3.59.63,6.96,1.58,9.36,4.72,1.45,1.9,3.21,2.72,5.5,1.4.81-.53,1.88-.41,2.54.29,1.54,1.47,3.22,2.76,3.87,5.02.57,1.66,1.22,3.29,1.96,4.88l.66-.26c-.32-1.82.2-3.98-1.16-5.37-2.51-2.56-3.43-5.99-5.25-8.91-2.3-3.72-3.35-8.56-8.7-9.6-2.12-.41-4.14-1.38-6.38-1.2-.6.05-1.3.57-1.71-.25-.35-.69-.29-1.52.16-2.16.41-.63.81-1.26,1.26-1.86.64-.85,1.01-2.3,2.41-1.83,1.27.43,1.38,1.59,1.04,2.83-.23.68.14,1.42.82,1.65.07.02.14.04.22.05.72.26,1.52.08,2.05-.47.7-.8-.06-1.37-.49-1.94-7.46-10.01-16.73-18.53-27.33-25.12C134.91,3.15,106.4-.29,76.69,9.53c-20.54,6.79-37.27,19.47-50.06,37.46C11.21,68.67,4.96,92.97,7.21,119.59h151.8Z" fill="#fff"/>
      <path id="_패스_1357" data-name="패스 1357" d="m208.94,99.82c-.54-5.02-1.52-9.98-2.94-14.83h-.02c-2,.49-3.64-.97-4.53-1.27-3.24-1.08-9.81,8.63-8.84,9.59.72.71,4.72-4.22,6.89-2.94,2.02,1.19.45,6.57.3,12.53.01.86-.19,1.72-.6,2.48-.47.82-.85.82-1.16,1.43-.79,1.53.79,3.02.26,3.98-.73,1.36-5.43,1.36-7.64-1.24-1.83-2.15-.34-4.28-1.65-6.96-2.46-5.05-11.88-7.42-14.68-4.18-2.49,2.89.04,10.51,2.68,11.05.99.2,1.66-.66,2.71-.22,1.32.56,2.27,2.77,1.8,4.49-.88,3.22-6.74,4.8-6.74,4.8l32.05.46c1.39-4.36,2.19-8.89,2.4-13.46.03-1.91-.07-3.83-.3-5.73" fill="#fff"/>
      <rect id="_사각형_703" data-name="사각형 703" width="215" height="236" fill="none"/>
    </g>
  </g>
</svg>