<?xml version="1.0" encoding="UTF-8"?>
<svg id="_레이어_2" data-name="레이어 2" xmlns="http://www.w3.org/2000/svg" viewBox="0 0 185 196">
  <g id="Logo">
    <g id="symbol_21_02_0009_02" data-name="symbol 21 02 0009 02">
      <path id="_패스_1371" data-name="패스 1371" d="m6.21,85.25c.97-.42,1.4.75,1.9,1.38.96,1.2,1.72,2.64,3.46,2.87,2.86.36,4.68,2.11,6.16,4.42.61.95,1.19,2.13,2.53,2.19,3.44.16,4.81,2.26,4.84,5.33.03,3.26,1.82,4.72,4.62,5.76,4.1,1.52,8.39,2.88,10.14,7.66.61,1.67,1.99,1.5,3.22.57,1.34-1.05,3.03-1.56,4.72-1.44,1.86.05,3.49-1.23,3.9-3.04.35-1.19,1.09-2.22,2.12-2.92,1.42-.94,2.7-2.07,3.81-3.35.99-1.36,2.75-1.91,4.34-1.37,2.54.69,5.13,1.16,7.7,1.74,2.63.59,5.51,4.22,5.8,6.93.14,1.32.13,2.99,2.57,2.5,1.41-.29,2.45.76,1.87,2.54-.84,2.58-1.56,5.19-2.46,7.74-.51,1.2-.33,2.58.47,3.6.88-.04,1.77-.09,2.66-.15,15.31-.98,30.38-4.24,44.73-9.69-.05-.08-.08-.17-.11-.26,1.1-.57,2.49-.88,2.63-2.62.29-3.28,1.09-6.49,2.38-9.53,1.02-2.28,1.31-4.82.82-7.26-.82-2.89.16-5.11.91-7.57.77-2.5,1.26-4.96-1.01-7.07-1.02-.95-.62-1.53.66-1.83.91-.31,1.91.08,2.38.92.67,1.02,1.49.94,2.37.29,1.43-1.06,2.85-2.13,4.29-3.18,5.24-3.87,6.12-9.03,3.64-14.5-1.02-2.24-3.25-2.8-5.53-1.91-2.18.85-2.51,2.72-3.28,4.46-.49,1.11-.16,3.15-1.81,3.08-1.54-.06-1.06-1.96-1.36-3.08-.29-1.08-.72-1.38-1.81-.93-3.34,1.36-3.35,1.33-5.68-1.44-.4-.47-.85-.9-1.25-1.37-.89-1.08-1.85-1.03-3.08-.5-3,1.29-5.32,2.77-5.03,6.71.19,2.63-2.93,4.73-5.61,4.31-2.45-.39-5.15.83-5.94,3.07-.49,1.4-1.4,1.35-2.33,1.24-1-.14-1.96-.45-2.85-.92-1.58-.93-3.59-.66-4.86.65-2.09,1.75-4,1.89-5.62-.26-2.45-3.23-5.08-2.59-8.12-1.53-1.65.67-3.17,1.62-4.48,2.83-1.66,1.37-3.25,2.27-5.37.93-.92-.47-2.02-.44-2.91.07-1.38.59-1.94-.07-2.37-1.29-.38-1.26-.46-2.6-.26-3.9.15-1.78-.3-3.56-1.29-5.05-.92-1.52-1.82-3.06-2.76-4.56-1.65-2.65-1.2-5.1,1.33-7.03,3.26-2.49,3.35-4.38.13-6.92-1.58-1.02-2.43-2.85-2.2-4.71.28-2,.28-4.02,0-6.02-.43-2.53.17-5.14,1.68-7.22.61-.99,1.33-1.9,2.16-2.71.45-.35.6-.96.36-1.47-.22-.53-.82-.78-1.35-.57,0,0,0,0-.01,0-1.6.52-1.86-.22-1.77-1.62.15-2.37-.55-2.95-2.81-2.11-1.21.45-1.93.13-2.12-.91-.51-2.85-2.32-3.54-4.87-3.35-.57.04-1.33.05-1.49-.76-.13-.63.43-.92.79-1.32,2.04-2.21,4.61-2.3,7.28-1.73,4.54.97,9.14,1.83,11.42,6.71.68,1.61,2.17,2.73,3.9,2.95,1.64.22,3.01,1.35,3.53,2.92.56,1.29.82,3.26,2.34,3.53,1.84.33,2.56,1.57,3.48,2.76,1.3,1.44,2.45,3,3.44,4.66,2.03,4.06,5.34,4.7,9.31,3.98.68-.12,1.36-.3,2.02-.51.62-.2,1.23-.4,1.72.15,1.23,1.21,2.86,1.92,4.59,2.01,4.28.6,7.68,2.25,9.53,6.5.56,1.28,1.11,2.3.52,3.66-.3.71-.55,1.45-.72,2.2-.58,2.4,1.79,3.01,2.81,4.4.81,1.11,1.84.25,2.63-.34,2.57-1.95,5.29-2.64,8.42-1.4,2,.71,4.21.5,6.04-.58,1.04-.53,2.03-1.14,3.36-.03,1.01.85,2.12-.14,2.85-1.14,1.72-2.37,4.37-3.12,6.98-3.26,1.74-.17,3.43.6,4.45,2.02.86,1.37,2.15,2.4,3.67,2.94,2.8.99,5.53,1.93,7.51,4.31.36.58,1.12.77,1.71.41.12-.07.22-.16.31-.27.8-.81.12-1.39-.36-1.98-1.69-1.93-3.93-3.29-6.42-3.9-.9-.28-2.27-.58-1.73-1.92.45-1.12,1.58-1.2,2.79-.77,2.9,1.03,5.56,2.3,7.11,5.18.94,1.74,2.28,2.66,4.37,1.94.75-.31,1.61-.05,2.08.61,1.07,1.41,2.28,2.7,2.5,4.61.23,1.42.54,2.83.93,4.22l.59-.11c0-1.51.73-3.18-.2-4.49-1.72-2.43-2-5.33-3.09-7.95-1.39-3.34-1.56-7.39-5.87-9.02-1.7-.64-3.25-1.73-5.14-1.91-.51-.05-1.16.27-1.38-.46-.19-.61-.02-1.27.44-1.71.43-.44.86-.9,1.32-1.31.65-.58,1.17-1.7,2.27-1.11.99.53.92,1.48.46,2.43-.28.52-.09,1.16.43,1.44.06.03.12.06.19.08.56.32,1.24.29,1.77-.08.7-.54.15-1.11-.13-1.63-4.81-9.22-11.3-17.45-19.14-24.28C127.32,7.36,104.1.37,77.97,3.88c-17.71,2.32-34.2,10.3-47.01,22.76C14.72,42.1,6.01,61.16,4.29,83.46c-.11,1.49-.34,2.77,1.93,1.79" fill="#fff"/>
      <path id="_패스_1372" data-name="패스 1372" d="m133.5,158.26c-.91,2.05-.49,2.57,1.79,2.4.76-.06,1.22-.57,1.82-.87,3.26-1.63,3.14-5.46,5.22-7.85.23-.27.14-.53-.04-.78-2.4,1.31-4.82,2.56-7.25,3.74-.62,1.35-1.09,2.35-1.54,3.36" fill="#fff"/>
      <path id="_패스_1373" data-name="패스 1373" d="m67.87,173.09c-1.67-1.6-3.58-1.04-5.49-.9-.71.05-1.68.5-1.91-.65-.22-1.13-1.6-2.09-.57-3.43.66-.94,1.88-1.28,2.93-.84-.16.23-.35.44-.54.65-.63.51-1.69.82-1.22,1.93.39.9,1.35.58,2.08.59,1.54.03,3.1-.13,4.64-.07,2.62.1,2.61.14,4-1.96.2-.33.5-.58.86-.72.53-.15.99-.46,1.32-.89-2.49,0-5-.07-7.52-.21-4.99-.27-9.94-.74-14.8-1.5.04.1.1.21.16.33.41.77.05,1.29-.54,1.8-1.03,1.06-2.48,1.63-3.96,1.55-1.77-.23-3.57.22-5.03,1.25-5.21,3.78-4.77,2.98-.04,6.66,1.1,1.14,2.92,1.17,4.05.07.01-.01.03-.03.04-.04,2.12-1.63,4.04-1.28,5.89.73.49.53.83,1.65,1.73,1.14.87-.57,1.27-1.65.99-2.65-.21-1.17-1.03-2.2-.98-3.53,2.08.31,3.82.68,5.16,2.46,1.45,1.92,6.99,1.9,8.76.29.84-.76.8-1.26-.03-2.05" fill="#fff"/>
      <path id="_패스_1374" data-name="패스 1374" d="m173.13,134.79c-.65-.45-1.28.33-1.8.73-1.92,1.46-4.26,2.26-6.68,2.28-.48,0-.96.04-1.43.13-1.47,1.02-2.95,2.02-4.46,2.99.01.03.01.05.03.08.31.67,1.07.99,1.76.74,1.51-.4,2.86-2.7,4.64-.38.07.09.79-.34,1.21-.51.59-.25.96-1.01,1.88-.81-.34,1.08-.63,2.12-.99,3.13-.76,2.69-3.56,4.25-6.24,3.49-.08-.02-.16-.05-.24-.08-.95-.35-2.02-.21-2.85.37-1.16.81-2.34,1.52-2.42,3.16-.03.53-.23,1.25-.88,1.15-1-.15-.41-.96-.4-1.5,0-1.68,1.15-2.64,2.35-3.51,1.64-1.19.97-2.16-.24-3.07-.22-.18-.51-.27-.79-.24-1.01.62-2.03,1.22-3.05,1.82-1.22,1.47-1.67,3.57-3.25,4.8-.7.55-.11,2.12,1.45,2.04,1.79-.1,1.38.9.8,1.72-1,1.42-2.58,1.94-4.33,2.53.12-.95.25-1.62.29-2.31.04-.98-.67-1.83-1.65-1.96-1.02-.15-2.05.25-2.7,1.05-.71.74.05,1.44.61,1.95,1.76,1.6.57,2.99-.36,4.26-2.92,4.04-7.35,4.79-11.88,5.29-.31.05-.62-.03-.87-.21-.94-1-1.73-2.1-3.45-1.61-.55.16-.89-.94-.62-1.22,1.41-1.45,1.94-3.45,2.89-5.06-15.19,6.14-31.3,9.71-47.66,10.58.21.37.35.82.56,1.19.6,1.04-.16,1.58-.81,2.12-1.48,1.07-2.21,2.89-1.89,4.69.41,2.57-1.1,4.01-3.07,5.18-.63.29-1.23.65-1.78,1.07-1.16,1.1-.07,1.79.63,2.43.6.56,1.32,1.84,2.17.51,1.02-1.59,2.02-1.95,3.53-.76.39.3.87.12,1.34.07,1.8-.21,2.59.67,2.08,2.43-.3.87-.72,1.71-1.24,2.47-1.93,3.12-1.49,4.1,2.1,4.35,21.53,1.48,41-4.04,58.39-16.93,13.29-9.79,23.4-23.27,29.08-38.77.22-.58,1.02-1.31.26-1.84" fill="#fff"/>
      <rect id="_사각형_709" data-name="사각형 709" width="185" height="196" fill="none"/>
    </g>
  </g>
</svg>