<?xml version="1.0" encoding="UTF-8"?>
<svg id="Layer_2" data-name="Layer 2" xmlns="http://www.w3.org/2000/svg" viewBox="0 0 234 173">
  <g id="Logo">
    <g id="symbol_19_06_0001_02" data-name="symbol 19 06 0001 02">
      <path id="_패스_472" data-name="패스 472" d="m80.68,8c3.98,27.83-4.39,47.97-12.97,60.65,16.79-32.33,8.83-60.65,8.83-60.65h-12.78c17.75,29.85-10.82,76.85-10.82,76.85l-.07.05v78.09h40.21s-27.12-40.12-26.88-80.32c56.17-13.83,43.48-74.67,43.48-74.67h-29Z" fill="#fff"/>
      <path id="_패스_473" data-name="패스 473" d="m189.05,84.85s-28.56-47-10.82-76.85h-12.78s-8.04,28.58,9.06,61.09c-8.68-12.65-17.29-32.94-13.27-61.09h-29s-12.69,60.84,43.49,74.67c.24,40.2-26.88,80.32-26.88,80.32h40.22v-78.09l-.07-.05h.06Z" fill="#fff"/>
      <path id="_패스_474" data-name="패스 474" d="m222.89,106.77c-.1.03-.21.03-.3,0-25.92-10.81-44.38.76-60.65,10.97-12.19,7.64-22.71,14.25-34.23,10.55-7.68-2.47-11.61-8.92-11.18-18.27-6.06,1.06-12.29.13-17.78-2.65-9.79-4.62-18.98-14.11-27.32-28.21-5.57-9.41-12.55-14.51-20.73-15.15-19.48-1.53-39.72,22.62-39.92,22.86-.15.18-.42.21-.6.05-.18-.15-.21-.42-.06-.6.21-.25,20.73-24.74,40.65-23.17,8.48.67,15.68,5.91,21.4,15.57,17.76,29.99,35.14,32.08,44.43,30.35.03-.37.06-.74.1-1.11,1.38-12.85,9.81-26.1,15.08-26.61,1.29-.12,3.03.4,4.01,3.57,2.59,8.4-3.51,18.87-13.61,23.34-1.53.68-3.13,1.21-4.77,1.58-.36,6.76,1.4,14.68,10.58,17.63,11.14,3.58,21.51-2.93,33.51-10.46,16.46-10.32,35.11-22.02,61.44-11.04.22.09.32.34.23.56,0,0,0,0,0,0-.05.11-.14.2-.26.24m-105.44,2.12c1.5-.33,2.95-.8,4.36-1.42,9.55-4.23,15.57-14.44,13.14-22.3-.65-2.11-1.7-3.11-3.1-2.97-4.88.47-12.99,13.58-14.31,25.85-.03.28-.06.56-.08.84" fill="#fff"/>
      <rect id="_사각형_170" data-name="사각형 170" width="234" height="173" fill="none"/>
    </g>
  </g>
</svg>