<?xml version="1.0" encoding="UTF-8"?>
<svg id="_레이어_2" data-name="레이어 2" xmlns="http://www.w3.org/2000/svg" viewBox="0 0 242 219">
  <g id="Logo">
    <g id="symbol_21_01_0010_01" data-name="symbol 21 01 0010 01">
      <path id="_패스_1379" data-name="패스 1379" d="m232.82,75.24c-2.77-4.46-6.98-5.52-11.93-4.64-6.94,1.24-15.89,2.18-25.08,5.3-.63.21-3.02,1.03-6.34,2.09-.62.2-2.55.81-4.95,1.54-12.2,3.69-15.6,3.93-24.49,7.12-3.1,1.11-4.16,1.61-4.28,1.39-.4-.74,11.25-8.79,23.97-14.03,3.1-1.39,6.29-2.59,9.55-3.58.9-.24,4.28-1.33,11.05-3.51,1.5-.48,3.15-1.04,3.73-2.47.43-1.06.11-2.46-.99-4.4-8.44-15-20.63-27.55-35.37-36.43C123.33-3.17,63.58,7.08,32.32,52.52c-14.14,20.55-20.46,43.32-17.63,68.32.46,4.06,1.23,6.4,2.82,7.32,2.6,1.51,6.32-.44,7.67-1.13,16.46-8.4,60.34-22.47,60.34-22.47l1.74,1.01,2.12,1.23c.77.34,1.58.68,2.48,1.02,1.27.5,2.57.92,3.88,1.28,5.31,1.35,10.62,2.87,16.05,3.52,3.25.39,4.95.12,6.65-.94,2.32-1.45,3.6-4.16,4.77-6.64,1.49-3.17,1.53-4.75,3.1-5.62,1.36-.6,2.9-.63,4.27-.07.16,2.32.09,4.65-.21,6.95-.17,2.02-.62,4-1.34,5.9-2.12,5.07-6.77,7.52-7.96,8.14-2.42,1.27-5.85,1.57-12.6,2.1,0,0-11.02.86-19.36-1.41-1.04-.26-2.01-.75-2.84-1.44,0,0-.09-.08-.22-.21-18.27,9.89-36.32,20.13-52.87,32.84-7.57,5.81-15.2,11.56-21,19.32-2.66,3.57-4.25,7.23-2.12,11.59,2.23,4.57,6.25,5.68,10.93,5.7,6.64.03,13.05-1.41,19.41-2.96,3.89-.95,6.71-.05,9.78,2.47,22.06,18.12,47.2,26.46,75.85,23.37,48.93-5.29,87.28-45.02,89.93-93.77.55-10.18.41-19.99,10.9-25.78,1.65-.91,2.79-2.8,4.04-4.35,3.05-3.8,4.83-7.92,1.92-12.58m-87.82,24.53c-1.81,10.59-9.76,19.41-19.01,20.31,8.27-6.62,6.81-15.72,8.05-24.01-6.22-2.38-9.39-1-11.59,4.67-3.49,9-5.71,10.45-15.12,8.2-6-1.44-11.77-3.82-17.66-5.72-3.14-1.01-2.61-3.15-1.77-5.38.26-.97.82-1.83,1.6-2.47l21.7,6.08c.84.24,1.72-.26,1.95-1.1.24-.84-.26-1.72-1.1-1.95l-20.66-5.79c-.58-.6-.79-1.47-.29-2.87.86-2.39,1.36-5.03,4.87-4.46,1.35.22,2.7.44,4.06.66l13.7,3.05c.85.2,1.7-.33,1.9-1.18.2-.85-.33-1.7-1.18-1.9-.01,0-.02,0-.03,0l-19.2-4.28c.92-3.36,3.63-5.03,8.8-4.99.17,0,.33.01.5.02l11.78,2.08c.87.13,1.67-.46,1.8-1.33.13-.84-.43-1.62-1.25-1.79l-13.29-2.35c5.44-5.14,17.14-6.42,25.3-2.72,11.59,5.25,18.2,17.21,16.15,29.24" fill="#fff"/>
      <rect id="_사각형_690" data-name="사각형 690" width="242" height="219" fill="none"/>
    </g>
  </g>
</svg>