<?xml version="1.0" encoding="UTF-8"?>
<svg id="Layer_2" data-name="Layer 2" xmlns="http://www.w3.org/2000/svg" viewBox="0 0 100 100">
  <g id="Logo">
    <g id="symbol_19_06_0003_02" data-name="symbol 19 06 0003 02">
      <path id="_패스_1541" data-name="패스 1541" d="m67.88,30.26l4.03-4.17c1.56-1.61,1.51-4.18-.1-5.74-.05-.05-.1-.09-.15-.13l-10.59-9.27c-.74-.65-1.69-1-2.67-1h-18.03c-.98,0-1.93.35-2.67,1l-10.6,9.27c-1.69,1.48-1.86,4.04-.38,5.73.04.05.09.1.13.15l4.25,4.4c-14.95,10.25-18.77,30.68-8.52,45.64s30.68,18.77,45.64,8.52,18.77-30.68,8.52-45.64c-2.37-3.46-5.38-6.43-8.86-8.75m-32.23-6.74l6.24-5.46h14.98l6.24,5.46-2.87,2.97-6.48,6.7-4.38,4.54-4.3-4.45-6.42-6.64-3.01-3.11Zm14.01,58.75c-13.65,0-24.71-11.06-24.71-24.71,0-8.64,4.51-16.65,11.89-21.13l9.62,9.95c1.56,1.61,4.13,1.65,5.74.1.03-.03.06-.06.1-.1l9.82-10.16c11.79,6.86,15.78,21.99,8.92,33.77-4.43,7.61-12.57,12.28-21.37,12.27" fill="#fff"/>
      <rect id="_사각형_760" data-name="사각형 760" width="100" height="100" fill="none"/>
    </g>
  </g>
</svg>