<?xml version="1.0" encoding="UTF-8"?>
<svg id="Layer_2" data-name="Layer 2" xmlns="http://www.w3.org/2000/svg" viewBox="0 0 276 165">
  <g id="Logo">
    <g id="symbol_05_04_0002_01" data-name="symbol 05 04 0002 01">
      <path id="_패스_970" data-name="패스 970" d="m171.32,4c-22.23,2.51-29.39,15.29-31.42,25.93-2.03-10.64-9.19-23.42-31.42-25.93,0,0-6.81,39.2,31.33,41.03h0s.06,0,.09,0,.06,0,.09,0h0c38.14-1.84,31.33-41.04,31.33-41.04" fill="#fff"/>
      <path id="_합치기_14" data-name="합치기 14" d="m187.99,138.7c2.57.73,5.18,1.3,7.82,1.68,19.04,13.91,42.39,22.39,60.32,11.01,8.15-5.17,10.75-16.22,6.46-27.49-1.76-4.48-4.33-8.59-7.58-12.15.61-1.12,1.2-2.27,1.73-3.44,3.93,4.16,7.02,9.03,9.1,14.36,4.81,12.65,1.59,25.66-7.85,31.65-6.18,3.9-13.35,5.92-20.66,5.84-16.79,0-34.76-9.47-49.35-21.45Zm60.43-33.11h0c-18.56-14.6-53.84-23.88-109.96-14.72-37.03,6.03-69.24,4.14-93.14-5.46-7.08-2.79-13.73-6.55-19.77-11.18-2.49-1.92-4.83-4.02-7-6.29h0c-4.9-4.99-8.62-11.02-10.88-17.64-4.42-13.6-.05-26.42,10.85-31.91,26.05-13.1,53.19,6.49,63.31,15.17-2.11-.36-4.24-.59-6.38-.71-11.61-8.92-34.04-22.09-55.36-11.36-9.31,4.69-12.97,15.83-9.11,27.75,1.97,5.63,5.09,10.78,9.16,15.14h0c2.06,2.27,4.3,4.38,6.69,6.3-.47,1.16-.89,2.35-1.26,3.55.37-1.2.79-2.39,1.26-3.55,18.28,14.82,52.8,26.26,111.09,16.76,56.6-9.23,92.52-.4,112.03,14.66h0c2.44,1.87,4.72,3.95,6.81,6.2-.53,1.17-1.12,2.32-1.73,3.44-2.02-2.24-4.22-4.29-6.59-6.15Z" fill="#fff"/>
      <rect id="_사각형_234" data-name="사각형 234" width="276" height="165" fill="none"/>
    </g>
  </g>
</svg>