<?xml version="1.0" encoding="UTF-8"?>
<svg id="Layer_2" data-name="Layer 2" xmlns="http://www.w3.org/2000/svg" viewBox="0 0 318 196">
  <g id="Logo">
    <g id="symbol_04_02_0003_01" data-name="symbol 04 02 0003 01">
      <path id="_패스_1095" data-name="패스 1095" d="m213.84,31.27c-7.09,0-14.14,1.14-20.88,3.37C158.17-1.35,100.79-2.32,64.8,32.47c-17.67,17.08-27.65,40.61-27.64,65.19,0,1.93.08,3.85.2,5.75,12.02,6.43,25.46,9.96,39.02,9.05,3.59-.19,7.16-.64,10.68-1.35-7.43-35.91,15.65-71.04,51.56-78.47,15.05-3.12,30.72-.91,44.33,6.24-18.74,9.85-31.66,28.04-34.79,48.97,12.57-3.8,25.54-6.17,38.64-7.07,9.98-.73,20.02-.21,29.88,1.55.16.03.32.05.48.08,1.51.28,3.01.6,4.5.95-2.57-17.1-9.79-33.17-20.89-46.43,33.52-7.21,66.55,14.11,73.77,47.64,2.21,10.26,1.78,20.91-1.25,30.96-.4,1.33-.85,2.65-1.33,3.94-.28.74-.56,1.47-.86,2.19-.4.95-.82,1.89-1.27,2.82-12.41,25.9-40.97,39.91-69.05,33.88,11.55-13.81,18.91-30.65,21.19-48.51-1.43-.11-2.87-.2-4.31-.26-.09,0-.18-.01-.27-.01-9.78-.37-19.57.41-29.17,2.33-12.27,2.46-24.25,6.18-35.76,11.08,5.96,14.36,16.74,26.18,30.49,33.42-26.23,13.79-58.43,8.51-78.89-12.95-12.24,4.02-24.94,6.5-37.79,7.38-3.92.27-7.84.31-11.76.12,29.42,40.48,86.09,49.43,126.56,20.01,4.25-3.09,8.22-6.54,11.88-10.32,31.54,10.45,65.95-4.03,80.53-33.88.37-.75.71-1.51,1.05-2.28.23-.52.46-1.04.68-1.56.42-1.01.81-2.04,1.18-3.08,12.26-34.56-5.82-72.52-40.38-84.78-7.12-2.53-14.63-3.82-22.19-3.82" fill="#fff"/>
      <rect id="_사각형_270" data-name="사각형 270" width="318" height="196" fill="none"/>
    </g>
  </g>
</svg>