<?xml version="1.0" encoding="UTF-8"?>
<svg id="Layer_2" data-name="Layer 2" xmlns="http://www.w3.org/2000/svg" viewBox="0 0 191 152">
  <g id="Tag">
    <g id="symbol_03_11_0001_01" data-name="symbol 03 11 0001 01">
      <path id="_패스_572" data-name="패스 572" d="m30.32,30.07h.27c.8,3.92,5.16,6.92,10.42,6.92s9.61-3,10.42-6.92h.27c.8,3.92,5.16,6.92,10.42,6.92s9.61-3,10.41-6.92h.27c.8,3.92,5.16,6.92,10.42,6.92s9.61-3,10.42-6.92h.27c.8,3.92,5.16,6.92,10.42,6.92s9.61-3,10.42-6.92h.27c.8,3.92,5.16,6.92,10.42,6.92v-16.45c0-5.25-5.46-9.5-12.19-9.5H32.09c-6.73,0-12.19,4.26-12.19,9.5v16.45c5.26,0,9.61-3,10.41-6.92" fill="#fff"/>
      <path id="_패스_573" data-name="패스 573" d="m174.62,60.37s-7.87-.89-19.7,4.69c-8.23,3.88-13.33,1.22-15.67-.77-1.67-9.11-5.31-17.74-10.66-25.3h-3.2c-3.9.07-7.68-1.37-10.55-4.01-6.01,5.35-15.09,5.35-21.1,0-6.01,5.35-15.09,5.35-21.1,0-6.02,5.35-15.08,5.35-21.1,0-2.87,2.64-6.64,4.08-10.54,4.01-3.9.07-7.68-1.37-10.55-4.01-2.87,2.64-6.65,4.08-10.55,4.01h-3.2c-7.61,10.72-11.7,23.54-11.7,36.69.04,18.16,7.79,35.44,21.31,47.56-4.24,3.58-4.77,9.92-1.19,14.16,1.91,2.26,4.72,3.56,7.68,3.56h79.7c5.55,0,10.05-4.49,10.05-10.04,0-2.96-1.3-5.77-3.57-7.68,11.94-10.72,19.44-25.51,21.02-41.48,2.6-1.85,7.48-3.7,14.92-.19,11.83,5.58,19.7,4.69,19.7,4.69,7.15,0,12.95-5.8,12.95-12.95s-5.8-12.95-12.95-12.95m-44.94,39.43c-3.39,7.4-8.26,14.02-14.31,19.47-2.19,1.99-2.36,5.38-.37,7.57.16.18.33.34.51.49,1.98,1.67,2.23,4.62.57,6.6-.89,1.06-2.2,1.67-3.59,1.67H32.8c-2.59,0-4.69-2.09-4.69-4.68,0-1.38.61-2.7,1.67-3.59,2.26-1.91,2.54-5.29.63-7.55-.15-.18-.32-.35-.49-.51-6.04-5.45-10.91-12.08-14.3-19.47-8.21-17.95-6.72-38.84,3.94-55.45h.35c3.69.01,7.32-.93,10.54-2.74,6.56,3.65,14.54,3.65,21.1,0,6.56,3.65,14.54,3.65,21.1,0,6.56,3.65,14.54,3.65,21.1,0,6.56,3.65,14.54,3.65,21.1,0,3.22,1.81,6.86,2.75,10.55,2.74h.35c10.66,16.61,12.15,37.5,3.94,55.45" fill="#fff"/>
      <rect id="_사각형_2" data-name="사각형 2" width="191" height="152" fill="none"/>
    </g>
  </g>
</svg>