<?xml version="1.0" encoding="UTF-8"?>
<svg id="Layer_2" data-name="Layer 2" xmlns="http://www.w3.org/2000/svg" viewBox="0 0 246 131">
  <g id="Logo">
    <g id="symbol_10_03_0002_01" data-name="symbol 10 03 0002 01">
      <path id="_합치기_26" data-name="합치기 26" d="m104.5,124.78c4.87-3.25,9.78-6.66,14.74-10.25v10.25h-14.74Zm-79.94,0H7.13v-53.97h80.71V27.99H7.13V6.73h112.11v100.65c-8.57,6.3-17.04,12.13-25.28,17.4H24.56Zm183.22-5.39V12.11l10.5-1.87,7.76-1.38,11.9-2.12v118.05l-30.15-5.38Zm-34.56-6.17v-43.13c6.24-5.84,12.24-11.74,17.88-17.6v63.92l-17.88-3.19Zm-39.54-7.06v-2.44c4.02-3.11,8.04-6.31,12.06-9.59,3.63-2.97,7.23-5.99,10.79-9.07v25.18l-22.86-4.08Zm0-40.42V25.34l22.85-4.08v56.17c-4.63,4.05-9.44,8.13-14.45,12.24-2.8,2.29-5.6,4.54-8.4,6.74v-30.65Zm39.54-47.48l17.88-3.19v29.04c-5.42,5.83-11.4,11.88-17.88,18.07V18.28Z" fill="#fff"/>
      <rect id="_사각형_250" data-name="사각형 250" width="246" height="131" fill="none"/>
    </g>
  </g>
</svg>