<?xml version="1.0" encoding="UTF-8"?>
<svg id="Layer_2" data-name="Layer 2" xmlns="http://www.w3.org/2000/svg" viewBox="0 0 332 188">
  <g id="Logo">
    <g id="symbol_18_04_0002_01" data-name="symbol 18 04 0002 01">
      <path id="_합치기_24" data-name="합치기 24" d="m273.88,161.29c-9.13,11.39-25.77,13.21-37.16,4.08-1.5-1.21-2.87-2.57-4.08-4.08-9.14,11.39-25.78,13.21-37.17,4.08-1.5-1.21-2.87-2.57-4.08-4.08-9.14,11.39-25.78,13.21-37.17,4.08-1.5-1.21-2.87-2.57-4.08-4.08-9.13,11.39-25.77,13.21-37.16,4.08-1.5-1.21-2.87-2.57-4.08-4.08-5.01,6.26-12.6,9.9-20.62,9.89-8.02,0-15.61-3.63-20.62-9.89-5.01,6.26-12.6,9.9-20.62,9.89-14.61,0-26.45-11.85-26.45-26.46,0-14.61,11.84-26.45,26.45-26.45h0c8.02,0,15.6,3.63,20.62,9.89,5.02-6.26,12.6-9.89,20.62-9.89,8.02,0,15.6,3.63,20.62,9.89,3.45-4.29,8.14-7.39,13.43-8.89v-9.95c0-1.66.42-2.09,2.06-2.09h4.14v-20.51c-.37,0-.72,0-1.06,0-1.84-.03-2.42-.95-1.61-2.58,2.04-4.1,4.09-8.19,6.14-12.27,1.88-3.74,3.76-7.48,5.61-11.24.22-.46.35-.96.36-1.47.02-4.13,0-8.25.01-12.38,0-1.89.94-2.49,2.62-1.66,2.79,1.39,5.58,2.78,8.37,4.17.69.34,1.33.71,1.31,1.62-.02.87-.65,1.21-1.31,1.54-2.47,1.23-4.93,2.48-7.41,3.69-.42.16-.7.57-.68,1.02-.1,1.71.27,3.42,1.09,4.92,3.7,7.22,7.29,14.49,10.93,21.74.11.23.24.46.34.7.4.69.17,1.57-.52,1.97-.23.13-.48.2-.74.2-.51.05-1.03,0-1.68,0v4.91h3.04q3.22,0,3.22,3.26v1.34h3.27v-20.46c-.51,0-.99.02-1.47,0-.8.07-1.51-.52-1.58-1.32-.03-.32.05-.64.22-.91.11-.27.26-.52.39-.78,3.82-7.63,7.64-15.26,11.45-22.9.28-.58.43-1.21.44-1.85.04-3.99.04-7.99,0-11.98-.1-.84.24-1.68.89-2.21h1.17c1.04.56,2.08,1.15,3.14,1.69,1.97,1,3.94,1.99,5.93,2.96.65.32,1.18.73,1.18,1.51s-.54,1.19-1.19,1.51c-2.45,1.21-4.88,2.46-7.34,3.63-.57.23-.92.81-.87,1.42-.08,1.62.3,3.22,1.09,4.64,3.69,7.22,7.25,14.51,10.96,21.72,1.03,2.01.08,3.16-1.74,2.9-.27,0-.54,0-.81.06v20.42h3.28c0-.99-.01-1.95,0-2.91.02-1.23.49-1.7,1.72-1.72,1.46-.02,2.92,0,4.45,0v-4.9c-.45,0-.87.02-1.29,0-1.55-.06-2.16-1.04-1.47-2.43,2.02-4.07,4.07-8.12,6.11-12.19,1.9-3.8,3.82-7.59,5.69-11.41.26-.55.4-1.14.41-1.75.03-4.09.01-8.19.02-12.28,0-1.76.94-2.35,2.53-1.56,2.85,1.41,5.69,2.84,8.55,4.26.65.32,1.2.7,1.22,1.49.02.84-.57,1.24-1.25,1.57-2.42,1.19-4.82,2.43-7.25,3.58-.57.21-.94.78-.9,1.38-.08,1.68.32,3.35,1.14,4.81,3.68,7.2,7.26,14.44,10.87,21.66,1,1.99.49,2.81-1.75,2.86-.25,0-.5.04-.79.06v20.46c1.48,0,2.9,0,4.33,0,1.39,0,1.87.49,1.87,1.88v10.15c5.29,1.5,9.99,4.61,13.44,8.89,9.14-11.39,25.79-13.21,37.17-4.06,1.5,1.2,2.86,2.56,4.06,4.06,9.15-11.39,25.8-13.21,37.19-4.07,11.39,9.14,13.21,25.79,4.07,37.19-9.15,11.39-25.8,13.21-37.19,4.07-1.5-1.2-2.86-2.57-4.07-4.07h0Zm-103.08-52.49c6.37-.04,11.71,4.8,12.28,11.14.03.47.05.94.07,1.41,3.08,1.64,5.81,3.87,8.03,6.56v-33.31h-3.27c0,.95,0,1.82,0,2.69-.02,1.39-.52,1.9-1.88,1.92-1.82.02-3.64.02-5.47,0-1.34-.01-1.82-.51-1.84-1.83-.01-.93,0-1.85,0-2.79h-3.21c-.06.12-.1.18-.1.24-.01.87,0,1.75-.04,2.63-.04,1.2-.54,1.73-1.73,1.75-1.89.03-3.78.02-5.67,0-1.26-.01-1.76-.53-1.79-1.79-.02-.93,0-1.86,0-2.84h-3.35c0,.95,0,1.85,0,2.75-.02,1.39-.49,1.88-1.88,1.89-1.79.02-3.58.02-5.37,0-1.43,0-1.92-.51-1.94-1.96,0-.9,0-1.79,0-2.66h-3.27v33.31c2.21-2.68,4.93-4.91,8-6.54.02-.49.04-.98.08-1.47.64-6.32,5.98-11.12,12.34-11.1h0Zm23.42,16.37c5.94-5.43,14.04-7.84,21.99-6.56v-8.42h-3.26c0,.97,0,1.91,0,2.84-.02,1.24-.54,1.79-1.78,1.79-1.85.02-3.7.02-5.56,0-1.32,0-1.82-.51-1.84-1.82,0-.93,0-1.86,0-2.86h-3.34v2.49c0,1.76-.43,2.2-2.17,2.2h-4.04v10.33Zm-46.89,0v-10.33c-1.5,0-2.96.01-4.41,0-1.24-.01-1.77-.54-1.79-1.79-.02-.93,0-1.87,0-2.81h-3.33v2.79c-.01,1.27-.5,1.8-1.75,1.82-1.89.02-3.77.02-5.66,0-1.24,0-1.76-.55-1.77-1.81-.01-.93,0-1.86,0-2.83h-3.26v8.42c7.94-1.28,16.03,1.13,21.98,6.55Zm32.83-5.17c-.65-5.18-5.37-8.86-10.55-8.21-4.29.54-7.68,3.92-8.21,8.21,6.04-2.29,12.71-2.29,18.76,0Zm24.71-12.76c1.32,0,1.81.52,1.82,1.84,0,.93,0,1.85,0,2.79h3.28v-25.09h-15.7v25.07h3.24c0-.97,0-1.88,0-2.78,0-1.34.47-1.83,1.8-1.84.93,0,1.86,0,2.78,0,.93,0,1.85,0,2.77,0Zm-62.53,0c1.21,0,1.69.51,1.71,1.73.01.96,0,1.92,0,2.9h3.25v-25.09h-15.67v25.08h3.14c.04-.08.06-.16.08-.24,0-.88,0-1.75.02-2.63.02-1.21.52-1.74,1.71-1.75.89,0,1.78-.01,2.67-.01,1.03,0,2.05,0,3.08.01h0Zm24.78-15.63c1.55,0,1.97.42,1.99,1.96,0,.89,0,1.79,0,2.69h3.34c0-1.05-.02-1.99,0-2.92.03-1.24.49-1.7,1.72-1.73,1.2-.02,2.41-.04,3.61,0,.73.03.95-.19.94-.93-.03-4.68-.03-9.35,0-14.02,0-.74-.23-.93-.94-.93-4.65.03-9.31.03-13.96,0-.73,0-1.02.15-1.01.96.04,4.68.01,9.36.02,14.03,0,.28.05.55.08.88h2.14c.7,0,1.38,0,2.07,0h0Zm-37.78-7.87h20.27l-10.14-20.23-10.13,20.23Zm62.62-.02h20.25c-3.38-6.76-6.72-13.4-10.12-20.21-3.4,6.79-6.74,13.46-10.12,20.21h0Zm-31.3-10.96h20.23c-3.38-6.75-6.71-13.38-10.11-20.18-3.41,6.82-6.72,13.42-10.11,20.19h0Zm-19.67-19.6c1.54-.77,2.97-1.48,4.6-2.29-1.66-.82-3.11-1.55-4.6-2.29v4.58Zm62.63,0c1.53-.76,2.97-1.48,4.58-2.28-1.63-.81-3.07-1.53-4.58-2.28v4.56Zm-31.3-10.94c1.55-.78,3-1.5,4.57-2.29-1.59-.79-3.04-1.52-4.57-2.27v4.56Zm99.15,67.61c-1.4-6.31-3.28-12.5-5.62-18.52-.5-1.22.08-2.62,1.3-3.12,1.22-.5,2.62.08,3.12,1.3.01.03.02.05.03.08,2.43,6.25,4.39,12.68,5.84,19.23.37,1.27-.37,2.6-1.64,2.97-1.27.37-2.6-.37-2.97-1.64-.03-.1-.05-.19-.06-.29h0Zm-204.22,1.74c-1.29-.29-2.1-1.57-1.82-2.86,1.46-6.55,3.42-12.97,5.85-19.22.48-1.23,1.87-1.84,3.1-1.36,1.23.48,1.84,1.87,1.36,3.11-2.35,6.02-4.23,12.21-5.64,18.52-.24,1.1-1.21,1.88-2.33,1.88-.17,0-.35-.02-.52-.05h0Zm166.61-3.28c-.65-1.18-1.29-2.38-1.96-3.55-.16-.26-.38-.48-.64-.63-1.37-.78-2.76-1.53-4.2-2.31.56-.31,1.06-.59,1.57-.87.89-.49,1.78-.96,2.65-1.47.25-.15.46-.36.61-.61.7-1.23,1.38-2.49,2.06-3.74.08-.15.17-.29.28-.48.67,1.22,1.34,2.37,1.93,3.57.34.73.93,1.32,1.67,1.66,1.06.51,2.08,1.12,3.12,1.69.13.08.27.16.44.26-1.31.72-2.57,1.43-3.86,2.1-.52.26-.95.68-1.21,1.2-.66,1.29-1.38,2.55-2.1,3.87-.14-.25-.26-.45-.37-.67h0Zm-132.02-4.74c-.73-1.32-1.44-2.66-2.19-3.97-.17-.29-.42-.54-.72-.72-1.54-.87-3.1-1.71-4.7-2.58.62-.34,1.19-.65,1.76-.97.99-.54,1.99-1.07,2.97-1.64.28-.17.52-.41.68-.69.79-1.38,1.54-2.79,2.3-4.18.09-.17.19-.33.31-.54.75,1.36,1.51,2.65,2.16,3.98.38.82,1.04,1.48,1.87,1.86,1.19.57,2.33,1.25,3.49,1.89.15.08.29.17.49.29-1.46.81-2.87,1.61-4.31,2.35-.58.29-1.06.76-1.34,1.34-.75,1.44-1.55,2.85-2.36,4.33-.15-.28-.28-.51-.42-.74h0Zm37.6-4.35c-2.53-.05-4.55-2.1-4.56-4.63.03-2.53,2.1-4.55,4.63-4.53h0c2.5,0,4.53,2.02,4.54,4.52,0,.03,0,.05,0,.08-.02,2.51-2.05,4.55-4.57,4.56h-.04Zm-1.63-4.58c.03.88.73,1.59,1.6,1.64.92.02,1.68-.71,1.7-1.62,0,0,0,0,0,0,.04-.88-.65-1.63-1.53-1.66-.03,0-.07,0-.1,0h0c-.91,0-1.65.73-1.65,1.64,0,0,0,0,0,0h0Zm64.24,4.57c-2.53-.03-4.56-2.1-4.54-4.62,0-2.5,2.02-4.53,4.52-4.53h.09c2.53,0,4.57,2.06,4.56,4.59,0,0,0,0,0,0-.04,2.51-2.07,4.52-4.58,4.55h-.06Zm-.03-6.22c-.88.01-1.59.74-1.58,1.62,0,.04,0,.07,0,.11.05.88.78,1.56,1.66,1.56.92-.03,1.65-.79,1.64-1.71-.03-.89-.77-1.6-1.67-1.59h-.06Zm-35.82-9.27c-.02-2.53,2.02-4.6,4.55-4.62,2.53-.02,4.6,2.02,4.62,4.55.02,2.53-2.02,4.6-4.55,4.62h-.04c-2.51,0-4.56-2.03-4.58-4.55h0Zm2.94-.12c-.05.91.64,1.68,1.55,1.73s1.68-.64,1.73-1.55c.05-.91-.64-1.68-1.55-1.73-.03,0-.05,0-.08,0h0c-.88,0-1.6.68-1.64,1.56h0Zm73.4,1.33c-.39-.71-.77-1.42-1.17-2.13-.09-.16-.22-.29-.39-.38-.82-.47-1.65-.91-2.51-1.38.33-.19.64-.35.94-.52.53-.29,1.07-.57,1.59-.88.15-.09.28-.21.37-.37.42-.74.82-1.49,1.23-2.24.05-.09.1-.18.17-.29.39.73.8,1.41,1.15,2.13.2.44.56.79,1,.99.64.31,1.24.67,1.87,1.01.08.04.16.09.26.16-.78.43-1.53.86-2.3,1.25-.31.16-.56.41-.72.72-.4.77-.83,1.52-1.26,2.31-.08-.14-.15-.27-.23-.39h0Zm14.89-11.04c-3.26-5.57-6.98-10.86-11.12-15.82-.78-1.07-.55-2.57.52-3.35.97-.71,2.32-.59,3.16.28,4.3,5.16,8.17,10.67,11.57,16.47.67,1.14.29,2.61-.85,3.28-1.14.67-2.61.29-3.28-.86h0Zm-176.52.78c-1.14-.67-1.52-2.13-.85-3.28,3.4-5.8,7.27-11.3,11.58-16.46.85-1.01,2.36-1.15,3.38-.3,1.01.85,1.15,2.36.3,3.38-4.14,4.95-7.86,10.24-11.12,15.81-.43.73-1.22,1.18-2.07,1.18-.42,0-.84-.11-1.2-.33h0Zm151.79-30.29c-4.93-4.14-10.23-7.81-15.84-10.96-1.15-.64-1.57-2.1-.92-3.26s2.1-1.57,3.26-.92c5.87,3.3,11.43,7.14,16.58,11.48,1.01.85,1.15,2.36.3,3.37-.46.54-1.13.86-1.84.86-.56,0-1.11-.2-1.54-.56h0Zm-127.14-.34c-.85-1.01-.72-2.52.29-3.37,5.16-4.34,10.71-8.18,16.59-11.47,1.15-.64,2.61-.23,3.26.92.65,1.15.23,2.61-.92,3.26-5.61,3.15-10.92,6.82-15.85,10.96-.43.36-.97.56-1.53.56-.71,0-1.38-.31-1.83-.85h0Zm93.67-18.32c-6.11-1.96-12.41-3.28-18.8-3.95-1.31-.21-2.2-1.43-2-2.74.19-1.22,1.27-2.09,2.5-2.03,6.72.7,13.34,2.1,19.77,4.16,1.26.4,1.95,1.75,1.55,3.01-.32.99-1.24,1.66-2.28,1.66-.25,0-.5-.04-.74-.11h0Zm-59.83-1.57c-.4-1.26.29-2.6,1.55-3.01h0c6.43-2.06,13.06-3.45,19.77-4.14,1.31-.16,2.5.78,2.66,2.09s-.78,2.5-2.09,2.66c-.03,0-.05,0-.08,0-6.39.67-12.69,1.99-18.81,3.94-.24.08-.48.12-.73.12-1.04,0-1.96-.67-2.28-1.67h0Z" fill="#fff"/>
      <rect id="_사각형_251" data-name="사각형 251" width="332" height="188" fill="none"/>
    </g>
  </g>
</svg>