<?xml version="1.0" encoding="UTF-8"?>
<svg id="Layer_2" data-name="Layer 2" xmlns="http://www.w3.org/2000/svg" viewBox="0 0 253 154">
  <g id="Logo">
    <g id="symbol_09_11_0001_01" data-name="symbol 09 11 0001 01">
      <path id="_패스_656" data-name="패스 656" d="m46.51,15.24c13.21,0,23.93,10.71,23.93,23.93s-10.71,23.93-23.93,23.93-23.93-10.71-23.93-23.93h0c.01-13.21,10.72-23.91,23.93-23.93m0-5.61c-16.31,0-29.54,13.23-29.54,29.54s13.23,29.54,29.54,29.54c16.31,0,29.54-13.23,29.54-29.54s-13.22-29.54-29.54-29.54c0,0,0,0,0,0" fill="#fff"/>
      <path id="_패스_657" data-name="패스 657" d="m126,15.24c13.21,0,23.93,10.71,23.93,23.93s-10.71,23.93-23.93,23.93-23.93-10.71-23.93-23.93c0,0,0,0,0,0,.01-13.21,10.72-23.91,23.93-23.93m0-5.61c-16.31,0-29.54,13.23-29.54,29.54,0,16.31,13.23,29.54,29.54,29.54,16.31,0,29.54-13.23,29.54-29.54s-13.22-29.54-29.54-29.54c0,0,0,0,0,0" fill="#fff"/>
      <path id="_패스_658" data-name="패스 658" d="m205.49,15.24c13.21,0,23.93,10.71,23.93,23.93s-10.71,23.93-23.93,23.93-23.93-10.71-23.93-23.93c0,0,0,0,0,0,.01-13.21,10.72-23.91,23.93-23.93m0-5.61c-16.31,0-29.54,13.22-29.54,29.54,0,16.31,13.22,29.54,29.54,29.54,16.31,0,29.54-13.22,29.54-29.54h0c0-16.31-13.22-29.54-29.54-29.54" fill="#fff"/>
      <path id="_패스_659" data-name="패스 659" d="m175.95,115.16c0-16.31,13.22-29.54,29.54-29.54,16.31,0,29.54,13.22,29.54,29.54,0,16.31-13.22,29.54-29.54,29.54h0c-16.31,0-29.54-13.22-29.54-29.54" fill="#fff"/>
      <path id="_패스_660" data-name="패스 660" d="m126,85.62H46.51c-16.31,0-29.54,13.23-29.54,29.54s13.23,29.54,29.54,29.54h79.49c16.31,0,29.54-13.23,29.54-29.54s-13.23-29.54-29.54-29.54" fill="#fff"/>
      <rect id="_사각형_2" data-name="사각형 2" width="253" height="154" fill="none"/>
    </g>
  </g>
</svg>