<?xml version="1.0" encoding="UTF-8"?>
<svg id="Layer_2" data-name="Layer 2" xmlns="http://www.w3.org/2000/svg" viewBox="0 0 162 162">
  <g id="Logo">
    <g id="symbol_11_01_0006_01" data-name="symbol 11 01 0006 01">
      <path id="_패스_928" data-name="패스 928" d="m144.58,113.93c-.23,0-.47.02-.7.02-3.16,0-6.3-.45-9.33-1.35-7.03,10.89-17.47,19.16-29.68,23.51-3.13,1.11-6.34,1.94-9.61,2.5-31.83,5.46-62.07-15.91-67.53-47.75-5.46-31.83,15.91-62.07,47.75-67.53,23.13-3.97,46.39,6.27,59.08,26.01,3.03-.89,6.17-1.35,9.33-1.35.24,0,.47.01.7.02-7.5-13.4-19.3-23.88-33.5-29.74-8.15-3.34-16.88-5.07-25.69-5.07-37.43-.02-67.78,30.31-67.8,67.74s30.31,67.78,67.74,67.8c24.6.01,47.28-13.31,59.24-34.81" fill="#fff"/>
      <path id="_패스_929" data-name="패스 929" d="m124.68,67.81c-5.64,0-10.65,3.6-12.46,8.94-2.33-6.88-9.8-10.57-16.69-8.24-6.88,2.33-10.57,9.8-8.24,16.69,2.33,6.88,9.8,10.57,16.69,8.24,3.88-1.31,6.92-4.36,8.24-8.24,2.34,6.88,9.81,10.57,16.69,8.23s10.57-9.81,8.23-16.69c-1.81-5.34-6.82-8.93-12.46-8.93" fill="#fff"/>
      <rect id="_사각형_319" data-name="사각형 319" width="162" height="162" fill="none"/>
    </g>
  </g>
</svg>