<?xml version="1.0" encoding="UTF-8"?>
<svg id="_레이어_2" data-name="레이어 2" xmlns="http://www.w3.org/2000/svg" viewBox="0 0 316 264">
  <g id="Logo">
    <g id="symbol_12_01_0002_01" data-name="symbol 12 01 0002 01">
      <path id="_패스_688" data-name="패스 688" d="M250.83,164.23l25.11,.06c14.9,.04,23.69,8.72,23.78,23.81,.11,17.31,.13,34.61-.08,51.92-.05,3.99,.86,5.51,5.12,5.35,4.07-.39,7.69,2.6,8.08,6.68,.03,.32,.04,.65,.03,.97-.02,4.48-3.2,7.58-8.07,7.83-.87,.05-1.74,.02-2.61,.02-96.6,0-193.2,0-289.8-.01-2.08,0-4.18,.18-6.19-.67-4.26-1.81-5.64-5.19-4.47-9.36,1.1-3.91,3.88-6.27,8.19-5.12,4.67,1.25,4.45-1.84,4.45-4.68,.04-17.48,.02-34.96,.04-52.44,.01-15.76,8.48-24.08,24.19-24.35,8.29-.14,16.64,1.12,24.87-.84,3.94,2.1,8.17,.86,12.25,.92,14.26,.2,23.2,8.96,23.23,23.18,.04,15.72,.01,31.45,.02,47.17,0,10.71,.01,10.53,10.85,10.64,3.95,.04,5.04-1.19,5-5.07-.18-17.82-.13-35.64-.05-53.46,.06-12.81,9.28-22.12,22-22.39,3.66-.08,7.32-.08,10.97-.11l18.4,.12h8.88c15.89,.01,24.35,8.56,24.36,24.65,.01,15.37,.02,30.75,.02,46.12,0,10.15,0,9.96,10.48,10.13,4.06,.07,5.41-1.02,5.36-5.27-.22-18.17-.17-36.33-.05-54.5,.31-11.49,9.52-20.75,21.01-21.13,4.88-.07,9.75-.12,14.63-.17Z" fill="#fff"/>
      <rect id="_사각형_254" data-name="사각형 254" x="2.45" y="3.9" width="311.54" height="20.68" rx="7.66" ry="7.66" fill="#fff"/>
      <rect id="_사각형_255" data-name="사각형 255" width="316" height="264" fill="none"/>
    </g>
  </g>
</svg>