<?xml version="1.0" encoding="UTF-8"?>
<svg id="Layer_2" data-name="Layer 2" xmlns="http://www.w3.org/2000/svg" viewBox="0 0 40 56">
  <g id="Logo">
    <g id="symbol_02_04_0001_02" data-name="symbol 02 04 0001 02">
      <g id="symbol">
        <path id="_패스_413" data-name="패스 413" d="m12.47,24.24c0,3.44-2.8,6.23-6.24,6.22C2.78,30.45,0,27.66,0,24.22c0-3.44,2.79-6.22,6.23-6.22,3.44,0,6.24,2.8,6.23,6.24h0" fill="#fff"/>
        <path id="_패스_414" data-name="패스 414" d="m23.42,5.16c0,1.96-1.59,3.54-3.54,3.54s-3.54-1.59-3.54-3.54c0-1.96,1.59-3.54,3.54-3.54h0c1.96,0,3.55,1.59,3.54,3.55h0" fill="#fff"/>
        <path id="_패스_415" data-name="패스 415" d="m39.32,45.21c0,5.11-4.15,9.24-9.26,9.24-5.11,0-9.24-4.15-9.24-9.26,0-5.1,4.15-9.24,9.25-9.24,5.11,0,9.25,4.15,9.25,9.26" fill="#fff"/>
      </g>
      <rect id="_사각형_3" data-name="사각형 3" width="40" height="56" fill="none"/>
    </g>
  </g>
</svg>