<?xml version="1.0" encoding="UTF-8"?>
<svg id="Layer_2" data-name="Layer 2" xmlns="http://www.w3.org/2000/svg" viewBox="0 0 200 200">
  <g id="Logo">
    <g id="symbol_21_01_0002_01" data-name="symbol 21 01 0002 01">
      <path id="_합치기_25" data-name="합치기 25" d="m101.3,188.92c-1.35-.23-2.68-.49-4-.79-12.53-2.82-24.14-8.79-33.71-17.36,3.4-2.1,6.83-4.29,10.3-6.56,1.18-.77,2.36-1.55,3.55-2.33.63-.42,1.25-.84,1.88-1.27.41.03.83.05,1.24.08l.67.03c1.16.05,2.32.09,3.49.09s2.33-.03,3.49-.09c.59-.03,1.18-.07,1.76-.11.51-.04,1.02-.07,1.53-.12.78-.07,1.56-.15,2.34-.25l.74-.1c.91-.12,1.82-.25,2.72-.4,1.35-.23,2.68-.49,4-.79h0c3.8-.85,7.52-2,11.14-3.43.28-.11.57-.22.85-.33.64-.26,1.27-.53,1.91-.81.44-.19.87-.39,1.3-.59.54-.25,1.07-.5,1.6-.76.56-.27,1.11-.56,1.66-.85.42-.22.84-.43,1.25-.66.96-.52,1.9-1.06,2.83-1.63.3-.18.6-.38.9-.57.53-.33,1.06-.67,1.58-1.01.74-.49,1.47-1,2.19-1.51h0c1.11-.79,2.19-1.61,3.26-2.45.04-.03.08-.06.11-.09,1.07-.86,2.12-1.74,3.14-2.65.64-.57,1.27-1.16,1.89-1.76.1-.1.21-.2.32-.3.66-.63,1.3-1.28,1.93-1.94h0c.92-.96,1.82-1.94,2.69-2.95l.04-.05c6.21-7.18,11.01-15.48,14.15-24.44.46-1.32.88-2.65,1.27-4,.67-2.34,1.23-4.73,1.68-7.15.06-.31.11-.63.17-.95.11-.65.22-1.3.31-1.96l.05-.33c6.87-6.62,13.38-13.25,19.4-19.76,5.47,9.22,8.89,19.5,10.05,30.15.14,1.32.25,2.66.32,4,.08,1.41.13,2.83.13,4.27-.02,41.74-33.87,75.55-75.6,75.53-4.19,0-8.38-.35-12.51-1.05Zm-53.38-37.69c.85.48,1.71.93,2.58,1.37.24.12.48.24.71.36.72.36,1.44.7,2.17,1.03.18.08.36.17.54.25.91.41,1.83.8,2.75,1.17.14.05.28.1.41.16.82.32,1.65.63,2.48.92.19.07.38.13.56.2,1.95.67,3.94,1.27,5.96,1.78.13.04.26.07.4.1.96.24,1.93.46,2.9.66l.2.04c1.08.22,2.17.42,3.26.59.17.03.35.05.52.08l-.44.29c-4.17,2.76-8.25,5.36-12.23,7.81-5.03-4.98-9.33-10.64-12.79-16.81Zm-13.48-9.62c-1.44-1.28-2.82-2.62-4.16-4-3.12-3.25-5.95-6.76-8.44-10.51,5.11-5.55,10.62-11.22,16.46-16.93.07-.07.13-.13.2-.2,0,.06-.01.13-.01.2-.02.35-.03.7-.05,1.04-.05,1.07-.08,2.14-.08,3.22,0,.94.02,1.87.06,2.8.01.27.03.55.04.82.03.67.07,1.33.12,1.99.02.29.05.58.07.88.06.68.13,1.35.2,2.02.03.24.05.48.08.73.1.83.22,1.66.34,2.49.01.07.02.13.03.2.31,1.91.68,3.8,1.13,5.67,0,.02.01.04.02.07.22.9.45,1.79.7,2.67.02.06.03.11.05.17.25.9.52,1.79.81,2.67.43,1.35.91,2.68,1.42,4h0c.31.81.64,1.61.98,2.41.01.04.03.07.05.11.32.73.64,1.46.98,2.19.04.1.09.19.13.29.31.66.63,1.31.96,1.96.07.14.14.28.21.42.39.76.79,1.51,1.21,2.25-4.83-2.7-9.36-5.93-13.49-9.62h0Zm-21.05-31.45c-.46-1.32-.88-2.65-1.27-4-1.95-6.79-2.94-13.83-2.94-20.9,0-41.72,33.82-75.53,75.54-75.53,4.22,0,8.43.35,12.58,1.05,1.35.23,2.68.49,4,.79,12.5,2.81,24.08,8.76,33.63,17.3-3.53,2.19-7.11,4.47-10.74,6.85-1.15.76-2.3,1.52-3.47,2.29-.52.35-1.08.73-1.61,1.09-.42-.03-.81-.07-1.23-.09-.24-.01-.48-.03-.72-.04-1.09-.05-2.18-.08-3.29-.08-1.17,0-2.33.03-3.49.09-.59.03-1.18.07-1.77.11-.51.04-1.02.07-1.53.12-.78.07-1.56.16-2.34.25-.25.03-.5.06-.74.1-.91.12-1.82.25-2.72.4-1.34.22-2.68.49-4,.78h0c-3.8.85-7.52,2-11.14,3.43-.27.11-.55.21-.82.32-.65.27-1.29.54-1.93.83-.42.19-.84.38-1.26.57-.55.25-1.09.51-1.64.78s-1.07.54-1.6.82c-.44.23-.88.45-1.31.69-.94.52-1.87,1.05-2.79,1.6h-.01c-.42.26-.82.53-1.23.79s-.85.53-1.27.81c-.76.5-1.5,1.02-2.24,1.55-2.04,1.46-3.99,3-5.87,4.65l-.03.02c-.92.81-1.83,1.64-2.71,2.49l-.07.06c-.87.84-1.71,1.7-2.54,2.57l-.11.11c-.81.87-1.6,1.75-2.37,2.65-.04.05-.09.1-.13.16-.76.9-1.5,1.81-2.22,2.75-.04.06-.09.11-.13.17-.72.95-1.42,1.91-2.1,2.89l-.1.13c-.71,1.02-1.39,2.06-2.04,3.12h0c-.29.47-.58.95-.86,1.43-.28.46-.54.94-.81,1.41-.22.39-.44.77-.65,1.16-4.2,7.81-6.98,16.31-8.21,25.09-.82.78-1.64,1.57-2.44,2.35-1.37,1.33-2.73,2.67-4.06,4-4.55,4.53-8.87,9-12.97,13.44-2.52-4.26-4.61-8.76-6.25-13.43h0Zm146.72-20.4c.02-.37.04-.73.06-1.1.05-1.13.09-2.26.09-3.41,0-1.05-.03-2.09-.07-3.13,0-.13-.01-.27-.02-.4-.05-1.01-.11-2.01-.2-3.01-.12-1.34-.27-2.68-.45-4-.48-3.45-1.2-6.85-2.16-10.2-.02-.08-.04-.16-.07-.23-.31-1.08-.65-2.16-1.01-3.22,0-.02-.01-.04-.02-.06-.33-.98-.69-1.96-1.07-2.92-.07-.17-.13-.34-.2-.52-.39-.99-.79-1.97-1.22-2.93-.02-.05-.04-.1-.07-.15-.4-.89-.81-1.77-1.24-2.63-.11-.23-.22-.46-.34-.68-.46-.91-.94-1.82-1.44-2.71,10.5,5.88,19.45,14.16,26.12,24.18-1.8,1.95-3.66,3.93-5.58,5.94l-.13.14c-3.47,3.62-7.13,7.31-10.98,11.08v-.03Zm-12.04-42.69c-.23-.12-.47-.23-.7-.35-.76-.38-1.52-.74-2.29-1.09-.14-.06-.28-.13-.43-.2-.93-.42-1.88-.82-2.83-1.19-.13-.05-.26-.1-.39-.15-.87-.34-1.74-.66-2.63-.98l-.38-.14c-2.03-.7-4.1-1.31-6.21-1.84-.07-.02-.14-.04-.21-.05-2.16-.53-4.35-.97-6.57-1.31h-.01s-.06,0-.09-.01l.08-.05c4.24-2.81,8.43-5.48,12.56-8.01,5,4.97,9.29,10.62,12.73,16.77-.86-.48-1.73-.94-2.62-1.39h0Z" fill="#fff"/>
      <rect id="_사각형_259" data-name="사각형 259" width="200" height="200" fill="none"/>
    </g>
  </g>
</svg>