<?xml version="1.0" encoding="UTF-8"?>
<svg id="Layer_2" data-name="Layer 2" xmlns="http://www.w3.org/2000/svg" viewBox="0 0 420 156">
  <g id="Logo">
    <g id="symbol_15_03_0004_01" data-name="symbol 15 03 0004 01">
      <path id="_패스_1263" data-name="패스 1263" d="m125.83,46.75v-29.97H9c0,16.55,13.42,29.97,29.98,29.97h86.86Z" fill="#fff"/>
      <path id="_패스_1264" data-name="패스 1264" d="m139.29,55.01H22.45c0,16.55,13.42,29.97,29.98,29.97h86.86v-29.97Z" fill="#fff"/>
      <path id="_패스_1265" data-name="패스 1265" d="m90.29,121.33h34.09v16.96h38.02v-16.96h0v-29.98H60.32c0,16.55,13.42,29.98,29.97,29.98h0" fill="#fff"/>
      <path id="_패스_1266" data-name="패스 1266" d="m295.04,16.78v29.97h86.86c16.55,0,29.98-13.42,29.98-29.97h-116.83Z" fill="#fff"/>
      <path id="_패스_1267" data-name="패스 1267" d="m281.58,84.99h86.86c16.55,0,29.98-13.42,29.98-29.97h-116.83v29.97Z" fill="#fff"/>
      <path id="_패스_1268" data-name="패스 1268" d="m258.46,115.12v23.17h37.95v-16.96h34.16c16.55,0,29.98-13.42,29.98-29.97h0s-102.09,0-102.09,0v23.77Z" fill="#fff"/>
      <rect id="_사각형_625" data-name="사각형 625" width="420" height="156" fill="none"/>
    </g>
  </g>
</svg>