<?xml version="1.0" encoding="UTF-8"?>
<svg id="Layer_2" data-name="Layer 2" xmlns="http://www.w3.org/2000/svg" viewBox="0 0 253 151">
  <g id="Logo">
    <g id="symbol_09_09_0001_01" data-name="symbol 09 09 0001 01">
      <path id="_패스_688" data-name="패스 688" d="m134.87,30.46c-54.94.07-99.9,43.74-101.56,98.65h-11.67c.75-8.3,3.86-31.17,16.14-53.53,19.49-35.49,52.25-53.89,97.35-54.69,1.63-.03,2.93-1.37,2.9-3-.03-1.63-1.37-2.93-3-2.9h0c-25.95.46-48.36,6.7-66.62,18.55-14.72,9.55-26.77,22.74-35.81,39.2-9.83,18.26-15.65,38.41-17.08,59.1,0,.07,0,.15,0,.23,0,1.62,1.33,2.93,2.95,2.93h17.75c1.63,0,2.95-1.32,2.95-2.95-.05-52.85,42.76-95.74,95.62-95.78,51.77-.04,94.19,41.09,95.74,92.83h-93.86c-1.63-9.03-10.26-15.02-19.29-13.4-6.82,1.23-12.16,6.57-13.4,13.4h-46.1l34.83-34.83c2.76,1.92,6.05,2.94,9.41,2.94h.13c9.17-.07,16.55-7.55,16.48-16.72-.02-3.38-1.08-6.68-3.03-9.44l18.46-18.47c11.93.32,61.41,5.24,74.29,63.72.35,1.59,1.92,2.6,3.52,2.25,1.59-.35,2.6-1.92,2.25-3.52-14.18-64.31-69.81-68.23-80.82-68.36h-.2c-.86-.07-1.71.24-2.32.85l-21.26,21.26h-.01c-.1.12-.2.24-.29.37-.02.03-.06.06-.08.1-.07.12-.14.24-.19.37-.02.05-.06.09-.07.14-.04.12-.08.24-.11.36-.02.06-.04.12-.05.18-.02.11-.03.22-.03.34,0,.08-.02.15-.02.23,0,.1.01.2.03.3,0,.09.01.18.03.26s.05.17.08.25c.02.1.05.2.09.29.03.07.07.14.11.21.05.1.1.2.16.3.04.06.1.12.14.17.07.1.15.19.23.28h.01c4.28,4.1,4.44,10.88.36,15.16-4.08,4.28-10.86,4.44-15.14.36-.08-.08-.16-.15-.24-.23-.94-.92-2.38-1.11-3.52-.45-.28.14-.54.32-.77.54l-41.65,41.65c-1.15,1.15-1.15,3.02,0,4.17.55.55,1.3.86,2.09.86h55.91c1.63,0,2.95-1.32,2.95-2.95-.01-5.91,4.77-10.72,10.69-10.73s10.72,4.77,10.73,10.69v.04c0,1.63,1.32,2.95,2.96,2.95h99.53c1.63,0,2.95-1.32,2.95-2.95-.06-56.09-45.51-101.54-101.6-101.6" fill="#fff"/>
      <path id="_패스_689" data-name="패스 689" d="m170.59,88.14c-9.17,0-16.61,7.44-16.61,16.61s7.44,16.61,16.61,16.61c9.17,0,16.61-7.44,16.61-16.61-.01-9.17-7.44-16.6-16.61-16.61m0,27.32c-5.91,0-10.71-4.79-10.71-10.71s4.79-10.71,10.71-10.71,10.71,4.79,10.71,10.71c0,5.91-4.8,10.7-10.71,10.71" fill="#fff"/>
      <rect id="_사각형_2" data-name="사각형 2" width="253" height="151" fill="none"/>
    </g>
  </g>
</svg>