<?xml version="1.0" encoding="UTF-8"?>
<svg id="Layer_2" data-name="Layer 2" xmlns="http://www.w3.org/2000/svg" viewBox="0 0 280 280">
  <g id="Logo">
    <g id="symbol_15_05_0004_02" data-name="symbol 15 05 0004 02">
      <path id="_패스_1359" data-name="패스 1359" d="m248.58,141.79c-18.11.01-35.19-8.45-46.15-22.88l-64.3,24.4-1.59-.62L10.5,92.92v118.55c0,16.49,13.37,29.86,29.86,29.86h200.16c16.49,0,29.86-13.37,29.86-29.86v-73.94c-6.93,2.82-14.33,4.26-21.81,4.26m-163.4,49.42c-4.91,0-8.89-5.17-8.89-11.55s3.98-11.55,8.89-11.55,8.89,5.17,8.89,11.55-3.98,11.55-8.89,11.55m77.77,3.42c-9.01,5.44-17.36,7.27-24.51,7.27-8.61.03-17.02-2.6-24.08-7.52-1.73-1.37-2.02-3.89-.65-5.62,1.34-1.7,3.79-2.02,5.52-.73.75.56,17.67,13,39.59-.25,1.87-1.17,4.34-.61,5.51,1.26,1.17,1.87.61,4.34-1.26,5.51-.04.02-.08.05-.11.07m32.75-3.42c-4.91,0-8.89-5.17-8.89-11.55s3.98-11.55,8.89-11.55,8.89,5.17,8.89,11.55-3.98,11.55-8.89,11.55" fill="#fff"/>
      <path id="_패스_1360" data-name="패스 1360" d="m197.54,111.36c-7.99-14.82-9.16-32.39-3.19-48.14h-15.02v-4.65c-.01-11-8.93-19.91-19.93-19.93h-37.92c-11,.01-19.91,8.93-19.93,19.93v4.65h-61.19c-13,0-24.51,8.41-28.46,20.8l126.29,49.86,59.35-22.51Zm-87.18-52.79c0-6.14,4.98-11.12,11.13-11.13h37.92c6.14,0,11.12,4.98,11.13,11.13v4.65h-60.17v-4.65Z" fill="#fff"/>
      <rect id="_사각형_653" data-name="사각형 653" width="280" height="280" fill="none"/>
    </g>
  </g>
</svg>