<?xml version="1.0" encoding="UTF-8"?>
<svg id="Layer_2" data-name="Layer 2" xmlns="http://www.w3.org/2000/svg" viewBox="0 0 138 178">
  <g id="Logo">
    <g id="symbol_02_01_0006_02" data-name="symbol 02 01 0006 02">
      <path id="_패스_1307" data-name="패스 1307" d="m103.87,128.62c-.83,0-1.65,0-2.49,0-.03-.32-.06-.49-.06-.66,0-2.41.01-4.82-.01-7.23-.01-1.28-.53-1.75-1.81-1.77-.66,0-1.31,0-2.08,0v-10.56c0-8.25,0-16.49.01-24.74,0-.37.1-.97.33-1.08,1.38-.66,1.99-1.93,2.65-3.15,2.59-4.78,3.71-9.74,2.02-15.12-2.09-6.66-4.09-13.34-6.13-20.01-.96-3.13-2.81-5.91-5.32-8.01-2.18-1.81-4.63-3.27-7.25-4.33h-1.68c-2.8,1.55-3.28,2.75-2.31,5.91.53,1.74,1.07,3.47,1.6,5.2,1.01,3.3,2.01,6.59,3.04,9.97l-45.2,13.79-4.32,1.32-11.83,3.61c-.15-.41-.28-.73-.39-1.06-.5-2-2.53-3.23-4.53-2.73-.14.03-.28.08-.41.13-.7.2-1.4.42-2.11.64-2.68.84-3.62,2.64-2.79,5.35,1.19,3.9,2.46,7.79,3.57,11.71.65,2.31,1.91,3.67,4.45,3.61v21.56h-1.63c-1.83,0-2.19.36-2.2,2.22,0,4.72,0,9.43,0,14.15v1.29c-1.06,0-1.97-.03-2.87,0-2.29.03-4.13,1.89-4.12,4.18-.03,1.36,0,2.73,0,4.09,0,2.1.31,2.41,2.42,2.41h93.48c.25,0,.49,0,.74,0,1.14-.04,1.66-.55,1.68-1.68.02-1.5.01-3,0-4.51.15-2.32-1.6-4.33-3.92-4.48-.18-.01-.36-.01-.53,0m-5.53-.06h-4.7v-6.64h4.7v6.64Zm-7.67-.03h-18.92c-.34-3.79-.69-7.54-1.02-11.3-.68-7.55-1.36-15.1-2.03-22.64-.37-4.17-.75-8.35-1.11-12.52-.14-1.63-.52-2.01-2.14-2.03h-1.76v-8.75l24.05-7.34c.5,1.61.99,3.17,1.46,4.72,1.13,3.7,2.22,7.42,3.43,11.1.4.83.89,1.62,1.47,2.34.21.25.35.55.41.87.02,11.84.02,23.68,0,35.53-.02.15-.05.29-.09.44h-1.41c-2,0-2.33.33-2.33,2.28v7.3m-63.01-15.48c0-1.7-.39-2.09-2.09-2.09h-1.69c-.02-.42-.06-.79-.07-1.15,0-6.78,0-13.55-.01-20.33-.1-.58.24-1.15.81-1.33,1.69-.7,2.58-2.56,2.07-4.31-.08-.34-.18-.67-.31-1.15l4.61-1.41,3.8-1.16,16.83-5.13v5.07c-.75,0-1.44,0-2.13,0-.83-.07-1.56.54-1.63,1.37,0,.06,0,.11,0,.17-.57,5.91-1.13,11.82-1.7,17.72-.67,6.98-1.34,13.97-2.01,20.96-.26,2.74-.52,5.48-.79,8.27h-15.68v-15.5m27.79-20.56c.2.32.24.71.1,1.05-2.15,3.06-4.35,6.08-6.54,9.11-.03.05-.12.06-.29.12.55-5.73,1.09-11.35,1.64-17.11.17.14.33.29.48.45,1.54,2.12,3.1,4.23,4.6,6.38m-6.88,11.98c2.52,3.22,4.85,6.19,7.24,9.26-3.02,3.79-6.03,7.57-9.03,11.34l-.18-.12c.65-6.72,1.29-13.43,1.97-20.47m7.63,13.43v10.61h-8.45l8.46-10.61m-4.44-14.07l4.44-6.16v11.84c-1.49-1.91-2.95-3.77-4.44-5.68m.45-20.81h3.99v5.5l-3.99-5.5m2.44-3.05c0-2.21-.13-4.37.04-6.51.2-1.62,1.66-2.77,3.28-2.58,1.58.06,2.85,1.31,2.92,2.88.09,2.04.02,4.09.02,6.2h-6.27Zm4.86,13.11l5.47-7.57c.52,5.84,1.02,11.35,1.51,16.86-.06.03-.12.06-.17.09l-6.8-9.38m3.84,11.12c-1.42,1.85-2.87,3.67-4.37,5.55v-12.45l.12.16c1.37,1.89,2.76,3.78,4.1,5.7.19.27.31.85.16,1.04m-4.38-15.36v-5.83h4.2l-4.2,5.83m0,28.94l8.39,10.73h-8.39v-10.73Zm.53-4.04c2.35-2.95,4.67-5.86,7.19-9.02.62,6.89,1.2,13.48,1.79,20.07l-.23.12-8.75-11.18m-40.33-28.88c-1.19-3.87-2.37-7.74-3.55-11.61-.38-1.23-.27-1.43.96-1.81.67-.21,1.34-.39,2-.61.44-.22.99-.04,1.21.4.04.08.07.17.08.26.22.66.41,1.33.62,2,.44,1.4,1.02,1.71,2.44,1.28,3.56-1.08,7.12-2.17,10.67-3.25l4.15-1.27,3.02-.92c15-4.58,30-9.15,45.01-13.72,1.88-.57,2.12-1.01,1.55-2.88-1.64-5.37-3.27-10.74-4.91-16.12-.07-.2-.13-.4-.18-.6-.18-.93.33-1.42,1.18-1.04,4.79,2.16,8.65,5.2,10.23,10.53,1.93,6.52,4,13,5.95,19.52.43,1.42.62,2.92.93,4.38-.29,3.56-1.48,6.98-3.45,9.95-.17.27-.75.6-.89.51-.39-.26-.68-.63-.84-1.06-1.69-5.43-3.35-10.87-5.01-16.3-.57-1.86-.98-2.08-2.8-1.52-8.45,2.58-16.91,5.16-25.36,7.75-.58.21-1.23.16-1.77-.13-2.87-1.4-6.33-.35-7.94,2.42-.3.48-.76.84-1.29,1.03-5.19,1.61-10.38,3.2-15.58,4.79l-3.9,1.19-6.98,2.13c-1.63.5-1.91,1-1.4,2.61.88,2.8.96,2.53-1.82,3.36-1.77.53-1.78.54-2.32-1.25m.81,29.03h4.69v14.65h-4.69v-14.65Zm85.42,22.43H12.95c-.05-1.25-.04-2.5.05-3.75.05-.39.68-.77,1.12-1.02.27-.15.68-.04,1.03-.04h88.02c2.02,0,2.24.21,2.24,2.21v2.6" fill="#fff"/>
      <path id="_패스_1308" data-name="패스 1308" d="m120.09,14c-4.22,0-7.63,3.42-7.63,7.64s3.42,7.64,7.63,7.64,7.64-3.42,7.64-7.64-3.42-7.64-7.64-7.64h0" fill="#fff"/>
      <path id="_패스_1309" data-name="패스 1309" d="m64,149.58c-4.22,0-7.63,3.42-7.63,7.63,0,4.22,3.42,7.63,7.64,7.63,4.21,0,7.63-3.42,7.63-7.63.02-4.2-3.38-7.62-7.58-7.63-.02,0-.04,0-.06,0" fill="#fff"/>
      <rect id="_사각형_413" data-name="사각형 413" width="138" height="178" fill="none"/>
    </g>
  </g>
</svg>