<?xml version="1.0" encoding="UTF-8"?>
<svg id="Layer_2" data-name="Layer 2" xmlns="http://www.w3.org/2000/svg" viewBox="0 0 116 116">
  <g id="Logo">
    <g id="symbol_21_01_0006_02" data-name="symbol 21 01 0006 02">
      <path id="_합치기_37" data-name="합치기 37" d="m10,58.07C10,27.66,34.66,3,65.07,3c2.69,0,5.38.2,8.04.59-27.01,3.99-47.03,27.17-47.03,54.48,0,27.31,20.02,50.49,47.03,54.48-2.66.39-5.35.59-8.04.59-30.41,0-55.07-24.66-55.07-55.07Zm64.82,13.54c4.59-.03,9.18-.4,13.72-1.11-.7,3.52-1.6,7-2.69,10.41-3.51,1.43-7.24,2.22-11.03,2.35v-11.65Zm-13.27,9.28c-1.11-3.46-2.01-6.98-2.71-10.55,4.56.76,9.17,1.18,13.79,1.25v11.66c-3.8-.12-7.56-.92-11.08-2.36h0Zm29.29-10.79c3.57-.65,7.09-1.52,10.56-2.6-3.07,5.18-7.53,9.39-12.87,12.16.94-3.15,1.71-6.34,2.32-9.56h0Zm-44.94-2.85c3.49,1.09,7.03,1.99,10.62,2.67.61,3.28,1.39,6.52,2.34,9.71-5.41-2.82-9.9-7.12-12.97-12.39h0Zm28.92-15.05h15.47c.03,5.36-.42,10.72-1.33,16-4.67.77-9.4,1.17-14.14,1.21v-17.21Zm-16.4,15.84c-.89-5.23-1.33-10.53-1.3-15.84h15.5v17.2c-4.76-.08-9.51-.54-14.21-1.36h0Zm34.05-15.84h13.4c-.14,4.33-1.16,8.58-2.99,12.51-3.8,1.31-7.68,2.34-11.62,3.09.84-5.16,1.25-10.37,1.21-15.6h0Zm-48,12.27c-1.77-3.86-2.75-8.03-2.88-12.27h13.35c-.03,5.16.37,10.31,1.19,15.41-3.95-.79-7.84-1.84-11.65-3.13h0Zm12.69-14.47c.16-5.36.79-10.7,1.9-15.95,4.49-.75,9.02-1.17,13.57-1.25v17.2h-15.47Zm35.27,0c-.15-5.28-.75-10.54-1.8-15.71,4.16.76,8.25,1.83,12.25,3.21,1.83,3.92,2.85,8.18,2.99,12.51h-13.44Zm-17.61,0v-17.21c4.52.03,9.03.4,13.5,1.1,1.12,5.3,1.77,10.69,1.93,16.11h-15.43Zm-33.23,0c.14-4.24,1.12-8.41,2.88-12.27,4.01-1.36,8.11-2.45,12.27-3.26-1.02,5.12-1.61,10.31-1.77,15.53h-13.39Zm18.68-28.12c-1.23,3.35-2.24,6.78-3.03,10.27-3.83.71-7.62,1.64-11.33,2.81,3.33-5.73,8.35-10.29,14.37-13.08h0Zm29.86,10.1c-.78-3.43-1.78-6.82-3-10.12,5.95,2.74,10.93,7.22,14.27,12.85-3.69-1.16-7.46-2.07-11.27-2.73h0Zm-27.06-11.23c3.08-1.08,6.31-1.68,9.57-1.79v11.65c-4.37.07-8.73.45-13.05,1.13.88-3.75,2.05-7.43,3.49-11h0Zm11.76,9.86v-11.65c3.24.11,6.45.7,9.52,1.77,1.43,3.53,2.59,7.17,3.47,10.87-4.3-.64-8.64-.97-12.98-1h0Z" fill="#fff"/>
      <rect id="_사각형_316" data-name="사각형 316" width="116" height="116" fill="none"/>
    </g>
  </g>
</svg>