<?xml version="1.0" encoding="UTF-8"?>
<svg id="_레이어_2" data-name="레이어 2" xmlns="http://www.w3.org/2000/svg" viewBox="0 0 115 116">
  <g id="Logo">
    <g id="symbol_13_01_0005_01" data-name="symbol 13 01 0005 01">
      <path id="_패스_949" data-name="패스 949" d="m56.7,59.12c0-2.58,0-5.16,0-7.74,0-.44.13-1.1-.43-1.18-1.06-.08-2.13.1-3.1.53-.79.29-.52,1.1-.53,1.71-.02,4.42.05,8.85-.05,13.27-.03,1.49.52,2.12,1.91,2.21.28.01.55.06.82.13,1.08.32,1.4-.16,1.39-1.18-.03-2.58,0-5.16-.01-7.74" fill="#fff"/>
      <path id="_패스_950" data-name="패스 950" d="m64.12,51.81c.1-.58-.3-1.14-.88-1.23-.03,0-.07,0-.1-.01-.5-.07-1-.17-1.49-.3-.98-.29-1.34.07-1.33,1.07.04,2.58.01,5.15.01,7.73v7.18c0,2.02,0,2.04,2,1.65.82-.16,1.8-.14,1.79-1.44-.03-4.88-.01-9.76,0-14.63" fill="#fff"/>
      <path id="_패스_951" data-name="패스 951" d="m58.18,12.91c-25.42,0-46.03,20.61-46.03,46.02s20.61,46.03,46.02,46.03,46.03-20.61,46.03-46.03h0c0-25.42-20.61-46.02-46.02-46.02m39.18,59.31c-.44,1.69-2.15,2.72-3.85,2.33-3.6-.67-6.94-2.33-9.66-4.78-1.56-1.37-3-2.86-4.32-4.47-.53-.64-.68-1.12-.08-1.78.65-.72,1.23-1.49,1.8-2.27.61-.83,1.12-.74,1.72.03,1.24,1.49,2.68,2.8,4.27,3.91.7.52.98.31.98-.5,0-3.68,0-7.37,0-11.06,0-1.04-.44-.92-1.08-.47-2.36,1.77-4.47,3.86-6.24,6.22-2.47,3.33-5.15,6.5-8.02,9.49-6.41,6.17-15.02,7.76-22.98,4.19-3.93-1.76-6.84-4.76-9.55-8.01-.38-.33-.41-.9-.08-1.28.02-.02.04-.04.06-.07.06-.07.11-.15.17-.22.8-.95,1.34-2.48,2.44-2.7,1.16-.24,1.65,1.46,2.58,2.16.81.61,1.54,1.31,2.33,1.94s1.13.37,1.13-.58c0-3.55-.01-7.1,0-10.64,0-.94-.33-.88-.96-.43-2.54,1.99-4.8,4.32-6.71,6.92-2.98,3.68-5.7,7.61-9.52,10.52-2.43,1.92-5.29,3.24-8.33,3.84-1.77.48-3.6-.56-4.08-2.33,0,0,0,0,0-.01-.44-1.72.59-3.47,2.31-3.92.12-.03.23-.05.35-.07,3.2-.69,2.83-.26,2.84-3.66.02-4.05-.04-8.11.03-12.16.03-1.36-.5-1.95-1.79-2.04-.46-.04-.91-.13-1.36-.26-1.75-.43-2.82-2.19-2.39-3.94.41-1.69,2.08-2.76,3.79-2.42,3.92.74,7.54,2.61,10.41,5.38,1.3,1.24,2.53,2.55,3.69,3.92.51.58.64,1.05.1,1.67-.69.8-1.34,1.64-1.97,2.49-.51.68-.92.57-1.42-.03-1.25-1.48-2.68-2.8-4.26-3.92-.28-.2-.57-.58-.97-.34-.31.19-.2.59-.2.9,0,1.8,0,3.59,0,5.39,0,1.61-.02,3.23.01,4.84,0,.47-.28,1.14.29,1.37.5.2.9-.36,1.29-.65,2.09-1.66,3.97-3.58,5.6-5.7,2.49-3.31,5.16-6.48,8-9.5,8.4-8.21,20.73-8.29,29.15-.11.86.83,1.69,1.7,2.51,2.57.38.4.69.86,1.05,1.28.35.33.36.87.04,1.22-.04.04-.08.08-.13.11-.98.98-1.42,2.49-2.88,2.98-.17.06-.56-.42-.79-.7-1.17-1.3-2.46-2.5-3.84-3.57-.24-.2-.5-.51-.84-.38-.38.14-.24.56-.24.86-.01,3.55-.01,7.09,0,10.64,0,.31-.13.73.2.89.4.19.66-.23.94-.44,2.61-2.12,4.95-4.56,6.94-7.27,2.25-3.09,4.76-5.99,7.49-8.67,2.76-2.62,6.19-4.41,9.92-5.17,1.76-.5,3.59.52,4.09,2.28,0,0,0,.02,0,.03.47,1.73-.56,3.52-2.29,3.98-.14.04-.29.07-.43.09-3.15.66-2.75.32-2.76,3.43-.02,4.19.02,8.39-.02,12.58-.01,1.08.37,1.63,1.44,1.75.55.07,1.09.18,1.63.32,1.74.36,2.85,2.06,2.49,3.8-.01.07-.03.14-.05.21" fill="#fff"/>
      <path id="_패스_952" data-name="패스 952" d="m111.14,58.93c.08,29.64-22.47,55.38-52.96,54.7-25.02-.37-47.52-19.97-52.7-44.22C-4.95,22.82,45.83-13.34,86.36,11.92c15.73,9.98,24.91,28.59,24.78,47.02m-.48,0c.15-17.17-9.8-33.42-24.31-42.18C52.15-4.39,8.31,18.49,6.76,58.93c-.9,20.63,12.24,40.52,31.75,47.5,32.51,12.41,72.42-11.55,72.16-47.5" fill="#fff"/>
      <rect id="_사각형_345" data-name="사각형 345" width="115" height="116" fill="none"/>
    </g>
  </g>
</svg>