<?xml version="1.0" encoding="UTF-8"?>
<svg id="Layer_2" data-name="Layer 2" xmlns="http://www.w3.org/2000/svg" viewBox="0 0 310 146">
  <g id="Logo">
    <g id="symbol_03_12_0002_01" data-name="symbol 03 12 0002 01">
      <path id="_패스_783" data-name="패스 783" d="m303.62,38.52V9.24C156.94,83.56,6.24,9.24,6.24,9.24v29.32c28.89,7.26,58.29,12.37,87.93,15.28,51.65,5.23,129.14,6.62,209.45-15.32" fill="#fff"/>
      <path id="_패스_784" data-name="패스 784" d="m303.62,103.88v-29.73H6.24v29.69c28.72-7.14,57.91-12.19,87.36-15.09,51.81-5.25,129.44-6.67,210.02,15.12" fill="#fff"/>
      <path id="_패스_786" data-name="패스 786" d="m94.17,91.59c-29.65,2.91-59.04,8.01-87.93,15.27v29.32s150.7-74.31,297.38,0v-29.28c-80.3-21.93-157.8-20.54-209.45-15.32" fill="#fff"/>
      <rect id="_사각형_133" data-name="사각형 133" width="310" height="146" fill="none"/>
    </g>
  </g>
</svg>