<?xml version="1.0" encoding="UTF-8"?>
<svg id="_레이어_2" data-name="레이어 2" xmlns="http://www.w3.org/2000/svg" viewBox="0 0 219 195">
  <g id="Logo">
    <g id="symbol_21_01_0008_01" data-name="symbol 21 01 0008 01">
      <path id="_패스_1361" data-name="패스 1361" d="m33.49,21.03c0,6.64-5.39,12.03-12.03,12.03s-12.03-5.39-12.03-12.03c0-6.64,5.38-12.03,12.03-12.03,6.64,0,12.03,5.39,12.03,12.03h0" fill="#fff"/>
      <path id="_패스_1362" data-name="패스 1362" d="m212.12,170.72c0,6.64-5.39,12.03-12.03,12.03s-12.03-5.39-12.03-12.03,5.39-12.03,12.03-12.03,12.03,5.39,12.03,12.03h0" fill="#fff"/>
      <path id="_패스_1363" data-name="패스 1363" d="m128.46,11.59c-1.16,11.23,3.67,20.15,10.16,29.04,3.72,5.09,4.01,12.14,4.85,18.5.96,7.26-1.91,10.73-9.09,10.7-3,0-3.76.76-3.67,3.45.11,3.22.02,6.44-.02,9.66-.05,4.95-2.25,8.14-7.37,8.92-.21.03-.5-.05-.63.07-7.36,6.73-14.55,3.97-21.97-.07-4.7-2.56-9.06-5.7-14.21-7.56-2.46-.89-2.7-4.2-2.73-6.83-.06-4.94-.02-9.87-.02-14.81h.22c0-4.93-.11-9.87.03-14.8.16-5.86,2.44-11.45,6.42-15.75,2.49-2.78,4.76-5.37,4.17-9.52-.03-.23-.04-.47-.04-.7h-.01v-10.49C47.85,20.45,17.32,65.66,26.38,112.37c1.09,5.63,2.74,11.13,4.92,16.43.18-.13.37-.24.58-.31,8.55-2.89,9.72-10.95,13.15-17.64,3.9-7.6,10.74-12.84,17.61-17.57,5.27-3.63,9.9-.93,13.19,7.1,4.12-2.32,7.81-4.5,11.58-6.52,4.55-2.43,8.77-2.1,11.93,2.3.95,1.41,2.38,2.43,4.02,2.86,5.55,1.59,6.58,5.21,6.23,10.82-.42,5.27-.11,10.57.92,15.75,1.29,5.67,0,9.22-4.58,11.92-8.13,4.79-16.31,9.5-24.58,14.04-5.22,2.86-11.03,4.18-16.8,2.71-4.99-1.27-9.16-.82-13.31,2.19-.31.22-.64.46-.98.69,33.65,33.53,88.11,33.43,121.64-.22.37-.37.74-.74,1.1-1.12-4.33-2.46-8.91-2.38-14.07-1.21-9.94,2.26-19-1.9-27.86-5.62-5.3-2.23-6.57-7.13-3.2-12.29,1.9-2.9,1.3-3.87-1.34-5.16-2.5-1.22-4.81-2.81-7.25-4.15-5.09-2.8-7.05-6.76-4.52-12.28.65-1.34.77-2.87.34-4.29-1.41-5.49.77-8.63,5.99-11.02,4.99-2.37,9.62-5.44,13.74-9.12,3.79-3.31,7.37-4.28,11.62-1.87,8.58,4.85,17.15,9.75,25.56,14.89,4.92,2.81,8.57,7.41,10.17,12.85,1.12,4.82,4.51,8.81,9.08,10.7h.03c17.26-44.32-4.69-94.26-49.02-111.52-4.49-1.75-9.13-3.12-13.85-4.09" fill="#fff"/>
      <rect id="_사각형_685" data-name="사각형 685" width="219" height="195" fill="none"/>
    </g>
  </g>
</svg>