<?xml version="1.0" encoding="UTF-8"?>
<svg id="Layer_2" data-name="Layer 2" xmlns="http://www.w3.org/2000/svg" viewBox="0 0 242 242">
  <g id="Logo">
    <g id="symbol_07_01_0007_02" data-name="symbol 07 01 0007 02">
      <path id="_패스_1489" data-name="패스 1489" d="m167.88,92.97c.77-.47,1.72-.55,2.55-.21,8.78,4.11,18.65,5.29,28.15,3.35,22.07-4.26,38.32-26.64,35.21-48.55-.29-2.03-.69-3.92-2.89-4.59-2.14-.66-3.66.49-5.11,1.96-5.76,5.83-11.58,11.58-17.34,17.4-.77,1-2.1,1.39-3.29.96-6.33-1.76-12.7-3.42-19.09-4.98-1.26-.18-2.24-1.18-2.41-2.44-1.56-6.21-3.17-12.41-4.93-18.57-.52-1.33-.12-2.85,1-3.74,5.97-5.85,11.83-11.8,17.76-17.69,1.39-1.38,2.29-3.08,1.34-4.74-.82-1.31-2.13-2.24-3.64-2.58-31.67-4.29-57.51,25.92-48.38,56.52.63,1.55.15,3.32-1.17,4.35-9.44,9.3-18.79,18.7-28.17,28.06-.58.57-1.2,1.11-2.23,2.06-.59-.88-1.24-1.73-1.93-2.53-16.88-16.9-33.7-33.86-50.73-50.61-3.34-3.28-5.73-6.65-6.06-11.4-.14-2.02-.57-4.01-1.28-5.9-.49-1.47-1.41-2.76-2.65-3.69-9.03-5.6-18.17-11.02-27.29-16.47-2.55-1.52-3.99-1.33-6.09.74-3.48,3.44-6.94,6.9-10.38,10.39-2.16,2.18-2.31,3.58-.68,6.3,5.41,9.05,10.79,18.11,16.36,27.06.96,1.33,2.34,2.29,3.91,2.73,3.31.95,6.78,1.34,10.13,2.18,1.36.33,2.62,1,3.64,1.95,18.17,18.12,36.33,36.25,54.47,54.4.58.58,1.12,1.2,1.75,1.89-10.1,10.1-20.11,20.02-30,30.06-1,1.23-2.7,1.64-4.16,1-27.44-8.37-56,11.94-57.12,40.58-1.09,27.81,22.32,49.42,50.11,46.24,21.28-2.44,38.22-20.84,38.96-42.25.28-7.68-1.39-15.3-4.85-22.16l30.27-30.44c3.63,3.65,7.33,7.33,10.96,11.08.38.47.51,1.1.34,1.69-1.18,2.42-.24,4.18,1.47,5.86,3.01,2.96,6.03,5.91,8.9,9,2.15,2.31,4.34,3.83,7.17,1.84,1.99,1.92,3.8,3.65,5.7,5.47-.57.61-1.05,1.17-1.58,1.7-3.07,3.13-3.1,4.82-.06,7.88,2.87,2.87,5.73,5.73,8.6,8.59,11.93,11.94,23.88,23.87,35.85,35.78,5.73,5.7,12.58,7.78,20.41,5.55,10.71-3.03,16.94-14.17,13.91-24.88-.92-3.25-2.65-6.23-5.02-8.64-8.08-8.38-16.44-16.5-24.68-24.74-6.74-6.75-13.49-13.49-20.25-20.22-3.13-3.12-4.79-3.13-7.89-.09-.59.58-1.21,1.13-1.74,1.63l-5.52-5.4c1.28-3.35,1.24-4.29-.68-6.25-3.54-3.62-7.14-7.18-10.74-10.75-1.26-1.46-3.33-1.91-5.08-1.09-.63.23-1.33.16-1.9-.2-3.76-3.62-7.44-7.33-11.08-10.96h0c.07-.24.17-.46.3-.66,9.56-9.66,19.17-19.27,28.83-28.82m3.26,82.97l44.63,44.63-4.4,4.4-44.63-44.63,4.4-4.4Zm-17.47-32.58l5.25,5.17-11.08,11.05-4.95-5.37,10.78-10.85Zm-84.93,52.8c-3.68,3.72-7.35,7.45-11.13,11.05-.74.59-1.69.84-2.62.68-5.07-1.24-10.11-2.58-15.13-4.03-.82-.31-1.46-.95-1.77-1.76-1.45-5.01-2.81-10.05-4.02-15.13-.13-1.01.18-2.03.86-2.8,3.49-3.66,7.07-7.24,10.73-10.73.71-.62,1.65-.91,2.59-.8,5.08,1.22,10.11,2.6,15.14,3.99.64.18,1.55.68,1.7,1.22,1.57,5.5,3,11.05,4.57,16.93h0c-.25.49-.56.95-.91,1.38m18.21-41.49l-4.4-4.4,67.26-67.25,4.4,4.4-67.26,67.25Z" fill="#fff"/>
      <rect id="_사각형_520" data-name="사각형 520" width="242" height="242" fill="none"/>
    </g>
  </g>
</svg>