<?xml version="1.0" encoding="UTF-8"?>
<svg id="_레이어_2" data-name="레이어 2" xmlns="http://www.w3.org/2000/svg" viewBox="0 0 257 292">
  <g id="Logo">
    <g id="symbol_09_03_0001_01" data-name="symbol 09 03 0001 01">
      <path id="Path_268" data-name="Path 268" d="M257,161H0c0,49.08,29.96,91.45,73.31,111.24v19.76h110.38v-19.76c43.35-19.79,73.31-62.16,73.31-111.24Z" fill="#fff"/>
      <path id="Path_269" data-name="Path 269" d="M129,0C77.58,0,35.49,39.71,32,90H226C222.51,39.71,180.42,0,129,0Zm-25.33,50.84c-.02-3.24,2.6-5.88,5.84-5.9s5.88,2.6,5.9,5.84c.02,3.24-2.6,5.88-5.84,5.9-.01,0-.02,0-.03,0-3.23,0-5.86-2.6-5.86-5.84Zm25.33,22.12c-8.52,.13-16.38-4.53-20.36-12.06h40.72c-3.98,7.53-11.85,12.19-20.36,12.06h0Zm20.36-16.28c-3.22-.02-5.82-2.64-5.81-5.86,.02-3.22,2.64-5.82,5.86-5.81,3.21,.02,5.81,2.62,5.81,5.84,0,3.23-2.63,5.84-5.87,5.83h0Z" fill="#fff"/>
    </g>
  </g>
</svg>