<?xml version="1.0" encoding="UTF-8"?>
<svg id="_레이어_2" data-name="레이어 2" xmlns="http://www.w3.org/2000/svg" viewBox="0 0 99 78">
  <g id="Logo">
    <g id="symbol_04_03_0005_01" data-name="symbol 04 03 0005 01">
      <path id="_패스_1269" data-name="패스 1269" d="m15.67,74.32l-.05.02c8.42-10.92,7.57-20.92-1.31-30.88-4.78-5.35-6.04-11.23-3.77-17.36,1.06-2.65,2.47-5.16,4.19-7.44.73-1.02.79-2.07-.97-2.71-1.41-.56-3.03-.21-4.08.88-.97.9-1.84,1.91-2.59,3-6.2,9.22-5.03,18.18,2.69,26.79,3.61,4.02,5.51,8.06,5.72,12.13.14,2.52-2.28,10.05-4.57,12.56-.3.33-1.68,1.75-.94,3.04.09.15.19.28.31.4.61.5,1.37.79,2.15.82.56.02,1.11-.08,1.64-.27.6-.19,1.15-.53,1.58-.99" fill="#fff"/>
      <path id="_패스_1270" data-name="패스 1270" d="m50.84,74.04l-.05.03c8.42-13.31,7.57-25.51-1.3-37.64-4.67-6-6.08-13.92-3.77-21.16,1.03-3.18,2.43-6.22,4.18-9.07.73-1.25.79-2.52-.97-3.3-1.44-.67-3.16-.22-4.08,1.08-.99,1.13-1.86,2.35-2.59,3.66-6.2,11.24-5.03,22.16,2.69,32.65,3.61,4.9,5.51,9.83,5.72,14.78.13,3.07-2.28,12.25-4.57,15.31-.3.41-1.68,2.14-.95,3.71.08.17.19.34.31.49.57.59,1.34.95,2.15.99.56.02,1.12-.1,1.64-.33.63-.25,1.18-.67,1.58-1.21" fill="#fff"/>
      <path id="_패스_1271" data-name="패스 1271" d="m90.27,74.32l-.05.02c8.42-10.92,7.57-20.92-1.3-30.88-4.77-5.35-6.04-11.23-3.77-17.36,1.06-2.65,2.47-5.16,4.19-7.44.73-1.02.79-2.07-.97-2.71-1.41-.56-3.03-.21-4.08.88-.97.9-1.84,1.91-2.59,3-6.2,9.22-5.03,18.18,2.69,26.79,3.61,4.02,5.51,8.06,5.72,12.13.13,2.52-2.28,10.05-4.57,12.56-.3.33-1.68,1.75-.95,3.04.09.15.19.28.31.4.61.5,1.37.79,2.15.82.56.02,1.11-.08,1.64-.27.6-.19,1.15-.53,1.58-.99" fill="#fff"/>
      <rect id="_사각형_406" data-name="사각형 406" width="99" height="78" fill="none"/>
    </g>
  </g>
</svg>