<?xml version="1.0" encoding="UTF-8"?>
<svg id="_레이어_2" data-name="레이어 2" xmlns="http://www.w3.org/2000/svg" viewBox="0 0 246 246">
  <g id="Logo">
    <g>
      <path d="m139.68,192c-37.23,1.03-67.75-28.8-71.46-62.34-.28-2.53.18-4.6,1.57-6.73,10.69-16.37,30.92-21.96,49.86-13.89,8.72,3.71,16.4,9.15,24.45,13.98,6.62,3.98,13.36,7.78,20.96,9.63,14,3.4,25.58-1.95,36.32-10.19,2.54-1.95,4.91-4.13,7.34-6.22.52-.44,1-1.29,1.7-.73.43.35.57,1.22.61,1.87,1.58,27.63-11.06,51.32-34.24,65-11.53,6.8-23.98,10.1-37.1,9.62Z" fill="#fff"/>
      <path d="m199.04,179.92c-23.54,34.4-74.55,52.86-120.82,29.14-44.47-22.8-65.7-75.09-45.22-123.62C53.48,36.9,103.68,21.41,137.05,28.63c-30.5,2.76-55.11,15.76-71.22,42.13-16.18,26.47-18,54.35-4.39,82.43,12.63,26.06,33.62,42.13,62.05,47.76,28.53,5.64,53.45-2.73,75.54-21.03Z" fill="#fff"/>
      <path d="m155.83,80.12c5.07-2.76,10.42-3.08,15.19.28,3.95,2.79,7.47,2.89,11.45.55,5.39-3.15,11.58-2.68,16.37,1.12.51.41,1.01.89,1.6,1.12,1.4.55,2.45,0,2.09-1.52-1.22-5.2-2.82-10.37-5.31-15.03-2.69-5.01-5.48-10.06-9.1-14.52-2.97-3.66-5.69-7.52-8.89-10.99-1.08-1.16-1.87-.98-2.72-.06-2.03,2.22-4,4.49-5.96,6.78-4.66,5.42-8.8,11.19-12.51,17.33-3.04,5.04-5.8,10.09-7.1,15.87,1.92.66,3.32-.09,4.88-.94Z" fill="#fff"/>
      <path d="m201.74,87.84c-.19-.1-.07-.43-1.34-.52-2.36-.15-4.1-1.44-5.87-2.67-3.44-2.37-6.75-2.96-10.52-.44-5.25,3.51-10.48,3.31-15.6-.65-1.96-1.51-4.35-2.04-6.98-1.27-3.3.97-6.07,3.24-9.58,3.67,0,0-.49.45-.9.91-3.23,3.68-2.77,12.43-.33,18.56,3.08,7.76,11.93,17.9,25.51,17.9s22.52-10.6,25.51-17.9c2.65-6.46,3.18-15.96.11-17.61Z" fill="#fff"/>
      <path d="m204.37,205.37c-28.24,28.63-71.35,41.89-110.67,32.33C14.59,218.79-18.52,125.35,25.18,58.42,55.15,11.45,116.25-7.51,167.68,13.89c78.28,32.39,96.24,132.22,36.69,191.48h0Zm-.37-.37c32.71-32.33,41.1-83.16,22.97-125C199.14,14.49,118.8-10.27,59.03,28.58-18.63,79.82-5.6,192.11,78.93,228.17c41.92,17.91,92.77,9.64,125.08-23.17h0Z" fill="#fff"/>
      <rect width="246" height="246" fill="none"/>
    </g>
  </g>
</svg>