<?xml version="1.0" encoding="UTF-8"?>
<svg id="_레이어_2" data-name="레이어 2" xmlns="http://www.w3.org/2000/svg" viewBox="0 0 223 203">
  <g id="Logo">
    <g id="symbol_05_04_0004_01" data-name="symbol 05 04 0004 01">
      <path id="_패스_1380" data-name="패스 1380" d="m11.29,72c6.18,1.36,12.45,2.23,18.76,2.61,3.81,6.29,3.05,12.73-2.46,19.24-2.53,2.69-5.22,5.24-8.04,7.63-10.28,9.56-11.34,19.85-6.24,30.56,2.36,4.95,7.79,8.9,12.28,13.15,8.46,8.01,9.08,16.34,1.93,24.77-1.36,1.55-2.83,3-4.4,4.34-8.88-21.35-14-46.2-14-72.75,0-9.89.73-19.77,2.18-29.55" fill="#fff"/>
      <path id="_패스_1381" data-name="패스 1381" d="m33.19,109.37c2.52-2.7,5.2-5.25,8.03-7.64,9.28-8.61,11.09-17.8,7.63-27.35,10.04-.8,19.94-2.92,29.42-6.32.41.39.83.78,1.23,1.18,8.12,7.96,8.93,16.13,1.99,24.46-2.52,2.7-5.2,5.25-8.03,7.64-10.46,9.74-12.11,20.26-5.98,31.03,2.54,4.45,7.41,8.45,11.63,12.51,8.57,8.23,9.48,16.66,1.98,25.25-2.98,3.42-7.01,6.51-10.23,9.86-4.65,5.01-6.96,10.71-6.68,16.46l-29.71.05c-1.45-2.34-2.85-4.75-4.21-7.21,1.28-2.29,2.93-4.34,4.89-6.07,2.01-1.86,4.1-3.68,6.1-5.54,10.36-9.62,11.82-20.06,5.91-30.68-2.58-4.63-7.73-8.76-12.02-13-4.26-3.97-6.59-8.6-6.73-13.35.19-4.21,1.87-8.21,4.76-11.28" fill="#fff"/>
      <path id="_패스_1382" data-name="패스 1382" d="m86.93,109.41c2.47-2.65,5.1-5.15,7.88-7.48,10.56-9.78,12.24-20.37,6.04-31.19-2.28-3.51-5.07-6.66-8.26-9.36,15.5-9.07,24.26-21.62,24.25-34.74,0-6.92-2.44-13.76-7.16-20.05h29.81c.59,3.59-.56,7.24-3.1,9.85-2.86,3.13-6.17,6.09-9.35,9.1-10.24,9.65-11.32,19.98-6.02,30.74,2.41,4.88,7.79,8.75,12.19,12.96,8.33,7.96,9,16.23,1.94,24.62-2.53,2.7-5.22,5.24-8.04,7.63-10.33,9.62-11.39,19.97-6.13,30.73,2.38,4.88,7.74,8.77,12.17,12.97,1.68,1.56,3.15,3.34,4.38,5.28-14.48,9-22.59,21.12-22.58,33.74.01,4.24.9,8.42,2.61,12.3l-35.22-.05c-.15-4.02,1.54-7.99,4.88-11.45,2.53-2.45,5.23-4.85,7.82-7.28,10.22-9.56,11.48-19.83,6.26-30.56-2.41-4.95-7.77-8.91-12.27-13.16-4.36-3.9-6.75-8.51-6.86-13.24.2-4.23,1.89-8.25,4.78-11.36h0Z" fill="#fff"/>
      <path id="_패스_1383" data-name="패스 1383" d="m140.75,109.39c2.52-2.7,5.2-5.25,8.03-7.64,10.41-9.68,11.92-20.16,5.9-30.85-2.54-4.51-7.47-8.57-11.71-12.68-8.51-8.25-9.36-16.67-1.85-25.27,2.31-2.67,5.39-5.08,8.1-7.61,6.1-5.52,9.09-12.11,8.5-18.76h30.14c1.42,2.29,2.8,4.64,4.12,7.05-1.42,2.69-3.37,5.07-5.73,6.99-1.76,1.51-3.42,3.07-5.09,4.61-10.65,9.85-12.3,20.48-5.95,31.37,2.63,4.5,7.65,8.51,11.86,12.64,8.12,7.96,8.92,16.12,1.99,24.46-2.52,2.71-5.2,5.26-8.03,7.64-10.46,9.74-12.11,20.26-5.97,31.03.96,1.63,2.1,3.14,3.39,4.52-8.9,1.04-17.65,3.14-26.05,6.27-2.75-3.28-6.55-6.22-9.78-9.34-4.24-3.88-6.56-8.43-6.68-13.1.19-4.23,1.89-8.25,4.79-11.35h0Z" fill="#fff"/>
      <path id="_패스_1384" data-name="패스 1384" d="m194.49,109.41c2.46-2.65,5.09-5.15,7.86-7.48,10.62-9.84,12.29-20.48,5.94-31.37-2.6-4.45-7.41-8.46-11.73-12.48-6.45-6.01-7.92-12.43-5.61-19.32,1.28-3.81,4.66-6.97,8.24-10.03,8.89,21.36,14.03,46.24,14.03,72.81,0,11.9-1.05,23.77-3.16,35.48-3.75-.48-7.55-.79-11.37-.94-.73-.68-1.47-1.37-2.17-2.05-4.3-3.95-6.65-8.57-6.78-13.31.19-4.21,1.87-8.22,4.74-11.32h0Z" fill="#fff"/>
      <rect id="_사각형_437" data-name="사각형 437" width="223" height="203" fill="none"/>
    </g>
  </g>
</svg>