<?xml version="1.0" encoding="UTF-8"?>
<svg id="Layer_2" data-name="Layer 2" xmlns="http://www.w3.org/2000/svg" viewBox="0 0 44 51">
  <g id="Logo">
    <g id="symbol_03_03_0002_01" data-name="symbol 03 03 0002 01">
      <path id="_패스_908" data-name="패스 908" d="m43.27.68c.03.6.07,1.04.07,1.48,0,9.55.04,19.09,0,28.64-.19,10.05-7.87,18.37-17.88,19.35-.54.04-1.08,0-1.76,0-.04-.47-.1-.9-.1-1.33,0-9.65-.06-19.29.01-28.94C23.87,9.78,31.7,1.5,41.78.68c.44-.03.88,0,1.49,0Z" fill="#fff"/>
      <path id="_패스_909" data-name="패스 909" d="m.8,26.35c11.04-1.66,21.96,11.7,19.47,23.69C9.43,51.7-.4,39.79.8,26.35Z" fill="#fff"/>
      <rect id="_사각형_195" data-name="사각형 195" width="44" height="51" fill="none"/>
    </g>
  </g>
</svg>