<?xml version="1.0" encoding="UTF-8"?>
<svg id="Layer_2" data-name="Layer 2" xmlns="http://www.w3.org/2000/svg" viewBox="0 0 256 135">
  <g id="Logo">
    <g id="symbol_20_02_0001_01" data-name="symbol 20 02 0001 01">
      <path id="_패스_502" data-name="패스 502" d="m195.58,117.16c0-3.08-5.81-5.9-15.45-8.09-9.74-2.03-19.63-3.32-29.57-3.85-4.05-.26-8.27-.45-12.62-.56-2.83-.07-5.71-.11-8.64-.11-4.67,0-9.23.09-13.62.27-.75.03-1.5.06-2.25.1-7.79.36-15.04.99-21.47,1.83-.62.08-1.24.16-1.84.25-4.3.6-8.21,1.3-11.64,2.08-9.65,2.19-15.47,5.01-15.47,8.09,0,3.89,9.28,7.37,23.86,9.69-47.24-3.29-80.94-11.92-80.94-22.05,0-4.97,8.16-9.58,22.04-13.38.74-.21,1.48-.4,2.25-.6,4.59-1.18,9.75-2.26,15.4-3.26.3-3.06.76-6.1,1.37-9.11.68-.21,1.36-.44,2.04-.71,2.49-.96,4.83-2.25,6.97-3.84.74-.56,1.43-1.17,2.09-1.82.62-.62,1.17-1.3,1.65-2.03h6.04l1.78,14.44c.6-.06,1.19-.13,1.8-.2l-1.76-14.24h7.88l5.23,13.18c.62-.05,1.26-.1,1.88-.15l-5.18-13.03h7.65l9.94,12.21c.74-.04,1.48-.08,2.23-.12l-9.84-12.09h9.83l5.3,4.5,1.42,1.21,6.87,5.83c.9-.03,1.81-.04,2.71-.07l-6.79-5.77h98.71c1.33.76,2.72,1.42,4.15,1.98.69.27,1.38.5,2.06.72.26,1.29.5,2.58.71,3.88h-47.25c7.96.46,15.59,1.06,22.79,1.8h24.74c.16,1.13.29,2.28.4,3.43,5.63.99,10.78,2.07,15.36,3.25.77.2,1.51.4,2.26.6,13.88,3.8,22.04,8.41,22.04,13.38,0,10.12-33.71,18.75-80.94,22.04,14.58-2.3,23.86-5.78,23.86-9.67m-90.99-43.2l-4.6-3.91h98.88c1.03,1.51,2.32,2.84,3.81,3.91h-98.09Zm50.4-5.71h-24.62c1.25-.41,2.61-.9,4.1-1.47.6-.23,1.23-.48,1.87-.74,5.03-2.02,11.35-4.94,19.32-9.12,1.51-.79,2.99-1.49,4.45-2.13.59-.26,1.18-.52,1.77-.75,18.84-7.66,33.49-3.53,40.86-.15,1.51,2.82,2.87,5.73,4.07,8.7-4.43-.38-7.89.65-8.81,3.01-.3.86-.3,1.79,0,2.65h-43.02Zm-69.08,0h-25.33c.3-.86.3-1.79,0-2.65-.92-2.36-4.39-3.39-8.82-3.01,1.85-4.55,4.07-8.93,6.64-13.11.26-.05.52-.09.79-.15,6.73-1.41,11.97-4.71,13.19-7.96.92-.17,1.87-.34,2.88-.47,10.9-1.42,28.62-.14,54.22,11.96.57.27,1.15.55,1.72.83,4.15,2.01,8.5,4.32,13.06,6.91-3.56,1.68-6.65,3.01-9.33,4.06-.62.25-1.23.48-1.8.7-3.18,1.25-6.47,2.22-9.82,2.89h-37.39Zm45.56-16.43c1.7-7.82,9.41-12.78,17.23-11.08,5.93,1.29,10.43,6.14,11.27,12.15-1.68.72-3.39,1.53-5.14,2.44-3.23,1.7-6.18,3.17-8.88,4.47-5.13-2.97-9.86-5.75-14.48-7.98h0Zm14.16-13.2c-7.49.01-14.02,5.13-15.81,12.41-25.89-12.16-43.88-13.39-54.99-11.9-.78.1-1.49.24-2.22.37-.01-.08,0-.17-.03-.25-.32-1.54-1.71-2.73-3.76-3.5,4.44-4.78,9.41-9.04,14.81-12.69,6.52-.93,11.52-3.71,12.31-6.85,6.93-3.13,14.26-5.27,21.79-6.36l15.17,29.27,1.6-.83-14.87-28.69c8.36-1,16.83-.7,25.1.9v25.05h1.8V10.88c5.55,1.21,10.95,2.99,16.12,5.33.54,2.18,3.13,4.2,6.85,5.54l-11.45,16.84,1.49,1.01,11.74-17.28c1.18.32,2.39.57,3.6.74,5.42,3.65,10.4,7.92,14.85,12.71-2.04.77-3.41,1.96-3.73,3.49-.81,3.84,5.19,8.35,13.39,10.08.25.05.5.1.76.14.38.62.79,1.22,1.16,1.85-8.13-3.22-22.14-6.11-39.64.85-1.34-7.82-8.12-13.54-16.05-13.56h0Z" fill="#fff"/>
      <rect id="_사각형_177" data-name="사각형 177" width="256" height="135" fill="none"/>
    </g>
  </g>
</svg>