<?xml version="1.0" encoding="UTF-8"?>
<svg id="_레이어_2" data-name="레이어 2" xmlns="http://www.w3.org/2000/svg" viewBox="0 0 222 169">
  <g id="Tag">
    <g id="key_03_20_0001" data-name="key 03 20 0001">
      <rect id="_사각형_76" data-name="사각형 76" x="0" y="0" width="222" height="169" fill="none"/>
      <path id="_패스_563" data-name="패스 563" d="M0,131.33c.63-4.13,1.27-8.25,1.88-12.38,.43-2.95,.7-5.92,1.23-8.85,.76-4.94,4.02-9.13,8.62-11.07,5.69-2.61,11.41-5.15,17.16-7.64,1.16-.46,1.99-1.49,2.18-2.73,1.62-6.18,2.94-12.5,5.23-18.43,4.59-11.9,13.47-18.95,26.16-20.71,15.96-2.18,32.12-2.43,48.13-.76,3.16,.21,6.3,.63,9.4,1.28,10.86,2.68,18.71,9.13,22.61,19.73,1.88,5.51,3.47,11.12,4.74,16.8,.19,1.36,1.18,2.46,2.52,2.79,9.97,3.29,19.91,6.66,29.86,10.01,5.18,1.51,9.1,5.78,10.14,11.08,1.6,7.04,3.22,14.08,4.58,21.17,1.58,8.22-6.25,16.95-14.67,16.4-.34-8.71-3.84-15.88-11-21.04-4.97-3.62-11.1-5.28-17.22-4.67-3.67,.29-7.21,1.49-10.3,3.48-1.81,1.28-3.5,2.74-5.02,4.35-2.06,2.03-4.55,4.83-4.55,4.83h0c-1.56,.01-21.79,.13-43.59,.26l-24.93,.14c.08,.1,.14,.22,.19,.34-.09,.06-3.31-5.33-7.03-8.51-5.12-4.38-11.47-4.82-13.41-4.95-9.08-.57-17.83,3.52-23.22,10.86-3.08,4.39-4.81,9.58-4.98,14.93-5.81,.39-11.83-3.94-13.93-10.03-.24-.7-.51-1.4-.77-2.1v-4.57Zm114.75-46.44c5.06,0,10.12,.04,15.18-.01,2.35,.17,4.4-1.6,4.56-3.96,.04-.62-.05-1.25-.27-1.83-.61-2.33-1.39-4.6-2.34-6.81-2.96-6.26-7.79-10.54-14.66-11.73-5.71-.99-11.55-1.32-17.34-1.82-2.33-.34-4.5,1.28-4.84,3.61-.05,.31-.06,.63-.03,.94-.04,5.58-.03,11.15,0,16.73,.01,3.24,1.66,4.87,4.94,4.89,4.94,.02,9.87,0,14.8,0h0Zm-51.49,0c4.94,0,9.88,.02,14.81,0,3.09-.02,4.78-1.74,4.8-4.86,.02-5.52,.02-11.03,0-16.55-.02-3.13-2.01-4.92-5.13-4.68-3.85,.3-7.69,.62-11.54,.99-4.44,.43-8.66,1.37-12.44,4.09-5.45,3.91-8.07,9.45-9.64,15.66-.63,2.24,.68,4.57,2.92,5.2,.45,.13,.93,.18,1.4,.15,4.93,.06,9.87,.02,14.81,.02h0Z" fill="#fff"/>
      <path id="_패스_564" data-name="패스 564" d="M155.88,159.71c-2.14-3.4-4.89-6.74-5.78-10.49-.5-2.11,2.16-4.97,3.42-7.48,.4-.79,.96-1.5,1.29-2.31,.68-1.72,1.85-2.22,3.67-2.14,4.27,.18,8.54,.16,13.67,.23-.91-1.12-1.11-1.41-1.35-1.67-8.26-9.01-22.19-8.24-29.8,1.73-.92,1.5-2.57,2.4-4.32,2.35-5.5,0-11,.02-16.5,.05l-33.78-.11h0s-1.46,0-1.46,0h-.38c-7.82,.04-15.64,.1-23.46,.16-1.55,.17-3.06-.57-3.87-1.9-1.34-1.94-3.01-3.64-4.91-5.02-8.84-6.2-21.39-4.02-27.26,4.58-6.21,9.09-4.35,21.49,4.1,27.39,9.5,6.63,21.79,4.68,28.14-4.62,.8-1.45,2.36-2.31,4.02-2.19,7.75-.02,15.5-.05,23.25-.1v.08h35.62v-.02c5.37-.04,10.74-.09,16.11-.14,2.13-.02,3.64,.34,4.94,2.23,1.21,1.67,2.69,3.13,4.38,4.32,8.11,5.99,20.99,3.95,26.26-4.76-4.84,.17-9.22,.35-13.6,.43-.82,.02-2.07-.09-2.4-.61Zm-108.84-2.74c-.3,.4-.65,.77-1.04,1.08-1.2,.86-2.02,.46-5.58,.58-2.08,.07-3.31,.27-4.96-.42-.2-.08-.39-.17-.57-.27-.7-.38-1.56-1.03-3.29-4.12-.59-.93-1.05-1.93-1.38-2.98-.44-.73-.54-1.62-.27-2.43,1.36-2.71,2.91-5.32,4.46-7.93,.2-.34,.66-.47,1.18-.71,1.38-.64,2.08-.38,5.38-.42,1.45-.08,2.9,.05,4.31,.39,.35,.11,.68,.27,.98,.48,.5,.37,.9,.86,1.17,1.42,1.49,2.86,2.23,4.28,2.55,4.8,.4,.53,.68,1.14,.83,1.79,.09,.73,0,1.48-.29,2.16-.69,2.41-1.87,4.65-3.46,6.59h0Z" fill="#fff"/>
      <path id="_패스_565" data-name="패스 565" d="M183.38,83.11c-3.01-4.16-5.8-7.96-8.49-11.83-.35-.64-.4-1.41-.15-2.09,1.75-4.14,3.56-8.26,5.49-12.33,.43-.75,1.16-1.27,2.01-1.44,4.39-.57,8.8-1.02,13.21-1.37,.86-.02,1.68,.32,2.27,.94,2.65,3.45,5.13,7.03,7.73,10.53,.78,.84,.93,2.09,.36,3.09-1.8,3.8-3.38,7.7-5.2,11.49-.44,.89-1.25,1.55-2.2,1.82-4.53,.62-9.08,1.04-13.63,1.46-.48-.01-.95-.1-1.4-.28Zm13.23-20.76c-3.52-3.45-9.18-3.4-12.64,.13s-3.4,9.18,.13,12.64c3.51,3.44,9.13,3.4,12.59-.08,3.48-3.52,3.45-9.2-.07-12.68,0,0,0,0,0,0h0Z" fill="#fff"/>
      <path id="_패스_566" data-name="패스 566" d="M220.51,42.03l-8.18-8.16c2.38-2.13,6.04-1.93,8.17,.45,1.97,2.2,1.97,5.52,0,7.72Z" fill="#fff"/>
      <path id="_패스_567" data-name="패스 567" d="M184.44,18.57l-9.96-1.48-.68,3.1-16.68-2.57,.34-3.18-10.02-1.58c.45-7.62,10.07-14.06,18.86-12.65l-.19,2.76,3.58,.53,.61-2.69c8.71,1.25,16.12,10.48,14.14,17.77Z" fill="#fff"/>
      <path id="_패스_568" data-name="패스 568" d="M171.66,34.32c-.58,3.77-1.14,7.4-1.74,11.28l-16.8-2.59c.57-3.74,1.12-7.42,1.71-11.32l16.83,2.63Z" fill="#fff"/>
      <path id="_패스_569" data-name="패스 569" d="M172.97,26.08l-16.8-2.6,.49-3.25,16.79,2.6c-.16,1.09-.3,2.04-.48,3.25Z" fill="#fff"/>
      <path id="_패스_570" data-name="패스 570" d="M172.56,28.72l-.49,3.07-16.81-2.59,.5-3.07,16.8,2.59Z" fill="#fff"/>
      <path id="_패스_571" data-name="패스 571" d="M211.49,34.65l8.19,8.18c-2.18,2.06-5.61,2.02-7.74-.09-2.36-2.09-2.57-5.69-.48-8.05,.01-.01,.02-.03,.04-.04Z" fill="#fff"/>
    </g>
  </g>
</svg>