<?xml version="1.0" encoding="UTF-8"?>
<svg id="Layer_2" data-name="Layer 2" xmlns="http://www.w3.org/2000/svg" viewBox="0 0 212 55">
  <g id="Logo">
    <g id="symbol_20_03_0001_02" data-name="symbol 20 03 0001 02">
      <path id="_패스_507" data-name="패스 507" d="m89.93,26.21c-4.97,8.82-16.15,11.94-24.97,6.97-8.82-4.97-11.94-16.15-6.97-24.97.62-1.1,1.35-2.14,2.19-3.09C34.81-.52,9.66,15.46,4.01,40.83c-.75,3.36-1.13,6.79-1.13,10.24h94.15c.01-8.79-2.45-17.4-7.1-24.86" fill="#fff"/>
      <path id="_패스_511" data-name="패스 511" d="m207.96,51.07c.01-8.79-2.45-17.4-7.1-24.86-4.97,8.82-16.14,11.94-24.96,6.97-.73-.41-1.43-.87-2.1-1.38-10.54,12.66-29.34,14.39-42.01,3.85-3.98-3.31-7.02-7.59-8.84-12.43-5.94,8.07-9.14,17.83-9.13,27.85h94.15Z" fill="#fff"/>
      <rect id="_사각형_181" data-name="사각형 181" width="212" height="55" fill="none"/>
    </g>
  </g>
</svg>