<?xml version="1.0" encoding="UTF-8"?>
<svg id="Layer_2" data-name="Layer 2" xmlns="http://www.w3.org/2000/svg" viewBox="0 0 236 146">
  <g id="Logo">
    <g id="symbol_21_01_0005_01" data-name="symbol 21 01 0005 01">
      <path id="_합치기_35" data-name="합치기 35" d="m161.68,137.57c.03-25.06-6.46-49.69-18.84-71.47-1.27-2.24-2.6-4.45-3.99-6.61-5.54-8.65-11.98-16.7-19.2-24,6.88.06,13.74.82,20.48,2.25,1.35.29,2.69.62,4.02.96,17.22,4.44,32.98,13.31,45.72,25.72.02,1.38.03,2.77.03,4.18,0,28.56-3.41,52.57-8.25,68.97h-19.96Zm24.39,0c5.2-18.6,7.92-44.16,7.92-68.91,17.26,18.8,26.82,43.39,26.79,68.91h-34.71Zm-95.31,0c.01-17.67-6.3-34.76-17.8-48.17,1.72-3.14,4.44-9.4,2.48-15.01-1.59-4.55-4.66-4.04-8.4-3.54-2.75.37-5.86.73-9.03-.89-5.48-2.81-8.58-.83-9.85.44-1.5-.71-3.02-1.38-4.57-1.99,7.12-7.73,15.4-14.33,24.53-19.54,31.57,18.4,50.99,52.17,51.02,88.71h-28.37Zm-74.18,0c-.02-13.99,2.85-27.84,8.43-40.67,19.21,4.08,32.97,21.03,32.99,40.67H16.59ZM188.18,34.72c-7.37,0-13.34-5.98-13.34-13.35,0-5.76,3.69-10.86,9.16-12.67,1.34-.45,2.74-.67,4.15-.68h.05c7.38,0,13.35,5.98,13.35,13.35,0,5.82-3.77,10.97-9.31,12.73-1.31.41-2.67.63-4.04.63h-.01Z" fill="#fff"/>
      <rect id="_사각형_312" data-name="사각형 312" width="236" height="146" fill="none"/>
    </g>
  </g>
</svg>