<?xml version="1.0" encoding="UTF-8"?>
<svg id="Layer_2" data-name="Layer 2" xmlns="http://www.w3.org/2000/svg" viewBox="0 0 414 202">
  <g id="Logo">
    <g id="symbol_06_01_0009_01" data-name="symbol 06 01 0009 01">
      <path id="_합치기_49" data-name="합치기 49" d="m31.17,167.58c.53-18.21.12-36.45.16-54.67,0-2.12-.12-3.56-2.75-4.34-2.22-.82-4.2-2.19-5.75-3.98-3.07-3.26-5.88-6.79-8.64-10.32-4.85-6.22-4.19-14.06,1.96-19.07,24.57-20.01,49.21-39.93,73.92-59.77,5.86-4.71,12.1-4.5,18.13.22,5.61,4.4,11.14,8.89,16.71,13.34l.04.03c-.06-.02-.15-.05-.34-.12l15.91,12.74c3.86,3.31,7.87,6.44,12.28,10l13.82-10.72c6.19-4.99,11.69-9.42,17.17-13.86,4.62-3.74,9.2-7.53,13.85-11.21,6.4-5.07,12.67-5.02,19.1.09,5.37,4.28,10.7,8.61,16.04,12.91l15.83,12.65c3.76,3.4,7.81,6.49,12.3,10.13l17.08-13.28c8.84-7.13,17.67-14.27,26.49-21.42,8.21-6.62,13.61-6.58,21.88.12,5.1,4.13,10.21,8.25,15.88,12.83l43.37,34.95c3.88,3.56,8.2,6.65,12.22,10.07,6.54,5.57,7.21,13.26,1.82,19.98-2.56,3.19-5.16,6.36-7.86,9.43-1.12,1.27-2.4,2.91-3.87,3.25-5.19,1.19-5.01,4.78-4.98,8.9.15,17.43.09,34.86.06,52.3-.02,13.65-8.28,21.97-21.96,21.99-27.6.05-55.2.05-82.8.02h-112.31c-37.17,0-74.34-.3-111.5.14h-.38c-14.75,0-23.28-10.44-22.91-23.34Zm264.19-90.19c-.91,1.04-1.28,2.44-.99,3.79,1.53,4.61.53,9.69-2.63,13.38-2.66,3.29-5.28,6.61-8.13,9.73-1.39,1.52-3.06,3.28-4.92,3.79-3.61,1-4.04,3.08-4.03,6.36.14,20.81.08,41.61.08,62.57h27.09s26.98,0,26.98,0l13.69.21c6.83,0,13.14.07,19.44-.02,5.01-.07,7.55-2.56,7.57-7.63.07-21,.05-41.99-.04-62.99-.06-1.38-.66-2.69-1.67-3.63-17.32-13.85-34.72-27.59-52.41-41.59-6.86,5.44-13.53,10.62-20.02,16.02Zm-90.79-13.91c-14.7,11.64-29.19,23.55-44.19,34.8-5.52,4.14-7.66,8.4-7.44,15.38.58,18.47.18,36.97.21,55.46,0,5.29,2.06,7.91,6.62,8.04,6.59.18,13.19.04,20.4.04l13.55-.18h26.89l13.56.22c6.39,0,12.2.02,18,0,6.97-.03,9.02-2.03,9.02-8.89.02-20.21-.04-40.42.06-60.62.17-2.23-.86-4.38-2.69-5.66-10.94-8.52-21.77-17.17-32.63-25.78-6.2-4.91-12.38-9.83-18.64-14.8-1.07.77-1.93,1.35-2.73,1.99ZM46.41,103.15c-1.01,1.11-1.56,2.57-1.53,4.08-.12,11.36-.07,22.71-.07,34.07,0,9.38-.04,18.75.02,28.12.03,4.31,1.99,7.41,5.44,7.56,7.06.31,14.15.09,21.58.09h40.6l13.8-.08h13.89c-.19-3.4-.5-6.55-.51-9.69-.05-17.04-.12-34.07.05-51.11.04-4.05.07-7.37-4.94-8.55-1.68-.4-3.11-2.36-4.41-3.82-2.55-2.86-4.9-5.89-7.37-8.81-3.51-4.16-4.59-8.75-2.89-14.03.31-1.12.07-2.32-.64-3.24-6.7-5.53-13.55-10.89-20.45-16.37-17.66,13.99-35.17,27.81-52.57,41.77h0Zm167.27-53.86c3.82,3.04,7.64,6.08,11.47,9.11,15.8,12.53,31.6,25.07,47.66,37.82,2.95-3.57,5.77-6.99,8.73-10.57-24.94-20.16-49.54-40.03-74.28-60.02-24.75,19.97-49.29,39.76-74.47,60.08,2.97,3.59,5.78,6.98,8.6,10.38.85-.62,1.29-.9,1.71-1.23,19.14-15.15,38.29-30.3,57.43-45.45,2.88-2.28,4.79-3.41,6.68-3.41s3.72,1.1,6.47,3.29h0Zm107.99-.15c8.29,6.53,16.57,13.09,24.83,19.66,11.47,9.09,22.94,18.18,34.58,27.39,2.9-3.52,5.66-6.86,8.67-10.51-25.03-20.24-49.63-40.12-74.3-60.07-13.17,10.61-26.13,21.02-39.04,31.48-2.46,2-2.44,4.95-.05,7.01,2.18,1.87,4.47,3.61,6.84,5.5,8.82-6.98,17.38-13.78,25.97-20.55,2.58-2.04,4.38-3.06,6.18-3.06,1.82,0,3.66,1.04,6.33,3.15h0ZM24.61,85.72c3.02,3.64,5.77,6.94,8.65,10.42,2.66-2.08,5.05-3.93,7.42-5.81,17.7-14.01,35.39-28.02,53.09-42.03,3.77-2.99,6.51-2.98,10.34-.09,1.37,1.04,2.69,2.13,4.04,3.2,7.64,6.04,15.28,12.07,23.05,18.21,3.77-3.08,7.3-5.94,11.1-9.04-14.64-11.84-28.89-23.36-43.24-34.96L24.61,85.72Zm298.04,70.21v-46.94h11.22c3.02,0,5.47,2.45,5.47,5.47v36c0,3.02-2.45,5.47-5.47,5.47h-11.22Zm-24.78,0c-3.02,0-5.47-2.45-5.47-5.47h0v-36c0-3.02,2.45-5.47,5.47-5.47h11.22v46.94h-11.22Zm-83.91,0v-46.94h11.22c3.02,0,5.47,2.45,5.47,5.47v36c0,3.02-2.45,5.47-5.47,5.47h-11.22Zm-24.78,0c-3.02,0-5.47-2.45-5.47-5.47h0v-36c0-3.02,2.45-5.47,5.47-5.47h11.22v46.94h-11.22Zm-86.87,0v-46.94h11.22c3.02,0,5.47,2.45,5.47,5.47h0v36c0,3.02-2.45,5.47-5.47,5.47h-11.22Zm-24.78,0c-3.02,0-5.47-2.45-5.47-5.47h0v-36c0-3.02,2.45-5.47,5.47-5.47h11.22v46.94h-11.22ZM124.96,29.02s.05.02.05.02c-.02,0-.03-.01-.05-.02h0Z" fill="#fff"/>
      <rect id="_사각형_445" data-name="사각형 445" width="414" height="202" fill="none"/>
    </g>
  </g>
</svg>