<?xml version="1.0" encoding="UTF-8"?>
<svg id="Layer_2" data-name="Layer 2" xmlns="http://www.w3.org/2000/svg" viewBox="0 0 160 92">
  <g id="Logo">
    <g id="symbol_04_01_0003_02" data-name="symbol 04 01 0003 02">
      <path id="_합치기_30" data-name="합치기 30" d="m102.36,82.46c-10.07-.01-22.97-4.26-38.88-17.22-14.39-11.83-33.09-17.05-51.53-14.4-.17-.63-.33-1.26-.48-1.9,10.45-4.19,32.53-8.6,60.16,11.08,16.53,11.77,30.29,14.24,40.32,13.48,11.74-.89,18.38-6.2,18.38-6.2,0,0-8.9,15.16-27.95,15.16h-.04Zm-19.19-23.25c-37.87-19.38-61.25-14.85-71.75-10.5-.07-.31-.14-.63-.2-.94,4.94-2.9,10.26-5.1,15.8-6.53v-10.77l-8.48,3.64,7.81-5.82.24-2.05-2.85,1.22,2.96-2.21.78-6.63.66,5.56,8.29-6.19,1.86-15.73,1.86,15.73,12.69,9.48-13.8-5.93v17.63c12.3-1.08,27.88.56,46.64,8.23,15.87,6.49,27.94,8.09,37.08,7.15,21.46-2.22,26.64-18.52,26.64-18.52,0,0-6.96,28.12-32.71,31.11-1.5.17-3.01.26-4.52.26-7.98,0-17.56-2.31-29.01-8.16Zm-55.22-18.22c3.15-.78,6.36-1.34,9.59-1.69v-17.77l-9.24,3.97.33,2.79,7.8,5.82-8.48-3.64v10.53Z" fill="#fff"/>
      <rect id="_사각형_266" data-name="사각형 266" width="160" height="92" fill="none"/>
    </g>
  </g>
</svg>