<?xml version="1.0" encoding="UTF-8"?>
<svg id="_레이어_2" data-name="레이어 2" xmlns="http://www.w3.org/2000/svg" viewBox="0 0 96 86">
  <g id="Logo">
    <g id="symbol_10_03_0001_02" data-name="symbol 10 03 0001 02">
      <rect id="_사각형_127" data-name="사각형 127" width="96" height="86" fill="none"/>
      <path id="_패스_774" data-name="패스 774" d="M93.41,8.57c-4.65-2.17-9.54-3.77-14.57-4.77l-.36-.07C65.17,.98,45.79,.45,45.79,.45,45.79,.45,24.74-.12,9.88,3.07c-1.13,.2-2.23,.57-3.25,1.1C3.3,5.96,1.64,9.26,.79,11.66c1.37-2.21,3.46-3.88,5.92-4.73,3.96-1.2,7.59,.76,10.67,2.24,7.76,3.84,15.25,8.23,22.39,13.11,5.82,3.87,11.23,8.32,16.15,13.27,2.11,2.14,4.38,4.66,4.36,7.96-.02,3.56-2.7,6.21-4.21,7.67h0s-19.31,20.86-41.14,28.1c-1.96,.69-4.05,.95-6.12,.76-1.61-.17-3.17-.61-4.62-1.32,.95,1.06,2.06,1.96,3.29,2.67,1.61,.88,3.36,1.47,5.17,1.73,2.78,.59,5.58,1.01,8.41,1.27,20.24,1.16,31.9,.5,31.9,.5,5.19-.2,10.36-.74,15.48-1.62,3.75-.7,6.73-1.5,11.08-2.67,5.84-1.57,10.63-3.06,14.02-4.17,2.42-22.56,2.38-45.32-.12-67.88h-.01Z" fill="#fff"/>
    </g>
  </g>
</svg>