<?xml version="1.0" encoding="UTF-8"?>
<svg id="_레이어_2" data-name="레이어 2" xmlns="http://www.w3.org/2000/svg" viewBox="0 0 250 254">
  <g id="Logo">
    <g id="symbol_21_01_0008_02" data-name="symbol 21 01 0008 02">
      <path id="_패스_1364" data-name="패스 1364" d="m125,34.36c-51.16,0-92.64,41.48-92.64,92.64s41.48,92.64,92.64,92.64,92.64-41.48,92.64-92.64h0c-.06-51.14-41.5-92.58-92.64-92.64m-60.72,153.76c.34-.23.67-.47.98-.69,4.15-3.01,8.31-3.46,13.31-2.19,5.78,1.47,11.58.15,16.8-2.71,8.28-4.53,16.45-9.25,24.58-14.04,4.58-2.7,5.87-6.25,4.58-11.92-1.03-5.18-1.34-10.48-.92-15.75.34-5.61-.69-9.23-6.23-10.82-1.64-.43-3.07-1.44-4.02-2.86-3.16-4.4-7.38-4.73-11.93-2.3-3.78,2.02-7.47,4.2-11.58,6.52-3.29-8.03-7.92-10.73-13.19-7.1-6.87,4.74-13.7,9.98-17.6,17.57-3.43,6.69-4.6,14.75-13.15,17.64-.21.07-.4.18-.58.31-18.13-43.99,2.84-94.35,46.83-112.48,5.3-2.18,10.8-3.83,16.43-4.92v10.49h.01c0,.23,0,.47.04.7.59,4.15-1.69,6.75-4.17,9.52-3.98,4.3-6.26,9.9-6.42,15.75-.14,4.93-.03,9.87-.03,14.8h-.22c0,4.94-.04,9.87.02,14.81.03,2.63.27,5.94,2.73,6.83,5.15,1.86,9.51,5.01,14.21,7.56,7.42,4.04,14.61,6.79,21.97.07.12-.11.42-.04.63-.07,5.11-.78,7.31-3.98,7.37-8.92.04-3.22.13-6.44.02-9.66-.09-2.69.67-3.46,3.67-3.45,7.18.03,10.05-3.44,9.09-10.7-.84-6.36-1.13-13.42-4.85-18.5-6.49-8.89-11.32-17.81-10.16-29.04,46.6,9.61,76.58,55.18,66.96,101.77-.97,4.72-2.34,9.36-4.09,13.85h-.03c-4.58-1.9-7.96-5.89-9.08-10.71-1.61-5.43-5.25-10.04-10.17-12.85-8.42-5.14-16.98-10.04-25.56-14.89-4.25-2.4-7.84-1.43-11.62,1.88-4.12,3.68-8.75,6.75-13.74,9.12-5.22,2.39-7.4,5.54-5.99,11.02.43,1.42.31,2.96-.34,4.29-2.54,5.51-.57,9.48,4.52,12.28,2.44,1.34,4.75,2.93,7.25,4.15,2.64,1.29,3.24,2.26,1.34,5.16-3.38,5.16-2.11,10.07,3.2,12.3,8.86,3.72,17.92,7.88,27.86,5.62,5.16-1.18,9.74-1.26,14.07,1.21-32.91,34.26-87.36,35.35-121.62,2.44-.38-.36-.75-.73-1.12-1.09m-4.41-4.75c-4.82-5.55-8.91-11.69-12.17-18.27.46-.07.91-.21,1.32-.44,5.78-3.09,11.9-5.49,13.23-13.47,1.65-9.93,10.03-15.04,16.98-21.03.68-.77,1.86-.85,2.63-.18.08.07.15.14.21.22.9,1.02.47,1.99-.3,2.82-1.01,1.11-2.14,2.1-3.13,3.23-1.4,1.58-1.98,3.44-.72,5.29,1.5,2.21,3.63,1.92,5.72.86,1.53-.78,3.01-1.65,4.5-2.5,5.21-2.99,10.43-5.96,15.61-8.99,1.41-.83,3.18-1.51,3.99,0,.88,1.64-.98,2.5-2.29,3.24-2.42,1.38-4.88,2.71-7.24,4.18-2.13,1.33-5.16,2.63-3.21,5.82,1.7,2.77,4.17,1.08,6.22-.07,3.92-2.2,7.81-4.48,11.7-6.75,1.36-.79,3.1-1.61,4.03-.1,1.05,1.71-.82,2.54-2.1,3.28-4.44,2.6-8.91,5.15-13.33,7.79-1.61.96-2.66,2.51-1.71,4.31,1.07,2.02,2.93,2.27,4.94,1.12,3.16-1.82,6.32-3.65,9.52-5.38,1.06-.57,2.36-1.64,3.41-.16,1.38,1.94-.61,2.68-1.7,3.41-2.13,1.43-4.5,2.5-6.66,3.9-2.21,1.43-6.04,2.51-4.24,6,1.88,3.65,4.76.91,7.13-.25.77-.37,1.47-.88,2.24-1.27,1.29-.65,2.83-1.98,3.9-.13s-.86,2.64-2.07,3.34c-8.17,4.71-16.33,9.46-24.63,13.95-4.07,2.21-8.79,3.11-13.12,1.57-6.26-2.22-11.27-.43-16.24,3.07-.76.54-1.67,1.02-2.43,1.58m76.77-123.72c.13,1.75,1.05,3.35,2.51,4.32,7.97,6.44,10.16,15.59,11.67,25,.27,1.69,1.49,4.35-.94,5.02-2.81.78-2.38-2.17-2.99-3.85-.86-2.36-1.33-5.39-4.84-4.99-3.84.44-3.71,3.58-3.74,6.38-.07,7.3-.03,14.6-.1,21.89,0,.99.12,2.32-1.31,2.54-1.73.26-2.22-1.04-2.26-2.37-.11-3.43-.05-6.87-.1-10.3-.03-2.26-.4-4.74-3.19-4.67-2.58.07-3.27,2.37-3.29,4.7-.02,4.94.01,9.87-.05,14.81-.02,1.21.11,2.9-1.7,2.83-1.57-.06-1.88-1.55-1.89-2.87-.07-5.15-.06-10.3-.12-15.45-.03-2.07-.55-4.13-3.05-4.07-2.33.05-3.16,2.01-3.24,4.07-.14,3.43-.02,6.87-.14,10.3-.04,1.18.16,2.87-1.6,3-1.78.13-1.84-1.54-1.92-2.72-.16-2.35.08-4.73-.16-7.07-.28-2.74,1.3-7.19-2.88-7.34-4.81-.17-3.13,4.54-3.55,7.45-.06.42.05.87-.03,1.29-.24,1.35.28,3.42-2.06,3.13-1.67-.21-1.44-1.93-1.43-3.12.06-9.87.03-19.74.36-29.59.17-5.19,2.9-9.55,6.69-12.8,3.63-3.11,3.85-6.84,3.69-10.88.02-4.29.05-8.58.07-12.87,7.16-.86,14.4-.79,21.54.21v.02c-.04,6.01-.02,12.01.05,18.02m38.34,119.14c-2.23,1.03-5.05.78-6.92,1.03-6.8-.25-12.31-2.8-17.98-4.7-1.43-.48-3.85-.79-2.83-3.28.8-1.93,2.51-.83,3.93-.58,2.82.49,6.31,2.3,7.68-1.81,1.28-3.85-2.3-5.07-4.8-6.55-5.54-3.27-11.17-6.37-16.7-9.66-1.34-.8-3.81-1.47-2.72-3.62,1.2-2.36,3-.36,4.34.32,2.87,1.45,5.58,3.2,8.42,4.7,1.78.94,3.82,1.55,5.02-.73,1.12-2.11,0-3.62-1.92-4.72-3.91-2.23-7.82-4.47-11.63-6.85-1.46-.91-4.47-1.6-2.94-3.95,1.37-2.1,3.46.04,5.03.9,3.76,2.06,7.43,4.27,11.14,6.44,1.79,1.04,3.78,1.76,5.14-.27,1.52-2.28.24-4.05-1.86-5.28-2.96-1.72-5.97-3.38-8.91-5.13-1.1-.66-2.39-1.62-1.52-3.04.84-1.37,2.36-.77,3.46-.18,2.83,1.53,5.57,3.22,8.36,4.82,1.9,1.09,4.06,2.4,5.62-.12,1.72-2.79-.48-4.27-2.58-5.56-.91-.56-1.86-1.07-2.75-1.67-1.31-.89-3.82-1.54-2.48-3.58,1.17-1.79,3.1-.3,4.56.55,7.6,4.42,15.2,8.83,22.76,13.31,4.42,2.62,7.95,6.43,8.84,11.38,1.24,6.9,5.85,10.04,11.39,12.72.24.11.48.24.71.36-3.09,6.47-6.98,12.53-11.57,18.04-4.91-3.1-9.76-6.29-16.29-3.29" fill="#fff"/>
      <path id="_패스_1365" data-name="패스 1365" d="m125,7.37c-29.04-.02-57.09,10.56-78.87,29.77-8.22-5.84-19.62-3.92-25.46,4.3-5.84,8.22-3.92,19.62,4.3,25.46,8.22,5.84,19.62,3.92,25.46-4.3,4.42-6.22,4.51-14.53.22-20.84C97.72.66,169.18,5.5,210.28,52.57c29.01,33.22,36.06,80.28,18.07,120.55.96.48,1.93.96,2.89,1.45.97.49,1.92.98,2.86,1.46,27.1-60.24.23-131.03-60.01-158.13-15.44-6.94-32.17-10.53-49.1-10.53M35.47,62.64c-5.86,0-10.61-4.75-10.61-10.61s4.75-10.61,10.61-10.61,10.61,4.75,10.61,10.61c0,5.86-4.75,10.6-10.61,10.61" fill="#fff"/>
      <path id="_패스_1366" data-name="패스 1366" d="m214.09,183.37c-10.11-.02-18.33,8.17-18.34,18.28,0,3.85,1.2,7.6,3.44,10.72-47.11,41.02-118.55,36.09-159.58-11.02C10.76,168.21,3.71,121.36,21.53,81.19c-2.02-.77-3.93-1.8-5.68-3.07-27.04,60.24-.12,130.99,60.12,158.03,42.71,19.17,92.68,11.65,127.85-19.25,8.39,5.68,19.79,3.47,25.47-4.92,5.68-8.39,3.47-19.79-4.92-25.47-3.03-2.05-6.62-3.15-10.28-3.15m0,28.95c-5.86,0-10.61-4.75-10.61-10.61,0-5.86,4.75-10.61,10.61-10.61,5.86,0,10.61,4.75,10.61,10.61h0c0,5.86-4.75,10.61-10.61,10.61" fill="#fff"/>
      <rect id="_사각형_686" data-name="사각형 686" width="250" height="254" fill="none"/>
    </g>
  </g>
</svg>