<?xml version="1.0" encoding="UTF-8"?>
<svg id="_레이어_2" data-name="레이어 2" xmlns="http://www.w3.org/2000/svg" viewBox="0 0 218 218">
  <g id="Logo">
    <g id="symbol_06_01_0003_01" data-name="symbol 06 01 0003 01">
      <rect id="_사각형_267" data-name="사각형 267" width="218" height="218" fill="none"/>
      <path id="_패스_1086" data-name="패스 1086" d="M211.3,89.88c-2.5-2.47-6.67-1.2-9.88,.22-6.99,3.09-14.35,6.48-18.64,12.81-3.79,5.58-4.61,12.67-4.34,19.41,.15,3.63,.55,7.44-.92,10.76-1.87,4.22-6.27,6.62-10.37,8.73l-57.69,29.59c-5.3,2.72-10.74,5.48-16.66,6.17s-12.5-1.12-15.93-5.99c-3.2-4.53-3.03-10.54-2.75-16.08,.33-6.42,.67-12.83,1-19.25,.11-2.15,.19-4.45-.9-6.31-1.08-1.84-3.1-2.89-5.01-3.84l-11.38-5.66c-.97-.64-2.14-.88-3.29-.68-1.75,.57-2.07,2.87-2.08,4.7-.08,11.33-.16,22.67-.24,34-6.18,1.23-12.32-3.44-14.91-9.19s-2.49-12.3-2.34-18.6l.86-35.86c.08-3.25,.2-6.67,1.85-9.48,1.34-1.98,3.03-3.7,4.99-5.07l12.04-9.53c.78-.73,1.73-1.25,2.77-1.53,1.72-.3,3.35,.8,4.67,1.94,9.53,8.25,14.97,21.73,26.8,26.1,4.8,1.77,10.1,1.75,15.17,1.02,3.36-.35,6.59-1.43,9.49-3.17h0l53.65-25.4,4.73-2.24,26.73-12.65c.65-.28,1.29-.57,1.91-.9l.12-.05h0c.56-.3,1.11-.62,1.65-.97,2.24-1.46,4.44-3.7,4.2-6.36-.16-1.88-1.5-3.41-2.77-4.8l-22.45-24.66c-5.46-6-11.51-12.34-19.48-13.86-7.71-1.47-15.6,2-21.8,6.81-1.49,1.37-3.23,2.45-5.12,3.18-1.99,.58-4.11,.26-6.18,.18-6.99-.27-13.82,2.14-19.09,6.74-1.39,1.23-2.75,2.65-4.55,3.12-1.94,.51-3.97-.21-5.94-.57-8-1.5-16,2.76-22.17,8.08-1.21,1.26-2.71,2.21-4.38,2.75-1.89,.42-3.83-.3-5.71-.76-10.11-2.42-20.45,3.03-28.44,9.68-4.82,4.01-9.2,8.51-14.03,12.5-4.52,3.73-9.75,6.09-13.38,10.76-6.98,8.99-7.18,21.53-7.15,32.39,.04,14.36,.08,28.73,.12,43.09,.03,11.73,.43,24.51,7.92,33.53,4.45,5.36,10.86,8.65,17.08,11.79l36.69,18.53c8.78,4.43,18.08,8.99,27.91,8.46,7.83-.42,15.09-4.04,22.09-7.59l77.16-39.13c5.96-3.02,12.2-6.29,15.81-11.91,3.86-5.99,4.02-13.55,4.07-20.67,.05-7.33,.1-14.67,.14-22l.11-15.7c.02-2.34-.07-4.95-1.74-6.59Z" fill="#fefefe"/>
      <path id="_패스_1087" data-name="패스 1087" d="M125.91,135.91l-7.59,3.25c-3.06,1.31-5.56,.12-5.58-2.66l-.08-14.96c-.02-2.78,2.46-6.1,5.52-7.41l7.59-3.25c3.06-1.31,5.56-.12,5.58,2.66l.08,14.96c.02,2.78-2.46,6.1-5.52,7.41Z" fill="#fefefe"/>
      <path id="_패스_1088" data-name="패스 1088" d="M152.88,124.98l-7.59,3.25c-3.07,1.31-5.56,.12-5.58-2.66l-.08-14.96c-.02-2.78,2.46-6.1,5.52-7.41l7.59-3.25c3.07-1.31,5.56-.12,5.58,2.66l.08,14.96c.02,2.78-2.45,6.1-5.52,7.41Z" fill="#fefefe"/>
    </g>
  </g>
</svg>