<?xml version="1.0" encoding="UTF-8"?>
<svg id="Layer_2" data-name="Layer 2" xmlns="http://www.w3.org/2000/svg" viewBox="0 0 100 100">
  <g id="Logo">
    <g id="symbol_19_01_0001_01" data-name="symbol 19 01 0001 01">
      <path id="_패스_398" data-name="패스 398" d="m69.96,20.75c-2.12-5.18-6.51-11.16-14.21-18l-.03.19-1.46,11.17s6.86,6.01,8.32,14.15c.5,2.66.31,5.41-.54,7.98-1.22,3.4-3.3,6.42-6.03,8.78h4.16c4.75-2.9,9.6-7.24,10.99-13.3.76-3.69.34-7.54-1.2-10.98" fill="#fff"/>
      <path id="_패스_399" data-name="패스 399" d="m36.68,71.2c-.5-2.66-.31-5.41.54-7.98,1.22-3.4,3.3-6.42,6.03-8.78h-4.16c-4.75,2.9-9.6,7.25-10.99,13.3-.76,3.69-.34,7.54,1.2,10.98,2.12,5.18,6.51,11.16,14.21,18l.03-.19,1.46-11.18s-6.86-6.01-8.32-14.14" fill="#fff"/>
      <path id="_패스_400" data-name="패스 400" d="m85.19,54.77s-5.73,6.39-13.51,8.02c-2.66.58-5.42.49-8.03-.28-3.63-1.18-6.85-3.36-9.32-6.27v4.28c2.94,4.88,7.39,9.82,13.66,11.07,3.78.66,7.67.13,11.13-1.51,5.04-2.17,10.82-6.45,17.42-13.7l-11.36-1.61Z" fill="#fff"/>
      <path id="_패스_401" data-name="패스 401" d="m31.27,27.87c-3.78-.66-7.67-.13-11.13,1.51-5.04,2.17-10.82,6.45-17.42,13.7l.19.03,11.16,1.58s5.73-6.39,13.51-8.02c2.66-.58,5.42-.49,8.03.28,3.63,1.18,6.85,3.36,9.32,6.27v-4.28c-2.94-4.87-7.39-9.82-13.66-11.07" fill="#fff"/>
      <rect id="_사각형_143" data-name="사각형 143" width="100" height="100" fill="none"/>
    </g>
  </g>
</svg>