<?xml version="1.0" encoding="UTF-8"?>
<svg id="_레이어_2" data-name="레이어 2" xmlns="http://www.w3.org/2000/svg" viewBox="0 0 90 90">
  <g id="Logo">
    <g id="symbol_21_02_0007_01" data-name="symbol 21 02 0007 01">
      <path id="_패스_1310" data-name="패스 1310" d="m44.53,86.62c-22.83-.13-41.23-18.74-41.1-41.57S22.17,3.82,45,3.95c21.32.12,39.05,16.44,40.94,37.68,2.07,22.68-14.63,42.74-37.31,44.82-1.36.12-2.73.18-4.09.17m11.68-42.93h0c2.86,0,5.72-.03,8.57.01.95.01,1.48-.22,1.33-1.29-.54-3.96-1.06-7.92-1.6-11.88-.03-.66-.58-1.17-1.23-1.14-.06,0-.12,0-.17.02-1.23.04-2.47.03-3.71.04-4.05.02-8.09.04-12.14.04-.75,0-.96.36-.96,1.02,0,3.96.04,7.92-.02,11.88-.02,1.05.4,1.33,1.35,1.32,2.86-.03,5.72-.01,8.57-.01m-23.08-.12c2.9,0,5.81-.04,8.72.02.96.02,1.25-.29,1.24-1.24-.04-3.84-.04-7.69,0-11.54,0-.96-.24-1.36-1.3-1.35-5.17.05-10.34.04-15.51,0-.83,0-1.26.21-1.38,1.07-.53,3.92-1.07,7.85-1.63,11.77-.15,1.06.3,1.3,1.29,1.28,2.86-.05,5.72-.02,8.59-.02m13.26,17c.14.07.29.13.44.17,5.59.01,11.17.04,16.76-.01.44-.12.79-.46.93-.9.57-3.91,1.07-7.83,1.59-11.74.11-.83-.22-1.12-1.07-1.12-5.88.03-11.77.03-17.66,0-.81,0-1.03.32-1.01,1.07.04,1.36,0,2.73,0,4.09v8.44m-3.5.21c.07-.17.12-.35.15-.54.01-4.1,0-8.19.03-12.29.01-.97-.55-.98-1.24-.98-5.8,0-11.61.02-17.41-.02-.99,0-1.3.35-1.17,1.28.52,3.84,1.03,7.67,1.54,11.51.1.79.5,1.06,1.29,1.04,2.13-.04,4.27-.01,6.4-.01h10.41m20.36,3.32h-1.36c-4.7,0-9.39.04-14.09-.03-1.2-.02-1.53.37-1.52,1.54.05,5.51.02,11.02.03,16.52,0,.37.04.75.07,1.11,5.89.47,15.29-10.14,16.87-19.14m-20.35,19.46c.08-.43.13-.86.16-1.3,0-5.67-.01-11.35.02-17.02,0-.92-.32-1.15-1.19-1.14-4.91.03-9.81.01-14.72.02-.45.03-.9.09-1.35.17,1.31,2.86,2.36,5.57,3.74,8.09,2.24,4.09,5.15,7.65,9.44,9.79,1.27.54,2.57,1.01,3.9,1.39m20.19-57.48c0-.3-.05-.59-.11-.88-1.34-4.01-3.34-7.77-5.92-11.12-2.42-3-5.24-5.48-9.07-6.53-1.48-.41-1.67-.26-1.67,1.21,0,5.33.03,10.66-.02,15.99-.01,1.1.29,1.48,1.43,1.47,4.69-.06,9.38-.02,14.08-.03.41,0,.81-.07,1.29-.1m-36.68-.03c.5.02.92.06,1.34.06,4.66,0,9.31-.03,13.97.02,1.08.01,1.38-.31,1.37-1.37-.04-5.38-.02-10.77-.02-16.15,0-.4-.07-.8-.1-1.19-6.21-.04-15.67,10.61-16.56,18.63m41.43,3.45c.03.52.03.86.07,1.18.5,3.97,1.05,7.93,1.48,11.9.1.92.48,1.01,1.21,1.01,3.67-.02,7.34-.05,11.01.02,1.07.02,1.3-.36,1.23-1.34-.31-4.13-1.31-8.18-2.95-11.98-.32-.45-.83-.73-1.38-.75-2.47-.08-4.95-.04-7.42-.04h-3.25m-46.28,0c-3.79,0-7.49-.02-11.19.03-.27,0-.66.37-.79.66-1.76,3.89-2.79,8.06-3.04,12.32-.05.74.15,1.08.97,1.08,3.79-.03,7.59-.03,11.38,0,.87,0,1.06-.35,1.08-1.14.03-1.4.14-2.81.32-4.2.37-2.86.82-5.7,1.27-8.76m-14.8,17.48c-.06.1-.11.2-.15.31.05,4.48,1.02,8.91,2.87,12.99.21.29.54.47.9.48,3.54.03,7.08.01,10.62,0,.16-.03.31-.08.44-.16.02-.27.02-.54,0-.81-.5-3.96-1.04-7.92-1.48-11.89-.1-.88-.54-.91-1.18-.91-3.33,0-6.66,0-9.99,0h-2.04m61.06,13.74c.55.02,1.01.06,1.47.06,2.99,0,5.97-.05,8.96.03.95.18,1.87-.44,2.05-1.39,0,0,0,0,0,0,.67-2.42,1.49-4.8,2.05-7.24.29-1.66.48-3.33.57-5.01-.25-.07-.5-.12-.75-.15-3.92-.01-7.85,0-11.77-.04-.82,0-.94.39-1,1.1-.21,2.63-.46,5.26-.77,7.87-.18,1.55-.52,3.09-.81,4.77m-10.39,20.35c5.51-.23,18.6-11.15,20.33-16.86-.33-.05-.65-.08-.98-.1-2.95,0-5.89.03-8.84-.03-.9-.02-1.23.3-1.5,1.14-1.57,5.11-4.1,9.88-7.45,14.05-.47.57-.98,1.13-1.56,1.8m-45.72-16.81c1.66,5.65,15.37,17.05,20.05,16.67-.83-1.02-1.66-1.98-2.43-3-2.84-3.86-5-8.16-6.42-12.74-.21-.65-.4-1.12-1.27-1.11-3.03.06-6.06.02-9.09.03-.28.02-.56.07-.84.15M77.5,26.01c-1.74-5.64-15.66-17.03-20.02-16.48.99,1.23,2.01,2.41,2.93,3.67,2.59,3.66,4.61,7.68,5.99,11.95.14.41.68.96,1.05.97,2.64.09,5.28.06,7.92.05.7,0,1.41-.1,2.14-.16M31.82,9.52c-5.42.33-18.69,11.37-19.86,16.49.37.07.74.11,1.12.14,2.78,0,5.55-.07,8.33-.02.98.02,1.36-.37,1.75-1.24,1.48-3.35,2.95-6.71,4.7-9.92,1.2-1.9,2.53-3.72,3.97-5.44" fill="#fff"/>
      <rect id="_사각형_697" data-name="사각형 697" width="90" height="90" fill="none"/>
    </g>
  </g>
</svg>