<?xml version="1.0" encoding="UTF-8"?>
<svg id="_레이어_2" data-name="레이어 2" xmlns="http://www.w3.org/2000/svg" viewBox="0 0 253.57 227.17">
  <g id="Logo">
    <g id="symbol_01_03_0002_02" data-name="symbol 01 03 0002 02">
      <path id="_패스_809" data-name="패스 809" d="M19.31,.22c-5.93,.75-10.16,3.93-13.33,8.28C.13,16.53-1.13,25.41,.92,34.7c1.72,7.8,5.66,14.38,13.71,18.35,2.02,1,2.55,2.6,2.55,4.58-.03,20.48-.04,40.96,0,61.45-.03,.91,.07,1.82,.29,2.7,.6,1.78,2.34,2.91,4.21,2.73,2.58-.15,4.02-1.8,4.02-4.75,.02-10.27,.02-20.54,0-30.82,0-10.33,.04-20.66-.03-31-.19-2.31,1.16-4.48,3.33-5.32,3.43-1.64,6.34-4.19,8.41-7.38,5.03-7.43,6.33-15.52,4.9-24.01-.88-6.14-3.83-11.8-8.36-16.03C29.95,1.52,25.16-.52,19.31,.22Z" fill="#fff"/>
      <path id="_패스_810" data-name="패스 810" d="M250.41,.43c-1.62-.5-3.49-.31-5.5-.43V23.32h-8.58V.23h-8.57V23.29h-8.57V.07h-2.57c-4.53,0-5.95,1.32-5.95,5.48,0,6.44-.09,12.89,.04,19.33-.02,3.22,.26,6.44,.84,9.61,1.64,7.73,5.38,14.37,13.33,18.36,1.99,.89,3.2,2.95,2.99,5.13-.04,20.3-.04,40.61-.02,60.91-.02,.79,0,1.58,.1,2.37,.33,1.91,1.98,3.3,3.91,3.31,1.87,.19,3.62-.94,4.22-2.72,.22-.88,.32-1.79,.29-2.7,.02-20.3,.05-40.61-.04-60.92-.24-2.51,1.25-4.85,3.62-5.71,1.06-.49,2.06-1.11,2.97-1.84,6.14-4.67,9.89-11.83,10.24-19.54,.56-8.79,.3-17.62,.38-26.43,.09-.61-.02-1.23-.31-1.77-.8-.96-1.68-2.18-2.82-2.53Z" fill="#fff"/>
      <path id="_패스_811" data-name="패스 811" d="M232.19,158.99c-2.53-2.08-6.22-1.91-8.54,.4-8.89,9.14-41.98,39.08-94.25,40.36-53.69,1.28-88.78-28.33-98.25-37.44-2.39-2.23-6.09-2.29-8.55-.14-2.23,1.93-2.47,5.31-.54,7.54,.12,.14,.26,.28,.39,.41,8.38,8.07,35.13,30.83,76.18,38.41v13.65c0,2.76,2.24,4.98,5,4.98h46.15c2.76,0,4.99-2.23,5-4.98v-13.91c42.59-8.29,69.63-32.91,77.83-41.35,2.09-2.09,2.09-5.48,0-7.57-.13-.13-.27-.26-.42-.38Z" fill="#fff"/>
    </g>
  </g>
</svg>