<?xml version="1.0" encoding="UTF-8"?>
<svg id="_레이어_2" data-name="레이어 2" xmlns="http://www.w3.org/2000/svg" viewBox="0 0 280 280">
  <g id="Logo">
    <g id="symbol_17_02_0001_01" data-name="symbol 17 02 0001 01">
      <path id="Path_234" data-name="Path 234" d="M163.62,10.74c-6.69,1.48-13.27,3.4-17.78,8.91-4.24,5.19-6.33,11.71-8.07,18.09-3.34,12.26-5.72,27.34-17.08,35.07-2.71,1.84-6.98,2.71-7.28,6.6-.26,3.46,2.87,6.38,5.49,8.11,2.15,1.42,4.16-2.04,2.02-3.45-1.06-.7-4.46-3.25-3.35-4.87,.43-.42,.95-.73,1.52-.92,.63-.3,1.25-.6,1.86-.94,1.29-.74,2.51-1.58,3.67-2.51,4.41-3.73,7.89-8.43,10.16-13.74,2.84-6.25,4.41-12.94,6.13-19.56,1.54-5.93,3.12-12.08,6.49-17.28,1.71-2.72,4.1-4.94,6.94-6.45,3.21-1.68,6.84-2.44,10.35-3.21,2.51-.55,1.45-4.41-1.06-3.86h0Z" fill="#fff"/>
      <path id="Path_235" data-name="Path 235" d="M120.94,105.18c1.76,3.02,.68,6.86,.29,10.11-.45,3.77-.14,7.53,2.42,10.53,5.87,6.86,15.76,4.09,23.54,4.63,15.57,1.17,28.99,11.43,34.2,26.15,2.88,8.45,2.86,17.62-.05,26.06-.85,2.44,3.01,3.48,3.86,1.06,5.39-15.48,1.29-33.62-10.54-45.03-5.7-5.49-12.77-9.35-20.47-11.19-4.02-.92-8.16-1.29-12.28-1.08-4.19,.18-8.79,.75-12.65-1.26-1.69-.78-3.03-2.15-3.76-3.86-.56-1.89-.66-3.89-.3-5.82,.48-4.17,1.44-8.45-.81-12.31-1.3-2.22-4.76-.21-3.45,2.02h0Z" fill="#fff"/>
      <path id="Path_236" data-name="Path 236" d="M170.08,11.25c-1.34,12.49,1.41,25.07,7.85,35.86,10.17,16.69,28.1,27.08,47.64,27.61,2.57,.07,2.57-3.93,0-4-11.53-.33-22.64-4.35-31.71-11.46-9.07-7.21-15.54-17.19-18.41-28.42-1.65-6.39-2.11-13.02-1.36-19.58,0-1.1-.9-1.99-2-2-1.09,.02-1.98,.91-2,2h0Z" fill="#fff"/>
      <path id="Path_237" data-name="Path 237" d="M201.03,111.13c11.03-.3,20.63-10.13,20.58-21.18-.01-2.57-4.01-2.58-4,0,.04,8.84-7.72,16.94-16.58,17.18-2.57,.07-2.58,4.07,0,4Z" fill="#fff"/>
      <path id="Path_238" data-name="Path 238" d="M53.29,59.98c6.19-5.38,15.46-3.01,21.91,.59,3.24,1.72,6.09,4.08,8.39,6.93,2.93,3.79,4.97,8.16,7.38,12.27,2.38,4.25,5.58,7.97,9.43,10.95,2.2,1.49,4.27,3.19,6.16,5.06,1.45,1.61,2.57,3.48,3.3,5.52,3.31,9.24-.51,18.85-6.87,25.76-7.21,7.82-18.42,14.31-29.34,11.35-2.49-.67-3.55,3.18-1.06,3.86,10.94,2.96,22.18-2.17,30.23-9.42,7.76-6.98,13.45-16.95,12.05-27.68-.6-5.26-3.09-10.13-7-13.7-2.18-1.93-4.68-3.44-6.88-5.35-1.91-1.69-3.58-3.63-4.96-5.77-2.85-4.31-4.94-9.08-7.87-13.34-2.44-3.57-5.58-6.59-9.24-8.89-8.38-5.3-20.26-8.08-28.45-.97-1.95,1.69,.89,4.51,2.83,2.83h0Z" fill="#fff"/>
      <path id="Path_239" data-name="Path 239" d="M51.1,120.18c-2.11-.93-4.54-.81-6.54,.34-1.95,1.06-3.35,2.9-3.87,5.05-.47,2.29-.05,4.67,1.17,6.67,1.29,2.09,3.24,3.67,5.54,4.51,2.67,.92,5.56,1.06,8.31,.39,1.07-.29,1.69-1.39,1.4-2.46-.29-1.07-1.39-1.69-2.46-1.4-.83,.2-1.68,.29-2.53,.27-.44,0-.88-.02-1.32-.06,.01,0-.34-.04-.17-.02s-.18-.03-.17-.03c-.25-.05-.5-.1-.75-.16-.42-.1-.84-.23-1.24-.39-.21-.08-.07-.03-.02,0-.1-.04-.2-.09-.3-.14-.23-.11-.45-.23-.67-.36s-.41-.26-.61-.4-.01,0,.02,.02c-.08-.06-.15-.12-.22-.19-.31-.28-.61-.58-.88-.9-.23-.26,.03,.08-.16-.21-.11-.16-.22-.32-.31-.49s-.19-.33-.28-.51c-.04-.09-.08-.17-.13-.26-.14-.29,.09,.25-.02-.05-.14-.39-.25-.79-.34-1.19-.08-.37,0,.16-.04-.22-.02-.22-.03-.44-.02-.66,0-.19,.01-.38,.03-.57,.03-.24,0,.03,0,.06,.02-.09,.04-.19,.06-.28,.04-.18,.09-.35,.15-.53,.03-.08,.06-.17,.09-.25-.07,.18-.08,.16,.01,0,.1-.17,.2-.35,.31-.53,.05-.07,.1-.15,.15-.22-.02,.03-.19,.23-.04,.06,.25-.29,.52-.55,.81-.8-.28,.23,.13-.08,.23-.15,.17-.11,.35-.2,.53-.3,.02-.01,.29-.14,.08-.04s.12-.04,.16-.06c.19-.06,.38-.12,.58-.17,.11-.03,.22-.04,.33-.07-.18,.04-.24,.02-.03,.01,.2,0,.39,0,.59,0,.08,0,.17,.01,.25,.02-.19-.02-.24-.05-.03,.01,.11,.03,.71,.23,.34,.07,.96,.52,2.16,.21,2.74-.72,.55-.95,.23-2.17-.72-2.74h0Z" fill="#fff"/>
      <path id="Path_240" data-name="Path 240" d="M65.86,69c5.35,5.67,9.42,13.04,9.24,21.03-.15,7.15-3.89,14.51-10.89,17.07-3.67,1.46-7.78,1.32-11.34-.38-2.29-1.17-4.31,2.28-2.02,3.45,7.76,3.98,17.64,1.42,23.03-5.3,5.75-7.16,6.51-17.11,3.29-25.53-1.94-4.91-4.83-9.38-8.49-13.18-1.77-1.88-4.59,.96-2.83,2.83h0Z" fill="#fff"/>
      <path id="Path_241" data-name="Path 241" d="M36.57,69.49c5.39-2.1,9.01-7.23,9.17-13.02,.17-3.02-1.14-5.94-3.49-7.84-2.44-1.78-5.8-1.59-8.03,.45-1.84,1.81,.99,4.64,2.83,2.83,.43-.4,1.02-.58,1.6-.5,.7,.08,1.35,.41,1.81,.94,1.22,1.3,1.42,3.37,1.23,5.1-.49,3.62-2.83,6.72-6.18,8.17-1.04,.32-1.66,1.4-1.4,2.46,.3,1.06,1.4,1.68,2.46,1.4h0Z" fill="#fff"/>
      <path id="Path_242" data-name="Path 242" d="M28.97,70.93c-14.03,6.39-23.21,21.06-23.93,36.31-.79,16.67,7.87,32.55,21.29,42.13,7.49,5.28,16.12,8.7,25.19,9.99,1.06,.26,2.14-.36,2.46-1.4,.28-1.06-.34-2.16-1.4-2.46-14.97-2.17-29.2-10.3-37.1-23.44-7.68-12.77-8.85-28.99-1.35-42.11,3.85-6.83,9.75-12.27,16.87-15.56,.95-.56,1.27-1.78,.72-2.74-.57-.93-1.78-1.25-2.74-.72h0Z" fill="#fff"/>
      <path id="Path_243" data-name="Path 243" d="M191.83,9.02c9.74-1.79,19.77-1.25,29.27,1.56,9.41,2.96,17.87,8.37,24.52,15.66,6.43,7.15,11.47,15.44,14.87,24.43,3.78,9.86,6.49,20.11,8.09,30.55,1.83,10.58,1.99,21.38,.47,32.01-1.57,9.43-4.7,18.54-9.26,26.94-9.13,17.04-22.91,30.92-38.13,42.6-16.71,12.82-34.79,23.75-53.23,33.89-18.55,10.2-37.52,19.61-56.29,29.4-4.63,2.42-9.25,4.86-13.85,7.34-4.02,2.17-8.57,4.54-10.73,8.79-1.8,3.53-1.73,8.48,1.29,11.37,3.62,3.46,8.9,1.97,12.35-.9,7.21-6.01,8.29-17.11,5.78-25.59-2.8-9.42-9.86-16.93-17.27-23.04-15.2-12.54-33-21.18-49.4-31.95-8.17-5.17-15.71-11.28-22.46-18.21-3.24-3.44-6.31-7.4-7.74-11.96-1.27-4.32-.95-8.95,.91-13.06,1.51-3.45,4.07-6.5,7.77-7.62,2.46-.74,1.41-4.61-1.06-3.86-8.5,2.57-13.03,12.55-12.36,20.95,.79,9.92,8.52,17.8,15.55,24.08,14.66,13.11,32.39,21.93,48.91,32.35,8.19,5.17,16.35,10.75,23.2,17.65,6.58,6.64,11.76,15.1,11.15,24.76-.17,4.41-1.9,8.61-4.9,11.84-1.42,1.43-3.52,2.8-5.63,2.59-1.65-.22-2.95-1.52-3.17-3.18-.87-4.26,2.67-7.37,5.93-9.37,4.27-2.62,8.82-4.84,13.26-7.17,18.71-9.84,37.67-19.21,56.26-29.29,18.53-10.04,36.75-20.77,53.71-33.31,15.68-11.6,30.15-24.89,40.47-41.61,10.92-17.12,15.71-37.44,13.56-57.63-.98-10.76-3.09-21.39-6.31-31.71-2.73-9.47-6.89-18.47-12.34-26.67-5.47-8.19-12.74-15.02-21.25-19.97-8.71-4.83-18.46-7.46-28.41-7.67-4.88-.11-9.76,.28-14.56,1.14-2.53,.44-1.46,4.3,1.06,3.86h0Z" fill="#fff"/>
      <path id="Path_244" data-name="Path 244" d="M127.5,98.34c5.31-.05,10.55-1.27,15.33-3.58,.95-.56,1.26-1.78,.72-2.74-.57-.93-1.78-1.25-2.74-.72-4.16,1.98-8.71,3.01-13.32,3.03-1.1,0-2,.9-2,2s.9,2,2,2h0Z" fill="#fff"/>
      <rect id="Rectangle_30" data-name="Rectangle 30" width="280" height="280" fill="none"/>
    </g>
  </g>
</svg>