<?xml version="1.0" encoding="UTF-8"?>
<svg id="_레이어_2" data-name="레이어 2" xmlns="http://www.w3.org/2000/svg" viewBox="0 0 140 100">
  <g id="Logo">
    <g id="symbol_20_02_0005_01" data-name="symbol 20 02 0005 01">
      <path id="_패스_1497" data-name="패스 1497" d="m137.51,46.78c0,29.82-25.27,52.21-54.34,48.79-.68,0-1.36-.07-2.03-.21-7.6-2.51-15.09-.74-22.74,0-21.58,2.11-38.53-6.03-49.34-25.09-6.77-11.94-7.22-24.86-3.61-38,.49-2.04,2.14-3.6,4.21-3.96,10.12-2.49,20.25-2.88,30.23.43,3.2,1.06,4.83.56,6.41-2.57,4.62-9.18,11.84-15.96,20.68-21.12,2.11-1.43,4.88-1.42,6.99,0,8.68,5.16,15.86,11.86,20.5,20.87,1.76,3.42,3.55,3.91,6.94,2.78,9.4-3.14,18.95-2.84,28.56-.75,3.44.75,5.32,2.51,6.02,5.96,1,4.21,1.52,8.52,1.54,12.85m-96.46,10.07c0-5.55-.04-10.38.02-15.22.15-1.52-.84-2.93-2.32-3.31-5.04-1.75-10.36-2.53-15.69-2.28-.65.03-1.51-.09-1.7.74-.16.73.53,1.19,1.01,1.66,4.01,3.99,8.03,7.98,12.05,11.96,2.06,2.03,4.14,4.03,6.62,6.45m66.46,6.18c5-.13,10.01.08,14.98.62,1.45.19,2.3-.75,2.81-2,1.99-5.08,2.81-10.54,2.39-15.98-.09-1.62-.77-2.19-2.06-.91-6.06,6.07-12.1,12.16-18.12,18.27m-32.13-17.36l.75.45c3.51-3.79,6.93-7.67,11.09-10.75.75-.55.49-1.4.16-2.18-2.29-5.19-5.66-9.84-9.87-13.64-.38-.35-1.03-.76-1.44-.66-.8.19-.68,1.06-.68,1.72-.01,8.36-.02,16.71,0,25.07m-9.78,1.65c0-9.68,0-18.24,0-26.8,0-.66.03-1.59-.78-1.64-.54-.04-1.21.51-1.69.94-3.94,3.6-7.13,7.94-9.38,12.78-.49,1.05-.99,2.15.24,3.04,4.19,3.05,7.7,6.83,11.62,11.68m48.18,25.54c-10,.26-18.38,4.33-25.71,10.88-.56.5-1.46,1.02-1.09,1.91s1.38.56,2.13.58c10.21.02,20.02-3.97,27.32-11.11.47-.44,1.15-.96.85-1.7-.31-.78-1.16-.5-1.8-.55-.56-.05-1.13-.01-1.7-.01m-86.45-.03c-1.17.31-2.77-.65-3.68.68-.47.68.5,1.4,1.07,1.92,7.31,6.96,17.03,10.84,27.12,10.82.74,0,1.76.31,2.11-.62.34-.9-.58-1.39-1.13-1.9-7.21-6.55-15.56-10.44-25.49-10.9m49.51,3.83c7.94-4.79,14.98-20.38,13.41-29.01-.33-1.83-1.05-1.39-1.97-.53-2.6,2.39-4.8,5.17-6.53,8.25-3.72,6.45-5.43,13.86-4.91,21.29m23.01-21.37l.85.37c6.09-5.9,12.22-11.76,18.26-17.71,1.55-1.53.2-1.83-1.1-1.9-5.46-.29-10.92.57-16.03,2.5-1.24.37-2.07,1.54-1.99,2.84v13.9m-66.46,8.11c-6.22-6.96-12.89-13.52-19.96-19.62-.78,5.98-.05,12.05,2.12,17.67.42,1.08.99,2.28,2.32,2.15,5.16-.52,10.35-.59,15.52-.2m30.8,9.39c-.64-9.41-3.89-17.67-10.44-24.49-.72-.75-1.32-2.28-2.59-1.71-.98.44-.49,1.85-.5,2.82-.07,9.68,3.75,17.78,10.17,24.8.74.81,1.48,2.27,2.59,1.87,1.44-.52.53-2.19.77-3.29" fill="#fff"/>
      <rect id="_사각형_747" data-name="사각형 747" width="140" height="100" fill="none"/>
    </g>
  </g>
</svg>