<?xml version="1.0" encoding="UTF-8"?>
<svg id="Layer_2" data-name="Layer 2" xmlns="http://www.w3.org/2000/svg" viewBox="0 0 115 126">
  <g id="Logo">
    <g id="symbol_11_02_0005_01" data-name="symbol 11 02 0005 01">
      <path id="_패스_938" data-name="패스 938" d="m89.46,70.76c7.37-7.01,7.65-18.66.64-26.03-7.01-7.37-18.66-7.65-26.03-.64-1.25,1.19-2.32,2.54-3.19,4.03-1.76-5.36-5.34-9.94-10.11-12.96,7.05-7.34,6.81-19-.53-26.04-7.34-7.05-19-6.81-26.04.53-6.88,7.17-6.84,18.5.1,25.62-10.36,6.52-11.26,18.36-11.3,18.89-.07,1.03.72,1.93,1.75,1.99.04,0,.09,0,.13,0,.99,0,1.81-.77,1.88-1.75.03-.47.9-11.29,10.62-16.6,6.17,4.07,14.19,4.04,20.33-.07,9.85,5.28,10.73,16.2,10.76,16.67,0,.12.03.25.06.37-.87,5.91,1.19,11.88,5.53,15.99-4.1,2.42-7.37,6.03-9.39,10.34-3.82-9.42-14.56-13.97-23.98-10.15-9.42,3.82-13.97,14.56-10.15,23.98.98,2.43,2.47,4.62,4.37,6.42-10.94,6.42-11.88,18.72-11.92,19.26-.07,1.03.72,1.93,1.75,2,.04,0,.09,0,.13,0,.99,0,1.8-.77,1.87-1.75.03-.49.95-11.89,11.44-17.01,5.8,3.46,13.03,3.46,18.83,0,10.49,5.13,11.41,16.53,11.44,17.01.07.99.88,1.75,1.87,1.75h.12c1.04-.07,1.82-.96,1.75-2h0c-.04-.55-.97-12.84-11.91-19.27,3.04-2.89,5-6.72,5.56-10.87.02-.07.03-.14.04-.21,0-.03,0-.1.02-.22,0-.07.02-.14.02-.22.26-2.2,1.93-11.95,11.4-16.58,5.8,3.46,13.03,3.46,18.83,0,10.49,5.13,11.41,16.53,11.44,17.02.07.99.89,1.75,1.87,1.75h.12c1.04-.07,1.82-.96,1.75-2h0c-.04-.55-.97-12.84-11.91-19.27M22.82,22.42c0-8.1,6.56-14.66,14.66-14.66s14.66,6.56,14.66,14.66-6.56,14.66-14.66,14.66h0c-8.09,0-14.65-6.57-14.66-14.66m14.79,80.27c-8.1,0-14.66-6.56-14.66-14.66s6.56-14.66,14.66-14.66c8.1,0,14.66,6.56,14.66,14.66h0c0,.49-.03.97-.07,1.45l-.02.14c-.82,7.43-7.1,13.06-14.57,13.07m24.49-45.26c0-8.1,6.56-14.66,14.66-14.66,8.1,0,14.66,6.56,14.66,14.66s-6.56,14.66-14.66,14.66h0c-8.09,0-14.65-6.57-14.66-14.66" fill="#fff"/>
      <rect id="_사각형_323" data-name="사각형 323" width="115" height="126" fill="none"/>
    </g>
  </g>
</svg>