<?xml version="1.0" encoding="UTF-8"?>
<svg id="_레이어_2" data-name="레이어 2" xmlns="http://www.w3.org/2000/svg" viewBox="0 0 139 81">
  <g id="Logo">
    <g id="symbol_18_04_0003_01" data-name="symbol 18 04 0003 01">
      <path id="_패스_1262" data-name="패스 1262" d="m69.12,4.85c-35.67,0-64.6,28.88-64.67,64.55.8.45,1.59.9,2.4,1.34,10.7,5.91,21.43,6.3,32.2.06,2.78-1.61,5.88-2.71,8.61-4.39,15.22-9.42,30.17-8.32,44.77,1.21,14.24,9.3,27.89,9.52,41.35,1.86-.02-35.7-28.97-64.63-64.67-64.63m6.45,30.18c1.63,0,2.96,1.32,2.96,2.96s-1.32,2.96-2.96,2.96c-1.63,0-2.96-1.32-2.96-2.96,0-1.63,1.32-2.96,2.96-2.96h0m-13.46,0c1.63,0,2.96,1.32,2.96,2.96s-1.32,2.96-2.96,2.96-2.96-1.32-2.96-2.96h0c0-1.63,1.32-2.96,2.96-2.96m16.45,10.43c-.82,1.17-3.89,5-8.82,5.28-.18.01-.37.02-.55.02-5.32,0-8.68-4.29-9.31-5.18-.46-.61-.33-1.48.28-1.93.61-.46,1.48-.33,1.93.28.01.01.02.03.03.05.51.71,3.27,4.25,7.46,4.02,3.69-.21,6.07-3.2,6.71-4.11.43-.63,1.29-.79,1.92-.36.63.43.79,1.29.36,1.92,0,.01-.01.02-.02.03" fill="#fff"/>
      <rect id="_사각형_613" data-name="사각형 613" width="139" height="81" fill="none"/>
    </g>
  </g>
</svg>