<?xml version="1.0" encoding="UTF-8"?>
<svg id="_레이어_2" data-name="레이어 2" xmlns="http://www.w3.org/2000/svg" viewBox="0 0 206 253">
  <g id="Logo">
    <g id="symbol_11_02_0002_01" data-name="symbol 11 02 0002 01">
      <g id="_그룹_168" data-name="그룹 168">
        <path id="_패스_514" data-name="패스 514" d="M103.48,15.06c.53-.86,.99-1.69,1.53-2.47,1.85-2.95,4.52-5.29,7.68-6.73,1.67-.68,3.49-.9,5.28-.65,5.54,.67,8.99,4.11,11.13,9.19,1.24,3.14,1.48,6.59,.68,9.86-.84,3.79-2.42,7.37-4.65,10.55-3.41,4.89-7.58,9.2-12.35,12.77-2.42,1.93-5.01,3.64-7.73,5.11-1.77,.93-1.3,.93-3.08,0-3.29-1.78-6.38-3.9-9.24-6.31-4.34-3.43-8.13-7.5-11.23-12.09-2.34-3.4-3.88-7.28-4.51-11.35-.89-6.5,1.21-11.8,6.37-15.64,2.9-2.17,6.67-2.81,10.12-1.72,2.27,.71,4.32,2.03,5.91,3.8,1.5,1.54,2.79,3.28,3.81,5.16,.08,.16,.17,.31,.28,.5Z" fill="#fff"/>
      </g>
      <path id="_패스_515" data-name="패스 515" d="M200.15,138.53c-4.38-4.41-8.74-8.84-13.21-13.17-1.34-1.19-2.07-2.91-2-4.7,.08-9.7,.03-19.4,.02-29.1,0-16.29-11.56-27.97-27.78-28.03-9.06-.04-18.12,0-27.18,.01-15.51,.03-26.34,9.51-28.27,24.91-1.76,14.11-3.4,28.24-5.03,42.38-1.4,12.12-2.7,24.25-4.05,36.37-2.01,10.64-2.83,21.43-4.19,32.16-.87,6.91-4.51,10.31-11.51,10.3-9.58-.01-19.16-.03-28.75-.04-.7,.03-1.4-.08-2.06-.33-4.98-2.04-7.14-5.1-7.16-10.73-.05-11.49-.09-22.98-.02-34.47,.1-2.87-1.06-5.65-3.17-7.6-3.25-3.16-6.36-6.45-9.62-9.59-1.36-1.31-1.41-2.26,0-3.6,3.19-3.05,6.24-6.24,9.35-9.38,1.73-1.75,3.35-3.6,3.35-6.23-.01-10.85-.08-21.71-.13-32.56,.07-.52,.09-1.05,.07-1.58-.91-8.01,3.38-13.61,13.35-13.18,10.94,.46,21.91,.29,32.86,.26,5.22-.02,8.63-3.53,8.66-8.48,.16-4.55-3.39-8.36-7.93-8.53-.22,0-.44,0-.67,0-12.43-.04-24.88-.31-37.29,.16-9.64,.37-17.26,4.87-21.89,13.71-3.15,3.79-3.68,8.42-3.76,13.03-.17,9.91-.13,19.83-.05,29.74,.12,1.99-.67,3.94-2.15,5.28-4.41,4.23-8.69,8.6-12.99,12.95-4.19,4.24-4.2,9.01,.03,13.31,4.28,4.36,8.58,8.71,13,12.94,1.42,1.26,2.18,3.1,2.07,4.99-.1,10.23-.19,20.46-.07,30.69,.17,14.54,11.84,25.24,23.49,25.89,11.1,.61,22.26,.36,33.39,.24,12.16-.08,22.68-8.5,25.43-20.34,1.81-7.95,2.32-16.14,2.86-24.29,1.61-8.27,2.26-16.67,3.29-25.03,2.74-22.19,5.45-44.38,8.14-66.57,.74-6.17,4.54-9.7,10.88-9.71,9.16,0,18.33,0,27.49,.04,7.08,.03,10.91,3.87,10.93,10.98,.04,11.49,.08,22.99,.02,34.48-.1,2.77,1.01,5.44,3.03,7.33,3.25,3.16,6.36,6.45,9.62,9.59,1.51,1.46,1.71,2.5,.01,4.05-3.03,2.77-5.75,5.87-8.75,8.68-2.7,2.41-4.14,5.92-3.94,9.53,.2,10.86,.08,21.72,.09,32.58,0,7.89-3.87,11.79-11.77,11.84-9.58,.06-19.17,.12-28.75,.17-5.26-.55-10.1-.49-13.79,4.52-5.29,7.17-10.96,14.07-16.64,20.94-3.71,4.49-1.8,9.24,1.2,12,3.65,3.35,8.88,2.42,12.17-1.69,4.53-5.65,9.07-11.3,13.53-17.01,.48-.64,1.09-1.18,1.79-1.56,.64-.33,1.34-.52,2.05-.57,1.68-.16,5.18-.33,9.77-.4,7.16,.04,14.32,.1,21.49,.11,4.02,.06,7.99-.92,11.53-2.83,9.57-5.21,14.14-13.4,14.3-24.14,.15-10.12,.18-20.24,.19-30.36-.02-1.47,.61-2.88,1.72-3.85,4.57-4.49,9.1-9.03,13.56-13.63,3.87-4.01,3.76-8.9-.2-12.89Z" fill="#fff"/>
      <rect id="_사각형_184" data-name="사각형 184" width="206" height="253" fill="none"/>
    </g>
  </g>
</svg>