<?xml version="1.0" encoding="UTF-8"?>
<svg id="Layer_2" data-name="Layer 2" xmlns="http://www.w3.org/2000/svg" viewBox="0 0 444 62">
  <g id="Logo">
    <g id="symbol_12_01_0011_02" data-name="symbol 12 01 0011 02">
      <path id="_패스_1070" data-name="패스 1070" d="m9,27.61c0,12.46,10.1,22.56,22.56,22.56h28.53c12.46,0,22.56-10.1,22.56-22.56h0v-15.91H9v15.91Z" fill="#fff"/>
      <path id="_패스_1071" data-name="패스 1071" d="m97.06,27.61c0,12.46,10.1,22.56,22.56,22.56h28.54c12.46,0,22.56-10.1,22.56-22.56h0v-15.91h-73.65v15.91Z" fill="#fff"/>
      <path id="_패스_1072" data-name="패스 1072" d="m185.12,27.61c0,12.46,10.1,22.56,22.56,22.56h28.54c12.46,0,22.56-10.1,22.56-22.56h0v-15.91h-73.65v15.91Z" fill="#fff"/>
      <path id="_패스_1073" data-name="패스 1073" d="m273.18,27.61c0,12.46,10.1,22.56,22.56,22.56h28.54c12.46,0,22.56-10.1,22.56-22.56v-15.91h-73.65v15.91Z" fill="#fff"/>
      <path id="_패스_1074" data-name="패스 1074" d="m361.24,27.61c0,12.46,10.1,22.56,22.56,22.56h28.54c12.46,0,22.56-10.1,22.56-22.56v-15.91h-73.65v15.91Z" fill="#fff"/>
      <rect id="_사각형_417" data-name="사각형 417" width="444" height="62" fill="none"/>
    </g>
  </g>
</svg>