<?xml version="1.0" encoding="UTF-8"?>
<svg id="Layer_2" data-name="Layer 2" xmlns="http://www.w3.org/2000/svg" viewBox="0 0 177 170">
  <g id="Logo">
    <g id="symbol_10_05_0001_02" data-name="symbol 10 05 0001 02">
      <rect id="_사각형_131" data-name="사각형 131" width="177" height="170" fill="none"/>
      <path id="_패스_784" data-name="패스 784" d="m110.05,60.96c2.99-1.54,2.94-1.64,1.26-4.5-2.01-3.44-2.05-3.5-5.54-1.41-2.05,1.23-3.83,1.19-5.62-.4-1.12-1.03-2.43-1.81-3.86-2.31-2.88-.94-3.88-2.84-3.69-5.8.2-3.2.04-3.21-3.23-3.21-4.05,0-4.13,0-4.04,4.06.25,2.13-1.08,4.12-3.14,4.7-1.44.47-2.77,1.23-3.92,2.22-2.25,2.08-4.38,1.96-6.85.31-2.66-1.78-2.75-1.65-4.38,1.16-2.02,3.49-2.05,3.54,1.56,5.61,1.77.86,2.74,2.82,2.35,4.75-.25,1.63-.27,3.28-.05,4.92.52,2.9-.49,4.67-3.06,5.97-2.92,1.48-2.86,1.6-1.2,4.5q2,3.47,5.5,1.44c2.42-1.4,3.36-1.36,5.6.34,1.21,1.02,2.58,1.84,4.05,2.4,2.75.88,3.66,2.68,3.53,5.47-.17,3.53-.04,3.54,3.55,3.54q3.78,0,3.78-3.76c0-.21.01-.41,0-.62-.28-2,.99-3.88,2.95-4.37,1.45-.46,2.78-1.21,3.93-2.2,2.28-2.13,4.47-2.11,7.03-.42,2.69,1.78,2.78,1.65,4.34-1.12,2.01-3.54,2.03-3.58-1.53-5.64-1.87-1.08-2.78-2.49-2.38-4.73.35-1.69.36-3.43.05-5.12-.62-2.87.58-4.52,3.02-5.78Zm-21.1,19.01c-6.06-.07-10.95-4.97-11-11.03.06-6.08,5.05-10.96,11.13-10.9,6,.06,10.85,4.92,10.9,10.92-.07,6.06-4.97,10.95-11.03,11h0Z" fill="#fff"/>
      <path id="_패스_785" data-name="패스 785" d="m89.02,65.29c-1.99.04-3.62,1.62-3.72,3.61-.02,2.02,1.6,3.68,3.62,3.7,2.01.02,3.66-1.58,3.7-3.58-.05-1.99-1.62-3.61-3.61-3.73Z" fill="#fff"/>
      <path id="_패스_786" data-name="패스 786" d="m176.58,118.93c-.02-36.86-.03-73.72-.05-110.57,0-4.84-1.64-6.53-6.37-6.53-54.17,0-108.34,0-162.51,0C2.93,1.83,1.28,3.54,1.28,8.36c-.01,28.34-.02,56.69-.03,85.03,0,10.93-.06,21.86-.09,32.79.07.48.11.96.11,1.44-.53,6.66,1.62,8.56,8.6,8.53,35.87-.15,71.74-.07,107.61-.07h51.92c5.52,0,7.12-1.59,7.14-7,0-2.12.07-4.25.11-6.37-.02-1.26-.07-2.52-.07-3.78Zm-55.43-39.99c-2.4,4.39-4.89,8.72-7.48,13.01-.95,1.64-3.04,2.2-4.68,1.25,0,0,0,0,0,0h0c-1.15-.46-2.23-1.07-3.2-1.83-1.9-1.7-3.46-.73-5.13.29-.52.35-.79.97-.68,1.59,0,1.58.06,3.16-.02,4.73-.12,2.48-1.36,3.9-3.82,3.96-4.8.12-9.6.12-14.4-.01-2.45-.07-3.63-1.51-3.76-4.02-.09-1.1-.09-2.2,0-3.29.38-1.65-.57-3.32-2.18-3.84-.8-.52-1.83-.51-2.62.02-1.26.82-2.57,1.58-3.92,2.26-2.07,1.07-3.99.64-5.17-1.33-2.46-4.12-4.86-8.27-7.19-12.47-1.17-2.11-.58-4.01,1.46-5.3.84-.59,1.74-1.1,2.68-1.51,2.08-.79,2.58-2.27,2.41-4.33.02-.82-.45-1.57-1.19-1.91-1.33-.7-2.64-1.46-3.91-2.26-2.07-1.31-2.63-3.19-1.46-5.3,2.33-4.18,4.72-8.32,7.17-12.44,1.19-2.01,3.01-2.45,5.13-1.38,1.07.46,2.09,1.05,3.01,1.76,1.89,1.68,3.43.7,5.08-.34.66-.42.64-.99.64-1.6,0-1.51-.04-3.02.01-4.53.09-2.75,1.51-4.15,4.25-4.19,2.26-.03,4.53,0,6.79,0s4.67-.04,7,.01c2.06-.14,3.84,1.41,3.98,3.47,0,.11,0,.22,0,.34.09,1.51.09,3.02,0,4.53-.07,1.02.48,1.97,1.39,2.42,1.19,1.09,3.02,1.08,4.19-.03,1.01-.72,2.08-1.34,3.2-1.85,1.64-1.06,3.84-.59,4.9,1.05.08.12.15.25.22.38,2.44,4.12,4.83,8.27,7.17,12.46,1.09,1.66.62,3.9-1.04,4.98h0c-.1.07-.21.13-.31.18-.87.67-1.83,1.22-2.84,1.64-2.49.81-2.49,2.68-2.36,4.74.05.87.63,1.14,1.21,1.49,1.34.82,2.7,1.61,4.02,2.47,1.85,1.2,2.46,2.86,1.43,4.74Z" fill="#fff"/>
      <path id="_패스_788" data-name="패스 788" d="m139.77,156.73c-2.8-.15-5.6-.06-8.41-.06-7.81,0-7.91.03-10.27-7.43-.67-2.13-1.59-2.81-3.82-2.8-16.91.1-33.83.04-50.74.06-2.89,0-6.32-.8-8.51.47-2.1,1.22-2.16,4.94-2.97,7.59-.54,1.74-1.5,2.16-3.17,2.13-4.44-.09-8.89-.1-13.34,0-3.91.09-6.41,2.24-6.4,5.26,0,3.22,2.55,5.25,6.64,5.31.68.01,1.35,0,2.03,0h48.13c16.82,0,33.63,0,50.45-.02,3.73,0,6.11-2.03,6.27-5.09.15-2.93-2.25-5.25-5.9-5.44Z" fill="#fff"/>
    </g>
  </g>
</svg>