<?xml version="1.0" encoding="UTF-8"?>
<svg id="_레이어_2" data-name="레이어 2" xmlns="http://www.w3.org/2000/svg" viewBox="0 0 117 217">
  <g id="Logo">
    <g id="symbol_13_01_0001_02" data-name="symbol 13 01 0001 02">
      <rect id="_사각형_113" data-name="사각형 113" width="117" height="217" fill="none"/>
      <circle id="_타원_7" data-name="타원 7" cx="101.18" cy="35.76" r="4.03" fill="#fff"/>
      <circle id="_타원_8" data-name="타원 8" cx="110.11" cy="14.75" r="3.07" fill="#fff"/>
      <path id="_패스_325" data-name="패스 325" d="M83.45,25.09c-5.72,0-10.35-4.64-10.35-10.35,0-2.74,1.09-5.37,3.03-7.32h0c4.04-4.04,10.59-4.04,14.63,0,4.04,4.04,4.04,10.59,0,14.63-1.94,1.94-4.57,3.03-7.32,3.03Zm-3.81-14.16c-2.11,2.11-2.11,5.52,0,7.62,2.11,2.11,5.52,2.11,7.62,0,2.11-2.11,2.11-5.52,0-7.62,0,0,0,0,0,0-2.11-2.1-5.52-2.1-7.62,0Z" fill="#fff"/>
      <path id="_패스_326" data-name="패스 326" d="M93.62,168.23c-1.02-6.22-4.72-12.69-10.5-15.62-6.3-3.2-15.25-2.91-21.98-1.46-6.15,1.33-12.07,4.08-18.36,4.18-6.83,.11-13.38-2.95-18.85-7.06-3.29-2.47-6.99-5.51-10.98-4.55-2.12,.66-3.94,2.04-5.14,3.9-2.15,3.13-3.63,6.67-4.34,10.4-5.47,24.91,10.29,49.54,35.2,55.02,20.95,4.6,42.32-5.83,51.57-25.18,1.92-3.93,3.14-8.16,3.6-12.51,.23-2.37,.16-4.76-.22-7.11Z" fill="#fff"/>
    </g>
  </g>
</svg>