<?xml version="1.0" encoding="UTF-8"?>
<svg id="_레이어_2" data-name="레이어 2" xmlns="http://www.w3.org/2000/svg" viewBox="0 0 124 64">
  <g id="Logo">
    <g id="symbol_20_02_0003_01" data-name="symbol 20 02 0003 01">
      <rect id="_사각형_279" data-name="사각형 279" width="124" height="64" fill="none"/>
      <path id="_패스_769" data-name="패스 769" d="M115.35,2.2l-5.84,11.47c6.93,5.62,7.19,13.87,7.31,22.36,.05,3.76,1.3,7.52,2.21,11.23,.55,2.26,1.7,4.38,2.2,6.64,1.66,7.45,.45,8.92-6.96,8.92-14.16,0-28.32-.12-42.48,.05-3.54,.04-5.13-1.2-5.65-4.65-1.42-9.51,1.01-17.31,8.72-23.57,4.4-3.78,8.47-7.92,12.17-12.38,4.79-5.49,9.18-11.15,17.81-9.77,1.22,.2,3.18-1.87,4.18-3.32,1.63-2.59,3.11-5.27,4.43-8.03l1.9,1.06Z" fill="#fff"/>
      <path id="_패스_770" data-name="패스 770" d="M20.02,31.21c-2.64-1.7-4.47-3.26-6.57-4.15-2.65-1.12-4.09-2.24-1.17-6.02l9.51,8.5c3.65-1.51,7.28-3.89,11.16-4.44,9.61-1.36,20.4,5.23,22.93,14.72,1.66,6.22,1.2,13.05,1.22,19.6,0,1.12-2.4,3.21-3.71,3.23-15.15,.23-30.3,.22-45.45-.01-1.54-.03-3.84-1.86-4.45-3.39-3.31-8.37,.09-17.07,8.77-23.27,2.12-1.51,4.45-2.74,7.76-4.77Z" fill="#fff"/>
    </g>
  </g>
</svg>