<?xml version="1.0" encoding="UTF-8"?>
<svg id="Layer_2" data-name="Layer 2" xmlns="http://www.w3.org/2000/svg" viewBox="0 0 252 252">
  <g id="Logo">
    <g id="symbol_01_01_0007_01" data-name="symbol 01 01 0007 01">
      <path id="_합치기_40" data-name="합치기 40" d="m46.03,238.51h-2.43v-.17c-16.18-2.06-28.53-24.52-28.53-52.84s12.35-50.78,28.53-52.84v-.17h79.48c.14-2.17.79-2.99,2.27-2.97,1.42.03,1.98.87,2.19,2.97.03.28.05.58.07.91.07,1.31.14,2.64.25,3.95.11,1.49.34,2.96.68,4.42,3.17,12.27,14.16,20.91,26.83,21.1,3.24.02,5.65-2.15,5.72-5.16.07-2.98-2.27-5.27-5.51-5.4-9.04-.34-15.84-6.43-17.19-14.96-.16-.97-.25-1.96-.26-2.95-.01-.64,0-1.28,0-1.91-.02-4.3,0-8.6,0-12.9v-1.75h-2.72l-4.64-.03h-3.19c0,.94.03,1.83,0,2.72.11,1.25-.81,2.35-2.05,2.46-.08,0-.15,0-.23,0-1.24,0-2.25-.99-2.25-2.23,0-.09,0-.17.01-.26-.03-.84,0-1.69,0-2.78-1.59,0-3.08,0-4.56,0-5.67-.01-8.52-2.89-8.56-8.56-.03-3.54-.02-7.08,1.45-10.39,3.34-7.5,9.05-11.87,17.3-12.4,4.35-.28,8.77-.57,13.07.64,1.24.35,2.44.86,3.77,1.34v-10.67h-5.58c-1.31,0-2.62.02-3.93,0-3.92-.07-7.16-2.56-7.6-6.43-.62-5.44-.4-10.88,2.39-15.85,2.5-4.61,6.62-8.13,11.57-9.87.41-.15.82-.32,1.21-.48-4.42-14.83,3.2-28.18,16.02-31.62,1.11-.3,2.23-.53,3.35-.79h12.7c1.55.39,3.13.7,4.65,1.19,9.39,3.08,15.78,11.79,15.89,21.67.02,1.56.02,3.12,0,4.69.16,4.62-3.46,8.5-8.08,8.66-.15,0-.3,0-.46,0-2.22.05-4.43,0-6.65,0h-1.53v8.44c1.63,0,3.18.02,4.73,0,4.15-.1,8.25.93,11.85,2.99,1.37.78,1.77,1.99,1.14,3.16-.51,1.07-1.79,1.52-2.86,1.01-.09-.04-.17-.09-.25-.14-3.61-1.95-7.71-2.81-11.79-2.5-.94.03-1.89.02-2.83.02-1.72-.07-3.45.01-5.16.24-8.77,1.29-15.37,8.66-15.69,17.52-.1,1.81-.1,3.63-.02,5.44-.1,2.03,1.46,3.75,3.48,3.86.16,0,.31,0,.47,0,3.41.05,6.82.01,10.38.01,0-1.23-.03-2.28.01-3.32-.07-1.19.85-2.2,2.03-2.27.03,0,.06,0,.09,0,1.22-.08,2.28.84,2.37,2.06,0,.05,0,.1,0,.15.05.55.02,1.11.02,1.66v1.47c1.47.32,1.49.32,1.51-.92.02-2.27-.01-4.53.01-6.8.02-1.57.85-2.53,2.16-2.58,1.28-.03,2.34.99,2.37,2.27,0,.1,0,.19-.01.29.03,2.61,0,5.22,0,7.9.5.04.83.09,1.17.09,4.79,0,9.57.02,14.35,0,2.78-.02,4.16-1.43,4.23-4.19.12-4.65.07-9.26-2.35-13.5-.57-1.03-.2-2.33.83-2.9.09-.05.18-.09.28-.13,1.02-.53,2.27-.14,2.8.88.04.07.07.15.1.23,1.08,2.15,1.88,4.43,2.39,6.78.43,3.39.55,6.82.35,10.23-.39,3.88-3.58,6.88-7.47,7.06-2.96.14-5.93.03-9.02.03v6.09c.41-.26.78-.47,1.14-.71,3.05-2.07,6.55-3.39,10.21-3.85,1.75-.23,2.9.46,3.09,1.85.2,1.45-.66,2.38-2.42,2.64-9.77,1.43-16.22,8.71-16.45,18.58-.04,1.51-.05,3.03.01,4.53-.1,2.01,1.44,3.73,3.46,3.84.11,0,.23,0,.34,0,2.21.07,4.42.02,6.85.02,0-2.15,0-4.19,0-6.24.01-1.91.8-2.93,2.25-2.92s2.26,1.03,2.28,2.95c.01,2,0,4.01,0,6.12h6.99c0-1.02-.02-2.01,0-3.01-.12-1.25.79-2.36,2.04-2.48,1.25-.12,2.36.79,2.48,2.04.01.13.01.27,0,.41.03.99,0,1.99,0,3.06h4.95v-3.95c0-2.82,0-5.64,0-8.46,0-2.2.74-3.28,2.24-3.3s2.29,1.06,2.29,3.22c0,3.58,0,7.16,0,10.73v1.72c1.89.09,3.78.07,5.67-.05,1.43-.16,2.55-1.31,2.66-2.75.68-7.1-.07-13.82-5.68-19.06-3.02-2.88-6.92-4.64-11.07-5.02-1.16.04-2.17-.8-2.33-1.95-.25-.98.29-1.99,1.24-2.34.66-.22,1.37-.28,2.06-.18,8.89,1.3,15.17,6.09,18.76,14.31,2.11,4.83,2.01,9.95,1.48,15.02-.37,3.58-3.76,6.38-7.42,6.62-1.11.07-2.22.06-3.33.05-.4,0-.8,0-1.2,0-1.46,0-2.91,0-4.62,0,0,1.39.03,2.67,0,3.95-.01.35-.04.68-.06,1.03,11.71,7.5,19.83,26.62,19.83,49.59,0,29.72-13.6,53.01-30.96,53.01H46.03Zm13.16-4.87h148.79c14.39,0,26.1-21.6,26.1-48.14,0-19.71-6.46-36.67-15.67-44.12-1.67,8.28-6.54,15.56-13.56,20.27-5.25,3.74-11.54,5.74-17.99,5.74-10.53.07-21.05.1-31.58,0-16.82-.29-30.7-13.27-32.11-30.04h-63.98c2.93,2.37,5.46,5.19,7.49,8.36h49.62c1.34.02,2.41,1.13,2.39,2.47-.02,1.31-1.08,2.37-2.39,2.39h-46.8c4.69,9.26,7.49,21.42,7.49,34.92.05,8.18-1.06,16.32-3.3,24.19h49.95c1.34.02,2.41,1.13,2.39,2.47-.02,1.31-1.08,2.37-2.39,2.39h-51.58c-3.12,8.3-7.57,14.93-12.88,19.09Zm-15.59-96.07c-13.25,2.27-23.66,22.89-23.66,47.93s10.41,45.66,23.66,47.93c1.61.29,3.25.29,4.86,0,7.89-1.35,14.77-9.21,19.05-20.62-.07-.22-.11-.45-.11-.68,0-.79.39-1.54,1.04-1.99,2.5-7.97,3.74-16.28,3.69-24.63,0-25.04-10.41-45.66-23.67-47.93-1.61-.29-3.25-.29-4.86,0Zm120.65,25.25c.49.02.87.05,1.26.05,7,0,14,.12,20.99-.03,10.39-.21,18.42-4.81,23.99-13.58,2.01-3.18,3.31-6.75,3.83-10.47.25-1.69.36-3.4.34-5.11,0-.87-.04-1.74-.11-2.62h-3.22l-4.53-.06h-2.72v3.34c-.01,1.01-.1,2.02-.26,3.02-1.33,8.72-8.91,15.11-17.73,14.96-6.5.02-12.99,0-19.48,0h-2.25q.89,3.02,3.78,3.02c1.06,0,2.11-.01,3.17,0,1.76.02,2.81.88,2.82,2.26s-1.05,2.26-2.79,2.27c-1.96.02-3.92,0-5.86,0-.42,1.01-.8,1.92-1.23,2.96h0Zm17.42-15c1,.14,1.96-.46,2.27-1.42,1.29-2.86,2.09-5.91,2.37-9.04.16-1.62.24-3.24.22-4.86,0-.63-.02-1.26-.04-1.9-.12-.51-.43-.95-.87-1.25-2.07-1.51-3.32-3.9-3.37-6.47-.03-1.91-.02-3.83.01-5.74.08-4.21,1.36-8.3,3.67-11.81.21-.34.54-.7.55-1.05.04-3.56.02-7.11.02-10.74h-3.28v1.55c0,1.91.03,3.83-.01,5.75.11,1.25-.82,2.34-2.06,2.45-1.25.11-2.34-.82-2.45-2.06,0-.11-.01-.22,0-.33-.02-.51,0-1.01,0-1.51v-5.85h-2.72v1.87c0,12.2-.11,24.39.04,36.58v.51c.01,1.63-.12,3.26-.38,4.86-.63,4-2.58,7.67-5.55,10.43,2.27,0,4.41-.02,6.49-.02,1.73,0,3.42.01,5.11.05h0Zm-17.35-52.62c.06,11.03.01,22.05.04,33.08,0,1.42-.13,2.83-.4,4.22-.65,3.37-2.27,6.48-4.67,8.94-2.46,2.5-5.58,4.24-8.99,5.02,2.16,1.05,4.55,1.51,6.94,1.33,7.34-.02,12.41-3.98,13.8-10.43.26-1.22.39-2.46.39-3.7v-1.17c0-12.4,0-24.8,0-37.2v-1.84c-1.95,0-3.66.09-5.35-.03-.12,0-.23-.01-.33-.01-1.15,0-1.43.54-1.43,1.79h0Zm26.3,44.19c-.42,2.74-1.29,5.4-1.96,8.08,5.07-.31,9.21-4.63,10.51-10.1h-8.32c-.05.68-.13,1.35-.23,2.02h0Zm-40.45-60.97c-.01,4.23-.04,8.46.02,12.68.08.58.35,1.11.77,1.52,1.97,2.16,3.48,4.71,4.41,7.48,1.1,3.21.98,6.54.96,9.86.18,3.34-1.95,6.37-5.15,7.35-.7.13-1.16.8-1.05,1.5.05,2.32-.07,4.64.03,6.95.12,2.27-.13,4.55-.72,6.75-.48,1.72-1.21,3.36-2.17,4.86-.8,1.24-1.74,2.39-2.8,3.42-.06.05-.06.18-.09.27q.72,1.29,2.05,1.25c4.06,0,7.91-1.81,10.5-4.94,1.13-1.44,1.94-3.09,2.38-4.86.29-1.14.45-2.32.46-3.5.14-11.63.05-23.25,0-34.88-.05-.54-.34-1.04-.8-1.34-3.16-1.46-5.11-4.69-4.94-8.17,0-2.26,0-4.51,0-6.84h-3.72c-.07.21-.12.42-.15.63h0Zm-7.42,54.09v2.92c.72-.88,1.3-1.87,1.74-2.92,1.95-4.63.74-9.73,1.19-14.66h-2.93v14.66Zm48.38,0h8.43c-.04-.48-.1-.97-.19-1.46h-8.17c-.03.49-.05.97-.07,1.46h0Zm-55.01-29.94c1.3.05,2.12,1,2.15,2.58.03,2.01.01,4.03.01,6.04s0,2.09,2.03,2.02c.32-.03.63-.09.94-.17,0-1.11-.04-2.17.01-3.21-.06-1.22.89-2.25,2.11-2.31.05,0,.11,0,.17,0,1.2-.03,2.2.92,2.23,2.12,0,.07,0,.14,0,.21.04,1.05.01,2.1.01,3.37,1.13,0,2.03.04,2.92,0,2.06-.13,3.07-1.22,3.1-3.3.02-1.31.02-2.62-.01-3.93-.02-7.13-5.05-13.26-12.03-14.67-3.58-.55-7.21-.68-10.82-.37-6.55.4-11,3.95-13.49,9.99-1.12,2.74-.97,5.62-.96,8.49,0,2.83.97,3.79,3.82,3.8,4.68,0,9.36,0,14.04,0,.43,0,.86-.07,1.41-.12,0-2.75-.03-5.35.01-7.97-.13-1.28.79-2.42,2.06-2.55.06,0,.13,0,.2-.01.04,0,.07,0,.1,0h0Zm17.31-29.38c1.31.21,1.87-.32,2.42-1.54.88-1.95,2.17-3.72,3.21-5.61.4-.61.64-1.3.72-2.03.06-4.58.03-9.17.03-13.75,0-.43-.07-.86-.12-1.36-3.71,0-7.28-.08-10.85.02-5.08.09-9.81,2.57-12.78,6.68-3.47,4.48-3.63,9.7-3.14,14.97.31,1.09,1.11,1.97,2.17,2.37,1.3.41,2.83.11,4.32.11,0-2.59-.01-5.06,0-7.52,0-1.84.9-2.95,2.33-2.91,1.38.03,2.19,1.07,2.2,2.86,0,2.51,0,5.01,0,7.61h3.15c0-.64,0-1.14,0-1.64s-.02-1.01.02-1.51c-.08-1.22.84-2.27,2.06-2.35.05,0,.11,0,.16,0,1.2-.05,2.21.88,2.26,2.08,0,.07,0,.15,0,.22.06,1.04.01,2.1.01,3.29.45,0,.83-.03,1.18-.03.21,0,.43.01.64.04h0Zm11.02-12.54c3.42-1.21,6.83-2.42,10.32-3.66v-8.01h-10.32v11.67Zm.82-43.4c-6.62.09-11.73,3.14-15.4,8.64-3.14,4.69-3.16,9.97-2.79,15.29.12,1.59,1.37,2.86,2.96,3.02,1.19.13,2.39.2,3.58.2v-1.81c0-2.17-.04-4.33.02-6.49-.03-1.24.96-2.27,2.2-2.3s2.27.96,2.3,2.2c0,.04,0,.09,0,.13.03.56.01,1.11.01,1.66v6.47h3.16c0-1.15-.05-2.2.01-3.24-.05-1.24.91-2.29,2.15-2.34s2.29.91,2.34,2.15c0,.07,0,.14,0,.21.05,1.04.01,2.09.01,3.31,7.53,0,14.78.05,22.03-.03,2.35-.02,3.77-1.65,3.83-4.01.03-1.61.02-3.22,0-4.84-.13-8.33-5.92-15.92-14.11-17.59-2.77-.5-5.58-.73-8.4-.67-1.3,0-2.61.02-3.91.04h0ZM25.63,185.51c0-20.15,7.9-35.94,17.99-35.94s17.99,15.79,17.99,35.94-7.91,35.93-17.99,35.93-17.99-15.79-17.99-35.94h0Zm4.86,0c0,18.31,6.92,31.07,13.13,31.07s13.13-12.76,13.13-31.07-6.92-31.07-13.13-31.07-13.13,12.75-13.13,31.06h0Zm104.17,29.06c-1.34-.02-2.41-1.13-2.39-2.47.02-1.31,1.08-2.37,2.39-2.39h16.64c1.34.02,2.41,1.13,2.39,2.47-.02,1.31-1.08,2.37-2.39,2.39h-16.64Zm-45.29-49.2c-1.34-.02-2.41-1.13-2.39-2.47.02-1.31,1.08-2.37,2.39-2.39h25.07c1.34.02,2.41,1.13,2.39,2.47-.02,1.31-1.08,2.37-2.39,2.39h-25.07Z" fill="#fff"/>
      <rect id="_사각형_364" data-name="사각형 364" width="252" height="252" fill="none"/>
    </g>
  </g>
</svg>