<?xml version="1.0" encoding="UTF-8"?>
<svg id="_레이어_2" data-name="레이어 2" xmlns="http://www.w3.org/2000/svg" viewBox="0 0 201 111">
  <g id="Logo">
    <g id="symbol_20_01_0002_02" data-name="symbol 20 01 0002 02">
      <rect id="_사각형_230" data-name="사각형 230" width="201" height="111" fill="none"/>
      <circle id="_타원_14" data-name="타원 14" cx="76.9" cy="10.88" r="6.97" fill="#fff"/>
      <circle id="_타원_15" data-name="타원 15" cx="127.87" cy="10.88" r="6.97" fill="#fff"/>
      <path id="_패스_647" data-name="패스 647" d="M108.18,21.64c-.57,0-1.11-.27-1.45-.73-.69-.94-2.6-3.13-5.33-3.24-2.95-.11-5.06,2.29-5.63,3.04-.61,.79-1.75,.93-2.53,.32s-.93-1.75-.32-2.53c1.08-1.4,4.11-4.62,8.64-4.43,4.29,.18,7.08,3.35,8.08,4.7,.6,.8,.43,1.92-.36,2.52-.31,.24-.7,.36-1.09,.36h0Z" fill="#fff"/>
      <path id="_패스_648" data-name="패스 648" d="M128.3,27.81c-.45-1.06-1.67-1.55-2.73-1.11,0,0,0,0,0,0-8.31,3.51-17.26,5.26-26.28,5.12-7.67-.13-15.26-1.63-22.4-4.43-1.06-.44-2.28,.07-2.72,1.13-.44,1.06,.07,2.28,1.13,2.72,.02,0,.05,.02,.07,.03,7.6,2.98,15.68,4.58,23.84,4.72,.4,0,.79,.01,1.19,.01,1.26,0,2.51-.04,3.76-.11,.16,2.74,.84,7.22,3.43,10.06,2.16,2.25,5.14,3.52,8.26,3.49,1.35,0,2.68-.25,3.93-.76,5.73-2.38,7.32-9.6,6.59-13.73-.26-1.26-.59-2.5-.98-3.72,.6-.23,1.2-.46,1.8-.71,1.06-.45,1.55-1.67,1.1-2.73h0Zm-10.11,17.04c-2.62,.94-5.55,.27-7.51-1.7-1.64-1.8-2.23-5.14-2.36-7.58,.32-.04,.67-.08,1.06-.13,2.22-.27,4.42-.66,6.6-1.17,.05-.01,3.1-.8,5.52-1.58,.31,.99,.58,1.99,.79,3,.51,2.84-.66,7.74-4.09,9.16h0Z" fill="#fff"/>
      <path id="_패스_649" data-name="패스 649" d="M175.99,40.1c-8.36-2.42-16.15-.36-23.34,4.1-5.64,3.49-9.7,8.21-10.68,15.11-.1,.71-.99,1.49-1.71,1.91-11.88,6.91-23.8,13.76-35.68,20.69-1.04,.74-2.43,.74-3.46,0-11.5-6.72-23.05-13.36-34.58-20.03-.48-.27-.92-.6-1.43-.95,.27-.6,.5-1.11,.72-1.62,1.98-4.63,.75-9.76-3.54-12.37-8.53-5.19-17.24-10.1-25.91-15.06-1.4-.96-3.32-.6-4.28,.81-.06,.09-.11,.17-.16,.27-.88,1.56-.4,3.19,1.35,4.37,.76,.51,1.59,.94,2.38,1.4,7.36,4.25,14.72,8.51,22.08,12.77,2.48,1.44,3.26,3.08,2.23,5.22-1.19,2.47-2.64,4.82-4.06,7.35-6.14-3.55-12.08-6.98-18.02-10.41-3.5-2.02-6.98-4.07-10.51-6.03-1.98-1.1-3.95-.56-4.75,1.13-.76,1.6-.11,3.3,1.82,4.43,5.01,2.93,10.05,5.83,15.09,8.73l13.18,7.63c-1.05,1.83-2.03,3.55-3.02,5.26-2.35,4.08-3.77,4.47-7.84,2.12-7.73-4.47-15.46-8.94-23.19-13.4-2.01-1.16-3.93-.77-4.86,.83-.87,1.53-.33,3.47,1.2,4.34,.04,.02,.08,.04,.12,.06,8.78,5.05,17.57,10.09,26.42,15.01,3.4,1.89,6.74,1.06,9.8-1.05,1.34-.92,2.55-2.01,4.1-3.25l23.16,13.38c13.46,7.29,18.5,10.12,19.68,10.89,.55,.37,1.13,.69,1.73,.96,.91,.41,1.86,.72,2.83,.91,.87-.12,1.71-.36,2.51-.71,.46-.2,.91-.45,1.33-.73,1-.65,5.68-3.24,17.81-9.72,2.78-1.56,5.79-3.25,8.82-4.94,.07-.04,.14-.08,.21-.12l3.99-2.24,10.93-6.64c.26-.16,.52-.32,.78-.48l.46-.28h0c.18-.12,.37-.23,.55-.35,1.14-.83,2.63-.98,3.92-.41,1.79,.66,3.68,1.01,5.59,1.03,11.33,.07,23.43-9.02,26.75-19.94,2.71-8.95-1.6-17.38-10.52-19.96Z" fill="#fff"/>
    </g>
  </g>
</svg>