<?xml version="1.0" encoding="UTF-8"?>
<svg id="_레이어_2" data-name="레이어 2" xmlns="http://www.w3.org/2000/svg" viewBox="0 0 214 112">
  <g id="Logo">
    <g id="symbol_06_02_0003_01" data-name="symbol 06 02 0003 01">
      <rect id="_사각형_286" data-name="사각형 286" width="214" height="112" fill="none"/>
      <rect id="_사각형_274" data-name="사각형 274" x="3.86" y="3.21" width="18.28" height="23.53" rx="5.39" ry="5.39" fill="#fff"/>
      <rect id="_사각형_275" data-name="사각형 275" x="26.93" y="3.21" width="58.25" height="23.53" rx="5.39" ry="5.39" fill="#fff"/>
      <rect id="_사각형_276" data-name="사각형 276" x="90.84" y="3.21" width="57.42" height="23.53" rx="5.39" ry="5.39" fill="#fff"/>
      <rect id="_사각형_277" data-name="사각형 277" x="153.01" y="3.21" width="58.38" height="23.53" rx="5.39" ry="5.39" fill="#fff"/>
      <rect id="_사각형_278" data-name="사각형 278" x="3.86" y="31.53" width="53.68" height="23.53" rx="5.39" ry="5.39" fill="#fff"/>
      <rect id="_사각형_279" data-name="사각형 279" x="184.12" y="31.53" width="27.27" height="23.53" rx="5.39" ry="5.39" fill="#fff"/>
      <rect id="_사각형_280" data-name="사각형 280" x="3.86" y="59.99" width="23.07" height="23.53" rx="5.39" ry="5.39" fill="#fff"/>
      <rect id="_사각형_281" data-name="사각형 281" x="32.25" y="59.99" width="47.46" height="23.53" rx="5.39" ry="5.39" fill="#fff"/>
      <rect id="_사각형_282" data-name="사각형 282" x="135.02" y="59.99" width="14.68" height="23.53" rx="5.39" ry="5.39" fill="#fff"/>
      <rect id="_사각형_283" data-name="사각형 283" x="154.8" y="59.99" width="56.59" height="23.53" rx="5.39" ry="5.39" fill="#fff"/>
      <rect id="_사각형_284" data-name="사각형 284" x="3.86" y="88" width="54.6" height="19.82" rx="5.39" ry="5.39" fill="#fff"/>
      <rect id="_사각형_285" data-name="사각형 285" x="184.12" y="88" width="27.27" height="19.82" rx="5.39" ry="5.39" fill="#fff"/>
      <path id="_패스_1099" data-name="패스 1099" d="M98,31.53h-29.99c-2.28-.05-4.17,1.76-4.23,4.04v13.53c-.04,3.25,2.57,5.92,5.82,5.96h4.64l5.64-.18h0s.07-2.26,.18-5.78v-1.64c-.13-1.47,.29-2.93,1.17-4.11,1.85-2.29,5.53-2.41,7.74-2.48,.46-.02,.85,0,1.11,0h10.94c.4,0,.81,.02,1.21,.07v-5.37c-.05-2.28-1.95-4.09-4.23-4.04Z" fill="#fff"/>
      <path id="_패스_1100" data-name="패스 1100" d="M173.96,31.56c-.55-.04-1.1-.04-1.64-.04h-29.96s-14.98,0-14.98,0h-7.49c-1.25,0-2.5-.05-3.75,0-.84,.08-1.58,.57-2,1.3-.65,.89-1.07,1.93-1.22,3.02-.19,1.65-.14,3.32,.13,4.95h7.16c.79,0,2.14,0,4.83,0,4.77,.01,5.48,.04,6.42,.49,1.61,.87,2.83,2.3,3.43,4.03,.1,.94,.18,1.91,.26,2.89,.17,2.3,.27,4.52,.3,6.66l6.01,.13c9.21,.19,9.64-.07,15.01,.14,4.72,.18,9.45-.04,14.16,.29,1.72,.13,3.45-.15,5.04-.81,.95-.4,2.89-1.15,3.68-3.03,.38-1.1,.53-2.27,.45-3.43,0-2.86,0-5.71,0-8.57,0-2.41-.14-5.15-1.93-6.72-1.12-.86-2.49-1.32-3.89-1.31Z" fill="#fff"/>
      <path id="_패스_1101" data-name="패스 1101" d="M78.74,95.05v-7.05h-10.9c-2.25,0-4.07,2.25-4.07,5.02v9.77c0,2.77,1.82,5.02,4.07,5.02h21.24c-5.71,0-10.34-5.72-10.34-12.77Z" fill="#fff"/>
      <path id="_패스_1102" data-name="패스 1102" d="M174.05,88h-32.69c-3.17,0-5.75,2.25-5.75,5.02v5.13c-.41,5.34-4.78,9.51-10.14,9.66h48.57c3.17,0,5.75-2.25,5.75-5.02v-9.77c0-2.78-2.58-5.02-5.75-5.02Z" fill="#fff"/>
    </g>
  </g>
</svg>