<?xml version="1.0" encoding="UTF-8"?>
<svg id="Layer_2" data-name="Layer 2" xmlns="http://www.w3.org/2000/svg" viewBox="0 0 191 176">
  <g id="Logo">
    <g id="symbol_18_01_0004_01" data-name="symbol 18 01 0004 01">
      <path id="_패스_1202" data-name="패스 1202" d="m108.68,5.94h-32.03C53.47,61.09,30.29,116.24,7.11,171.39l42.81.03h.03c1.6-.62,4.5-1.75,8.15-3.09,0,0,14.21-5.24,32.81-10.89.46-1.22.78-2.49.94-3.78-.32-4.4-.95-8.77-1.88-13.09-.15-.5-.36-1.2-.55-2.05-.7-2.85-.91-5.8-.62-8.72.29-2.49.96-4.92,1.99-7.2.28-.51.34-1.12.16-1.67-.4-1.02-1.77-1.34-2.58-1.58-4.53-1.32-7.75-4.73-9.59-6.67-.52-.49-.97-1.05-1.33-1.66-1.48-2.66-.57-5.72,0-7.2l.46-.19c.88,5.81,4.57,8.84,8.62,11.11,4.2,2.36,7.24,3.28,6.65-3.71-.04-.5,0-1.01-.04-1.51-.15-1.44.74-1.6,1.92-1.62,1.2-.03,2.02.17,1.99,1.59-.04,1.38.07,2.77,0,4.16-.15.92.22,1.85.96,2.42.7.32,1.5.33,2.21.03,2.84-.89,5.43-2.43,7.57-4.48,1.59-1.71,2.94-3.64,3.99-5.73.14-.28,1.25-2.58,1.25-2.58.22.35.41.7.59,1.07.26.61.41,1.26.45,1.92-.5,1.7-1.16,3.34-1.97,4.92-1.13,1.95-2.7,3.62-4.58,4.86-1.58,1.03-3.24,1.92-4.97,2.66-1.2.49-2.45.89-2.86,1.97-.19.59-.16,1.23.07,1.8.71,2.4,1.24,4.84,1.6,7.32.47,2.93.34,5.93-.38,8.81-.17.71-.34,1.28-.47,1.68-1.95,8.68-2.1,12.26-1.81,13.85.03.18.61,3.23.61,3.23,0,0,7.78,3.05,14.86,5.6,0,0,13.58,4.89,24.44,7.71.49.13,3.17.81,3.17.81,14.01-.12,24.04-.15,30.78-.15h14.89c-26.25-55.14-52.5-110.29-78.76-165.43" fill="#fff"/>
      <rect id="_사각형_603" data-name="사각형 603" width="191" height="176" fill="none"/>
    </g>
  </g>
</svg>