<?xml version="1.0" encoding="UTF-8"?>
<svg id="_레이어_2" data-name="레이어 2" xmlns="http://www.w3.org/2000/svg" viewBox="0 0 209 278">
  <g id="Logo">
    <g id="symbol_20_02_0002_01" data-name="symbol 20 02 0002 01">
      <rect id="_사각형_235" data-name="사각형 235" width="209" height="278" fill="none"/>
      <path id="_패스_653" data-name="패스 653" d="M73.34,40.64c6.14,5.44,12.12,11.12,17.74,17.09,7.19,7.64,11.16,16.99,13.3,27.36,.15-.55,.36-1.1,.45-1.66,2.43-13.89,10.45-24.34,20.65-33.41,5.55-4.93,11.43-9.51,16.79-14.64,4.08-3.9,7.65-8.37,7.84-15.37-3.82,7.74-8.69,13.43-15.82,17.69,1.41-19.78,.23-25.82-5.86-30.47,.04,.36,.12,.71,.23,1.04,7.32,14.72,4.73,27.7-6.38,39.59-5.28,5.64-9.88,11.94-14.65,18.04-1.3,1.66-2.11,3.69-3.5,6.19-4.71-11.16-12.94-18.95-19.91-27.69-6.31-7.91-9.54-16.78-6.62-26.97,1.14-3.97,2.76-7.79,4.29-12.05-8.92,9.15-8.67,20.03-6.83,31.93-6.88-4.8-12.01-10.1-15.43-17.11,.07,1.82,.45,3.61,1.12,5.29,2.78,6.2,7.6,10.68,12.6,15.12Z" fill="#fff"/>
      <path id="_패스_654" data-name="패스 654" d="M204.87,216.34c-.19-.55-.58-1.01-1.09-1.29-7.25-4.33-10.87-6.5-11.06-6.6-3.78-1.93-7.77-4.23-7.77-4.23l-8.65,7.12,7.89,8.4c-.47-2.84-1.39-5.6-2.7-8.16,.78-1.22,1.98-2.11,3.37-2.51,1.72-.4,3.23,.27,5.08,1.3,3.18,1.78,6.17,3.9,8.9,6.32-4.67,1.5-7.54,7.3-12.45,7.35-2.06,.02-3.96-1.03-5.74-2.06l-46.37-26.59c-4.76-2.73-8.41-5.82-13.98-5.84-6.07-.02-10.91,3.2-13.68,5.46-.04-15.33-.08-30.65-.12-45.98l6.75,5.21s-.59-5.56-1.34-9.95c-.58-3.29-1.34-6.55-2.27-9.76,0,0-1.68-6.06-4.24-12.8l-.48-1.26c7.58-8.06,15.05-15.98,22.43-23.94h0c.52-.53,1.06-1.11,1.6-1.73,.18-.2,.37-.4,.56-.6,.05-.06,.09-.12,.12-.19,.56-.66,1.13-1.36,1.69-2.12,1.26-1.69,2.4-3.46,3.42-5.3h0c5.08-9,6.71-18.9,6.54-29.33-13.32,1.24-27.03,20.71-26.37,37.91,4.18-13.65,9.31-25.87,22.49-33.29,.05,1.26,.11,1.8,.1,2.34-.24,7.6-2.6,14.52-6.03,21.12-.95,1.5-2.06,3.09-3.34,4.74-1.21,1.55-2.4,2.93-3.55,4.17h.01c-4.84,4.82-9.64,9.67-14.38,14.57-2.21,2.29-4.23,4.77-6.27,7.09-3.4-3.67-6.64-7.21-9.9-10.66h0l-10.31-11.11h0c-1.66-1.98-3.37-3.93-4.84-6.04-5.52-7.94-7.56-16.97-8.22-27.33,13.4,7.82,18.18,20.43,22.57,33.99-.39-20.52-13.24-36.42-25.54-38.3-2.22,12.81,4.13,31.4,13.78,41.05h0l9.58,10.11c2.93,3.33,5.85,6.68,8.74,10.04,1.26,1.47,2.35,3.07,3.33,4.4-1.17,3.28-2.96,8.41-4.09,12.21-1.93,6.54-3.18,13.27-3.73,20.07l6.42-5.04,.13,45.71c-1.87-2.05-5.56-5.46-10.78-6.13-5.26-.67-9.49,1.78-12.4,3.51l-38.97,23.24c-4.91,2.93-9.98,5.91-15.64,6.73s-12.11-1.07-15.01-5.98l11.11-8.24c2.64,.75,4.9,2.46,6.34,4.79,.17,.8,.17,1.64,0,2.44,0,0-.28,1.27-2.68,4.45,4.25-1.88,5.59-3.71,5.99-5.09,0,0,.1-.35,.77-3.06-1.08-1.6-2.39-3.03-3.9-4.25-1.89-1.43-3.91-2.68-6.03-3.72l-3.63,1.92-11.68,8.62c-.87,.49-1.52,1.29-1.82,2.23-.29,1.57,1.3,2.78,2.68,3.59,29.56,17.24,59.32,34.14,89.26,50.71,2.9,1.6,6,3.25,9.31,3.06,2.62-.15,5.02-1.45,7.32-2.73,30.65-16.98,61.02-34.46,91.11-52.44,.89-.53,1.9-1.34,1.67-2.34Zm-103.19,51.48c-.15-.04-.31-.06-.46-.1,.15,.13,.3,.25,.46,.38l-1.19-.64c-.55-.22-1.07-.5-1.55-.83L26.16,227.61c11.89-4.67,22.96-9.03,34.03-13.38,6.29-2.47,12.66-4.77,18.87-7.42,2.61-1.23,5.65-1.21,8.24,.08,2.15,.98,4.32,1.92,6.23,2.73h0l8.26,6.53-.1,51.67Zm.11-59.63l-4.82-1.42h0c-3.72-1.52-7.21-2.95-10.76-4.15-1.95-.65-4.06-.66-6.02-.05-2.26,.69-4.49,1.52-6.65,2.48-5.21,2.57-10.64,4.7-16.21,6.35-1.94,.54-3.92,.97-5.91,1.3,7.61-4.2,13.64-7.96,17.84-10.69,9.92-6.45,15.71-11.1,20.65-9.22,1.58,.61,6.14,3.05,7.31,3.67,1.18,.64,4.23,2.29,4.23,2.29,0,0,.21,2.16,.36,4.02v5.41Zm4.75-5.42l.26-3.78s3.04-2.04,5.59-3.34c2.37-1.21,4.59-2.45,7.13-2.48,2.85,.08,5.61,1.04,7.89,2.75,10.15,6.94,26.2,15.21,30.37,17.43-.58-.35-1.19-.72-1.18-.74s2.29,1.12,2.21,1.31c-.12,.3-6.17-1.57-12.23-4.07-9.88-4.07-11.87-6.51-18.39-7.15-2.27-.2-4.55-.16-6.8,.12-3.85,.48-7.58,1.62-11.04,3.38h0l-3.78,1.71c-.02-3.21-.04-5.15-.04-5.15h0Zm.92,64.72c.12-.11,.28-.27,.46-.44-.31,.16-.63,.3-.96,.42-.05-7.75-.23-35.55-.34-52.09l5.07-5.13c9.64-4.83,18.77-3.91,28.9,.96,13.05,6.27,26.97,10.76,41.4,16.36l-74.53,39.92Z" fill="#fff"/>
    </g>
  </g>
</svg>