<?xml version="1.0" encoding="UTF-8"?>
<svg id="_레이어_2" data-name="레이어 2" xmlns="http://www.w3.org/2000/svg" viewBox="0 0 84 107">
  <g id="Logo">
    <g id="symbol_02_01_0003_01" data-name="symbol 02 01 0003 01">
      <path id="_패스_1079" data-name="패스 1079" d="M78.33,41.57c-4.08-8.8-10.56-16.27-18.69-21.57-.77,8.27-5.97,15.45-11.74,21.43s-12.34,11.28-17.02,18.14c-6.39,9.48-8.72,21.12-6.45,32.33-9.41-8.04-12.53-22.44-7.7-33.83,4.71-11.12,15.39-18.33,23.31-27.44,3.62-4.17,6.78-8.98,7.69-14.43s-.87-11.6-5.44-14.71c-7.7,13.15-22.69,20.35-31.85,32.53C-2.15,50.74-1.51,74.4,13.07,89.62c.49,.51,.99,1.01,1.5,1.5,7.17,6.84,16.14,11.49,25.31,15.24-3.78-7.69-4.95-16.95-1.72-24.88,5.08-12.5,19.29-18.85,26.4-30.33,10.05,13.12,7.55,31.9-5.57,41.94-5.03,3.85-11.16,6.01-17.5,6.16,1.39,2.68,5.12,2.89,8.1,2.39,11.73-2.2,21.87-9.52,27.63-19.98,5.61-10.49,6.82-22.79,3.35-34.17-.61-2.02-1.36-4-2.25-5.92Z" fill="#fff"/>
      <rect id="_사각형_263" data-name="사각형 263" width="84" height="107" fill="none"/>
    </g>
  </g>
</svg>