<?xml version="1.0" encoding="UTF-8"?>
<svg id="Layer_2" data-name="Layer 2" xmlns="http://www.w3.org/2000/svg" viewBox="0 0 114 114">
  <g id="Logo">
    <g id="symbol_10_01_0002_02" data-name="symbol 10 01 0002 02">
      <path id="_합치기_20" data-name="합치기 20" d="m63.63,102.77c-2.74-2.86-4.77-6.32-5.95-10.1,6.16-5.25,11.98-10.89,17.42-16.88,4.55-4.98,8.84-10.2,12.85-15.64,13.75,3.23,22.28,17.01,19.05,30.76-3.23,13.75-17.01,22.28-30.76,19.05-4.81-1.13-9.19-3.63-12.61-7.19Zm12.88-13.81c-1.24,1.37-1.14,3.48.22,4.72,1.37,1.24,3.48,1.14,4.72-.22,1.24-1.37,1.14-3.48-.22-4.72-.62-.56-1.42-.87-2.25-.87-.94,0-1.84.4-2.47,1.09Zm11-.51c-1.24,1.37-1.14,3.48.22,4.72,1.37,1.24,3.48,1.14,4.72-.22,1.24-1.37,1.14-3.48-.22-4.72-.62-.56-1.42-.87-2.25-.87-.94,0-1.84.4-2.47,1.09h0Zm-11.51-10.5c-1.24,1.37-1.15,3.48.22,4.73,1.37,1.24,3.48,1.15,4.73-.22,1.24-1.37,1.15-3.48-.22-4.73-.62-.56-1.42-.87-2.25-.87-.94,0-1.84.4-2.47,1.1h0Zm11-.51c-1.24,1.37-1.15,3.48.22,4.73,1.37,1.24,3.48,1.15,4.73-.22,1.24-1.37,1.15-3.48-.22-4.73-.62-.56-1.42-.87-2.25-.87-.94,0-1.84.4-2.47,1.1h0Zm-30.32,4.79c.35-2.91-.55-5.83-2.47-8.04l-.24-.27c-2.36-2.65-5.9-3.94-9.41-3.42-5.17.75-10.45.3-15.41-1.32-1.18-.38-2.33-.83-3.46-1.34C8.7,60.12,1.19,40.08,8.92,23.09,16.64,6.1,36.68-1.41,53.68,6.31c7.01,3.19,12.71,8.67,16.18,15.54,3.76,7.47,4.62,16.07,2.41,24.14-.95,3.43-.11,7.11,2.24,9.78l.15.17c1.96,2.22,4.77,3.5,7.74,3.53.51,0,1.01.03,1.52.07-3.38,4.5-7.2,9.13-11.47,13.82-4.91,5.41-10.14,10.52-15.65,15.32-.3-2.13-.34-4.29-.1-6.44h0Zm-13.24-31.38l.06.07c2.24,2.69,6.24,3.06,8.93.82,2.69-2.24,3.06-6.24.82-8.93l-1.04-1.24-.47-.57,1.81-1.52c2.69-2.24,3.06-6.24.82-8.93-2.24-2.69-6.24-3.06-8.93-.82h0l-1.82,1.51-1.51-1.82c-2.21-2.71-6.21-3.11-8.92-.9-2.71,2.21-3.11,6.21-.9,8.92.03.03.05.06.08.09l1.51,1.82-1.82,1.51c-2.67,2.26-3.01,6.26-.75,8.93,2.24,2.64,6.18,3.01,8.86.81l1.82-1.51,1.46,1.75Z" fill="#fff"/>
      <rect id="_사각형_244" data-name="사각형 244" width="114" height="114" fill="none"/>
    </g>
  </g>
</svg>