<?xml version="1.0" encoding="UTF-8"?>
<svg id="_레이어_2" data-name="레이어 2" xmlns="http://www.w3.org/2000/svg" viewBox="0 0 241 153">
  <g id="Logo">
    <g id="symbol_04_03_0005_02" data-name="symbol 04 03 0005 02">
      <path id="_패스_1267" data-name="패스 1267" d="m226.37,55.51c-61.82-.02-123.65-.03-185.47-.03-2.88.03-5.73-.53-8.39-1.65-1.17-.79-2.39-1.51-3.65-2.16-3.64-2.83-5.73-7.22-5.63-11.83.02-9.28,7.11-15.66,17.69-15.67,56.29-.03,112.58-.03,168.86,0,1.29-.04,2.58,0,3.87.14,1.87.24,3.89.65,3.93,3.06.04,2.67-2.06,3.26-4.18,3.44-2.02.17-4.06.12-6.09.12-55.73,0-111.47.02-167.2.04-6.85,0-10.03,3.02-9.99,9s3.38,9.27,9.94,9.27c58.5.05,117,.05,175.51,0,5.42.07,10.67-1.95,14.64-5.63,7.12-6.3,9.67-16.31,6.44-25.25-3.41-9.33-11.25-14.94-21.74-14.99-25.84-.12-51.67-.05-77.51-.05-33.03,0-66.07-.06-99.1.02-6.58-.06-13.05,1.73-18.67,5.17C8.42,15.45,4.89,27.05,4.43,28.62c-1.7,6.35-1.67,13.04.07,19.38.78,2.88,3.14,11.6,10.72,17.72,8.47,6.85,20.21,7.3,43.69,8.18,4.3.16,7.45.18,7.93.18,29.97.15,44.96.22,59.94.12,64.34-.43,96.51-.64,98.22-.37,1.84.15,3.7.1,5.53-.15,5.03-.65,7.87-4.06,7.73-9.09-.17-6.21-3.86-9.08-11.89-9.09" fill="#fff"/>
      <path id="_패스_1268" data-name="패스 1268" d="m15.08,131.78c61.82-.02,123.65-.03,185.47-.03,2.88.03,5.73-.53,8.39-1.65,1.17-.79,2.39-1.51,3.65-2.16,3.64-2.83,5.73-7.22,5.63-11.83-.02-9.28-7.11-15.66-17.69-15.67-56.29-.03-112.58-.03-168.86,0-1.29-.04-2.58,0-3.87.14-1.87.24-3.89.65-3.93,3.05-.04,2.66,2.06,3.26,4.18,3.44,2.02.16,4.06.12,6.09.12,55.73,0,111.47.02,167.2.04,6.85,0,10.03,3.02,9.99,9s-3.38,9.27-9.94,9.27c-58.5.05-117,.05-175.51,0-5.42.07-10.67-1.95-14.64-5.63-7.12-6.3-9.67-16.31-6.43-25.25,3.41-9.33,11.25-14.94,21.74-14.99,25.84-.12,51.67-.05,77.51-.05,33.03,0,66.07-.06,99.1.02,6.58-.06,13.05,1.73,18.67,5.17,11.21,6.95,14.75,18.55,15.2,20.12,1.7,6.35,1.68,13.04-.06,19.38-.78,2.88-3.14,11.6-10.72,17.72-8.47,6.85-20.21,7.3-43.69,8.18-4.3.16-7.45.18-7.93.18-29.97.15-44.96.22-59.94.12-64.34-.43-96.51-.64-98.22-.37-1.84.15-3.7.1-5.53-.15-5.03-.65-7.87-4.06-7.73-9.09.17-6.21,3.86-9.08,11.89-9.09" fill="#fff"/>
      <rect id="_사각형_407" data-name="사각형 407" width="241" height="153" fill="none"/>
    </g>
  </g>
</svg>