<?xml version="1.0" encoding="UTF-8"?>
<svg id="_레이어_2" data-name="레이어 2" xmlns="http://www.w3.org/2000/svg" viewBox="0 0 258 258">
  <g id="Logo">
    <g id="symbol_04_01_0007_01" data-name="symbol 04 01 0007 01">
      <rect id="_사각형_394" data-name="사각형 394" width="258" height="258" fill="none"/>
      <path id="_패스_1215" data-name="패스 1215" d="m200.02,211.31c-.58-.59-1.2-1.14-1.96-1.86-4.32,4.33-8.54,8.57-12.76,12.79-3.24,3.24-4.79,3.25-8.01.03-1.79-1.79-3.69-3.48-5.34-5.39-7.08-8.2-16.12-12.54-26.62-14.79-13.65-2.91-27.17-6.47-40.71-9.85-7.31-1.85-13.99-5.65-19.32-10.98-4.95-4.83-9.84-9.72-14.73-14.61-2.38-2.39-2.4-4.36-.02-6.74,2.73-2.73,5.54-5.39,8.45-8.21-.87-.94-1.46-1.62-2.1-2.25-11.67-11.7-23.35-23.4-35.03-35.1-4.17-4.17-5.79-9.05-3.89-14.77,3.25-9.76,15.31-12.52,22.78-5.14,10.2,10.07,20.29,20.26,30.4,30.43,2.31,2.32,4.54,4.73,6.61,6.89,9.53-9.51,18.81-18.76,28.2-28.14-.44-.46-1.04-1.14-1.68-1.78-11.79-11.82-23.63-23.6-35.37-35.47-7.46-7.55-4.67-19.78,5.2-22.95,5.61-1.8,10.44-.22,14.53,3.88,11.68,11.7,23.36,23.39,35.04,35.09.64.64,1.31,1.25,2.25,2.15,2.73-2.83,5.33-5.58,7.99-8.26,2.51-2.53,4.41-2.53,6.92-.02,4.78,4.76,9.55,9.53,14.3,14.33,6.11,6.25,10.32,14.1,12.14,22.64,3.34,14.36,6.82,28.69,10.23,43.04,1.59,6.95,5.14,13.3,10.21,18.3,3.05,3.03,6.09,6.07,9.11,9.14,2.55,2.59,2.55,4.36,0,6.92-4.33,4.36-8.7,8.69-13.21,13.19.74.8,1.33,1.47,1.96,2.1,3.79,3.81,7.61,7.59,11.39,11.41,48.24-47.15,49.13-124.48,1.98-172.72C171.81-3.65,94.48-4.53,46.24,42.62-2.01,89.76-2.89,167.1,44.26,215.34c45.04,46.09,118.13,49.25,166.99,7.24-3.75-3.75-7.49-7.51-11.24-11.27" fill="#fff"/>
    </g>
  </g>
</svg>