<?xml version="1.0" encoding="UTF-8"?>
<svg id="_레이어_2" data-name="레이어 2" xmlns="http://www.w3.org/2000/svg" viewBox="0 0 311 238">
  <g id="Logo">
    <g id="symbol_18_03_0005_01" data-name="symbol 18 03 0005 01">
      <path id="_패스_1236" data-name="패스 1236" d="m85.55,63.32c-3.65.05-6.22,1.06-6.12,5.4.11,4.69.02,9.38.02,14.07s.08,9.68-.02,14.52c-.1,4.64,2.74,5.36,6.51,5.5,3.81.14,7.41-.06,7.52-4.88.22-9.83.22-19.66,0-29.49-.09-4.09-2.24-5.19-7.92-5.11" fill="#fff"/>
      <path id="_패스_1237" data-name="패스 1237" d="m221.04,63.36c-3.62.03-8.07-.56-8.24,4.65-.33,10.11-.37,20.26.07,30.37.23,5.26,4.9,4.28,8.43,4.33,3.38.05,5.49-1.33,5.46-5.07-.05-4.84-.01-9.67-.01-14.51s-.07-9.68.03-14.51c.08-4.04-2.2-5.29-5.73-5.26" fill="#fff"/>
      <path id="_패스_1238" data-name="패스 1238" d="m163.66,55.92c-3.81-.03-5.2,1.13-4.85,4.05.09,1.44.1,2.89.03,4.34,0,1.81.04,3.62,0,5.42-.06,2.46.97,4.5,4.3,4.65,3.67.16,4.88-2.08,5.01-4.56.19-3.49-.05-6.99.14-10.48.16-2.78-1.41-3.39-4.63-3.41" fill="#fff"/>
      <path id="_패스_1239" data-name="패스 1239" d="m174.68,56c-2.35.04-4.77-.1-4.77,2.6,0,3.99-.09,7.99.06,11.98.08,2.19,1.59,3.77,4.46,3.82s4.43-1.55,4.7-3.67c.15-2.05.17-4.11.06-6.17h.08c0-1.94-.03-3.87,0-5.81.05-2.63-2.11-2.8-4.6-2.76" fill="#fff"/>
      <path id="_패스_1240" data-name="패스 1240" d="m151.84,55.89c-4.37-.03-4.09,1.9-4.01,4.16.05,1.45,0,2.9,0,4.34h.01c0,1.93.02,3.86,0,5.79-.03,2.35,1.04,4.19,4.24,4.23,3.47.05,4.57-1.9,4.57-4.38,0-3.26-.16-6.52.07-9.77.2-2.92-.62-4.35-4.9-4.38" fill="#fff"/>
      <path id="_패스_1241" data-name="패스 1241" d="m141.01,56.21c-3.54.05-4.86,1.76-4.75,5.66.09,3.51.05,6.5,4.44,6.36,3.68-.12,5.44-1.48,4.84-5.79.48-3.99-.5-6.3-4.52-6.24" fill="#fff"/>
      <path id="_패스_1242" data-name="패스 1242" d="m300.86,55.52c-.33-.31-.64-.6-.94-.89-.7-.66-1.41-1.34-2.2-2.02l-12.63-11.04c-10.49-9.16-21.33-18.64-31.95-27.98-3.45-3.15-7.97-4.87-12.64-4.81h-.02c-57.22.07-114.35.07-169.79,0h-.03c-4.82-.06-9.47,1.75-12.99,5.04-7.45,6.73-15.08,13.53-22.46,20.11-3.29,2.94-6.59,5.87-9.88,8.81-3.16,2.83-6.32,5.67-9.53,8.55l-4.51,4.05c-4.14,3.72-4.52,10.09-.84,14.27l136.86,155.84c1.92,2.19,4.69,3.45,7.6,3.46h.04c2.9,0,5.66-1.24,7.59-3.4l138.98-155.78c3.68-4.12,3.39-10.43-.65-14.2m-123.4,122.71v-62.46c.04-.32.04-.65.02-.97-.02-.3-.02-.59-.02-.88v-.62c.18-2.99,1.02-5.9,2.47-8.52.9-1.93,1.42-4.02,1.52-6.15.12-.54.18-1.09.18-1.64v-5.29h4.36c.17.03.33.04.5.05,2.68.03,3.28,1.61,3.2,3.9-.07,1.97,0,3.95,0,5.92q0,13.33,13.21,13.15c5.75-.08,7.35-1.57,7.4-7.26.07-8.5.02-17.01.02-25.51,0-6.38,0-12.76,0-19.13,0-13.51-.24-13.74-13.75-13.43-5.29.12-6.8,1.57-6.86,6.78-.06,5.16-.06,10.32,0,15.49.02,1.85-.11,3.44-1.66,4h-44.65c.27-.37.52-.77.77-1.12.78-1.1,1.7-2.27.92-3.74-.75-1.41-2.09-1.56-3.53-1.5-3.79.14-7.59.11-11.38.34-4.53.28-6.42,1.94-6.65,6.02h-5.59c-1.58-.84-1.45-2.6-1.44-4.36.02-3.18,0-6.36,0-9.54q0-12.53-12.67-12.36c-6.13.08-7.89,1.74-7.93,7.8-.06,8.33-.01,16.66-.01,24.99,0,6.51,0,13.02,0,19.54q0,13.1,13.05,12.99c6.29-.05,7.51-1.23,7.57-7.35.02-1.97-.16-3.96.04-5.9.35-3.31-1.37-7.37,1.79-9.77h5.86c.63,6.64,3.7,11.54,11.29,13.88,4.06,1.25,7.2,3.77,8.55,7.82v77.53L32.34,63.75c2.18-1.96,4.35-3.91,6.52-5.85,3.28-2.93,6.57-5.87,9.86-8.8,7.33-6.54,14.91-13.29,22.34-20,55.15.07,111.96.07,168.92,0,10.56,9.29,21.31,18.68,31.71,27.77l7.88,6.89-102.12,114.48Z" fill="#fff"/>
      <rect id="_사각형_612" data-name="사각형 612" width="311" height="238" fill="none"/>
    </g>
  </g>
</svg>