<?xml version="1.0" encoding="UTF-8"?>
<svg id="_레이어_2" data-name="레이어 2" xmlns="http://www.w3.org/2000/svg" viewBox="0 0 54 106">
  <g id="Tag">
    <g id="symbol_03_17_0001_01" data-name="symbol 03 17 0001 01">
      <rect id="_사각형_74" data-name="사각형 74" x="0" y=".02" width="54" height="105.98" fill="none"/>
      <path id="_패스_498" data-name="패스 498" d="M50.1,50.01c-.78-.54-1.26-1.42-1.28-2.37,0-9.75,0-19.49,0-29.24-.03-.91,.42-1.77,1.19-2.27,.2-.14,.39-.28,.57-.43,3.97-3.23,4.57-9.07,1.33-13.04-.82-1.01-1.85-1.84-3.02-2.43-.59-.41-1.4-.26-1.81,.33-.19,.27-.27,.61-.22,.93-.01,1.31,0,2.62-.01,3.93,.02,.23-.05,.46-.19,.64-.58,.52-1.2,.98-1.81,1.47-.54-.44-1.06-.81-1.5-1.25-.23-.23-.38-.54-.41-.87-.05-1.29,0-2.58-.02-3.87-.02-1.34-.91-1.88-2.1-1.29-4.55,2.31-6.36,7.87-4.04,12.42,.65,1.28,1.59,2.39,2.74,3.24,.99,.66,1.56,1.8,1.49,2.99-.03,5.92,0,11.84,0,17.77,0,3.5-.02,7,.01,10.49,.08,1.13-.45,2.22-1.39,2.85-.39,.28-.75,.59-1.08,.94-2.31,2.31-3.3,5.62-2.63,8.82-.03-.03-.06-.05-.09-.08-4.47,4.49-8.92,8.99-13.37,13.5-1.02,.98-1.37,2.48-.9,3.81,.17,.4,.04,.85-.3,1.11-4.22,4.24-8.46,8.46-12.61,12.77-.91,.95-1.68,1.34-2.85,.67-.12-.06-.24-.1-.37-.12-.65-.26-1.38,.06-1.64,.71-.01,.03-.03,.07-.04,.11-1.22,3.05-2.43,6.11-3.64,9.17-.24,.51-.12,1.12,.29,1.51,.59,.61,1.19,1.21,1.79,1.81,.36,.4,.94,.52,1.43,.3,3.07-1.24,6.14-2.47,9.21-3.73,.65-.23,.98-.94,.75-1.59,0,0,0-.01,0-.02-.13-.51-.3-1-.49-1.49-.17-.33-.07-.74,.23-.97,4.53-4.55,9.04-9.11,13.55-13.67,.21-.27,.58-.37,.89-.23,1.36,.51,2.9,.16,3.9-.89,5.16-5.19,10.32-10.4,15.46-15.61,3.85-1.02,6.6-4.4,6.81-8.38,.2-3.28-1.23-6.46-3.83-8.47ZM39.7,4.53c.16-.23,.38-.41,.63-.52,0,.71,.03,1.42,0,2.12-.06,.68,.24,1.35,.8,1.75,.93,.71,1.82,1.48,2.73,2.22,.49,.54,1.32,.59,1.86,.1,.02-.02,.05-.04,.07-.06,1.01-.79,2-1.6,3.01-2.38,.45-.33,.7-.86,.67-1.41,0-.78,0-1.55,0-2.48,2.57,2.56,2.58,6.73,.02,9.3-.16,.16-.32,.31-.49,.45-1.19,.78-2.1,1.92-2.58,3.26-.08,.14-.21,.23-.37,.26-.23,.04-.48,0-.71,.02-1.15,.13-2.03,.01-2.49-1.38-.4-.77-1-1.42-1.74-1.87-2.97-2.18-3.61-6.35-1.44-9.31,.01-.02,.02-.03,.03-.05h0Zm6.54,40.82c0,.61-.17,.81-.76,.76s-1.16,0-1.83,0V19.79h2.57v.72c0,8.28,0,16.56,0,24.84h0Zm-21.52,36.72c-4.57,4.62-9.13,9.25-13.74,13.84-.78,.58-1.02,1.64-.56,2.5,.13,.32,.23,.64,.32,.97l-5.44,2.2c-.52,.21-1.03,.45-1.57,.61-.38,.04-.73-.23-.78-.62,0-.06,0-.11,0-.17,.9-2.35,1.84-4.7,2.78-7.08,.45,.15,.87,.26,1.27,.43,.67,.31,1.46,.13,1.93-.45,4.62-4.69,9.26-9.38,13.9-14.05l.59-.6,1.85,1.86-.55,.55Zm4.86-1.29c-.52,.33-1.21,.21-1.59-.27-1.18-1.18-2.36-2.37-3.53-3.57-.57-.47-.64-1.32-.17-1.88,.06-.07,.12-.13,.19-.19,.24-.25,.49-.49,.78-.79l5.5,5.55c-.35,.42-.75,.81-1.18,1.15h0Zm3.28-3.22c-.07,.06-.15,.11-.23,.16l-5.47-5.52c.13-.15,.27-.31,.41-.46,3.1-3.13,6.19-6.25,9.29-9.37,1.16,2.18,3.17,3.78,5.55,4.44,.29,.08,.58,.15,.87,.22-3.47,3.51-6.95,7.02-10.42,10.53h0Zm17.92-16.89c-1.41,3.16-5.05,4.66-8.28,3.42-3.27-1.3-4.96-4.93-3.86-8.27,.41-1.46,1.29-2.74,2.5-3.66,1.08-.75,1.89-1.83,2.28-3.09,.09-.17,.25-.3,.44-.34,.37-.03,.73-.04,1.1-.02h.13q1.11,0,1.54,1.01c.42,.94,1.07,1.75,1.9,2.36,2.6,2.02,3.52,5.54,2.25,8.58Z" fill="#fff"/>
      <path id="_패스_499" data-name="패스 499" d="M47.88,54.9c-.19-.56-.73-.92-1.32-.88-.57,0-1.13,0-1.7,0s-1.13,0-1.7,0c-.63-.04-1.21,.36-1.4,.96q-1.21,2.86-.05,5.76c.03,.08,.06,.16,.09,.24,.2,.55,.73,.92,1.32,.9,1.15,.01,2.31,.01,3.47,0,.59,.02,1.12-.36,1.3-.91,.32-.83,.68-1.65,.95-2.5,.1-.35,.1-.72,0-1.07-.26-.86-.61-1.68-.95-2.51Zm-3.06,4.37c-.69,.06-1.3-.46-1.35-1.15,0-.05,0-.1,0-.15-.04-.82,.55-1.34,1.51-1.34,.73,.04,1.28,.67,1.24,1.4-.04,.73-.67,1.28-1.4,1.24h0Z" fill="#fff"/>
    </g>
  </g>
</svg>