<?xml version="1.0" encoding="UTF-8"?>
<svg id="Layer_2" data-name="Layer 2" xmlns="http://www.w3.org/2000/svg" viewBox="0 0 270 128">
  <g id="Logo">
    <g id="symbol_03_08_0001_01" data-name="symbol 03 08 0001 01">
      <path id="_패스_578" data-name="패스 578" d="m17.85,63.93c43.77-1.57,90.57,14.84,117.37,50.6-27.93-28-69.32-38.01-107.72-33.4-2.29.28-4.87.64-7.07,1.13l-2.57-18.32Z" fill="#fff"/>
      <path id="_패스_579" data-name="패스 579" d="m250.02,82.25c-30.1-5.23-62.31-1.31-89.41,13.37-9.29,5.1-17.84,11.46-25.39,18.91,23.2-31.15,61.91-47.47,100.04-50.3,5.76-.5,11.55-.6,17.32-.3l-2.57,18.32Z" fill="#fff"/>
      <path id="_패스_580" data-name="패스 580" d="m39.78,52.21c30.61-6.15,64.41,7.3,84.37,30.91,1.33,1.6,2.64,3.2,3.88,4.83-3.43-2.33-6.44-5.06-9.86-7.35-22.88-16.77-50.08-26.62-78.39-28.39" fill="#fff"/>
      <path id="_패스_581" data-name="패스 581" d="m70.06,24.4c22.85,4.94,44.47,21.28,53.77,42.97.83,2.3,1.58,4.66,2.22,7-1.48-1.96-2.82-3.92-4.15-5.93-13.64-18.56-32.22-32.2-51.83-44.04" fill="#fff"/>
      <path id="_패스_582" data-name="패스 582" d="m226.72,52.21c-28.31,1.77-55.52,11.63-78.39,28.4-3.41,2.29-6.43,5.03-9.86,7.35,1.25-1.64,2.55-3.24,3.88-4.83,19.96-23.61,53.75-37.06,84.37-30.91" fill="#fff"/>
      <path id="_패스_583" data-name="패스 583" d="m196.44,24.4c-19.61,11.84-38.19,25.48-51.84,44.04-1.33,2.02-2.67,3.97-4.15,5.93.64-2.35,1.4-4.7,2.22-7,9.3-21.7,30.91-38.03,53.77-42.98" fill="#fff"/>
      <rect id="_사각형_2" data-name="사각형 2" width="270" height="128" fill="none"/>
    </g>
  </g>
</svg>