<?xml version="1.0" encoding="UTF-8"?>
<svg id="Layer_2" data-name="Layer 2" xmlns="http://www.w3.org/2000/svg" viewBox="0 0 190 241">
  <g id="Logo">
    <g id="symbol_04_02_0002_01" data-name="symbol 04 02 0002 01">
      <path id="_합치기_10" data-name="합치기 10" d="m81.85,232.05c-44.12-7.25-74.02-48.89-66.77-93.01C21.32,85.15,85.57,28.36,111.51,7.44c.82-.66,2.03-.53,2.69.3.53.66.56,1.59.08,2.29-14.77,21.45-23.04,41.34-27.19,59.05-.23,1.04.43,2.06,1.46,2.29.19.04.39.05.58.04,18.26-1.32,37.79,3.44,56.28,16.76,13.8,9.94,23.64,24.46,27.76,40.96,14.28,57.6-28.11,104.01-78.11,104.01-4.43,0-8.85-.36-13.21-1.08Zm-8.82-73.39c-3.63,22.13,11.36,43.02,33.49,46.65h0c22.13,3.63,43.02-11.36,46.65-33.49h0c3.63-22.13-11.36-43.01-33.49-46.65-2.19-.36-4.41-.54-6.63-.54-19.87.03-36.8,14.43-40.02,34.03Zm68.92-93.54c-11-1.81-18.46-12.2-16.65-23.2,1.81-11,12.2-18.46,23.2-16.65,11,1.81,18.46,12.19,16.65,23.2h0c-1.6,9.75-10.02,16.91-19.9,16.92-1.1,0-2.21-.09-3.3-.27Z" fill="#fff"/>
      <rect id="_사각형_215" data-name="사각형 215" width="190" height="241" fill="none"/>
    </g>
  </g>
</svg>