<?xml version="1.0" encoding="UTF-8"?>
<svg id="_레이어_2" data-name="레이어 2" xmlns="http://www.w3.org/2000/svg" viewBox="0 0 150 257">
  <g id="Logo">
    <g id="symbol_15_05_0002_01" data-name="symbol 15 05 0002 01">
      <rect id="_사각형_192" data-name="사각형 192" width="150" height="257" fill="none"/>
      <path id="_패스_544" data-name="패스 544" d="M71.35,154c-37.69-.04-68.22-30.63-68.18-68.32,.04-37.69,30.63-68.22,68.32-68.18,37.67,.04,68.18,30.59,68.18,68.25-.06,37.7-30.63,68.23-68.32,68.25Zm0-125.99c-31.89,.04-57.71,25.91-57.67,57.8,.04,31.89,25.91,57.71,57.8,57.67,31.86-.04,57.67-25.87,57.67-57.73-.05-31.89-25.91-57.72-57.8-57.74Z" fill="#fff"/>
      <path id="_패스_545" data-name="패스 545" d="M87.17,155.54c-10.33,3.22-21.39,3.2-31.71-.05-.67,4.22-1.14,7.38-1.14,7.38-3.28,20.39-6.33,40.85-9.55,61.26-.55,3.47-.23,5.9,2.26,8.22,7.28,6.8,14.4,13.91,21.41,21.19,2.26,2.34,3.78,2.29,5.99,0,7.02-7.25,14.13-14.39,21.38-21.23,2.44-2.3,2.8-4.52,2.2-8.18-1.28-7.91-8.01-50.32-10.84-68.6Z" fill="#fff"/>
      <path id="_패스_546" data-name="패스 546" d="M83.4,125.7c-.42-1.99-1.11-4.99-1.11-4.99l4.6-16.85,5.44,4.6-13.7-21.02c-.13-.21-.2-.34-.2-.34l-13.78,.09c-.7,1.03-1.33,2-1.88,2.89l-11.98,18.38,4.97-4.2,4.99,16.54-1.25,5.47c-.78,3.43-1.66,8.02-2.33,11.61,9.3,2.5,19.09,2.52,28.39,.04-.57-3.17-.97-5.41-1.09-6.17s-.44-3-1.08-6.04Z" fill="#fff"/>
      <path id="_패스_547" data-name="패스 547" d="M148.57,20.78c-10.13-1.26-18.11-9.24-19.37-19.37-1.66,9.98-9.47,17.79-19.45,19.45,9.15,3.05,16.32,10.23,19.37,19.37,2.63-9.44,10.01-16.82,19.45-19.45h0Z" fill="#fff"/>
    </g>
  </g>
</svg>