<?xml version="1.0" encoding="UTF-8"?>
<svg id="_레이어_2" data-name="레이어 2" xmlns="http://www.w3.org/2000/svg" viewBox="0 0 120 120">
  <g id="Logo">
    <g>
      <g>
        <path d="M107.75,67.61c1.89-3.94,2.5-8.39,1.79-12.73-3.69,1.87-6.69,4.98-8.58,8.91-1.39,2.89-2.08,6.07-2.07,9.27-.86,2.71-2.39,5.77-4.98,8.99-.36,.22-.71,.44-1.06,.69-2.05,1.46-3.78,3.33-5.13,5.48-3.32,2.73-7.52,5.48-12.81,8.17-.25,.06-.5,.11-.75,.18-2.15,.61-4.16,1.61-5.97,2.94-2.64,1.11-5.48,2.21-8.56,3.28-3.71-1.28-7.06-2.61-10.12-3.96-1.08-.64-2.22-1.15-3.41-1.56-6.67-3.22-11.7-6.55-15.5-9.83-1.28-1.88-2.86-3.52-4.7-4.83-.08-.06-.17-.1-.25-.16-2.17-2.62-3.63-5.12-4.6-7.42,.24-3.67-.43-7.34-2.02-10.65-1.89-3.94-4.89-7.05-8.58-8.91-.71,4.34-.1,8.8,1.79,12.73,1.35,2.81,3.27,5.18,5.6,7,.55,1.52,1.28,3.08,2.22,4.68-1.84-.48-3.75-.66-5.67-.5,1.34,4.17,3.89,7.72,7.31,10.16,3.21,2.28,6.94,3.39,10.74,3.25,1.69,1.21,3.55,2.42,5.6,3.62-1.82,.23-3.61,.72-5.32,1.5,2.61,3.64,6.23,6.23,10.37,7.4,4.08,1.15,8.34,.82,12.21-.91,1.25,.46,2.52,.93,3.85,1.38,.16,.05,.32,.08,.49,.08s.33-.03,.49-.08c1.49-.51,2.92-1.03,4.31-1.56,3.75,1.55,7.83,1.83,11.74,.72,4.14-1.17,7.76-3.77,10.37-7.4-1.58-.72-3.23-1.2-4.91-1.45,1.75-1.05,3.35-2.11,4.83-3.17,3.75,.1,7.43-1.01,10.59-3.26,3.42-2.43,5.97-5.99,7.31-10.16-1.81-.15-3.6,.01-5.35,.43,.98-1.63,1.72-3.21,2.28-4.7,2.72-1.88,4.95-4.48,6.46-7.63Z" fill="#fff"/>
        <path d="M95.46,12.5H23.8c-.83,0-1.5,.67-1.5,1.5V51.38c1.22,28.53,36.54,39.59,36.9,39.7,.14,.04,.29,.06,.44,.06s.29-.02,.44-.06c.36-.11,35.68-11.17,36.9-39.76V14c0-.83-.67-1.5-1.5-1.5ZM61.91,57.33c-.03,.1-.09,.18-.18,.24-.16,.04-.33,.05-.5,.04h-3.2c-.17,.01-.34,0-.5-.04-.09-.05-.15-.14-.18-.24l-8.69-21.66v21.74c.02,.07,.02,.15,0,.22-.07,.19-.28,.29-.47,.22h-3.72c-.32,0-.48-.15-.48-.44V28.53c-.03-.24,.01-.48,.12-.7,.08-.09,.34-.14,.76-.14h4.76c.19,0,.3,.03,.34,.1,.07,.12,.13,.25,.18,.38l9.48,23.54,9.48-23.54c.09-.19,.14-.31,.18-.38s.15-.1,.34-.1h4.76c.42,0,.68,.05,.76,.14,.11,.22,.15,.46,.12,.7v28.88c0,.29-.16,.44-.48,.44h-3.72c-.07,.03-.15,.03-.22,0-.2-.05-.31-.25-.26-.45v-21.74l-8.68,21.66Zm-2.28,30.73c-3.95-1.33-33.28-12.04-34.33-36.75V15.5h6.49V51.43c.92,21.59,27.84,29.77,27.84,29.77,0,0,26.92-8.18,27.84-29.77V15.5h6.49V51.25c-1.05,24.74-30.38,35.48-34.33,36.81Z" fill="#fff"/>
      </g>
      <rect width="120" height="120" fill="none"/>
    </g>
  </g>
</svg>