<?xml version="1.0" encoding="UTF-8"?>
<svg id="_레이어_2" data-name="레이어 2" xmlns="http://www.w3.org/2000/svg" viewBox="0 0 220 220">
  <g id="Logo">
    <g id="symbol_13_04_0001_01" data-name="symbol 13 04 0001 01">
      <rect id="_사각형_120" data-name="사각형 120" width="220" height="220" fill="none"/>
      <path id="_패스_337" data-name="패스 337" d="M154.24,142.96c.5,2.59-1.42,5.61-3.77,5.95-1.99,.29-3.66-1.63-4.8-2.94-1.2-1.39-3.4-4.35-2.41-5.88,.11-.17,.32-.42,1.13-.75s4.16-1.73,7.16,.15c1.34,.73,2.31,1.99,2.69,3.46Z" fill="#fff"/>
      <path id="_패스_338" data-name="패스 338" d="M217.12,136.02c-.03-.22-.06-.45-.09-.67-2.85-19.98-13.77-38.44-28.96-51.73-2.73-2.39-5.67-4.71-7.36-7.91-2.07-3.92-1.98-8.58-1.84-13.01,.57-17.99,1.13-35.98,1.7-53.97,.13-4.12-.14-8.02-4.83-7.53-4.14,.43-8.46,2.22-12.13,4.12-7.68,3.94-14.01,10.11-18.14,17.69-1.18,2.21-2.2,4.57-3.96,6.35-4.02,4.08-10.51,3.97-16.23,3.76-13.46-.49-27.29,.07-39.8,5.07s-23.61,15.15-26.7,28.27c-.77,3.26-1.19,6.93-3.69,9.16-2.3,2.05-5.65,2.25-8.73,2.33l-29.76,.84c-3.72,.11-7.79,.35-10.52,2.88-2.5,2.32-3.18,5.98-3.47,9.38-1.28,14.97,2.97,31.02,14.01,41.21,13.58,12.54,33.78,13.78,52.25,14.36,1.43,.19,2.88-.07,4.14-.76,1-.88,1.74-2.01,2.12-3.29,6.03-14.43,16.89-26.23,27.52-37.7,8.7-9.38,18.36-19.29,30.98-21.35,5.04,6.88,.31,17.8,5.57,24.51,2.94,3.76,8.09,4.92,11.87,7.84,9.13,7.06,7.79,20.93,12.16,30.73,1.48,3.33,3.7,6.83,2.71,10.35-.58,1.62-1.49,3.09-2.67,4.34-5.6,6.77-11.58,13.81-19.8,16.87-8.85,3.29-18.64,1.39-28.07,.85-11.61-.66-23.23,.84-34.76,2.34l-32.66,4.24c-4.58,.6-9.26,1.22-13.39,3.29-8.38,4.21-12.94,13.7-14.2,22.99-.28,1.29-.19,2.63,.25,3.88,1.18,2.63,4.68,3.05,7.56,3.09l70.75,1.02c18.2,.26,36.57,.51,54.42-3.11s35.36-11.45,47.48-25.03c13.28-14.9,18.92-35.92,16.28-55.71ZM84.45,82.32c-3.45,0-6.24-4.68-6.24-10.44s2.79-10.45,6.24-10.45,6.24,4.68,6.24,10.45-2.79,10.45-6.24,10.45h0Z" fill="#fff"/>
    </g>
  </g>
</svg>