<?xml version="1.0" encoding="UTF-8"?>
<svg id="Layer_2" data-name="Layer 2" xmlns="http://www.w3.org/2000/svg" viewBox="0 0 234 190">
  <g id="Logo">
    <g id="symbol_21_02_0003_01" data-name="symbol 21 02 0003 01">
      <path id="_패스_853" data-name="패스 853" d="m73.92,81.55c17.42,0,31.54-14.12,31.55-31.54,0-6.03-1.73-11.94-4.98-17.02,34.53-25.52,81.81-25.02,115.78,1.24,1.04-1.79,2.25-3.48,3.62-5.04C183.66,1.34,133.35.9,96.65,28.14c-12.08-12.55-32.05-12.94-44.6-.86-12.55,12.08-12.94,32.05-.86,44.6,5.95,6.18,14.16,9.67,22.74,9.67" fill="#fff"/>
      <path id="_패스_854" data-name="패스 854" d="m127.36,153.74c5.4-8.34,14.02-14.05,23.81-15.76,4.21-.74,8.52-.68,12.71.18,1.05-4.27.45-9.48-3.89-15.42-4.34-5.71-6.01-13.01-4.59-20.03-11.33-.52-21.72-6.47-27.89-15.99-4.81-7.43-11.16-13.74-18.62-18.5-8.49,16.35-27.18,24.62-44.99,19.92-2.01-.53-3.98-1.22-5.88-2.07-7.48-3.32-13.76-8.86-17.96-15.88-27.59,19.78-33.93,58.19-14.15,85.78,19.78,27.59,58.19,33.93,85.78,14.15,6.19-4.44,11.51-9.99,15.67-16.38" fill="#fff"/>
      <rect id="_사각형_301" data-name="사각형 301" width="234" height="190" fill="none"/>
    </g>
  </g>
</svg>