<?xml version="1.0" encoding="UTF-8"?>
<svg id="Layer_2" data-name="Layer 2" xmlns="http://www.w3.org/2000/svg" viewBox="0 0 244 244">
  <g id="Logo">
    <g id="symbol_15_03_0003_02" data-name="symbol 15 03 0003 02">
      <path id="_패스_1159" data-name="패스 1159" d="m36.03,135.41c-6.61-23.78-9.82-48.37-9.52-73.05.07-1.76,1.04-3.35,2.58-4.21L119.51,7.22c.76-.43,1.61-.65,2.49-.65C58.18,6.83,6.66,58.78,6.93,122.6c.26,63.44,51.63,114.81,115.07,115.07-.61,0-1.22-.11-1.79-.33-40.69-15.36-69.8-50.61-84.18-101.94" fill="#fff"/>
      <path id="_패스_1160" data-name="패스 1160" d="m122,6.57c.87,0,1.73.22,2.48.65l90.43,50.92c1.53.86,2.51,2.46,2.57,4.21.3,24.68-2.9,49.27-9.52,73.05-14.38,51.33-43.49,86.58-84.18,101.94-.57.22-1.18.33-1.79.33,63.82-.27,115.33-52.21,115.07-116.03-.26-63.44-51.63-114.81-115.07-115.07" fill="#fff"/>
      <path id="_패스_1161" data-name="패스 1161" d="m138.29,130.68l16.29-15.88-22.51-3.27-10.06-20.4-10.07,20.4-22.51,3.27,16.29,15.88-3.85,22.41,20.13-10.58,20.13,10.58-3.85-22.42Z" fill="#fff"/>
      <rect id="_사각형_482" data-name="사각형 482" width="244" height="244" fill="none"/>
    </g>
  </g>
</svg>