<?xml version="1.0" encoding="UTF-8"?>
<svg id="_레이어_2" data-name="레이어 2" xmlns="http://www.w3.org/2000/svg" viewBox="0 0 135 136">
  <g id="Logo">
    <g id="symbol_17_04_0001_01" data-name="symbol 17 04 0001 01">
      <rect id="_사각형_136" data-name="사각형 136" width="135" height="136" fill="none"/>
      <path id="_패스_379" data-name="패스 379" d="M111.56,100.35c-2.86,.99-5.48,2.58-7.68,4.66-3.45,2.98-6.64,6.48-10.78,8.32-3.79,1.68-8.05,1.82-12.19,1.81-2.79,.12-5.58-.21-8.27-.96-2.72-.79-4.96-2.72-6.14-5.29l15.94-2.42c1.75-.12,3.45-.68,4.93-1.62,1.39-1.06,2.17-3.15,1.2-4.61-1.35-2.04-4.42-1.3-6.83-.85-1.45,.26-2.92,.35-4.39,.27,.29-.54,.54-1.02,.77-1.43,1.04-1.92,3.48-6.38,11.16-19.16,3.09-5.15,2.74-4.48,3.06-5.07,6.3-11.33,11.23-21.4,13.79-26.22,.49-.82,1.21-1.48,2.07-1.9,1.93-.99,2.91-2.93,2.18-4.78-.74-1.74-2.62-2.7-4.46-2.26-1.95,.6-3.07,2.65-2.51,4.61,.19,.77,.14,1.59-.13,2.33-5.24,11.12-11.79,21.56-16.28,33.11-2.77,7.14-6.47,13.91-10.04,20.74-1.66-.13-3.31-.38-4.93-.75,0-.57,.01-1.09,.02-1.54,.03-2.18,.13-7.26,1.04-22.15,.36-5.99,.35-5.24,.37-5.91,.35-12.96,.06-24.16,.1-29.62,.06-.95,.39-1.87,.96-2.64,1.25-1.77,1.22-3.94-.27-5.25-1.46-1.2-3.57-1.18-5,.06-1.45,1.43-1.5,3.76-.1,5.25,.52,.6,.86,1.34,.96,2.13,.5,12.29-.49,24.57,.88,36.89,.83,7.5,.7,15.11,.69,22.7-2.12-.48-4.24-1.09-6.37-1.62-3.26-5.92-6.18-12.03-8.75-18.28-4.49-11.56-11.04-21.99-16.28-33.12-.27-.75-.32-1.56-.13-2.33,.55-1.96-.56-4.01-2.51-4.61-1.84-.43-3.72,.52-4.46,2.26-.72,1.85,.26,3.8,2.18,4.78,.86,.42,1.58,1.08,2.07,1.9,2.56,4.82,7.49,14.89,13.79,26.22,.32,.58-.04-.08,3.06,5.07,6.42,10.68,9.18,15.55,10.52,17.98-3.03-.85-6.18-1.23-9.32-1.12-6.86,.46-12.91,4.63-18.03,9.22-7.86-9.05-15.28-18.98-18.25-30.59-3.68-14.41,.22-30.38,9.59-41.93S52.62,14.04,67.46,13.03s29.86,3.88,41.74,12.83c-5.34-5.72-11.82-10.26-19.01-13.34-20.34-8.74-44.81-4.11-61.36,10.41C3.98,44.64,1.44,82.39,23.15,107.24c2.6,2.98,5.49,5.69,8.63,8.1,8.46,6.4,18.42,10.53,28.93,11.97,12.16,1.7,25.04-.3,35.4-6.88,7.02-4.45,12.62-10.77,18.12-17,.51-.45,.83-1.08,.9-1.76-.06-1.47-2.16-1.74-3.57-1.32Zm-6.82-59.08c.65-1.18,2.12-1.63,3.32-1.01,1.18,.56,1.69,1.96,1.13,3.14-.02,.04-.04,.09-.07,.13-.6,1.2-2.06,1.68-3.26,1.08-.01,0-.03-.01-.04-.02-1.19-.64-1.66-2.1-1.08-3.32h0Zm-35.43-6.73c.03-1.35,1.13-2.42,2.47-2.43,1.3-.05,2.4,.96,2.46,2.26,0,.05,0,.1,0,.15,.02,1.34-1.05,2.44-2.39,2.46-.02,0-.03,0-.05,0-1.35-.02-2.44-1.1-2.49-2.44h0Zm-31.58,10.05c-1.19,.62-2.65,.17-3.28-1.02,0-.01-.01-.03-.02-.04-.63-1.14-.21-2.58,.93-3.21,.04-.02,.09-.05,.13-.07,1.2-.61,2.67-.17,3.32,1.01,.58,1.22,.1,2.68-1.08,3.32Z" fill="#fff"/>
      <path id="_패스_380" data-name="패스 380" d="M2,68C1.69,42.05,18.22,17.14,42.18,7.16c43.49-18.52,92.07,13.51,92.07,60.84,.01,47.33-48.58,79.38-92.07,60.85C18.23,118.86,1.69,93.95,2,68Zm0,0c-.27,25.84,16.45,50.63,40.54,59.98,42.32,17.07,88.81-14.39,88.74-59.98,.15-45.51-46.49-77.09-88.74-59.98C18.46,17.36,1.73,42.15,2,68Z" fill="#fff"/>
    </g>
  </g>
</svg>