<?xml version="1.0" encoding="UTF-8"?>
<svg id="_레이어_2" data-name="레이어 2" xmlns="http://www.w3.org/2000/svg" viewBox="0 0 165 165">
  <g id="Logo">
    <g id="symbol_15_01_0002_01" data-name="symbol 15 01 0002 01">
      <rect id="_사각형_187" data-name="사각형 187" width="165" height="165" fill="none"/>
      <path id="_패스_526" data-name="패스 526" d="M126.3,71.42c3,6.7,8.3,11.76,12.56,17.56,6.93,9.43,14.25,18.56,21.28,27.9,4.09,5.19,3.2,12.72-1.99,16.81-.13,.1-.26,.2-.39,.3-5.3,3.84-12.58,2.63-16.74-2.83-11.75-15.39-23.49-30.79-35.22-46.2-6.82-8.99-6.57-19.3,.88-27.71,3.31-3.99,7.07-7.59,11.2-10.73,.26,7.46,.56,14.92,4.78,21.5,.92,1.45,1.43,3.33,3.64,3.4Z" fill="#fff"/>
      <path id="_패스_527" data-name="패스 527" d="M92.65,126.61c-14.68,11.22-29.35,22.44-44.02,33.67-8.13,6.24-18.21,3.03-20.12-6.56-.99-4.28,.68-8.74,4.23-11.33,16.03-12.39,32.07-24.77,48.32-36.87,8.23-5.97,19.59-5.01,26.7,2.26,3.49,3.46,6.82,7.07,10.23,10.61-3.07,.28-6.17,.39-9.21,.89-6.01,.99-12.11,1.9-16.12,7.34Z" fill="#fff"/>
      <path id="_패스_528" data-name="패스 528" d="M71.42,38.99c14.93-11.45,29.79-22.99,44.83-34.3,5.9-4.44,12.88-3.25,17,2.32,3.91,5.29,2.55,12.58-3.2,16.98-15.05,11.53-30.1,23.05-45.17,34.56-10.15,7.76-20.67,7.07-29.75-2-2.98-2.97-6.34-5.58-8.71-9.14,2.34-1.68,5.03-.69,7.56-1,6.54-.79,12.86-2.06,17.45-7.42Z" fill="#fff"/>
      <path id="_패스_529" data-name="패스 529" d="M37.83,93.42c-11.07-14.6-22.14-29.21-33.21-43.81C-.35,43.07,.19,35.86,5.97,31.52c5.61-4.21,12.57-2.77,17.52,3.68,11.39,14.84,22.76,29.69,34.12,44.55,7.92,10.42,7.14,20.94-2.16,30.19-3.09,3.07-5.81,6.53-9.43,9.04-.29-3.57-.3-7.19-.94-10.69-1.02-5.58-2.49-11.07-7.25-14.88Z" fill="#fff"/>
    </g>
  </g>
</svg>