<?xml version="1.0" encoding="UTF-8"?>
<svg id="Layer_2" data-name="Layer 2" xmlns="http://www.w3.org/2000/svg" viewBox="0 0 113 176">
  <g id="Logo">
    <g id="symbol_16_05_0001_02" data-name="symbol 16 05 0001 02">
      <path id="_패스_392" data-name="패스 392" d="m81.29,40.5c.27,4.94-.15,9.89-1.25,14.71-4.48,18.88-15.9,36.51-30.02,49.63-4.51,3.93-9.31,7.69-15.01,9.25-1.58.28-3.92.87-4.82-.67-2.4-8.96,18.86-38.05,22.51-48.99.79-2,1.44-5.5-1.38-6.28-2.12-.41-3.81.65-5.53,1.5l-1.62.91c-2.9,1.65-6.4,1.86-9.47.56C20.59,55.26,8.1,27,4.64,12.69c2.41,15.59,13.76,44.53,28.97,51.16,3.88,1.68,8.32,1.5,12.05-.5,1.39-.88,2.89-1.56,4.47-2.01-.47,3.01-2.16,5.72-3.54,8.53-4.65,8.66-9.95,17.08-14.51,26.01-2.27,4.91-7.14,13.57-4.87,19,1.48,3.21,5.74,3.19,8.57,2.41,6.34-1.69,11.55-5.88,16.29-10.19,14.38-13.84,25.37-31.94,28.9-51.71.86-4.92.97-9.94.31-14.89" fill="#fff"/>
      <path id="_패스_393" data-name="패스 393" d="m86.79,10.42c-4.76,4.51-7.38,10.77-10.03,16.56-2.85,6.43-5.32,13.25-9.59,18.79-4.89,6.42-11.41,6.44-18.41,3.29,17.11,11.74,25.44-7.59,31.09-20.73,2.13-4.86,4.17-9.73,7.27-13.98,5.11-6.58,14.52-11.82,22.57-7.05-6.89-6.1-16.86-2.5-22.9,3.11" fill="#fff"/>
      <path id="_패스_394" data-name="패스 394" d="m79.1,97.94c.87-5.32,2.06-10.59,3.56-15.77,1.01-3.07,1.97-6.2,3.86-8.88-3.06,3.19-4.7,7.45-6.3,11.49-1.5,4.13-2.73,8.35-3.69,12.64-4.42,20.23-5.91,45.93,3.76,64.82,2.03,3.94,4.88,7.4,8.36,10.14-2.93-3.17-5.25-6.85-6.86-10.86-7.56-18.82-5.8-43.84-2.68-63.59" fill="#fff"/>
      <path id="_패스_395" data-name="패스 395" d="m36.45,48.13c3.66,0,6.63-2.97,6.63-6.63,0-3.66-2.97-6.63-6.63-6.63-3.66,0-6.63,2.97-6.63,6.63h0c0,3.66,2.97,6.63,6.63,6.63" fill="#fff"/>
      <rect id="_사각형_141" data-name="사각형 141" width="113" height="176" fill="none"/>
    </g>
  </g>
</svg>