<?xml version="1.0" encoding="UTF-8"?>
<svg id="Layer_2" data-name="Layer 2" xmlns="http://www.w3.org/2000/svg" viewBox="0 0 138 185">
  <g id="Logo">
    <g id="symbol_10_02_0002_02" data-name="symbol 10 02 0002 02">
      <path id="_합치기_22" data-name="합치기 22" d="m71.8,166.8c0-.22.02-.44.03-.65.09-1.48.52-2.91,1.24-4.2,1.75-3.13,5.06-5.06,8.65-5.07,5.48,0,9.92,4.45,9.92,9.92,0,.92-.13,1.84-.39,2.72-.41,1.42-1.13,2.73-2.11,3.84-1.88,2.13-4.58,3.36-7.42,3.36-5.48,0-9.92-4.45-9.92-9.92Zm4-3.72c-.71,1.11-1.09,2.4-1.09,3.72,0,.19.04.38.06.56.29,3.64,3.32,6.44,6.96,6.45,1.65,0,3.25-.6,4.5-1.68,1.16-.97,1.98-2.28,2.32-3.75.13-.52.19-1.05.2-1.59,0-3.87-3.14-7.01-7.02-7.02-2.41,0-4.66,1.25-5.94,3.3h0Zm-45.06-14.07l-1.47-5.33-2.69-9.77,10.04-2.76,4.86,17.62,1.47,5.33,1.65,5.99-10.03,2.76-3.81-13.84Zm38.03-38.09l4.82-11.41,1.86-4.4,13.39-31.7,2.1-4.98,11.62-27.52,11.15,4.71-8.17,19.34-2.1,4.98-14.72,34.85-1.86,4.4-6.94,16.43-11.14-4.7Zm-54.08-10c-.27-.91-.41-1.86-.41-2.81,0-.52.05-1.03.13-1.54.76-4.82,4.91-8.37,9.79-8.38,4.7,0,8.76,3.31,9.72,7.91.13.66.2,1.33.2,2.01,0,.79-.1,1.58-.29,2.35-1.09,4.44-5.06,7.57-9.63,7.58-4.39,0-8.26-2.9-9.51-7.12h0Zm2.7-4.42c-.13.53-.2,1.07-.2,1.61,0,.94.19,1.87.55,2.74,1.1,2.59,3.65,4.28,6.46,4.28,2.93,0,5.55-1.84,6.56-4.6.3-.77.45-1.59.46-2.42,0-.66-.11-1.31-.3-1.94-.86-3-3.59-5.07-6.71-5.08-3.26,0-6.08,2.24-6.83,5.41h0Zm96.64-20.95c0-5.48,4.45-9.92,9.92-9.92,5.48,0,9.92,4.45,9.92,9.92,0,5.48-4.45,9.92-9.92,9.92-5.48,0-9.92-4.44-9.93-9.92h0Zm2.9,0c0,3.87,3.14,7.01,7.02,7.02,3.87,0,7.01-3.14,7.02-7.02,0-3.87-3.14-7.01-7.02-7.02-3.87,0-7.01,3.15-7.02,7.02h0ZM26.29,53.69l-3.72-3.06-18.22-14.95,6.6-8.05,22.02,18.07,3.72,3.05,7.38,6.05-6.6,8.05-11.18-9.17Zm1.73-34.52c0-5.48,4.45-9.92,9.92-9.92,5.48,0,9.92,4.45,9.92,9.92,0,5.48-4.45,9.92-9.92,9.92-5.48,0-9.92-4.44-9.92-9.92h0Zm2.9,0c0,3.87,3.14,7.01,7.02,7.02,3.87,0,7.01-3.14,7.02-7.02,0-3.87-3.14-7.01-7.02-7.02-3.87,0-7.01,3.15-7.01,7.02h0Z" fill="#fff"/>
      <rect id="_사각형_246" data-name="사각형 246" width="138" height="185" fill="none"/>
    </g>
  </g>
</svg>