<?xml version="1.0" encoding="UTF-8"?>
<svg id="Layer_2" data-name="Layer 2" xmlns="http://www.w3.org/2000/svg" viewBox="0 0 215 155">
  <g id="Logo">
    <g>
      <g id="symbol">
        <path id="_패스_431" data-name="패스 431" d="m94.42,9.99l-6.54,14.93h-12.48l-17.24,41.04h-13.08L10,146.85l46.23-61.47h14.99l6.56-16.07,80.36,77.54h46.85L84.86,51.99l4.72-11.57h10.87l7.05-18.36,25.56-14.07-38.64,1.99Z" fill="#fff"/>
        <path id="_패스_432" data-name="패스 432" d="m81.22,87.98l54.69,53-104.51-.11,33.6-44.68h8.84c2.44,0,4.63-1.47,5.55-3.73l1.82-4.48Zm-2.2-10.49l-5.18,12.69h-11.83l-42.61,56.66,131.35.15-.15-.15-71.57-69.36Z" fill="#fff"/>
        <path id="_패스_433" data-name="패스 433" d="m128.42,24.03l15.58,35.15c.96,2.17,3.11,3.57,5.48,3.57h.16l19.63-.53,15.09,52.43-80.18-61.97h.32s.13,0,.13,0c2.51,0,4.75-1.56,5.62-3.92l7.06-19.05,11.09-5.68Zm2.91-8.23l-18.81,9.63-7.88,21.24-9.84-.22-1.31,5.54,101.71,78.62-21.45-74.53-24.28.66-18.15-40.94Z" fill="#fff"/>
      </g>
      <rect id="_사각형_2" data-name="사각형 2" width="215" height="155" fill="none"/>
    </g>
  </g>
</svg>