<?xml version="1.0" encoding="UTF-8"?>
<svg id="_레이어_2" data-name="레이어 2" xmlns="http://www.w3.org/2000/svg" viewBox="0 0 188 220">
  <g id="Logo">
    <g id="symbol_07_03_0004_02" data-name="symbol 07 03 0004 02">
      <rect id="_사각형_312" data-name="사각형 312" width="188" height="220" fill="none"/>
      <path id="_패스_1165" data-name="패스 1165" d="m107.88,46.44c0-12.42.18-24.84-.08-37.25-.12-5.86,2.16-7.56,7.52-5.8,1.84.61,3.98.8,5.48,1.88,7.27,5.24,15.07,6.61,24.07,6.11,9.49-.52,15.77,6.39,19.76,14.12,2.48,5.24,6.7,9.46,11.95,11.95,10.44,5.14,10.55,7.47,1.14,13.62-19.99,13.07-40.07,26.03-60.22,38.87-6.23,3.99-9.49,2.19-9.61-5.44-.19-12.68-.05-25.38-.05-38.06h.04Zm5.5-39.9c-2.62,9.25,1.61,11.64,7.56,12.66,18.48,3.18,34.34,11.16,46.1,26.05,4.49,5.68,7.35,3.24,11.42-1.37-2.53-1.37-4.84-2.16-6.56-3.64-3.41-2.94-7.42-5.73-9.55-9.51-7.12-12.6-12.83-15.68-27.16-13.99-2.53.3-5.46-1.23-7.94-2.45-4.45-2.2-8.69-4.82-13.86-7.74h0Z" fill="#fff"/>
      <path id="_패스_1166" data-name="패스 1166" d="m175.61,112.23c-2.32-4.12-3.56-8.76-3.61-13.49-.14-7.84-1.24-14.87-7.86-20.87-11.66,7.52-23.1,14.93-34.58,22.29-6.19,3.96-12.39,7.91-18.75,11.95,3.6,4.2,5.57,9.56,5.57,15.09-.01,12.89-10.47,23.34-23.37,23.32h0c-12.89.01-23.36-10.43-23.37-23.32h0c.01-12.88,10.45-23.31,23.33-23.32-.08-18.37-.23-36.74.11-55.1.23-12.67-3.28-11.61-13.13-8.09-1.8.64-3.21,2.39-5.01,2.97-4.25,1.37-8.68,3.44-12.96,3.27-12.58-.48-21.07,4.3-26.72,15.26-1.87,3.63-5,7.39-8.53,9.24-12.68,6.66-16.93,13.75-16.74,28.04-.07,4.5-1.35,8.9-3.7,12.73-6.2,10.16-6.19,20.25-.35,30.4,2.5,4.54,3.84,9.63,3.91,14.81.14,11.93,5.22,20.12,15.87,25.78,4.09,2.4,7.43,5.89,9.66,10.07,5.63,10.25,14.14,16.03,25.54,14.78,6.1-.67,10.84.9,15.7,4.29,8.95,6.24,19.66,5.61,28.99.18,4.33-2.52,9.8-4.37,14.73-4.31,12.75.14,21.38-4.86,26.86-16.41,1.86-3.59,4.79-6.53,8.38-8.4,12.2-6.22,16.6-13.72,16.32-27.49,0-4.51,1.25-8.93,3.6-12.77,6.51-10.43,6.51-20.33.11-30.9Zm-3.75,27.89c-2.76,4.97-4.28,10.54-4.42,16.22-.1,11.11-3.83,17.43-13.75,22.92-4.54,2.62-8.31,6.39-10.91,10.94-5.4,9.63-12.15,13.62-23.06,13.66-5.48.06-10.86,1.46-15.67,4.07-9.69,5.43-16.6,5.42-26.11.11-5-2.77-10.62-4.25-16.33-4.29-10.35.13-17.62-3.8-21.8-12.92-2.47-5.62-7.02-10.07-12.69-12.42-8.61-3.9-13.2-10.95-12.3-20.54.79-6.84-1.06-13.72-5.17-19.24-5.22-7.31-5.13-15.15.15-22.52,4-5.29,5.83-11.92,5.11-18.51-.95-10.07,4.1-16.68,12.98-21.7,4.73-2.76,8.68-6.68,11.48-11.39,5.74-9.84,11.97-13.37,23.19-13.14,4.99.1,10.13-2.18,15.04-3.85,3.28-1.11,6.28-3.05,10.39-5.11v10.91c-29.19,3.17-51.86,16.59-64.41,43.94-8.44,18.38-8.87,37.44-1.72,56.38,14.5,38.24,57.24,57.48,95.48,42.98.35-.13.7-.27,1.05-.41,38.22-15.29,60.4-61.96,36.52-106.68l9.45-6.27c1.12,5.51,2.93,9.99,2.7,14.36-.36,6.94.87,12.8,5.11,18.5,5.57,7.49,4.47,15.5-.29,23.99Z" fill="#fff"/>
    </g>
  </g>
</svg>