<?xml version="1.0" encoding="UTF-8"?>
<svg id="_레이어_2" data-name="레이어 2" xmlns="http://www.w3.org/2000/svg" viewBox="0 0 202 199">
  <g id="Logo">
    <g id="symbol_13_01_0004_02" data-name="symbol 13 01 0004 02">
      <path id="_패스_940" data-name="패스 940" d="m102.84,195.49c21.36,0,42.72,0,64.09,0,6.7,0,7.12-.32,7.08-5.87-.1-13.39,1.85-11.61-14.23-11.65-39.99-.08-79.97-.08-119.96-.02-7.68,0-7.78.03-7.7,6.11.16,13.38-2.1,11.31,13.76,11.41,18.99.11,37.98.03,56.97.03" fill="#fff"/>
      <path id="_패스_941" data-name="패스 941" d="m151.24,95.79c-.05-2.79-1.38-5.4-3.61-7.08-1.16-1.19-2.9-1.59-4.46-1.03-1.35.51-2.23,1.8-2.22,3.24-.26,2.76.78,5.48,2.82,7.36,1.36,1.36,2.88,2.73,5.17,2,2.36-.75,2.33-2.67,2.31-4.49" fill="#fff"/>
      <path id="_패스_942" data-name="패스 942" d="m26.25,165.93c2.49,3.14,6.35,4.87,10.35,4.65,21.54-.22,43.09-.1,64.64-.1s43.69-.1,65.53.09c3.58.19,7.02-1.4,9.2-4.25,15.37-18.37,23.7-39.61,23.64-63.44-.14-52.62-39.31-92.76-86.54-97.94C76.45.93,46.5,13.92,23.44,42.26c-28.31,34.79-26.76,89.91,2.82,123.66m63.86-58.02c6.15-9.03,18.67-27.08,35.79-50.53,7.41,2.54,14.38,6.21,20.67,10.89,7.77,5.8,24.01,17.92,26.67,38.67,2.54,19.87-8.24,40.78-24.46,49.38-3.13,1.65-6.46,2.87-9.92,3.62-.56.2-1.15.31-1.75.32-16.04-.02-32.08-.01-49.55-.01,5.86-6.38,8.68-12.64,8.3-20.23-.12-2.64-.66-5.25-1.6-7.72-2.51-6.49-6.77-6.78-8.22-11.02-1.65-4.82,1.84-10.08,4.08-13.37m-31.14,33.45c-.11-6.93,5.41-12.65,12.35-12.76.08,0,.15,0,.23,0,6.67-.04,12.88,6.21,12.75,12.82-.12,6.54-6.11,12.51-12.59,12.54-6.95.08-12.66-5.48-12.74-12.44,0-.05,0-.11,0-.16" fill="#fff"/>
      <rect id="_사각형_344" data-name="사각형 344" width="202" height="199" fill="none"/>
    </g>
  </g>
</svg>