<?xml version="1.0" encoding="UTF-8"?>
<svg id="_레이어_2" data-name="레이어 2" xmlns="http://www.w3.org/2000/svg" viewBox="0 0 383 76">
  <g id="Logo">
    <g id="symbol_14_03_0001_01" data-name="symbol 14 03 0001 01">
      <rect id="_사각형_133" data-name="사각형 133" width="383" height="76" fill="none"/>
      <path id="_패스_374" data-name="패스 374" d="M29.09,51.63c1.62-.69,4.08-1.7,7.11-2.74,10.4-3.58,21.3-5.5,32.3-5.68,88.96-2.15,133.44-3.1,134.39-3.14,19.52-.84,38.96-2.86,58.23-6.06,7.72-1.22,14.99-6.38,21.9-12.4C233.27,.3,184.37,3.09,135.53,23.45c18.25-13.68,38.48-19.11,59.47-21.09,47.16-4.45,91.95,8.54,136.22,25.67,10.47,4.05,21.5,6.08,32.08,9.79,4.31,1.51,8.1,5.04,11.43,8.43-36.1-15.58-71.25-13.2-107.18,5.55,1.38-5.21,2.28-8.59,3.34-12.6-15.92,3.34-32.01,5.81-48.2,7.4-13.77,1.35-23.92,1.7-105.51,.41-24.47-.39-50.99-.85-86.12,6.32-3.44,.7-6.27,1.33-8.14,1.77l6.18-3.46Z" fill="#fff"/>
      <path id="_패스_375" data-name="패스 375" d="M62.42,35.23c-.4,.17-.8,.34-1.2,.5-1.78,.72-3.59,1.36-5.4,1.99-17.62,6.1-35.62,11-53.62,15.87,.85-.34,1.66-.75,2.43-1.24,.85-.42,1.7-.84,2.55-1.26,1.71-.82,3.43-1.62,5.16-2.4,3.46-1.55,6.97-3.01,10.51-4.36,7.09-2.71,14.32-5.02,21.66-6.91,3.67-.95,7.37-1.79,11.09-2.53,1.86-.37,3.72-.71,5.59-1.03,.93-.16,1.87-.31,2.81-.45,.33-.05,2.38-.48,2.25-.08-.07,.22-.95,.53-1.16,.64-.41,.21-.82,.41-1.24,.61-.48,.22-.95,.44-1.44,.65Z" fill="#fff"/>
      <path id="_패스_376" data-name="패스 376" d="M263.48,73.27c17.36-30.16,60.31-37.31,90.12-22.48,9.96,5.04,18.93,12.93,23.72,23.05-6.94-8.18-15.83-14.49-25.84-18.36-29.48-11.26-65.87-5.83-88,17.78h0Z" fill="#fff"/>
    </g>
  </g>
</svg>