<?xml version="1.0" encoding="UTF-8"?>
<svg id="_레이어_2" data-name="레이어 2" xmlns="http://www.w3.org/2000/svg" viewBox="0 0 100 145">
  <g id="Logo">
    <g id="symbol_09_18_0001_01" data-name="symbol 09 18 0001 01">
      <rect id="_사각형_100" data-name="사각형 100" width="100" height="145" fill="none"/>
      <path id="_패스_690" data-name="패스 690" d="M45.2,142.02c-.46-.74-.98-1.44-1.36-2.21-10.28-20.51-20.54-41.02-30.78-61.55-.52-1.3-.81-2.67-.86-4.07-.1-.91,.33-1.4,1.48-1.4,12.45,.05,24.91,.03,37.36,.03,11.88,0,23.76,.02,35.63-.03,1.15,0,1.7,.4,1.58,1.44-.06,1.35-.34,2.69-.84,3.95-5.1,10.36-10.3,20.68-15.48,31.01-5.15,10.29-10.31,20.58-15.47,30.87-1.71,3.5-5.94,4.96-9.44,3.25-.67-.33-1.29-.76-1.82-1.28Z" fill="#fff"/>
      <path id="_패스_691" data-name="패스 691" d="M24.35,42.17c-1.8-.7-3.36-1.25-4.87-1.91-.46-.24-.83-.63-1.06-1.1-1.57-2.87-2.57-6.01-2.94-9.26-2.75,1.07-5.26,2.68-7.37,4.75-.58,.58-1.05,1.66-1.67,1.74-1.23,0-2.46-.17-3.65-.5,1.1-2.48,2.91-4.58,5.2-6.04,2.24-1.4,4.56-2.67,6.95-3.81,.63-.27,1.11-.81,1.32-1.46,.49-1.35,1.17-2.64,1.78-3.97-4.79-3.07-6.77-7.48-6.06-13.19,.04-1.37,1.07-2.52,2.43-2.71,3.32-.88,6.86-.36,9.8,1.41,.25,.15,.5,.29,.75,.43,.03,.02,.08,0,.23,0,1.24-2.39,3.27-4.28,5.74-5.36,5.02-2.06,5.62-1.76,7.74,3.07,1.68,3.7,1.31,8-.96,11.36-.19,.31-.38,.63-.42,.69,1.38,1.39,2.63,2.7,3.94,3.94,.33,.27,.76,.41,1.18,.39,8.8-.46,17.63-.01,26.34,1.33,.8,.13,1.08-.2,1.37-.85,2.08-4.54,4.18-9.07,6.3-13.59,1.58-3.37,4.36-4.4,7.67-2.85,2.17,1.02,4.34,2.04,6.5,3.08,2.75,1.06,4.12,4.15,3.06,6.9-.09,.24-.2,.47-.33,.69-1.65,3.59-3.33,7.17-4.99,10.75-.17,.37-.31,.75-.51,1.21,3.93,2.05,7.6,4.32,9.83,8.49-1.2,.23-2.29,.5-3.38,.6-.33,.03-.79-.34-1.05-.64-1.96-2.15-4.35-3.86-7.02-5.01-1.18,2.52-2.4,4.97-3.46,7.49-.38,1.14-1.32,2.01-2.48,2.31-1.02,.27-1.98,.74-3.27,1.23l4.11-8.95-6.05-.39c-1.44-.09-2.9-.08-4.33-.31-.9-.31-1.89,.16-2.2,1.06-.04,.1-.06,.21-.08,.32-.11,.32-.24,.64-.38,.95,3.65,1.84,3.32,5.96,5.14,9.06-8.57,4-16.34,9.52-22.93,16.31-6.57-6.73-14.3-12.23-22.81-16.24,.55-1.67,1.09-3.24,1.58-4.82,.65-2.42,2.53-4.32,4.95-4.98,2.21-.58,4.24-1.69,5.93-3.24,.33-.28,.54-.67,.61-1.09,.13-5.62-4.05-10.4-9.64-11.02-5.88-.55-11.1,3.78-11.65,9.66-.12,1.25-.01,2.5,.3,3.71,.95,3.37,2.43,6.57,4.37,9.49,.13,.2,.23,.42,.45,.85Zm40.1-8.83l3.56-7.7c-8.11-1.21-16.32-1.63-24.51-1.25,.27,1.44,.54,2.82,.8,4.17,1.04,.09,2.07,.23,3.09,.43,1.85,.48,3.79,.48,5.64,0,2.94-.82,6.09,0,8.24,2.17,1.01,.79,2.08,1.53,3.18,2.19h0Zm12.23-17.49c3.14,.2,6.07,.38,8.99,.57,3.18,.21,3.17,.21,4.39-2.79,.46-.79,.19-1.79-.6-2.25-.09-.05-.18-.09-.27-.13-2.31-1.11-4.63-2.18-6.94-3.28-.72-.45-1.67-.24-2.12,.47-.06,.1-.11,.2-.15,.32-1.1,2.27-2.13,4.58-3.28,7.08Zm-50.64-.94c-.46-4.3-5.47-7.83-9.79-6.71-.34,.15-.59,.44-.68,.8-.32,3.49,1.51,6.82,4.64,8.41,.35,.16,.76,.18,1.12,.05,1.57-.8,3.1-1.68,4.7-2.56h0Zm7.6-.1c2.61-2.89,2.97-7.44,1.06-10.28-.29-.28-.69-.41-1.09-.34-1.85,.54-3.46,1.69-4.56,3.26-.82,1.15-1.5,2.32-.32,3.69,.29,.36,.48,.79,.52,1.25,.16,1.89,1.21,2.61,2.99,2.48,.58-.04,1.16-.06,1.4-.08h0Z" fill="#fff"/>
      <path id="_패스_692" data-name="패스 692" d="M2.07,39.3c20.72,3.79,38.48,12.7,51.82,30-.76,.03-1.16,.05-1.56,.05-11.9,0-23.79,0-35.69,.03-.78,.1-1.53-.36-1.79-1.1-3.99-8.48-8.04-16.93-12.04-25.41-.44-1.06-.82-2.14-1.14-3.24l.4-.34Z" fill="#fff"/>
      <path id="_패스_693" data-name="패스 693" d="M98.76,39.64c-.29,1.03-.63,2.04-1.04,3.03-4.06,8.59-8.16,17.16-12.22,25.75-.22,.63-.85,1.03-1.51,.95-8.52-.03-17.03-.03-25.55,0-.66,.05-1.28-.29-1.6-.87-1.41-2.01-2.91-3.96-4.51-6.11,12.83-12.77,28.39-20.02,46.05-23.08l.36,.33Z" fill="#fff"/>
      <path id="_패스_694" data-name="패스 694" d="M28.1,30.86c.72,.66,.77,1.78,.11,2.5-.05,.05-.1,.1-.15,.15-.85,.84-2.04,.69-3.07-.38-.73-.72-.74-1.89-.02-2.62,.02-.02,.04-.04,.05-.05,.83-.81,2.05-.65,3.07,.4Z" fill="#fff"/>
      <path id="_패스_695" data-name="패스 695" d="M35.15,26.51c.74,.76,.73,1.98-.03,2.72-.05,.05-.11,.1-.16,.14-.67,.7-1.78,.73-2.48,.06-.02-.02-.05-.05-.07-.07-.78-.73-.81-1.95-.08-2.73,.05-.05,.1-.1,.15-.14,.73-.74,1.92-.74,2.65-.01,0,0,.02,.02,.03,.03Z" fill="#fff"/>
    </g>
  </g>
</svg>