<?xml version="1.0" encoding="UTF-8"?>
<svg id="Layer_2" data-name="Layer 2" xmlns="http://www.w3.org/2000/svg" viewBox="0 0 262 185">
  <g id="Logo">
    <g id="symbol_10_05_0002_01" data-name="symbol 10 05 0002 01">
      <path id="_합치기_24" data-name="합치기 24" d="m140,158.51c-.66-2.28-1-4.64-1-7.02,0-.43.01-.86.03-1.28.34-6.72,3.36-13.03,8.37-17.52l-7.33-11.54-13.25-20.86c2.72-.77,5.15-2.32,7-4.45l16.08,25.31,4.5,7.08c3.12-1.32,6.47-2,9.86-2,4.82,0,9.55,1.38,13.61,3.99l12.56-13.91c-5.93-6.69-9.2-15.32-9.2-24.26,0-10.82,4.78-21.09,13.07-28.05,2.52-2.13,5.31-3.9,8.31-5.28,4.8-2.22,10.03-3.37,15.32-3.37,20.26.02,36.67,16.44,36.69,36.69-.02,20.26-16.44,36.67-36.69,36.69-5.29,0-10.52-1.14-15.32-3.36-2.11-.97-4.13-2.15-6.02-3.5l-2.29,2.53-10.27,11.38c3.29,4.12,5.2,9.16,5.46,14.42.02.42.03.85.03,1.28,0,2.38-.34,4.74-1,7.02-3.14,10.8-13.02,18.23-24.26,18.25-11.25-.01-21.13-7.45-24.27-18.25Zm18.95-23.12c-2.67.89-5.07,2.42-7,4.47-2.68,2.82-4.3,6.48-4.59,10.35-.03.42-.07.85-.07,1.28,0,2.42.53,4.82,1.54,7.02,2.75,6.05,8.78,9.93,15.43,9.94,6.64,0,12.67-3.9,15.42-9.94,1.01-2.2,1.54-4.59,1.54-7.02,0-.43-.03-.86-.07-1.28-.21-2.91-1.18-5.72-2.8-8.14-1.57-2.33-3.68-4.24-6.16-5.56-2.44-1.3-5.17-1.98-7.93-1.98-1.8,0-3.6.29-5.31.86Zm43.65-67.23c-3.3,2.12-6.13,4.9-8.31,8.15-3.11,4.66-4.77,10.13-4.77,15.73,0,5.6,1.66,11.08,4.77,15.73.54.8,1.11,1.58,1.73,2.33,1.77,2.14,3.85,4.02,6.16,5.56.13.09.28.17.41.26,4.57,2.94,9.88,4.51,15.32,4.5,15.67-.02,28.38-12.72,28.39-28.39-.02-15.67-12.72-28.38-28.39-28.39-5.43,0-10.75,1.56-15.32,4.51ZM6.21,121.16V8h158.05v29.06H36.25v84.1H6.21Z" fill="#fff"/>
      <rect id="_사각형_248" data-name="사각형 248" width="262" height="185" fill="none"/>
    </g>
  </g>
</svg>