<?xml version="1.0" encoding="UTF-8"?>
<svg id="Layer_2" data-name="Layer 2" xmlns="http://www.w3.org/2000/svg" viewBox="0 0 376 242">
  <g id="Logo">
    <g id="symbol_07_03_0005_01" data-name="symbol 07 03 0005 01">
      <path id="_합치기_53" data-name="합치기 53" d="m89.58,162.82c-3.23,4.43-6.94,8.48-11.08,12.07-20.06,17.49-45.38,21.27-56.55,8.45-8.49-9.73-6.36-26.24,3.92-41.28-9.14-4.96-15.09-12.29-15.67-20.81-.65-9.46,5.46-18.37,15.58-24.72-10.21-15-12.29-31.43-3.83-41.14,11.17-12.82,36.49-9.04,56.55,8.45,4.47,3.88,8.45,8.28,11.85,13.13,17.34-38.88,55.91-63.94,98.48-63.98,41.97.04,80.12,24.41,97.79,62.48,3.15-4.26,6.76-8.15,10.76-11.63,20.06-17.49,45.38-21.27,56.55-8.45,8.46,9.7,6.38,26.14-3.83,41.14,10.12,6.36,16.23,15.26,15.58,24.72-.58,8.51-6.53,15.85-15.68,20.81,10.29,15.04,12.41,31.54,3.93,41.28-11.17,12.82-36.49,9.04-56.55-8.45-3.66-3.2-6.99-6.75-9.94-10.61-17.27,39.04-55.92,64.24-98.61,64.29-43.27-.05-82.33-25.93-99.25-65.75Zm7.25-73.9c-3.56,10.25-5.37,21.02-5.36,31.87,0,10.29,1.63,20.52,4.84,30.3,13.15,39.97,50.44,67,92.52,67.05,53.74-.06,97.3-43.61,97.35-97.36-.06-53.74-43.61-97.29-97.35-97.35-41.47.05-78.37,26.32-91.99,65.49h0Zm205.54,47.26c-1.62,2.38-1.01,5.62,1.36,7.24,0,0,0,0,0,0l22.95,15.64c.86.59,1.89.91,2.94.91,1.73,0,3.34-.85,4.31-2.28,1.62-2.38,1.01-5.62-1.37-7.24,0,0,0,0,0,0l-22.95-15.65c-.86-.59-1.89-.91-2.93-.91-1.72,0-3.34.85-4.31,2.28h0Zm-227.75-1.37l-22.95,15.65c-2.38,1.62-2.99,4.87-1.37,7.24.97,1.43,2.59,2.28,4.31,2.28,1.05,0,2.07-.32,2.94-.91l22.95-15.64c1.23-.84,2.04-2.18,2.22-3.66.13-1-.04-2.01-.48-2.91-.11-.23-.23-.46-.37-.68-.97-1.43-2.59-2.28-4.31-2.28-1.05,0-2.07.31-2.93.9h0Zm226.84-15.43c0,2.88,2.34,5.21,5.22,5.21h30.6c2.88,0,5.21-2.33,5.22-5.21h0c0-2.88-2.33-5.22-5.21-5.22h-30.6c-2.88,0-5.21,2.34-5.21,5.22h0Zm-259.71,0c0,2.88,2.34,5.21,5.22,5.21h30.6c1.3,0,2.55-.49,3.5-1.38,1.08-.98,1.7-2.37,1.71-3.83,0-1.42-.58-2.78-1.61-3.76-.96-.94-2.26-1.46-3.6-1.46h-30.6c-2.88,0-5.21,2.34-5.21,5.22h0Zm284.94-39.7l-22.95,15.65c-2.38,1.62-3,4.86-1.38,7.24,0,0,0,0,0,0,.97,1.43,2.59,2.28,4.31,2.28,1.05,0,2.07-.32,2.93-.91l22.95-15.65c2.38-1.62,3-4.86,1.37-7.24,0,0,0,0,0,0-.97-1.43-2.59-2.28-4.31-2.28-1.05,0-2.07.31-2.93.9h0Zm-276.39,1.38c-1.62,2.38-1.01,5.62,1.37,7.24l22.95,15.65c.86.59,1.89.91,2.93.91,1.73,0,3.34-.85,4.31-2.28,1.62-2.38,1.01-5.62-1.36-7.25,0,0,0,0,0,0l-22.95-15.65c-.86-.59-1.89-.91-2.93-.91-1.73,0-3.34.85-4.31,2.28h0Zm178.1,114.37c-1.52-1.71-14.79-17.09-13.23-31.09.58-5.3,3.44-10.1,7.83-13.12,4.29-3.16,9.69-4.43,14.94-3.51,12.93,2.21,22.93,16.06,24.02,17.63,1.65,2.36,1.07,5.61-1.29,7.26,0,0,0,0,0,0-2.36,1.65-5.61,1.07-7.26-1.29-2.31-3.29-9.91-12.09-17.25-13.33-2.5-.46-5.07.16-7.08,1.71-2,1.29-3.3,3.42-3.54,5.79-.9,7.98,7.39,19.32,10.67,23.02,1.91,2.16,1.71,5.45-.45,7.36-.95.85-2.18,1.32-3.46,1.31-1.49,0-2.91-.64-3.9-1.75h0Zm-91.9.44c-2.15-1.91-2.35-5.21-.43-7.36,3.27-3.69,11.56-15.04,10.66-23.02-.24-2.37-1.55-4.5-3.54-5.79-2.01-1.55-4.58-2.18-7.08-1.71-7.34,1.24-14.94,10.05-17.25,13.33-1.65,2.36-4.9,2.93-7.26,1.28-2.36-1.65-2.93-4.9-1.28-7.25,1.1-1.57,11.09-15.42,24.02-17.63,5.25-.92,10.65.35,14.94,3.51,4.4,3.03,7.26,7.82,7.83,13.12,1.56,13.99-11.71,29.38-13.23,31.09-.99,1.11-2.41,1.75-3.9,1.75-1.28,0-2.51-.47-3.46-1.32h0Zm29.21-42.93c-2.28-1.75-2.72-5.02-.97-7.3,0,0,0,0,0,0,1.75-2.28,5.01-2.71,7.29-.98.62.46,14.05,10.17,30.83-.27,2.44-1.52,5.66-.77,7.18,1.67,0,0,0,0,0,0,1.52,2.45.78,5.66-1.67,7.19-6.34,4.13-13.73,6.37-21.29,6.45-7.65,0-15.11-2.37-21.38-6.75h0Zm48.37-19.91c0-7.24,4.51-13.1,10.09-13.1s10.08,5.86,10.08,13.1-4.51,13.09-10.08,13.09-10.08-5.87-10.08-13.1h0Zm-75.56,0c0-7.24,4.51-13.1,10.08-13.1s10.09,5.86,10.09,13.1-4.52,13.09-10.09,13.09-10.08-5.87-10.08-13.1h0Z" fill="#fff"/>
      <rect id="_사각형_563" data-name="사각형 563" width="376" height="242" fill="none"/>
    </g>
  </g>
</svg>