<?xml version="1.0" encoding="UTF-8"?>
<svg id="Layer_2" data-name="Layer 2" xmlns="http://www.w3.org/2000/svg" viewBox="0 0 114 134">
  <g id="Logo">
    <g id="symbol_05_02_0002_01" data-name="symbol 05 02 0002 01">
      <path id="_패스_950" data-name="패스 950" d="m62.47,34.17c0-3.04,2.47-5.51,5.51-5.51,3.04,0,5.51,2.47,5.51,5.51,0,3.04-2.47,5.51-5.51,5.51-3.04,0-5.51-2.47-5.51-5.51h0" fill="#fff"/>
      <path id="_패스_951" data-name="패스 951" d="m75.4,16.89c0-4.36,3.53-7.89,7.89-7.89,4.36,0,7.89,3.53,7.89,7.89s-3.53,7.89-7.89,7.89c-4.36,0-7.9-3.53-7.9-7.89h0" fill="#fff"/>
      <path id="_패스_952" data-name="패스 952" d="m55.64,101.51c0-15.28,12.39-27.66,27.67-27.66,1.83,0,3.66.18,5.46.54-.97-3.66-2.43-7.17-4.37-10.42-1.38-2.38-.57-5.44,1.81-6.82,1.17-.68,2.57-.85,3.88-.48,7.24,2.17,14.87-1.93,17.04-9.17,2.17-7.24-1.93-14.87-9.17-17.04s-14.87,1.93-17.04,9.17c-.27.9-.45,1.82-.53,2.76-.08.93-.06,1.86.04,2.78.19,1.66-.47,3.3-1.75,4.38l-.94.79c-1.71,1.43-4.16,1.55-6.01.31-18.88-12.59-44.4-7.48-56.98,11.4-12.59,18.88-7.48,44.4,11.4,56.98,11.62,7.74,26.38,9.06,39.18,3.49-6.15-5.24-9.7-12.92-9.7-21.01" fill="#fff"/>
      <rect id="_사각형_227" data-name="사각형 227" width="114" height="134" fill="none"/>
    </g>
  </g>
</svg>