<?xml version="1.0" encoding="UTF-8"?>
<svg id="_레이어_2" data-name="레이어 2" xmlns="http://www.w3.org/2000/svg" viewBox="0 0 148 148">
  <g id="Logo">
    <g id="symbol_13_01_0006_01" data-name="symbol 13 01 0006 01">
      <path id="_패스_955" data-name="패스 955" d="m90.24,96.4c.32,2.6-.43,4.38-2.59,5.31-1.55.71-3.39.24-4.42-1.12-1.58-1.79-1.3-3.71-.18-5.64.58-.99,1.87-2.09.49-3.18-1.44-1.13-2.56.17-3.43,1.15-1.61,1.82-3.26,3.62-3.86,6.13-.33,2.14-2.31,3.62-4.46,3.33-1.86-.03-3.4-1.48-3.54-3.34-.36-2.43.52-4.46,2.96-5.13,2.95-.8,4.85-2.88,6.93-4.8.73-.67,1.46-1.41.72-2.43-.94-1.29-1.64-.13-2.3.41-1.65,1.35-3.4,1.82-5.16.37-1.54-1.25-2.08-3.35-1.34-5.18.7-2.13,2.39-2.79,4.53-2.55.75.08,1.77.59,2.06-.54.31-1.21-.75-1.65-1.65-1.92-2.59-.76-5.17-1.69-7.95-.82-2.53.79-4.66.21-5.73-2.36-.93-1.78-.36-3.98,1.33-5.08,2.09-1.43,4.14-1.01,5.91.7,1.67,1.61,3.74,2.74,6,3.28,1.55.39,3.48,1.21,4.07-1.08.53-2.04-1.61-1.72-2.72-2.18-1.87-.61-3.15-2.34-3.18-4.3-.03-1.41.79-2.69,2.09-3.24,1.57-.92,3.54-.81,5,.28.84.7,1.42,1.66,1.66,2.73.35,1.08.87,2.2,2.26,1.69,1.27-.47,1.14-1.68.93-2.8-.33-2.57-1.44-4.98-3.18-6.91-1.79-1.84-2.39-4.01-.7-6.23,1.12-1.48,3.14-1.94,4.79-1.09,2.39.99,2.92,2.97,2.49,5.38-.46,2.55-.27,5.18.56,7.64.3.91.65,1.93,1.88,1.73,1.12-.18.89-1.17.88-1.96-.18-2.12,1.16-4.07,3.2-4.66,1.45-.53,3.08-.09,4.07,1.1,1.72,1.73,1.53,3.62.35,5.57-.41.68-1.04,1.52-.15,2.14.83.57,1.51-.2,2.08-.77,1.14-1.17,1.94-2.63,2.33-4.22.47-2.25,2.68-3.68,4.92-3.21.01,0,.02,0,.03,0,1.86.18,3.28,1.73,3.3,3.59.4,2.11-.91,4.17-2.99,4.7-1.59.38-3.08,1.08-4.39,2.05-1.12.98-1.79,2.09-.93,3.55.98,1.65,2.33,1.12,3.52.39,1.14-.71,2.11-1.68,3.2-2.49,1.66-1.23,3.43-1.77,5.2-.28,1.63,1.14,2.21,3.29,1.38,5.1-.65,1.89-2.59,3-4.54,2.62-1.47-.2-2.96-.31-4.45-.33-1.18-.02-2.17.45-2.28,1.81-.1,1.16.73,1.62,1.68,1.99,2.79,1.07,5.83,1.34,8.77.79,2.73-.47,4.94.79,5.15,3.83.19,2.74-1.55,4.26-4.19,4.54-1.59.17-2.82-.79-3.92-1.87-2.04-1.82-4.57-2.99-7.28-3.36-1.07-.22-1.93-.02-2.3,1.08-.39,1.16.32,1.77,1.32,2.12.51.18,1.05.3,1.55.49,2.01.78,3.09,2.21,2.8,4.4-.1,1.7-1.34,3.11-3.01,3.44-1.88.57-3.92-.16-5.01-1.8-.82-1.15-.58-4.04-2.85-2.96-2.03.96-.47,3.15-.1,4.76.41,1.87,1.33,3.59,2.68,4.95,1.6,1.6,2.21,3.45.76,5.48-1.05,1.71-3.23,2.34-5.03,1.44-2.42-1.03-2.91-3.02-2.3-5.41.54-2.26.38-4.63-.45-6.81-.44-1.26-.79-2.93-2.59-2.49-1.54.38-.52,1.83-.67,2.48" fill="#fff"/>
      <path id="_패스_956" data-name="패스 956" d="m56.43,44.2c.17.65.28,1.07.39,1.48.32,1.21.15,2.28-1.17,2.67-1.15.34-1.84-.41-2.28-1.4-.31-.69-.51-1.64-1.48-1.51s-1.35,1.03-1.61,1.9c-.35,1.05-.45,2.16-.28,3.25.26,1.53-.24,2.71-1.96,2.76s-2.27-1.07-2.13-2.64c.14-1.53.39-3.08-.97-4.25-.95.04-.88.9-1.19,1.41-.5.84-1.13,1.4-2.14,1.08-.98-.28-1.54-1.29-1.27-2.27,0-.03.02-.06.03-.09.15-.91.95-2.04-.43-2.55-1.15-.42-2.11.38-2.93,1.12-.57.51-1,1.17-1.53,1.72-.97,1.02-2.09,1.32-3.15.22-.88-.8-.94-2.17-.14-3.05.06-.07.13-.13.2-.19.52-.57,1.15-1.03,1.64-1.62s1.02-1.33.65-2.1c-.41-.85-1.14-.18-1.72-.08-.89.25-1.83-.24-2.14-1.11-.3-.74-.05-1.59.6-2.06.64-.59,2.22-.63,1.54-2.05-.63-1.07-1.8-1.72-3.04-1.69-.55-.02-1.1.02-1.64.1-1.53.13-2.73-.39-2.79-2.04-.07-1.72,1.26-2.11,2.69-2.22,1.28-.1,2.66.24,3.76-.73.24-.99-.67-1.01-1.12-1.38-.8-.47-1.1-1.47-.69-2.3.34-.85,1.25-1.33,2.15-1.13.79.11,1.77,1.03,2.35-.09.55-1.06-.04-2.18-.64-3.1-.47-.6-1.02-1.14-1.63-1.6-1.01-.91-1.62-1.96-.51-3.11s2.33-1,3.45.15c.98,1.01,1.86,2.21,3.46,2.22.67-.47.31-1,.16-1.5-.39-.89.01-1.93.91-2.33.06-.03.13-.05.2-.07.94-.4,2.03.03,2.43.97.01.02.02.05.03.07.37.62.51,1.64,1.54,1.38.87-.3,1.44-1.13,1.41-2.05.13-1.2.08-2.42.17-3.62.09-1.24.71-2.16,2.04-2.13,1.12-.08,2.09.76,2.17,1.88.01.16,0,.32-.02.48-.06,1.61-.51,3.3.98,4.55,1.06-.07,1-1.11,1.54-1.6.5-.62,1.35-.83,2.09-.54.86.33,1.36,1.23,1.17,2.13-.09.8-1.09,1.74,0,2.36,1.1.63,2.11-.23,3.01-.81.61-.47,1.16-1,1.66-1.58.96-.98,2.04-1.48,3.15-.38,1.21,1.18.83,2.38-.3,3.42s-2.43,1.94-2.31,3.72c.72.67,1.27-.01,1.84-.18,1.1-.33,2.02-.17,2.47.95.4.97-.05,2.07-1,2.5-.73.47-2.32.32-1.81,1.79.34.96,1.54,1.23,2.5,1.38,1.09.09,2.19.11,3.28.07,1.1-.12,2.09.67,2.21,1.76.02.17.02.35-.01.53.02,1.03-.8,1.88-1.83,1.9-.14,0-.28-.01-.42-.04-1.73-.34-3.52.04-4.97,1.04,0,1.23,1.09.97,1.65,1.35.84.39,1.24,1.34.95,2.22-.29.87-1.18,1.4-2.08,1.23-.87-.04-1.98-1.28-2.58.14-.51,1.22.27,2.35,1.05,3.3.45.48.95.91,1.48,1.3,1.09.91,1.48,2,.45,3.13-.67.94-1.98,1.16-2.93.49-.2-.14-.37-.31-.5-.51-1.02-1.12-1.81-2.55-4.07-2.4m-9.61-16.02c-.32-2.21-1.42-3.75-3.81-3.64-2.09,0-3.78,1.69-3.78,3.78,0,2.09,1.69,3.78,3.78,3.78.08,0,.17,0,.25,0,2.39-.03,3.39-1.65,3.56-3.91" fill="#fff"/>
      <path id="_패스_957" data-name="패스 957" d="m28.17,100.53c1.82.28,3-.34,2.5-2.65-.25-1.15-.28-2.2.88-2.83s2.03-.03,2.87.79c2.08,2.01,3.6,1.27,4.72-1.06.49-1.02,1.05-2.02,2.35-1.89,1.53.15,1.86,1.36,1.97,2.66.23,2.87,1.69,3.46,4.15,2.26,1.11-.54,2.3-1.15,3.35,0,.91,1.01.3,1.98-.28,2.95-1.47,2.47-1.56,4.26,2.02,4.77,2.22.32,2.49,1.76,1.21,3.55-.6.85-2.61,1.33-1.13,2.81,1.02,1,2.66.98,3.66-.05.02-.02.03-.04.05-.05,3.02-2.85,4.82-3.37,4.76,1.87-.02,1.66,1.49,1.59,2.78,1.02,1.18-.52,2.42-.8,3.3.44.76,1.07.08,2.03-.49,2.98-1.44,2.42-.9,3.84,2.09,3.98,1.14-.1,2.17.7,2.34,1.83.2,1.32-.73,1.99-1.82,2.34-3.15,1.01-3.77,2.47-.97,4.72.95.57,1.26,1.79.7,2.74-.02.04-.05.08-.08.12-.59.81-1.7,1.04-2.57.54-3.12-1.35-4.31-.09-4.25,3.01.02,1.12-.15,2.26-1.44,2.6-1.08.29-1.71-.49-2.36-1.23-1.74-1.99-3.16-2.2-4.65.47-1.46,2.62-3.08,2.57-4.02-.51-.65-2.11-1.55-2.98-3.23-.83-.7.9-1.41,1.74-2.68,1.34-1.3-.41-1.35-1.53-1.33-2.66.03-2.63-.92-3.06-2.8-1.2-1,.99-2.04,2.05-3.48.99-1.24-.92-.75-2.16-.15-3.29.48-.9.75-1.85-.2-2.56s-1.79,0-2.6.48c-1.1.65-2.29,1.22-3.28-.01-.92-1.15-.38-2.29.42-3.32.56-.73,1.55-1.46.83-2.45s-1.74-.26-2.6,0c-1.39.43-2.81.65-3.5-.95-.72-1.67.68-2.38,1.81-3.15.65-.44,1.56-.86,1.07-1.87-.34-.7-1.13-.61-1.81-.51-1.3.18-2.53.1-2.94-1.42-.4-1.49.63-2.2,1.77-2.81,2.08-1.11,2.08-2.06-.26-2.73-1.23-.35-2.4-.8-2.42-2.32-.02-1.72,1.28-2.18,2.66-2.55,1.66-.44,2.09-1.28.56-2.45-1.04-.8-1.91-1.66-1.23-3.06.79-1.62,2.19-1.26,3.77-.85m25.16,30.65c4.05.18,7.1-1.97,7.49-5.3.42-3.55-1.65-6.45-5.81-6.98-6.05-.77-9.19-3.96-10.02-9.9-.57-4.09-3.35-6.39-6.77-5.98-3.3.4-5.32,3.06-5.33,7.04-.02,10.6,9.68,20.62,20.43,21.11" fill="#fff"/>
      <path id="_패스_958" data-name="패스 958" d="m23.38,67.76c4.17,2.05,7.38,4.97,8.81,9.53.88,2.81.27,5.17-2.49,6.49-2.88,1.37-4.88.03-6.42-2.46-3.29-5.33-3.94-5.56-10.12-3.57-2.71.88-4.99.26-6.16-2.3-1.28-2.79-.58-5.37,2.28-6.9,4.34-2.37,9.52-2.67,14.1-.8" fill="#fff"/>
      <path id="_패스_959" data-name="패스 959" d="m116.09,115.45c2.97-1.41,6.34-1.73,9.52-.91,2.7.6,4.34,2.39,4.04,5.23-.3,2.75-2.07,4.25-4.9,4.48-6.76.54-6.75.57-8.79,7-.89,2.79-2.79,4.44-5.75,3.96-2.79-.45-3.95-2.6-4.08-5.3-.27-5.52,3.98-11.82,9.96-14.46" fill="#fff"/>
      <path id="_패스_960" data-name="패스 960" d="m142.15,60.06c.28,4.56-1.8,8.12-4.97,11.12-2.27,2.14-4.87,2.56-7.26.29-2.24-2.12-1.92-4.51-.2-6.94,3.37-4.75,3.35-5.81-.3-10.29-1.87-2.29-2.56-4.63-.36-6.89,2.26-2.32,4.9-2,7.33-.11,4.02,2.98,6.2,7.83,5.76,12.81" fill="#fff"/>
      <path id="_패스_961" data-name="패스 961" d="m100.48,21.82c2.97.08,5.4,2.38,5.63,5.34,0,3.03-2.46,5.48-5.48,5.47-.11,0-.23,0-.34-.01-2.83.09-5.2-2.14-5.29-4.97,0-.16,0-.32,0-.49-.02-2.93,2.33-5.33,5.26-5.35.07,0,.14,0,.21,0" fill="#fff"/>
      <rect id="_사각형_347" data-name="사각형 347" width="148" height="148" fill="none"/>
    </g>
  </g>
</svg>