<?xml version="1.0" encoding="UTF-8"?>
<svg id="Layer_2" data-name="Layer 2" xmlns="http://www.w3.org/2000/svg" viewBox="0 0 288 288">
  <g id="Logo">
    <g id="symbol_02_02_0005_01" data-name="symbol 02 02 0005 01">
      <path id="_합치기_45" data-name="합치기 45" d="m5.11,171.13c0-76.84,62.29-139.13,139.13-139.13,76.84,0,139.13,62.29,139.13,139.13,0,29.32-9.26,57.89-26.46,81.63l-9.32-60.81-30.09-35.22-55.44,12.34-16.7,16.19c-.01-10.87,0-21.74.02-32.62.08-2.36-1.04-4.6-2.98-5.95-4.49-3.38-8.94-6.8-13.4-10.21-2.44-1.85-4.84-1.09-5.76,1.84-1.31,4.16-2.61,8.33-3.91,12.5-.1.3-.23.59-.4,1.04-.17-.35-.26-.53-.34-.7-4.64-10.66-9.29-21.32-13.92-31.99-.95-2.52-3.72-3.84-6.28-2.99-1.44.39-2.88.79-4.29,1.27-.85.3-1.79.24-2.6-.16-7.64-3.32-15.3-6.6-22.94-9.94-1.36-.72-2.93-.92-4.43-.54l-3.6,2.68c-.34,1.03-.77,2.04-1.02,3.09-.94,4.06-1.62,8.2-2.79,12.19-1.17,3.96-.12,7.71.4,11.53.14.9.98,1.52,1.88,1.38.05,0,.1-.02.14-.03.9-.11,1.53-.93,1.42-1.82v-.05c-.06-.87-.24-1.72-.36-2.57-.21-1.6-.81-3.27-.54-4.78,1.01-5.41,2.3-10.77,3.54-16.13.31-1.34,2.5-2.31,3.73-1.78,3.25,1.4,6.49,2.82,9.75,4.19.64.18,1.09.76,1.11,1.43,1.28,12.16,2.59,24.31,3.92,36.47.17,1.3-.18,2.61-.97,3.65-1.16,1.58-2.26,3.21-3.4,4.81-1.56,2.21-3.13,4.4-4.77,6.7-2.64-2.4-5.22-4.69-7.72-7.07-.43-.5-.71-1.12-.79-1.78-.35-1.93-.61-3.88-.9-5.82-.45-2.99-.87-5.99-1.34-8.98-.24-1.53-1.58-2.22-2.73-1.47-.7.49-1,1.38-.74,2.19.74,4.89,1.48,9.79,2.19,14.69.25,1.69,1.11,3.22,2.42,4.32,9.43,8.5,18.85,17,28.27,25.51.12.14.23.29.34.44-1.24-.54-2.29-1.32-3.47-1.82-.97-.48-2.04-.72-3.13-.68-6.44.79-12.86,1.69-19.28,2.62-1.76.1-3.11,1.6-3.01,3.36.04.76.35,1.48.88,2.03,4.43,5.67,8.88,11.34,13.42,16.92.74.9,1.77,1.53,2.91,1.78,4.97.83,9.97,1.45,14.96,2.12.92.27,1.88-.26,2.15-1.18.02-.08.04-.17.05-.25.18-1.07-.47-1.88-1.75-2.06-2.84-.42-5.69-.79-8.54-1.2-.41-.06-.82-.14-1.47-.27,2.35-1.95,4.55-3.71,6.67-5.56.61-.61,1.52-.81,2.33-.52,5.82,1.55,11.62,3.15,17.5,4.46,2.02.54,3.84,1.63,5.26,3.17l-2.46,2.39c-.75.14-1.52.12-2.26-.06-2.71-.62-5.52-.83-8.29-1.19-1.41-.18-2.39.62-2.27,1.84.08.95.88,1.67,1.83,1.67,2.53.34,5.06.68,7.59,1.04l-5.18,5.02-48.12,2.51-23.76,30.24c-18.86-24.33-29.07-54.25-29.03-85.04Zm74.54,38.87c-4.25-5.41-8.51-10.81-12.78-16.21-.07-.13-.12-.27-.15-.41,1.16-.17,2.28-.35,3.39-.5,4.63-.64,9.27-1.25,13.89-1.93.69-.23,1.43.13,1.67.82,0,.03.02.06.03.09,1.37,3.18,2.78,6.33,4.24,9.45.4.52.29,1.27-.23,1.67-.04.03-.09.06-.13.09-2.86,2.28-5.66,4.63-8.47,6.97-.21.22-.48.36-.78.4-.28-.03-.53-.19-.68-.44h0Zm-4.39-39.81c3.03-4.29,5.98-8.48,9.04-12.8.99,1.14,1.92,2.18,2.84,3.24,5.63,6.57,11.26,13.13,16.88,19.71s11.26,13.13,16.9,19.69c.39.48.66,1.04.79,1.64.4,1.82.71,3.66,1.09,5.49l-3.18,3.09c-14.78-13.35-29.52-26.65-44.36-40.05h0Zm27.4,33.43c-2.67-.68-5.34-1.34-7.99-2.08-.49-.16-.9-.5-1.15-.95-1.1-2.29-2.11-4.61-3.05-7.02,5.98,3.82,12.51,6.74,18.03,11.22l-.14.29-5.69-1.47Zm17.25-30.11c.13-.07.25-.15.38-.22.6.9,1.26,1.77,1.96,2.59.85.89,1.86,1.64,2.77,2.48.24.23.42.52.49.84,1.32,7.17,2.62,14.35,3.91,21.53l-3.59,3.47c-1.99-10.32-3.96-20.51-5.93-30.7h0Zm9,4.54l5.71-1.76c.12,1.92.23,3.72.35,5.52.26,4.26.5,8.53.78,12.79l-3.26,3.16c-1.2-6.6-2.38-13.12-3.58-19.71Zm-12.94,10.78c-6.64-7.73-13.27-15.45-19.9-23.18-3.4-3.97-6.8-7.95-10.18-11.93-.33-.38-.54-.85-.62-1.34-1.28-11.67-2.54-23.35-3.79-35.04,0-.17,0-.34.03-.51,3,1.29,5.94,2.51,8.83,3.83,1.43.68,3.08.77,4.58.26,1.38-.45,2.78-.85,4.18-1.25,1.33-.38,1.92-.11,2.45,1.11,5.17,11.88,10.33,23.77,15.48,35.66.19.5.21,1.05.08,1.56-.49,1.78-1.05,3.54-1.64,5.29-.49,1.46-.58,3.02-.26,4.53,1.59,8.09,3.13,16.19,4.69,24.29.1.41.11.85.03,1.26-1.32-1.51-2.64-3.01-3.94-4.53Zm22.08-14.79c-.04-.46,0-.93.13-1.38,1.08-3.29,2.19-6.56,3.29-9.84.05-.13.12-.26.19-.39l.18.06v26.2l-2.73,2.65c-.35-5.77-.7-11.54-1.05-17.3Zm-12.5.31c-2.18-2.69-4.41-5.33-6.58-8.03-.28-.35-.39-.8-.32-1.25,2.63-8.56,5.31-17.12,8.05-25.89,2.86,2.18,5.57,4.25,8.28,6.31,1.87,1.43,3.75,2.86,5.62,4.28.83.49,1.15,1.54.73,2.41-2.21,6.39-4.35,12.8-6.47,19.22-.19.81-.81,1.44-1.62,1.63-2.01.55-3.99,1.18-5.96,1.84-.2.07-.4.11-.61.11-.46-.02-.87-.25-1.12-.63h0Z" fill="#fff"/>
      <rect id="_사각형_417" data-name="사각형 417" width="288" height="288" fill="none"/>
    </g>
  </g>
</svg>