<?xml version="1.0" encoding="UTF-8"?>
<svg id="_레이어_2" data-name="레이어 2" xmlns="http://www.w3.org/2000/svg" viewBox="0 0 174 210">
  <g id="Logo">
    <g id="symbol_06_02_0004_01" data-name="symbol 06 02 0004 01">
      <rect id="_사각형_308" data-name="사각형 308" width="174" height="210" fill="none"/>
      <path id="_패스_1157" data-name="패스 1157" d="M117.92,192.74c15.7-8.09,27.71-18.92,36.29-32.51,.02-.03,.04-.06,.05-.09,.43-.69,.84-1.39,1.26-2.09,.31-.53,.63-1.06,.94-1.6,.23-.4,.44-.81,.66-1.21,.49-.9,.97-1.8,1.42-2.72,.07-.14,.14-.29,.21-.43,1.19-2.42,2.3-4.92,3.31-7.49h.02c5.01-12.67,7.82-27.18,8.55-43.56v-18.56h-19.51v41.06h-7.58s-6.29,.01-6.29,.01h-.08l-29.66,.03c-.03,11.56-.05,23.12-.08,34.67h-7.84c-.02-13.98-.03-27.97-.05-41.95l12.43-.08-.05-10.57h0c.04-.89,.04-1.77,.03-2.64,0-.77-.02-1.53-.02-2.3l.04-33.86-27.48-14.9c-.05,35.44-.09,70.87-.14,106.31h-10.56c.01-21.09,.02-42.18,.03-63.27l.34-52.62-26.6-13.41v20.93l.02,.04,.11,108.33h-10c.06-32.33,.12-64.67,.18-97v-.03c.03-15.94,.06-31.88,.09-47.81,0-.95-.02-1.94-.09-2.92V2.96h-5.59c-.81-.09-1.63-.13-2.45-.11l-27.71,.11c-.02,53.04-.03,106.07-.05,159.1,26.98,42.36,65.12,56.82,115.85,30.68Zm25.41-63.05h7.1v11.75h-7.1v-11.75Zm-9.77,0h7.1v11.75h-7.1v-11.75Zm-9.77,0h7.1v11.75h-7.1v-11.75Zm-9.77,0h7.1v11.75h-7.1v-11.75ZM26.9,20.75h5.23v9.2h-5.23v-9.2Zm0,16.06h5.23v9.19h-5.23v-9.19Zm0,16.06h5.23v9.2h-5.23v-9.2Zm0,16.06h5.23v9.19h-5.23v-9.19Zm0,16.06h5.23v9.19h-5.23v-9.19Zm0,16.06h5.23v9.2h-5.23v-9.2Z" fill="#fff"/>
    </g>
  </g>
</svg>