<?xml version="1.0" encoding="UTF-8"?>
<svg id="Layer_2" data-name="Layer 2" xmlns="http://www.w3.org/2000/svg" viewBox="0 0 217 179">
  <g id="Logo">
    <g id="symbol_09_01_0001_01" data-name="symbol 09 01 0001 01">
      <g>
        <path d="m109.97,7.81C60.64,7.21,20.16,46.72,19.57,96.05h0c0,.59.48,1.06,1.06,1.06.57,0,1.03-.46,1.03-1.03C22.21,48.7,60.49,10.42,107.87,9.87c48.18-.57,87.7,38.03,88.26,86.21,0,.57.46,1.03,1.03,1.03h0c.58,0,1.05-.48,1.05-1.06-.59-48.49-39.75-87.66-88.25-88.25Z" fill="#fff"/>
        <path d="m196.13,169.24h-23.38v-15.51c5.61-1.04,9.88-10.37,9.88-22.1,0-12.45-4.8-22.2-10.93-22.2s-10.92,9.75-10.92,22.2c0,11.73,4.26,21.06,9.87,22.1v15.51h-15.5v-98.89c0-.29-.12-.57-.33-.76l-47.62-44.14c-.19-.18-.45-.28-.71-.28-.58,0-1.04.47-1.04,1.04v53.75c0,.35-.17.67-.46.86l-43.3,29.34c-.29.19-.46.52-.46.86v58.22h-16.43v-15.51c5.61-1.04,9.88-10.37,9.88-22.1,0-12.45-4.8-22.2-10.93-22.2s-10.93,9.75-10.93,22.2c0,11.73,4.26,21.06,9.87,22.1v15.51h-21.06s-.04,0-.06,0c-.58.02-1.03.5-1.01,1.07.02.58.5,1.03,1.07,1.01h174.55c.58-.02,1.03-.5,1.01-1.08-.02-.58-.5-1.03-1.07-1.01Zm-33.25-37.61c0-10.89,4.04-20.1,8.83-20.1s8.83,9.21,8.83,20.1-4.04,20.1-8.83,20.1-8.83-9.21-8.83-20.1Zm-127.95,0c0-10.89,4.04-20.1,8.83-20.1s8.83,9.21,8.83,20.1-4.04,20.1-8.83,20.1-8.83-9.21-8.83-20.1Zm72.6-49.46c0-.35.17-.67.46-.86l13.27-8.99c.17-.12.38-.18.58-.18.58,0,1.04.47,1.04,1.04l.05,52.59c0,.19-.05.38-.15.54-.29.49-.93.66-1.43.36l-13.32-7.94h0c-.32-.19-.51-.53-.51-.9v-35.66Zm-44.21,29.96c0-.35.17-.67.46-.86l40.04-27.13c.17-.12.38-.18.59-.18.58,0,1.04.47,1.04,1.04v34.02c0,.37.19.71.51.9l17.5,10.43c.16.1.35.15.54.15.58,0,1.04-.47,1.04-1.05l-.06-60.19c0-.21-.06-.41-.18-.58-.32-.48-.97-.6-1.45-.28l-14.18,9.61c-.17.12-.38.18-.58.18-.58,0-1.04-.47-1.04-1.04V30.98c0-.26.1-.52.28-.71.39-.42,1.05-.45,1.47-.05l43.45,40.28c.21.2.33.47.34.76v97.98h-56.37v-21.73c0-.58-.47-1.04-1.04-1.04h-15.06c-.58,0-1.04.47-1.04,1.04v21.73h-16.24v-57.11Zm31.3,57.11h-12.98v-19.64c0-.58.47-1.04,1.04-1.04h10.89c.58,0,1.04.47,1.04,1.04v19.64Z" fill="#fff"/>
      </g>
      <rect id="_사각형_2" data-name="사각형 2" width="217" height="179" fill="none"/>
    </g>
  </g>
</svg>