<?xml version="1.0" encoding="UTF-8"?>
<svg id="_레이어_2" data-name="레이어 2" xmlns="http://www.w3.org/2000/svg" viewBox="0 0 176 176">
  <g id="Tag">
    <g id="symbol_03_17_0001_02" data-name="symbol 03 17 0001 02">
      <rect id="_사각형_73" data-name="사각형 73" y="0" width="176" height="176" fill="none"/>
      <path id="_패스_484" data-name="패스 484" d="M88,165.58c-42.9,0-77.67-34.77-77.67-77.67,0-42.9,34.77-77.67,77.67-77.67,42.9,0,77.67,34.77,77.67,77.67h0c-.05,42.88-34.79,77.62-77.67,77.67Zm0-151.23C47.37,14.35,14.44,47.28,14.44,87.91s32.93,73.56,73.56,73.56,73.56-32.93,73.56-73.56h0c-.05-40.61-32.95-73.52-73.56-73.56h0Z" fill="#fff"/>
      <path id="_패스_485" data-name="패스 485" d="M88,176C39.4,176,0,136.6,0,88,0,39.4,39.4,0,88,0c48.6,0,88,39.4,88,88,0,23.34-9.27,45.72-25.78,62.23-16.47,16.56-38.87,25.84-62.22,25.77Zm0-171.89c-46.33,0-83.89,37.56-83.89,83.89,0,46.33,37.56,83.89,83.89,83.89,46.33,0,83.89-37.56,83.89-83.89h0c-.05-46.31-37.58-83.83-83.89-83.89h0Z" fill="#fff"/>
      <path id="_패스_486" data-name="패스 486" d="M88.19,21.03c-1.14,0-2.06-.92-2.06-2.06h0v-6.24c0-1.14,.92-2.06,2.06-2.06s2.06,.92,2.06,2.06v6.24c0,1.14-.92,2.06-2.06,2.06h0Z" fill="#fff"/>
      <path id="_패스_487" data-name="패스 487" d="M53.72,30.31c-.74,0-1.42-.39-1.78-1.03l-3.12-5.4c-.57-.98-.23-2.24,.75-2.81,.98-.57,2.24-.23,2.81,.75l3.12,5.41c.57,.98,.23,2.24-.75,2.81-.31,.18-.67,.27-1.03,.28h0Z" fill="#fff"/>
      <path id="_패스_488" data-name="패스 488" d="M28.52,55.57c-.36,0-.71-.1-1.03-.28l-5.41-3.12c-1-.55-1.36-1.8-.82-2.79,.55-1,1.8-1.36,2.79-.82,.03,.01,.05,.03,.08,.05l5.41,3.12c.98,.57,1.32,1.83,.75,2.81-.37,.64-1.05,1.03-1.78,1.03h0Z" fill="#fff"/>
      <path id="_패스_489" data-name="패스 489" d="M19.32,90.06h-6.24c-1.14,0-2.06-.92-2.06-2.06s.92-2.06,2.06-2.06h6.24c1.14,0,2.06,.92,2.06,2.06s-.92,2.06-2.06,2.06Z" fill="#fff"/>
      <path id="_패스_490" data-name="패스 490" d="M23.21,127.64c-1.14,0-2.06-.92-2.06-2.06,0-.74,.39-1.42,1.03-1.78l5.41-3.12c.98-.57,2.24-.23,2.81,.75s.23,2.24-.75,2.81l-5.41,3.12c-.31,.18-.67,.28-1.03,.28Z" fill="#fff"/>
      <path id="_패스_491" data-name="패스 491" d="M50.74,155.12c-1.14,0-2.06-.92-2.06-2.06,0-.36,.1-.71,.28-1.03l3.12-5.41c.58-.98,1.85-1.29,2.82-.71,.95,.57,1.28,1.8,.74,2.77l-3.12,5.41c-.37,.64-1.05,1.03-1.78,1.03Z" fill="#fff"/>
      <path id="_패스_492" data-name="패스 492" d="M88.36,165.16c-1.14,0-2.06-.92-2.06-2.06h0v-6.24c0-1.14,.92-2.06,2.06-2.06s2.06,.92,2.06,2.06v6.24c0,1.14-.92,2.06-2.06,2.06Z" fill="#fff"/>
      <path id="_패스_493" data-name="패스 493" d="M125.94,155.04c-.74,0-1.42-.39-1.78-1.03l-3.12-5.41c-.57-.98-.23-2.24,.75-2.81,.98-.57,2.24-.23,2.81,.75h0l3.12,5.41c.57,.98,.23,2.24-.75,2.81-.31,.18-.67,.27-1.03,.28Z" fill="#fff"/>
      <path id="_패스_494" data-name="패스 494" d="M153.42,127.5c-.36,0-.71-.09-1.03-.28l-5.41-3.12c-.98-.57-1.32-1.83-.75-2.81,.57-.98,1.83-1.32,2.81-.75h0l5.41,3.12c.98,.57,1.32,1.83,.75,2.81-.37,.64-1.05,1.03-1.79,1.03Z" fill="#fff"/>
      <path id="_패스_495" data-name="패스 495" d="M163.46,89.89h-6.24c-1.14-.02-2.04-.97-2.01-2.1,.02-1.1,.91-1.99,2.01-2.01h6.24c1.14,.02,2.04,.97,2.01,2.1-.02,1.1-.91,1.99-2.01,2.01Z" fill="#fff"/>
      <path id="_패스_496" data-name="패스 496" d="M147.93,55.42c-1.14,0-2.06-.92-2.06-2.06,0-.74,.39-1.42,1.03-1.78l5.41-3.12c.98-.57,2.24-.23,2.81,.75,.57,.98,.23,2.24-.75,2.81h0l-5.41,3.12c-.31,.18-.67,.28-1.03,.28Z" fill="#fff"/>
      <path id="_패스_497" data-name="패스 497" d="M122.67,30.23c-1.14,0-2.06-.93-2.05-2.06,0-.36,.1-.71,.28-1.02l3.12-5.41c.55-1,1.8-1.36,2.79-.82s1.36,1.8,.82,2.79c-.01,.03-.03,.05-.05,.08l-3.12,5.41c-.37,.64-1.05,1.03-1.78,1.03Z" fill="#fff"/>
    </g>
  </g>
</svg>