<?xml version="1.0" encoding="UTF-8"?>
<svg id="Layer_2" data-name="Layer 2" xmlns="http://www.w3.org/2000/svg" viewBox="0 0 298 216">
  <g id="Logo">
    <g id="symbol_05_02_0003_02" data-name="symbol 05 02 0003 02">
      <path id="_패스_1133" data-name="패스 1133" d="m106.84,152.23c-.64-6.3-2.63-12.4-5.85-17.85-12.35-21.04-39.42-28.08-60.46-15.73-21.04,12.35-28.08,39.42-15.73,60.46,12.35,21.04,39.42,28.08,60.46,15.73,8.3-4.87,14.78-12.32,18.46-21.22,2.21-5.36,3.34-11.09,3.35-16.88,0-1.5-.08-3-.23-4.5" fill="#fff"/>
      <path id="_패스_1134" data-name="패스 1134" d="m234.13,9c-20.61,0-38.48,14.25-43.07,34.35-.09.4-.18.8-.26,1.2-4.77,23.93,10.76,47.2,34.69,51.97,23.93,4.77,47.2-10.76,51.97-34.69,4.77-23.93-10.76-47.2-34.69-51.97-2.84-.57-5.74-.85-8.64-.85" fill="#fff"/>
      <rect id="_사각형_298" data-name="사각형 298" width="298" height="216" fill="none"/>
    </g>
  </g>
</svg>