<?xml version="1.0" encoding="UTF-8"?>
<svg id="_레이어_2" data-name="레이어 2" xmlns="http://www.w3.org/2000/svg" viewBox="0 0 225 225">
  <g id="Logo">
    <g id="symbol_08_01_0004_01" data-name="symbol 08 01 0004 01">
      <path id="_패스_1428" data-name="패스 1428" d="m166.74,60.8c-5.57-2.02-11.37-3.01-17.14-4.09-7.7-1.47-15.46-2.54-23.27-3.19-5.93-.47-11.24,1.94-16.23,4.88-7.67,4.52-14.71,9.97-21.95,15.12-1.15.82-1.47,2.48-3.33,2.83,6.87,3.86,9.1,10.62,11.56,17.21,1.05,2.83,1.79,5.79,3.6,8.31-.48-3.09-1.33-6.12-2.53-9.01-2.11-5.52-4.35-10.97-7.98-15.72-.67-.88-.45-1.44.35-1.99,7.5-5.19,14.75-10.78,22.96-14.87,3.1-1.54,3.82-1.09,4.53,2.39,2.87,14.59,4.35,29.41,4.43,44.28.08,6.22.26,12.43.36,18.65.01.84.29,1.76-.45,2.68-.73-.74-1.13-1.76-1.11-2.8-1.09-7.19-1.36-14.46-1.93-21.7-.9-11.34-1.05-22.76-3.44-33.94-1.07-5.03-1.66-5.28-6.29-3.11-4.89,2.32-9.6,5.02-14.07,8.08-1.03.7-1.8,1.28-.69,2.64,4.23,5.19,6.34,11.38,8.23,17.68,1.97,6.57,3.76,13.21,7.38,19.16,1.94,3.16,4.39,5.98,7.25,8.34-.9.92-1.73.5-2.44.33-7.76-1.86-11.05-6.55-11.05-6.55-3.97-3.43-8.5-6.17-13.39-8.1-3.89-1.44-8.03-2.09-12.18-1.92,0,0,8.69-3.07,13.82-4.42.85-.13,1.59-.62,2.05-1.35.21-.77.07-1.6-.39-2.25-1.5-2.94-2.53-6.12-4.16-9.01-3.15-5.58-6.61-7.1-12.9-5.59-5.23,1.25-9.98,3.69-14.84,5.88-.76.34-1.43,1.07-2.8.73l13.61-10.06c11.3-8.36,22.88-16.34,34.36-24.45,7.34-5.43,16.58-7.65,25.59-6.14,15.49,2.28,30.67,5.56,45.16,11.62,2.72,1.04,5.26,2.51,7.52,4.34.48.43,1.06.73,1.68.9,8.01,1.9,11.64,7.63,13.1,15.13.95,4.87.35,9.83.46,14.75.03,1.44-.71,2.01-2.11,1.99-2.34-.04-4.69-.04-7.03,0-1.42.02-2.08-.6-2.07-2.02,0-3.72.01-7.43-.03-11.15-.02-1.63.85-2.02,2.29-2.07,3.16-.11,3.49-.55,2.74-3.6-.81-3.27-2.12-6.23-5.76-8.25.76,2.99,1.44,5.5,2.03,8.04.22.92,1.12,2.24-.37,2.69s-1.76-1.07-2.16-2.08c-.86-2.18-1.6-4.4-2.48-6.57-.92-2.28-2.78-4.05-5.1-4.86-10.3-4.03-21.12-5.97-31.93-7.95-6.25-1.31-12.61-2.01-19-2.1-1.51.01-3.03.05-4.16,1.19.19.7.66.64,1.02.74,9.72,2.82,14.48,8.73,14.87,18.71.16,4.12,0,8.24.07,12.36.03,1.72-.58,2.53-2.39,2.47-2.83-.08-5.66-.06-8.48,0-1.65.03-2.32-.66-2.31-2.31.04-4.12.06-8.24-.03-12.36-.04-1.89.67-2.54,2.56-2.54,4.12.01,4.49-.54,3.11-4.44-1.05-3.28-3.45-5.97-6.58-7.4-2.4-1.09-2.84-.82-2.83,1.73.04,8.41.92,16.77,1.72,25.12.61,6.35,1.48,12.67,2.18,19.01.39,3.57.67,3.96,4.24,4.85,4.74,1.03,9.55,1.67,14.39,1.9,11.11.95,22.26,1.26,33.41.95,5.14-.18,10.36-.1,15.3-1.94.58-.33,1.32-.13,1.66.45.09.16.14.33.16.51.34,1.08.56,2.19.66,3.32.36,8.48.16,16.97-.6,25.42-.48,5.23-4.02,8.62-9.64,9.29-6.81.81-13.65,1.4-20.49,1.91-9.11.64-18.24.81-27.37.52-4.53-.07-9.02-.87-13.31-2.35-2.06-.64-3.87-1.91-5.16-3.64,2.8-.29,5.19.42,7.57.7,13.25,1.48,26.6,1.78,39.9.92,5.8-.33,11.58-1.02,17.3-2.07,5.78-1.08,7.69-3.32,7.75-9.23.02-2.09,0-4.17,0-6.49-2.29.72-4.03,2.53-6.79,2.75.99-1.39,2.28-1.7,3.29-2.37,1.03-.49,1.92-1.21,2.61-2.11.59-1.03.93-2.39.32-3.24-.74-1.03-1.62.36-2.46.58-.7.18-1.32.65-2.01.83-1.76.24-3.05,1.78-2.99,3.56-.07,2.81-1.5,4.04-4.3,4.77-9.68,2.53-19.39,1.66-29.13.82-1.08-.06-2.02-.77-2.37-1.79-.44-1.04-1.05-2.01-1.49-3.05-.65-1.59-2.12-2.69-3.82-2.87-4.36-.84-8.67-1.95-13.01-2.89-1.06-.23-2.57-1.18-2.95.71-.3,1.52-.5,3.3,1.79,3.84,5.65,1.31,11.11,3.5,17,3.72.55-.04,1.05.31,1.21.83-2.67.4-5.16-.25-7.61-.48-3.85-.5-7.65-1.28-11.38-2.33-2.13-.52-3.52-1.39-3.33-3.89-.05-1.27-.23-2.52-.53-3.75-.41,2.17.19,3.96-.55,5.91-1.61-1.65-1.27-3.54-1.31-5.28-.11-4.66-.54-4.63,3.85-2.79,7.26,3.02,15,3.86,22.69,4.75,6.89.93,13.84,1.27,20.79,1.02,7.11-.4,14.15-1.28,20.61-4.71,1.92-.83,2.94-2.94,2.38-4.96-.21-1.26-.69-1.52-1.94-1.36-20.29,2.66-40.87,2.19-61.02-1.37-6.15-1.06-6.57-1.51-7.47-7.56-1.44-9.67-2.07-19.42-2.73-29.16-.52-7.73-.85-15.48-1.32-23.21-.22-3.62,1.58-5.56,5.59-5.68,10.92-.31,16.41,1.28,16.41,1.28,8.13,2.4,16.51,3.9,24.97,4.47" fill="#fff"/>
      <path id="_패스_1429" data-name="패스 1429" d="m114.67,4c-59.37,0-107.51,48.13-107.51,107.51,0,59.37,48.13,107.51,107.51,107.51s107.51-48.13,107.51-107.51h0c-.07-59.35-48.16-107.44-107.51-107.51M13.95,94.86c1.1,3.87,1.91,7.82,2.41,11.81.95,8.98.49,18.06-1.36,26.9-2.84-12.72-3.19-25.86-1.05-38.72m54.49,107.63c-7.31-3.73-14.15-8.33-20.36-13.69.18-.83.33-1.51.43-1.96l17.59.47,2.39.21c0-1.94-.03,10.51-.04,14.97m-15.79-25.23h-3.35s.11-4,.12-4.36c.14-4.89.45-8.77.48-12.13.03-3.97,0-7.9.05-11.87l11.53-1.6s2.28,7.79,3.02,10.45c1.76,6.51,2.97,13.15,3.62,19.86-9.67-.27-13.73-.35-15.47-.35m1.3-35.04c-1.44.2-2.83.43-4.17.68-.35-3.03-.88-6.04-1.58-9.01-.77-3.27-1.75-6.49-2.94-9.63l5.08-.53c1.63,2.64,3.26,5.42,4.89,8.32,1.82,3.25,3.49,6.42,5.03,9.5-2,.15-4.11.37-6.31.68m-10.85-23.25c-1.97-3.3-3.94-6.61-5.91-9.92l3.35.59,7.52,8.7-4.96.63m94.87,91.93c-2.01-12.13-5.56-23.94-10.56-35.17-6.27-13.67-23.49-55.82-65.9-76.85-14.42-7.15-34.07-13.09-44.8-16.07C32.54,28.7,89.25-2.32,143.36,13.52c54.11,15.84,85.13,72.55,69.29,126.66-10.34,35.3-38.87,62.32-74.68,70.71" fill="#fff"/>
      <rect id="_사각형_501" data-name="사각형 501" width="225" height="225" fill="none"/>
    </g>
  </g>
</svg>