<?xml version="1.0" encoding="UTF-8"?>
<svg id="Layer_2" data-name="Layer 2" xmlns="http://www.w3.org/2000/svg" viewBox="0 0 76 76">
  <g id="Logo">
    <g id="symbol_16_06_0003_01" data-name="symbol 16 06 0003 01">
      <path id="_패스_1380" data-name="패스 1380" d="m57.14,53.03h0c-.17,0-.34,0-.52-.01l-14-.72c-5.54-.29-9.8-5.01-9.51-10.55.06-1.2.34-2.38.81-3.48l5.57-12.86c.81-1.88,2.18-3.47,3.92-4.54l22.33-13.86c-3.51-3.54-8.97-4.28-13.3-1.81L7,30.98v.18l32.62,31.97c1.91,1.87,3.12,5.3,3.23,9.06l20.52-11.64c3.47-1.97,5.61-5.64,5.61-9.62v-3.46l-6.54,4.06c-1.59.99-3.43,1.51-5.3,1.51" fill="#fff"/>
      <rect id="_사각형_678" data-name="사각형 678" width="76" height="76" fill="none"/>
    </g>
  </g>
</svg>