<?xml version="1.0" encoding="UTF-8"?>
<svg id="Layer_2" data-name="Layer 2" xmlns="http://www.w3.org/2000/svg" viewBox="0 0 128 128">
  <g id="Logo">
    <g id="symbol_10_04_0002_01" data-name="symbol 10 04 0002 01">
      <path id="_합치기_23" data-name="합치기 23" d="m31.8,111.14c13.68-6.95,29.76-18.1,45.45-31.56,1.33-1.14,2.65-2.29,3.94-3.44,3.23,3.42,7.72,5.37,12.43,5.36,9.45,0,17.12-7.66,17.12-17.12h0c0-4.7-1.93-9.18-5.34-12.4,3.81-4.36,7.23-8.62,10.15-12.69,3.73,7.72,5.66,16.19,5.65,24.76,0,31.54-25.56,57.1-57.1,57.1-11.53.02-22.8-3.48-32.3-10.02Zm-18.77-21.55c-.61-1.23-1.19-2.48-1.72-3.76-2.85-6.9-4.31-14.3-4.31-21.77,0-22.28,12.95-42.52,33.18-51.85-1.38,2.52-2.1,5.36-2.1,8.24,0,3.67,1.17,7.24,3.35,10.18l-8.36,7.93c-2.15-1.6-4.76-2.47-7.44-2.46-6.87,0-12.45,5.57-12.45,12.45h0c0,6.88,5.57,12.45,12.45,12.45h0c2.53,0,5.01-.77,7.09-2.21l1.31,1.33,2.52,2.57,6.54,6.65c-1.02,1.7-1.56,3.64-1.56,5.62,0,6.06,4.92,10.98,10.99,10.99,6.06,0,10.98-4.92,10.98-10.99,0-6.06-4.92-10.98-10.98-10.98-2.38,0-4.69.77-6.59,2.2l-6.33-6.43-2.52-2.57-1.34-1.36c1.52-2.11,2.34-4.65,2.34-7.25,0-2.46-.72-4.86-2.09-6.91l8.36-7.93c3.07,2.53,6.92,3.91,10.89,3.9,2,0,3.99-.35,5.87-1.03,3.14-1.15,5.89-3.19,7.89-5.87,2.21-2.96,3.41-6.56,3.4-10.26,0-5.24-2.39-10.19-6.5-13.44,9.82.3,19.4,3.14,27.8,8.25,1.2.73,2.36,1.49,3.5,2.29,6.73,4.8,12.35,11,16.46,18.18-.16.23-.31.45-.47.68-3.32,4.64-6.87,9.11-10.65,13.39-2.68-1.65-5.77-2.53-8.92-2.53-9.46,0-17.12,7.67-17.12,17.12,0,3.14.87,6.21,2.51,8.88-1.35,1.2-2.71,2.39-4.09,3.58-15.9,13.63-32.17,24.86-45.82,31.64-.18.09-.35.17-.53.25-6.51-5.18-11.81-11.71-15.54-19.15h0Zm28.93-14.64c0-1.87.5-3.7,1.44-5.31l1.29,1.31c-.64,1.24-.97,2.61-.97,4,0,4.86,3.94,8.8,8.8,8.8s8.8-3.94,8.8-8.8c0-4.86-3.94-8.8-8.8-8.8-1.8,0-3.56.55-5.04,1.59l-1.25-1.27c1.82-1.35,4.02-2.09,6.29-2.08,5.83,0,10.56,4.73,10.56,10.56,0,5.83-4.73,10.55-10.56,10.56-5.83,0-10.55-4.73-10.56-10.56h0Zm6.93-45.55c-1.16-.83-2.16-1.87-2.92-3.08-1.12-1.75-1.71-3.79-1.71-5.88,0-6.06,4.92-10.98,10.98-10.99,6.06,0,10.98,4.92,10.99,10.99,0,6.06-4.92,10.98-10.99,10.98-2.28,0-4.5-.71-6.35-2.03h0Zm-2.45-8.96c0,1.52.4,3.02,1.15,4.34.71,1.25,1.71,2.3,2.92,3.08,1.41.91,3.05,1.39,4.73,1.39,4.86,0,8.8-3.94,8.8-8.8,0-4.86-3.94-8.8-8.8-8.8-4.86,0-8.8,3.94-8.8,8.8h0Zm3.81-.19c0-2.76,2.24-5,5-5s5,2.24,5,5-2.24,5-5,5c-2.76,0-5-2.24-5-5h0Z" fill="#fff"/>
      <rect id="_사각형_247" data-name="사각형 247" width="128" height="128" fill="none"/>
    </g>
  </g>
</svg>