<?xml version="1.0" encoding="UTF-8"?>
<svg id="Layer_2" data-name="Layer 2" xmlns="http://www.w3.org/2000/svg" viewBox="0 0 254 101">
  <g id="Logo">
    <g id="symbol_10_05_0001_01" data-name="symbol 10 05 0001 01">
      <rect id="_사각형_131-2" data-name="사각형 131-2" width="254" height="101" fill="none"/>
      <path id="_패스_787" data-name="패스 787" d="m237.54,29.4c1.5.66,7.66,3.54,8.7,9.04.73,3.87-1.5,7.64-5.84,12.52-10.35,11.64-25.32,18.06-40.27,22.42-21.4,6.26-43.69,9.03-65.96,10.23-19.21,1.17-38.49.76-57.64-1.23-3.58-.4-7.37-.96-10.11-3.29-3.31-2.82-4.25-7.48-6.46-11.23-5.06-8.62-16.15-11.5-24.76-6.44-1.84,1.08-3.48,2.48-4.84,4.14,3.92.56,7.92,1.22,11.4,3.12,3.47,1.9,6.38,5.3,6.64,9.25.39,6.03-5.59,10.96-11.6,11.61s-11.88-1.81-17.39-4.31c1.95,8.1,9.36,13.68,17.69,13.31,5.04-.37,9.61-2.96,14.45-4.4,8.97-2.68,18.57-1.39,27.88-.45,36.24,3.75,72.85,1.27,108.25-7.34,21.29-5.27,42.89-13.47,57.58-29.76,3.4-3.78,6.48-8.18,7.13-13.22.43-3.63-.67-7.27-3.04-10.05-4.38-4.86-11.13-4.03-11.81-3.93Z" fill="#fff"/>
      <path id="_패스_782" data-name="패스 782" d="m45.16,10.86c-8.64,2.35-16.91,5.87-24.6,10.45C10.29,27.52,3.06,35.05,2.48,44.94c-.52,8.88,4.27,15.23,10.63,20.72-.42-1.03-1-1.98-1.71-2.84-8.79-11.73-4.61-25.3,11.24-35.51,4.12-2.62,8.46-4.88,12.97-6.75,0,0,3.6-1.48,9.54-3.42v-6.29Z" fill="#fff"/>
    </g>
  </g>
</svg>