<?xml version="1.0" encoding="UTF-8"?>
<svg id="Layer_2" data-name="Layer 2" xmlns="http://www.w3.org/2000/svg" viewBox="0 0 75 110">
  <g id="Logo">
    <g id="symbol_11_01_0003_01" data-name="symbol 11 01 0003 01">
      <rect id="_사각형_264" data-name="사각형 264" width="75" height="110" fill="none"/>
      <path id="_패스_729" data-name="패스 729" d="m2.33,14.96l.08,78.91c19.96,18.56,50.9,18.41,70.67-.34-.04-26.08-.09-52.16-.13-78.25C53.05-3.1,22.41-3.23,2.33,14.96h0Zm26.87,25.53c-1.12-.04-1.98-1.37-1.92-2.98s1.01-2.89,2.12-2.85,1.98,1.37,1.92,2.98-1.01,2.89-2.12,2.85Zm17.1-5.06c1.12.04,1.98,1.37,1.92,2.98s-1.01,2.89-2.12,2.85-1.98-1.37-1.92-2.98,1-2.89,2.12-2.85h0Zm-3.71,8.94c.7.9.53,2.2-.37,2.89-.04.03-.07.05-.11.08-2.73,2.25-6.69,2.17-9.32-.19-.92-.68-1.11-1.97-.43-2.88.03-.04.06-.07.09-.11.85-.95,2.01-.95,3.15-.02,1,1.08,2.69,1.14,3.77.14.03-.03.06-.06.09-.08,1.18-.89,2.32-.83,3.14.17h0Z" fill="#fff"/>
    </g>
  </g>
</svg>