<?xml version="1.0" encoding="UTF-8"?>
<svg id="Layer_2" data-name="Layer 2" xmlns="http://www.w3.org/2000/svg" viewBox="0 0 207 160">
  <g id="Logo">
    <g id="symbol_03_05_0001_01" data-name="symbol 03 05 0001 01">
      <path id="_패스_552" data-name="패스 552" d="m154.66,58.5l-11.78-17.65-32.15,55.69,34.02-9.45-7.71-14.22-1.51-2.79,2.71-1.64,16.42-9.95Z" fill="#fff"/>
      <path id="_패스_553" data-name="패스 553" d="m179.31,40.85h-32.79l12.84,18.69-19.39,11.74,9.7,17.89-45.89,12.75-45.89-12.75,9.7-17.89-19.4-11.74,12.29-18.69H28.24c-8.97,0-16.24,7.27-16.24,16.24h0v75.66c0,8.97,7.27,16.24,16.24,16.24h151.06c8.97,0,16.24-7.27,16.24-16.24V57.1c0-8.97-7.27-16.24-16.24-16.24h0Z" fill="#fff"/>
      <path id="_패스_554" data-name="패스 554" d="m69.31,68.45l2.71,1.64-1.51,2.79-7.71,14.22,34.02,9.45-32.15-55.7-11.78,17.65,16.42,9.95Z" fill="#fff"/>
      <path id="_패스_555" data-name="패스 555" d="m105.57,54.34l7.79-13.49h-19.16l7.79,13.49-12.67,22.53,14.47,25.06,14.47-25.06-12.67-22.53Z" fill="#fff"/>
      <path id="_패스_556" data-name="패스 556" d="m78.38,34.4v-15.24c0-2.76,2.24-5,5-5h40.29c2.76,0,5,2.24,5,5v19.12h3.88v-19.12c0-4.9-3.97-8.88-8.88-8.88h-40.3c-4.9,0-8.88,3.97-8.88,8.88h0v19.12h3.88v-3.88Z" fill="#fff"/>
      <path id="_패스_557" data-name="패스 557" d="m76.86,47.34c1.79,0,3.24-1.45,3.24-3.25s-1.45-3.24-3.25-3.24c-1.79,0-3.24,1.45-3.24,3.25h0c0,1.79,1.45,3.25,3.25,3.25h0" fill="#fff"/>
      <path id="_패스_558" data-name="패스 558" d="m127.45,44.1c0,1.79,1.45,3.24,3.24,3.24,1.79,0,3.24-1.45,3.24-3.24,0-1.79-1.45-3.24-3.24-3.24-1.79,0-3.24,1.45-3.24,3.24h0" fill="#fff"/>
      <rect id="_사각형_2" data-name="사각형 2" width="207" height="160" fill="none"/>
    </g>
  </g>
</svg>