<?xml version="1.0" encoding="UTF-8"?>
<svg id="_레이어_2" data-name="레이어 2" xmlns="http://www.w3.org/2000/svg" viewBox="0 0 64 77">
  <g id="Logo">
    <g id="symbol_04_01_0006_01" data-name="symbol 04 01 0006 01">
      <rect id="_사각형_390" data-name="사각형 390" width="64" height="77" fill="none"/>
      <path id="_패스_1275" data-name="패스 1275" d="m56.87,26.96c-6.96,0-13.93,0-21.13,0,.3-.49.49-.82.7-1.14,4.55-6.84,9.09-13.67,13.64-20.51.45-.67.88-1.32.43-2.17s-1.22-.86-2.03-.86c-7.93,0-15.86.02-23.79-.02-1.05-.1-2.04.49-2.47,1.45-1.7,3.19-3.44,6.36-5.18,9.53-.32.59-.64,1.17-.96,1.76-.03.05-.06.11-.09.16l-.68,1.24c-.11.2-.22.39-.32.59l-2.84,5.25c-.08.11-.16.23-.22.35l-.57,1.04v.02h-.01c-2.89,5.28-5.78,10.56-8.65,15.85-.77,1.42-.07,2.55,1.55,2.63.25.01.5,0,.75,0,5.97-.01,11.93-.03,17.9-.04.4,0,.81.03,1.32.06-.18.48-.3.81-.43,1.14-3.92,9.45-7.85,18.91-11.78,28.36-.69,1.67-.66,2.29.18,2.88.81.56,1.53.34,2.75-.87,14.47-14.38,28.94-28.76,43.41-43.14.72-.72,1.68-1.37,1.13-2.62-.53-1.2-1.64-.94-2.61-.94" fill="#fff"/>
    </g>
  </g>
</svg>