<?xml version="1.0" encoding="UTF-8"?>
<svg id="_레이어_2" data-name="레이어 2" xmlns="http://www.w3.org/2000/svg" viewBox="0 0 109 20">
  <g id="Logo">
    <g id="symbol_18_02_0001_01" data-name="symbol 18 02 0001 01">
      <rect id="_사각형_151" data-name="사각형 151" width="109" height="20" fill="none"/>
      <path id="_패스_434" data-name="패스 434" d="M90.08,8.44c-.11-2.92,1.52-5.63,4.14-6.92,2.57-1.49,5.81-1.13,7.99,.89,2.34,1.7,3.36,4.67,2.56,7.45-.6,2.09-.15,3.33,1.51,4.41,.58,.46,1.12,.96,1.62,1.51,.7,.44,.91,1.36,.47,2.06-.06,.09-.12,.18-.2,.25-.66,.77-1.42,.6-2.11,0-.84-.67-1.63-1.39-2.39-2.16-.73-.99-2.1-1.22-3.12-.53-5.04,2.35-10.45-1.31-10.48-6.96Zm7.5-4.64c-2.53-.04-4.61,1.97-4.65,4.5,0,.08,0,.16,0,.24,.16,2.44,2.07,4.4,4.5,4.62,2.52-.11,4.53-2.15,4.6-4.68,.12-2.46-1.77-4.56-4.24-4.68-.07,0-.14,0-.21,0h0Z" fill="#fff"/>
      <path id="_패스_435" data-name="패스 435" d="M1.15,9.6c0-2.26-.02-4.51,.01-6.77,0-.54-.23-1.39,.65-1.37,.65,.01,.61,.73,.61,1.25v13.76c0,.54-.02,1.25-.61,1.27-.88,.02-.63-.84-.63-1.37-.03-2.25-.01-4.51-.01-6.76h-.01Z" fill="#fff"/>
    </g>
  </g>
</svg>