<?xml version="1.0" encoding="UTF-8"?>
<svg id="Layer_2" data-name="Layer 2" xmlns="http://www.w3.org/2000/svg" viewBox="0 0 86 86">
  <g id="Logo">
    <g id="symbol_17_03_0002_02" data-name="symbol 17 03 0002 02">
      <path id="_패스_641" data-name="패스 641" d="m69.3,30.61h-14.19v-14.19c0-6.64-5.37-12.02-12.01-12.02-6.64,0-12.02,5.37-12.02,12.01h0v14.2h-14.19c-6.64,0-12.02,5.38-12.02,12.02,0,6.64,5.38,12.02,12.02,12.02h14.19v14.19c0,6.64,5.37,12.02,12.01,12.02,6.64,0,12.02-5.37,12.02-12.01h0v-14.2h14.19c6.64,0,12.02-5.38,12.02-12.02,0-6.64-5.38-12.02-12.02-12.02" fill="#fff"/>
      <rect id="_사각형_223" data-name="사각형 223" width="86" height="86" fill="none"/>
    </g>
  </g>
</svg>