<?xml version="1.0" encoding="UTF-8"?>
<svg id="_레이어_2" data-name="레이어 2" xmlns="http://www.w3.org/2000/svg" viewBox="0 0 202 202">
  <g id="Logo">
    <g id="symbol_02_02_0003_02" data-name="symbol 02 02 0003 02">
      <rect id="_사각형_259" data-name="사각형 259" width="202" height="202" fill="none"/>
      <path id="_패스_1064" data-name="패스 1064" d="M98.73,2.53c32.22,.73,57.91,12.23,77.95,35.76,3.4,4,3.44,5.98,.49,9.97-16.99,23.06-33.99,46.12-50.98,69.17-4.29,5.82-6.64,6.05-11.54,.85-9.25-9.82-18.4-19.74-27.65-29.56-1.56-1.61-2.45-3.74-2.51-5.98-.88-17.92-1.78-35.83-2.7-53.74-.32-6.1-.81-12.2-1.24-18.29-.26-3.71,1.54-6.25,5.2-6.75,4.81-.66,9.65-1.07,12.99-1.42Z" fill="#fff"/>
      <path id="_패스_1065" data-name="패스 1065" d="M199.55,100.88c-.1,7.99-1.03,15.95-2.78,23.75-.82,3.99-2.97,6.12-7.31,5.56-21.02-2.74-38.97,5.08-55.79,16.51-2.35,1.6-4.61,2.78-7.3,1.49-2.86-1.38-2.34-4.24-2.87-6.83-2.1-10.32,4.49-16.95,9.77-24.13,14.81-20.16,29.66-40.28,44.55-60.38,4.49-6.08,8.09-5.67,11.52,1.21,6.55,13.33,10.04,27.97,10.2,42.82Z" fill="#fff"/>
      <path id="_패스_1066" data-name="패스 1066" d="M116.88,165.18c0,9.72,.02,19.44-.01,29.15-.01,3.35-1.89,5.02-5.14,5.38-18.74,2.09-37.69-1.16-54.66-9.38-3.93-1.85-5.17-4.52-4.42-8.68,1.68-9.27,3.26-18.57,4.67-27.89,.53-3.52,2.24-5.4,5.63-6.27,15.59-3.98,31.15-8.09,46.73-12.09,5.7-1.46,7.97,.42,7.99,6.43,.02,7.78,0,15.56,0,23.35h-.79Z" fill="#fff"/>
      <path id="_패스_1067" data-name="패스 1067" d="M123.05,178.33c0-4.03-.01-8.07,0-12.1,.01-2.6,.65-4.89,2.81-6.65,12.84-10.44,26.55-19.24,43.01-22.88,5.3-1.17,10.74-1.59,16.16-1.24,4.98,.31,7.08,3.86,4.9,8.38-12.36,25.62-32.13,42.82-59.07,51.8-4.93,1.65-7.89-.48-7.97-5.63-.06-3.89-.01-7.79-.01-11.68h.18Z" fill="#fff"/>
      <path id="_패스_1068" data-name="패스 1068" d="M77.9,68.24c.42,2.91-.3,5.14-2.8,6.59-2.67,1.55-4.76,.29-6.82-1.31-13.06-10.11-26.11-20.22-39.17-30.33-3.41-2.65-3.73-5.76-.92-8.9,10.69-11.95,23.86-20.21,38.79-25.76,4.39-1.63,7.58,.52,7.84,5.06,1.07,18.28,2.07,36.57,3.08,54.66Z" fill="#fff"/>
      <path id="_패스_1069" data-name="패스 1069" d="M39.66,108.1c.03,2.54-1.74,4.74-4.22,5.26-8.59,2.24-15.96,6.35-21.35,13.61-1.36,1.83-3.17,2.81-5.44,2.13-2.07-.5-3.65-2.18-4.04-4.27C-.89,101.17,1.81,78.49,12.45,56.71c1.1-2.24,2.82-4.01,5.48-3.81,2.56,.19,4.25,1.86,5.07,4.33,5.39,16.21,10.77,32.42,16.16,48.63,.21,.74,.38,1.48,.5,2.24Z" fill="#fff"/>
      <path id="_패스_1070" data-name="패스 1070" d="M52.44,148.81c-1.5,9-2.92,18.32-4.67,27.58-.39,2.64-2.85,4.46-5.48,4.06-.85-.13-1.66-.48-2.33-1.02-11.06-8.25-20.07-18.94-26.34-31.23-.42-1.02-.57-2.14-.43-3.23,1.05-12.9,11.45-24.07,24.27-26.2,3.05-.51,5.79,0,6.9,3.13,2.77,7.85,5.3,15.78,7.86,23.69,.19,1.06,.27,2.14,.22,3.21Z" fill="#fff"/>
      <path id="_패스_1071" data-name="패스 1071" d="M73.38,87.35c.15,1.8-.74,3.54-2.29,4.47-6.26,4.59-12.45,9.28-18.82,13.72-3.41,2.38-6.63,1.47-8.01-2.46-4.58-13.08-8.89-26.26-13.27-39.41-.76-2.27,.13-4.09,1.95-5.48,1.97-1.51,4.06-1.8,6.12-.21,10.86,8.39,21.71,16.8,32.54,25.22,1.26,.99,1.93,2.56,1.77,4.15Z" fill="#fff"/>
    </g>
  </g>
</svg>