<?xml version="1.0" encoding="UTF-8"?>
<svg id="Layer_2" data-name="Layer 2" xmlns="http://www.w3.org/2000/svg" viewBox="0 0 280 280">
  <g id="Logo">
    <g id="symbol_06_01_0007_01" data-name="symbol 06 01 0007 01">
      <path id="_패스_1396" data-name="패스 1396" d="m259.52,246.07c-.79-5.71-5.61-10-11.38-10.12-4-.12-8.01-.02-12.38-.02v-3.88c0-34.05-.04-68.11.04-102.16.01-5.78-2.07-9.98-6.94-13.18-16.89-11.12-33.67-22.42-50.49-33.65-.74-.49-1.53-.92-2.72-1.63v154.24h-11.82v-3.86c0-65.95-.12-131.9.11-197.85.04-12.17-10.39-16.85-19.41-12.19-30.25,15.61-60.74,30.75-91.28,45.79-6.79,3.34-9.5,8.06-9.48,15.52.03,8.58.05,17.15.06,25.73h58.7v16.51h-58.67c0,5.84,0,11.67,0,17.51h58.66v16.51h-58.66c0,5.84,0,11.67,0,17.51h58.66v16.51h-58.66c0,12.87,0,25.74,0,38.61v3.94c-2.03,0-3.79-.04-5.54,0-3.17.09-6.44-.21-9.5.45-5.92,1.27-9.47,7.02-8.72,13.26.73,6.05,5.82,10.19,12.76,10.19,71.27.01,142.53.01,213.8-.01,1.49.04,2.99-.13,4.43-.5,5.79-1.66,9.18-7.09,8.42-13.24m-37.09-42.22h-13.01v-13h13.01v13Zm0-26.35h-13.01v-13h13.01v13Zm0-26.35h-13.01v-13h13.01v13Z" fill="#fff"/>
      <rect id="_사각형_441" data-name="사각형 441" width="280" height="280" fill="none"/>
    </g>
  </g>
</svg>