<?xml version="1.0" encoding="UTF-8"?>
<svg id="Layer_2" data-name="Layer 2" xmlns="http://www.w3.org/2000/svg" viewBox="0 0 252 252">
  <g id="Logo">
    <g id="symbol_02_04_0004_01" data-name="symbol 02 04 0004 01">
      <path id="_패스_1371" data-name="패스 1371" d="m239.57,57.13c-3.85-13.3-15.97-22.49-29.82-22.61-4.34-.04-8.67-.03-13.01,0-2.88.01-5.21,2.34-5.23,5.23-.02,6.43,0,12.87,0,19.3v2.27h-61.89l-10.46-26.23c-.79-1.97-2.22-3.62-4.06-4.67l-24.8-14.18c-2.8-1.6-6.23-1.65-9.08-.13l-25.91,13.82c-2.07,1.11-3.66,2.95-4.44,5.17l-9.26,26.34h-24.27c-4.89,0-6.21,1.34-6.21,6.29v163.28c0,4.94,1.33,6.28,6.21,6.29h86.81c.67.03,1.35.01,2.02-.04,2.46-.2,4.28-2.36,4.08-4.82-.18-2.16-1.88-3.88-4.04-4.08-.75-.05-1.49-.07-2.24-.04H20.23v-20.64h2.53c12.04,0,24.08.07,36.12-.03,9.51,0,17.34-7.49,17.75-16.99.24-6.63,3.65-9.9,10.34-9.9,22.73,0,45.47,0,68.2-.01,10.41-.02,18.42-7.92,18.39-18.01-.03-9.99-8.02-17.79-18.31-17.86-5.16-.04-10.32.02-15.48-.02-4.95.18-9.1-3.69-9.27-8.64,0-.1,0-.19,0-.29-.47-10.69-7.99-17.94-18.66-17.98-3.94-.01-7.88,0-12.21,0,2.11-3.67,4.04-7.01,5.96-10.35,6.7-11.65,13.45-23.28,20.02-35,.6-1.49,2.12-2.41,3.72-2.24,19.82.08,39.63.05,59.45.05h2.56v20.63c-7.35,0-14.52-.02-21.7,0-10.46.04-18.48,7.82-18.5,17.89s8,17.93,18.42,17.98c6.51.03,13.01,0,19.52,0h2.44v51.02c0,3.86,1.61,5.48,5.42,5.5,4.49.02,8.98-.09,13.46.05,12.36.51,21.98,10.94,21.47,23.31-.5,12.09-10.51,21.61-22.61,21.49-20.71.07-41.43.02-62.14.02-3.31,0-5.34,1.68-5.39,4.39-.05,2.79,2.03,4.57,5.44,4.57,20.86,0,41.72.06,62.59-.02,13.85-.09,25.99-9.29,29.82-22.6.5-1.71.87-3.46,1.3-5.19V62.33c-.43-1.73-.8-3.48-1.3-5.19m-187.99,3.86l9.32-24.1c.68-2.04,2.89-3.15,4.93-2.47s3.15,2.89,2.47,4.93c-.04.12-.09.24-.14.35l-9.32,24.1c-.87,1.97-3.17,2.86-5.14,2-1.84-.81-2.76-2.9-2.13-4.81m-31.31,9.4h5.49c5.68,0,11.36-.04,17.04.05.82.01,1.59.38,2.12,1.01,8.3,14.34,16.55,28.72,24.75,43.11.58,1.02,1.16,2.04,1.86,3.27H20.27v-47.44Zm92.11,56.54c4.94-.1,9.03,3.82,9.13,8.76,0,.03,0,.05,0,.08.52,10.87,7.97,18.03,18.79,18.06,4.93.01,9.87-.02,14.8,0,5.47.03,9.46,3.82,9.48,8.94s-3.99,8.99-9.43,8.99c-22.72.02-45.45.02-68.18,0-11.51,0-18.75,6.91-19.31,18.43-.22,4.47-3.58,8.32-8.09,8.39-13.06.18-26.13.06-39.36.06v-71.74h2.05c17.49,0,34.98.02,52.48-.04,1.36,0,2.6.76,3.22,1.97,1.1,2.14,2.34,4.2,3.6,6.25,2.12,3.46,5.98,3.48,8.11.04,1.37-2.22,2.54-4.58,3.99-6.74.56-.78,1.41-1.29,2.36-1.41,5.45-.12,10.91-.1,16.37-.05m79.03-9.14c-.53.05-1.02.15-1.52.15-6.8.01-13.61.03-20.41,0-5.42-.03-9.42-3.92-9.38-9.05.04-5.03,4.01-8.86,9.31-8.88,7.25-.04,14.5,0,22,0v17.79Zm40.48,12.25v53.98c-8.98-9.2-19.82-10.27-31.27-9.4V43.08c5.15.45,10.4.25,15.28,1.49,9.74,2.48,15.97,11.41,15.99,21.81.04,21.22.04,42.44.01,63.66" fill="#fff"/>
      <rect id="_사각형_432" data-name="사각형 432" width="252" height="252" fill="none"/>
    </g>
  </g>
</svg>