<?xml version="1.0" encoding="UTF-8"?>
<svg id="_레이어_2" data-name="레이어 2" xmlns="http://www.w3.org/2000/svg" viewBox="0 0 164 121">
  <g id="Tag">
    <g id="symbol_3_12_0001_02" data-name="symbol 3 12 0001 02">
      <rect id="_사각형_84" data-name="사각형 84" y="0" width="164" height="121" fill="none"/>
      <path id="_패스_438" data-name="패스 438" d="M147.3,24.15c4.25-3.55,8.84-6.69,13.39-9.87,3.38-2.36,4.44-4.78,1.92-8.68-1.19-1.84-2.34-3.71-3.47-5.6H4.92C-1.34,10.55-1.45,11.41,9.34,18.1c8.72,5.41,12.25,12.03,10.34,21.75-.35,2.19-1.39,4.22-2.96,5.79-4.23,3.57-8.94,6.56-13.34,9.94-1.26,1.17-2.39,2.47-3.38,3.88,.46,1.6,1.04,3.17,1.74,4.68,5.01,8.63,10.18,17.17,15.13,25.84,2.01,3.52,4.43,3.87,7.92,2.29,5.19-2.34,10.5-4.41,15.83-6.4,1.24-.45,2.6-.41,3.81,.11,3.78,1.98,7.45,4.16,11,6.53,1.21,.84,2.09,2.09,2.46,3.52,1.14,5.58,1.99,11.23,2.92,16.86,.54,3.26,1.13,6.17,5.62,6.09,10.63-.18,21.26-.1,31.89-.03,2.63,.02,4.06-.76,4.44-3.66,.79-5.96,1.9-11.88,2.93-17.8,.59-3.41,13.12-12.74,16.37-12.17,1.08,.25,2.13,.62,3.13,1.1,4.96,2.09,9.95,4.11,14.84,6.35,3.31,1.51,5.35,1.09,7.2-2.45,3.74-7.15,7.96-14.05,12.04-21.02q6.22-10.63-3.58-17.57c-11.44-8.11-11.54-8.11-11.08-22.16,.18-2.08,1.13-4.02,2.68-5.42Zm-35.92,10.81c.04,15.8-13.54,29.33-29.51,29.42-15.38,.08-28.95-13.64-28.99-29.32-.04-16.34,13.07-30.01,29.4-29.73,17.34,.29,29.53,14.71,29.09,29.63h0Z" fill="#fff"/>
    </g>
  </g>
</svg>