<?xml version="1.0" encoding="UTF-8"?>
<svg id="Layer_2" data-name="Layer 2" xmlns="http://www.w3.org/2000/svg" viewBox="0 0 124 194">
  <g id="Logo">
    <g id="symbol_20_03_0006_01" data-name="symbol 20 03 0006 01">
      <path id="_패스_1554" data-name="패스 1554" d="m113.04,20.85c-2.72-2.75-5.46-5.48-8.22-8.2-5.86-6.06-15.53-6.23-21.59-.36-.15.14-.3.29-.44.44-20.91,20.89-41.81,41.8-62.69,62.72-.56.58-.99,1.27-1.25,2.03-1.63,4.75-3.19,9.52-4.78,14.28-2.6,7.8-5.19,15.61-7.78,23.42-.04.12-.07.24-.1.35-.13.32-.2.66-.2,1,0,38.84,31.48,70.32,70.31,70.32h.01c1.49,0,2.7-1.2,2.7-2.7,0-1.49-1.2-2.7-2.7-2.7h0c-34.93-.04-63.58-27.69-64.87-62.59,12.11-4.03,24.22-8.07,36.33-12.14.91-.31,1.73-.82,2.42-1.49,6.74-6.67,13.45-13.37,20.13-20.09,14.14-14.14,28.29-28.29,42.44-42.43,3.01-2.92,4.72-6.93,4.75-11.13-.02-4.03-1.62-7.89-4.47-10.75M13.92,111.57c3.16-9.46,6.23-18.61,9.24-27.62l18.41,18.41-27.65,9.21m33.71-12.71c-6.94-6.93-14.01-14.01-21-21,17.65-17.65,35.38-35.38,53.17-53.17l20.99,21c-17.71,17.72-35.43,35.44-53.16,53.17m61.21-60.88c-1.08,1.15-2.24,2.23-3.33,3.31l-21.36-21.36c1.46-1.49,3-2.89,4.61-4.2,3.41-2.45,8.07-2.14,11.13.72,3.14,2.93,6.19,5.96,9.1,9.1,3.25,3.53,3.18,8.98-.16,12.43" fill="#fff"/>
      <path id="_패스_1555" data-name="패스 1555" d="m66.83,51.79c1.81,0,3.27-1.47,3.27-3.27s-1.47-3.27-3.27-3.27-3.27,1.47-3.27,3.27h0c0,1.81,1.47,3.27,3.27,3.27" fill="#fff"/>
      <path id="_패스_1556" data-name="패스 1556" d="m76.9,53.6c-1.81,0-3.27,1.47-3.27,3.28,0,1.81,1.47,3.27,3.28,3.27,1.81,0,3.27-1.47,3.27-3.27s-1.47-3.27-3.27-3.27h0" fill="#fff"/>
      <path id="_패스_1557" data-name="패스 1557" d="m69.4,61.54c-7.12-.77-7.4-6.54-7.4-7.21,0-1.08-.88-1.96-1.96-1.96h0c-1.08,0-1.96.88-1.96,1.96,0,3.44,2.26,10.18,10.91,11.12.07,0,.14.01.21.01,1.09,0,1.96-.89,1.96-1.97,0-1-.76-1.84-1.75-1.95" fill="#fff"/>
      <rect id="_사각형_764" data-name="사각형 764" width="124" height="194" fill="none"/>
    </g>
  </g>
</svg>