<?xml version="1.0" encoding="UTF-8"?>
<svg id="Layer_2" data-name="Layer 2" xmlns="http://www.w3.org/2000/svg" viewBox="0 0 147 90">
  <g id="Logo">
    <g id="symbol_03_19_0002_02" data-name="symbol 03 19 0002 02">
      <path id="_패스_841" data-name="패스 841" d="m74.2,73.4c-3.93,2.94-8.65,4.62-13.55,4.84-26.36,1.38-37.47-24.18-50.33-53.78l-4.59,1.99c13.04,30,25.36,58.34,55.18,56.78,6.36-.26,12.47-2.57,17.43-6.58,5.95,4.38,13.12,6.78,20.51,6.89,39.37.3,41.45-63.96,41.52-66.69.02-.67-.23-1.32-.7-1.8-.08-.08-.16-.16-.25-.23-.44-.34-.97-.53-1.53-.54l-41.1-.31c-1.38-.01-2.51,1.1-2.52,2.48,0,0,0,0,0,.01,0,.47-.39,36.85-16.28,53.57-15.6-13.23-26.96-39.75-37.34-63.96l-4.6,1.97c10.48,24.46,21.93,51.18,38.15,65.35" fill="#fff"/>
      <rect id="_사각형_164" data-name="사각형 164" width="147" height="90" fill="none"/>
    </g>
  </g>
</svg>