<?xml version="1.0" encoding="UTF-8"?>
<svg id="_레이어_2" data-name="레이어 2" xmlns="http://www.w3.org/2000/svg" xmlns:xlink="http://www.w3.org/1999/xlink" viewBox="0 0 248.03 254">
  <defs>
    <clipPath id="clippath">
      <rect x=".01" width="248" height="254" fill="none"/>
    </clipPath>
  </defs>
  <g id="Logo">
    <g clip-path="url(#clippath)">
      <g id="symbol_09_08_0001_01" data-name="symbol 09 08 0001 01">
        <g id="Group_223" data-name="Group 223">
          <g id="Group_214" data-name="Group 214">
            <path id="Path_290" data-name="Path 290" d="M14.66,65.94c-1.91,3.56-3.65,7.22-5.21,10.98l26.35,5.96-21.14-16.94Z" fill="#fff"/>
            <path id="Path_291" data-name="Path 291" d="M124.01,.46c-42.83-.02-82.64,22.08-105.27,58.44l34.97,28.03,47.32,10.71-1.41,7.8-34.5-7.81,25.72,19.06-5.03,6.27-38.6-29.38L6.62,84.39C-.37,104.98-1.86,127.04,2.31,148.38c8,6.25,17.16,10.88,26.94,13.61,19.64,5.53,51.97,6.22,94.4-21.89,31.32-20.75,64.75-19.92,87.29-15.56,12.61,2.47,24.87,6.46,36.52,11.89,.38-3.94,.58-7.92,.58-11.96,0-68.49-55.52-124.01-124.01-124.01h0Z" fill="#fff"/>
          </g>
          <g id="Group_215" data-name="Group 215">
            <path id="Path_292" data-name="Path 292" d="M200.92,173.02c-19.56-3.2-48.96-2.36-78,19.75-26.19,19.95-49.39,24.41-64.9,24.41-.78,0-1.53-.01-2.27-.03-5.64-.14-11.24-.91-16.72-2.27,5.81,5.47,12.14,10.37,18.89,14.63,12.14,2.69,34.17,2.85,60.04-18.6,28.09-23.3,56.91-25.86,76.13-23.92,10.97,1.11,21.7,3.89,31.83,8.25,2.64-3.8,5.07-7.74,7.27-11.81-10.18-5.06-21.05-8.57-32.27-10.41Z" fill="#fff"/>
            <path id="Path_293" data-name="Path 293" d="M200.92,172.12c-19.56-3.2-48.96-2.37-78,19.75-26.19,19.95-49.39,24.41-64.9,24.41-.78,0-1.53-.01-2.27-.03-5.64-.14-11.24-.91-16.72-2.27,5.81,5.47,12.14,10.37,18.89,14.63,12.14,2.68,34.17,2.85,60.04-18.6,28.09-23.3,56.91-25.86,76.13-23.92,10.97,1.11,21.7,3.89,31.83,8.24,2.64-3.8,5.07-7.74,7.27-11.81-10.18-5.06-21.05-8.57-32.27-10.41Z" fill="#fff"/>
          </g>
          <g id="Group_216" data-name="Group 216">
            <path id="Path_294" data-name="Path 294" d="M189.14,201.13c9.42,.54,18.71,2.5,27.55,5.82,2.9-3.26,5.63-6.67,8.17-10.21-9.88-4.2-20.34-6.89-31.03-7.96-18.87-1.9-47.14,.64-74.73,23.52-11.3,9.37-28.94,20.35-49.51,20.36-.6,0-1.2,0-1.81-.03-1.94-.06-3.75-.22-5.45-.44,7.31,4.2,15.03,7.63,23.04,10.25,7.85-.69,21.2-4.21,37.2-17.93,24.57-21.08,49.76-24.34,66.57-23.37Z" fill="#fff"/>
          </g>
          <g id="Group_217" data-name="Group 217">
            <path id="Path_295" data-name="Path 295" d="M207.14,155.8c-20.52-3.76-51.9-3.49-84.83,19.08-16.81,11.52-41.39,24.13-68.44,24.13-4.51,0-9-.36-13.45-1.07-7.16-1.13-14.13-3.27-20.69-6.35,4.78,7.41,10.33,14.29,16.56,20.52,6.37,1.93,12.98,2.99,19.63,3.14,15.16,.42,38.89-3.42,65.92-24.01,29.57-22.52,59.53-23.35,79.45-20.08,11.38,1.88,22.42,5.45,32.75,10.58,2.44-4.67,4.57-9.48,6.39-14.42-10.44-5.52-21.67-9.4-33.29-11.52Z" fill="#fff"/>
          </g>
          <g id="Group_218" data-name="Group 218">
            <path id="Path_296" data-name="Path 296" d="M137.95,247.52c17.17-1.91,33.75-7.42,48.66-16.16-9.35-.5-28.2,.91-48.66,16.16Z" fill="#fff"/>
          </g>
          <g id="Group_219" data-name="Group 219">
            <path id="Path_297" data-name="Path 297" d="M189.26,230.03c4.94-3.07,9.67-6.47,14.13-10.2-12.1-2.88-46.34-7.5-76.77,21.85-3.17,2.83-6.82,5.07-10.77,6.61,2.7,.17,5.42,.27,8.16,.27,3.55,0,7.06-.16,10.52-.45,23.79-18.85,45.95-18.99,54.73-18.09Z" fill="#fff"/>
          </g>
          <g id="Group_220" data-name="Group 220">
            <path id="Path_298" data-name="Path 298" d="M208.94,141.4c-21.61-3.85-53.82-4.05-84.54,16.91-18.54,12.65-44.55,25.95-71.89,25.95-7.09,.02-14.15-.92-20.99-2.8-8.07-2.21-15.69-5.79-22.54-10.59,2.48,6.14,5.44,12.07,8.87,17.73,7.19,3.77,14.94,6.33,22.96,7.59,31.63,5.08,61.22-9.59,80.48-22.79,33.47-22.94,65.38-23.19,86.26-19.35,11.69,2.14,22.98,6.04,33.5,11.56,1.48-4.19,2.72-8.46,3.74-12.79-11.39-5.35-23.44-9.19-35.83-11.42Z" fill="#fff"/>
          </g>
          <g id="Group_221" data-name="Group 221">
            <path id="Path_299" data-name="Path 299" d="M188.96,202.93c-16.46-.93-41.13,2.28-65.21,22.94-13.94,11.96-25.84,16.39-34.09,17.88,7.19,2.07,14.54,3.48,21.98,4.21,4.19-1.46,9.98-3.96,13.73-7.58,20.04-19.34,41.58-24.01,56.11-24.53,7.96-.31,15.92,.53,23.63,2.52,3.61-3.13,7.05-6.46,10.28-9.99-8.49-3.11-17.4-4.96-26.43-5.46Z" fill="#fff"/>
          </g>
          <g id="Group_222" data-name="Group 222">
            <path id="Path_300" data-name="Path 300" d="M210.53,126.3c-22.19-4.28-55.1-5.1-85.89,15.3-18.66,12.37-44.83,25.27-72.77,25.27-7.85,.02-15.66-1.05-23.21-3.17-9.28-2.59-18.01-6.85-25.77-12.56,1.23,5.61,2.85,11.12,4.84,16.5,7.27,5.57,15.54,9.68,24.38,12.1,18.74,5.16,49.79,5.38,91.28-22.93,31.24-21.31,63.98-21.11,85.94-17.18,12.39,2.24,24.44,6.06,35.85,11.37,.91-4.18,1.61-8.41,2.08-12.67-11.69-5.52-24.03-9.56-36.72-12.03Z" fill="#fff"/>
            <path id="Path_301" data-name="Path 301" d="M210.53,126.3c-22.19-4.28-55.1-5.1-85.89,15.3-18.66,12.37-44.83,25.27-72.77,25.27-7.85,.02-15.66-1.05-23.21-3.17-9.28-2.59-18.01-6.85-25.77-12.56,1.23,5.61,2.85,11.12,4.84,16.5,7.27,5.57,15.54,9.68,24.38,12.1,18.74,5.16,49.79,5.38,91.28-22.93,31.24-21.31,63.98-21.11,85.94-17.18,12.39,2.24,24.44,6.06,35.85,11.37,.91-4.18,1.61-8.41,2.08-12.67-11.69-5.52-24.03-9.56-36.72-12.03Z" fill="#fff"/>
          </g>
          <line id="Line_5" data-name="Line 5" x1="146.37" y1="253.73" x2="146.19" y2="253.64" fill="none"/>
        </g>
      </g>
    </g>
  </g>
</svg>