<?xml version="1.0" encoding="UTF-8"?>
<svg id="_레이어_2" data-name="레이어 2" xmlns="http://www.w3.org/2000/svg" viewBox="0 0 270 199">
  <g id="Logo">
    <g id="symbol_19_06_0002_02" data-name="symbol 19 06 0002 02">
      <rect id="_사각형_216" data-name="사각형 216" width="270" height="199" fill="none"/>
      <path id="_패스_621" data-name="패스 621" d="M107.49,189.8c-36.01-14.2-61.64-51.47-62.05-90.19S69.9,23.1,105.59,8.14C62.2,3.6,21.68,30.46,8.98,72.2c-.5,1.63-1.29,3.57-2.97,3.77-2.8,.32-3.22-3.98-2.31-6.66C19.31,22.92,66.58-5.02,114.76,3.67c9.39,1.63,17.93,4.86,26.62,8.65,7.12,3.12,13.69,7.36,19.46,12.55,3.2,2.96,6.77,5.49,10.62,7.51,5.26,2.53,11.18,3.32,16.68,5.29,8.65,3.1,16.05,9.07,22.12,15.98,4.15,4.72,7.87,10.02,13.18,13.38,3.67,2.32,7.91,3.59,11.6,5.87,6.96,4.39,11.31,11.92,11.64,20.14,.08,2.55-.23,5.17,.6,7.58,1.38,4,5.44,6.29,8.68,9,5.64,4.76,9.28,11.47,10.18,18.8,.27,1.25,.09,2.55-.51,3.69-1.08,1.63-3.37,1.79-5.32,1.78l-62.85-.19c-1.95-.16-3.91,.15-5.71,.92-2.32,1.23-3.55,3.77-4.72,6.11-25.18,50.2-86.3,70.49-136.5,45.3-3.18-1.6-6.28-3.36-9.28-5.28-17.6-11.28-31.81-28.61-36.86-48.9-.23-.68-.27-1.41-.12-2.12,.52-1.7,3.06-1.92,4.45-.82s1.93,2.94,2.46,4.63c3.37,10.81,9.16,20.71,16.92,28.95,4.04,4.29,8.6,8.06,13.58,11.21,2.55,1.6,5.21,3.03,7.87,4.45,3.77,2.02,7.54,4.04,11.48,5.72,14.51,6.2,30.76,7.51,46.45,5.91ZM163.09,34.15c-11.1-11.38-23.61-17.96-37.3-22.66-3.97-1.4-8.3-1.36-12.24,.12-44.21,15.49-70.47,62.39-60.26,106.18,7.99,34.3,29.22,56.62,61.78,68.75,2.4,.9,4.86,1.72,7.57,.91,26.54-7.93,46.47-23.85,59.01-48.76,1.83-3.64,.94-4.95-3.13-4.91-11.56,.13-23.12,.04-34.68,.04-18.14,0-36.28-.12-54.41,.12-5.13,.07-6.92-1.73-6.04-6.68,1.69-9.47,6.17-17.34,15.48-20.33,6.33-2.03,6.58-5.12,5.67-10.48-1.87-10.95,1.36-20.22,10.93-26.45,3.43-2.36,6.46-5.27,8.95-8.6,9.99-12.52,21.48-22.97,38.68-27.25h0Zm-34.69,30.65c16.54-1.85,29.69,2.04,40.79,12.19,1.69,1.54,4.31,3.34,1.82,5.86-2.2,2.22-3.95-.24-5.5-1.61-5.46-4.83-11.53-8.61-18.7-10.15-22.71-4.89-43.99,5.15-35.29,32.37,1.36,4.25,.21,6.18-4.43,6.73-7.88,.94-13.55,5.12-16.76,12.64-1.84,4.3-.82,5.47,3.78,5.4,14.14-.23,28.3-.09,42.44-.09,39.65,0,79.3,.02,118.96,.07,3.93,.01,5.53-.54,3.75-4.88-6.96-16.94-30.41-23.41-44.5-12.1-1.85,1.49-3.6,4.04-5.87,1.21-1.98-2.47,.86-3.89,2.23-5.31,1.31-1.22,2.79-2.24,4.4-3.03,6.52-3.63,13.66-4.24,20.88-3.75,4.05,.27,5.1-1.3,5.06-5.11-.09-9.54-4.75-16.57-13.24-19.39-7.96-2.65-13.24-7.4-17.68-13.92-1.06-1.45-2.25-2.8-3.56-4.03-9.62-9.6-20.1-17.73-34.42-18.41-19.3-.93-31.42,11-44.17,25.31h0Z" fill="#fff"/>
    </g>
  </g>
</svg>