<?xml version="1.0" encoding="UTF-8"?>
<svg id="Layer_2" data-name="Layer 2" xmlns="http://www.w3.org/2000/svg" viewBox="0 0 102 102">
  <g id="Logo">
    <g id="symbol_21_01_0004" data-name="symbol 21 01 0004">
      <path id="_패스_877" data-name="패스 877" d="m59.51,59.33c-6.75,7.04-11.69,15.61-14.4,24.98,1.25,2.39,2.69,4.94,4.32,7.66h20.48c2.24-4.4,4.98-8.53,8.18-12.31l-18.57-20.33Z" fill="#fff"/>
      <path id="_패스_878" data-name="패스 878" d="m81.5,40.89c-4.46-1.64-9.14-2.61-13.88-2.88-5.39,2.08-10.45,4.93-15.03,8.45l7.06,7.72c6.31-5.86,13.74-10.38,21.85-13.29" fill="#fff"/>
      <path id="_패스_879" data-name="패스 879" d="m75.73,35.53c3.88.89,7.69,2.11,11.36,3.64,1.53-.39,3.08-.73,4.65-1.01v-4.1c-.83-.03-1.67-.06-2.52-.06-4.54,0-9.07.51-13.5,1.53" fill="#fff"/>
      <path id="_패스_880" data-name="패스 880" d="m29.06,91.97h10.76c.34-2.42.82-4.82,1.44-7.18-2.66-5.08-4.9-10.37-6.7-15.81-3.35,7.22-5.22,15.04-5.51,22.99" fill="#fff"/>
      <path id="_패스_881" data-name="패스 881" d="m49.82,48.72c-5.13,4.45-9.47,9.72-12.85,15.61,1.44,5.31,3.4,10.48,5.85,15.41,3.06-8.62,7.92-16.48,14.28-23.05l-7.27-7.96Z" fill="#fff"/>
      <path id="_패스_882" data-name="패스 882" d="m86.85,42.94c-9.25,2.58-17.75,7.34-24.78,13.88l18.42,20.16c3.38-3.57,7.16-6.75,11.27-9.46v-22.31c-.89-.45-1.75-.87-2.58-1.25-.79-.37-1.56-.71-2.32-1.03" fill="#fff"/>
      <path id="_패스_883" data-name="패스 883" d="m82.21,9.82H19.14c-5.27,0-9.54,4.27-9.54,9.54h0v63.07c0,5.27,4.27,9.54,9.54,9.54h6.34c1.25-34.32,29.41-61.51,63.75-61.55.84,0,1.68.02,2.52.05v-11.12c0-5.27-4.27-9.54-9.54-9.54h0m-54.56,28.39c-4.77,0-8.64-3.87-8.64-8.65s3.87-8.64,8.65-8.64c4.77,0,8.64,3.87,8.64,8.64,0,4.78-3.87,8.65-8.65,8.65h0" fill="#fff"/>
      <path id="_패스_884" data-name="패스 884" d="m73.95,91.97h8.25c1.98,0,3.9-.61,5.51-1.76l-7.2-7.88c-2.49,3-4.69,6.22-6.56,9.64" fill="#fff"/>
      <path id="_패스_885" data-name="패스 885" d="m82.9,79.63l7.3,7.99c1.01-1.55,1.55-3.35,1.55-5.2v-10.56c-3.19,2.3-6.16,4.9-8.85,7.77" fill="#fff"/>
      <path id="_패스_886" data-name="패스 886" d="m83.04,4.99H18.31c-7.48,0-13.54,6.07-13.55,13.55v64.73c0,7.48,6.07,13.54,13.55,13.55h64.73c7.48,0,13.54-6.07,13.55-13.55V18.53c0-7.48-6.07-13.54-13.55-13.55m11.76,78.28c0,6.49-5.27,11.75-11.76,11.76H18.31c-6.49,0-11.75-5.27-11.76-11.76V18.53c0-6.49,5.27-11.75,11.76-11.76h64.73c6.49,0,11.75,5.27,11.76,11.76v64.73Z" fill="#fff"/>
      <rect id="_사각형_311" data-name="사각형 311" width="102" height="102" fill="none"/>
    </g>
  </g>
</svg>