<?xml version="1.0" encoding="UTF-8"?>
<svg id="_레이어_2" data-name="레이어 2" xmlns="http://www.w3.org/2000/svg" viewBox="0 0 222 219">
  <g id="Logo">
    <g id="symbol_18_04_0003_02" data-name="symbol 18 04 0003 02">
      <path id="_패스_1254" data-name="패스 1254" d="m203.54,147.67c-8.62-1.1-15.36,3.71-22.44,7.48-4.06,2.16-8.01,4.55-12.16,6.51-7.57,3.78-16.48,3.76-24.03-.06-6-2.9-11.83-6.17-17.68-9.39-11.83-6.51-23.4-5.74-34.73,1.16-5.5,3.36-11.25,6.3-17.18,8.81-8.13,3.43-16.11,3.41-23.96-.83-4.45-2.41-9.07-4.57-13.31-7.31-7.19-4.65-14.75-7.52-23.45-6.35-5.46.74-8.15-2.14-9.3-7.01-1.09-4.63-.57-8.61,4.19-11.22,5.65-3.1,11.31-3.94,17.1-.76,7.46,4.09,14.8,8.41,22.25,12.53,10.7,5.91,21.43,6.3,32.2.06,2.79-1.61,5.88-2.7,8.61-4.39,15.22-9.42,30.17-8.32,44.77,1.21,16.36,10.69,31.95,9.39,47.36-2.07,4.03-2.99,8.66-5.24,13.17-7.5,5.74-2.87,11.52-2.4,17.29.34,3.94,1.88,6.83,4.27,5.16,9.03-1.64,4.67-2.69,10.21-9.65,9.77-1.38-.09-2.76-.01-4.21-.01" fill="#fff"/>
      <path id="_패스_1255" data-name="패스 1255" d="m157.58,200.24c-5.78-.47-10.14-2.53-14.32-5.01-5.54-3.29-10.93-6.85-16.55-10-11.56-6.46-22.93-5.47-34.05,1.29-6.29,3.82-12.56,7.68-18.98,11.28-5.36,3.01-10.84,2.96-16.57.43-16.3-7.21-28.7-18.89-38.88-33.21-.78-1.09-1.9-2.3-1.11-3.74.98-1.77,2.79-1.33,4.32-.99,6.67,1.49,12.24,5.4,17.8,8.97,15.8,10.16,31.61,11.94,47.92,1.49,15.77-10.11,31.39-10.06,47.32-.04,15.99,10.05,31.82,8.24,47.48-1.42,5.83-3.59,11.42-7.9,18.42-9.21,1.55-.29,3.41-.6,4.55.79,1.04,1.27.05,2.56-.74,3.73-9.9,14.84-23.79,26.58-40.08,33.86-2.12.79-4.31,1.38-6.54,1.77" fill="#fff"/>
      <path id="_패스_1256" data-name="패스 1256" d="m112.3,48.89c-.14,2.46-.77,4.39-4.33,4.38-3.4,0-4.01-1.88-4.45-4.16-2.49-12.77-5.04-25.53-7.52-38.3-.77-3.96.11-4.98,4.64-5.34,3.42-.27,6.87-.34,10.3-.46,3.59-.13,4.96,1.48,4.68,4.47-.91,9.79-1.7,19.59-2.69,29.37-.4,3.34-.61,6.69-.62,10.05" fill="#fff"/>
      <path id="_패스_1257" data-name="패스 1257" d="m177.77,29.4c-.14,1.1-.69,2.1-1.53,2.82-7.27,8.29-14.53,16.59-21.78,24.89-.66.75-1.36,1.48-2.03,2.23-1.59,1.76-3.48,1.55-5.49.62-2.15-.99-2.3-2.46-1.42-4.21,5.52-11.06,11.05-22.12,16.56-33.18,1.31-2.62,3.16-3.45,6.01-1.46,2.65,1.85,5.74,3.23,8,5.52.88.69,1.48,1.67,1.68,2.77" fill="#fff"/>
      <path id="_패스_1258" data-name="패스 1258" d="m77.3,54.97c-.4,2.32-4.85,4.2-6.98,2.7-9.65-6.8-19.18-13.73-28.72-20.64-1.69-1.22-2-2.83-.86-4.39,1.93-2.9,4.08-5.65,6.43-8.22,3.3-3.33,4.96.22,6.5,1.96,5.94,6.75,11.66,13.64,17.49,20.47,1.57,1.83,3.24,3.6,4.85,5.41.71.8,1.46,1.61,1.29,2.71" fill="#fff"/>
      <path id="_패스_1259" data-name="패스 1259" d="m205.39,73.54c-.05,6.19-.04,6.22-7.08,7.64-6.89,1.39-13.8,2.7-20.69,4.08-2.79.56-4.96.29-6.57-2.2-1.37-2.12-1.12-3.52,1.31-4.58,9.4-4.12,18.81-8.21,28.24-12.29,2.25-.98,3.73-.14,4.19,1.78.32,1.84.53,3.7.61,5.57" fill="#fff"/>
      <path id="_패스_1260" data-name="패스 1260" d="m47.14,85.44c-8.61-1.38-17.86-3.29-27.02-5.49-1.11-.15-1.98-1.03-2.11-2.14-.41-3.22-.32-6.48.27-9.67.5-2.14,2.07-2.92,4.48-1.85,9.24,4.07,18.48,8.14,27.71,12.22,1.89.83,2.99,1.86,2.07,3.84-.87,1.86-1.93,3.39-5.39,3.1" fill="#fff"/>
      <path id="_패스_1261" data-name="패스 1261" d="m110.87,212.8c-6.79.27-13.58-.23-20.25-1.49-1.78-.35-3.96-.36-4.55-2.46-.7-2.45,1.36-3.69,2.98-4.93,1.46-1.12,3.02-2.1,4.55-3.11,15.41-10.19,28.42-8.78,41.22,4.46,3.65,3.78,1.11,5.13-2.38,5.81-7.09,1.45-14.33,2.03-21.56,1.72" fill="#fff"/>
      <rect id="_사각형_614" data-name="사각형 614" width="222" height="219" fill="none"/>
    </g>
  </g>
</svg>