<?xml version="1.0" encoding="UTF-8"?>
<svg id="_레이어_2" data-name="레이어 2" xmlns="http://www.w3.org/2000/svg" viewBox="0 0 214 211">
  <g id="Logo">
    <g id="symbol_08_04_0004_02" data-name="symbol 08 04 0004 02">
      <path id="_패스_1475" data-name="패스 1475" d="m156.53,27.51c-29.79,14.94-59.59,29.86-89.4,44.74-1,.5-1.98,1.07-3.07,1.66.27.21.55.41.84.58,13.63,6.83,27.24,13.69,40.92,20.41,1.19.43,2.5.37,3.63-.17,30.31-15.09,60.59-30.23,90.85-45.42.64-.32,1.24-.74,2.16-1.28-13.98-6.99-27.55-13.73-41.05-20.6-1.52-.87-3.39-.83-4.88.09" fill="#fff"/>
      <path id="_패스_1476" data-name="패스 1476" d="m146.04,19.95c-1.02-.56-1.75-1-2.52-1.38-11.26-5.63-22.55-11.2-33.76-16.93-1.52-.88-3.4-.86-4.9.07-27.8,13.96-55.61,27.88-83.45,41.76-2.9,1.45-5.77,2.93-9.02,4.59,1.06.6,1.71,1.01,2.39,1.35,11.33,5.68,22.68,11.31,33.98,17.05,1.45.85,3.24.84,4.68-.02,30.01-15.07,60.04-30.1,90.09-45.09.76-.38,1.49-.83,2.51-1.4" fill="#fff"/>
      <path id="_패스_1477" data-name="패스 1477" d="m134.64,180.25c-4.55-3.64-8.97-7.18-12.61-13.33-3.07-5.21-4.9-11.05-5.36-17.08-.29-4.1-1.09-15.62,6.78-24.19,3.4-3.53,7.66-6.12,12.35-7.53,5.68-2.1,11.83-2.57,17.77-1.36,9.83,2.08,16.51,8.49,17.12,9.8.05.11.35.81.75.81s.69-.66.78-.84c1.02-2.12,3.15-3.51,4.69-5.29,2.5-2.89,12.84-8.05,23.86-5.08,3.36.92,6.5,2.49,9.25,4.62-.17-21.07-.34-42.14-.51-63.21-1.16.51-2.01.85-2.82,1.26-31.95,15.98-63.89,31.97-95.83,47.97-2.2,1.21-4.87,1.19-7.04-.06-14.87-7.52-29.76-14.99-44.68-22.41-.68-.34-1.41-.6-2.42-1.03v19.12c0,4.44.04,8.88-.02,13.32-.05,3.72-2.29,6.05-5.64,6.04-3.32-.01-5.61-2.4-5.62-6.08-.04-11.98-.02-23.97-.01-35.95,0-1.23.1-2.29-1.42-3.03-12.48-6.15-24.91-12.41-37.36-18.62-.46-.19-.93-.35-1.42-.48-.06,1.09-.14,1.94-.14,2.79,0,28.94-.02,57.87-.05,86.81-.18,1.66.74,3.26,2.27,3.93,31.81,17.61,62.69,36.98,95.34,52.96,2.56,1.26,5.43,1.75,8.26,1.41,1.97-.39,3.88-1.07,5.65-2.01,1.03-.46,1.74-.78,2.52-1.16.88-.44,1.52-.79,1.63-.85,1.21-.66,8.56-4.31,26.51-13.12-4.47-2.27-8.69-4.99-12.6-8.12" fill="#fff"/>
      <rect id="_사각형_524" data-name="사각형 524" width="214" height="211" fill="none"/>
    </g>
  </g>
</svg>