<?xml version="1.0" encoding="UTF-8"?>
<svg id="Layer_2" data-name="Layer 2" xmlns="http://www.w3.org/2000/svg" viewBox="0 0 175 134">
  <g id="Logo">
    <g id="symbol_10_05_0002_02" data-name="symbol 10 05 0002 02">
      <path id="_합치기_25" data-name="합치기 25" d="m156.53,127.52c.66-2.28,1-4.65,1-7.02,0-.43-.01-.86-.03-1.28h4.8v-25.8l2.29-2.53c1.89,1.35,3.9,2.53,6.01,3.5v33.14h-14.07Zm-152.28,0v-37.36h8.3v29.06h94.48c-.02.42-.03.85-.03,1.28,0,2.38.34,4.74,1,7.02H4.25Zm113.66-37.36l-16.08-25.31c2.31-2.64,3.58-6.03,3.58-9.54,0-8.04-6.51-14.55-14.55-14.55h0c-8.04,0-14.55,6.51-14.55,14.55h0c0,8.04,6.52,14.55,14.55,14.56,1.34,0,2.68-.19,3.97-.56l13.25,20.86H12.55V14.36h119.71V6.06h38.34v21.66c-2.99,1.38-5.78,3.15-8.3,5.28V14.36h-30.04v75.8h-14.35Z" fill="#fff"/>
      <rect id="_사각형_249" data-name="사각형 249" width="175" height="134" fill="none"/>
    </g>
  </g>
</svg>