<?xml version="1.0" encoding="UTF-8"?>
<svg id="_레이어_2" data-name="레이어 2" xmlns="http://www.w3.org/2000/svg" viewBox="0 0 270 256">
  <g id="Logo">
    <g id="symbol_10_03_0003_01" data-name="symbol 10 03 0003 01">
      <path id="_패스_1526" data-name="패스 1526" d="m227,230.14c1.86,2.44,3.77,4.84,5.57,7.32,2.7,3.74,2.36,7.57-.77,9.95-3.04,2.3-7.05,1.46-9.79-2.07-3.56-4.59-7.15-9.16-10.63-13.81-.88-1.34-2.4-2.11-4-2.03-45.65.04-91.29.04-136.94,0-1.6-.1-3.13.65-4.03,1.98-3.61,4.79-7.3,9.52-11.04,14.21-2.63,3.3-6.69,3.91-9.66,1.6-2.94-2.29-3.27-5.96-.77-9.52,1.35-1.91,2.87-3.7,4.26-5.59.47-.65,1.46-1.25,1.09-2.12-.4-.93-1.5-.49-2.29-.52-4.21-.19-8.43.31-12.62-.47-15.22-2.66-26.38-15.78-26.57-31.22-.18-34.4-.18-68.8,0-103.19.15-17.61,14.48-31.8,32.09-31.77,17.06-.09,34.12-.05,51.18,0,2.13,0,3.2-.41,3.26-2.91.23-9.82,6.8-16.12,16.68-16.26.77.05,1.53-.13,2.2-.5-3.92-2.76-7.83-5.53-11.76-8.28-7.07-4.93-14.18-9.81-21.23-14.78-4.33-3.06-4.59-8.56-.57-11.29,2.79-1.9,5.53-1.28,8.12.51,7.47,5.18,14.93,10.37,22.39,15.57,7.46,5.19,14.94,10.35,22.36,15.61,1.12,1.04,2.85,1.06,3.99.04,14.56-10.24,29.16-20.45,43.78-30.61.6-.44,1.23-.86,1.88-1.23,3.33-1.83,7.06-1.02,8.96,1.91,2.02,2.86,1.34,6.81-1.51,8.83-.06.04-.12.09-.19.13-8.08,5.78-16.27,11.4-24.41,17.09-3.15,2.09-6.12,4.44-8.9,7,2.02,0,4.05-.04,6.07,0,8.46.23,15.27,7.02,15.53,15.48.12,3.63.12,3.64,3.85,3.64,16.4,0,32.8,0,49.21,0,19.52.03,33.47,14,33.48,33.55.02,33.46.02,66.92,0,100.38-.02,16.49-11.28,29.79-27.53,32.37-3.37.54-6.89.08-10.35.08-.11.3-.23.6-.35.89m-90-13.74c31.67,0,63.34,0,95.01,0,11.73,0,19.72-7.85,19.73-19.48.04-33.82.04-67.65,0-101.47-.01-11.46-8-19.44-19.49-19.44-63.52-.03-127.05-.03-190.58,0-11.46,0-19.44,8.01-19.45,19.49-.04,33.82-.04,67.65,0,101.47-.08,1.87.1,3.75.56,5.57,2.32,8.35,10,14.05,18.66,13.86,31.86.03,63.71.03,95.57.01m-.05-153.54c8.61,0,17.22-.05,25.82.04,2.27.02,3.06-.87,2.76-3.02-.39-2.71-2.3-3.04-4.54-3.04-16,.02-32,.02-48,.01-.65-.03-1.31,0-1.96.11-2.16.46-2.71,2.01-2.65,4,.06,2.19,1.65,1.9,3.02,1.9,8.51.02,17.03.02,25.54,0" fill="#fff"/>
      <path id="_패스_1527" data-name="패스 1527" d="m220.91,162.17c2.17,0,4.35-.03,6.52,0,2.4.05,3.97,2.3,3.96,5.6,0,3.19-1.66,5.84-3.88,5.89-4.45.09-8.9.1-13.35,0-2.36-.06-3.88-2.51-3.85-5.83.03-3.41,1.51-5.59,3.92-5.65,2.23-.05,4.45-.01,6.68-.01" fill="#fff"/>
      <path id="_패스_1528" data-name="패스 1528" d="m220.91,182.4c2.17,0,4.35-.03,6.52,0,2.4.05,3.97,2.3,3.96,5.6,0,3.19-1.66,5.84-3.88,5.89-4.45.09-8.9.1-13.35,0-2.36-.06-3.88-2.51-3.85-5.83.03-3.41,1.51-5.59,3.92-5.65,2.23-.05,4.45-.01,6.68-.01" fill="#fff"/>
      <path id="_패스_1529" data-name="패스 1529" d="m220.87,141.9c2.22,0,4.45-.05,6.67.01,2.24.06,3.73,2.14,3.85,5.26.12,2.97-1.13,5.34-3.26,5.97-.8.22-1.64.32-2.47.28-4.08-.14-8.18.49-12.24-.34-2.15-.44-3.23-2.78-3.11-6.04.11-2.96,1.48-5.02,3.57-5.11,2.33-.1,4.65-.02,6.98-.02h0Z" fill="#fff"/>
      <path id="_패스_1530" data-name="패스 1530" d="m220.97,95.77c-8.94-.56-17.36,7.02-17.49,17-.03,9.61,7.73,17.43,17.34,17.46.03,0,.07,0,.1,0,9.34-.02,17.42-7.89,17.32-17.16-.11-10.2-8.58-17.75-17.27-17.3" fill="#fff"/>
      <path id="_패스_1531" data-name="패스 1531" d="m177.08,85.4c-44.89,0-89.77,0-134.66,0-7.34,0-11.17,3.76-11.17,11.02-.01,33.17-.01,66.35,0,99.52,0,7.3,3.79,11.05,11.1,11.05,22.49,0,44.98,0,67.47,0h67.19c7.61,0,11.2-3.57,11.2-11.12,0-33.08,0-66.16,0-99.24,0-7.6-3.59-11.22-11.12-11.22m-93.53,53.98c1.31,1.65,3.26,2.69,5.36,2.85,2.32.22,4.62-.54,6.35-2.1,1.35-1.15,3.39-.99,4.54.36,1.11,1.31,1.01,3.25-.24,4.43-2.72,2.44-6.25,3.79-9.9,3.79-.45,0-.9-.02-1.35-.06-7.69-.64-13.41-7.39-12.78-15.08.32-3.83,2.2-7.36,5.19-9.76,6.08-4.92,14.99-4.01,19.96,2.02,1.15,1.36.99,3.39-.37,4.54-1.36,1.15-3.39.99-4.54-.37-.02-.02-.04-.05-.06-.07-2.61-3.36-7.45-3.97-10.81-1.37-3.36,2.61-3.97,7.45-1.37,10.81m26.17,14.42c-2.1,0-3.8-1.7-3.8-3.8s1.7-3.8,3.8-3.8c2.1,0,3.8,1.7,3.8,3.8h0c0,2.1-1.7,3.8-3.8,3.8m17.18-14.42c1.31,1.65,3.26,2.69,5.36,2.85,2.32.23,4.63-.53,6.35-2.1,1.37-1.14,3.4-.96,4.54.41,1.08,1.3.98,3.21-.24,4.38-2.72,2.44-6.25,3.78-9.9,3.79-.45,0-.9-.02-1.35-.06-7.69-.64-13.41-7.39-12.78-15.08.32-3.83,2.19-7.36,5.19-9.76,6.08-4.92,14.99-4.01,19.96,2.03,1.1,1.4.87,3.42-.53,4.52-1.35,1.07-3.31.88-4.44-.42-2.61-3.36-7.45-3.97-10.81-1.37s-3.97,7.45-1.37,10.81" fill="#fff"/>
      <rect id="_사각형_585" data-name="사각형 585" width="270" height="256" fill="none"/>
    </g>
  </g>
</svg>