<?xml version="1.0" encoding="UTF-8"?>
<svg id="Layer_2" data-name="Layer 2" xmlns="http://www.w3.org/2000/svg" viewBox="0 0 138 138">
  <g id="Logo">
    <g id="symbol_02_03_0005_01" data-name="symbol 02 03 0005 01">
      <path id="_합치기_47" data-name="합치기 47" d="m5,109.4c0-4.36,11.36-8.2,28.55-10.43.26-4.38.53-8.77.79-13.16.51-8.43,1.01-16.87,1.51-25.3.42-7.11.85-14.23,1.26-21.34.34-5.87.68-11.73,1.04-17.59-.07-1.61,1.18-2.98,2.79-3.05.1,0,.19,0,.29,0,1.32-.1,2.63-.19,3.95-.28,1.07-.07,1.77.45,1.84,1.34.07.92-.5,1.5-1.6,1.61-1.17.11-2.34.17-3.65.28,4.3,11.05,8.54,21.97,12.85,33.03l30.6-17.6c-1.51-5.98-3.02-11.94-4.55-17.95-2.71.17-5.34.34-7.97.51-6.59.42-13.18.85-19.76,1.27-1.13.07-1.79-.39-1.93-1.26-.1-.83.49-1.58,1.32-1.67.07,0,.14-.01.21,0,4.18-.28,8.36-.54,12.54-.8,4.35-.28,8.69-.56,13.04-.84.19-.03.38-.08.56-.15h3.17c.86.32,1.74.59,2.57.96,6.24,2.83,12.48,5.68,18.71,8.54.51.23.97.54,1.38.93,6.06,5.98,12.11,11.98,18.14,17.98.35.35.63.75.85,1.19,1.28,2.64,2.53,5.3,3.77,7.96.52,1.1.3,1.98-.55,2.35s-1.59,0-2.11-1.07c-1.16-2.44-2.3-4.89-3.49-7.32-.25-.53-.6-1.02-1.01-1.43-5.77-5.75-11.56-11.49-17.37-17.22-.32-.33-.7-.59-1.12-.79-5.57-2.56-11.14-5.11-16.72-7.64-.24-.11-.5-.18-.88-.31,1.41,5.55,2.78,10.94,4.17,16.33.11.34.31.64.58.88,7.93,7.94,15.86,15.88,23.81,23.8.33.31.73.53,1.17.64,2.77.74,5.55,1.43,8.33,2.13,2.51.64,5.03,1.27,7.73,1.96-.7-1.48-1.31-2.78-1.92-4.08-.5-1.07-.3-1.87.55-2.29.83-.41,1.65-.06,2.12,1.01,1.14,2.58,2.26,5.18,3.38,7.77v2.97c-.12,1.24-.27,2.48-.35,3.72-.74,11.21-1.47,22.43-2.21,33.64.09.25.13.52.14.79,0,6.89-28.33,12.47-63.28,12.47s-63.27-5.58-63.27-12.47Zm87.69-11.52c-.17.03-.33.08-.49.13-15.12,5.08-30.23,10.15-45.36,15.2-.29.08-.55.25-.74.48,1.67-.09,3.34-.17,5-.27,8.27-.5,16.54-1,24.8-1.5,1.33-.08,2.65-.17,3.97-.23l11.03-.65c.77-.05,1.54-.1,2.31-.15,9.36-.55,18.71-1.1,28.07-1.65.35,0,.68-.12.97-.31-1.96-.76-3.92-1.52-5.87-2.28-7.34-2.85-14.68-5.71-22.01-8.57-.05-.02-.1-.03-.15-.05-.33-.12-.67-.18-1.02-.18-.17,0-.34.02-.5.05h0Zm-51.12.2c-1.72,5.15-3.45,10.32-5.19,15.49,16.38-5.48,32.54-10.89,48.48-16.22,1.78-.6,3.57-1.19,5.34-1.79-11.95-11.94-23.88-23.87-35.8-35.79-4.25,12.68-8.52,25.45-12.83,38.31h0Zm38.48,13.58h.3c-.1,0-.2,0-.3,0h0Zm15.41-16.36c3.47,1.35,6.94,2.69,10.39,4.04l22.62,8.79c.06-.84.11-1.66.17-2.5.8-12.21,1.59-24.28,2.39-36.4-6.05-1.54-12.01-3.05-17.99-4.56-5.88,10.25-11.7,20.42-17.58,30.64h0ZM40.78,27.78c-1.41,23.61-2.81,47.22-4.22,70.83-.1,1.75-.21,3.5-.32,5.26.24-.14.41-.38.48-.65.54-1.6,1.06-3.2,1.6-4.81,4.57-13.64,9.13-27.29,13.68-40.94.16-.55.13-1.14-.07-1.68-2.47-6.46-4.99-12.9-7.5-19.35-1.13-2.91-2.27-5.82-3.41-8.73l-.25.06Zm15.7,29.09c12.24,12.24,24.41,24.39,36.62,36.61,5.75-10.03,11.55-20.13,17.3-30.16-7.97-7.96-15.85-15.83-23.8-23.77-10.02,5.77-20.12,11.58-30.13,17.33h0Zm17.24.09c-.63-.92-.39-2.18.53-2.81,0,0,0,0,0,0l11.81-8.03c.94-.61,2.19-.35,2.8.59.6.91.36,2.13-.53,2.76l-11.81,8.03c-.33.23-.73.35-1.14.35-.67,0-1.3-.33-1.67-.88h0Zm-14.56-29.85c-.1-1.11.72-2.09,1.83-2.2l14.22-1.29c1.11-.1,2.1.72,2.2,1.83.1,1.11-.72,2.1-1.83,2.2l-14.22,1.29c-.06,0-.12,0-.18,0-1.04,0-1.92-.8-2.02-1.84h0Z" fill="#fff"/>
      <rect id="_사각형_424" data-name="사각형 424" width="138" height="138" fill="none"/>
    </g>
  </g>
</svg>