<?xml version="1.0" encoding="UTF-8"?>
<svg id="Layer_2" data-name="Layer 2" xmlns="http://www.w3.org/2000/svg" viewBox="0 0 262 262">
  <g id="Logo">
    <g id="symbol_01_01_0004_01" data-name="symbol 01 01 0004 01">
      <path id="_패스_1045" data-name="패스 1045" d="m131.72,251.16c-60.45,0-109.45-49-109.45-109.45,0-60.45,49-109.45,109.45-109.45,60.45,0,109.45,49,109.45,109.45-.07,60.42-49.03,109.38-109.45,109.45m0-214.65c-58.1,0-105.2,47.1-105.2,105.2s47.1,105.2,105.2,105.2,105.2-47.1,105.2-105.2c-.07-58.07-47.13-105.13-105.2-105.2" fill="#fff"/>
      <path id="_패스_1046" data-name="패스 1046" d="m232.57,15.01c-13.36-10.03-36.4-1.92-55.11,23.01-9.78,13.02-15.62,26.98-17.08,38.76-5.71-2.42-11.69-4.13-17.82-5.11.18-.36.35-.72.5-1.1,2.29-5.68.89-11.6-3.13-13.22-2.77-1.12-6.06.1-8.59,2.83-1.29-3.62-3.94-6.11-7-6.11-4.33,0-7.84,4.96-7.84,11.09-.02,2.27.5,4.5,1.51,6.53-5.16.83-10.22,2.19-15.11,4.04-1.66-11.56-7.45-25.08-16.94-37.72C67.26,13.09,44.23,4.98,30.86,15.01s-12,34.41,6.71,59.35c9.44,12.57,20.73,21.87,31.32,26.72-15,19.57-19.76,45.12-12.82,68.78-2.02,3.76-3.09,7.95-3.12,12.21,0,23.98,34.65,43.41,77.38,43.41s77.38-19.44,77.38-43.41c-.03-4.26-1.11-8.45-3.13-12.21,6.83-23.28,2.33-48.42-12.14-67.89,11.18-4.54,23.34-14.21,33.4-27.62,18.72-24.93,20.08-49.31,6.72-59.35M53.97,77.32c-14.67-19.54-17.44-37.36-9.08-43.63s24.7,1.36,39.36,20.9c5.49,7.16,9.85,15.11,12.93,23.59,2.54,7.39,3.2,13.91,1.7,18.44.02-.39,0-.77-.04-1.15-.34-2.79-2.17-4.87-4.1-4.64-1.71.21-2.91,2.18-2.92,4.58-2.51-1.21-5.15-.97-6.18.67-1.15,1.84.13,4.72,2.87,6.44.36.22.74.42,1.13.59-4.7-.04-10.57-2.49-16.73-6.85-7.24-5.31-13.63-11.7-18.94-18.94m49.03,101.14c-3.52,0-6.37-3.59-6.37-8.02s2.85-8.02,6.37-8.02,6.37,3.59,6.37,8.02-2.85,8.02-6.37,8.02m35.43-3.58l-4.96,4.31c-.6.52-1.49.52-2.09,0l-4.96-4.31c-.64-.61-.66-1.62-.05-2.25.57-.59,1.49-.66,2.14-.15l3.91,3.4,3.91-3.4c.69-.55,1.69-.43,2.24.26.51.64.45,1.57-.15,2.14m22.01,3.58c-3.52,0-6.37-3.59-6.37-8.02s2.85-8.02,6.37-8.02,6.37,3.59,6.37,8.02-2.85,8.02-6.37,8.02m49.03-101.14c-6.51,8.68-13.81,15.62-20.65,20.1-5.53,3.63-10.76,5.65-15.02,5.69.39-.17.77-.37,1.13-.59,2.74-1.72,4.02-4.61,2.87-6.44-1.04-1.64-3.68-1.88-6.19-.67,0-2.4-1.2-4.37-2.92-4.58-1.92-.23-3.76,1.84-4.1,4.64-.05.39-.06.77-.04,1.16-1.42-4.29-.91-10.36,1.31-17.27,3.07-8.92,7.57-17.29,13.32-24.76,14.66-19.54,31-27.18,39.37-20.9s5.58,24.1-9.08,43.63" fill="#fff"/>
      <rect id="_사각형_256" data-name="사각형 256" width="262" height="262" fill="none"/>
    </g>
  </g>
</svg>