<?xml version="1.0" encoding="UTF-8"?>
<svg id="Layer_2" data-name="Layer 2" xmlns="http://www.w3.org/2000/svg" viewBox="0 0 130 130">
  <g id="Logo">
    <g id="symbol_19_01_0001_02" data-name="symbol 19 01 0001 02">
      <path id="_패스_396" data-name="패스 396" d="m70.72,17.94l.03-.19-.03.19Z" fill="#fff"/>
      <path id="_패스_397" data-name="패스 397" d="m58.52,111.71l.03-.19-.03.19Z" fill="#fff"/>
      <path id="_패스_402" data-name="패스 402" d="m17.92,58.11h0l-.19-.03.19.03Z" fill="#fff"/>
      <path id="_패스_403" data-name="패스 403" d="m70.72,17.94l.03-.19,1.92-14.74c-45.58,13.64-47.13,29.26-37.53,41.38,3.47-1.64,7.35-2.17,11.13-1.51-3.12-16.84,24.45-24.93,24.45-24.93" fill="#fff"/>
      <path id="_패스_404" data-name="패스 404" d="m83,86.59c3.12,16.84-24.45,24.93-24.45,24.93l-.03.19-1.92,14.75c45.58-13.64,47.14-29.26,37.53-41.38-3.46,1.64-7.35,2.17-11.13,1.51" fill="#fff"/>
      <path id="_패스_405" data-name="패스 405" d="m84.96,35.75c1.54,3.44,1.96,7.28,1.2,10.98,17.25-3.62,25.19,24.62,25.19,24.62l14.92,2.11c-13.25-46.17-29.03-47.49-41.31-37.71" fill="#fff"/>
      <path id="_패스_406" data-name="패스 406" d="m43.11,82.73c-17.25,3.62-25.19-24.62-25.19-24.62l-.19-.03-14.72-2.08c13.26,46.17,29.03,47.49,41.31,37.71-1.54-3.44-1.96-7.28-1.2-10.98" fill="#fff"/>
      <path id="_패스_407" data-name="패스 407" d="m58.04,71.32v16.75c0,1.06.86,1.92,1.92,1.92h9.35c1.06,0,1.92-.86,1.92-1.92v-16.75h16.75c1.06,0,1.92-.86,1.92-1.92v-9.35c0-1.06-.86-1.92-1.92-1.92h-16.75v-16.75c0-1.06-.86-1.92-1.92-1.92h-9.35c-1.06,0-1.92.86-1.92,1.92v16.75h-16.75c-1.06,0-1.92.86-1.92,1.92v9.35c0,1.06.86,1.92,1.92,1.92h16.75Z" fill="#fff"/>
      <rect id="_사각형_144" data-name="사각형 144" width="130" height="130" fill="none"/>
    </g>
  </g>
</svg>