<?xml version="1.0" encoding="UTF-8"?>
<svg id="_레이어_2" data-name="레이어 2" xmlns="http://www.w3.org/2000/svg" viewBox="0 0 409 154">
  <g id="Logo">
    <g id="symbol_09_04_0001_01" data-name="symbol 09 04 0001 01">
      <path id="Path_284" data-name="Path 284" d="M353.67,5.96c-29.54,4.88-38.09,6.9-98.51,10.26C194.74,19.58,141.99-.51,108.29,0s-29.4,8.59-29.4,8.59c0,0-5.01-.04-6.51,6.26-1.52,6.39,4.77,11.64,10.13,14.71,2.54,1.45,15.51,5.17,18.46,5.67,123.55,21.17,241.35-3.54,250.57-6.51,9.29-2.99,22.01-26.06,2.13-22.78ZM98.87,11.61s14.2-4.52,26.96,0c6.61,2.44,13.38,4.43,20.26,5.94-15.97,.74-31.94-1.27-47.23-5.94h0Z" fill="#fff"/>
      <path id="Path_285" data-name="Path 285" d="M66.15,46.59s6.57-7.16,11.04-2.5-1.24,13.24-6.23,24.79-13.48,42.74-31.56,49.38C39.4,118.26,3.15,128.43,0,107.26c0,0-.36-13.1,16.75-15.97,20.83-3.49,49.4-44.7,49.4-44.7Z" fill="#fff"/>
      <path id="Path_286" data-name="Path 286" d="M109.88,61.61s5.07-8.3,10.35-4.58,1.34,13.23-1.33,25.52-4.64,35.18-21.1,45.2c0,0-17.66,20.29-24.84,.12,0,0-2.88-12.79,13.35-18.9,19.77-7.46,23.56-47.36,23.56-47.36Z" fill="#fff"/>
      <path id="Path_287" data-name="Path 287" d="M359.63,60.25s-4.9-9.06-8.24-3.16,.92,16.74,4.65,31.35,10.06,54.05,23.55,62.46c0,0,27.05,12.87,29.4-13.92,0,0,.27-16.58-12.5-20.2-15.54-4.42-36.86-56.54-36.86-56.54Z" fill="#fff"/>
      <path id="Path_288" data-name="Path 288" d="M298.68,70.4s-3.35-6.92-5.63-2.41,.63,12.78,3.18,23.93,6.88,41.26,16.09,47.68c0,0,18.48,9.82,20.09-10.62,0,0,.18-12.65-8.54-15.42-10.63-3.37-25.19-43.15-25.19-43.15Z" fill="#fff"/>
      <path id="Path_289" data-name="Path 289" d="M240.98,67.9s-1.2-7.59-4.69-3.94-3.1,12.41-3.89,23.82c-.79,11.41-5.37,41.48,1.59,50.29,0,0,14.85,14.76,22.31-4.35,0,0,3.84-12.06-3.71-17.23-9.19-6.31-11.61-48.6-11.61-48.6Z" fill="#fff"/>
    </g>
  </g>
</svg>