<?xml version="1.0" encoding="UTF-8"?>
<svg id="_레이어_2" data-name="레이어 2" xmlns="http://www.w3.org/2000/svg" viewBox="0 0 206 104">
  <g id="Tag">
    <g id="symbol_3_12_0001_01" data-name="symbol 3 12 0001 01">
      <rect id="_사각형_83" data-name="사각형 83" x="0" y="0" width="206" height="103.99" fill="none"/>
      <path id="_패스_437" data-name="패스 437" d="M204.45,92.85v-.06c0-.46-.04-.92-.1-1.38-.02-.15-.04-.29-.07-.44-.93-5.34-5.57-9.23-10.98-9.23h-1.17c-.03-3.44-.06-6.89-.08-10.33,.02-16.36,.27-32.72-.02-49.07-.19-10.68-8.41-19.59-18.93-21.67-2.02-.37-4.07-.53-6.11-.5-28.31-.03-56.63-.05-84.95-.09l-8.78,.19C56.29-.07,43.1-.04,35.7,.09c-2.91-.01-5.8,.53-8.51,1.59-9.08,3.83-14.94,12.77-14.84,22.63-.1,11.88-.17,23.75-.23,35.63,.54,5.82-.07,11.65,.24,17.46,.17,3.02-.34,4.58-3.87,5.14-5.41,.87-9.05,6.34-8.43,11.5,.58,5.53,5.19,9.77,10.75,9.88,13.42,.06,26.84-.03,40.26-.05,0-.02-.02-.04-.03-.06,0,.02,.02,.04,.03,.06,.71,.02,1.43,.06,2.15,.06,14.1,.02,28.19,.04,42.29,.05,.15,0,.31,.02,.46,.02h97.32c6.15,0,11.15-4.97,11.16-11.12h0v-.02h0ZM48.22,69.53c0,3.77-3.06,6.83-6.83,6.83-3.77,0-6.83-3.06-6.83-6.83h0V30.68c0-3.77,3.06-6.83,6.83-6.83h0c3.77,0,6.83,3.06,6.83,6.83v38.85Zm30.42,0c-.05,3.77-3.14,6.79-6.91,6.74-3.71-.04-6.7-3.04-6.74-6.74V30.68c.05-3.77,3.14-6.79,6.91-6.74h0c3.71,.04,6.7,3.04,6.74,6.74v38.85Zm30.42,0c-.05,3.77-3.14,6.79-6.91,6.74-3.71-.04-6.7-3.04-6.74-6.74V30.68c.05-3.77,3.14-6.79,6.91-6.74h0c3.71,.04,6.7,3.04,6.74,6.74v38.85Zm30.42,0c0,3.76-3.06,6.81-6.83,6.81h0c-3.76,0-6.82-3.04-6.83-6.81V30.68c0-3.76,3.06-6.81,6.83-6.81h0c3.76,0,6.82,3.04,6.83,6.81v38.85Zm30.42,0c-.05,3.77-3.14,6.79-6.91,6.74-3.71-.04-6.7-3.04-6.74-6.74V30.68c.05-3.77,3.14-6.79,6.91-6.74h0c3.71,.04,6.7,3.04,6.74,6.74v38.85Z" fill="#fff"/>
    </g>
  </g>
</svg>