<?xml version="1.0" encoding="UTF-8"?>
<svg id="_레이어_2" data-name="레이어 2" xmlns="http://www.w3.org/2000/svg" viewBox="0 0 120 111">
  <g id="Logo">
    <g id="symbol_12_02_0005_01" data-name="symbol 12 02 0005 01">
      <rect id="_사각형_300" data-name="사각형 300" width="120" height="111" fill="none"/>
      <path id="_패스_850" data-name="패스 850" d="M80.37,37.83c-.6-.65-1.28-1.23-2.02-1.71-.09-.07-.54-.41-.74-.55-2.43-1.76-12.51-7.02-13.84-7.71-.92-.48-3.88-2.03-3.88-2.03h0l-5.87,2.81h0l9.7,5.86c3.09,1.59,6.03,3.47,9.07,5.15,1.61,.72,2.57,2.41,2.36,4.17-.12,6.92-.05,13.85-.05,21.67,1.03-.61,1.83-1.08,2.29-1.34,2.12-1.23,2.76-1.58,3.23-2.39,.27-.61,.43-1.26,.48-1.92h0l-.07-20.29h0c-.13-.6-.35-1.18-.66-1.71Z" fill="#fff"/>
      <path id="_패스_851" data-name="패스 851" d="M102.08,2.72H18.66c-8.69,0-15.73,7.03-15.73,15.72h0v62.08c0,8.68,7.05,15.72,15.73,15.72h60.95c7.2,5.1,16.78,11.72,19.68,12.92,1.4,.58,2.05,.23,2.22,.12,.76-.48,.84-1.63,.87-2.17,.14-2.76-.08-7.11-.3-10.87h.02c8.69,0,15.73-7.03,15.73-15.72V18.44c0-8.69-7.05-15.73-15.73-15.72h0Zm-13.93,60.1c-.11,1.17-.71,2.25-1.66,2.95-8.13,4.84-16.32,9.58-24.58,14.2-1.02,.44-2.17,.41-3.16-.07-8.26-4.62-16.46-9.35-24.6-14.17-.9-.64-1.48-1.64-1.58-2.74-.12-9.46-.12-18.92,0-28.38,.09-1.1,.66-2.1,1.56-2.75,8.22-4.87,16.5-9.63,24.84-14.29,.93-.41,1.99-.4,2.91,.04,8.25,4.63,16.45,9.35,24.6,14.16,.96,.69,1.58,1.77,1.7,2.95,.18,4.68,.08,9.37,.08,14.05h0c0,4.69,.1,9.37-.08,14.05h0Z" fill="#fff"/>
      <path id="_패스_852" data-name="패스 852" d="M54.2,49.12c0,4.79-.03,19.55-.03,19.55l5.96,4.43h0l5.95-3.95c.17-.89,.17-.93,.17-.93h0l-.06-20h0s-.07-1.01-.07-1.04c-.51-2.9-3.3-3.72-9.67-7.86-2.6-1.69-6.18-4.19-8.38-5.46-.07-.04-2.1-1.22-2.1-1.22l-5.48,2.97-.5,.61s-.15,3.97-.22,6.48c-.06,2.15-.17,6.19-.08,11.18,.05,2.95,.19,7.03,.19,7.03l5.33,3.68v-23.6c3.87,2.08,5.82,3.21,6.89,3.88l2.1,1.31v2.95Z" fill="#fff"/>
    </g>
  </g>
</svg>