<?xml version="1.0" encoding="UTF-8"?>
<svg id="_레이어_2" data-name="레이어 2" xmlns="http://www.w3.org/2000/svg" viewBox="0 0 95 79">
  <g id="Logo">
    <g id="symbol_08_04_0004_01" data-name="symbol 08 04 0004 01">
      <path id="_패스_1478" data-name="패스 1478" d="m93.5,24.05c0,4.33-.78,8.62-2.27,12.68-1.71,4.08-4.24,7.77-7.43,10.83-4.57,4.32-9.39,8.36-14.45,12.09-5.74,4.48-11.56,8.88-17.11,13.56-1.22,1.03-2.47,2.03-3.69,3.06-.38.4-1.01.42-1.41.04-.02-.02-.04-.04-.06-.07-4.12-3.49-8.31-6.89-12.58-10.23-5.66-4.44-11.48-8.72-16.98-13.32-3.61-2.87-6.86-6.16-9.67-9.82-2.69-3.69-4.45-7.97-5.12-12.49-.72-3.75-.72-7.6,0-11.35.7-3.09,2.15-5.96,4.22-8.35,3.58-4.14,8.5-6.88,13.91-7.74,4.88-.96,9.93-.5,14.57,1.31,4.7,1.84,8.79,4.98,11.8,9.05.6.79.63.8,1.26-.02,2.29-3.03,5.17-5.57,8.46-7.48,8.1-4.43,17.9-4.42,25.98.05,4.62,2.59,8.08,6.84,9.67,11.89.58,2.06.89,4.18.93,6.32" fill="#fff"/>
      <rect id="_사각형_523" data-name="사각형 523" width="95" height="79" fill="none"/>
    </g>
  </g>
</svg>