<?xml version="1.0" encoding="UTF-8"?>
<svg id="Layer_2" data-name="Layer 2" xmlns="http://www.w3.org/2000/svg" viewBox="0 0 124 124">
  <g id="Logo">
    <g id="symbol_06_02_0007_01" data-name="symbol 06 02 0007 01">
      <path id="_합치기_52" data-name="합치기 52" d="m52,112.99h-28.15c-1.98,0-2.48-.5-2.48-2.48,0-13.78,0-27.56,0-41.34-.01-.31,0-.62.02-.93.05-.82.7-1.47,1.52-1.52.85-.15,1.67.39,1.85,1.24.1.46.13.92.1,1.38,0,12.88,0,25.77,0,38.66v1.37h26.46c.02-.41.06-.83.06-1.24,0-3.27,0-6.54,0-9.81,0-3.7,1.36-5.45,5-6.31v-6.14c0-2.17.43-2.61,2.57-2.61h8.06c4.48,0,8.95,0,13.44,0,.58,0,1.16-.06,1.73-.21,1.13-.2,1.94-1.19,1.92-2.33.03-2.56.08-5.14-.02-7.7-.07-1.97-1.52-2.79-3.94-2.41-.06.88-.17,1.76-.34,2.62-.62,2.6-2.93,4.44-5.6,4.47-10.79.04-21.57.04-32.35,0-3.11-.02-5.67-2.48-5.8-5.59-.12-2.13-.11-4.29-.03-6.42.04-3.33,2.77-6.01,6.1-5.97.08,0,.15,0,.23,0,8.21-.02,16.43,0,24.65,0,2.1,0,4.21,0,6.31,0,4.17,0,6.62,2.39,6.74,6.53,0,.19.02.38.04.72.48,0,.93,0,1.38,0,3.2-.07,5.88,2.39,6.09,5.59.19,2.76.19,5.53.02,8.28-.25,3.43-3.16,6.05-6.6,5.94-6.54.01-13.08.01-19.62,0h-1.37v5.14c.91.33,1.79.74,2.64,1.21,1.31.85,2.07,2.32,2,3.88v12.41h34.12v-39.67c0-.31,0-.62,0-.93.04-1.36.69-2.13,1.8-2.11,1.06.02,1.7.75,1.7,2.07.01,14.05.01,28.1,0,42.16,0,1.44-.63,2.05-2.08,2.05-12.31,0-24.61,0-36.91,0-1.54,0-2.14-.66-2.15-2.39-.02-4.28,0-8.56,0-12.85,0-1.87-.21-2.08-2.06-2.09-.78,0-1.56,0-2.34,0-1.47,0-1.79.3-1.8,1.77-.02,3.73,0,7.47,0,11.21,0,.86,0,1.71-.05,2.56,0,.97-.77,1.76-1.73,1.77-.03,0-.05,0-.08,0-.26.02-.52.03-.79.03h-.25Zm21.69-38.77c1.38.18,2.65-.79,2.84-2.18.03-.2.03-.41,0-.62.02-1.79.02-3.58,0-5.37.15-1.41-.87-2.67-2.28-2.82-.19-.02-.37-.02-.56,0-10.46-.02-20.92-.02-31.39,0-1.4-.14-2.64.88-2.78,2.28-.02.16-.02.32,0,.48-.04,1.71-.02,3.42,0,5.13.02,2.24.88,3.09,3.13,3.09,5.13,0,10.27,0,15.4,0,5.21,0,10.43.01,15.64,0h0ZM12.4,57.42c-.73-3.09.48-6.32,3.07-8.16,2.3-1.86,4.61-3.7,6.92-5.55,12.51-10.03,25.01-20.06,37.52-30.1,1.85-1.48,1.98-1.49,3.88.03,6.07,4.87,12.13,9.74,18.2,14.61v-15.75c0-.95.77-1.72,1.72-1.72h15.81c.95,0,1.72.77,1.71,1.72v31.18c2.21,1.77,4.42,3.55,6.64,5.31,2.76,2.21,4.15,4.96,3.37,8.49-1.14,5.2-6.79,7.25-11.16,4.06-2.07-1.51-4.04-3.19-6.03-4.79-10.44-8.38-20.89-16.76-31.33-25.13-.27-.21-.55-.42-.9-.68-9.62,7.71-19.18,15.37-28.69,22.99-3.13,2.5-6.21,5.07-9.41,7.49-1.33,1.04-2.96,1.62-4.64,1.64-3.29-.02-6.09-2.39-6.67-5.63h0ZM60.77,17.4c-8.17,6.61-16.37,13.19-24.58,19.75-6.16,4.94-12.33,9.88-18.49,14.83-1.22.82-2.02,2.14-2.17,3.6-.02,1.51.85,2.9,2.21,3.56,1.11.65,2.51.55,3.52-.25.52-.35,1-.75,1.48-1.13,12.45-9.98,24.91-19.96,37.36-29.94,1.48-1.19,1.98-1.19,3.46,0,9.23,7.4,18.46,14.8,27.69,22.21,3.52,2.82,7.03,5.67,10.57,8.46,1.8,1.42,3.8,1.32,5.15-.14,1.47-1.5,1.46-3.9,0-5.39-.39-.43-.82-.82-1.29-1.18-14.27-11.45-28.53-22.9-42.79-34.36-.29-.28-.67-.46-1.07-.5-.4.04-.77.22-1.06.5h0Zm24.66,13.59c4.12,3.31,8.25,6.62,12.38,9.92V14.21h-12.38v16.79Z" fill="#fff"/>
      <rect id="_사각형_462" data-name="사각형 462" width="124" height="124" fill="none"/>
    </g>
  </g>
</svg>