<?xml version="1.0" encoding="UTF-8"?>
<svg id="_레이어_2" data-name="레이어 2" xmlns="http://www.w3.org/2000/svg" viewBox="0 0 258 216">
  <g id="Logo">
    <g id="symbol_17_02_0004_02" data-name="symbol 17 02 0004 02">
      <path id="_패스_1170" data-name="패스 1170" d="m97.95,167.18c-14.53-15-19.96-23.97-22.17-29.47-1.44-3.49-3.17-6.85-5.18-10.04-4.02-6.41-7.09-8.93-8.53-10.01-2.36-1.73-4.96-3.12-7.71-4.11-15.61-6.04-23.47-8.9-26.74-10.58-6.36-3.26-17.83-9.13-18.28-17.92-.3-5.95,4.48-12.56,8.69-12.61,2.9-.04,3.79,3.05,8.39,7.79.8.82,14.72,15.07,27.43,11.69,2.15-.58,4.19-1.54,6-2.84,1.03-.82,1.96-1.76,2.77-2.81,1.64-2.03,2.79-4.41,3.37-6.96.95-4.28,1.05-8.7,1.83-13.06,1.09-6.1,4.51-7.62,10.51-7.66,8.22-.05,10.81,1.86,9.84,10.58-2.33,20.93-4.04,42.1,7.09,62.02,9.49,16.97,22.56,29.87,42.79,35.71,13.18,1.23,26.44,1.21,39.61-.04,4.22-1.5,8.32-3.33,12.26-5.46,8.6-4.63,16.33-10.73,22.84-18,2.73-3.12,5.14-6.51,7.2-10.11,2.77-4.85,4.85-10.05,6.17-15.48,4.57-15.24,4.39-23.73,3.89-27.9-1.68-13.78-2.67-17.81-2.67-17.81-.23-.99-.4-2-.5-3.01-.33-3.19-.7-6.45,1.19-8.39,1.15-1.18,3.1-1.92,6.31-1.9,4.4.02,8.47-.06,10.87,2.11.68.61,1.16,2.67,2.23,6.62.43,1.6.92,3.48,1.1,4.27,4.08,17.93,1.14,37.69,1.14,37.69-1.5,10.01-4.36,19.76-8.49,29-11.37,20.74-19.78,28.25-25.66,30.94-2.26,1.03-8.49,3.34-10.64,8.7-1.21,3.01-.4,5.15-2.27,7.11-2.86,2.99-8.72,2.01-11.05,1.89-19.03-.96-38.1-.95-57.13.01-5.1.1-10.2.25-15.3.27-5.18.02-9.18-.52-8.71-7.21.03-.43.02-.86-.04-1.28-.1-.63-.27-1.25-.51-1.83-.93-2.15-4.08-4.18-4.08-4.18-2.71-1.77-5.33-3.69-7.83-5.75" fill="#fff"/>
      <path id="_패스_1171" data-name="패스 1171" d="m97.26,7.66c40.45,0,80.9.01,121.35.04,5.75-.02,11.5.27,17.23.87,9.08,1,13.64,7.07,12.11,16.39-.74,3.69-.61,7.51.37,11.14,2.82,9.67-2.01,14.46-13.01,12.79-3.65-.73-7.24-1.76-10.73-3.08-8.67-2.85-17.35-3.19-26.04-.18-10.32,3.57-20.41,3.75-30.76-.4-7.72-3.12-16.4-2.73-23.81,1.06-8.83,4.51-17.1,3.62-25.43.22-9.79-4.23-20.94-4.04-30.58.53-3.99,1.98-8.49,2.66-12.89,1.95-7.17-1.32-12.51-3.66-8.59-11.98,2.4-4.9,2.92-10.51,1.46-15.76-2.75-9.28,3.05-12.22,10.89-13.18,6.04-.74,12.28-.15,18.43-.15v-.25" fill="#fff"/>
      <path id="_패스_1172" data-name="패스 1172" d="m95.19,208.59c-3.76-.1-7.53-.34-11.29-.26-6.6.13-14.11-1.08-14.5-7.53-.49-8.09,8.51-4.63,13.46-6.05,33.15,3.07,66.25,5.8,99.67,2.67,17.22-1.61,34.71.12,51.99-2.18,4.73-.63,11.05-.05,11.26,5.41.21,5.6-6.23,7.56-11.2,7.4-17.07-.55-33.9,3.33-50.97,1.96-10.96-1.17-22.02-1.19-32.99-.03-18.53,1.28-36.95-.88-55.42-1.38" fill="#fff"/>
      <rect id="_사각형_521" data-name="사각형 521" width="258" height="216" fill="none"/>
    </g>
  </g>
</svg>