<?xml version="1.0" encoding="UTF-8"?>
<svg id="_레이어_2" data-name="레이어 2" xmlns="http://www.w3.org/2000/svg" viewBox="0 0 113 113">
  <g id="Logo">
    <g id="symbol_21_02_0007_01-2" data-name="symbol 21 02 0007 01-2">
      <path id="_패스_1311" data-name="패스 1311" d="m109.24,35.99c.16-3.22-2.02-6.68-5.62-6.62-.91.01-1.8.21-2.63.58-7.82-13.52-21.46-23.56-37.12-25.88C18.48-2.33-12.39,48.02,13.93,85.6c1.04,1.47,2.16,2.88,3.35,4.23-1.99,2.59-1.72,6.26.61,8.54,2.92,3.28,6.79,2.71,8.65-.06,20.27,14.53,49.39,14.05,67.8-5.26,12.93-13.36,16.99-33.55,11.74-51.18,2.14-1.16,3.38-3.47,3.16-5.89M22.03,98.91c-2.26.46-4.46-1-4.91-3.26-.09-.46-.11-.94-.04-1.4.34-2.49,2.44-4.37,4.96-4.42,2.41-.04,5.42,1.6,5.42,4.42.01,2.89-2.99,4.38-5.42,4.66m83.62-29.67c-6.46,22.32-28.82,38.47-52.06,37.4-9.57-.32-18.83-3.52-26.56-9.18.45-1.01.66-2.11.62-3.21.16-3.22-2.02-6.68-5.62-6.62-1.46,0-2.88.51-4,1.45-4.07-4.81-7.13-10.4-9-16.41C.67,46.49,14.68,18.41,40.63,9.35c21.95-7.91,47.91,1.23,59.98,20.79-2.99,1.77-3.98,5.63-2.21,8.62.3.5.67.96,1.09,1.37,1.98,2.22,4.39,2.67,6.32,1.88,2.56,8.9,2.51,18.35-.15,27.22m-2.03-28.58c-2.26.46-4.46-1.01-4.91-3.26-.09-.46-.11-.93-.04-1.4.34-2.49,2.44-4.37,4.96-4.42,2.41-.04,5.42,1.6,5.42,4.42.01,2.89-2.99,4.38-5.42,4.67" fill="#fff"/>
      <rect id="_사각형_696" data-name="사각형 696" width="113" height="113" fill="none"/>
    </g>
  </g>
</svg>