<?xml version="1.0" encoding="UTF-8"?>
<svg id="_레이어_2" data-name="레이어 2" xmlns="http://www.w3.org/2000/svg" viewBox="0 0 112 112">
  <g id="Logo">
    <g id="symbol_16_02_0002_01" data-name="symbol 16 02 0002 01">
      <rect id="_사각형_208" data-name="사각형 208" width="112" height="112" fill="none"/>
      <path id="_패스_587" data-name="패스 587" d="M96.73,3.65H15.48c-6.9,0-12.5,5.6-12.5,12.5V97.4c0,6.9,5.6,12.5,12.5,12.5H96.73c6.9,0,12.5-5.6,12.5-12.5V16.15c0-6.9-5.6-12.5-12.5-12.5h0ZM59.65,24.78c.68-1.12,1.6-2.08,2.69-2.81,1.96-1.34,3.05-.69,3,1.56,0,3.18-1.86,6.07-4.77,7.36-.76,.37-1.29,.5-1.69,.26-1.11-.66-.53-4.05,.76-6.37Zm-21.54-6.55c.49-.61,1.22-.99,2-1.04,6.13-1.05,16.01,6.47,16.35,12.59,.07,.57-.08,1.15-.43,1.62-1.62,2.02-7.54,.23-11.34-2.17,0,0-5.26-3.31-6.71-8.97-.25-.67-.2-1.41,.13-2.03Zm-6.6,20.23c5.37-6.73,14.32-8.38,21.53-3.66,2.36,1.54,3.73,1.74,6.1-.24,5.34-4.47,13.42-4.26,19.24-.11,5.59,3.98,7.82,11.22,5.41,18.54-.56,2.81-2.46,4.97-4.5,7.08h0c-.32,.33-.65,.67-.97,1h.03s-7.2,7.73-7.2,7.73c-2.93,3.11-5.89,6.18-8.84,9.27-3.31,3.47-5.98,3.64-9.49,.38-3.03-2.81-6.04-5.62-9.05-8.45l-9.14-8.74c-.51-.5-1.03-.99-1.54-1.5-5.87-5.67-6.55-14.84-1.57-21.31h0Zm11.33,62.32c-11.22-1.61-21.49-7.18-28.95-15.71,.2-.48,.33-.74,.33-.74,2.76-5.65,6.6-10.71,11.31-14.88,2.59-2.34,5.43-4.4,8.45-6.15l6.66,6.43c-3.97,1.98-7.61,4.59-10.76,7.71,4.86,2.07,10.05,2.28,15.32,2.11,1.66-.05,3.33-.07,4.99,0,.66,.02,1.52,.05,1.7,.92,.17,.83-.52,1.25-1.11,1.62-1.19,.65-2.45,1.18-3.74,1.58-.87,.29-1.71,.68-2.49,1.17-.39,.43-.72,.91-.97,1.43h0c3.22-.6,6.51-.64,9.74-.11,1.39,.28,2.73,.74,4.01,1.36-1.84,.37-3.52,1.3-4.81,2.65-.57,.61-2.84,3.05-2.22,5.92,.27,1.09,.84,2.07,1.66,2.84,1,.98,2.27,1.62,3.64,1.85-4.23,.59-8.52,.59-12.75,0Zm49.58-9.01c-5.79,4.33-12.49,7.28-19.59,8.65-2.84,.52-5.73,.71-8.62,.57-2.85-.07-5.66-.7-8.27-1.86-.64-.28-1.24-.64-1.8-1.07-1.54-1.2-1.86-3.41-.73-5,1.81-3.16,6.04-4.83,7.45-5.37,2.62-.91,5.33-1.56,8.08-1.92l2.69-.39-.91-.41c-1.99-.9-4.78-1.93-4.78-1.93-.87-.3-1.67-.8-2.33-1.44-.15-.24-.25-.49-.32-.76-.04-.14-.05-.29-.04-.44,.08-.66,.62-.81,1.14-.9,.56-.1,1.12-.17,1.69-.19,4.15-.2,8.33,.2,12.45-.61,2.44-.41,4.81-1.12,7.07-2.12-3.66-3.22-7.83-5.81-12.34-7.67l6.87-6.93c4.86,2.48,9.27,5.76,13.04,9.69,3.23,3.34,5.99,7.09,8.21,11.17-2.58,3.37-5.61,6.38-8.99,8.95h0Z" fill="#fff"/>
      <path id="_패스_588" data-name="패스 588" d="M49.88,50.97c1.32,0,2.38-1.07,2.38-2.38s-1.07-2.38-2.38-2.38-2.38,1.07-2.38,2.38,1.07,2.38,2.38,2.38h0Z" fill="#fff"/>
      <path id="_패스_589" data-name="패스 589" d="M62.95,50.97c1.32,0,2.38-1.07,2.39-2.38,0-1.32-1.07-2.38-2.38-2.39-1.32,0-2.38,1.07-2.39,2.38h0c0,1.32,1.07,2.38,2.38,2.39Z" fill="#fff"/>
      <path id="_패스_590" data-name="패스 590" d="M47.74,54.02c-.38,.48-.29,1.18,.19,1.56,2.44,1.9,5.44,2.92,8.53,2.91,1.54,0,3.07-.24,4.54-.71,1.42-.45,2.76-1.13,3.96-2.01,.49-.37,.58-1.07,.21-1.55-.36-.48-1.03-.58-1.52-.24-1.01,.74-2.14,1.31-3.34,1.69-1.87,.6-3.85,.75-5.79,.45-1.91-.31-3.71-1.1-5.24-2.29-.48-.38-1.18-.29-1.56,.19Z" fill="#fff"/>
    </g>
  </g>
</svg>