<?xml version="1.0" encoding="UTF-8"?>
<svg id="Layer_2" data-name="Layer 2" xmlns="http://www.w3.org/2000/svg" viewBox="0 0 78 78">
  <g id="Logo">
    <g id="symbol_15_04_0003_01" data-name="symbol 15 04 0003 01">
      <path id="_패스_1312" data-name="패스 1312" d="m38.17,26.39c1.66.7,3.58-.08,4.28-1.74.7-1.66-.08-3.58-1.74-4.28-1.66-.7-3.58.08-4.28,1.74-.3.71-.34,1.5-.11,2.23.28.93.96,1.68,1.86,2.05" fill="#fff"/>
      <path id="_패스_1313" data-name="패스 1313" d="m40.72,18.13v-6.51c0-.7-.57-1.27-1.27-1.27-.7,0-1.27.57-1.27,1.27v6.51c.84-.2,1.71-.2,2.54,0" fill="#fff"/>
      <path id="_패스_1314" data-name="패스 1314" d="m45.89,62.4c-.77-2.34-2.75-4.08-5.17-4.54v-29.25c-.84.17-1.7.17-2.54,0v29.25c-2.42.46-4.4,2.2-5.17,4.54-5.4,1.07-9.17,3.43-9.17,6.18h31.22c0-2.75-3.76-5.11-9.17-6.18" fill="#fff"/>
      <path id="_패스_1315" data-name="패스 1315" d="m17.09,38.62l-4.77-14.28h21.82c-.06-.32-.09-.64-.09-.97,0-.53.08-1.07.24-1.58H8.58c-.7,0-1.27.57-1.27,1.27s.57,1.27,1.27,1.27h.65l-4.77,14.28c-.05.16-.07.33-.04.5.15,2.96,2.93,5.32,6.35,5.32s6.17-2.33,6.35-5.26c.04-.18.03-.38-.03-.56m-6.31-12.21l3.84,11.49h-7.67l3.84-11.49Z" fill="#fff"/>
      <path id="_패스_1316" data-name="패스 1316" d="m74.42,38.62l-4.77-14.28h.65c.7,0,1.27-.57,1.27-1.27s-.57-1.27-1.27-1.27h-25.71c.16.51.24,1.04.24,1.58,0,.32-.03.65-.09.97h21.82l-4.77,14.28c-.06.17-.07.35-.04.53.16,2.95,2.94,5.29,6.35,5.29s6.18-2.35,6.35-5.29c.03-.18.02-.36-.04-.53m-6.31-12.21l3.84,11.49h-7.67l3.84-11.49Z" fill="#fff"/>
      <rect id="_사각형_637" data-name="사각형 637" width="78" height="78" fill="none"/>
    </g>
  </g>
</svg>