<?xml version="1.0" encoding="UTF-8"?>
<svg id="Layer_2" data-name="Layer 2" xmlns="http://www.w3.org/2000/svg" viewBox="0 0 144 144">
  <g id="Logo">
    <g id="symbol_18_03_0003_01" data-name="symbol 18 03 0003 01">
      <path id="_합치기_34" data-name="합치기 34" d="m2,114.37c0-7.53,12.15-14.18,30.63-18.1,7.88,14.08,22.75,22.8,38.89,22.82,16.13-.01,31-8.74,38.88-22.82,18.48,3.92,30.63,10.57,30.63,18.1,0,12.06-31.12,21.84-69.51,21.84S2,126.43,2,114.37Zm30.29-36.08c1.17,14.04,10.82,26.98,24.11,31.81,24.37,9.25,50.78-9.17,50.67-35.08.09-20.04-15.67-35.59-34.09-37.35-.49-.04-.99-.08-1.48-.12-5.14-.27-10.29.54-15.1,2.37-13.43,5.14-22.77,17.46-24.1,31.78,1.63-20.82,19.34-36.36,39.2-36.8V7.74c0-.41.33-.74.74-.74.41,0,.74.33.74.74h0v1.34l19.09,6.71-19.09,6.72v12.4c4.61.08,9.18.97,13.48,2.62,15.53,5.96,25.8,20.86,25.84,37.5-.04,16.64-10.3,31.55-25.84,37.51-4.5,1.73-9.28,2.62-14.1,2.62-20.22,0-38.45-15.73-40.08-36.87h0Zm-.12-3.27c0,.86.02,1.7.07,2.54-.06-.84-.08-1.69-.07-2.54h0Zm.12-3.31c-.09,1.09-.13,2.19-.12,3.31-.02-1.11.03-2.22.12-3.31Zm19.42-6.55c-.84-.1-1.44-.86-1.34-1.7.1-.84.86-1.44,1.7-1.34.84.1,1.44.86,1.34,1.7-.09.77-.74,1.36-1.52,1.36-.06,0-.12,0-.18-.01Zm-9.58-7.32c0-1.36,1.11-2.47,2.47-2.47h0c1.36,0,2.47,1.1,2.47,2.47h0c0,1.36-1.11,2.47-2.47,2.47h0c-1.36,0-2.47-1.11-2.47-2.47h0Zm4.94-7.57c0-1.64,1.33-2.97,2.97-2.97,1.64,0,2.97,1.33,2.97,2.97h0c0,1.65-1.33,2.97-2.97,2.97-1.64,0-2.97-1.33-2.97-2.97Z" fill="#fff"/>
      <rect id="_사각형_298" data-name="사각형 298" width="144" height="144" fill="none"/>
    </g>
  </g>
</svg>