<?xml version="1.0" encoding="UTF-8"?>
<svg id="_레이어_2" data-name="레이어 2" xmlns="http://www.w3.org/2000/svg" viewBox="0 0 278 250">
  <g id="Logo">
    <g id="symbol_18_02_0004_01" data-name="symbol 18 02 0004 01">
      <path id="_패스_1218" data-name="패스 1218" d="m20.79,188.63c-3.21,0-6.98-.03-10.76,0-3.46.03-4.78-1.17-2.87-4.55,1.67-2.95,3.16-5.67,7.3-5.98,32.82-2.48,64.42,1.87,94.17,16.59,9.44,4.61,18.14,10.62,25.79,17.82,2.96,2.81,5,3.39,8.38.39,26.29-23.32,57.79-32.9,92.23-35.01,8.99-.44,18-.37,26.98.21,2.31.12,4.73.1,6.28,2.22,1.46,2.01,3.64,4.17,2.77,6.69-.97,2.79-4.01,1.56-6.14,1.54-33.88-.38-66.32,5.6-96.5,21.69-6.53,3.48-12.13,8.21-17.82,12.85-2.41,1.96-2.74,4.44-2.79,7.29-.08,5.55-3.72,7.86-8.63,7.95-4.88.1-9.01-2.1-9.17-7.46-.14-5.13-2.9-7.88-6.47-10.73-21.36-17.02-46.44-24.6-72.8-28.93-9.72-1.6-19.49-2.96-29.96-2.59" fill="#fff"/>
      <path id="_패스_1219" data-name="패스 1219" d="m33.43,165.28c-4.87,0-8.85.06-12.83-.03-1.78-.04-4.4.49-4.61-2.01-.23-2.76,2.41-2.91,4.5-3.22,11.7-1.71,23.42-1.09,35.08.18,25.8,2.82,50.02,10.11,71.16,25.91,4.14,3.1,7.48,9.36,12.36,8.75,4.23-.53,7.79-5.81,11.79-8.8,21.45-16.08,46.04-23.56,72.38-25.94,10.4-.94,20.86-2.23,31.31-.27,2.75.51,7.3-.26,6.98,3.41-.35,3.95-4.86,1.92-7.39,1.87-26.7-.59-52.64,2.77-77.38,13.46-12.32,5.35-23.66,12.72-33.54,21.82-3.54,3.23-5.64,3.45-9.29.07-22.05-20.47-48.96-30-78.23-33.9-7.68-1.02-15.41-1.73-22.29-1.3" fill="#fff"/>
      <path id="_패스_1220" data-name="패스 1220" d="m60.2,147.1v-14.11c1.07-4.18,3.33-7.47,7.33-9.27,1.22-.41,1.97-1.64,1.78-2.91-.05-19.36-.06-38.72-.03-58.08,0-2.96,0-3.02-3.01-2.96-2.75.06-4.92-.76-6.07-3.45v-14.11c.78-1.63,2.21-2.86,3.94-3.38,23.92-9.09,47.84-18.2,71.74-27.35,1.86-.75,3.93-.73,5.78.04,17.03,6.53,34.06,13.03,51.11,19.5,7.02,2.67,14.03,5.35,21.05,8.02,2.1.8,3.45,2.21,3.48,4.54.05,3.83.05,7.67,0,11.5-.02,2.13-1.5,3.96-3.58,4.42-1.15.23-2.33.31-3.51.24-2.03.02-2.09.07-2.09,2.06,0,19.78,0,39.55-.02,59.33-.12,1.07.52,2.08,1.54,2.43,4.94,2.39,7.61,6.34,7.68,11.9.04,3.01.01,6.03,0,9.05,0,4.1-1.66,5.75-5.75,5.75-48.6,0-97.2.01-145.79.03-2.6,0-4.44-.88-5.57-3.21m78.51-87.34c-13.18,0-26.36,0-39.54-.01-1.32,0-2.08.2-2.07,1.82.04,19.92.05,39.85.01,59.77-.1.98.51,1.89,1.45,2.19,4.01,1.67,6.87,5.28,7.59,9.56.25,1.77.35,3.56.31,5.34.05,2.38.06,2.43,2.39,2.43h59.92c.31,0,.61-.02.92,0,.98.06,1.4-.41,1.39-1.37-.02-1.43-.02-2.86.02-4.29-.04-5,2.93-9.54,7.52-11.52,1.16-.42,1.87-1.58,1.7-2.8-.04-19.57-.05-39.13-.03-58.7q0-2.41-2.5-2.42h-39.08m-.13-9.65h67.27c1.91,0,2.38-.6,2.01-2.4-.2-.96-1.02-1.08-1.7-1.34-21.85-8.33-43.7-16.67-65.55-25-1.22-.5-2.6-.5-3.82.02-13.78,5.29-27.56,10.54-41.36,15.77-8.06,3.07-16.12,6.15-24.18,9.23-.69.26-1.49.4-1.69,1.36-.37,1.77.11,2.36,2.05,2.36h66.97m-59.85,40.87c0,9.81,0,19.61,0,29.42,0,2,.05,2.04,2.08,2.05,1.53,0,3.07,0,4.6,0q2.27,0,2.27-2.31c0-19.36,0-38.72,0-58.08,0-.31-.02-.61,0-.92.05-.98-.43-1.39-1.38-1.38-1.84.02-3.68,0-5.52,0-1.97,0-2.04.09-2.05,2.1,0,9.71,0,19.41,0,29.11m119.95.31c0-9.86-.02-19.72.03-29.58,0-1.45-.42-2.06-1.92-1.97-1.58.09-3.17.02-4.75.02-2.32,0-2.32,0-2.32,2.29v55.48c0,1.12.04,2.25-.01,3.37-.05,1.1.38,1.59,1.52,1.56,1.74-.05,3.47,0,5.21-.01q2.24,0,2.24-2.19v-28.97m-115.58,49.56c4.08,0,8.16-.02,12.24.01,1.11,0,1.59-.41,1.54-1.53s.01-2.24-.02-3.37c-.06-2.49-1.39-4.01-3.85-4.04-6.53-.07-13.06-.07-19.59,0-2.41.02-3.72,1.43-3.89,3.86-.07,1.07.04,2.15-.05,3.21-.11,1.38.39,1.91,1.82,1.88,3.93-.08,7.86-.03,11.78-.03m110.93,0c4.08,0,8.16-.03,12.24.02,1.19.01,1.68-.43,1.61-1.62-.06-1.17.04-2.35-.04-3.52-.16-2.35-1.45-3.77-3.78-3.8-6.58-.08-13.16-.08-19.74,0-2.39.03-3.72,1.54-3.8,3.93-.04,1.07.05,2.15-.03,3.21-.09,1.31.39,1.82,1.75,1.8,3.93-.07,7.86-.02,11.79-.02" fill="#fff"/>
      <path id="_패스_1221" data-name="패스 1221" d="m168.76,96.66c0,5.97.02,11.93,0,17.9-.01,3.52-2.97,5.69-6.11,4.29-7.25-3.23-14.14-2.08-20.8,1.55-1.9,1.18-4.3,1.17-6.19-.01-6.62-3.55-13.48-4.75-20.68-1.56-3.17,1.4-6.2-.7-6.21-4.17-.02-12.03,0-24.06-.02-36.08-.09-1.94,1.07-3.72,2.89-4.41,7.66-3.52,15.45-3.37,23.13-.35,2.52,1.14,5.4,1.16,7.93.04,7.23-3.09,15.4-3.09,22.63.02,2.26.74,3.71,2.95,3.48,5.32-.11,5.82-.03,11.65-.04,17.48m-51.33-1.7c0,4.13.02,8.26-.02,12.4-.01,1.01.31,1.34,1.31,1.19,4.89-.75,9.89-.31,14.58,1.26.82.27,1.11.05,1.11-.81-.01-8.31-.02-16.62,0-24.93.03-.63-.36-1.2-.96-1.4-4.51-2.08-9.55-2.72-14.43-1.83-.94.03-1.67.82-1.64,1.76,0,.08.01.16.03.24.07,4.04.03,8.07.03,12.11m42.65.11c0-4.04-.05-8.08.03-12.12.18-.99-.47-1.93-1.46-2.11-.11-.02-.22-.03-.33-.03-4.8-.82-9.74-.19-14.17,1.82-.72.27-1.16,1-1.06,1.77.02,8.13.02,16.25,0,24.37,0,1,.19,1.35,1.29.99,4.6-1.55,9.5-1.97,14.3-1.22,1.02.16,1.44-.08,1.42-1.21-.06-4.09-.02-8.17-.02-12.26" fill="#fff"/>
      <rect id="_사각형_608" data-name="사각형 608" width="278" height="250" fill="none"/>
    </g>
  </g>
</svg>