<?xml version="1.0" encoding="UTF-8"?>
<svg id="Layer_2" data-name="Layer 2" xmlns="http://www.w3.org/2000/svg" viewBox="0 0 246 170">
  <g id="Logo">
    <g id="symbol_18_02_0003_02" data-name="symbol 18 02 0003 02">
      <path id="_합치기_33" data-name="합치기 33" d="m216.32,161.31c-2.78-.55-4.79-3.12-5.46-6.46-1.33-.3-2.59-.87-3.69-1.68-1.36-.94-2.3-2.38-2.6-4-.68-4.15,3.38-8.27,9.08-9.21,1.87-.32,3.79-.23,5.62.25,1.13.29,2.2.78,3.17,1.44.05.03.09.06.14.1.11.08.23.17.34.26s.23.19.34.3c.09.08.18.17.27.26s.17.18.25.27c.1.11.2.23.29.36.09.11.17.22.25.34.03.05.06.09.09.14,1.59,2.66,2.09,5.82,1.4,8.84-1.01,5.17-4.64,8.9-8.4,8.9-.36,0-.73-.04-1.09-.11Zm-195.49-8.79c-.69-3.02-.19-6.18,1.4-8.84.03-.05.06-.1.09-.14.08-.12.16-.23.25-.34s.19-.24.29-.36c.08-.09.17-.18.25-.27s.17-.18.27-.26c.11-.11.23-.2.34-.3s.22-.17.34-.26c.05-.03.09-.06.14-.09,1.5-1.01,3.22-1.62,5.02-1.79,1.26-.14,2.52-.1,3.77.11,5.7.93,9.77,5.06,9.08,9.21-.23,1.28-.87,2.45-1.82,3.34-1.26,1.16-2.8,1.97-4.48,2.33-.67,3.35-2.68,5.92-5.46,6.46-.36.07-.73.11-1.09.11-3.75,0-7.38-3.73-8.39-8.9Zm208.1.69c-1.02-1.24-.86-3.07.37-4.11,1.07-1.2,2.91-1.3,4.12-.24,1.02,1.24.85,3.07-.38,4.11-.61.61-1.44.96-2.3.98-.68.01-1.33-.25-1.81-.74h0Zm-215.34-.24c-1.23-1.04-1.4-2.87-.38-4.11,1.21-1.06,3.05-.96,4.12.24,1.23,1.04,1.39,2.87.37,4.11-.48.48-1.13.75-1.81.74-.87-.02-1.69-.37-2.31-.98Zm213.73-8.34c-1.02-1.24-.85-3.08.38-4.11,1.07-1.2,2.91-1.3,4.12-.24,1.03,1.24.86,3.07-.37,4.11-.62.61-1.44.96-2.31.98-.68.01-1.33-.25-1.81-.73Zm-212.13-.25c-1.23-1.04-1.4-2.87-.37-4.11,1.21-1.06,3.04-.96,4.12.24,1.23,1.04,1.4,2.87.38,4.11-.48.48-1.13.74-1.81.73-.87-.02-1.7-.37-2.31-.98Zm206.24-5.83c-1.02-1.24-.85-3.08.38-4.11,1.07-1.2,2.91-1.3,4.12-.25,1.02,1.24.86,3.07-.37,4.11-.62.61-1.44.96-2.31.98-.68.01-1.33-.25-1.81-.73h0Zm-200.35-.25c-1.23-1.04-1.4-2.87-.38-4.11,1.21-1.06,3.05-.95,4.12.25,1.23,1.04,1.4,2.87.38,4.11-.48.48-1.13.74-1.81.73-.87-.02-1.7-.37-2.31-.98h0Zm158.02-17.11v-29.54c0-6.76-1.22-13.46-3.62-19.77-.6-1.58-1.27-3.13-2-4.64-.38-.78-.77-1.54-1.19-2.3,6.32-3.19,10.31-9.67,10.32-16.76,0-10.38-8.42-18.8-18.8-18.8h0c-5.63,0-10.96,2.52-14.53,6.87-1.16,1.41-2.11,2.97-2.81,4.65-.97,2.3-1.46,4.77-1.46,7.27,0,.27.03.53.04.8-1.5,2.26-3.34,4.28-5.45,5.97-4.61,3.71-10.36,5.74-16.28,5.73-5.92,0-11.67-2.02-16.28-5.73-2.12-1.7-3.95-3.71-5.45-5.97.01-.27.04-.53.04-.8,0-2.5-.49-4.97-1.46-7.27-.7-1.68-1.65-3.25-2.81-4.65-3.57-4.36-8.9-6.88-14.53-6.87-10.38,0-18.8,8.42-18.8,18.8h0c0,7.09,3.99,13.57,10.32,16.76-.42.76-.81,1.53-1.19,2.3-.73,1.51-1.4,3.06-2,4.64-2.4,6.32-3.63,13.02-3.62,19.77v29.54c-4.55,4.77-7.69,10.71-9.06,17.16l-18.59-11.56c-3.52-2.18-7.5-3.5-11.62-3.85,1.84-6.52,6.15-12.07,12.01-15.47-5.49-4.92-8.62-11.94-8.62-19.31,0-14.38,11.66-26.04,26.04-26.04h0c.78,0,1.55.05,2.31.11-2.71-4.19-4.15-9.07-4.14-14.06,0-14.38,11.66-26.04,26.04-26.05,5.92,0,11.67,2.02,16.28,5.73,3.06-11.37,13.37-19.27,25.14-19.27,11.76,0,22.06,7.9,25.12,19.27,4.61-3.71,10.36-5.74,16.28-5.73,14.38,0,26.04,11.66,26.04,26.05,0,4.99-1.44,9.87-4.14,14.06.76-.06,1.53-.11,2.31-.11,14.38,0,26.04,11.65,26.05,26.03h0c0,7.04-2.84,13.76-7.88,18.65,6.44,3.29,11.23,9.1,13.22,16.05-4.8.04-9.5,1.4-13.58,3.94l-18.59,11.56c-1.37-6.45-4.51-12.39-9.06-17.16h0Zm33.95,15.63c-1.02-1.24-.85-3.08.38-4.11,1.07-1.2,2.91-1.3,4.12-.24,1.02,1.24.86,3.07-.37,4.11-.62.61-1.44.96-2.31.98-.68.01-1.33-.25-1.81-.73Zm-183.59-.25c-1.23-1.04-1.39-2.87-.37-4.11,1.21-1.06,3.05-.96,4.12.24,1.23,1.04,1.39,2.87.37,4.11-.48.48-1.13.74-1.81.73-.87-.02-1.7-.37-2.31-.98h0Zm87.45-7.86c0-2.43,2.87-4.41,6.41-4.41s6.41,1.97,6.41,4.41-2.87,4.41-6.41,4.41-6.41-1.97-6.41-4.41h0Zm22.11-12.79c-.22-.55-.33-1.13-.33-1.72,0-2.58,2.09-4.66,4.66-4.66,2.58,0,4.67,2.09,4.67,4.66,0,1.37-.61,2.66-1.66,3.54-2.31-1.06-4.8-1.68-7.34-1.82h0Zm-40.39-1.72c0-2.58,2.09-4.67,4.67-4.66,2.58,0,4.66,2.09,4.66,4.66,0,.59-.12,1.17-.33,1.72-2.54.14-5.03.76-7.34,1.82-1.05-.88-1.66-2.17-1.66-3.54h0Zm50.74-66.46c.98-1.34,2.21-2.46,3.62-3.32,4.34-2.64,9.84-2.4,13.94.6,5.23,3.83,6.69,11.01,3.37,16.57-.2.34-.41.67-.65.99l-20.29-14.84Zm-73.03,13.85c-3.32-5.56-1.86-12.74,3.37-16.57,4.1-3,9.6-3.24,13.94-.6,1.42.86,2.65,1.99,3.62,3.32l-20.28,14.84c-.23-.33-.45-.66-.65-1Z" fill="#fff"/>
      <rect id="_사각형_296" data-name="사각형 296" width="246" height="170" fill="none"/>
    </g>
  </g>
</svg>