<?xml version="1.0" encoding="UTF-8"?>
<svg id="_레이어_2" data-name="레이어 2" xmlns="http://www.w3.org/2000/svg" viewBox="0 0 198 118">
  <g id="Logo">
    <g id="symbol_12_01_0002_02" data-name="symbol 12 01 0002 02">
      <rect id="_사각형_256" data-name="사각형 256" width="198" height="118" fill="none"/>
      <path id="_패스_689" data-name="패스 689" d="M89.31,32.54c-3.67,.04-7.33,.04-11,.11-12.75,.26-22,9.57-22.05,22.37-.08,17.81-.13,35.62,.05,53.43,.04,3.88-1.06,5.11-5.01,5.07-10.87-.1-10.88,.08-10.88-10.63,0-15.71,.01-31.43-.02-47.14-.03-14.21-8.99-22.96-23.29-23.17-4.09-.06-8.33,1.18-12.28-.92-.31-14.09,8.33-23.21,22.25-23.3,13.25-.08,26.49-.08,39.74,0,13.11,.1,21.36,8.05,22.28,21.24,.01,.33,.02,.67,.03,1.01l.19,1.93Z" fill="#fff"/>
      <path id="_패스_690" data-name="패스 690" d="M193.33,32.5c-4.89,.06-9.78,.11-14.67,.17-11.22,.15-20.98,9.79-21.06,21.12-.12,18.16-.18,36.32,.05,54.47,.05,4.25-1.3,5.33-5.37,5.26-10.51-.17-10.51,.01-10.51-10.13,0-15.36,0-30.73-.02-46.09-.01-16.08-8.49-24.62-24.42-24.64h-8.91c.15-.74,.3-1.48,.45-2.22,.08-.11,.24-.23,.22-.33-.06-.25-.14-.5-.24-.73,1.03-13.15,9.29-20.93,22.52-21.01,12.38-.08,24.76-.02,37.14-.02,16.38,0,24.44,7.86,24.82,24.15Z" fill="#fff"/>
    </g>
  </g>
</svg>