<?xml version="1.0" encoding="UTF-8"?>
<svg id="Layer_2" data-name="Layer 2" xmlns="http://www.w3.org/2000/svg" viewBox="0 0 114 114">
  <g id="Logo">
    <g id="symbol_07_02_0006_02" data-name="symbol 07 02 0006 02">
      <path id="_패스_1520" data-name="패스 1520" d="m98.56,13.23c0-.82,0-1.59-.91-1.98-.78-.34-1.68-.18-2.29.41-1.25,1.02-2.5,2.04-3.75,3.05-3.66,2.96-7.32,5.92-10.98,8.87-.12-.08-.24-.17-.36-.26-6.54-6.8-13.54-13.14-20.95-18.97-2.2-1.77-2.89-1.77-5.22-.12-3.21,2.26-6.43,4.51-9.55,6.9-4.43,3.38-8.77,6.86-13.28,10.4-1.94-1.6-3.98-3.31-6.05-4.98-2.17-1.76-4.33-3.53-6.57-5.19-1.45-1.07-2.42-.58-2.7,1.19-.03.23-.05.47-.05.7-.17,11.31-.45,22.63-.46,33.94-.09,9.01.93,17.99,3.05,26.74,2.23,8.85,5.68,17.14,11.59,24.22,4.14,4.96,8.97,9.02,15.3,10.95,5.19,1.59,10.52,1.66,15.88,1.45,7.31-.25,14.25-3.27,19.4-8.46,6.22-6.17,10.86-13.73,13.56-22.07,3.48-10.11,4.63-20.59,4.66-31.19.03-11.86-.21-23.73-.32-35.59m-60.26,7.44c5.79-4.38,11.61-8.72,17.39-13.12.51-.55,1.37-.57,1.92-.06.03.03.06.06.09.09,6.46,5.13,12.61,10.63,18.43,16.47.54.55,1.03,1.16,1.54,1.74l-20.41,16.5-22.87-18.43c1.32-1.08,2.58-2.19,3.91-3.2m-7.83,71.82c-.18-.25-.44-.59-.68-.95-4.57-7.26-7.61-15.38-8.94-23.86-1.86-10.47-1.8-21.03-1.57-31.6.13-5.93.23-11.86.34-17.79,0-.42,0-.84,0-1.53l34.96,27.95c-.66.6-1.14,1.04-1.63,1.48-5.73,5.17-11.13,10.65-15.43,17.1-4.46,6.7-7.42,13.92-7.54,22.08-.03,2.38.31,4.76.48,7.12m64.55-36.82c-.19,10.52-2.64,20.88-7.19,30.38-2.34,4.86-5.48,9.29-9.28,13.12-6.18,6.2-13.66,8.48-22.26,7.57-4.64-.49-9.16-1.37-13.29-3.66-6.06-3.37-9.05-8.63-9.41-15.44-.46-8.5,2.51-15.94,7.22-22.81,4.8-6.78,10.52-12.86,17.01-18.05,11.02-9.11,22.21-18.01,33.33-27,1.18-.96,2.36-1.91,3.54-2.87l.42.12c0,12.88.28,25.77-.09,38.64" fill="#fff"/>
      <path id="_패스_1521" data-name="패스 1521" d="m26.86,28.56c-3.25,0-5.61,4.01-5.61,9.54s2.36,9.54,5.61,9.54,5.61-4.01,5.61-9.54-2.36-9.54-5.61-9.54m0,15.3c-.44-.09-1.83-1.98-1.83-5.75s1.39-5.67,1.82-5.75c.44.08,1.83,1.98,1.83,5.75s-1.39,5.67-1.82,5.75" fill="#fff"/>
      <path id="_패스_1522" data-name="패스 1522" d="m26.86,49.8c-3.06,0-5.54,2.48-5.55,5.54s2.48,5.54,5.54,5.55,5.54-2.48,5.55-5.54h0c0-3.06-2.48-5.54-5.54-5.55m0,7.3c-.97,0-1.75-.79-1.75-1.75s.79-1.75,1.75-1.75,1.75.79,1.75,1.75c0,.97-.79,1.75-1.75,1.75" fill="#fff"/>
      <rect id="_사각형_554" data-name="사각형 554" width="114" height="114" fill="none"/>
    </g>
  </g>
</svg>