<?xml version="1.0" encoding="UTF-8"?>
<svg id="_레이어_2" data-name="레이어 2" xmlns="http://www.w3.org/2000/svg" viewBox="0 0 194 141">
  <g id="Logo">
    <g id="symbol_03_01_0002_01" data-name="symbol 03 01 0002 01">
      <path id="_패스_856" data-name="패스 856" d="M183.29,87.26c5.53,.03,10,4.54,9.97,10.07-.03,5.53-4.54,10-10.07,9.97-5.53-.03-10-4.54-9.97-10.07,0-.01,0-.02,0-.03,.16-5.47,4.6-9.85,10.07-9.94Zm3.45,10.05c.08-1.85-1.35-3.42-3.21-3.51-.06,0-.13,0-.19,0-1.89-.08-3.49,1.38-3.57,3.27,0,.1,0,.21,0,.31,.05,1.92,1.64,3.45,3.57,3.4,1.89-.04,3.4-1.59,3.4-3.47h0Z" fill="#fff"/>
      <path id="_패스_857" data-name="패스 857" d="M29.2,41.87c4.53,.02,8.18,3.71,8.16,8.24-.02,4.53-3.71,8.18-8.24,8.16s-8.18-3.71-8.16-8.24c0-.01,0-.02,0-.04,.13-4.48,3.76-8.06,8.24-8.13Zm2.82,8.22c.07-1.52-1.11-2.8-2.63-2.87-.05,0-.1,0-.15,0-1.54-.07-2.85,1.13-2.92,2.68,0,.08,0,.17,0,.25,.02,1.57,1.31,2.84,2.88,2.82,1.57-.02,2.84-1.31,2.82-2.88h0Z" fill="#fff"/>
      <path id="_패스_858" data-name="패스 858" d="M160.25,42.63c-4.65-.66-5.85-2.84-3.86-7.12,1.94-3.88,2.6-8.28,1.89-12.56-1.47-8.06-6.22-13.56-14.31-15.84-8.05-2.27-15.41-.34-21.76,5.51-3.98,3.66-5.92,3.27-8.74-1.05-1.68-2.69-3.88-5.03-6.46-6.87-6.76-4.53-14.35-4.82-21.88-.87-7.68,4.02-11.85,10.45-12.26,18.88-.24,4.89-.86,5.45-5.96,6.5-2.22,.43-4.38,1.15-6.42,2.14-10.79,5.49-15.29,17.72-10.46,28.12,1.68,3.63,.6,5.92-3.43,7.21-2.42,.77-4.84,1.53-7.26,2.3-5.69,1.83-11.58,3.21-17.03,5.61-9.99,4.4-16.31,12.25-19.53,22.28-2.42,7.11-2.21,14.84,.59,21.81,.57-.16,1.14-.35,1.68-.59,17.25-9.4,34.49-18.83,51.71-28.28,.89-.63,1.48-1.6,1.62-2.68,.33-3.92,.38-7.84,.57-11.76,.28-5.81,.58-11.62,.89-17.63l8.37,.05c-.38,8.9-.74,17.44-1.12,26.44,5.52-3.01,10.42-5.81,15.43-8.36,1.84-.72,3.04-2.49,3.02-4.46,.77-13.16,1.7-26.32,2.58-39.48,.08-1.27,.27-2.53,.42-3.96l8.23,.24c-.91,13.81-1.81,27.32-2.73,41.34,7.7-4.21,14.81-8.06,21.87-11.99,.64-.47,1.12-1.12,1.39-1.87,1.97-4.48,3.88-8.99,5.82-13.49,2-4.64,4.01-9.27,6.13-14.16l7.59,2.9-7.95,18.85,.5,.44,15.2-8.3,3.98,7.33-15.89,8.67,21,3.65c-.7,2.88-1.31,5.4-1.94,8.02-9.85-1.67-19.38-3.34-28.94-4.86-1.39-.19-2.8,.04-4.06,.65-5.41,2.79-10.73,5.78-16.08,8.7l-4.68,2.56c1.26,.76,2.03,1.26,2.84,1.71,9.08,5.03,18.18,10.02,27.24,15.08,6.46,3.6,6.44,3.63,2.02,9.9-.18,.17-.37,.31-.58,.43-.61-.31-1.31-.63-1.98-1.01-11.98-6.62-23.97-13.24-35.96-19.85-.93-.51-2.38-1.22-3.09-.86-5.72,2.91-11.32,6.06-17.47,9.42l22.79,13.37-4.52,6.99c-.61-.29-1-.44-1.36-.65-7.82-4.58-15.66-9.12-23.42-13.79-1.4-.97-3.25-.96-4.64,.01-16.33,8.99-32.69,17.94-49.08,26.84l-3.01,1.64c.06,.37,.16,.73,.31,1.07,12.26,16.32,35.59,16.35,48.89,5.78,5.97-4.74,11.77-9.68,17.65-14.53,3.31-2.73,5.75-2.43,7.88,.96,7.41,11.84,24.15,13.02,34.31,2.43,3.97-4.14,4.4-4.21,9.31-1.46,8.61,4.78,19.33,3.36,26.4-3.49,7.04-6.38,8.9-16.69,4.54-25.12-2.05-3.93-.84-6.47,3.63-7.62,10.59-2.73,17.75-11.52,17.64-21.65-.11-10.17-7.41-18.1-18.04-19.63Zm-41.58-17.79l-.15-.29,.23,.06-.08,.23Z" fill="#fff"/>
      <rect id="_사각형_171" data-name="사각형 171" width="194" height="141" fill="none"/>
    </g>
  </g>
</svg>