<?xml version="1.0" encoding="UTF-8"?>
<svg id="_레이어_2" data-name="레이어 2" xmlns="http://www.w3.org/2000/svg" viewBox="0 0 266 182">
  <g id="Logo">
    <g id="symbol_14_03_0005_01" data-name="symbol 14 03 0005 01">
      <path id="_패스_1135" data-name="패스 1135" d="m258.26,50.59l-14.31-.44c.05-.21.09-.42.11-.63l1.68-21.41c.2-2.57-1.72-4.82-4.29-5.02L47.71,7.91c-2.57-.2-4.81,1.72-5.02,4.29l-1.68,21.41c-.2,2.57,1.72,4.81,4.29,5.02,0,0,0,0,0,0l113.67,8.91-102.7-3.16c-2.58-.08-4.73,1.94-4.81,4.52h0s-.66,21.47-.66,21.47c-.08,2.58,1.94,4.73,4.52,4.81l201.98,6.22c2.58.08,4.73-1.94,4.81-4.52,0,0,0,0,0,0l.66-21.47c.08-2.58-1.94-4.73-4.52-4.81,0,0,0,0,0,0M50.27,27.98l.68-8.65c.2-2.57,2.45-4.49,5.02-4.29l155.42,12.18c2.57.2,4.49,2.45,4.29,5.02,0,0,0,0,0,0l-.68,8.65c-.2,2.57-2.45,4.49-5.01,4.29,0,0,0,0,0,0l-155.42-12.18c-2.57-.2-4.49-2.45-4.29-5.02" fill="#fff"/>
      <path id="_패스_1136" data-name="패스 1136" d="m233.98,138.63l-15.42.23,1.17-17.86c.06-.9-.15-1.8-.59-2.59,1.48-.74,2.46-2.2,2.57-3.85l1.4-21.43c.17-2.57-1.78-4.79-4.35-4.96l-191.2-12.51c-2.57-.17-4.79,1.78-4.96,4.35l-1.4,21.43c-.04.65.05,1.29.28,1.9l-6.46-.42c-2.57-.17-4.79,1.78-4.96,4.35l-1.4,21.43c-.17,2.57,1.77,4.79,4.35,4.97,0,0,0,0,0,0l102.34,6.7-82.13,1.2c-2.58.04-4.64,2.15-4.6,4.73,0,0,0,0,0,0l.31,21.47c.04,2.58,2.15,4.64,4.73,4.6,0,0,0,0,0,0l200.77-2.93c2.58-.04,4.64-2.15,4.6-4.73,0,0,0,0,0,0l-.31-21.47c-.04-2.58-2.16-4.64-4.73-4.6,0,0,0,0,0,0M52.25,89.77c.17-2.57,2.39-4.52,4.96-4.35l152.64,9.98c2.57.17,4.52,2.39,4.35,4.96,0,0,0,0,0,0l-.5,7.71c-.17,2.57-2.39,4.52-4.96,4.35l-152.64-9.98c-2.57-.17-4.52-2.39-4.35-4.96l.5-7.71Zm-34.2,33.83l.54-8.24c.17-2.57,2.39-4.52,4.96-4.35l154.7,10.12c2.57.17,4.52,2.39,4.35,4.96l-.54,8.24c-.17,2.57-2.39,4.52-4.96,4.35l-154.7-10.12c-2.57-.17-4.52-2.39-4.35-4.96" fill="#fff"/>
      <rect id="_사각형_513" data-name="사각형 513" width="266" height="182" fill="none"/>
    </g>
  </g>
</svg>