<?xml version="1.0" encoding="UTF-8"?>
<svg id="Layer_2" data-name="Layer 2" xmlns="http://www.w3.org/2000/svg" viewBox="0 0 240 150">
  <g id="Logo">
    <g id="symbol_05_02_0003_01" data-name="symbol 05 02 0003 01">
      <path id="_합치기_34" data-name="합치기 34" d="m84.19,141.5c1.46-4.03,2.41-8.21,2.84-12.47,6.83-2.54,13.83-2.03,20.91,1.64,2.86,1.64,5.62,3.42,8.29,5.35,10.39,6.83,21.58,7.54,33.21,4.15,5.38-1.57,9.67-5.18,14.29-8.16,8.71-5.62,17.76-6.04,26.92-1.28,1.63.88,3.21,1.85,4.71,2.92-23.21,5.91-50.21,9.31-79.06,9.31-11.02,0-21.75-.51-32.12-1.45Zm40.62-14.56c-2.86-1.63-5.63-3.41-8.3-5.34-9.36-6.17-19.34-7.37-29.73-5.08-.95-6.92-3.29-13.57-6.87-19.56.43-.28.85-.55,1.28-.82,8.65-5.4,17.53-5.94,26.58-1.33,2.86,1.63,5.63,3.41,8.3,5.34,10.58,6.96,22.02,8.05,33.73,3.97,4.84-1.69,9.19-4.93,13.59-7.73,8.95-5.7,18.11-6.3,27.45-1.32,3.72,1.98,7.07,4.66,10.71,6.8,5.45,3.09,11.64,4.62,17.89,4.44l.05,19.75c-2.54.96-5.16,1.9-7.84,2.8-2.34-.78-4.56-1.87-6.6-3.25-2.02-1.33-4-2.72-6.02-4.06-10.46-6.89-21.81-7.86-33.34-3.93-5.04,1.71-9.52,5.14-14.12,7.99-4.32,2.83-9.35,4.38-14.51,4.47-4.28-.05-8.49-1.14-12.26-3.16Zm.04-35.72c-2.8-1.59-5.52-3.34-8.12-5.24-10.63-7.02-22.14-8.14-33.9-4.01-3.6,1.4-7.02,3.25-10.17,5.49-9.86-10.3-23.5-16.13-37.76-16.12-7.52,0-14.96,1.62-21.79,4.76v-19.82c3.7-.43,7.43.29,10.71,2.06,3.4,1.9,6.62,4.1,9.89,6.22,10.49,6.81,21.71,7.52,33.41,4,5.3-1.6,9.51-5.18,14.09-8.11,8.65-5.54,17.64-5.98,26.75-1.29,2.86,1.64,5.62,3.42,8.29,5.35,10.46,6.87,21.7,7.57,33.39,4.08,5.3-1.58,9.54-5.15,14.1-8.09,1.8-1.17,3.73-2.14,5.73-2.91,9.78,9.63,22.95,15.02,36.67,15.01,4.51,0,9.01-.58,13.37-1.74l-.05,23.41c-4.37.1-8.68-1.02-12.45-3.24-2.67-1.68-5.27-3.47-7.91-5.2-10.39-6.79-21.55-7.63-33.22-4.16-5.38,1.6-9.68,5.17-14.3,8.16-4.24,2.9-9.25,4.49-14.39,4.56-4.31-.06-8.54-1.15-12.34-3.18h0Zm-.03-35.78c-2.86-1.63-5.63-3.41-8.3-5.34-10.52-6.92-21.91-7.93-33.53-3.92-4.9,1.69-9.31,4.96-13.78,7.78-8.97,5.66-18.11,6.22-27.46,1.23-2.9-1.54-5.52-3.59-8.27-5.38-6-4.06-13.16-6.04-20.39-5.65v-20.04c2.49-.95,5.04-1.86,7.66-2.74,2.72.85,5.29,2.13,7.6,3.81,1.64,1.17,3.33,2.27,5.01,3.38,10.7,7.08,22.26,8.18,34.09,3.96,4.89-1.75,9.25-5.09,13.74-7.89,8.65-5.4,17.53-5.93,26.58-1.33,2.86,1.62,5.63,3.41,8.3,5.34,10.58,6.95,22.02,8.05,33.73,3.97,1.7-.61,3.34-1.37,4.92-2.26,1.21,6.13,3.52,12,6.81,17.32-3.56,1.83-6.76,4.35-10.15,6.5-4.22,2.82-9.16,4.36-14.24,4.44-4.31-.06-8.54-1.15-12.33-3.18h0Zm.03-35.74c-2.8-1.59-5.52-3.33-8.12-5.23-10.7-7.06-22.26-8.17-34.09-3.95-4.84,1.73-9.2,4.93-13.56,7.8-6.53,4.29-13.51,5.26-21,3.73-4.14-.85-7.57-3.1-10.9-5.48,23.22-5.91,50.25-9.33,79.13-9.33,12.88,0,25.75.69,38.56,2.1-.52,2.49-.86,5.02-1.02,7.56-.74.49-1.49.97-2.23,1.44-4.29,2.86-9.31,4.42-14.46,4.51-4.29-.06-8.51-1.14-12.3-3.15h0Z" fill="#fff"/>
      <rect id="_사각형_297" data-name="사각형 297" width="240" height="150" fill="none"/>
    </g>
  </g>
</svg>