<?xml version="1.0" encoding="UTF-8"?>
<svg id="Layer_2" data-name="Layer 2" xmlns="http://www.w3.org/2000/svg" viewBox="0 0 153 173">
  <g id="Logo">
    <g id="symbol_15_01_0001_02" data-name="symbol 15 01 0001 02">
      <path id="_패스_296" data-name="패스 296" d="m6.19,26C8.43,10.89,22.5.47,37.6,2.71c15.11,2.24,25.53,16.31,23.29,31.41-2.24,15.11-16.31,25.53-31.41,23.29,0,0,0,0,0,0-15.1-2.25-25.52-16.31-23.28-31.41" fill="#fff"/>
      <path id="_패스_297" data-name="패스 297" d="m126.13,137.5c-.67-.02-1.34-.07-2-.14h0c-14.97-1.6-26.18-14.48-25.7-29.53.19-6.14,2.37-12.06,6.2-16.86-14.01-10.1-32.49-17.83-56.83-19.62l7.42,56.59s43.16-4.75,60.16,42.06l31.12-14.19c-1.55-7.27-3.9-14.34-7.01-21.09-4.16,1.99-8.74,2.94-13.35,2.77" fill="#fff"/>
      <rect id="_사각형_102" data-name="사각형 102" width="153" height="173" fill="none"/>
    </g>
  </g>
</svg>