<?xml version="1.0" encoding="UTF-8"?>
<svg id="Layer_2" data-name="Layer 2" xmlns="http://www.w3.org/2000/svg" viewBox="0 0 308 308">
  <g id="Logo">
    <g id="symbol_20_03_0005_01" data-name="symbol 20 03 0005 01">
      <path id="_패스_1547" data-name="패스 1547" d="m300.94,89.43c-6.21-40.19-43.83-67.73-84.02-61.52-1.81.28-3.6.63-5.38,1.04-2.06.65-4.31,0-5.71-1.63-14.29-14.04-31.6-21.29-51.58-21.32-20.1-.03-37.51,7.24-51.9,21.34-1.4,1.65-3.67,2.3-5.73,1.62-9.22-2.17-18.78-2.44-28.11-.8-31.02,5.18-55.7,29.8-60.66,60.64-5.03,31.29,10.08,62.25,37.79,76.98,2.5,1.33,3.04,2.79,3.04,5.32-.07,32.18-.08,64.36-.04,96.55,0,20.04,13.43,33.5,33.43,33.51,23.95.01,47.9.01,71.85,0,24.17,0,48.34.04,72.5-.05,3.18.04,6.35-.31,9.44-1.05,14.27-3.69,23.66-16.01,23.69-31.05.07-32.73.05-65.46-.05-98.19,0-2.58.82-3.78,3.06-4.98,27.85-14.88,43.33-45.83,38.38-76.42m-53.5,60.25c-7.21,2.89-8.97,5.45-8.97,13.13v104.46c0,8.99-3.83,12.81-12.83,12.81H82.27c-8.57,0-12.55-3.94-12.56-12.42v-8.67h3.97c43.61,0,87.23,0,130.84,0,1.43.07,2.85,0,4.27-.2,5.71-1.07,9.48-6.57,8.41-12.28-.9-4.82-5.01-8.37-9.91-8.58-1.1-.06-2.2-.02-3.29-.02H69.71v-75.11c0-7.54-1.81-10.24-8.69-12.99-21.56-8.64-35.33-30.47-33.34-52.83,2.16-24.27,19.22-43.44,42.83-47.96,5.38-1.03,10.84-1.56,16.51-.07-.75,1.76-1.47,3.35-2.12,4.95-2.41,5.95-.15,12.06,5.3,14.38,5.64,2.4,11.68-.24,14.18-6.4,6.03-14.92,16.24-25.72,31.34-31.46,26.44-10.06,56.39,3.07,67.15,29.25.58,1.42,1.04,2.89,1.7,4.28,2.38,4.99,8.22,7.29,13.36,5.26,5.15-2.01,7.83-7.7,6.1-12.95-.78-2.38-1.84-4.67-2.91-7.32,6.58-1.52,12.94-.76,19.19.74,28.24,6.72,45.68,35.06,38.96,63.3-3.98,16.71-15.87,30.42-31.84,36.72" fill="#fff"/>
      <path id="_패스_1548" data-name="패스 1548" d="m109.14,198.17c-5.39,0-9.76,4.37-9.76,9.76,0,5.39,4.37,9.76,9.76,9.76s9.76-4.37,9.76-9.76h0c0-5.39-4.37-9.76-9.76-9.76" fill="#fff"/>
      <path id="_패스_1549" data-name="패스 1549" d="m179.43,198.17c-5.39,0-9.76,4.37-9.76,9.76s4.37,9.76,9.76,9.76c5.39,0,9.76-4.37,9.76-9.76,0-5.39-4.37-9.76-9.76-9.76" fill="#fff"/>
      <rect id="_사각형_762" data-name="사각형 762" width="308" height="308" fill="none"/>
    </g>
  </g>
</svg>