<?xml version="1.0" encoding="UTF-8"?>
<svg id="Layer_2" data-name="Layer 2" xmlns="http://www.w3.org/2000/svg" viewBox="0 0 146 228">
  <g id="Logo">
    <g id="symbol_18_01_0003_01" data-name="symbol 18 01 0003 01">
      <path id="_합치기_31" data-name="합치기 31" d="m23.62,212.24l-2.02-1.14-2.02-1.14c-3.01-1.69-4.07-5.5-2.38-8.5.08-.14.16-.27.24-.4l17.26-26.01c1.91-2.87,1.13-6.74-1.75-8.65-.13-.08-.26-.16-.39-.24-6.84-3.85-9.27-12.52-5.42-19.37l2.72-4.84,46.54,26.18-2.72,4.84c-3.85,6.85-12.52,9.27-19.36,5.43,0,0,0,0,0,0-3.01-1.69-6.81-.62-8.5,2.38-.07.13-.14.27-.21.41l-13.27,28.26c-1.03,2.2-3.24,3.6-5.66,3.59-1.07,0-2.12-.27-3.06-.8Zm55.76-59.56c-2.66-1.28-3.79-4.47-2.51-7.13.05-.1.1-.21.16-.31l-1.84,3.27c-1.37,2.51-4.44,3.54-7.05,2.36-2.66-1.28-3.79-4.47-2.51-7.13.05-.11.1-.21.16-.31l3.05-5.41c-1.45,2.57-4.7,3.48-7.27,2.04-2.57-1.44-3.48-4.7-2.04-7.26,0,0,0,0,0,0l-.51.9c-1.37,2.51-4.44,3.54-7.05,2.36-2.66-1.27-3.78-4.46-2.51-7.12.05-.11.11-.21.16-.31l-1.58,2.81c-1.37,2.51-4.44,3.54-7.05,2.36-2.66-1.27-3.79-4.46-2.52-7.12.05-.11.11-.21.17-.32l6.54-11.62c.16-.28.35-.55.56-.8.03-.04.07-.09.1-.13.2-.22.42-.43.66-.62.05-.04.1-.08.15-.12.24-.18.49-.34.76-.47.03-.02.07-.03.1-.04.24-.12.5-.22.76-.29.07-.02.13-.04.19-.06.22-.06.44-.1.67-.13.83-.1,1.41-.86,1.31-1.68,0-.05-.02-.1-.03-.15l-1.84-7.73c-.64-2.7-2.38-5.01-4.8-6.37L5.33,74.48l57.35-33.97.13,11.23c-.06,3.41,2.65,6.22,6.05,6.28.31,0,.63-.01.94-.05,3.35-.45,5.71-3.52,5.28-6.87-.87-7.07.62-14.23,4.23-20.37,8.67-14.6,27.1-20.08,42.34-12.61,16.04,7.95,22.61,27.4,14.66,43.45-.49.99-1.04,1.96-1.63,2.9-8.48,13.48-27.74,18.83-41.97,11.68-4.22-2.12-7.93-5.13-10.86-8.83-1.54-1.94-4.09-2.77-6.47-2.1l-7.83,2.19c-2.68.75-4.53,3.21-4.5,6l.38,33.75-2.16-1.21c-.83-.47-1.89-.17-2.36.66-.21.38-.28.82-.17,1.25l2.1,8.82c.13.52.46.97.93,1.23.32.18.61.39.89.62.79.69,1.36,1.59,1.64,2.59.38,1.36.21,2.82-.49,4.05.6-1.06,1.55-1.88,2.69-2.32.32-.12.64-.22.98-.29.87-.17,1.77-.13,2.61.14.35.11.68.26,1,.43.31.18.61.38.88.62.79.69,1.36,1.59,1.64,2.59.38,1.37.21,2.83-.49,4.06.69-1.24,1.85-2.15,3.22-2.53,1.36-.38,2.82-.21,4.06.49.31.18.61.39.88.62.79.69,1.36,1.59,1.64,2.59.38,1.36.21,2.82-.49,4.06.17-.31.37-.59.6-.86l.03-.04c.22-.25.45-.47.71-.67.02-.02.04-.04.07-.05.25-.19.52-.36.79-.5.03-.02.06-.03.09-.05.28-.13.56-.24.85-.33l.11-.03c.29-.08.59-.13.89-.16.04,0,.09,0,.13-.01.3-.02.6-.02.9.01.04,0,.09,0,.14.02.3.04.6.1.89.19.05.02.09.03.14.05.3.1.59.22.86.38.02,0,.04.01.06.02l.07.05c.08.04.16.09.24.14.1.07.19.15.28.23.14.11.28.22.42.34.1.1.2.2.28.3.16.17.31.34.44.53.02.04.04.08.07.12,1.12,1.66,1.21,3.82.23,5.57l-.09.16-5.21,9.25c-.98,1.75-2.82,2.84-4.83,2.86-.77,0-1.53-.16-2.22-.49Z" fill="#fff"/>
      <rect id="_사각형_293" data-name="사각형 293" width="146" height="228" fill="none"/>
    </g>
  </g>
</svg>