<?xml version="1.0" encoding="UTF-8"?>
<svg id="Layer_2" data-name="Layer 2" xmlns="http://www.w3.org/2000/svg" viewBox="0 0 270 190">
  <g id="Logo">
    <g id="symbol_07_01_0004_01" data-name="symbol 07 01 0004 01">
      <path id="_패스_1474" data-name="패스 1474" d="m250.91,86.97c-.94-5.66-4.5-10.55-9.6-13.18-1.09-.59-2.14-1.25-3.23-1.86-2.79-1.56-2.88-1.93-1.12-4.49,1.76-2.3,2.06-5.4.76-7.99-1.21-2.73-3.86-4.53-6.84-4.65-1.57-.18-3.15-.18-4.72,0-3.76.54-6.36-.5-7.37-4.48-.44-1.16-.99-2.28-1.65-3.33-6.91-14.23-17.93-23.16-33.49-26.73-12.28-2.77-24.79-4.43-37.37-4.96-20.38-.94-40.58.24-60.44,5.18-9.13,2.27-17.55,5.95-23.99,13.23-5,5.65-8.57,12.17-11.74,18.94-.72,1.54-1.5,2.33-3.32,2.17-2.22-.19-4.47-.05-6.71-.05-3.24-.21-6.29,1.59-7.68,4.52-1.52,2.79-1.1,6.24,1.06,8.58,1.4,1.7.85,2.82-.88,3.74-1.17.62-2.29,1.34-3.46,1.96-5.58,2.93-9.14,7.46-9.98,13.71-1.27,9.34-2.55,18.71-3.25,28.1-1.09,14.5.79,28.77,4.34,42.84,1,3.98,2.84,7.07,7.12,7.91,1.13,5.2,3.7,7.95,7.88,8,9.45.1,18.9.08,28.35,0,3.53-.03,6.6-2.45,7.45-5.87.2-.68.37-1.36.53-1.94,41.92-8.24,85.03-8.28,126.96-.11,1.32,5.89,3.9,7.95,9.77,7.95,8.45,0,16.91,0,25.36,0,4.83,0,7.49-2.12,8.8-6.77.19-.65.63-1.18,1.23-1.48,3.25-1.06,4.93-3.38,5.8-6.56,6.6-24.01,6.11-48.15,1.43-72.38m-179.76,12.28c-.44.91-1.29,1.55-2.29,1.73-5.93.64-11.88,1.09-18.61,1.67-3.19-.17-7.19-.12-11.11-.65-7.84-1.07-8.5-7.93-7.03-13.2.58-1.13,1.69-1.91,2.95-2.08,3.36-.28,6.75-.14,10.08.44,7.75,1.72,15.45,3.76,22.42,7.8.91.41,1.74.96,2.47,1.63.62.73,1.33,1.91,1.13,2.66m11.1,29.03c1.4-.86,2.84-1.65,4.32-2.36v14.88c-1.81-.75-3.46-1.83-4.88-3.18-3.38-3.18-3.41-6.92.56-9.34m8.16,13.46v-17.42c1.18-.43,2.38-.78,3.6-1.07.96-.22,1.93-.43,2.89-.63v19.21c-1.79,0-3.58-.01-5.37-.02-.38,0-.76-.03-1.13-.07m78.86-19.94v20.05c-2.17.02-4.33.04-6.5.04v-21.29c2.17.35,4.33.75,6.5,1.19m-5.02-16.72h-58.47c-3.73,0-6.76-3.02-6.76-6.76s3.02-6.76,6.76-6.76h58.48c3.73,0,6.76,3.02,6.76,6.76s-3.02,6.76-6.76,6.76m-15.65,13.85v22.96l-6.5-.02v-23.31c2.17.08,4.33.2,6.5.37m-20.67-.32v23.25h-6.5v-22.84c2.17-.18,4.33-.31,6.5-.41m-20.67,2.1v21.15c-2.17,0-4.33,0-6.5-.01v-20c2.17-.42,4.33-.8,6.5-1.14m3.84,21.16v-21.72c2.17-.3,4.33-.56,6.5-.78v22.5h-6.5m20.67-.01v-23.37c2.17-.05,4.33-.06,6.5-.03v23.4h-6.5m20.67.04v-22.64c2.17.21,4.33.47,6.5.78v21.87c-2.17,0-4.33,0-6.5,0m20.67-.09v-19.18c1.84.42,3.67.87,5.5,1.35.33.09.67.18.99.28v17.37c-.28.03-.57.06-.84.07-1.88.04-3.77.08-5.65.11m14.49-3.46c-1.3.89-2.69,1.65-4.15,2.26v-14.95c1.24.53,2.44,1.14,3.6,1.82,4.76,2.8,5.09,7.78.55,10.87m-39.18-71.87c-4.55-.13-9.12-.02-13.67-.02l-64.86,1.75c-6.9.3-8.93-2.82-5.48-8.65,2.65-4.48,4.99-9.17,7.91-13.46,4.58-6.72,11.9-8.97,19.31-10.68,17.97-4.13,36.21-5.14,54.58-4.22,11.42.5,22.77,2.03,33.92,4.57,10.12,2.35,17.56,7.81,22.13,17.16,1.38,2.82,2.89,5.59,4.23,8.43,1.96,4.16.19,6.91-4.39,6.77-17.89-.53-35.78-1.14-53.68-1.66m90.05,27.12c-.28,4.91-2.38,7.62-7.23,8.34-4.07.6-8.24.54-11.4.72-6.85-.57-12.72-1.01-18.57-1.61-.9-.09-2.41-.92-2.42-1.43-.02-1.17.45-2.28,1.3-3.08,5.72-4.18,12.41-6.14,19.15-7.92,5.12-1.35,10.24-2.69,15.65-2.15,2.4.24,3.37,1.48,3.5,3.66.07,1.16.08,2.32.02,3.48" fill="#fff"/>
      <rect id="_사각형_491" data-name="사각형 491" width="270" height="190" fill="none"/>
    </g>
  </g>
</svg>