<?xml version="1.0" encoding="UTF-8"?>
<svg id="_레이어_2" data-name="레이어 2" xmlns="http://www.w3.org/2000/svg" viewBox="0 0 120 120">
  <g id="Logo">
    <g>
      <g>
        <path d="M22.8,30.92c-1.21,0-2.39,.84-3.56,2.52-1.17,1.68-2.02,4.35-2.56,7.99h11.89c-.54-3.65-1.36-6.31-2.46-7.99-1.1-1.68-2.21-2.52-3.31-2.52Z" fill="#fff"/>
        <path d="M107.74,42.51h-4.78v16.76c0,11.29-4.7,18.54-18.63,18.54H44.95v3.24c0,6.76,5.47,12.27,12.23,12.27h24.36l15.15,15.16c.78,.78,1.83,1.2,2.89,1.2,.53,0,1.06-.1,1.56-.31,1.53-.63,2.52-2.13,2.52-3.78v-12.27h4.09c6.76,0,12.26-5.5,12.26-12.27v-26.28c0-6.76-5.5-12.27-12.26-12.27Z" fill="#fff"/>
        <path d="M98.06,60.58V22.6c0-6.76-5.5-12.27-12.26-12.27H12.26C5.5,10.33,0,15.83,0,22.6V60.58c0,6.76,5.5,12.27,12.26,12.27h4.09v16.35c0,1.65,.99,3.14,2.52,3.78,.51,.21,1.04,.31,1.56,.31,1.06,0,2.11-.42,2.89-1.2l19.23-19.25h43.25c6.76,0,12.26-5.5,12.26-12.27Zm-64.17-10.17c0,1-.18,1.75-.54,2.23-.36,.49-.89,.73-1.58,.73h-1.5c-.39,0-.67-.1-.87-.31-.19-.21-.29-.53-.29-.96v-2.46c0-.98-.02-1.91-.06-2.79-.04-.89-.1-1.75-.17-2.6h-12.55c-.08,.85-.13,1.71-.17,2.6-.04,.89-.06,1.8-.06,2.75v3.39h-4.77v-4.01c0-3.54,.3-6.66,.9-9.34,.6-2.68,1.43-4.92,2.48-6.72s2.27-3.16,3.66-4.08c1.39-.92,2.86-1.39,4.43-1.39,1.46,0,2.87,.46,4.22,1.39,1.35,.92,2.52,2.29,3.52,4.08,1.03,1.8,1.84,4.04,2.44,6.72,.6,2.68,.9,5.8,.9,9.34v1.42Zm25.46-1.29c-.4,.89-1.03,1.68-1.91,2.37-.87,.69-2.01,1.25-3.43,1.66-1.41,.41-3.13,.62-5.16,.62h-2.77c-.15,0-.57-.02-1.25-.06-.68-.04-1.38-.19-2.1-.44-.74-.26-1.41-.67-2-1.23-.59-.56-.89-1.37-.89-2.43V31.61c0-.92,.24-1.66,.73-2.21,.49-.55,1.05-.97,1.69-1.25,.67-.28,1.33-.47,1.98-.56,.65-.09,1.15-.13,1.48-.13h2.54c2.08,0,3.8,.22,5.16,.65,1.36,.44,2.45,.99,3.27,1.66,.79,.67,1.36,1.41,1.69,2.21,.33,.81,.5,1.59,.5,2.33,0,1.46-.4,2.66-1.19,3.58-.8,.92-1.94,1.58-3.43,1.96,.72,.18,1.42,.45,2.1,.81,.68,.36,1.28,.81,1.79,1.35,.54,.54,.97,1.17,1.29,1.91,.32,.73,.48,1.53,.48,2.41,0,.98-.2,1.91-.6,2.79Zm22.9,4.2c-1.32,.29-2.6,.44-3.83,.44-2.03,0-3.88-.3-5.56-.91-1.68-.6-3.12-1.47-4.33-2.6-1.21-1.1-2.14-2.45-2.79-4.02-.65-1.58-.98-3.33-.98-5.26,0-2.03,.33-3.88,.98-5.55,.65-1.67,1.58-3.09,2.79-4.28,1.21-1.18,2.65-2.09,4.33-2.73,1.68-.64,3.53-.96,5.56-.96,1.23,0,2.52,.15,3.85,.44,1.33,.3,2.49,.8,3.46,1.52,.23,.21,.46,.51,.67,.91,.22,.4,.33,1.07,.33,2.02v.81c0,.26-.05,.44-.13,.54-.09,.1-.17,.15-.25,.15-.05,0-.1,0-.13-.02-.04-.01-.07-.04-.1-.1-1.08-.85-2.16-1.46-3.25-1.85-1.09-.39-2.44-.58-4.06-.58-1.33,0-2.56,.22-3.68,.65-1.12,.44-2.08,1.07-2.91,1.89s-1.46,1.83-1.91,3.02c-.45,1.19-.67,2.56-.67,4.1,0,1.44,.22,2.71,.67,3.83,.45,1.12,1.08,2.06,1.91,2.83,.82,.77,1.79,1.35,2.91,1.73,1.12,.39,2.34,.58,3.68,.58,1.62,0,2.98-.21,4.1-.64,1.12-.42,2.15-.99,3.1-1.71,.05-.03,.1-.06,.15-.1,.05-.04,.12-.06,.19-.06,.1,0,.19,.06,.27,.17,.08,.12,.12,.25,.12,.4v.85c0,1-.11,1.71-.33,2.12-.22,.41-.44,.69-.67,.85-1,.69-2.16,1.19-3.48,1.48Z" fill="#fff"/>
        <path d="M51.94,41.78c-.82-.31-1.71-.49-2.67-.54-.96-.05-1.87-.08-2.71-.08-.08,0-.15-.02-.23-.06-.08-.04-.12-.12-.12-.25v-1.43c0-.1,.04-.18,.12-.23,.08-.05,.15-.08,.23-.08,.87,0,1.75-.04,2.64-.14,.89-.09,1.67-.3,2.37-.63,.72-.31,1.3-.76,1.73-1.37,.44-.6,.66-1.42,.66-2.45,0-1.31-.5-2.25-1.5-2.81-1-.56-2.45-.85-4.35-.85h-2.35c-.36,0-.64,.1-.85,.31s-.31,.46-.31,.77v17.33c0,.33,.1,.59,.31,.77,.21,.18,.49,.27,.85,.27h2.66c.82,0,1.62-.06,2.39-.19,.77-.13,1.45-.36,2.04-.69,.56-.33,1.03-.77,1.39-1.31,.36-.54,.54-1.22,.54-2.04,0-1.23-.27-2.18-.81-2.85-.54-.67-1.21-1.16-2-1.46Z" fill="#fff"/>
      </g>
      <rect width="120" height="120" fill="none"/>
    </g>
  </g>
</svg>