<?xml version="1.0" encoding="UTF-8"?>
<svg id="_레이어_2" data-name="레이어 2" xmlns="http://www.w3.org/2000/svg" viewBox="0 0 300 300">
  <g id="Logo">
    <g id="symbol_04_01_0001_02" data-name="symbol 04 01 0001 02">
      <rect id="_사각형_68" data-name="사각형 68" width="300" height="300" fill="none"/>
      <path id="_패스_291" data-name="패스 291" d="M296.96,129.84c.21-3.18-1.85-6.06-4.93-6.88-10.42-3.35-20.48-8.31-31.95-7-1.03-.11-1.95-.72-2.45-1.64-2.53-5.96-4.88-11.99-7.5-18.53,1.97-1.89,4.33-4.12,6.64-6.39,.96-.81,1.79-1.77,2.46-2.83,3.38-6.5,6.72-13.02,9.92-19.61,1.32-2.53,.75-5.62-1.38-7.52-9.48-9.51-18.99-18.98-28.53-28.43-1.92-2.13-5.05-2.66-7.56-1.28-10.08,5.23-21.19,8.88-28.49,18.39-.18,.21-.41,.38-.66,.49-5.99-2.44-11.67-4.9-17.46-7.03-1.91-.7-2.59-1.51-2.56-3.52,.06-4.17,.51-8.51-.43-12.49-1.48-6.28-3.96-12.33-6.03-18.48-.81-3.08-3.64-5.18-6.82-5.05-13.34-.06-26.69-.06-40.03,0-3.18-.2-6.06,1.88-6.87,4.96-3.3,10.4-8.36,20.41-7,31.86-.14,1.03-.77,1.92-1.69,2.4-5.97,2.52-12.02,4.85-18.57,7.46-1.99-2.08-4.28-4.53-6.63-6.91-.83-.94-1.8-1.75-2.88-2.4-6.43-3.31-12.89-6.58-19.4-9.73-2.43-1.28-5.42-.77-7.29,1.24-9.64,9.49-19.24,19.03-28.79,28.61-2.14,1.9-2.67,5.02-1.29,7.52,5.22,10.06,8.91,21.13,18.44,28.41,.22,.2,.41,.44,.55,.7-2.32,5.63-4.73,10.98-6.69,16.48-.91,2.54-1.93,3.67-4.82,3.5-3.64-.21-7.47-.39-10.94,.5-6.48,1.66-12.76,4.12-19.13,6.22-3.19,.81-5.36,3.76-5.18,7.04-.04,13.09-.04,26.18,0,39.27,.01,3.37,1.59,5.84,4.92,6.89,10.43,3.28,20.47,8.36,31.96,7.01,1.03,.11,1.95,.72,2.45,1.63,2.53,5.96,4.88,11.99,7.51,18.57-2.12,2.01-4.67,4.34-7.1,6.78-1.06,1.01-1.96,2.18-2.67,3.45-3.04,5.85-6.01,11.73-8.91,17.66-1.82,3.69-1.5,5.97,1.35,8.83,9.27,9.28,18.56,18.52,27.89,27.74,2.34,2.32,5.11,2.99,8.06,1.48,10.02-5.12,21-8.81,28.24-18.23,.19-.22,.42-.4,.67-.54,6.26,2.49,12.32,4.81,18.28,7.36,.94,.62,1.56,1.63,1.67,2.75,.32,4.06-.3,8.3,.65,12.17,1.62,6.57,4.18,12.92,6.34,19.36,.79,2.97,3.52,5,6.59,4.9,13.34,.08,26.69,.08,40.03,0,3.07,.16,5.84-1.85,6.64-4.83,3.3-10.4,8.4-20.4,7.07-31.85-.09-.79,1.01-2.19,1.88-2.56,5.87-2.51,11.83-4.82,18.01-7.29,3.21,2.99,6.13,6.66,9.89,8.97,6.05,3.72,12.64,6.57,19.04,9.71,2.59,1.44,5.83,.92,7.84-1.26,9.55-9.43,19.07-18.9,28.56-28.4,2.15-1.89,2.69-5.02,1.32-7.52-5.2-9.94-8.75-20.97-18.23-28.16-.28-.24-.52-.53-.72-.85,2.48-6.18,4.93-12.07,7.18-18.03,.6-1.59,1.47-1.94,3.02-1.96,4.08-.04,8.32,.38,12.21-.57,6.49-1.58,12.76-4.1,19.13-6.2,3.18-.82,5.35-3.77,5.17-7.05,.04-13.09,.04-26.18,0-39.27Zm-148.11,106.84c-47.99,.03-87.36-39.3-87.32-87.25S101.12,62.1,148.99,62.33c48.28,0,87.43,39.11,87.47,87.39,0,47.83-39.39,86.93-87.61,86.96Z" fill="#fff"/>
    </g>
  </g>
</svg>