<?xml version="1.0" encoding="UTF-8"?>
<svg id="_레이어_2" data-name="레이어 2" xmlns="http://www.w3.org/2000/svg" viewBox="0 0 270 213">
  <g id="Logo">
    <g id="symbol_10_05_0003_01" data-name="symbol 10 05 0003 01">
      <path id="_패스_1576" data-name="패스 1576" d="m64.29,165.48c-11.96-8.88-13.34-21-13.16-34.25.41-30.11.1-60.23.13-90.34.02-20.24,12.4-32.7,32.59-32.73,34.34-.05,68.69.51,103.01-.26,14.88-.33,26.74,3.93,37.02,14.48,9.08,9.33,18.7,18.16,28.29,26.98,7.53,6.92,11.03,15.43,11.05,25.46.05,32.13.23,64.27-.06,96.4-.19,20.65-12.74,32.59-33.38,32.59-69.23.02-138.46.02-207.68,0-.92,0-1.84-.04-2.75-.01-3.8.11-7.09-.91-8.31-4.88-1.31-4.25,1.15-6.93,4.49-9.06,8.66-5.54,17.47-10.85,25.89-16.74,6.79-4.75,13.55-8.87,22.88-7.66m74.32-9.55c18.18,0,36.36.03,54.53,0,13.68-.03,19.4-5.75,19.41-19.45.02-31.4-.46-62.8.21-94.19.31-14.56-9.56-20.55-20.71-20.44-34.15.36-68.3.12-102.45.15-2.57.01-5.13.16-7.69.44-11.87,1.27-16.79,6.75-16.8,18.82-.03,31.95-.03,63.9,0,95.85.01,12.83,6,18.78,18.97,18.82,18.18.06,36.36.02,54.53.01m-95.04,34.05h6.44c48.29,0,96.58-.2,144.87.18,8.95.07,14.9-4.34,22.61-9.87h-8.03c-47.56,0-95.11.28-142.66-.24-9.51-.1-16.46,3.53-23.23,9.94" fill="#fff"/>
      <path id="_패스_1577" data-name="패스 1577" d="m95.61,112.57c.26-2.72.42-4.34.61-6.3,9.15-1.15,17.65-1.31,23.73,7.32,1.18,1.27,2.82,2.01,4.55,2.05,6.6.22,13.21.26,19.82.05,9.65-.3,16.03-6.64,15.86-15.42-.17-8.42-6.7-14.54-15.97-14.83-4.4-.14-8.81,0-13.21-.08-4.26-.07-6.45-2.53-6.54-6.58-.08-4.09,2.13-6.67,6.33-6.74,6.42-.1,12.92-.51,19.24.3,13.91,1.79,24.75,15.35,24.03,29.19-.79,15.18-12.71,27.32-27.51,27.78-6.97.22-13.96-.2-20.91.19-2.33.2-4.5,1.31-6.02,3.09-6.03,8.17-14.34,7.62-23.17,6.85-.29-1.85-.56-3.61-.98-6.33-2.81.13-5.63.09-8.44-.11-1.09-.13-2.03-1.51-3.04-2.33,1-.82,1.93-2.2,3.02-2.34,2.84-.21,5.7-.25,8.55-.11v-10.86c-3,0-5.88.16-8.73-.09-.99-.09-1.89-1.21-2.84-1.86.86-.95,1.63-2.59,2.6-2.72,3.01-.23,6.03-.28,9.04-.13" fill="#fff"/>
      <path id="_패스_1578" data-name="패스 1578" d="m190.03,49.76c-4.82,0-9,.04-13.17,0-5-.06-4.85,3.74-4.88,6.93-.04,3.24-.03,7.02,4.76,7.17,4.19.13,8.39.03,12.7.03-1.51,7.24-9.28,12.15-17.38,11.28-5.75-.62-10.71-3.02-13.65-8.17-1.71-2.99-3.78-3.83-7.06-3.72-6.79.24-13.59,0-20.39.1-9.18.13-15.84,6.29-16.07,14.72-.23,8.13,5.85,14.64,14.78,15.39,4.56.38,9.17.2,13.76.2,4.35,0,7.03,2.03,7.42,6.42.36,4.06-2.67,7.16-7.3,7.14-10.36-.05-20.98,1.55-30.27-5.32-10.03-7.42-14.46-19.85-10.84-31.68,3.78-12.36,14.19-20.22,27.01-20.34,4.96-.05,9.93-.19,14.88.06,6.7.35,11.9-.49,16.95-6.55,8-9.61,24.27-5.93,28.74,6.36" fill="#fff"/>
      <rect id="_사각형_591" data-name="사각형 591" width="270" height="213" fill="none"/>
    </g>
  </g>
</svg>