<?xml version="1.0" encoding="UTF-8"?>
<svg id="Layer_2" data-name="Layer 2" xmlns="http://www.w3.org/2000/svg" viewBox="0 0 166 166">
  <g id="Logo">
    <g id="symbol_03_22_0002_01" data-name="symbol 03 22 0002 01">
      <path id="_패스_884" data-name="패스 884" d="m60.51,156.83v-28.73h81.91c-18.6,25.77-51.28,37.24-81.91,28.73M4.9,83.65c0-41.95,34-75.95,75.95-75.95h0c26.35,0,50.82,13.66,64.64,36.09-14.92-4.91-30.99,3.21-35.9,18.13-.94,2.86-1.42,5.86-1.42,8.87v3.75h38.98c8.13,0,14.72,6.59,14.72,14.72h-78.94c-20.98,0-38.17,16.67-38.81,37.65-.02.4-.03.79-.03,1.19v22.02C19.9,136.74,4.89,111.29,4.9,83.65" fill="#fff"/>
      <rect id="_사각형_179" data-name="사각형 179" width="166" height="166" fill="none"/>
    </g>
  </g>
</svg>