<?xml version="1.0" encoding="UTF-8"?>
<svg id="Layer_2" data-name="Layer 2" xmlns="http://www.w3.org/2000/svg" viewBox="0 0 101 143">
  <g id="Logo">
    <g id="symbol_02_03_0001_01" data-name="symbol 02 03 0001 01">
      <g id="symbol">
        <path id="_패스_420" data-name="패스 420" d="m87.68,62.81c-.16-.32-.49-.53-.85-.53h-8.17c-.53,0-.95.44-.95.96,0,.16.04.31.11.45,3.13,5.82,5.73,11.91,7.78,18.19,1.21,3.8,1.65,7.8,1.29,11.77L22.82,58.1c1.56-2.68,3.17-5.33,4.83-7.95,6.71-10.58,13.72-20.97,20.6-31.44.09-.14.21-.27.46-.59,1.36,2.02,2.65,3.91,3.91,5.81,3.15,4.75,6.32,9.48,9.44,14.24.14.22.38.35.64.35h9.13c.43,0,.77-.35.77-.78,0-.15-.04-.29-.12-.42-6.31-9.7-12.75-19.32-19.09-29-.84-1.51-2.17-2.68-3.77-3.33l-1.97.04c-1.61.7-2.95,1.93-3.78,3.48-.88,1.42-1.75,2.84-2.69,4.22-9.15,13.41-18.32,26.8-26.39,40.9-.32.57-.66,1.13-.98,1.69-4.2,7.26-7.73,14.88-10.55,22.78-3.72,10.76-2.66,21.23,1.82,31.45,4.05,9.37,11.07,17.14,19.98,22.11,8.73,5.08,18.86,7.19,28.89,6.02,8.68-.91,16.93-4.28,23.76-9.72,9.46-7.24,15.85-17.76,17.92-29.49.19-1.03.37-2.08.5-3.14.97-7.58-.81-14.68-3.56-21.64-1.46-3.72-3.11-7.34-4.89-10.9" fill="#fff"/>
        <path id="_패스_421" data-name="패스 421" d="m97.33,36.89h-7.19c-.92,0-1.67.75-1.67,1.67v7.19c0,.92.75,1.66,1.67,1.66h7.19c.92,0,1.67-.75,1.67-1.67v-7.18c0-.92-.75-1.67-1.67-1.67" fill="#fff"/>
        <path id="_패스_422" data-name="패스 422" d="m80.82,33.61h3.96c.92,0,1.67-.75,1.67-1.67h0v-3.96c0-.92-.74-1.67-1.67-1.67h-3.96c-.92,0-1.67.75-1.67,1.67v3.96c0,.92.75,1.67,1.67,1.67" fill="#fff"/>
        <path id="_패스_423" data-name="패스 423" d="m68.72,42.37c-.7.1-1.21.7-1.21,1.4v13.24c0,.78.63,1.42,1.42,1.42h13.25c.78,0,1.42-.63,1.42-1.42h0v-13.24c0-.78-.63-1.42-1.42-1.42h-13.25c-.07,0-.14,0-.21.02" fill="#fff"/>
      </g>
      <rect id="_사각형_2" data-name="사각형 2" width="101" height="143" fill="none"/>
    </g>
  </g>
</svg>