<?xml version="1.0" encoding="UTF-8"?>
<svg id="Layer_2" data-name="Layer 2" xmlns="http://www.w3.org/2000/svg" viewBox="0 0 142 142">
  <g id="Logo">
    <g id="symbol_13_02_0003_02" data-name="symbol 13 02 0003 02">
      <path id="_패스_760" data-name="패스 760" d="m19.3,4.48c-1.41,0-2.81.21-4.16.62l81.45,81.45c3.89-3.39,8.05-6.47,12.43-9.2L36.15,4.48h-16.85Z" fill="#fff"/>
      <path id="_패스_761" data-name="패스 761" d="m5,18.78v16.85l72.87,72.87c2.73-4.38,5.81-8.54,9.2-12.43L5.62,14.62c-.41,1.35-.62,2.75-.62,4.16" fill="#fff"/>
      <path id="_패스_762" data-name="패스 762" d="m5,76.3l60.91,60.91c1.31-5.56,3.12-11,5.4-16.24L5,54.67v21.63Z" fill="#fff"/>
      <path id="_패스_763" data-name="패스 763" d="m76.83,4.48h-21.63l66.31,66.31c5.24-2.28,10.68-4.09,16.24-5.4L76.83,4.48Z" fill="#fff"/>
      <rect id="_사각형_277" data-name="사각형 277" width="142" height="142" fill="none"/>
    </g>
  </g>
</svg>