<?xml version="1.0" encoding="UTF-8"?>
<svg id="Layer_2" data-name="Layer 2" xmlns="http://www.w3.org/2000/svg" viewBox="0 0 164 164">
  <g id="Logo">
    <g id="symbol_21_02_0005_02" data-name="symbol 21 02 0005 02">
      <path id="_패스_863" data-name="패스 863" d="m12.2,65.8c-7.38,20.71-5.66,43.58,4.75,62.95-2.15-9.68-2.43-19.68-.82-29.47-2.98-8.55-4.44-17.56-4.31-26.62.03-2.32.16-4.6.39-6.86" fill="#fff"/>
      <path id="_패스_864" data-name="패스 864" d="m142.43,51.65c7.89,6.46,14.42,14.42,19.23,23.41-4.98-22.54-19.71-41.7-40.21-52.31.94.81,1.87,1.65,2.78,2.51,7.83,7.43,14.03,16.42,18.19,26.38" fill="#fff"/>
      <path id="_패스_865" data-name="패스 865" d="m30.09,37.22c2.74-9.53,7.27-18.45,13.37-26.28-17.7,13.05-29.06,32.97-31.26,54.85.76-2.14,1.63-4.26,2.59-6.37,3.77-8.23,8.95-15.75,15.3-22.2" fill="#fff"/>
      <path id="_패스_866" data-name="패스 866" d="m126.99,135.42c-4.97,5.23-10.65,9.75-16.87,13.42,16.3-4.44,30.73-14.05,41.1-27.39-6.63,4.9-14,8.72-21.83,11.31-.78.9-1.58,1.78-2.41,2.66" fill="#fff"/>
      <path id="_패스_867" data-name="패스 867" d="m85.16,151.41c-7.32,3.8-15.2,6.41-23.34,7.73,16.79,1.89,33.74-1.73,48.31-10.3-6.97,1.89-14.17,2.8-21.38,2.7-1.2-.01-2.4-.06-3.59-.13" fill="#fff"/>
      <path id="_패스_868" data-name="패스 868" d="m121.46,22.76C104.01,7.66,80.75,1.09,57.97,4.83c10.13,1.13,19.95,4.25,28.88,9.17,10.8.17,21.44,2.59,31.25,7.1,1.14.52,2.26,1.08,3.37,1.65" fill="#fff"/>
      <rect id="_사각형_306" data-name="사각형 306" width="164" height="164" fill="none"/>
    </g>
  </g>
</svg>