<?xml version="1.0" encoding="UTF-8"?>
<svg id="Layer_2" data-name="Layer 2" xmlns="http://www.w3.org/2000/svg" viewBox="0 0 34 34">
  <g id="Logo">
    <g id="symbol_03_24_0002_02" data-name="symbol 03 24 0002 02">
      <path id="_패스_891" data-name="패스 891" d="m29.82,12.27h-7.93v-7.93c0-1.02-.83-1.85-1.85-1.85h-5.73c-1.02,0-1.85.83-1.85,1.85v7.93h-7.93c-1.02,0-1.85.83-1.85,1.85v5.72c0,1.02.83,1.85,1.85,1.85h7.93v7.93c0,1.02.83,1.85,1.85,1.85h5.72c1.02,0,1.85-.83,1.85-1.85v-7.93h7.93c1.02,0,1.85-.83,1.85-1.85v-5.72c0-1.02-.83-1.85-1.85-1.85" fill="#fff"/>
      <rect id="_사각형_183" data-name="사각형 183" width="34" height="34" fill="none"/>
    </g>
  </g>
</svg>