<?xml version="1.0" encoding="UTF-8"?>
<svg id="Layer_2" data-name="Layer 2" xmlns="http://www.w3.org/2000/svg" viewBox="0 0 116 115">
  <g id="Logo">
    <g id="symbol_16_01_0001_02" data-name="symbol 16 01 0001 02">
      <path id="_패스_343" data-name="패스 343" d="m34.55,42.83c1.81-1.81,1.81-4.74,0-6.54s-4.74-1.81-6.54,0c-1.81,1.81-1.81,4.74,0,6.54h0c1.81,1.81,4.74,1.81,6.54,0" fill="#fff"/>
      <path id="_패스_344" data-name="패스 344" d="m53.68,61.08l-12.67-23.09c-.18-.33-.59-.45-.91-.27-.21.12-.34.34-.35.58-.13,5.31-4.41,9.59-9.72,9.72-.37,0-.67.31-.66.69,0,.24.14.46.35.58l23.08,12.67c.31.17.7.06.87-.26.11-.19.11-.43,0-.62" fill="#fff"/>
      <path id="_패스_345" data-name="패스 345" d="m81.8,36.29c-1.81,1.81-1.81,4.73,0,6.54,1.81,1.81,4.73,1.81,6.54,0,1.81-1.81,1.81-4.73,0-6.54,0,0,0,0,0,0-1.81-1.81-4.73-1.81-6.54,0" fill="#fff"/>
      <path id="_패스_346" data-name="패스 346" d="m86.32,48.02c-5.31-.13-9.59-4.41-9.72-9.72,0-.37-.32-.67-.69-.66-.24,0-.46.14-.58.35l-12.67,23.08c-.17.31-.06.7.26.87.19.11.43.11.62,0l23.09-12.67c.33-.18.45-.59.27-.91-.12-.21-.34-.34-.58-.35" fill="#fff"/>
      <path id="_패스_347" data-name="패스 347" d="m69.62,81.86c-3.54,1.48-6.9,3.34-10.03,5.55l-.05.04h-.02c-.08.07-.17.11-.25.16l-.03.02-.04.02c-.08.04-.16.07-.24.1-.04.01-.08.03-.12.04-.07.02-.15.04-.22.05-.04,0-.08.01-.11.02-.09.01-.18.02-.26.02h-.14c-.09,0-.18-.01-.26-.02l-.12-.02c-.08-.01-.15-.03-.22-.05-.04-.01-.08-.02-.11-.04-.08-.03-.16-.06-.24-.1-.03-.01-.06-.02-.08-.04-.09-.04-.17-.09-.25-.15h-.02s-.06-.06-.06-.06c-3.03-2.14-6.27-3.95-9.68-5.4-7.77.82-13.03,2.4-13.03,4.22,0,2.65,11.22,4.81,25.06,4.81s25.06-2.15,25.06-4.81c0-1.93-5.93-3.6-14.5-4.36" fill="#fff"/>
      <path id="_패스_348" data-name="패스 348" d="m58.13,4C28.31,4,4.13,28.18,4.13,58s24.18,54,54,54,54-24.18,54-54c-.03-29.81-24.19-53.97-54-54m0,105.61c-28.5,0-51.61-23.11-51.61-51.61S29.63,6.39,58.13,6.39s51.61,23.1,51.61,51.61c-.03,28.49-23.12,51.58-51.61,51.61" fill="#fff"/>
      <rect id="_사각형_122" data-name="사각형 122" width="116" height="115" fill="none"/>
    </g>
  </g>
</svg>