<?xml version="1.0" encoding="UTF-8"?>
<svg id="Layer_2" data-name="Layer 2" xmlns="http://www.w3.org/2000/svg" viewBox="0 0 274 124">
  <g id="Logo">
    <g id="symbol_10_01_0001_01" data-name="symbol 10 01 0001 01">
      <rect id="_사각형_120" data-name="사각형 120" y=".04" width="274" height="123.96" fill="none"/>
      <path id="_패스_747" data-name="패스 747" d="m136.17,120.33c46.03,0,102.77-.3,122.9-.01l10.33.15c.58-.01,1.15.16,1.63.48.56.81.45,1.91-.27,2.58-.36.21-.74.35-1.15.44h0s-218.52.05-255.81.03c-3.07,0-7.9,0-11.79,0-.25-.38-.39-.83-.41-1.28-.03-.59.15-1.18.51-1.66.66-.56,1.53-.82,2.39-.71,43.89,0,87.78,0,131.67-.01Z" fill="#fff"/>
      <path id="_패스_748" data-name="패스 748" d="m137.16,70.31l21.26.02c.83-.08,1.66.09,2.39.5,1.02.74,1.11,2.2,1.11,3.45l-.1,34.38c0,2.07-.12,4.4-1.65,5.79-1.71-.99-1.91-3.33-1.91-5.3l-.05-31.64c0-1.26-.14-2.76-1.25-3.36-.54-.23-1.12-.33-1.7-.28l-13.41.03c-1.03,0-2.24.09-2.82.95-.29.56-.42,1.19-.35,1.82l.15,28.98c.01,2.51.64,7.61-1.94,9.03-1.7-1.6-1.65-4.53-1.65-6.68l.1-31.17c.37-1.23-.33-2.52-1.55-2.89-.39-.12-.81-.13-1.21-.03l-13.37-.05c-.77-.08-1.55.08-2.23.45-1.02.7-1.12,2.15-1.11,3.38l.17,28.79c.02,2.82-.03,5.85-1.64,8.16-1.74-1.03-1.93-3.43-1.93-5.45l.03-36.01c-.05-.6.06-1.2.31-1.74.6-1.03,2.02-1.15,3.21-1.15l21.13.02Z" fill="#fff"/>
      <path id="_패스_749" data-name="패스 749" d="m108.23,17.66c7.03-.13,14.01,1.21,20.5,3.92,2.36,1.01,4.74,2.24,7.3,2.22,2.29-.02,4.42-1.06,6.53-1.94,15.37-6.36,32.7-5.96,47.76,1.11,1.86.88,4.18,2.02,5.1,3.94-2.03,1.65-5.94-.54-7.96-1.46-14.16-6.35-30.39-6.21-44.44.37-2.41,1.15-4.95,2.53-7.6,2.15-1.37-.29-2.69-.79-3.91-1.48-14.19-6.76-30.58-7.17-45.09-1.12-2.86,1.21-6.01,2.7-8.93,1.64.49-1.96,2.55-3.03,4.42-3.8,8.34-3.49,17.27-5.37,26.31-5.55Z" fill="#fff"/>
      <path id="_패스_750" data-name="패스 750" d="m76.12,7.92C84.52,3.77,93.59,1.17,102.91.25c9.35-.91,18.77.68,27.3,4.62,1.51.91,3.21,1.47,4.97,1.63,1.46-.12,2.88-.52,4.19-1.18,16.22-6.61,34.42-6.47,50.54.38.95.41,5.78,2.82,4.46,4.07-1.5,1.42-7.25-1.67-8.7-2.29-14.83-6.26-31.67-5.65-46.02,1.66-2.37,1.88-5.7,1.93-8.12.12-15.42-7.59-33.49-7.63-48.95-.1-1.15.71-2.46,1.13-3.82,1.22-1.34-.05-2.77-1.11-2.64-2.46Z" fill="#fff"/>
      <path id="_패스_751" data-name="패스 751" d="m81.52,75.39v-29.08c0-2.08,0-4.17,0-6.25-.05-.79.06-1.58.32-2.32,1.05-2.45,3.2-.94,3.43.96.35,2.85-.03,6.01-.03,8.89,0,6.3,0,12.6.01,18.89,0,12.6,0,25.19.01,37.79v7.93c.1.68-.11,1.38-.58,1.89-.73.44-1.67.23-2.14-.47-.43-.7-.66-1.5-.66-2.33-.36-4.21-.36-8.44-.36-12.67v-23.25Z" fill="#fff"/>
      <path id="_패스_752" data-name="패스 752" d="m191.97,75.4v35.99c0,1.27-.35,2.96-1.62,3.06-.73,0-1.37-.46-1.63-1.14-.24-.67-.34-1.38-.29-2.08l-.04-71.13c-.15-1.11.17-2.24.87-3.12,2.5-2.33,2.7,2.57,2.7,3.62v34.8h0Z" fill="#fff"/>
    </g>
  </g>
</svg>