<?xml version="1.0" encoding="UTF-8"?>
<svg id="_레이어_2" data-name="레이어 2" xmlns="http://www.w3.org/2000/svg" viewBox="0 0 69 76">
  <g id="Logo">
    <g id="symbol_05_02_0005_02" data-name="symbol 05 02 0005 02">
      <path id="_패스_1355" data-name="패스 1355" d="m57.51,50.95c-8.65-3.91-17.43-7.54-26.09-11.43-7.49-3.37-15.12-6.58-21.17-12.39-2.86-2.75-2.78-4.68.51-6.81,2.3-1.29,4.68-2.44,7.12-3.42,2.23-1.06,5.66-1.35,5.83-4.17.17-2.7-2.85-4.04-5.06-5.23C13.5,4.61,7.82,2.77,1.96,2.06v7.5c.04.46.05.95.05,1.48-.15,19.64.03,39.28-.14,58.92-.03,3.38.99,3.99,4.12,3.96,16-.16,32-.16,48,.01,2.64.12,5.18-1.01,6.86-3.06,6.87-7.58,6.69-15.39-3.33-19.93" fill="#fff"/>
      <rect id="_사각형_426" data-name="사각형 426" width="69" height="76" fill="none"/>
    </g>
  </g>
</svg>