<?xml version="1.0" encoding="UTF-8"?>
<svg id="Layer_2" data-name="Layer 2" xmlns="http://www.w3.org/2000/svg" viewBox="0 0 42 42">
  <g id="Logo">
    <g id="symbol_20_01_0001_02" data-name="symbol 20 01 0001 02">
      <path id="_패스_480" data-name="패스 480" d="m20.56,1.99c-5.26,0-9.52,4.27-9.52,9.53s4.27,9.52,9.52,9.52c5.26,0,9.52-4.26,9.52-9.52,0-5.26-4.27-9.52-9.53-9.53" fill="#fff"/>
      <path id="_패스_481" data-name="패스 481" d="m8.63,31.01c-2.64,0-5.28-.22-7.88-.66,5.39,4.45,12,7.14,18.96,7.72,5.4.47,10.85-.08,16.05-1.61,2.17-4.64,3.54-9.61,4.06-14.7-4.47,2.69-9.23,4.86-14.19,6.47-5.49,1.8-11.22,2.74-17,2.78" fill="#fff"/>
      <rect id="_사각형_174" data-name="사각형 174" width="42" height="42" fill="none"/>
    </g>
  </g>
</svg>