<?xml version="1.0" encoding="UTF-8"?>
<svg id="_레이어_2" data-name="레이어 2" xmlns="http://www.w3.org/2000/svg" viewBox="0 0 252 231">
  <g id="Logo">
    <g id="symbol_17_05_0003_01" data-name="symbol 17 05 0003 01">
      <path id="_패스_1193" data-name="패스 1193" d="m73.16,211.32c11.48-7.36,21.53-16.74,29.67-27.68,1.16-1.54,2.22-3.01,2.22-3.01,2.41-3.49,4.43-7.23,6.04-11.15-21.51-14.71-38.33-35.3-48.44-59.32,0,0-5.26,3.21-9.56,6.32,0,0-3.29,2.39-7.15,5.77-17.24,15.12-30.17,33.06-35.87,55.6-2.14,8.45-2.6,17.05-.34,25.57,3.15,11.91,12.85,19.4,25.14,19.89,14.22.56,26.62-4.62,38.3-11.99m2.22-49.44c1.65.09,3.17.94,4.12,2.29,2.13,2.93,4.31,5.85,6.3,8.88,1.74,2.65,1.19,5.56-1.1,7.09s-4.95,1.06-6.8-1.41c-2.29-3.05-4.55-6.15-6.56-9.39-1.43-2.28-.74-5.29,1.54-6.72.75-.47,1.62-.73,2.51-.74m-25.87-18.68c1.45-1.8,3.53-2.64,5.6-1.43,3.4,2.11,6.38,4.84,8.79,8.03.31.54.5,1.14.57,1.76.19,1.9-.74,3.73-2.39,4.68-1.48,1.01-3.43.97-4.87-.09-2.87-2.05-5.48-4.45-7.76-7.14-1.45-1.68-1.42-4.17.07-5.82m-15.69,20.59c2.05-3.62,6.16-4.44,8.49-1.67,1.73,2.06,1.4,4.17.18,6.39-2.48,4.14-2.39,9.33.24,13.38,3.52,5.72,10.82,7.81,16.84,4.83.69-.33,1.33-.76,2.03-1.07,2.25-1.09,4.96-.34,6.32,1.76,1.43,2.15.84,5.06-1.31,6.49-.04.03-.09.06-.13.08-3.54,2.59-7.85,3.93-12.24,3.79-18.02-.04-29.03-18.78-20.41-33.98" fill="#fff"/>
      <path id="_패스_1195" data-name="패스 1195" d="m241.74,113.97c.13-9.34-1.58-18.61-5.02-27.29-12.98-33.3-36.08-57.18-68.48-71.93-13.35-6.08-27.45-8.78-42.26-6.75-16.72,2.29-29.82,13.71-34.07,30.06-3.5,13.46-1.89,26.68,2.64,39.52,10.4,29.5,29.93,51.58,56.5,67.55,15.21,9.14,31.61,14.72,49.64,13.7,14.23-.81,26.19-6.28,34.17-18.64,5.2-8.05,7.11-17.06,6.87-26.21m-98.47-22.37c-.38.43-.79.84-1.21,1.23-5.41,4.93-13.28,6.07-19.87,2.9-2.68-1.27-3.83-4.47-2.57-7.16,1.27-2.68,4.47-3.83,7.16-2.57.03.01.06.03.08.04,3.49,1.73,7.72.31,9.45-3.18,1.06-2.14.97-4.66-.24-6.72-1.48-2.57-.6-5.86,1.97-7.34s5.86-.6,7.34,1.97c3.88,6.67,3.02,15.07-2.12,20.82m12.9-36.54c1.29-2.67,4.5-3.79,7.17-2.5,0,0,0,0,0,0,3.49,1.73,7.72.31,9.45-3.18,1.06-2.14.97-4.66-.24-6.72-1.48-2.57-.6-5.86,1.97-7.34,2.57-1.48,5.86-.6,7.34,1.97,3.87,6.67,3.02,15.07-2.12,20.82-.39.43-.79.84-1.21,1.23-5.41,4.93-13.27,6.07-19.87,2.9-2.67-1.29-3.79-4.5-2.5-7.18,0,0,0,0,0,0m48.4,36.61c-.2.25-.41.48-.65.7-2.08,1.9-5.22,2.02-7.44.29-8.47-6.62-18.31-7.62-23.95-2.44-.01.01-.02.02-.03.03-5.61,5.19-6.22,15.65-1.5,25.44,1.35,2.88.1,6.31-2.78,7.66-2.83,1.32-6.2.15-7.6-2.65-7.01-14.54-5.38-30.17,4.05-38.9l.07-.06c9.88-9.07,25.83-8.32,38.84,1.85,2.51,1.96,2.95,5.58.99,8.09" fill="#fff"/>
      <rect id="_사각형_553" data-name="사각형 553" width="252" height="231" fill="none"/>
    </g>
  </g>
</svg>