<?xml version="1.0" encoding="UTF-8"?>
<svg id="Layer_2" data-name="Layer 2" xmlns="http://www.w3.org/2000/svg" viewBox="0 0 296 216">
  <g id="Logo">
    <g id="symbol_21_01_0002_02" data-name="symbol 21 01 0002 02">
      <path id="_합치기_26" data-name="합치기 26" d="m30.48,203.06c-4.56-5.6-2.6-14.69,2.21-24.53,1.16.7,2.4,1.26,3.68,1.67-4.68,9.55-5.76,16.69-2.79,20.33,6.9,8.46,35.71-.25,75.13-24.51,3.97-2.44,8.05-5.05,12.23-7.81l.43-.29c-.17-.02-.35-.05-.52-.08.18.03.35.05.53.08,1.04-.69,2.08-1.38,3.12-2.09-1.27-5.55-2.35-10.96-3.23-16.25h24.05v1.5c.67-.5,1.34-1,2.02-1.5l1.98-1.49c1.1-.83,2.2-1.66,3.3-2.51h-3.3v-27.44h27.39c-.13,2.78-.3,5.62-.53,8.51,1.43-1.2,2.85-2.41,4.25-3.61.1-1.65.2-3.29.27-4.91h5.39c1.52-1.34,3.03-2.67,4.51-4h-9.76c.27-9.15.03-18.32-.7-27.44h27.84c.09,1,.15,2,.2,3.01,0,.14.02.27.02.41.04,1.04.07,2.08.07,3.13,0,1.14-.04,2.27-.09,3.41-.02.37-.04.73-.06,1.09v.02c3.85-3.76,7.51-7.45,10.98-11.07.04-.04.08-.09.13-.14,1.92-2,3.78-3.98,5.58-5.94,7.25-7.79,14.08-15.96,20.47-24.47,1.08.74,2.25,1.35,3.47,1.83-6.8,9.05-14.08,17.73-21.81,26-6.02,6.51-12.54,13.14-19.4,19.76-.02.11-.03.22-.05.33-.1.65-.2,1.31-.32,1.96-.05.32-.11.63-.17.95-.45,2.43-1.01,4.81-1.68,7.15h-8.86c-1.46,1.33-2.94,2.67-4.42,4h12.01c-.52,1.49-1.1,2.95-1.71,4.4-3.07,7.29-7.26,14.05-12.43,20.04l-.04.05c-.87,1.01-1.77,1.99-2.69,2.95h-9.12c.87-5.84,1.51-11.49,1.97-16.96-1.44,1.23-2.89,2.44-4.34,3.65-.43,4.32-.98,8.75-1.67,13.3h-14.89c-1.73,1.34-3.47,2.68-5.22,4h19.46c-.46,2.73-.96,5.49-1.52,8.29-.93.56-1.88,1.1-2.83,1.63-.41.23-.83.44-1.25.66-.55.29-1.1.58-1.66.85-.53.26-1.06.51-1.6.76-.43.2-.87.4-1.3.59-.63.28-1.27.55-1.91.81-.28.11-.56.22-.85.33-3.62,1.43-7.34,2.57-11.14,3.42h0v-13.9c-1.33.99-2.67,1.97-4,2.94v11.74c-.9.15-1.81.28-2.72.4-.25.03-.49.06-.74.09-.78.1-1.56.18-2.34.25-.51.05-1.02.08-1.53.12-.59.04-1.17.08-1.77.11-1.16.05-2.32.09-3.49.09s-2.33-.04-3.48-.09c-.22,0-.45-.02-.67-.03-.41-.02-.83-.04-1.24-.08-.63.42-1.25.85-1.88,1.27-1.18.79-2.37,1.56-3.55,2.33-3.46,2.27-6.89,4.45-10.3,6.56-28.15,17.4-53.69,28.85-69.02,28.85-5.42,0-9.57-1.43-12.1-4.53Zm-2.53-39.81c0-7.61,6.17-13.78,13.78-13.78,7.61,0,13.78,6.17,13.78,13.78,0,7.61-6.17,13.78-13.78,13.78-7.61,0-13.78-6.17-13.78-13.78h0s0,0,0,0Zm89.64,4l-.2-.04c-.97-.2-1.94-.42-2.9-.66-.13-.03-.27-.07-.4-.1-2.02-.51-4-1.11-5.96-1.78-.19-.06-.38-.13-.56-.2-.83-.29-1.66-.6-2.48-.93l-.41-.16c-.93-.37-1.85-.76-2.75-1.17-.18-.08-.36-.17-.54-.25-.73-.33-1.45-.68-2.16-1.03-.24-.12-.48-.24-.72-.36-.87-.44-1.73-.9-2.58-1.37-.41-.74-.82-1.49-1.21-2.25-.07-.14-.14-.27-.21-.41-.33-.65-.65-1.3-.96-1.96-.05-.1-.09-.19-.13-.29-.34-.72-.67-1.45-.98-2.19-.02-.04-.03-.07-.05-.11-.34-.8-.67-1.6-.98-2.41h25.8c.97,5.92,2.18,12,3.64,18.26-1.1-.17-2.18-.37-3.26-.59Zm59.83-17.67h5.61c-1.02.91-2.07,1.8-3.14,2.65l-.12.09c-1.07.85-2.15,1.66-3.26,2.46.32-1.75.62-3.48.91-5.2Zm-124.98-.5c4.58-5.67,9.68-11.54,15.21-17.51,4.09-4.42,8.42-8.9,12.97-13.44,1.34-1.33,2.69-2.67,4.06-4,.8-.78,1.62-1.57,2.44-2.35,1.23-8.78,4.01-17.28,8.21-25.09h19.17c-.01.15-.02.3-.03.45-.15,1.82-.27,3.68-.38,5.58-.37,6.62-.51,13.78-.29,21.41h-26.97c-.05.46-.09.91-.13,1.37-.08.81-.14,1.62-.19,2.43l-.2.2c-5.84,5.72-11.34,11.38-16.45,16.94-5.27,5.73-10.12,11.33-14.5,16.77-.86-1.02-1.84-1.95-2.91-2.76h0Zm37.57-3.51c-.28-.88-.55-1.77-.81-2.67l-.05-.17c-.25-.89-.48-1.78-.7-2.68,0-.02-.01-.04-.02-.07-.45-1.86-.82-3.75-1.13-5.67,0-.07-.02-.13-.03-.2-.13-.82-.24-1.65-.35-2.48-.03-.24-.06-.48-.08-.73-.07-.67-.14-1.34-.2-2.02-.03-.29-.05-.58-.07-.88-.05-.66-.09-1.33-.12-2-.01-.27-.03-.55-.04-.83-.03-.93-.05-1.86-.05-2.8,0-1.08.03-2.15.08-3.22.01-.35.03-.7.04-1.05h27.45c.41,9.19,1.29,18.35,2.65,27.44h-26.58Zm30.63,0c-1.38-9.09-2.28-18.26-2.69-27.44h27.38v27.44h-24.68Zm-2.85-31.44c-.25-8.34-.07-16.69.53-25.01.06-.82.12-1.64.19-2.44h26.82v27.44h-27.53Zm31.53,0v-27.45h26.83c.75,9.13.98,18.29.71,27.44h-27.54Zm30.45-31.44c-1.09-11.81-3.22-23.5-6.34-34.94h0c2.23.34,4.42.78,6.57,1.31l.21.05c2.11.53,4.17,1.14,6.21,1.84.13.04.26.09.38.13.88.31,1.76.64,2.63.98.13.05.26.1.39.15.95.38,1.9.78,2.83,1.19.14.06.28.13.43.2.77.35,1.54.71,2.29,1.09.23.12.47.23.7.35.88.45,1.76.91,2.62,1.39.5.89.97,1.79,1.43,2.71.12.23.23.45.34.68.43.87.85,1.75,1.25,2.63.02.05.04.1.07.15.43.97.83,1.94,1.22,2.93.07.17.14.34.2.51.37.96.73,1.94,1.06,2.92l.02.06c.36,1.06.7,2.14,1.01,3.22l.07.23c.96,3.35,1.68,6.75,2.16,10.2h-27.76Zm-30.46,0v-34.76c.9-.15,1.81-.28,2.72-.4.25-.03.5-.07.75-.1.78-.1,1.55-.18,2.34-.25.51-.04,1.02-.08,1.53-.12.59-.04,1.17-.09,1.76-.11,1.16-.05,2.32-.09,3.49-.09,1.1,0,2.2.03,3.29.08.24,0,.48.02.72.04.42.02.84.04,1.26.07.53-.36,1.06-.72,1.58-1.07,1.16-.78,2.31-1.54,3.46-2.29,3.62-2.38,7.2-4.67,10.74-6.85,10.29-6.37,20.19-11.9,29.41-16.39,19-9.26,43.41-18.13,51.79-7.85,2.81,3.44,3.19,8.42,1.59,14.53-1.1-.81-2.28-1.49-3.53-2.02.98-4.4.62-7.79-1.16-9.98-1.69-2.08-4.76-3.09-8.99-3.09-8.51,0-21.72,4.11-37.94,12.02-8.83,4.3-18.3,9.58-28.15,15.63-4.12,2.54-8.31,5.21-12.56,8.01l-.08.05h.09s-.06,0-.09,0c-1.13.75-2.27,1.51-3.41,2.28,2.86,10.71,4.82,21.64,5.87,32.68h-26.46Zm-23.25,0h-7.2c.82-8.38,2.14-16.71,3.94-24.93h.01c.92-.56,1.85-1.09,2.79-1.61.43-.24.87-.46,1.31-.69.53-.28,1.07-.56,1.6-.82s1.09-.52,1.63-.78c.42-.19.84-.38,1.26-.57.64-.28,1.28-.56,1.94-.83.27-.11.54-.21.82-.32,3.62-1.43,7.34-2.57,11.14-3.42h0v33.97h-19.25Zm-28.42,0h0c.65-1.06,1.34-2.1,2.04-3.12.03-.04.06-.09.1-.13.68-.98,1.38-1.94,2.1-2.89.05-.06.09-.11.14-.17.72-.93,1.46-1.85,2.22-2.75l.14-.16c.77-.9,1.56-1.79,2.37-2.65l.11-.11c.82-.88,1.67-1.73,2.53-2.57l.07-.07c.88-.85,1.79-1.68,2.71-2.49l.03-.02c1.88-1.65,3.84-3.19,5.87-4.65-1.21,6.06-2.38,13.38-3.21,21.79h-17.21Zm143.86-41.22c0-7.61,6.17-13.78,13.78-13.78,7.61,0,13.78,6.17,13.78,13.78,0,7.61-6.17,13.78-13.78,13.78h0c-7.61,0-13.78-6.17-13.78-13.78Z" fill="#fff"/>
      <rect id="_사각형_260" data-name="사각형 260" width="296" height="216" fill="none"/>
    </g>
  </g>
</svg>