<?xml version="1.0" encoding="UTF-8"?>
<svg id="_레이어_2" data-name="레이어 2" xmlns="http://www.w3.org/2000/svg" viewBox="0 0 105 105">
  <g id="Logo">
    <g id="symbol_02_02_0002_01" data-name="symbol 02 02 0002 01">
      <path id="_패스_834" data-name="패스 834" d="M52.76,103.82c-28.24-.03-51.13-22.92-51.16-51.16C1.63,24.41,24.52,1.53,52.76,1.49c28.25,.03,51.14,22.92,51.17,51.16-.03,28.24-22.92,51.13-51.17,51.16Zm0-98.99c-26.41,.03-47.8,21.43-47.83,47.83,.03,26.4,21.43,47.8,47.83,47.83,26.4-.03,47.8-21.43,47.83-47.83-.03-26.4-21.43-47.8-47.83-47.83Z" fill="#fff"/>
      <path id="_패스_835" data-name="패스 835" d="M38.67,21.33c1.19,.34,2.41,.59,3.56,1.03,2.71,1.07,5.17,2.68,7.23,4.74,1.57,1.54,3.14,3.09,4.66,4.67,2.85,2.79,4.81,6.36,5.65,10.27,.3,1.32,.22,2.71-.25,3.99-.14,.35-.32,.68-.53,.98-.39,.84-1.39,1.21-2.23,.83-.27-.12-.5-.32-.68-.56-2.38-2.37-4.75-4.75-7.12-7.14-.2-.23-.38-.47-.56-.72-.15,.26-.32,.51-.51,.74-6.12,6.14-12.25,12.28-18.38,18.42-1.53,1.74-4.08,2.13-6.06,.93-1.08-.65-1.87-1.7-2.18-2.92-.04-.16-.1-.31-.14-.47v-1.5c.44-1.41,1.27-2.66,2.4-3.61,5.89-5.87,11.77-11.75,17.63-17.65,.17-.17,.33-.35,.56-.6-.23-.19-.44-.33-.61-.51-2.39-2.39-4.78-4.78-7.16-7.18-.71-.55-.83-1.57-.28-2.27,.12-.16,.27-.29,.45-.39,.32-.26,.68-.47,1.06-.63,.45-.19,.93-.31,1.4-.46h2.11Z" fill="#fff"/>
      <path id="_패스_836" data-name="패스 836" d="M66.52,44.69c.07-.25,.16-.49,.26-.73,.99-2.01,1.99-4.01,3-6.01,.3-.83,1.23-1.26,2.06-.96,.05,.02,.09,.04,.14,.06,.8,.4,1.13,1.37,.74,2.17-.03,.06-.06,.12-.1,.17-1.01,2.04-2.03,4.08-3.06,6.11-.3,.72-1.1,1.1-1.85,.89-.76-.21-1.26-.93-1.2-1.71Z" fill="#fff"/>
      <path id="_패스_837" data-name="패스 837" d="M55.8,54.78c.03,.88-.67,1.62-1.55,1.65-.25,0-.5-.04-.72-.15-.96-.43-1.89-.93-2.84-1.41-1.13-.56-2.26-1.12-3.39-1.7-.83-.3-1.26-1.22-.96-2.05,.02-.05,.04-.11,.07-.16,.39-.8,1.36-1.13,2.17-.74,.06,.03,.11,.06,.17,.1,2,.99,4,2,6,3,.61,.24,1.02,.8,1.06,1.45Z" fill="#fff"/>
      <path id="_패스_838" data-name="패스 838" d="M45.19,58.9c1.02,0,2.03,0,3.05,0,.87-.05,1.61,.62,1.66,1.49,0,.05,0,.11,0,.16,.04,.86-.62,1.59-1.48,1.63-.04,0-.09,0-.13,0-2.03,.02-4.07,.02-6.1,0-.87,.03-1.61-.65-1.64-1.52,0-.05,0-.1,0-.16,0-.88,.72-1.6,1.6-1.6,.02,0,.03,0,.05,0h2.99Z" fill="#fff"/>
      <path id="_패스_839" data-name="패스 839" d="M52.47,96.24c23.98,0,43.43-19.44,43.43-43.43,0-5.21-.93-10.38-2.76-15.26-2.45,.94-5.42,3.69-9.91,7.67-5.1,2.04-10.19,4.07-15.27,6.14-.51,.21-.95,.56-1.27,1.01-1.86,2.72-3.68,5.48-5.49,8.23-.25,.4-.64,.7-1.09,.83-2.66,.87-5.31,1.77-7.96,2.63-.3,.09-.58,.24-.83,.43-.25,.2-.47,.45-.63,.73-1.94,2.4-4.07,4.64-6.36,6.71-2.1,1.92-4.34,3.68-6.71,5.26h0c-8.55-.89-10.26-.95-10.26-.95-3.66-.13-7.32,.11-10.93,.73,4.65,6.71,11.01,12.06,18.41,15.5,1.59,.72,3.22,1.33,4.88,1.85,4.15,1.19,8.44,1.83,12.76,1.9Z" fill="#fff"/>
      <rect id="_사각형_162" data-name="사각형 162" width="105" height="105" fill="none"/>
    </g>
  </g>
</svg>