<?xml version="1.0" encoding="UTF-8"?>
<svg id="_레이어_2" data-name="레이어 2" xmlns="http://www.w3.org/2000/svg" viewBox="0 0 140 140">
  <g id="Logo">
    <g id="symbol_05_01_0001_01" data-name="symbol 05 01 0001 01">
      <rect id="_사각형_16" data-name="사각형 16" width="140" height="140" fill="none"/>
      <g id="_그룹_18" data-name="그룹 18">
        <path id="_패스_195" data-name="패스 195" d="M125.49,36.28c-.11,8.13-2.08,16.13-5.75,23.38-4.1,8.11-10.2,15.06-17.71,20.18-4.1,2.82-8.57,5.04-13.29,6.61-5.49,1.83-11.24,2.77-17.03,2.76-.15,0-.28,0-.43,0,0,0-1.96,0-2.99,0-7.19,0-13.42,4.99-14.99,12-.19,.83-.31,1.67-.35,2.52h18.76c3.97,0,7.93-.34,11.83-1.02,3.96-.69,7.85-1.73,11.62-3.11,13.79-5.06,25.59-14.42,33.66-26.69h0c7.16-10.89,11.05-23.6,11.18-36.62h-14.52Z" fill="#fff"/>
        <path id="_패스_196" data-name="패스 196" d="M37.97,60.16c4.1-2.82,8.57-5.04,13.29-6.61,5.49-1.83,11.24-2.77,17.03-2.76h3.41c7.19,0,13.42-4.99,14.99-12,.19-.83,.31-1.67,.35-2.52h-18.76c-3.97,0-7.93,.34-11.83,1.02-3.96,.69-7.85,1.73-11.62,3.11h0C18.2,50.16,.35,75.36,0,103.72H14.51c.11-8.13,2.08-16.13,5.75-23.38,4.1-8.11,10.2-15.06,17.71-20.18h0Z" fill="#fff"/>
        <path id="_패스_197" data-name="패스 197" d="M71.28,77.26h.43c22.78,.03,41.39-18.2,41.82-40.98h-14.52c-.45,14.75-12.54,26.47-27.3,26.47h-3.41c-22.78-.03-41.39,18.2-41.82,40.98h14.51c.45-14.75,12.54-26.47,27.3-26.47h2.99Z" fill="#fff"/>
      </g>
    </g>
  </g>
</svg>