<?xml version="1.0" encoding="UTF-8"?>
<svg id="_레이어_2" data-name="레이어 2" xmlns="http://www.w3.org/2000/svg" viewBox="0 0 170 259">
  <g id="Logo">
    <g id="symbol_05_04_0005_01" data-name="symbol 05 04 0005 01">
      <path id="_패스_1388" data-name="패스 1388" d="m22.54,132.49c-.37-5.7-.73-9.31,1.59-11.75,1.11-1.16,2.89-1.91,5.71-1.97,9.03-.2,10.1,7.01,10.45,14,1.09,21.54,2.53,43.07,3.08,64.63.77,30.08,6.64,36.17,37.24,36.49,3.87.04,7.77,0,11.62-.34,30.41-2.63,33.27-5.89,34.32-35.93.76-21.55,2.19-43.08,3.27-64.62.35-6.95.91-14.35,9.99-14.32,10.85.04,7.73,8.89,7.5,14.88-1.05,27.65-2.49,55.28-3.85,82.92-.88,17.89-11.34,28.38-27.4,33.67-20.59,6.79-41.51,6.49-62.14.12-18.76-5.79-26.82-17.05-27.7-36.52-.98-21.55-2.18-43.1-3.28-64.64.11-6.97-.14-12.61-.4-16.61" fill="#fff"/>
      <path id="_패스_1389" data-name="패스 1389" d="m93.49,152.43c0,19.34.12,38.69-.07,58.03-.06,6.11-.37,13.43-8.76,13.32-8.53-.12-8.28-7.68-8.3-13.64-.15-38.69-.15-77.37-.01-116.06.01-5.67.46-11.69,8.09-12.12,3-.17,5.03.48,6.41,1.66,3.37,2.88,3.05,8.68,2.91,10.78-.58,9.25-.51,29.76-.27,58.03" fill="#fff"/>
      <path id="_패스_1390" data-name="패스 1390" d="m67.52,173.52c0,12.69.05,25.38-.03,38.07-.03,3.82.26,8.24-4.99,9.02-5.08.75-8.62-1.97-10.14-6.59-1.2-3.66-1.87-7.48-1.96-11.33-.47-23.17-.65-46.34-1.04-69.51-.1-5.84-.18-11.62,7.72-11.87,2.22-.19,4.43.43,6.22,1.74,3.04,2.42,3.32,6.82,3.41,9.09.31,7.38.74,22.07.8,41.37" fill="#fff"/>
      <path id="_패스_1391" data-name="패스 1391" d="m120.44,170.46c-.6,9.73-1.48,24.03-2.37,38.33-.43,6.92-3.49,12.48-10.95,11.6-7.57-.89-6.68-7.79-5.96-13.17,3.14-23.64.51-47.44,2.13-71.1.44-6.4-.52-14.82,9.34-14.18,8.34.54,7.61,8.18,7.75,14.12.24,9.93.07,19.86.07,34.4" fill="#fff"/>
      <path id="_패스_1392" data-name="패스 1392" d="m154.94,90.72c2.77-.02,6.27.08,8.32,2.4.94,1.15,1.46,2.59,1.48,4.07.33,5.02-2.47,8.54-7.23,9.84-15.13,4.15-30.6,4.46-46.1,3.18-5.06-.42-7.78-3.93-7.32-9.24.49-5.73,3.68-9.45,9.39-9.78,7.71-.44,15.47-.11,23.21-.11,5.68-.19,11.68-.32,18.25-.37" fill="#fff"/>
      <path id="_패스_1393" data-name="패스 1393" d="m36.37,90.87c6.63,0,13.27-.2,19.89.06,5.68.22,9.49,3.03,9.51,9.18.03,6.78-3.86,10.49-10.34,10.25-13.21-.48-26.42-1.43-39.6-2.53-6.07-.51-10.93-3.52-10.59-10.36-.02-1.62.54-3.19,1.57-4.44,2.35-2.58,6.5-2.48,9.64-2.36,4.64.18,11.09.31,19.9.19" fill="#fff"/>
      <path id="_패스_1394" data-name="패스 1394" d="m76.39,73.2c-23.43-.11-43.31-18.94-45.29-42.6-.34-4.04.92-5.25,4.8-5.39,22.46-.82,41.93,14.5,47.03,37.21.18.81.32,1.63.47,2.44,1.43,7.53.73,8.37-7.01,8.34" fill="#fff"/>
      <path id="_패스_1395" data-name="패스 1395" d="m91.25,57.14c-4.92-22.9,9.22-46.36,31.9-53.37,3.87-1.19,5.33-.23,6.3,3.53,5.61,21.77-5.18,44.07-26.27,53.92-.75.35-1.52.66-2.29.99-7.05,3.01-8.02,2.5-9.64-5.06" fill="#fff"/>
      <rect id="_사각형_440" data-name="사각형 440" width="170" height="259" fill="none"/>
    </g>
  </g>
</svg>