<?xml version="1.0" encoding="UTF-8"?>
<svg id="Layer_2" data-name="Layer 2" xmlns="http://www.w3.org/2000/svg" viewBox="0 0 180 137">
  <g id="Logo">
    <g id="symbol_19_04_0001_02" data-name="symbol 19 04 0001 02">
      <path id="_패스_438" data-name="패스 438" d="m110.89,94.98l48.47,8.88c4.86.89,9.53-2.33,10.42-7.2.1-.53.15-1.07.15-1.61v-34.29c-23.87-7.94-49.66,4.97-57.6,28.84-.59,1.76-1.07,3.56-1.43,5.39m48.11-13.18c0,2.05-1.66,3.72-3.72,3.72h-3.47v3.47c0,2.05-1.66,3.72-3.72,3.72s-3.72-1.66-3.72-3.72v-3.47h-3.47c-2.05,0-3.72-1.67-3.71-3.72,0-2.05,1.66-3.71,3.71-3.71h3.47v-3.47c0-2.05,1.66-3.72,3.72-3.72s3.72,1.66,3.72,3.72v3.47h3.47c2.05,0,3.72,1.66,3.72,3.72" fill="#fff"/>
      <path id="_패스_439" data-name="패스 439" d="m119.77,47.14V11.15l-57.16,7.1c-4.48.56-7.85,4.37-7.85,8.89v34.87l62.11-11.37c1.68-.31,2.9-1.78,2.9-3.49" fill="#fff"/>
      <path id="_패스_440" data-name="패스 440" d="m159.87,6.17l-34.69,4.31v36.66c0,4.32-3.09,8.03-7.34,8.81l-63.09,11.56v9.74c0,4.32,3.09,8.03,7.34,8.81l43.48,7.96c5.52-27.61,32.39-45.52,60-40,1.47.29,2.92.65,4.36,1.07V15.05c0-4.95-4.01-8.96-8.95-8.96-.37,0-.74.02-1.11.07" fill="#fff"/>
      <path id="_패스_441" data-name="패스 441" d="m10,86.4c0,12.98,9.1,24.17,21.8,26.83l79.86,16.68c-4.46-7.53-6.89-16.09-7.05-24.84L10,86.4Z" fill="#fff"/>
      <rect id="_사각형_153" data-name="사각형 153" width="180" height="137" fill="none"/>
    </g>
  </g>
</svg>