<?xml version="1.0" encoding="UTF-8"?>
<svg id="Layer_2" data-name="Layer 2" xmlns="http://www.w3.org/2000/svg" viewBox="0 0 72 138">
  <g id="Logo">
    <g id="symbol_04_02_0004_01" data-name="symbol 04 02 0004 01">
      <path id="_합치기_32" data-name="합치기 32" d="m46.69,128.39c1.33-.98,2.65-1.98,3.97-2.99,2.88,1.82,6,3.24,9.26,4.22h-.05c-4.42-.07-8.82-.49-13.18-1.23Zm-25.69-9.4c-.4-.27-.8-.55-1.19-.83-7.92-5.73-13.9-14.33-14.12-27.23C5,49.23,78.09,48.56,53.4,4.19c0,0,29.36,28.36,0,55.38-14.36,13.21-19.69,28.27-18.17,41.17.16,1.43.42,2.84.76,4.24,1.77,7.36,6,13.9,11.98,18.53-1.52,1.44-3.06,2.86-4.64,4.26-7.11-1.47-15.36-4.09-22.33-8.78h0Z" fill="#fff"/>
      <rect id="_사각형_287" data-name="사각형 287" width="72" height="138" fill="none"/>
    </g>
  </g>
</svg>