<?xml version="1.0" encoding="UTF-8"?>
<svg id="_레이어_2" data-name="레이어 2" xmlns="http://www.w3.org/2000/svg" viewBox="0 0 228 228">
  <g id="Logo">
    <g id="symbol_12_01_0001_01" data-name="symbol 12 01 0001 01">
      <g id="_이어_1-2" data-name=" 이어 1-2">
        <g id="Group_26" data-name="Group 26">
          <path id="Path_197" data-name="Path 197" d="M35.96,87.61c-1.02,0-1.85-.83-1.85-1.85,0-.59,.28-1.14,.75-1.49L114,25.5l79.14,58.78c.8,.64,.92,1.81,.28,2.6-.6,.75-1.68,.91-2.48,.37L114,30.11,37.05,87.24c-.32,.24-.7,.37-1.1,.37h0Z" fill="#fff"/>
          <rect id="Rectangle_15" data-name="Rectangle 15" x="36.21" y="96.03" width="71.93" height="33.11" rx="4.71" ry="4.71" fill="#fff"/>
          <rect id="Rectangle_16" data-name="Rectangle 16" x="36.21" y="139.41" width="71.93" height="53.08" rx="4.71" ry="4.71" fill="#fff"/>
          <rect id="Rectangle_17" data-name="Rectangle 17" x="120.12" y="96.03" width="71.93" height="96.47" rx="4.71" ry="4.71" fill="#fff"/>
        </g>
      </g>
      <rect id="Rectangle_21" data-name="Rectangle 21" width="228" height="228" fill="none"/>
    </g>
  </g>
</svg>