<?xml version="1.0" encoding="UTF-8"?>
<svg id="_레이어_2" data-name="레이어 2" xmlns="http://www.w3.org/2000/svg" viewBox="0 0 316 217">
  <g id="Logo">
    <g id="symbol_13_03_0001_01" data-name="symbol 13 03 0001 01">
      <rect id="_사각형_119" data-name="사각형 119" width="316" height="217" fill="none"/>
      <path id="_패스_336" data-name="패스 336" d="M263.41,210.52h-21.18V96.5h-.01l-26.04-18.39h-3.51v16.59l-28.8,17.22V35.29h0L137.06,2.24h-3.51V24.71l-25.78,14.36v61.33l50.78,29.93-.41,80.19h-53.67V102.71l-30.36,19.65-.02,88.17H4.2v3.36H313.46v-3.36h-50.05Zm-113.96-90.5l-12.4-7.29V6.67l12.4,8.76V120.02Zm13.09,90.5V127.71l-9.48-5.57V17.99l13.77,9.73V210.52h-4.29Zm7.92,0V30.27l9.78,6.91v103.73h.01v69.62s-9.79,0-9.79,0Zm45.71,0V82.54l22.43,15.85v112.13h-22.43Z" fill="#fff"/>
    </g>
  </g>
</svg>