<?xml version="1.0" encoding="UTF-8"?>
<svg id="_레이어_2" data-name="레이어 2" xmlns="http://www.w3.org/2000/svg" viewBox="0 0 300 255">
  <g id="Logo">
    <g id="symbol_21_01_0011_01" data-name="symbol 21 01 0011 01">
      <path id="_패스_1383" data-name="패스 1383" d="m244.73,186.57c-7.35,6.62-15.24,12.63-23.59,17.94-8.42,5.31-21.18,10.89-46.7,22.04-3.73,1.51-6.86,2.71-9.12,3.55-7.69,2.87-15.74,5.56-15.74,5.56,0,0-4.36-1.09-5.01-1.25-3.86-1.04-7.65-2.32-11.35-3.84-4.69-1.8-8.81-3.63-11.82-4.98l-.58-.26c-15.07-6.76-22.6-10.14-23.52-10.58-13.06-6.36-25.64-13.65-37.65-21.81-12.83-10.14-23.79-22.44-32.38-36.36,6.63,12.28,15.25,23.37,25.51,32.83,2.94,2.71,5.22,4.58,6.82,5.83,11.78,9.27,25.72,17.99,68.14,36.41,4.27,1.86,10.65,4.6,18.48,7.87l3.57,1,4.18-1.21c16.78-5.83,33.03-13.11,48.55-21.77,8.54-4.64,16.79-9.79,24.71-15.43,16.93-12.28,31.92-27.04,44.48-43.77-8.13,10.19-17.16,19.64-26.97,28.22" fill="#fff"/>
      <path id="_패스_1384" data-name="패스 1384" d="m172.81,234.51c10.29-7.39,22.25-7.45,33.72-.16-10.39,7.46-22.93,7.52-33.72.16" fill="#fff"/>
      <path id="_패스_1385" data-name="패스 1385" d="m91.84,234.41c12.23-7.23,22.3-7.24,33.92-.25-8.5,7.54-21.72,7.76-33.92.25" fill="#fff"/>
      <path id="_패스_1386" data-name="패스 1386" d="m113.65,198.08c9.35,2.04,19.74,14.84,18.75,27.28-11.61-3.93-19.24-15.04-18.75-27.28" fill="#fff"/>
      <path id="_패스_1387" data-name="패스 1387" d="m185.39,197.66c-.66,13.65-7.16,22.46-18.7,28.14-1.66-11.23,5.62-22.39,18.7-28.14" fill="#fff"/>
      <path id="_패스_1388" data-name="패스 1388" d="m209.11,190.32c-2.15,12.71-9.13,21.3-20.66,26.69.73-12.3,8.93-22.9,20.66-26.69" fill="#fff"/>
      <path id="_패스_1389" data-name="패스 1389" d="m233.43,220.31c-10.6,7.26-21.6,8.12-33.51,3.47,9.04-7.85,22.67-9.23,33.51-3.47" fill="#fff"/>
      <path id="_패스_1390" data-name="패스 1390" d="m98.94,223.48c-12.76,5.07-22.26,4.13-33.26-2.96,8.63-5.98,22.27-4.89,33.26,2.96" fill="#fff"/>
      <path id="_패스_1391" data-name="패스 1391" d="m89.3,189.48c12.52,5.8,19.27,14.48,21.44,27.69-12.14-5.48-18.94-14.12-21.44-27.69" fill="#fff"/>
      <path id="_패스_1392" data-name="패스 1392" d="m230.82,178.89c.01,12.09-4.73,20.54-14.82,26.13-1.79-10.56,3.47-20.06,14.82-26.13" fill="#fff"/>
      <path id="_패스_1393" data-name="패스 1393" d="m83.21,204.86c-10.51-4.85-15.49-13.28-15.01-25.42,10.07,4.27,15.28,13.1,15.01,25.42" fill="#fff"/>
      <path id="_패스_1394" data-name="패스 1394" d="m74.71,208.95c-10.85,5.9-21.41,4.76-29.9-3,10.45-4.96,20.15-3.92,29.9,3" fill="#fff"/>
      <path id="_패스_1395" data-name="패스 1395" d="m254.34,206.18c-9.73,7.43-19.43,8.28-29.89,3.56,6.84-7.56,17.31-8.92,29.89-3.56" fill="#fff"/>
      <path id="_패스_1396" data-name="패스 1396" d="m237.19,189.45c-1.06-11.17,1.72-19.44,10.36-26.21,1.52,10.82-1.64,18.95-10.36,26.21" fill="#fff"/>
      <path id="_패스_1397" data-name="패스 1397" d="m245.79,193.82c8.14-7.72,16.41-10.44,26.96-7.58-7.67,7.62-15.98,10.25-26.96,7.58" fill="#fff"/>
      <path id="_패스_1398" data-name="패스 1398" d="m61.47,189.48c-8.76-7.39-11.83-15.49-10.46-26.24,8.79,6.7,11.38,14.98,10.46,26.24" fill="#fff"/>
      <path id="_패스_1399" data-name="패스 1399" d="m52.38,193.88c-10.25,2.69-18.53-.02-25.9-6.92,7.85-4.02,17.78-1.44,25.9,6.92" fill="#fff"/>
      <path id="_패스_1400" data-name="패스 1400" d="m274.39,151.09c-1.54-10.74.9-16.54,9.36-23.06,3.01,7.68-.07,15.54-9.36,23.06" fill="#fff"/>
      <path id="_패스_1401" data-name="패스 1401" d="m24.12,151.16c-7.99-6.16-11.42-13.48-10.22-23.17,8.63,4.8,11.97,12.32,10.22,23.17" fill="#fff"/>
      <path id="_패스_1402" data-name="패스 1402" d="m37.12,149.47c7.35,6.62,8.83,14,6.44,22.49-7.18-3.74-9.41-11.08-6.44-22.49" fill="#fff"/>
      <path id="_패스_1403" data-name="패스 1403" d="m261.32,149.54c3.39,10.28,1.55,17.07-6.02,22.57-2.71-8.64-1.11-15.9,6.02-22.57" fill="#fff"/>
      <path id="_패스_1404" data-name="패스 1404" d="m13.09,163.15c9.56-1.38,16.13,2.08,20.91,9.64-7.75,2.83-15-.37-20.91-9.64" fill="#fff"/>
      <path id="_패스_1405" data-name="패스 1405" d="m264.22,173.5c5.07-8.24,11.72-11.52,20.69-10.58-3.25,8.24-9.58,11.59-20.69,10.58" fill="#fff"/>
      <path id="_패스_1406" data-name="패스 1406" d="m148.21,196.56c-43.17-.36-77.89-35.65-77.53-78.82.36-43.17,35.65-77.89,78.82-77.53,43.17.36,77.89,35.65,77.53,78.82-.33,40.17-31.05,73.55-71.06,77.21-2.58.24-5.17.34-7.76.32m22.15-81.39h0c5.42,0,10.84-.06,16.26.02,1.81.02,2.8-.42,2.53-2.45-1.02-7.51-2.01-15.02-3.03-22.53-.05-1.24-1.1-2.21-2.34-2.16,0,0,0,0,0,0-.11,0-.22.02-.33.04-2.34.08-4.68.06-7.03.07-7.67.03-15.34.08-23.02.07-1.42,0-1.82.67-1.82,1.94.02,7.51.07,15.01-.04,22.51-.03,2,.76,2.52,2.55,2.5,5.42-.06,10.84-.02,16.26-.02m-43.75-.22c5.5,0,11.02-.07,16.52.04,1.83.03,2.36-.55,2.34-2.35-.08-7.29-.07-14.58,0-21.87.02-1.82-.46-2.58-2.46-2.55-9.8.09-19.6.08-29.4.01-1.57-.01-2.4.41-2.62,2.03-1,7.44-2.03,14.87-3.09,22.31-.29,2.01.57,2.46,2.44,2.43,5.43-.1,10.85-.04,16.28-.04m25.14,32.23c.27.14.55.25.84.33,10.59.02,21.18.07,31.77-.02.84-.23,1.5-.87,1.76-1.71,1.09-7.41,2.03-14.84,3.02-22.26.21-1.57-.42-2.13-2.02-2.13-11.16.05-22.31.05-33.47,0-1.53,0-1.95.6-1.91,2.02.08,2.58.02,5.17.02,7.76v16m-6.64.39c.13-.33.23-.67.29-1.02.02-7.77-.01-15.54.06-23.3.02-1.85-1.04-1.85-2.35-1.85-11,.01-22.01.05-33.01-.03-1.88-.01-2.46.67-2.22,2.42.99,7.27,1.96,14.55,2.91,21.83.19,1.49.95,2,2.44,1.98,4.04-.08,8.09-.03,12.13-.03h19.74m38.6,6.29h-2.57c-8.91,0-17.81.07-26.71-.05-2.27-.03-2.9.71-2.88,2.91.09,10.44.04,20.88.05,31.33,0,.71.08,1.42.12,2.1,11.17.89,28.99-19.22,31.99-36.28m-38.59,36.89c.14-.82.25-1.64.31-2.46.01-10.76-.02-21.52.04-32.27.01-1.75-.62-2.18-2.27-2.16-9.3.07-18.61.02-27.91.04-.86.06-1.71.17-2.56.32,2.48,5.42,4.47,10.56,7.1,15.34,4.25,7.76,9.77,14.51,17.9,18.56,2.41,1.03,4.88,1.91,7.39,2.64m38.28-108.97c-.02-.56-.09-1.12-.21-1.67-2.54-7.6-6.34-14.73-11.22-21.08-4.59-5.69-9.94-10.39-17.2-12.39-2.81-.77-3.17-.5-3.17,2.29,0,10.1.05,20.21-.04,30.31-.02,2.09.54,2.81,2.72,2.79,8.9-.11,17.79-.04,26.69-.06.77,0,1.54-.12,2.45-.19m-69.55-.05c.95.04,1.75.11,2.55.11,8.83,0,17.66-.06,26.48.04,2.04.02,2.61-.6,2.6-2.6-.08-10.2-.03-20.41-.04-30.61,0-.76-.13-1.52-.19-2.25-11.78-.07-29.71,20.11-31.39,35.31m78.55,6.53c.05.99.05,1.62.13,2.24.95,7.52,1.99,15.03,2.81,22.56.19,1.74.92,1.92,2.3,1.91,6.96-.04,13.92-.09,20.87.03,2.02.03,2.46-.69,2.33-2.54-.59-7.83-2.48-15.51-5.6-22.71-.61-.85-1.57-1.38-2.61-1.43-4.69-.14-9.38-.07-14.08-.07h-6.17m-87.74,0c-7.18,0-14.2-.03-21.22.05-.51,0-1.24.71-1.5,1.26-3.34,7.37-5.3,15.29-5.76,23.36-.09,1.4.28,2.05,1.84,2.04,7.19-.06,14.39-.06,21.58,0,1.65.02,2.01-.66,2.05-2.16.06-2.66.26-5.32.6-7.96.71-5.41,1.55-10.81,2.4-16.61m-28.04,33.14c-.11.19-.21.38-.28.59.09,8.5,1.94,16.89,5.44,24.64.4.55,1.03.88,1.71.9,6.71.05,13.43.02,20.14-.01.3-.05.58-.16.84-.31.03-.51.03-1.02,0-1.53-.95-7.52-1.97-15.02-2.81-22.55-.19-1.67-1.02-1.72-2.24-1.72-6.31.01-12.62.01-18.93,0h-3.87m115.76,26.04c1.05.05,1.92.12,2.79.12,5.66,0,11.33-.09,16.98.05,1.8.35,3.54-.83,3.89-2.64,0,0,0,0,0,0v-.02c1.27-4.58,2.83-9.1,3.88-13.73.55-3.14.91-6.31,1.09-9.49-.47-.13-.94-.22-1.42-.28-7.44-.02-14.88,0-22.32-.07-1.56-.01-1.79.75-1.9,2.09-.4,4.98-.86,9.96-1.45,14.93-.35,2.94-.98,5.85-1.53,9.04m-19.7,38.57c10.44-.43,35.26-21.14,38.55-31.97-.62-.09-1.24-.16-1.86-.19-5.59-.01-11.17.05-16.76-.05-1.71-.03-2.33.57-2.84,2.16-2.98,9.69-7.77,18.72-14.12,26.63-.9,1.09-1.85,2.14-2.96,3.41m-86.67-31.87c3.15,10.71,29.14,32.33,38.01,31.6-1.58-1.94-3.15-3.76-4.6-5.69-5.38-7.31-9.49-15.48-12.16-24.15-.4-1.22-.76-2.13-2.41-2.1-5.74.11-11.49.04-17.24.06-.54.05-1.07.14-1.59.28m124.7-72.49c-3.3-10.7-29.68-32.28-37.96-31.25,1.87,2.32,3.81,4.57,5.56,6.96,4.91,6.93,8.74,14.57,11.35,22.65.27.78,1.29,1.82,1.99,1.84,5,.17,10.01.12,15.01.09,1.33,0,2.67-.19,4.05-.3m-86.6-31.27c-10.27.63-35.43,21.55-37.66,31.27.7.13,1.41.22,2.12.26,5.26,0,10.52-.13,15.79-.04,1.87.03,2.58-.7,3.32-2.36,2.81-6.34,5.6-12.72,8.91-18.81,2.27-3.61,4.79-7.05,7.53-10.32" fill="#fff"/>
      <path id="_패스_1407" data-name="패스 1407" d="m158.94,17.68c.43,6.4-8.61,13.4-8.61,13.4,0,0-9.07-7.18-7.76-13.4.74-3.51,3.73-8.18,8.18-8.18,4.33,0,7.93,4.41,8.18,8.18" fill="#fff"/>
      <rect id="_사각형_691" data-name="사각형 691" width="300" height="255" fill="none"/>
    </g>
  </g>
</svg>