<?xml version="1.0" encoding="UTF-8"?>
<svg id="Layer_2" data-name="Layer 2" xmlns="http://www.w3.org/2000/svg" viewBox="0 0 154 107">
  <g id="Logo">
    <g id="symbol_08_02_0002_02" data-name="symbol 08 02 0002 02">
      <path id="_합치기_17" data-name="합치기 17" d="m20.58,74.34c.94.25,92.68,24.5,125.43-32-4.37,34.79-33.95,60.88-69.01,60.89-22.36.01-43.36-10.74-56.42-28.89Zm-4.66-7.36c-5.58-10.22-8.5-21.67-8.48-33.32-.01-10.61,2.41-21.09,7.09-30.61,3.23,11.33,20.61,60.69,79.92,69.02-9.62,1.87-19.4,2.76-29.19,2.66-16.76.09-33.42-2.53-49.33-7.76h0Zm50.67-7.28s47,7.76,79.9-22.5c-16.8,23.9-35.66,30.17-50.84,30.17-10.18-.05-20.18-2.69-29.06-7.67h0Zm48.77-22.5c0-4.04,3.27-7.31,7.31-7.31s7.31,3.27,7.31,7.31c0,4.04-3.28,7.31-7.31,7.31-4.04,0-7.31-3.27-7.31-7.31h0Zm16.4-13.84c0-2.47,2-4.47,4.47-4.47h0c2.47,0,4.47,2,4.47,4.46h0c0,2.47-2,4.47-4.47,4.47h0c-2.47,0-4.47-2-4.47-4.47h0s0,0,0,0Zm-13.83-11.19c0-1.75,1.42-3.16,3.16-3.16s3.16,1.41,3.16,3.16c0,1.75-1.41,3.16-3.16,3.16h0c-1.74,0-3.16-1.42-3.16-3.16h0Z" fill="#fff"/>
      <rect id="_사각형_238" data-name="사각형 238" width="154" height="107" fill="none"/>
    </g>
  </g>
</svg>