<?xml version="1.0" encoding="UTF-8"?>
<svg id="_레이어_2" data-name="레이어 2" xmlns="http://www.w3.org/2000/svg" viewBox="0 0 218 229">
  <g id="Logo">
    <g id="symbol_16_02_0002_01" data-name="symbol 16 02 0002 01">
      <rect id="_사각형_203" data-name="사각형 203" width="218" height="229" fill="none"/>
      <path id="_패스_566" data-name="패스 566" d="M82.18,103.14c-1.12-.02-2.24,0-3.36,0s-2.24-.02-3.36,0c-1.85-.01-3.36,1.48-3.38,3.34-.01,1.85,1.48,3.36,3.33,3.38,2.27,.05,4.55,.05,6.83,0,1.85-.04,3.32-1.58,3.27-3.44-.04-1.82-1.53-3.27-3.34-3.27h0Z" fill="#fff"/>
      <path id="_패스_567" data-name="패스 567" d="M56.34,109.86c1.12,0,2.24,.03,3.36,0,1.87-.02,3.38-1.55,3.36-3.42,0-.01,0-.03,0-.04-.05-1.85-1.59-3.31-3.44-3.26-2.2-.02-4.4-.02-6.6,0-1.85-.04-3.38,1.43-3.42,3.28-.02,1.88,1.48,3.42,3.36,3.44,0,0,.02,0,.02,0,1.11,.04,2.23,0,3.35,0Z" fill="#fff"/>
      <path id="_패스_568" data-name="패스 568" d="M79.35,133.66c-7.45,3.63-16.17,3.62-23.61-.03-1.63-.9-3.68-.32-4.58,1.31-.9,1.63-.32,3.68,1.31,4.58,.15,.08,.3,.15,.46,.21,4.33,2.11,9.06,3.26,13.88,3.36,5.31,.08,10.57-1.07,15.37-3.34,1.98-.97,2.76-2.83,1.94-4.6-.79-1.69-2.8-2.42-4.49-1.64-.09,.04-.18,.09-.27,.14Z" fill="#fff"/>
      <path id="_패스_569" data-name="패스 569" d="M130,163.07c-4.73-2.3-9.94-3.46-15.2-3.39-4.9,.05-9.73,1.19-14.13,3.34-1.98,.96-2.76,2.8-1.93,4.6,.79,1.69,2.8,2.42,4.49,1.64,.09-.04,.18-.09,.27-.14,7.45-3.63,16.15-3.63,23.61,0,.71,.31,1.49,.43,2.27,.35,1.46-.22,2.58-1.41,2.72-2.88,.16-1.5-.69-2.93-2.08-3.51Z" fill="#fff"/>
      <path id="_패스_570" data-name="패스 570" d="M129.88,132.77c-1.08-.03-2.16,0-3.25,0-1.16,0-2.31-.02-3.47,0-1.85,0-3.35,1.49-3.36,3.35,0,1.79,1.4,3.27,3.19,3.35,2.35,.07,4.7,.07,7.05,0,1.85-.09,3.27-1.66,3.18-3.51-.09-1.79-1.56-3.19-3.35-3.19h0Z" fill="#fff"/>
      <path id="_패스_571" data-name="패스 571" d="M213.48,5.36c-1.24-1.38-4.31-1.14-4.31-1.14l-4.25,1.18c-2.31,.64-34.82,10.29-141.84,42.19C27.06,62.54,3.53,96.26,3.53,132.31c.11,49.86,40.62,90.18,90.48,90.07,40.55-.09,76.07-27.21,86.83-66.31C203.07,56.35,211.79,18.4,212.88,15.15c0-.02,.06-.17,.14-.4,.54-1.66,.92-3.37,1.11-5.1,0,0,.56-2.93-.66-4.29ZM64.38,166.72c-14.37-1.3-26.44-11.35-30.33-25.24-.61-2.18-.9-4.46-1.33-6.68v-44.67c.05-.1,.15-.18,.16-.29,1.02-6.25,6.54-10.76,12.87-10.52,14.54,.1,29.09,.03,43.64,.03,7.79,0,13.07,5.25,13.08,13.01,0,13.09,0,26.18-.01,39.28,0,1.61-.08,3.22-.27,4.81-2.38,18.63-19.09,32.01-37.79,30.27Zm83.51-7.62c.17,17.02-11.99,31.67-28.74,34.64-1.13,.22-2.28,.36-3.42,.54h-5.62c-1.65-.3-3.32-.5-4.94-.91-11.78-2.98-19.98-10.12-24.64-21.31-.04-.11-.07-.21-.09-.33,1.86-.8,3.76-1.48,5.54-2.41,13.2-6.87,20.85-17.68,22.94-32.41,.21-1.75,.3-3.5,.28-5.26,.03-7.86,.01-15.71,.01-23.57v-1.34h1.28c8.13,0,16.27,0,24.41,0,7.7,0,13,5.28,13,12.97,0,13.13,0,26.26,0,39.39h0Z" fill="#fff"/>
    </g>
  </g>
</svg>