<?xml version="1.0" encoding="UTF-8"?>
<svg id="Layer_2" data-name="Layer 2" xmlns="http://www.w3.org/2000/svg" viewBox="0 0 300 300">
  <g id="Logo">
    <g id="symbol_01_02_0007_02" data-name="symbol 01 02 0007 02">
      <path id="_패스_1273" data-name="패스 1273" d="m266.57,84.11c-.2-2.44-1.56-4.63-3.64-5.9L154.52,12.11l-.05-.03c-.14-.08-.29-.16-.43-.24-.08-.04-.17-.09-.25-.13-.12-.06-.24-.1-.36-.15s-.23-.1-.35-.14c-.08-.03-.15-.05-.23-.07-.16-.05-.33-.1-.49-.14-.03,0-.06-.01-.09-.02-.21-.05-.42-.09-.63-.12-.02,0-.05,0-.07,0-.22-.03-.44-.05-.65-.06-.13,0-.26,0-.39,0-.11,0-.22,0-.33,0-.23.01-.46.03-.69.07h-.03c-.22.03-.44.08-.65.13-.02,0-.05,0-.07.01-.17.04-.33.09-.5.15-.07.02-.15.04-.22.07-.12.04-.24.09-.35.14s-.24.1-.36.15c-.09.04-.17.09-.25.13-.15.07-.29.15-.44.24-.02,0-.03.02-.05.03L38.03,78.21c-2.09,1.27-3.44,3.46-3.65,5.9-.14,1.74-3.4,43.02,8.64,88.88,7.15,27.23,18.25,50.38,32.99,68.79,18.64,23.28,43.05,38.93,72.56,46.51.29.07.58.13.88.17l.17.02c.28.03.57.05.85.05h.01c.29,0,.57-.02.85-.05l.17-.02c.3-.04.59-.09.88-.17,29.51-7.58,53.92-23.23,72.56-46.51,14.74-18.41,25.83-41.55,32.99-68.79,12.04-45.85,8.79-87.14,8.64-88.88m-23.44,84.99c-14.76,56.22-45.93,91.13-92.65,103.84-46.61-12.68-77.75-47.47-92.55-103.46-9.43-35.63-8.98-69.23-8.51-80.3l101.11-61.59,101.01,61.59c.48,11.01.93,44.33-8.41,79.91" fill="#fff"/>
      <rect id="_사각형_388" data-name="사각형 388" width="300" height="300" fill="none"/>
    </g>
  </g>
</svg>