<?xml version="1.0" encoding="UTF-8"?>
<svg id="Layer_2" data-name="Layer 2" xmlns="http://www.w3.org/2000/svg" viewBox="0 0 432 278">
  <g id="Logo">
    <g id="symbol_06_02_0006_01" data-name="symbol 06 02 0006 01">
      <path id="_합치기_51" data-name="합치기 51" d="m108.76,252.14H10.32c-1.84,0-3.33-1.49-3.32-3.33,0-1.84,1.49-3.32,3.32-3.32h84.82c-3.03-3.39-4.7-7.79-4.71-12.33.07-9.06,6.47-16.83,15.34-18.63.85-.23,1.55-.82,1.92-1.61,3-10.1,10.5-15.37,21.05-14.69.32.02.65,0,1.2,0v-94.01c-.76.55-1.39.99-2.03,1.44-5.38,3.8-11.74,3.08-15.91-1.82-4.14-4.55-3.86-11.59.63-15.8,19.43-19.5,38.9-38.96,58.4-58.4,5.02-5.01,12.1-4.82,17.35.41,14.02,13.98,28.02,27.99,42,42.03,5.4,5.41,10.85,10.77,16.18,16.25,3.47,3.4,4.31,8.67,2.05,12.97-2.22,4.51-6.83,7.43-11.6,6.63-2.72-.45-5.26-1.97-7.92-3.02v48.9c.81-.75,1.46-1.3,2.06-1.91,10.75-10.75,21.49-21.51,32.23-32.27,5.84-5.84,12.6-5.86,18.4-.07,6.11,6.1,12.21,12.2,18.31,18.3.56.55,1.15,1.07,2.17,2.02,0-5.28.02-10.01-.04-14.75,0-.38-.45-.78-.76-1.1-.15-.16-.46-.16-.69-.24-3.67-1.28-4.17-6.59-3.25-13.65.4-3.04,2.85-4.5,6.9-4.51,7.73,0,15.45,0,23.17,0,4.87.01,6.88,1.98,6.98,6.84.04,1.97.08,3.95-.07,5.91-.19,2.51-1.12,4.58-3.74,5.57-.63.39-1.04,1.05-1.1,1.79-.07,13.47-.07,26.95,0,40.43.09.87.47,1.68,1.08,2.3,1.84,1.98,3.76,3.91,5.74,5.76,2.7,2.53,5.17,5.21,6.43,8.78v4.43c-1.49,4.85-4.19,8.53-9.46,9.65-3.49.74-6.63-.26-9.97-2.35v50.76h98.6c1.84,0,3.33,1.48,3.33,3.32h0c0,1.84-1.49,3.33-3.33,3.33h-140.65s-.02,0-.03,0h-8.72s-.03,0-.05,0-.03,0-.05,0c-53.9-.02-107.8.02-161.7.1-.72-.02-1.42-.05-2.11-.11Zm14.72-46.66c-5.59,1.3-8.59,4.97-9.19,11.26-.35,3.67-.8,4.1-4.49,4.43-1.31.07-2.61.26-3.88.59-5.48,1.67-8.99,6.99-8.38,12.69.62,6.08,5.77,10.7,11.88,10.65,9.2.04,18.4.04,27.59.02h13.07c13.39,0,26.78,0,40.16,0,5.32,0,9.42-2.24,11.61-7.19,2.05-4.21,1.24-9.26-2.03-12.61-3.59-4.02-8.13-4.93-13.24-3.26-3.61,1.18-5.77-.71-5.2-4.51.95-5.83-2.5-11.48-8.12-13.3-5.63-1.88-11.77.76-14.27,6.14-1.25,2.78-2.93,3.59-5.75,3.24-3.14-.4-6.19-.17-8.97,1.74-3.38,2.33-5.28,1.65-6.64-2.17-1.6-4.82-6.11-8.06-11.19-8.04-1,0-2,.12-2.97.34h0Zm152.45,39.56h11.48v-42.69h-11.48v42.69Zm-18.14,0h11.49v-42.69h-11.49v42.69Zm-50.34-20.99c3.89,7.11,3.01,14.18-1.47,20.93h15.58v-49.9c-2.25.75-4.35,1.86-6.54,2.11-4.81.46-9.4-2.14-11.48-6.5-2.17-4.42-1.32-9.74,2.13-13.26,4.72-4.92,9.65-9.64,14.35-14.58.97-1.03,1.54-2.37,1.63-3.78.1-20.05.1-40.1,0-60.15-.06-1.41-.62-2.76-1.57-3.8-12.89-13.03-25.83-26-38.82-38.92-.56-.56-1.17-1.08-1.77-1.64-.41.34-.67.53-.9.76-13.43,13.42-26.83,26.86-40.23,40.3-.71.85-1.09,1.92-1.09,3.03-.08,9.03-.05,18.07-.05,27.11,0,24.49,0,48.97.03,73.46-.07.95.16,1.89.65,2.7,1.65,2.01,3.53,3.83,5.28,5.68,2.49-.57,5.02-1,7.56-1.28,1.44.03,2.79-.67,3.6-1.85,4.74-6.28,11.18-8.91,18.85-7.39,7.98,1.58,12.96,6.67,14.93,14.6.21.85.42,1.7.6,2.46.22,0,.44,0,.66,0,7.95,0,14.23,2.89,18.06,9.91h0Zm78.76-28.95c5.62.03,8.39,2.9,8.39,8.59,0,12.9,0,25.8,0,38.7v2.55h21.7c.05-.5.12-.82.12-1.14.01-18.24.03-36.48-.05-54.72-.12-1.18-.65-2.28-1.5-3.11-13.43-13.52-26.9-27.01-40.4-40.46-.57-.57-1.17-1.11-1.81-1.71-.53.46-.98.81-1.38,1.21-13.7,13.71-27.39,27.45-41.07,41.2-.83.95-1.29,2.17-1.3,3.43-.08,17.67-.06,35.33-.05,52.99,0,.78.09,1.57.14,2.32h21.68v-2.85c0-12.9,0-25.8,0-38.7,0-5.35,2.81-8.25,8.17-8.28,4.56-.03,9.12-.04,13.68-.04,4.56,0,9.12.01,13.68.04h0Zm-10-57.78c16.7,16.65,33.38,33.32,50.03,50,.67.72,1.39,1.39,2.15,2.02,1.57,1.34,3.9,1.32,5.44-.06,2.8-2.09,2.74-5.05-.18-7.97-18.87-18.88-37.75-37.76-56.63-56.63-3.24-3.24-5.59-3.24-8.82,0-16.37,16.38-32.75,32.77-49.12,49.16-2.79,2.79-5.64,5.52-8.33,8.39-2.71,2.9-1.32,7.35,2.6,7.8,1.75.01,3.43-.65,4.7-1.86,6.11-5.85,11.98-11.94,17.97-17.92,10.81-10.79,21.65-21.57,32.5-32.32,1.34-1.17,2.74-2.27,4.21-3.28,1.21.82,2.37,1.71,3.48,2.67Zm33.11,8.88c.04.56.27,1.09.66,1.5,4.02,4.1,8.07,8.16,12.52,12.64v-35.96h-13.2c0,7.39-.02,14.61.02,21.82h0Zm-4.79-29.22h22.93v-4.25h-22.93v4.25ZM174.92,35.61c-18.75,18.77-37.51,37.53-56.25,56.3-.52.52-1.31,1.01-1.45,1.64-.34,1.5-.95,3.34-.39,4.56.65,1.42,2.42,2.33,4.02,3.73,1.56-.97,3.04-2.04,4.45-3.22,16.82-16.75,33.61-33.53,50.38-50.33,3.09-3.09,4.51-3.1,7.57-.04,16.67,16.68,33.33,33.35,49.99,50.03.52.53,1.02,1.07,1.59,1.55,1.89,1.73,4.84,1.61,6.57-.29.41-.44.72-.96.93-1.52,1.16-2.62-.26-4.35-1.97-6.05-18.76-18.76-37.51-37.53-56.25-56.3-1.74-1.74-3.18-2.61-4.62-2.61s-2.85.85-4.56,2.57h0Zm-13.03,125.69c-6.83,0-10.87-4.03-10.89-10.85-.03-7.47-.01-14.95-.01-22.42s-.02-14.78.01-22.17c.03-6.74,3.99-10.73,10.71-10.75,11.83-.03,23.65-.03,35.48,0,6.71.02,10.77,3.98,10.8,10.7.05,14.95.05,29.9,0,44.85-.03,6.64-4.18,10.65-10.86,10.66-5.87.01-11.74.02-17.61.02s-11.75,0-17.62-.02h0Zm21.3-6.97c5.06,0,9.96.07,14.86-.04,1.54.05,2.83-1.15,2.88-2.69,0-.12,0-.24-.01-.37.03-6.39.02-12.78.02-19.35h-17.75v22.44Zm-25.18-3.15c.01,1.71.97,3.02,2.61,3.07,5.05.16,10.11.06,15.24.06v-22.48h-17.85c0,6.58-.02,12.96.01,19.35h0Zm25.19-49.07v22.53h17.71c0-6.73.1-13.28-.12-19.81-.35-1.25-1.33-2.24-2.58-2.6-2.39-.13-4.78-.16-7.18-.16-2.59,0-5.2.04-7.83.04Zm-21.24-.04c-2.99.02-3.95,1-3.96,4-.02,5.58-.02,11.17,0,16.74.03.59.09,1.17.19,1.75h17.65v-22.5c-2.91,0-5.76,0-8.59,0-1.77,0-3.53,0-5.29.02h0Zm142.28-17.53c0-7.65,6.21-13.86,13.86-13.86,7.65,0,13.86,6.21,13.87,13.86,0,7.66-6.21,13.86-13.87,13.87-7.66,0-13.86-6.21-13.86-13.87h0Zm6.65,0c0,3.98,3.23,7.21,7.21,7.22,3.98,0,7.21-3.23,7.21-7.22,0-3.98-3.23-7.21-7.21-7.21-3.98,0-7.21,3.23-7.22,7.21h0Zm8.3-32.72c.01-10.73,8.71-19.42,19.44-19.44,10.73.01,19.42,8.71,19.44,19.44-.01,10.73-8.71,19.43-19.44,19.44-10.73,0-19.43-8.71-19.44-19.44h0Zm6.66,0c0,7.06,5.72,12.78,12.78,12.79,7.06,0,12.78-5.73,12.79-12.79,0-7.06-5.73-12.78-12.79-12.79-7.06,0-12.78,5.73-12.79,12.79h0Z" fill="#fff"/>
      <rect id="_사각형_452" data-name="사각형 452" width="432" height="278" fill="none"/>
    </g>
  </g>
</svg>