<?xml version="1.0" encoding="UTF-8"?>
<svg id="Layer_2" data-name="Layer 2" xmlns="http://www.w3.org/2000/svg" viewBox="0 0 298 250">
  <g id="Logo">
    <g id="symbol_01_03_0005_01" data-name="symbol 01 03 0005 01">
      <path id="_패스_1216" data-name="패스 1216" d="m292.14,117.96c-1.67-15.36-9.95-26.77-22.42-35.37-1.7-.95-2.7-2.8-2.54-4.74.19-12.11-4.96-21.28-16.09-26.34-5.14-2.33-10.77-3.61-16.22-5.24-1.57-.47-2.87-.67-3.18-2.75-1.87-12.4-14.46-24.62-28.77-26.41-8.45-1.06-17.01-1.22-25.51-1.85-1.27-.09-2.85-.12-3.72-.85-8.5-7.13-18.54-8.56-29.08-7.97-7.73.43-14.91,2.59-21.04,7.64-1.15.76-2.49,1.18-3.86,1.2-8.41.65-16.86.9-25.24,1.82-13.58,1.49-26.23,13.25-28.76,26.47-.37,1.96-1.39,2.28-2.93,2.66-4.17,1.04-8.4,1.95-12.44,3.38-13.47,4.77-20.26,14.55-20.15,28.85.15,1.58-.67,3.09-2.07,3.83-8.21,5.04-14.81,12.31-19.03,20.96-2.19,4.57-3.27,9.68-4.85,14.54v8.44c1.47,4.32,2.48,8.86,4.48,12.92,4.45,9,11.19,16.38,18.19,23.46,12.71,12.84,26.92,23.88,41.68,34.23,1.45.85,2.28,2.46,2.12,4.13-.13,3.84-.12,7.69.02,11.53.71,19.11,18.72,33.3,37.5,29.76,6.49-1.22,11.78-4.68,17.02-8.31,1.11-1.02,2.79-1.13,4.02-.26,2.16,1.31,4.45,2.4,6.71,3.53,7.94,4.21,17.45,4.23,25.41.05,2.68-1.32,5.41-3.81,8.01-3.67s5.08,2.88,7.62,4.47c18.59,11.65,43.6.63,47.29-21.02.67-4.73.85-9.52.55-14.29-.12-3.16.91-5.05,3.44-6.91,19.9-14.65,38.81-30.49,55.12-49.13,7.09-8.1,9.88-18.06,8.72-28.77" fill="#fff"/>
      <rect id="_사각형_347" data-name="사각형 347" width="298" height="250" fill="none"/>
    </g>
  </g>
</svg>