<?xml version="1.0" encoding="UTF-8"?>
<svg id="_레이어_2" data-name="레이어 2" xmlns="http://www.w3.org/2000/svg" viewBox="0 0 222 228">
  <g id="Logo">
    <g id="symbol_03_22_0002_01" data-name="symbol 03 22 0002 01">
      <rect id="_사각형_80" data-name="사각형 80" x="0" y="0" width="222" height="227.99" fill="none"/>
      <path id="_패스_577" data-name="패스 577" d="M221.89,123c-1.72-34.31-24.55-67.04-56.47-79.36-1.44-.56-2.9-1.07-4.38-1.54-.76-.35-1.63-.38-2.41-.09-.98,.53-1.1,1.87-1.1,2.99,0,52.14-.02,104.28-.03,156.42,0,4.33-.26,9.25-3.57,12.05-1.41,1.06-3,1.84-4.69,2.32-2.74,.92-5.51,1.71-8.31,2.4-.16-.59-.3-1.1-.31-1.12-.39-1.41-3.84-13.98-6.35-23.08,3.09,0,5.64-.15,8.17,.04,2.87,.21,4.22-.7,4.06-3.79-.18-3.56-.12-7.14,.02-10.7,.11-2.77-1-3.76-3.78-3.68-5.68,.17-11.36,.05-17.63,.05,1.01-6.01,1.97-11.45,2.82-16.91,1.23-7.99,1.2-7.99-6.56-8.8-.1-.01-.19-.17-.5-.46,.36-.78,.75-1.66,1.15-2.53,5.74-12.31,3.66-25.05-5.51-34.92-2.01-2.16-3.43-2.52-5.49-.18-6.77,7.71-10.4,16.38-8.14,26.75,.81,3.71,2.18,7.29,3.42,11.35-.82,.05-1.52,.13-2.23,.15q-5.97,.14-4.98,6.12c1.04,6.29,2.08,12.59,3.19,19.36-5.8,0-11.19,.1-16.58-.04-2.95-.08-4.13,1.01-3.98,4,.17,3.56,.12,7.14,.02,10.71-.07,2.59,1.07,3.61,3.59,3.53,2.75-.09,5.5-.02,8.65-.02-4.51,15.18-6.16,21.44-6.54,23.59-19.69-5.07-38.03-15.39-51.96-30.22C7.22,157.27-1.4,110.18,14.55,72.08,30.51,33.98,70.22,7.06,111.5,6.52c.53,15.49,.43,30.98-.3,46.47-.07,1.48-.15,2.97-.3,4.44-2.32,2.33-15.52,15.61-16.16,16.75-.14,.23-.2,.51-.16,.78,.13,.44,.49,.77,.94,.88h.03c.19,.04,.9,.07,10.79,.07,1.09,4.57,5.67,7.39,10.24,6.3,3.12-.74,5.56-3.19,6.3-6.31h9.65c.61-.05,1.16-.41,1.43-.95,.2-.65-.47-1.41-.76-1.72-1.3-1.41-6.93-7.49-14.69-15.79-.15-1.96-.33-3.94-.4-5.94-.47-15.11-.39-30.22,.23-45.33,22.49,.44,44.24,8.1,62.04,21.85,1.51,1.17,3.51,2.45,5.18,1.5,2.72-1.54,.3-5.66-2.24-7.49-11.35-8.14-24.06-14.22-37.52-17.95-3.37-.93-6.78-1.72-10.23-2.36-3.08-.56-6.04-.6-9.12-.96-5.95-.71-11.96-.91-17.95-.62-12,.61-23.84,3.08-35.08,7.32-11.26,4.22-21.81,10.14-31.29,17.55-9.1,7.09-17.02,15.58-23.46,25.14-23.8,35.55-24.96,84.95-2.84,121.58,12.58,20.57,31.16,36.78,53.24,46.47,32.85,14.46,72.7,13.12,103.51-5.3,30.81-18.42,51.12-54.03,49.32-89.89Zm-107.3-43.7c-2.2,0-4.18-1.35-4.99-3.4,2.75,0,6.04,0,9.98,0-.81,2.05-2.78,3.4-4.99,3.41h0Zm3.88-18.14c1.41,1.84,2.91,3.71,4.5,5.62,1.69,2.03,3.37,3.94,5.03,5.75-4.4-.05-8.84-.07-13.32-.07-4.96,0-9.87,.03-14.73,.1,3.65-3.8,7.29-7.6,10.94-11.4h7.58Zm-4.63,53.9c9.24,10.63,10.23,25.4,1.53,34.49v-6c.01-6.27,.11-12.55-.05-18.82-.03-1.09-1.13-2.15-1.74-3.22-.57,1.13-1.61,2.26-1.63,3.4-.14,7.83-.08,15.66-.08,23.62-8.75-4.92-7.59-24.17,1.96-33.46h0Zm11.12,39.16c-1.19,7.13-2.36,14.06-3.56,21.22q-15.12,1.62-17.47-12.44c-.47-2.79-.86-5.59-1.36-8.79h22.38Zm-39.36,35.9v-10.33h56.91v10.33h-56.91Zm10.85,29.39c.13-.39,.19-.59,.1-.28l7.2-25.08,1.89-.02c2.85-.02,8.26-.14,13.1-.15,1.33,0,3.26,0,5.61,.02l.57,1.83c3.92,12.62,6.25,20.04,6.25,20.04,.32,1.03,.83,2.62,1.26,3.98-11.93,1.85-24.09,1.73-35.98-.35h0ZM164.41,50.12c16.31,2.11,42.84,32.03,47.03,53.42h-47.03V50.12Zm32.16,131.04c-8.41,11.59-19.39,21.08-32.07,27.74V110.48h48.46c1.19,8.29,4.9,41.09-16.39,70.67Z" fill="#fff"/>
    </g>
  </g>
</svg>