<?xml version="1.0" encoding="UTF-8"?>
<svg id="_레이어_2" data-name="레이어 2" xmlns="http://www.w3.org/2000/svg" viewBox="0 0 270 100">
  <g id="Logo">
    <g id="symbol_20_03_0002_02" data-name="symbol 20 03 0002 02">
      <rect id="_사각형_247" data-name="사각형 247" width="270" height="100" fill="none"/>
      <path id="_패스_659" data-name="패스 659" d="M55.74,74.14c-16.8,0-33.6-.04-50.41,.05-2.1,.01-2.68-.48-2.62-2.67,.16-6.75,.11-13.51,.02-20.27-.02-1.63,.42-2.11,2.04-2.1,32.66,.05,65.32-.06,97.98,.1,10.49,.05,19.66,4.04,27.35,11.43,3.77,3.62,6.72,3.61,10.56-.06,7.52-7.4,17.67-11.5,28.22-11.41,32.19-.07,64.38,0,96.56-.07,1.92,0,2.58,.39,2.53,2.49-.14,6.56-.2,13.13,.02,19.69,.09,2.6-.83,2.86-3.01,2.86-32.85-.07-65.7-.09-98.55-.05-9.11,0-13.01,3-15.51,11.9-2.07,7.39-8.32,12.3-15.63,12.29-7.4-.1-13.8-5.18-15.58-12.37-2.39-8.7-6.42-11.82-15.28-11.82-16.23,0-32.47,0-48.71,0Z" fill="#fff"/>
      <path id="_패스_660" data-name="패스 660" d="M139.78,49.44c.37-8.68-.75-16.91,.57-25.01,2.15-13.97,15.22-23.54,29.19-21.39,1.24,.19,2.47,.48,3.67,.85,10.79,3.21,21.48,6.73,32.57,8.86,13.54,2.67,27.31,4.03,41.11,4.05,3.71-.07,7.29,1.31,10,3.84,1.5,1.25,2.32,3.13,2.23,5.08-.13,4.24-.19,8.5,.02,12.74,.12,2.55-.48,3.38-3.24,3.36-28.09-.11-56.17,.02-84.26-.12-11.1-.05-21.64,1.75-31.85,7.73Z" fill="#fff"/>
      <path id="_패스_661" data-name="패스 661" d="M130.83,49.37c-10.42-6.19-21.4-7.73-32.87-7.66-27.79,.16-55.59,.02-83.38,.11-2.41,0-3.13-.61-2.98-3.02,.22-3.46-.02-6.95,.08-10.42,.18-6.71,4.87-11.51,11.58-11.52,24.81-.15,49.43-4.41,72.85-12.59,14.89-5.08,29.85,3.05,33.85,17.88,.48,1.57,.76,3.19,.83,4.83,.09,7.32,.04,14.64,.04,22.41Z" fill="#fff"/>
    </g>
  </g>
</svg>