<?xml version="1.0" encoding="UTF-8"?>
<svg id="Layer_2" data-name="Layer 2" xmlns="http://www.w3.org/2000/svg" viewBox="0 0 244 178">
  <g id="Logo">
    <g id="symbol_16_02_0003_01" data-name="symbol 16 02 0003 01">
      <path id="_패스_1423" data-name="패스 1423" d="m30.66,145.42h2.5c20.91,0,41.81.05,62.72-.03,7.52-.03,15.04-.31,21.81,4.29.42.29.99.19,1.28-.23.1-.14.16-.32.16-.49,0-.11,0-.21,0-.31,0-37.99.02-75.97.04-113.96.08-1.33-.7-2.56-1.93-3.06-8.08-4.6-16.09-9.31-24.18-13.89-1.32-.75-2.81-1.14-4.32-1.14-18.87-.07-37.74-.05-56.6-.04-.52,0-1.05.04-1.57.11-.47.05-.82.44-.82.91v126.92c0,.51.42.92.93.92m16.92-89.9h53.75c.99.02,1.76.84,1.74,1.83-.02.95-.79,1.72-1.74,1.74h-53.75c-.99.02-1.8-.76-1.83-1.74s.76-1.8,1.74-1.83c.03,0,.06,0,.08,0m0,16.33h53.75c.99.02,1.76.84,1.74,1.83-.02.95-.79,1.72-1.74,1.74h-53.75c-.99.02-1.8-.76-1.83-1.74s.76-1.8,1.74-1.83c.03,0,.06,0,.08,0m0,16.33h53.75c.99.02,1.76.84,1.74,1.83-.02.95-.79,1.72-1.74,1.74h-53.75c-.99.02-1.8-.76-1.83-1.74s.76-1.8,1.74-1.83c.03,0,.06,0,.08,0m0,16.33h53.75c.99,0,1.78.8,1.78,1.79,0,.98-.8,1.78-1.78,1.78h-53.75c-.99,0-1.78-.8-1.78-1.79,0-.98.8-1.78,1.78-1.78m0,16.33h53.75c.99.02,1.76.84,1.74,1.83-.02.95-.79,1.72-1.74,1.74h-53.75c-.99.02-1.8-.76-1.83-1.74s.76-1.8,1.74-1.83c.03,0,.06,0,.08,0" fill="#fff"/>
      <path id="_패스_1424" data-name="패스 1424" d="m156.05,16.6c-1.4.07-2.76.49-3.96,1.21-8.2,4.64-16.32,9.42-24.52,14.05-1.38.6-2.21,2.01-2.08,3.51.06,37.55.08,75.09.05,112.64,0,.32.02.65.05,1.01.04.5.49.88.99.83.16-.01.31-.07.44-.15,5.65-3.75,11.77-4.36,18.18-4.33,22.15.12,44.31.05,66.46.05h2.47c.51,0,.92-.41.92-.92V17.57c0-.47-.36-.87-.84-.91-.55-.05-1.07-.1-1.59-.1-18.86,0-37.73-.03-56.59.05m41.1,107.8h-53.74c-.99-.02-1.76-.84-1.74-1.83.02-.95.79-1.72,1.74-1.74h53.74c.98-.02,1.8.76,1.83,1.74s-.76,1.8-1.74,1.83c-.03,0-.06,0-.08,0m0-16.33h-53.74c-.99,0-1.78-.8-1.78-1.78s.8-1.78,1.78-1.78h53.74c.98,0,1.78.8,1.78,1.78s-.8,1.78-1.78,1.78m0-16.33h-53.74c-.99-.02-1.76-.84-1.74-1.83.02-.95.79-1.72,1.74-1.74h53.74c.98-.02,1.8.76,1.83,1.74s-.76,1.8-1.74,1.83c-.03,0-.06,0-.08,0m0-16.33h-53.74c-.99-.02-1.76-.84-1.74-1.83.02-.95.79-1.72,1.74-1.74h53.74c.98-.02,1.8.76,1.83,1.74s-.76,1.8-1.74,1.83c-.03,0-.06,0-.08,0m1.78-18.11c0,.99-.8,1.78-1.78,1.78h-53.74c-.99,0-1.78-.8-1.78-1.79,0-.98.8-1.78,1.78-1.78h53.74c.99,0,1.78.8,1.78,1.78" fill="#fff"/>
      <path id="_패스_1425" data-name="패스 1425" d="m231.2,41.47h-8.7c-.51,0-.92.42-.92.93v102.6c0,6.58-.25,6.83-6.96,6.83-23.57,0-47.15,0-70.72,0-1.51-.04-3.02,0-4.53.12-5.6.5-10.7,3.42-13.97,8-.3.41-.22.99.19,1.29.16.12.35.18.55.18h105.06c.51,0,.92-.41.92-.92h0V42.39c0-.51-.41-.92-.92-.92" fill="#fff"/>
      <path id="_패스_1426" data-name="패스 1426" d="m101.8,151.78c-24.37.11-48.75.04-73.12.04-4.84,0-5.58-.73-5.58-5.53V42.4c0-.51-.41-.92-.91-.92h-8.72c-.51,0-.92.41-.92.91h0v118.11c0,.51.41.92.92.92h105.1c.51,0,.92-.41.92-.92,0-.2-.07-.4-.19-.56-4.47-5.74-10.24-8.21-17.49-8.17" fill="#fff"/>
      <rect id="_사각형_698" data-name="사각형 698" width="244" height="178" fill="none"/>
    </g>
  </g>
</svg>