<?xml version="1.0" encoding="UTF-8"?>
<svg id="_레이어_2" data-name="레이어 2" xmlns="http://www.w3.org/2000/svg" viewBox="0 0 427 230">
  <g id="Logo">
    <g id="symbol_20_02_0003_02" data-name="symbol 20 02 0003 02">
      <rect id="_사각형_278" data-name="사각형 278" width="427" height="230" fill="none"/>
      <path id="_패스_764" data-name="패스 764" d="M210.15,35.47c-1.02-1.62-1.81-2.88-3.16-5.02-.68,3.36-1.16,5.71-1.69,8.29-6.09-6.11-5.19-18.01,1.51-24.25,6.16,5.71,7.43,12.93,3.33,20.97Z" fill="#fff"/>
      <path id="_패스_765" data-name="패스 765" d="M220.23,61.13c.15-3.15,.27-5.61,.47-9.77l-10.12,9.62c-2.47-14.01,10.01-29.27,24.96-31.36,2.93,13.54-2.17,24.51-15.31,31.51Z" fill="#fff"/>
      <path id="_패스_766" data-name="패스 766" d="M202.68,54.63l-11.03-2.64,8.78,13.6c-16.5-.21-31.18-17.71-30.34-35.19,16.06-.42,27.45,7.75,32.59,24.23Z" fill="#fff"/>
      <path id="_패스_767" data-name="패스 767" d="M423.85,104.7c-6.81-3.41-16.2-.22-20.93,6.3h-112.78c-.61-59.54-37.3-107.72-82.32-107.72S126.11,51.47,125.5,111H24.13c-4.73-6.52-14.12-9.71-20.93-6.3l7.35,4.21-5.76,1.42c5.58,5.64,11.86,7.14,18.3,4.67H403.96c6.44,2.47,12.72,.97,18.3-4.67l-5.76-1.42,7.35-4.21Zm-293.33,5.3c.99-56.32,35.29-101.72,77.3-101.72s76.32,45.4,77.3,101.72H130.51Z" fill="#fff"/>
      <path id="_패스_768" data-name="패스 768" d="M425.4,212.81c-4.14-7.57-15.83-10.07-23.7-5.4,0,.01,.01,.03,.02,.04H25.32l.02-.04c-7.88-4.67-19.57-2.17-23.7,5.4l8.44-.73-3.92,4.45c7.08,1.32,12.68-.49,16.56-5.08H404.33c3.88,4.59,9.48,6.41,16.56,5.08l-3.92-4.45,8.43,.73Z" fill="#fff"/>
    </g>
  </g>
</svg>