<?xml version="1.0" encoding="UTF-8"?>
<svg id="_레이어_2" data-name="레이어 2" xmlns="http://www.w3.org/2000/svg" viewBox="0 0 176 205">
  <g id="Logo">
    <g id="symbol_09_13_0001_01" data-name="symbol 09 13 0001 01">
      <rect id="_사각형_126" data-name="사각형 126" width="176" height="205" fill="none"/>
      <path id="_패스_762" data-name="패스 762" d="M43.73,88.15c-3.09-4.3-9.08-5.27-13.37-2.18l-.03,.02c-4.35,3.1-5.36,9.13-2.27,13.48,3.1,4.35,9.13,5.36,13.48,2.27,4.35-3.1,5.36-9.13,2.27-13.48,0,0,0,0,0,0-.02-.04-.05-.07-.08-.11Zm-5.77,8.52s-.08,.05-.12,.08c-1.59,1.07-3.75,.66-4.82-.93-1.07-1.59-.66-3.75,.93-4.82s3.75-.66,4.82,.93c1.04,1.54,.68,3.63-.81,4.74Z" fill="#fff"/>
      <path id="_패스_763" data-name="패스 763" d="M66.73,113.62c-1.16-1.35-3.19-1.51-4.54-.35-3.07,2.15-6.11,4.33-9.12,6.54-1.73,1.27-2.11,3.13-1.05,4.61,1.08,1.5,2.87,1.71,4.69,.46,1.55-1.05,3.05-2.17,4.57-3.26s3.07-2.15,4.56-3.28c1.71-1.3,2.07-3.19,.97-4.63-.02-.03-.05-.06-.08-.09Z" fill="#fff"/>
      <path id="_패스_764" data-name="패스 764" d="M109.16,122.8c1.55-1.05,3.05-2.17,4.57-3.26s3.07-2.15,4.55-3.28c1.73-1.32,2.06-3.14,.95-4.62-.04-.06-.09-.11-.13-.16-1.15-1.31-3.14-1.45-4.46-.3h0c-3.06,2.15-6.11,4.33-9.13,6.54-1.73,1.26-2.13,3.16-1.08,4.62s2.93,1.68,4.73,.47Z" fill="#fff"/>
      <path id="_패스_765" data-name="패스 765" d="M70.22,92.87c-1.03-1.36-2.97-1.62-4.33-.58-3.23,2.26-6.44,4.56-9.62,6.89-1.44,.92-1.85,2.84-.93,4.27s2.84,1.85,4.27,.93c.09-.06,.18-.12,.27-.19,1.58-1.09,3.13-2.23,4.69-3.35,1.64-1.18,3.31-2.33,4.92-3.55l.07-.05c1.37-.96,1.71-2.86,.75-4.23,0,0,0,0,0,0-.03-.05-.06-.1-.1-.14Z" fill="#fff"/>
      <path id="_패스_766" data-name="패스 766" d="M95.5,96.9c-1.15-1.31-3.14-1.43-4.44-.29,0,0,0,0,0,0-3.09,2.2-6.17,4.41-9.25,6.63-.17,.1-.33,.21-.48,.34-1.3,1.11-1.46,3.07-.34,4.37,1.11,1.3,3.07,1.46,4.37,.34h0c1.58-1.1,3.13-2.24,4.69-3.35,1.52-1.09,3.05-2.17,4.56-3.28,1.7-1.24,2.11-3.15,1.03-4.6-.04-.06-.09-.12-.14-.17Z" fill="#fff"/>
      <path id="_패스_767" data-name="패스 767" d="M88.67,87.59c3.24-2.25,6.45-4.55,9.61-6.89,.05-.03,.1-.07,.15-.11,1.36-1.01,1.65-2.94,.63-4.31,0,0,0,0,0,0-.05-.07-.11-.14-.16-.21-1.07-1.28-2.97-1.45-4.25-.38h0c-1.59,1.09-3.13,2.23-4.69,3.35h0l-4.56,3.27c-.08,.06-.16,.12-.24,.18-.09,.06-.19,.12-.27,.19-1.36,1.05-1.61,2.99-.56,4.35s2.99,1.61,4.35,.56h0Z" fill="#fff"/>
      <path id="_패스_768" data-name="패스 768" d="M92.06,117.76c-1.14-1.33-3.13-1.49-4.46-.35,0,0,0,0,0,0-3.1,2.18-6.18,4.39-9.24,6.63-.09,.05-.17,.1-.25,.16-1.39,.99-1.72,2.93-.73,4.32,0,0,0,0,0,0,.08,.11,.16,.22,.25,.32,1.1,1.26,3.02,1.39,4.28,.28,1.59-1.08,3.13-2.23,4.69-3.35s3.14-2.21,4.68-3.37c.07-.04,.14-.09,.21-.14,1.4-1.01,1.72-2.96,.71-4.36,0,0,0,0,0,0-.04-.05-.08-.1-.12-.15Z" fill="#fff"/>
      <path id="_패스_769" data-name="패스 769" d="M73.53,71.91c-1.05-1.27-2.94-1.45-4.21-.4-1.58,1.08-3.13,2.23-4.69,3.35-1.6,1.15-3.22,2.27-4.8,3.45-.12,.07-.23,.15-.33,.24-1.28,1.14-1.39,3.1-.25,4.38,1.07,1.2,2.87,1.38,4.16,.43,3.18-2.24,6.35-4.51,9.49-6.81,.07-.04,.14-.09,.21-.15,1.34-1,1.61-2.9,.61-4.24-.06-.09-.12-.17-.19-.25Z" fill="#fff"/>
      <path id="_패스_770" data-name="패스 770" d="M112.42,102.03c1.58-1.09,3.13-2.23,4.68-3.35,1.6-1.15,3.23-2.27,4.8-3.46,.09-.06,.18-.12,.26-.18,1.3-1.01,1.54-2.89,.53-4.19,0,0,0,0,0,0-.05-.07-.1-.14-.16-.21-1.06-1.29-2.97-1.47-4.26-.41-3.19,2.24-6.35,4.5-9.49,6.8-.09,.06-.17,.12-.25,.18-1.31,1.1-1.47,3.06-.37,4.37,1.07,1.27,2.95,1.47,4.27,.45h0Z" fill="#fff"/>
      <path id="_패스_771" data-name="패스 771" d="M157.6,164.31c-8.56,.7-17.1,1.66-25.65,2.51-3.09,.31-6.19,.6-9.43,.92,.55-6.88-2.85-11-8.34-14.16-2.76-1.59-5.5-3.21-8.23-4.85,7.59-2.02,14.83-5.14,21.51-9.28,2.19-1.35,4.31-2.8,6.6-4.29,.34,.48,.66,.91,.97,1.36,3.3,4.62,6.56,9.27,9.9,13.85,3.04,4.39,9.05,5.48,13.44,2.45,1.14-.79,2.09-1.81,2.8-3,6.41-9.88,8.23-22.05,5-33.38-.27-.85-.11-1.78,.42-2.5,6.56-9.53,8.77-21.39,6.09-32.64-1.7-7.64-9.39-10.57-15.75-6.04-4.49,3.21-8.96,6.47-13.44,9.7-.44,.32-.88,.63-1.34,.96-.18-.17-.36-.36-.52-.55-4.71-6.73-10.38-12.74-16.83-17.84-.4-.45-.58-1.06-.51-1.65,.46-3.26,1.15-6.49,1.51-9.76,.81-5.13-1.68-10.22-6.24-12.71-10.2-6.13-21.66-9.88-33.51-10.98-10.65-1.09-21.42,.03-31.61,3.31l-3.21,2.29c-2.79,3-3.78,6.71-4.25,10.65-.26,2.16-.64,4.31-1.08,6.44-.16,.58-.54,1.08-1.06,1.38-3.19,1.65-6.5,3.07-9.64,4.82-6.6,3.61-12.56,8.26-17.67,13.78-8.3,9.11-9.62,21.76-3.66,33.05,5.09,9.83,12.18,18.49,20.81,25.43-9.48,3.08-18.92,6.29-28.39,9.41-2.63,.87-3.2,1.67-3.2,4.45v33.56c0,3.94,1.67,5.21,5.42,4.11,8.07-2.38,16.15-4.75,24.21-7.19,1.08-.37,2.28-.26,3.26,.33,10.08,5.42,20.18,10.81,30.3,16.17,8.28,4.42,17.4,7.05,26.76,7.71,9.51,.72,18.62-1.4,27.74-3.5,1.72-.42,2.77-2.15,2.35-3.87-.01-.04-.02-.09-.03-.13-.47-1.73-2.23-2.78-3.98-2.37-2.11,.42-4.21,.85-6.29,1.37-15.31,4.04-31.6,1.88-45.33-6.02-10.01-5.56-20.2-10.78-30.29-16.2-1.29-.76-2.84-.93-4.26-.45-3.46,1.1-6.96,2.09-10.44,3.12-4.21,1.24-8.43,2.47-12.74,3.73v-28.93c.39-.15,.75-.31,1.11-.43,7.57-2.5,15.15-5,22.72-7.49,5.23-1.71,10.37-3.83,15.71-5,11.17-2.46,21.8-.45,31.62,5.4,10.08,6,20.09,12.1,30.12,18.17,.96,.54,1.88,1.14,2.75,1.82,2.33,1.97,2.82,5.37,1.14,7.92-1.61,2.53-4.88,3.42-7.55,2.07-2.69-1.27-5.36-2.56-8.05-3.84-4.77-2.28-9.53-4.55-14.3-6.83-1.24-.71-2.79-.56-3.86,.38-1.04,.73-1.44,2.08-.96,3.26,.57,1.09,1.46,1.99,2.55,2.56,7.26,3.57,14.58,7.01,21.89,10.47,4.77,2.26,9.17,1.47,13.33-1.59,.82-.61,1.77-1,2.78-1.13,9.47-1.02,18.95-1.98,28.44-2.89,3.51-.34,7.02-.75,10.54-.75,3.41,.07,6.11,2.89,6.04,6.3-.06,2.92-2.16,5.4-5.03,5.94-4.03,.91-8.07,1.75-12.1,2.63-2.36,.52-3.6,2.08-3.18,4.02,.45,2.05,2.19,2.99,4.64,2.46,4.09-.88,8.18-1.74,12.26-2.67,3.85-.78,7.1-3.35,8.75-6.91,.49-1.15,.92-2.34,1.28-3.54v-3.97c-.41-1.42-.92-2.8-1.55-4.14-2.9-5.2-7.58-7.26-13.31-6.79ZM54,45.2c.55-2.37,2.43-3.74,4.81-4.39,19.2-5.21,39.69-2.55,56.91,7.41,3.42,1.98,4.52,4.27,3.89,8.22-.34,2.14-.68,4.27-1.05,6.6h0c-20.89-12.59-42.79-15.6-65.66-9.39,.22-2.83,.59-5.65,1.1-8.44Zm18.4,85.2c-8.77-2.43-17.66-3.12-26.41-.42-1.36,.42-2.71,.86-4.07,1.29-9.85-6.92-17.8-16.19-23.14-26.97-4.29-8.38-2.83-18.55,3.64-25.38,6.8-7.08,15-12.65,24.09-16.34,33.42-14.15,72.17-2.02,91.57,28.66,1.65,2.56,3.22,2.88,5.65,1.12,5.59-4.03,11.17-8.07,16.76-12.1,2.75-1.98,5.43-.98,6.17,2.33,2.47,10,.31,20.58-5.88,28.82-1.28,1.57-1.63,3.71-.91,5.6,3.16,9.64,1.89,20.18-3.45,28.79-2,3.38-4.75,3.48-7.02,.31-4-5.61-8-11.23-11.99-16.85-1.47-2.05-3.15-2.27-5.18-.74-.24,.18-.48,.37-.72,.56-5.32,4.31-11.25,7.82-17.58,10.42-5.02,2.11-10.25,3.65-15.61,4.61-3.16-1.93-6.32-3.86-9.48-5.79-5.23-3.18-10.49-6.28-16.45-7.93h0Z" fill="#fff"/>
      <path id="_패스_772" data-name="패스 772" d="M134.2,189.1c-1.83-.04-3.34,1.41-3.37,3.24,0,.02,0,.03,0,.05,.05,1.78,1.46,3.22,3.24,3.29,1.83,.01,3.33-1.47,3.34-3.3,0,0,0-.02,0-.03,.01-1.78-1.42-3.24-3.21-3.26,0,0,0,0,0,0Z" fill="#fff"/>
      <line id="_선_7" data-name="선 7" x1="23.32" y1="23.69" x2="33.38" y2="33.03" fill="none" stroke="#fff" stroke-linecap="round" stroke-miterlimit="10" stroke-width="6"/>
      <line id="_선_8" data-name="선 8" x1="61.98" y1="5.97" x2="61.15" y2="19.67" fill="none" stroke="#fff" stroke-linecap="round" stroke-miterlimit="10" stroke-width="6"/>
      <line id="_선_9" data-name="선 9" x1="41.57" y1="10.95" x2="45.72" y2="24.04" fill="none" stroke="#fff" stroke-linecap="round" stroke-miterlimit="10" stroke-width="6"/>
    </g>
  </g>
</svg>