<?xml version="1.0" encoding="UTF-8"?>
<svg id="_레이어_2" data-name="레이어 2" xmlns="http://www.w3.org/2000/svg" viewBox="0 0 364 123">
  <g id="Logo">
    <g id="symbol_04_02_0007_02" data-name="symbol 04 02 0007 02">
      <path id="_패스_1225" data-name="패스 1225" d="m78.76,105.09c-13.51.42-57.09.12-65.23-9.73,1.72-11.12,54.6-32.52,66.83-37.99-17.87,5.17-62.37,17.83-72.87,31.94-8.84,13.5,11.85,20.33,21.6,22.67,16.27,3.97,33,5.24,49.66,5.66,11.95.24,23.87-.05,35.79-.88-2.76-4.37-5.36-8.8-7.78-13.31-9.32.81-18.66,1.36-28.01,1.64" fill="#fff"/>
      <path id="_패스_1226" data-name="패스 1226" d="m252.85,11.19c-25.73,4.21-51.49,9.79-76.66,16.53l19.42-2.47c19.2-2.44,38.98-4.63,58.21-6.25,2.11-.17,4.22-.33,6.34-.49-.3-2.68-.72-5.45-1.31-8.26-2,.31-4,.62-5.99.94" fill="#fff"/>
      <path id="_패스_1227" data-name="패스 1227" d="m341.94,4.57c-10.45-.87-20.06-.36-30.32.02-14.56.76-29.36,2.32-43.93,4.36-.14,3.04-.45,6.07-.93,9.07,24.39-1.75,49.08-2.83,73.24-.57h.18s-.18,0-.18,0c-2.56,2.75-5.38,5.24-8.43,7.43-4.91,3.69-10.24,7.12-15.64,10.44-27.44,16.44-56.8,29.92-86.76,41.08-33.85,12.39-69.02,20.84-104.8,25.18.09,4.77.35,9.54.75,14.31,10.95-1.01,21.86-2.43,32.73-4.23,39.25-6.38,77.47-18.72,113.49-35.48,24.06-11.41,47.82-23.69,68.92-40.19,4.99-4.16,10.49-8.7,13.56-14.83,4.46-9.91-3.03-15.91-11.89-16.6" fill="#fff"/>
      <path id="_패스_1228" data-name="패스 1228" d="m106.78,103.44c2.43,4.51,5.02,8.94,7.78,13.31,3.53-.24,7.05-.52,10.57-.85-.41-4.78-.66-9.55-.75-14.31-5.86.72-11.72,1.34-17.6,1.86" fill="#fff"/>
      <rect id="_사각형_403" data-name="사각형 403" width="364" height="123" fill="none"/>
    </g>
  </g>
</svg>