<?xml version="1.0" encoding="UTF-8"?>
<svg id="_레이어_2" data-name="레이어 2" xmlns="http://www.w3.org/2000/svg" viewBox="0 0 33 54">
  <g id="Logo">
    <g id="symbol_10_06_0002_01" data-name="symbol 10 06 0002 01">
      <path id="_패스_1582" data-name="패스 1582" d="m26.18,51.61h-14.54c-1.47,0-2.67-1.19-2.67-2.67v-14.54c0-1.47,1.19-2.67,2.67-2.67h14.54c1.47,0,2.67,1.19,2.67,2.67v14.54c0,1.47-1.19,2.67-2.67,2.67" fill="#fff"/>
      <path id="_패스_1583" data-name="패스 1583" d="m15.43,19.88H6.47c-1.47,0-2.67-1.19-2.67-2.67v-8.96c0-1.47,1.19-2.67,2.67-2.67h8.96c1.47,0,2.67,1.19,2.67,2.67v8.96c0,1.47-1.19,2.67-2.67,2.67" fill="#fff"/>
      <rect id="_사각형_592" data-name="사각형 592" width="33" height="54" fill="none"/>
    </g>
  </g>
</svg>