<?xml version="1.0" encoding="UTF-8"?>
<svg id="_레이어_2" data-name="레이어 2" xmlns="http://www.w3.org/2000/svg" viewBox="0 0 197.98 213.29">
  <g id="Logo">
    <g id="symbol_21_01_0001_02" data-name="symbol 21 01 0001 02">
      <path id="_패스_500" data-name="패스 500" d="M82.35,213.29c-4.98-2.48-50.53-26.15-57.71-75.79-4.46-30.82,8.4-54.31,13.01-62.47,17.15-30.29,53.7-59.47,97.63-56.04,33.24,2.6,55.4,22.56,62.69,29.76-25.34-12.76-55.03-13.58-81.04-2.25-10.46,4.62-30.63,15.36-46.02,37.47-7.21,10.49-12.55,22.15-15.78,34.46-1.96,7.41-5.78,22.37-3.1,40.34,4.31,28.94,22.78,47.67,30.31,54.52Z" fill="#fff"/>
      <path id="_패스_501" data-name="패스 501" d="M1.61,17.31C6.57,3.35,20.29-3.25,34.35,1.57s20.9,18.63,16.13,32.56c-4.91,14.37-19.32,21.34-33.44,16.19C3.34,45.31-3.3,31.13,1.61,17.31Z" fill="#fff"/>
    </g>
  </g>
</svg>