<?xml version="1.0" encoding="UTF-8"?>
<svg id="_레이어_2" data-name="레이어 2" xmlns="http://www.w3.org/2000/svg" viewBox="0 0 377 126">
  <g id="Logo">
    <g id="symbol_01_01_0003_01" data-name="symbol 01 01 0003 01">
      <rect id="_사각형_252" data-name="사각형 252" width="377" height="126" fill="none"/>
      <path id="_패스_1042" data-name="패스 1042" d="M372.25,97.05c-1.95-7.62-7.64-13.06-15.86-15.07-24.59-6-49.13-12.21-73.75-18.1-13.44-3.22-26.91-6.36-40.46-9h0S99.87,10.14,99.87,10.14c-4.33-2.15-8.9-3.77-13.61-4.83-15.38-2.99-22.15,.48-29.41,11.91-5.45,8.57-9.09,18.57-12.09,28.38-3.37,11.4-5.74,23.06-7.1,34.87h0v.06c-1.34,10.69-2.13,21.47-2.9,32.24-.22,3.08-1.35,4.01-4.18,4.17-6.41,.36-12.81,1.03-19.22,1.43-2.83,.18-5.68,.03-8.52,.03v.84H39.53l58.92,.16c-11.6-3.78-21.68-9.3-30.56-17.96,4.46-.79,8.6-.67,12.29-2.41l-.04-.64c-.52-.08-1.04-.13-1.57-.15-6,.18-12,.37-18,.59-1.7,.06-2.47-.55-2.46-2.38,.03-2.73-.24-5.47-.25-8.21,.14-.69,.41-1.36,.79-1.95,.55,.29,1.09,.61,1.67,.85,.7,.38,1.47,.62,2.26,.73,4.33,.03,8.04-1.37,10.68-5.02,.48-.66,1.06-1.24,1.41-1.65l9.23,2.75,.22-.66c-.39-.19-.79-.37-1.19-.51-7.45-2.25-11.22-7.88-13.39-14.87-.23-.95-.03-1.95,.57-2.73,.4-.4,1.76-.09,2.59,.2,4.5,1.58,8.97,3.28,13.46,4.88,1.82,.6,3.8,.46,5.52-.4,12.77-5.4,26.21-7.58,39.99-7.77,19.24-.26,37.83,3.01,55.52,10.78,4.14,1.82,8.17,3.83,11.35,7.21,.38,.4,1.18,.44,1.81,.55,.34,0,.68-.07,1-.19,3.87-.75,3.84-.75,3.98-4.67,.04-1.05-.5-2.72,1.19-2.8,1.73-.09,1.26,1.58,1.4,2.65,.13,1.01,.18,2.03,.27,3.07,1.92-.04,3.83,.02,5.74,.19,3.38,.58,5.65,3.79,5.06,7.17-.3,1.74-1.32,3.26-2.81,4.2-3.1,2.03-7.18,.8-8.97-2.8-.6-1.37-1.13-2.76-1.59-4.18l-3.81,1.12c.54,1.39,1.09,2.56,1.45,3.79,2.71,9.23,.92,17.76-4.29,25.64-1.35,2.05-2.94,3.93-4.48,5.86l28.89,.08c35.29-.33,49.15-.38,53.81-.34-5.34-.29-20.6-1.35-39.16-2.57-1.18-.1-2.34-.33-3.46-.7l3.06-27.12c.2-.76,.45-1.5,.76-2.23,.49-1.12,2.33-2.53,3.38-2.39,6.64,.86,13.36,1.65,19.81,3.37,7.71,2.05,15.17,5.06,22.77,7.56,9.7,3.19,19.5,6.13,29.15,9.47,12.45,4.31,24.6,9.57,37.23,13.2,9.06,2.76,18.64-2.33,21.4-11.39,.95-3.11,.99-6.42,.13-9.56ZM86.12,68.33c-1.48-.52-3.25-4.07-2.48-5.42,.5-.62,1.27-.93,2.06-.84,3.21,1.22,6.35,2.64,10.08,4.23-3.62,.48-6.13,3.28-9.66,2.03Z" fill="#fff"/>
    </g>
  </g>
</svg>