<?xml version="1.0" encoding="UTF-8"?>
<svg id="_레이어_2" data-name="레이어 2" xmlns="http://www.w3.org/2000/svg" viewBox="0 0 203 203">
  <g id="Logo">
    <g id="symbol_19_01_0002_01" data-name="symbol 19 01 0002 01">
      <rect id="_사각형_221" data-name="사각형 221" width="203" height="203" fill="none"/>
      <path id="_패스_631" data-name="패스 631" d="M85.65,107H32.31c-6.26,0-11.34,5.08-11.34,11.34v53.34c0,6.26,5.08,11.34,11.34,11.34h53.34c6.26,0,11.34-5.08,11.34-11.34v-53.34c0-6.26-5.08-11.34-11.34-11.34Zm-7.01,41.9c-3.02-.05-6.05-.01-10.03-.01,2.5,2.56,4.37,4.55,6.32,6.45,2.07,2.02,3.77,4.12,1.43,6.94-1.69,2.04-4.06,1.6-6.85-1.24-1.94-1.98-3.77-4.07-5.65-6.1l-.95,.48c0,3.11-.01,6.22,0,9.33,.01,2.66-.95,4.74-3.86,4.76s-3.96-2.01-3.96-4.68c0-3.03,0-6.05,0-10.1-2.83,2.73-4.99,4.76-7.09,6.86-1.97,1.96-4.17,2.99-6.35,.68-2.16-2.28-1.05-4.49,.93-6.38,2.11-2.02,4.22-4.03,6.33-6.05l-.31-.93c-3.08,0-6.17-.03-9.25,.01-2.66,.04-4.82-.89-4.88-3.75-.07-3.09,2.21-4.07,4.99-4.08,3.03,0,6.06,0,9.09,0l.71-1.05c-2.33-2.07-4.69-4.11-6.98-6.23-1.95-1.81-2.71-3.96-.61-6.05,2.05-2.04,4.24-1.43,6.11,.48,2.13,2.18,4.2,4.41,6.3,6.62l1.04-.36c0-3.03,.04-6.05-.01-9.08-.05-2.69,.93-4.78,3.78-4.86,3.12-.09,4.08,2.14,4.06,4.94-.02,2.93,0,5.87,0,9.98,2.44-2.42,4.24-4.22,6.06-6.01,3.32-3.26,5.63-3.86,7.42-1.73,2.57,3.05,.4,5.2-1.73,7.15-1.89,1.72-3.94,3.25-5.92,4.86l.8,1.35c3,0,6.01,0,9.01,0,2.77,0,5.01,.93,4.94,4.09-.06,2.95-2.2,3.77-4.85,3.73h0Z" fill="#fff"/>
      <path id="_패스_632" data-name="패스 632" d="M124.44,49.39c11.58-2.56,24.64,5,27.93,17.36,3.29,12.33-4.13,25.71-17.04,29.61h37.33c6.26,0,11.34-5.08,11.34-11.34V31.67c0-6.26-5.08-11.34-11.34-11.34h-53.35c-6.26,0-11.34,5.08-11.34,11.34v31.91c.61-1.34,5.51-11.77,16.45-14.19Z" fill="#fff"/>
      <path id="_패스_633" data-name="패스 633" d="M115.13,77.41c-4.1,.04-7.39,3.4-7.34,7.5s3.4,7.39,7.5,7.34c3.99-.04,7.24-3.23,7.34-7.22,.09-4.12-3.18-7.53-7.31-7.62-.06,0-.13,0-.19,0Z" fill="#fff"/>
      <path id="_패스_634" data-name="패스 634" d="M72.68,55.38c-5.92-1.4-9.44-4.98-10.86-10.88-.67-2.79-1.73-5.48-2.61-8.21-1.39,2.71-2.47,5.57-3.22,8.53-1.42,5.64-4.84,9.09-10.51,10.5-2.88,.71-5.67,1.78-8.5,2.68,2.71,1.41,5.58,2.5,8.54,3.24,5.67,1.4,9.08,4.85,10.48,10.51,.71,2.88,1.76,5.67,2.65,8.51,1.45-2.82,2.57-5.79,3.35-8.86,1.07-4.97,4.92-8.88,9.88-10.02,3.02-.82,5.98-1.85,8.97-2.78,0-.22-.01-.44-.02-.65-2.72-.87-5.39-1.92-8.16-2.57Z" fill="#fff"/>
      <path id="_패스_635" data-name="패스 635" d="M172.67,107h-53.34c-6.26,0-11.34,5.08-11.34,11.34v53.34c0,6.26,5.08,11.34,11.34,11.34h53.34c6.26,0,11.34-5.08,11.34-11.34v-53.34c0-6.26-5.08-11.34-11.34-11.34Zm6.75,58.67c-1.37,7.38-6.66,12.02-14.19,12.52-6.89,.46-13.24-1.48-19.17-4.71-14.62-7.95-25.38-19.4-31.08-35.24-1.57-4.12-2.1-8.57-1.56-12.95,1.22-8.75,7.37-13.7,18.79-13.52,3.92,.08,9.57,1.9,14.84,4.77,14.2,7.75,24.76,18.86,30.61,34.11,1.98,4.74,2.59,9.95,1.76,15.02Z" fill="#fff"/>
      <path id="_패스_636" data-name="패스 636" d="M185.76,202.23H17.4c-8.72-.01-15.79-7.09-15.8-15.81V18.06c0-8.72,7.08-15.79,15.8-15.81H185.76c8.73,0,15.8,7.08,15.81,15.81V186.42c0,8.73-7.08,15.8-15.81,15.81ZM17.4,9.36c-4.8,0-8.69,3.89-8.7,8.69V186.42c0,4.8,3.89,8.69,8.7,8.69H185.76c4.8,0,8.69-3.89,8.7-8.69V18.06c0-4.8-3.89-8.69-8.7-8.69H17.4Z" fill="#fff"/>
    </g>
  </g>
</svg>