<?xml version="1.0" encoding="UTF-8"?>
<svg id="Layer_2" data-name="Layer 2" xmlns="http://www.w3.org/2000/svg" viewBox="0 0 318 204">
  <g id="Logo">
    <g id="symbol_16_04_0002_02" data-name="symbol 16 04 0002 02">
      <path id="_패스_1458" data-name="패스 1458" d="m275.49,18.06v3.27c0,37.5,0,75,0,112.5,0,4.33-.42,8.58-2.45,12.49-4.61,8.88-12.02,13.05-21.93,13.73-9.32.51-18.61,1.54-27.81,3.08-13.93,2.41-27.03,8.26-38.12,17.01-1.4,1.11-2.7,2.35-3.84,3.35,9.09-1.18,18.14-2.78,27.26-3.44,23.43-1.69,46.59.74,69.51,5.66,7.47,1.6,10.43.11,13.7-6.78V24.93c-3.2-7.29-7.15-8.03-16.3-6.87" fill="#fff"/>
      <path id="_패스_1459" data-name="패스 1459" d="m93.81,162.52c-8.59-1.47-17.37-1.92-26.08-2.58-7.33-.55-13.36-3.39-18.02-9.1-4-4.9-5.33-10.59-5.33-16.78.03-37.68.04-75.35.01-113.03v-3.37h-5.3c-7.46.02-11,3.57-11,11.07,0,48.83,0,97.67,0,146.5,0,8.45,4.94,12.43,13.18,10.63,14.49-3.21,29.22-5.22,44.04-6,17.9-1.03,35.86.24,53.44,3.76-1.42-1.21-2.8-2.47-4.26-3.63-11.98-9.5-25.81-14.91-40.69-17.46" fill="#fff"/>
      <rect id="_사각형_706" data-name="사각형 706" width="318" height="204" fill="none"/>
    </g>
  </g>
</svg>