<?xml version="1.0" encoding="UTF-8"?>
<svg id="Layer_2" data-name="Layer 2" xmlns="http://www.w3.org/2000/svg" viewBox="0 0 254 254">
  <g id="Logo">
    <g id="symbol_16_03_0002_01" data-name="symbol 16 03 0002 01">
      <path id="_패스_1431" data-name="패스 1431" d="m23.64,98.88c.71-.04,1.43,0,2.14,0h100.88c34.42,0,68.84,0,103.26.02,2.25,0,4.28-.41,4.97-2.74.67-2.28-.92-3.6-2.69-4.75-33.96-22.05-67.9-44.13-101.84-66.22-1.97-1.57-4.76-1.57-6.74-.02-28.1,18.41-56.24,36.78-84.4,55.11-5.9,3.85-11.8,7.73-17.73,11.53-1.72,1.1-2.74,2.42-2.13,4.51.62,2.12,2.26,2.68,4.28,2.57m88.46-33.14c.67-8.24,7.9-14.38,16.14-13.71,8.24.67,14.38,7.9,13.71,16.14-.6,7.31-6.4,13.12-13.71,13.71-8.27.64-15.5-5.55-16.14-13.82-.06-.77-.06-1.55,0-2.32" fill="#fff"/>
      <path id="_패스_1432" data-name="패스 1432" d="m229.1,215.93H24.97c-.79-.04-1.59-.03-2.38.04-1.91.27-3.41,1.31-3.5,3.29-.17,3.85-.05,7.72-.05,11.71h215.93v-9.25c0-4.9-.91-5.79-5.87-5.79" fill="#fff"/>
      <path id="_패스_1433" data-name="패스 1433" d="m34.08,197.49c-2.15-.08-3.95,1.6-4.03,3.74,0,.11,0,.23,0,.34-.06,2.21-.01,4.43-.01,6.86h43.88c0-2.38.04-4.6,0-6.81-.06-2.76-1.32-4.02-4.11-4.15-1.38-.06-2.77-.01-4.15-.01v-80.12c1.7,0,3.2.03,4.7,0,1.78-.05,3.25-.89,3.41-2.68.24-2.71.06-5.46.06-8.12H30.04c0,2.41-.05,4.62.01,6.83.07,2.57,1.42,3.89,4.02,3.98,1.4.05,2.81,0,4.35,0v80.11c-1.53,0-2.94-.07-4.34.01m24.51-74.64h2.54v69.28h-2.54v-69.28Zm-7.73,0h2.54v69.28h-2.54v-69.28Zm-7.73,0h2.54v69.28h-2.54v-69.28Z" fill="#fff"/>
      <path id="_패스_1434" data-name="패스 1434" d="m184.28,197.49c-1.85.08-3.48.99-3.7,2.77-.19,2.73-.22,5.48-.09,8.21h43.75c0-2.32.03-4.51,0-6.71-.05-2.85-1.36-4.18-4.24-4.29-1.33-.05-2.66,0-4.07,0v-80.11c1.71,0,3.21.03,4.71,0,1.8-.04,3.25-.93,3.42-2.69.26-2.71.07-5.47.07-8.12h-43.76c0,2.49-.06,4.78.02,7.08-.11,1.96,1.39,3.63,3.35,3.73.13,0,.27,0,.4,0,1.42.07,2.85.01,4.53.01v80.12c-1.57,0-2.98-.05-4.39.01m24.49-74.64h2.54v69.28h-2.54v-69.28Zm-7.73,0h2.54v69.28h-2.54v-69.28Zm-7.73,0h2.54v69.28h-2.54v-69.28Z" fill="#fff"/>
      <path id="_패스_1435" data-name="패스 1435" d="m173.05,139.93c1.75-1.2,2.2-3.58,1.01-5.34-.16-.23-.34-.45-.55-.64-.34-.35-.76-.63-1.21-.82-14.53-5.44-29.13-10.71-43.73-15.96-.96-.35-2.01-.38-2.99-.09-14.84,5.27-29.67,10.6-44.48,15.98-1.65.6-3.01,1.56-2.98,3.55.02,1.93,1.3,2.88,2.91,3.65,14.63,7.04,29.22,14.16,43.88,21.14,1.21.48,2.55.49,3.76.02,3.57-1.51,7.01-3.33,10.5-5.02,11.19-5.42,22.4-10.8,33.55-16.29.11-.06.22-.12.33-.19" fill="#fff"/>
      <path id="_패스_1436" data-name="패스 1436" d="m133.45,168.31c-3.66,1.87-8,1.85-11.65-.05-9.03-4.42-18.11-8.73-27.18-13.08-.52-.25-1.09-.39-2.2-.78,0,6.26-.02,12.12.01,17.99.01,2.13.91,3.72,3.21,4.01,10.86,1.37,19.94,6.38,27.99,13.57,2.36,2.11,4.05,2.21,6.53.22,8.35-6.7,17.53-11.62,28.23-13.37,1.68-.12,2.98-1.52,2.99-3.2.09-6.16.03-12.32.03-18.79-1.09.48-1.94.83-2.77,1.23-8.4,4.09-16.78,8.21-25.2,12.26" fill="#fff"/>
      <rect id="_사각형_702" data-name="사각형 702" width="254" height="254" fill="none"/>
    </g>
  </g>
</svg>