<?xml version="1.0" encoding="UTF-8"?>
<svg id="Layer_2" data-name="Layer 2" xmlns="http://www.w3.org/2000/svg" viewBox="0 0 225 225">
  <g id="Logo">
    <g id="symbol_07_03_0003_01" data-name="symbol 07 03 0003 01">
      <rect id="_사각형_292" data-name="사각형 292" width="225" height="225" fill="none"/>
      <path id="_패스_1118" data-name="패스 1118" d="m69.71,210.65c.56-.75.97-1.59,1.23-2.49.32-1.85.54-3.71.67-5.59.16-2.59.53-5.17,1.1-7.7.91-2.59,2.87-4.67,5.39-5.74-24.27-9.34-40.29-32.64-40.31-58.64,0-6.28.94-12.53,2.8-18.53l-25.97-3.45c-1.24-.16-2.18-1.22-2.19-2.47-.01-1.25.89-2.33,2.13-2.52l31.96-5.04c4.59-8.22,11.02-15.26,18.78-20.59,1.81-1.24,3.69-2.38,5.62-3.41l-25.8-25.98c-.61-.61-.86-1.49-.67-2.33.19-.84.8-1.53,1.61-1.82l33.89-12.21c.32-.12.67-.17,1.01-.14.19,0,.38.01.57.05l96.48,21.1c.16.03.32.09.47.15,1.19.24,2.39.47,3.6.7,3.29.63,6.7,1.27,10.07,2.12,4,1.04,6.43,5.1,5.44,9.12-2.02,9.64-4.13,19.3-6.28,28.73-.7,3.53-3.77,6.1-7.38,6.15-.46,0-.92-.04-1.38-.13-1.92-.35-3.83-.76-5.72-1.19,1.47,1.56,2.35,3.59,2.49,5.73,0,1.78-.48,3.52-1.41,5.03-2.28,4.03-5.41,7.51-9.16,10.22v10.15c0,.86-.45,1.67-1.18,2.13,0,5.28,0,10.49.04,15.74.04,7.72.11,15.57.18,23.16.11,11.95.22,24.32.22,36.48,0,.38.02.77.06,1.15,34.44-19.66,55.7-56.27,55.68-95.93,0-60.99-49.43-110.43-110.42-110.44h0C52.34,2.22,2.9,51.66,2.91,112.65c-.01,41.44,23.18,79.41,60.06,98.31l4.4,1.65h0l2.34-1.95Z" fill="#fff"/>
      <circle id="_타원_24" data-name="타원 24" cx="92.97" cy="52.69" r="6.6" fill="#fff"/>
      <rect id="_사각형_291" data-name="사각형 291" x="118.38" y="53.41" width="11.96" height="11.96" rx="2.28" ry="2.28" transform="translate(41.53 169.53) rotate(-78.58)" fill="#fff"/>
      <path id="_패스_1119" data-name="패스 1119" d="m106.65,51.79l-4.52,5.12c-.93,1.06-.83,2.67.23,3.61.34.3.75.5,1.19.59l6.7,1.35c1.38.28,2.73-.62,3.01-2,.09-.44.06-.89-.08-1.32l-2.18-6.48c-.45-1.34-1.9-2.06-3.24-1.61-.43.14-.81.4-1.1.73Z" fill="#fff"/>
    </g>
  </g>
</svg>