<?xml version="1.0" encoding="UTF-8"?>
<svg id="_레이어_2" data-name="레이어 2" xmlns="http://www.w3.org/2000/svg" viewBox="0 0 250 201">
  <g id="Logo">
    <g id="symbol_01_03_0002_01" data-name="symbol 01 03 0002 01">
      <rect id="_사각형_145" data-name="사각형 145" width="250" height="201" fill="none"/>
      <path id="_패스_812" data-name="패스 812" d="M134.33,113.91c.19,4.98-3.7,9.18-8.69,9.36-.03,0-.06,0-.09,0-5.1,.2-9.4-3.78-9.59-8.89,0-.1,0-.2,0-.3,.13-5,4.15-9.01,9.15-9.14,5.01-.05,9.13,3.95,9.23,8.96Z" fill="#fff"/>
      <path id="_패스_813" data-name="패스 813" d="M13.27,121.97c-.22-1.65,.88-2.84,2.41-3.63v-11.74c-.86,.11-1.72,.29-2.55,.55-7.37,2.32-12.01,11.19-9.5,18.5s11.86,11.44,18.87,8.17c2.09-.98,4.13-3.08,3.5-5.3-1.4-4.97-12.03-1.43-12.72-6.55Z" fill="#fff"/>
      <path id="_패스_814" data-name="패스 814" d="M244.14,111.91c-1.61-2.08-3.77-3.67-6.24-4.58-1.03-.36-2.1-.61-3.18-.74v11.94c1.77,1.31,2.95,3.4,1.85,5.17-2.02,3.23-7.57-.02-10.73,2.1-1.9,1.27-2.11,4.2-.86,6.12,1.39,1.85,3.48,3.04,5.78,3.29,7.79,1.33,15.19-3.91,16.53-11.7,.71-4.14-.44-8.38-3.13-11.6h0Z" fill="#fff"/>
      <path id="_패스_815" data-name="패스 815" d="M226.17,117.38v-9.45c-4.3,1.8-8.08,4.65-11,8.29-5.45,6.73-8.49,15.07-13.22,22.32s-12.19,13.82-20.88,13.54c-2.4,0-4.74-.76-6.69-2.17-5.75-4.47-3.72-13.56-.38-20.01,5.06-9.77,11.88-18.6,16.42-28.63,12.09-26.72,5.17-60.75-16.42-80.69-27.39-25.3-73.02-24.2-99.39,1.9-23.74,23.19-27.99,59.84-10.17,87.85,4.58,7.22,10.48,13.62,14.24,21.29,3.07,6.25,4.21,14.72-.98,19.39-3.24,2.92-8.15,3.4-12.37,2.27-8.02-2.14-13.78-9.12-17.85-16.32s-7.1-15.09-12.46-21.4c-2.9-3.45-6.62-6.13-10.81-7.78v9.29c2.42,.2,4.65,.97,5.95,2.93,1.71,2.59,.9,5.99,.36,9.04-2.98,16.96,5.18,34.58,18.04,46.11s29.8,17.66,46.82,20.78c38.2,7.01,80.04-.87,109.79-25.69,7.1-5.92,13.87-13.69,13.88-22.91,.01-7.29-4.27-14.57-2.17-21.56,1.43-4.21,4.94-7.38,9.27-8.38Zm-137.71-22.95c-2.52,0-4.55-2.84-4.55-6.35s2.04-6.35,4.55-6.35,4.55,2.84,4.55,6.35-2.04,6.35-4.55,6.35Zm36.67,43.71c-13.29,.06-24.11-10.66-24.18-23.95-.06-13.47,10.79-24.1,24.55-24.05,13.25,.1,23.92,10.93,23.81,24.19s-10.93,23.92-24.19,23.81h0Zm36.86-43.71c-2.52,0-4.55-2.84-4.55-6.35s2.04-6.35,4.55-6.35,4.55,2.84,4.55,6.35-2.04,6.35-4.55,6.35Z" fill="#fff"/>
    </g>
  </g>
</svg>