<?xml version="1.0" encoding="UTF-8"?>
<svg id="_레이어_2" data-name="레이어 2" xmlns="http://www.w3.org/2000/svg" viewBox="0 0 255 152">
  <g id="Logo">
    <g id="symbol_03_04_0002_01" data-name="symbol 03 04 0002 01">
      <path id="_패스_886" data-name="패스 886" d="M125.46,120.27c.8-9.14,.78-10.49,.78-10.49-.08-5.17-1.05-5.75-.9-10.11,.1-2.62,.55-5.22,1.33-7.73-1.59,.74-3.23,1.34-4.92,1.81-5.15,1.42-8.82,.99-13.81,.76-12-.56-11.34,.27-19.89-.05-3.72-.14-7.41-1.08-11.11-1.68-2.11-.34-4.22-.7-7.81-1.3,1,1.7,1.59,3.62,1.7,5.59,.06,1.66-.22,3.32-.81,4.87-.84,2.51-1.52,6.49-.64,12.75-9.61-1.22-19.37-.26-28.55,2.8-3.44-13.71-3.71-28.03-.8-41.86,1.28-5.98,3.16-11.82,5.63-17.41C61.97,21.28,96.4,.28,136.71,2.26c43.84,2.15,81.82,39.29,85.53,83.43h0c.25,1.86,.57,4.69,.73,8.15,.31,6.85,.6,14.74-2.39,23.58-1.12,3.3-2.59,6.47-4.4,9.45l-2.64,.68c-5.25,1.17-10.61,1.81-15.99,1.9-1.9,.02-4.38-.03-7.29-.28,.65-1.33,1.19-2.71,1.63-4.12,.94-3.26,1.34-6.65,1.18-10.04-.12-7.4-1.46-9.3-1.7-17.01-.08-2.66,0-4.81,.08-6.14-1.53,.21-3.45,.45-5.37,.73-6.49,.97-8.62,1.35-12.51,1.82-1.06,.13-4.43,.53-8.78,.79,0,0-14.85,.89-22.45-1.45-.89-.27-1.96-.62-1.96-.62-1.47-.47-2.67-.88-3.46-1.16,.14,2.32,.12,4.65-.06,6.96-.41,5.27-1.49,7.73-2.07,11.81-.54,3.97-.45,8,.25,11.94l-9.58-2.41Z" fill="#fff"/>
      <path id="_패스_887" data-name="패스 887" d="M35.3,127.35c10.33-4.63,21.04-6.47,32.04-7.14,15.71-.96,31.14,1.13,46.54,3.88,15.36,2.75,30.71,5.66,46.17,7.71,25.54,3.39,51.18,5.14,76.8,.55,5.29-.95,10.5-2.36,16.8-3.8-4.16,5.8-9.47,8.5-14.72,10.99-15.53,7.36-32.17,8.73-49.04,8.43-22.51-.4-44.14-6.1-65.87-11.2-20.04-4.7-40.2-8.69-60.84-9.38-9.21-.3-18.44-.05-27.88-.05Z" fill="#fff"/>
      <path id="_패스_888" data-name="패스 888" d="M130.53,146.07c-5.95,2.52-12.3,3.94-18.76,4.18-9.2,.56-18.23-.66-27.25-2.27-8.99-1.61-17.98-3.31-27.03-4.51-14.96-1.98-29.97-3.01-44.97-.32-3.1,.55-6.15,1.38-9.84,2.22,2.44-3.39,5.54-4.97,8.62-6.42,9.09-4.3,18.84-5.1,28.71-4.93,13.18,.23,25.85,3.57,38.57,6.55,11.73,2.75,23.54,5.08,35.62,5.48,5.4,.18,10.8,.03,16.33,.03Z" fill="#fff"/>
      <rect id="_사각형_181" data-name="사각형 181" width="255" height="152" fill="none"/>
    </g>
  </g>
</svg>