<?xml version="1.0" encoding="UTF-8"?>
<svg id="Layer_2" data-name="Layer 2" xmlns="http://www.w3.org/2000/svg" viewBox="0 0 300 300">
  <g id="Logo">
    <g id="symbol_12_02_0009_01" data-name="symbol 12 02 0009 01">
      <path id="_합치기_41" data-name="합치기 41" d="m51.73,254.38c0-17.05,13.05-31.26,30.03-32.72V62.53c.01-9,7.3-16.29,16.3-16.3h86.81c-2.42-17.98,10.19-34.51,28.17-36.93,17.98-2.42,34.51,10.19,36.93,28.17,2.42,17.98-10.19,34.51-28.17,36.93-1.45.2-2.92.29-4.38.29-.33,0-.66-.02-.99-.03v177.04c-.01,9-7.3,16.29-16.3,16.3h-85.67c-7.52,16.51-27,23.79-43.51,16.27-11.71-5.34-19.23-17.02-19.22-29.89h0Zm112.43-41.59c2.12,0,3.83,1.71,3.83,3.83h0v43.73h32.15c4.77,0,8.63-3.87,8.64-8.64V73.54c-9.98-2.74-18.09-10.01-21.9-19.64h-88.8c-4.77,0-8.63,3.87-8.64,8.63v159.37c17.93,2.66,30.3,19.35,27.64,37.28-.06.39-.12.78-.2,1.17h13.34v-43.73c0-2.12,1.72-3.83,3.83-3.83h30.1Zm-26.28,47.56h22.45v-39.9h-22.45v39.9Zm-78.42-13.4c0,1.26,1.02,2.28,2.28,2.28,1.26,0,2.28-1.02,2.28-2.28,0-1.26-1.02-2.28-2.28-2.28h0c-1.26,0-2.28,1.02-2.28,2.28Zm5.89-11.16c-2.07,2.86-2.64,5.97-1.27,6.97s4.17-.5,6.24-3.35,2.64-5.97,1.27-6.98c-.3-.21-.66-.32-1.03-.31-1.48,0-3.57,1.41-5.21,3.66ZM192.62,33.67c0,1.26,1.02,2.28,2.28,2.28,1.26,0,2.28-1.02,2.28-2.28,0-1.26-1.02-2.28-2.28-2.28h0c-1.26,0-2.28,1.02-2.28,2.28Zm5.89-11.16c-2.08,2.85-2.64,5.97-1.27,6.97s4.17-.5,6.24-3.35,2.64-5.98,1.27-6.97c-.3-.21-.67-.32-1.04-.31-1.48,0-3.57,1.41-5.21,3.66ZM21.8,210.58c0-10.88,8.83-19.71,19.71-19.71s19.71,8.83,19.71,19.71c0,10.88-8.82,19.71-19.71,19.71-10.88,0-19.71-8.82-19.71-19.71h0Zm4.09-2.66c-.8.19-1.29.98-1.11,1.78.19.8.99,1.29,1.78,1.11.8-.19,1.29-.99,1.11-1.78-.16-.67-.75-1.15-1.44-1.15-.11,0-.23.01-.34.04h0Zm.96-6.16c-.89,2.11-.78,4.18.23,4.6s2.57-.94,3.46-3.05.78-4.18-.24-4.61c-.13-.05-.26-.08-.4-.08-.99,0-2.28,1.28-3.06,3.14h0Zm136.03-7.06c-2.12,0-3.83-1.71-3.83-3.83h0v-25.91c0-2.12,1.71-3.83,3.83-3.83h25.91c2.12,0,3.83,1.71,3.83,3.83h0v25.91c0,2.12-1.71,3.83-3.83,3.83h-25.91Zm3.83-7.66h18.25v-18.24h-18.25v18.24Zm-57.3,7.66c-2.12,0-3.83-1.72-3.83-3.83v-25.91c0-2.12,1.72-3.83,3.83-3.83h25.91c2.12,0,3.83,1.71,3.83,3.83h0v25.91c0,2.12-1.71,3.83-3.83,3.83h-25.92Zm3.84-7.66h18.25v-18.24h-18.25v18.24Zm-63.59-16.79c0-7.7,6.24-13.94,13.93-13.94,7.7,0,13.94,6.24,13.94,13.93,0,7.7-6.24,13.94-13.93,13.94h0c-7.7,0-13.94-6.24-13.94-13.93h0Zm113.23-20.8c-2.12,0-3.83-1.71-3.83-3.83h0v-25.91c0-2.12,1.71-3.83,3.83-3.83h25.91c2.12,0,3.83,1.71,3.83,3.83h0v25.91c0,2.12-1.71,3.83-3.83,3.83h-25.91Zm3.83-7.66h18.25v-18.25h-18.25v18.25Zm-57.3,7.66c-2.12,0-3.83-1.72-3.83-3.83v-25.91c0-2.12,1.72-3.83,3.83-3.83h25.91c2.12,0,3.83,1.71,3.83,3.83h0v25.91c0,2.12-1.71,3.83-3.83,3.83h-25.92Zm3.84-7.66h18.25v-18.25h-18.25v18.25Zm111.23-15.81c0-7.7,6.24-13.94,13.93-13.94,7.7,0,13.94,6.24,13.94,13.93,0,7.7-6.24,13.94-13.93,13.94h0c-7.7,0-13.94-6.23-13.94-13.93h0s0,0,0,0Zm16.31-40.33c0-10.88,8.82-19.71,19.71-19.71s19.71,8.82,19.71,19.71-8.82,19.71-19.71,19.71h0c-10.89,0-19.72-8.81-19.72-19.7h0s0,0,0,0Zm7.44-2.93c-.8.19-1.29.98-1.11,1.78.19.8.99,1.29,1.78,1.11.8-.19,1.29-.99,1.11-1.78-.16-.67-.75-1.14-1.44-1.15-.12,0-.23,0-.35.04h0Zm.96-6.16c-.89,2.12-.78,4.18.23,4.61s2.57-.94,3.46-3.06.78-4.17-.24-4.6c-.13-.05-.26-.08-.4-.08-1,0-2.29,1.27-3.06,3.13h0Zm-86.3,27.65c-2.12,0-3.83-1.72-3.83-3.83v-25.91c0-2.12,1.71-3.83,3.83-3.83h25.91c2.12,0,3.83,1.71,3.83,3.83h0v25.92c0,2.12-1.72,3.83-3.83,3.83h-25.91Zm3.83-7.66h18.25v-18.25h-18.25v18.25Zm-57.3,7.66c-2.12,0-3.83-1.72-3.83-3.83v-25.91c0-2.12,1.72-3.83,3.83-3.83h25.91c2.12,0,3.83,1.71,3.83,3.83h0v25.92c0,2.12-1.72,3.83-3.83,3.83h-25.91Zm3.84-7.66h18.25v-18.25h-18.25v18.25Z" fill="#fff"/>
      <rect id="_사각형_428" data-name="사각형 428" width="300" height="300" fill="none"/>
    </g>
  </g>
</svg>