<?xml version="1.0" encoding="UTF-8"?>
<svg id="Layer_2" data-name="Layer 2" xmlns="http://www.w3.org/2000/svg" viewBox="0 0 161 166">
  <g id="Logo">
    <g id="symbol_05_03_0002_01" data-name="symbol 05 03 0002 01">
      <path id="_패스_959" data-name="패스 959" d="m80.82,54.55c-31.08-7.03-51.01-27.04-63.15-45.24-1.76-2.68-5.35-3.44-8.04-1.68-1.9,1.25-2.91,3.49-2.56,5.74l19.3,126.9c1.67,10.96,11.09,19.06,22.18,19.06h51.25c1.67-29.54-13-52.95-24.53-66.57-.82-.96-.71-2.41.25-3.23.8-.69,1.97-.73,2.82-.12,35.2,25.33,39.45,58.83,39.85,69.91h27.42c4.18,0,7.57-3.38,7.58-7.56,0-.52-.05-1.05-.16-1.56-4.91-23.37-22.35-84.37-72.22-95.65" fill="#fff"/>
      <rect id="_사각형_230" data-name="사각형 230" width="161" height="166" fill="none"/>
    </g>
  </g>
</svg>