<?xml version="1.0" encoding="UTF-8"?>
<svg id="_레이어_2" data-name="레이어 2" xmlns="http://www.w3.org/2000/svg" viewBox="0 0 172 210">
  <g id="Tag">
    <g id="symbol_03_19_0001_01" data-name="symbol 03 19 0001 01">
      <rect id="_사각형_75" data-name="사각형 75" x="0" y="0" width="172" height="210" fill="none"/>
      <path id="_패스_547" data-name="패스 547" d="M78.31,210h7.24v-23.34h-7.24v23.34Z" fill="#fff"/>
      <path id="_패스_548" data-name="패스 548" d="M88.64,210h7.23v-23.34h-7.23v23.34Z" fill="#fff"/>
      <path id="_패스_549" data-name="패스 549" d="M126.89,120.41c-11.44-6.91-15.07-15.1-13.89-25.9,2.26-20.69,4.34-41.39,6.84-62.06C121.92,15.25,107.38,.42,87.56,0c-19.44-.4-35.07,13.69-33.82,30.7,.46,6.32,1.47,12.6,2.11,18.91,1.71,16.75,3.61,33.49,4.91,50.27,.62,8.01-3.47,14.21-11.71,19.09-6.61,3.89-12.63,8.69-17.89,14.27-21.04,22.63-15.44,58.6,11.22,76.75h12.55v-56.76l27.1,.06c-.17,.51-.34,1.02-.51,1.53-.26,.62,.03,1.33,.65,1.59,.18,.07,.37,.11,.56,.09,.92,0,1.84,0,2.77,0,.12,0,.24,.01,.35,.02,.01,.04,.02,.07,.02,.11v1.79c-.07,.68,.43,1.28,1.1,1.35,.06,0,.13,0,.19,0,.66,.05,1.15,.63,1.1,1.29-.05,.66-.63,1.15-1.29,1.1-.62-.05-1.1-.57-1.11-1.19,0-.67-.54-1.22-1.21-1.22s-1.22,.54-1.22,1.21c0,.05,0,.09,0,.14,.03,.86,.36,1.68,.93,2.31,.08,.09,.16,.18,.24,.28-.08,.06-.13,.1-.18,.14-2.4,1.75-4.8,3.51-7.21,5.26h-16.26v15.02h.04v25.89h14.23v-25.88h23.7v25.88h14.3v-40.91h-16.28c-2.4-1.75-4.8-3.49-7.19-5.24-.07-.05-.13-.11-.19-.16,.66-.67,1.06-1.55,1.15-2.48,.09-1.51-.75-2.92-2.13-3.56-.11-.06-.26-.18-.28-.28-.02-.28-.03-.57-.01-.85,1.08,0,2.11,0,3.14,0,.67,.05,1.25-.45,1.31-1.12,.01-.19-.02-.38-.09-.56-.17-.51-.34-1.01-.51-1.52l26.97,.05v56.62h11.53c.6-.31,1.18-.66,1.72-1.06,33.14-25.13,30.89-66.55-5.5-88.53Zm-57.28,83.47h-3.01v-2.83h3.01v2.83Zm.01-6.5h-3.02v-2.82h3.02v2.82Zm9.45-17.18l-4.47-4.23,2.07-1.96,2.36,2.28,2.4-2.29,2.12,1.99-4.48,4.22Zm27.32,14.36h2.99v2.83h-2.99v-2.83Zm0,6.49h3v2.84h-3v-2.84Zm-6.73-23.73l-2.1,1.99-2.39-2.37-2.43,2.33-2.1-1.98,4.5-4.26,4.52,4.28Zm-6.83-8.22h-11.46c1.81-1.32,3.63-2.65,5.44-3.97,.15-.16,.39-.17,.55-.03,0,0,0,0,0,0,1.82,1.33,3.64,2.67,5.46,3.99h0Zm-5.38-131.3c-6.93,.26-12.49-4.4-12.5-10.49,0-5.89,5.04-10.46,11.69-10.58,6.58-.12,12.01,4.43,12.18,10.21,.18,5.86-4.81,10.62-11.37,10.87h0Z" fill="#fff"/>
      <path id="_패스_550" data-name="패스 550" d="M42.12,115.57C8.91,126.21-5.44,157.17,10.06,188.83c3.33,6.44,7.66,12.3,12.85,17.36-4.04-2.83-7.68-6.2-10.83-10-12.88-15.46-16.29-38.86-6.2-56.65,7.46-13.12,21.47-21.83,36.24-23.96h0Z" fill="#fff"/>
      <path id="_패스_551" data-name="패스 551" d="M129.88,115.57c14.77,2.14,28.77,10.84,36.24,23.96,10.09,17.8,6.67,41.19-6.2,56.65-3.14,3.8-6.78,7.17-10.83,10,5.18-5.06,9.52-10.92,12.85-17.36,15.51-31.67,1.13-62.63-32.06-73.26h0Z" fill="#fff"/>
    </g>
  </g>
</svg>