<?xml version="1.0" encoding="UTF-8"?>
<svg id="_레이어_2" data-name="레이어 2" xmlns="http://www.w3.org/2000/svg" viewBox="0 0 148 178">
  <g id="Logo">
    <g id="symbol_10_03_0001_01" data-name="symbol 10 03 0001 01">
      <rect id="_사각형_128" data-name="사각형 128" width="148" height="178" fill="none"/>
      <path id="_패스_775" data-name="패스 775" d="M144.51,141.99c-.07,1.49-.25,2.98-.52,4.44-.93,5.02-3.01,9.76-6.06,13.85-4.7,6.01-11.75,7.81-17.18,9.64-15.26,5.13-31.58,6.36-47.69,6.3-16.07-.06-32.36-1.41-47.51-6.75-7.5-2.64-15.05-6.61-19.06-13.45-3.24-5.52-3.74-12.17-4.06-18.56-.88-17.59-1-35.2-.36-52.83,.24-6.64,.66-13.52,3.75-19.41,3.36-6.39,9.58-10.9,16.25-13.73,6.67-2.82,13.85-4.16,20.93-5.68,1.05-.23,2.3-.65,2.51-1.7,.05-.5-.04-1-.27-1.44-1.68-4.02-5.03-7.07-7.6-10.59s-4.38-8.26-2.48-12.18c1.3-2.68,4.03-4.34,6.69-5.69s5.66-2.53,8.53-1.74c3.04,.84,5.03,3.65,6.77,6.27l16.59,25.03L96.37,7.35c1.54-2.47,4.14-6.3,7.51-6.16,.63,.09,1.24,.33,1.77,.69,.94,.43,1.99,.69,2.96,1.08,1.97,.73,3.82,1.74,5.49,3.01,2.69,2.13,4.66,5.47,4.21,8.86-.28,2.13-1.47,4.03-2.63,5.84-4.58,7.2-9.17,14.41-13.76,21.61-.43,.67-.86,1.54-.43,2.21,.34,.41,.83,.67,1.36,.74,8.98,2.29,18.32,3.78,26.49,8.13s15.17,12.42,15.01,21.66c-22.31-7.7-46.43-8.93-69.96-7.07-8.26,.66-17.75,2.48-21.71,9.74-2.09,3.84-2.13,8.41-2.12,12.78,.04,13.46,.08,26.92,.12,40.39,0,2.96,.04,6.01,1.19,8.74,2.11,4.99,7.54,7.78,12.85,8.98,4.98,1.18,10.11,1.6,15.21,1.25,12.18-1.58,34.88-4.14,64.58-7.84Z" fill="#fff"/>
    </g>
  </g>
</svg>