<?xml version="1.0" encoding="UTF-8"?>
<svg id="_레이어_2" data-name="레이어 2" xmlns="http://www.w3.org/2000/svg" viewBox="0 0 234 187">
  <g id="Logo">
    <g id="symbol_15_04_0002_02" data-name="symbol 15 04 0002 02">
      <rect id="_사각형_190" data-name="사각형 190" width="234" height="187" fill="none"/>
      <path id="_패스_540" data-name="패스 540" d="M230.34,23.01V3.82H2.68V23.01h5.9V165.58H2.68v19.19H230.35v-19.19h-7.76V23.01h7.75Zm-75.96,109.04c-.97,3.48-3.08,6.54-5.98,8.69v24.83h-28.84v-11.79c-2.03,.31-4.1,.29-6.12-.07v11.86h-28.84v-25.82c-2.97-2.3-5.19-5.44-6.37-9.01,.06,11.61,.11,23.22,.17,34.84h-28.76V23.01h28.84V91.6c1.46-3.32,3.54-6.33,6.12-8.88V23.02h28.83c0,3.25-.02,6.49-.02,9.74,.97-.26,1.97-.4,2.98-.43,1.05,0,2.11,.04,3.15,.15,0-3.15,0-6.31,.01-9.46h28.84v60.33c2.55,2.19,4.66,4.82,6.25,7.78l-.13-68.11h28.84V165.58h-28.89c-.03-11.18-.06-22.35-.09-33.53ZM14.69,23.01h28.84V165.58H14.69V23.01ZM216.47,165.58h-26.98V23.01h26.98V165.58Z" fill="#fff"/>
      <path id="_패스_541" data-name="패스 541" d="M116.08,56.04c-.9,.14-1.78,.38-2.62,.7,0,4.68,0,9.37,0,14.05,1.07-.21,2.16-.31,3.25-.31,1.24,0,2.98,.15,2.98,.16l-.11-14.71c-1.16-.11-2.34-.07-3.49,.12Z" fill="#fff"/>
    </g>
  </g>
</svg>