<?xml version="1.0" encoding="UTF-8"?>
<svg id="Layer_2" data-name="Layer 2" xmlns="http://www.w3.org/2000/svg" viewBox="0 0 242 152">
  <g id="Logo">
    <g id="symbol_17_01_0002_02" data-name="symbol 17 01 0002 02">
      <path id="_합치기_18" data-name="합치기 18" d="m156.06,145.89h-70.12V40.72c1.7-.74,3.42-1.43,5.18-2.04,21.51-7.79,45.4-5.41,64.95,6.48v30.61h28.97c5.65,10.82,8.56,22.86,8.47,35.06.06,12.21-2.86,24.24-8.51,35.06h-28.93Zm53.33-35.06c.06-11.38-2.23-22.64-6.72-33.1,14.08,4.91,23.51,18.19,23.51,33.1,0,14.9-9.42,28.17-23.48,33.09,4.49-10.45,6.77-21.72,6.69-33.09ZM15.82,24.73c0-10.53,8.54-19.07,19.07-19.07,10.54,0,19.08,8.54,19.08,19.07h0c0,10.54-8.54,19.08-19.08,19.08h0c-10.54,0-19.07-8.54-19.07-19.08h0ZM121,5.65c15.9,0,29.81,10.71,33.89,26.08-10.8-4.13-22.35-5.94-33.89-5.3-12.12.5-23.98,3.7-34.71,9.37,2.45-17.29,17.25-30.14,34.71-30.15Z" fill="#fff"/>
      <rect id="_사각형_215" data-name="사각형 215" width="242" height="152" fill="none"/>
    </g>
  </g>
</svg>