<?xml version="1.0" encoding="UTF-8"?>
<svg id="Layer_2" data-name="Layer 2" xmlns="http://www.w3.org/2000/svg" viewBox="0 0 342 130">
  <g id="Logo">
    <g id="symbol_08_03_0003_02" data-name="symbol 08 03 0003 02">
      <path id="_패스_1154" data-name="패스 1154" d="m326.74,89.18l-113.32-14.87c-1.97-19.1-16.46-34.54-35.4-37.7l-6.15-26.41c-.11-.48-.59-.77-1.07-.66-.33.08-.58.33-.66.66l-6.15,26.41c-18.94,3.16-33.43,18.6-35.4,37.7l-113.31,14.87c-1.15.15-1.96,1.21-1.81,2.36.08.59.4,1.11.88,1.45l3.06,2.13c.35.25.77.38,1.2.38h24.63c3.91-7.37,13.05-10.17,20.42-6.26,2.67,1.41,4.85,3.6,6.26,6.26h11.32c5.75-8.44,17.26-10.61,25.7-4.86,1.91,1.3,3.55,2.95,4.86,4.86h20.05c9.31,21.63,34.39,31.63,56.02,22.32,10.02-4.31,18.01-12.3,22.32-22.32h20.05c5.75-8.44,17.26-10.61,25.7-4.86,1.91,1.3,3.55,2.95,4.86,4.86h11.32c3.91-7.37,13.05-10.17,20.42-6.26,2.67,1.41,4.85,3.6,6.26,6.26h24.63c.43,0,.85-.13,1.2-.38l3.06-2.13c.95-.66,1.19-1.98.52-2.93-.34-.49-.87-.81-1.45-.88m-186.09-10.52c0-16.76,13.57-30.36,30.34-30.37s30.36,13.58,30.37,30.34v.03h-60.71Z" fill="#fff"/>
      <rect id="_사각형_306" data-name="사각형 306" width="342" height="130" fill="none"/>
    </g>
  </g>
</svg>