<?xml version="1.0" encoding="UTF-8"?>
<svg id="_레이어_2" data-name="레이어 2" xmlns="http://www.w3.org/2000/svg" viewBox="0 0 126 126">
  <g id="Logo">
    <g id="symbol_01_02_0003_01" data-name="symbol 01 02 0003 01">
      <path id="_패스_1043" data-name="패스 1043" d="M62.64,2.45c-33.44,0-60.55,27.11-60.55,60.55s27.11,60.55,60.55,60.55c33.44,0,60.55-27.11,60.55-60.55h0C123.19,29.56,96.08,2.45,62.64,2.45h0Zm-25.84,20.08c.82-1.38,2.65-1.58,4.1-1.6,1.51-.02,3.02,.02,4.53,.12,.48,0,.96,.11,1.39,.34,.83,.53,.93,1.68,.95,2.66,.11,6.63,.23,13.27,.34,19.9-3.49-2.18-6.84-4.59-10.03-7.2-.71-.49-1.28-1.15-1.67-1.92-.22-.65-.31-1.34-.27-2.03,0-1.57-.01-3.13-.02-4.7,0-1.67-.21-4.07,.68-5.57Zm8,81.98c-2.14-.14-4.3,0-6.46-.03-3.89-.06-4.21-.4-4.18-4.56,.04-5.11,.09-10.2-1.1-15.22-1.32-5.59-4.12-10.3-7.15-14.9-.34-.52-.73-1-1.05-1.54-.62-1.06-1.56-2.17-.43-3.41,1.19-1.3,2.14-.14,3.04,.63,1.47,1.24,2.88,2.56,4.34,3.8,.59,.5,1.15,1.36,2.03,.91,.84-.43,.77-1.42,.79-2.26,.1-4.47,.14-8.93,.26-13.4,.03-1.1-.3-2.56,1.04-3.02,1.1-.38,1.75,.76,2.41,1.49,2.66,2.97,5.24,6.03,7.93,8.98,1.32,1.45,1.15,3.31,1.44,4.68,.56,2.61,.59,5.3,.61,10.55,.01,2.7-.03,6.36-.03,6.36,0,5.64-.07,11.27,.03,16.9,.05,2.8-.78,4.22-3.53,4.03ZM100.73,40.11c-6.55,8.35-8.53,19.43-8.71,30.04s1.21,21.24,.45,31.82c.05,.8-.26,1.58-.85,2.12-.46,.24-.98,.34-1.5,.29l-9.62-.07c-.58,.08-1.17-.1-1.62-.49-.31-.52-.39-1.15-.22-1.74,.68-5.11-.87-10.32-3.43-14.79s-6.08-8.31-9.64-12.04c-12.35-12.95-25.52-25.1-39.43-36.37-1.13-.92-2.9-2.31-2.91-3.93,0-.62,.58-1.15,1.03-1.52,.63-.5,1.44-.74,2.24-.65,1.23,.23,2.4,.76,3.38,1.54,5.9,3.96,11.66,8.12,17.29,12.46,9.71,7.49,18.98,15.52,27.78,24.06,.73,.71,1.66,1.48,2.65,1.23,1.25-.32,1.52-1.95,1.53-3.24l.54-41.77c.02-1.1,.11-2.38,1.01-3.02,.57-.33,1.23-.49,1.89-.46,2.1-.09,4.2-.06,6.29,.08,.82-.05,1.63,.26,2.21,.85,.29,.51,.42,1.1,.38,1.69l.21,13.27c.02,.98,.38,2.31,1.36,2.23,.42-.09,.8-.32,1.06-.66l3.86-3.9c.94-.95,2.4-1.96,3.47-1.17,1.27,.94,.26,2.92-.71,4.16h0Z" fill="#fff"/>
      <rect id="_사각형_253" data-name="사각형 253" width="126" height="126" fill="none"/>
    </g>
  </g>
</svg>