<?xml version="1.0" encoding="UTF-8"?>
<svg id="_레이어_2" data-name="레이어 2" xmlns="http://www.w3.org/2000/svg" viewBox="0 0 132 132">
  <g id="Logo">
    <g id="symbol_18_02_0005_01" data-name="symbol 18 02 0005 01">
      <path id="_패스_1222" data-name="패스 1222" d="m55.89,80.68c.75.04,1.32.68,1.28,1.43-.04.75-.68,1.32-1.43,1.28-.75-.04-1.32-.68-1.28-1.43s.68-1.32,1.43-1.28h0" fill="#fff"/>
      <path id="_패스_1223" data-name="패스 1223" d="m117.9,60.37c-.87-5.01-2.31-9.77-6.29-13.28-3.48-3.07-6.25-3.17-9.7-.17-3.21,2.79-6.38,5.67-9.31,8.75-5.26,5.51-13.9,3.45-17.95-.15.66-.15,1.25-.25,1.82-.41,2.68-.75,4.92-2.12,5.7-4.94.98-3.18,2.84-6.03,5.37-8.19,1.3-1.21,2.69-2.32,4.06-3.51-.24-.18-.34-.3-.46-.33-.33-.08-.66-.14-1-.17-3.43-.24-6.59-1.98-8.61-4.77-1.96-2.6-3.52-5.52-6.59-7.14,10.27-.73,20.57,1.01,30.03,5.08-.24-.26-.48-.52-.72-.78-13.04-13.73-29.07-19.41-47.78-16.31-6.63.98-12.99,3.29-18.71,6.77-3.83,2.36-14.34,9.58-19.07,22.33-.03.07-.05.13-.07.2-2.57,5.45-4.02,11.36-4.26,17.39-.1,6.42,1.41,12.76,4.38,18.45,2.12.8,4.26,1.59,6.42,2.38.95.35.99.36.99.36,5.93,1.63,11.62-.25,16.44-2.32,7.06-3.04,13.53-7.17,20.21-10.92,4.73-2.66,9.53-5.16,14.95-6.15,2.14-.53,4.41.05,6.05,1.53.61.56,1.07,1.36-.29,1.51-6.35.71-9.96,5.26-13.69,9.67-3.06,3.61-5.59,7.69-9.22,10.82-2.27,1.96-4.72,3.46-7.93,2.44-.44-.14-.94-.7-1.32-.12s.11,1.11.47,1.55c.84.96,2.08,1.46,3.35,1.35,2.35-.09,4.61-.92,6.46-2.38,2.9-2.25,5.51-4.84,7.78-7.73,2.96-3.48,5.64-7.26,9.62-9.71,1.76-1.08,3.69-1.78,5.66-.66,1.94,1.1,1.72,3.12,1.57,4.93-.65,8.18-4.72,14.81-9.81,20.9-2.35,3.03-5.41,5.45-8.91,7.04.26-.38.55-.73.86-1.06,6.29-4.87,11.22-11.28,14.32-18.61,1.12-2.33,1.84-4.84,2.12-7.41.26-3.15-1.53-4.33-4.38-2.95-1.58.79-2.87,2.05-3.71,3.61-1.52,2.68-2.97,5.4-4.34,8.15-7.56,15.15-19.41,19.7-36.16,18.9-2.92-.14-5.7-1.11-9.01-1.76,14.81,17.14,46.47,24.54,70.62,5.3,13.07-10.27,20.65-26.02,20.52-42.64-.05-1.62-.21-3.24-.47-4.85" fill="#fff"/>
      <path id="_패스_1224" data-name="패스 1224" d="m126.39,66.24c.13,33.42-25.94,62.1-60.04,61.5-32.91-.41-60.46-28.79-60.93-61.5C4.36,18.38,57.33-11.93,98.02,13.41c17.82,11.13,28.55,31.96,28.37,52.83m-.4,0c.12-36.57-35.74-63.8-70.91-56.61C22.82,15.68,1.56,48.66,9.07,80.59c8.86,37.76,51.07,54.37,84.69,36.93,19.1-9.63,32.43-29.63,32.24-51.28" fill="#fff"/>
      <rect id="_사각형_609" data-name="사각형 609" width="132" height="132" fill="none"/>
    </g>
  </g>
</svg>