<?xml version="1.0" encoding="UTF-8"?>
<svg id="Layer_2" data-name="Layer 2" xmlns="http://www.w3.org/2000/svg" viewBox="0 0 230 230">
  <g id="Logo">
    <g id="symbol_04_01_0004_01" data-name="symbol 04 01 0004 01">
      <path id="_패스_1089" data-name="패스 1089" d="m83.88,26.77l12.06-12.06C54.56,22.57,22.19,54.93,14.33,96.32l12.07-12.06c9.5-26.85,30.63-47.98,57.48-57.48" fill="#fff"/>
      <path id="_패스_1090" data-name="패스 1090" d="m21.39,122.7h-8.56c3.73,52.12,46.1,93.08,98.32,95.05l6.49-8.51c-.88.02-1.75.07-2.63.07-49-.06-89.74-37.75-93.61-86.61" fill="#fff"/>
      <path id="_패스_1091" data-name="패스 1091" d="m208.61,108.06h8.56c-3.73-52.12-46.1-93.08-98.32-95.05l-6.49,8.51c.88-.02,1.75-.07,2.63-.07,49.01.06,89.74,37.75,93.61,86.61" fill="#fff"/>
      <path id="_패스_1092" data-name="패스 1092" d="m146.12,203.98l-12.06,12.06c41.38-7.86,73.75-40.22,81.61-81.61l-12.07,12.06c-9.5,26.85-30.63,47.98-57.48,57.48" fill="#fff"/>
      <rect id="_사각형_269" data-name="사각형 269" width="230" height="230" fill="none"/>
    </g>
  </g>
</svg>