<?xml version="1.0" encoding="UTF-8"?>
<svg id="Layer_2" data-name="Layer 2" xmlns="http://www.w3.org/2000/svg" viewBox="0 0 270 270">
  <g id="Logo">
    <g id="symbol_12_02_0007_01" data-name="symbol 12 02 0007 01">
      <path id="_패스_1542" data-name="패스 1542" d="m156.84,110.32c1.66-9.7,1.01-19.66-1.88-29.07-5.82-19.55-20.89-36.18-39.71-44.45-19.41-8.49-41.49-8.48-60.9.02C26.44,48.78,7.26,80.21,12.75,110.32c15.88-85.2,128.12-85.23,144.09,0" fill="#fff"/>
      <path id="_패스_1543" data-name="패스 1543" d="m258.18,170.27c0-5.57-3.08-8.61-8.69-8.62-6.51-.01-13.02-.01-19.53,0h-2.54c-.05-.68-.09-.99-.09-1.31,0-27.82-.02-55.64-.04-83.46-.04-1.2.66-2.3,1.75-2.78,10.25-6.33,17.54-16.51,20.22-28.25,1.83-7.53,1.11-15.2,1.19-22.82.05-5.36-4.04-8.76-9.78-7.9-18.9,2.82-38.21,3.74-56.97.1-6.04-1.18-10.33,2.27-10.38,7.76-.04,4.5-.15,9.01.04,13.51.67,16.06,7.71,28.6,21.18,37.41,1.33.72,2.1,2.16,1.96,3.66-.05,27.18-.07,54.35-.04,81.53v2.55c-7.55,0-14.85,0-22.14,0-5.69,0-8.72,3.07-8.73,8.82,0,13.91,0,27.82,0,41.73v3.48c-2.37,0-4.53.06-6.68-.01-4.06-.16-8.03,1.17-11.17,3.74-1.38,1.1-2.8,2.17-4.25,3.17-.57.41-1.23.68-1.93.79-3.08.43-6.17-.68-8.27-2.96-4.85-5.04-9.8-9.98-14.83-14.85-6.63-6.43-16.22-7.1-23.32-1.76-1.01.76-1.96,1.6-2.76,2.26-3.4-1.25-4.16-3.57-4.03-6.84.26-6.5.08-13.02.08-19.54v-2.61c4.88,0,9.38-.08,13.88.01,21.72.44,43.29-17.7,39.89-46.87-6.66.96-13.31,1.97-19.97,2.86-6.7.9-13.42,1.65-19.75,4.93,2.99-14.46,1.02-25-3.14-32.87-4.26-8.06-9.62-15.54-14.52-23.26-.05-.08-.29-.05-.54-.08-3.49,5.25-7.04,10.5-10.51,15.81-4.55,6.77-7.33,14.56-8.11,22.67-.27,2.99-.36,5.99-.53,9.05-12.46-4.43-25.51-4.43-38.96-7.12.62,6.18.56,11.96,1.87,17.41,4.29,17.51,20.02,29.8,38.04,29.73,4.8.03,9.6,0,14.5,0v30.46c-3.81.57-7.64.52-10.96,1.81-2.87,1.13-6.05,1.23-8.98.26-2.68-.85-5.44-1.37-8.25-1.56-5.37-.2-9.78,2.06-13.28,6.16-3.67,4.3-6.5,9.37-11.62,12.34-1.03.78-1.84,1.81-2.35,3-1.59,2.96-3.18,5.94-4.5,9.03-.88,1.96-1.42,4.07-1.58,6.21-.57,9.86,6.97,17.2,17.52,17.19h199.67c1.89,0,3.74-.58,5.27-1.68,2.38-1.66,4.4-3.78,5.95-6.23.57-.89.89-1.43,1.23-1.94,6.18-9.4,9.48-20.39,9.5-31.64,0-14.17-.01-28.34,0-42.51M181.12,22.83h61.43v7.42h-61.43v-7.42Zm15.24,43.04c-8.81-6.57-14.34-16.64-15.15-27.6h61.32c-.78,10.87-6.21,20.87-14.9,27.45-.4-1.71-.42-3.35-1.14-4.56-1.11-2.1-2.6-3.98-4.39-5.55-4.15-3.19-16.55-2.93-20.77.13-3.27,2.37-4.81,5.69-4.96,10.13m7.8,85.62c0-28.28,0-56.56,0-84.84,0-4.13,1.19-5.34,5.25-5.35h4.1c5.13,0,6.08.93,6.08,5.97v86.55l-.14,7.92c-.37,12.86-.77,19.9-5.31,29.03-.51.86-1.4,1.42-2.4,1.52-.97-.23-1.8-.88-2.25-1.77-3.26-6.47-4.03-8.2-5.28-20.61-.13-2.64-.02-5.29-.02-8.17l.07-7.92c-.04-.79-.11-1.56-.11-2.33m-88.57-9.64c6.24-.98,12.51-1.81,18.77-2.71,2.04,17.6-17.81,32.33-40.68,30.02,4.8-4.16,10.18-7.6,15.97-10.21,1.83-.84,2.68-2.97,1.94-4.84l-.05-.12c-.75-1.94-2.94-2.91-4.88-2.15-.06.02-.11.05-.17.07-5.32,2.45-10.43,5.34-15.27,8.63.22-.64.47-1.26.76-1.87,5.15-9.4,12.95-15.14,23.59-16.81m-81.04-10.43c2.93.41,5.82.81,8.71,1.23,3.73.55,7.46,1.1,11.17,1.7,1.56.28,3.1.65,4.62,1.12,4.75,1.53,9,3.56,9.92,9.2.33,1.14.77,2.25,1.31,3.3-2.61-1.27-5.08-2.46-7.6-3.68-1.89-.92-4.16-.13-5.08,1.76-.04.08-.07.16-.11.24l-.03.07c-.75,1.87.09,4,1.91,4.85,5.74,2.57,11.06,5.97,15.81,10.09-20.5,4.12-40.91-10.8-40.64-29.87m38.55-9.37c1.11-10.01,4.54-17.91,11.42-26.49,13.53,16.75,15.51,43.14,3.9,53.8v-26.25c0-2.1-1.7-3.79-3.79-3.79h-.02c-2.09,0-3.79,1.7-3.79,3.79v26.62c-5.28-5.35-8.75-18.33-7.71-27.68m79.95,124.43c-38.96.03-77.92.05-116.88.06-8.09,0-11.79-5.94-8.23-13.21,1.16-2.38,2.4-4.73,3.53-7.13.72-1.86,2.58-3.01,4.57-2.83,2.02.05,4.04.04,6.1.03,2.02,0,3.65-1.65,3.65-3.66v-.34c0-2.02-1.64-3.66-3.66-3.66h0c4.14-7.61,8.43-9.31,16.07-6.34l-.85.92c-1.36,1.48-1.28,3.77.18,5.15l.43.4c1.46,1.39,3.77,1.33,5.16-.13.02-.02.04-.04.06-.07.76-.85,1.55-1.71,2.37-2.53,6.82-6.83,15.74-6.8,22.6.05,2.05,2.05,4.09,4.12,6.16,6.22,1.42,1.44,3.74,1.46,5.18.04.05-.05.11-.11.16-.16l.24-.27c1.35-1.52,1.22-3.85-.3-5.21-.45-.4-.98-.68-1.57-.82-.11-.35-.14-.41-.25-.76,3.19-4.47,9.4-5.51,13.87-2.32.48.35.94.73,1.35,1.16,4.84,4.7,9.64,9.45,14.3,14.33,3.85,4.03,8.39,6.12,13.97,5.72,4.61-.33,7.61,1.69,9.44,5.89,1.34,3.07,2.97,6.02,4.62,9.31-.95.08-1.61.18-2.27.18m45.83-.24l-10.74.28c-7.39-.08-14.78-.08-22.17,0-1.23.01-2.34-.7-2.85-1.82-1.3-2.84-2.66-5.66-4.19-8.38-2.01-3.58-4.21-7.06-6.46-10.81,1.63-1.51,3.82-2.28,6.04-2.12.76.05,1.53.04,2.29-.02,7.21-.75,13.75.48,19.54,5.35,3.45,2.9,7.99,2.35,12.25,2.44,2.1.14,4.16.59,6.12,1.34,1.11.47,2.13,1.14,2.99,1.98,1.36,1.36.96,2.46,7.18,3.11,6.21.64,7.95,8.65,7.95,8.65h-17.95Zm51.55-33.09c.02,11.61-4.12,22.84-11.67,31.66-1,1.36-2.72,2-4.37,1.61-1.89-.23-3.8-.23-5.68.01-2.02.22-3.2-.09-3.95-1.94-.87-2.14-2.04-4.15-3.08-6.22-2.12-4.36-6.54-7.13-11.39-7.12-1.58.15-3.14-.52-4.11-1.78-2.7-3.39-6.67-5.52-10.98-5.93-1.11-.11-2.23-.13-3.34-.07-3.62.37-7.24-.63-10.16-2.78-2.15-1.66-4.8-2.63-7.07-4.16-.78-.66-1.24-1.62-1.28-2.65-.09-11.98-.07-23.96-.07-35.93v-8.42h22.9c.72,4.31,1.14,8.63,2.22,12.77,1.14,4.09,2.58,8.09,4.29,11.98,1.47,3.82,5.25,6.25,9.33,6,3.86-.09,7.34-2.35,9-5.84,3.2-6.5,5.18-13.52,5.85-20.74.12-1.35.27-2.7.41-4.14h23.17v1.96c0,13.91.04,27.82-.01,41.72" fill="#fff"/>
      <path id="_패스_1544" data-name="패스 1544" d="m111.47,219.93c-1.8,0-3.26,1.46-3.26,3.26s1.46,3.26,3.26,3.26c1.8,0,3.26-1.46,3.26-3.26h0c0-1.8-1.46-3.26-3.26-3.26" fill="#fff"/>
      <path id="_패스_1545" data-name="패스 1545" d="m92.8,228.35c-1.8,0-3.25,1.46-3.25,3.26s1.46,3.25,3.26,3.25c1.8,0,3.25-1.46,3.25-3.25,0-1.8-1.46-3.26-3.26-3.26" fill="#fff"/>
      <path id="_패스_1546" data-name="패스 1546" d="m123.81,234.86c-1.8,0-3.26,1.46-3.26,3.26s1.46,3.26,3.26,3.26c1.8,0,3.26-1.46,3.26-3.26h0c0-1.8-1.46-3.26-3.25-3.26h0" fill="#fff"/>
      <rect id="_사각형_761" data-name="사각형 761" width="270" height="270" fill="none"/>
    </g>
  </g>
</svg>