<?xml version="1.0" encoding="UTF-8"?>
<svg id="_레이어_2" data-name="레이어 2" xmlns="http://www.w3.org/2000/svg" viewBox="0 0 230 78">
  <g id="Logo">
    <g id="symbol_08_02_0001_01" data-name="symbol 08 02 0001 01">
      <rect id="_사각형_84" data-name="사각형 84" width="230" height="78" fill="none"/>
      <path id="_패스_604" data-name="패스 604" d="M230,30.13l-51.85,46.83c-.38-.11-.75-.1-.86-.26-8.38-13.31-21.55-17.67-36.18-19.31-24.07-2.7-47.89-.36-71.54,3.91-22.15,4-44.22,8.49-66.32,12.77-.62,.17-1.28,0-1.74-.44,9.78-4.02,19.54-8.11,29.36-12.04,33.5-13.38,67.68-24.5,103.38-30.43,31.5-5.23,63.06-6.19,95.74-1.03Z" fill="#fff"/>
      <path id="_패스_607" data-name="패스 607" d="M56.34,41.5c-4.72,2.74-9.41,5.53-14.12,8.3,33.33-12.08,67.1-21.92,102.58-27.02-2.94-1.68-6.09-3.07-8.77-5.09-6.07-4.59-12.33-4.47-19.4-2.59-17.93,4.79-34.63,12.26-50.77,21.04l-.69-12.96c0-1.69-.04-3.45-.17-5.29-.43-6.08-1.59-12.09-3.48-17.89-10.78,4.64-20.2,11.96-27.35,21.27,7.35,.87,15.08,2.08,23.11,3.72,2.16,.44,4.28,.91,6.37,1.39,.06,3.62,.12,7.25,.17,10.87-2.51,1.39-5.01,2.8-7.49,4.24Z" fill="#fff"/>
    </g>
  </g>
</svg>