<?xml version="1.0" encoding="UTF-8"?>
<svg id="_레이어_2" data-name="레이어 2" xmlns="http://www.w3.org/2000/svg" viewBox="0 0 113 95">
  <g id="Logo">
    <g id="symbol_05_02_0001_02" data-name="symbol 05 02 0001 02">
      <rect id="_사각형_80" data-name="사각형 80" width="113" height="95" fill="none"/>
      <path id="_패스_417" data-name="패스 417" d="M113,35.21h-8.73v-8.8h8.73v8.8Z" fill="#fff"/>
      <path id="_패스_418" data-name="패스 418" d="M95.44,52.71v-8.65h8.7v8.65h-8.7Z" fill="#fff"/>
      <path id="_패스_419" data-name="패스 419" d="M106.61,66.25c-1.52-.21-3-.69-4.35-1.42-4.81-2.6-10.38-3.44-15.75-2.37v-1.31c0-10.11,.03-20.22,0-30.33,.01-14.37-9.95-26.83-23.97-29.97-2.34-.44-4.72-.71-7.1-.8-1.34-.11-2.7-.02-4.16-.02V26.35c1.84-.01,3.69,.08,5.52,.29,1.89,.37,3.25,2.03,3.22,3.96,.03,10.44,.01,20.88,0,31.32-.02,.1-.05,.2-.09,.3-.8-.06-1.63-.13-2.45-.17-3.95-.25-7.89,.63-11.36,2.53-3.22,1.87-7.05,2.37-10.64,1.37-1.32-.44-2.6-1-3.83-1.66-6.48-3.02-13.02-3.21-19.45-.06-3.06,1.63-6.5,2.39-9.96,2.2-.69-.05-1.39,0-2.24,0v28.58H113v-28.58c-2.13,.05-4.26,0-6.39-.18Z" fill="#fff"/>
    </g>
  </g>
</svg>