<?xml version="1.0" encoding="UTF-8"?>
<svg id="_레이어_2" data-name="레이어 2" xmlns="http://www.w3.org/2000/svg" viewBox="0 0 236 238">
  <g id="Logo">
    <g id="symbol_14_02_0006_01" data-name="symbol 14 02 0006 01">
      <path id="_패스_1104" data-name="패스 1104" d="m64.59,122.42v17.74c3.84-.01,6.18-2.08,6.71-5.64.97-6.55,4.44-8.96,11.23-7.67v3.1c-1.2,0-2.37-.04-3.53,0-2.6.1-3.9,1.28-4.29,3.84-1.12,7.26-4.34,9.99-11.75,10-1.8,0-3.6.04-5.39-.06-3.17-.18-6.01-2.13-6.21-5.13-.36-5.34-.1-10.71-.1-16.18h13.35Z" fill="#fff"/>
      <path id="_패스_1105" data-name="패스 1105" d="m109.37,48.19c.05,2.27-1.74,4.16-4.02,4.22-2.27.05-4.16-1.74-4.22-4.02,0-.07,0-.15,0-.22-.01-2.26,1.82-4.11,4.08-4.12.06,0,.13,0,.19,0,2.23.05,4.01,1.89,3.96,4.13,0,0,0,0,0,0" fill="#fff"/>
      <path id="_패스_1106" data-name="패스 1106" d="m143.23,88.04c-1.35-.62-2.15-1.21-2.36-2.88-2.21-17.53-17.42-31.06-35.23-31.44-17.85-.38-33.8,12.72-36.56,30.2-.08,1.86-1.33,3.46-3.12,3.98-6.65,2.58-11.32,9.84-10.57,16.33h24.1v.05h4.2c.07-.02.14-.03.21-.03,15.17-.02,30.34-.05,45.51.05,1,.22,1.84.9,2.26,1.83,2.12,5.43-2.06,11.45-7.95,11.62-1,.03-2.01,0-3.31,0,0,2.55-.12,5.02.04,7.47.14,2.01-.6,2.81-2.56,3.28-11.82,2.83-23.62,5.8-35.42,8.73-1.1.27-2.2.59-3.62.97l18.95,13.65,51.29-21.6s0-3.3,0-9.45c-3.49.81-6.7,1.55-10.67,2.48,4.65-5.92,5.97-12.15,5.51-19.08h9.43c.6-6.42-3.7-13.22-10.14-16.15" fill="#fff"/>
      <path id="_패스_1107" data-name="패스 1107" d="m100.05,8.48c72.24-.26,117.67,77.4,81.71,139.92-2.52,4.37-2.15,6.98,1.39,10.38,12.18,11.69,24.11,23.63,36.1,35.53,5.1,5.06,9.66,10.53,8.91,18.37-.73,7.63-4.5,13.46-11.72,16.29-7.94,3.11-15.19,1.29-21.23-4.7-12.91-12.8-25.88-25.56-38.52-38.63-3.6-3.72-6.21-4.17-10.9-1.61-57.77,31.47-128.49-3.63-138.12-68.35C-.66,59.7,43.31,8.69,100.05,8.48M30.81,101.77c-.23,39.1,30.18,69.98,69.11,70.17,39.02.19,70.52-30.48,70.71-68.86.2-38.92-30.52-70.56-68.8-70.86-40-.32-70.79,29.84-71.02,69.55" fill="#fff"/>
      <rect id="_사각형_509" data-name="사각형 509" width="236" height="238" fill="none"/>
    </g>
  </g>
</svg>