<?xml version="1.0" encoding="UTF-8"?>
<svg id="Layer_2" data-name="Layer 2" xmlns="http://www.w3.org/2000/svg" viewBox="0 0 158 184">
  <g id="Logo">
    <g id="symbol_21_02_0003_02" data-name="symbol 21 02 0003 02">
      <path id="_패스_855" data-name="패스 855" d="m95.59,10.45c-17.42,0-31.55,14.13-31.55,31.55s14.13,31.55,31.55,31.55,31.55-14.13,31.55-31.55h0c.04-17.38-14.01-31.51-31.39-31.55-.05,0-.11,0-.16,0" fill="#fff"/>
      <path id="_패스_856" data-name="패스 856" d="m128.32,63.98c-12.12,18.08-36.6,22.91-54.68,10.79-6-4.02-10.78-9.62-13.82-16.18-8.62,4.9-15.93,11.8-21.33,20.13-6.47,10-17.57,16.04-29.49,16.04h-.01c-.54,0-1.07-.03-1.6-.05-1.42,7.03.25,14.32,4.59,20.03,4.35,5.94,4.95,11.15,3.9,15.42,9.37,1.94,17.57,7.55,22.77,15.58,18.51,28.47,56.6,36.54,85.07,18.03,28.47-18.51,36.54-56.6,18.03-85.07-3.64-5.6-8.18-10.58-13.42-14.72" fill="#fff"/>
      <rect id="_사각형_302" data-name="사각형 302" width="158" height="184" fill="none"/>
    </g>
  </g>
</svg>