<?xml version="1.0" encoding="UTF-8"?>
<svg id="Layer_2" data-name="Layer 2" xmlns="http://www.w3.org/2000/svg" viewBox="0 0 200 200">
  <g id="Logo">
    <g id="symbol_16_05_0003_02" data-name="symbol 16 05 0003 02">
      <path id="_패스_1420" data-name="패스 1420" d="m166.95,45.28h-15.43c.23,2.65.46,5.31.69,7.96.25,1.53-.79,2.98-2.33,3.23-.06,0-.12.02-.17.02-1.5.14-2.83-.96-2.97-2.46,0-.06,0-.12-.01-.18-.28-2.86-.55-5.72-.8-8.58h-10.76v-8.44l-50.99,4.47c.12,1.32.23,2.65.35,3.97,1.61,18.4,3.21,36.73,4.83,55.18.05.59.1,1.18.15,1.78l20.33-1.78,9.32-.81,31.25-2.73c-.03-.62-.05-1.2-.1-1.77-.46-5.31-.92-10.61-1.39-15.92-.24-1.23.36-2.47,1.48-3.03.94-.6,2.18-.45,2.95.37.6.74.99,1.63,1.11,2.57.39,3.36.63,6.73.92,10.1.26,3,.51,6,.79,9,.25,2.71-.58,3.77-3.28,4.01-12.55,1.11-25.1,2.21-37.65,3.31-5.49.48-10.98.96-16.47,1.43-.46.04-.91.13-1.48.21v1.54c0,10.06,0,20.11,0,30.16,0,2.67-.92,3.6-3.59,3.6H28.66c-2.74,0-3.64-.92-3.64-3.68v-63.05h-4.42c-1.07,0-2.14-.07-3.2.02-1.47.17-2.88-.62-3.51-1.96v-18.03c-2.1,3.44-3.21,7.38-3.2,11.41v74.06c0,12.11,9.82,21.92,21.93,21.92h134.34c12.11,0,21.92-9.82,21.92-21.92h0v-74.06c0-12.11-9.82-21.92-21.92-21.92m-35.75,33.1c-.21.66-.54,1.27-.98,1.8-3.97,5.1-11.73,6.16-17.58,2.34-4.28-2.62-6.95-7.22-7.08-12.24-.05-12.14,11.54-19.56,21.19-14.39.88.46,1.55,1.24,1.86,2.18.05.98-.3,1.93-.96,2.66-.83.82-2.14.92-3.09.24-2.12-1.22-4.65-1.5-6.98-.77-4.68,1.61-7.38,6.49-6.28,11.31.87,4.83,5.33,8.17,10.21,7.63,1.96-.24,3.71-1.33,4.81-2.97.88-1.22,2.59-1.5,3.82-.62.89.64,1.31,1.75,1.07,2.82m19.24-9.44c-1.51-.08-2.68-1.37-2.59-2.89.08-1.51,1.37-2.68,2.89-2.59,1.47.08,2.61,1.3,2.6,2.77-.01,1.51-1.25,2.73-2.77,2.72-.04,0-.08,0-.13,0" fill="#fff"/>
      <path id="_패스_1421" data-name="패스 1421" d="m57.78,109.91h6.81l-3.4-9.12-3.41,9.12" fill="#fff"/>
      <path id="_패스_1422" data-name="패스 1422" d="m87.71,107.99c-2.18.15-3.31-.8-3.5-2.96-.13-1.52-.27-3.05-.4-4.57-.52-5.9-1.03-11.81-1.55-17.71-.2-2.29-.43-4.58-.64-6.9H30.64v61h61.03v-29.2c-1.38.12-2.66.25-3.95.34m-15.91,13.48c-1.37.52-2.9-.16-3.43-1.52-.51-1.14-.95-2.31-1.32-3.5-.12-.65-.75-1.07-1.4-.95-3.01.04-6.02.04-9.02,0-.61-.1-1.18.3-1.3.9-.36,1.14-.8,2.27-1.26,3.37-.5,1.44-2.07,2.2-3.51,1.7-1.44-.5-2.2-2.07-1.7-3.51.02-.05.04-.1.05-.14,2.15-5.79,4.32-11.57,6.5-17.35.9-2.39,1.79-4.79,2.69-7.18.4-1.24,1.52-2.11,2.82-2.2,1.68-.11,3.19.99,3.6,2.62.84,2.25,1.68,4.51,2.51,6.76,1.76,4.72,3.51,9.44,5.26,14.15.42,1.13.87,2.24,1.23,3.39.5,1.41-.25,2.96-1.66,3.45-.01,0-.03,0-.04.01" fill="#fff"/>
      <rect id="_사각형_693" data-name="사각형 693" width="200" height="200" fill="none"/>
    </g>
  </g>
</svg>