<?xml version="1.0" encoding="UTF-8"?>
<svg id="Layer_2" data-name="Layer 2" xmlns="http://www.w3.org/2000/svg" viewBox="0 0 148 148">
  <g id="Logo">
    <g id="symbol_12_02_0007_01" data-name="symbol 12 02 0007 01">
      <path id="_패스_1085" data-name="패스 1085" d="m140,49.05L75.23,3.4c-.76-.54-1.77-.54-2.53,0L7.93,49.05c-.99.7-1.23,2.06-.53,3.05.41.58,1.08.93,1.79.93h8.64c1.21,0,2.19.98,2.19,2.19v88.4c0,1.21.98,2.19,2.19,2.19.63,0,1.22-.27,1.64-.74l22.26-25.08c.42-.47,1.01-.74,1.64-.74h50.71c16.26,0,29.44-13.18,29.44-29.44h0v-34.6c0-1.21.98-2.19,2.19-2.19h8.64c1.21,0,2.19-.98,2.19-2.19,0-.71-.34-1.38-.92-1.79m-54.77,39.19c-2.18,0-3.94-2.56-3.94-5.72s1.77-5.72,3.94-5.72,3.94,2.56,3.94,5.72-1.77,5.72-3.94,5.72m24.29,0c-2.18,0-3.94-2.56-3.94-5.72s1.77-5.72,3.94-5.72,3.94,2.56,3.94,5.72-1.77,5.71-3.94,5.71" fill="#fff"/>
      <rect id="_사각형_425" data-name="사각형 425" width="148" height="148" fill="none"/>
    </g>
  </g>
</svg>