<?xml version="1.0" encoding="UTF-8"?>
<svg id="Layer_2" data-name="Layer 2" xmlns="http://www.w3.org/2000/svg" viewBox="0 0 406 238">
  <g id="Logo">
    <g id="symbol_07_03_0006_01" data-name="symbol 07 03 0006 01">
      <path id="_패스_1552" data-name="패스 1552" d="m373.17,148.5v-.4c0-4.71-3.83-8.54-8.54-8.54h-31.1c-15.82-36.14-45.9-64.13-83.09-77.31l-17.02-51.2c-.27-.81-1.14-1.25-1.95-.98-.22.07-.42.2-.59.36l-45.99,44.98c-4.08.53-8.1,1.24-12.07,2.12l-29.16-33.97c-.55-.65-1.53-.72-2.17-.17-.34.29-.54.72-.54,1.17v44.11c-19.52,9.6-36.58,23.53-49.9,40.72h-49.01c-4.71,0-8.54,3.83-8.54,8.54v.4c0,4.71,3.83,8.54,8.54,8.54h37.42c-16.63,29.68-22.05,64.35-15.27,97.68h-29.14c-.85.02-1.52.73-1.5,1.58.02.82.68,1.48,1.5,1.5h336.59c.85-.02,1.52-.73,1.5-1.58-.02-.82-.68-1.48-1.5-1.5h-29.14c4.55-22.39,3.64-45.55-2.65-67.52h24.8c4.71,0,8.54-3.83,8.54-8.54M42.04,123.8c-3.01,0-5.45-2.44-5.46-5.46v-.4c0-3.01,2.44-5.45,5.46-5.46h73.06c3.01,0,5.45,2.44,5.46,5.46v.4c0,3.01-2.44,5.45-5.46,5.46H42.04Zm40.73,71.63c0-4.27,6.32-7.88,13.8-7.88s13.79,3.61,13.79,7.88-6.32,7.88-13.79,7.88-13.8-3.61-13.8-7.88m2.49-16.79c0-2.76,4.64-5.83,11.31-5.83s11.31,3.07,11.31,5.83-4.64,5.83-11.31,5.83-11.31-3.07-11.31-5.83m55.7,45.93h-42.85v-18.22c8.72-.49,15.34-5.11,15.34-10.92,0-4.14-3.37-7.67-8.45-9.54,3.63-1.6,5.96-4.23,5.96-7.26,0-5-6.32-8.91-14.4-8.91s-14.4,3.91-14.4,8.91c0,3.03,2.33,5.66,5.96,7.26-5.08,1.87-8.45,5.4-8.45,9.54,0,5.81,6.62,10.43,15.34,10.92v18.21h-27.68c-6.95-33.38-1.37-68.15,15.66-97.68h32.1c4.71,0,8.54-3.83,8.54-8.54v-.4c0-4.71-3.83-8.53-8.54-8.54h-20.12c12.49-15.56,28.17-28.28,45.98-37.28v152.45Zm40.19-165.49l-3.8,3.71-2.24-2.61c2-.41,4.01-.78,6.04-1.1m-7.97,165.48h-8.48v-26.31c0-4.94,3.6-9.14,8.48-9.9v36.21Zm11.56,0h-8.48v-36.2c4.88.76,8.48,4.96,8.48,9.9v26.3Zm20.65,0h-17.56v-26.31c0-7.24-5.87-13.11-13.11-13.11s-13.11,5.87-13.11,13.11v26.31h-17.57V28.73l25.4,29.58,2.25,2.62,33.7,39.26v124.37Zm32.81,0h-8.48v-26.31c0-4.94,3.6-9.14,8.48-9.9v36.21Zm11.57,0h-8.48v-36.2c4.88.76,8.48,4.96,8.48,9.9v26.3Zm19.72,0h-16.63v-26.31c.06-7.24-5.76-13.16-13-13.22-7.24-.06-13.16,5.76-13.22,13,0,.08,0,.15,0,.23v26.31h-18.16v-124.93c0-.37-.13-.73-.37-1l-28.75-33.49,6.95-6.79,3.57-3.49,41.4-40.49,15.5,46.65,1.21,3.64,21.5,64.7v95.21Zm25.26-29.13c0-4.27,6.32-7.88,13.8-7.88s13.8,3.61,13.8,7.88-6.32,7.88-13.8,7.88-13.8-3.61-13.8-7.88m2.48-16.79c0-2.76,4.64-5.83,11.31-5.83s11.31,3.07,11.31,5.83-4.64,5.83-11.31,5.83-11.31-3.07-11.31-5.83m45.01,17.57c0,9.53-.97,19.03-2.91,28.35h-29.24v-18.22c8.72-.49,15.34-5.11,15.34-10.92,0-4.14-3.37-7.67-8.45-9.54,3.63-1.6,5.96-4.23,5.96-7.26,0-5-6.32-8.91-14.4-8.91s-14.4,3.91-14.4,8.91c0,3.03,2.33,5.66,5.96,7.26-5.08,1.87-8.45,5.4-8.45,9.54,0,5.81,6.62,10.43,15.34,10.92v18.21h-34.42v-95.46c0-.17-.03-.33-.08-.49l-20.82-62.64c34.94,13.06,63.2,39.56,78.49,73.58h-38.59c-4.71,0-8.54,3.83-8.54,8.54v.4c0,4.72,3.83,8.54,8.54,8.54h45.05c3.74,12.72,5.64,25.91,5.63,39.17m-3.33-42.25h-47.35c-3.01,0-5.45-2.44-5.46-5.46v-.4c0-3.01,2.44-5.45,5.46-5.46h73.06c3.01,0,5.45,2.44,5.45,5.46v.4c0,3.01-2.44,5.45-5.45,5.46h-25.72Z" fill="#fff"/>
      <rect id="_사각형_568" data-name="사각형 568" width="406" height="238" fill="none"/>
    </g>
  </g>
</svg>