<?xml version="1.0" encoding="UTF-8"?>
<svg id="Layer_2" data-name="Layer 2" xmlns="http://www.w3.org/2000/svg" viewBox="0 0 352 107">
  <g id="Tag">
    <g id="symbol_07_01_0001_01" data-name="symbol 07 01 0001 01">
      <path id="_패스_604" data-name="패스 604" d="m97.96,33.86c31.77-17.73,68.34-24.94,104.46-20.57,9.33,1.27,18.53,3.31,27.52,6.12,9.9,2.85,20.26,5.65,30.25,8,17.64,4.07,35.71,7.5,53.84,7.85,10.44.27,20.87-1.01,30.93-3.81-4.78,2.34-9.79,4.17-14.95,5.46-15.58,3.91-31.98,3.65-47.84,2.02-15.92-1.65-31.51-5.05-46.96-9.01-9.92-2.72-20.08-5.85-30.18-7.55-35.84-5.97-73.04-.76-107.07,11.48" fill="#fff"/>
      <path id="_패스_605" data-name="패스 605" d="m121.97,95.46c30.39-4.33,61.26-7.92,90.74-16.43,9.72-2.79,18.75-7.04,27.79-11.61,13.81-6.88,27.57-15.09,42.59-19.84,13.99-4.51,28.09-4.1,39.28,6.62,10.85,9.68,11.48,25.37,4.25,37.25,3.4-9.16,3.67-20.4-2.54-28.38-14.97-18.16-34.29-11.07-52.27-2.13-13.87,6.92-27.25,14.99-41.67,20.97-14.59,6.09-30.53,8.91-46.02,10.94-20.61,2.54-41.39,3.42-62.15,2.63" fill="#fff"/>
      <path id="_패스_606" data-name="패스 606" d="m7.04,81.16c4.08-6.39,10.1-11.47,16.35-15.74,5.22-3.5,10.77-6.45,16.59-8.81,1.42-.55,4.5-1.81,5.84-2.33,3.32-1.04,6.66-2.15,10.01-3.07,1.64-.39,8.77-1.97,10.21-2.3,3.81-.56,8.6-1.32,12.42-1.79,6.24-.43,12.51-1.09,18.75-.95,10.56-.22,22.51.92,33.04,1.75,7.47.75,16.79,1.2,24.26,1.55,18.91.7,37.84.17,56.68-1.59,16.21-1.61,32.32-4.1,48.04-8.69-9.77,4.93-20.48,8.23-31.07,10.95-24.04,6-49.11,8.18-73.86,7.85-4.72-.06-11.74-.44-16.54-.64-10.37-.83-22.2-1.92-32.54-2.66-7.79-.28-16.36-.4-24.1-.01-4.57.11-9.42.83-13.99,1.16-1.52.25-8.28,1.33-9.89,1.58-3.24.68-6.52,1.49-9.77,2.18-1.45.43-4.32,1.31-5.75,1.74-3.22.88-6.28,2.3-9.44,3.4-2.81,1.28-6.37,2.81-9.03,4.39-5.82,3.17-11.69,7.13-16.2,12.06" fill="#fff"/>
      <rect id="_사각형_2" data-name="사각형 2" width="352" height="107" fill="none"/>
    </g>
  </g>
</svg>