<?xml version="1.0" encoding="UTF-8"?>
<svg id="_레이어_2" data-name="레이어 2" xmlns="http://www.w3.org/2000/svg" viewBox="0 0 446 340">
  <g id="Logo">
    <g id="symbol_19_05_0002_01" data-name="symbol 19 05 0002 01">
      <rect id="_사각형_213" data-name="사각형 213" width="446" height="340" fill="none"/>
      <path id="_패스_604" data-name="패스 604" d="M173.28,103.7v-16.26c0-.49-.01-.99,.04-1.48,0-.78,.58-1.43,1.35-1.52,.76-.16,1.52,.3,1.74,1.05,1.25,3.27,2.5,6.55,3.7,9.84,.1,.42,.09,.85-.03,1.26-2.15,10.27,2.23,19.41,11.61,24.1,4.3,2.18,9.04,3.36,13.86,3.44,2.09-.02,4.16,.39,6.08,1.21,3.17,1.51,6.86,1.44,9.97-.18,2.8-1.44,6.13-1.39,8.89,.13,2.87,1.7,6.41,1.82,9.39,.32,3.55-1.82,7.46-1.29,11.15-2.15,2.77-.6,5.45-1.52,8.01-2.74,9.03-4.48,13.43-13.19,11.8-23.24-.11-.42-.14-.85-.07-1.28,1.02-3.22,2.05-6.44,3.15-9.63,.32-.85,1.27-1.28,2.12-.97,0,0,.02,0,.03,.01,1.12,.24,1.37,1.04,1.37,2.08-.02,6.22,.05,12.45-.03,18.67-.06,5.04,.42,10.11-.33,15.13-1.5,10.06-6.57,17.92-15.44,22.87s-17.92,9.53-27.04,13.98c-6.39,3.26-13.97,3.19-20.3-.19-8.33-4.23-16.63-8.57-24.74-13.2-10.74-6.12-16.02-15.64-16.26-27.95-.09-4.43-.01-8.87-.01-13.31Z" fill="#fff"/>
      <path id="_패스_605" data-name="패스 605" d="M250.6,6.95c-2.7,.69-5.35,1.59-7.91,2.68-15.3,7.28-23.23,19.39-23.68,36.32-.05,1.7-.27,2.03-1.99,1.55-7.46-2.14-15.2-3.19-22.96-3.11-7.12,.12-11.97,3.2-14.85,9.76-3.12,7.11-4.67,14.62-6.06,22.18-.21,1.12-.47,1.89-1.69,2.3-1.51,.51-2.31,1.4-3.87,3.55-.4-2.74-.78-5.23-1.11-7.72-.91-6.89-1.74-13.8-2.49-20.71-1.12-10.28,2.8-17.28,12.28-21.31,.94-.32,1.66-1.08,1.94-2.03,.16-.53,.37-1.04,.54-1.57,3.01-9.16,9.44-14.8,18.26-18.21,16.73-6.46,33.78-8.54,51.39-4.28,.6,.15,1.18,.33,2.19,.62Z" fill="#fff"/>
      <path id="_패스_606" data-name="패스 606" d="M283.27,83.7c-.82-1.53-2.08-2.78-3.6-3.61-.8-.36-.75-1.01-.82-1.68-.77-7.4-1.56-14.8-3.61-21.98-.1-.35-.2-.71-.31-1.06-2.78-8.84-5.79-12.04-17.01-12.71-9.63-.57-18.78,1.9-27.62,5.56-1.03,.4-2.05,.85-3.04,1.35-1.43,.77-1.83,.15-1.9-1.19-.31-4.93,.43-9.87,2.17-14.49,5.19-13.64,19.08-22.68,34.95-21.25,.73,.13,1.41,.46,1.96,.95,8.47,5.95,13.62,14.24,16.67,23.95,3.61,11.49,4.29,23.29,3.46,35.23-.22,3.67-.65,7.32-1.29,10.94Z" fill="#fff"/>
      <path id="_패스_607" data-name="패스 607" d="M186.08,101.28c0-.74,0-1.48,0-2.22-.11-.76,.31-1.5,1.02-1.8,.72-.24,1.52-.04,2.04,.52,.8,.85,1.66,1.65,2.57,2.38,4.11,2.87,9.3,3.71,14.1,2.29,3.43-1.01,6.69-2.53,9.68-4.49,3.04-1.87,6.1-3.06,9.41-.61,.45,.33,.79,.12,1.15-.15,2.44-1.86,4.97-1.48,7.46-.18,2.94,1.54,5.71,3.41,8.84,4.6,6.18,2.33,12.05,2.13,17.44-2.07,.5-.45,.97-.94,1.41-1.45,.55-.69,1.44-1.02,2.31-.84,1.01,.25,1,1.15,1.15,1.91,.96,6.27-1.95,12.49-7.36,15.79-8.41,5-21.38,3.93-28.87-2.31-1.17-.97-1.89-3.07-3.18-2.98-1.09,.08-1.95,2.04-3.09,2.96-5.39,4.39-11.71,5.8-18.5,5.41-2.46-.15-4.88-.69-7.18-1.58-6.72-2.58-10.51-8.01-10.41-15.18Z" fill="#fff"/>
      <path id="_패스_608" data-name="패스 608" d="M170.17,306.05c-7.31-2.38-14.43-5.29-21.3-8.72-5.13-2.65-9.65-6.36-13.24-10.89-3.48-4.54-2.17-7.57,3.5-8.48,3.34-.63,6.79,.05,9.64,1.91,13.55,9.16,28.76,14.54,44.15,19.37,14.27,4.48,28.75,8.31,43.08,12.6,2.44,.8,4.72,2.02,6.74,3.6,1.87,1.41,1.56,3.15-.6,4.08-1.52,.65-3.16,.95-4.81,.9-31.4-3.44-47.08-8.2-47.08-8.2-8.65-2.63-15.66-4.8-20.08-6.17Zm63.62,9.8c-.05,.31-.02,.63,.09,.92,.24,.68,.89,1.12,1.61,1.09,.75-.11,1.31-.73,1.35-1.49,.23-.63,.03-1.33-.49-1.74-.8-.55-1.86,.27-1.92,.32-.29,.24-.51,.55-.64,.9h0Z" fill="#fff"/>
      <path id="_패스_609" data-name="패스 609" d="M238.41,309.8l16.65-15.23c-.4-.52-.62-.86-.89-1.17-2.18-2.52-2.16-3.95,.22-6.2,8.57-8.07,17.16-16.13,25.76-24.18,5.48-5.14,10.96-10.29,16.44-15.43,2.4-2.26,2.44-2.25,4.74,.21,1.31,1.4,2.66,2.77,3.95,4.2,2.34,2.57,2.3,4.22-.26,6.63-10.58,9.96-21.18,19.9-31.79,29.84-2.98,2.8-5.89,5.69-8.97,8.38-5.81,5.08-11.75,10.02-17.58,15.06-1.48,1.28-2.71,1.57-4.32,.14-1.24-.88-2.57-1.64-3.96-2.26Z" fill="#fff"/>
      <path id="_패스_610" data-name="패스 610" d="M230.91,322.18s-.02,.06-.04,.08c-.13,.22-.3,.42-.49,.57-4.17,3.31-7.64,7.41-10.22,12.07-.09,.16-.2,.3-.35,.42-.32,.17-.71,.1-.94-.19-.07-.16-.11-.33-.1-.5-.07-.7,0-1.4,.19-2.07,.18-.45,.42-.87,.71-1.25,2.16-3.1,4.44-6.11,6.85-9.02,.2-.28,.46-.52,.77-.69,.27-.1,.56-.15,.86-.14,.89-.03,1.79,0,2.68,.08,.13,.18,.16,.43,.07,.64Z" fill="#fff"/>
      <path id="_패스_611" data-name="패스 611" d="M275.68,259.7H100.14l-.27,.06H14.95l-4.81-5.21c-.48-.54-1.31-.59-1.86-.11-.04,.03-.07,.07-.11,.11l-5.53,5.99c-.54,.6-.54,1.52,0,2.13l5.53,5.99c.48,.54,1.32,.59,1.86,.11,.04-.03,.07-.07,.11-.11l4.81-5.21h255.72c1.68-1.23,3.36-2.47,5.01-3.74Z" fill="#fff"/>
      <path id="_패스_612" data-name="패스 612" d="M443.57,260.54l-5.74-5.99c-.53-.56-1.42-.59-1.98-.06-.02,.02-.04,.04-.06,.06l-5,5.21h-47.87v-.06h-70.2c-1.42,1.28-2.87,2.52-4.34,3.74h122.41l4.99,5.21c.53,.56,1.42,.59,1.98,.06,.02-.02,.04-.04,.06-.06l5.74-5.99c.56-.6,.56-1.53,0-2.13Z" fill="#fff"/>
      <path id="_패스_613" data-name="패스 613" d="M443.58,132.89l-5.6-5.99c-.5-.55-1.35-.59-1.9-.09-.03,.03-.06,.06-.09,.09l-4.87,5.21h-46.68v-.06h-100.95c-.76,1.27-1.55,2.51-2.37,3.74h150l4.87,5.21c.5,.55,1.35,.59,1.9,.09,.03-.03,.06-.06,.09-.09l5.6-5.99c.55-.6,.55-1.52,0-2.13Z" fill="#fff"/>
      <path id="_패스_614" data-name="패스 614" d="M168.93,132.95c-.32-.27-.61-.58-.88-.9H96.42l-.26,.06H14.47l-4.63-5.21c-.44-.52-1.22-.59-1.74-.15-.05,.05-.11,.1-.15,.15l-5.32,5.99c-.52,.61-.52,1.51,0,2.13l5.32,5.99c.44,.52,1.21,.59,1.74,.15,.06-.05,.11-.1,.15-.15l4.63-5.21H170.46c-.54-.93-1.05-1.88-1.53-2.84Z" fill="#fff"/>
    </g>
  </g>
</svg>