<?xml version="1.0" encoding="UTF-8"?>
<svg id="Layer_2" data-name="Layer 2" xmlns="http://www.w3.org/2000/svg" viewBox="0 0 96 156">
  <g id="Logo">
    <g id="symbol_02_01_0006_01" data-name="symbol 02 01 0006 01">
      <path id="_합치기_44" data-name="합치기 44" d="m21.83,128.29h4.25c3.37,4.59,7.26,8.76,11.59,12.45-.85.83-1.49,1.84-1.88,2.96-5.33-4.48-10.03-9.66-13.97-15.41Zm-6.14-10.74c-6.9-14.75-8.9-31.32-5.71-47.28l3.8-1.15c-3.7,16.33-1.67,33.43,5.76,48.43h-3.85ZM84.86,8.9c.96,0,1.74.78,1.74,1.74s-.78,1.73-1.74,1.73c-28.86.03-54.99,17.06-66.67,43.44-1.44.44-2.88.88-4.32,1.32C25.43,28.04,53.56,8.93,84.86,8.9h0Z" fill="#fff"/>
      <rect id="_사각형_412" data-name="사각형 412" width="96" height="156" fill="none"/>
    </g>
  </g>
</svg>