<?xml version="1.0" encoding="UTF-8"?>
<svg id="Layer_2" data-name="Layer 2" xmlns="http://www.w3.org/2000/svg" viewBox="0 0 274 200">
  <g id="Logo">
    <g id="symbol_09_01_0002_01" data-name="symbol 09 01 0002 01">
      <path id="_합치기_54" data-name="합치기 54" d="m187.44,189.13V56.72h60.8v132.41h-60.8Zm-36.19,0V56.72h27.45v132.41h-27.45Zm-59.21-.75v-7.1h51.24v7.1h-51.24Zm.97-.97h49.3v-5.17h-49.3v5.17Zm-65.99-44.78V10l58.99,45.75v132.62l-58.99-45.75Zm39.72-29.06v58.63l18.3,14.19V56.23L27.99,11.98v130.17l12.49,9.68v-58.63l26.27,20.37Zm63.19,64.09v-109.48h7.11v109.48h-7.11Zm.97-.97h5.17v-107.54h-5.17v107.54Zm-16.79.97v-109.48h7.1v109.48h-7.1Zm.97-.97h5.17v-107.54h-5.17v107.54Zm-16.8.97v-109.48h7.11v109.48h-7.11Zm.97-.97h5.17v-107.54h-5.17v107.54Zm-7.21-112.87v-7.11h51.24v7.11h-51.24Zm.97-.97h49.3v-5.17h-49.3v5.17Z" fill="#fff"/>
      <rect id="_사각형_584" data-name="사각형 584" width="274" height="200" fill="none"/>
    </g>
  </g>
</svg>