<?xml version="1.0" encoding="UTF-8"?>
<svg id="_레이어_2" data-name="레이어 2" xmlns="http://www.w3.org/2000/svg" viewBox="0 0 199 249">
  <g id="Tag">
    <g id="symbol_03_14_0001_01" data-name="symbol 03 14 0001 01">
      <rect id="_사각형_71" data-name="사각형 71" width="199" height="249" fill="none"/>
      <path id="_패스_461" data-name="패스 461" d="M99.57,177.92c-.2,1.54-.38,2.92-.58,4.52,3.94-.09,7.84-.88,11.51-2.33-3.49-1.36-7.18-2.1-10.92-2.19Z" fill="#fff"/>
      <path id="_패스_462" data-name="패스 462" d="M134.03,118.67c3.06-7.41,4.46-14.95,3.35-22.86-.34-3.23-1.47-6.33-3.29-9.02-2.7-3.76-6.61-4.96-10.83-3.06-1.8,.82-3.46,1.91-4.93,3.22-4.97,4.42-7.97,10.12-10.03,16.34-1.31,3.82-2.03,7.81-2.14,11.84,9.88-2.75,18.79,.74,27.87,3.54Z" fill="#fff"/>
      <path id="_패스_463" data-name="패스 463" d="M123.55,132.76c3.47-2.49,6.3-5.78,8.25-9.58-2.26-.73-4.35-1.47-6.47-2.07-4.57-1.28-9.16-2.35-13.98-1.99-1.95,.07-3.74,1.11-4.76,2.77-3.79,5.67-6.75,11.85-8.8,18.35-3.87,11.85-5.55,24.07-6.07,36.48-.08,1.9-.01,3.82-.01,5.79h2.28c.1-.37,.18-.74,.23-1.12,.73-8.36,3.38-16.44,7.72-23.62,5.63-9.68,12.28-18.51,21.62-25.03Z" fill="#fff"/>
      <path id="_패스_464" data-name="패스 464" d="M123.36,168.82c-.64-.64-1.5-1.01-2.4-1.04-5.8-.09-11.6-.05-17.4-.03-.38,0-.98,.17-1.08,.42-.63,1.53-1.14,3.11-1.73,4.78,1.52,.2,2.76,.33,3.99,.52,3.35,.53,6.7,1.11,9.52,3.17,2.71,1.98,2.71,5.1-.05,6.99-1.31,.9-2.76,1.58-4.3,2-9.97,2.5-20.38,2.64-30.41,.4-2.35-.37-4.56-1.38-6.38-2.91-1.92-1.77-1.99-4.28,0-5.94,1.17-1.01,2.53-1.76,4.01-2.22,2.82-.79,5.75-1.2,8.62-1.83,.46-.1,1.16-.48,1.21-.82,.22-1.46,.25-2.95,.35-4.59h-1.53c-6.04,0-12.09,.04-18.13-.02-1.46-.07-2.86,.59-3.73,1.76-5.42,6.49-10.91,12.93-16.37,19.39-1.64,1.94-3.27,3.88-5.05,5.99h102.8c-.05-.13-.11-.25-.19-.37-7.24-8.57-14.46-17.14-21.76-25.65Z" fill="#fff"/>
      <path id="_패스_465" data-name="패스 465" d="M39.61,212.25h108.73v-12.2H39.61v12.2Z" fill="#fff"/>
      <path id="_패스_466" data-name="패스 466" d="M77.79,180.53l8.78,1.92v-4.64l-8.8,1.97,.02,.75Z" fill="#fff"/>
      <path id="_패스_467" data-name="패스 467" d="M95.19,100.44c1.24-3.08,2.42-6.03,3.66-9.12-.49-.21-.93-.4-1.37-.59-10.75-4.45-21.59-8.69-32.21-13.41-2.96-1.36-6.05-2.4-9.23-3.11-.21,3.33-.29,6.66-.25,9.99,12,4.94,24,9.9,35.99,14.86,1.15,.47,2.3,.92,3.42,1.37Z" fill="#fff"/>
      <path id="_패스_468" data-name="패스 468" d="M58.97,69.47c13.61,5.6,27.22,11.22,40.81,16.85,.49,.2,.98,.38,1.52,.59,1.3-1.76,2.5-3.56,3.87-5.23,4.29-5.25,9.32-9.56,15.9-11.66,5.43-1.84,11.39-1.28,16.38,1.54,4.45,2.41,9.03,4.6,13.59,6.81-7.99-6.24-15.64-12.77-21.34-21.1-6-8.8-9.45-19.08-9.98-29.71-.48-9.89,2.42-21.01,10.97-26.01-18.72-4.67-39.21,3.1-52.55,17.04-12.83,13.4-19.59,31.73-21.64,50.2,.85,.1,1.69,.32,2.47,.67Z" fill="#fff"/>
      <path id="_패스_469" data-name="패스 469" d="M182.35,106.94c.03,.23,.06,.47,.08,.7,1.45,14.36-2.42,27.18-11.99,38.09-3.74,4.26-8.3,7.57-14.04,8.36-3.52,.48-7.08,.88-10.62,1.19-4.79,.43-9.66,.02-14.49-.08-1.96-.09-3.79-1.02-5.01-2.56-.44-.53-1.05-.89-1.72-1.04-3.6-.43-7.21-.75-10.82-1.05-.5-.07-1,.08-1.38,.41-2.58,3.77-5.08,7.58-7.83,11.73,1.08,.05,1.59,.09,2.09,.09,4.69,0,9.38,.03,14.07,0,2.65-.09,5.18,1.09,6.83,3.17,8.24,9.8,16.55,19.56,24.77,29.38,.65,.82,1.03,1.82,1.08,2.86,.1,5.32,.02,10.64,.06,15.95,.08,1.27-.56,2.48-1.66,3.14H36.29c-1.22-.64-1.93-1.97-1.77-3.35,.07-5.22-.03-10.44,.07-15.66,.04-1.09,.43-2.13,1.1-2.99,8.22-9.82,16.53-19.57,24.78-29.37,1.66-2.07,4.19-3.23,6.84-3.14,6.28,.04,12.57,.01,18.85,.01h1.47c.86-4.55,1.5-9,2.58-13.34,1.22-4.91,2.84-9.72,4.24-14.58,.23-.61,.28-1.28,.17-1.92-2.6-8.86-2.85-18.24-.72-27.22,0-.14,0-.28-.03-.42-3.68-1.53-7.41-3.09-11.14-4.63-8.94-3.69-17.88-7.39-26.82-11.08,.6,13.04,2.79,26.05,5.44,38.86,1.49,7.18,2.65,15.9-2.87,20.74-4.81,4.22-12.77,2.88-17.46-1.48s-6.74-10.85-7.82-17.16c-2.07-12.21-1.23-24.74,2.47-36.57C16.31,103.49,3.45,124,.94,145.44c-2.51,21.43,4.6,43.38,17.22,60.88,15.67,21.67,39.12,36.43,65.43,41.21,35.21,6.02,72.83-9.27,94.87-37.14,23.26-29.41,25.91-73,3.88-103.43Z" fill="#fff"/>
      <path id="_패스_470" data-name="패스 470" d="M119.58,145.14c5.92-1.51,10.48-5.12,14.22-9.74,8.8-10.87,12.65-23.42,12.07-37.32-.1-5.74-1.75-11.34-4.77-16.21-4.98-7.74-13.02-10-21.3-6.02-4.69,2.26-8.27,5.82-11.43,9.85-6.69,8.52-9.99,18.35-10.79,29.02-.28,3.73,.08,7.5,.15,11.25h.57c.8-1.36,1.65-2.7,2.38-4.11,.33-.62,.5-1.32,.49-2.02-.64-11.15,2.54-22.18,9.01-31.28,2.74-4.2,6.66-7.5,11.26-9.5,6.27-2.57,12.66-.8,16.55,4.74,1.27,1.82,2.28,3.8,3.01,5.9,2.58,7.51,2.19,15.14,.31,22.72-2.2,8.84-5.97,16.84-13.05,22.9-2.67,2.29-5.52,4.39-8.2,6.67-1.13,1.07-2.2,2.2-3.2,3.39,.92,.09,1.85,.02,2.74-.22Z" fill="#fff"/>
      <path id="_패스_471" data-name="패스 471" d="M156.62,149.06c.37-.09,.74-.21,1.11-.34,2.85-.98,5.42-2.62,7.51-4.79,10.32-10.88,14.48-23.66,11.69-38.53-.18-.85-.4-1.69-.67-2.51-.23-.78-.52-1.54-.78-2.3-1.82,17.63-8.54,34.41-19.4,48.42,.18,.04,.36,.06,.55,.05Z" fill="#fff"/>
      <path id="_패스_472" data-name="패스 472" d="M144.52,150.44c2.16,.23,4.29-.63,5.68-2.29,.53-.56,1.06-1.13,1.54-1.73,7.02-8.77,12.24-18.85,15.36-29.64,2.17-7.29,3.71-14.71,2.95-22.4-.03-.34-.08-.65-.13-.96-1.99-1.77-4.05-3.48-6.14-5.16,.03,2.75,.17,5.55-.04,8.33-.9,11.65-4.42,22.59-9.2,33.17-3.37,7.54-7.89,14.51-13.39,20.67,1.35,0,2.37-.09,3.37,.02Z" fill="#fff"/>
      <path id="_패스_473" data-name="패스 473" d="M137.41,146.92c2.04-2.19,3.94-4.51,5.69-6.93,7.64-11.45,12.76-24.39,15.01-37.96,.8-4.49,1.26-9.01,.33-13.54-.08-.39-.24-.93-.53-1.08-3.63-1.87-7.29-3.68-11.22-5.64,5.34,11.85,5.26,23.73,1.87,35.67s-9.43,22.17-20.26,29.5c2.63,.26,4.92,.55,7.22,.67,.7,.03,1.38-.21,1.89-.68Z" fill="#fff"/>
    </g>
  </g>
</svg>