<?xml version="1.0" encoding="UTF-8"?>
<svg id="Layer_2" data-name="Layer 2" xmlns="http://www.w3.org/2000/svg" viewBox="0 0 205 156">
  <g id="Logo">
    <g>
      <path d="m199.19,65.05c-.52-1.41-1.13-2.32-2-2.74-1.17-.56-2.44-.14-3.07.08,0,0-9.62,3.27-15.71,4.97-1.08.3-2.5.66-4.2.3-2.06-.44-3.46-1.7-4.23-2.47C113,7.78,111.34,5.94,111.34,5.94c-1.03-1.14-3.42-3.71-6.45-3.62-1.67.05-3.3,1.01-5.18,2.87-31.06,30.91-62.09,61.85-93.09,92.82-4.56,4.56-4.52,7.37.08,11.98,11.56,11.6,23.15,23.16,34.81,34.66,6.13,6.04,13.65,8.83,22.47,9.63,4.75-1.42,9.71-2.35,14.21-4.33,19.16-8.42,38.18-17.14,57.25-25.75,16.03-7.24,32.16-14.28,48.08-21.77,14.48-6.81,21.01-23.02,15.66-37.39Z" fill="#fff"/>
      <rect width="205" height="156" fill="none"/>
    </g>
  </g>
</svg>