<?xml version="1.0" encoding="UTF-8"?>
<svg id="Layer_2" data-name="Layer 2" xmlns="http://www.w3.org/2000/svg" viewBox="0 0 196 196">
  <g id="Logo">
    <g id="symbol_21_02_0005_01" data-name="symbol 21 02 0005 01">
      <path id="_패스_860" data-name="패스 860" d="m44.77,85.3c18.23-27.9,52.17-41.13,84.47-32.92-6.73-9.22-15.39-16.86-25.39-22.38-21.29-.31-41.79,8.07-56.76,23.22-2.99,10.42-3.78,21.34-2.33,32.08" fill="#fff"/>
      <path id="_패스_861" data-name="패스 861" d="m121.99,152.66c-.33,0-.66.01-1,0-38.58-.49-71-29.14-76.23-67.37-5.92,9.08-9.88,19.29-11.64,29.98,10.37,29.72,37.6,50.29,69.03,52.13,7.36-3.83,14.05-8.81,19.83-14.75" fill="#fff"/>
      <path id="_패스_862" data-name="패스 862" d="m129.23,52.38c22.14,30.42,19.39,72.31-6.54,99.57-.23.24-.47.47-.7.71,8.29.01,16.53-1.31,24.41-3.9,19.4-22.37,24.45-53.79,13.03-81.11-8.83-7.23-19.14-12.44-30.2-15.27" fill="#fff"/>
      <path id="_패스_869" data-name="패스 869" d="m97.6,190.2c-51.14,0-92.6-41.46-92.6-92.6,0-51.14,41.46-92.6,92.6-92.6,51.14,0,92.6,41.46,92.6,92.6h0c-.06,51.12-41.48,92.54-92.6,92.6m0-180.57c-48.58,0-87.97,39.38-87.97,87.96s39.38,87.97,87.96,87.97,87.97-39.38,87.97-87.96h0c-.06-48.56-39.41-87.91-87.96-87.96" fill="#fff"/>
      <rect id="_사각형_305" data-name="사각형 305" width="196" height="196" fill="none"/>
    </g>
  </g>
</svg>