<?xml version="1.0" encoding="UTF-8"?>
<svg id="_레이어_2" data-name="레이어 2" xmlns="http://www.w3.org/2000/svg" viewBox="0 0 127 206">
  <g id="Logo">
    <g id="symbol_10_04_0003_01" data-name="symbol 10 04 0003 01">
      <path id="_패스_1566" data-name="패스 1566" d="m120.6,143h0c-4.58-.04-9.17-.25-13.75-.04-2.8.13-3.47-.78-3.46-3.51.1-26.94,0-53.88.1-80.82.04-8.77-.65-17.4-4.92-25.18-2.74-4.99-5.75-9.81-10.04-13.93-5.2-5.04-11.39-8.94-18.19-11.43-3.4-1.26-7.01-1.53-10.46-2.5-5.26.25-10.57-.5-15.77.71-5.93,1.38-14.83,4.9-21.22,10.09C7.48,28.9,5.05,49.67,4.74,52.68v56.81l.09,6.13h0c-.21,7.76.04,15.53-.03,23.3-.04,4.58-.6,3.99,3.89,4,28.12.04,56.24.08,84.37.1,1.41,0,3.1-.61,3.08,2.03-.12,17.31-.11,34.62-.2,51.94-.02,2.9.83,4.14,3.73,4.19,5.74.1,11.48.03,17.22.03,1.5.19,2.88-.88,3.07-2.38.35-1.85.57-3.73.66-5.61-.07-16.74-.03-33.48-.02-50.23m-33.22-56.45c-1.91.85-3.86,1.58-5.86,2.2-2.59.64-4.68,2.54-5.57,5.06-1.72,4.04-3.8,7.93-5.79,11.85-.51,1.02-.81,2.77-2.21,2.5-1.62-.32-.81-2.03-.77-3.1.11-2.85.34-5.7.68-8.53.38-2.64-.62-5.29-2.66-7.01-6.29-5.99-12.38-12.18-18.59-18.25-3.65-3.56-7.39-7.03-11.09-10.54h0l-.38.36c.38.49.74.98,1.13,1.46,7.79,9.53,15.35,19.26,23.47,28.5,4.64,5.28,4.02,11.58,5.08,17.62.18.67-.16,1.38-.79,1.66-.78.32-1.19-.32-1.62-.8-1.31-1.33-2.54-2.74-3.67-4.23-1.65-2.4-3.18-2.82-5.59-.82-3.29,2.73-6.87,5.13-10.34,7.63-4.05,2.92-4.69,2.71-5.68-2.1-3.85-18.61-7.65-37.22-11.41-55.84-.26-1.31-1.18-2.92.27-4s2.72.24,3.91.87c13.36,7.17,26.72,14.35,40.06,21.55,5.9,3.18,11.79,6.38,17.67,9.59.95.52,2.12.99,2.04,2.33s-1.31,1.65-2.32,2.05" fill="#fff"/>
      <rect id="_사각형_588" data-name="사각형 588" width="127" height="206" fill="none"/>
    </g>
  </g>
</svg>