<?xml version="1.0" encoding="UTF-8"?>
<svg id="Layer_2" data-name="Layer 2" xmlns="http://www.w3.org/2000/svg" viewBox="0 0 268 268">
  <g id="Logo">
    <g id="symbol_13_01_0003_02" data-name="symbol 13 01 0003 02">
      <path id="_패스_746" data-name="패스 746" d="m233.61,133.9c-5.03-.45-10.1.32-14.77,2.25-2.08.86-4.47.38-6.06-1.22l-12.05-12.06c-1.86-1.86-2.17-4.78-.74-6.99,11.72-18.22,8.94-42.19-6.65-57.24-1.72-1.7-2.18-4.29-1.15-6.48l9.07-19.52c1.33-2.86.08-6.25-2.77-7.58l-9.76-4.53c-2.86-1.33-6.25-.08-7.58,2.77l-9.06,19.52c-1,2.2-3.29,3.52-5.69,3.3-24.95-2.54-47.24,15.63-49.78,40.58-.84,8.25.6,16.58,4.15,24.07.99,2.12.53,4.63-1.13,6.28l-3.21,3.21c-1.71,1.7-4.32,2.11-6.47,1.04-15.13-7.36-32.48-8.75-48.59-3.88-2.41.76-5.03-.14-6.46-2.22l-19.46-28.46c-1.78-2.6-5.33-3.27-7.93-1.49l-20.02,13.68c-2.6,1.78-3.27,5.33-1.49,7.93l20.16,29.5c1.35,1.99,1.32,4.61-.07,6.58-21.18,30.16-13.89,71.78,16.28,92.96,30.16,21.18,71.78,13.89,92.96-16.28,15.98-22.76,16.17-53.04.48-75.99-1-1.46-2.05-2.87-3.14-4.23-1.94-2.4-1.56-5.92.85-7.86,1.76-1.42,4.2-1.64,6.18-.55.97.54,1.96,1.05,2.98,1.52,14.24,6.62,30.9,5.4,44.03-3.21,2.21-1.46,5.15-1.16,7.02.71l10.47,10.47c1.88,1.92,2.13,4.91.58,7.11-9.76,14.39-6,33.97,8.39,43.73s33.97,6,43.73-8.39c4.03-5.94,5.91-13.09,5.32-20.25-1.14-14.32-14.28-27.55-28.59-28.79m-108.05,16.73c16.9,24.73,10.55,58.49-14.18,75.39-24.73,16.9-58.49,10.55-75.39-14.18-16.9-24.73-10.55-58.49,14.18-75.39,22.2-15.17,52.17-11.79,70.42,7.96,1.8,1.95,3.46,4.03,4.96,6.23m59.24-29.54c-16.41,12.66-39.98,9.62-52.64-6.79-12.66-16.41-9.62-39.98,6.79-52.64,16.41-12.66,39.98-9.62,52.64,6.79,10.33,13.39,10.43,32.03.25,45.53-2.02,2.67-4.39,5.07-7.04,7.12" fill="#fff"/>
      <rect id="_사각형_272" data-name="사각형 272" width="268" height="268" fill="none"/>
    </g>
  </g>
</svg>