<?xml version="1.0" encoding="UTF-8"?>
<svg id="Layer_2" data-name="Layer 2" xmlns="http://www.w3.org/2000/svg" viewBox="0 0 122 122">
  <g id="Logo">
    <g id="symbol_01_02_0007_01" data-name="symbol 01 02 0007 01">
      <path id="_패스_1272" data-name="패스 1272" d="m97.86,73.12c3.49,0,6.98.04,10.47-.02,3.24.12,5.97-2.41,6.09-5.65.12-3.24-2.41-5.97-5.65-6.09-.17,0-.35,0-.52,0-2.57-.01-5.14,0-7.71,0h-3.73v-4.99c0-2.51,0-2.5,2.42-3.31,3.78-1.26,7.58-2.48,11.34-3.82,3.03-1.08,4.61-4.42,3.53-7.45-.92-2.57-3.49-4.15-6.19-3.82-.9.15-1.79.38-2.65.71-3.08,1-6.15,2.03-9.34,3.09-2.16-9.13-7.82-17.04-15.77-22.03,1.39-2.8,2.75-5.49,4.08-8.2,1.62-3.3.59-6.72-2.44-8.23-3.05-1.51-6.42-.28-8.07,2.98-1.33,2.61-2.65,5.22-3.91,7.87-.2.73-.96,1.16-1.69.95-.04-.01-.07-.02-.11-.04-4.28-.9-8.7-.9-12.98,0-.67.27-1.42-.06-1.69-.73-.01-.03-.02-.06-.03-.09-1.32-2.77-2.72-5.5-4.11-8.24-.82-1.79-2.52-3.03-4.47-3.26-3.19-.47-6.15,1.74-6.62,4.93-.17,1.15,0,2.32.51,3.36,1.37,2.89,2.84,5.73,4.31,8.69-3.9,2.46-7.3,5.65-10.02,9.38-2.71,3.78-4.66,8.06-5.73,12.59-.55-.16-.98-.28-1.41-.42-3.18-1.04-6.34-2.14-9.54-3.12-3.07-.99-6.35.7-7.34,3.76-.99,3.07.7,6.35,3.76,7.34h0c4.11,1.43,8.26,2.75,12.38,4.15.46.16,1.16.56,1.18.87.1,2.31.05,4.64.05,7-.43.02-.7.04-.97.04-3.58,0-7.16-.03-10.75.01-3.23-.04-5.87,2.54-5.91,5.77-.04,2.99,2.19,5.52,5.15,5.87,1.05.1,2.11.14,3.16.1,3.06,0,6.12,0,9.25,0v7.47c-.49.18-.99.38-1.51.55-3.96,1.31-7.93,2.59-11.87,3.93-3.1.93-4.86,4.21-3.93,7.31.93,3.1,4.21,4.86,7.31,3.93.13-.04.26-.08.38-.13,3.49-1.11,6.94-2.3,10.52-3.49,3.53,14.95,16.29,25.94,31.6,27.22,7.28.65,14.58-1.05,20.83-4.85,8.28-4.92,14.2-12.99,16.4-22.36.63.2,1.15.36,1.66.53,3.18,1.04,6.33,2.17,9.55,3.09,2.98.83,6.07-.85,7-3.8.98-2.92-.5-6.1-3.37-7.23-.8-.33-1.64-.58-2.47-.85-3.82-1.28-7.64-2.56-11.43-3.83v-7.42c.37-.03.68-.07.99-.07m-12.83-11.39h-47.07c.01-2.21.04-4.42.07-6.63h47.02c0,2.21,0,4.42,0,6.63m0,17.65h-47.01c-.03-2.21-.06-4.42-.07-6.63h47.08c0,2.21,0,4.42,0,6.63m-20.7-53.04c10.17,1.4,17.75,8.34,19.99,17.74h-45.67c2.84-11.56,13.87-19.18,25.69-17.74m.97,81.65c-11.96,2.2-24.06-6.09-26.65-17.59h45.66c-2.18,9.05-9.26,15.8-19.01,17.59" fill="#fff"/>
      <rect id="_사각형_387" data-name="사각형 387" width="122" height="122" fill="none"/>
    </g>
  </g>
</svg>