<?xml version="1.0" encoding="UTF-8"?>
<svg id="Layer_2" data-name="Layer 2" xmlns="http://www.w3.org/2000/svg" viewBox="0 0 140 179">
  <g id="Tag">
    <g id="symbol_03_01_0001_01" data-name="symbol 03 01 0001 01">
      <path id="_패스_434" data-name="패스 434" d="m121.25,117.34c-.35-.03-.69-.05-1.02-.04-4.9,0-7.68,3.23-9.76,6.02-3.72,5-10.31,12.16-19.57,16.16-.2.07-.4.15-.59.26-.14.06-.28.12-.42.18-.44.18-.91.27-1.39.27-1.51.01-2.87-.92-3.4-2.34l-.95-2.57c-1.84-4.92-7.1-7.65-12.17-6.32-2.46.62-5,.93-7.54.91-5.89-.12-11.71-1.29-17.19-3.44-9.27-3.43-19.24-4.59-29.05-3.38-5.65.63-9.73,5.72-9.1,11.38.06.57.18,1.14.33,1.69,4.43,14.78,25.23,31.87,57.92,31.88h.04c38.64,0,54.21-19.3,61.03-30.65,4.15-6.91,4.33-17.92-7.16-20.02m.17,15.85c-10.79,17.96-28.47,26.7-54.07,26.7-30.82,0-47.1-16.01-50.12-26.09-.17-.56-.08-1.17.26-1.65.38-.58,1.01-.97,1.7-1.05,8.52-1.05,17.17-.05,25.22,2.93,6.39,2.48,13.17,3.82,20.02,3.95,3.24.02,6.46-.38,9.6-1.17.18-.05.36-.07.54-.07.86,0,1.63.54,1.93,1.34l.95,2.57c.31.81.71,1.58,1.2,2.3-1.62.24-3.43.45-5.45.6-2.23.17-3.9,2.12-3.73,4.36.16,2.11,1.92,3.74,4.04,3.74.1,0,.21,0,.32-.01,12.01-.92,18-3.55,19.87-4.53,11.01-4.62,18.74-12.82,23.32-18.96,1.88-2.52,2.54-2.74,3.2-2.74,1.28.29,2.08.76,2.36,1.39.57,1.25.29,3.99-1.16,6.4" fill="#fff"/>
      <path id="_패스_435" data-name="패스 435" d="m33.54,120.75c4.85.64,9.61,1.82,14.2,3.51,5.04,1.98,10.38,3.06,15.79,3.19,2.36.02,4.71-.28,6.99-.91,1.23-.35,2.5-.53,3.77-.53,5.57-.07,10.57,3.38,12.48,8.61.58,1.53,2.29,2.31,3.82,1.73.11-.04.22-.09.32-.14,6.13-3.18,11.51-7.64,15.76-13.09,1.42-1.9,4.07-5.27,6.75-6.73,1.26-.72,2.26-1.81,2.86-3.13,1.73-3.85,2.74-7.99,2.98-12.2,2.08-25.84-18.35-48.31-44.04-49.74v-6.22h.88c2.61-.04,5.24.1,7.82-.17,6.85-.76,12.54-5.62,14.37-12.27,1.02-3.64.54-7.36.59-11.06,0-.02-.02-.03-.06-.08-.11-.01-.25-.03-.39-.03-3.82,0-7.65-.02-11.47,0-3.15-.02-6.23.87-8.88,2.57-5.11,3.31-7.95,8-8.05,14.11-.07,4.38-.07,8.76-.06,13.14-24.66,1.33-43.98,21.68-44.04,46.37,0,7.5,1.82,14.89,5.32,21.53.46.85,1.31,1.42,2.27,1.53m62.84-41.49c.46-1.83,2.31-2.94,4.13-2.48,1.83.46,2.94,2.31,2.48,4.13-.3,1.22-1.25,2.17-2.47,2.48-1.8.49-3.66-.57-4.15-2.37-.16-.58-.16-1.19,0-1.76m-8.45,14.37c.91,0,1.82-.06,2.73-.18-.72-2.04.09-4.3,1.95-5.4,2.08-1,4.59-.31,5.85,1.62.34-.4.62-.85.83-1.33.41-1.04,1.57-1.56,2.62-1.18,1.04.38,1.58,1.52,1.21,2.57-.12.32-2.99,7.95-15.19,7.95h-.09c-10.47,0-14.77-7.31-14.95-7.63-.55-.97-.22-2.2.75-2.76,0,0,0,0,.01,0,.98-.55,2.22-.21,2.78.76.13.22,3.45,5.64,11.49,5.57m-12.52-16.82c1.81.48,2.89,2.34,2.42,4.15-.48,1.81-2.34,2.89-4.15,2.42-1.19-.31-2.11-1.25-2.42-2.44-.48-1.8.59-3.66,2.4-4.14.58-.15,1.18-.15,1.76,0" fill="#fff"/>
      <path id="_패스_436" data-name="패스 436" d="m46.6,21.62c1.11,7.49,6.72,13.52,14.11,15.18,2.17.41,4.37.55,6.57.42.07-.08.09-.09.1-.11.02-.08.03-.16.04-.24.39-4.91,2.64-9.49,6.3-12.79.4-.28.52-.82.29-1.25-2.7-7.09-9.49-11.79-17.08-11.82-3.31-.02-6.62,0-9.94,0-.18,0-.36.02-.59.03v.63c0,2.32-.02,4.63,0,6.95,0,1,.06,2.01.19,3" fill="#fff"/>
      <rect id="_사각형_2" data-name="사각형 2" width="140" height="179" fill="none"/>
    </g>
  </g>
</svg>