<?xml version="1.0" encoding="UTF-8"?>
<svg id="_레이어_2" data-name="레이어 2" xmlns="http://www.w3.org/2000/svg" viewBox="0 0 399 148">
  <g id="Logo">
    <g>
      <path d="M95.8,63.88c-27.09,26.31-53.51,51.97-80.66,78.34-3.57-4.37-6.9-8.46-10.92-13.38,29.82-29,60.36-58.71,92.46-89.93,11.35,13.04,22.32,25.65,33.98,39.04,24.42-25.81,46.36-49,69.02-72.94,22.34,23.61,44.3,46.82,67.58,71.42,11.41-12.82,22.52-25.31,34.32-38.58,32.85,31.91,63.44,61.61,94.57,91.84-4.36,3.8-8.32,7.25-13.02,11.35-25.81-25.03-52.36-50.78-79.45-77.06-2.57,2.38-4.8,4.34-6.92,6.4-23,22.35-45.88,44.83-69.11,66.94-2.75,2.62-7.31,4.43-11.14,4.64-11.17,.61-22.42,.61-33.59,0-3.83-.21-8.41-2-11.16-4.62-23.22-22.12-46.1-44.6-69.09-66.97-1.99-1.94-4.04-3.83-6.86-6.5Zm50.01,23.29c6.46,6.66,12.18,12.78,18.12,18.67q20.14,19.94,48.32,18.48c1.93-.1,4.46-.29,5.63-1.49,11.61-11.95,22.99-24.13,34.78-36.61-16.99-17.99-34.71-36.76-52.98-56.11-18.22,19.3-35.95,38.07-53.87,57.06Z" fill="#fff"/>
      <rect width="399" height="148" fill="none"/>
    </g>
  </g>
</svg>