<?xml version="1.0" encoding="UTF-8"?>
<svg id="_레이어_2" data-name="레이어 2" xmlns="http://www.w3.org/2000/svg" viewBox="0 0 96 103">
  <g id="Logo">
    <g id="symbol_10_04_0004_01" data-name="symbol 10 04 0004 01">
      <path id="_패스_1567" data-name="패스 1567" d="m55.49,46.25c-1.4-1.28-4.24-.44-6.59,1.96-.61.58-1.56.58-2.17,0-2.28-2.32-4.99-3.18-6.44-2.08-.05.04-.11.07-.15.12-.69.76-1.04,1.77-.99,2.79.06,2.42.9,4.76,2.41,6.66,1.83,2.44,4.26,3.95,6.19,3.86h.15c1.93.1,4.36-1.42,6.18-3.86,1.37-1.76,2.21-3.88,2.4-6.11.14-1.11-.15-2.24-.8-3.15-.06-.07-.12-.14-.18-.2" fill="#fff"/>
      <path id="_패스_1568" data-name="패스 1568" d="m75.54,22.11c-8.28-8.09-18.55-12.32-28.93-11.93-12.8.49-21.32,7.71-24.12,10.08-2.89,2.45-5.42,5.29-7.53,8.44l4.74,3.13,18.04,12.54c.11-.12.21-.24.33-.35,2.42-2.21,6.35-1.72,9.73,1.08,3.38-2.8,7.32-3.29,9.73-1.08h0c.23.21.43.44.62.69l17.81-12.5,4.97-3.44c-1.55-2.41-3.36-4.64-5.4-6.64" fill="#fff"/>
      <path id="_패스_1569" data-name="패스 1569" d="m48.08,4.14c-20.74-.11-38.39,15.32-42.46,31.96-3.23,13.17,2.13,26.78,2.41,27.48,1.27,3.13,2.89,6.1,4.82,8.87l17.75,25.49c1.02,1.64,3.18,2.14,4.82,1.12,0,0,0,0,0,0l9.68-10.62c26.71.93,47.75-20.76,46.79-44.23-.92-22.58-21.93-39.95-43.79-40.06m35.59,26.37l-24.28,17.04c.54,2.95-.45,6.72-2.88,9.97-2.36,3.16-5.58,5.09-8.46,5.09-.08,0-.16,0-.24,0-2.94.11-6.27-1.83-8.7-5.08-2.56-3.43-3.52-7.42-2.78-10.43L12.49,30.52c-.54-.38-.78-1.07-.58-1.7.02-.06.05-.13.08-.19.03-.15.09-.3.17-.43,2.36-3.73,5.27-7.08,8.64-9.94,7.26-6.14,16.24-9.88,25.71-10.7,5.4-.12,10.76.88,15.75,2.93,5.55,2.37,10.67,5.66,15.12,9.74,4.1,3.77,4.98,6.2,6.6,8.08.12.15.21.32.27.5.2.63-.03,1.32-.58,1.7" fill="#fff"/>
      <rect id="_사각형_590" data-name="사각형 590" width="96" height="103" fill="none"/>
    </g>
  </g>
</svg>