<?xml version="1.0" encoding="UTF-8"?>
<svg id="Layer_2" data-name="Layer 2" xmlns="http://www.w3.org/2000/svg" viewBox="0 0 304 88">
  <g id="Logo">
    <g id="symbol_04_02_0003_02" data-name="symbol 04 02 0003 02">
      <path id="_패스_1096" data-name="패스 1096" d="m242.39,29h0c-3.25-.36-6.51-.58-9.76-.66-19.37-.42-38.62,3.71-56.69,10.47-.97.36-1.95.75-2.93,1.15-8.03,3.22-16.55,7.34-24.2,10.94-6.25,2.78-12.85,5.62-19.31,7.89-2.99,1.12-5.99,2.16-9.01,3.12-16.29,5.17-32.85,7.89-48.39,6.94-27.63-1.69-52.02-14.98-65.89-46.74,8.21,35.56,37.99,55.26,72.33,56.9,3.92.19,7.85.15,11.76-.12,12.86-.88,25.55-3.36,37.79-7.38,8.71-2.81,17.25-6.11,25.59-9.88,5.57-2.64,13.68-6.59,19.23-9.07,1.19-.52,2.38-1.03,3.58-1.53,11.51-4.9,23.49-8.61,35.76-11.08,9.6-1.92,19.39-2.7,29.17-2.33h.27c1.44.07,2.87.16,4.31.27.35-2.75.59-5.52.7-8.32-1.43-.21-2.85-.39-4.28-.55" fill="#fff"/>
      <path id="_패스_1097" data-name="패스 1097" d="m245.67,11.38c-1.49-.35-2.99-.67-4.5-.95-.16-.03-.32-.05-.48-.08-9.85-1.76-19.89-2.29-29.88-1.55-13.1.9-26.07,3.27-38.64,7.07-12.73,3.84-25.1,8.79-36.96,14.8-7.64,3.87-15.75,6.71-24.14,8.45-3.52.71-7.09,1.16-10.68,1.35-13.56.91-27-2.63-39.02-9.05-10.02-5.4-18.96-12.59-26.38-21.22,6.63,11.3,15.91,20.83,27.03,27.76,11.53,7.34,24.87,11.33,38.53,11.54,4.42.05,8.84-.26,13.22-.93,9.05-1.42,17.85-4.11,26.16-7.97,10.27-4.72,20.82-8.81,31.59-12.23,1.2-.38,2.4-.75,3.61-1.1,22.72-6.81,45.81-9.74,67.18-6.54h.04c1.45.22,2.9.47,4.33.75,18.73,3.38,35.95,12.48,49.3,26.04.49-1.29.93-2.61,1.33-3.94-12.89-16.8-31.14-27.43-51.63-32.17" fill="#fff"/>
      <rect id="_사각형_271" data-name="사각형 271" width="304" height="88" fill="none"/>
    </g>
  </g>
</svg>