<?xml version="1.0" encoding="UTF-8"?>
<svg id="_레이어_2" data-name="레이어 2" xmlns="http://www.w3.org/2000/svg" viewBox="0 0 135 120">
  <g id="Logo">
    <g id="symbol_12_01_0003_01" data-name="symbol 12 01 0003 01">
      <rect id="_사각형_269" data-name="사각형 269" width="135" height="120" fill="none"/>
      <path id="_패스_740" data-name="패스 740" d="M133.13,112.84c-.59-.68-1.43-1.09-2.33-1.15-3.04-.52-6.53,.21-7.65-.18l-.86-.31s.05-3.84,.05-4c.31-22.85,.08-45.71,.12-68.57,0-2.47-.02-5.07-1.2-7.23s-3.94-3.66-6.14-2.57l.05,78.3c0,1.32-.07,2.81-1.03,3.7-.97,.69-2.15,.99-3.33,.85h-8.79c-.77,.07-1.55-.07-2.25-.39-1.35-.78-1.52-2.64-1.53-4.21-.19-32.13-.1-64.27,.26-96.41l23.32,9.94c.19,.08,.71-2.93,.73-3.2,.06-1.12-.06-2.25-.36-3.34-.2-1.04-.66-2-1.34-2.82-.24-.19-.52-.33-.82-.39-.52-.17-1.02-.41-1.53-.63l-13.14-5.82c-1.94-1.01-4.05-1.64-6.23-1.87-2.57-.1-5.03,.95-7.39,1.97l-21.82,9.45c-1.66,.72-3.48,1.58-4.21,3.26-.35,.98-.49,2.01-.42,3.05,.07,30.47,.13,60.94,.2,91.41l-20.74-.02c.06-25.86,.13-51.72,.19-77.58l12.27,4.8c.56-.06,1.08-.34,1.45-.77,.43-.78,.6-1.67,.5-2.56h0s-.18-1.43-.19-1.55c-.36-2.59-10.12-5.95-12.7-7.04-.55-.24-1.13-.42-1.73-.52-.54-.09-1.09-.14-1.63-.13-1.9,.16-3.76,.63-5.5,1.4-1.84,.73-2.75,1.09-4.09,1.65-3.42,1.44-5.75,2.46-10.44,4.46-1.39,.43-2.62,1.29-3.5,2.46-.55,1.15-.78,2.43-.67,3.71,0,23.89-.02,47.78-.03,71.67l-15.04,.04c-.54-.04-1.07,.04-1.57,.24-1.53,.71-1.31,3.2,0,4.27,1.31,1.07,3.14,1.11,4.82,1.11,9.01,0,118.76-.05,121.45,0,.06,0,3.75,.07,4.82-1.58,.31-.47,.47-1.02,.47-1.58-.05-.47-.23-.93-.51-1.31Z" fill="#fff"/>
    </g>
  </g>
</svg>