<?xml version="1.0" encoding="UTF-8"?>
<svg id="_레이어_2" data-name="레이어 2" xmlns="http://www.w3.org/2000/svg" viewBox="0 0 139 139">
  <g id="Logo">
    <g id="symbol_14_03_0006_01" data-name="symbol 14 03 0006 01">
      <path id="_패스_1129" data-name="패스 1129" d="m31.4,101.14c-11.51-13.89-12.21-41.16,5.55-58.49,16.76-16.36,44.52-17.35,62.28-1.86,17.7,15.43,21.43,42.7,7.74,60.45-4.53-2.77-9.28-5.4-13.66-8.54-1.1-.79-1.46-3.18-1.47-4.85-.12-11.95-.06-23.9-.06-37.15-7.07,4.01-13.38,7.47-19.53,11.2-.78.47-.96,2.36-.97,3.59-.07,11.64-.19,23.28.1,34.92.3,2.14,1.48,4.06,3.25,5.29,5.23,3.41,10.79,6.32,16.38,9.51-9.94,8.41-33.17,8.03-44.09.21,5.12-2.93,9.77-5.96,14.74-8.32,4.16-1.98,5.64-4.62,5.48-9.27-.37-10.46.16-20.96-.24-31.42-.18-4.57,1.43-6.89,5.38-8.78,5.93-2.84,11.58-6.26,18.21-9.92-6.77-4.36-12.66-8.29-18.74-11.9-.89-.53-2.85.07-4,.72-5.93,3.35-11.7,7-17.67,10.29-2.45,1.11-3.92,3.65-3.66,6.33.15,11.47-.05,22.95.13,34.42.05,3.22-.82,5.26-3.75,6.79-3.94,2.05-7.65,4.53-11.4,6.79" fill="#fff"/>
      <path id="_패스_1130" data-name="패스 1130" d="m125.65,77.14c0,.15,0,.3-.02.45-2.03,31.14-28.93,54.74-60.07,52.71-31.14-2.03-54.74-28.93-52.71-60.07,1.98-30.32,27.58-53.65,57.96-52.81l-4.62,4.05c-.86.75-.94,2.06-.19,2.92.75.86,2.06.94,2.92.19h0l9.01-7.9c.86-.75.94-2.06.19-2.92-.02-.02-.04-.05-.06-.07l-8.58-8.91c-.81-.81-2.12-.82-2.93,0-.79.79-.82,2.06-.06,2.88l4.43,4.6c-34.05-.92-62.4,25.93-63.33,59.98-.92,34.05,25.93,62.4,59.98,63.33,33.14.9,61.06-24.55,63.22-57.63.01-.22.01-.44.03-.66-.18-1.43-1.49-2.45-2.92-2.27-1.14.14-2.05,1.01-2.25,2.14" fill="#fff"/>
      <rect id="_사각형_514" data-name="사각형 514" width="139" height="139" fill="none"/>
    </g>
  </g>
</svg>