<?xml version="1.0" encoding="UTF-8"?>
<svg id="_레이어_2" data-name="레이어 2" xmlns="http://www.w3.org/2000/svg" viewBox="0 0 159 223">
  <g id="Logo">
    <g id="symbol_10_06_0002_02" data-name="symbol 10 06 0002 02">
      <path id="_패스_1579" data-name="패스 1579" d="m74.61,219.25c-14.12,0-28.23.02-42.35-.01-5.49-.02-6.9-2.47-5.41-9.72,1.2-6.68,4.46-12.82,9.33-17.55,13.3-12.59,28.41-15.43,44.05-14.37,10.53.52,20.66,4.15,29.12,10.44,5.87,4.41,10.83,10.13,13.26,18.97,2.47,8.97.82,12.23-6.08,12.24-13.97.02-27.95.02-41.92.01" fill="#fff"/>
      <path id="_패스_1580" data-name="패스 1580" d="m2.87,102.06c.11-48.74,35.28-69.59,77.14-63.83,11.76,1.62,14.98,6.75,13.98,19.06-.77,9.42-6.88,12.56-16.61,12.74-19.27.36-25.09,7.98-19.71,24.94.75,3.1,3.48,5.31,6.67,5.41,2.14.21,4.31.25,6.47.29q20.2.37,20.79-17.56c.37-11.22,4.27-15.4,17.11-15.14,11.45.23,16.29-3.06,16.06-13.85-.22-9.98,3.79-11.6,17.46-11.7,10.16-.08,13.01,4.28,12.9,12.59-.17,13.15-.82,14.5-15.48,14.82-6.62.15-7.93,1.62-8.82,2.9-1.51,2.19-.48,4.96.54,9.15,1.28,5.3,1.47,10.81,2.27,16.2,1.55,10.44-.57,19.29-1.62,23.65-5.49,22.87-25.5,35.89-28.19,37.58-5.15,3.25-21.64,12.64-43.09,9.72-37.69-5.13-52.85-43.12-53.57-45.03-2.73-7-4.19-14.44-4.3-21.95" fill="#fff"/>
      <path id="_패스_1581" data-name="패스 1581" d="m103.48,31.45h-19.38c-2.16,0-3.92-1.75-3.92-3.92V8.15c0-2.16,1.75-3.92,3.92-3.92h19.38c2.16,0,3.92,1.75,3.92,3.92v19.38c0,2.16-1.75,3.92-3.92,3.92" fill="#fff"/>
      <rect id="_사각형_593" data-name="사각형 593" width="159" height="223" fill="none"/>
    </g>
  </g>
</svg>