<?xml version="1.0" encoding="UTF-8"?>
<svg id="_레이어_2" data-name="레이어 2" xmlns="http://www.w3.org/2000/svg" viewBox="0 0 433 130">
  <g id="Logo">
    <g id="symbol_06_02_0005_01" data-name="symbol 06 02 0005 01">
      <path id="_패스_1185" data-name="패스 1185" d="M7.15,125.63c-.83,0-1.5-.67-1.5-1.5V51.07c0-.43,.19-.85,.52-1.13L58.07,5.07c.55-.47,1.35-.49,1.92-.04l52.32,41.57c.36,.28,.57,.71,.57,1.17v61.16c0,.83-.67,1.5-1.5,1.5s-1.5-.67-1.5-1.5V48.49L59.1,8.14,8.65,51.75V122.63l418.76-1.65h0c.83-.06,1.55,.56,1.61,1.38,.06,.83-.56,1.55-1.38,1.61-.07,0-.15,0-.22,0L7.16,125.63h0Z" fill="#fff"/>
      <rect id="_사각형_320" data-name="사각형 320" x="51.32" y="56.86" width="7.33" height="8.46" fill="#fff"/>
      <rect id="_사각형_321" data-name="사각형 321" x="60.91" y="56.86" width="7.33" height="8.46" fill="#fff"/>
      <rect id="_사각형_322" data-name="사각형 322" x="51.32" y="67.23" width="7.33" height="8.46" fill="#fff"/>
      <rect id="_사각형_323" data-name="사각형 323" x="60.91" y="67.23" width="7.33" height="8.46" fill="#fff"/>
      <rect id="_사각형_324" data-name="사각형 324" width="433" height="130" fill="none"/>
    </g>
  </g>
</svg>