<?xml version="1.0" encoding="UTF-8"?>
<svg id="Layer_2" data-name="Layer 2" xmlns="http://www.w3.org/2000/svg" viewBox="0 0 100 133">
  <g id="Logo">
    <g id="symbol_19_03_0001_01" data-name="symbol 19 03 0001 01">
      <path id="_패스_425" data-name="패스 425" d="m53.36,63.9v35.32h31.66v-56.18c0-17.26-15.64-31.3-34.87-31.3S15.28,25.78,15.28,43.04v56.18h30.62v-35.32h-21.78v-7.46h21.78v-20.58h7.46v20.58h21.78v7.46h-21.78Z" fill="#fff"/>
      <path id="_패스_426" data-name="패스 426" d="m50.15,5.71C27.95,5.71,9.96,21.72,9.96,41.47v57.75h2.86v-56.18c0-18.61,16.74-33.76,37.32-33.76s37.32,15.14,37.32,33.76v56.18h2.86v-57.75c0-19.75-17.99-35.76-40.19-35.76" fill="#fff"/>
      <path id="_패스_427" data-name="패스 427" d="m59.39,119.68l-8.77-15.18v22.58h13.04l-2.86-4.95-1.42-2.45Z" fill="#fff"/>
      <path id="_패스_428" data-name="패스 428" d="m15.28,118.87l30.25-17.47H9.96v20.53l2.86-1.65,2.45-1.42Z" fill="#fff"/>
      <path id="_패스_429" data-name="패스 429" d="m37.13,119.68l9.45-16.36-28.35,16.36-4.25,2.45-4.02,2.32v2.63h22.9l2.86-4.95,1.41-2.46Z" fill="#fff"/>
      <path id="_패스_430" data-name="패스 430" d="m38.24,122.13l-2.86,4.95h13.07v-22.63l-8.79,15.23-1.42,2.45Z" fill="#fff"/>
      <path id="_패스_431" data-name="패스 431" d="m80.65,119.68l-28.11-16.23,9.37,16.23,1.42,2.45,2.86,4.95h24.15v-1.81l-5.43-3.14-4.25-2.45Z" fill="#fff"/>
      <path id="_패스_432" data-name="패스 432" d="m85.02,101.4h-31.66l31.66,18.28,2.46,1.42,2.86,1.65v-21.35h-5.32Z" fill="#fff"/>
      <rect id="_사각형_149" data-name="사각형 149" width="100" height="133" fill="none"/>
    </g>
  </g>
</svg>