<?xml version="1.0" encoding="UTF-8"?>
<svg id="Layer_2" data-name="Layer 2" xmlns="http://www.w3.org/2000/svg" viewBox="0 0 184 108">
  <g id="Logo">
    <g id="symbol_09_12_0001_01" data-name="symbol 09 12 0001 01">
      <path id="_패스_648" data-name="패스 648" d="m47.94,15.79c-2.57-2.92-.31-7.78,5.04-10.86s11.78-3.2,14.35-.28.31,7.78-5.04,10.86c-5.36,3.08-11.78,3.2-14.35.28" fill="#fff"/>
      <path id="_패스_649" data-name="패스 649" d="m77.06,14.62C34.89,23.02,7.51,64.01,15.91,106.18c0,0,0,0,0,0l152.71-30.42C160.22,33.59,119.23,6.22,77.06,14.62c0,0,0,0,0,0m23.91,60.53c-3.69.74-7.28-1.66-8.02-5.36s1.66-7.28,5.36-8.02c3.69-.74,7.28,1.66,8.02,5.36.74,3.69-1.66,7.28-5.36,8.02m39.98-7.96c-3.69.74-7.29-1.66-8.02-5.36-.74-3.69,1.66-7.29,5.36-8.02s7.29,1.66,8.02,5.36c0,0,0,0,0,0,.74,3.69-1.66,7.28-5.36,8.02" fill="#fff"/>
      <rect id="_사각형_2" data-name="사각형 2" width="184" height="108" fill="none"/>
    </g>
  </g>
</svg>