<?xml version="1.0" encoding="UTF-8"?>
<svg id="_레이어_2" data-name="레이어 2" xmlns="http://www.w3.org/2000/svg" viewBox="0 0 100 100">
  <g id="Logo">
    <g>
      <g id="symbol_05_04_0001_01" data-name="symbol 05 04 0001 01">
        <path id="_패스_208" data-name="패스 208" d="M49.99,76.28c-14.52,0-26.29-11.78-26.28-26.31,0-3.18,.58-6.33,1.71-9.31,.42-1.17,1.7-1.77,2.86-1.36s1.77,1.7,1.36,2.86c-.01,.03-.02,.06-.03,.08-4.27,11.25,1.39,23.84,12.64,28.11s23.84-1.39,28.11-12.64c4.27-11.25-1.39-23.84-12.64-28.11-5.71-2.17-12.08-1.84-17.53,.91-1.1,.56-2.45,.11-3.01-.99-.56-1.1-.11-2.45,.99-3.01,3.67-1.86,7.72-2.82,11.83-2.81,14.51,0,26.28,11.77,26.28,26.28s-11.77,26.28-26.28,26.28h0Z" fill="#fff"/>
        <path id="_패스_209" data-name="패스 209" d="M49.99,100C22.38,99.99,0,77.6,0,49.98,.02,22.37,22.41-.01,50.03,0c8.31,0,16.49,2.08,23.8,6.04,1.52,.82,2.08,2.72,1.26,4.24-.82,1.52-2.72,2.08-4.24,1.26C49.62,.04,23.1,7.93,11.61,29.16,.12,50.38,8.01,76.9,29.24,88.39c21.22,11.49,47.74,3.6,59.23-17.63,4.42-8.17,6.13-17.54,4.86-26.74-.23-1.71,.96-3.29,2.67-3.52s3.29,.96,3.52,2.67c.31,2.26,.46,4.55,.46,6.83-.03,27.6-22.4,49.97-50,50Z" fill="#fff"/>
        <path id="_패스_210" data-name="패스 210" d="M73.9,19.76c-1.24,0-2.23-1.02-2.22-2.26,0-1.19,.94-2.16,2.12-2.22l7.1-.33-.33-7.1c-.06-1.23,.9-2.28,2.13-2.34,0,0,0,0,0,0h.11c1.2,0,2.18,.94,2.24,2.14l.43,9.34c.06,1.24-.9,2.28-2.13,2.34l-9.34,.43s-.07,0-.11,0Z" fill="#fff"/>
        <path id="_패스_211" data-name="패스 211" d="M91.26,29.31c-.09,0-.17,0-.26-.02l-9.29-1.09c-1.23-.14-2.11-1.26-1.96-2.49,.14-1.23,1.26-2.11,2.49-1.96l7.06,.83,.83-7.06c.13-1.23,1.24-2.12,2.47-1.99s2.12,1.24,1.99,2.47c0,.02,0,.03,0,.05l-1.09,9.29c-.13,1.13-1.09,1.98-2.23,1.98h0Z" fill="#fff"/>
      </g>
      <rect y="0" width="100" height="100" fill="none"/>
    </g>
  </g>
</svg>