<?xml version="1.0" encoding="UTF-8"?>
<svg id="Layer_2" data-name="Layer 2" xmlns="http://www.w3.org/2000/svg" viewBox="0 0 246 246">
  <g id="Logo">
    <g id="symbol_19_02_0002_01" data-name="symbol 19 02 0002 01">
      <path id="_패스_1502" data-name="패스 1502" d="m191.97,201.85c-.81-1.03-2.16-1.5-3.43-1.19-6.42,1.15-11.09-1.63-14.35-7.04-9.3,3.69-14.51,2.27-19.53-5.4-4.15,2.44-8.55,3.19-13.08,1.07-4.15-1.83-7.03-5.72-7.57-10.22-2.88.25-5.74.95-8.49.65-5.99-.83-10.58-5.72-11.04-11.75-.12-1.93-.14-3.87-.04-5.81v-16.04c-.06-.67-.03-1.34-.03-2.01s0-1.33,0-2.38c-3.49,0-6.88.07-10.28-.01-5.95-.14-11.32-4.3-12.28-10.11-.49-2.95.16-6.09.31-9.43-4.72.4-9.76-.18-13.38-4.63s-3.94-9.31-1.59-14.7c-4.84-.43-8.79-2.36-11.28-6.58-2.47-4.17-2.35-8.49-.32-12.99-1.19-.07-2.21-.07-3.21-.2-7.16-.93-12.21-7.49-11.27-14.65.17-1.33.55-2.62,1.11-3.83.66-1,.42-2.34-.54-3.05-5.03-4.96-10.03-9.95-15-14.96C.43,105.5,18.81,182.64,77.72,218.89c40.25,24.76,91.01,24.76,131.26,0-5.68-5.67-11.34-11.35-17-17.04" fill="#fff"/>
      <path id="_패스_1503" data-name="패스 1503" d="m225.9,132.31c-6.45-6.51-12.93-12.99-19.44-19.44-3.01-2.91-6.63-5.11-10.59-6.46-14.26-5.18-28.5-10.39-42.74-15.64-1.58-.59-3.02-1.52-4.2-2.73-25.22-26.53-50.4-53.1-75.55-79.69-12.9,8.71-24.07,19.73-32.95,32.51,5.4,5.38,10.79,10.78,16.16,16.19.96.97,1.75,1.33,3.09.72,1.04-.41,2.14-.64,3.25-.68l15.72.03c1.48-.12,2.96.02,4.39.41,6.9,1.93,10.93,9.1,9,16-.05.19-.11.38-.17.57-.22.69-.48,1.37-.83,2.37,2.12,0,3.91-.01,5.69,0,9.96.08,16.08,8.87,12.66,18.19-.12.34-.26.68-.47,1.24,4.89.5,8.78,2.54,11.17,6.81,2.41,4.3,2.15,8.69-.06,13.16.68.32,1.26.59,1.83.87,4.76,2.34,7.45,6.19,7.65,11.45.34,4.91-2.27,9.55-6.64,11.81-1.37.77-1.94,1.57-1.78,3.09l.05,23.78c.06,3.44,2.75,6.25,6.18,6.46,3.46.11,6.36-2.58,6.51-6.04.22-3.41.08-6.85.12-10.27.03-2.78,1.1-4.15,3.22-4.21,2.2-.05,3.45,1.41,3.47,4.23.03,6.78-.08,13.56.06,20.34-.05,3.51,2.76,6.39,6.27,6.44,3.51.05,6.39-2.76,6.44-6.27,0-.13,0-.26,0-.39,0-5.07-.08-10.13.06-15.2,0-1.3.49-2.55,1.37-3.51,1.01-.67,2.29-.8,3.42-.34,1.03.77,1.68,1.95,1.77,3.23.16,6.48.07,12.96.09,19.44-.02.97.05,1.93.21,2.89.54,3.22,3.4,5.54,6.67,5.38,3.37-.22,5.98-3.03,5.95-6.4.09-4.84.04-9.68.03-14.53,0-1.84.68-3.2,2.57-3.67,2.3-.57,4.1,1,4.12,3.67.04,6.26,0,12.52.03,18.77-.02,1.04.11,2.07.4,3.07,1.11,3.31,4.69,5.09,7.99,3.98,2.06-.69,3.61-2.39,4.13-4.5.22-1.09.32-2.21.29-3.32.02-18.03.02-36.06.02-54.09-.04-.82,0-1.64.12-2.45.58-2.66,3.62-3.41,5.77-1.35,2.96,2.84,5.81,5.78,8.7,8.68,2.37,2.37,4.71,4.78,7.11,7.11,3.59,3.48,8.7,3.51,11.98.12,3.18-3.29,3.09-8.54-.21-11.71-.04-.04-.08-.08-.12-.11" fill="#fff"/>
      <rect id="_사각형_750" data-name="사각형 750" width="246" height="246" fill="none"/>
    </g>
  </g>
</svg>