<?xml version="1.0" encoding="UTF-8"?>
<svg id="_레이어_2" data-name="레이어 2" xmlns="http://www.w3.org/2000/svg" viewBox="0 0 182 245">
  <g id="Logo">
    <g id="symbol_02_01_0002_01" data-name="symbol 02 01 0002 01">
      <path id="_패스_819" data-name="패스 819" d="M50.32,91.53c4.45,5.21,9.48,10.7,15.17,16.32,5.32,5.25,10.56,9.98,15.6,14.23-7.36,4.41-13.81,10.18-18.99,17.02-5.13,6.86-13.08,17.51-10.46,30.89,1.94,7.79,6.4,14.72,12.68,19.72,15.72,12.73,40.16,12.06,54.97-1.5,15.92-14.58,15.44-35.62-1.26-50.59-15.83-14.19-32.11-27.98-47.51-42.53-27.21-25.7-25.01-66.92,4.3-90.14,1.6-1.27,3.4-2.33,5.08-3.46h0s.51,18.42,2.13,27.44c1.31,7.25,2.51,19.37,28.15,40.13,15.19,12.31,29.38,25.61,43.74,38.71,29.02,26.47,34.23,65.14,13.23,96.36-20.62,30.66-62.45,45.15-101.17,35.03C26.68,228.89,.96,197.37,2.12,160.37c.25-11.63,3.51-22.99,9.45-32.99,2.18-3.58,4.67-6.97,7.43-10.13,5.64-6.68,15.4-16.49,31.32-25.72Z" fill="#fff"/>
      <rect id="_사각형_155" data-name="사각형 155" width="182" height="245" fill="none"/>
    </g>
  </g>
</svg>