<?xml version="1.0" encoding="UTF-8"?>
<svg id="Layer_2" data-name="Layer 2" xmlns="http://www.w3.org/2000/svg" viewBox="0 0 172 172">
  <g id="Logo">
    <g id="symbol_07_01_0005_01" data-name="symbol 07 01 0005 01">
      <path id="_패스_1479" data-name="패스 1479" d="m86.3,4.46C41.45,4.32,4.97,40.57,4.83,85.43c-.14,44.85,36.11,81.33,80.96,81.47.19,0,.38,0,.57,0,45.42-.06,80.84-36.28,81.23-81.23-.44-45.14-36.18-81.18-81.3-81.2m-.1,155.05c-40.57.16-73.59-32.59-73.75-73.16,0-.29,0-.57,0-.86.18-41.68,33.53-73.47,73.91-73.73,41.7.45,73.95,33.58,73.76,74.09.08,40.6-32.77,73.58-73.38,73.66-.18,0-.36,0-.55,0" fill="#fff"/>
      <path id="_패스_1480" data-name="패스 1480" d="m86.26,22.88c-34.68,0-62.79,28.13-62.78,62.82,0,34.68,28.13,62.79,62.82,62.78,34.68,0,62.79-28.13,62.78-62.81-.06-34.66-28.15-62.74-62.82-62.79m47.48,34.46c4.27,7.05,6.87,14.99,7.59,23.2-.71,0-1.26.04-1.81,0-6.82-.54-13.64-1.1-20.46-1.63-1.89-.15-3.36-.83-3.94-2.77-.55-1.87.41-3.18,1.73-4.32,5.57-4.78,11.15-9.56,16.88-14.47m-35.26-25.6c-.23.67-.41,1.28-.66,1.86-2.54,6.12-5.11,12.22-7.64,18.35-.76,1.84-1.73,3.41-3.98,3.38-2.13-.03-3.09-1.54-3.82-3.31-2.56-6.19-5.15-12.36-7.72-18.54-.22-.52-.37-1.07-.59-1.73,8.02-1.94,16.38-1.94,24.4,0m-59.67,25.58c5.94,5.11,11.74,9.97,17.35,15.04.92,1.03,1.33,2.43,1.11,3.8-.46,1.24-1.5,2.17-2.78,2.5-7.65.84-15.33,1.41-23.28,2.09.7-8.29,3.3-16.31,7.6-23.43m30.93,56.61c-1.55,7.52-3.4,14.99-5.18,22.62-7.64-3.26-14.44-8.2-19.9-14.46,2.1-1.29,4.1-2.53,6.11-3.76,4.42-2.7,8.85-5.4,13.28-8.09,1.4-.85,3.05-1.21,4.2,0,.87.92,1.73,2.59,1.49,3.71m38.31,22.61c-.63-2.6-1.25-5.07-1.85-7.56-1.11-4.62-2.21-9.24-3.31-13.86-.43-1.83-.53-3.63,1.23-4.89,1.74-1.25,3.38-.63,5.01.37,6.19,3.8,12.39,7.57,18.77,11.46-5.46,6.24-12.24,11.18-19.85,14.47m20.53-22.72c-5.42-3.3-10.79-6.68-16.26-9.89-6.81-3.99-14.93-.87-16.69,6.49-.41,1.97-.39,4,.06,5.96,1.56,7.25,3.35,14.45,5.06,21.67.06.27.09.54.16.98-9.6,2.76-19.79,2.75-29.38-.01,1.7-7.15,3.46-14.12,4.96-21.14.63-2.36.77-4.82.43-7.23-1.54-7.49-9.84-10.77-16.71-6.73-6.03,3.54-11.95,7.26-17.92,10.9-.67.41-1.35.81-2.23,1.33-5.5-8.32-8.64-17.97-9.09-27.93,2.94-.26,5.84-.54,8.74-.78,4.96-.42,9.92-.79,14.88-1.24,4.87-.44,8.27-2.99,9.8-7.6,1.54-4.63.21-8.72-3.42-11.92-5.58-4.91-11.26-9.7-16.89-14.54-.32-.28-.63-.58-1.06-.97,6.2-7.78,14.39-13.74,23.69-17.25.35.75.69,1.43.98,2.13,2.73,6.51,5.36,13.06,8.19,19.53,3.28,7.52,12.11,9.62,17.79,4.2,1.4-1.45,2.5-3.15,3.26-5.01,2.72-6.2,5.25-12.48,7.86-18.73.27-.65.57-1.29.94-2.12,9.35,3.51,17.57,9.49,23.78,17.3-5.87,5.04-11.61,9.97-17.36,14.9-3.55,3.04-5.36,6.72-4.3,11.47.93,4.61,4.76,8.07,9.44,8.54,6.89.67,13.8,1.17,20.7,1.75,1.13.1,2.26.24,3.35.35.43,7.9-3.84,21.16-9,27.89-1.24-.75-2.51-1.51-3.78-2.28" fill="#fff"/>
      <path id="_패스_1481" data-name="패스 1481" d="m86.31,70.94c-8.14-.01-14.75,6.58-14.76,14.71s6.58,14.75,14.71,14.76,14.75-6.58,14.76-14.71h0c-.01-8.13-6.59-14.72-14.71-14.76m-.06,22.1c-4.06-.02-7.34-3.34-7.32-7.4.02-4.06,3.34-7.34,7.4-7.32,4.02.02,7.28,3.27,7.32,7.29.04,4.07-3.23,7.4-7.3,7.43-.03,0-.07,0-.1,0" fill="#fff"/>
      <rect id="_사각형_494" data-name="사각형 494" width="172" height="172" fill="none"/>
    </g>
  </g>
</svg>