<?xml version="1.0" encoding="UTF-8"?>
<svg id="Layer_2" data-name="Layer 2" xmlns="http://www.w3.org/2000/svg" viewBox="0 0 277 323">
  <g id="Logo">
    <g id="symbol_18_01_0005_02" data-name="symbol 18 01 0005 02">
      <path id="_패스_1208" data-name="패스 1208" d="m47.58,310.84c-.51,0-1.01-.05-1.51-.14-3.37-.64-4.17-2.94-5.11-5.61-.86-2.46-1.83-5.24-4.92-7.71-4.56-3.65-14.84-7.46-17.63-7.88-1.1-.08-2.14-.52-2.97-1.26-.52-.53-.76-1.26-.65-1.99.36-3.28.4-171.95.06-182.31v-.14c-.11-3.04-.03-6.08.23-9.11.32-3.66.88-7.29,1.7-10.86,2.44-10.2,7.77-18.92,10.74-23.21,5.57-7.93,12.33-14.96,20.04-20.83,1.98-1.52,4.06-3.01,6.19-4.42,7.85-5.25,16.25-9.62,25.05-13.03,13.99-5.39,28.67-8.79,43.6-10.11,8.13-.69,16.3-.84,24.45-.44,9.32.41,18.58,1.63,27.68,3.65,8.26,1.82,16.35,4.34,24.19,7.52,8.95,3.65,17.47,8.26,25.42,13.75l.5.35c.25.14.33.45.2.69-.04.08-.11.15-.19.19-.38.24-.86.24-1.24,0l-.49-.34c-7.84-5.41-16.25-9.96-25.07-13.56-7.73-3.14-15.7-5.61-23.85-7.41-8.97-1.99-18.09-3.2-27.27-3.6-8.04-.39-16.1-.25-24.12.43-14.72,1.3-29.19,4.66-42.98,9.97-8.68,3.37-16.96,7.68-24.69,12.85-2.1,1.39-4.15,2.86-6.1,4.36-7.6,5.79-14.26,12.72-19.75,20.53-2.92,4.23-8.18,12.83-10.58,22.87-.81,3.53-1.36,7.12-1.68,10.73-.26,2.99-.33,6-.23,9v.14c.35,10.37.3,179.15-.05,182.42-.08.43.05.88.35,1.2.53.42,1.17.68,1.84.73,3.07.47,13.75,4.39,18.61,8.28,2.57,2.14,4.43,5.01,5.31,8.24.95,2.72,1.6,4.27,3.85,4.7.77.13,1.55.13,2.32,0h.08c5.45-.53,10.94-.61,16.41-.24,2.66.11,5.41.22,8.09.22h79.52s72.99.02,72.99.02h1.66c.34-.01.67-.08.99-.21.43-.24.74-.65.85-1.13.43-1.5,3.49-5.34,9.35-11.77.33-.3.81-.37,1.21-.18.41.19.52.58.26.87-7.05,7.73-8.83,10.42-9.09,11.3-.21.85-.79,1.56-1.57,1.94-.93.38-1.93.52-2.93.44-12.49,0-146.45-.02-153.24-.02h0c-2.73,0-5.51-.11-8.19-.22-5.33-.36-10.69-.29-16.01.21h-.08c-.52.08-1.04.12-1.56.13" fill="#fff"/>
      <path id="_패스_1209" data-name="패스 1209" d="m239.51,297.35c-.2,0-.4-.05-.57-.15-.26-.11-.38-.42-.26-.68.04-.08.09-.15.17-.21,1.59-1.32,3.33-2.44,5.19-3.35,1.31-.64,8.13-3.9,13.16-4.7.67-.06,1.31-.3,1.84-.71.33-.42.47-.95.4-1.48-.02-25.63-.02-51.26-.02-76.88,0-35.32-.01-71.85-.05-107.77.02-4.81-.42-9.61-1.32-14.34-2.08-10.82-7.1-21.21-14.9-30.89-5.71-6.97-12.35-13.11-19.74-18.25-.25-.14-.33-.45-.2-.69.04-.08.11-.15.19-.19.38-.24.86-.24,1.24,0,7.5,5.22,14.24,11.45,20.03,18.52,7.92,9.81,13.01,20.36,15.12,31.34.91,4.78,1.36,9.64,1.34,14.51.04,35.92.05,72.45.05,107.77,0,25.63.01,51.25.02,76.88.09.81-.18,1.62-.73,2.22-.81.67-1.8,1.09-2.84,1.2-4.86.78-11.82,4.14-12.6,4.52-1.74.85-3.37,1.9-4.85,3.13-.19.15-.43.22-.67.22" fill="#fff"/>
      <path id="_패스_1210" data-name="패스 1210" d="m237.45,316.67H38.85c-.34.02-.66-.14-.84-.43-.34-.84-.52-1.73-.53-2.63-.02-.65-.12-1.3-.31-1.92-2.84-8.19-9.66-13.52-20.85-16.3-1.28-.28-2.57-.46-3.88-.53-1.8-.08-3.59-.39-5.32-.92-.24-.06-.43-.26-.48-.51-.17-.09-.29-.27-.3-.47v-36.22c0-52.82,0-105.64.01-158.46-.04-4.74.49-9.47,1.57-14.09,1.23-5,2.96-9.87,5.17-14.52,8.08-17.16,22.27-31.72,42.16-43.28,15.78-8.99,33.01-15.13,50.91-18.14,7.69-1.43,15.48-2.3,23.3-2.61,11.02-.49,22.07.01,33,1.51,8.14,1.1,16.18,2.76,24.09,4.97,20.06,5.8,37.22,14.55,51,26.01,11.54,9.6,20.16,20.49,25.63,32.39,2.52,5.58,4.37,11.44,5.5,17.46.59,3.62.82,7.28.68,10.94,0,.56,0,1.11,0,1.67-.03,63.37-.02,127.4,0,187.16,0,.83.07,1.68.15,2.51.05.55.1,1.1.13,1.65.09,1.71-1.13,2.61-3.72,2.77-11.16.66-19.49,4.75-24.76,12.16-2.03,2.61-3.04,5.88-2.84,9.19,0,.19-.08.36-.24.47-.19.13-.41.2-.64.2m-197.93-1.25h197.02c-.04-3.31,1.04-6.54,3.06-9.17,5.56-7.82,14.37-12.14,26.18-12.84,1.86-.11,2.16-.56,2.11-1.47-.03-.54-.08-1.08-.12-1.62-.07-.84-.15-1.72-.15-2.58-.01-59.76-.02-123.79,0-187.16,0-.56,0-1.12,0-1.68.14-3.6-.08-7.21-.66-10.76-1.12-5.94-2.94-11.73-5.43-17.24-5.39-11.74-13.9-22.49-25.29-31.97-13.6-11.31-30.53-19.95-50.33-25.67-7.81-2.18-15.75-3.81-23.79-4.9-10.79-1.48-21.69-1.97-32.57-1.49-7.7.31-15.38,1.17-22.96,2.58-17.66,2.98-34.66,9.04-50.23,17.9-19.64,11.41-33.64,25.78-41.61,42.71-2.18,4.6-3.89,9.4-5.1,14.34-1.07,4.55-1.59,9.2-1.55,13.88-.01,52.82-.02,105.64-.01,158.46v36.14c1.48.42,3.01.66,4.55.73,1.43.08,2.85.28,4.25.59,11.8,2.93,18.98,8.55,21.98,17.18.22.7.33,1.43.35,2.16.02.63.11,1.26.28,1.87" fill="#fff"/>
      <path id="_패스_1211" data-name="패스 1211" d="m56.5,157.81c.38-15.74,1.91-31.24,7.15-46.17,9.98-28.46,30.22-44.51,59.87-48.68,17.28-2.43,34.47-1.65,50.8,4.99,24.5,9.95,38.81,28.3,42.24,54.56,1.59,12.22-1.63,23.15-12.3,30.67-6.12,4.32-13.31,5.57-20.59,6.4-4.97.57-9.96,1.12-14.87,2.05-2.45.53-4.8,1.43-6.97,2.69-3.98,2.04-6.41,6.21-6.24,10.68-.06,11.26,2.08,22.26,3.83,33.31.48,2.87.57,5.8.28,8.7-.8,6.95-5.58,9.82-12.17,7.48-4.93-1.75-9.91-3.17-15.18-2.29-2.61.44-5.4.85-7.68,2.08-6.05,3.18-11.92,6.67-17.6,10.47-5.86,3.99-9.23,9.99-11.42,16.65-.7,2.14-1.29,4.33-2.19,6.39-1.29,2.93-3.15,3.22-5,.64-3.65-5.08-7.43-10.11-10.56-15.51-10.83-18.7-16.76-39.06-19.37-60.4-1.01-8.19-1.37-16.47-2.03-24.7m46.36,18.61l.05-.44c1.08.07,2.17.06,3.25-.02,4.19-.59,8.49-.85,12.52-2.02,4.67-1.35,5.9-5.19,3.68-9.54-.46-.89-1-1.73-1.61-2.52-8.78-11.31-27.5-11.04-35.93.49-4.19,5.74-2.66,10.6,4.22,12.18,4.51,1.04,9.21,1.27,13.82,1.87" fill="#fff"/>
      <rect id="_사각형_606" data-name="사각형 606" width="277" height="323" fill="none"/>
    </g>
  </g>
</svg>