<?xml version="1.0" encoding="UTF-8"?>
<svg id="_레이어_2" data-name="레이어 2" xmlns="http://www.w3.org/2000/svg" viewBox="0 0 148 56">
  <g id="Logo">
    <g id="symbol_08_03_0001_01" data-name="symbol 08 03 0001 01">
      <rect id="_사각형_82" data-name="사각형 82" width="148" height="56" fill="none"/>
      <path id="_패스_607" data-name="패스 607" d="M67.94,39.62c-15.88,6.1-30.92,12.81-47.23,15.65-4.58,.8-9.21,1.16-13.79-.1-2.58-.56-4.8-2.2-6.1-4.5-.92-2.03-1.07-4.32-.41-6.45,1.51-5.58,7.52-9.42,7.52-9.43h0s-3.61,5.06-3.19,10.26c.02,1.32,.47,2.59,1.29,3.62,.98,1.07,2.34,1.71,3.78,1.78,3.29,.23,6.6,.07,9.86-.46,11.29-1.96,22.01-5.89,32.69-9.91,3.4-1.28,6.77-2.65,10.13-4.04,.67-.4,1.53-.23,1.99,.4,.95,1.04,2.08,1.93,3.45,3.18Z" fill="#fff"/>
      <path id="_패스_608" data-name="패스 608" d="M143.59,6.8c-2.36-2.05-5.21-3.44-8.27-4.05-.91-.16-1.83-.25-2.76-.26-1.7-.04-3.98,.14-9.22,1.9-6,2.02-9.01,3.02-9.58,3.27-1.03,.48-2.17,.69-3.31,.63-1.2-.12-2.36-.55-3.36-1.23C101.21,3.08,94.41,.68,87.34,.08c-3.56-.24-7.1-.02-10.2,2.02-2.16,1.42-2.23,3.15-.34,4.88,.98,.89,1.98,1.75,2.97,2.63,3,2.66,5.99,5.32,9.17,8.14-2.52,.98-4.83,1.84-7.1,2.8-1.04,.49-2.24,.52-3.31,.11-5.48-1.97-11.36-2.53-17.11-1.62-1.47,.04-2.63,1.27-2.59,2.74,.02,.75,.36,1.46,.93,1.95,3.4,3.77,6.86,7.48,10.47,11.04,3.69,3.9,9.15,5.6,14.4,4.48,2.87-.54,5.67-1.44,8.32-2.67,.33-.17,6.5-2.45,18.85-7.03,2.15-.8,14.53-5.35,28.88-11.12,2.9-1.17,7.1-2.91,7.33-5.69,.16-2.07-1.95-3.86-4.4-5.94Zm-30,11.47l-1.22,.47c-.98,.38-2.07-.11-2.45-1.09l-.47-1.22c-.37-.98,.11-2.07,1.09-2.45l1.22-.47c.98-.38,2.07,.11,2.45,1.09l.47,1.22c.38,.98-.11,2.07-1.09,2.45Zm7.13-2.75l-1.22,.47c-.98,.37-2.07-.11-2.45-1.09l-.47-1.22c-.38-.98,.11-2.07,1.09-2.45l1.22-.47c.98-.38,2.07,.11,2.45,1.09l.47,1.22c.38,.98-.11,2.08-1.09,2.45h0Zm6.89-2.66l-1.22,.47c-.98,.38-2.07-.11-2.45-1.09l-.47-1.22c-.38-.98,.11-2.07,1.09-2.45l1.22-.47c.98-.37,2.07,.11,2.45,1.09l.47,1.22c.38,.98-.11,2.08-1.09,2.45h0Z" fill="#fff"/>
    </g>
  </g>
</svg>