<?xml version="1.0" encoding="UTF-8"?>
<svg id="_레이어_2" data-name="레이어 2" xmlns="http://www.w3.org/2000/svg" viewBox="0 0 136 110">
  <g id="Logo">
    <g>
      <polygon points="56.39 62.25 48.56 55.11 78.46 22.91 86.3 30.04 56.39 62.25" fill="#fff"/>
      <polygon points="115.82 69.99 107.69 62.58 126.97 41.82 135.1 49.23 115.82 69.99" fill="#fff"/>
      <polygon points="77.57 61.81 84.77 54.05 119.12 85.36 111.92 93.11 77.57 61.81" fill="#fff"/>
      <polygon points="22.49 89.37 26.38 82 59.01 98.89 55.12 106.26 22.49 89.37" fill="#fff"/>
      <rect x="74.67" y="1.74" width="18.45" height="106.8" fill="#fff"/>
      <g>
        <polygon points="66.39 74.96 66.39 1.74 47.94 1.74 47.94 65.92 66.39 74.96" fill="#fff"/>
        <polygon points="47.94 77.68 47.94 108.55 66.39 108.55 66.39 86.71 47.94 77.68" fill="#fff"/>
      </g>
      <g>
        <polygon points="100.88 37.49 100.88 108.55 119.33 108.55 119.33 24.41 100.88 37.49" fill="#fff"/>
        <polygon points="119.33 11.44 119.33 1.74 100.88 1.74 100.88 24.53 119.33 11.44" fill="#fff"/>
      </g>
      <g>
        <path d="M9.2,28.44L.94,37.33l19.92,18.15v53.06h18.45V55.59c-10.04-9.05-20.08-18.1-30.12-27.15Z" fill="#fff"/>
        <polygon points="20.87 1.74 20.87 22.77 39.32 39.58 39.32 1.74 20.87 1.74" fill="#fff"/>
      </g>
      <rect width="136" height="110" fill="none"/>
    </g>
  </g>
</svg>