<?xml version="1.0" encoding="UTF-8"?>
<svg id="_레이어_2" data-name="레이어 2" xmlns="http://www.w3.org/2000/svg" viewBox="0 0 292 203">
  <g id="Logo">
    <g id="symbol_06_01_0005_01" data-name="symbol 06 01 0005 01">
      <rect id="_사각형_318" data-name="사각형 318" width="292" height="203" fill="none"/>
      <rect id="_사각형_314" data-name="사각형 314" x="138.89" y="79.04" width="15.55" height="16.59" rx="1.56" ry="1.56" fill="#fff"/>
      <rect id="_사각형_315" data-name="사각형 315" x="138.89" y="176.98" width="15.55" height="16.59" rx="1.56" ry="1.56" fill="#fff"/>
      <rect id="_사각형_316" data-name="사각형 316" x="47.92" y="131.07" width="15.55" height="16.59" rx="1.56" ry="1.56" fill="#fff"/>
      <rect id="_사각형_317" data-name="사각형 317" x="228.85" y="131.07" width="15.55" height="16.59" rx="1.56" ry="1.56" fill="#fff"/>
      <path id="_패스_1167" data-name="패스 1167" d="M279.82,76.64c-13.38-6.81-26.18-13.48-39.17-19.73-2.59-1.12-5.51-1.16-8.13-.13-12.5,5.94-24.71,12.49-37.15,18.57-1.65,.67-2.99,1.95-3.74,3.57v-8.91c.04-13.07,.11-26.14-.11-39.2-.02-1.56-1.88-3.71-3.43-4.52-12.57-6.51-25.2-12.92-38-18.96-2.49-.99-5.26-.96-7.73,.08-12.32,5.83-24.36,12.22-36.64,18.14-3.31,1.6-4.59,3.48-4.54,7.18,.21,13.44,.08,26.88,.05,40.33,0,1.29-.24,2.57-.42,4.4-13.83-6.93-27.01-13.73-40.39-20.07-2.59-1.1-5.51-1.15-8.13-.12-12.5,5.86-24.71,12.32-37.15,18.32-3.37,1.62-4.42,3.73-4.37,7.33,.19,13.09,.06,26.19,.1,39.28,0,1.62,.29,3.24,.51,5.58,13.93-6.98,27.08-13.45,40.1-20.17,3.25-1.68,5.89-1.88,9.25-.13,12.08,6.3,24.27,12.4,36.56,18.29,3.23,1.55,4.1,3.5,4.05,6.88-.19,12.92-.1,25.84-.09,38.76,0,1.8,.17,3.6,.31,6.19,13.95-7.02,27.07-13.51,40.06-20.25,3.3-1.71,6.04-1.78,9.31,0,6.76,3.67,13.67,7.04,20.55,10.47,6.35,3.17,12.75,6.26,20.19,9.9,.01-7.83,.02-15.65,.02-23.46,0-8.67,0-17.35,0-26.03,13.89-7.06,27.02-13.61,40.02-20.41,3.25-1.7,5.89-1.91,9.25-.13,12.08,6.39,24.27,12.57,36.56,18.54,.85,.39,1.62,.92,2.29,1.57,.2,0,.4-.05,.58-.14,1.01-.53,.97-2.45,.96-3.05-.12-7.3,.27-14.61,.09-21.91-.2-7.65,.55-17.74,.11-21.77,0-.05-.38-3.46-.38-3.46h0l-1.37-.83Zm-89.22,6.77c-.14,1.78-.22,14.35-.17,44.7v.02c-.8-.98-1.78-1.81-2.89-2.42-9.41-4.99-19.44-8.98-28.39-14.66-9.38-5.97-17.2-5.2-26.37,.45-9.72,5.99-20.4,10.43-31.03,15.72-.21-.88-.37-1.76-.46-2.66-.02-14.49-.15-28.98,.13-43.46,.03-1.65,1.97-3.92,3.61-4.78,12.39-6.46,24.86-12.78,37.49-18.76,2.47-.96,5.22-.94,7.68,.06,7.35,3.23,14.42,7.09,21.61,10.69,.11,.05,6.06,3.02,17.97,8.94l.63,.32c.1,.69,.19,1.57,.24,2.59,.05,1.09,.03,2.18-.07,3.26h0Z" fill="#fff"/>
    </g>
  </g>
</svg>