<?xml version="1.0" encoding="UTF-8"?>
<svg id="Layer_2" data-name="Layer 2" xmlns="http://www.w3.org/2000/svg" viewBox="0 0 212 212">
  <g id="Logo">
    <g id="symbol_11_02_0007_01" data-name="symbol 11 02 0007 01">
      <path id="_패스_953" data-name="패스 953" d="m105.85,6c-48.17,0-89.51,34.29-98.42,81.63h.1c5.41-.04,9.83,4.31,9.88,9.72.04,5.41-4.31,9.83-9.72,9.88-.66,0-1.31-.06-1.96-.18.06,7.75,1.03,15.47,2.87,23,1.12-.82,2.25-1.7,3.38-2.64,2.32-1.92,5.75-1.59,7.66.72,1.9,2.3,1.6,5.71-.69,7.63-2.24,1.87-4.58,3.61-7.01,5.21,19.24,51.85,76.87,78.29,128.72,59.05,51.85-19.24,78.29-76.87,59.05-128.72C185.16,32.05,147.72,6.01,105.85,6m29.39,81.63c5.41,0,9.8,4.38,9.8,9.8s-4.38,9.8-9.8,9.8-9.8-4.38-9.8-9.8h0c0-5.42,4.38-9.8,9.8-9.8m-48.98,9.8c0,5.41-4.39,9.79-9.8,9.79s-9.79-4.39-9.79-9.8c0-5.41,4.39-9.79,9.79-9.79.03,0,.07,0,.1,0,5.37.05,9.69,4.42,9.69,9.79m58.45,38.33c-13.53,11.29-26.67,15.06-38.18,15.06-15.05,0-27.32-6.44-34.08-10.95-1.99-1.3-3.89-2.74-5.68-4.31-2.18-2.07-2.26-5.52-.19-7.69,2.04-2.14,5.41-2.26,7.6-.28.14.13.66.6,1.51,1.27,6.52,5.2,32.79,22.96,62.05-1.46,2.32-1.92,5.75-1.59,7.66.72,1.91,2.3,1.6,5.71-.69,7.63" fill="#fff"/>
      <rect id="_사각형_336" data-name="사각형 336" width="212" height="212" fill="none"/>
    </g>
  </g>
</svg>