<?xml version="1.0" encoding="UTF-8"?>
<svg id="_레이어_2" data-name="레이어 2" xmlns="http://www.w3.org/2000/svg" viewBox="0 0 210 246">
  <g id="Logo">
    <g id="symbol_11_02_0003_02" data-name="symbol 11 02 0003 02">
      <rect id="_사각형_265" data-name="사각형 265" width="210" height="246" fill="none"/>
      <path id="_패스_730" data-name="패스 730" d="M137.73,36.53c-.2,17.18-14.73,31.85-31.7,32.03-17.17,.17-32.05-15.09-31.9-32.73,.14-17.48,14.24-31.64,31.73-31.84,17.64-.09,32.08,14.67,31.88,32.55Z" fill="#fff"/>
      <path id="_패스_731" data-name="패스 731" d="M204.46,132.56c-1.42-9.08-4.15-17.92-8.08-26.23-4.33-9.12-10.62-17.17-18.43-23.58-7.42-5.96-18.92-13.86-28.79-13.31-8.28,.46-14.88,6.71-22.12,10.74-12.9,7.01-28.42,7.22-41.51,.56-6.95-3.62-13.17-9.19-20.92-10.38-5.82-.89-11.75,.86-17.07,3.39-15.6,7.41-27.44,21.53-34.11,37.47s-8.48,33.59-7.46,50.83c1.03,17.46,5.11,35.25,15.27,49.48,9.85,13.79,24.87,23.34,40.98,28.57,6.17,2,12.74,3.42,19.12,2.28,7.86-1.45,14.51-6.65,17.83-13.92,3.18-7.35,2.4-15.81-2.07-22.45-3.37-4.85-8.45-8.15-12.93-11.98-7.97-6.81-14.35-15.8-16.7-26.02-3.97-17.31,5.34-36.77,21.32-44.52s37.01-3.04,48.14,10.79c11.14,13.83,11.27,35.4,.3,49.37-8.44,10.74-22.72,17.76-25.85,31.06-2.52,10.7,4.28,22.53,14.53,26.5,9.56,3.7,20.4,1.13,29.82-2.9,12.21-5.23,23.49-12.98,31.89-23.27,15.24-18.66,19.83-44.12,18.4-68.18-.27-4.78-.8-9.55-1.57-14.27Z" fill="#fff"/>
    </g>
  </g>
</svg>