<?xml version="1.0" encoding="UTF-8"?>
<svg id="_레이어_2" data-name="레이어 2" xmlns="http://www.w3.org/2000/svg" viewBox="0 0 286 218">
  <g id="Logo">
    <g id="symbol_10_02_0004_01" data-name="symbol 10 02 0004 01">
      <path id="_패스_1510" data-name="패스 1510" d="m172.67,179.33c-22.28-.12-40.34-18.19-40.13-40.15.21-22.06,18.76-40.44,40.77-40.4,21.81.04,40.57,18.98,40.38,40.78-.19,22.2-18.45,39.89-41.02,39.77" fill="#fff"/>
      <path id="_패스_1511" data-name="패스 1511" d="m279.15,174.81c.06-24.93-.06-49.86.05-74.79.07-15.52-10.3-25.3-24.4-24.39-.34.02-.67.03-1.01.05h-.11c-6.22.32-12.48.03-18.72,0-.13,0-.24,0-.37,0h-122.93c-.11,0-.21,0-.31,0-3.94.02-7.89,0-11.83,0-2.52,0-5.06.16-7.57-.02h-5.13c-11.31,1.12-19.65,10.06-19.69,23.52-.09,30.27-.24,60.55.06,90.82.15,14.9,9.44,23.45,24.28,23.46,27.35.01,54.69.01,82.04,0,27.6,0,55.2,0,82.8-.02,12.33-.02,20.95-7.8,22.47-19.97.77-6.21.35-12.45.37-18.67m-106.39,16.39c-26.88.59-51.66-21.52-51.92-51.86-.26-29.02,23.59-52.9,52.28-52.43,30.48.5,52.1,23.39,52.29,52.41.2,29.06-23.4,52.02-52.65,51.88m77.23-79.75c-3.49-.02-6.53-3.28-6.57-7.05-.19-3.64,2.6-6.74,6.24-6.93.09,0,.19,0,.28,0,3.76-.11,6.9,2.84,7.01,6.6,0,.11,0,.21,0,.32.06,3.85-3.02,7.01-6.87,7.07-.03,0-.06,0-.1,0" fill="#fff"/>
      <path id="_패스_1512" data-name="패스 1512" d="m50.02,97.86s.07,8.49.16,21.82c.79,9.3,1.16,18.62,1.43,27.94.78,7.06,1.57,14.12,2.34,21.18.41-21.77,1.5-60.13,4.39-78.03.58-3.62,1.9-10.45,7.03-16.53,2.83-3.38,6.37-6.09,10.36-7.96,5.45-2.39,11.5-3.53,17.38-4.76,4.44-.93,9.03-1.1,13.55-1.6-6.23-.94-12.47-1.36-18.66-2.12-7.58-.93-14.42-3.19-19.82-7.94-2.26-2.04-4.2-4.4-5.77-7-1.11-1.92-1.98-3.97-2.6-6.1-.49-1.09-.88-2.23-1.17-3.39-1.17-7.59-2.25-15.19-3.38-22.79-.28-1.88-.65-3.74-.97-5.61l-.92.14c-.1,2.23-.02,4.49-.34,6.69-1.16,8.09-1.88,16.31-3.84,24.21-2.27,9.14-7.78,16.37-16.91,19.77-4.85,1.81-10.05,2.74-15.16,3.77-3.73.75-7.55,1.02-11.33,1.51,0,.27,0,.54,0,.81,4.14.41,8.27.87,12.41,1.22,7.67.65,12.41,2.01,17.88,5.09,4.25,2.37,7.82,5.8,10.38,9.94,4.86,8.44,3.54,19.7,3.54,19.7" fill="#fff"/>
      <rect id="_사각형_552" data-name="사각형 552" width="286" height="218" fill="none"/>
    </g>
  </g>
</svg>