<?xml version="1.0" encoding="UTF-8"?>
<svg id="_레이어_2" data-name="레이어 2" xmlns="http://www.w3.org/2000/svg" viewBox="0 0 202 195">
  <g id="Logo">
    <g id="symbol_13_04_0004_01" data-name="symbol 13 04 0004 01">
      <path id="_패스_1033" data-name="패스 1033" d="m129.52,16.9c4.35,4.28,7.74,9.43,9.96,15.11,1,2.49.75,4.11-1.75,5.56-24.91,14.46-51.39,18.45-79.43,11.97-3.24-.75-3.39-2.67-3.24-5.28.99-17.49,14.59-34.1,31.76-38.66,16.39-4.35,30.5-.06,42.7,11.3" fill="#fff"/>
      <path id="_패스_1034" data-name="패스 1034" d="m129.5,79.18c-12.52,11.07-26.96,15.4-43.36,10.49-16.58-4.96-26.38-16.5-30.46-33.2-.89-3.66.48-3.77,3.34-3.09,12.66,3,25.76,3.65,38.65,1.92,14.01-1.88,27.53-6.46,39.8-13.48,4.03-2.26,4.32-2.03,4.71,2.49,1.16,13.52-3.67,24.82-12.68,34.86" fill="#fff"/>
      <path id="_패스_1035" data-name="패스 1035" d="m49.36,178.81c2.15.03,4.3-.2,6.39-.69.86-.2,1.34-.11,1.54.89.2.97-.02,1.38-1.01,1.58-7.26,1.51-14.8.84-21.68-1.92-3.31-1.33-6.42-3.11-9.25-5.3-.4-.31-.82-1-1.4-.19-.55.77.19,1.01.6,1.33,2.83,2.24,5.97,4.05,9.33,5.38.96.38,1.12.82.74,1.72-1.01,2.35-.45,2.35-2.89,1.27-10.02-4.3-18.02-12.26-22.37-22.26-.31-.68-.33-1.62-1.54-1.42-.38.06-.48-.53-.61-.89-2.3-6.46-3.04-13.36-2.17-20.16.85-7.08,3.46-13.83,7.57-19.65,8.73-12.5,23.33-19.56,38.55-18.66.64.03,1.23.03,1.32.91.04.44.47.43.82.46,2.86.28,5.69.89,8.41,1.82.74.26,1.14.12,1.36-.66.24-.85.58-1.66.85-2.51.22-.7.58-.87,1.3-.6,5.08,1.89,9.79,4.65,13.91,8.17,6.32,5.2,11.11,12.02,13.85,19.72,5.61,16.02,3.58,31.11-6.48,44.81-8.03,10.93-19.07,17.05-32.52,18.79-3.51.41-7.05.43-10.56.04-.82-.08-1.26-.36-1.09-1.32.24-1.32.4-2.65.55-3.98.08-.74.43-.96,1.15-.89,10.29,1.2,20.64-1.55,28.98-7.7,1.93-1.45,3.75-3.04,5.45-4.77.57-.56.52-.95-.13-1.34-.76-.45-.72-.93-.16-1.57,5.22-5.95,8.48-13.38,9.31-21.26.43-3.58.33-7.21-.3-10.76-.18-.98-.36-1.87,1.08-1.92.57-.02.65-.39.53-.9-1.25-5.51-3.64-10.71-7.01-15.25-.42-.57-.79-.55-1.35-.18-2.08,1.41-2.04,1.37-.72,3.37,7.08,10.74,8.46,22.21,4.27,34.36-.22.64-.39,1.28-1.34.83-.76-.36-1.41-.52-.99-1.7,3.21-9.08,3.04-18.09-1.05-26.85-5.13-10.96-13.75-17.78-25.63-19.94-12.19-2.22-22.89,1.25-31.64,10.05-5.78,5.69-9.26,13.31-9.8,21.4-.99,13.12,3.86,23.72,14.3,31.63,6.04,4.57,13,6.77,21.54,6.72m-23.88-66.71c-2.62,1.84-4.98,4.04-7,6.54-.29.34-.52.64-.02,1.04s.76.22,1.12-.19c1.79-2.09,3.77-4,5.92-5.71.3-.18.52-.45.64-.78.38-.05.74-.2,1.04-.45,4.77-3.32,10.26-5.46,16.02-6.27.53-.07.89-.22.78-.85-.1-.57-.48-.59-.95-.52-6.38.85-12.42,3.33-17.57,7.2" fill="#fff"/>
      <path id="_패스_1036" data-name="패스 1036" d="m151.26,99.12c-24.18,0-43.77,19.6-43.77,43.78,0,24.18,19.6,43.77,43.78,43.77s43.77-19.6,43.77-43.77c0-24.18-19.6-43.77-43.77-43.77m.73,57.71c-13.6,0-24.62-6.24-24.62-13.93s11.02-13.93,24.62-13.93,24.62,6.24,24.62,13.93-11.02,13.93-24.62,13.93" fill="#fff"/>
      <path id="_패스_1037" data-name="패스 1037" d="m161.64,142.9c0,5.33-4.32,9.65-9.65,9.65s-9.65-4.32-9.65-9.65,4.32-9.65,9.65-9.65,9.65,4.32,9.65,9.65h0" fill="#fff"/>
      <rect id="_사각형_396" data-name="사각형 396" width="202" height="195" fill="none"/>
    </g>
  </g>
</svg>