<?xml version="1.0" encoding="UTF-8"?>
<svg id="_레이어_2" data-name="레이어 2" xmlns="http://www.w3.org/2000/svg" viewBox="0 0 233 189">
  <g id="Logo">
    <g id="symbol_18_04_0001_01" data-name="symbol 18 04 0001 01">
      <rect id="_사각형_171" data-name="사각형 171" width="233" height="189" fill="none"/>
      <path id="_패스_475" data-name="패스 475" d="M220.95,27.09c-1.94-2.78-4.12-5.39-6.53-7.78-4.8-4.77-10.41-8.64-16.57-11.44-1.53-.7-3.1-1.32-4.7-1.87-.8-.28-1.62-.49-2.41-.77-.69-.24-1.23-.69-1.94-.9-3.7-1.02-7.52-1.5-11.36-1.44-7.77,.13-15.43,1.83-22.53,4.99-2.14,.92-4.23,1.95-6.27,3.08-12.5,6.93-22.9,17.02-33.14,26.99l-27.3,26.57c-3.22,3.13-6.64,6.68-7.01,11.15-.48,5.81,4.86,10.96,10.64,11.75s11.55-1.88,16.02-5.62,7.96-8.48,11.85-12.83c4.57-5.11,9.96-9.82,16.52-11.83,5.75-1.74,11.94-1.29,17.37,1.26,2.52,1.2,4.88,2.84,7.6,3.45,6.51,1.45,12.54-3.31,18.31-6.66,1.73-1.18,3.76-1.84,5.85-1.9,2.08,.09,4.23,1.58,4.37,3.65s-1.6,3.73-3.28,4.95c-5.35,3.88-11.48,6.56-17.96,7.86-.58,.05-1.13,.28-1.58,.65-.98,1-.05,2.65,.85,3.73,11.41,13.76,17.94,30.91,18.58,48.77,13.16-12.96,29.41-23.54,38.04-39.86,7.63-14.74,8.17-32.14,1.48-47.33-1.36-3.03-3-5.92-4.89-8.65Z" fill="#fff"/>
      <path id="_패스_476" data-name="패스 476" d="M153.12,70.62c-2.57-2.27-5.72-3.78-9.1-4.35-4.84-.59-9.64,1.71-13.38,4.85s-6.69,7.1-10.03,10.66c-5.16,5.49-11.46,10.11-18.7,12.16s-15.49,1.25-21.57-3.19-9.41-12.79-6.99-19.93c1.54-4.54,5.05-8.09,8.45-11.47l25.12-24.96c1.11-1.11,2.31-2.42,2.22-3.99-.17-1.09-.68-2.1-1.44-2.9-6.83-8.55-15.42-15.53-25.2-20.45C73.69,2.7,63.82,.98,54.06,2.11c-3.67,.38-27.8,2.92-41.58,24.27C.44,45.03,4.88,64.68,6.47,71.71c0,0,3.79,16.8,23.49,35.98,.55,.54,1.92,1.86,3.57,1.68,1.06-.23,2-.81,2.69-1.65,7.67-7.58,14.98-17.69,25.75-18.09,8.68-.32,16.51,6.57,19.32,14.8,.73,2.15,1.31,4.57,3.14,5.93,1.44,1.06,3.32,1.21,5.07,1.58,6.07,1.37,11.02,5.73,13.14,11.57,1.1,3.13,1.61,6.95,4.49,8.61,1.36,.62,2.8,1.01,4.28,1.18,6.62,1.45,11.93,6.37,13.87,12.85,.66,2.3,.99,4.94,2.86,6.43,1.31,.83,2.78,1.37,4.31,1.6,4.12,1.07,7.85,3.3,10.74,6.43,.55,.78,1.34,1.36,2.25,1.67,1.17,.22,2.26-.59,3.17-1.35,8.01-6.78,15.45-14.22,22.24-22.23,2.87-3.39,5.67-6.97,7.08-11.18,1.85-5.53,1.11-11.6-.3-17.26-3.6-14.32-11.22-27.31-21.98-37.44-.8-.76-1.64-1.5-2.52-2.21ZM55.64,46.93l5.27,4.37c2.8,2.32,3.19,6.48,.88,9.28h0c-2.31,2.8-6.45,3.2-9.25,.89,0,0,0,0-.01,0l-5.61-4.65c-.92-1.01-2.49-1.09-3.51-.16-.17,.16-.32,.34-.44,.54l-4.64,5.62c-2.31,2.8-6.45,3.2-9.25,.89,0,0,0,0-.01,0h0c-2.8-2.32-3.19-6.48-.88-9.28,1.57-1.9,3.13-3.79,4.7-5.69,.58-.55,.86-1.34,.77-2.13-.12-.7-.53-1.32-1.13-1.7l-5.68-4.71c-2.79-2.34-3.15-6.5-.81-9.28,2.31-2.75,6.41-3.14,9.2-.88l5.39,4.47c.64,.62,1.53,.92,2.42,.81,.78-.13,1.48-.57,1.93-1.22l4.46-5.4c2.25-2.86,6.39-3.35,9.25-1.09,2.86,2.25,3.35,6.39,1.09,9.25-.07,.08-.13,.17-.2,.25l-4.51,5.46c-.61,.55-.95,1.34-.92,2.16,.06,.97,.64,1.82,1.51,2.24ZM126.6,114.71c-.17,4.92-2.74,7.86-7.57,8.39-4.49,.49-8.54-3.41-8.7-7.93-.34-4.5,3.03-8.42,7.53-8.76,.11,0,.23-.01,.34-.02,4.59-.05,8.35,3.64,8.4,8.23,0,.03,0,.06,0,.09h0Zm25.26,24.29c.06,4.47-3.51,8.14-7.98,8.2-.13,0-.26,0-.38,0-4.95-.2-7.53-3.18-7.9-7.94-.32-4.39,2.98-8.22,7.37-8.54,.18-.01,.36-.02,.54-.02,4.59,.01,8.32,3.72,8.35,8.31Zm-.58-24.69c.03,4.51-3.89,8.63-8.33,8.27-4.76-.39-7.48-3.23-8.04-7.4-.1-5.31,3.59-9.23,8.09-9.27,4.54-.03,8.25,3.62,8.28,8.17,0,.08,0,.15,0,.23Z" fill="#fff"/>
      <path id="_패스_477" data-name="패스 477" d="M133.72,161.49c-1.96-1.15-3.12-.69-6.15-1.12-3.37-.47-5.7-.8-7.17-2.56-1.4-1.68-.38-2.71-1.78-7.29-.69-2.72-2.02-5.24-3.87-7.35-1.11-1.15-2.41-2.1-3.83-2.83-6.78-3.71-9.4-1.03-12.44-3.8-3.4-3.1-1.11-7.37-5.72-12.11-1.13-1.13-2.39-2.12-3.75-2.95-2.11-1.18-4.35-2.1-6.69-2.74-5.38-1.75-5.8-1.4-6.66-2.4-1.61-1.86-.33-3.28-2.13-7.45-.83-1.91-1.98-3.66-3.4-5.17-1.08-1.27-2.41-2.31-3.9-3.06-2.4-1.04-5.08-1.21-7.59-.49-1.87,.5-3.64,1.33-5.22,2.45-1.56,1.01-3.05,2.12-4.46,3.32-.55,.46-1.7,1.41-2.82,2.5-1.92,1.18-5.32,3.63-5.25,6.72,.1,1.32,.66,2.56,1.59,3.51,3.18,3.61,15.38,17.1,32.18,35.36,4.47,4.87,27.45,29.74,37.46,34.08,1.09,.5,2.26,.79,3.45,.86,4.4,.2,6.32-3.04,16.02-11.78,4.03-3.64,6.09-5.23,6.25-8.03,.08-1.21,.82-4.77-4.14-7.68Z" fill="#fff"/>
    </g>
  </g>
</svg>