<?xml version="1.0" encoding="UTF-8"?>
<svg id="Layer_2" data-name="Layer 2" xmlns="http://www.w3.org/2000/svg" viewBox="0 0 256 256">
  <g id="Logo">
    <g id="symbol_15_04_0004_02" data-name="symbol 15 04 0004 02">
      <path id="_패스_1354" data-name="패스 1354" d="m240.06,213.9h-16.86V41.15h16.86c3.08,0,5.58-2.5,5.58-5.58s-2.5-5.58-5.58-5.58H15.27c-3.08,0-5.58,2.5-5.58,5.58s2.5,5.58,5.58,5.58h16.86v172.75H15.27c-3.08,0-5.58,2.5-5.58,5.58s2.5,5.58,5.58,5.58h224.79c3.08,0,5.58-2.5,5.58-5.58s-2.5-5.58-5.58-5.58m-177.95,0h-18.84V41.15h18.84v172.75Zm119.95,0h-18.84v-61.01c-2.98,5.83-6.73,11.23-11.15,16.06v44.95h-18.84v-31.33c-1.79.81-3.64,1.55-5.58,2.21-1.89-.64-3.76-1.38-5.58-2.21v31.33h-18.84v-44.95c-4.42-4.83-8.17-10.23-11.15-16.06v61.01h-18.83V41.15h18.83v49.03l11.15-6.24v-42.78h18.84v32.24l5.58-3.12,5.58,3.12v-32.24h18.84v42.78l11.15,6.24v-49.03h18.83v172.75Zm29.99,0h-18.84V41.15h18.84v172.75Z" fill="#fff"/>
      <rect id="_사각형_646" data-name="사각형 646" width="256" height="256" fill="none"/>
    </g>
  </g>
</svg>