<?xml version="1.0" encoding="UTF-8"?>
<svg id="Layer_2" data-name="Layer 2" xmlns="http://www.w3.org/2000/svg" viewBox="0 0 134 103">
  <g id="Logo">
    <g id="symbol_03_16_0002_01" data-name="symbol 03 16 0002 01">
      <path id="_패스_821" data-name="패스 821" d="m117.49,32.7c-11.24,10.3-28.7,9.55-39-1.69-6.23-6.79-8.66-16.23-6.48-25.18-1.77-.15-3.55-.25-5.35-.25-33.8,0-61.2,27.39-61.2,61.18,0,10.77,2.84,21.35,8.24,30.68h41.84l-39.18-22.62c-1.43-.82-1.91-2.65-1.09-4.07s2.65-1.91,4.07-1.09l39.18,22.62-22.62-39.18c-.82-1.43-.33-3.25,1.09-4.07s3.25-.33,4.07,1.09l22.62,39.18v-45.25c0-1.65,1.34-2.98,2.98-2.98s2.98,1.34,2.98,2.98v45.24l22.62-39.18c.82-1.43,2.65-1.91,4.07-1.09,1.43.82,1.91,2.65,1.09,4.07h0l-22.62,39.18,39.18-22.62c1.43-.82,3.25-.33,4.07,1.09.82,1.43.33,3.25-1.09,4.07l-39.18,22.62h41.84c11.71-20.22,10.88-45.34-2.13-64.74" fill="#fff"/>
      <rect id="_사각형_157" data-name="사각형 157" width="134" height="103" fill="none"/>
    </g>
  </g>
</svg>