<?xml version="1.0" encoding="UTF-8"?>
<svg id="Layer_2" data-name="Layer 2" xmlns="http://www.w3.org/2000/svg" viewBox="0 0 161 232">
  <g id="Logo">
    <g id="symbol_14_01_0001_02" data-name="symbol 14 01 0001 02">
      <rect id="_사각형_123" data-name="사각형 123" width="161" height="232" fill="none"/>
      <path id="_패스_349" data-name="패스 349" d="m100.75,50.48c-.2-.12-.41-.25-.61-.37V9.5c-.04-4.6-3.81-8.3-8.41-8.25h-21.6c-4.6-.04-8.37,3.65-8.41,8.25v40.61c-.2.12-.41.25-.61.37-17.44,10.4-38.77,11.7-59.15,12.72l4.02,81.93c.35,7.04.79,14.18,2.58,21.03,3.79,14.49,16.58,28.79,27.53,38.66,11.94,10.76,25.92,19,41.12,24.22,1.21.44,2.46.78,3.73,1.02,1.27-.23,2.52-.57,3.73-1.02,15.2-5.22,29.19-13.46,41.12-24.22,10.95-9.87,23.74-24.17,27.53-38.66,1.79-6.85,2.23-13.99,2.58-21.03,1.34-27.31,2.68-54.62,4.02-81.93-20.38-1.02-41.71-2.32-59.15-12.72Z" fill="#fff"/>
    </g>
  </g>
</svg>