<?xml version="1.0" encoding="UTF-8"?>
<svg id="Layer_2" data-name="Layer 2" xmlns="http://www.w3.org/2000/svg" viewBox="0 0 87 114">
  <g id="Logo">
    <g id="symbol_16_03_0001_02" data-name="symbol 16 03 0001 02">
      <path id="_패스_369" data-name="패스 369" d="m28.21,78.88c-1.07-.73-2.17-1.41-3.3-2.05-6.13-3.48-12.96-5.55-19.99-6.06v5.52c7.15.59,14.03,3.01,19.99,7.02,1.14.76,2.25,1.57,3.3,2.44,3.81,3.12,7.05,6.88,9.57,11.11l5.14-2.11c-3.64-6.33-8.67-11.75-14.71-15.86" fill="#fff"/>
      <path id="_패스_370" data-name="패스 370" d="m4.91,94.75v15.64l15.58-6.42c-3.79-4.99-9.38-8.3-15.58-9.22" fill="#fff"/>
      <path id="_패스_371" data-name="패스 371" d="m28.21,52.99c-1.09-.45-2.19-.87-3.3-1.26-6.44-2.28-13.17-3.6-19.99-3.94v20.22c6.99.48,13.8,2.42,19.99,5.68,1.13.59,2.23,1.23,3.3,1.9,7.17,4.5,13.11,10.71,17.28,18.08l18.76-7.72c-7.75-14.89-20.51-26.57-36.03-32.97" fill="#fff"/>
      <path id="_패스_372" data-name="패스 372" d="m4.91,34.16v10.89c6.81.32,13.54,1.59,19.99,3.78,1.11.38,2.21.78,3.3,1.21,16.66,6.57,30.37,18.96,38.59,34.87l14.35-5.91V2.77L4.91,34.16Z" fill="#fff"/>
      <path id="_패스_368" data-name="패스 368" d="m28.21,89.4c-1.05-.97-2.15-1.88-3.3-2.72-5.83-4.33-12.75-6.97-19.99-7.61v12.92c7.31.98,13.9,4.93,18.2,10.92l1.79-.73,3.3-1.36,7-2.88c-1.93-3.15-4.28-6.02-7-8.52" fill="#fff"/>
      <rect id="_사각형_132" data-name="사각형 132" width="87" height="114" fill="none"/>
    </g>
  </g>
</svg>