<?xml version="1.0" encoding="UTF-8"?>
<svg id="Layer_2" data-name="Layer 2" xmlns="http://www.w3.org/2000/svg" viewBox="0 0 142 104">
  <g id="Logo">
    <g id="symbol_07_02_0005_02" data-name="symbol 07 02 0005 02">
      <path id="_패스_1491" data-name="패스 1491" d="m114.29,6.14H29.46c-9.67.01-17.51,7.85-17.52,17.52v13.9c0,5.71,2.78,11.05,7.46,14.33-4.67,3.28-7.45,8.62-7.46,14.33v13.9c.01,9.67,7.85,17.51,17.52,17.52h84.83c9.67-.01,17.51-7.85,17.52-17.52v-13.9c0-5.71-2.78-11.05-7.46-14.33,4.67-3.28,7.45-8.62,7.46-14.33v-13.9c-.01-9.67-7.85-17.51-17.52-17.52m11.14,60.08v3.76H54.29c-1.76.03-3.17,1.49-3.14,3.25.03,1.72,1.42,3.1,3.14,3.14h71.14v3.76c0,6.15-4.99,11.13-11.14,11.14H29.46c-6.15,0-11.13-4.99-11.14-11.14v-13.9c0-6.15,4.99-11.14,11.14-11.14h84.83c6.15,0,11.13,4.99,11.14,11.14m-11.14-17.52H29.46c-6.15,0-11.13-4.99-11.14-11.14v-13.9c0-6.15,4.99-11.13,11.14-11.14h84.83c6.15,0,11.13,4.99,11.14,11.14v3.76H54.29c-1.76.03-3.17,1.49-3.14,3.25.03,1.72,1.42,3.1,3.14,3.14h71.14v3.76c0,6.15-4.99,11.12-11.14,11.13" fill="#fff"/>
      <rect id="_사각형_527" data-name="사각형 527" width="142" height="104" fill="none"/>
    </g>
  </g>
</svg>