<?xml version="1.0" encoding="UTF-8"?>
<svg id="Layer_2" data-name="Layer 2" xmlns="http://www.w3.org/2000/svg" viewBox="0 0 103 98">
  <g id="Logo">
    <g id="symbol_03_14_0002_02" data-name="symbol 03 14 0002 02">
      <path id="_합치기_3" data-name="합치기 3" d="m67.41,83.1c-1.39-.73-2.81-1.52-4.25-2.37-2.64-1.55-5.34-3.28-8.09-5.19,3.83-1.74,6.68-5.11,7.75-9.18,2.65,1.91,5.21,3.62,7.65,5.13,1.52.93,2.98,1.79,4.39,2.57,8.12,4.43,14.26,5.97,16.42,3.53,2.14-2.4,0-8.22-5.2-15.64.67-.68,1.35-1.37,2.04-2.05.07-.07.15-.14.22-.21,8.27,12.11,11.38,22.54,7.08,27.35-1.62,1.82-4.16,2.68-7.39,2.68-5.33,0-12.55-2.35-20.63-6.62Zm-28.99-16.22c-2.27-5.98.74-12.67,6.72-14.94,5.98-2.27,12.67.74,14.94,6.72,2.27,5.98-.74,12.67-6.72,14.94-1.31.5-2.7.75-4.1.75-4.81,0-9.13-2.97-10.84-7.47h0ZM10.15,10.97c7.14-8.01,32.02,2.52,55.57,23.53,7.19,6.35,13.75,13.37,19.6,20.98-.32.32-.64.62-.95.93-.46.46-.91.92-1.37,1.39-5.93-7.37-12.48-14.23-19.59-20.48C43.78,19.82,24.44,9.46,20.21,14.21c-3.87,4.34,6.27,19.82,23.07,35.83-3.88,1.83-6.72,5.33-7.7,9.52C14.72,39.63,3.44,18.48,10.14,10.97h0Z" fill="#fff"/>
      <rect id="_사각형_143" data-name="사각형 143" width="103" height="98" fill="none"/>
    </g>
  </g>
</svg>