<?xml version="1.0" encoding="UTF-8"?>
<svg id="Layer_2" data-name="Layer 2" xmlns="http://www.w3.org/2000/svg" viewBox="0 0 388 190">
  <g id="Logo">
    <g id="symbol_15_01_0003_02" data-name="symbol 15 01 0003 02">
      <path id="_패스_1132" data-name="패스 1132" d="m219.72,99.45c2.81,0,5.62.17,8.41.51-5.19,20.43,7.17,41.2,27.6,46.39,9.63,2.45,19.84,1.04,28.45-3.92,3.35,8.08,5.16,16.71,5.31,25.46h48.83c-.03-80-64.9-144.83-144.89-144.8-5.8,0-11.6.35-17.35,1.05,10.76,42.39-14.87,85.47-57.26,96.24-19.98,5.07-41.15,2.16-59.01-8.13-7.34,17.63-11.11,36.55-11.09,55.65h101.24c.74-38,31.75-68.43,69.76-68.43m45.43-21.73c17.46,0,31.61,14.15,31.61,31.61s-14.15,31.61-31.61,31.61c-17.46,0-31.61-14.15-31.61-31.61h0c0-17.46,14.15-31.61,31.61-31.61" fill="#fff"/>
      <rect id="_사각형_462" data-name="사각형 462" width="388" height="190" fill="none"/>
    </g>
  </g>
</svg>