<?xml version="1.0" encoding="UTF-8"?>
<svg id="_레이어_2" data-name="레이어 2" xmlns="http://www.w3.org/2000/svg" viewBox="0 0 335 89">
  <g id="Logo">
    <g id="symbol_18_03_0001_01" data-name="symbol 18 03 0001 01">
      <rect id="_사각형_154" data-name="사각형 154" width="335" height="89" fill="none"/>
      <path id="_패스_442" data-name="패스 442" d="M69.8,8.23l9.93-3.59,.08,.24-5.69,2.93c1.85-.15,3.62-.23,5.38-.45,5.35-.66,10.7-1.33,16.04-2.08,2.13-.19,4.22-.62,6.26-1.26,4.76-1.7,9.8-2.46,14.84-2.25-5.08,.54-10.15,1.06-14.95,3.67,3.15,.51,6.03,.98,8.91,1.44,1.88,.3,3.81,.99,5.63,.78,3.14-.48,6.26-1.14,9.32-1.99,2.45-.58,4.87-1.27,7.3-1.92l.11,.44-14.51,4.27c2.09,.79,4.31,1.2,6.55,1.22,4.62-.33,9.2-1.35,13.82-1.66,7.04-.35,14.09,.3,20.95,1.93-4.97-.04-9.92-.55-14.88-.65-4.87-.09-9.74,.46-14.47,1.65,0,.18,.02,.36,.02,.54l15.24,2.39-.03,.28-20.45-2.38-.08,.77,25.25,4.3-12.39-.82v.03s2.68,.33,2.68,.33l-.04,.35-6.56-.12c3.97,.9,7.96,1.43,11.88,2.29,9,2.15,18.27,2.94,27.51,2.34,3.71-.3,7.43-.51,11.14-.76l.04,.53-20.59,1.47c14.35,3.09,28.52,5.49,43.09,3.82-1.57,.49-3.18,.84-4.82,1.06-5.89,.65-11.85,.55-17.72-.3-8.6-1.09-17.21-2.06-25.8-3.19-4.65-.61-9.27-1.46-13.91-2.2,5.75,1.55,11.64,2.51,17.23,4.38,5.14,1.68,10.52,2.53,15.92,2.53,1.08,.01,2.17,0,3.25,0s2.14,0,3.21-.02c-11.21,1.23-22.18-.4-33.09-2.83,13.39,3.73,26.42,8.8,40.36,10.34-9.87-.1-19.25-2.85-28.68-5.28-8.44-2.18-16.84-4.55-25.28-6.74-1.41-.24-2.84-.34-4.26-.32v.17s5.16,.87,5.16,.87l-.05,.51-4.94-.33-.07,.65c2.44,.47,4.86,1.03,7.31,1.38,3.34,.48,6.74,.59,10.03,1.26,1.9,.39,3.59,1.73,5.47,2.35,3.68,1.23,7.46,2.18,11.15,3.38,2.78,.91,5.41,2.32,8.23,3.02,5.19,1.36,10.58,1.8,15.93,1.31,.31,0,.62,.01,.92,.05l-.02,.45-13.58-.12c8.46,3.16,16.51,5.52,25.14,5.28-2.48,.24-4.98,.19-7.44-.14-3.74-.39-7.44-1.07-11.08-2.03-7.35-2.26-14.58-4.96-21.86-7.46-.98-.34-1.97-.61-2.96-.91,4.18,2.39,8.45,4.49,12.79,6.45,7.82,3.53,15.56,7.28,23.56,10.34,5.36,2.06,11.12,3.09,16.07,4.42-.99-.14-2.67-.29-4.32-.63-4.35-.9-8.72-1.73-13.01-2.87-5.46-1.45-10.85-3.2-16.28-4.77-.21-.06-.53,.47-.85,.55-.27,.07-.6-.13-.91-.18-3.21-.49-6.43-.97-9.64-1.45-.04,.22-.07,.45-.11,.67,3.75,.82,7.47,1.77,11.24,2.41,3.78,.64,7.65,.87,11.12,2.78l-5.03-1.05c4.54,3.73,10.58,2.2,15.61,4.85l-8.28-1.13-.04,.52c2.7,.7,5.36,1.61,8.1,2.06,4.2,.69,8.48,.91,12.68,1.61,6.92,1.16,13.83,2.43,20.89,1.94,3.58-.25,7.14-.86,10.91-1.33-1.08,.33-1.99,.69-2.93,.88-9.07,1.81-18.1,1.35-27.17-.21-5.58-.96-11.25-1.32-16.88-1.95-.02,.19-.05,.39-.07,.58l13.6,2.27c-.02,.15-.05,.31-.08,.47l-7.59-.88c3.1,.43,7.24,1.02,12.12,1.71,34.72,4.92,115.92,18.28,116.69,18.4h-.1c-2.28-.25-84-1.05-261.17-2.49-3.18-6.38-6.73-10.67-9.15-11.52-.84-.32-1.75-.42-2.64-.29-1.26,.24-2.4,.9-3.24,1.87-3.33,3.54-8.03,5.46-12.89,5.26-1.08-.01-2.16,.06-3.23,.22-5.91,1.02-11.65,2.85-17.05,5.44-1.5,.66-2.77,1.75-3.66,3.12-2.76,4.74-7.65,4.24-10.65,1.68-2.41-2.06-3.87-5.26-5.7-7.99-.45-.67-.62-1.53-1.08-2.19-2.16-3.03-2.21-5.92,.15-8.81,2.91-3.56,5.86-7.09,8.96-10.48,4.64-5.1,9.44-10.05,14.14-15.09,3.7-3.97,7.26-8.07,11.06-11.94,2.62-2.86,5.89-5.04,9.53-6.36,.04-4.56,.08-8.74,.12-12.91l.71-.08,4.57,8.28c0-2.13,.02-3.66,.02-5.18l.43-.03,2.03,2.85c3.53-1.71,7.02-3.28,10.38-5.07,5.38-2.85,10.83-5.39,16.99-5.96-3.95,2.01-7.9,4.01-11.85,6.03Zm93.45,29.26l-.16,.47-5.47-1.8-.22,.62,25.3,9.93,.34-.87c-11.26-4.18-21.56-10.7-33.31-13.68l-.23,.45,13.76,4.89Zm-28.54-21.62c-3.68-.74-7.39-1.28-11.13-1.63-3.94-.2-7.92,.32-11.89,.52v.6l2.77,.3-6.38,.98,.07,.4,26.55-1.18Zm-43.72-6.37c2.76,.13,5.53,.34,8.29,.38,2.75,.04,5.5-.1,8.25-.16l.02-.61c-5.51-.59-11.03-1.63-16.56,.38h0Zm76.86,33.63c-5.13-1.83-10.61-2.52-16.04-2.01l16.04,2.01Zm-4.21-2.72l-12.25-5.3c3.8,2.39,7.43,5.26,12.25,5.3h0ZM108.37,10.97l9.98,1.1,.06-.68c-3.27-1.07-6.58-1.74-10.03-.42h0Zm41.79,26.83l-.03,.36-5.25-.26-.02,.4,10.93,.53,.1-.33-11.14-2.19-.16,.63,5.57,.86Zm40.46,17.46c2.01,1.87,4.16,.72,6.25,.3l-6.25-.3Zm-11.66-5.47l-.15,.95,6.03,.74,.03-.54-5.91-1.14Zm-41.71-18.76l-.03,.49,5.04,.24,.07-.49-5.08-.25Zm22.55-4.31l.09-.43-7.93-1.64-.08,.39,7.92,1.68Z" fill="#fff"/>
    </g>
  </g>
</svg>