<?xml version="1.0" encoding="UTF-8"?>
<svg id="Layer_2" data-name="Layer 2" xmlns="http://www.w3.org/2000/svg" viewBox="0 0 124 124">
  <g id="Logo">
    <g id="symbol_02_04_0005_02" data-name="symbol 02 04 0005 02">
      <path id="_패스_1376" data-name="패스 1376" d="m69.89,20.13c0,9.09,0,18.19.01,27.28-.04.41.06.83.29,1.18.76.84,1.59,1.61,2.49,2.3.55.39,1.19.65,1.86.75.97.14,1.98.03,2.96.13,2.47.27,4.67,1.67,5.95,3.8.4-.45.68-.73.92-1.05,1.12-1.44,1.13-1.85.14-3.39-.34-.52-.65-1.06-.93-1.62-1.53-3.04-1.25-5.21.96-7.78.68-.72,1.28-1.51,1.79-2.36,1.78-3.38,3.88-4.2,7.41-2.77,1.19.48,2.31,1.15,3.53,1.51,1.19.31,2.41.49,3.64.55.24.02.72-.41.76-.69.26-2.08,1.63-3.86,3.57-4.66-9.31-9.65-21.97-15.37-35.36-15.96v2.77Z" fill="#fff"/>
      <path id="_패스_1377" data-name="패스 1377" d="m86.87,79.68c.56,2.18,2.46,3.75,4.71,3.88,1.36,0,2.72-.05,4.07.06,1.17.06,2.22.73,2.76,1.77.55.99.99,2.04,1.3,3.13.66,2.08-.15,4.34-1.99,5.52-1.21.75-2.49,1.39-3.83,1.89-1.11.49-2.26.86-3.39,1.3-.67.3-.98,1.08-.68,1.75,0,0,0,.01,0,.02.2.47.61.81,1.1.92,1.24.11,2.49.14,3.74.08,3.9-.13,5.72,1.02,7.27,4.58.37.85.86,1.65,1.36,2.59,6.84-6.41,11.83-14.53,14.44-23.53-1.46-.81-3.07-1.27-4.01-2.32-1.88-2.1-3.62-1.61-5.56-.36-.18.12-.39.2-.58.31-1.05.65-2.33.81-3.51.43-1.66-.56-3.25-1.32-4.9-1.94-2.22-.84-4.44-1.72-6.71-2.39-1.62-.46-3.36-.2-4.78.7-.63.27-.97.96-.81,1.63" fill="#fff"/>
      <path id="_패스_1378" data-name="패스 1378" d="m26.21,84.72c-3.88,0-7.02,3.14-7.02,7.02s3.14,7.02,7.02,7.02h39.97v-14.04H26.21Z" fill="#fff"/>
      <path id="_패스_1379" data-name="패스 1379" d="m13.02,39.81c-3.88,0-7.02,3.14-7.02,7.02s3.14,7.02,7.02,7.02h53.17v-14.04H13.02Z" fill="#fff"/>
      <rect id="_사각형_434" data-name="사각형 434" width="124" height="124" fill="none"/>
    </g>
  </g>
</svg>