<?xml version="1.0" encoding="UTF-8"?>
<svg id="Layer_2" data-name="Layer 2" xmlns="http://www.w3.org/2000/svg" viewBox="0 0 230 230">
  <g id="Logo">
    <g id="symbol_18_04_0004_02" data-name="symbol 18 04 0004 02">
      <path id="_패스_1251" data-name="패스 1251" d="m209.26,6.7H20.74c-7.87,0-14.25,6.39-14.26,14.26v188.53c0,7.87,6.39,14.25,14.26,14.26h188.53c7.87,0,14.25-6.39,14.26-14.26V20.96c0-7.87-6.39-14.25-14.26-14.26M61.39,12.11h52.52v47.34h-52.52V12.11Zm0,49.5h52.52v22.02c-16.61.57-29.94,13.89-30.52,30.5h-22.01v-52.52Zm-2.17,156.71H20.74c-4.88,0-8.84-3.96-8.84-8.84v-38.49h47.34v47.33Zm0-49.5H11.89v-52.53h47.34v52.53Zm0-54.69H11.89v-52.52h47.34v52.52Zm0-54.69H11.89V20.96c0-4.88,3.96-8.84,8.84-8.84h38.49v47.34Zm54.69,158.88h-52.52v-47.34h52.52v47.34Zm-52.53-49.5v-52.53h22.01c.56,16.62,13.9,29.96,30.52,30.53v21.99h-52.52Zm107.21,49.5h-52.52v-47.34h52.52v47.34Zm0-49.5h-52.52v-21.99c16.62-.57,29.96-13.91,30.52-30.53h22v52.53Zm0-54.69h-22c-.58-16.61-13.91-29.93-30.52-30.5v-22.02h52.52v52.52Zm0-54.69h-52.52V12.11h52.52v47.34Zm49.5,150.03c0,4.88-3.96,8.84-8.84,8.84h-38.49v-47.34h47.34v38.49Zm0-40.66h-47.33v-52.53h47.34v52.53Zm0-54.69h-47.33v-52.52h47.34v52.52Zm0-54.69h-47.33V12.11h38.49c4.88,0,8.84,3.96,8.84,8.84v38.49Z" fill="#fff"/>
      <rect id="_사각형_616" data-name="사각형 616" width="230" height="230" fill="none"/>
    </g>
  </g>
</svg>