<?xml version="1.0" encoding="UTF-8"?>
<svg id="_레이어_2" data-name="레이어 2" xmlns="http://www.w3.org/2000/svg" viewBox="0 0 237 203">
  <g id="Logo">
    <g id="symbol_12_01_0005_01" data-name="symbol 12 01 0005 01">
      <rect id="_사각형_307" data-name="사각형 307" width="237" height="203" fill="none"/>
      <path id="_패스_870" data-name="패스 870" d="M108.03,58.77l1.85-1.85c.13-.05,.26-.12,.38-.2,5.72-4.4,13.93-3.32,18.32,2.4,2.58,3.36,3.38,7.76,2.13,11.81-.07,.22-.12,.44-.18,.67,7.19,.76,12.4,7.21,11.63,14.39-.05,.49-.13,.98-.24,1.46-.74,3.6-3.02,6.7-6.24,8.48-4.01,2.37-8.98,2.39-13,.05,0,7.72,0,15.39,0,23.22h8.5c0,2.85,0,5.71,.01,8.61h-8.46s0,4.51,0,4.51l8.51-.02c0,2.86,.01,5.72,.01,8.65h-8.67s.04,8.84,.04,8.84c-.45-.05-.82-.11-1.18-.11-2.52,0-5.04,.03-7.56,.04l-.1-.1c.02-.19,.05-.38,.05-.57v-52.43c0-.21-.02-.42-.04-.66-6.27,3.6-14.27,1.43-17.87-4.84-.34-.59-.63-1.21-.87-1.84-1.35-3.39-1.17-7.2,.5-10.44,1.98-4.03,5.89-6.76,10.36-7.22-.05-.18-.09-.32-.13-.46-1-2.85-.92-5.97,.24-8.75,.59-1.24,1.26-2.45,1.99-3.61Zm13.28,11.43c1.7-1.7,1.7-4.47,0-6.17-1.7-1.7-4.47-1.7-6.17,0-1.7,1.7-1.7,4.47,0,6.17,0,0,0,0,.01,.01,1.71,1.67,4.45,1.67,6.16-.01h0Zm-17.08,11.31c-1.69,1.7-1.71,4.44-.04,6.16,1.7,1.71,4.46,1.71,6.17,.01,1.71-1.7,1.71-4.46,.01-6.17-1.7-1.69-4.45-1.69-6.15,0h0Zm28,0c-1.72-1.68-4.49-1.65-6.17,.07-1.65,1.69-1.66,4.38-.02,6.08,1.72,1.7,4.49,1.7,6.22,0,1.67-1.72,1.66-4.46-.03-6.15h0Z" fill="#fff"/>
      <path id="_패스_871" data-name="패스 871" d="M18.04,180.25H218.54c2.82,.11,5.72-.25,8.26,1.34,1.85,.95,3.04,2.83,3.11,4.91,.05,3.51,.05,7.02,0,10.52-.03,2-1.33,3.09-3.63,3.17-.52,.02-1.05,0-1.58,0-70.94,0-141.89,0-212.83-.01-1.18,0-2.43,.26-3.51-.4-1.11-.56-1.79-1.73-1.73-2.97,.07-3.18,0-6.37,.03-9.55,.03-4.25,3.03-6.87,8-6.99,1.13-.02,2.26-.02,3.39-.04Z" fill="#fff"/>
      <path id="_패스_872" data-name="패스 872" d="M75.69,23.52H18.14c-2.33-.03-4.63-.07-6.76-1.14-3.82-1.92-5.62-5.6-4.45-9.35,1.13-3.59,4.6-5.92,8.96-5.92,68.27,0,136.54,0,204.81,0,5.33,0,9.16,3.4,9.17,8.05,.01,4.77-3.78,8.21-9.17,8.31-.75,.01-1.5,.04-2.26,.06h-57.55c-13.22-.02-26.45-.04-39.67-.05-15.18,0-30.35,.02-45.53,.05Z" fill="#fff"/>
    </g>
  </g>
</svg>