<?xml version="1.0" encoding="UTF-8"?>
<svg id="_레이어_2" data-name="레이어 2" xmlns="http://www.w3.org/2000/svg" viewBox="0 0 161 123">
  <g id="Logo">
    <g id="symbol_01_03_0003_01" data-name="symbol 01 03 0003 01">
      <rect id="_사각형_254" data-name="사각형 254" width="161" height="123" fill="none"/>
      <path id="_패스_1044" data-name="패스 1044" d="M140.82,1.37H20.14C10.22,1.37,2.17,10.01,2.17,20.66V101.34c0,10.65,8.05,19.29,17.97,19.29h120.67c9.93,0,17.98-8.64,17.98-19.29V20.66c0-10.65-8.05-19.29-17.98-19.29Zm-35.74,19.62c8.42-2.16,15.76,.17,21.6,7.14,1.54,1.97,2.9,4.07,4.06,6.29,2.78,4.94,3.65,9.17-.39,14.68-3.28,4.49-4.16,11.01-6.41,17.51-4.7,.07-9.04-2.5-11.24-6.65-1.64-2.98-3.46-3.63-6.42-3.75-8.22-.33-12.19-4.19-13.25-12.6,6.85,4.1,13.62,8.2,21.13,2.18-4.1-8.4-12.71-11.39-23.57-8.37,1.32-6.96,7.98-14.77,14.49-16.44Zm-29.87,32.32c1.33,1.05,2.25,2.54,2.59,4.21,.17,.74,.15,1.5-.05,2.23-.15,.44-.03,.92,.3,1.24,.57,.63,1.14,1.27,1.71,1.91,.59-.66,1.19-1.32,1.78-1.98,.32-.3,.44-.75,.32-1.16-.38-1.55-.09-3.19,.81-4.52,.35-.54,.74-1.05,1.17-1.53,.84-.97,1.7-1.91,2.56-2.86,.55-.61,.9-.61,1.45,0l.31,.35-3.08,3.43,1.04,1.16,3.06-3.4,1.04,1.16-3.06,3.41,1.04,1.15,3.09-3.44c.24,.24,.44,.52,.61,.81,.06,.25,.07,.51,0,.76-.04,.12-.11,.22-.2,.3-1.18,1.29-2.32,2.63-3.55,3.85-.98,1.06-2.4,1.61-3.84,1.49-.21-.02-.41-.06-.61-.13-.43-.19-.94-.04-1.2,.35-.58,.65-1.16,1.3-1.74,1.94,.45,.51,.91,1.01,1.37,1.52,1.36,1.52,2.72,3.03,4.08,4.55,.38,.31,.44,.86,.14,1.25-.2,.28-.58,.35-.88,.17-.15-.1-.28-.22-.39-.36-1.79-1.98-3.57-3.97-5.36-5.96-1.76,1.97-3.53,3.93-5.29,5.89-.12,.14-.25,.26-.39,.36-.29,.18-.67,.11-.87-.17-.24-.29-.25-.71-.04-1.02,.09-.13,.19-.25,.3-.36,1.75-1.95,3.5-3.9,5.26-5.85-.58-.65-1.17-1.3-1.75-1.95-.2-.3-.57-.44-.92-.33-1.42,.44-2.97,.12-4.1-.85-1.52-1.08-2.55-2.72-2.86-4.55-.24-1.04-.05-2.13,.52-3.03,.54-.82,1.46-1.29,2.44-1.25,1.17,.03,2.28,.47,3.16,1.24Zm-47.65-11.76c1.83-6.88,5.02-12.93,10.57-17.15,11.94-9.08,26.65-3.34,32.54,12.39-4.34,0-9-.93-13.12,.27-4.03,1.17-7.52,4.51-12.22,7.52,8.76,6.98,15.64,3.55,22.57-1.13-.93,8.45-5.16,12.56-13.23,12.79-2.98,.09-4.79,.78-6.43,3.75-2.69,4.89-7.16,6.81-12.91,6.51,.67-8.47-2.27-15.24-7.06-21.31-.71-1.07-.97-2.38-.71-3.63Zm-.69,53.42c-4.26-7-8.46-14.05-12.51-21.18-.65-1.14-1.15-3.15-.65-4.16,3.6-7.32,7.48-14.49,11.58-22.3,1.23,2.15,2.12,3.52,2.83,4.99,5.51,11.39,5.37,12.35-3.05,21.12,3.48,2.83,6.92,5.67,10.39,8.47,2.64,2.13,3.05,4.99,1.23,7.59-2.11,2.79-4.5,5.36-7.12,7.67-.18,.17-2.08-1.2-2.69-2.19h0Zm100.21,20.5H34.66c-1.01-3.15-1.99-6.3-3.08-9.39-.9-2.54-.14-4.02,2.3-6.04,3.4-2.83,5.4-7.57,8.07-11.45,1.32-1.93,2.42-4.61,4.24-5.49,22.69-10.97,45.55-10.9,68.3-.2,2.07,1.18,3.62,3.09,4.36,5.35,1.93,6.14,4.68,11.2,11.33,13.5-.79,4.63-1.82,9.21-3.11,13.72h0Zm19.45-41.55c-4.06,7.11-8.37,14.05-12.41,21.17-1.47,2.59-3.02,2.47-5.09,1.15-6.23-3.96-6.93-11.65-1.34-16.44,2.57-2.2,5.44-3.98,8.5-6.18-8.96-8.85-9.05-12.69-.42-26.2,4,7.67,7.91,14.94,11.54,22.37,.48,.98-.12,2.97-.79,4.13h0Z" fill="#fff"/>
    </g>
  </g>
</svg>