<?xml version="1.0" encoding="UTF-8"?>
<svg id="Layer_2" data-name="Layer 2" xmlns="http://www.w3.org/2000/svg" viewBox="0 0 375 157">
  <g id="Logo">
    <g id="symbol_08_03_0002_01" data-name="symbol 08 03 0002 01">
      <path id="_패스_990" data-name="패스 990" d="m357.8,102.74h-16.79c-1.13,0-2.19.53-2.87,1.44l-25.25,33.94h-92.63l3.82-32.2,83.03,17.14c1.68.35,3.32-.73,3.66-2.41.35-1.68-.73-3.32-2.41-3.66l-83.54-17.24,9.94-83.75c.23-1.96-1.17-3.73-3.12-3.97-.14-.02-.28-.03-.42-.03h-23.82c-1.24,0-2.4.64-3.05,1.7l-44.54,72.62-51.98-10.72c-1.68-.35-3.32.73-3.66,2.41s.73,3.32,2.41,3.66h0l49.78,10.27-28.32,46.18H22.21c11.53-38.05,48.08-50.11,60.82-53.21,1.93-.46,3.11-2.4,2.64-4.33-.46-1.93-2.4-3.11-4.33-2.65-9.09,2.2-17.86,5.6-26.06,10.1-21.5,11.83-35.75,30.07-41.2,52.73-.17.64-.16,1.31.02,1.95.45,1.51,1.85,2.55,3.43,2.55h112.51c1.24,0,2.4-.65,3.04-1.71l30.72-50.08,3.45-5.62,42.14-68.71h17.8l-9.39,79.15-.73,6.18-4.37,36.8c-.23,1.96,1.17,3.74,3.13,3.97.14.02.28.02.42.02h98.45c1.13,0,2.19-.53,2.87-1.44l25.24-33.94h11.42v31.81c0,1.97,1.6,3.57,3.58,3.57,1.97,0,3.57-1.6,3.57-3.57v-35.39c0-1.97-1.6-3.57-3.57-3.57" fill="#fff"/>
      <rect id="_사각형_239" data-name="사각형 239" width="375" height="157" fill="none"/>
    </g>
  </g>
</svg>