<?xml version="1.0" encoding="UTF-8"?>
<svg id="Layer_2" data-name="Layer 2" xmlns="http://www.w3.org/2000/svg" viewBox="0 0 140 140">
  <g id="Logo">
    <g id="symbol_19_03_0004_02" data-name="symbol 19 03 0004 02">
      <path id="_패스_1522" data-name="패스 1522" d="m43.72,108.9c-6.27,0-12.45-1.54-17.97-4.51.75,2.39,1.59,4.97,2.5,7.56,1.67,5.01,3.75,9.88,6.21,14.55,2.4,4.26,4.87,6.88,7.14,5.99,1.32-.52,2.28-1.97,2.98-4.04,1.04-3.1,1.47-7.59,1.56-12.43.04-2.36,0-4.8-.1-7.2-.77.04-1.54.07-2.31.07" fill="#fff"/>
      <path id="_패스_1523" data-name="패스 1523" d="m100.36,108.9c-.78,0-1.55-.03-2.31-.07-.1,2.4-.14,4.85-.1,7.2.08,4.84.51,9.33,1.55,12.43.69,2.07,1.66,3.52,2.98,4.04,2.27.89,4.74-1.73,7.14-5.99,2.46-4.67,4.54-9.54,6.21-14.55.91-2.59,1.75-5.17,2.5-7.56-5.53,2.97-11.7,4.51-17.97,4.51" fill="#fff"/>
      <path id="_패스_1524" data-name="패스 1524" d="m51.48,7.31c-4.46,0-8.08,4.93-8.08,11s3.62,11.01,8.08,11.01,8.08-4.93,8.08-11.01-3.62-11-8.08-11" fill="#fff"/>
      <path id="_패스_1525" data-name="패스 1525" d="m92.6,7.31c-4.46,0-8.08,4.93-8.08,11s3.62,11.01,8.08,11.01,8.08-4.93,8.08-11.01-3.62-11-8.08-11" fill="#fff"/>
      <rect id="_사각형_756" data-name="사각형 756" width="140" height="140" fill="none"/>
    </g>
  </g>
</svg>