<?xml version="1.0" encoding="UTF-8"?>
<svg id="Layer_2" data-name="Layer 2" xmlns="http://www.w3.org/2000/svg" viewBox="0 0 101 128">
  <g id="Logo">
    <g id="symbol_18_01_0005_01" data-name="symbol 18 01 0005 01">
      <path id="_패스_1207" data-name="패스 1207" d="m96.1,75.75c-1.49,12.14-4.86,23.72-11.02,34.35-1.78,3.07-3.93,5.93-6,8.82-1.06,1.47-2.11,1.3-2.85-.36-.51-1.17-.85-2.42-1.25-3.63-1.24-3.79-3.16-7.2-6.49-9.47-3.23-2.16-6.57-4.15-10.01-5.95-1.38-.62-2.86-1.02-4.37-1.18-3-.5-5.83.31-8.64,1.3-3.75,1.33-6.47-.3-6.92-4.26-.17-1.65-.12-3.31.16-4.95,1-6.29,2.22-12.54,2.18-18.94.1-2.54-1.28-4.91-3.55-6.07-1.23-.71-2.57-1.23-3.96-1.53-2.79-.53-5.63-.84-8.46-1.17-4.14-.47-8.23-1.19-11.71-3.64-6.07-4.28-7.9-10.5-7-17.44,1.95-14.93,10.09-25.37,24.02-31.03,9.29-3.78,19.07-4.22,28.9-2.84,16.87,2.38,28.38,11.5,34.05,27.69,2.97,8.49,3.85,17.3,4.06,26.26-.38,4.68-.59,9.39-1.16,14.05m-17.35-4.53c3.91-.9,4.78-3.66,2.4-6.93-4.79-6.56-15.44-6.71-20.43-.28-.35.45-.66.93-.92,1.43-1.26,2.48-.56,4.66,2.09,5.43,2.34.55,4.72.93,7.12,1.15.61.05,1.23.05,1.85.01.01.08.02.16.03.25,2.62-.34,5.3-.48,7.86-1.06" fill="#fff"/>
      <rect id="_사각형_605" data-name="사각형 605" width="101" height="128" fill="none"/>
    </g>
  </g>
</svg>