<?xml version="1.0" encoding="UTF-8"?>
<svg id="Layer_2" data-name="Layer 2" xmlns="http://www.w3.org/2000/svg" viewBox="0 0 292 292">
  <g id="Logo">
    <g id="symbol_01_01_0006_01" data-name="symbol 01 01 0006 01">
      <path id="_패스_1224" data-name="패스 1224" d="m249.51,155.15h-7.88c4.79-9.78,8.49-19.96,10.03-30.84.4-2.87.69-5.76,1.04-8.64v-13.33c-.17-.67-.3-1.34-.37-2.03-.2-5-.68-9.87-5.27-13.1-.05-.05-.1-.1-.13-.16-3.52-4.01-4.95-8.9-5.88-14-.61-3.33-2.04-4.48-5.41-4.48-3.84.05-7.58,1.19-10.8,3.28-2.41,1.34-3.9,3.9-3.87,6.66-.1,3.05-.46,6.09-1.09,9.07-.22,1.08-1.42,1.98-2.22,2.92-.95,1.12-2.26,2.04-2.86,3.31-1.2,2.56-1.92,5.35-3.04,7.95-1.34,3.13-2.89,6.17-4.45,9.45-2.32-3.75-4.26-7.2-6.51-10.44-4.07-5.87-5.11-12.04-3.8-19.14,1.81-9.75,1.82-19.62-1.29-29.23-2.37-7.33-6.51-13.31-13.62-16.81-2.09-1.03-4.28-1.87-6.56-2.85,1.23-7.35,4.78-12.86,12-15.63,2.77-1.06,3.88-3.15,3.05-5.5-.81-2.29-3.1-3.19-5.87-2.28-5.77,1.82-10.6,5.82-13.45,11.15-1.92,3.53-3.08,7.47-4.67,11.42-.11,0-.59.06-1.07.09-10.21.65-17.78,5.63-23.14,14.18-4.82,7.84-7.67,16.73-8.29,25.91-.63,7.93-3.45,14.16-9.6,19.21-3.49,3.07-6.76,6.38-9.8,9.89-1.3,1.56-2.5,3.2-3.59,4.91l-15.15-3.66c1.42-6.99,4.95-12.24,11.87-14.84,2.74-1.03,3.9-3.19,3.1-5.5-.82-2.37-3.18-3.29-6.04-2.24-1.72.63-3.38,1.42-5.16,2.18-.17-.53-.31-.91-.42-1.3-3.9-13.1-15.85-20.28-29.19-17.58-2.06.26-3.71,1.85-4.03,3.91-3.08,14.48,6.06,27.69,20.7,29.91.6.12,1.2.27,1.78.46-.13.5-.23.83-.31,1.17q-1,4.04-5.04,4.68c-26.26,4.11-44.1,27.32-43.82,52.12-10.44,1.76-17.48,11.65-15.72,22.09,1.26,7.5,6.84,13.54,14.21,15.41,1.15,22.11,11.05,42.81,28.24,59.11v.05h.05c1.15,1.09,2.34,2.16,3.56,3.22,20.41,17.6,47.51,27.3,76.29,27.3s55.88-9.69,76.29-27.3c19.43-16.75,30.63-38.76,31.86-62.37,10.27-2.59,16.5-13.01,13.91-23.28-2.15-8.52-9.81-14.49-18.59-14.49m-28.17-55.13c.45-1.44,1.37-2.69,2.6-3.56,3.14-2.19,4.11-5.63,4.58-9.21.24-1.86.35-3.73.51-5.59.28-3.21.69-3.64,4.35-4.34,1.3,5.48,3.04,10.79,7,14.74,2.77,2.76,3.48,5.82,3.72,9.44,1.32,19.75-2.67,37.64-11.66,53.66h-55.8c1.83-1.16,3.64-2.37,5.44-3.65,18.06-12.73,31.76-30.7,39.25-51.49m-94.26.08c3.6-3.55,7.28-7.05,10.53-10.91,3.19-3.8,3.77-8.66,4.31-13.46.98-8.8,2.79-17.38,7.46-25.11,7.24-11.97,24.26-14.09,33.65-4.11,4.08,4.33,5.61,9.78,6.35,15.51.8,7.05.49,14.18-.94,21.13-1.41,7.49.45,14.09,4.31,20.42,2.96,4.85,5.74,9.8,8.49,14.77.34.76.3,1.64-.09,2.37-11.38,15.56-25.45,27.21-42.57,34.43h-15.2c-.09-18.98-8.54-33.84-24.82-44.95,2.23-3.91,5.36-7,8.52-10.1m-53.07-28.78c7.68-1.92,18.78,5.5,17.68,17.41-9.05,1.39-18.9-6.66-17.68-17.41m-19.04,59.3c11.27-17.55,35.14-24.51,53.99-15.96,15.98,7.11,26.21,23.01,26.07,40.49H47.76c-.04-8.71,2.47-17.24,7.22-24.54m-7.1,62.89h18.27v44.04c-10.55-12.55-17.16-27.68-18.27-44.04m170.64,0v51.87c-4.92,4.57-10.3,8.61-16.06,12.06v-63.93h16.06Zm-25.45,0v68.92c-5.18,2.42-10.55,4.42-16.06,5.98v-74.9h16.06,0Zm-25.45,77.13c-5.3,1.01-10.67,1.65-16.06,1.9v-79.04h16.06v77.14Zm-25.45,1.97c-5.39-.18-10.75-.74-16.06-1.68v-77.43h16.06v79.11Zm-25.45-3.76c-5.5-1.47-10.87-3.37-16.06-5.69v-69.66h16.06v75.35Zm-25.45-10.48c-5.6-3.21-10.86-6.98-15.71-11.24v-53.63h15.71v64.87Zm136.65-23.24v-41.63h16.32c-1.14,15.2-6.83,29.7-16.32,41.63m21.61-51.54H42.59c-5.12-.05-9.22-4.24-9.17-9.36.05-5.04,4.13-9.12,9.17-9.17h206.92c5.12,0,9.26,4.15,9.26,9.26s-4.15,9.26-9.26,9.26" fill="#fff"/>
      <rect id="_사각형_353" data-name="사각형 353" width="292" height="292" fill="none"/>
    </g>
  </g>
</svg>