<?xml version="1.0" encoding="UTF-8"?>
<svg id="_레이어_2" data-name="레이어 2" xmlns="http://www.w3.org/2000/svg" viewBox="0 0 126 126">
  <g id="Logo">
    <g id="symbol_12_02_0003_01" data-name="symbol 12 02 0003 01">
      <rect id="_사각형_270" data-name="사각형 270" width="126" height="126" fill="none"/>
      <path id="_패스_741" data-name="패스 741" d="M105.39,3.12H23.3C12.89,3.12,4.46,11.55,4.46,21.96h0V104.04c0,10.41,8.44,18.84,18.84,18.84H105.39c10.41,0,18.84-8.44,18.84-18.84h0V21.96c0-10.41-8.43-18.84-18.84-18.84h0Zm-14.6,71.64c-.05,1.49-.2,2.98-.43,4.46-1.32,7.42-5.73,13.92-12.14,17.88-6.44,3.88-14.19,4.97-21.45,3.01-6.71-1.78-12.42-6.2-15.83-12.24-2.64-4.86-3.48-10.5-3.73-16.03-.05-1.12,.01-2.43,.92-3.08,.57-.33,1.23-.48,1.89-.44,2.46-.07,4.92-.04,7.38,.11,.44,0,.87,.09,1.28,.27,1.06,.58,1.06,2.07,1,3.27-.16,2.11,.03,4.24,.57,6.29,2.14,7.64,10.08,12.1,17.72,9.96,6.93-1.94,11.36-8.71,10.36-15.84-.15-1.06-.36-2.3,.38-3.06,.34-.3,.74-.52,1.18-.64,2.27-.74,4.68-.94,7.04-.57,2.57,.4,4.01,1,3.95,3.81-.03,.95-.05,1.9-.09,2.84h0Zm18.46-20.22c-.32,6.83-.08,13.69-.09,20.54,0,7.27-.11,14.54,.05,21.8,.07,3.12-1.05,4.1-4.15,4.09-8.36-.02-8.36,.11-8.36-8.42,0-11.18-.08-22.36,.07-33.54,.04-2.72-.76-4.23-3.26-5.54-8.79-4.57-17.45-9.38-26.09-14.22-1.88-1.23-4.31-1.25-6.2-.03-8.8,4.84-17.64,9.62-26.57,14.22-3.91,2.01-3.26,5.65-3.27,8.71-.05,10.88,.17,21.75,.65,32.63,.19,4.32-1.25,5.62-5.47,5.38-8.07-.45-6.97,1.22-7.06-7.2-.05-4.61-.05-9.22,0-13.84,.06-6.17-.24-19.55,.14-25.69,.05-2.01,.7-3.96,1.86-5.6,.4-.5,.84-.97,1.31-1.4,1.14-1.07,2.43-1.98,3.82-2.7,3.13-1.64,6.07-3.65,9.23-5.22,12.16-6.02,20.3-10.78,20.3-10.78,2.08-1.22,4.68-2.76,8.19-2.7,2.31,.1,4.55,.8,6.51,2.03,10.83,6.33,21.98,12.09,33.06,17.99,3.88,2.07,5.53,4.96,5.32,9.48h0Z" fill="#fff"/>
    </g>
  </g>
</svg>