<?xml version="1.0" encoding="UTF-8"?>
<svg id="Layer_2" data-name="Layer 2" xmlns="http://www.w3.org/2000/svg" viewBox="0 0 144 60">
  <g id="Logo">
    <g id="symbol_07_02_0005_01" data-name="symbol 07 02 0005 01">
      <path id="_패스_1490" data-name="패스 1490" d="m114.29,5.41H29.46c-9.67.01-17.51,7.85-17.52,17.52v13.9c.01,9.67,7.85,17.51,17.52,17.52h84.83c9.67-.01,17.51-7.85,17.52-17.52v-13.9c-.01-9.67-7.85-17.51-17.52-17.52m11.14,31.42c0,6.15-4.99,11.13-11.14,11.14H29.46c-6.15,0-11.13-4.99-11.14-11.14v-3.76h71.14c1.76,0,3.19-1.43,3.19-3.19s-1.43-3.19-3.19-3.19H18.33v-3.76c0-6.15,4.99-11.13,11.14-11.14h84.83c6.15,0,11.13,4.99,11.14,11.14v13.9Z" fill="#fff"/>
      <rect id="_사각형_526" data-name="사각형 526" width="144" height="60" fill="none"/>
    </g>
  </g>
</svg>