<?xml version="1.0" encoding="UTF-8"?>
<svg id="_레이어_2" data-name="레이어 2" xmlns="http://www.w3.org/2000/svg" viewBox="0 0 130 130">
  <g id="Logo">
    <g id="symbol_11_02_0004_01" data-name="symbol 11 02 0004 01">
      <rect id="_사각형_294" data-name="사각형 294" width="130" height="130" fill="none"/>
      <path id="_패스_820" data-name="패스 820" d="M127,34.72c-6.48-19.36-27.42-29.8-46.77-23.32-4.82,1.61-9.26,4.21-13.04,7.61-.41,.45-.93,.79-1.51,.99-1.15,.28-2.22-.6-3.11-1.37-7.69-6.6-17.72-9.82-27.82-8.94-4.98,.48-9.82,1.96-14.22,4.35-7.22,3.9-13.93,10.53-16.99,18.24C.44,40.14,.47,49.04,2.08,57.23c.27,2.08,1.05,4.06,2.27,5.77,1.33,1.61,3.69,2.54,5.58,1.64,1.66-.99,2.62-2.82,2.5-4.74-.14-1.88-.52-3.74-1.11-5.53-.13-.53-.25-1.07-.35-1.61-2.28-12.36,4.51-25.95,15.91-31.34,11.89-5.62,27.51-1.7,35.33,8.88,.97,1.32,2.45,2.91,3.93,2.21,.46-.27,.85-.63,1.14-1.07,7.57-9.38,20.52-14.8,32.12-11.54,9.25,2.6,16.66,10.5,19.24,19.75,2.44,9.44,.6,19.48-5.04,27.44-.24,.43-.61,.76-1.06,.94-.62,.07-1.25-.12-1.72-.54l-38.84-26.04c-2.28-1.53-4.79-3.12-7.53-2.93-2.17,.15-4.09,1.41-5.9,2.63l-16.43,11.08c-.37,.33-.84,.53-1.33,.55-1.06-.07-1.68-1.41-3.07-3.99-1.44-2.67-2.17-4.02-2.66-4.33-1.94-1.23-4.61-.2-7,.72-1.3,.51-2.46,1.32-3.4,2.36-.23,.31-.43,.64-.59,.98-.17,.42-.29,.86-.36,1.3-.27,2.1,4.28,10.28,4.28,10.28-.01,.01-4.3,2.93-8.39,5.46-4.34,2.68-9.8,5.76-9.78,7.92,.02,.6,.1,1.2,.25,1.79,.14,.68,.41,1.33,.79,1.91,12.06,17.42,27.06,32.62,44.33,44.9,2.62,1.86,5.43,3.7,8.62,4.02,4.6,.46,8.84-2.33,12.54-5.1,9.97-7.46,19.31-15.72,27.92-24.71,7.96-8.32,15.39-17.39,20.04-27.92s6.33-22.74,2.67-33.66ZM62.61,91.32c0,.97-.79,1.76-1.76,1.76h-6.72c-.97,0-1.76-.79-1.76-1.76h0v-6.72c0-.97,.79-1.76,1.76-1.76h6.72c.97,0,1.76,.79,1.76,1.76v6.72Zm0-13.42c0,.97-.79,1.76-1.76,1.76h-6.72c-.97,0-1.76-.79-1.76-1.76h0v-6.72c0-.97,.79-1.76,1.76-1.76h6.72c.97,0,1.76,.79,1.76,1.76h0v6.72Zm15.75,13.43c0,.97-.79,1.76-1.76,1.76h-6.72c-.97,0-1.76-.79-1.76-1.76v-6.72c0-.97,.79-1.76,1.76-1.76h6.72c.97,0,1.76,.79,1.76,1.76h0v6.72Zm0-13.42c0,.97-.79,1.76-1.76,1.76h-6.72c-.97,0-1.76-.79-1.76-1.76v-6.72c0-.97,.79-1.76,1.76-1.76h6.72c.97,0,1.76,.79,1.76,1.76h0v6.72Z" fill="#fff"/>
    </g>
  </g>
</svg>