<?xml version="1.0" encoding="UTF-8"?>
<svg id="Layer_2" data-name="Layer 2" xmlns="http://www.w3.org/2000/svg" viewBox="0 0 216 216">
  <g id="Logo">
    <g id="symbol_13_03_0003_01" data-name="symbol 13 03 0003 01">
      <path id="_패스_771" data-name="패스 771" d="m160,159.74L14.27,14v174.34c0,7.25,5.88,13.13,13.13,13.13h14.95v-14.53c-.02-1,.67-1.86,1.65-2.06,1.08-.18,2.1.54,2.28,1.62.02.11.03.22.03.33v14.63h13.01v-14.53c-.02-1,.67-1.86,1.65-2.06,1.08-.18,2.1.54,2.28,1.62.02.11.03.22.03.33v14.63h13.01v-14.53c-.02-1,.67-1.86,1.65-2.06,1.08-.18,2.1.54,2.28,1.62.02.11.03.22.03.33v14.63h13.01v-14.53c-.02-1,.67-1.86,1.65-2.06,1.08-.18,2.1.54,2.28,1.62.02.11.03.22.03.33v14.63h13.01v-14.53c-.02-.99.67-1.86,1.65-2.06,1.08-.18,2.1.54,2.28,1.62.02.11.03.22.03.33v14.63h13.01v-14.53c-.02-.99.67-1.86,1.65-2.06,1.08-.18,2.1.54,2.28,1.62.02.11.03.22.03.33v14.63h70.59l-41.73-41.73Zm-115.67,11.67v-84.84l84.84,84.84H44.33Z" fill="#fff"/>
      <rect id="_사각형_280" data-name="사각형 280" width="216" height="216" fill="none"/>
    </g>
  </g>
</svg>