<?xml version="1.0" encoding="UTF-8"?>
<svg id="_레이어_2" data-name="레이어 2" xmlns="http://www.w3.org/2000/svg" viewBox="0 0 224 263">
  <g id="Logo">
    <g id="symbol_20_01_0005_01" data-name="symbol 20 01 0005 01">
      <path id="_패스_1465" data-name="패스 1465" d="m148.79,181.49c-12.13-.04-24.27-.02-36.4-.02-10.92,0-21.84,0-32.76,0-9.37,0-9.72.49-7.31,9.77.04.17.07.34.12.51,4.99,18.36,19.79,32.31,36.26,33.61,25.49,2,42.13-20.21,44.45-40.61.43-3.79-2.19-3.25-4.36-3.26" fill="#fff"/>
      <path id="_패스_1466" data-name="패스 1466" d="m191.41,196.79c-.08-9.36,1.93-18.35,4.88-27.15,2.32-6.94,4.03-13.95,3.58-21.36-.35-5.78-2.68-10.15-8.14-12.59-2.58-1.15-4.57-2.81-3.08-5.95,1.5-3.19,4.22-2.5,6.66-1.44,8.42,3.64,12.15,10.58,12.92,19.32.71,8.15-1.09,15.96-3.8,23.59-3.68,10.14-5.18,20.95-4.4,31.72.58,7.65,3.01,9.17,9.91,6.06,2.66-1.2,5.47-2.32,7.11.91,1.77,3.5-1.07,5.25-3.68,6.64-10.26,5.5-18.73,1.53-21.24-9.8-.58-3.28-.81-6.62-.7-9.95" fill="#fff"/>
      <path id="_패스_1467" data-name="패스 1467" d="m24.46,195.04c.13-8.31-2.21-16.26-4.85-24.19-2.89-8.69-4.92-17.51-2.68-26.72,1.67-6.86,5.55-12.04,12.06-15,2.67-1.21,5.53-1.64,6.96,1.68,1.34,3.11-.74,4.77-3.36,5.84-5.47,2.23-7.49,6.7-7.96,12.17-.6,7.08.83,13.86,3.17,20.47,3.94,10.67,5.67,22.04,5.08,33.4-.11,2.26-.44,4.51-1,6.7-2.95,10.82-15.34,14.07-23.4,6.21-1.45-1.41-2.03-3.05-1.03-4.9.83-1.72,2.82-2.54,4.62-1.9.15.04.29.08.44.12,3.04.97,6.12,4.32,9.21,1.72,3.64-3.07,2.98-7.96,3.09-12.32-.04-1.11-.16-2.22-.34-3.31" fill="#fff"/>
      <path id="_패스_1468" data-name="패스 1468" d="m112.74,8c14.45.04,27.05,11.19,30.89,27.34.81,3.08,1.15,6.27.99,9.45-.18,2.39-1.26,4.2-3.78,4.31s-3.78-1.5-4.14-3.92c-.65-4.33-.96-8.7-2.68-12.84-4.08-9.85-12.28-15.95-21.65-15.88-11.62.08-21.99,10.64-23.28,23.7-.08,1.81-.27,3.62-.57,5.41-.51,2.32-2.09,3.83-4.55,3.52-2.23-.29-3.33-1.98-3.42-4.19-.68-16.31,11.5-37.01,32.2-36.88" fill="#fff"/>
      <path id="_패스_1469" data-name="패스 1469" d="m181.03,135.27c0-3.42-1.25-5.31-4.23-6.9-7.94-4.35-14.87-10.34-20.31-17.58-11.31-14.58-16.71-31.38-18.08-49.58-.24-3.12-.96-4.78-4.48-4.75-14.57.12-29.13.09-43.7.03-3.09-.01-4.31,1.32-4.46,4.34-.14,3.64-.53,7.26-1.17,10.84-4.62,24.23-15.49,44.42-37.69,57-3.06,1.74-3.81,4.01-3.8,7.23.06,37.29.07,74.57.05,111.85,0,6.34.54,6.85,6.85,6.86,20.64.03,41.27.03,61.91,0,20.98,0,41.97-.07,62.95.06,4.39.03,6.19-1.37,6.17-5.99-.12-37.8-.13-75.61-.01-113.42m-54.29,6.83c3.41,0,6.17,3.29,6.17,7.35s-2.76,7.35-6.17,7.35-6.17-3.29-6.17-7.35,2.76-7.35,6.17-7.35m-28.29,0c3.41,0,6.17,3.29,6.17,7.35s-2.76,7.35-6.17,7.35-6.17-3.29-6.17-7.35,2.76-7.35,6.17-7.35m64.52,40.06c-1.95,20.7-10.93,37.21-29.51,47.29-18.77,10.18-41.01,6.01-56.03-10.04-10.33-10.78-16.11-25.12-16.15-40.04-.08-5.75,1.27-7.02,7.07-7.04,14.74-.04,29.48-.01,44.22-.01v.06h41.62c8.45,0,9.58,1.32,8.78,9.79" fill="#fff"/>
      <rect id="_사각형_744" data-name="사각형 744" width="224" height="263" fill="none"/>
    </g>
  </g>
</svg>