<?xml version="1.0" encoding="UTF-8"?>
<svg id="Layer_2" data-name="Layer 2" xmlns="http://www.w3.org/2000/svg" viewBox="0 0 232 232">
  <g id="Logo">
    <g id="symbol_11_03_0005_02" data-name="symbol 11 03 0005 02">
      <path id="_패스_968" data-name="패스 968" d="m172.73,12c-26.56-.01-48.1,21.51-48.11,48.06,0,2.67.22,5.34.66,7.98-26-5.57-51.59,10.98-57.17,36.98-1.4,6.52-1.43,13.27-.08,19.8-26-5.36-51.42,11.38-56.78,37.38-5.36,26,11.38,51.42,37.38,56.78,26,5.36,51.42-11.38,56.78-37.38,1.32-6.4,1.32-13,0-19.4,26.01,5.39,51.47-11.32,56.86-37.34,1.21-5.84,1.32-11.84.34-17.72,25.98,5.59,51.57-10.94,57.15-36.92,5.59-25.98-10.94-51.57-36.92-57.15-3.33-.72-6.72-1.08-10.12-1.08" fill="#fff"/>
      <rect id="_사각형_350" data-name="사각형 350" width="232" height="232" fill="none"/>
    </g>
  </g>
</svg>