<?xml version="1.0" encoding="UTF-8"?>
<svg id="_레이어_2" data-name="레이어 2" xmlns="http://www.w3.org/2000/svg" viewBox="0 0 235 196">
  <g id="Logo">
    <g id="symbol_10_01_0004_01" data-name="symbol 10 01 0004 01">
      <rect id="_사각형_550" data-name="사각형 550" width="235" height="196" fill="none"/>
      <path id="_패스_1513" data-name="패스 1513" d="m151.47,69.96c-11.75-4.22-23.39-8.75-35.08-13.12-4.12-1.54-8.28-2.96-12.63-4.51,6.32,29.06-10.16,48.25-27.67,67.3.37.32.53.55.76.64,16.37,6.19,32.72,12.42,49.15,18.46,1.39.24,2.82-.19,3.84-1.17,8.56-9.92,16.34-20.39,21.85-32.33,4.28-9.29,7.23-18.82,4.86-29.26-.68-2.99-1.94-4.88-5.07-6" fill="#fff"/>
      <path id="_패스_1514" data-name="패스 1514" d="m213.24,136.37l17.38-3.2-13.81-16.45c1.15-1.53,2.15-2.88,3.17-4.22,5.59-7.38,9.24-15.58,9.51-24.86.55-19.5-8.26-33.69-25.62-42.77-2.9-1.52-5.91-2.82-8.98-4.27l19.93-27.74c-.14-.12-.29-.23-.43-.35l-30.54,13.85c-1.42-2.29-2.61-4.32-3.9-6.29-6.69-10.62-20.73-13.81-31.35-7.11-.99.62-1.93,1.32-2.81,2.09-1.61,1.34-3.18,2.73-4.89,4.2-9.35-7.2-19.57-11.07-31.45-9.4-11.99,1.68-20.67,8.46-27.64,17.84l-26.74-15.56,13.26,27.06c-5.01.5-9.67.8-14.28,1.45-19.51,2.66-35.04,17.66-38.39,37.06-3.35,18.82,6.14,37.92,23.4,47.08,2.6,1.38,5.25,2.68,7.98,4.07-3.49,8.66-6.9,17.14-10.54,26.16l24.58-9.68c1.06,3.48,1.96,6.63,2.99,9.73,8.42,25.41,34.49,40.53,60.73,35.23,7.07-1.52,13.78-4.41,19.74-8.51,1.58-1.04,2.7-1.22,4.14.21,1.55,1.54,3.38,2.82,5.09,4.21,3.85,3.13,7.71,6.26,12.07,9.8-1.13-8.7-2.18-16.74-3.27-25.1,3.78,1.24,7.23,2.37,10.67,3.52,5.26,1.8,10.89,2.21,16.35,1.21,15.26-2.77,26.18-17.38,24.24-32.44-.29-2.23-.4-4.48-.6-6.82m-67.84-7.37c-5.06,4.34-9.69,9.16-14.64,13.62-.84.76-2.58,1.41-3.52,1.07-19.33-7.12-38.6-14.39-57.88-21.65-.34-.15-.65-.34-.94-.58,6.1-6.83,12.44-13.35,18.1-20.4,6.27-7.84,11.13-16.53,13.45-26.45,2.18-9.33,1.47-18.23-3.31-26.68-.47-.98-.88-1.99-1.23-3.02,1.65.46,2.85.7,3.97,1.12,18.31,6.89,36.57,13.93,54.96,20.61,3.44,1.25,5.16,3.37,5.7,6.45.79,4.37,1.24,8.8,1.32,13.24.02,2.24.6,3.09,2.62,3.8,7.29,2.56,14.51,5.31,21.75,8.01,1.78.67,3.53,1.43,5.63,2.29-18.77,4.7-32.29,16.8-45.98,28.56" fill="#fff"/>
    </g>
  </g>
</svg>