<?xml version="1.0" encoding="UTF-8"?>
<svg id="_레이어_2" data-name="레이어 2" xmlns="http://www.w3.org/2000/svg" viewBox="0 0 174 174">
  <g id="Logo">
    <g id="symbol_10_06_0001_01" data-name="symbol 10 06 0001 01">
      <g id="_이어_1-2" data-name=" 이어 1-2">
        <g id="Group_24" data-name="Group 24">
          <circle id="Ellipse_2" data-name="Ellipse 2" cx="128.41" cy="51.93" r="8.25" fill="#fff"/>
          <circle id="Ellipse_3" data-name="Ellipse 3" cx="11.21" cy="76.27" r="6.47" fill="#fff"/>
          <path id="Path_193" data-name="Path 193" d="M160.07,68.95c-2.85,0-5.54,1.32-7.28,3.58-9.13,9.13-23.27,13.79-37.06,9.27-9.8-3.13-17.88-10.14-22.36-19.39-1.82-9.7-11.17-16.09-20.87-14.26-8.45,1.59-14.57,8.97-14.57,17.57,0,.48,.03,.95,.06,1.43-1.46,14.8-12.99,27.07-26.96,30.41l.02,.02c-2.03,.64-3.86,1.77-5.35,3.29-2.06,2.27-3.23,5.21-3.3,8.28,0,6.65,5.39,12.03,12.04,12.03,5.75,0,10.69-4.07,11.81-9.7,4.57-14.03,17.68-23.51,32.43-23.45,16.71,0,29.92,12.66,33.72,28.42h0c0,11,8.91,19.93,19.91,19.93,11,0,19.93-8.91,19.93-19.91,0-2.91-.63-5.78-1.86-8.42-1.11-2.5-1.54-5.26-1.26-7.98,1-6.49,6.37-11.24,12.37-12.84,5.02-.79,8.45-5.49,7.66-10.51-.7-4.47-4.56-7.77-9.09-7.77h0Z" fill="#fff"/>
        </g>
      </g>
      <rect id="Rectangle_18" data-name="Rectangle 18" width="174" height="174" fill="none"/>
    </g>
  </g>
</svg>