<?xml version="1.0" encoding="UTF-8"?>
<svg id="Layer_2" data-name="Layer 2" xmlns="http://www.w3.org/2000/svg" viewBox="0 0 68 68">
  <g id="Logo">
    <g id="symbol_15_02_0004_02" data-name="symbol 15 02 0004 02">
      <path id="_패스_1153" data-name="패스 1153" d="m33.93,61.61c15.36,0,27.8-12.45,27.8-27.81,0-15.36-12.45-27.8-27.81-27.8-15.36,0-27.8,12.45-27.8,27.81.02,15.35,12.46,27.79,27.81,27.81m0-52.58c13.68,0,24.77,11.09,24.77,24.77s-11.09,24.77-24.77,24.77-24.77-11.09-24.77-24.77h0c.02-13.67,11.1-24.76,24.77-24.77" fill="#fff"/>
      <path id="_패스_1154" data-name="패스 1154" d="m19.57,41.39h6.78v6.78c0,.84.68,1.52,1.52,1.52h12.13c.84,0,1.52-.68,1.52-1.52v-6.78h6.77c.84,0,1.52-.68,1.52-1.52v-12.13c0-.84-.68-1.52-1.52-1.52h-6.77v-6.78c0-.84-.68-1.52-1.52-1.52h-12.13c-.84,0-1.52.68-1.52,1.52v6.78h-6.78c-.84,0-1.52.68-1.52,1.52v12.13c0,.84.68,1.52,1.52,1.52m1.52-12.13h8.29v-8.29h9.1v8.29h8.29v9.1h-8.29v8.29h-9.1v-8.29h-8.29v-9.1Z" fill="#fff"/>
      <rect id="_사각형_475" data-name="사각형 475" width="68" height="68" fill="none"/>
    </g>
  </g>
</svg>