<?xml version="1.0" encoding="UTF-8"?>
<svg id="Layer_2" data-name="Layer 2" xmlns="http://www.w3.org/2000/svg" viewBox="0 0 172 202">
  <g id="Logo">
    <g id="symbol_10_02_0002_01" data-name="symbol 10 02 0002 01">
      <path id="_합치기_21" data-name="합치기 21" d="m114.15,178.37c.98-1.11,1.7-2.42,2.11-3.84l37.36,15.57-1.68,4.02-37.79-15.76Zm-46.22-19.27l-1.47-5.33,31.61,13.18c-.72,1.29-1.15,2.72-1.25,4.2l-28.9-12.05ZM2.17,131.68v-4.72l52.1,21.72,1.47,5.33L2.17,131.68Zm0-12.99v-4.43l164.55,30.89-.81,4.28L2.17,118.69Zm0-16.22l37.25-.89c-.08.51-.13,1.03-.13,1.54,0,.95.14,1.9.41,2.81l-37.53.9v-4.36Zm56.96.65c0-.67-.07-1.35-.2-2.01l41.53-.99-1.86,4.4-39.76.95c.19-.77.29-1.56.29-2.35h0Zm54.59-3.32l56.45-1.35.11,4.35-58.42,1.39,1.86-4.4ZM2.17,90.49l113.78-27.04-2.1,4.98L2.17,94.96v-4.48Zm0-13.33l45.4-21.52,3.72,3.06L2.17,81.98v-4.82Zm128.37-17.17l33.31-7.92,1.01,4.24-36.42,8.66,2.1-4.98Zm-72.58-9.28L148.02,8l1.87,3.94L61.69,53.76l-3.73-3.06Z" fill="#fff"/>
      <rect id="_사각형_245" data-name="사각형 245" width="172" height="202" fill="none"/>
    </g>
  </g>
</svg>