<?xml version="1.0" encoding="UTF-8"?>
<svg id="Layer_2" data-name="Layer 2" xmlns="http://www.w3.org/2000/svg" viewBox="0 0 276 276">
  <g id="Logo">
    <g id="symbol_06_02_0008_01" data-name="symbol 06 02 0008 01">
      <path id="_패스_1438" data-name="패스 1438" d="m247.72,24c2.47,1.35,3.3,3.41,3.3,6.23-.05,72.18-.07,144.35-.05,216.53,0,4.77-1.48,6.22-6.33,6.22-71.1,0-142.19,0-213.29,0-4.88,0-6.35-1.4-6.35-6.2-.01-42.66-.01-85.32,0-127.97,0-4.87,1.42-6.27,6.27-6.27,27.63,0,55.26,0,82.89,0h3.5c.07-1.29.18-2.41.18-3.54.01-26.1,0-52.2-.02-78.3,0-2.77.52-5.12,3-6.7h126.91Zm-76.02,97.88h-97.93v121.82h97.93v-121.82Zm-44.68-9.4h114.68V33.35h-114.68v79.12Zm54.07,87.27h60.59v-77.83h-60.59v77.83Zm-.05,43.95h60.62v-34.53h-60.62v34.53Zm-116.71-121.82h-30.11v56.34h30.11v-56.34Zm-.01,65.76h-30.14v56.08h30.14v-56.08Z" fill="#fff"/>
      <rect id="_사각형_463" data-name="사각형 463" width="276" height="276" fill="none"/>
    </g>
  </g>
</svg>