<?xml version="1.0" encoding="UTF-8"?>
<svg id="Layer_2" data-name="Layer 2" xmlns="http://www.w3.org/2000/svg" viewBox="0 0 186 186">
  <g id="Logo">
    <g id="symbol_21_01_0005_02" data-name="symbol 21 01 0005 02">
      <path id="_합치기_36" data-name="합치기 36" d="m66.96,175.57c.1-.4.15-.82.15-1.23,0-3.15-4.83-2.76-5.52-7.19s-5.02-1.18-11.23-4.23c-.67-.33-1.29-.61-1.89-.87,1.69-.78,2.9-2.33,3.27-4.16.74-5.32-6.21-7.49-11.88-8.08s-4.57-7.78-9.4-11.92c-3.2-2.74-4.67-.9-5.29.66-4.73-3.3-10.04-5.66-15.66-6.95,3.86-8.06,8.75-15.59,14.57-22.38,27.71,10.33,46.1,36.77,46.14,66.34h-3.25Zm97.68,0c4.84-16.4,8.25-40.41,8.25-68.97,0-1.4-.01-2.8-.03-4.18-.11-9.06-.56-17.63-1.28-25.62,1.37-.03,2.73-.22,4.06-.58.9,9.9,1.36,20.21,1.36,30.37v.06c0,24.75-2.71,50.31-7.92,68.91h-4.43Zm-30.57,0h-28.4c0-4.66-.3-9.31-.91-13.92,3.35,0,6.66-.71,9.72-2.08,4.92-2.46-.89-8.47-2.37-15.96s14.88-27.97-.69-28.66-16.25-5.61-27.28-14.48-11.56-1.86-11.56-1.86v.02c-5.44-5.2-11.44-9.8-17.86-13.74,13.3-6.9,27.97-10.77,42.94-11.33,9.38,9.03,17.47,19.31,24.06,30.53,1.45,2.47,2.82,4.98,4.12,7.54,10.07,19.81,15.3,41.72,15.28,63.94h-7.07Zm-10.95-99.83c3.28-35.5,12.24-65.73,26.23-65.73,9.17,0,16.18,13.01,20.85,31.96-1.41.07-2.81.32-4.17.73-4.57-18.01-10.8-28.6-16.68-28.6-8.96,0-18.73,24.6-22.21,62.6-1.33-.34-2.67-.68-4.02-.97h0Z" fill="#fff"/>
      <rect id="_사각형_313" data-name="사각형 313" width="186" height="186" fill="none"/>
    </g>
  </g>
</svg>