<?xml version="1.0" encoding="UTF-8"?>
<svg id="Layer_2" data-name="Layer 2" xmlns="http://www.w3.org/2000/svg" viewBox="0 0 270 270">
  <g id="Logo">
    <g id="symbol_12_02_0010_02" data-name="symbol 12 02 0010 02">
      <path id="_패스_1103" data-name="패스 1103" d="m233.65,80.07L135,14.31,36.35,80.07s-5.06,146.71,98.65,175.54c103.71-28.83,98.65-175.54,98.65-175.54m-43.6,54.01h-7.25c-1.28,0-2.31,1.03-2.31,2.31h0v52.2c0,1.28-1.03,2.31-2.31,2.31h-31.84v-16.14c0-6.26-5.07-11.34-11.33-11.35-6.26,0-11.34,5.07-11.35,11.33v16.15h-31.83c-1.28,0-2.31-1.03-2.31-2.31h0v-52.2c0-1.28-1.03-2.31-2.31-2.31h-7.25c-1.28,0-2.31-1.04-2.31-2.31,0-.65.27-1.26.75-1.7l55.04-50.44c.88-.81,2.24-.81,3.12,0l55.04,50.44c.94.86,1,2.32.14,3.27-.44.48-1.05.75-1.7.75" fill="#fff"/>
      <rect id="_사각형_434" data-name="사각형 434" width="270" height="270" fill="none"/>
    </g>
  </g>
</svg>