<?xml version="1.0" encoding="UTF-8"?>
<svg id="_레이어_2" data-name="레이어 2" xmlns="http://www.w3.org/2000/svg" viewBox="0 0 98 74">
  <g id="Logo">
    <g id="symbol_04_03_0006_01" data-name="symbol 04 03 0006 01">
      <path id="_패스_1258" data-name="패스 1258" d="m95.9,66.94c-.28-6.75-3.72-16.19-8.72-22.19-11.58-13.86-23.43-27.49-35.05-41.32-2.25-2.67-3.72-2.67-5.96,0-10.9,12.97-22.03,25.75-32.9,38.74-5.53,6.5-9.2,14.38-10.62,22.79-.82,4.88.46,6.46,5.47,6.6,5.59.16,9.55-2.83,13.25-6.67,5.49-5.69,9.07-5.64,14.69-.27,9.88,9.42,16.96,9.37,26.81-.21,5.05-4.91,8.57-4.92,13.51-.03,1.08,1.18,2.23,2.29,3.46,3.32,3.69,2.78,7.74,4.46,12.51,3.55,2.52-.48,4.28-1.48,3.57-4.3" fill="#fff"/>
      <rect id="_사각형_408" data-name="사각형 408" width="98" height="74" fill="none"/>
    </g>
  </g>
</svg>