<?xml version="1.0" encoding="UTF-8"?>
<svg id="Layer_2" data-name="Layer 2" xmlns="http://www.w3.org/2000/svg" viewBox="0 0 224 136">
  <g id="Logo">
    <g id="symbol_03_20_0002_01" data-name="symbol 03 20 0002 01">
      <path id="_합치기_7" data-name="합치기 7" d="m182.32,128.56h-25.97c2.17-1.77,2.35-5.88,2.35-5.88l5.82.11,9.41.18,11.85.23,4.78.09-.06,3.03-3.14-.06-.04,2.3h-5Zm-33.5,0h-14.3c-1.58-1.67-2.75-3.68-3.43-5.88-.38-1.12-.67-2.27-.86-3.44l3.05.03,8.56.08.03-1.6,1.66-2.83.3-12.05.04-1.74-8.23-.33-11.69-.48-9.28-.38h-.03l.18-9.56,5.02.09-.02,1.4h.04l8.72,1.25,10.97,1.58,8.72,1.25,10.98,1.58,8.72,1.25,10.97,1.58,8.72,1.25,10.97,1.58,8.72,1.25,12.9,1.86v1.07l-13.94-1.31-8.98-.84-11.3-1.06-8.98-.84-11.31-1.06-8.98-.84h-.12s-2.1-3.81-5.58-3.67c-3.15.13-4.18,3.48-4.18,3.48-2,5.58-2.41,11.6-1.19,17.4.71,3.16,2.02,6.15,3.85,8.82.29.41.56.78.8,1.1h-1.5Zm-43.03,0h-12.51c1.27-1.42,2.25-3.07,2.91-4.86h-.71c1.08-4.66,1.45-9.45,1.07-14.2-.22-2.92-1.05-5.76-2.43-8.34-.28-.49-.57-.93-.87-1.35-1.89-3-5.07-4.95-8.61-5.25-.28-.02-.54-.03-.79-.03l-2.21.26-4.2,6.37,3.42-9.35.07-3.35,7.19.7,9.24.9-.05,2.65s.06.21.14.57c.46,1.83,1.83,7.69,1.43,10.2l-.05,2.44-.29,15.62,2.21.04,9.41.18,4.08.08s-.02,4.54-2.84,6.71h-5.62Zm-31.04,0h-1.9c-1.16-1.69-1.99-3.6-2.43-5.6l-4-.08-9.41-.17-6.31-.12-1.39,1.65-5.21-.1-3.11-.06c-.72,1.71-1.81,3.25-3.2,4.48h-18.05l.13-.2c-2.05-2.03-3.53-4.57-4.26-7.36h-.52s-4.22-.09-4.22-.09l.06-3.17-2.63-4.82-2.36-4.34.13-7,.35-18.67,6.47-2.67.04-2.23-2.51-.05-.58-.87-1.32-1.96s.3-5.02.77-11.99c.13-1.9.26-3.93.41-6.06h0c.33-4.78.7-9.97,1.09-14.89l-1.92,2.98-.62,9.48-2.93-.06.07-4.02.1-5.19.62-5.22-1.65-1.36,2.85-3.26,2.8-.54-.62,3.9,1.55.03c.46-5.67.93-10.74,1.34-14.03.06-.49.12-.94.18-1.35.11-.75.21-1.35.31-1.78.84-3.69,3.79-6.01,6.26-7.35,1.17-.65,2.4-1.16,3.68-1.54l7.65-1.28,13.43-2.25,10.67-1.79,3.42-.57h8.39c-3.73,2.01-4.15,3.82-4.15,3.82l-.06,3.58-.02,1.23c2.97-.35,5.96-.45,8.94-.29.62.03,1.22.2,1.76.49.7.5,1.04,6.58,1.18,13.56,0,.59.02,1.19.03,1.79,1.04-.26,2.11-.38,3.18-.38l.13-6.59.11-5.62,2.99.8,8.12,2.18,6.32,1.69-.13,7.33-.29,15.25-.08,4.31-2.42-.42-8.58-1.47-3.05-.52h-.64s-.17-.14-.17-.14l-1.91-.33-.02,1.25-3.16.99h-.36c-.02,1.26-.02,2.01-.02,2.01l-4.78.05-2.97.03v.06s-2.1-.04-2.1-.04l-.15,8.06-.22,11.75,4.94-.44,2.12-.19.88,1.06,5.48.73,11.04,1.47,8.78,1.17,11.04,1.47,1.06-1.64-1.35-16.53-1.07-13.13-1.35-16.53-1.01-12.37-.42-.21-5.18-2.62-2.78-3.65-2.29-3.01h12.89l1.54,2.77,3.06,5.48.17,4.3.7,17.54.56,13.94.7,17.55.36,8.99-2.14,2.47,1.78,3.34.64,1.21-1.4-.03-4.24-.08-1.73-2.54-2.46.93-.7.27-10.89-.89-9.05-.73h-.12s-.92-1.39-.92-1.39l-9.71-.54-4.33-.24-4.33.06-.5,14.43-.11,3.28-2.27.41-.54.85-.07,10.97,1.3,4.77.08.85.39,3.77,1.39-4.4,7.67.76,3.46.34c-.71,3.56-.14,7.25,1.61,10.42.53.97,1.15,1.88,1.85,2.73h-3.62Zm12.65-4.6c-.05,0-.1,0-.15-.01-2.56-.15-4.67-2.77-5.43-6.37-.22-1.06-.32-2.14-.3-3.22.1-5.25,2.89-9.44,6.25-9.38.65.02,1.28.19,1.85.5,2.31,1.22,3.95,4.56,4.03,8.54,0,.19,0,.38,0,.58-.1,5.2-2.85,9.38-6.17,9.38h-.08Zm61.88-9.1c.02-.8.13-1.59.34-2.36.31-1.33,1.07-2.52,2.15-3.35.49-.34,1.06-.52,1.66-.52,2.22.04,3.97,2.9,3.91,6.38,0,.11,0,.22-.02.33-.16,3.14-1.78,5.65-3.78,5.88-.12.01-.23.02-.35.02-2.22-.04-3.97-2.9-3.91-6.38h0Zm-77.57-.21l-7.77-.66-.5-1.28-1.83-4.68,1.96.04.03-2.03,4.08.08,3.87.07.12-6.27.36-19.19v-.55s.34.02.34.02l8.03.47-.11,5.85-.1,5.25-2.27,5.47-2.3-.05,1.79,4.85-.23,4.09-.51,8.94-4.98-.43Zm.49-43.13l.11-6.04.26-13.62,1.47-.32.37-1.11,1.74.03-.17,9.33-.22,11.81-3.55-.07Z" fill="#fff"/>
      <rect id="_사각형_172" data-name="사각형 172" width="224" height="136" fill="none"/>
    </g>
  </g>
</svg>