<?xml version="1.0" encoding="UTF-8"?>
<svg id="Layer_2" data-name="Layer 2" xmlns="http://www.w3.org/2000/svg" viewBox="0 0 120 128">
  <g id="Logo">
    <g id="symbol_08_01_0003_01" data-name="symbol 08 01 0003 01">
      <path id="_합치기_35" data-name="합치기 35" d="m26.23,114.83h.24V48.82c.14,0,.28.01.43.01,8.89-.01,17-5.06,20.93-13.03h55.31c5.65,8.38,8.92,18.12,9.48,28.21h-63.1c-.8,0-1.45.65-1.45,1.46h0v38.93c0,.8.65,1.45,1.45,1.46h47.86c-10.63,11.32-25.48,17.74-41.01,17.73-10.67.01-21.12-3.02-30.13-8.74ZM6.43,25.46C6.43,14.16,15.59,5,26.89,5h0c11.3,0,20.46,9.16,20.46,20.46h0c0,11.3-9.16,20.46-20.46,20.46-11.3,0-20.46-9.16-20.46-20.46Z" fill="#fff"/>
      <rect id="_사각형_301" data-name="사각형 301" width="120" height="128" fill="none"/>
    </g>
  </g>
</svg>