<?xml version="1.0" encoding="UTF-8"?>
<svg id="Layer_2" data-name="Layer 2" xmlns="http://www.w3.org/2000/svg" viewBox="0 0 308 108">
  <g id="Logo">
    <g id="symbol_21_02_0002_01" data-name="symbol 21 02 0002 01">
      <path id="_패스_724" data-name="패스 724" d="m285.53,34.51c-9.65-13.1-25.83-15.76-45.58-12.5-26.61,4.39-59.73,19.51-92.22,34.34-27.27,12.45-55.1,25.16-77.57,30.59-6.45,1.68-13.07,2.6-19.73,2.74-4.7.13-9.38-.72-13.74-2.49-6.13-2.7-10.27-7.6-12.65-14.99-2.33-6.84-1.53-14.35,2.19-20.55,6.06-10.76,19.01-19.59,32.7-26.42,3.84-1.92,7.74-3.67,11.56-5.26,1.06-2.63,2.23-5.19,3.52-7.69-4.87,1.88-9.99,4.04-15.09,6.49-15.42,7.4-30.6,17.41-37.71,30.05-4.5,7.6-5.47,16.78-2.66,25.15,2.88,8.92,8.2,15.14,15.81,18.49,9.86,4.34,22.94,3.66,38.1-.11,22.51-5.59,49.61-17.96,77.65-30.76,32.64-14.9,65.93-30.1,91.67-34.12,17.26-2.69,31.12-.37,39.1,10.46,5.07,6.87,5.76,14.3,2.06,22.06-1.28,2.62-2.87,5.09-4.74,7.33-5.17,6.34-12.86,12.35-21.96,17.48-1.8,1.01-3.65,1.99-5.55,2.93-4.6,2.27-9.33,4.26-14.17,5.96-1.24,2.54-2.6,5.02-4.06,7.43,6.24-1.87,12.33-4.2,18.23-6.95,5.74-2.67,11.26-5.8,16.49-9.37,3.93-2.68,7.62-5.69,11.03-8.99,4.06-3.84,7.43-8.35,9.94-13.34,4.62-9.69,3.71-19.36-2.63-27.96" fill="#fff"/>
      <rect id="_사각형_261" data-name="사각형 261" width="308" height="108" fill="none"/>
    </g>
  </g>
</svg>