<?xml version="1.0" encoding="UTF-8"?>
<svg id="_레이어_2" data-name="레이어 2" xmlns="http://www.w3.org/2000/svg" viewBox="0 0 109 124">
  <g id="Tag">
    <g id="symbol_03_16_0001_01" data-name="symbol 03 16 0001 01">
      <rect id="_사각형_72" data-name="사각형 72" width="109" height="124" fill="none"/>
      <path id="_패스_478" data-name="패스 478" d="M108.71,38.34c.02-.8-.1-1.61-.35-2.37l-21.01,8.93c1.75,3.94,2.65,8.2,2.64,12.51-.03,17.35-14.52,31.44-32.29,31.38-12.62,.01-24.08-7.33-29.34-18.8L1.31,81.49v11.12H108.71v-1.28c0-17.67,0-35.33,0-53Z" fill="#fff"/>
      <path id="_패스_479" data-name="패스 479" d="M44.25,77.51c9.07,5.41,20.51,4.79,28.94-1.56,2.01-1.59,3.73-3.51,5.11-5.68,.74-1.15,1.38-2.37,1.91-3.63,2.58-5.96,2.6-12.71,.05-18.69l-45.04,19.06c1.91,4.31,5.05,7.96,9.03,10.49Z" fill="#fff"/>
      <path id="_패스_480" data-name="패스 480" d="M1.36,93.5H108.66c0,2.76,.11,5.48-.04,8.19-.09,1.65-2.07,2.98-4.16,3.12-.25,.02-.51,.01-.77,.01-32.44,0-64.88,0-97.32,0-1.49,.12-2.96-.41-4.03-1.45-.49-.47-.82-1.08-.94-1.75-.1-2.69-.05-5.38-.05-8.13Zm53.7,3.75c-1.14-.1-2.17,.69-2.38,1.81,.1,1.17,1.11,2.05,2.29,1.98,1.04,.24,2.08-.4,2.33-1.44,.24-1.04-.4-2.08-1.44-2.33-.26-.06-.53-.07-.8-.02Z" fill="#fff"/>
      <path id="_패스_481" data-name="패스 481" d="M40.92,120v-11.32h28.16v11.33c1.58,0,3.07-.04,4.55,0,1.9,.06,3.07,1.43,2.23,2.67-.41,.47-.94,.82-1.54,1.02-.49,.13-1.01,.17-1.51,.12-11.87,0-23.75,0-35.62,0-.37,0-.74,.01-1.1-.02-1.32-.13-2.2-.88-2.21-1.87-.01-1.02,.9-1.84,2.27-1.91,1.21-.06,2.42-.02,3.63-.02,.33,0,.66,0,1.15,0Z" fill="#fff"/>
      <path id="_패스_482" data-name="패스 482" d="M35.3,67.21c-2.29-5.01-2.85-10.64-1.57-16,2.88-10.31,12.01-17.64,22.7-18.22,9.96-.48,19.04,5.41,22.74,12.57,.43,.83,.79,1.68,1.09,2.56l7.3-3.05c-5.74-11.8-17.05-19.56-29.4-19.92-14.17-.41-23.37,9.12-24.26,10.08-5.29,6.2-8.31,14.01-8.57,22.16-.01,2.75,.31,5.5,.97,8.17h0c.47,1.61,1.11,3.16,1.91,4.64l7.09-2.98Z" fill="#fff"/>
      <path id="_패스_483" data-name="패스 483" d="M6.6,71.93c1.22,0,2.44-.1,3.66-.04,.41,.05,.77,.29,.98,.65,.63,1.54,1.23,3.1,1.83,4.67l7.38-3.15c-.95-2.23-1.72-4.53-2.28-6.89-.57-2.39-1.99-3.45-4.45-3.46l-4.27-.03,.09-12.18c1.63,.01,3.01,.03,4.4,.03,2.08,.22,3.97-1.22,4.33-3.28,1.09-4.26,2.8-8.34,5.08-12.1,1.17-1.68,.88-3.97-.67-5.31-.5-.52-1.03-1-1.54-1.51-.48-.48-.94-.96-1.5-1.54,2.5-3.26,5.43-6.17,8.7-8.65,.95,1.01,1.86,2,2.79,2.97,1.75,1.83,3.48,2.11,5.66,.81,3.62-2.16,7.54-3.76,11.63-4.75,2.52-.61,3.55-2.01,3.56-4.64,0-1.31,.02-2.61,.03-4.17l12.11,.09c-.01,1.65-.03,3.04-.03,4.43-.22,2.08,1.2,3.98,3.26,4.36,4.24,1.09,8.3,2.81,12.02,5.11,1.67,1.18,3.96,.89,5.27-.68,.99-.97,1.94-2,2.99-3.08,3.26,2.52,6.17,5.48,8.63,8.78-1.01,.95-1.99,1.87-2.95,2.8-1.83,1.77-2.1,3.5-.8,5.7,1.01,1.71,1.89,3.49,2.65,5.33l7.37-3.14c-.5-1.3-1-2.62-1.52-3.95-.03,.05,0-.04,.06-.1,1.03-1,2.08-1.98,3.1-2.99,1.73-1.43,1.98-3.98,.56-5.71-3.95-5.96-9-11.12-14.88-15.2-2.11-1.47-3.94-1.29-5.78,.51-1.08,1.05-2.2,2.07-3.21,3.02-2.63-1.08-5.29-2.13-7.9-3.27-.38-.23-.64-.62-.69-1.07-.05-1.22,.08-2.45,.09-3.68,.23-2.27-1.42-4.29-3.69-4.52,0,0,0,0,0,0-6.95-1.38-14.1-1.44-21.07-.16-2.29,.19-4,2.2-3.81,4.49,0,.02,0,.03,0,.05,0,1.23,.1,2.46,.04,3.68-.05,.41-.29,.78-.64,.99-2.68,1.1-5.38,2.12-8,3.14-1.04-1-2.14-2.04-3.22-3.11-1.41-1.73-3.94-1.99-5.67-.58,0,0,0,0-.01,0-5.93,3.99-11.06,9.07-15.11,14.97-1.47,1.72-1.27,4.31,.46,5.78,.01,.01,.03,.02,.04,.04,1.05,1.08,2.08,2.2,3.02,3.19-1.07,2.68-2.12,5.35-3.24,7.99-.23,.38-.62,.64-1.07,.7-1.17,.05-2.35-.06-3.53-.09-2.67-.06-4.13,1.19-4.64,3.82-1.36,6.95-1.4,14.1-.14,21.07,.43,2.56,1.9,3.85,4.49,3.84Z" fill="#fff"/>
    </g>
  </g>
</svg>