<?xml version="1.0" encoding="UTF-8"?>
<svg id="Layer_2" data-name="Layer 2" xmlns="http://www.w3.org/2000/svg" viewBox="0 0 218 218">
  <g id="Logo">
    <g id="symbol_06_01_0010_02" data-name="symbol 06 01 0010 02">
      <path id="_합치기_50" data-name="합치기 50" d="m20.49,197.08c-.12-2.22-.09-4.45.08-6.67.25-2.13,2.27-3.63,4.46-3.87.76-.07,1.53-.1,2.3-.08h156.96c.77-.02,1.54.01,2.3.09,2.46.22,4.4,2.18,4.6,4.64.13,1.93.06,3.87.04,5.89H20.49Zm8.36-16.5v-95.26h153.94v95.24h-84.9v-2.21c0-14.08.06-28.15-.02-42.23.05-12.67-8.42-23.79-20.65-27.09-17.94-4.76-35.07,8.52-35.18,27.36-.08,13.95-.02,27.9-.02,41.84v2.35h-13.17Zm131.42-30.48c6.07-.03,10.21-4.19,10.23-10.28.03-8.57.03-17.14,0-25.72-.02-6.21-4.15-10.39-10.33-10.41-13.18-.03-26.36-.03-39.54,0-6.31,0-10.4,4.16-10.4,10.51-.02,8.45-.02,16.89,0,25.34.01,6.49,4.04,10.56,10.51,10.57,6.52.02,13.04,0,19.57,0,6.66,0,13.31.03,19.96,0h0Zm-39.69-5.78c-3.05-.02-4.56-1.56-4.58-4.63-.02-3.24,0-6.48,0-9.89h21.33v14.52h-4.1c-2.53,0-5.06,0-7.58,0-1.69,0-3.37,0-5.06,0h0Zm22.78-.02v-14.4h21.36c0,3.56.06,6.95-.02,10.34.09,2.14-1.56,3.94-3.7,4.03-.04,0-.07,0-.11,0-2.45.04-4.89.05-7.35.05-3.37,0-6.76-.02-10.19-.02h0Zm-27.24-20.43c0-3.77-.15-7.58.07-11.37.15-1.71,1.6-3,3.32-2.96,5.92-.12,11.85-.04,17.87-.04v14.37h-21.26Zm27.18-.04v-14.23c.52-.05,1-.14,1.49-.14,5.05-.01,10.1-.03,15.15,0,3.26.02,4.77,1.56,4.8,4.85.02,3.13,0,6.26,0,9.54h-21.44ZM21.39,79.39c-.73-.24-1.68-.47-2.01-1.02-.24-.4.2-1.46.64-1.97,3.36-3.86,6.8-7.65,10.21-11.47,12.97-14.5,25.93-28.99,38.9-43.49,1.54-1.72,2.19-1.76,3.67-.09,16.34,18.26,32.67,36.53,48.98,54.82.44.71.76,1.49.94,2.3-.78.44-1.63.75-2.51.91-16.44.05-32.88.07-49.33.04H22.73c-.28,0-.56.04-.84.04-.17,0-.33-.02-.49-.06h0Zm107.08-.13c.93-4.32-2.23-6.72-4.8-9.73.87-.06,1.41-.13,1.95-.13,6.27,0,12.53,0,18.8,0,15.67,0,31.34,0,47.01-.02,1.15-.17,2.26.48,2.67,1.56,1.03,2.2,2.27,4.29,3.41,6.43.28.53.5,1.1.85,1.9h-69.9Zm-11.52-17.18c-1.84-2.21-3.8-4.3-5.9-6.65.68-.07,1.15-.16,1.61-.16,23.79,0,47.57-.02,71.35-.03,1.01-.15,2,.42,2.38,1.37,1.1,2.27,2.37,4.46,3.74,7.01h-2.24c-22.5,0-45.01.01-67.51.03h-.03c-1.32.08-2.6-.51-3.4-1.56h0Zm-12.5-13.97c-2.38-2.8-4.86-5.51-7.63-8.63h2.29c24.8,0,49.61.03,74.42-.04,2.57,0,4.23.84,5.32,3.16,1.05,2.24,2.32,4.38,3.65,6.89h-2.07c-24.29,0-48.59,0-72.88.03-1.2.07-2.36-.45-3.1-1.4h0Z" fill="#fff"/>
      <rect id="_사각형_447" data-name="사각형 447" width="218" height="218" fill="none"/>
    </g>
  </g>
</svg>