<?xml version="1.0" encoding="UTF-8"?>
<svg id="_레이어_2" data-name="레이어 2" xmlns="http://www.w3.org/2000/svg" viewBox="0 0 165 221">
  <g id="Logo">
    <g id="symbol_13_03_0004_01" data-name="symbol 13 03 0004 01">
      <path id="_패스_1007" data-name="패스 1007" d="m159.81,133.16c-.37-5.87-3.25-7.38-8.76-6.75-14.02,1.62-27.86,3.4-40.67,9.77-21.83,10.86-34.75,26.41-34.21,50.74-.81,5.4,1.12,11.44,2.13,17.55.46,2.77,1.62,5.43,2.44,8.15.19.61.43,1.19.74,1.75,4.6-12.54,11.05-24.32,19.14-34.95,7.19-9.44,15.52-17.95,24.81-25.33,1.18-.92,2.87-.82,3.93.24.93.94.91,2.46-.03,3.38-.07.07-.15.14-.24.2-8.95,7.11-16.97,15.31-23.9,24.4-8.05,10.57-14.4,22.33-18.85,34.85.91,0,1.83-.1,2.72-.3,40.52-8.71,72.98-48.12,70.75-83.71" fill="#fff"/>
      <path id="_패스_1008" data-name="패스 1008" d="m68.71,199.95c-1.38-5.17-2.08-10.5-2.06-15.86-13.34-7.48-25.45-16.97-35.89-28.14-.91-.95-.88-2.47.07-3.38.08-.07.16-.14.24-.2,1.19-.91,2.88-.78,3.93.29,9.39,10.04,20.18,18.67,32.03,25.62.84-6.83,3.07-13.41,6.55-19.34,3.43-5.92,2.19-10.11-3.14-14.01-14.7-10.75-31.77-15.65-45.14-17.02-18.77-.17-22.52,3.62-20.64,15.21,5.29,32.56,24.71,55.19,57.54,68.42,2.16.87,4.52,2.93,6.83,1.3,2.48-1.75,1.63-4.65,1.18-7.14-.35-1.94-1.01-3.84-1.51-5.76" fill="#fff"/>
      <path id="_패스_1009" data-name="패스 1009" d="m157.39,70.75h-47.65l.07-62.61c0-.69-.3-1.34-.82-1.8-.54-.49-1.24-.75-1.97-.75H33.05c-1.47-.06-2.72,1.07-2.79,2.54v26.09H7.75c-1.47-.06-2.72,1.07-2.79,2.54v83.35c0,.75.36,1.46.96,1.92.63.49,1.43.7,2.23.59,12.81-1.69,25.82-.73,38.25,2.82,12.34,3.55,23.79,9.66,33.61,17.94,1.11.92,2.72.91,3.83-.02,3.66-3.2,7.54-6.14,11.61-8.81,3.33-2.19,6.77-4.19,10.32-6,7.52-2.96,15.34-5.06,23.33-6.27,9.26-1.41,18.67-1.62,27.98-.62.78.09,1.56-.14,2.17-.63.58-.46.93-1.16.93-1.9v-45.85c-.07-1.47-1.32-2.61-2.79-2.54M20.45,116.76c-3.31,0-6.62.16-9.91.49V39.32h19.69v77.92c-3.25-.32-6.51-.48-9.77-.48m82.72,7.32c-3.78,1.92-7.45,4.05-10.99,6.37-3.58,2.35-7.01,4.91-10.3,7.65-10.01-7.99-21.49-13.93-33.8-17.48-4.03-1.15-8.13-2.05-12.28-2.68V37.2s0-.04,0-.06c.02-.12.04-.24.04-.37V10.69h68.4l-.06,57.42c-.08.24-.13.49-.13.74v54.89c-.2.08-.42.15-.62.23-.09.03-.17.07-.25.11m51.44-7.73c-15.21-1.22-30.51.61-45,5.38v-45.88h45v40.5Z" fill="#fff"/>
      <path id="_패스_1010" data-name="패스 1010" d="m61.03,45.96h-9.88c-.51,0-.93-.42-.93-.93h0v-13.14c0-.51.42-.93.93-.93h9.88c.51,0,.93.42.93.93h0v13.14c0,.51-.42.93-.93.93" fill="#fff"/>
      <path id="_패스_1011" data-name="패스 1011" d="m88.75,45.96h-9.88c-.51,0-.93-.42-.93-.93h0v-13.14c0-.51.42-.93.93-.93h9.88c.51,0,.93.42.93.93h0v13.14c0,.51-.42.93-.93.93" fill="#fff"/>
      <path id="_패스_1012" data-name="패스 1012" d="m61.03,74.5h-9.88c-.51,0-.93-.42-.93-.93h0v-13.14c0-.51.42-.93.93-.93h9.88c.51,0,.93.42.93.93h0v13.14c0,.51-.42.93-.93.93" fill="#fff"/>
      <path id="_패스_1013" data-name="패스 1013" d="m88.75,74.5h-9.88c-.51,0-.93-.42-.93-.93h0v-13.14c0-.51.42-.93.93-.93h9.88c.51,0,.93.42.93.93h0v13.14c0,.51-.42.93-.93.93" fill="#fff"/>
      <path id="_패스_1014" data-name="패스 1014" d="m23.5,55.61h-7.21c-.51,0-.93-.42-.93-.93v-6.41c0-.51.42-.93.93-.93h7.21c.51,0,.93.42.93.93v6.41c0,.51-.42.93-.93.93" fill="#fff"/>
      <path id="_패스_1015" data-name="패스 1015" d="m23.5,69.65h-7.21c-.51,0-.93-.42-.93-.93v-6.41c0-.51.42-.93.93-.93h7.21c.51,0,.93.42.93.93v6.41c0,.51-.42.93-.93.93" fill="#fff"/>
      <path id="_패스_1016" data-name="패스 1016" d="m23.5,83.7h-7.21c-.51,0-.93-.42-.93-.93v-6.41c0-.51.42-.93.93-.93h7.21c.51,0,.93.42.93.93v6.41c0,.51-.42.93-.93.93" fill="#fff"/>
      <path id="_패스_1017" data-name="패스 1017" d="m23.5,97.74h-7.21c-.51,0-.93-.42-.93-.93v-6.41c0-.51.42-.93.93-.93h7.21c.51,0,.93.42.93.93v6.41c0,.51-.42.93-.93.93" fill="#fff"/>
      <path id="_패스_1018" data-name="패스 1018" d="m61.03,103.04h-9.88c-.51,0-.93-.42-.93-.93h0v-13.14c0-.51.42-.93.93-.93h9.88c.51,0,.93.42.93.93h0v13.14c0,.51-.42.93-.93.93" fill="#fff"/>
      <path id="_패스_1019" data-name="패스 1019" d="m88.75,103.04h-9.88c-.51,0-.93-.42-.93-.93h0v-13.14c0-.51.42-.93.93-.93h9.88c.51,0,.93.42.93.93h0v13.14c0,.51-.42.93-.93.93" fill="#fff"/>
      <path id="_패스_1020" data-name="패스 1020" d="m143.66,94.53h-7.46c-.51,0-.93-.42-.93-.93h0v-10.06c0-.51.42-.93.93-.93h7.47c.51,0,.93.42.93.93v10.06c0,.51-.42.93-.93.93" fill="#fff"/>
      <path id="_패스_1021" data-name="패스 1021" d="m128.02,94.53h-7.47c-.51,0-.93-.42-.93-.93h0v-10.06c0-.51.42-.93.93-.93h7.47c.51,0,.93.42.93.93v10.06c0,.51-.42.93-.93.93" fill="#fff"/>
      <path id="_패스_1022" data-name="패스 1022" d="m143.66,111.02h-7.46c-.51,0-.93-.42-.93-.93h0v-10.06c0-.51.42-.93.93-.93h7.47c.51,0,.93.42.93.93v10.06c0,.51-.42.93-.93.93" fill="#fff"/>
      <path id="_패스_1023" data-name="패스 1023" d="m128.02,111.02h-7.47c-.51,0-.93-.42-.93-.93h0v-10.06c0-.51.42-.93.93-.93h7.47c.51,0,.93.42.93.93v10.06c0,.51-.42.93-.93.93" fill="#fff"/>
      <rect id="_사각형_393" data-name="사각형 393" width="165" height="221" fill="none"/>
    </g>
  </g>
</svg>