<?xml version="1.0" encoding="UTF-8"?>
<svg id="_레이어_2" data-name="레이어 2" xmlns="http://www.w3.org/2000/svg" viewBox="0 0 175 120">
  <g id="Logo">
    <g id="symbol_20_03_0003_01" data-name="symbol 20 03 0003 01">
      <rect id="_사각형_282" data-name="사각형 282" width="175" height="120" fill="none"/>
      <path id="_패스_773" data-name="패스 773" d="M104.08,6.37c-.09,17.01-.13,33.57-.38,50.08-.02,1.3-1.32,2.56-2.49,3.34-9.95,6.71-13.57,22.42-7.78,34.4,4.1,8.49,12.06,11.66,19.49,7.77,10.33-5.42,14.82-23.45,8.52-35.06-1.14-2.34-2.81-4.38-4.87-5.97-3.36-2.24-3.55-4.34-3.32-7.1,1.23-15.1,2.36-30.22,3.39-45.38,.17-2.47,.92-4.16,3.9-4.23,6.19-.15,12.34-1.31,18.58-.24,18.19,3.1,32.25,18.06,32.68,34.5,.57,21.94-11.28,35.05-32.96,40.63-2.65,.68-3.7,1.59-3.61,4.28,.26,7.81,.11,15.54,.13,23.31,.01,6.34-3.28,9.49-10.26,9.54-25.27,.18-50.54,.33-75.82,.44-6.54,.03-9.77-2.76-9.91-8.73-.18-7.53-.07-15-.11-22.5,0-1.55-.15-3.12-.24-4.84-2.77-.65-5.15-1.1-7.5-1.78C15.15,74.11,3.44,60.59,2.44,45.34,.99,23.25,18.08,4.87,41.91,3.64c5.04-.26,10.65,1.26,16.01,2.12,2.49,.4,3.57,1.66,3.53,4.11-.23,16-.19,32.05-.44,48.05-.2,1.58-1.05,3-2.34,3.93-3.71,2.72-5.97,6.98-6.14,11.58-.36,8.73-.8,17.44-.97,26.21-.02,1.25,1.3,2.8,2.01,4.21,1-1.09,2.76-1.98,2.87-3.3,.52-6.45,.59-13.02,.85-19.54-.1-1.15,.05-2.31,.45-3.4,.45-.79,1.7-1.11,2.59-1.64,.48,.92,1.4,1.93,1.38,2.74-.11,6.16-.4,12.28-.63,18.41-.17,.9-.19,1.83-.04,2.73,.54,1.34,1.17,2.64,1.91,3.88,.94-.97,2.59-1.75,2.69-2.95,.5-5.8,.57-11.7,.82-17.57-.08-1.68,.05-3.37,.38-5.02,.31-1.02,1.55-1.65,2.37-2.46,.61,1.17,1.76,2.46,1.75,3.5-.06,6.3-.39,12.54-.62,18.8-.15,.91-.15,1.83,0,2.74,.43,1,.96,1.94,1.6,2.82,.99-.44,2.3-.65,2.89-1.39,.56-.7,.46-1.94,.5-2.97,.36-8.47,.64-16.96,1.05-25.41,.23-4.6-1.06-8.74-5.74-12.46-.94-.95-1.45-2.25-1.41-3.59,1.09-16.45,2.28-32.88,3.57-49.28,.09-1.15,.69-2.66,1.67-2.99,8.95-3,18.57-3.3,29.62,.87Z" fill="#fff"/>
    </g>
  </g>
</svg>