<?xml version="1.0" encoding="UTF-8"?>
<svg id="_레이어_2" data-name="레이어 2" xmlns="http://www.w3.org/2000/svg" viewBox="0 0 65 49">
  <g id="Logo">
    <g id="symbol_10_03_0004_02" data-name="symbol 10 03 0004 02">
      <path id="_패스_1538" data-name="패스 1538" d="m36.26,25.83V7.95c0-1.23.51-1.91,1.43-1.89.87.02,1.37.71,1.37,1.89v35.63c.02.32-.02.64-.1.95-.18.61-.76,1.03-1.4,1-.66-.07-1.19-.58-1.28-1.24-.02-.26-.03-.52-.02-.78v-17.7" fill="#fff"/>
      <path id="_패스_1539" data-name="패스 1539" d="m9.98,25.78v-11.46c-.05-.48.12-.96.47-1.31.55-.52,1.41-.49,1.93.05.1.1.18.22.24.35.13.29.19.61.17.93v22.99c0,.14,0,.28-.02.42-.08.76-.76,1.32-1.52,1.24-.65-.07-1.16-.57-1.24-1.22-.03-.22-.04-.44-.03-.66,0-3.78,0-7.56,0-11.34" fill="#fff"/>
      <path id="_패스_1540" data-name="패스 1540" d="m54.81,25.87v11.28c0,.2,0,.4-.01.6-.07.75-.74,1.31-1.5,1.24-.56-.05-1.03-.44-1.19-.98-.09-.33-.12-.67-.11-1.01V14.55c-.02-.32.02-.64.11-.95.22-.73.98-1.14,1.71-.92.54.16.92.63.97,1.19.02.22.02.44.01.66v11.34" fill="#fff"/>
      <path id="_패스_1541" data-name="패스 1541" d="m33.8,25.84v11.22c0,.24,0,.48-.02.72-.1.66-.64,1.16-1.3,1.22-.66.01-1.25-.44-1.4-1.08-.06-.27-.08-.55-.08-.83V14.53c0-.26.01-.52.05-.77.12-.68.73-1.16,1.42-1.11.67.04,1.21.54,1.3,1.2.03.22.03.44.02.66v11.34" fill="#fff"/>
      <path id="_패스_1542" data-name="패스 1542" d="m41.54,25.81v-11.64c-.09-.76.46-1.44,1.21-1.52.04,0,.08,0,.12,0,.71-.04,1.33.49,1.4,1.2.04.36.05.72.05,1.08v21.78c0,.4-.02.8-.08,1.19-.12.66-.7,1.13-1.36,1.11-.66-.05-1.21-.54-1.31-1.2-.02-.22-.02-.44-.02-.66v-11.34" fill="#fff"/>
      <path id="_패스_1543" data-name="패스 1543" d="m7.51,25.89c0,2.1,0,4.2,0,6.3.03.47-.16.92-.51,1.23-.58.49-1.45.41-1.93-.18-.12-.14-.2-.3-.26-.47-.08-.29-.12-.59-.1-.89v-12.18c0-.16,0-.32.02-.48.06-.75.67-1.34,1.43-1.36.78.05,1.38.71,1.35,1.49.01,2.18,0,4.36,0,6.54" fill="#fff"/>
      <path id="_패스_1544" data-name="패스 1544" d="m28.52,25.85c0,2.1,0,4.2,0,6.3.05.51-.17,1-.57,1.32-.61.45-1.46.32-1.91-.29-.1-.13-.17-.28-.21-.44-.07-.29-.11-.59-.1-.89,0-4.02,0-8.04,0-12.06-.03-.42.05-.84.22-1.23.29-.5.86-.76,1.43-.67.64.11,1.11.65,1.14,1.3.03.84.01,1.68.01,2.52v4.14" fill="#fff"/>
      <path id="_패스_1545" data-name="패스 1545" d="m60.08,25.82v6.24c.02.36-.06.72-.25,1.03-.39.64-1.22.84-1.86.45-.2-.12-.36-.29-.48-.5-.18-.36-.26-.76-.23-1.16v-12.12c0-.2,0-.4.02-.6.05-.76.71-1.34,1.47-1.3.74.05,1.31.67,1.3,1.41.03.8.01,1.6.01,2.4v4.14" fill="#fff"/>
      <path id="_패스_1546" data-name="패스 1546" d="m18.05,25.81v6c0,.28-.02.56-.07.83-.15.74-.88,1.22-1.62,1.06-.63-.13-1.08-.68-1.09-1.33-.03-1-.01-2-.01-3v-9.6c0-.22,0-.44.02-.66.06-.75.72-1.31,1.47-1.25.57.05,1.05.44,1.21.99.08.31.12.63.1.95v6" fill="#fff"/>
      <path id="_패스_1547" data-name="패스 1547" d="m49.54,25.81c0,2.16,0,4.32,0,6.48.05.75-.52,1.4-1.28,1.45-.75.05-1.4-.52-1.45-1.28,0,0,0-.02,0-.03-.03-.2-.05-.4-.05-.6,0-4.04,0-8.08,0-12.11,0-.22.02-.44.06-.65.11-.7.72-1.21,1.43-1.2.73.05,1.29.67,1.29,1.4.01,2.18,0,4.36,0,6.54" fill="#fff"/>
      <path id="_패스_1548" data-name="패스 1548" d="m23.25,25.78c0,.86,0,1.72,0,2.58.04.74-.52,1.38-1.26,1.42-.03,0-.07,0-.1,0-.73.01-1.34-.57-1.35-1.31,0-.04,0-.08,0-.12,0-1.7,0-3.39,0-5.09-.05-.75.51-1.4,1.26-1.45.75-.05,1.4.51,1.45,1.26,0,.06,0,.13,0,.19,0,.84,0,1.68,0,2.52" fill="#fff"/>
      <rect id="_사각형_587" data-name="사각형 587" width="65" height="49" fill="none"/>
    </g>
  </g>
</svg>