<?xml version="1.0" encoding="UTF-8"?>
<svg id="_레이어_2" data-name="레이어 2" xmlns="http://www.w3.org/2000/svg" viewBox="0 0 281 271">
  <g id="Logo">
    <g id="symbol_21_02_0006_02" data-name="symbol 21 02 0006 02">
      <path id="_패스_1274" data-name="패스 1274" d="m159.05,222.36l27.06-6.62,3.49-1.5c8.04-2.45,15.53-6.41,22.08-11.67,1.81-1.02,3.48-2.27,4.97-3.71,6.38-4.42,11.54-10.12,16.61-15.92l3.33-4.63c4.54-5.13,8.26-10.93,11.02-17.2l2.48-5.53c3.15-5.67,4.85-11.84,6.24-18.11l-.03.04c2.08-7.05,3.13-14.36,3.13-21.71l-.02.03c1.11-5.65.37-11.3-.18-16.92-1.1-11.25-3.48-22.19-9.02-32.28-2.39,2.3-5.25,1.91-8.03,1.22-5.37-1.34-8.71-5.31-11.67-9.59-1.32-1.91.31-2.05,1.61-1.99,5.83.27,11.41,1.28,15.64,5.94-3.08-6.5-7.34-12.16-11.7-18.15-.34,1.9-1.68,2.34-3.11,2.71-5.42,1.38-14.44-2.41-17.36-7.25-.95-1.57.12-1.75,1.2-1.95,5.22-.97,10.27-.63,15.08,2.03-3.18-4.42-7-8.35-11.33-11.66l-3.89-3.2-1.87-2.49c1.82.14,2.62,1.32,3.74,1.87l.7.7c11.41,9.87,21.21,21.46,29.03,34.37-.55-4.81.22-9.68,2.23-14.08.31-.74.46-1.75,1.37-1.91,1.02-.18,1.32.86,1.67,1.55,2.96,5.81,5.48,11.69,1.79,18.15-1.6,2.8-2.16,2.85-4.67.66,3.15,6.18,5.75,12.64,7.75,19.28-.05-5.6,2.3-10.23,5.54-14.51.48-.63.78-1.64,1.75-1.55,1.02.09,1.1,1.15,1.29,1.89,1.73,6.65,2.64,13.23-2.27,19.09-1.39,1.66-2.91,3.1-5.22-.02.77,5.98,1.64,11.14,2.03,16.37.52,8.64.09,17.31-1.28,25.85-.13.92-.15,1.85-.23,2.77-.21.79-.42,1.59-.64,2.38-1.76,8.54-4.91,16.63-8.01,24.73l.03-.04c-3.62,6.85-7.77,13.39-11.86,19.96l-2.38,2.94c-5.22,5.73-10.5,11.41-16.12,16.75l-4.26,3.66c-5.36,3.08-10.14,7.08-15.76,9.74-1.85.87-3.65,1.83-6.08,3.05,7.83-1.21,14.17,1.3,20.31,4.58.99.53,2.77,1.35.5,2.45-6.37,3.1-12.91,5.59-20.23,3.92-2.22-.51-4.3-1.51-6.09-2.92-3.01-2.35-3.03-2.59.04-5.81l-23.91,6.14c7.32.09,13.27,3.5,18.88,7.71.71.53,1.81,1,1.58,2.07s-1.45,1.06-2.29,1.28c-5.31,1.37-10.64,2.57-16.18,1.39-3.99-.77-7.6-2.87-10.23-5.96-.93-1.09-1.84-2.23.1-4.17l-11.13,4.07c.06,1.5,1.2,1.57,1.92,1.99,10.93,6.5,20.16,14.68,26.02,26.21.28.55.59,1.09.87,1.64.56,1.09.87,2.1-.53,2.88-1.45.8-2.29.27-2.94-1.07-1.62-3.46-3.57-6.75-5.84-9.83-6.04-7.95-13.83-13.79-22.55-18.49-1.34-.8-3.02-.78-4.35.05-11.95,6.34-21.79,14.83-27.88,27.17-.14.28-.29.55-.42.83-.62,1.38-1.42,2.23-3.11,1.42-1.82-.88-.88-2.03-.38-3.08,4.69-9.84,11.88-17.52,20.69-23.78,2.02-1.43,4.17-2.66,6.25-4.01.58-.38,1.49-.62,1.48-1.42-.01-.89-.98-.97-1.61-1.21-2.7-1.02-5.42-1.98-8.68-3.17.95,1.05.87,2.67-.18,3.62-3.79,4.71-8.91,6.63-14.68,6.77-4.45.03-8.87-.69-13.07-2.14-1.81-.58-1.98-1.39-.51-2.46,5.8-4.21,11.72-8.17,19.45-8.38l-23.05-5.93c.06,1.52,2.68,1.8,1.67,3.53-.83,1.19-1.93,2.17-3.22,2.85-5.4,3.45-11.12,3.23-16.99,1.61-2.68-.76-5.29-1.74-7.81-2.95-2.02-.95-1.9-1.87,0-2.88,5.63-2.96,11.5-5.08,18.15-5.31-7.84-3.68-14.63-8.89-21.68-13.72l-1.51-1.42c-6.12-5.54-11.87-11.49-17.19-17.81l-.74-.75c-4.6-6.86-9.03-13.83-12.97-21.1,0-1.11-.42-2.18-1.19-2.98-2.73-6.85-5.01-13.88-6.82-21.03.04-.93-.21-1.85-.71-2.64-.61-5.95-1.45-11.88-1.78-17.84-.4-9.46.38-18.93,2.32-28.2-2.47,2.68-2.88,2.73-5.18.25-3.67-3.95-4.46-8.69-3.55-13.83.44-2.5.22-6.56,2.24-6.9,2.48-.41,3.47,3.46,4.79,5.67,1.7,2.88,2.66,6.13,2.81,9.48,1.8-6.7,4.98-12.82,7.72-19.12l1.9-3.16c4.22-7.16,9.3-13.73,14.22-20.4l-.03.04,14.23-14.23.77-.76c1.7-.27,2.49-2.25,4.79-1.82l-2.89,2.39-2.1,2.06c-4.7,3.45-8.84,7.6-12.28,12.31-1.1,1.65-3.27,2.4-3.82,4.51-4.87,5.21-8.23,11.41-11.77,17.56,4.51-4.16,9.96-5.34,15.76-5.43,1-.02,2.3-.12,1.58,1.66-2.09,5.14-10.08,10.49-15.51,10.35-.41-.01-.91.1-1.22-.09-3.9-2.4-4.52.74-5.59,3.24-5.06,12.42-7.48,25.76-7.11,39.17,1.44-7.12,6.3-10.87,11.53-14.27.85-.55,2.47-1.46,2.32.66-.41,5.84-1.6,11.49-6.08,15.79-1.3,1.19-2.83,2.1-4.49,2.67-1.86.7-3.05.37-3.23-1.94.15,7.56.67,14.97,2.89,22.17.44.75.65,1.62.6,2.49.89,5.93,3.24,11.35,5.77,16.82-.5-6.87,2.23-12.54,6-17.84.45-.63.8-1.65,1.79-1.47.96.18,1.02,1.24,1.22,1.99,1.43,5.39,3.05,10.76.96,16.38-.83,2.34-2.2,4.46-4.01,6.17-.88.83-1.73,1.8-3.57.61,3.15,6.42,7,12.47,11.47,18.05.96,1.75,2.28,3.27,3.88,4.47,4.46,6,9.88,11.22,16.04,15.44,1.45,1.49,3.12,2.74,4.96,3.7,5.65,5.14,12.49,8.13,19.37,11.08.52-.93-.07-1.2-.4-1.48-6.03-5.19-7.5-12.33-8.42-19.69-.15-1.21.1-2.66,1.8-1.69,7.12,4.05,13.66,8.74,15.43,17.46.52,2.55.9,5.31-1.16,7.94l23.61,5.62-.04-.03c6.39,2.3,12.96,4.12,19.21,6.82.66.3,1.42.33,2.1.07,5.7-2.1,11.4-4.19,17.11-6.27l-.04.03Z" fill="#fff"/>
      <path id="_패스_1275" data-name="패스 1275" d="m159.09,222.34c-4.77.32-5.22-.14-4.45-4.85.67-4,2.71-7.64,5.75-10.32,3.82-3.31,8.22-5.88,12.99-7.56,1.62-.63,2.68-.69,2.08,1.61-2.47,9.38-6.3,17.7-16.41,21.14l.04-.03" fill="#fff"/>
      <path id="_패스_1276" data-name="패스 1276" d="m120.71,221.75c-8.36-4.25-11.78-11.96-14.19-20.36-.4-1.4-.58-2.66,1.58-1.9,6.21,2.18,11.86,5.24,16.01,10.55,2.04,2.62,3.25,5.79,3.47,9.1.23,3.05-.52,3.67-3.57,3.19-1.12-.18-2.23-.4-3.34-.61l.04.03" fill="#fff"/>
      <path id="_패스_1277" data-name="패스 1277" d="m189.59,214.25l-3.49,1.5c-1.7.04-2.29-.91-2.49-2.48-.64-4.67.68-9.39,3.66-13.04,3.18-3.82,7.06-6.99,11.44-9.34,1.36-.79,2.5-.95,2.26,1.16-.99,8.82-2.93,17.18-11.38,22.19" fill="#fff"/>
      <path id="_패스_1278" data-name="패스 1278" d="m70.49,202.5c-1.84-.96-3.51-2.21-4.96-3.7-5.13-7.04-4.91-14.83-3.09-22.8.23-1,.45-3.17,2.18-1.26,4.11,4.54,7.83,9.4,8.88,15.65.74,4.4.18,8.62-3.01,12.11" fill="#fff"/>
      <path id="_패스_1279" data-name="패스 1279" d="m216.74,203.11l4.26-3.66c6.1-2.58,12.85-3.21,19.33-1.8.85.16,2.04,0,2.36,1.08.28.95-.74,1.38-1.31,1.91-4.62,4.34-9.57,8.13-16.14,8.95-2.56.27-5.15-.05-7.58-.94-2.28-.77-3.45-1.84-1.6-4.16.27-.43.5-.9.67-1.38" fill="#fff"/>
      <path id="_패스_1280" data-name="패스 1280" d="m216.64,198.87c-1.49,1.45-3.16,2.7-4.97,3.71-4.59-5.15-3.98-10.94-1.79-16.74,1.64-3.9,3.99-7.45,6.95-10.47.51-.57.96-1.6,1.93-1.2.82.34.81,1.37.96,2.15,1.47,7.85,1.66,15.53-3.08,22.54" fill="#fff"/>
      <path id="_패스_1281" data-name="패스 1281" d="m61.76,199.98l1.51,1.42c.34.39.68.77,1.01,1.17,1.11,1.32,3.07,2.6,2.55,4.3-.62,2.02-3.11,2.17-4.96,2.47-9.29,1.52-15.9-3.47-22.02-9.4-1.51-1.47.12-1.9,1.2-2.1,6.35-1.18,12.65-1.63,18.71,1.36.64.32,1.33.53,2,.79" fill="#fff"/>
      <path id="_패스_1282" data-name="패스 1282" d="m236.58,178.32l-3.33,4.63c-1.79.61-2.91-.14-3.74-1.71-1.88-3.55-2.9-7.21-2.14-11.27.94-4.65,2.78-9.07,5.43-13,.38-.58.63-1.46,1.46-1.45.89,0,.99.9,1.23,1.56,2.58,6.97,4.36,13.99,1.07,21.26" fill="#fff"/>
      <path id="_패스_1283" data-name="패스 1283" d="m49.48,183.36c-1.6-1.2-2.92-2.72-3.88-4.47-3.08-7.22-1.99-14.3.73-21.32.29-.74.37-1.79,1.28-1.97,1.05-.21,1.26.92,1.65,1.56,3.55,5.88,6.89,11.9,5.18,19.11-.67,2.85-1.27,6.16-4.96,7.08" fill="#fff"/>
      <path id="_패스_1284" data-name="패스 1284" d="m237.13,182.7l2.38-2.94c5.74-4.25,12.28-5.61,19.28-5.26,1.26.06,3.06.14,1.62,1.98-4.9,6.26-10.14,12.13-19.09,12.01-5.44-.08-5.99-.87-4.19-5.78" fill="#fff"/>
      <path id="_패스_1285" data-name="패스 1285" d="m43.83,181.42c.24.25.49.5.74.75.02.1.04.2.07.3,2.16,5.28,1.71,5.87-4.11,6.03-5.83.16-10.2-2.75-14.17-6.51-1.52-1.54-2.94-3.16-4.26-4.87-1.23-1.48-1.37-2.55,1.09-2.62,7.74-.22,15.02.86,20.64,6.92" fill="#fff"/>
      <path id="_패스_1286" data-name="패스 1286" d="m29.67,157.35c.77.8,1.19,1.87,1.19,2.98.4,4.63-.26,5.21-4.89,4.14-8.46-1.96-12.18-8.6-15.08-15.8-.97-2.41,1.37-1.42,2.23-1.22,6.55,1.55,12.45,4.24,16.56,9.9" fill="#fff"/>
      <path id="_패스_1287" data-name="패스 1287" d="m250.08,155.59l-2.48,5.53c-1.21.7-2.1.15-3.01-.68-2.91-2.52-4.72-6.07-5.07-9.91-.32-4.53.35-9.07,1.96-13.31.22-.62.25-1.57,1.17-1.63.85-.06,1.15.77,1.54,1.34,3.85,5.62,6.7,11.57,5.89,18.66" fill="#fff"/>
      <path id="_패스_1288" data-name="패스 1288" d="m251.35,159.83c3.47-7.45,10.01-10.62,17.49-12.42.76-.18,1.73-.65,2.35.04.65.73-.07,1.56-.38,2.28-1.92,4.39-4.33,8.44-8.06,11.57-1.75,1.46-3.81,2.5-6.02,3.06-5.18,1.36-6.06.61-5.34-4.57l-.03.04" fill="#fff"/>
      <path id="_패스_1289" data-name="패스 1289" d="m22.13,133.68c.51.78.76,1.7.71,2.64,0,.82.02,1.65-.02,2.47-.09,1.87-1.02,2.52-2.87,2.05-4.26-1.08-7.84-3.94-9.84-7.85-1.76-3.27-2.95-6.82-3.5-10.49-.25-1.47.07-2.33,1.77-1.46,5.75,2.94,11.19,6.22,13.75,12.64" fill="#fff"/>
      <path id="_패스_1290" data-name="패스 1290" d="m25.94,138.18c.05-.87-.16-1.74-.6-2.49-.76-8.2,3.86-13.75,9.3-18.9,1.01-.96,1.73-.78,2.23.63,2.35,6.67-1.3,17.5-7.12,21.32-1.58,1.04-2.77,1.21-3.81-.56" fill="#fff"/>
      <path id="_패스_1291" data-name="패스 1291" d="m259.36,135.1c.21-.79.42-1.59.64-2.38,3.01-4.94,7.45-8.85,12.73-11.21.72-.34,1.53-.98,2.29-.39s.33,1.52.16,2.3c-1.07,5.08-2.61,9.94-6.41,13.74-.72.73-1.54,1.36-2.43,1.86-1.96,1.07-4.22,2.75-6.26,1.56-1.77-1.03-.54-3.61-.72-5.49" fill="#fff"/>
      <path id="_패스_1292" data-name="패스 1292" d="m256.32,137.48c-.96,2.23-2.26,2.47-4.3,1.11-3.75-2.48-6.22-6.49-6.73-10.96-.29-3.07-.36-6.16-.22-9.24,0-.79-.13-1.8.86-2.11.77-.24,1.31.49,1.82.96,5.92,5.46,10.25,11.6,8.54,20.28l.03-.04" fill="#fff"/>
      <path id="_패스_1293" data-name="패스 1293" d="m19.85,111.13c-.45,1.62.12,3.88-1.66,4.68-1.62.73-3.07-.85-4.35-1.82-4.35-3.3-7.81-13.2-6.5-18.2.28-1.06.78-1.5,1.72-.81,5.52,4.07,10.2,8.72,10.79,16.16" fill="#fff"/>
      <path id="_패스_1294" data-name="패스 1294" d="m259.42,115.82c-3.74.5-6.24-1.76-8.52-4.13-3.8-3.95-4.57-9.13-5.14-14.28-.23-2.09,1.09-1.88,2.36-1.09,7.22,4.5,12.71,10.02,11.28,19.52l.02-.03" fill="#fff"/>
      <path id="_패스_1295" data-name="패스 1295" d="m254.67,91.32c-5.05-.22-8.43-2.94-11.19-6.61-1.72-2.32-3.09-4.89-4.06-7.61-.38-1.05-.63-2.07,1.12-2.06,6.33.04,15.13,7.12,16.43,13.21.45,2.13.22,3.57-2.3,3.07" fill="#fff"/>
      <path id="_패스_1296" data-name="패스 1296" d="m27.35,91.28c-2.37.4-2.83-.79-2.31-3.06,1.3-5.72,5.36-8.85,10.32-11.09,1.91-.78,3.86-1.44,5.85-1.98.87-.27,1.65-.25,1.65,1.04.04,5.89-9.09,14.9-15.51,15.09" fill="#fff"/>
      <path id="_패스_1297" data-name="패스 1297" d="m274.45,93.99c.14,6.26.13,11.68-2.97,16.54-1.33,2.1-3.22,3.78-5.46,4.85-2.07,1.01-3.1.27-3.47-1.82-.71-3.91.27-7.93,2.7-11.08,2.5-3.39,5.62-6.28,9.2-8.5" fill="#fff"/>
      <path id="_패스_1298" data-name="패스 1298" d="m33.4,60.04l-1.9,3.16c-2.83,2.55-3.41,2.43-5.24-1.06-2.5-4.78-1.01-14.38,2.86-18.38,1.52-1.57,1.89-.03,2.29.93,2.03,4.93,3.26,9.98,1.99,15.35" fill="#fff"/>
      <path id="_패스_1299" data-name="패스 1299" d="m46.27,44.15c.56-2.11,2.73-2.86,3.82-4.51,4.63-2.35,9.92-3.09,15.02-2.11,1.04.21,2.85.46,1.38,1.97-4.15,4.27-8.71,8.1-15.2,7.6-1.94-.15-4.56.05-5.02-2.95" fill="#fff"/>
      <path id="_패스_1300" data-name="패스 1300" d="m232.06,31.53c-.03-2.99.37-5.97,1.17-8.85.29-1.13.88-1.74,1.9-.63,3.96,4.27,7.83,11.18,5.73,17.39-1.25,3.7-2.25,3.99-4.98,1.31-2.44-2.45-3.81-5.76-3.82-9.21" fill="#fff"/>
      <path id="_패스_1301" data-name="패스 1301" d="m47.62,39.63l-.51.35c-1.32.9-2.42,2.99-4.03,2.38-1.93-.74-2.15-3.14-2.36-5.05-.69-6.14,2.36-10.89,6.15-15.21,1.42-1.61,1.8.08,2.1,1.13,1.72,5.45,1.23,11.36-1.39,16.44l.03-.04" fill="#fff"/>
      <path id="_패스_1302" data-name="패스 1302" d="m219.2,24.84l-.7-.7c-2.77-4.53-4.29-9.35-3.33-14.72.14-.76-.15-1.81.9-2.1.8-.22,1.33.48,1.81.98,3.47,3.59,6.87,7.23,6.95,12.67.08,5.27-1.14,6.11-5.63,3.87" fill="#fff"/>
      <path id="_패스_1303" data-name="패스 1303" d="m216.62,24.76l3.89,3.2c.43,2.13-1.2,2.63-2.62,3.2-4.92,1.98-13.67-.39-17.03-4.58-1.36-1.69.22-1.88,1.21-2.15,4.87-1.36,9.74-1.62,14.55.34" fill="#fff"/>
      <path id="_패스_1304" data-name="패스 1304" d="m62.38,27.32l2.1-2.06c5.19-2.54,10.5-2.34,15.87-.69.85.26,2.01.36.99,1.78-3.17,4.38-12.87,6.92-17.76,4.64-1.78-.83-2.8-1.8-1.2-3.68" fill="#fff"/>
      <path id="_패스_1305" data-name="패스 1305" d="m62.58,24.69l-.77.76c-3.33,1.48-4,1.1-4.45-2.51-.64-5.06,3.29-12.89,7.63-15.32,1.62-.91,1.78.22,1.86,1.29.41,5.75.22,11.36-4.27,15.79" fill="#fff"/>
      <path id="_패스_1306" data-name="패스 1306" d="m72.99,20.55c-2.07.1-2.77-.84-2.06-3.04,1.49-4.59,9.49-9.63,14.33-9,.89.12,1.26.34,1.07,1.35-.83,4.59-8.37,10.76-13.35,10.69" fill="#fff"/>
      <path id="_패스_1307" data-name="패스 1307" d="m208.38,20.55c-4.63-.14-11.66-6.1-12.62-10.61-.22-1.02.17-1.23,1.04-1.37,4.52-.71,12.35,3.97,14.1,8.47,1.05,2.69.39,3.61-2.52,3.52" fill="#fff"/>
      <rect id="_사각형_695" data-name="사각형 695" width="281" height="271" fill="none"/>
    </g>
  </g>
</svg>