<?xml version="1.0" encoding="UTF-8"?>
<svg id="Layer_2" data-name="Layer 2" xmlns="http://www.w3.org/2000/svg" viewBox="0 0 120 112">
  <g id="Logo">
    <g id="symbol_08_01_0003_02" data-name="symbol 08 01 0003 02">
      <path id="_합치기_36" data-name="합치기 36" d="m4,59.22c-.02-10,2.64-19.82,7.69-28.44,3.63,5.23,9.22,8.75,15.51,9.75v64.26c-14.58-10.6-23.21-27.54-23.19-45.57Zm50.93,35.72v-36.03h61.68c0,.1,0,.2,0,.31.01,9.95-2.62,19.73-7.64,28.32v-22.42c0-.49-.25-.94-.65-1.21-.41-.27-.92-.32-1.37-.12l-25.94,10.96-21.65-10.21c-.73-.34-1.59-.03-1.93.7,0,0,0,0,0,0-.34.73-.04,1.59.69,1.94,0,0,0,0,0,0l22.24,10.49c.37.18.8.18,1.19.03l24.52-10.37v24.72c-.71.99-1.44,1.96-2.21,2.9h-48.93Zm-1.82-70.39c.73-2.29,1.1-4.68,1.1-7.09,0-4.89-1.53-9.65-4.39-13.62,3.46-.66,6.97-.98,10.49-.98,17.35-.01,33.73,7.99,44.38,21.69h-51.57Z" fill="#fff"/>
      <rect id="_사각형_302" data-name="사각형 302" width="120" height="112" fill="none"/>
    </g>
  </g>
</svg>