<?xml version="1.0" encoding="UTF-8"?>
<svg id="_레이어_2" data-name="레이어 2" xmlns="http://www.w3.org/2000/svg" viewBox="0 0 230 105">
  <g id="Logo">
    <g id="symbol_08_02_0005_02" data-name="symbol 08 02 0005 02">
      <path id="_패스_1460" data-name="패스 1460" d="m219.29,23.45c-11.63-2-22.85-3.58-34.49-1.85-41.04,6.1-67.92,28.99-81.6,67.79-2.9,8.22-7.75,10.29-15.57,6.15-4.35-2.3-2.16-5.63-1.38-8.46,5.9-21.24,17-39.4,33.6-53.86C149.05,7.79,182.81-1.12,220.83,6.61c3.44.7,7.55,1.42,5.78,6.5-1.42,4.1-.85,10.01-7.32,10.34" fill="#fff"/>
      <path id="_패스_1461" data-name="패스 1461" d="m197.94,51.77c-28,1.44-48.94,13.27-61.52,38.49-1.3,2.61-1.7,6.07-5.04,7.01-4.54,1.27-10.01,3.03-13.58-.08-2.97-2.59.57-6.96,1.89-10.27,14.08-35.4,51.65-56.69,88.99-50.58,7.18,1.18,7.57,2.29,4.08,8.52-3.44,6.16-7.88,9.56-14.83,6.91" fill="#fff"/>
      <path id="_패스_1462" data-name="패스 1462" d="m50.03,5.54c19.37.86,37.12,5.24,53.78,13.92,4.74,2.47,5.33,4.51,1.61,8.95-4.77,5.7-8.73,6.49-15.7,3.14-23.56-11.3-48.09-12.15-72.72-3.54-5.89,2.06-8.55.94-10.53-4.93-1.99-5.9-1.24-8.92,5.28-11.04,12.73-4.14,25.73-5.74,38.28-6.51" fill="#fff"/>
      <path id="_패스_1463" data-name="패스 1463" d="m49.07,36.96c12.07.71,23.26,2.85,33.8,7.69,2.5,1.15,6.91,2,4.05,6-2.63,3.69-2.48,12.28-10.01,9.24-15.62-6.3-31.16-7.76-47.41-3.17-3.8,1.07-12.23-7.8-11.5-11.51.47-2.39,2.72-2.72,4.54-3.36,8.76-3.06,17.85-4.29,26.53-4.89" fill="#fff"/>
      <path id="_패스_1465" data-name="패스 1465" d="m50.88,68.54c6.29.33,12.48,1.77,18.26,4.25,5.63,2.55,6.22,6.82,2.43,14.51-2.68,5.44-5.99,1.64-8.58.31-6.88-3.52-13.62-7.37-19.42-12.57-1.42-1.27-4.18-2.1-3.58-4.33.72-2.67,3.67-1.9,5.79-2.15.98-.12,1.99-.02,5.1-.02" fill="#fff"/>
      <path id="_패스_1466" data-name="패스 1466" d="m192.32,68.29c-10.95,10.53-24.11,18.48-38.53,23.29,4.7-13.12,24.26-24.96,38.53-23.29" fill="#fff"/>
      <rect id="_사각형_507" data-name="사각형 507" width="230" height="105" fill="none"/>
    </g>
  </g>
</svg>