<?xml version="1.0" encoding="UTF-8"?>
<svg id="_레이어_2" data-name="레이어 2" xmlns="http://www.w3.org/2000/svg" viewBox="0 0 154 154">
  <g id="Logo">
    <g id="symbol_09_17_0002_02" data-name="symbol 09 17 0002 02">
      <rect id="_사각형_444" data-name="사각형 444" width="154" height="154" fill="none"/>
      <path id="_패스_1400" data-name="패스 1400" d="m77.14,2.86C36.19,2.86,3,36.06,3,77s33.19,74.14,74.14,74.14,74.14-33.19,74.14-74.14c0-40.94-33.19-74.14-74.14-74.14h0m38.11,107.95c-2.62.22-3.61,1.51-4.15,4.08-3.19,15.24-17.5,21.29-30.42,12.78-2.77-1.82-4.48-1.52-7.07.24-12.11,8.21-27.25,2.15-30.23-12.19-.73-3.49-2.24-4.53-5.5-5.17-13.93-2.73-20.23-17.03-12.81-29.2,2.1-3.46,2.29-5.73-.15-9.31-7.03-10.35-1.63-24.99,10.54-27.88,5.44-1.29,7.46-3.48,8.69-8.75,1.88-8.09,9.64-12.94,18.84-12.87,4.2-.33,8.16,1.46,11.72,4.16,1.8,1.36,3.03,1.19,4.89,0,14.14-9.13,28.4-3.29,31.59,12.94.44,2.23,1.43,3,3.54,3.45,16.83,3.54,22.42,16.68,13.27,31.26-1.32,2.1-1.18,3.71.24,5.48,10.4,12.93.1,29.91-12.98,31" fill="#fff"/>
    </g>
  </g>
</svg>