<?xml version="1.0" encoding="UTF-8"?>
<svg id="_레이어_2" data-name="레이어 2" xmlns="http://www.w3.org/2000/svg" viewBox="0 0 86 114">
  <g id="Logo">
    <g id="symbol_17_04_0004_01" data-name="symbol 17 04 0004 01">
      <path id="_패스_1189" data-name="패스 1189" d="m43.09,78.63c-2.66-2.89-5.1-5.98-7.29-9.24-.54-.83-1.5-2.34-2.78-2.32-.41,0-.93.17-3.67,2.9-1.55,1.55-1.6,1.75-2.15,2.08-1.48.76-3.15,1.08-4.8.9-5.38-.24-10.78-.18-16.16-.14-2.06.01-2.63-.35-2.5-2.27.86-12.33,7.38-22.85,14.94-33.15,7.36-10.02,14.36-20.23,21.53-30.35.54-.76,1.11-1.5,1.88-2.54.61.75,1.1,1.3,1.52,1.89,9.02,12.73,17.99,25.48,27.06,38.18,4.39,6.02,7.47,12.9,9.05,20.18.65,2.73,1,5.53,1.02,8.34-.07,13.96-9.48,23.69-10.45,24.67-9.23,9.27-20.57,10.3-24.89,10.62-3.53.27-18.58,1.39-30.37-9.79-6.05-5.88-9.96-13.6-11.13-21.95.5-.04,1.4-.14,2.52-.15,6.2-.03,12.4-.17,18.59-.02,1.17.03,3.17.12,4.61-.87.67-.52,1.31-1.1,1.89-1.71.6-.61,1.07-1.16,1.39-1.55,2.86,3.6,5.15,6.39,6.61,8.26.45.58,1.95,2.5,3.58,2.44.53-.02,1.1-.23,2.92-1.95,3.19-3.02,3.28-4.12,4.94-4.49,1.17-.18,2.36-.26,3.54-.22.75.12,1.51.04,2.21-.26.51-.28.85-.79.92-1.37-.04-.5-.3-.96-.72-1.25-.7-.46-1.53-.69-2.37-.66-1.94-.28-3.92-.04-5.74.7-.94.53-1.8,1.18-2.56,1.95-1.11.99-2.16,2.04-3.14,3.15m18.69-2.26c.11.07.22.14.34.19.66.27,1.39.34,2.09.21,1.78-.23,6.52-.3,8.18-.28.59.06,1.19-.07,1.7-.39.39-.36.59-.88.54-1.42.03-1.45-.69-1.96-2.39-1.91-2.41.08-4.82.08-7.23.09-2,.01-2.58-.04-3.1.4-.86.84-.92,2.2-.13,3.1" fill="#fff"/>
      <rect id="_사각형_551" data-name="사각형 551" width="86" height="114" fill="none"/>
    </g>
  </g>
</svg>