<?xml version="1.0" encoding="UTF-8"?>
<svg id="Layer_2" data-name="Layer 2" xmlns="http://www.w3.org/2000/svg" viewBox="0 0 350 260">
  <g id="Logo">
    <g id="symbol_06_01_0010_01" data-name="symbol 06 01 0010 01">
      <path id="_패스_1416" data-name="패스 1416" d="m323.24,161.61c-.01-81.5-66.09-147.56-147.6-147.55S28.08,80.16,28.09,161.66c0,30.19,9.27,59.66,26.55,84.42h26.89c-.03-2.15-.04-4.29.13-6.43.33-4.32,2.78-7.34,6.74-9.04.93-.22,1.55-1.1,1.47-2.05-.03-31.04-.05-62.08-.03-93.12,0-.32-.04-.64-.09-1.26-.7,0-1.26,0-1.82,0-4.04.1-7.4-3.1-7.5-7.14-.05-1.93.67-3.81,2-5.21,5.45-6.12,10.91-12.22,16.37-18.32,10.92-12.21,21.84-24.42,32.78-36.61,1.1-1.31,2.48-2.37,4.04-3.08,3.2-1.26,5.98-.16,8.24,2.38,4.42,4.97,8.9,9.9,13.27,14.91.85,1.1,2.18,1.71,3.57,1.65,26.62-.05,53.24.01,79.86-.08,4.92-.02,8.17,1.97,10.45,6.29,6.14,11.65,12.46,23.2,18.7,34.79,3.09,5.75.27,10.42-6.28,10.43h-7.72v2.19c0,30.53,0,61.06-.03,91.58-.18,1.25.59,2.45,1.81,2.8,3.99,1.61,6.58,5.49,6.53,9.79.06,1.84.06,3.68.05,5.52h32.62c17.33-24.76,26.6-54.25,26.55-84.47" fill="#fff"/>
      <rect id="_사각형_446" data-name="사각형 446" width="350" height="260" fill="none"/>
    </g>
  </g>
</svg>