<?xml version="1.0" encoding="UTF-8"?>
<svg id="_레이어_2" data-name="레이어 2" xmlns="http://www.w3.org/2000/svg" viewBox="0 0 146 73">
  <g id="Logo">
    <g id="symbol_03_01_0002_02" data-name="symbol 03 01 0002 02">
      <ellipse id="_타원_21" data-name="타원 21" cx="106.1" cy="10.17" rx="7.29" ry="9.02" fill="#fff"/>
      <ellipse id="_타원_22" data-name="타원 22" cx="47.66" cy="10.17" rx="7.29" ry="9.02" fill="#fff"/>
      <path id="_패스_854" data-name="패스 854" d="M75.85,33.47c-6.88,.06-13.26-3.56-16.74-9.49-.82-1.54-.23-3.46,1.31-4.28,.15-.08,.31-.15,.47-.2,1.87-.83,4.06-.18,5.17,1.54,2.23,3.93,6.6,6.16,11.09,5.66,3.44-.54,6.46-2.59,8.22-5.6,1.09-1.73,3.27-2.4,5.15-1.59,1.67,.54,2.57,2.34,2.03,4-.05,.16-.12,.31-.19,.46-3.01,5.14-8.23,8.6-14.13,9.36-.78,.1-1.57,.14-2.36,.14Z" fill="#fff"/>
      <path id="_패스_855" data-name="패스 855" d="M75.11,71.96c-11.65-.07-23.15-2.64-33.74-7.51C18.77,53.96,6.76,35.39,1.61,25.26c-.93-1.92-.14-4.23,1.78-5.17,1.87-.91,4.13-.17,5.11,1.67,4.7,9.24,15.64,26.17,36.13,35.68,7.18,3.33,32.68,13.19,59.25,.04,19.68-9.74,29.67-26.69,33.87-35.92,.92-1.93,3.23-2.74,5.15-1.82,1.87,.9,2.71,3.11,1.88,5.02-4.63,10.17-15.65,28.83-37.48,39.64-10,4.99-21.02,7.57-32.2,7.55Z" fill="#fff"/>
      <rect id="_사각형_170" data-name="사각형 170" width="146" height="73" fill="none"/>
    </g>
  </g>
</svg>