<?xml version="1.0" encoding="UTF-8"?>
<svg id="_레이어_2" data-name="레이어 2" xmlns="http://www.w3.org/2000/svg" viewBox="0 0 228 42">
  <g id="Logo">
    <g id="symbol_08_02_0001_02" data-name="symbol 08 02 0001 02">
      <rect id="_사각형_82" data-name="사각형 82" width="228" height="42" fill="none"/>
      <path id="_패스_605" data-name="패스 605" d="M1.17,8.63c18.93,11.97,39.53,11.74,60.4,8.78C94.7,12.72,127.76,7.54,160.9,2.87c15.16-2.14,30.27-1.82,44.86,3.8,8.47,3.09,15.82,8.64,21.1,15.95-.5,0-.89,.12-1.14-.02-16.51-9.31-34.43-11.6-52.79-9.25-24.25,3.12-48.36,7.24-72.54,10.92-18.12,2.76-36.3,5.64-54.66,3.72-9.18-.96-18.28-3.18-27.23-5.55C10.96,20.43,5.37,15.27,1.17,8.63Z" fill="#fff"/>
      <path id="_패스_606" data-name="패스 606" d="M9.44,24.34c9.86,7.13,22.13,10.3,34.27,11.03s24.29-.83,36.36-2.39l61.98-8s10.3-1.56,34.95-3.65c0,0,4.97-.42,15.1-.29,.68,0,9.13,.14,12.68,1.42,.27,.1,2.48,.91,5.52,1.83l.34,.1c-54.33,1.6-107.86,14.69-162.21,15.88-7.47,.16-15.07,.08-22.2-2.15s-13.81-6.93-16.79-13.78Z" fill="#fff"/>
    </g>
  </g>
</svg>