<?xml version="1.0" encoding="UTF-8"?>
<svg id="Layer_2" data-name="Layer 2" xmlns="http://www.w3.org/2000/svg" viewBox="0 0 158 110">
  <g id="Logo">
    <g id="symbol_01_03_0007_01" data-name="symbol 01 03 0007 01">
      <path id="_패스_1276" data-name="패스 1276" d="m153.65,74.88c-1.1-4.05-4.27-7.12-8.85-7.06-4.84.1-9.57-1.5-13.37-4.51-.99-.82-1.68-1.95-1.97-3.2-.48-2.25.95-4.46,3.2-4.94.2-.04.4-.07.61-.08,3.4-.47,6.81-.83,10.23-1.18,6.93-.71,11.04-6.99,8.69-13.24-2.07-5.51-8.31-7.08-12.78-6.26-1.63.3-3.2.9-4.81,1.34-6.22,1.92-12.82-1.57-14.74-7.8-.25-.81-.41-1.64-.48-2.49-.46-3.86-.88-7.73-1.5-11.56-.98-5.11-5.42-8.83-10.62-8.88-5.04-.15-9.49,3.27-10.63,8.18-.62,2.78-.21,5.69,1.14,8.2,3.09,5.97,2.74,13.14-.92,18.78-1.81,3.19-5.82,4.38-9.08,2.7-1.01-.56-1.91-1.3-2.66-2.19-3.02-3.46-5.88-7.07-8.95-10.48-4.17-4.47-11.17-4.71-15.63-.55-2.81,2.62-4.06,6.52-3.29,10.3.19.91-.15,1.21-.85,1.61-3.23,1.74-4.88,5.44-4,9,.29,1.38.62,2.75.92,4.14.54,2.46.1,3.43-2.05,4.78-2.91,1.83-4.43,4.5-3.93,7.91.26,1.74,1.25,3.37,1.82,5.07.35.88.54,1.8.56,2.75-.04,1.32-2.08,3.28-3,3.13-2.06-.34-4.12-.68-6.25-1.04.69-1.38,1.45-3.01,2.3-4.6,1.73-2.9,1.6-6.54-.34-9.31-1.13-1.42-.92-3.49.48-4.65.49-.51,1-1,1.5-1.5,3.77-3.79,3.96-8.03.56-12.14-1.18-1.14-1.35-2.98-.39-4.31.83-1.45,1.73-2.85,2.54-4.3,1.9-3.15,1.41-7.18-1.19-9.78-3.7-3.8-7.47-7.53-11.24-11.26-1.3-1.29-2.53-1.28-3.84,0-3.77,3.73-7.54,7.46-11.24,11.26-2.59,2.6-3.08,6.64-1.18,9.78.69,1.23,1.45,2.43,2.17,3.64,1.44,2.41,1.37,3.24-.42,5.42-2.73,3.16-2.63,7.88.24,10.92.64.71,1.35,1.37,2.02,2.05,1.64,1.68,1.84,3.05.61,5-1.82,2.65-1.98,6.1-.39,8.9.87,1.69,1.69,3.4,2.59,5.21-.37,0-.57.01-.77,0-7.51-.58-13.23,4.53-13.55,12.05-.08.59-.42,1.11-.91,1.44-3.37,1.87-5.67,5.22-6.21,9.03-.49,2.94.45,4.06,3.4,4.06h45c2.32,0,4.65.03,6.97-.01,1.34.14,2.54-.82,2.69-2.16.02-.2.02-.39,0-.59.07-.71-.03-1.42-.29-2.08-1.78-2.96-.12-4.77,2.01-6.47.04-.03.07-.07.11-.11,2.94-2.63,4.04-5.79,2.94-9.68-.44-1.47.24-3.05,1.62-3.72.69-.41,1.43-.74,2.15-1.11,4.85-2.46,6.37-6.35,4.42-11.43-.64-1.26-.39-2.79.62-3.78,1.32-1.28,2.77-2.44,4.37-3.82,1.64,2.27,3.3,4.3,4.67,6.52,4.55,7.34,2.93,15.35-4.02,20.42-2.9,2.11-5.83,4.18-8.66,6.37-2.59,2.02-4.19,5.05-4.39,8.33-.22,2.26.74,3.32,3.01,3.32h27.64c.26.04.52.04.78,0h32.33c2.15,0,2.99-.93,2.91-3.1-.13-3.47-1.55-6.76-3.97-9.25-1.31-1.21-1.67-3.14-.88-4.74.72-1.57,2.36-2.5,4.07-2.31,4.29.03,8.59.06,12.88,0,4.33-.02,7.83-3.55,7.81-7.88,0-.69-.1-1.38-.28-2.04M24.57,53.82c-2.02-2.04-2.09-3.46-.26-5.65,2.42-2.68,2.78-6.63.89-9.71-.83-1.44-1.71-2.86-2.55-4.29-.85-1.16-.76-2.75.21-3.81,3.23-3.32,6.58-6.53,9.85-9.74,3.33,3.27,6.72,6.5,9.99,9.85.91,1.04.98,2.57.15,3.68-.84,1.44-1.72,2.85-2.55,4.29-1.91,3.07-1.56,7.02.86,9.71,1.83,2.19,1.79,3.63-.23,5.64-1.66,1.64-3.39,3.23-3.88,5.65-.54,2.25-.09,4.61,1.23,6.51.99,1.27,1.08,3.03.22,4.39-.75,1.37-1.46,2.77-2.09,4.2-.19.63-.81,1.02-1.46.92v-38.98c-.03-1.23-1.04-2.21-2.27-2.18-1.19.03-2.15.99-2.18,2.18v38.9c-.5-.05-.97-.31-1.28-.71-.88-1.53-1.61-3.14-2.4-4.72-.63-1.19-.54-2.62.22-3.73,2.56-4.24,2.11-7.83-1.38-11.34-.36-.36-.71-.71-1.07-1.07m-15.54,45.51c.67-2.11,2.33-3.76,4.45-4.42,2.63-.96,2.91-1.38,2.4-4.09-.7-3.86,1.86-7.57,5.72-8.27.85-.15,1.71-.15,2.56,0,1.41.42,2.93.08,4.03-.89,2.62-2.2,6.45-2.21,9.07,0,1.05.96,2.51,1.31,3.88.94,3.83-.81,7.59,1.64,8.4,5.47.2.96.2,1.94,0,2.9-.49,2.46-.1,3.12,2.29,3.9,2.16.65,3.87,2.32,4.55,4.48H9.03Zm63.59-40.32c-2.9,2.33-3.86,6.34-2.31,9.72.96,2.43.42,3.91-1.9,5.1-.63.32-1.26.63-1.89.95-4.01,2.06-5.66,5.55-4.57,9.93.45,1.43.03,2.99-1.09,3.99-1.2,1.15-2.35,2.35-3.5,3.5-.52-.18-1.01-.43-1.46-.74l11.67-34.29c.42-1.16-.18-2.43-1.34-2.85-1.16-.42-2.43.18-2.85,1.34,0,.03-.02.05-.03.08l-9.83,28.9c-.62-1.22-1.41-2.36-2.35-3.36.34-.28.67-.5.96-.78,2.53-2.41,3.24-6.17,1.78-9.34-.41-.92-.91-1.8-1.35-2.71-1.03-2.16-.55-3.74,1.5-5.01,3.43-1.84,5.1-5.83,4-9.57-.42-1.4-.72-2.83-.91-4.28-.06-1.08.2-2.15.75-3.07.89-1.36,1.64-1.25,2.89-.2.86.7,1.76,1.34,2.72,1.9,3.62,2.19,7.27,4.34,10.9,6.53.57.39,1.11.82,1.63,1.28-1.22,1.07-2.32,2.01-3.4,2.97m73.15,20.96c-4.09.04-8.18.05-12.27,0-4.02-.05-7.12,1.51-8.78,5.23-1.64,3.69-.82,7.05,1.83,10.08.97,1.28,1.86,2.62,2.66,4.02h-25.53c8.47-11.3,9.82-22.39,9.34-30.05-.29-5.51-1.68-10.91-4.06-15.88-.71-1.27-2.31-1.72-3.58-1.01-1.24.69-1.7,2.24-1.06,3.5,2.05,4.38,3.23,9.12,3.47,13.95.62,10.7-3.04,20.62-10.88,29.49h-24.08l-.31-.34c.83-1.08,1.76-2.08,2.76-3,2.62-2.05,5.37-3.94,8.05-5.91,8.82-6.47,11.01-17.17,5.42-26.56-3.66-6.21-8.85-11.38-15.07-15.02-2.87-1.69-5.81-3.25-8.67-4.95-2.39-1.39-3.62-4.16-3.05-6.87.49-2.74,2.77-4.79,5.54-5.01,2.16-.24,4.28.65,5.61,2.37,2.7,3.2,5.4,6.41,8.1,9.62,5.99,7.13,15.77,6.3,20.3-1.82,3.85-6.63,4.24-14.72,1.05-21.69-.63-1.25-1.07-2.59-1.31-3.98-.34-3.06,1.83-5.84,4.89-6.24,3.14-.44,6.34,1.52,6.89,4.58.67,3.77,1.1,7.59,1.51,11.4.81,9.18,8.91,15.96,18.08,15.15,1.05-.09,2.09-.29,3.11-.57,1.31-.36,2.62-.72,3.92-1.14,1.92-.54,3.97-.33,5.74.58,1.84.89,2.87,2.88,2.54,4.9-.15,1.99-1.62,3.63-3.58,3.99-3.23.52-6.5.85-9.76,1.19-2.49.26-4.89.69-6.86,2.43-3.93,3.41-4.35,9.36-.94,13.29.48.55,1.01,1.04,1.6,1.46,4.65,3.56,10.34,5.5,16.19,5.52,1.7-.09,3.28.87,3.99,2.42,1.32,2.41-.02,4.86-2.77,4.89" fill="#fff"/>
      <rect id="_사각형_395" data-name="사각형 395" width="158" height="110" fill="none"/>
    </g>
  </g>
</svg>