<?xml version="1.0" encoding="UTF-8"?>
<svg id="Layer_2" data-name="Layer 2" xmlns="http://www.w3.org/2000/svg" viewBox="0 0 144 125">
  <g id="Logo">
    <g id="symbol_13_02_0002_02" data-name="symbol 13 02 0002 02">
      <path id="_합치기_11" data-name="합치기 11" d="m39.97,118.44l9.04-7.66,44.86.69,36.94-31.33,11.85.19-45.98,38.99-56.7-.88Zm27.69-30.35l8.26-6.91,1.86,10.61-10.12-3.7Zm-8.83-3.23l-13.6-4.97,26.57-22.23,3.49,19.93.13.77-10.46,8.75-6.14-2.25ZM2,28.23l7.17-6,41.64,49.76-7.17,6L2,28.23Zm9.07-7.59l8.42-7.05,41.64,49.76-8.43,7.05L11.07,20.64Zm10.33-8.64l7.17-6,41.64,49.76-7.17,6L21.4,12Z" fill="#fff"/>
      <rect id="_사각형_202" data-name="사각형 202" width="144" height="125" fill="none"/>
    </g>
  </g>
</svg>