<?xml version="1.0" encoding="UTF-8"?>
<svg id="Layer_2" data-name="Layer 2" xmlns="http://www.w3.org/2000/svg" viewBox="0 0 210 210">
  <g id="Logo">
    <g id="symbol_17_01_0002_01" data-name="symbol 17 01 0002 01">
      <path id="_패스_615" data-name="패스 615" d="m194.67,61.73c-9.08-21.14-26.31-37.73-47.78-46-22.41-8.42-47.34-6.94-68.6,4.07-16.76,8.83-30.16,22.91-38.15,40.09-19.3,1.51-33.72,18.37-32.22,37.67,1.34,17.2,15.01,30.87,32.21,32.22,7.99,17.19,21.4,31.28,38.16,40.12,2.73,19.17,20.48,32.5,39.65,29.77,13.92-1.98,25.31-12.08,28.93-25.67,21.49-8.29,38.74-24.9,47.83-46.07,8.93-21.16,8.92-45.04-.03-66.19m-46.61,98.72v-30.56h-70.12v35.03c-15.93-7.15-28.94-19.52-36.88-35.07.6.03,1.21.05,1.82.05h35.06V59.77h-35.06c-.61,0-1.22.02-1.83.05,7.94-15.56,20.95-27.94,36.89-35.1,1.7-.74,3.42-1.42,5.18-2.03,21.51-7.79,45.39-5.41,64.94,6.48,12.29,7.34,22.31,17.93,28.97,30.61,11.31,22.01,11.3,48.12-.04,70.12-6.65,12.65-16.66,23.23-28.93,30.56" fill="#fff"/>
      <rect id="_사각형_214" data-name="사각형 214" width="210" height="210" fill="none"/>
    </g>
  </g>
</svg>