<?xml version="1.0" encoding="UTF-8"?>
<svg id="_레이어_2" data-name="레이어 2" xmlns="http://www.w3.org/2000/svg" viewBox="0 0 119 119">
  <g id="Logo">
    <g id="symbol_08_02_0004_01" data-name="symbol 08 02 0004 01">
      <path id="_패스_1457" data-name="패스 1457" d="m61.2,50.05c-.35-.33-.77-.59-1.09-.95-.46-.52-.87-.72-1.29-.65-.42-.07-.83.12-1.29.65-.31.36-.74.62-1.09.95-7.92,7.62-17.11,13.8-27.17,18.24-.84.2-1.36,1.04-1.16,1.88.02.06.03.13.06.19.38,1.84.85,3.65,1.4,5.42,4.93-3.38,10.65-5.42,16.6-5.92,6.32-.61,12.32.6,18.33,2.15,4.63,1.19,9.26,2.4,14.1,2.32,2.1,0,4.19-.36,6.17-1.06,2.75-1.02,3.61-2.3,3.29-5.1-9.93-4.43-19.02-10.56-26.86-18.1" fill="#fff"/>
      <path id="_패스_1458" data-name="패스 1458" d="m57.01,41.68c.59-.67,1.12-.93,1.66-.83.54-.1,1.07.16,1.66.83.4.46.94.8,1.4,1.22,7.36,7.01,15.53,13.11,24.35,18.17-.19-.67-.32-1.36-.39-2.05-.47-2.76-2.13-5.18-4.54-6.6-5.18-3.53-10.17-7.32-15.26-10.99-2.17-1.56-4.37-3.08-7.06-4.97-2.69,1.89-4.89,3.41-7.06,4.97-5.08,3.66-10.08,7.46-15.26,10.99-2.41,1.42-4.08,3.84-4.54,6.6-.07.62-.18,1.23-.33,1.83,8.67-5.02,16.72-11.05,23.97-17.96.45-.42.99-.76,1.4-1.22" fill="#fff"/>
      <path id="_패스_1459" data-name="패스 1459" d="m104.64,4H13.07c-5.01,0-9.07,4.06-9.07,9.07v91.57c0,5.01,4.06,9.07,9.07,9.07h91.57c5.01,0,9.07-4.06,9.07-9.07V13.07c0-5.01-4.06-9.07-9.07-9.07m-45.82,9.16c1.6,0,2.89,1.29,2.89,2.89,0,1.6-1.29,2.89-2.89,2.89-1.6,0-2.89-1.29-2.89-2.89h0c0-1.6,1.3-2.89,2.89-2.89m-17.9,21.94c.1-.34.28-.66.51-.94.17-.22.37-.41.58-.58.62-.49,1.19-1.04,1.84-1.49,3.55-2.47,12.35-8.58,13.58-9.93.29-.29.61-.55.95-.77.09-.06.16-.09.2-.12.02,0,.05-.01.07-.01.02,0,.04,0,.06.01.07.04.14.07.2.12.34.22.66.48.95.77,1.25,1.35,10.04,7.46,13.59,9.93.65.45,1.22,1,1.84,1.49.22.17.41.37.58.58.23.27.41.59.51.94.08.29.09.6.05.9-.17,1.46.05,3.13-.27,4.26-.07.25-.19.49-.35.7-.1.17-.25.3-.43.39-.39.14-.85-.21-1.01-.33-2.56-1.94-7.86-5.78-10.42-7.59-1.23-.87-2.46-1.72-3.71-2.56-.57-.38-1.11-.8-1.6-1.28-.49.47-1.03.9-1.6,1.28-1.26.83-2.5,1.68-3.72,2.56-2.55,1.81-7.85,5.65-10.41,7.59-.16.12-.63.48-1.01.33-.18-.09-.32-.22-.43-.39-.16-.21-.28-.45-.35-.7-.32-1.13-.1-2.8-.27-4.26-.04-.3-.03-.61.05-.9m57.11,33.9c-1.92,9.84-6.07,19.11-12.12,27.09-.37.51-.83.93-1.37,1.26-.72.51-1.58.78-2.47.78h-46.85c-1.02,0-2.01-.36-2.79-1.03-.38-.29-.72-.63-1.01-1.01-6.06-7.99-10.21-17.26-12.12-27.09-.39-1.04.14-2.19,1.17-2.58.08-.03.16-.05.24-.07,3.42-1.47,6.75-3.12,10-4.94-1.22-3.25-.08-8.17,2.47-10.08,7.81-5.85,15.64-11.65,23.39-17.57.6-.51,1.31-.88,2.06-1.09l.19-.04.18.04c.76.21,1.46.59,2.06,1.09,7.76,5.91,15.59,11.72,23.39,17.57,2.59,1.94,3.72,6.98,2.41,10.23,3.15,1.75,6.39,3.35,9.74,4.79,1.08.26,1.75,1.34,1.49,2.41-.02.08-.04.16-.07.24" fill="#fff"/>
      <rect id="_사각형_504" data-name="사각형 504" width="119" height="119" fill="none"/>
    </g>
  </g>
</svg>