<?xml version="1.0" encoding="UTF-8"?>
<svg id="_레이어_2" data-name="레이어 2" xmlns="http://www.w3.org/2000/svg" viewBox="0 0 112 112">
  <g id="Logo">
    <g id="symbol_21_02_0010_01" data-name="symbol 21 02 0010 01">
      <path id="_패스_1376" data-name="패스 1376" d="m14.39,56c0,23.08,18.72,41.79,41.8,41.79,23.08,0,41.79-18.72,41.79-41.8,0-23.08-18.71-41.79-41.79-41.79S14.39,32.91,14.39,56h0m27.57,26.16c2.17,2.9,5.61,4.57,9.23,4.49,1.31.01,2.62,0,3.93,0,.2,0,.46-.08.62.05.04.04.07.08.09.14.2,1.74.29,3.48.27,5.23.04,1.32.24,1.78-.14,2.2-.29.31-.91.31-2.16.32-2.89,0-5.77.08-8.57-.83-5.46-1.61-9.94-5.54-12.26-10.74-.09-.19-.16-.4-.25-.61.03-.45.34-.29.56-.22,1.01.36,2.06.57,3.13.61,1.53.06,3.05-.25,4.43-.92.34-.25.82-.17,1.06.17.02.03.04.07.06.1m2.36-14.46c2.95,3.52,2.49,8.77-1.03,11.72-.08.07-.16.13-.24.19-4.35,3.55-10.76,2.89-14.31-1.46-.11-.13-.21-.27-.32-.41-1.03-1.52-1.57-3.33-1.53-5.17.18-2.76,1.67-5.27,4.01-6.74,4.29-2.87,10.05-2.07,13.41,1.85m34.58-19.92c.2.21-.03.46-.12.66-2.8,6.35-6.33,8.2-6.33,8.2-1.98,1.33-4.2,2.29-6.52,2.82-1.99.46-4.03.71-6.07.74-1.4.05-2.57,0-3.42-.04l-3.91-.09-1.67.02c-3.34,0-6.51,1.5-8.61,4.1-.34.4-.59.59-1.13.31-2.32-1.16-5.01-1.36-7.49-.56-.21.06-.48.29-.66.03-.15-.21.06-.46.17-.67,2.89-6.1,8.71-10.28,15.41-11.07,1.3-.15,2.61-.2,3.92-.16.55,0,1.58-.02,2.89,0,3.33.05,3.46.23,4.92.2,2.38.09,4.74-.48,6.81-1.66,1.16-.72,2.16-1.67,2.96-2.77.31-.45.56-.57,1.11-.31,2.22,1.07,4.77,1.2,7.09.36.21-.07.46-.32.66-.11m-3.85-17.99c4.73-.15,8.8,3.31,9.41,8,.32,3.67-1.67,7.16-5,8.76-4.68,2.32-10.36.42-12.68-4.26-.08-.15-.15-.31-.22-.47-1.69-4.31.28-9.18,4.49-11.1,1.24-.61,2.61-.93,4-.93m3.5-.84c.09.21.3.46.13.67-.19.23-.45,0-.66-.07-2.28-.77-4.78-.6-6.94.48-.4.3-.97.22-1.27-.18-.02-.03-.05-.07-.07-.1-2.01-2.57-5.1-4.06-8.36-4.06-1.36-.02-2.73,0-4.09-.01-.16,0-.36.04-.48-.07-.03-.04-.06-.08-.08-.12-.16-.45-.11-4.43-.18-5.81-.05-.99-.18-1.54.17-1.86.21-.2.68-.13,1.75-.14h1.04c4.11-.26,8.21.75,11.73,2.89,3.22,2,5.76,4.92,7.3,8.39" fill="#fff"/>
      <path id="_패스_1377" data-name="패스 1377" d="m56.49,106.81c-28.06,0-50.81-22.75-50.82-50.81,0-28.06,22.75-50.81,50.81-50.82,28.06,0,50.81,22.75,50.82,50.81h0c-.03,28.05-22.76,50.78-50.81,50.82m0-98.57c-26.37,0-47.75,21.39-47.75,47.76,0,26.37,21.39,47.75,47.76,47.75,26.37,0,47.75-21.38,47.75-47.76-.03-26.36-21.39-47.73-47.76-47.76" fill="#fff"/>
      <rect id="_사각형_710" data-name="사각형 710" width="112" height="112" fill="none"/>
    </g>
  </g>
</svg>