<?xml version="1.0" encoding="UTF-8"?>
<svg id="_레이어_2" data-name="레이어 2" xmlns="http://www.w3.org/2000/svg" viewBox="0 0 298 298">
  <g id="Logo">
    <g id="symbol_11_03_0001_01" data-name="symbol 11 03 0001 01">
      <g id="_이어_1-2" data-name=" 이어 1-2">
        <g id="Group_27" data-name="Group 27">
          <circle id="Ellipse_4" data-name="Ellipse 4" cx="72.61" cy="89.51" r="22.23" fill="#fff"/>
          <circle id="Ellipse_5" data-name="Ellipse 5" cx="150.11" cy="97.33" r="19.22" fill="#fff"/>
          <circle id="Ellipse_6" data-name="Ellipse 6" cx="225.81" cy="89.51" r="22.23" fill="#fff"/>
          <path id="Path_198" data-name="Path 198" d="M113.57,230.69c-.68,0-1.34-.23-1.87-.65l-.28-.22c-14.33-11.39-22.67-28.71-22.64-47.02-.17-16.98,7.01-33.19,19.7-44.47-24.55-17.04-58.26-10.95-75.3,13.6-6.29,9.07-9.66,19.84-9.66,30.87,0,1.66-1.34,3-3,3s-3-1.34-3-3c-.02-33.2,26.88-60.12,60.08-60.14,12.84,0,25.35,4.1,35.69,11.72,10.22-7.56,22.59-11.66,35.3-11.72,.17-.03,.35-.04,.52-.04,12.82-.01,25.31,4.09,35.62,11.72,26.72-19.69,64.35-13.99,84.05,12.73,7.62,10.34,11.72,22.84,11.72,35.69,0,1.66-1.34,3-3,3s-3-1.34-3-3c.01-29.88-24.2-54.12-54.08-54.13-11.03,0-21.81,3.36-30.87,9.66,12.55,11.38,19.71,27.53,19.7,44.47-.13,18.27-8.43,35.52-22.63,47.01l-.29,.23c-1.1,.88-2.65,.88-3.75,0-25.96-21.11-29.89-59.27-8.77-85.23,1.88-2.31,3.92-4.47,6.12-6.48-8.95-6.23-19.58-9.6-30.49-9.66-.17,.03-.33,.04-.5,.04-11.02-.01-21.78,3.36-30.82,9.66,24.69,22.58,26.4,60.9,3.82,85.6-2.01,2.19-4.17,4.24-6.48,6.12-.53,.43-1.19,.66-1.87,.66h0Zm-.28-88.62c-11.76,10.26-18.5,25.11-18.5,40.72-.11,15.76,6.76,30.77,18.77,40.98,22.49-20.09,24.44-54.62,4.35-77.11-1.45-1.62-2.99-3.15-4.62-4.59h0Zm71.44-.04c-22.63,19.94-24.8,54.46-4.86,77.08,1.44,1.63,2.97,3.17,4.59,4.62,11.94-10.26,18.8-25.24,18.77-40.98-.07-15.59-6.8-30.41-18.5-40.72h0Z" fill="#fff"/>
        </g>
      </g>
      <rect id="Rectangle_22" data-name="Rectangle 22" width="298" height="298" fill="none"/>
    </g>
  </g>
</svg>