<?xml version="1.0" encoding="UTF-8"?>
<svg id="_레이어_2" data-name="레이어 2" xmlns="http://www.w3.org/2000/svg" viewBox="0 0 226 110">
  <g id="Logo">
    <g id="symbol_21_02_0009_01" data-name="symbol 21 02 0009 01">
      <path id="_패스_1370" data-name="패스 1370" d="m199.7,7.17c5-2.67,9.7-3.22,14.4-.68,4.29,2.14,7.03,6.5,7.1,11.29.39,7.66-2.85,14.08-6.8,20.19-9.78,15.15-23.42,26.26-38.79,35.39-26.26,15.61-54.72,23.98-85.58,22.99-21.19-.68-41.67-4.99-59.11-18.06-12.49-9.36-19.44-21.62-17.14-37.68.61-4.27,2.34-8.31,5.01-11.7.53-.68.92-1.86,1.98-1.55.97.29.94,1.49,1.08,2.35,1.1,6.76,3.87,13.14,8.05,18.56,5.14,6.63,11.84,11.89,19.49,15.32,17.14,8.14,36.04,11.85,54.98,10.8,32.52-1.77,61.7-12.44,87.17-32.39,7.24-5.66,14.01-11.92,17.43-20.81,3.24-8.42.82-12.36-8.19-13.36-.2-.02-.37-.22-1.09-.66" fill="#fff"/>
      <path id="_패스_1375" data-name="패스 1375" d="m59.53,102.13c-1.32.43-25.53,7.87-41.4-5.83-5.74-4.95-12.09-14.13-12.12-20.55,0-.54.02-7.43.02-7.43,11.72,18.86,31.43,31.32,53.5,33.82" fill="#fff"/>
      <rect id="_사각형_708" data-name="사각형 708" width="226" height="110" fill="none"/>
    </g>
  </g>
</svg>