<?xml version="1.0" encoding="UTF-8"?>
<svg id="_레이어_2" data-name="레이어 2" xmlns="http://www.w3.org/2000/svg" viewBox="0 0 418 155">
  <g id="Logo">
    <g id="symbol_20_02_0004_01" data-name="symbol 20 02 0004 01">
      <rect id="_사각형_317" data-name="사각형 317" width="418" height="155" fill="none"/>
      <path id="_패스_918" data-name="패스 918" d="M104.89,101.39c1.84,3.26,3.66,6.39,5.35,9.59,.19,.36-.18,1.29-.57,1.64-10.46,9.43-22.75,14.79-36.79,15.5-21.22,1.06-38.68-6.79-52-23.35C3.47,83.1,3.86,50.73,21.58,29.1,44.18,1.53,84.5-1.48,110.48,22.83c6.56,5.99,11.73,13.35,15.13,21.56,3.96,10.08,5.22,21.02,3.65,31.74-1.47,8.13-4.29,15.95-8.35,23.15-1.42,2.49-3.11,4.82-5.03,6.96-.3,.35-.62,.67-.96,.98-1.96-3.47-3.9-6.81-5.71-10.21-.22-.41,.15-1.31,.49-1.82,6.23-9.13,9.21-20.09,8.48-31.12-2-32.42-35.06-54.2-65.6-43.23C26.87,29.93,13.38,58.16,22.47,83.89c.1,.27,.19,.54,.29,.8,9.65,25.89,39.35,38.89,64.79,28.36,6.04-2.45,11.53-6.07,16.17-10.65,.32-.32,.69-.6,1.17-1.01Z" fill="#fff"/>
      <path id="_패스_919" data-name="패스 919" d="M400.45,127.86c-.06-1.71-.19-3.18-.11-4.63,.02-.39,.62-.84,1.05-1.1,1.51-.72,2.95-1.57,4.32-2.54,3.31-2.9,3.17-7.36-.13-10.28-4.35-3.85-12.71-3.59-16.84,.52-3.21,3.2-2.97,7.81,.7,10.48,1.3,.89,2.73,1.56,4.24,1.99,.99,.31,1.31,.71,1.29,1.67-.02,1.24,.07,2.49,.13,4.2-1.67-.34-3.32-.77-4.95-1.28-6.4-2.35-12.86-4.5-19.63-5.41-4.36-.66-8.76-1-13.17-1.02-27.57,.38-55.14,.92-82.7,1.43-4.41,.25-8.84-.33-13.03-1.72-.5-.18-.99-.39-1.8-.71,3.78-1.97,7.95-3.1,12.21-3.3,14.64-.77,29.28-1.53,43.92-2.27,13.22-.69,26.44-1.44,39.67-2.07,10.74-.56,21.27-3.17,31.03-7.7,4.02-1.83,8.07-3.27,12.57-2.86,4.18,.23,8.12,2.04,11.01,5.08,3.96,4.15,4.38,10.54,.99,15.17-2.58,3.59-6.21,5.49-10.78,6.35Z" fill="#fff"/>
      <path id="_패스_920" data-name="패스 920" d="M95.5,79.14c-2.77,1.57-6.29,.59-7.86-2.18,0-.01-.01-.02-.02-.04-1.57-2.79-.59-6.33,2.2-7.9,2.79-1.57,6.33-.59,7.9,2.2,1.57,2.79,.59,6.33-2.2,7.9,0,0-.01,0-.02,.01Z" fill="#fff"/>
      <path id="_패스_921" data-name="패스 921" d="M42.43,55.85c2.74-1.66,6.31-.78,7.96,1.96,1.66,2.74,.78,6.31-1.96,7.96-.11,.07-.23,.13-.35,.19-2.85,1.47-6.35,.34-7.81-2.5-1.4-2.71-.45-6.04,2.16-7.62Z" fill="#fff"/>
      <path id="_패스_922" data-name="패스 922" d="M65.2,96.36c-2.86,1.44-6.35,.3-7.79-2.56-1.37-2.71-.41-6.03,2.2-7.59,2.81-1.51,6.32-.5,7.89,2.28,1.53,2.81,.5,6.33-2.3,7.87Z" fill="#fff"/>
      <path id="_패스_923" data-name="패스 923" d="M70.55,46.6c-1.6-2.78-.64-6.32,2.13-7.92,2.78-1.6,6.32-.64,7.92,2.13,1.6,2.78,.64,6.32-2.13,7.92h0c-2.77,1.6-6.3,.66-7.9-2.11,0,0,0-.02-.01-.02Z" fill="#fff"/>
      <path id="_패스_924" data-name="패스 924" d="M375.67,145.19c-2.13-.16-4.26-.41-6.36-.65-62.19-7.19-124.95-7.18-187.55-7.54-12.56-.07-25.26-.17-37.45-3.21s-24-9.35-31.24-19.62l2.83-2.23c10.54,10.88,25.38,16.76,40.33,19.25,14.95,2.49,30.21,1.88,45.36,1.55,27.47-.6,54.94-.26,82.42,1.02,26.81,1.25,53.47,4.21,80.25,5.81,5.96,.36,11.86,.21,17.82,.21,3.03-.16,6.16-.42,8.85-1.82s4.85-4.26,4.54-7.28l4.64,.04c-.04,6.39-5.64,11.66-11.76,13.51-4.13,1.1-8.43,1.43-12.68,.97Z" fill="#fff"/>
      <path id="_패스_925" data-name="패스 925" d="M104.72,42.76c-14.26-21.24-44.62-25.14-63.93-8.47-13.57,11.6-18.73,30.27-13.05,47.19,5.77,17.12,21.57,28.86,39.63,29.45,13.19,.48,24.38-4.24,33.45-13.86,.37-.39,.77-1.24,.59-1.57-1.85-3.45-3.8-6.84-5.7-10.19-8.23,1.13-13.29-2.61-14.53-10.53-.09-2.29,.47-4.56,1.62-6.55,1.22-2.17,3.11-3.88,5.38-4.88,5.62-2.28,12.06,.1,14.84,5.49,2.19,4.32,1.6,8.49-1.23,12.39-.34,.47-.84,1.25-.67,1.58,1.38,2.66,2.9,5.25,4.49,8.06,.37-.57,.57-.85,.74-1.14,8.72-15.98,8.56-31.78-1.63-46.96Zm-64.41,28.63c-5.79-2.74-8.27-9.66-5.53-15.45,1.98-4.2,6.28-6.81,10.91-6.64,2.05,0,4.05,.6,5.76,1.73,5.12,3.55,4.54,10.62,4.5,11.03-.82,5.06-4.11,9.09-8.26,10.13-2.48,.51-5.06,.23-7.38-.8h0Zm33.11,23.41c-1.96,6.08-8.48,9.42-14.56,7.46-3.26-1.05-5.88-3.49-7.17-6.66-.94-2.36-1.11-4.96-.49-7.43,1.16-4.02,4.37-7.11,8.43-8.12,3.47-.78,7.1,.01,9.94,2.16,3.75,3,5.28,7.99,3.85,12.57h0Zm3.47-39.55c-3.08,.25-6.15-.65-8.61-2.54-4.94-4.04-5.67-11.33-1.63-16.27,4.04-4.94,11.33-5.67,16.27-1.63,4.94,4.04,5.67,11.33,1.63,16.27-1.91,2.34-4.66,3.83-7.66,4.17Z" fill="#fff"/>
    </g>
  </g>
</svg>