<?xml version="1.0" encoding="UTF-8"?>
<svg id="Layer_2" data-name="Layer 2" xmlns="http://www.w3.org/2000/svg" viewBox="0 0 204 204">
  <g id="Logo">
    <g id="symbol_14_02_0004_01" data-name="symbol 14 02 0004 01">
      <path id="_패스_808" data-name="패스 808" d="m187.98,62.23c-5.4,0-10.08,3.75-11.25,9.03C159.66,29.8,112.2,10.04,70.75,27.12c-19.66,8.1-35.36,23.59-43.72,43.14-1.89-6.08-8.36-9.47-14.44-7.58-4.82,1.5-8.1,5.96-8.1,11.01v49.97c0,6.37,5.16,11.53,11.53,11.53s11.53-5.16,11.53-11.53v-22.46c.54-40.94,34.16-73.7,75.11-73.16,40.94.54,73.7,34.16,73.16,75.11-.49,37.62-29.09,68.91-66.51,72.77-2.63-4.22-8.18-5.5-12.4-2.87-4.22,2.63-5.5,8.18-2.87,12.4,2.63,4.22,8.18,5.5,12.4,2.87,1.99-1.24,3.41-3.2,3.97-5.47,30.88-3.35,57.15-24.02,67.66-53.25,3.23,5.48,10.3,7.31,15.78,4.07,3.52-2.07,5.67-5.85,5.67-9.93v-49.97c0-6.37-5.16-11.53-11.53-11.53" fill="#fff"/>
      <rect id="_사각형_287" data-name="사각형 287" width="204" height="204" fill="none"/>
    </g>
  </g>
</svg>