<?xml version="1.0" encoding="UTF-8"?>
<svg id="Layer_2" data-name="Layer 2" xmlns="http://www.w3.org/2000/svg" viewBox="0 0 158 158">
  <g id="Logo">
    <g id="symbol_16_02_0001_02" data-name="symbol 16 02 0001 02">
      <path id="_패스_360" data-name="패스 360" d="m153.22,79.46c0-.16.01-.31.01-.47,0-41.14-33.35-74.49-74.49-74.49S4.25,37.85,4.25,78.99c0,.16.01.31.01.47,0,.11-.01.22-.01.33,0,.59.02,1.18.06,1.76,1.41,41.1,35.86,73.28,76.97,71.88,39.13-1.34,70.54-32.75,71.88-71.88.04-.58.07-1.17.07-1.76,0-.11,0-.22-.01-.33m-5.44,1.79c-1.02,13.78-16.46,25.59-38.56,31.35l5.72-15.28,1.84-4.91h-20.5c-7.59,0-14.46,4.48-17.54,11.42-3.07-6.94-9.95-11.41-17.53-11.42h-20.5l1.84,4.91,5.72,15.28c-22.1-5.75-37.54-17.57-38.56-31.34-.02-.59-.04-1.19-.04-1.78.26-15.71,19.27-29.06,45.77-34.08-.12.94-.17,1.89-.18,2.84,0,12.97,10.51,23.49,23.49,23.49s23.49-10.51,23.49-23.49c0-.95-.06-1.9-.18-2.84,26.51,5.02,45.52,18.37,45.77,34.08,0,.6-.03,1.19-.04,1.78M78.74,9.89c31.15,0,58.44,20.85,66.65,50.9-8.98-10.17-25.05-17.86-44.8-21.16-4.75-12.07-18.38-18.01-30.45-13.26-6.07,2.39-10.87,7.19-13.26,13.26-19.75,3.3-35.82,11-44.8,21.16C20.29,30.74,47.59,9.9,78.74,9.89m0,138.19c-30.25,0-56.98-19.67-65.99-48.54,8.08,8.7,21.42,15.51,37.8,19.18l.52,1.38,6.54,17.47h42.26l6.54-17.47.52-1.38c16.38-3.67,29.72-10.48,37.8-19.18-9.01,28.88-35.74,48.54-65.99,48.54" fill="#fff"/>
      <path id="_패스_361" data-name="패스 361" d="m78.74,76.82c-9.24,0-17.92-4.48-23.28-12.01l-8.93,22.48h14.68c6.62,0,12.95,2.71,17.54,7.49,4.58-4.78,10.91-7.48,17.54-7.49h14.68l-8.94-22.48c-5.36,7.53-14.03,12.01-23.27,12.01" fill="#fff"/>
      <rect id="_사각형_126" data-name="사각형 126" width="158" height="158" fill="none"/>
    </g>
  </g>
</svg>