<?xml version="1.0" encoding="UTF-8"?>
<svg id="Layer_2" data-name="Layer 2" xmlns="http://www.w3.org/2000/svg" viewBox="0 0 436 128">
  <g id="Logo">
    <g id="symbol_12_01_0011_01" data-name="symbol 12 01 0011 01">
      <path id="_패스_1069" data-name="패스 1069" d="m338.6,55.67h0c3.9-.77,7.69,1.77,8.45,5.68,0,0,0,0,0,0l8.65,44.12h75.18l-61.56-75.2c-4.28-5.24-10.69-8.27-17.46-8.27H84.02c-6.76,0-13.17,3.04-17.46,8.27L5,105.47h74.5l8.65-44.12c.77-3.9,4.55-6.45,8.46-5.68,3.9.77,6.45,4.55,5.68,8.46l-8.11,41.35h72.53v-42.74c0-3.98,3.23-7.2,7.2-7.2s7.2,3.23,7.2,7.2v42.74h73.65v-42.74c0-3.98,3.23-7.2,7.2-7.2s7.2,3.23,7.2,7.2v42.74h71.85l-8.11-41.35c-.77-3.9,1.77-7.69,5.68-8.45,0,0,0,0,0,0" fill="#fff"/>
      <rect id="_사각형_416" data-name="사각형 416" width="436" height="128" fill="none"/>
    </g>
  </g>
</svg>