<?xml version="1.0" encoding="UTF-8"?>
<svg id="Layer_2" data-name="Layer 2" xmlns="http://www.w3.org/2000/svg" viewBox="0 0 254 188">
  <g id="Logo">
    <g id="symbol_08_02_0003_01" data-name="symbol 08 02 0003 01">
      <path id="_패스_1145" data-name="패스 1145" d="m231.2,130.95s-41.8,74.92-119.98,46.15c0,0,37.19-16.01,32.85-55.38,0,0,41.26-10.04,87.14,9.23" fill="#fff"/>
      <path id="_패스_1146" data-name="패스 1146" d="m100.91,174.11s82.79-24.97,0-132.74c0,0,34.2,73.56,0,132.74" fill="#fff"/>
      <path id="_패스_1147" data-name="패스 1147" d="m64,40c14.34,14.15,14.5,37.25.35,51.59-7.85,7.96-18.93,11.88-30.04,10.63-5.72,18.93-9.36,38.42-10.85,58.14,0,0,36.15-2.17,72.3,13.75V5s-15.2,10.99-31.75,35" fill="#fff"/>
      <rect id="_사각형_303" data-name="사각형 303" width="254" height="188" fill="none"/>
    </g>
  </g>
</svg>