<?xml version="1.0" encoding="UTF-8"?>
<svg id="_레이어_2" data-name="레이어 2" xmlns="http://www.w3.org/2000/svg" viewBox="0 0 90 90">
  <g id="Logo">
    <g id="symbol_02_04_0002_02" data-name="symbol 02 04 0002 02">
      <rect id="_사각형_166" data-name="사각형 166" width="90" height="90" fill="none"/>
      <path id="_패스_842" data-name="패스 842" d="M45.25,.9C20.88,.9,1.13,20.65,1.13,45.02s19.75,44.12,44.12,44.12,44.12-19.75,44.12-44.12S69.62,.9,45.25,.9h0Zm26.78,52.48c-10.77,7.02-21.72,7.63-27.75,7.89-5.4,.23-10.81-.21-16.1-1.3-.67-.29-1.2-.82-1.5-1.48-1.2-3.24-2.02-6.61-2.45-10.05-.69-5.35-.36-10.79,.97-16.02,1.97-6.82,5.4-13.12,10.05-18.48,2.2-2.56,4.87-4.68,7.86-6.24,.85-.44,1.73-.82,2.63-1.15,.65-.19,1.34-.21,2.01-.06,9.79,.84,18.9,5.33,25.53,12.58,5.67,6.42,9.05,14.55,9.6,23.1,.02,.65-.12,1.3-.43,1.88-2.98,3.62-6.5,6.76-10.42,9.33Z" fill="#fff"/>
    </g>
  </g>
</svg>