<?xml version="1.0" encoding="UTF-8"?>
<svg id="_레이어_2" data-name="레이어 2" xmlns="http://www.w3.org/2000/svg" viewBox="0 0 213 235">
  <g id="Logo">
    <g id="symbol_17_05_0001_01" data-name="symbol 17 05 0001 01">
      <rect id="_사각형_139" data-name="사각형 139" width="213" height="235" fill="none"/>
      <path id="_패스_386" data-name="패스 386" d="M190.96,22.32c-.06,9.33-7.68,16.85-17.01,16.79-9.33-.06-16.85-7.68-16.79-17.01,0-.11,0-.21,0-.32,.1-9.23,7.88-16.95,16.94-16.8,9.39,.08,16.94,7.76,16.85,17.16,0,.06,0,.13,0,.19Z" fill="#fff"/>
      <path id="_패스_387" data-name="패스 387" d="M197.66,54.24c-1.23-1.7-2.66-3.23-4.27-4.57-2.2-1.81-4.71-3.2-7.42-4.09-3.55-1.03-7.3-1.2-10.93-.49-3.43,.52-6.51,2.43-8.51,5.27-2.84,4.43-1.78,10.17-2.05,15.42-.48,9.16-5.49,17.78-12.6,23.58s-16.16,8.93-25.29,9.86c-3.33,.34-6.75,.42-9.91,1.53-3.02,1.07-5.84,3.35-6.62,6.43-1.2,1.79-1.88,3.89-1.94,6.05,0,0-.03,.43-.11,2.92v35.55c0,1.07,.86,1.93,1.93,1.93s1.93-.86,1.93-1.93v-35.48c.07-2.21,.1-2.69,.1-2.73,.06-.91,.22-3.31,1.8-4.67,1.12-.96,2.64-1.3,4.06-.91,.9,.32,1.66,.93,2.17,1.73,.96,1.63,1.16,3.6,.55,5.39-.34,1.01,.19,2.11,1.2,2.45,1.01,.34,2.11-.19,2.45-1.2,0-.02,.01-.04,.02-.06,.97-2.9,.61-6.08-.99-8.68,2.06-.02,4.13-.06,6.19-.2,6.48-.42,13.05-1.72,18.63-5.04,5.54-3.48,9.98-8.47,12.77-14.39,2.77-5.9,4.54-12.22,5.23-18.7,.53-4.11,.84-8.44,3.09-11.92,2.64-4.08,7.67-6.26,12.53-6.13,4.89,.29,9.55,2.19,13.25,5.4,6.52,5.35,8.85,11.37,9.4,11.07,.58-.31-2.06-7.25-6.66-13.37Z" fill="#fff"/>
      <path id="_패스_388" data-name="패스 388" d="M105.47,113.15c-.06-2.17-.74-4.29-1.97-6.09-.82-3.03-3.6-5.27-6.59-6.33-3.16-1.12-6.58-1.19-9.91-1.53-9.13-.94-18.17-4.06-25.29-9.86s-12.12-14.42-12.6-23.58c-.27-5.25,.79-10.99-2.05-15.42-2-2.84-5.07-4.74-8.51-5.27-3.63-.71-7.38-.54-10.93,.49-2.71,.89-5.22,2.28-7.42,4.09-1.61,1.34-3.05,2.88-4.27,4.57-4.6,6.12-7.24,13.06-6.66,13.37,.55,.3,2.87-5.72,9.4-11.07,3.7-3.21,8.36-5.11,13.25-5.4,4.86-.12,9.89,2.05,12.53,6.13,2.25,3.48,2.56,7.81,3.09,11.92,.7,6.48,2.47,12.8,5.24,18.7,2.79,5.92,7.22,10.91,12.77,14.39,5.58,3.33,12.15,4.62,18.63,5.04,2.05,.13,4.1,.18,6.14,.2-1.56,2.59-1.91,5.74-.95,8.61,.31,1.02,1.39,1.6,2.41,1.28,1.02-.31,1.6-1.39,1.28-2.41,0-.02-.01-.04-.02-.05-.61-1.79-.4-3.76,.55-5.39,.51-.8,1.27-1.41,2.17-1.73,1.42-.39,2.94-.05,4.05,.91,1.58,1.36,1.74,3.76,1.8,4.66,0,.04,.03,.53,.1,2.67v35.55c-.02,1.07,.82,1.95,1.89,1.98s1.95-.82,1.98-1.89c0-.03,0-.06,0-.09v-35.61c-.09-2.42-.12-2.86-.12-2.86Z" fill="#fff"/>
      <path id="_패스_389" data-name="패스 389" d="M5.11,79.47c-1.35,32.37,6.83,64.17,30.4,86.51,22.32,21.05,50.21,38.41,74.88,56.72l-4.58-.11c12.88-8.37,25.26-17.48,37.1-27.27,24.38-19.54,47.57-38.75,58.02-69.85,5.22-14.68,7.41-30.52,7.53-46.43,2.36,21.74-.55,44.87-9.98,64.79-10.9,24.11-31.25,41.43-50.65,57.9-11.89,10.24-24.44,19.67-37.59,28.23-1.4,.93-3.23,.89-4.59-.1-19.23-13.94-38.55-27.57-57-42.65-6.29-5.05-12.22-10.53-17.75-16.4C7.34,146.5,.05,112.87,5.11,79.48h0Z" fill="#fff"/>
      <path id="_패스_390" data-name="패스 390" d="M38.9,4.89c-4.69,0-9.17,1.93-12.39,5.33-1.42-3.64-5.52-5.43-9.16-4.01-3.64,1.42-5.43,5.52-4.01,9.16,1.34,3.44,5.1,5.26,8.63,4.19-1.34,9.35,5.15,18.01,14.5,19.36s18.01-5.15,19.36-14.5-5.15-18.01-14.5-19.36c-.81-.12-1.62-.17-2.44-.17Z" fill="#fff"/>
    </g>
  </g>
</svg>