<?xml version="1.0" encoding="UTF-8"?>
<svg id="_레이어_2" data-name="레이어 2" xmlns="http://www.w3.org/2000/svg" viewBox="0 0 272 224">
  <g id="Logo">
    <g id="symbol_13_03_0005_01" data-name="symbol 13 03 0005 01">
      <path id="_패스_1024" data-name="패스 1024" d="m207.66,130.24c-8.57-.27-8.56,1.2-8.5-7.57.01-1.58,0-3.17,0-4.75l1.73-1c3.26,3.23,6.49,6.48,9.79,9.66,1.23,1.18,2.62,2.51,4.55.92,2.01-1.66.93-3.12-.58-4.47-3.57-3.2-6.92-6.64-10.79-9.53-4.44-3.32-5.56-7.24-4.05-13.09,2.83,2.76,5.14,5.15,7.62,7.37,1.41,1.26,2.97,3.28,5.24,1.09,2.18-2.1-.05-3.44-1.43-4.75-2.18-2.2-4.51-4.26-6.96-6.15-4.54-3.29-6.24-7.28-4.64-12.57,3.07,1.22,4.82,3.71,7.1,5.64,1.2,1.01,2.43,2.18,4.21.9,1.88-1.36,1.37-2.88-.03-4.15-4.12-3.73-8.33-7.39-12.55-11.03-1.92-1.65-3.45-.66-5.07.61-8.52,6.71-8.61,6.75-16.74-.7-2.89-2.65-7.44-4.74-5.46-9.96,2.44.71,3.63,2.57,5.32,3.82,1.16.86,2.29,1.11,3.48.12,1.23-1.03,1.71-2.29.45-3.45-3.74-3.46-7.56-6.85-11.42-10.21-1.13-.98-2.37-.73-3.47.23-3.49,3.06-7.03,6.07-10.48,9.17-1.41,1.26-1.98,2.68-.12,4.13,1.94,1.5,3.24.48,4.54-.8s2.64-2.53,4.35-4.17c1.23,2.92,1.05,5.07-1.15,7.06-3.44,3.11-6.83,6.26-10.21,9.42-1.34,1.26-3.16,2.56-1.08,4.4,2.02,1.78,3.61.37,4.97-.92,2.25-2.32,4.66-4.47,7.23-6.44,1.51,4.7,1.24,8.39-3.13,11.55-4.03,2.92-7.39,6.57-11.03,9.92-1.16,1.07-2.4,2.13-.81,3.72,1.67,1.66,3.17,1.11,4.53-.28,3.12-3.4,6.51-6.55,10.14-9.41,1.75,5.68,2.15,10.41-3.26,14.2-3.7,2.6-6.83,5.84-10.12,8.88-1.27,1.17-3.33,2.38-1.1,4.33,2.3,2.01,3.75.31,5.33-.96,3.22-2.58,5.75-5.85,10.36-8.37,0,6.1.06,11.56-.03,17.02-.03,1.88-1.56,1.92-3.17,1.6-3.54-.7-7.14-1.09-10.75-1.15-8.48-1.23-17.11-.99-25.51.71-2.05.4-4,.36-4.04-2.04-.11-6.95-.04-13.9-.04-21.66,5.88,3.2,9.1,7.36,13.19,10.65,2.01,1.61,3.85,3.78,6.79,1.22,2.85-2.49.22-4.02-1.39-5.51-4.18-3.87-8.17-8-12.88-11.3-6.88-4.83-6.37-10.84-4.14-18.07,4.84,3.59,8.84,7.81,12.9,11.97,1.73,1.77,3.64,2.47,5.76.35,2.02-2.01.45-3.37-1.03-4.73-4.63-4.26-8.91-8.91-14.04-12.62-5.56-4.03-5.91-8.71-3.98-14.7,3.26,2.5,6.34,5.24,9.2,8.19,1.73,1.64,3.76,3.43,6.32,1.17,2.65-2.33.34-4-1.37-5.6-4.3-4.02-8.62-8.04-12.99-11.99-2.8-2.53-3.02-5.27-1.46-8.98,2.18,2.09,3.87,3.68,5.53,5.31s3.32,2.93,5.78,1.01c2.37-1.84,1.64-3.64-.16-5.25-4.39-3.94-8.89-7.78-13.34-11.67-1.4-1.22-2.98-1.54-4.41-.29-4.91,4.27-9.77,8.59-14.53,12.99-1.6,1.48-1,3.08.58,4.39,1.52,1.26,2.96.94,4.43-.15,2.15-1.6,3.66-3.96,6.77-4.87,2.52,6.64-3.28,9.3-6.95,12.67-10.35,9.48-10.46,9.43-21.31.89-2.06-1.62-4.01-2.88-6.45-.78-5.37,4.64-10.72,9.29-15.96,14.04-1.79,1.61-2.43,3.55-.04,5.28,2.27,1.64,3.84.14,5.36-1.14,2.91-2.45,5.13-5.62,9.04-7.17,2.03,6.74-.12,11.82-5.9,16-3.13,2.41-6.09,5.02-8.86,7.82-1.76,1.67-4.6,3.38-1.82,6.04,2.9,2.78,4.88.21,6.68-1.39,3.16-2.83,6.09-5.87,9.7-9.38,1.92,7.46.49,12.44-5.16,16.66-4.92,3.68-9.19,8.05-13.73,12.13-1.92,1.72-3.3,3.58-.74,5.69,2.45,2.02,4.22.33,5.78-1.18,4.21-4.06,8.31-8.19,12.46-12.3l2.2,1.27c0,2.01-.01,4.03,0,6.04.07,11.16.09,9.28-10.82,9.63-4.52.14-9.03.7-13.45,1.67,1.39.12,2.77.36,4.12.72-1.44-.25-2.83-.5-4.12-.72,6.01,38.86,42.62,67.24,82.9,67.2,43-.05,72.98-32.47,80.91-57.99.9-2.89,1.56-5.85,1.99-8.84-3.47-.77-7.01-1.21-10.57-1.31m-36.3-51.55c3.21,4.68,8.8,6,9.44,11.52.28,2.45,2.9,3.06,5.13,1.05,2.27-2.04,4.35-4.25,7.12-7,1.93,6.28.27,10.19-4.13,13.6-2.45,1.9-4.07,2.34-6.39.03-2.84-2.82-5.83-5.5-8.95-8.01-3.51-2.84-3.52-6.14-2.22-11.19m9.17,30.68c1.77,1.3,3.14.17,4.19-.9,2.46-2.48,4.75-5.09,7.1-7.65,3.67,6.78.24,10.24-3.84,13.7-2.37,2.01-4.02,2.5-6.36.09-2.35-2.45-4.89-4.72-7.59-6.78-4.64-3.49-3.77-7.7-2.24-12.46,2.76,2.02,5.32,4.29,7.65,6.79,1.08,1.07,1.77,2.14.54,3.44-1.36,1.44-.92,2.69.54,3.76m-9.93,4.1l2.05-1.16c1.92,2.16,3.74,4.41,5.79,6.47,1.5,1.51,1.53,2.74-.04,4.15-1.44,1.29-2.82,2.74-.75,4.45,2.47,2.04,3.77-.21,5.24-1.36,3.5-2.71,6.21-6.21,10.34-8.54,2.31,11.23,1.57,12.57-8.89,16.8-1.49.6-2.9,1.34-4.39,1.94-3.58,1.43-9.07-1.03-9.26-4.52-.32-6.07-.09-12.16-.09-18.24m-86.12-42.47c3.54,3.5,6.18,6.31,9.07,8.91,2.84,2.56,6.16,1.78,6.52-1.34.81-7.02,7.92-8.7,12.01-14.66,1.65,6.42,1.64,10.63-2.83,14.24-3.97,3.2-7.77,6.61-11.39,10.2-2.95,2.94-5.02,2.38-8.13-.03-5.59-4.34-7.7-9.32-5.25-17.31m16.61,27.18c-1.56-1.66-.68-3.02.69-4.38,2.97-3.18,6.23-6.07,9.74-8.64,1.95,6.05,3.06,11.4-2.85,15.85-3.44,2.62-6.66,5.51-9.65,8.63-2.97,3.06-5.07,2.44-8.09-.12-5.19-4.4-9.56-8.8-4.89-17.43,3,3.26,5.91,6.58,9.04,9.74,1.34,1.35,3.08,2.79,5.33,1.14,1.85-1.35,2.41-2.95.68-4.78m-16.85,15.11c5.26,2.97,8.71,7.43,13.16,10.87,1.88,1.46,3.53,4.32,6.67,1.73,2.64-2.18.87-4.02-.95-5.67-1.99-1.8-1.95-3.36-.05-5.28,2.61-2.62,4.92-5.48,7.36-8.23l2.61,1.47c0,7.74.3,15.49-.11,23.2-.23,4.43-7.23,7.57-11.78,5.75-1.9-.76-3.7-1.7-5.59-2.46-13.31-5.38-14.25-7.09-11.31-21.38" fill="#fff"/>
      <path id="_패스_1025" data-name="패스 1025" d="m264.39,58.39L136.57,3.45c-1.27-.54-2.7-.54-3.96,0L31.11,47.59h-.02s-24.84,10.81-24.84,10.81c-2.53,1.1-3.69,4.04-2.59,6.57s4.04,3.69,6.57,2.59h0l17.82-7.75v153.53c0,2.76,2.24,4.99,4.99,4.99h203.17c2.76,0,4.99-2.24,4.99-4.99V59.3l19.23,8.27c2.52,1.12,5.47-.02,6.59-2.54,1.12-2.52-.02-5.47-2.54-6.59-.04-.02-.07-.03-.11-.05m-33.16,149.96H38.04V55.47L134.61,13.48l96.62,41.52v153.34Z" fill="#fff"/>
      <rect id="_사각형_394" data-name="사각형 394" width="272" height="224" fill="none"/>
    </g>
  </g>
</svg>