<?xml version="1.0" encoding="UTF-8"?>
<svg id="Layer_2" data-name="Layer 2" xmlns="http://www.w3.org/2000/svg" viewBox="0 0 264 171">
  <g id="Logo">
    <g id="symbol_03_09_0001_01" data-name="symbol 03 09 0001 01">
      <path id="_패스_584" data-name="패스 584" d="m249,116.16c-38.68,8.66-77.7,10.67-117,10.91-39.3-.28-78.31-2.3-117-10.91v-1.28c53.53-.61,121.74-.72,175.5-.43,14.54.01,43.95.22,58.5.43v1.28" fill="#fff"/>
      <path id="_패스_585" data-name="패스 585" d="m203.45,136.01c-40.1,14.7-103.74,14.61-144.03,0v-1.29c32.94-.61,74.94-.72,108.02-.43,8.96.01,27.05.22,36.01.43v1.28Z" fill="#fff"/>
      <path id="_패스_586" data-name="패스 586" d="m77.29,102.57c7.09,0,12.83,5.75,12.82,12.83h83.79c0-7.08,5.74-12.82,12.82-12.82s12.82,5.74,12.82,12.82h24.79c.17-50.99-41.03-92.47-92.02-92.63-50.99-.17-92.47,41.03-92.63,92.02,0,.2,0,.41,0,.61h24.79c0-7.08,5.74-12.83,12.82-12.83m83.62-35.4c4.94-5.08,13.06-5.2,18.14-.26,5.08,4.94,5.2,13.06.26,18.14-4.93,5.08-13.05,5.2-18.13.27-5.09-4.92-5.22-13.03-.3-18.12,0,0,.02-.02.03-.03m-28.9-19.36c7.09,0,12.84,5.73,12.84,12.82s-5.73,12.84-12.82,12.84c-7.09,0-12.84-5.73-12.84-12.82,0,0,0,0,0-.01,0-7.08,5.73-12.83,12.82-12.83m-48.46,20.52c4.94-5.08,13.06-5.2,18.14-.26,5.08,4.94,5.2,13.06.26,18.14-4.93,5.08-13.05,5.2-18.13.27-5.09-4.92-5.22-13.03-.3-18.12,0,0,.02-.02.03-.03" fill="#fff"/>
      <rect id="_사각형_2" data-name="사각형 2" width="264" height="171" fill="none"/>
    </g>
  </g>
</svg>