<?xml version="1.0" encoding="UTF-8"?>
<svg id="_레이어_2" data-name="레이어 2" xmlns="http://www.w3.org/2000/svg" viewBox="0 0 146 115">
  <g id="Logo">
    <g id="symbol_07_01_0003_01" data-name="symbol 07 01 0003 01">
      <rect id="_사각형_299" data-name="사각형 299" x="16.72" y="-14.55" width="112.57" height="144.11" transform="translate(14.27 129.51) rotate(-89.03)" fill="none"/>
      <path id="_패스_1135" data-name="패스 1135" d="M142.94,57.88c-.04,25.15-22.39,44.15-45.16,50.29-23.26,6.45-49.33,2.71-69.51-10.65-9.98-6.62-18.55-16.08-22.29-27.67C-3.71,39.41,22.34,14.6,49.79,7.32c23.29-6.36,49.81-3.48,69.89,10.44,13.18,9,23.37,23.75,23.25,40.12h0Zm-.34,0c.09-16.15-10.78-30.25-24.14-38.24C98.34,7.48,73.27,4.87,50.73,10.75,28.81,16.36,6.39,33.52,5.81,57.88c-.5,20.31,15.63,36.96,33.51,44.22,18.15,7.53,38.78,8.06,57.66,3.18,22.1-5.61,45.58-22.43,45.61-47.4h0Z" fill="#fff"/>
      <path id="_패스_1136" data-name="패스 1136" d="M31.4,23.75c6.55-2.86,12.02-5.87,17.85-7.67,22.2-6.86,43.79-5.31,63.89,6.86,5.44,3.34,10.26,7.6,14.24,12.59,12.23,15.32,10.73,35.18-3.14,49.1-11.37,11.4-25.62,16.66-41.23,18.21-15.33,1.52-30.36-.2-44.36-7.29-12.81-6.48-22.6-15.64-25.99-30.29-.21-.82-.37-1.66-.48-2.5-.66-6.34-.2-7.18,6.06-6.31,5.68,.79,10.51,.29,14.44-2.08,3.27-1.97,4.99-4.64,7.36-8.86,3.73-6.64,4.24-12.67,7.64-13.21,.47-.07,.96-.03,1.42,.1,.41,.15,.78,.4,1.09,.71,1.05,1.11,.89,2.84,.71,4.18-.5,3.26-1.26,6.48-2.28,9.62,3.05,0,5.98-.11,8.9,.03,3.24,.15,5.97,.61,4.75,5.29-.6,2.32,.57,5.05,.24,7.5-.58,3.47-1.39,6.9-2.42,10.27-1,3.66-4,4.79-7.26,4.69-4.38-.13-8.73-.94-13.1-1.23-3.1-.23-6.22,0-9.26,.65,5.2,4.05,11.59,6.26,18.18,6.27,8.09,.19,16.19,.08,24.28,.03,4.94-.03,6.22-1.31,6.55-6.26,.77-11.76,7.76-17.87,19.37-16.94,6.78,.54,13.26,6.44,15.1,13.75,.31,1.24,.29,2.66,.9,3.71,.99,1.71,2.37,4.47,3.6,4.47,2.03,.01,5.01-1.29,5.94-2.96,6.43-11.59,4.29-22.46-10.08-26.67-8.32-2.44-17.39-2.2-26.02-3.76-4.03-.73-7.88-2.7-11.68-4.41-1.63-.87-3.11-2.02-4.36-3.39-9.92-9.6-21.41-14.75-35.47-12.88-.99,.08-1.99,.04-2.97-.12-.85-.32-1.67-.72-2.43-1.21Zm50.05,49.42c-.17,8.39,6.48,15.32,14.87,15.5,.12,0,.23,0,.35,0,8.05,.08,15.17-7.06,15.19-15.22,.04-8.51-6.82-15.44-15.33-15.48-8.34,.1-15.05,6.87-15.07,15.21h0Z" fill="#fff"/>
      <path id="_패스_1137" data-name="패스 1137" d="M105.86,73.51c-.06,5.49-3.64,9.07-9.06,9.03-5.24-.04-9.48-4.1-9.34-8.97,.04-5.28,4.35-9.52,9.63-9.48,.1,0,.2,0,.3,0,4.64,.14,8.52,4.45,8.47,9.41Z" fill="#fff"/>
    </g>
  </g>
</svg>