<?xml version="1.0" encoding="UTF-8"?>
<svg id="_레이어_2" data-name="레이어 2" xmlns="http://www.w3.org/2000/svg" viewBox="0 0 115 140">
  <g id="Logo">
    <g id="symbol_20_01_0006_01" data-name="symbol 20 01 0006 01">
      <path id="_패스_1470" data-name="패스 1470" d="m6.23,73.74c3.4,11.5,10.3,18.87,18.65,27.79,14.46,15.45,32.57,25.08,39.1,30.25,1.08.82,2.23,1.53,3.44,2.14,3.25,1.79,4.02,1.59,4.37,1.37.76-.46.77-1.72.78-2.41.03-1.57.07-6.3-.01-12.75,0-3.71.11-7.42-.04-11.12-.1-2.47.82-3.77,3.18-4.54,9-2.85,16.98-8.22,23.01-15.48,11.87-14.32,14.66-30.52,9.69-48.19-2.88-8.85-8.03-16.79-14.93-23.03C76.77,3.03,46.06-2.2,24.73,13.77,3.93,29.35,1.08,56.33,6.23,73.74M56.87,24.94c-.05,4.17-3.46,7.51-7.63,7.47-4.17-.05-7.51-3.46-7.47-7.63,0-.02,0-.05,0-.07.08-4.17,3.53-7.48,7.7-7.4,4.14.08,7.44,3.49,7.4,7.63m26.04,29.68c-4.29,0-7.8-3.4-7.93-7.69.13-4.05,3.32-7.34,7.36-7.58,4.12-.12,7.55,3.12,7.67,7.24,0,.04,0,.08,0,.11.18,4.13-2.98,7.65-7.1,7.92m-18.14,25.86c-10.41.55-20.46-7.37-22.54-17.76-.97-4.84-.85-4.92,4.03-4.99,2.05-.03,3.16.29,3.56,2.76,1.24,7.89,8.65,13.29,16.54,12.05,6.16-.97,11.01-5.78,12.03-11.93q.57-2.85,4.13-2.81c.64,0,1.29,0,1.93,0,1.55.02,2.11.77,1.96,2.33-1.11,11.24-10.35,19.93-21.63,20.35m-28.85-40.24c6.73-5.05,14.21-5.92,21.94-2.79,7.78,3.15,12.22,9.2,13.57,17.46.47,2.91.07,3.27-2.8,3.29-.86,0-1.72-.05-2.58,0-1.49.09-2.13-.52-2.36-2.05-.92-7.86-8.05-13.49-15.91-12.57-.08,0-.15.02-.23.03-7.4.75-13.1,7.55-12.8,15.26.42,14.39,11.19,26.37,25.45,28.33q4.04.6,4.03,4.71c0,3.23-.23,3.43-3.41,3.18-18.87-1.66-33.43-17.32-33.71-36.26-.5-7.31,2.84-14.35,8.81-18.58" fill="#fff"/>
      <rect id="_사각형_745" data-name="사각형 745" width="115" height="140" fill="none"/>
    </g>
  </g>
</svg>