<?xml version="1.0" encoding="UTF-8"?>
<svg id="_레이어_2" data-name="레이어 2" xmlns="http://www.w3.org/2000/svg" viewBox="0 0 168 185">
  <g id="Logo">
    <g id="symbol_14_02_0007_02" data-name="symbol 14 02 0007 02">
      <path id="_패스_1114" data-name="패스 1114" d="m161.96,104.46v1.93c0,20.44-.14,40.88.07,61.32.09,8.37-6.29,12.29-12.26,12.27-43.39-.13-86.79-.07-130.18-.07-7.75,0-12.21-4.46-12.21-12.22V18.86c0-7.63,4.51-12.17,12.11-12.17,22.67,0,45.33,0,68,0h1.74c-16.57,25.48-18.35,51.43-.06,76.14,18.31,24.74,43.44,31.06,72.79,21.65m-121.62,42.46h21.76v-51.27h-21.76v51.27Zm55.76-36.09h-1.72c-6.11,0-12.22.04-18.33-.03-1.4-.02-1.84.36-1.83,1.8.06,10.9.03,21.81.03,32.71v1.61h21.85v-36.09Zm33.97,15.46h-21.68v20.66h21.69v-20.66Z" fill="#fff"/>
      <rect id="_사각형_511" data-name="사각형 511" width="168" height="185" fill="none"/>
    </g>
  </g>
</svg>