<?xml version="1.0" encoding="UTF-8"?>
<svg id="Layer_2" data-name="Layer 2" xmlns="http://www.w3.org/2000/svg" viewBox="0 0 91 80">
  <g id="Logo">
    <g id="symbol_04_03_0002_02" data-name="symbol 04 03 0002 02">
      <path id="_합치기_12" data-name="합치기 12" d="m45.97,69.24c-19.66-8.96-33.1-4.33-38.53-1.5v-17.08c4.08-2.33,17.51-8.2,37.61.96,5.58,2.65,11.66,4.06,17.83,4.13,4.33.01,8.62-.78,12.66-2.35,3.19-1.24,6.17-2.95,8.84-5.07v16.69c-2.85,2.58-6.16,4.62-9.76,5.99-1.37.53-2.77.96-4.2,1.3.09-.37.13-.75.13-1.12,0-2.72-2.21-4.93-4.93-4.93h0c-2.72,0-4.93,2.21-4.93,4.93h0c0,.68.14,1.35.41,1.97-5.25-.34-10.38-1.67-15.13-3.92Zm25.39-6.43c0,1.59,1.29,2.88,2.88,2.88h0c1.59,0,2.88-1.29,2.88-2.88,0-1.59-1.29-2.88-2.88-2.88h0c-1.59,0-2.88,1.29-2.88,2.88h0Zm-17.27-10.37c.73-.72,1.15-1.71,1.15-2.74,0-2.13-1.73-3.86-3.86-3.86s-3.86,1.73-3.86,3.86h0c0,.2.02.39.05.59-.53-.22-1.07-.45-1.61-.7-6.9-3.31-14.43-5.1-22.08-5.24.95-1.06,1.47-2.42,1.47-3.84,0-3.19-2.58-5.77-5.77-5.77h0c-3.19,0-5.77,2.58-5.77,5.77h0c0,1.81.84,3.52,2.29,4.6-3.02.58-5.94,1.59-8.67,2.99v-17.07c4.08-2.34,17.51-8.2,37.61.96,5.58,2.64,11.66,4.05,17.83,4.13,4.33.01,8.62-.78,12.66-2.35,3.19-1.24,6.17-2.95,8.84-5.08v16.7c-2.86,2.58-6.16,4.61-9.76,5.98-3.74,1.46-7.72,2.2-11.73,2.19-2.96-.01-5.91-.38-8.79-1.11Zm-8.13-23.03c-19.65-8.95-33.1-4.33-38.53-1.5V10.84c4.08-2.33,17.51-8.2,37.61.96,5.58,2.65,11.66,4.06,17.83,4.13,4.33.01,8.62-.79,12.66-2.35,3.19-1.24,6.17-2.95,8.84-5.08v16.7c-2.86,2.58-6.17,4.61-9.76,5.99-1.18.45-2.38.84-3.6,1.16.81-1.02,1.25-2.29,1.25-3.59,0-3.2-2.59-5.79-5.78-5.79h0c-3.2,0-5.79,2.59-5.79,5.79h0c0,1.82.86,3.54,2.32,4.63h-.14c-5.86-.09-11.62-1.45-16.91-3.97Z" fill="#fff"/>
      <rect id="_사각형_217" data-name="사각형 217" width="91" height="80" fill="none"/>
    </g>
  </g>
</svg>