<?xml version="1.0" encoding="UTF-8"?>
<svg id="_레이어_2" data-name="레이어 2" xmlns="http://www.w3.org/2000/svg" viewBox="0 0 125 125">
  <g id="Logo">
    <g id="symbol_04_02_0005_01" data-name="symbol 04 02 0005 01">
      <rect id="_사각형_399" data-name="사각형 399" width="125" height="125" fill="none"/>
      <path id="_패스_1234" data-name="패스 1234" d="m119.22,68.35c-.16-3.85-.72-7.67-1.66-11.41-2.19-8.13-5.73-15.84-10.47-22.79-1.3-1.78-2.7-3.49-4.18-5.13-3.02-3.63-6.36-6.96-10-9.97-1.14-.91-2.11-1.62-2.76-2.08-.12-.11-.26-.2-.4-.28-1.72-1.19-3.49-2.29-5.33-3.29h0c-11.6-6.7-23.9-9.79-37.07-8.1-12.7,1.63-23.98,6.91-32.47,18.72-7.22,10.04-10.25,21.73-9.02,34.78,1.07,11.5,5.15,22.52,11.81,31.95,2.4,3.46,2.27,3.41-.18,6.75-3.66,4.99-5.95,10.89-7.97,16.97.83.49,1.36.06,1.89-.16,6.14-2.59,12.35-4.87,18.62-6.99,1.61-.64,3.44-.36,4.79.72,12.1,8.58,25.17,12.98,39.36,12.13,7.9-.32,15.6-2.56,22.43-6.53,5.7-3.42,10.57-8.06,14.27-13.58,3.18-4.89,5.44-10.32,6.67-16.02,1.3-5.13,1.87-10.41,1.7-15.7m-8.72,8.18c-.6,12.21-5.27,21.79-13.33,29.23-8.3,7.66-17.98,10.43-28.27,10.57-9.73.12-18.9-2.85-27.56-7.98-1.2-.71-3.24-1.09-3.06-2.77.11-1.07,2.32-.8,3.6-1.09.07-.02.15-.01.22-.02,7.5-.99,15.05-1.27,22.52-2.59,10.04-1.77,17.64-7.53,22.66-18.05,1.97-4.13,3.51-8.46,5.14-12.76.26-.68.91-1.48.35-2.14-.59-.69-1.25.18-1.79.49-7.56,4.42-15.41,7.71-23.87,8.57-6.56.67-13.14,1.05-19.69,1.78-8.31.93-16.21,3.35-22.81,9.81-1.84,1.8-2.77.41-3.73-1.15-4.77-7.42-7.75-15.84-8.72-24.6-1.37-13.28,1.87-24.74,9.99-34.05,8.16-9.35,18.37-13.14,29.48-13.78,7.41-.33,14.8,1.03,21.61,3.99,3.45,1.55,6.78,3.38,9.93,5.48,6.9,4.61,12.92,10.43,17.77,17.16l1.68,2.67c.23.48.45.92.63,1.32,3.16,6.71,5.43,11.45,6.58,18.21.65,3.86.88,7.78.68,11.69" fill="#fff"/>
      <path id="_패스_1235" data-name="패스 1235" d="m47.19,42.88s-.09.06-.13.1c-2.62,3.33-4.45,7.2-5.36,11.34-1.01,4.51.11,9.24,3.04,12.81,2.7,3.25,6.39,5.53,10.5,6.48,1.05.28,2.13.44,3.19.66,0-.04.02-.09.03-.13-.15-.04-.3-.09-.45-.13-2.91-.78-5.21-3.02-6.04-5.92-.57-1.92-.7-3.95-.4-5.93.1-.74.24-1.47.38-2.32.13.19.28.38.44.55.44.46.93.87,1.45,1.24.56.33,1-.05,1.07-.69.08-1.25.25-2.49.5-3.72.83-3.84,3.39-7.09,6.93-8.81.18-.09.37-.15.63-.25-.13.34-.22.58-.3.82-.49,1.2-.45,2.54.1,3.71.34.67.75,1.31,1.16,1.95.77,1.14,1.3,2.42,1.57,3.76.08.43.12.87.21,1.49l2.75-2.14c.56.96,1.21,1.95,1.73,3.01,1.09,1.98,1.44,4.28,1,6.5-.65,2.73-2.57,4.99-5.16,6.07-.48.24-.99.42-1.49.63.19.02.39,0,.58-.04,4.18-.7,7.92-3,10.44-6.42,2.05-2.93,3.23-6.39,3.41-9.96.2-2.99,0-6-.59-8.94-.1-.52-.22-1.04-.34-1.58-.66.77-1.23,1.53-1.89,2.17-.48.47-1.04.86-1.65,1.15-.64.38-1.46.17-1.83-.47-.15-.26-.21-.56-.18-.86-.04-4.18-.97-8.31-2.71-12.11-2.38-5.2-6.54-9.36-11.74-11.74-.22-.11-.46-.18-.79-.31.22.59.4,1.08.58,1.57,1.07,2.67.79,5.68-.75,8.11-.58.93-1.16,1.86-1.75,2.78-1.37,2.04-2.32,4.32-2.8,6.73-.16.89-.26,1.8-.39,2.74-1.91-.93-3.6-2.25-4.95-3.89" fill="#fff"/>
      <path id="_패스_1236" data-name="패스 1236" d="m47.19,42.88c1.35,1.64,3.04,2.96,4.95,3.89.13-.94.23-1.85.39-2.74.48-2.41,1.43-4.69,2.8-6.73.59-.92,1.17-1.85,1.75-2.78,1.54-2.42,1.82-5.44.75-8.11-.18-.49-.36-.98-.58-1.57.33.13.57.2.79.31,5.19,2.38,9.36,6.55,11.74,11.74,1.75,3.8,2.67,7.93,2.71,12.11-.1.73.42,1.41,1.15,1.5.3.04.6-.02.86-.18.61-.28,1.17-.67,1.65-1.15.66-.65,1.23-1.4,1.89-2.17.12.55.24,1.06.34,1.58.59,2.94.79,5.95.59,8.94-.18,3.58-1.36,7.03-3.41,9.96-2.51,3.41-6.26,5.72-10.44,6.42-.19.04-.38.06-.58.04.5-.21,1.01-.39,1.49-.63,2.59-1.09,4.5-3.34,5.16-6.07.44-2.22.09-4.52-1-6.5-.53-1.06-1.18-2.05-1.73-3.01l-2.75,2.14c-.09-.62-.13-1.06-.21-1.49-.27-1.35-.8-2.62-1.57-3.76-.41-.64-.82-1.28-1.16-1.95-.55-1.17-.59-2.51-.1-3.71.08-.24.18-.48.3-.82-.26.1-.45.16-.63.25-3.54,1.71-6.09,4.96-6.93,8.81-.25,1.23-.42,2.47-.5,3.72-.07.65-.51,1.02-1.07.69-.52-.36-1.01-.78-1.45-1.24-.16-.17-.31-.36-.44-.55-.14.85-.28,1.58-.38,2.32-.3,1.98-.17,4.01.4,5.93.84,2.9,3.13,5.14,6.04,5.92.15.05.3.09.45.13-.01.04-.02.09-.03.13-1.07-.22-2.14-.38-3.19-.66-4.11-.96-7.8-3.24-10.5-6.48-2.93-3.57-4.05-8.3-3.04-12.81.91-4.14,2.74-8.01,5.36-11.34.04-.04.08-.07.13-.1" fill="#fff"/>
    </g>
  </g>
</svg>