<?xml version="1.0" encoding="UTF-8"?>
<svg id="_레이어_2" data-name="레이어 2" xmlns="http://www.w3.org/2000/svg" viewBox="0 0 170 185">
  <g id="Logo">
    <g id="symbol_09_14_0001_01" data-name="symbol 09 14 0001 01">
      <rect id="_사각형_95" data-name="사각형 95" width="170" height="185" fill="none"/>
      <path id="_패스_640" data-name="패스 640" d="M167.27,56.37c-1.15-3.92-3.05-7.57-5.59-10.77-2.6-3.07-5.51-5.86-8.7-8.31-5.15-3.94-10.85-7.11-16.92-9.4V13.04h.22c1.87,.04,3.42-1.44,3.46-3.31V4.87c-.04-1.87-1.59-3.35-3.46-3.31h-32.2c-1.87-.04-3.42,1.44-3.46,3.31v4.85c.04,1.87,1.59,3.35,3.46,3.31h.22v8.13l-1.61-.17c-26.76-2.81-45.9,2.62-49.71,3.76-4.56,1.36-8.79,3.04-8.79,3.04-5.89,2.42-11.55,5.39-16.9,8.85-7.65,4.84-11.76,7.44-16.12,12.02-5.05,5.3-10.1,10.62-9.52,17.26,.45,5.15,4.38,12,4.38,12,0,0-.73,1.34-.98,1.88-.48,1.08-.71,2.26-.66,3.44-.02,2.07-.1,29.23-.12,66.73-.23,.69-.23,1.43,0,2.11,.99,2.09,2.4,3.96,4.13,5.49,1.69,1.37,3.61,2.44,5.66,3.16,12.41,4.67,24.51,8.54,24.51,8.54,4.15,1.33,8.65,2.77,14.61,4.99,6.39,2.39,9.37,3.78,16.35,6.11,8.09,2.71,11.23,3.23,14.67,3,3.06-.27,6.05-1.03,8.86-2.25,1.69-.62,.69-.2,23.61-5.72,25.86-6.23,21.35-5.38,25.84-6.33,9.91-2.11,5.19-1.33,8.42-2.14,5.36-1.34,8.03-1.98,10.63-3.95,1.07-.79,2-1.75,2.76-2.85,1.05-1.59,1.6-3.47,1.58-5.38,.53-40.16,.93-81.61,.93-81.61,1.27-2.61,2.6-9.3,.45-16.79Zm-76.01,43.89s-.37,.35-.98,.81c1.53,1.77,2.37,4.02,2.39,6.35l.14,63.66c.02,6.99-7.29,11.79-14.19,9.34l-17.23-6.12,.08-13.81c0-.32-.03-.64-.09-.96l.12-18.63c.52-2.09,.26-4.3-.74-6.22-1.42-2.44-3.83-4.15-6.6-4.69l-16.39-5.42c-4.06-1.76-7.37-.5-7.39,2.83l-.18,28.07c0,.32,.03,.64,.09,.96l-.04,6.81-15.7-5.58c-4.09-1.37-6.87-5.17-6.95-9.48l-.14-63.66c0-2.47,.94-4.85,2.64-6.65-.88-1.17-1.67-2.42-2.35-3.72-3.07-5.89-2.26-10.01-1.94-11.32,2.19-8.88,13.13-13.46,15.54-14.47,13.95-5.83,28.66-1.86,33.8-.47,19.37,5.23,28.66,17.83,32.54,23.09,1.56,2.12,6.59,9.27,7.09,18.11,.39,7.04-2.38,10.09-3.51,11.16h0Zm34.04,7.11s-.02,.06-.02,.08v3.96c0,.81-1.42,1.88-3.17,2.41l-10.48,3.16c-1.75,.52-3.17,.3-3.17-.5v-5.46s.02-.06,.02-.08v-3.32s-.01-.05-.02-.07v-5.46c0-.81,1.42-1.88,3.17-2.41l10.48-3.16c1.75-.52,3.17-.3,3.17,.5v4.82s.01,.05,.02,.07v5.46Zm24.01-7.97s-.01,.07-.02,.1v3.15c0,.8-1.42,1.88-3.17,2.41l-10.47,3.16c-1.75,.52-3.17,.3-3.17-.5v-5.46s.01-.07,.02-.1v-3.15s0-.05,.02-.08c-.02-.05-.03-.1-.04-.15v-5.46c0-.81,1.42-1.88,3.17-2.41l10.48-3.16c1.75-.52,3.17-.3,3.17,.5v5.46s-.01,.05-.02,.08c.02,.05,.03,.1,.04,.15v5.46Z" fill="#fff"/>
    </g>
  </g>
</svg>