<?xml version="1.0" encoding="UTF-8"?>
<svg id="Layer_2" data-name="Layer 2" xmlns="http://www.w3.org/2000/svg" viewBox="0 0 312 312">
  <g id="Logo">
    <g id="symbol_01_03_0004_01" data-name="symbol 01 03 0004 01">
      <path id="_합치기_37" data-name="합치기 37" d="m28.21,155.98c.01-1.73,1.43-3.12,3.15-3.11,1.71.01,3.09,1.4,3.11,3.11-.08,65.59,53.02,118.82,118.61,118.9s118.82-53.02,118.9-118.61v-.29c-.01-1.73,1.38-3.14,3.11-3.15,1.73-.01,3.14,1.38,3.15,3.11v.04c.14,69.04-55.71,125.12-124.76,125.27-69.04.14-125.12-55.71-125.27-124.75v-.51Zm77.64,80.7c-10.74-4.21-21.29-8.86-31.07-15.06-1.82-1.15-3.46-2.6-3.21-4.83.18-1.7,1.22-3.29,1.98-5.18-3.55-1.86-6.1-5.2-6.96-9.12-1.42-6.2,1.01-12.14,6.77-15.04,6.99-3.52,14.11-6.82,21.39-9.67,6.12-2.39,12.55-3.97,18.81-6,.97-.32,1.85-.89,2.53-1.66,11.53-13.7,26.22-20.39,44.1-20.08,6.13.1,9.09,5.45,6.12,10.83-1.39,2.51-2.78,5.03-4.22,7.66,3.66,1.08,7.09,1.8,10.28,3.1,4.57,1.87,8.98,4.1,13.41,6.27,5.07,2.48,9.96,2.62,14.79-.61,1.08-.55,1.59-1.81,1.2-2.96-1.77-8.11-3.49-16.23-5.15-24.36-.39-1.52-.44-3.1-.16-4.64.78-2.58,3.5-4.04,6.08-3.26.52.16,1.01.4,1.44.71.68.51,1.32,1.09,1.9,1.72,4.6,4.73,9.22,9.44,13.76,14.23,2.24,2.48,5.56,3.72,8.88,3.3,6.51-.54,13.03-.87,19.55-1.28,3.22-.2,5.37,1.12,6.21,3.77.81,2.54-.09,4.71-2.83,6.5-7.73,5.04-15.52,10-23.2,15.12-1.43,1.03-2.65,2.31-3.61,3.79-2.43,3.53-4.66,7.19-6.98,10.78-.28.45-.59.88-.94,1.27-.91,1.23-2.64,1.52-3.9.64-1.32-.75-1.78-2.43-1.02-3.75.04-.08.09-.15.14-.22,3.1-4.9,6.22-9.79,9.48-14.58.87-1.08,1.93-1.98,3.14-2.66,6.62-4.34,13.27-8.61,19.91-12.92.66-.39,1.2-.93,1.59-1.59-3.77.22-7.55.44-11.32.67-2.44.15-4.87.4-7.31.46-4.47.09-8.78-1.71-11.86-4.95-4.3-4.17-8.84-8.11-12.55-11.49.43,2.08,1.14,5.49,1.86,8.9.92,4.38,1.87,8.76,2.79,13.14.82,3.1-.45,6.38-3.15,8.11-5.07,3.68-10.51,4.29-16.68,3.32l-20.07-8.64c-18.13-6.2-36.33-3.57-54.56,1.7.97,1.64,1.85,3.34,2.63,5.09l3.04,7.44c4.45,14.88,3.29,29.19-3.66,43.45,5.42,1,10.49,2.25,15.63,2.82,16.76,2.03,33.73-1.26,48.52-9.41,7.8-4.32,14.95-9.73,21.22-16.07.93-.93,1.86-1.88,2.88-2.71,1.12-1.11,2.91-1.1,4.02.02.02.02.05.05.07.07,1.12,1.14,1.11,2.96-.03,4.08l-.02.02c-1.82,1.91-3.76,3.7-5.66,5.53-.66.63-1.33,1.24-2.3,2.12,2,1.6,3.79,3.13,5.67,4.52,4.01,2.96,3.93,6.96-.26,9.53-8.2,5.03-16.61,5.29-25.27,1.22-.96-.45-2.05-.53-3.06-.21-11.44,5.12-23.81,7.79-36.34,7.86-11.8-.08-23.47-2.39-34.41-6.81Zm78.78-5.2c5.51,2.09,11.68,1.52,16.71-1.56-2.23-1.95-4.29-3.76-6.35-5.58-3.43,2.37-6.8,4.69-10.36,7.14h0Zm-78.81-51.21c-2.28.62-4.53,1.41-6.75,2.22-8.11,2.95-16.18,6.03-23.55,10.62-2.73,1.69-4,4.99-3.13,8.08.79,3.23,3.17,4.88,5.92,6.19,1.92.91,3.57,2.01,3.68,4.44.12,2.46-1.43,3.67-3.35,4.65-.09.04-.13.19-.23.36,9.79,6.17,20.35,10.72,31,14.89.24-.17.4-.23.44-.33,8.42-17.23,7.7-34.07-2.15-50.53-.41-.42-.97-.64-1.55-.62-.12,0-.23.01-.34.04h0Zm54.28-24.3c-1.32-.02-2.63.04-3.94.17-9.8,1.16-18.64,4.89-26.96,10.02-1.21.75-2.35,1.62-3.52,2.43,9.74-1.82,19.7-2.18,29.55-1.07.53-.04,1.01-.32,1.3-.77,1.61-2.94,3.12-5.94,4.68-8.9.68-1.28.27-1.88-1.07-1.88h-.03Zm-32.07,70.07c-1.64-1.21-2.02-2.82-1.04-4.27.92-1.38,2.47-1.75,4.17-.71,2.62,1.61,5.25,2.05,8.02.54,3.14-1.73,4.47-5.54,3.11-8.85-1.33-3.23-4.8-5.03-8.21-4.24-.58.13-1.14.34-1.72.45-1.77.33-3.25-.42-3.62-1.92-.51-1.5.29-3.13,1.79-3.64.02,0,.04-.01.07-.02,4.33-1.93,9.37-1.26,13.05,1.72,4.54,3.39,6.32,9.35,4.38,14.67-1.81,5.22-6.81,8.71-13.06,8.7h-.1c-2.48-.09-4.87-.94-6.84-2.44h0Zm-32.63-27.44c0-1.54,1.26-2.79,2.79-2.78.04,0,.09,0,.13,0,1.57-.02,2.87,1.24,2.89,2.82v.03c-.01,1.58-1.28,2.87-2.87,2.91h-.06c-1.57.03-2.86-1.21-2.89-2.78,0-.06,0-.12,0-.19h0Zm5.92-42.86c-4.84-4.96-9.69-9.9-14.45-14.95-2.29-2.54-5.67-3.79-9.06-3.37-6.57.54-13.16.9-19.74,1.31-3.12.19-5.08-1.39-6.18-4.2v-2.38c1.32-1.41,2.43-3.12,3.98-4.17,6.72-4.54,13.52-8.94,20.4-13.23,2.78-1.74,5.08-4.15,6.7-7,9.84-16.47,22.71-30.05,39.37-39.75,4.58-2.66,9.61-4.57,14.45-6.8.71-.33,1.45-.57,2.53-.98-1.99-2.89-3.95-5.59-5.75-8.4-2.06-3.05-1.26-7.19,1.79-9.25.44-.3.92-.54,1.42-.73,1.14-.33,2.29-.58,3.47-.74.64-.13,1.27-.27,1.9-.4h9.11c4.1.91,8.27,1.57,12.27,2.79,8.15,2.58,15.55,7.11,21.55,13.19,1.06,1.03,2.37,1.78,3.79,2.19,16.04,4.21,30.62,12.74,42.13,24.68,5.28,5.47,5.31,11.32.33,17.09-.81.94-1.61,1.89-2.48,2.92.56.49,1.05.93,1.55,1.34,3.3,2.73,3.22,6.35-.47,8.6-3.1,1.88-6.32,3.54-9.65,4.96-10.86,4.67-22.2,7.91-33.64,10.8-2.05.52-3.69-.38-4.07-2.08-.38-1.72.61-3.13,2.71-3.69,2.6-.7,5.22-1.34,8.1-2.08-7.35-12.07-10.02-26.43-7.49-40.34l1.22-5.65c1.29-3.23,2.56-6.39,3.82-9.55-27.87-8.92-62.38-3.19-88.54,26.31-3.38,3.63-13.27,17.42-13.27,17.42-.89.87-1.62,1.89-2.16,3.02-1.31,2.38-3.21,4.37-5.52,5.8-7.11,4.53-14.16,9.16-21.58,13.98,1.71,0,3.03.07,4.34,0,4.81-.29,9.61-.68,14.42-.93,4.62-.31,9.13,1.51,12.24,4.94,3.74,3.91,7.53,7.77,11.27,11.69.4.53.74,1.1,1.02,1.7.21-.17.41-.34.62-.52-1.38-6.56-2.77-13.13-4.16-19.69-.08-.39-.16-.78-.23-1.17-1.55-7.65.56-11.21,8.11-13.6,5.48-1.78,11.46-1.12,16.42,1.8,7.23,4.1,15.08,7.01,23.25,8.6,7.06,1.39,14.29,1.78,21.46,1.15.98-.11,1.97-.17,2.96-.17,1.55-.16,2.94.98,3.09,2.53,0,.04,0,.08,0,.12.16,1.59-1,3.02-2.59,3.18-.07,0-.15.01-.22.01-2.35.37-4.72.53-7.09.48-6.5-.4-13-.94-19.47-1.68-1.52-.27-3.09.09-4.34,1-7,5.12-16.08,6.45-24.26,3.55-4.23-1.39-5.06-5.24-1.95-8.47,1.68-1.74,3.26-3.58,4.92-5.4-3.36-2.39-8.99-2.19-12.73,0-1.91,1.12-2.57,2.28-2.05,4.59,1.91,8.28,3.59,16.62,5.32,24.94.57,2.76-.39,4.91-2.58,6.03-.69.36-1.46.55-2.24.56-1.55-.05-3.01-.74-4.04-1.91h0Zm18.94-25.53c5.06,1.34,10.44.69,15.04-1.82-3.64-1.43-7.09-2.79-10.49-4.12-1.55,2.03-3.01,3.91-4.56,5.95h0Zm75.93-61.27c-7.31,15.41-7.17,30.75.41,46.03,2.42,4.85,2.51,4.85,7.7,3.12,7.5-2.31,14.75-5.35,21.64-9.09-.42-.36-.67-.57-.91-.78-3.02-2.59-3.25-5.56-.67-8.6.85-1,1.72-1.99,2.59-2.99,2.82-3.26,2.74-5.94-.25-9.04-5-5.26-10.71-9.8-16.96-13.49-4.12-2.39-8.46-4.4-12.74-6.61-.43.77-.64,1.11-.81,1.45h0Zm-56.08-21.85c-1.92.24-2.11.75-.99,2.41,1.72,2.57,3.48,5.12,5.08,7.77.41.99,1.53,1.48,2.53,1.1,6.81-1.6,13.79-2.36,20.78-2.24,2.56.04,5.13.23,7.7.35-.02-.15.03-.32-.04-.37-.35-.29-.72-.57-1.1-.83-8.02-5.62-17.58-8.62-27.37-8.59-2.21,0-4.41.14-6.6.41h0Zm18.6,63.65c-1.84-2.3-2.81-5.18-2.74-8.12-.04-7.18,5.75-13.03,12.93-13.07,1.54,0,3.07.26,4.51.78,1.89.68,2.79,2.14,2.32,3.77-.46,1.6-2,2.21-4,1.95-1.71-.36-3.48-.36-5.2-.03-3.91,1.16-5.73,5.75-4.07,9.5,1.64,3.61,5.9,5.21,9.51,3.56.11-.05.21-.1.32-.15.58-.31,1.12-.7,1.71-.99,1.32-.84,3.06-.45,3.9.86.02.03.04.06.06.09.9,1.57.44,2.9-.87,4.02-2.21,1.84-5.01,2.83-7.89,2.79-4.07.03-7.93-1.8-10.48-4.96h0Zm-126.57-11.6c0-9.04,7.33-16.37,16.37-16.37,9.04,0,16.37,7.33,16.37,16.37,0,9.04-7.33,16.37-16.37,16.37h0c-9.03-.01-16.35-7.33-16.37-16.36h0Zm6.26,0c0,5.59,4.53,10.11,10.12,10.11s10.11-4.53,10.11-10.12-4.53-10.11-10.12-10.11c-5.58,0-10.11,4.54-10.11,10.12h0Zm233.58-5.85c0-9.04,7.33-16.38,16.37-16.38s16.38,7.33,16.38,16.37-7.33,16.38-16.37,16.38h0c-9.03-.01-16.35-7.33-16.37-16.36h0Zm6.26,0c0,5.59,4.53,10.11,10.12,10.11s10.11-4.53,10.11-10.12-4.53-10.11-10.12-10.11c-5.59,0-10.11,4.54-10.11,10.12h0Zm-70.06-1.54c-1.59.01-2.89-1.27-2.9-2.86h0c.02-1.68,1.38-3.01,3.04-3,1.58.1,2.81,1.43,2.78,3.02-.02,1.59-1.31,2.86-2.9,2.84h-.01Zm24.78-39.2c0-11.93,9.67-21.61,21.6-21.61,11.93,0,21.61,9.67,21.61,21.6,0,11.93-9.67,21.61-21.6,21.61h0c-11.92-.01-21.58-9.67-21.6-21.59h0Zm6.26,0c0,8.48,6.87,15.35,15.35,15.35,8.48,0,15.35-6.87,15.35-15.35,0-8.48-6.87-15.35-15.35-15.35h0c-8.47.01-15.34,6.88-15.34,15.36h0Z" fill="#fff"/>
      <rect id="_사각형_325" data-name="사각형 325" width="312" height="312" fill="none"/>
    </g>
  </g>
</svg>