<?xml version="1.0" encoding="UTF-8"?>
<svg id="Layer_2" data-name="Layer 2" xmlns="http://www.w3.org/2000/svg" viewBox="0 0 140 140">
  <g id="Logo">
    <g id="symbol_04_01_0002_01" data-name="symbol 04 01 0002 01">
      <path id="_합치기_9" data-name="합치기 9" d="m28.12,123.18C-1.37,100.18-6.68,57.66,16.25,28.12,39.24-1.37,81.76-6.68,111.3,16.25c29.49,22.99,34.8,65.52,11.88,95.06-12.85,16.52-32.62,26.16-53.54,26.12-15.04.02-29.66-5-41.52-14.25ZM16.9,28.62C-5.75,57.81-.51,99.82,28.62,122.53c29.18,22.65,71.19,17.4,93.91-11.73,22.65-29.18,17.4-71.2-11.73-93.91-11.72-9.14-26.15-14.09-41.01-14.07-20.67-.04-40.2,9.49-52.89,25.81h0Zm14.86,89.88C4.85,97.52,0,58.72,20.92,31.76,41.9,4.85,80.71,0,107.67,20.92c26.91,20.98,31.76,59.79,10.84,86.75-11.72,15.07-29.76,23.87-48.86,23.83-13.73.01-27.07-4.56-37.89-13h0Zm-8.89-85.23c-20.09,25.89-15.44,63.15,10.4,83.3,25.88,20.09,63.15,15.44,83.3-10.4,20.09-25.89,15.44-63.15-10.4-83.3-10.39-8.1-23.2-12.5-36.38-12.48-18.34-.04-35.66,8.41-46.93,22.88Zm59.4,74.55l9.18,7.14-2.97,3.83c-5.57,2.12-11.46,3.28-17.41,3.43l11.21-14.4Zm-27.4,12.27l3.3-4.25,8.07,6.28c-3.86-.26-7.67-.94-11.37-2.04Zm4.81-6.19l11.47-14.74,9.18,7.15-11.47,14.74-9.18-7.14Zm-18.02.21l5.38-6.92,9.18,7.14-3.85,4.96c-3.76-1.31-7.35-3.05-10.71-5.18Zm53.24.41l11.47-14.74,4.03,3.13c-4.05,4.97-8.97,9.16-14.53,12.35l-.96-.75Zm-11.12-8.65l11.47-14.74,9.18,7.15-11.47,14.74-9.18-7.14Zm-46.31,5.3c-22.89-17.81-27.02-50.81-9.21-73.71,17.81-22.9,50.81-27.02,73.7-9.21,0,0,0,0,0,0,.71.55,1.39,1.11,2.06,1.68l-5.5,7.07-1.51,1.94-11.47,14.74-1.51,1.94-11.47,14.74-1.51,1.94-11.47,14.74-1.51,1.94-11.47,14.74-1.51,1.94-5.5,7.07c-.71-.51-1.43-1.04-2.13-1.58Zm11.09-5.92l11.47-14.74,9.18,7.15-11.47,14.74-9.18-7.14Zm24.1-8.03l11.46-14.74,9.18,7.15-11.47,14.74-9.18-7.14Zm35.22.62l11.47-14.74.96.75c-1.73,6.17-4.57,11.98-8.4,17.13l-4.03-3.13Zm-11.12-8.65l11.47-14.74,9.18,7.15-11.47,14.74-9.18-7.14Zm-35.22-.62l11.47-14.74,9.18,7.14-11.47,14.74-9.18-7.14Zm24.1-8.03l11.47-14.74,9.18,7.14-11.47,14.74-9.18-7.14Zm24.1-8.03l11.21-14.4c1.31,5.81,1.63,11.8.95,17.72l-2.98,3.83-9.18-7.14Zm-35.22-.62l11.47-14.74,9.18,7.14-11.47,14.74-9.18-7.15Zm24.1-8.03l11.47-14.74,9.18,7.14-11.47,14.74-9.18-7.14Zm-11.12-8.66l11.47-14.74,9.18,7.14-11.47,14.74-9.18-7.14Zm24.1-8.03l3.3-4.25c1.97,3.32,3.57,6.85,4.77,10.53l-8.07-6.28Zm-11.12-8.65l5.38-6.92c2.89,2.74,5.46,5.79,7.65,9.11l-3.86,4.95-9.18-7.14Z" fill="#fff"/>
      <rect id="_사각형_211" data-name="사각형 211" width="140" height="140" fill="none"/>
    </g>
  </g>
</svg>