<?xml version="1.0" encoding="UTF-8"?>
<svg id="_레이어_2" data-name="레이어 2" xmlns="http://www.w3.org/2000/svg" viewBox="0 0 112 112">
  <g id="Logo">
    <g id="_그룹_216" data-name="그룹 216">
      <path id="_패스_626" data-name="패스 626" d="M57.28,54.5c8.55,0,17.1-.02,25.65,.02,1.64,0,3.66-.46,3.78,1.96,.1,1.99,0,3.48-3,3.91-3.8,.53-7.5,1.63-10.97,3.26-7.52,3.56-9.31,7.61-6.42,14.57,3.64,8.79,2.28,15.41-3.91,19.96-3.49,2.57-6.65,2.69-10.26,.07-5.66-4.1-8.05-10.15-4.88-17.43,5.67-13.03-2.2-16.72-12.54-19.62-1.47-.46-2.98-.79-4.51-.98-2.55-.23-2.35-1.74-2.43-3.29-.11-2.13,1.26-2.45,3.29-2.44,8.74,.05,17.49,.02,26.23,.02h0Zm4.85,34.52c-.01-2.44-2-4.41-4.44-4.4-.07,0-.14,0-.21,0-3.18-.09-5.12,1.58-5.04,4.4,.08,2.55,1.92,4.12,4.83,4.05,2.82-.06,4.64-1.5,4.86-4.05h0Z" fill="#fff"/>
      <path id="_패스_627" data-name="패스 627" d="M86.82,24.8c.05-2.32-1-3.72-2.97-5.07-13.74-9.38-39.08-9.41-53.1-.06-1.99,1.33-3.12,2.67-3.08,5.01,.16,7.75,.26,15.52-.02,23.27-.12,3.32,1.39,3.9,4.76,3.83,8.15-.18,16.32-.06,24.48-.06,8.55,0,17.1-.12,25.64,.07,3.34,.07,4.36-.84,4.29-3.71-.19-7.75-.17-15.51,0-23.27Zm-45.99,23.24h-6.33c-1.03,0-1.87-.84-1.87-1.87V24.1c0-1.03,.84-1.87,1.87-1.87h3.92v13.4c0,1.03,.84,1.87,1.87,1.87h.55v10.55h0Zm8.2-1.87v1.87h-7.94v-1.87h0v-8.68h.29c1.03,0,1.87-.84,1.87-1.87v-13.4h3.22v13.4c0,1.03,.84,1.87,1.87,1.87h.7v8.68h0Zm8.2,0v1.87h-7.98v-1.87h0v-8.68h.17c1.03,0,1.87-.84,1.87-1.87v-13.4h3.74v13.4c0,1.03,.84,1.87,1.87,1.87h.33v8.68h0Zm8.2,0v1.87h-7.98v-10.55h.55c1.03,0,1.87-.84,1.87-1.87v-13.4h3.15v13.4c0,1.03,.84,1.87,1.87,1.87h.55v8.68h0Zm8.2,0v1.87h-7.95v-10.55h.29c1.03,0,1.87-.84,1.87-1.87v-13.4h3.63v13.4c0,1.03,.84,1.87,1.87,1.87h.29v8.68h0Zm8.2,0c0,1.03-.84,1.87-1.87,1.87h-6.08v-10.55h.55c1.03,0,1.87-.84,1.87-1.87v-13.4h3.66c1.03,0,1.87,.84,1.87,1.87h0v22.08Z" fill="#fff"/>
      <path id="_패스_628" data-name="패스 628" d="M92.31,14.8c16,13.77,22.39,37.13,15.95,57.24-11.86,37.56-58.59,50.62-88.19,24.49C3.38,82.04-2.92,57.15,5.11,36.57,18.3,.81,63.99-10.48,92.31,14.8Zm-.24,.28C76.61,1.12,52.78-2.07,34.18,7.27,.69,23.65-5.48,69.12,22.51,93.76c27.9,24.75,72.26,13.05,84.41-22.19,6.99-19.61,.9-42.87-14.85-56.5h0Z" fill="#fff"/>
      <rect id="_사각형_218" data-name="사각형 218" width="112" height="112" fill="none"/>
    </g>
  </g>
</svg>