<?xml version="1.0" encoding="UTF-8"?>
<svg id="_레이어_2" data-name="레이어 2" xmlns="http://www.w3.org/2000/svg" viewBox="0 0 247 231">
  <g id="Logo">
    <g id="symbol_14_01_0007_01" data-name="symbol 14 01 0007 01">
      <path id="_패스_1122" data-name="패스 1122" d="m126.96,8.35c18.47,0,36.93,0,55.39,0,13.5.03,22.62,8.16,22.78,20.33.1,7.44.05,14.88.01,22.32-.06,11.71-6.76,19.03-19.54,21.06-3.17.5-2.22,1.47-1.08,2.92,10.34,12.89,16.98,28.35,19.21,44.73,4.53,33.83-3.59,64.31-31.8,88.61-25.67,22.12-63.91,21.92-89.93.09-19.82-16.63-29.49-37.58-32.35-61.4-2.71-22.56,1.91-43.85,14.01-63.79,1.86-2.94,3.88-5.79,6.03-8.53,1.24-1.64,1.18-2.21-1.26-2.62-12.91-2.18-19.54-9.35-19.61-21.02-.04-7.44-.08-14.88.01-22.32.15-12.19,9.25-20.35,22.73-20.38,18.46-.04,36.93,0,55.39,0m62.79,127.2c.12-4.64-.22-9.29-1.03-13.86-2.87-17.17-9.61-32.76-22.89-45.75-2.55-2.65-6.12-4.06-9.79-3.86-18.62.2-37.24.29-55.86-.03-5.89-.1-10.3,1.27-13.68,5.52-1,1.25-2.23,2.36-3.25,3.59-10.23,12.25-16.6,27.26-18.28,43.13-2.9,24.74,2.81,47.56,20.08,67.35,23.03,26.39,61.36,26.13,84.25-.36,14.14-16.37,20.13-35.24,20.45-55.72m-62.96-76.64c17.83,0,35.65,0,53.48-.01,7.32-.02,9.42-1.96,9.45-8.58.03-7.01.05-14.03-.02-21.04-.05-5.32-2.33-7.62-8.11-7.63-36.43-.07-72.87-.07-109.31,0-5.58.01-7.95,2.3-8.01,7.28-.09,7.01-.05,14.03-.03,21.04.02,7.13,2.01,8.92,10,8.93,17.51.02,35.03.03,52.54,0" fill="#fff"/>
      <path id="_패스_1123" data-name="패스 1123" d="m126.89,46.88c-5.78,0-11.56-.1-17.33.04-3.28.08-4.29-1.21-4.42-4-.42-9.28-.51-9.28,9.75-9.28,9.68,0,19.37.11,29.04-.05,3.72-.06,4.92,1.25,4.89,4.44-.1,10.48.42,8.71-9.75,8.85-4.06.06-8.12,0-12.18,0" fill="#fff"/>
      <path id="_패스_1124" data-name="패스 1124" d="m152.12,109.39c-4.6-5.44-9.52-10.6-14.74-15.45-5-4.67-9.06-8.11-9.07-8.12l-.06-.05-.04.03c-12.81,8.2-23.32,17.73-28.34,23.64-7.93,9.33-19.52,30.07-12.45,51.77,1.08,3.33,6.4,19.67,23.3,27.59,6.16,3.05,13.02,4.42,19.88,3.98,14.21-1.08,22.83-10.18,24.87-12.33,4.36-5.51,11.17-15.99,11.93-30.07,1.13-20.83-11.67-36.55-15.28-40.99m-54.3,35.71c.42-12.15,4.78-22.77,14.86-31.14,2.65-2.27,5.78-3.91,9.15-4.8-8.03,6.78-13.5,20.25-13.5,35.77s5.66,29.44,13.91,36.11c-3.63-.89-6.99-2.63-9.8-5.09-9.9-8.35-14.19-18.87-14.62-30.85" fill="#fff"/>
      <path id="_패스_1125" data-name="패스 1125" d="m222.7,179.3h0c-5.85-.01-10.67-4.6-10.98-10.44v-.04s-.01-.53-.01-.53c0-6.07,4.93-10.99,11-10.99h0c6.07.17,10.85,5.24,10.68,11.31-.17,5.83-4.85,10.51-10.68,10.68m-5.6-11.1v.11c0,3.08,2.5,5.58,5.58,5.59h0c3.08-.04,5.55-2.57,5.51-5.66-.04-3.03-2.48-5.47-5.51-5.51h0c-3.04,0-5.52,2.43-5.58,5.47" fill="#fff"/>
      <path id="_패스_1126" data-name="패스 1126" d="m33.11,103.9h0c-5.2-.01-9.49-4.07-9.79-9.26v-.03s-.01-.51-.01-.51c0-5.41,4.39-9.8,9.81-9.81h0c5.42.05,9.76,4.49,9.71,9.91-.05,5.34-4.37,9.65-9.71,9.71m-4.98-9.9v.1c0,2.75,2.23,4.98,4.98,4.98h0c2.75-.04,4.95-2.3,4.91-5.05-.04-2.7-2.21-4.87-4.91-4.91h0c-2.71,0-4.92,2.17-4.98,4.88" fill="#fff"/>
      <path id="_패스_1127" data-name="패스 1127" d="m211.7,214.05h0c-8.4-.02-15.31-6.62-15.73-15.01l-.02-.04v-.71c.01-8.69,7.06-15.74,15.75-15.75h0c8.7,0,15.75,7.05,15.75,15.75s-7.05,15.75-15.75,15.75m-9.74-15.93v.18c.01,5.37,4.37,9.73,9.74,9.74h0c5.38,0,9.74-4.37,9.73-9.75,0-5.37-4.36-9.73-9.73-9.73h0c-5.31,0-9.64,4.26-9.74,9.57" fill="#fff"/>
      <path id="_패스_1128" data-name="패스 1128" d="m26.36,137.26h0c-7.42-.02-13.56-5.79-14.02-13.2l-.03-.04v-.82c.01-7.76,6.3-14.04,14.05-14.05h0c7.76,0,14.05,6.29,14.05,14.05s-6.29,14.05-14.05,14.05m-8.69-14.23v.18c.01,4.79,3.89,8.68,8.69,8.69h0c4.8,0,8.69-3.89,8.69-8.69s-3.89-8.69-8.69-8.69h0c-4.73,0-8.58,3.78-8.69,8.51" fill="#fff"/>
      <rect id="_사각형_506" data-name="사각형 506" width="247" height="231" fill="none"/>
    </g>
  </g>
</svg>