<?xml version="1.0" encoding="UTF-8"?>
<svg id="_레이어_2" data-name="레이어 2" xmlns="http://www.w3.org/2000/svg" viewBox="0 0 201 154">
  <g id="Logo">
    <g id="symbol_20_01_0002_01" data-name="symbol 20 01 0002 01">
      <rect id="_사각형_231" data-name="사각형 231" width="201" height="154" fill="none"/>
      <path id="_패스_650" data-name="패스 650" d="M167.67,31.53c-4.63-1.49-9.48-2.15-14.34-1.95h0s-12.73-.11-12.73-.11C133.09,11.68,114.75,.98,95.57,3.2c-15.45,1.98-28.71,11.97-34.89,26.27l-12.42,.1C20.62,28.07-1.89,52.95,2.85,80.47c3.25,18.89,20.94,34.54,40.11,35.57,.47,.02,7.84-.24,7.84-.24,0,0-1.27,5.85-1.85,10.79-.63,5.41,.02,10.48,.04,20.64,0,.95,.09,1.89,.14,2.82h18.54v-3.95c0-2.86-.09-5.73,.07-8.58,0-2.14,1.73-3.88,3.87-3.89,.03,0,.07,0,.1,0,2.17,0,3.92,1.76,3.94,3.92,.09,1.07,.04,2.14,.04,3.22v9.3h19.55c0-1.41-.02-2.65,0-3.89,.04-3.04-.03-6.08,.2-9.1,.02-1.93,1.61-3.48,3.54-3.45,.16,0,.32,.01,.48,.04,1.98-.04,3.62,1.53,3.66,3.51,0,.01,0,.02,0,.04,.12,1.15,.1,2.32,.11,3.48,.01,3.1,0,6.21,0,9.33h19.63c0-4.15-.05-8.08,.02-12,.04-2.65,1.49-4.26,3.73-4.38,2.37-.12,4.01,1.48,4.23,4.21,.09,1.15,.03,2.32,.03,3.48v8.82h20.24c.13-15.48,.19-23.74,.19-23.74l-1.24-10.23s12.47-.96,16.85-1.75c14.35-2.6,30.98-19.48,31.59-39.42,.78-19.8-11.87-37.65-30.82-43.48Z" fill="#fff"/>
    </g>
  </g>
</svg>