<?xml version="1.0" encoding="UTF-8"?>
<svg id="_레이어_2" data-name="레이어 2" xmlns="http://www.w3.org/2000/svg" viewBox="0 0 122 122">
  <g id="Logo">
    <g id="symbol_11_03_0002_01" data-name="symbol 11 03 0002 01">
      <rect id="_사각형_185" data-name="사각형 185" width="122" height="122" fill="none"/>
      <path id="_패스_516" data-name="패스 516" d="M112.52,43.35c-3.33,8.1-9.5,13.85-17.85,17.75-5.74,2.68-11.06,5.74-13.83,11.85-.53,1.18-1.18,.81-1.68-.09-1.34-2.39-.97-4.73,.23-7.04,2.43-4.66,6.19-8.17,10.17-11.44,1.36-1.12,1.13-1.45-.35-2.03-11.38-4.45-24.83-2.13-31.92,5.58-2.88,3.14-4.62,6.98-6.54,10.71-.47,.89-1.06,1.73-1.74,2.48-.6,.68-1.34,1.32-2.25,.83-.79-.42-.72-1.3-.55-2.14,.79-4.05,1.99-8,3.6-11.8,5.52-12.79,16.2-17.79,29.16-19.41,9.38-1.17,18.31-3.6,26.02-9.35C87.35,5.58,53.86,.7,30.2,18.35,10.75,32.86,3.51,58.65,12.58,81.16c3.23-6.09,8.59-11.43,16.55-15.15,3.15-1.29,6.1-3.02,8.77-5.13,2.09-1.8,3.79-4.01,4.98-6.51,.59-1.23,1.11-1.12,1.74-.05,1.01,1.8,1.09,3.98,.21,5.85-1.38,3.29-3.49,6.21-6.17,8.56-1.61,1.52-3,3.27-4.93,4.49-1.43,.91-.01,1.2,.59,1.42,8.12,3,16.23,3.25,24.36-.04,6.09-2.46,9.86-7.14,12.66-12.82,.81-2.02,1.91-3.91,3.27-5.61,.62-.67,1.33-1.62,2.37-1.14,1.09,.51,.68,1.64,.51,2.53-3.46,17.6-12.19,27.7-30.28,30.49-6.66,1.03-13.32,1.94-19.58,4.65-2.12,.91-4.17,1.97-6.14,3.17,19.18,22.44,52.92,25.07,75.35,5.89,16.8-14.36,23.02-37.58,15.67-58.42h0Z" fill="#fff"/>
      <path id="_패스_517" data-name="패스 517" d="M121.11,61.17c.29,23.43-14.61,45.91-36.2,54.99C45.54,133.07,1.43,104.09,1.43,61.17S45.54-10.74,84.92,6.17c21.59,9.09,36.48,31.57,36.19,55h0Zm0,0c.24-23.29-14.87-45.64-36.61-53.98C55.11-4.69,21.02,9.9,9.2,39.24c-19.02,47.52,27.56,94.57,75.3,75.92,21.74-8.35,36.85-30.69,36.61-53.99h0Z" fill="#fff"/>
    </g>
  </g>
</svg>