<?xml version="1.0" encoding="UTF-8"?>
<svg id="Layer_2" data-name="Layer 2" xmlns="http://www.w3.org/2000/svg" viewBox="0 0 147 90">
  <g id="Logo">
    <g id="symbol_03_19_0002_01" data-name="symbol 03 19 0002 01">
      <path id="_패스_840" data-name="패스 840" d="m72.17,16.15c3.93-2.94,8.65-4.63,13.55-4.85,26.35-1.38,37.47,24.18,50.33,53.78l4.59-1.99c-13.04-30-25.36-58.34-55.18-56.77-6.36.26-12.47,2.57-17.42,6.58-5.95-4.38-13.12-6.78-20.51-6.89C8.15,5.7,6.07,69.96,6,72.69c-.02.67.23,1.32.7,1.8.08.08.16.16.25.22.44.34.97.53,1.53.54l41.1.31c1.38.01,2.51-1.1,2.52-2.48,0,0,0,0,0-.01,0-.47.39-36.85,16.28-53.57,15.6,13.23,26.96,39.75,37.33,63.96l4.6-1.97c-10.48-24.46-21.93-51.18-38.15-65.35" fill="#fff"/>
      <rect id="_사각형_165" data-name="사각형 165" width="147" height="90" fill="none"/>
    </g>
  </g>
</svg>