<?xml version="1.0" encoding="UTF-8"?>
<svg id="Layer_2" data-name="Layer 2" xmlns="http://www.w3.org/2000/svg" viewBox="0 0 290 184">
  <g id="Logo">
    <g id="symbol_08_03_0003_01" data-name="symbol 08 03 0003 01">
      <path id="_패스_1150" data-name="패스 1150" d="m30.56,144.64c-6.6,0-11.95,5.35-11.95,11.95,0,6.6,5.35,11.95,11.95,11.95,6.6,0,11.95-5.35,11.95-11.95h0c0-6.6-5.35-11.95-11.95-11.95m0,19.04c-3.91,0-7.08-3.17-7.08-7.08s3.17-7.08,7.08-7.08,7.08,3.17,7.08,7.08h0c0,3.91-3.17,7.08-7.08,7.08" fill="#fff"/>
      <path id="_패스_1151" data-name="패스 1151" d="m259.44,144.64c-6.6,0-11.95,5.35-11.96,11.95,0,6.6,5.35,11.95,11.95,11.96,6.6,0,11.95-5.35,11.96-11.95h0c0-6.6-5.35-11.95-11.95-11.96m0,19.04c-3.91,0-7.08-3.17-7.08-7.08s3.17-7.08,7.08-7.08,7.08,3.17,7.08,7.08h0c0,3.91-3.17,7.08-7.08,7.08" fill="#fff"/>
      <path id="_패스_1152" data-name="패스 1152" d="m219.5,144.59c-8.48,0-15.35,6.87-15.35,15.35,0,8.48,6.87,15.35,15.35,15.35,8.48,0,15.35-6.87,15.35-15.35h0c0-8.48-6.87-15.35-15.35-15.35m0,24.7c-5.16,0-9.35-4.19-9.35-9.35,0-5.16,4.19-9.35,9.35-9.35,5.16,0,9.35,4.19,9.35,9.35h0c0,5.16-4.18,9.35-9.35,9.35h0" fill="#fff"/>
      <path id="_패스_1153" data-name="패스 1153" d="m70.5,144.59c-8.48,0-15.35,6.87-15.35,15.35s6.87,15.35,15.35,15.35,15.35-6.87,15.35-15.35h0c0-8.48-6.87-15.35-15.35-15.35m0,24.7c-5.16,0-9.35-4.19-9.35-9.35,0-5.16,4.19-9.35,9.35-9.35,5.16,0,9.35,4.19,9.35,9.35,0,5.16-4.18,9.35-9.35,9.35h0" fill="#fff"/>
      <path id="_패스_1155" data-name="패스 1155" d="m253.22,121.48c-1.15,0-2.08-.93-2.08-2.07h0c0-58.62-47.52-106.14-106.14-106.14S38.86,60.79,38.86,119.4c0,1.15-.93,2.07-2.07,2.07s-2.08-.93-2.08-2.07c.18-60.91,49.71-110.14,110.62-109.96,60.65.18,109.77,49.31,109.96,109.96,0,1.15-.93,2.07-2.08,2.07h0" fill="#fff"/>
      <rect id="_사각형_305" data-name="사각형 305" width="290" height="184" fill="none"/>
    </g>
  </g>
</svg>