<?xml version="1.0" encoding="UTF-8"?>
<svg id="Layer_2" data-name="Layer 2" xmlns="http://www.w3.org/2000/svg" viewBox="0 0 140 140">
  <g id="Logo">
    <g id="symbol_16_04_0003_01" data-name="symbol 16 04 0003 01">
      <path id="_패스_1460" data-name="패스 1460" d="m59.51,33.96c4.07-.48,7.39-3.48,8.29-7.48,1.1-3.72-.09-7.74-3.05-10.26-1.62-1.4-3.59-2.32-5.7-2.66h-2.29c-.25.07-.5.15-.75.21-2.86.5-5.35,2.23-6.82,4.73-2.23,3.39-2.14,7.8.24,11.09,2.12,3.42,6.13,5.17,10.08,4.37" fill="#fff"/>
      <path id="_패스_1461" data-name="패스 1461" d="m40.84,69.09v13.54c9.49.04,17.14,7.76,17.1,17.25-.04,9.49-7.76,17.14-17.25,17.1-.36,0-.71-.01-1.07-.04-4.44-.22-8.6-2.24-11.53-5.58-3.82-4.11-5.35-9.84-4.08-15.31-5.25-1.26-9.32-5.4-10.51-10.66-7.98,15.06-2.23,33.74,12.83,41.72,10.04,5.32,22.2,4.69,31.64-1.65,12.25-8.19,16.96-23.91,11.25-37.49-5.22-12.79-18.2-19.35-28.4-18.89" fill="#fff"/>
      <path id="_패스_1462" data-name="패스 1462" d="m20.16,79.72c0,1.03-.04,2.06.03,3.09.2,3.78,3.44,6.68,7.22,6.47,3.78-.2,6.68-3.44,6.47-7.22.02-7.29.01-14.57-.01-21.85-.08-.6.26-1.18.83-1.4,4.04-1.97,8.05-4,12.07-6.01.24-.12.51-.19.88-.33v10.02c4.88.94,9.53,2.83,13.69,5.54,0-9.13.02-17.98-.03-26.82-.04-1.03-.31-2.03-.79-2.94-1.87-3.69-5.72-4.81-9.63-2.86-8.8,4.38-17.57,8.81-26.38,13.16-2.82,1.21-4.56,4.06-4.37,7.12.05,8.01.01,16.02.02,24.03" fill="#fff"/>
      <path id="_패스_1463" data-name="패스 1463" d="m74.65,9.15c27.4,2.65,49.32,24.87,49.29,52.72.15,25.6-19.15,47.44-44.17,51.95-1.47.29-3.66.58-5.12.77,1.48.17,3.72.24,5.22.26,23.99-.06,45.24-18.64,49.82-42.04,7.14-33.84-20.05-66.97-55.04-63.67" fill="#fff"/>
      <path id="_패스_1464" data-name="패스 1464" d="m106.63,61.88c0-7.02-5.69-12.72-12.72-12.71s-12.72,5.69-12.71,12.72c0,7.02,5.69,12.71,12.72,12.71,7.02,0,12.72-5.69,12.72-12.72" fill="#fff"/>
      <rect id="_사각형_707" data-name="사각형 707" width="140" height="140" fill="none"/>
    </g>
  </g>
</svg>