<?xml version="1.0" encoding="UTF-8"?>
<svg id="Layer_2" data-name="Layer 2" xmlns="http://www.w3.org/2000/svg" viewBox="0 0 280 280">
  <g id="Logo">
    <g id="symbol_19_04_0003_01" data-name="symbol 19 04 0003 01">
      <path id="_패스_1526" data-name="패스 1526" d="m169.42,19.94c-50.94-11.98-93.83,3.56-127.26,43.75-16,19.23-24.38,41.9-26.43,66.87-.1.72-.24,1.42-.42,2.12v15.54c.62,4.47,1.08,8.97,1.88,13.41,5.6,31.24,20.97,56.72,45.75,76.43,19.24,15.44,42.75,24.63,67.36,26.35.55.09,1.09.22,1.62.39h15.55c4.55-.62,9.12-1.13,13.65-1.89,48.17-8.11,88.32-45.87,99.54-93.59,15.66-66.57-24.63-133.73-91.23-149.39m-55.63,211.3c-24.15-5.54-51.38-27.12-62.12-56.11,20.12-9.73,40.05-6.29,53.83,7.84s15.19,34.35,8.28,48.27m25.88-54.79c-16.81,0-30.44-13.63-30.44-30.44s13.63-30.44,30.44-30.44,30.44,13.63,30.44,30.44h0c0,16.81-13.63,30.44-30.44,30.44h0m25.91,54.89c-7.8-16.7-4.1-36.52,9.22-49.27,15.06-14.47,34.24-15.91,52.76-6.96-4.85,21.87-38.93,52.85-61.99,56.24m32.73-106.48c-12.7-1.36-23.38-7.61-32.27-16.83-7.01-7.52-16.94-11.63-27.21-11.25-9.61.07-18.76,4.08-25.33,11.1-8.72,9.29-20.32,15.35-32.91,17.22-3.45.49-6.92.74-10.4.75-7.92.11-15.85.03-23.79.03,4.01-35.35,36.18-77.33,88.56-79.99,52.59-2.67,92.05,36.69,98.24,80.39-11.82-.42-23.43-.19-34.89-1.42" fill="#fff"/>
      <path id="_패스_1527" data-name="패스 1527" d="m157.8,137.31h-9.43v-9.43c0-1.92-1.56-3.48-3.48-3.48h-10.45c-1.92,0-3.48,1.56-3.48,3.48h0v9.43h-9.43c-1.92,0-3.48,1.56-3.48,3.48h0v10.45c0,1.92,1.56,3.48,3.48,3.48h9.43v9.43c0,1.92,1.56,3.48,3.48,3.48h10.45c1.92,0,3.48-1.56,3.48-3.48v-9.43h9.43c1.92,0,3.48-1.56,3.48-3.48h0v-10.45c0-1.92-1.56-3.48-3.48-3.48h0" fill="#fff"/>
      <rect id="_사각형_757" data-name="사각형 757" width="280" height="280" fill="none"/>
    </g>
  </g>
</svg>