<?xml version="1.0" encoding="UTF-8"?>
<svg id="_레이어_2" data-name="레이어 2" xmlns="http://www.w3.org/2000/svg" viewBox="0 0 212 168">
  <g id="Logo">
    <g id="symbol_12_01_0005_02" data-name="symbol 12 01 0005 02">
      <rect id="_사각형_308" data-name="사각형 308" width="212" height="168" fill="none"/>
      <path id="_패스_873" data-name="패스 873" d="M207.43,8.21c.03,.65,.1,1.3,.1,1.94,0,51.48,0,102.95,0,154.43h-57.86c.1-20.3,4.26-39.6,18.76-56.34l.22-13.7c-5.56-8.78-9.04-18.21-11.8-27.85-3.64-13.19-5.88-26.73-6.66-40.4-.57-6.01-.71-12.06-.4-18.09h57.64Z" fill="#fff"/>
      <path id="_패스_874" data-name="패스 874" d="M6.73,164.58c0-51.48,0-102.95,0-154.43,0-.65,.06-1.3,.1-1.94h57.64c.05,.71,.15,1.42,.15,2.13,0,9.63-.6,19.24-1.79,28.79-1.42,12.61-4.26,25.02-8.45,36.99-2.24,6.47-5.19,12.66-8.8,18.47v13.61c2.39,2.48,4.53,5.19,6.4,8.08,9.51,15.07,12.63,31.38,12.61,48.3H6.73Z" fill="#fff"/>
    </g>
  </g>
</svg>