<?xml version="1.0" encoding="UTF-8"?>
<svg id="_레이어_2" data-name="레이어 2" xmlns="http://www.w3.org/2000/svg" viewBox="0 0 209 214">
  <g id="Logo">
    <g id="symbol_18_01_0001_01" data-name="symbol 18 01 0001 01">
      <rect id="_사각형_148" data-name="사각형 148" width="209" height="214" fill="none"/>
      <path id="_패스_421" data-name="패스 421" d="M154.86,210.43l-.02,2.19c15.62,0,31.24,.23,46.84-.3,1.85-.06,4.87-4.16,5.1-6.61,.69-7.36,.28-14.83,.28-22.26,.01-56.73,.03-113.46,.06-170.19,0-5.63,.45-11.24-7.49-11.21-8.81,.03-17.63-.15-26.44-.1-53.55,.26-107.09,.79-160.64,.6-8.21-.03-10.09,2.57-10.06,10.3,.19,58.42,.07,116.83,.08,175.25,0,2.45,.39,4.9,.6,7.35l2.17-.07V6.1H203.24c.44,1.16,.76,2.37,.95,3.6,.04,64.16,.07,128.32,.11,192.47,.02,7.19-3.77,8.33-9.4,8.29-13.35-.1-26.7-.03-40.04-.03Z" fill="#fff"/>
      <path id="_패스_422" data-name="패스 422" d="M143.76,194.46c-16.44-13.36-115.13-12.66-125.8,.89,21.29,11.95,111.24,11.32,125.8-.89Z" fill="#fff"/>
      <path id="_패스_423" data-name="패스 423" d="M155.2,17.25c-42.58,0-86.13,.05-129.68-.06-4.97-.01-7.46,1.5-7.45,7.55,.01,4.82,.02,9.63,.03,14.45-.05-.11-.1-.21-.15-.31V168.09c.06-.08,.13-.15,.19-.23v.04L155.2,17.25Z" fill="#fff"/>
      <path id="_패스_424" data-name="패스 424" d="M152.4,200.32h29.5c6.03,0,10.93-4.89,10.93-10.92h0V50.93l-40.43,149.39Z" fill="#fff"/>
    </g>
  </g>
</svg>