<?xml version="1.0" encoding="UTF-8"?>
<svg id="_레이어_2" data-name="레이어 2" xmlns="http://www.w3.org/2000/svg" viewBox="0 0 76 124">
  <g id="Logo">
    <g id="symbol_20_03_0002_01" data-name="symbol 20 03 0002 01">
      <rect id="_사각형_248" data-name="사각형 248" width="76" height="124" fill="none"/>
      <path id="_패스_662" data-name="패스 662" d="M37.45,93.57c-3.74,0-7.49-.06-11.23,.03-1.08,.2-2.12-.52-2.32-1.6-.02-.09-.03-.17-.03-.26-2.44-11.63-7.88-21.78-14.76-31.36C-7.34,37.46,5.59,6.39,33.45,2.36,51.58-.26,69.11,12.64,72.79,31.57c2.19,10.16-.25,20.77-6.68,28.94-7.14,9.14-12.13,19.76-14.61,31.09-.05,1.18-1.04,2.09-2.22,2.04-.1,0-.2-.02-.31-.04-3.84-.1-7.68-.03-11.52-.03Z" fill="#fff"/>
      <path id="_패스_663" data-name="패스 663" d="M38,100.89c3.56,0,7.12,.04,10.68-.02,1.32-.02,1.95,.36,1.9,1.79-.11,2.78,.14,5.58-.37,8.35-1.26,6.74-7.74,11.17-14.48,9.91-5.03-.94-8.96-4.87-9.91-9.9-.55-3.23-1.48-7.08,.17-9.54,1.26-1.87,5.21-.39,7.96-.58,1.34-.09,2.69-.01,4.04-.01Z" fill="#fff"/>
    </g>
  </g>
</svg>