<?xml version="1.0" encoding="UTF-8"?>
<svg id="Layer_2" data-name="Layer 2" xmlns="http://www.w3.org/2000/svg" viewBox="0 0 88 140">
  <g id="Logo">
    <g id="symbol_02_04_0003_01" data-name="symbol 02 04 0003 01">
      <path id="_패스_1369" data-name="패스 1369" d="m41.12,15.88c-1.57,0-2.97,0-4.38,0-1.83-.01-3.02-1.05-3.01-2.6,0-1.52,1.13-2.54,2.92-2.55,11.09-.04,22.18-.07,33.27-.09,2.51,0,5.02.04,7.53.08,1.76.03,2.91,1.06,2.9,2.57-.03,1.46-1.24,2.62-2.71,2.59-.07,0-.14,0-.2-.01-1.38.02-2.75.01-4.13.03-.07,0-.14.06-.36.16v42.45c0,.49.01.97-.03,1.45-.06,1.42-1.25,2.52-2.67,2.47-1.35-.05-2.43-1.14-2.47-2.5-.08-1.61-.03-3.23-.03-4.85v-8.17h-5.1c-.93,0-1.86.01-2.79,0-1.45.1-2.71-1-2.8-2.45,0-.04,0-.07,0-.11-.01-1.42,1.13-2.57,2.54-2.59.07,0,.15,0,.22,0,2.58-.03,5.17,0,7.85,0v-10.37h-5.87c-.69,0-1.38.02-2.06,0-1.44.03-2.64-1.11-2.67-2.55,0,0,0,0,0-.01-.01-1.4,1.11-2.55,2.51-2.56.05,0,.09,0,.14,0,2.62-.04,5.25-.01,7.96-.01v-10.29h-21.34v1.4c0,15.36-.07,30.71.03,46.07.13,7.16-2.2,14.16-6.6,19.81-8.6,11.33-17.03,22.79-25.56,34.18-1.02,1.13-1.39,2.7-1,4.17.56,1.9,2.1,2.92,4.38,2.92h43.35c.32,0,.65,0,.97,0,1.46-.14,2.75.92,2.89,2.38,0,.07.01.14.01.2-.01,1.44-1.18,2.59-2.62,2.58-.1,0-.19,0-.29-.02-14.93,0-29.87,0-44.81,0-3.55.14-6.83-1.9-8.28-5.15-1.69-3.21-1.27-7.12,1.05-9.91,8.61-11.53,17.15-23.1,25.84-34.58,3.64-4.69,5.57-10.49,5.46-16.43-.09-15.32-.03-30.63-.03-45.95v-1.76" fill="#fff"/>
      <rect id="_사각형_430" data-name="사각형 430" width="88" height="140" fill="none"/>
    </g>
  </g>
</svg>