<?xml version="1.0" encoding="UTF-8"?>
<svg id="Layer_2" data-name="Layer 2" xmlns="http://www.w3.org/2000/svg" viewBox="0 0 288 288">
  <g id="Logo">
    <g id="symbol_07_03_0007_01" data-name="symbol 07 03 0007 01">
      <path id="_패스_1560" data-name="패스 1560" d="m90.16,199.61c-2.76,0-5.01,2.78-5.01,6.21s2.24,6.21,5.01,6.21,5.01-2.78,5.01-6.21-2.24-6.21-5.01-6.21" fill="#fff"/>
      <path id="_패스_1561" data-name="패스 1561" d="m116.86,199.61c-2.76,0-5.01,2.78-5.01,6.21s2.24,6.21,5.01,6.21,5.01-2.78,5.01-6.21-2.24-6.21-5.01-6.21" fill="#fff"/>
      <path id="_패스_1562" data-name="패스 1562" d="m167.24,199.61c-2.76,0-5.01,2.78-5.01,6.21s2.24,6.21,5.01,6.21,5.01-2.78,5.01-6.21-2.24-6.21-5.01-6.21" fill="#fff"/>
      <path id="_패스_1563" data-name="패스 1563" d="m193.94,199.61c-2.76,0-5.01,2.78-5.01,6.21s2.24,6.21,5.01,6.21,5.01-2.78,5.01-6.21-2.24-6.21-5.01-6.21" fill="#fff"/>
      <path id="_패스_1564" data-name="패스 1564" d="m232.68,243.54c7.68-7.92,13.18-17.7,15.97-28.38,3.01-10.9,3.83-21.89-.04-32.81-5.89-16.65-20.83-27.24-37.69-26.71-5.31.22-10.51,1.6-15.23,4.05-15.6-14.62-34.24-54.94-33.8-73.19.23.17.46.36.66.56,10.74,12.8,25.17,17.51,41.18,18.57,4.16.28,6.92-2.6,6.68-6.8-.18-3.49-.61-6.96-1.29-10.39-3.06-15.03-10.11-26.42-21.54-33.72,1.29-.66,2.54-1.41,3.74-2.22,16.49-11.35,19.18-33.61,19.29-34.54.39-3.43-2.08-6.53-5.51-6.92-.55-.06-1.1-.05-1.64.03-41.63,6.32-50.05,28.12-51.74,36.46-17.04,9.45-30.51,22.74-40.86,39.36-11.79,18.93-18.43,39.68-21.71,61.61-.45,3.01-.8,6.04-1.2,9.1-9.62-2.87-15.5-2.25-20.88-.9-16.72,4.21-29.23,19.68-29.83,37.81-.64,19.16,5.43,35.72,18.52,49.03-19.35,3.66-31.14,8.52-31.14,13.85,0,11.37,53.55,20.58,119.6,20.58s119.6-9.21,119.6-20.58c0-5.33-11.78-10.19-31.11-13.85M195.99,25.28c-1.95,5.61-5.51,12.63-11.83,16.95-5.09,3.48-11.45,4.76-18.96,3.83,2.62-5.98,10-15.65,30.78-20.78m-11.91,42.41c7.68,6.26,10.96,14.89,12.97,24.44-20.34-3.32-29.87-15.09-33.12-33.02,7.44,1.39,14.3,3.81,20.15,8.58m-35.37-3.65c-2.06,34.14,8.36,64.01,27.3,91.34-17.01,2.84-21.64,5.57-31.87,18.77-10.62-15.17-24.75-21.55-43.57-16.98,4.9-36.72,16.94-69.46,48.14-93.13m-28.3,173.17c-14.35,12.93-33.45,14.15-48.59,3.79-2.73-1.88-5.25-4.04-7.51-6.46-10.3-11-15.01-24.24-14.57-39.23.37-12.55,8.99-23.54,20.3-26.38,6.45-1.74,13.35-.54,18.83,3.29,3.44,2.33,6.35,2.24,9.79-.04,11.91-7.9,27.55-3.66,34.96,9.27,2.93,5.1,4.27,10.59,4.17,18.14-.39,13.44-5.9,26.23-15.4,35.75-.65.66-1.31,1.28-1.99,1.88m23.78-.41c-2.24,0-4.46.01-6.66.03,1.97-2.73,3.75-5.6,5.32-8.58.38-.71.77-1.41,1.28-2.35.47.86.8,1.44,1.11,2.04,1.59,3.1,3.42,6.07,5.47,8.88-2.16-.02-4.33-.03-6.51-.03m72.2,4.17c-15.3,10.43-34.46,9.11-48.63-3.77-1.01-.92-1.99-1.88-2.94-2.92-10.12-10.96-14.75-24.07-14.34-38.9.35-12.62,9.02-23.69,20.43-26.5,6.39-1.69,13.2-.49,18.63,3.28,3.43,2.31,6.33,2.36,9.79.05,11.91-7.93,27.56-3.75,34.99,9.15,2.93,5.09,4.3,10.58,4.21,18.13-.38,13.52-5.92,26.37-15.5,35.92-2.04,2.06-4.27,3.92-6.66,5.56" fill="#fff"/>
      <rect id="_사각형_576" data-name="사각형 576" width="288" height="288" fill="none"/>
    </g>
  </g>
</svg>