<?xml version="1.0" encoding="UTF-8"?>
<svg id="Layer_2" data-name="Layer 2" xmlns="http://www.w3.org/2000/svg" viewBox="0 0 87 73">
  <g id="Logo">
    <g id="symbol_03_18_0002_02" data-name="symbol 03 18 0002 02">
      <path id="_패스_853" data-name="패스 853" d="m77.78,20.93C69.6,6.05,51.08.37,35.96,8.1c-.28.14-.56.28-.83.43-6.69,3.67-11.8,9.65-14.39,16.82,12.08-5.45,26.3-.07,31.74,12.02,2.64,5.86,2.82,12.54.5,18.54-1.57-.25-3.26-.48-5.03-.66.39-.82.71-1.68.98-2.55,3-10.13-2.78-20.78-12.91-23.78-4.9-1.45-10.17-.88-14.65,1.57-.78.43-1.52.91-2.23,1.44-7.65,5.71-9.92,16.18-5.32,24.55.04.07.08.13.12.2-5.52,1.27-8.94,3.02-8.94,4.95,0,3.87,13.63,7,30.45,7,5.94.04,11.88-.4,17.75-1.31,4.28-.4,8.43-1.67,12.19-3.75.27-.15.54-.31.81-.47,14.63-8.62,19.76-27.3,11.58-42.18" fill="#fff"/>
      <rect id="_사각형_168" data-name="사각형 168" width="87" height="73" fill="none"/>
    </g>
  </g>
</svg>