<?xml version="1.0" encoding="UTF-8"?>
<svg id="Layer_2" data-name="Layer 2" xmlns="http://www.w3.org/2000/svg" viewBox="0 0 364 230">
  <g id="Logo">
    <g id="symbol_12_01_0010_01" data-name="symbol 12 01 0010 01">
      <path id="_패스_1062" data-name="패스 1062" d="m329.49,21.7c0-5.45-2.17-7.68-7.64-7.68-93.02,0-186.05-.02-279.07-.02-3.5,0-6.12,1.22-7.6,4.49v192.61c2.17,3.31,4.96,4.51,9.02,3.56,5.39-1.26,10.95-1.76,16.35-2.98,5.59-1.27,10.79.67,16.14,1.35,3.6.46,7.14,1.29,10.72,1.89,4.33.73,7.46-1.95,7.53-6.4.04-2.1,0-4.19,0-6.49h174.78c0,2.18-.04,4.36,0,6.53.11,4.61,3.29,7.12,7.86,6.29,6.96-1.26,13.89-2.89,20.91-3.54,3.88-.36,7.92.91,11.87,1.53,3.59.56,7.16,1.21,10.73,1.86,5.47,1,8.38-1.41,8.38-7.04,0-45.99,0-91.99,0-137.98V21.7m-152.98,4.42v15.56c0,3.22,2.6,5.83,5.82,5.83,3.22,0,5.83-2.6,5.83-5.82h0v-15.56h30.85c-1.76,16.63-17.6,30.53-35.3,31.09-18.71.74-35.03-12.6-38.03-31.08h30.84Zm-93.51,173.85c0,.56-.07,1.12-.13,2l-11.64-1.96c-.07-1.2-.19-2.4-.19-3.59-.01-41.48-.02-82.97-.02-124.45.03-1.44-.05-2.87-.23-4.29-.49-3.16-3.45-5.32-6.61-4.82-2.54.4-4.51,2.42-4.84,4.97-.14,1.33-.2,2.67-.17,4.01,0,41.48-.01,82.97,0,124.45v3.67l-11.86,2.03V25.97c4.31,0,8.59-.06,12.86.07.51.02,1.31,1.01,1.42,1.64,2.04,13.03,9.22,24.69,19.92,32.39.88.79,1.4,1.9,1.44,3.08.07,45.6.08,91.2.06,136.81m-8.93-170.71c-.26-.99-.38-2.01-.59-3.18h28.06v15.6c0,3.22,2.61,5.82,5.82,5.82s5.82-2.61,5.82-5.82v-15.6h19.42c2.04,5.66,4.07,11.06,5.88,16.55.1,1.05-.26,2.1-.99,2.87-7,7.83-17.1,12.19-27.6,11.93-16.99-.06-31.76-11.66-35.83-28.16m128.5,160.38h-40.48v-37.78c-.08-11.18,8.92-20.31,20.1-20.38,11.18-.08,20.31,8.92,20.38,20.1,0,.09,0,.19,0,.28v37.78Zm67.04,0h-55.4v-37.78c0-17.61-14.28-31.89-31.89-31.89s-31.89,14.28-31.89,31.89v37.78h-55.3v-122.56c19.64,5.21,36.68.93,51.07-13.23,19.04,19.93,50.64,20.64,70.57,1.6.55-.53,1.1-1.07,1.63-1.63,14.44,14.2,31.55,18.52,51.21,13.26v122.56Zm-41.28-142.82c-2-1.94-2.94-3.58-1.25-6.33,1.17-2.19,2.04-4.52,2.61-6.93.7-2.37,1.13-4.82,1.72-7.41h21.64v15.54c0,3.22,2.61,5.82,5.82,5.82s5.82-2.61,5.82-5.82v-15.54h26.85c-.88,3.15-1.92,6.26-3.11,9.31-10.53,23.52-41.63,29.35-60.11,11.37m89,155.17l-11.82-2.02v-3.66c0-41.48,0-82.97,0-124.45.03-1.34-.03-2.68-.17-4.01-.41-3.17-3.3-5.41-6.47-5.01-2.55.33-4.58,2.29-4.98,4.83-.18,1.42-.26,2.86-.23,4.29-.01,41.39-.01,82.77,0,124.16v3.83l-11.85,2.07c-.05-1.08-.12-1.98-.12-2.89,0-45.12-.02-90.25-.05-135.37-.11-1.71.72-3.34,2.16-4.26,10.27-7.45,17.17-18.69,19.16-31.22.32-1.82.91-2.4,2.71-2.35,3.82.12,7.64.04,11.68.04v176.02Z" fill="#fff"/>
      <rect id="_사각형_408" data-name="사각형 408" width="364" height="230" fill="none"/>
    </g>
  </g>
</svg>