<?xml version="1.0" encoding="UTF-8"?>
<svg id="Layer_2" data-name="Layer 2" xmlns="http://www.w3.org/2000/svg" viewBox="0 0 116 132">
  <g id="Logo">
    <g id="symbol_11_01_0003_02" data-name="symbol 11 01 0003 02">
      <rect id="_사각형_263" data-name="사각형 263" width="116" height="132" fill="none"/>
      <path id="_패스_727" data-name="패스 727" d="m58.15,16.81C27.15,16.81,2.01,41.94,2.01,72.94s25.13,56.14,56.14,56.14,56.14-25.13,56.14-56.14h0c-.03-30.99-25.15-56.1-56.14-56.14Zm0,108.85c-19.72-.02-37.78-11.03-46.82-28.55,1.07-1.06,1.82-2.4,2.16-3.87.04-.16.07-.33.14-.64,2.21,1.21,4.89,1.24,7.13.07,2.12-1.07,3.61-3.09,3.98-5.44l4.82.55v-28.94c-.11-.05-.22-.1-.34-.14-6.45-2.57-12.49-1.6-18.06,2.34-2.02,1.43-3.8,3.17-5.27,5.16,3.7-28.87,30.11-49.27,58.98-45.57,23.05,2.96,41.45,20.67,45.28,43.59-1.09-1.18-2.3-2.25-3.61-3.18-5.58-3.94-11.61-4.91-18.07-2.34-.11.05-.22.09-.34.14v28.94l4.82-.55c.38,2.35,1.86,4.37,3.98,5.44,2.24,1.17,4.91,1.14,7.13-.07.07.31.1.47.14.64.25,1.03.69,1.99,1.31,2.85-8.85,18.08-27.22,29.55-47.35,29.57h0Z" fill="#fff"/>
      <path id="_패스_728" data-name="패스 728" d="m58.15,12.42c-5.2.05-10.39-.31-15.54-1.05-5.52-.9-7.77-2.12-7.77-4.2s2.25-3.3,7.77-4.2c5.14-.75,10.34-1.1,15.54-1.05,5.2-.05,10.39.31,15.54,1.05,5.52.9,7.78,2.12,7.78,4.2s-2.25,3.3-7.78,4.2c-5.14.75-10.34,1.1-15.54,1.05Zm-18.57-5.25c2.76.83,9.01,1.78,18.57,1.78s15.81-.96,18.57-1.78c-2.75-.83-9.01-1.78-18.57-1.78s-15.81.96-18.57,1.78Z" fill="#fff"/>
    </g>
  </g>
</svg>