<?xml version="1.0" encoding="UTF-8"?>
<svg id="_레이어_2" data-name="레이어 2" xmlns="http://www.w3.org/2000/svg" viewBox="0 0 377 239">
  <g id="Logo">
    <g>
      <path d="M361.63,125.76h-88.76v-54.86l38.54-17.02s.01,0,.02,0c.15-.07,.28-.15,.42-.24,.06-.04,.13-.07,.19-.11,.06-.05,.12-.1,.18-.15,.12-.1,.24-.2,.35-.31,0,0,.01,0,.02-.01,.05-.06,.09-.12,.14-.18,.09-.11,.19-.23,.26-.35,.06-.1,.11-.21,.16-.31,.05-.1,.1-.19,.14-.29,.04-.11,.07-.23,.1-.35,.03-.1,.06-.2,.08-.3,.02-.11,.02-.23,.03-.34,0-.11,.02-.22,.02-.34,0-.12-.02-.23-.04-.35-.01-.11-.02-.22-.05-.32-.03-.15-.09-.29-.14-.44-.02-.07-.04-.13-.07-.2,0,0,0-.01,0-.02-.06-.14-.15-.27-.23-.41-.04-.07-.07-.14-.12-.2-.04-.06-.09-.1-.14-.16-.1-.13-.21-.26-.33-.37,0,0,0,0-.01-.01l-40.63-37.22c-.65-.59-1.49-.92-2.36-.92H106.61c-.86,0-1.7,.32-2.34,.9-31.51,28.36-38.65,35.33-40.43,37.28-.04,.04-.08,.09-.12,.13-.09,.1-.15,.18-.21,.25-.05,.07-.11,.13-.16,.2-.07,.1-.11,.17-.14,.22-.03,.06-.05,.12-.08,.18s-.07,.11-.1,.17c-.02,.05-.03,.1-.05,.15-.04,.12-.08,.23-.11,.35-.03,.11-.05,.22-.07,.33-.02,.11-.03,.23-.04,.34,0,.11-.01,.23,0,.34,0,.11,.02,.22,.03,.33,.01,.11,.03,.23,.06,.34,.02,.11,.06,.21,.09,.31,.04,.11,.07,.21,.12,.32,.05,.1,.1,.2,.15,.3,.06,.1,.11,.19,.18,.29,.06,.09,.13,.18,.21,.26,.08,.09,.15,.17,.24,.26,.08,.08,.16,.15,.25,.22,.1,.08,.19,.15,.3,.21,.04,.03,.08,.06,.13,.09,.1,.05,.2,.1,.29,.14,.02,0,.04,.02,.06,.03l37.63,16.19v55.67H15.13c-1.93,0-3.5,1.57-3.5,3.5s1.57,3.5,3.5,3.5H158.62c1.93,0,3.5-1.57,3.5-3.5s-1.57-3.5-3.5-3.5h-49.13v-55.11l156.38,.99v54.13h-48.73c-1.93,0-3.5,1.57-3.5,3.5s1.57,3.5,3.5,3.5h144.49c1.93,0,3.5-1.57,3.5-3.5s-1.57-3.5-3.5-3.5ZM272.87,21.41l30.81,28.23-30.81,13.6V21.41Zm-59.95-4.46v47.33l-53.46-.34V16.96h53.46ZM72.35,49.49c6.07-5.75,19.19-17.71,30.15-27.61V62.47l-30.15-12.97ZM109.49,16.96h42.97V63.91l-42.97-.27V16.96Zm110.43,47.38V16.96h45.94v47.67l-45.94-.29Z" fill="#fff"/>
      <path d="M361.2,230.61H14.7c-1.93,0-3.5-1.57-3.5-3.5s1.57-3.5,3.5-3.5H361.2c1.93,0,3.5,1.57,3.5,3.5s-1.57,3.5-3.5,3.5Z" fill="#fff"/>
      <path d="M204.08,132.99h-.02l-15.98-.1-15.38,.1h-.02c-.92,0-1.81-.37-2.47-1.02-.66-.66-1.03-1.55-1.03-2.48v-19.07c0-12.9,8.61-23.39,19.2-23.39s19.2,10.49,19.2,23.39v19.07c0,.93-.37,1.83-1.03,2.48-.66,.65-1.54,1.02-2.47,1.02Zm-16-7.1h.02l12.48,.08v-15.55c0-9.03-5.47-16.39-12.2-16.39s-12.2,7.35-12.2,16.39v15.55l11.88-.07h.02Z" fill="#fff"/>
      <rect width="377" height="239" fill="none"/>
    </g>
  </g>
</svg>