<?xml version="1.0" encoding="UTF-8"?>
<svg id="Layer_2" data-name="Layer 2" xmlns="http://www.w3.org/2000/svg" viewBox="0 0 434 136">
  <g id="Logo">
    <g id="symbol_02_01_0005_01" data-name="symbol 02 01 0005 01">
      <path id="_패스_1302" data-name="패스 1302" d="m408.11,118.39h-212.1c2.33-2.21,4.65-4.44,7-6.63,1.22-1.07,1.88-2.64,1.81-4.26-.06-8.04-.06-16.09,0-24.13.08-1.68-.65-3.3-1.97-4.34-4.32-3.65-8.55-7.41-12.89-11.06-.86-.55-1.14-1.67-.64-2.56,2.26-5.95,4.4-11.95,6.62-17.91.59-1.39.48-2.97-.3-4.26-4.39-7.71-8.69-15.46-13.15-23.13-.68-1.1-1.7-1.93-2.91-2.38-8.29-2.78-16.62-5.44-24.97-8.03-1.13-.33-2.33-.34-3.46-.03-10.22,2.97-20.43,5.99-30.6,9.15-1.38.48-2.57,1.38-3.4,2.57-5.06,7.57-9.97,15.25-14.93,22.89-.35.54-.72,1.06-1.14,1.67-2.41-1.41-4.7-2.78-7.01-4.11-2.43-1.4-3.47-1.3-5.59.58-7.36,6.52-14.7,13.05-22.04,19.6-.8.79-1.92,1.17-3.04,1.02-4.09-.41-8.19-.69-12.28-1.1-1.67-.21-3.34.33-4.57,1.48-3.52,3.04-7.17,5.92-10.67,8.97-1.07.93-1.95,2.06-2.61,3.31-3.91,7.55-7.71,15.15-11.55,22.74v2.14c.22.26.42.54.6.83,3.74,6.97,7.53,13.92,11.17,20.95.86,2.01,2.91,3.24,5.08,3.05h1.72c.48.09.96.13,1.45.14h366.37c3.1,0,5.62-1.6,5.62-3.58s-2.51-3.58-5.62-3.58m-210.48-30.58c0,6.08.04,12.16-.03,18.23-.09.68-.41,1.31-.91,1.77-3.29,3.2-6.6,6.38-9.99,9.47-.66.55-1.49.86-2.34.9-2.92.11-5.84,0-8.76.05-.4,0-.81.06-1.2.14h-31.26c-.56-.1-1.13-.15-1.7-.15h-5.31c.74-.65,1.03-.94,1.35-1.19,8.33-6.46,16.68-12.91,25.02-19.35.81-.59,1.72-1.03,2.69-1.29,6.68-1.95,13.38-3.85,20.07-5.76,4.05-1.16,8.12-2.31,12.19-3.47.08.2.13.41.17.63m-52.97-20l12.68,24.81-30.96,23.99c-2.1-5.47-4.1-10.68-6.1-15.88-.94-2.44-1.91-4.87-2.78-7.34-.19-.56-.11-1.18.22-1.68,8.88-7.93,17.82-15.82,26.94-23.89m-26.17,48.2c.25.65.46,1.32.75,2.12h-37.37l6.95-30.41c5.75,1.73,11.5,3.65,17.35,5.14,2.68.49,4.82,2.5,5.49,5.14,2.04,6.08,4.53,12.01,6.84,18.01m38.08-98.2c3.82,1.21,7.49,2.37,11.16,3.53,1.11.44,2.24.8,3.4,1.08,4.15.69,6.74,2.98,8.49,6.84,1.78,3.93,4.18,7.58,6.58,11.82l-29.62-3.81v-19.47Zm-47.51,29.07c4.34-6.69,8.66-13.39,13.04-20.05.42-.7,1.04-1.24,1.79-1.56,8.13-2.49,16.28-4.9,24.43-7.32.28-.08.57-.12,1.01-.21v16.85q0,3.41-3.07,4.68c-7.2,2.97-14.39,5.94-21.61,8.87-.93.37-1.92.56-2.92.58-4.5.06-9.01.03-13.77.03.46-.79.76-1.35,1.11-1.88m-36.34,19.1c6.01-5.35,12.04-10.67,18.02-16.05.61-.79,1.75-.93,2.54-.31.02.02.04.03.06.05,2.77,1.75,5.56,3.47,8.46,4.98,1.34.71,2.82,1.12,4.34,1.2,4.22.16,8.45.06,13.03.06-2.98,10.42-5.89,20.57-8.82,30.82-8.67-2.61-17.12-5.23-25.63-7.66-2.47-.6-4.67-2.03-6.21-4.06-2.08-2.75-4.43-5.29-6.75-8.03.34-.36.63-.71.97-1.01m-21.95,3.34c.3-.24.91-.16,1.37-.12,3.97.33,7.94.67,11.9,1.06.58.02,1.13.24,1.57.62,4.31,4.99,8.56,10.03,13.02,15.29-7.35,1.93-14.4,3.8-21.48,5.62-.49.07-.99-.09-1.35-.42-4.49-4.92-8.94-9.87-13.57-15,2.88-2.39,5.67-4.75,8.52-7.04m-21,30.83c-.23-.46-.26-.99-.09-1.47,2.69-5.43,5.43-10.82,8.26-16.41l12.68,14.06-12.93,18.66c-2.73-5.09-5.35-9.95-7.92-14.83" fill="#fff"/>
      <rect id="_사각형_411" data-name="사각형 411" width="434" height="136" fill="none"/>
    </g>
  </g>
</svg>