<?xml version="1.0" encoding="UTF-8"?>
<svg id="Layer_2" data-name="Layer 2" xmlns="http://www.w3.org/2000/svg" viewBox="0 0 96 96">
  <g id="Logo">
    <g id="symbol_20_01_0001_01" data-name="symbol 20 01 0001 01">
      <path id="_패스_478" data-name="패스 478" d="m74.61,69.97c-8.48-.75-16.43-4.43-22.5-10.4-.88-.85-1.74-1.77-2.59-2.76-2.65-3.12-4.91-6.54-6.75-10.19-5.12-10.03-13.28-15.55-24.26-16.39-4.29-.29-8.59.08-12.77,1.1-8.66,23.91,3.7,50.31,27.61,58.97,21.5,7.79,45.45-1.38,56.26-21.54-3.62.92-7.35,1.38-11.09,1.39-1.26,0-2.57-.05-3.92-.18" fill="#fff"/>
      <path id="_패스_479" data-name="패스 479" d="m44.38,4.61c-7.87,0-14.26,6.38-14.26,14.26s6.38,14.26,14.26,14.26,14.25-6.38,14.26-14.25c0-7.87-6.39-14.25-14.26-14.26" fill="#fff"/>
      <rect id="_사각형_173" data-name="사각형 173" width="96" height="96" fill="none"/>
    </g>
  </g>
</svg>