<?xml version="1.0" encoding="UTF-8"?>
<svg id="Layer_2" data-name="Layer 2" xmlns="http://www.w3.org/2000/svg" viewBox="0 0 128 128">
  <g id="Logo">
    <g id="symbol_15_04_0004_01" data-name="symbol 15 04 0004 01">
      <path id="_패스_1352" data-name="패스 1352" d="m112.75,33.19l-12.52-7.01-11.15-6.24-18.84-10.55-5.57-3.12-5.58,3.12-18.84,10.54-11.15,6.24-12.52,7.01s-.79,30.09,12.52,55.69c2.98,5.83,6.73,11.23,11.15,16.06,5.3,5.76,11.71,10.39,18.84,13.63,1.82.83,3.68,1.57,5.58,2.21,1.89-.64,3.75-1.38,5.57-2.21,7.13-3.24,13.53-7.87,18.84-13.63,4.42-4.83,8.17-10.23,11.15-16.06,13.31-25.61,12.52-55.69,12.52-55.69m-12.52,29.14c-1.9,8.8-5.25,18.82-11.15,27.52-4.69,7.13-11.19,12.88-18.84,16.67-1.81.88-3.67,1.65-5.57,2.29-1.91-.64-3.77-1.41-5.58-2.29-7.64-3.79-14.14-9.55-18.84-16.67-5.9-8.7-9.25-18.72-11.15-27.52-1.64-7.49-2.47-15.14-2.47-22.81l2.47-1.38,11.15-6.24,18.83-10.54,5.58-3.12,5.57,3.12,18.84,10.55,11.15,6.25,2.47,1.38c0,7.67-.83,15.31-2.47,22.81" fill="#fff"/>
      <path id="_패스_1353" data-name="패스 1353" d="m89.08,45.96l-18.84-10.55-5.58-3.12-5.58,3.12-18.83,10.54-1.81,1.01c0,5.45.61,10.89,1.81,16.21,2.27,10.18,7.39,22.56,18.83,29.05,1.77,1.01,3.64,1.85,5.58,2.51,1.93-.66,3.8-1.5,5.58-2.51,11.44-6.49,16.56-18.87,18.84-29.05,1.2-5.32,1.81-10.76,1.81-16.21l-1.81-1.02Z" fill="#fff"/>
      <rect id="_사각형_645" data-name="사각형 645" width="128" height="128" fill="none"/>
    </g>
  </g>
</svg>