<?xml version="1.0" encoding="UTF-8"?>
<svg id="_레이어_2" data-name="레이어 2" xmlns="http://www.w3.org/2000/svg" viewBox="0 0 145 145">
  <g id="Logo">
    <g id="symbol_09_19_0001_01" data-name="symbol 09 19 0001 01">
      <rect id="_사각형_110" data-name="사각형 110" x=".5" y=".25" width="144.5" height="144.48" fill="none"/>
      <path id="_패스_723" data-name="패스 723" d="M139.32,44.37C123.78,7.48,81.28-9.84,44.38,5.7,7.48,21.23-9.84,63.73,5.7,100.63c15.54,36.89,58.04,54.21,94.94,38.68,26.88-11.32,44.36-37.64,44.36-66.81,.01-9.66-1.92-19.22-5.68-28.12Zm-31.6,89.75l-3.74,.7-4.05,.49h-1.13c-.13-.02-.28-.02-.46-.03-.75,0-1.5-.03-2.24-.11-2.15-.33-4.32-.57-6.41-1.11-3.17-.63-5.44-3.42-5.42-6.65-.16-2.48-.49-4.94-.56-7.42-.17-5.66-.3-11.32-.32-16.99,.03-1.78,.27-3.55,.7-5.27,.54-2.34,2.07-4.17,3.63-5.93,2.51-2.67,4.42-5.84,5.61-9.31,1.25-4,2.08-8.12,2.48-12.29,.43-4.38,.69-8.77,.95-13.16,.11-1.83,.02-3.68,.02-5.53-.83,.12-1.07,.53-1.06,1.33,.17,7.91-.48,15.83-1.94,23.61-.9,5.34-3.29,10.31-6.91,14.35-.33,.36-.6,.78-.93,1.14-2.6,2.92-3.97,6.72-3.85,10.62-.05,6.73,.24,13.43,.78,20.13,.16,1.96,.45,3.91,.62,5.86,.18,2.89,2.09,5.39,4.84,6.31,2.93,1.08,6.02,1.65,9.14,1.67,.83,.04,1.66,0,2.51,0l4.24-.54c-35.17,17.5-77.87,3.17-95.37-32C-8.7,68.84,5.63,26.15,40.8,8.65c35.17-17.5,77.87-3.17,95.37,32,16.8,33.77,4.32,74.78-28.46,93.46h0Z" fill="#fff"/>
      <path id="_패스_724" data-name="패스 724" d="M76.61,102.18c-.21,7.02-.67,14.19-.95,21.18-.05,.81-.19,1.61-.32,2.42l-.2,1.23c-.12,.72-.43,1.39-.91,1.94-1.58,1.72-4.11,2.26-6.37,2.41-2.45,.22-4.92,.26-7.37,.13-1.01-.06-2.03-.17-3.04-.31-1.38-.15-2.72-.52-3.97-1.1-.67-.26-1.27-.67-1.76-1.2-.62-.91-.98-1.98-1.02-3.08-.13-1.22-.22-2.46-.3-3.69-.35-6.18-.25-12.46-.24-18.66,0-.22,0-.44,.01-.65,7.67-.12,18.86-.37,26.44-.6-7.82-.19-19.31-.56-27.04-.61-.33,0-.6,.26-.61,.58-.16,3.28-.21,6.73-.26,10.01-.04,3.34-.02,6.68,.16,10.02,.07,1.26,.16,2.51,.28,3.77,.05,1.41,.53,2.77,1.36,3.9,.47,.56,1.06,1.01,1.72,1.32,.98,.52,2.01,.91,3.09,1.17,.62,.14,1.28,.23,1.9,.33,3.57,.45,7.18,.47,10.75,.05,3.33-.2,7.79-1.69,8.31-5.55l.16-1.24c.2-1.25,.3-2.52,.28-3.79,.05-6.63,.16-13.37-.11-19.98Z" fill="#fff"/>
      <path id="_패스_725" data-name="패스 725" d="M93.24,68.88c-7.61,.08-15.97,.4-23.6,.68,7.33,.26,15.44,.57,22.8,.67-.94,5.96-2.09,12.08-6.04,16.73-.64,.74-1.41,1.35-2.27,1.81-2.76,1.48-5.84,.52-7.9-1.69-2.84-3.06-4.21-7.28-5.34-11.25-.41-1.54-.76-3.11-1.05-4.68-.12-.52-.19-1.05-.21-1.58-.04,.54-.03,1.07,.04,1.61,.04,.53,.1,1.07,.17,1.59,.66,5.04,2.05,11.22,5.47,15.15,1.51,1.82,3.71,2.91,6.07,3,6.93,.05,10.38-9.21,11.53-14.86,.23-1.03,.42-2.15,.56-3.19l.45-3.19c.06-.37-.2-.72-.57-.78-.04,0-.07,0-.11,0Z" fill="#fff"/>
      <path id="_패스_726" data-name="패스 726" d="M77.25,93.23c-.52-.66-1.03-1.33-1.57-1.97-2.14-2.57-4.3-5.17-5.36-8.39-.86-2.64-1.56-5.32-2.08-8.05-1.29-7.17-1.84-14.46-1.64-21.75,.01-.73-.18-1.15-1.01-1.29v.06s-3.92,.09-3.92,.09v-.05c-1.14,.22-1.15,.24-1.13,1.24,.02,.89,.04,1.77,.05,2.66,.19,7.22-.43,14.43-1.84,21.51-.71,4.09-2.52,7.92-5.25,11.05-1.3,1.41-2.66,2.76-4,4.12-2.03,1.87-3.32,4.41-3.63,7.15-.12,1.56-.29,3.12-.27,4.68,.05,4.71,.11,9.43,.29,14.14,.14,3.66,.49,7.31,.71,10.97,.11,2.1,1.36,3.97,3.26,4.88,1.63,.87,3.4,1.45,5.23,1.72,4.36,.7,8.8,.82,13.19,.37,2.27-.13,4.49-.69,6.55-1.64,2.04-.9,3.46-2.79,3.76-5,.44-3.14,.76-6.3,1-9.47,.54-6.33,.72-12.68,.53-19.03-.06-2.92-1.07-5.73-2.88-8.02Zm1.47,24.58c-.12,3.4-.49,6.79-.78,10.19-.12,2.73-1.96,5.08-4.58,5.86-.7,.27-1.41,.49-2.14,.66-4.91,.96-9.95,1.08-14.91,.35-2.03-.2-3.99-.8-5.79-1.76-1.63-.79-2.74-2.37-2.93-4.17-.22-2.28-.43-4.55-.57-6.84-.52-6.4-.58-12.83-.21-19.24,.18-2.41,.45-4.84,1.82-6.9,1.04-1.6,2.25-3.09,3.62-4.43,3.57-3.3,6.05-7.61,7.09-12.36,1.48-7.04,2.27-14.2,2.34-21.4,.03-1.61,.01-3.23,0-4.85,.7-.07,1.45-.13,2.22-.16,.57-.03,1.11-.04,1.65-.04-.12,7.96,.52,15.92,1.91,23.76,.53,3.39,1.56,6.69,3.05,9.79,1.28,2.26,2.81,4.36,4.58,6.26,1.81,1.88,3.02,4.25,3.49,6.82,.2,1.27,.32,2.55,.35,3.83-.02,4.88-.02,9.76-.2,14.63h0Z" fill="#fff"/>
    </g>
  </g>
</svg>