<?xml version="1.0" encoding="UTF-8"?>
<svg id="_레이어_2" data-name="레이어 2" xmlns="http://www.w3.org/2000/svg" viewBox="0 0 224 134">
  <g id="Logo">
    <g id="symbol_17_01_0001_01" data-name="symbol 17 01 0001 01">
      <rect id="Rectangle_26" data-name="Rectangle 26" width="224" height="134" fill="none"/>
      <path id="Path_214" data-name="Path 214" d="M78.86,29.71s.06-.03,.09-.04c-1.28-5.02-3.63-8.62-6.94-10.42-8.04-4.38-24.46,5.21-29.8,5.18s-11.08-4.94-19.08-6.32-18.66-.98-18.76,19.9c-.14,27.55,12.64,49.38,14.84,53.39s6.62,8.47,10.2,4.05,3.47-8.29,7.36-14.36c4.48-6.99,8.18-4.19,9.5-1.96s2.32,4.38,4.94,9.76c2.83,5.82,3.96,8.46,6.18,8.47s5.34-.86,9.38-9.28c2.19-4.57,4.1-9,5.72-13.3-5.56-23.2-2.8-40.08,6.37-45.08Zm-19.55,12.85c-.03,.12-3.66,12.04-17.15,12.04h-.11c-13.75-.07-15.59-12.28-15.61-12.4-.11-.81,.46-1.56,1.27-1.68,.81-.11,1.56,.46,1.68,1.27,.06,.39,1.55,9.78,12.68,9.83h.1c6.41,.17,12.2-3.83,14.3-9.9,.23-.79,1.05-1.24,1.84-1.01,.79,.23,1.24,1.05,1.01,1.84h0Z" fill="#fff"/>
      <path id="Path_215" data-name="Path 215" d="M200.86,18.11c-7.99,1.37-13.74,6.29-19.07,6.32s-21.75-9.57-29.8-5.18c-3.06,1.67-5.29,4.86-6.62,9.29,5.96,1.75,10.93,7.47,11.01,22.69,0,9.22-1.13,18.4-3.39,27.34,1.27,3.11,2.68,6.28,4.23,9.52,4.04,8.42,7.16,9.29,9.38,9.28s3.34-2.66,6.18-8.47c2.62-5.38,3.62-7.53,4.94-9.76s5.03-5.03,9.5,1.96c3.89,6.08,3.79,9.94,7.36,14.36s8-.04,10.2-4.05,14.98-25.84,14.84-53.39c-.1-20.88-10.76-21.27-18.75-19.9Zm-3.29,24.09c-.02,.12-1.86,12.33-15.61,12.4h-.11c-13.49,0-17.12-11.92-17.15-12.04-.23-.79,.22-1.61,1.01-1.84,.79-.23,1.61,.22,1.84,1.01,2.06,6.1,7.87,10.12,14.3,9.9h.1c11.13-.06,12.62-9.44,12.68-9.84,.11-.81,.86-1.38,1.68-1.27s1.38,.86,1.27,1.68h0Z" fill="#fff"/>
      <path id="Path_216" data-name="Path 216" d="M143.15,31.02c-3.21-.77-6.55-.81-9.77-.11-8.53,1.47-14.67,6.71-20.36,6.74-5.67,.03-23.11-10.15-31.73-5.57-.03,.01-.06,.03-.08,.04-8.54,4.65-11.11,20.38-5.93,41.99,2.72,10.88,6.58,21.44,11.51,31.51,4.31,8.99,7.64,9.92,10.01,9.91s3.57-2.84,6.6-9.05c2.8-5.74,3.86-8.04,5.27-10.42s5.36-5.37,10.15,2.09c4.16,6.49,4.04,10.61,7.86,15.33s8.54-.04,10.89-4.32c5.63-9.89,9.9-20.5,12.69-31.53,2.1-8.33,3.16-16.88,3.16-25.47-.07-14.18-4.7-19.51-10.26-21.13Zm-12.26,24.38c-.02,.14-2.1,13.95-17.68,14.02h-.13c-15.3,0-19.41-13.5-19.45-13.64-.23-.79,.22-1.61,1.01-1.84,.79-.23,1.61,.22,1.84,1.01,2.38,7.08,9.13,11.76,16.6,11.5h.11c12.96-.07,14.68-11,14.75-11.46,.11-.81,.86-1.38,1.68-1.27s1.38,.86,1.27,1.68h0Z" fill="#fff"/>
    </g>
  </g>
</svg>