<?xml version="1.0" encoding="UTF-8"?>
<svg id="_레이어_2" data-name="레이어 2" xmlns="http://www.w3.org/2000/svg" viewBox="0 0 143 172">
  <g id="Logo">
    <g>
      <rect id="_사각형_82" data-name="사각형 82" width="143" height="172" fill="none"/>
      <g>
        <path id="_패스_427" data-name="패스 427" d="M134.61,9.53h-46.76c-1.93,0-3.5-1.57-3.5-3.5s1.57-3.5,3.5-3.5h46.76c1.93,0,3.5,1.57,3.5,3.5s-1.57,3.5-3.5,3.5Z" fill="#fff"/>
        <path id="_패스_428" data-name="패스 428" d="M138.18,37.28H72.39c-1.93,0-3.5-1.57-3.5-3.5s1.57-3.5,3.5-3.5h65.78c1.93,0,3.5,1.57,3.5,3.5h0c0,1.93-1.57,3.5-3.5,3.5Z" fill="#fff"/>
        <path id="_패스_429" data-name="패스 429" d="M100.65,168.82H34.87c-1.93,0-3.5-1.57-3.5-3.5h0c0-1.93,1.57-3.5,3.5-3.5H100.65c1.93,0,3.5,1.57,3.5,3.5s-1.57,3.5-3.5,3.5h0Z" fill="#fff"/>
        <path id="_패스_430" data-name="패스 430" d="M91.35,118.49H5.52c-1.93,0-3.5-1.57-3.5-3.5s1.57-3.5,3.5-3.5H91.35c1.93,0,3.5,1.57,3.5,3.5h0c0,1.93-1.57,3.5-3.5,3.5Z" fill="#fff"/>
      </g>
    </g>
  </g>
</svg>