<?xml version="1.0" encoding="UTF-8"?>
<svg id="Layer_2" data-name="Layer 2" xmlns="http://www.w3.org/2000/svg" viewBox="0 0 184 50">
  <g id="Logo">
    <g id="symbol_09_12_0001_02" data-name="symbol 09 12 0001 02">
      <path id="_패스_650" data-name="패스 650" d="m170.62,10.14H16.4v11.6h46.03l-3.86,4.48-4.55,5.28c-2.51,2.91-2.19,7.31.73,9.83,0,0,0,0,0,0l5.28,4.55,1.62,1.4c2.92,2.51,7.32,2.19,9.83-.73s2.19-7.32-.73-9.83l-1.62-1.4,11.7-13.58h20.5l8.57,15.54,3.37,6.1c1.86,3.37,6.1,4.59,9.47,2.73l6.1-3.37,1.88-1.04c3.34-1.91,4.51-6.16,2.6-9.51-1.87-3.28-6.01-4.47-9.33-2.69l-1.88,1.04-4.86-8.81h53.38v-11.6Z" fill="#fff"/>
      <rect id="_사각형_3" data-name="사각형 3" width="184" height="50" fill="none"/>
    </g>
  </g>
</svg>