<?xml version="1.0" encoding="UTF-8"?>
<svg id="Layer_2" data-name="Layer 2" xmlns="http://www.w3.org/2000/svg" viewBox="0 0 203 130">
  <g id="Logo">
    <g id="symbol_04_03_0002_01" data-name="symbol 04 03 0002 01">
      <path id="_합치기_11" data-name="합치기 11" d="m155.93,121.58V46.11c0-.87.7-1.58,1.57-1.58h0c.87,0,1.58.71,1.57,1.58h0v75.47c0,.87-.7,1.58-1.57,1.58h0c-.87,0-1.58-.7-1.58-1.57h0Zm-112.32,0V46.11c0-.87.7-1.58,1.57-1.58h0c.87,0,1.58.71,1.58,1.58v75.47c0,.87-.71,1.58-1.58,1.58-.87,0-1.58-.7-1.58-1.57h0s0,0,0,0ZM7,48.95c-.05-.87.61-1.62,1.48-1.67.25-.01,25.48-2.08,38.87-39.22.22-.63.82-1.05,1.48-1.05h104.88c.67,0,1.26.42,1.49,1.04,13.43,37.15,38.74,39.21,38.99,39.22.87.06,1.53.81,1.47,1.68-.05.83-.74,1.48-1.57,1.48h-.1c-1.11-.07-27.12-2.05-41.39-40.26H49.94C35.71,48.37,9.78,50.37,8.67,50.43h-.12c-.82-.01-1.5-.66-1.55-1.48h0Z" fill="#fff"/>
      <rect id="_사각형_216" data-name="사각형 216" width="203" height="130" fill="none"/>
    </g>
  </g>
</svg>