<?xml version="1.0" encoding="UTF-8"?>
<svg id="Layer_2" data-name="Layer 2" xmlns="http://www.w3.org/2000/svg" viewBox="0 0 404 266">
  <g id="Logo">
    <g id="symbol_01_02_0005_01" data-name="symbol 01 02 0005 01">
      <path id="_합치기_39" data-name="합치기 39" d="m372.72,250.62l-340.82-1.49c-2.67,0-4.84-2.18-4.83-4.85,0-2.67,2.18-4.84,4.85-4.83h0s.02,0,.02,0l45.1.2c-6.09-5.2-10.6-12-13.02-19.64-4.47-14.08-3.16-27.64,4.21-40.52,1.82-3.18,4.21-4.08,6.54-2.64,2.21,1.37,2.38,3.71.68,6.85-7.96,14.64-7.84,29.27,1.27,43.21,3.9,6.3,10.06,10.88,17.21,12.81l12.62.05c6.76-1.74,12.71-5.75,16.85-11.37,12.17-15.82,9.96-40.59-5.01-53.28-8.98-7.61-19.05-8.97-29.84-3.96-.33.16-.65.35-.99.5-2.55,1.11-4.9.4-5.94-1.79-.99-2.09-.2-4.31,2.13-5.61,5.49-2.99,11.65-4.5,17.9-4.4,3.99,0,7.97,0,12.48,0-.64-1.11-1.08-1.87-1.52-2.62-12.02-20.36-7.44-47.62,10.33-61.52,6.36-5.09,14.28-7.85,22.43-7.81,9.65-.02,19.3,0,29.34,0-1.03-2.85-1.88-5.46-2.96-7.97-.22-.53-1.25-.88-1.96-1-2.64-.49-5.35-.65-7.95-1.29-11.5-2.81-18.18-10.12-20.09-21.83-2.2-13.51,1.1-25.74,8.55-37.01,1.48-2.24,3.52-3.33,6.19-2.54,14.26,4.19,25.45,12.21,32.2,25.82,4.26,8.59,3.62,16.86-1.48,24.82-1.37,2.32-3.05,4.44-5.02,6.28-2.44,2.11-2.93,4.05-1.48,6.89,1.25,2.45,1.41,6.03,3.3,7.41,1.78,1.3,5.17.42,7.86.42h5.88l5.52-8.61c-5.63-8.37-7.05-15.94-4.22-22.53,6.29-14.6,31.55-17.51,32.62-17.62,1.89-.21,3.63,1.04,4.04,2.9,3.94,18.05,2.19,30.61-5.21,37.31-4.44,4.02-9.97,5.08-14.56,5.08-2.25,0-4.5-.25-6.7-.71l-2.67,4.16c18.3.01,36.6.01,54.91,0,8.91-.17,17.56,2.96,24.3,8.79,2.56,2.19,3.03,4.42,1.35,6.47-1.62,1.98-4.18,2.04-6.62-.03-5.51-4.66-12.55-7.12-19.76-6.9-29.8.07-59.6.08-89.39.03h-3.19c.4.56.83,1.1,1.29,1.6,5.27,4.87,9.25,10.98,11.56,17.78.67,1.92,1.5,2.55,3.51,2.53,12.9-.09,25.8-.05,38.71-.03,1.11-.05,2.22.05,3.3.31,2.14.69,3.32,2.98,2.63,5.12-.45,1.41-1.63,2.46-3.08,2.75-1.01.14-2.03.19-3.05.15-11.97.01-23.95.01-35.92,0h-3.35c1.16,14.29-2.27,27-11.52,38.08,8.27-4.96,17.24-4.85,26.2-4.73,1.38.02,2.77.04,4.15.04,25.16-.03,50.32-.1,75.47.09,3.62.02,6-1.04,7.77-4.01.71-1.19,1.51-2.32,2.62-4.03h-61.2c-.83.06-1.67.04-2.5-.06-2.26-.32-3.84-2.42-3.52-4.69.25-1.74,1.57-3.13,3.29-3.48.75-.14,1.52-.18,2.29-.14.25,0,.51,0,.76,0,20.52,0,41.03-.03,61.55.04,2.02,0,2.9-.49,3.29-2.59,1.49-7.5.96-15.26-1.51-22.5-.21-.61-.47-1.21-.67-1.83-.77-2.49.17-4.65,2.36-5.46,1.93-.89,4.22-.04,5.11,1.89.1.22.18.44.24.67,1.43,5.25,3.03,10.56,3.47,15.94.82,10.08-1.7,20.15-7.16,28.66-.18.3-.32.63-.74,1.48,1.39,0,2.44-.03,3.48,0,1.75.06,3.51.05,5.27.04,3.9-.16,7.8.09,11.65.73,16.85,3.46,26.28,14.91,31.05,30.78.77,2.55,1.16,5.23,1.72,7.85v10.58c-.75,3.13-1.27,6.34-2.29,9.38-2.98,8.85-7.48,16.31-14.04,21.53l42.4.18c2.67,0,4.83,2.18,4.83,4.85s-2.18,4.83-4.85,4.83h0Zm-97.35-10.1l17.22.07c.31-.05.62-.08.93-.08,1.88-.03,3.78,0,5.66.01,3.13.03,6.25.06,9.37-.09,10.47-.5,17.99-5.94,23.9-14.82-1.38-.06-2.35-.14-3.32-.14-14.3,0-28.59,0-42.89.02-2.09,0-3.9-.34-4.91-2.39-1.44-2.89.66-5.91,4.27-5.96,6.31-.08,12.62-.03,18.94-.03,9.84,0,19.68,0,29.52,0,1.16,0,2.24.26,2.74-1.48,4.2-14.62-.27-32.82-13.39-42.17-4.6-3.38-10.16-5.2-15.87-5.21-31.1-.04-62.2-.05-93.29-.02-.3.04-.6.1-.9.17.53.63.99,1.12,1.38,1.64,3.16,4.32,6.63,8.45,9.33,13.04,1.39,2.36,2.63,3.14,5.27,3.12,24.04-.11,48.08-.06,72.13-.06,4.51,0,6.55,1.31,6.53,4.21-.02,2.87-2.04,4.14-6.6,4.14-23.21,0-46.41,0-69.62,0h-3.56c2.65,17.68-1.51,32.94-15,45.74l56.48.25h3.38c.43,0,.87-.02,1.3-.02.33,0,.66.01.99.04Zm-103.65-65.03c-7.58,6.6-12.05,16.07-12.33,26.12-.05,10.84,2.06,18.4,6.64,25.24,5.09,7.6,12.18,12.05,19.63,13.28l8.25.03c6.89-1.17,13.14-4.76,17.63-10.12,12.83-14.69,12.04-39.32-1.71-53.17-5.17-5.41-12.3-8.52-19.79-8.61-6.79.07-13.31,2.64-18.32,7.23Zm-47.39,64.37l42.34.19c-8.78-7.71-14.29-18.48-15.39-30.12-1.35-11.58,1.46-23.27,7.93-32.97-2.18-.05-4.33-.03-6.48-.02-8.45.08-16.61.16-24.21-4.05,16.19,19.92,14.39,49.89-4.19,66.97Zm-.63-133.47c-13.07,14.78-12.48,39.28,1.28,53.39,10.92,11.2,27.25,11.69,38.73,1.08,8.26-7.64,11.6-17.42,11.95-27.96-.17-8.54-2.15-16.05-6.65-22.83-6.03-9.1-15-13.77-24.05-13.77-7.62,0-15.28,3.31-21.27,10.07Zm96.11-46.01c1.73,1.11,2.23,3.41,1.13,5.14,0,0,0,0,0,0l-7.29,11.37c3.53.35,8.43.09,11.88-3.06,4.78-4.36,6.01-13.58,3.6-26.78-7.44,1.38-20.02,5.17-23.25,12.67-1.49,3.47-.87,7.71,1.84,12.63l6.96-10.85c1.11-1.73,3.41-2.23,5.13-1.13,0,0,0,0,0,0h0Zm-68.07-.04c2.13,5.73,10.12,10.27,16.33,9.46-.34-.99-.64-1.95-.98-2.89-3.07-8.43-6.13-16.88-9.2-25.32-1.12-3.1-.31-5.28,2.18-6.22,2.47-.94,4.48.23,5.65,3.38,1.71,4.6,3.35,9.23,5.03,13.83,1.77,4.84,3.55,9.68,5.46,14.91,4.83-5.53,8.67-11.08,6.21-18.32-4.29-12.64-13.8-19.91-26.17-24.33-6.7,11.33-9.16,23-4.52,35.5Zm15.73,154.66c-.99-3.18-1.6-6.46-1.82-9.78-.31-3.1,1.34-4.87,3.93-4.92,2.56-.06,4.03,1.62,4.37,4.71.16,2.21.55,4.4,1.14,6.53,2.34,7.33,8.4,12.17,14.92,12.16,6.42,0,12.38-4.73,14.85-11.92,2.15-5.83,1.67-12.31-1.32-17.77-2.75-5.12-6.85-8.45-12.9-8.85-.37-.03-.74-.08-1.1-.15-2.4-.49-3.91-2.31-3.7-4.45.21-2.24,2.17-3.89,4.41-3.73,7.93.1,13.99,3.81,18.62,10.02,3.84,5.14,5.49,11.06,5.64,18.11-.32,8.91-3.6,17.11-11.59,22.84-3.74,2.72-8.24,4.2-12.87,4.21-9.52,0-18.77-6.29-22.58-17.02Zm-71.02,11.98c-.13-2.44,1.34-4.04,4.01-4.38,8.09-1.03,13.15-5.87,14.86-14.21,1.64-8.02-1.88-16.7-8.25-20.35-5.51-3.17-12.18-2.03-16.67,2.89-3.18,3.56-4.96,8.15-5.01,12.93-.16,3.88-3.63,6-6.43,3.91-1-.79-1.65-1.94-1.81-3.2-.47-14.15,10.56-27.98,25.61-26.55,9.47.9,18.18,9.07,20.48,19.67.47,2.16.61,4.39.91,6.59-.15,12.4-7.52,22.96-18.25,25.84-1.61.43-3.27.68-4.93.74h-.21c-2.23.14-4.16-1.55-4.3-3.78,0-.04,0-.07,0-.11Zm47.14-67.97c-11.05-.85-20.46-10.33-21.92-22.12-.19-1.47-.29-2.96-.38-3.99.16-7.86,2.4-14.47,7.55-19.94,8.87-9.41,22.61-9.63,31.71-.46,5.12,5.11,7.98,12.07,7.93,19.31.04,2.9-1.47,4.61-3.97,4.69-2.46.07-4.03-1.59-4.38-4.42-.17-2.21-.55-4.39-1.14-6.53-2.24-6.98-7.94-11.48-14.14-11.45-6.09.04-11.73,4.52-14,11.32-2.17,5.94-1.47,12.56,1.9,17.91,2.44,4.28,6.85,7.06,11.77,7.4,3.13.28,4.68,1.88,4.5,4.47-.17,2.42-1.94,3.84-4.73,3.84-.23,0-.46,0-.69-.03Z" fill="#fff"/>
      <rect id="_사각형_339" data-name="사각형 339" width="404" height="266" fill="none"/>
    </g>
  </g>
</svg>