<?xml version="1.0" encoding="UTF-8"?>
<svg id="Layer_2" data-name="Layer 2" xmlns="http://www.w3.org/2000/svg" viewBox="0 0 106 85">
  <g id="Logo">
    <g id="symbol_03_17_0002_02" data-name="symbol 03 17 0002 02">
      <path id="_패스_832" data-name="패스 832" d="m97.21,52.35h-4.06v-4.06c-.03-2.08-1.75-3.74-3.83-3.7-2.03.03-3.67,1.67-3.7,3.7v4.06h-4.06c-2.08.03-3.74,1.75-3.7,3.83.03,2.03,1.67,3.67,3.7,3.7h4.06v4.06c.03,2.08,1.75,3.74,3.83,3.7,2.03-.03,3.67-1.67,3.7-3.7v-4.06h4.06c2.08-.03,3.74-1.75,3.7-3.83-.03-2.03-1.67-3.67-3.7-3.7" fill="#fff"/>
      <path id="_패스_833" data-name="패스 833" d="m4.27,26.12v53.75h14.93V11.19L4.27,4.93v21.19Z" fill="#fff"/>
      <rect id="_사각형_161" data-name="사각형 161" width="106" height="85" fill="none"/>
    </g>
  </g>
</svg>