<?xml version="1.0" encoding="UTF-8"?>
<svg id="_레이어_2" data-name="레이어 2" xmlns="http://www.w3.org/2000/svg" viewBox="0 0 95 100">
  <g id="Tag">
    <g id="symbol_03_24_0001_01" data-name="symbol 03 24 0001 01">
      <path id="_패스_602" data-name="패스 602" d="M63.06,44.9c-1.08-.1-2.16-.12-3.24-.06h-7.84c.06-3.94,.02-7.88,.02-11.82,0-3.17,.03-6.35-.02-9.52,.08-1.94-1.41-3.59-3.35-3.71-1.85-.18-3.02,.83-3.89,2.39-5.47,9.75-10.96,19.48-16.47,29.21-2.16,3.84-.07,7.46,4.32,7.48,3.34,.01,6.68,0,10.22,0v1.49c0,6.56,0,13.11,0,19.67-.14,2.02,1.38,3.78,3.4,3.92,.25,.02,.5,0,.75-.02,1.39-.19,2.59-1.1,3.13-2.39,4.13-7.35,8.27-14.69,12.41-22.02,1.43-2.54,2.91-5.06,4.29-7.64,1.31-2.18,.61-5.01-1.57-6.32-.66-.4-1.41-.62-2.17-.65Z" fill="#fff"/>
      <rect id="_사각형_81" data-name="사각형 81" width="95" height="100" fill="none"/>
      <circle id="_타원_4" data-name="타원 4" cx="19.27" cy="17.98" r="2.33" fill="#fff"/>
      <path id="_패스_603" data-name="패스 603" d="M47.43,4.5c-5.11,0-10.17,.85-15,2.52-1.04-1.51-2.37-1.77-4.08-.8-.31,.16-.61,.34-.89,.54-.51,.41-1.24,.43-1.77,.04-1.03-.34-1.61-1.42-1.34-2.46,.03-.32,.03-.63,0-.95,.01-1.47-1.18-2.68-2.65-2.69h0c-1.81-.05-3.61-.05-5.42,0-1.48,0-2.67,1.21-2.67,2.68-.04,.66,.01,1.34-.04,2-.01,.3-.13,.58-.34,.79-1.46,1.17-1.7,1.17-3.36,.21-.18-.11-.36-.22-.54-.31-1.25-.82-2.92-.47-3.74,.78-.05,.08-.1,.15-.14,.23-.91,1.5-1.77,3.02-2.6,4.56-.8,1.27-.42,2.95,.85,3.75,.05,.03,.1,.06,.15,.09,.43,.3,.88,.56,1.35,.79,.64,.28,.73,.73,.8,1.4,.26,1.09-.39,2.19-1.47,2.49-.26,.11-.5,.25-.72,.42-1.3,.74-1.76,2.4-1.02,3.7,.01,.02,.02,.04,.03,.06,.84,1.58,1.72,3.13,2.65,4.65,.17,.28,.38,.54,.63,.76C2.52,36.55,.66,44.14,.67,51.83c0,26.1,20.98,47.33,46.76,47.33s46.76-21.23,46.76-47.33S73.22,4.5,47.43,4.5ZM24.43,31.75c-.38-1.56,.63-2.21,1.78-2.71,.28-.07,.58-.04,.84,.1,.59,.29,1.14,.67,1.73,.96,1.25,.74,2.87,.33,3.62-.92,0-.02,.02-.03,.03-.05,.98-1.58,1.89-3.19,2.76-4.83,.76-1.28,.35-2.93-.93-3.7-.28-.2-.59-.37-.89-.54-1.46-.84-1.59-1.06-1.31-2.75,.05-.3,.47-.63,.79-.77,3.85-1.72,7.98-2.71,12.19-2.91,11.89-.56,22.03,3.48,30.18,12.28,5.45,5.84,8.86,13.29,9.73,21.23,2.53,19.91-10.78,38.37-30.46,42.28-19.8,3.94-39.58-9.2-43.91-29.2-1.89-8.33-.94-17.05,2.69-24.77,.19-.41,.39-.81,.66-1.34,.9,1.28,2.14,1.34,3.41,1.33,1.32-.02,2.64,.02,3.96-.02,2.11-.07,3.07-1.08,3.15-3.23,.02-.14,.02-.28,0-.41h0ZM8.56,9.17c.8,.47,1.54,.86,2.25,1.33,.75,.59,1.82,.54,2.51-.11,.76-.57,1.58-1.05,2.45-1.43,.87-.3,1.42-1.15,1.33-2.07-.03-.85,0-1.71,0-2.63h4.36c0,.84,.02,1.68,0,2.52-.12,.99,.48,1.92,1.43,2.21,.84,.36,1.64,.82,2.35,1.39,.65,.64,1.68,.72,2.42,.18,.71-.46,1.47-.85,2.35-1.35,.72,1.25,1.43,2.48,2.19,3.81-.8,.48-1.57,.97-2.36,1.4-.8,.38-1.24,1.25-1.07,2.11,.09,.98,.09,1.98,0,2.96-.18,.86,.25,1.74,1.05,2.13,.78,.42,1.52,.89,2.38,1.39-.72,1.27-1.42,2.5-2.17,3.83-.86-.49-1.67-.94-2.48-1.41-.67-.44-1.55-.38-2.16,.14-.86,.6-1.77,1.13-2.72,1.58-.75,.29-1.24,1.03-1.2,1.84,0,.89,0,1.78,0,2.76h-4.37c0-.85-.02-1.72,0-2.59,.08-.91-.46-1.77-1.33-2.07-.91-.44-1.79-.96-2.62-1.55-.59-.5-1.43-.55-2.08-.13-.79,.47-1.58,.93-2.51,1.47-.73-1.27-1.45-2.53-2.21-3.84,.82-.49,1.6-.98,2.4-1.42,.79-.39,1.22-1.27,1.03-2.14-.1-.95-.1-1.91,0-2.86,.2-.9-.25-1.81-1.08-2.2-.77-.41-1.52-.89-2.35-1.38l2.21-3.85ZM47.43,97.1c-24.66,0-44.72-20.31-44.72-45.27,0-7.49,1.84-14.86,5.37-21.47,.41-.06,.81-.18,1.18-.38,.32-.14,.62-.32,.9-.53,.56-.66,1.54-.74,2.2-.18,.11,.1,.21,.21,.29,.33-8.17,14.77-8.8,29.67,.14,44.11s22.44,20.47,39.16,19.47c2.39-.25,4.76-.72,7.07-1.4,1.97-.59,3.89-1.32,5.76-2.19,1.4-.65,2.57-1.29,3.47-1.82,5.82-3.88,10.81-8.89,14.65-14.74,3.14-5.57,5-11.78,5.45-18.16,.35-5.69-.39-11.39-2.18-16.8-6.97-20.53-29.22-32.23-49.84-26.19-.74,.22-1.11,.14-1.47-.58-.42-.83-.87-1.65-1.34-2.46,4.49-1.5,9.19-2.27,13.92-2.27,24.66,0,44.72,20.31,44.72,45.27s-20.06,45.26-44.72,45.26Z" fill="#fff"/>
    </g>
  </g>
</svg>