<?xml version="1.0" encoding="UTF-8"?>
<svg id="_레이어_2" data-name="레이어 2" xmlns="http://www.w3.org/2000/svg" viewBox="0 0 110 110">
  <g id="Logo">
    <g id="symbol_06_01_0004_01" data-name="symbol 06 01 0004 01">
      <rect id="_사각형_307" data-name="사각형 307" width="110" height="110" fill="none"/>
      <path id="_패스_1156" data-name="패스 1156" d="M102.3,2H7.61c-2.91,0-5.27,2.36-5.27,5.27V101.96c0,2.91,2.36,5.27,5.27,5.27H102.3c2.91,0,5.27-2.36,5.27-5.27h0V7.27c0-2.91-2.36-5.27-5.27-5.27h0Zm-8.73,94.66c0,1.25-1.02,2.27-2.27,2.27H18.26c-1.25,0-2.27-1.02-2.27-2.27h0V62.45c-.03-1.25,.97-2.29,2.22-2.32,1.25-.03,2.29,.97,2.32,2.22,0,.03,0,.06,0,.1v31.95h25.65c-.05-.21-.07-.42-.07-.63v-18.43c0-1.6,1.3-2.9,2.9-2.9h11.53c1.6,0,2.9,1.3,2.9,2.9v18.43c0,.21-.02,.42-.07,.63h25.65v-31.94c0-1.25,1.02-2.27,2.27-2.27s2.27,1.02,2.27,2.27v34.21Zm-21.84-28.8h3.1c.5,0,.91,.41,.91,.91h0v4.49c0,.5-.41,.91-.91,.91h-3.1c-.5,0-.91-.41-.91-.91h0v-4.49c0-.5,.4-.91,.91-.91h0Zm-.91-1.97v-4.49c0-.5,.41-.91,.91-.91h3.1c.5,0,.91,.41,.91,.91h0v4.49c0,.5-.41,.91-.91,.91h-3.1c-.5,0-.91-.41-.91-.91h0s0,0,0,0Zm6.98,1.98h3.1c.5,0,.91,.41,.91,.91h0v4.49c0,.5-.41,.91-.91,.91h-3.1c-.5,0-.91-.41-.91-.91h0v-4.49c0-.5,.4-.91,.91-.91h0Zm-.91-1.97v-4.49c0-.5,.41-.91,.91-.91h3.1c.5,0,.91,.41,.91,.91h0v4.49c0,.5-.41,.91-.91,.91h-3.1c-.5,0-.91-.41-.91-.91h0s0,0,0,0Zm17.69-10.51c-.76,.31-1.58,.44-2.4,.38l-74.65,.04c-.87,.07-1.74-.07-2.55-.41-1.31-.69-1.82-2.3-1.14-3.62,.4-.76,1.13-1.28,1.97-1.41,.63,0,1.25-.08,1.85-.27,.9-.46,1.03-1.67,1.09-2.68,1.08-14.25,10.53-26.5,24.04-31.17l.2,6.57c.04,1.29,.26,2.86,1.46,3.35,1.09,.3,2.24-.22,2.73-1.24,.44-1.01,.63-2.1,.56-3.2l.09-9.14c-.14-1.14,.19-2.29,.91-3.18,.7-.53,1.55-.81,2.43-.81,2.4-.22,4.81-.21,7.21,.05,.76,.01,1.5,.26,2.11,.7,.68,.79,1.02,1.82,.93,2.86,.12,2.99,.15,5.99,.09,8.98-.1,1.06,.03,2.13,.39,3.13,.4,1.02,1.44,1.64,2.53,1.49,1.39-.34,1.78-2.1,1.85-3.53,.1-2.06,.11-4.12,0-6.18,2.41,.71,4.72,1.71,6.89,2.98,3.3,1.92,6.28,4.36,8.82,7.22,2.44,2.78,4.43,5.92,5.89,9.32,1.46,3.38,2.36,6.97,2.67,10.64,.13,1.6,.44,3.6,1.98,4.05,.4,.08,.8,.13,1.21,.15l.13,.02c1.42,.27,2.36,1.63,2.09,3.05-.15,.8-.66,1.48-1.39,1.85h0Z" fill="#fff"/>
    </g>
  </g>
</svg>