<?xml version="1.0" encoding="UTF-8"?>
<svg id="_레이어_2" data-name="레이어 2" xmlns="http://www.w3.org/2000/svg" viewBox="0 0 136 122">
  <g id="Logo">
    <g>
      <g>
        <path d="M134.39,69.22c-.49-.32-1-.62-1.5-.92-1.99-1.19-11.14-7.26-27-16.19-.55-.31-1-.56-1.29-.72-.42-.14-1.05-.31-1.83-.31-.67,0-1.2,.12-1.48,.2-.92,.25-1.54,.68-1.75,.83-.58,.39-3.51,2.08-9.33,5.55-.49,.29-.98,.57-1.58,.91v-4.63c.36-.04,.62-.07,.89-.09,1.79-.16,2.47-.88,2.48-2.71,.02-2.46,.02-4.92,0-7.38-.02-1.62-.82-2.55-2.36-2.56-1.84-.02-3.68-.02-5.52-.02l-.03-37.68c0-1.25-.88-2.26-1.96-2.26H33.81c-.52,0-1.02,.24-1.39,.66-.37,.42-.57,1-.57,1.6v14.36s-8.2,0-8.2,0c-3.56,0-7.13,0-10.69,0-2.53,0-4.45,1.85-4.47,4.28-.02,2.42,1.86,4.3,4.38,4.37h.31c.11,.01,.22,.02,.33,.02-.02,2.16,0,4.32,0,6.43h-1.91c-2.08,0-4.01,.64-5.74,1.9-2.5,1.81-3.94,4.26-4.3,7.27-.07,.23-.11,.47-.11,.72v14.94c0,.06,0,.13,0,.19,.01,9.33,.01,18.66,0,27.98,0,.07,0,.13,0,.2v14.94c0,.07,0,.14,0,.21,0,.31,0,.66,.02,1.1,.15,5.11,4.04,9.36,8.99,9.96,1.57,4.9,5.85,8.16,10.85,8.18,4.22,.02,8.74,.04,13.37,.04,3.88,0,7.84-.01,11.76-.05,4.62-.05,8.18-2.37,10.3-6.73,.26-.54,.39-1.08,.49-1.52,.03,0,.05,0,.07,0,.41-.04,.92-.08,1.45-.23,4.75-1.33,7.5-5.3,7.55-10.91,0-.17,0-.32-.01-.46v-5.4c0-.12,.01-.25,.01-.39-.03-14.53-.03-29.48,0-44.43,0-.14,0-.26,0-.37v-7.15c0-.19-.02-.37-.07-.54-.49-5.31-4.83-9.42-10.04-9.43-.65,0-1.3,0-1.94,0v-.96c0-1.79,.02-3.63,0-5.46,.34,0,.67-.03,.98-.05,1.39-.1,2.61-.82,3.36-1.97,.73-1.13,.88-2.5,.43-3.77-.39-1.08-1.48-2.9-4.47-2.9-4.99,0-9.97,0-14.96,0h-3.77s0-12.09,0-12.09h44.39l.03,35.42c-1.69,0-3.38,0-5.06,.02-1.36,.01-2.26,.87-2.29,2.21-.07,2.73-.07,5.47,0,8.2,.03,1.34,.82,2.06,2.13,2.21,.39,.05,.79,.08,1.31,.12,0,3.69-.03,7.33,.02,10.96,.01,.86-.3,1.3-1.01,1.7-1.5,.83-2.97,1.73-4.43,2.64-.9,.56-1.29,1.42-1,2.46,.28,1.02,1.02,1.59,2.07,1.67,.54,.04,1.08,0,1.84,0v1.79c0,13.85,0,27.7,0,41.55,0,2.77,.6,3.38,3.32,3.38,17.03,0,34.07,0,51.1,0,2.71,0,3.35-.66,3.35-3.39,0-13.9,0-27.79,0-41.69v-1.63c.7,0,1.2,.02,1.69,0,1.05-.05,1.83-.54,2.13-1.58,.31-1.08-.03-1.98-.99-2.59ZM39.55,22.47c3.74,0,7.48,0,11.23,0-.06,.05-.12,.1-.18,.15-1,.92-.98,2.2-.97,2.68,.04,2.22,.03,4.5,.02,6.7v1.86c0,.33-.05,.46-.05,.46-.33,.71-.27,1.55,.15,2.21,.42,.66,1.15,1.07,1.93,1.07h1.93c.85,0,1.71,0,2.56,0,2.93,0,5.35,2.42,5.51,5.48,0,.09,.01,.17,.03,.25v6.85c0,.06,0,.12,0,.18,0,.03,0,.07,0,.11-.03,14.95-.03,29.9,0,44.45,0,.05,0,.09,0,.13,0,.06,0,.11,0,.17v5.56c0,.07,0,.13,0,.2,0,.03,0,.07,0,.12-.02,2.44-.77,5.55-4.2,6.51-.12,.03-.39,.06-.62,.08-.79,.07-1.87,.16-2.79,.94-.93,.79-1.18,1.89-1.35,2.62-.04,.18-.1,.45-.14,.54-1.34,2.76-3.38,4.11-6.23,4.14-8.54,.09-17.32,.05-25.06,.02-3.19-.01-5.8-2.15-6.65-5.44-.44-1.69-1.55-2.59-3.29-2.68-2.86-.15-5.26-2.64-5.35-5.56-.01-.4-.02-.81-.01-1.04,0-.13,0-.27-.01-.4v-14.47c0-.06,0-.13,0-.19,.01-9.46,.01-18.91,0-28.37,0-.06,0-.12,0-.18v-14.25c.02-.11,.04-.22,.05-.33,.14-1.9,.92-3.3,2.46-4.42,.94-.68,1.97-1.03,3.07-1.03h4.46c.78,0,1.51-.41,1.93-1.08,.42-.67,.47-1.51,.13-2.22,0,0-.03-.08-.03-.3v-.81c-.01-2.65-.02-5.38,.01-8.06,0-.4,.02-1.61-.93-2.5-.06-.06-.12-.11-.19-.16,2.22,0,4.45,0,6.67,0h15.9Zm62.13,33.57c.45-.26,1.26-.38,1.66-.15,7.01,4.13,13.99,8.32,20.98,12.51,.07,.04,.13,.12,.36,.34h-44.25c2.92-1.75,5.5-3.3,8.08-4.85,4.38-2.63,8.76-5.27,13.17-7.85Zm-20.97-1.46c0-.17,.08-.34,.13-.57h3.27c0,2.32,.02,4.62-.02,6.91,0,.24-.29,.55-.52,.7-.86,.55-1.75,1.05-2.86,1.7,0-3.13,0-5.93,0-8.74Zm-3.3-8.82h10.07v3.51h-10.07v-3.51Zm30.53,69.67h-10.65v-20.32h10.65v20.32Zm19.06,.08h-14.49v-1.56c0-6.65,0-13.3,0-19.95,0-2.81-.57-3.4-3.3-3.4-4.52,0-9.03,0-13.55,0-2.13,0-2.85,.72-2.85,2.85,0,6.83,0,13.66,0,20.49v1.55h-14.53v-41.99h48.72v41.99Z" fill="#fff"/>
        <path d="M33.87,87.31h.07c2.29-.02,4.39-1.17,5.63-3.07,1.23-1.89,1.44-4.28,.56-6.39-.98-2.36-2.37-4.39-3.71-6.37l-.13-.19h0c-.25-.37-1-1.48-2.42-1.48h0c-.65,0-1.59,.25-2.37,1.4l-.39,.58c-1.32,1.94-2.68,3.95-3.6,6.31-.8,2.06-.53,4.39,.73,6.22,1.28,1.87,3.38,2.98,5.63,2.98Zm-2.1-7.52c.52-1.34,1.26-2.6,2.1-3.87,.79,1.22,1.5,2.43,2.04,3.72,.29,.7,.23,1.45-.17,2.06-.41,.62-1.08,.98-1.85,.99-.75,.02-1.45-.35-1.89-.98-.4-.58-.48-1.28-.23-1.92Z" fill="#fff"/>
        <path d="M14.96,75.36c-.64,5.13,1.01,10.38,4.53,14.41,3.66,4.19,8.87,6.6,14.31,6.61h.1c6.46,0,12.44-3.31,16.01-8.88,3.41-5.32,3.91-11.85,1.35-17.48-3.87-8.51-9.33-15.71-13.65-21.04-.96-1.19-2.27-1.84-3.67-1.84h0c-1.52,0-2.98,.76-4.1,2.15-4.5,5.55-7.85,10.35-10.53,15.09-1.79,3.17-3.83,6.76-4.35,10.98Zm4.54,.58c.41-3.31,2.13-6.34,3.79-9.27,2.55-4.51,5.76-9.1,10.1-14.45,.28-.35,.51-.45,.51-.46,.02,0,.08,.05,.17,.16,4.15,5.11,9.38,12.01,13.04,20.04,1.93,4.25,1.55,9-1.04,13.05-2.72,4.24-7.26,6.77-12.16,6.77-.03,0-.06,0-.09,0-4.13,0-8.1-1.85-10.89-5.05-2.65-3.04-3.9-6.97-3.43-10.78Z" fill="#fff"/>
      </g>
      <rect width="136" height="122" fill="none"/>
    </g>
  </g>
</svg>