<?xml version="1.0" encoding="UTF-8"?>
<svg id="Layer_2" data-name="Layer 2" xmlns="http://www.w3.org/2000/svg" viewBox="0 0 276 168">
  <g id="Logo">
    <g id="symbol_05_03_0003_01" data-name="symbol 05 03 0003 01">
      <path id="_패스_1138" data-name="패스 1138" d="m174.85,157.7c-41.91-.05-75.88-34.01-75.92-75.93V15.97H27.64c-1.65,0-2.98-1.34-2.98-2.98,0-1.65,1.34-2.98,2.98-2.98h0s74.27,0,74.27,0c1.65,0,2.98,1.34,2.98,2.98v68.79c.01,38.64,31.34,69.95,69.98,69.94,38.64-.01,69.95-31.34,69.94-69.98,0-28.59-17.41-54.29-43.94-64.92l-12.06,30.48c3.71,5.9,17.06,29.48,8.64,51.28-6.01,15.56-21.63,26.39-46.44,32.19-1.23.29-2.5-.23-3.18-1.28-.69-1.07-16.87-26.47-8.65-50.11,4.71-13.54,16.39-23.55,34.73-29.76,1.56-.53,3.26.31,3.78,1.87s-.31,3.26-1.87,3.78c-16.51,5.59-26.94,14.36-31.01,26.07-6.12,17.58,3.61,37.17,6.96,43.11,21.52-5.42,35.01-14.83,40.11-27.99,8.38-21.65-8.69-46.88-8.86-47.13-.56-.82-.68-1.87-.32-2.79l13.71-34.64c.59-1.49,2.26-2.25,3.77-1.72,39.54,13.98,60.26,57.37,46.27,96.91-10.73,30.34-39.41,50.62-71.59,50.62" fill="#fff"/>
      <path id="_패스_1139" data-name="패스 1139" d="m55.82,157.7c-17.21,0-31.17-13.95-31.17-31.17,0-17.21,13.95-31.17,31.17-31.17s31.17,13.95,31.17,31.17h0c-.02,17.2-13.96,31.15-31.17,31.17m0-56.36c-13.92,0-25.2,11.28-25.2,25.2s11.28,25.2,25.2,25.2,25.2-11.28,25.2-25.2c-.01-13.91-11.29-25.19-25.2-25.2" fill="#fff"/>
      <rect id="_사각형_300" data-name="사각형 300" width="276" height="168" fill="none"/>
    </g>
  </g>
</svg>