<?xml version="1.0" encoding="UTF-8"?>
<svg id="Layer_2" data-name="Layer 2" xmlns="http://www.w3.org/2000/svg" viewBox="0 0 154 141">
  <g id="Logo">
    <g id="symbol_03_06_0001" data-name="symbol 03 06 0001">
      <path id="_패스_530" data-name="패스 530" d="m130.6,12h-9.62c3.43,2.18,6.65,4.66,9.62,7.44v-7.44Z" fill="#fff"/>
      <path id="_패스_531" data-name="패스 531" d="m55.1,12c-13.4,7.53-23.63,19.64-28.79,34.12h18.93c11.68-22.52,39.41-31.31,61.93-19.64,8.41,4.36,15.27,11.22,19.64,19.64h3.8v-23.8c-4.07-4.04-8.67-7.51-13.67-10.32h-61.83Z" fill="#fff"/>
      <path id="_패스_532" data-name="패스 532" d="m86.02,37.36c7.93-.01,15.54,3.14,21.15,8.76h17.31c-11.67-21.24-38.35-28.99-59.58-17.32-7.3,4.01-13.31,10.02-17.32,17.32h17.3c5.6-5.62,13.21-8.77,21.15-8.76" fill="#fff"/>
      <path id="_패스_533" data-name="패스 533" d="m51.06,12H14.14v34.12h9.98c4.84-14.1,14.34-26.14,26.94-34.12" fill="#fff"/>
      <path id="_패스_534" data-name="패스 534" d="m86.02,39.41c-6.64,0-13.06,2.38-18.1,6.71h36.21c-5.04-4.33-11.46-6.71-18.11-6.71" fill="#fff"/>
      <path id="_패스_535" data-name="패스 535" d="m88.06,97.18c-4.75,0-9.43-1.13-13.65-3.3h-21.23c14.66,19.26,42.16,22.99,61.43,8.33,3.14-2.39,5.94-5.19,8.33-8.33h-21.23c-4.22,2.17-8.9,3.3-13.65,3.3" fill="#fff"/>
      <path id="_패스_536" data-name="패스 536" d="m28.32,93.88H8v34.12h55.77c-15.8-6.34-28.51-18.58-35.46-34.12" fill="#fff"/>
      <path id="_패스_537" data-name="패스 537" d="m124.46,128v-6.39c-3.8,2.55-7.85,4.69-12.1,6.39h12.1Z" fill="#fff"/>
      <path id="_패스_538" data-name="패스 538" d="m96.33,93.88h-16.53c5.38,1.67,11.14,1.67,16.53,0" fill="#fff"/>
      <path id="_패스_539" data-name="패스 539" d="m88.06,113.22c-14.88,0-28.83-7.2-37.44-19.33h-20.03c7.67,16.49,22.03,28.9,39.45,34.12h36.04c6.57-1.95,12.77-4.96,18.37-8.91v-23.79c-8.69,11.3-22.14,17.92-36.39,17.91" fill="#fff"/>
      <path id="_패스_540" data-name="패스 540" d="m86.02,55.1c-6.72,0-12.17,5.45-12.17,12.17s5.45,12.17,12.17,12.17,12.17-5.45,12.17-12.17c0-6.72-5.45-12.16-12.17-12.17" fill="#fff"/>
      <path id="_패스_541" data-name="패스 541" d="m113.88,67.27c0-5.05-1.37-10-3.98-14.33h-47.77c-6.62,11-4.84,25.1,4.29,34.12h39.19c5.29-5.22,8.27-12.35,8.27-19.79m-27.86,14.22c-7.85,0-14.21-6.37-14.21-14.22s6.37-14.21,14.22-14.21c7.85,0,14.21,6.36,14.21,14.21,0,7.85-6.36,14.22-14.22,14.22h0" fill="#fff"/>
      <path id="_패스_542" data-name="패스 542" d="m115.93,67.27c0,7.29-2.66,14.33-7.49,19.79h16.75c5.37-10.59,6.21-22.9,2.32-34.12h-15.23c2.4,4.39,3.66,9.32,3.65,14.33" fill="#fff"/>
      <path id="_패스_543" data-name="패스 543" d="m46.85,87.06h16.75c-8.33-9.43-9.87-23.07-3.84-34.12h-15.23c-3.89,11.22-3.05,23.53,2.32,34.12" fill="#fff"/>
      <path id="_패스_544" data-name="패스 544" d="m42.36,52.94h-12.3v34.12h14.48c-5.08-10.67-5.86-22.89-2.18-34.12" fill="#fff"/>
      <path id="_패스_545" data-name="패스 545" d="m129.67,52.94c3.68,11.23,2.9,23.45-2.18,34.12h18.7c.11-.33.22-.67.33-1v-33.12h-16.85Z" fill="#fff"/>
      <path id="_패스_546" data-name="패스 546" d="m146.52,87.06v-1c-.1.34-.22.67-.33,1h.33Z" fill="#fff"/>
      <rect id="_사각형_2" data-name="사각형 2" width="154" height="141" fill="none"/>
    </g>
  </g>
</svg>