<?xml version="1.0" encoding="UTF-8"?>
<svg id="Layer_2" data-name="Layer 2" xmlns="http://www.w3.org/2000/svg" viewBox="0 0 140 140">
  <g id="Logo">
    <g id="symbol_16_07_0002_01" data-name="symbol 16 07 0002 01">
      <path id="_패스_1408" data-name="패스 1408" d="m128.9,94.65c5.23-3.23,6.85-10.09,3.62-15.32-1.15-1.86-2.82-3.34-4.8-4.26-.7-.25-1.13-.95-1.04-1.69.03-11.2.03-22.4.02-33.61,0-1.38-.44-3.07.21-4.04s2.38-1.18,3.64-1.72c1.12-.48,2.24-.94,3.56-1.49-.5-.24-.72-.36-.95-.45-20.75-8.32-41.51-16.64-62.27-24.94-.65-.2-1.36-.17-1.99.09C48.34,15.44,27.78,23.69,7.23,31.96c-.36.14-.7.32-1.23.56.53.23.82.37,1.12.49,20.59,8.27,41.19,16.54,61.78,24.82.76.32,1.63.31,2.38-.04,14.29-5.73,28.58-11.45,42.87-17.16,1.62-.65,3.24-1.28,4.96-1.96.03.43.07.71.07.99,0,11.33,0,22.66.02,33.99.05.62-.34,1.19-.94,1.36-3.88,1.66-6.43,5.42-6.54,9.64-.31,4.12,1.79,8.05,5.39,10.07.64.25.96.97.71,1.61-.02.06-.05.12-.08.18-1.84,5.41-3.63,10.84-5.43,16.27-.14.42-.27.84-.43,1.32l7.1,2.35c1.31-3.88,2.57-7.64,3.83-11.4h.27c1.26,3.76,2.53,7.53,3.83,11.4l7.12-2.36c-1.97-5.93-3.87-11.71-5.84-17.47-.38-.66-.15-1.5.52-1.88.06-.04.13-.07.19-.09m-6.11-3.31c-3.33,0-6.03-2.7-6.03-6.03s2.7-6.03,6.03-6.03,6.03,2.7,6.03,6.03h0c0,3.33-2.7,6.03-6.03,6.03" fill="#fff"/>
      <path id="_패스_1409" data-name="패스 1409" d="m102.31,53.41c-10.41,4.18-20.82,8.37-31.23,12.57-.68.3-1.45.29-2.12-.02-10.4-4.21-20.81-8.39-31.23-12.56-.48-.19-.97-.34-1.52-.53,0,3.49-.06,6.84.02,10.18.1,2.74,1.12,5.37,2.9,7.46,3.17,3.95,7.43,6.3,12.11,7.91,9.87,3.31,20.45,3.96,30.65,1.88,5.8-1.08,11.3-3.01,15.99-6.74,3.29-2.61,5.7-5.83,5.93-10.18.18-3.46.04-6.93.04-10.54-.61.23-1.08.4-1.54.59" fill="#fff"/>
      <path id="_패스_1410" data-name="패스 1410" d="m70.01,126.91c-23.5-6.51-39.87-22.08-48.64-46.28-4.04-11.3-6.15-23.2-6.22-35.19.06-1.9-1.43-3.48-3.33-3.54-1.9-.06-3.48,1.43-3.54,3.33h0c.01,12.8,2.23,25.49,6.55,37.53,9.42,26.17,27.87,43.73,53.35,50.78,1.83.51,3.72-.57,4.23-2.39.51-1.83-.57-3.72-2.4-4.23" fill="#fff"/>
      <rect id="_사각형_687" data-name="사각형 687" width="140" height="140" fill="none"/>
    </g>
  </g>
</svg>