<?xml version="1.0" encoding="UTF-8"?>
<svg id="Layer_2" data-name="Layer 2" xmlns="http://www.w3.org/2000/svg" viewBox="0 0 312 312">
  <g id="Logo">
    <g id="symbol_02_01_0004_01" data-name="symbol 02 01 0004 01">
      <path id="_합치기_42" data-name="합치기 42" d="m245.64,283.78c-.39-1.23-.46-2.55-.2-3.82,3.57-16.33,7.18-32.66,10.84-48.98,1.02-4.55,2.04-9.11,3.08-13.66,5.13,0,8.11-2.62,9.68-7.1v-14.55c-1.28-1.82-2.56-3.64-3.84-5.47-.75-.81-1.37-1.74-1.84-2.74-1.24-4.22-2.4-8.47-3.4-12.75-.44-2.19-1.99-3.99-4.09-4.73-6.48-2.75-12.92-5.59-19.33-8.5-1.11-.51-2.09-1.27-2.85-2.22-3.93-5.04-7.8-10.12-11.59-15.26-1.24-1.86-3.41-2.88-5.63-2.64-8.14.4-16.29.62-24.44,1-1.38.13-2.74-.39-3.68-1.41-5.11-5.07-10.23-10.13-15.53-15-1.48-1.37-3.29-2.34-5.26-2.81-11.63-2.41-23.33-4.51-34.97-6.9-2.44-.66-5.04.16-6.65,2.11-7.96,8.35-16.01,16.6-24.08,24.84-.76.78-1.68,1.38-2.69,1.76-10.32,3.57-20.65,7.13-31.03,10.54-2.12.62-3.85,2.16-4.71,4.19-4.41,9.27-8.91,18.5-13.48,27.7-.54,1-1.33,1.85-2.28,2.47-2.03,1.39-3.85,3.1-3.98,5.54-.27,5.04-.62,10.17.05,15.12.64,4.78,4.53,6.7,9.19,6.89.14.36.26.72.36,1.09,4.6,20.69,9.19,41.38,13.77,62.08.17,1.07.06,2.16-.31,3.17-.64,1.92-1.06,3.9-1.26,5.91C.07,239.55-12.35,145.9,37.75,80.49,87.85,15.07,181.49,2.65,246.91,52.75s77.84,143.74,27.74,209.16c-7.99,10.44-17.33,19.78-27.78,27.77-.19-2-.6-3.98-1.22-5.89Zm-9.12-95.23v-17.36c4.05,1.76,7.86,3.58,11.8,5.07,2.41.91,3.83,2.23,4.25,4.86.39,2.44,1.2,4.81,1.88,7.43h-17.93Zm-109.68,0v-13.36c6.05,1.96,11.6,3.75,17.37,5.62-.59,2.62-1.17,5.15-1.75,7.74h-15.62Zm24.72,0c.55-2.49,1.05-4.85,1.62-7.18.15-.4.45-.74.84-.94,6.61-3.64,13.23-7.25,20.1-10.99,2.67,6.51,5.22,12.71,7.84,19.11h-30.4Zm-49.18,0c-1.24-10.45,2.04-20.25,3.46-30.87,1.47,1.55,2.59,2.73,3.7,3.91,2.57,2.73,5.16,5.44,7.67,8.21.55.55.91,1.27,1,2.04-.12,5.49-.37,10.99-.59,16.71h-15.25Zm-43.13-.02c3.56-7.35,7.07-14.57,10.7-22.06,7.63,4.68,15.07,9.22,22.47,13.8.47.31.79.8.88,1.36.09,2.26.04,4.52.04,6.9h-34.1Zm144.27-.06c8.19-5.41,15.93-10.54,23.91-15.82v15.82h-23.91Zm-15.27-7.89c-2.1-5.07-4.15-10.16-6.31-15.21-.51-.96-.37-2.15.36-2.96,2.47-3.28,4.82-6.64,7.29-9.92.43-.63,1.09-1.08,1.83-1.25,5.92-.32,11.85-.51,18.27-.76-6.84,11.08-13.44,21.78-20.27,32.85-.47-1.12-.82-1.93-1.17-2.75Zm15.19-3.19c4.85-7.86,9.7-15.71,14.73-23.87,2.51,3.31,4.88,6.44,7.41,9.76-7.36,4.88-14.6,9.67-21.83,14.46l-.31-.35Zm-55.68-4.72c-5.12-1.54-10.18-3.26-15.77-5.08,3.88-3.09,7.42-5.91,10.96-8.73,1.96-1.55,3.88-3.15,5.89-4.62.53-.39,1.21-.52,1.85-.35,5.4,2.95,10.73,6,16.37,9.17-.82.53-1.37.94-1.97,1.27-4.82,2.65-9.62,5.32-14.49,7.89-.66.34-1.38.54-2.13.55-.24,0-.48-.03-.71-.1Zm-69.29-11.32c6.48-2.21,12.49-4.27,18.97-6.48-1.01,5.69-1.93,10.85-2.9,16.33-5.37-3.29-10.46-6.41-16.07-9.85Zm30.72-13c6.82-7.04,13.55-13.99,20.44-21.1,4.62,6.66,9.13,13.16,13.81,19.91-6.7,5.35-13.39,10.68-20.21,16.12-4.69-4.98-9.3-9.89-14.04-14.93h0Zm47.3-1.37c4.04-4.31,7.97-8.51,12.12-12.96,4.33,4.76,8.55,9.4,13.02,14.31-1.8,2.48-4.12,5.68-6.59,9.08l-18.55-10.44Zm-16.47-20.24l19.75,3.82c-3.39,3.62-6.56,6.99-9.85,10.49-3.32-4.8-6.44-9.31-9.9-14.31h0Z" fill="#fff"/>
      <rect id="_사각형_398" data-name="사각형 398" width="312" height="312" fill="none"/>
    </g>
  </g>
</svg>