<?xml version="1.0" encoding="UTF-8"?>
<svg id="Layer_2" data-name="Layer 2" xmlns="http://www.w3.org/2000/svg" viewBox="0 0 270 270">
  <g id="Logo">
    <g id="symbol_16_07_0003_01" data-name="symbol 16 07 0003 01">
      <path id="_패스_1411" data-name="패스 1411" d="m45.9,136.77c0-13.63,11.05-24.68,24.68-24.68,13.63,0,24.68,11.05,24.68,24.68,0,13.63-11.05,24.68-24.68,24.68h0c-13.63,0-24.68-11.05-24.68-24.68" fill="#fff"/>
      <path id="_패스_1412" data-name="패스 1412" d="m174.6,136.77c0-13.63,11.05-24.68,24.68-24.68,13.63,0,24.68,11.05,24.68,24.68s-11.05,24.68-24.68,24.68h0c-13.63,0-24.68-11.05-24.68-24.68" fill="#fff"/>
      <path id="_패스_1413" data-name="패스 1413" d="m6.24,240.78c-5.45-35.23,22.59-67.21,57.4-70.57,30.44-3.22,60.36,15.24,69.39,44.7,2.55,8.37,3.2,17.21,1.9,25.87-13.57-76.76-115.2-76.73-128.7,0" fill="#fff"/>
      <path id="_패스_1414" data-name="패스 1414" d="m134.93,240.78c-5.45-35.23,22.59-67.21,57.4-70.57,30.44-3.22,60.36,15.24,69.39,44.7,2.55,8.37,3.2,17.21,1.9,25.87-13.57-76.76-115.2-76.73-128.7,0" fill="#fff"/>
      <path id="_패스_1415" data-name="패스 1415" d="m13.94,156.6C7.92,87.65,66.42,28.45,134.93,29c68.51-.59,127.06,58.67,120.99,127.6-4.06-54.47-44.67-102.47-98.65-112.26C85.55,30.44,19.45,84.48,13.94,156.6" fill="#fff"/>
      <rect id="_사각형_688" data-name="사각형 688" width="270" height="270" fill="none"/>
    </g>
  </g>
</svg>