<?xml version="1.0" encoding="UTF-8"?>
<svg id="Layer_2" data-name="Layer 2" xmlns="http://www.w3.org/2000/svg" viewBox="0 0 295 122">
  <g id="Logo">
    <g>
      <path d="m271.38,111.67v-31.82h6.33v-3.69h-6.33v-13.07h-7.4v6.94l-86.22-39.66V3.82h-7.4v10.96l-78.83,36.94v-9.42h-7.4v12.89l-.17.08.17.36v20.54h-50.19v-5.25h-3.7v5.25h-5.82v3.69h5.82v31.82H1.82v7.38h289.22v-7.38h-19.66Zm-11.75-35.51h-38.51v-17.71l38.51,17.71Zm-42.21-19.41v19.41h-39.66v-37.65l39.66,18.24Zm-47.05,19.41h-23.94v-42l23.94-11.22v53.22Zm-37.13,0v-35.82l9.49-4.45v40.27h-9.49Zm9.49,3.69v31.82h-9.49v-31.82h9.49Zm-13.19-37.78v34.09h-38v-16.28l38-17.81Zm-77.3,37.78h4.96v31.82h-4.96v-31.82Zm-3.7,31.82h-4.96v-31.82h4.96v31.82Zm12.36-31.82h4.96v31.82h-4.96v-31.82Zm8.66,0h4.96v31.82h-4.96v-31.82Zm-35.6,0h5.92v31.82h-5.92v-31.82Zm44.26,31.82v-31.82h5.92v31.82h-5.92Zm13.32-31.82h38v31.82h-38v-31.82Zm54.89,31.82v-31.82h23.94v31.82h-23.94Zm31.34-31.82h39.66v31.82h-39.66v-31.82Zm43.36,31.82v-31.82h42.87v31.82h-42.87Z" fill="#fff"/>
      <rect width="295" height="122" fill="none"/>
    </g>
  </g>
</svg>