<?xml version="1.0" encoding="UTF-8"?>
<svg id="Layer_2" data-name="Layer 2" xmlns="http://www.w3.org/2000/svg" viewBox="0 0 272 272">
  <g id="Logo">
    <g id="symbol_15_01_0005_02" data-name="symbol 15 01 0005 02">
      <path id="_패스_1141" data-name="패스 1141" d="m247.51,195.84L161.37,46.64c-8.09-14.01-26-18.81-40.01-10.72-4.45,2.57-8.15,6.27-10.72,10.72L24.5,195.84c-8.09,14.01-3.29,31.92,10.72,40.01,14.01,8.09,31.92,3.29,40.01-10.72h0l34.79-60.26c-15.18-14.35-15.85-38.29-1.5-53.47,14.35-15.18,38.29-15.85,53.47-1.5,15.18,14.35,15.85,38.29,1.5,53.47-.48.51-.98,1.01-1.5,1.5l34.79,60.26c8.09,14.01,26,18.81,40.01,10.72,14.01-8.09,18.81-26,10.72-40.01h0" fill="#fff"/>
      <rect id="_사각형_470" data-name="사각형 470" width="272" height="272" fill="none"/>
    </g>
  </g>
</svg>