<?xml version="1.0" encoding="UTF-8"?>
<svg id="Layer_2" data-name="Layer 2" xmlns="http://www.w3.org/2000/svg" viewBox="0 0 194 194">
  <g id="Logo">
    <g id="symbol_16_01_0003_01" data-name="symbol 16 01 0003 01">
      <path id="_패스_1429" data-name="패스 1429" d="m96.53,7.16C47.11,7.16,7.05,47.22,7.05,96.65s40.06,89.49,89.49,89.49,89.49-40.06,89.49-89.49S145.96,7.16,96.53,7.16h0m-57.05,133.24v-73.02h4.72v1.6c0,18.82,0,37.63-.01,56.45-.14,1.52.39,3.02,1.46,4.11.98.85,2.27,1.27,3.56,1.16,4.2-.05,8.42-.27,12.6.02,6.93.38,13.67,2.46,19.6,6.07.25.16.51.32.75.49.06.04.09.14.18.28-14.48-2.13-28.68-.72-42.86,2.84m52.57-6.81c-11.29-9.67-24.6-12.31-38.93-12.13V53.02c.81-.04,1.61-.13,2.4-.12,8.42.08,16.59,1.33,24.12,5.38,4.97,2.61,9.14,6.52,12.08,11.3.23.4.36.86.37,1.32.02,20.62.02,41.24.01,61.86,0,.2-.03.39-.06.82m8.83-60.41c-.02-2.35.81-4.62,2.36-6.39,5.66-7.1,13.26-10.83,21.95-12.65,4.42-.92,8.93-1.31,13.44-1.18.42.01.83.04,1.31.06v68.42c-14.21-.13-27.59,2.43-38.99,12.22v-1.85c0-19.54.05-39.08-.06-58.62m52.7,67.22c-7.01-1.79-14.16-2.98-21.37-3.55-7.19-.51-14.42-.37-21.58.43,1.91-.99,3.77-2.09,5.74-2.95,6.64-2.76,13.79-4.1,20.98-3.94,1.97,0,3.94.17,5.92.27,3.82.2,5.59-1.46,5.59-5.28,0-11.56,0-23.11,0-34.67v-23.34h4.73v73.03Z" fill="#fff"/>
      <rect id="_사각형_700" data-name="사각형 700" width="194" height="194" fill="none"/>
    </g>
  </g>
</svg>