<?xml version="1.0" encoding="UTF-8"?>
<svg id="_레이어_2" data-name="레이어 2" xmlns="http://www.w3.org/2000/svg" viewBox="0 0 145 74">
  <g id="Logo">
    <g id="symbol_18_03_0004_01" data-name="symbol 18 03 0004 01">
      <path id="_패스_1229" data-name="패스 1229" d="m15.89,65.93c-2.47,0-4.94-.02-7.42,0-.86,0-1.17-.28-.91-1.14.98-3.46,1.37-7.06,1.15-10.64-.04-.9.22-1.29,1.2-1.28,4.03.04,8.05.04,12.08,0,.96,0,1.25.34,1.21,1.26-.2,3.63.19,7.26,1.14,10.77.25.89-.19,1.03-.92,1.03-2.51-.01-5.02,0-7.54,0" fill="#fff"/>
      <path id="_패스_1232" data-name="패스 1232" d="m72.76,29.35c-3.9,0-7.8-.03-11.71.01-1.36.02-1.85-.45-1.44-1.8,1.55-5.46,2.17-11.14,1.81-16.8-.07-1.43.35-2.03,1.89-2.01,6.36.07,12.71.07,19.07,0,1.52-.01,1.98.54,1.92,1.99-.31,5.73.29,11.47,1.8,17,.4,1.4-.3,1.63-1.45,1.62-3.96-.02-7.93,0-11.89,0" fill="#fff"/>
      <path id="_패스_1235" data-name="패스 1235" d="m129.24,65.93c-2.47,0-4.94-.02-7.42,0-.86,0-1.17-.28-.91-1.14.98-3.46,1.37-7.06,1.15-10.64-.04-.9.22-1.29,1.2-1.28,4.03.04,8.05.04,12.08,0,.96,0,1.25.34,1.21,1.26-.2,3.63.19,7.26,1.14,10.77.25.89-.19,1.03-.92,1.03-2.51-.01-5.02,0-7.54,0" fill="#fff"/>
      <rect id="_사각형_610" data-name="사각형 610" width="145" height="74" fill="none"/>
    </g>
  </g>
</svg>