<?xml version="1.0" encoding="UTF-8"?>
<svg id="_레이어_2" data-name="레이어 2" xmlns="http://www.w3.org/2000/svg" viewBox="0 0 214 258">
  <g id="Logo">
    <g id="symbol_06_02_0003_02" data-name="symbol 06 02 0003 02">
      <rect id="_사각형_273" data-name="사각형 273" width="214" height="258" fill="none"/>
      <path id="_패스_1098" data-name="패스 1098" d="M211.32,138.77c-.12-1.58-.73-3.09-1.73-4.33-.11-.16-.23-.32-.34-.48l-19.57-27.39c-1.3-2.1-3.02-3.91-5.06-5.3-2.85-1.67-6.4-1.71-9.76-1.69l-52.39,.22c-2.25,0-4.68-.04-6.45-1.35-3.68-2.72-1.41-8.89,2.83-10.74s9.17-.86,13.76-.09c15.65,2.62,31.65,2.3,47.54,1.97,3.39-.07,6.89-.16,9.99-1.46s5.77-4.1,5.72-7.32-2.78-5.93-5.9-7.15-6.61-1.23-9.98-1.23l-36.1,.03c-2.05-.09-4.09,.1-6.09,.57-2.05,.59-3.87,1.76-5.89,2.44-4.58,1.55-9.74,.47-14.41,1.75-6.38,1.74-10.7,7.67-12.18,13.81s-.61,12.55,.26,18.79l65.61,.16c1.87-.13,3.74,.15,5.49,.8,1.68,.77,3.02,2.53,2.6,4.26-.62,2.61-4.22,3.16-7.03,3.16l-117.17-.09c-3.09,0-7.14-.77-7.46-3.69-.36-3.33,4.45-4.57,7.97-4.57l42.52,.02c-1-10.99-1.54-23.35,6.21-31.56,8.83-9.35,24.03-8.94,36.72-12.53-.01-11.52-.1-23.04-.13-34.56-.02-5.76-.01-11.52,.01-17.28,.01-2.19,1.8-12.15-2.11-11.22-1.95,.47-4.53,3.06-6.21,4.17-3.99,2.64-8.01,5.25-12.05,7.82-8.09,5.14-16.28,10.13-24.57,14.97-28.62,16.69-58.28,31.52-88.82,44.38-1.05,.32-1.98,.95-2.67,1.81-.42,.84-.6,1.77-.52,2.71v25.47c-.02,.22-.03,.45-.03,.68v32.57c0,4.1,3.33,7.43,7.43,7.43H209.65c.93,0,1.69-.76,1.69-1.69v-4.27h-.02Z" fill="#fff"/>
      <rect id="_사각형_272" data-name="사각형 272" x="84.77" y="192.85" width="45.74" height="62.81" rx="13.7" ry="13.7" fill="#fff"/>
    </g>
  </g>
</svg>