<?xml version="1.0" encoding="UTF-8"?>
<svg id="Layer_2" data-name="Layer 2" xmlns="http://www.w3.org/2000/svg" viewBox="0 0 84 120">
  <g id="Logo">
    <g id="symbol_17_04_0002_01" data-name="symbol 17 04 0002 01">
      <path id="_합치기_20" data-name="합치기 20" d="m29.91,112.27v-12.2h47.71v12.2H29.91ZM6,79.28v-35.81C6,23.7,22.03,7.67,41.81,7.67c19.78,0,35.8,16.03,35.81,35.81v35.81H6Zm15.73-35.36v6c0,1.88,1.52,3.4,3.4,3.4h10.27v10.27c0,1.88,1.52,3.4,3.4,3.4h6c1.88,0,3.4-1.52,3.4-3.4h0v-10.27h10.27c1.88,0,3.4-1.52,3.4-3.4h0v-6c0-1.88-1.52-3.4-3.39-3.41h-10.28v-10.27c0-1.88-1.52-3.4-3.4-3.4h-6c-1.88,0-3.4,1.52-3.4,3.4h0v10.27h-10.27c-1.88,0-3.4,1.52-3.4,3.4h0Z" fill="#fff"/>
      <rect id="_사각형_226" data-name="사각형 226" width="84" height="120" fill="none"/>
    </g>
  </g>
</svg>