<?xml version="1.0" encoding="UTF-8"?>
<svg id="_레이어_2" data-name="레이어 2" xmlns="http://www.w3.org/2000/svg" viewBox="0 0 253 253">
  <g id="Logo">
    <g id="symbol_04_03_0004_02" data-name="symbol 04 03 0004 02">
      <path id="_패스_1241" data-name="패스 1241" d="m69.26,208.4c.46.05,18.07,5.23,32.52,2.64,23.12-4.14,36.07-27.79,37.25-30.02,2.81-5.38,4.82-11.14,5.98-17.1,1.2-5.79,1.44-11.73.71-17.59-.46-5.95-2.02-11.77-4.6-17.16-1.99-4.35-3.46-8.78-3.01-13.66.54-5.86,4.67-10.98,9.55-11.77,5.62-.91,9.92,1.8,12.72,7.83,2.52,5.43,3.34,11.48,6.29,16.75,1.16,2.06,2.17,4.21,3.94,5.84,2.28,2.1,4.63,4.2,8.08,3.17,3.42-1.02,5.24-3.63,5.86-6.96,1.91-9.39-.36-19.14-6.2-26.73-2.82-3.82-6.58-6.75-10.21-9.76-5.35-4.23-9.94-9.34-13.59-15.1-5.58-9.24-5.44-21.11.3-28.73,2.41-3.29,5.74-5.8,9.57-7.21,11.31-4.08,23.09,6.52,26.34,9.36,2.85,2.49,12.23,11.3,18.25,38.13,3.32,14.78,8.58,39.67-.37,69.68-7.41,24.86-20.51,39.63-23.37,42.76-4.44,5.02-9.56,9.39-15.21,12.98-12.15,7.49-23.62,8.97-30.24,9.76-11.01,1.23-22.15.45-32.87-2.31-19.48-4.6-37.7-14.78-37.7-14.78" fill="#fff"/>
      <path id="_패스_1242" data-name="패스 1242" d="m139.87,81.94c-6.76-8.7-16.18-13.63-24.99-19.36-5.39-3.5-10.45-7.35-13.75-13.05-4.57-7.88-3.01-17.3,3.64-22.06,5.15-3.68,10.14-3.83,15.51-.43,6.84,4.32,10.11,11.27,13.16,18.28,5.06,11.62,6.14,24,6.43,36.62" fill="#fff"/>
      <path id="_패스_1243" data-name="패스 1243" d="m138.29,95.6c-7.61-2.6-13.52,1.56-19.89,4.02-6.12,2.37-11.4.15-12.67-4.76-1.56-6.03,2.36-11.63,8.83-12.64,3.77-.59,7.11.78,10.42,2.25,5.4,2.38,10.02,6.24,13.31,11.14" fill="#fff"/>
      <path id="_패스_1244" data-name="패스 1244" d="m212.52,40.41c47.66,47.29,50.64,125.2,1.66,172.73-40.85,40.22-107.36,45.51-154.99,14.27C-30.75,168.71-7.39,31.54,96.99,6.17c41.09-9.71,86.09,4.29,115.53,34.24m-.45.45C178.3,6.75,125.57-1.6,82,17.33,14,46.4-11.63,129.52,28.5,191.75c55.04,83.38,174.86,65.92,209.47-26.09,15.91-42.54,6.82-92.56-25.9-124.79" fill="#fff"/>
      <rect id="_사각형_405" data-name="사각형 405" width="253" height="253" fill="none"/>
    </g>
  </g>
</svg>