<?xml version="1.0" encoding="UTF-8"?>
<svg id="Layer_2" data-name="Layer 2" xmlns="http://www.w3.org/2000/svg" viewBox="0 0 86 124">
  <g id="Logo">
    <g id="symbol_03_10_0001_01" data-name="symbol 03 10 0001 01">
      <path id="_패스_594" data-name="패스 594" d="m79.84,62.11c0,6.67-5.41,12.09-12.09,12.09-6.67,0-12.09-5.41-12.09-12.09,0-6.67,5.41-12.08,12.08-12.09,6.67,0,12.09,5.41,12.09,12.08h0" fill="#fff"/>
      <path id="_패스_596" data-name="패스 596" d="m63.66,85.07c-2.05-.11-4.1.15-6.05.76-2.81.92-5.89.26-8.08-1.73l-8.1-7.52c-1.89-1.76-2.82-4.32-2.5-6.88-4.19-1.23-6.59-5.63-5.36-9.82.71-2.42,2.54-4.36,4.91-5.21-.55-2.75.38-5.59,2.44-7.49l7.91-7.34c2.23-2.04,5.41-2.66,8.24-1.63,8.9,3.13,18.66-1.54,21.8-10.45,3.13-8.9-1.54-18.66-10.45-21.8-8.9-3.13-18.66,1.54-21.8,10.45-.51,1.45-.82,2.97-.93,4.51-.09,1.32-.03,2.65.19,3.96.41,2.64-.52,5.3-2.49,7.11l-12.34,11.47c-1.73,1.58-4.05,2.34-6.37,2.1-9.4-.88-17.72,6.03-18.6,15.43-.01.14-.02.28-.03.42-.64,9.42,6.48,17.58,15.91,18.22,1.32.09,2.65.03,3.96-.19,2.49-.43,5.05.32,6.91,2.03l10.72,9.96c2.04,1.87,2.96,4.66,2.45,7.38-1.84,9.26,4.17,18.26,13.43,20.1,9.26,1.84,18.26-4.17,20.1-13.43s-4.17-18.26-13.43-20.1c-.8-.16-1.61-.26-2.42-.3" fill="#fff"/>
      <rect id="_사각형_2" data-name="사각형 2" width="86" height="124" fill="none"/>
    </g>
  </g>
</svg>