<?xml version="1.0" encoding="UTF-8"?>
<svg id="_레이어_2" data-name="레이어 2" xmlns="http://www.w3.org/2000/svg" viewBox="0 0 233 220">
  <g id="Logo">
    <g id="symbol_13_01_0001_01" data-name="symbol 13 01 0001 01">
      <rect id="_사각형_112" data-name="사각형 112" width="233" height="220" fill="none"/>
      <path id="_패스_321" data-name="패스 321" d="M40.72,80.78c-1.37,0-2.48-1.11-2.48-2.48,0-1.12,.75-2.1,1.83-2.39l45.67-12.45c1.31-.39,2.69,.36,3.08,1.67,.39,1.31-.36,2.69-1.67,3.08-.04,.01-.08,.02-.12,.03l-45.67,12.45c-.21,.06-.43,.09-.65,.09Z" fill="#fff"/>
      <path id="_패스_322" data-name="패스 322" d="M44.29,95.28c-1.37,0-2.48-1.11-2.48-2.48,0-1.12,.75-2.1,1.83-2.39l38.82-10.54c1.32-.38,2.69,.38,3.07,1.7,.38,1.32-.38,2.69-1.7,3.07-.02,0-.05,.01-.07,.02l-38.82,10.54c-.21,.06-.43,.09-.65,.09Z" fill="#fff"/>
      <path id="_패스_323" data-name="패스 323" d="M48.16,109.65c-2.75,.09-3.41-4.14-.7-4.86l23.7-6.96c1.31-.39,2.69,.36,3.08,1.68,.39,1.31-.36,2.69-1.68,3.08-.77,.12-23.62,7.14-24.4,7.06Z" fill="#fff"/>
      <path id="_패스_324" data-name="패스 324" d="M193.32,162.46c-1.12-.27-2.28-.53-3.45-.78,14.47-27.47,6.78-61.39-18.11-79.95l10.59-36.95c3.84-.45,7.04-3.16,8.11-6.88l3.51-12.23c1.46-5.09-1.48-10.39-6.56-11.86L151.25,3.41c-5.08-1.46-10.38,1.48-11.83,6.55,0,0,0,0,0,.01l-3.51,12.23c-1.14,4.01,.43,8.3,3.89,10.62l-9.24,32.23-5.67-20.24c-2.02-6.59-8.91-10.39-15.56-8.59L24.04,58.12c-3.22,.8-5.99,2.83-7.71,5.66-1.69,2.76-2.15,6.11-1.27,9.23l25,89.21c-.35,.08-.71,.16-1.05,.24-31.37,7.54-35,17.09-35,23.63s3.63,16.09,35,23.63c20.65,4.96,48.05,7.69,77.15,7.69s56.5-2.73,77.15-7.69c31.37-7.54,35-17.09,35-23.63s-3.63-16.09-34.99-23.62Zm-60.5-84.2c1.94-.05,3.63-1.36,4.16-3.23l12.49-43.59c.68-2.37-.68-4.84-3.05-5.52l-1.49-.43c-.35-.1-.55-.47-.45-.82l3.51-12.23c.05-.17,.16-.31,.32-.4,.1-.05,.21-.08,.32-.08,.06,0,.12,0,.18,.03l36.15,10.4c.35,.1,.55,.47,.45,.82l-3.51,12.23c-.1,.35-.46,.55-.82,.45l-.75-.22c-2.36-.68-4.83,.69-5.51,3.05h0s-12.5,43.6-12.5,43.6c-.54,1.87,.2,3.87,1.82,4.95,24.79,16.49,31.51,49.96,15.02,74.74-16.49,24.79-49.96,31.51-74.74,15.02-24.79-16.49-31.51-49.96-15.02-74.74,9.71-14.59,25.9-23.55,43.42-24.03h0Zm-108.77-10.21c.51-.84,1.34-1.45,2.3-1.69l85.29-21.89c.32-.08,.65-.12,.98-.12,1.69-.02,3.18,1.08,3.67,2.69l6.54,23.34c-34.21,6.43-56.73,39.39-50.3,73.6,2.35,12.47,8.4,23.95,17.38,32.93l-30.39,7.8c-.97,.25-2,.12-2.88-.36-.86-.47-1.5-1.26-1.77-2.21L23.66,70.81c-.26-.93-.12-1.93,.38-2.75ZM115.94,210.2c-58.32,0-105.6-10.81-105.6-24.14,0-6.74,12.1-12.83,31.58-17.21l4.34,15.48c1.62,5.4,6.63,9.08,12.27,9.01,1.11,0,2.21-.14,3.29-.42l36.09-9.27c28.29,20.07,67.5,13.41,87.57-14.88,.18-.26,.36-.51,.54-.77,21.78,4.42,35.52,10.87,35.52,18.05,0,13.33-47.28,24.14-105.6,24.14h0Z" fill="#fff"/>
    </g>
  </g>
</svg>