<?xml version="1.0" encoding="UTF-8"?>
<svg id="Layer_2" data-name="Layer 2" xmlns="http://www.w3.org/2000/svg" viewBox="0 0 280 158">
  <g id="Logo">
    <g id="symbol_07_02_0007_02" data-name="symbol 07 02 0007 02">
      <path id="_패스_1524" data-name="패스 1524" d="m258.81,73.85c-8.68-13.25-19.53-24.16-33.79-31.35-1.79-.9-2.46-1.82-2.31-3.9.66-7.19-.25-14.43-2.66-21.23-2.7-7.29-8.52-11.31-15.85-10.46-2.93.43-5.8,1.22-8.54,2.35-13.02,4.92-26.31,8.25-40.36,8.5-4.12.25-8.15,1.31-11.87,3.12-7.74,3.49-10.3,10.59-6.83,18.3,1.55,3.44,3.85,6.54,5.82,9.83l-12.51,6.97c-.3-.4-.66-.9-1.05-1.38-7.55-9.09-15.92-17.46-25.01-25.01-9.26-7.68-19.15-14.35-30.86-17.76-14.81-4.31-27.64-1.24-37.93,10.66-5.7,6.6-9.46,14.29-12.39,22.43-.95,2.63-1.92,5.25-2.87,7.87v2.35c2.02,3.06,3.25,3.23,6.65,2.04,6.24-2.19,12.46-4.78,18.91-5.96,13.93-2.53,17.62,1.53,21.79,11.12,3.43,7.9,7.37,15.41,15.76,19.71-2.2.96-4.06,1.72-5.87,2.59-7.3,3.49-13.54,8.28-17.04,15.74-1.67,3.55-2.52,7.51-3.55,11.33-1.09,4.03-3.47,6.66-7.64,7.22-2.62.38-5.28.44-7.92.19-4.42-.47-8.77-1.51-13.19-2-3.96-.44-5.81,2.01-4.67,5.85,1.76,6.12,5.25,11.61,10.04,15.81,9.87,8.71,21.84,11.82,34.57,12.49,14.5.76,26.59-5.12,37.25-14.45,8.73-7.64,15.54-16.88,21.92-26.47,2.24-3.37,4.42-6.79,6.71-10.3,10.73,6.4,22.24,10.49,33.83,13.89-1.33,3.34-2.85,6.43-3.79,9.68-2.46,8.47-.36,12.04,8.26,14.1,12.76,2.94,25.99,3.22,38.85.81,8.72-1.53,15.1-6.07,18.1-14.7,1.62-4.64,1.1-9.22-.64-13.86.79-.49,1.51-.94,2.23-1.39,11.73-7.23,20.94-16.97,28.44-28.44,1.43-1.84,1.43-4.42.01-6.26m-112.09-45.88c2.71-1.36,5.67-2.17,8.7-2.37,15.14-.19,29.49-3.83,43.52-9.19,2.11-.78,4.3-1.34,6.53-1.67,2.91-.47,4.89,1.07,6.31,3.5,2.54,4.35,2.75,9.22,3.17,14.03.17,1.92.03,3.86.03,6-7.01-2.2-14.35-3.18-21.7-2.91-9.67.42-18.97,2.76-28.21,5.4-3.98,1.11-7.9,2.43-11.75,3.93-2.12.85-3.46.56-4.68-1.29-1.54-2.34-3.43-4.48-4.72-6.94-2-3.83-1.1-6.72,2.82-8.49m-18.25,39.47c4.6-4.25,9.86-7.73,15.56-10.32,15.86-7.51,32.39-12.73,50-13.94,5.89-.32,11.79.42,17.42,2.2-5.44,9.99-8.81,19.84-9.12,29.56h-78.72c.6-2.49,2.23-4.99,4.86-7.49m-31.21,65.63c-13.94,11.34-29.38,12.69-45.9,7.26-6.66-2.19-12.45-5.76-16.76-11.45-.38-.5-.73-1.01-1.07-1.54-.21-.32-.37-.66-.72-1.29,3.67.38,7.08.9,10.51,1.03,6.87.26,13.38-.89,17.67-6.98,1.61-2.21,2.7-4.75,3.2-7.43,1.9-12.38,9.85-19.14,20.94-22.79,5-1.64,10.32-2.3,15.5-3.41.53-.11,1.07-.2,1.61-.32,2.09-.4,3.46-2.41,3.06-4.49-.32-1.66-1.68-2.92-3.36-3.11-3.16-.49-6.36-.78-9.48-1.44-6.56-1.28-12.13-5.59-15.02-11.62-1.88-3.68-3.61-7.44-5.49-11.12-4.49-8.78-12.05-11.94-21.48-11.65-6.17.31-12.26,1.52-18.08,3.58-.5.17-1.02.29-2.03.57.83-2.05,1.42-3.76,2.19-5.4,3.22-6.92,7.09-13.35,13.19-18.24,6.25-5,13.3-6.28,20.95-4.89,10.43,1.9,19.21,7.27,27.47,13.55,10.64,8.24,20.34,17.63,28.92,28,.24.29.44.63.7,1-1.46,1.59-2.86,3.13-4.39,4.8-1.26-1.29-2.47-2.49-3.65-3.72-9.89-10.36-20.11-20.36-32.14-28.28-6.12-4.03-12.57-7.5-20.04-7.84-3.24-.14-6.59.78-9.77,1.66-1.84.55-2.89,2.49-2.34,4.33.04.14.09.28.16.42.7,1.93,2.6,3.23,4.42,2.5,7.54-3.05,13.94.1,20.17,3.64,8.41,4.77,15.69,11.1,22.63,17.76,5.41,5.19,10.56,10.66,15.73,16.1.59.84.94,1.83,1.01,2.85.42,2.59.76,5.2,1.02,7.81.19.93.09,1.89-.29,2.76-7.37,11.08-15.18,21.84-24.92,30.99-3.53,3.19-7.29,6.11-11.26,8.74-2.73,1.88-6.03,2.77-9.34,2.5-2.85-.19-4.64,1.34-4.72,3.68-.08,2.37,1.52,3.93,4.4,4.16,6.09.5,11.32-1.88,16.22-5.11,8.66-5.71,15.55-13.29,21.97-21.29,4.4-5.48,8.42-11.26,12.61-16.9.22-.3.49-.57.86-.99l4.82,4.26c-8.75,13.48-17.04,27.1-29.67,37.36m43.11-38.24c-4.29-2.39-8.31-5.26-11.96-8.54-1.07-.94-2.03-1.99-2.88-3.13h77.31c1.28,8.22,4.99,16.34,11.75,24.36-9.25,3.36-19.23,4.2-28.92,2.44-15.88-2.72-31.16-7.34-45.31-15.12m80.92,26.65c-1.51,3.97-3.99,7.11-8.29,8.24-13.25,3.48-26.55,3.19-39.85.23-.87-.26-1.72-.58-2.54-.96.3-4.22,1.88-8.25,4.52-11.55.59-.92,1.71-1.33,2.76-1.02,6.82,1.28,13.63,2.54,20.66,2.14,6.7-.36,13.31-1.73,19.61-4.06.87-.33,1.75-.63,2.73-.99,1.31,2.46,1.45,5.38.4,7.97m3.03-18.39c-1.34.78-2.02.07-2.84-.61-5.82-4.75-9.59-11.55-10.56-18.99-1.75-12.36.42-23.93,7.99-34.17.18-.25.4-.47.76-.89,13.44,6.5,23.57,16.39,31.85,28.53-7.3,10.69-16.05,19.63-27.2,26.13" fill="#fff"/>
      <path id="_패스_1525" data-name="패스 1525" d="m223.78,72.51c-2.46,0-4.45,1.99-4.45,4.45s1.99,4.45,4.45,4.45c2.46,0,4.45-1.99,4.45-4.45,0-2.46-1.99-4.45-4.45-4.45" fill="#fff"/>
      <rect id="_사각형_556" data-name="사각형 556" width="280" height="158" fill="none"/>
    </g>
  </g>
</svg>