<?xml version="1.0" encoding="UTF-8"?>
<svg id="_레이어_2" data-name="레이어 2" xmlns="http://www.w3.org/2000/svg" viewBox="0 0 78 78">
  <g id="Logo">
    <g id="symbol_10_02_0001_01" data-name="symbol 10 02 0001 01">
      <rect id="_사각형_121" data-name="사각형 121" width="78" height="77.82" fill="none"/>
      <path id="_패스_753" data-name="패스 753" d="M62.29,69.68c5.37,.76,10.64,2.11,15.71,4.03-1.54,.72-3.13,1.33-4.76,1.84-2.34,.68-4.72,1.18-7.13,1.49-21.92,2.59-33.4-.92-33.4-.92-5.83-1.78-22.82-6.97-29.82-23.2C-.08,45.87-.78,38.07,.88,30.6,3.98,17.19,13.77,6.33,26.78,1.88,30.08,.8,33.52,.18,36.99,.04c7.01-.29,13.97,1.25,20.2,4.48,3.09,1.6,5.94,3.62,8.47,6.01,2.6,2.48,4.84,5.3,6.65,8.4,1.82,3.09,3.22,6.42,4.15,9.88,.94,3.46,1.38,7.04,1.32,10.62,0,.27-.01,.54-.02,.81-.55,11.62-6.22,22.4-15.48,29.45Zm-23.29-3.9c4.28-.03,7.73-3.53,7.7-7.81-.03-4.28-3.53-7.73-7.81-7.7-4.28,.03-7.73,3.52-7.7,7.8,.05,4.28,3.53,7.72,7.81,7.71h0Zm-.03-38.81c4.28-.01,7.75-3.5,7.73-7.78-.01-4.28-3.5-7.75-7.78-7.73-4.28,.01-7.73,3.48-7.73,7.76,.04,4.28,3.5,7.73,7.78,7.75h0Zm-11.67,11.62c-.02-4.29-3.51-7.76-7.81-7.74-4.29,.02-7.76,3.51-7.74,7.81,.02,4.26,3.46,7.72,7.72,7.74,4.32,0,7.82-3.49,7.82-7.81Zm38.91,.06c.02-4.29-3.45-7.79-7.75-7.8-4.29-.02-7.79,3.45-7.8,7.75-.02,4.29,3.45,7.79,7.75,7.8,0,0,.02,0,.03,0,4.28,0,7.76-3.46,7.78-7.75h0Zm-27.26,3.85c2.14,.01,3.89-1.72,3.9-3.86,.01-2.14-1.72-3.89-3.86-3.9-2.14-.01-3.89,1.72-3.9,3.86,0,0,0,0,0,.01-.02,2.12,1.68,3.87,3.81,3.89,.02,0,.04,0,.06,0h0Z" fill="#fff"/>
    </g>
  </g>
</svg>