<?xml version="1.0" encoding="UTF-8"?>
<svg id="Layer_2" data-name="Layer 2" xmlns="http://www.w3.org/2000/svg" viewBox="0 0 95 97">
  <g id="Logo">
    <g id="symbol_05_03_0004_02" data-name="symbol 05 03 0004 02">
      <path id="_패스_1358" data-name="패스 1358" d="m42.35,71.13c.17.7.35,1.39.53,2.11,2.83-2.27,6.86-2.27,9.69,0,.04-.1.08-.2.11-.31.84-3.43,1.69-6.87,2.53-10.3.08-.31-.02-.44-.3-.55-1.86-.76-3.83-1.23-5.84-1.38-2.9-.21-5.81.26-8.5,1.37-.33.13-.38.28-.3.62.7,2.81,1.38,5.62,2.07,8.43" fill="#fff"/>
      <path id="_패스_1359" data-name="패스 1359" d="m50.6,86.32l8.12,7.78c4.25-3.12,7-7.87,7.57-13.11l-10.98-3.19c.6,3.59-1.35,7.12-4.72,8.52" fill="#fff"/>
      <path id="_패스_1360" data-name="패스 1360" d="m14.23,59.9h11.97c1.58.03,3.15.03,4.73,0,.79-.06,1.55-.35,2.19-.82,2.55-1.73,2.22-6.24,2.17-6.82v-25.41l.04-.29c.76-.41,1.54-.77,2.35-1.09,1.16-.45,10.38-4,20.02.26.83.37,1.63.78,2.41,1.23v25.28c-.28,3.14.69,5.82,2.2,6.78.68.42,1.43.71,2.22.84,1.27.03,2.54.03,3.82.02h13.75c.83,0,1.67,0,2.5,0h8.98V10.59c0-5.26-4.26-9.52-9.52-9.52H11.35c-5.26,0-9.52,4.26-9.52,9.51h0v49.3h7.89c1.5.03,3,.03,4.5,0" fill="#fff"/>
      <path id="_패스_1361" data-name="패스 1361" d="m52.02,79.16c-.01-2.36-1.94-4.27-4.3-4.25-2.36.01-4.27,1.94-4.25,4.3.01,2.34,1.91,4.24,4.25,4.25,2.35.03,4.27-1.86,4.3-4.2,0-.03,0-.06,0-.1" fill="#fff"/>
      <path id="_패스_1362" data-name="패스 1362" d="m33.79,91.41c.88,1.01,1.88,1.91,2.97,2.68l8.1-7.76c-3.34-1.4-5.29-4.92-4.7-8.49-.09.02-.14.03-.2.05-3.49,1.01-6.99,2.02-10.48,3.02-.26.07-.3.2-.27.44.47,3.74,2.07,7.25,4.58,10.07" fill="#fff"/>
      <rect id="_사각형_428" data-name="사각형 428" width="95" height="97" fill="none"/>
    </g>
  </g>
</svg>