<?xml version="1.0" encoding="UTF-8"?>
<svg id="Layer_2" data-name="Layer 2" xmlns="http://www.w3.org/2000/svg" viewBox="0 0 300 164">
  <g id="Logo">
    <g id="symbol_14_01_0003_01" data-name="symbol 14 01 0003 01">
      <path id="_패스_774" data-name="패스 774" d="m275.75,42.53c0-3.21-1.08-6.33-3.08-8.86l-18.58-23.51c-4.89-6.19-13.88-7.24-20.07-2.35-.87.69-1.66,1.48-2.35,2.35l-18.58,23.51c-1.99,2.52-3.08,5.64-3.08,8.86v11.93h-26.67v-11.93c0-3.21-1.08-6.33-3.08-8.86l-18.58-23.51c-4.89-6.19-13.87-7.24-20.06-2.35-.87.69-1.66,1.48-2.35,2.35l-18.58,23.51c-1.99,2.52-3.08,5.64-3.08,8.86v11.93h-26.67v-11.93c0-3.21-1.08-6.33-3.08-8.86l-18.58-23.51c-4.89-6.19-13.87-7.24-20.06-2.35-.87.69-1.66,1.48-2.35,2.35l-18.58,23.51c-1.99,2.52-3.08,5.64-3.08,8.86v116.47h22.25v-18.8c0-5.86,4.75-10.61,10.61-10.61s10.61,4.75,10.61,10.61h0v18.8h22.26v-49.73h26.67v49.73h22.26v-18.8c0-5.86,4.75-10.6,10.61-10.6,5.85,0,10.6,4.75,10.6,10.6v18.8h22.26v-49.73h26.67v49.73h22.26v-18.8c-.06-5.86,4.65-10.65,10.5-10.71,5.86-.06,10.65,4.65,10.71,10.5,0,.07,0,.14,0,.21v18.8h22.26V42.53ZM58.1,107.84c-3.36,0-6.09-2.73-6.09-6.09s2.73-6.09,6.09-6.09,6.09,2.73,6.09,6.09c0,3.36-2.73,6.09-6.09,6.09m0-39.77c-3.36,0-6.09-2.73-6.09-6.09s2.73-6.09,6.09-6.09,6.09,2.73,6.09,6.09c0,3.36-2.73,6.09-6.09,6.09m59.53,26.16h-26.67v-24.73h26.67v24.73Zm32.86,13.61c-3.36,0-6.09-2.73-6.09-6.09,0-3.36,2.73-6.09,6.09-6.09,3.36,0,6.09,2.73,6.09,6.09s-2.73,6.09-6.09,6.09h0m0-39.77c-3.36,0-6.09-2.73-6.09-6.09,0-3.36,2.73-6.09,6.09-6.09,3.36,0,6.09,2.73,6.09,6.09s-2.73,6.09-6.09,6.09h0m59.53,26.16h-26.67v-24.73h26.67v24.73Zm32.86,13.61c-3.36,0-6.09-2.73-6.09-6.09,0-3.36,2.73-6.09,6.09-6.09,3.36,0,6.09,2.73,6.09,6.09,0,3.36-2.73,6.09-6.09,6.09m0-39.77c-3.36,0-6.09-2.73-6.09-6.09,0-3.36,2.73-6.09,6.09-6.09,3.36,0,6.09,2.73,6.09,6.09,0,3.36-2.73,6.09-6.09,6.09" fill="#fff"/>
      <rect id="_사각형_283" data-name="사각형 283" width="300" height="164" fill="none"/>
    </g>
  </g>
</svg>