<?xml version="1.0" encoding="UTF-8"?>
<svg id="_레이어_2" data-name="레이어 2" xmlns="http://www.w3.org/2000/svg" viewBox="0 0 205 226">
  <g id="Logo">
    <g id="symbol_04_02_0007_01" data-name="symbol 04 02 0007 01">
      <path id="_패스_1229" data-name="패스 1229" d="m51.29,217.41c1.28,1.85,2.24,5.76,4.98,4.55,2.11-.94.88-4.62.58-7.03-.29-2.35-.52-4.69-.72-7.03-3.52.33-7.04.61-10.57.85,1.84,2.91,3.75,5.8,5.73,8.66" fill="#fff"/>
      <path id="_패스_1230" data-name="패스 1230" d="m58.41,148.54c4.1-28.79,11.93-56.49,25.01-82.54,6.94-13.82,14.97-26.95,26.6-37.47,7.89-7.14,16.5-12.6,27.82-11.62,1.62.14,4.01.86,4.39-1.64.33-2.15-1.87-2.85-3.44-3.51-11.02-4.57-22.47-7.75-34.39-8.31C71.76,1.9,44.32,13.1,22.86,38.04c-12.16,14.13-17.74,28.43-17.06,28.85.6.37,5.9-10.24,18.1-19.9,4.37-3.46,9.12-6.41,14.16-8.8-3.97,7.95-7.51,16.1-10.62,24.43-8.86,24.16-12.48,48.93-9.06,74.62,2.78,20.93,9.67,40.15,19.4,58.21,5.88-.51,11.74-1.13,17.6-1.86-.2-15.07.81-30.13,3.04-45.04" fill="#fff"/>
      <path id="_패스_1231" data-name="패스 1231" d="m191.47,131.07c3.02-6.71,5.13-13.79,6.29-21.05-2.2.16-4.41.32-6.61.49.73,6.83.84,13.71.32,20.56" fill="#fff"/>
      <path id="_패스_1232" data-name="패스 1232" d="m198.41,89.21c-2.23-20.43-11.73-39.37-26.76-53.38-7.06-6.55-15.25-10.65-24.83-11.07-8.85.41-16.25,3.77-22.92,9.09-8.82,7.03-15.63,15.8-21.37,25.35,0,0-34.6,63.48-39.03,111.76-.07.81-.31,3.39.76,3.91.24.1.51.12.76.06.96-.22,1.39-1.64,1.94-2.5,8.55-13.52,17.45-26.81,26.85-39.77,11.32-15.61,23.42-30.57,37.57-43.73,7.07-6.58,14.62-12.62,23.75-16.13,6.43-2.47,11.98-2.77,16.66-.94,3.71,1.45,7.64,4.48,11.8,12.44,2.91,5.67,5.01,11.71,6.26,17.96,2.94-.45,5.89-.88,8.85-1.3.19-3.92.1-7.84-.28-11.74" fill="#fff"/>
      <path id="_패스_1233" data-name="패스 1233" d="m189.84,102.25c.58,2.8,1.01,5.57,1.31,8.26,2.2-.17,4.4-.33,6.61-.49.48-3,.79-6.03.93-9.07-2.96.41-5.91.85-8.85,1.3" fill="#fff"/>
      <rect id="_사각형_402" data-name="사각형 402" width="205" height="226" fill="none"/>
    </g>
  </g>
</svg>