<?xml version="1.0" encoding="UTF-8"?>
<svg id="_레이어_2" data-name="레이어 2" xmlns="http://www.w3.org/2000/svg" viewBox="0 0 125 147">
  <g id="Logo">
    <g id="symbol_17_06_0002_01" data-name="symbol 17 06 0002 01">
      <path id="_패스_1198" data-name="패스 1198" d="m5.03,72.78c0-19.75.13-39.51-.08-59.26-.06-5.69,1.91-8.01,7.75-7.96,32.49.27,64.99.3,97.48.42,9.04.03,9.23.22,9.26,9.36.11,39.3.14,78.6.37,117.89.03,5.61-1.81,8.09-7.7,8.06-33.13-.15-66.27-.15-99.41,0-5.82.03-7.86-2.29-7.81-7.97.18-20.18.07-40.36.07-60.55h.06m67.21,3.85v36.91c0,4.03,1.21,7.39,5.9,7.44,4.72.05,5.95-3.42,6.03-7.36.13-5.72.19-11.46.03-17.18-.11-3.86,1.15-6.23,4.97-7.76,7.26-2.91,10.64-8.62,10.58-16.48-.08-10.18.01-20.36-.03-30.54-.04-10.06-4.84-15.78-13.27-15.95-8.54-.17-14.12,5.98-14.2,15.93-.1,11.67-.02,23.33,0,35m-9.47-30.75c0-4.25-.04-8.5.01-12.75.04-3.76-.83-6.97-5.25-7.28-4.83-.34-6.2,3.08-6.37,6.99-.24,5.51-.05,11.04-.21,16.56-.09,3.1.43,6.96-4.3,7.06s-4.47-3.59-4.51-6.81c-.05-4.88.02-9.77-.04-14.66-.05-4.4-.22-9.19-6.22-9.1-5.59.08-5.77,4.58-5.76,8.81.01,7.01-.72,14.12.25,21,.69,4.91,3.64,9.51,5.61,14.24,1.48,3.55,4.07,7.02,4.28,10.63.59,10.16.18,20.38.24,30.58.03,4.51-.25,9.8,6.19,9.73,6.01-.07,5.79-5.07,5.8-9.41.01-9.56.19-19.12-.07-28.68-.3-5.09,1.59-10.07,5.19-13.68,2.75-2.97,4.07-7.67,4.99-11.82.81-3.65.17-7.61.17-11.43" fill="#fff"/>
      <rect id="_사각형_555" data-name="사각형 555" width="125" height="147" fill="none"/>
    </g>
  </g>
</svg>