<?xml version="1.0" encoding="UTF-8"?>
<svg id="Layer_2" data-name="Layer 2" xmlns="http://www.w3.org/2000/svg" viewBox="0 0 192 252">
  <g id="Logo">
    <g id="symbol_15_05_0001_01" data-name="symbol 15 05 0001 01">
      <path id="_패스_312" data-name="패스 312" d="m97.74,83.13c-45.5,0-82.38,36.88-82.38,82.37,0,30.75,17.13,58.95,44.42,73.12-20.24-20.97-19.65-54.37,1.32-74.6s54.37-19.65,74.6,1.32c19.73,20.44,19.73,52.84,0,73.28,40.38-20.96,56.12-70.69,35.15-111.07-14.17-27.29-42.36-44.42-73.12-44.42m0,61.07c-11.01,0-19.94-8.93-19.94-19.94,0-11.01,8.93-19.94,19.94-19.94s19.94,8.93,19.94,19.94h0c0,11.01-8.92,19.94-19.93,19.94h0" fill="#fff"/>
      <path id="_패스_313" data-name="패스 313" d="m97.74,75.26c17.19,0,31.13-13.94,31.13-31.13s-13.94-31.13-31.13-31.13c-17.19,0-31.13,13.94-31.13,31.13s13.94,31.13,31.13,31.13h0" fill="#fff"/>
      <path id="_패스_314" data-name="패스 314" d="m97.74,169.75c-17.09,0-30.94,13.85-30.94,30.94s13.85,30.94,30.94,30.94,30.94-13.85,30.94-30.94-13.85-30.94-30.94-30.94h0m15.8,40.06c-1.71,2.95-5.19,4.4-8.49,3.54-1.1,4.04-5.26,6.42-9.3,5.32-2.59-.71-4.61-2.73-5.32-5.32-4.05,1.07-8.19-1.35-9.26-5.4-.68-2.6.06-5.36,1.95-7.26-2.95-2.97-2.93-7.77.04-10.71,1.91-1.89,4.67-2.63,7.27-1.95,1.1-4.04,5.26-6.42,9.3-5.32,2.59.71,4.61,2.73,5.32,5.32,4.05-1.07,8.19,1.35,9.26,5.39.69,2.6-.06,5.36-1.95,7.27,2.4,2.43,2.88,6.16,1.18,9.12" fill="#fff"/>
      <path id="_패스_315" data-name="패스 315" d="m97.74,195.47c-2.88,0-5.21,2.33-5.21,5.21s2.33,5.21,5.21,5.21,5.21-2.33,5.21-5.21h0c0-2.88-2.33-5.21-5.21-5.21" fill="#fff"/>
      <rect id="_사각형_109" data-name="사각형 109" width="192" height="252" fill="none"/>
    </g>
  </g>
</svg>