<?xml version="1.0" encoding="UTF-8"?>
<svg id="Layer_2" data-name="Layer 2" xmlns="http://www.w3.org/2000/svg" viewBox="0 0 248 233">
  <g id="Logo">
    <g id="symbol_15_04_0001_01" data-name="symbol 15 04 0001 01">
      <path id="_패스_327" data-name="패스 327" d="m124.34,14c-56.39,0-102.1,45.71-102.1,102.1s45.71,102.1,102.1,102.1,102.1-45.71,102.1-102.1c0,0,0,0,0,0,0-56.39-45.71-102.1-102.1-102.1m0,34.14c6.86,0,12.43,5.56,12.43,12.43,0,6.86-5.56,12.43-12.43,12.43-6.86,0-12.43-5.56-12.43-12.43h0c0-6.86,5.56-12.43,12.43-12.43m-58.24,80.08c-5.93.13-10.83-4.57-10.96-10.5h21.92c-.13,5.93-5.04,10.63-10.96,10.5m77.38,38.95c-4.17,8.89-10.99,17.19-20.29,20.9-3,1.21-6.19,1.86-9.42,1.91,2.97-.9,5.79-2.23,8.37-3.94,7.52-5.01,12.42-12.98,15.39-21.35,3.96-11.16,4.84-23.18,2.57-34.8-5.08-25.3-31.5-34.92-54.43-38.14,19.19-2.46,40.91,2.35,53.77,17.91,12.89,16.05,12.26,39.5,4.05,57.5m41.18-28.18c-5.93.13-10.83-4.57-10.96-10.5h21.92c-.13,5.93-5.04,10.63-10.96,10.5m.99-41.44c1.23,3.5,2.87,7.75,3.98,10.65,2.24,5.82,4.25,12.03,5.98,18.07-3.6.08-7.36.14-10.95.14s-7.35-.06-10.95-.14c1.73-6.03,3.74-12.24,5.98-18.06,1.04-2.7,2.51-6.53,3.7-9.87-11.17,3.51-24.34,2.37-35.51-.66-5.62-1.52-11.15-3.36-16.55-5.52-5.21-1.91-10.51-3.68-15.86-5.1-15.43-4.28-33.21-6.12-48.95-1.92,1.25,3.71,3.26,8.92,4.55,12.28,2.24,5.82,4.25,12.03,5.98,18.07-3.61.08-7.36.14-10.95.14s-7.35-.06-10.95-.14c1.74-6.03,3.74-12.24,5.98-18.06,1.27-3.31,3.2-8.33,4.46-12.04-8.67,2.34-16.58,6.91-22.94,13.24,3.9-6.74,10.29-11.85,17.11-15.54,17.66-9.32,38.87-8.64,57.77-3.9,7.5,1.95,14.85,4.42,22.01,7.39,10.17,3.91,21.01,7.08,31.85,7.44,15.07.7,28.95-6.28,34.64-21.03-.53,3.87-1.86,7.59-3.89,10.92-3.76,6.31-9.58,11.13-16.48,13.65" fill="#fff"/>
      <path id="_패스_328" data-name="패스 328" d="m65.74,85.37c-2.02,8.68-3.04,17.32-5.03,25.89,3.59-.05,7.18-.05,10.76,0-2-8.63-3.02-17.32-5.06-26.07-.23.06-.45.12-.67.18" fill="#fff"/>
      <path id="_패스_329" data-name="패스 329" d="m183.85,98.21c-1.72,7.99-2.73,15.94-4.56,23.83,3.59-.05,7.18-.05,10.76,0-1.87-8.06-2.88-16.19-4.68-24.35-.5.19-1.01.36-1.52.53" fill="#fff"/>
      <rect id="_사각형_116" data-name="사각형 116" width="248" height="233" fill="none"/>
    </g>
  </g>
</svg>