<?xml version="1.0" encoding="UTF-8"?>
<svg id="Layer_2" data-name="Layer 2" xmlns="http://www.w3.org/2000/svg" viewBox="0 0 212 68">
  <g id="Logo">
    <g id="symbol_05_01_0003_01" data-name="symbol 05 01 0003 01">
      <path id="_패스_1120" data-name="패스 1120" d="m107.39,51.84c22.88,11.84,46.09,14.42,68.98,7.67,9.59-2.79,18.63-7.2,26.74-13.03V14.56c-7.67,4.95-16,8.78-24.76,11.37-8.7,2.59-17.72,3.91-26.8,3.91-13.69,0-29.68-2.99-46.94-11.93C76.01,3.12,51.19,3.83,35.41,7.05c-9.31,1.82-18.27,5.15-26.51,9.85v32.36c7.89-4.07,16.3-7.03,25.01-8.78,16.8-3.47,43.19-4.32,73.49,11.37" fill="#fff"/>
      <rect id="_사각형_293" data-name="사각형 293" width="212" height="68" fill="none"/>
    </g>
  </g>
</svg>