<?xml version="1.0" encoding="UTF-8"?>
<svg id="Layer_2" data-name="Layer 2" xmlns="http://www.w3.org/2000/svg" viewBox="0 0 386 266">
  <g id="Logo">
    <g id="symbol_06_01_0008_01" data-name="symbol 06 01 0008 01">
      <path id="_합치기_48" data-name="합치기 48" d="m348.63,259.61c-104.05,0-208.1.02-312.16.05l-3.47.05V75.21c-.12-4.59,1.52-9.06,4.59-12.48,15.05-17.36,29.95-34.85,44.93-52.28,4.84-5.64,9.1-5.58,13.99.11,14.13,16.47,28.27,32.94,42.4,49.41.62.72,1.26,1.41,2.15,2.4,3.21-3.71,6.32-7.28,9.4-10.87,11.92-13.89,23.83-27.78,35.74-41.66,3.99-4.65,8.78-4.71,12.74-.12,4.79,5.56,9.57,11.13,14.34,16.71l16.31,19.07c4.83,5.51,9.58,11.1,14.53,16.86.83-.91,1.56-1.65,2.24-2.44,14.07-16.39,28.13-32.78,42.18-49.17,5.15-6,9.27-6.04,14.42-.03,15.11,17.59,30.22,35.19,45.31,52.79,2.58,2.88,3.97,6.61,3.92,10.47v185.72l-3.55-.1Zm-274.37-9.72h30.39v-49.84h-30.39v49.84Zm206.37,0h30.39v-49.84h-30.39v49.84ZM88.23,18.48c-14.67,17.12-29.4,34.19-43.98,51.38-1.07,1.53-1.62,3.37-1.57,5.23-.08,57.12-.11,114.23-.07,171.35v3.44h21.79v-4.21c0-21.27,0-42.54,0-63.81,0-7.15,2.62-9.74,9.85-9.74,10-.01,20-.01,29.99,0,7.71,0,10.17,2.42,10.17,10.04,0,21.27,0,42.55,0,63.82v3.83h21.85v-3.37c0-57.11-.03-114.23-.09-171.34-.07-2.17-.84-4.26-2.2-5.96-8.58-10.3-17.37-20.41-26.1-30.58-6.08-7.08-12.17-14.16-18.71-21.76-.27.59-.59,1.15-.96,1.69h0Zm120.09,153.64c6.57,0,9.22,2.71,9.23,9.35,0,21.49,0,42.98,0,64.47v3.93h21.8v-3.38c0-57.13.01-114.27.04-171.4.08-2.33-.76-4.6-2.35-6.32-5.21-5.9-10.29-11.92-15.39-17.9l-15.62-18.18c-4.38-5.06-8.73-10.15-13.26-15.43-.69.66-1.33,1.16-1.85,1.77-14.28,16.62-28.58,33.23-42.75,49.95-1.32,1.58-2.1,3.56-2.21,5.62-.12,57.45-.15,114.91-.09,172.36v2.8h21.8v-3.66c0-21.49,0-42.98,0-64.47,0-6.89,2.57-9.51,9.38-9.52,5.21,0,10.42-.01,15.64-.01s10.43,0,15.64.01h0ZM289.57,24.28c-12.89,15.01-25.81,30-38.59,45.1-1.23,1.54-1.93,3.45-1.99,5.42-.1,57.34-.12,114.69-.08,172.04,0,.93.1,1.87.17,3h21.68v-3.63c0-21.39,0-42.77,0-64.16,0-7.47,2.48-9.93,9.96-9.93,10.11,0,20.22,0,30.32,0,7.12,0,9.73,2.65,9.73,9.88.01,21.28.01,42.56,0,63.84v3.99h21.79l.07-173.09c.14-3.27-1.02-6.47-3.23-8.89-13.9-15.97-27.62-32.08-41.41-48.14-.69-.8-1.41-1.55-2.27-2.51-2.14,2.46-4.16,4.76-6.16,7.09h0Zm-112.12,225.54h30.39v-49.75h-30.39v49.75Zm-103.25-59.79h30.43v-8.18h-30.43v8.18Zm103.25,0h30.41v-8.09h-30.41v8.09Zm103.17-.04h30.44v-8.12h-30.44v8.12Zm-3.78-63.62c-4.3,0-7.79-3.49-7.79-7.79h0c0-4.3,3.49-7.79,7.79-7.79h38c4.3,0,7.79,3.49,7.79,7.79s-3.49,7.79-7.79,7.79h-38Zm-103.19,0c-4.3,0-7.79-3.48-7.79-7.79h0c0-4.31,3.48-7.79,7.79-7.79h38c4.3,0,7.79,3.49,7.79,7.79s-3.49,7.79-7.79,7.79h-38Zm-103.24,0c-4.3,0-7.79-3.48-7.79-7.79h0c0-4.31,3.49-7.79,7.79-7.79h37.99c4.3,0,7.79,3.49,7.79,7.79,0,4.3-3.49,7.79-7.79,7.79h-38Zm206.42-29.52c-4.3,0-7.79-3.49-7.79-7.79h0c0-4.3,3.49-7.79,7.79-7.79h38c4.3,0,7.79,3.49,7.79,7.79s-3.49,7.79-7.79,7.79h-38Zm-103.19,0c-4.3,0-7.79-3.48-7.79-7.79h0c0-4.31,3.48-7.79,7.79-7.79h38c4.3,0,7.79,3.49,7.79,7.79s-3.49,7.79-7.79,7.79h-38Zm-103.24,0c-4.3,0-7.79-3.48-7.79-7.79h0c0-4.31,3.49-7.79,7.79-7.79h37.99c4.3,0,7.79,3.49,7.79,7.79,0,4.3-3.49,7.79-7.79,7.79h-38Z" fill="#fff"/>
      <rect id="_사각형_442" data-name="사각형 442" width="386" height="266" fill="none"/>
    </g>
  </g>
</svg>