<?xml version="1.0" encoding="UTF-8"?>
<svg id="_레이어_2" data-name="레이어 2" xmlns="http://www.w3.org/2000/svg" viewBox="0 0 78 115">
  <g id="Logo">
    <g id="symbol_15_04_0002_01" data-name="symbol 15 04 0002 01">
      <rect id="_사각형_191" data-name="사각형 191" width="78" height="115" fill="none"/>
      <path id="_패스_542" data-name="패스 542" d="M44.92,70.11c0-3.27-2.65-5.93-5.92-5.93s-5.93,2.65-5.93,5.92c0,1.92,.93,3.72,2.49,4.84l-2.49,11.64h11.63l-2.33-11.6c1.59-1.11,2.54-2.92,2.54-4.86Z" fill="#fff"/>
      <path id="_패스_543" data-name="패스 543" d="M39.05,37.38c-4.25,0-8.47,.72-12.47,2.14-2.81-4.76-3.12-10.6-.83-15.63,2.62-5.41,7.86-9.06,13.84-9.64,5.31-.48,10.52,1.7,13.89,5.83,3.31,4.25,3.91,10.01,1.56,14.86l10.2,4.73c.68-1.56,4.98-11.93-.26-23C59.31,4.69,47.24,1.94,45.51,1.58c-7.5-1.46-15.27,.11-21.61,4.36-9.99,6.69-12.17,17.3-12.71,20.07-1.15,6.1-.71,12.4,1.26,18.29,.34,1.03,.73,2.05,1.15,3.04C-1.71,61.43-2.69,85.25,11.4,100.56c14.09,15.3,37.92,16.29,53.22,2.2,15.3-14.09,16.29-37.92,2.2-53.22-7.15-7.76-17.22-12.17-27.77-12.15h0Zm0,63.72c-14.2,.1-25.8-11.33-25.91-25.53-.1-14.2,11.33-25.8,25.53-25.91,14.2-.1,25.8,11.33,25.91,25.53,0,.06,0,.12,0,.19,.05,14.15-11.38,25.67-25.53,25.72h0Z" fill="#fff"/>
    </g>
  </g>
</svg>