<?xml version="1.0" encoding="UTF-8"?>
<svg id="Layer_2" data-name="Layer 2" xmlns="http://www.w3.org/2000/svg" viewBox="0 0 128 128">
  <g id="Logo">
    <g id="symbol_02_02_0004_01" data-name="symbol 02 02 0004 01">
      <path id="_패스_1310" data-name="패스 1310" d="m66.85,77.82l25.79,25.79,3.21-3.2-25.79-25.79-3.22,3.2Z" fill="#fff"/>
      <path id="_패스_1311" data-name="패스 1311" d="m39.97,50.84l14.99,15,3.21-3.19-15.02-15-3.17,3.19Z" fill="#fff"/>
      <path id="_패스_1312" data-name="패스 1312" d="m25.05,36.03l2.91,2.9h0l3.21-3.16-2.93-2.97-3.19,3.23Z" fill="#fff"/>
      <path id="_패스_1313" data-name="패스 1313" d="m64.4,4.55c-33.11,0-59.95,26.84-59.94,59.95,0,33.11,26.84,59.95,59.95,59.94,33.11,0,59.94-26.84,59.94-59.95-.04-33.09-26.86-59.91-59.95-59.95m0,115.89c-30.9,0-55.95-25.05-55.94-55.95S33.51,8.55,64.41,8.55c30.9,0,55.94,25.05,55.94,55.95-.03,30.89-25.06,55.91-55.95,55.95" fill="#fff"/>
      <rect id="_사각형_415" data-name="사각형 415" width="128" height="128" fill="none"/>
    </g>
  </g>
</svg>