<?xml version="1.0" encoding="UTF-8"?>
<svg id="Layer_2" data-name="Layer 2" xmlns="http://www.w3.org/2000/svg" viewBox="0 0 124 124">
  <g id="Logo">
    <g id="symbol_07_02_0004_01" data-name="symbol 07 02 0004 01">
      <path id="_패스_1159" data-name="패스 1159" d="m57.72,57.7l-34.12,48.97c6.59,5.75,14.46,9.86,22.94,12,5.39,1.32,10.94,1.84,16.47,1.54,9.05-.32,17.92-2.63,25.99-6.76,3.63-1.9,7.05-4.19,10.21-6.81l-33.15-49.2c-2.58,1.39-5.67,1.49-8.34.26h0Z" fill="#fff"/>
      <path id="_패스_1160" data-name="패스 1160" d="m81.92,45.71l-14.71-14.86s-.1-.09-.16-.13v-4.26c0-.73-.6-1.32-1.33-1.32h-2.75V6.12c-.08-2.15-.12-3.27-.12-3.27h0s-.6-.02-1.2-.02c-.6,0-1.23,0-1.23,0h0s-.04,1.15-.12,3.28v19.02h-2.75c-.73,0-1.33.58-1.34,1.32h0v4.49c0,.14.03.28.07.41-1.69,1.41-5.56,5.02-15.41,14.33-.39.37-.52.94-.31,1.44.21.5.7.83,1.24.83h10.88c.16.65.42,1.27.77,1.83,1.5,2.52,4.62,5.07,8.18,5.07h0c3.57,0,6.68-2.55,8.19-5.08.35-.56.6-1.18.76-1.82h10.38c.53,0,1.02-.31,1.23-.8.22-.49.11-1.06-.27-1.44Zm-36.79-.4c5.17-4.87,11.65-10.94,13.16-12.23h7.4l12.1,12.23h-32.66Z" fill="#fff"/>
      <path id="_패스_1161" data-name="패스 1161" d="m94.66,62.6c-.63-2.39-2.5-4.26-4.89-4.89,1.3-.37,2.47-1.1,3.37-2.11.71-.8,1.23-1.75,1.52-2.78.58,2.42,2.47,4.31,4.89,4.89-2.4.62-4.28,2.49-4.89,4.89Z" fill="#fff"/>
      <path id="_패스_1162" data-name="패스 1162" d="m23.25,40.03c-.53-2.02-2.11-3.6-4.13-4.13,2-.56,3.57-2.13,4.13-4.13.49,2.04,2.09,3.64,4.13,4.13-2.03.52-3.61,2.1-4.13,4.13Z" fill="#fff"/>
      <path id="_패스_1163" data-name="패스 1163" d="m13.46,74.51c-.63-2.39-2.5-4.26-4.89-4.89,2.37-.67,4.23-2.52,4.89-4.89.58,2.42,2.47,4.31,4.89,4.89-2.4.62-4.28,2.49-4.89,4.89Z" fill="#fff"/>
      <rect id="_사각형_311" data-name="사각형 311" width="124" height="124" fill="none"/>
    </g>
  </g>
</svg>