<?xml version="1.0" encoding="UTF-8"?>
<svg id="Layer_2" data-name="Layer 2" xmlns="http://www.w3.org/2000/svg" viewBox="0 0 268 169">
  <g id="Logo">
    <g id="symbol_13_04_0005_02" data-name="symbol 13 04 0005 02">
      <path id="_패스_1027" data-name="패스 1027" d="m147.8,133.03s-13.07,5.74-33.8,12.83c-10.93,3.73-21.83,6.93-21.83,6.93l-.07.02-1.24.21c.21.12.51.3.89.5,5.85,3.27,12.1,5.78,18.59,7.45,6.39,1.53,12.93,2.36,19.49,2.46,37.39,0,69.54-26.49,76.71-63.19-2.75,1.84-5.5,3.6-8.38,5.42-12.45,7.87-28.06,17.73-50.35,27.35" fill="#fff"/>
      <path id="_패스_1028" data-name="패스 1028" d="m259.41,31.62c-3.9-10.49-19.99-13.06-22.64-13.48-3-.47-6.04-.61-9.06-.41-18.76,1-29.88,4.06-47.52,7.84C147.25-2.26,97.98,1.88,70.15,34.82c-10.37,12.27-16.7,27.44-18.13,43.43-12.62,9.25-22.09,17.39-29.36,24.91-3.15,3.26-5.97,6.83-8.41,10.64-1.8,2.74-3.32,5.66-4.54,8.7-2.76,6.87-2.45,10.61-1.97,12.83,1.26,5.85,5.38,9.38,7.14,10.89,6.38,5.48,13.98,6,21.88,6.59,5.5.36,11.02.11,16.46-.75,15-1.93,21.48-6.1,24.38-8.67,2.71,2.51,5.57,4.85,8.57,7.01.86-.35,1.76-.7,2.71-1.03.58-.2,1.15-.39,1.7-.56,0,0,29.64-8.52,55.71-19.78,22.29-9.62,37.9-19.49,50.35-27.35,12.48-7.89,22.55-14.78,40.88-30.72,16.43-14.29,19.02-21.2,20.33-24.77,1.67-4.51,3.48-9.42,1.56-14.57M46.7,146s-19.18,2.1-27.6-4.71c-2.4-1.85-4.16-4.41-5.01-7.32-.02-.12-.06-.27-.09-.46-.35-2.97.26-5.97,1.74-8.57,3.43-6.39,7.71-12.28,12.73-17.52,4.4-4.45,9.01-8.68,13.83-12.67,3.11-2.67,6.28-5.24,9.49-7.76.08,1.9.15,3.8.23,5.7,1.63,17.78,9.39,34.43,21.94,47.13-6,1.79-15.52,4.89-27.26,6.18m66.73-38.98c-3.71,0-6.72-3.01-6.72-6.72s3.01-6.72,6.72-6.72,6.72,3.01,6.72,6.72c0,3.71-3.01,6.72-6.72,6.72h0m0-28.8c-3.71,0-6.72-3.01-6.72-6.72,0-3.71,3.01-6.72,6.72-6.73,3.71,0,6.72,3.01,6.73,6.72h0c0,3.71-3.01,6.72-6.72,6.73h0m32.1,28.8c-3.71,0-6.72-3.01-6.72-6.72s3.01-6.72,6.72-6.72c3.71,0,6.72,3.01,6.72,6.72,0,3.71-3.01,6.72-6.72,6.72h0m0-28.8c-3.71,0-6.72-3.01-6.72-6.72s3.01-6.72,6.72-6.72,6.72,3.01,6.72,6.72h0c0,3.71-3.01,6.72-6.72,6.72h0m107.04-37.72c-1.91,7.38-6.51,13.09-11.75,18.24-10.23,9.89-21.21,18.97-32.85,27.15,0-.2.01-.4.01-.6.02-18.75-6.73-36.87-19-51.04l-3.38-3.57c6.94-1.6,12.91-2.9,15.93-3.44,6.58-1.18,28.81-5.03,41.83-.82,2.27.73,7.24,2.42,9.07,6.78.86,2.35.91,4.92.13,7.3" fill="#fff"/>
      <rect id="_사각형_398" data-name="사각형 398" width="268" height="169" fill="none"/>
    </g>
  </g>
</svg>