<?xml version="1.0" encoding="UTF-8"?>
<svg id="Layer_2" data-name="Layer 2" xmlns="http://www.w3.org/2000/svg" viewBox="0 0 106 136">
  <g id="Logo">
    <g id="symbol_14_02_0003_01" data-name="symbol 14 02 0003 01">
      <path id="_합치기_30" data-name="합치기 30" d="m7.96,126.11c-3.07-4.07-.77-11.33,6.67-20.98,1.29-1.69,2.72-3.41,4.27-5.16-.96-3.35-1.45-6.83-1.45-10.32h24.23l3.05-8.65,2.11-5.98,8.04-22.79c7.11,0,14.07,2.02,20.06,5.84,12.42-5.75,22.85-7.74,26.67-2.7,3.08,4.07.78,11.33-6.66,20.98-1.13,1.47-2.37,2.97-3.69,4.5,4.87,20.09-7.47,40.32-27.56,45.18-9.11,2.21-18.71.92-26.92-3.62-2.34,1.14-4.62,2.16-6.8,3.03-5.96,2.38-10.89,3.57-14.67,3.57-3.4,0-5.88-.96-7.34-2.89Zm9.45-18.84c-7.18,9.32-8.13,14.75-6.64,16.73s6.98,2.54,17.91-1.82c1.48-.59,3.02-1.26,4.59-1.99-5.81-4.12-10.33-9.8-13.04-16.39-1,1.18-1.94,2.33-2.82,3.47Zm63.49-47.97c-.87.35-1.76.73-2.66,1.12,5.37,4.29,9.45,9.97,11.81,16.42.74-.89,1.45-1.77,2.11-2.63,7.18-9.32,8.14-14.75,6.64-16.73-.67-.89-2.15-1.49-4.55-1.49-2.96,0-7.33.91-13.35,3.31Zm-61.78,24.53c-.97,0-1.75-.79-1.75-1.75v-32.45c0-.3-.24-.54-.54-.54H7.05c-2.24,0-4.05-1.81-4.05-4.05v-15.35c0-2.24,1.81-4.05,4.05-4.05h21.69c2.24,0,4.05,1.81,4.05,4.05v6.73c0,2.24-1.82,4.05-4.05,4.05h-9.62c-.97,0-1.75-.79-1.75-1.75s.79-1.75,1.75-1.75h9.62c.3,0,.54-.24.54-.54v-6.73c0-.3-.24-.54-.54-.54H7.05c-.3,0-.54.24-.54.54v15.35c0,.3.24.54.54.54h9.78c2.24,0,4.05,1.81,4.05,4.05v30.69h12.61l19.74-54.76c.36-.9,1.38-1.34,2.28-.98.86.34,1.31,1.29,1.02,2.17l-20.16,55.92c-.25.69-.91,1.16-1.65,1.16h-15.59Zm28.8-60.87c-1.16,0-2.1-.94-2.1-2.1v-10.75c0-1.16.94-2.1,2.1-2.1h6.29c1.16,0,2.1.94,2.1,2.1v10.75c0,1.16-.94,2.1-2.1,2.1h-6.29Zm-11.8,0c-1.16,0-2.1-.94-2.1-2.1v-10.75c0-1.16.94-2.1,2.1-2.1h6.29c1.16,0,2.1.94,2.1,2.1v10.75c0,1.16-.94,2.1-2.1,2.1h-6.29Zm-11.81,0c-1.16,0-2.1-.94-2.1-2.1v-10.75c0-1.16.94-2.1,2.1-2.1h6.29c1.16,0,2.1.94,2.1,2.1v10.75c0,1.16-.94,2.1-2.1,2.1h-6.29Zm-11.8,0c-1.16,0-2.1-.94-2.1-2.1v-10.75c0-1.16.94-2.1,2.1-2.1h6.29c1.16,0,2.1.94,2.1,2.1v10.75c0,1.16-.94,2.1-2.1,2.1h-6.29Z" fill="#fff"/>
      <rect id="_사각형_286" data-name="사각형 286" width="106" height="136" fill="none"/>
    </g>
  </g>
</svg>