<?xml version="1.0" encoding="UTF-8"?>
<svg id="_레이어_2" data-name="레이어 2" xmlns="http://www.w3.org/2000/svg" viewBox="0 0 432 120">
  <g id="Logo">
    <g id="symbol_12_01_0006_01" data-name="symbol 12 01 0006 01">
      <rect id="_사각형_310" data-name="사각형 310" width="432" height="120" fill="none"/>
      <path id="_패스_876" data-name="패스 876" d="M105.07,67.83v-4.27c2.63,0,5.15,0,7.66,0,1.68,.17,3.34-.4,4.56-1.57,.78-1.04,1.45-2.14,2.01-3.31v-2.26c-.71-1.82-1.91-3.41-3.46-4.59-2.54-2.23-5-4.56-7.53-6.81-.51-.43-.79-1.08-.74-1.75,.02-9.2,.02-18.41,.01-27.61,0-2.96-1.2-4.17-4.16-4.17-7.23,0-14.45,0-21.68,0-3.38,0-4.41,1.02-4.47,4.43,0,.18-.02,.36-.04,.7-.35-.27-.6-.45-.84-.67-3.45-3.13-6.9-6.27-10.35-9.41-3.04-2.77-6.08-2.78-9.12-.03C40.02,21.89,23.13,37.25,6.24,52.6c-1.18,1.04-2.08,2.36-2.62,3.83v2.26c.31,.8,.68,1.57,1.11,2.31,1.17,1.72,3.16,2.69,5.24,2.55,2.18,0,4.37,0,6.55,0h1.33v46.43c0,3.05,1.17,4.23,4.21,4.23h58.94c6.69,0,13.38,0,20.06,0,2.74,0,4-1.27,4-4,0-10.35,0-20.7,0-31.05H371.3v35.06h16.36v-12.83h12.12v12.83h16.36v-35.06h12.2v-11.33H105.07Zm-51.41,33.62c0,1.79-1.45,3.25-3.25,3.25h-14.45c-1.79,0-3.25-1.45-3.25-3.25h0v-27.96c0-1.79,1.45-3.25,3.25-3.25h14.45c1.79,0,3.25,1.45,3.25,3.25h0v27.96Z" fill="#fff"/>
    </g>
  </g>
</svg>