<?xml version="1.0" encoding="UTF-8"?>
<svg id="_레이어_2" data-name="레이어 2" xmlns="http://www.w3.org/2000/svg" viewBox="0 0 106 66">
  <g id="Logo">
    <g id="symbol_20_01_0003_01" data-name="symbol 20 01 0003 01">
      <rect id="_사각형_275" data-name="사각형 275" width="106" height="66" fill="none"/>
      <path id="_패스_752" data-name="패스 752" d="M42.19,47.22l-23.74,2.37c-.34,.36-.32,.93,.05,1.27,.02,.02,.04,.04,.07,.06,.42,.29,.92,.45,1.43,.46l22.17,2.65c-1.73,3.46-4.62,6.21-8.17,7.76-10.34,4.99-22.75,2.23-30-6.67-1.1-1.18-1.82-2.67-2.07-4.26-.2-2.23,1.15-4.29,2.66-5.94,3.99-4.33,9.36-7.14,15.19-7.93,8.42-1.12,18.53,2.14,22.42,10.23Z" fill="#fff"/>
      <path id="_패스_753" data-name="패스 753" d="M56.55,42.54l-2.37-23.74c-.36-.34-.93-.32-1.27,.05-.02,.02-.04,.04-.06,.07-.29,.42-.45,.92-.46,1.43l-2.65,22.17c-3.46-1.73-6.21-4.62-7.76-8.17-4.99-10.34-2.23-22.75,6.67-30,1.18-1.1,2.67-1.82,4.26-2.07,2.23-.2,4.29,1.15,5.94,2.66,4.33,3.99,7.14,9.36,7.93,15.19,1.12,8.42-2.14,18.53-10.23,22.42Z" fill="#fff"/>
      <path id="_패스_754" data-name="패스 754" d="M63.93,53.56l23.74-2.37c.34-.36,.32-.93-.05-1.27-.02-.02-.04-.04-.07-.06-.42-.29-.92-.45-1.43-.46l-22.17-2.65c1.73-3.46,4.62-6.21,8.17-7.76,10.34-4.98,22.75-2.22,30,6.67,1.1,1.18,1.82,2.67,2.07,4.26,.2,2.23-1.15,4.29-2.66,5.94-3.99,4.33-9.36,7.14-15.19,7.93-8.42,1.12-18.53-2.15-22.42-10.23Z" fill="#fff"/>
      <path id="_패스_755" data-name="패스 755" d="M84.46,19.85l-10.68,7.54c-.32-4.72,1.47-9.34,4.89-12.62,3.09-2.8,7.34-3.95,11.42-3.1,4.28,.95,4.86,6.83,3.6,10.37-1.32,3.35-3.91,6.03-7.21,7.48-3.28,1.42-6.83,2.07-10.4,1.92l8.39-9.56c.31-.3,.54-.68,.64-1.1,.08-.44-.21-.85-.65-.93,0,0,0,0,0,0Z" fill="#fff"/>
      <path id="_패스_756" data-name="패스 756" d="M36.23,28.62l-9.61-6.38c-.35-.29-.78-.47-1.24-.51-.45,0-.93,.38-.86,.83l8.28,9.42c-6.92,1.79-14.1-1.86-16.72-8.51-1.21-3.06-1.14-6.95,1.28-9.18,1.84-1.52,4.28-2.1,6.61-1.59,3.88,.7,7.38,2.8,9.82,5.9,1.09,1.47,1.86,3.14,2.28,4.92,.13,.54,.12,5.09,.15,5.11Z" fill="#fff"/>
    </g>
  </g>
</svg>