<?xml version="1.0" encoding="UTF-8"?>
<svg id="Layer_2" data-name="Layer 2" xmlns="http://www.w3.org/2000/svg" viewBox="0 0 234 119">
  <g id="Logo">
    <g id="symbol_20_02_0001_02" data-name="symbol 20 02 0001 02">
      <path id="_패스_503" data-name="패스 503" d="m84.15,9.19c-6.9,3.64-11.28,9.07-10.39,12.6-4.35,2.84-8.53,5.95-12.49,9.31.52-3.41.37-6.89-.43-10.24-1.83-8.18-6.42-14.12-10.25-13.26s-5.45,8.18-3.62,16.36c1.46,6.56,4.7,11.66,7.9,13-6.73,6.61-12.66,13.98-17.68,21.97.11-3.55-.49-7.09-1.78-10.41-2.9-7.86-8.24-13.14-11.92-11.78s-4.31,8.83-1.41,16.7c2.67,7.22,7.39,12.25,10.99,11.96-.12.32-.2.66-.23,1.01-3.33,6.21-6.16,12.68-8.45,19.35-.66-2.18-1.56-4.28-2.7-6.26-4.16-7.28-10.29-11.6-13.7-9.66s-2.8,9.43,1.36,16.7c3.47,6.08,8.31,10.08,11.8,10.11-1.4,5.52-2.46,11.12-3.18,16.77.74-.2,1.48-.4,2.26-.6.52-3.88,1.3-8.43,2.49-13.44,1.9,2.69,7.8,3.12,14.28,1.08.67-.21,1.35-.44,2.04-.71,2.49-.96,4.83-2.25,6.96-3.84.74-.56,1.44-1.16,2.09-1.82.62-.62,1.17-1.3,1.65-2.03.37-.56.65-1.16.86-1.8.3-.86.3-1.79,0-2.65-.92-2.36-4.39-3.39-8.82-3.01-2.71.26-5.37.91-7.9,1.92-3.19,1.19-6.12,2.98-8.64,5.26.03-.52.03-1.04,0-1.56.36-1.15.73-2.3,1.13-3.47,2.05-6.01,4.54-11.86,7.45-17.5,2.25,2.48,8.07,3.46,14.6,2.25.26-.05.53-.09.79-.15,6.73-1.42,11.97-4.71,13.19-7.96.23-.59.31-1.23.23-1.86-.01-.08,0-.17-.03-.25-.32-1.54-1.71-2.73-3.76-3.5-3.07-1.16-7.65-1.37-12.56-.33-2.46.5-4.85,1.32-7.1,2.43,4.75-7.52,10.33-14.49,16.63-20.78,0,.08-.01.17,0,.25.29,3.91,7.3,6.59,15.66,5.97.75-.06,1.47-.14,2.19-.24,6.52-.93,11.52-3.71,12.31-6.84.1-.36.14-.74.12-1.11-.29-3.91-7.3-6.59-15.66-5.97-2.62.18-5.21.71-7.69,1.58,3.87-3.29,7.95-6.33,12.2-9.1,2.72,2.27,9.32,1.59,15.86-1.86,7.41-3.91,11.94-9.9,10.11-13.37s-9.33-3.11-16.74.8" fill="#fff"/>
      <path id="_패스_504" data-name="패스 504" d="m230.61,69.85c-3.41-1.95-9.54,2.38-13.7,9.66-1.14,1.98-2.05,4.08-2.71,6.26-2.29-6.67-5.11-13.14-8.45-19.35-.04-.34-.11-.68-.23-1.01,3.6.28,8.32-4.74,10.99-11.96,2.9-7.86,2.27-15.34-1.41-16.7s-9.02,3.91-11.92,11.78c-1.29,3.31-1.9,6.85-1.79,10.41-5.02-7.99-10.95-15.36-17.67-21.97,3.2-1.33,6.43-6.44,7.9-12.99,1.83-8.18.2-15.51-3.63-16.36s-8.41,5.08-10.24,13.26c-.8,3.35-.95,6.83-.43,10.24-3.96-3.37-8.13-6.48-12.49-9.31.89-3.53-3.5-8.96-10.39-12.6-7.41-3.91-14.91-4.27-16.74-.8s2.69,9.46,10.11,13.37c6.54,3.45,13.14,4.13,15.86,1.86,4.26,2.77,8.33,5.81,12.21,9.1-2.48-.87-5.07-1.4-7.69-1.58-8.36-.61-15.37,2.06-15.66,5.97-.02.37.02.74.12,1.09.54,2.18,3.13,4.2,6.85,5.54.57.21,1.16.4,1.79.57,1.18.32,2.39.57,3.6.74.74.11,1.49.2,2.26.25,8.36.61,15.37-2.06,15.66-5.97,0-.08,0-.17,0-.25,6.3,6.28,11.88,13.25,16.63,20.78-2.25-1.11-4.64-1.93-7.1-2.43-4.93-1.04-9.52-.82-12.59.34-2.04.77-3.41,1.96-3.73,3.49-.81,3.84,5.19,8.35,13.39,10.08.25.05.51.1.76.14,6.54,1.21,12.37.24,14.63-2.25,2.91,5.64,5.4,11.49,7.45,17.5.4,1.17.77,2.33,1.13,3.48-.03.52-.03,1.04,0,1.56-2.52-2.28-5.45-4.07-8.64-5.26-2.53-1.01-5.2-1.66-7.91-1.92-4.43-.38-7.89.65-8.81,3.01-.3.86-.3,1.79,0,2.65.2.64.49,1.24.86,1.8,1.03,1.51,2.32,2.84,3.81,3.91.87.66,1.79,1.26,2.74,1.8,1.33.76,2.72,1.42,4.15,1.98.69.27,1.38.5,2.06.72,6.47,2.04,12.36,1.6,14.26-1.08,1.18,5.01,1.97,9.56,2.49,13.44.77.2,1.51.4,2.26.6-.72-5.65-1.78-11.25-3.18-16.76,3.49-.03,8.33-4.03,11.8-10.11,4.16-7.28,4.76-14.76,1.36-16.7" fill="#fff"/>
      <rect id="_사각형_178" data-name="사각형 178" width="234" height="119" fill="none"/>
    </g>
  </g>
</svg>