<?xml version="1.0" encoding="UTF-8"?>
<svg id="_레이어_2" data-name="레이어 2" xmlns="http://www.w3.org/2000/svg" viewBox="0 0 121 81">
  <g id="Logo">
    <g id="symbol_02_01_0003_02" data-name="symbol 02 01 0003 02">
      <rect id="_사각형_264" data-name="사각형 264" width="121" height="81" fill="none"/>
      <path id="_패스_1078" data-name="패스 1078" d="M119.28,31.98c-.7-11.4-6.9-22.6-17.12-29.93,9.58,13.19,9.58,31.04,0,44.23-9.59,13.17-28.29,20.98-46.25,19.3l2.04,4.35c-13.06-4.91-26.49-10.33-35.51-19.83C9.99,36.97,8.49,16.9,18.86,2.07c-1.73,2.46-5.55,4.52-7.65,6.92-2.41,2.73-4.46,5.76-6.12,9C1.9,24.13,.45,31.02,.87,37.93c.94,13.32,11.03,25.87,23.74,33.1,12.82,7.3,28.91,9.92,44.13,8.06,11.48-1.4,22.62-5.32,31.56-11.68s15.58-15.2,18.03-24.95c.85-3.42,1.18-6.96,.95-10.48Z" fill="#fff"/>
    </g>
  </g>
</svg>