<?xml version="1.0" encoding="UTF-8"?>
<svg id="Layer_2" data-name="Layer 2" xmlns="http://www.w3.org/2000/svg" viewBox="0 0 282 282">
  <g id="Logo">
    <g id="symbol_11_01_0006_02" data-name="symbol 11 01 0006 02">
      <path id="_패스_930" data-name="패스 930" d="m153.41,32c-33.94,0-66.14,15.02-87.94,41.03,3.67.9,7.28,2.07,10.77,3.51,38.9-42.66,105.02-45.71,147.68-6.8,42.66,38.9,45.71,105.02,6.8,147.68-38.9,42.66-105.02,45.71-147.68,6.8-2.37-2.16-4.64-4.43-6.8-6.8-3.5,1.44-7.1,2.61-10.77,3.51,40.86,48.59,113.36,54.85,161.95,14,48.59-40.86,54.85-113.36,14-161.95-21.85-25.98-54.06-40.97-88-40.97" fill="#fff"/>
      <path id="_패스_931" data-name="패스 931" d="m76.63,162.21c5.68,10.9,16.95,17.74,29.24,17.74.24,0,.47-.01.7-.02,18.2-.38,32.66-15.44,32.28-33.64-.36-17.68-14.61-31.92-32.28-32.28-.23,0-.47-.02-.7-.02-12.29,0-23.56,6.83-29.24,17.74-8.42-16.15-28.34-22.42-44.49-14-16.15,8.42-22.42,28.34-14,44.49,8.42,16.15,28.34,22.42,44.49,14,5.99-3.12,10.88-8.01,14-14m-28.03-15.24c0-7.27,5.89-13.16,13.15-13.16,5.64,0,10.66,3.59,12.47,8.94,2.33-6.88,9.8-10.57,16.69-8.24,6.88,2.33,10.57,9.8,8.24,16.69s-9.8,10.57-16.69,8.24c-3.88-1.31-6.92-4.36-8.24-8.24-2.33,6.88-9.8,10.57-16.68,8.24-5.34-1.81-8.94-6.82-8.94-12.47" fill="#fff"/>
      <rect id="_사각형_320" data-name="사각형 320" width="282" height="282" fill="none"/>
    </g>
  </g>
</svg>