<?xml version="1.0" encoding="UTF-8"?>
<svg id="_레이어_2" data-name="레이어 2" xmlns="http://www.w3.org/2000/svg" viewBox="0 0 245 245">
  <g id="Logo">
    <g id="symbol_17_03_0004_01" data-name="symbol 17 03 0004 01">
      <path id="_패스_1191" data-name="패스 1191" d="m228.8,75.98h-30.63c-.11.45-.15.91-.13,1.37.01.22.04.44.08.65-6.03,7.24-12.6,14.01-19.66,20.25-7.08,6.66-16.85,9.63-26.44,8.04-6.07-.93-12.25-.95-18.33-.06-1.08.18-2.18.23-3.27.17-1.58-.1-3.6.3-4.15-1.79-.55-2.11.86-3.49,2.51-4.55,3.39-2.18,7.24-3.07,11.11-3.83,1.71-.34,3.46-.44,5.58-.69-4.55-2-13.77-1.07-19.24,1.76-8.2,4.24-14.64,10.71-21.26,16.93-3.11,2.92-6.09,5.99-9.16,8.96-1.63,1.63-3.53,2.97-5.62,3.95-1.01.46-2.14.8-3.05-.16-.62-.81-.69-1.91-.18-2.8,1.26-3.04,2.87-5.92,4.79-8.59,5.96-9.06,12.52-17.72,19.62-25.93,8.97-10.34,21.96-10.97,28.79-12.34,8.89-1.77,18.02-1.98,26.98-.61V14.33c0-4.41-3.57-7.98-7.98-7.98h-74.51c-4.41,0-7.98,3.57-7.98,7.98h0v61.64H15.04c-4.4,0-7.98,3.57-7.98,7.98v74.52c0,4.41,3.57,7.98,7.98,7.98h30.99c-.06-.06-.11-.12-.15-.19-.62-1.12.73-1.93,1.38-2.72,5.99-7.28,12.68-13.95,19.99-19.9,6.3-5.32,14.56-7.71,22.72-6.58,7.6,1.1,15.31,1.15,22.92.15,1.6-.23,3.52-.49,4.27,1.47.76,2-.62,3.36-2.1,4.37-3.13,2.04-6.68,3.36-10.39,3.87-2.45.4-4.92.61-7.39.91,8.79,2.62,16.86,1.04,24.29-3.99,8.95-6.06,16.35-13.88,24.1-21.31,2.37-2.27,4.7-4.61,7.73-6.05.98-.47,2.08-1.07,3.06-.13.86.82.36,1.85.07,2.78-1.2,3.42-2.94,6.63-5.14,9.51-5.75,8.28-11.78,16.37-18.27,24.08-8.42,9.99-19.85,13.29-32.3,13.56-8.05.17-16.1.27-24.14.33v61.49c0,4.4,3.57,7.98,7.98,7.98h74.52c4.4,0,7.98-3.57,7.98-7.97h0v-61.64h61.64c4.4,0,7.98-3.57,7.98-7.98h0v-74.52c0-4.4-3.57-7.98-7.98-7.98h0" fill="#fff"/>
      <rect id="_사각형_550" data-name="사각형 550" width="245" height="245" fill="none"/>
    </g>
  </g>
</svg>