<?xml version="1.0" encoding="UTF-8"?>
<svg id="_레이어_2" data-name="레이어 2" xmlns="http://www.w3.org/2000/svg" viewBox="0 0 174 209">
  <g id="Logo">
    <g id="symbol_21_02_0006_01" data-name="symbol 21 02 0006 01">
      <path id="_패스_1308" data-name="패스 1308" d="m86.98,37.1c-1.83,0-3.66.07-5.46.18l-1.75-13.35,18.86-5.17-1.69-11.93-21.01,5.21,3.23,25.43C37.37,41.41,4.53,76.55,4.48,119.2c-.22,45.56,36.54,82.67,82.1,82.89s82.67-36.54,82.89-82.1c.22-45.56-36.54-82.67-82.1-82.89-.13,0-.26,0-.39,0m-54.97,108.29c-.04.68-.27,1.34-.67,1.89-2.8,3.53-2.12,7.28-.72,11.08.65,1.76,2.35,3.53-.55,5.04-.9.47-.57,1.86-.35,2.86.57,2.64,1.16,5.28,1.74,7.92-4.57-3.92-8.47-8.57-11.53-13.76-9.15-14.78-13.1-32.2-11.22-49.48.11-1.14-.52-3.4,1.14-3.23,2.01.22,3.65,1.73,4.04,3.71.11.76.12,1.53.04,2.29-.19,1.81.49,3.59,1.83,4.82,1.5,1.32,2.23,3.3,1.94,5.28-.22,1.95.47,3.89,1.88,5.26,2.28,2.57,4.91,4.95,5.53,8.66.18,1.07,1.33,1.37,2.33,1.72,3.71,1.33,4.92,2.99,4.57,5.94m19.37-89.18c.08,1.6-1.01,3.02-2.58,3.38-3.48.93-4.67,3.63-5.4,6.71-.27,1.15-.46,2.32-.64,3.49-.42,2.78-1.95,3.57-4.45,2.26-1.15-.6-2.24-2.46-3.28.32-.34.91-2.04.45-3.11.34-2.97-.31-5.46-.14-6.85,3.26-.78,1.91-3.36,1.55-5.12,2.36,12.02-19.26,29.04-31.41,51.24-36.17,5.39-1.15,10.9-1.68,16.42-1.55.74.02,1.68-.36,1.37,1.22-.36,1.87.95,3.94-.83,5.71-2.05,1.95-4.75,3.09-7.58,3.18-3.31.23-4.85,1.65-5.26,4.88-.34,2.08-1.87,3.77-3.91,4.29-1.48.51-2.98.75-2.77-1.7.1-1.19-.68-1.37-1.65-1.31-1.6.19-3.15.7-4.55,1.51-1.88.99-3.91,1.66-6.01,1.98-2.46.32-2.91-.2-2.2-2.66.33-1.14.87-2.21,1.16-3.35.23-.91.3-1.98-.83-2.38-1.02-.37-1.76.26-2.33,1.1-.58.94-.88,2.03-.85,3.14m109.04,61.4c-.8-.87-1.49-1.84-2.04-2.89-1.37-2.91-2.67-5.86-3.84-8.87-.59-1.95-1.76-3.69-3.35-4.97-.77-.68-1.23-1.65-1.27-2.69-.4-2.25-1.92-2.61-3.55-1.68-1.49.82-3.28.88-4.82.17-2.4-.8-4.73-1.91-7.31-2.07-.9-.05-2.03-.23-2.44.87-.3,1.01.07,2.1.93,2.72,1.75,1.48,3.7,2.71,5.8,3.63.48.35,1.15.24,1.5-.24.07-.1.13-.21.16-.33.57-1.26,1.32-1.69,2.55-.79,1.42,1.04,3.6,2.03,2.5,4.1-2.55,4.77-4.97,9.68-8.76,13.67-1.32,1.39-2.6,1.07-3.56-.43-1.6-2.5-3.21-5-4.62-7.6-2.37-4.37-6.79-6.07-10.75-8.97-.16,1.67.34,3.33,1.39,4.63,3.13,5.15,6.7,10.02,10.68,14.55,3.02,3.36,4.3,3.53,8.13,1.35,1.24-.71,2.81-1.92,3.93-1.01,1.16.93.31,2.75-.21,4.06-1.77,4.53-4.45,8.64-7.88,12.08-4.84,4.77-4.87,10.38-4.13,16.28.56,4.53.73,4.49-3.51,6.34-3.71,1.62-5.12,4.73-5.39,8.54q-.32,4.57-4.69,5.62c-1.51.35-2.84,1.24-3.73,2.5-1.36,1.98-3.54,3.26-5.93,3.48-1.88.23-3.46,1.35-5.18,2.05-3.47,1.41-4.27.36-5.39-2.97-1.3-3.9-.48-8.61-4.31-11.68-1.46-1.17-1.15-5.17.47-6.79,2.22-2.22,1.79-4.35.39-6.62-1.86-3.03-3.96-5.91-5.61-9.08-.81-1.2-.9-2.74-.22-4.02,1.34-2.69.47-3.96-2.48-4.07-1.3-.05-2.64-.05-3.26-1.46-1.05-2.43-2.98-2.43-5.11-1.99-2.57.53-5.13,1.17-7.73,1.54-6.4.9-10.15-1.18-12.84-7.04-1.89-4.12-3.59-8.29-1.99-12.96.05-.16.06-.34.03-.51-1.22-6.88,3.26-10.63,7.86-14.31,2.58-2.07,5.29-3.99,7.74-6.2,2.5-2.25,2.25-4.01-.76-5.34-2.06-.92-1.09-2.09-.95-3.47.17-1.78,1.87-2.07,2.54-3.21,1.23-2.06,2.3-.68,3.58-.22,1.35.48,2.43.19,1.93-1.66-.17-.65-.4-1.29-.64-1.93-1.01-2.75-.79-3.16,2.1-3.42,1.06-.1,1.99-.38,1.76-1.59-.24-1.28-1.42-1.09-2.29-.81-1.55.5-3.25,1.86-3.64-1.16-.01-.09-.25-.17-.39-.21-2.49-.8-2.51-.82-.89-2.84,1.06-1.32,2.12-2.66,3.31-3.87,1.34-1.37,2.83-1.1,2.89.68.07,2.43,2.4,3.73,2.39,6.1.05.62.6,1.09,1.22,1.04.19-.02.37-.08.53-.18,1.01-.61,2.36-.66,3.07-1.7,1.55-2.23,3.58-1.79,5.68-1.15.32.1.6.32.93.42,3.89,1.15,5.3.18,5.47-3.84.08-1.86.05-3.73-.1-5.58-.09-1-.58-2.22-1.68-2.3-1.33-.09-1.68,1.29-1.95,2.3-.15.92-.18,1.85-.1,2.77.14,1.2-.28,2.4-1.14,3.24-.75.64-1.92.85-2.08-.14-.35-2.25-1.68-1.96-3.24-1.85-1.16.07-2.21-.67-2.54-1.78-.59-1.36-.4-2.93.49-4.11.75-.93,1.8-1.59,2.97-1.85,1.57-.41,2.98-1.25,4.08-2.44,1.49-1.58,3.75-2.2,5.84-1.59.9.22,1.82.37,2.75.45,2.01.11,3.23.85,2.99,3.12-.11,1.05-.06,2.07,1.48,2.09,1.36.02,2.09-.54,2.16-1.9.12-1.19.62-2.31,1.43-3.2,1.72-2.14,1.64-4.13-.26-6.13-.98-1.03-1.82-2.18-3.05-3.67,6.54,1.39,12.86,3.71,18.76,6.87,17.28,8.99,30.62,24.06,37.43,42.31.46,1.16.52,2.45.16,3.65-1.05,4.08-1.48,8.27.59,12.16,1.73,3.25.61,6.48.4,9.72-.08,1.21-.87.87-1.35.3" fill="#fff"/>
      <path id="_패스_1309" data-name="패스 1309" d="m115.01,76.88c-4.68-3.24-8.43-1.55-9.04,3.97-.05.51-.11,1.01-.18,1.52-.16,1.14-.56,1.85-1.98,1.62-1.26-.2-2.13.32-2.05,1.85.07,1.34-.1,2.73-1.84,2.76-1.66.02-1.33-1.46-1.48-2.47-.12-.82-.34-1.62-1.25-1.64-1.2-.03-.83,1.04-.89,1.72-.22,2.31-1.58,3.05-3.42,1.9-.72-.49-1.07-1.37-.87-2.22.16-2-.79-3-2.72-3.21-1.38-.03-2.63-.82-3.24-2.06-.63-1.26-1.68-1.47-2.98-.72-2.52,1.54-4.67,3.62-6.3,6.09-.67.95-1.02,2.18-2.28,2.62-.91.32-2.06.31-1.78,1.88.23,1.25,1.07,2.33,2.02,2.29,3.36-.13,7.03,1.1,9.9-1.78.62-.62,1.35-1.21,2.23-.82.95.43.18,1.37.37,1.99-.09,3.44.28,3.85,3.68,4,.68,0,1.35.23,1.88.67,2.23,1.99,5.05,2.66,7.79,3.56,1.9.62,2.61.1,2.67-1.92.11-4.19,1.14-4.9,5.2-3.86.64.2,1.27.46,1.86.78,3.7,1.74,5.88.2,5.47-4-.1-1,.45-2.71-1.28-2.83s-2.89-.77-2.9-2.47c-.1-1.85,1.04-3.55,2.8-4.14,1.37-.49,3.33-.1,3.62-2.07.3-2.04-1.84-2.2-2.99-2.99" fill="#fff"/>
      <rect id="_사각형_694" data-name="사각형 694" width="174" height="209" fill="none"/>
    </g>
  </g>
</svg>