<?xml version="1.0" encoding="UTF-8"?>
<svg id="Layer_2" data-name="Layer 2" xmlns="http://www.w3.org/2000/svg" viewBox="0 0 296 296">
  <g id="Logo">
    <g id="symbol_12_02_0010_01" data-name="symbol 12 02 0010 01">
      <path id="_패스_1102" data-name="패스 1102" d="m148,285.92c-.29,0-.58-.04-.85-.12-48.49-13.48-83.32-52.31-100.75-112.3-7.99-28.29-11.95-57.57-11.78-86.96.04-1.02.56-1.97,1.41-2.54L146.24,10.53c1.07-.71,2.46-.71,3.53,0l110.2,73.47c.85.57,1.38,1.51,1.41,2.54.18,29.4-3.79,58.67-11.78,86.96-17.42,59.99-52.26,98.82-100.75,112.3-.28.08-.56.12-.85.12M40.95,88.37c-.08,7.99.23,44.45,11.6,83.52,16.93,58.14,49.04,94.33,95.45,107.56,46.41-13.23,78.52-49.41,95.45-107.56,11.37-39.06,11.69-75.53,11.61-83.52L148,17,40.95,88.37Z" fill="#fff"/>
      <rect id="_사각형_433" data-name="사각형 433" width="296" height="296" fill="none"/>
    </g>
  </g>
</svg>