<?xml version="1.0" encoding="UTF-8"?>
<svg id="Layer_2" data-name="Layer 2" xmlns="http://www.w3.org/2000/svg" viewBox="0 0 314 314">
  <g id="Logo">
    <g id="symbol_11_01_0007_01" data-name="symbol 11 01 0007 01">
      <path id="_패스_932" data-name="패스 932" d="m312.7,172.7c0-85.44-69.26-154.7-154.7-154.7-85.44,0-154.7,69.26-154.7,154.7,0,34.89,11.79,68.75,33.47,96.09h242.47c21.72-27.32,33.52-61.2,33.46-96.1m-154.7-103.3l88.99,37.58H69.01l88.99-37.58Zm-88.99,41.97h177.98v17.54H69.01v-17.54Zm177.98,138.53h-44.98v-7.2h44.98v7.2Zm-39.99-106.79h7.2v96.98h-7.2v-96.98Zm13.91,0h7.2v96.98h-7.2v-96.98Zm13.91,0h7.2v96.98h-7.2v-96.98Zm-32.8-9.81h44.98v7.2h-44.98v-7.2Zm-133,0h44.98v7.2h-44.98v-7.2Zm40,106.79h-7.2v-96.98h7.2v96.98Zm-13.91,0h-7.2v-96.98h7.2v96.98Zm-13.91,0h-7.2v-96.98h7.2v96.98Zm-12.18,2.61h44.98v7.2h-44.98v-7.2Zm198.17,20.25H48.83v-7.2h218.35v7.2Z" fill="#fff"/>
      <rect id="_사각형_321" data-name="사각형 321" width="314" height="314" fill="none"/>
    </g>
  </g>
</svg>