<?xml version="1.0" encoding="UTF-8"?>
<svg id="Layer_2" data-name="Layer 2" xmlns="http://www.w3.org/2000/svg" viewBox="0 0 141 137">
  <g id="Logo">
    <g id="symbol_16_01_0001_01" data-name="symbol 16 01 0001 01">
      <path id="_패스_339" data-name="패스 339" d="m70.13,6C35.27,6,7,34.27,7,69.13s28.27,63.13,63.13,63.13,63.13-28.27,63.13-63.13h0c0-34.87-28.27-63.13-63.13-63.13m0,120.79c-31.84,0-57.65-25.81-57.65-57.65S38.29,11.48,70.13,11.48s57.65,25.81,57.65,57.65-25.81,57.65-57.65,57.65" fill="#fff"/>
      <path id="_패스_340" data-name="패스 340" d="m69.75,43.66c2.55,0,4.62-2.07,4.62-4.62s-2.07-4.62-4.62-4.62-4.62,2.07-4.62,4.62,2.07,4.62,4.62,4.62h0" fill="#fff"/>
      <path id="_패스_341" data-name="패스 341" d="m69.13,70.09c.1.34.46.54.8.44.21-.06.38-.23.44-.44l7.37-25.28c.1-.36-.1-.73-.46-.83-.23-.07-.49,0-.66.17-3.85,3.65-9.88,3.65-13.73,0-.27-.26-.69-.26-.95,0-.17.17-.23.43-.17.66l7.37,25.28Z" fill="#fff"/>
      <path id="_패스_342" data-name="패스 342" d="m106.54,71.74c-1.5-1.86-3.38-3.39-5.51-4.47-.35-.16-.75-.17-1.1-.03l-17.97,7.11c-.72.29-1.08,1.11-.79,1.83.29.72,1.11,1.08,1.83.79l17.36-6.88c1.83,1.06,8.09,5.43,8,15.62-3.67-.55-7.4-.69-11.11-.4-9.71.72-19.06,3.99-27.1,9.49-8.04-5.5-17.39-8.77-27.1-9.49-3.71-.29-7.43-.15-11.11.4-.11-10.26,6.14-14.57,7.99-15.62l17.36,6.88c.72.3,1.54-.05,1.84-.77.3-.72-.05-1.54-.77-1.84-.01,0-.02,0-.03-.01l-17.97-7.11c-.36-.14-.75-.13-1.1.03-2.13,1.09-4.01,2.61-5.51,4.48-2.39,2.88-5.12,7.95-4.57,15.77.06.78.73,1.36,1.51,1.31.08,0,.16-.02.23-.04,3.96-.78,8.01-1,12.02-.64,9.5.72,18.61,4.02,26.38,9.53h.01c.06.04.11.08.17.11.01,0,.02,0,.03.01.05.02.1.04.15.06l.07.02s.08.02.12.03h.07c.06.02.12.02.18.03h.02c.06,0,.12,0,.18-.01h.06s.08-.03.13-.04l.06-.02c.05-.02.1-.04.15-.06h.03c.06-.04.12-.08.17-.11h.01c7.76-5.52,16.88-8.82,26.38-9.54,4.02-.35,8.07-.13,12.02.64.75.19,1.52-.27,1.71-1.03.02-.08.03-.16.04-.24.56-7.82-2.18-12.89-4.57-15.77" fill="#fff"/>
      <rect id="_사각형_121" data-name="사각형 121" width="141" height="137" fill="none"/>
    </g>
  </g>
</svg>