<?xml version="1.0" encoding="UTF-8"?>
<svg id="Layer_2" data-name="Layer 2" xmlns="http://www.w3.org/2000/svg" viewBox="0 0 306 266">
  <g id="Logo">
    <g id="symbol_20_03_0007_01" data-name="symbol 20 03 0007 01">
      <path id="_패스_1558" data-name="패스 1558" d="m303.09,150.22c-.56-10.96-9.22-19.77-20.17-20.51-2.64-.2-5.29-.28-8.2-.43,0-6.88,0-13.41,0-19.95,0-7.99-2.67-10.67-10.61-10.67H41.32c-6.25.05-9.31,3.1-9.36,9.42-.05,5.93-.01,11.86-.01,17.79v3.64c-2.21,0-3.96-.05-5.71,0-11.54.36-20.21,7.01-22.22,17.63-.8,4.24-.57,8.7-.52,13.06.16,13.3,9.37,22.46,22.63,22.67,1.84.03,3.68,0,5.82,0v4.11c0,12.17.06,24.34-.01,36.51-.07,11.86,4.35,21.67,14.12,28.35,4.4,3.01,9.91,4.38,14.92,6.5h184.73c.44-.23.91-.42,1.39-.56,15.57-2.95,26.8-15.31,27.4-31.17.51-13.29.18-26.62.24-39.93,0-1.2.13-2.39.22-3.91,2.92,0,5.51.16,8.08-.03,10.82-.85,19.36-9.53,20.04-20.36.22-4.05.22-8.11.01-12.16M31.65,167.18c-.68.05-1.18.11-1.69.12-9.36.25-10.94-1.28-10.94-10.57,0-.31.02-.62,0-.93-.75-9.89,3.45-11.56,12.63-10.47v21.85Zm227.53,55.43c0,12.91-7.24,20.14-20.05,20.14-57.2,0-114.39,0-171.59,0-12.7,0-20.04-7.2-20.05-19.83-.04-35.15-.04-70.3,0-105.45,0-1.01.1-2.02.16-3.13h211.4c.05,1.21.15,2.33.15,3.44,0,34.94,0,69.88,0,104.82m28.33-61.25c-.08,3.17-2.63,5.74-5.8,5.84-2.15.18-4.32.03-6.83.03v-22.28c2.7,0,5.4.17,8.08.54,2.68.5,4.61,2.87,4.56,5.6.17,3.42.17,6.85-.01,10.26" fill="#fff"/>
      <path id="_패스_1559" data-name="패스 1559" d="m48.42,77.12c7.58-1.79,15.15-3.59,22.73-5.4,65.28-15.42,130.56-30.86,195.83-46.3,1.51-.34,2.93-1.01,4.16-1.95,2.77-2.24,3.62-6.1,2.06-9.3-1.71-3.36-5.4-4.93-9.57-3.95-22.03,5.19-44.06,10.4-66.09,15.62-5.82,1.38-11.64,2.74-17.48,4.11-.93-3.24-1.6-6.18-2.6-9.01-2.81-7.95-10.79-14.14-19.22-13.94-5.38.25-10.72,1.16-15.87,2.74-11.87,3.38-17.9,13.34-15.96,25.58.35,2.24.9,4.44,1.39,6.83-.87.29-1.62.6-2.41.78-15.16,3.58-30.32,7.15-45.48,10.72-12.02,2.84-24.07,5.62-36.06,8.6-6.05,1.5-8.36,7.78-4.75,12.33,2.47,3.13,5.75,3.38,9.32,2.54m97.88-52.38c3.07-.91,6.19-1.67,9.34-2.25,3.31-.76,6.63,1.24,7.51,4.52.67,2.04,1.03,4.17,1.61,6.57l-21.73,5.17c-.65-2.59-1.13-5.22-1.43-7.88-.16-3.16,1.73-5.27,4.71-6.13" fill="#fff"/>
      <path id="_패스_1560" data-name="패스 1560" d="m245.57,61.25c0,12.36,9.99,22.39,22.34,22.42,12.34-.02,22.4-9.92,22.6-22.26.2-12.14-10.38-22.76-22.6-22.67-12.35.15-22.29,10.17-22.35,22.51m29.34.08c-.13,3.7-3.13,6.66-6.84,6.74-3.72.09-6.8-2.85-6.89-6.57,0,0,0-.01,0-.02-.11-3.83,2.9-7.03,6.73-7.14,0,0,0,0,0,0,3.81.11,6.88,3.18,6.98,6.99" fill="#fff"/>
      <path id="_패스_1561" data-name="패스 1561" d="m183.03,83.3c-.03,3,1.72,5.73,4.46,6.97,2.76,1.42,5.39.96,7.89-.86,2.77-2.02,2.95-5.03,3.42-8.02,1.05-6.01,6.76-10.03,12.77-8.98,3.98.69,7.27,3.51,8.56,7.34.36,1.51.62,3.04.78,4.58.55,4.25,4.45,7.24,8.69,6.68,4.04-.53,6.99-4.1,6.73-8.17-.33-14.53-12.19-26.15-26.73-26.17-14.62.05-26.75,12.19-26.58,26.62" fill="#fff"/>
      <path id="_패스_1562" data-name="패스 1562" d="m150.4,162.34c-5.64,0-10.21,6.2-10.21,13.84s4.57,13.84,10.21,13.84,10.21-6.2,10.21-13.84-4.57-13.84-10.21-13.84" fill="#fff"/>
      <path id="_패스_1563" data-name="패스 1563" d="m215.66,162.34c-5.64,0-10.21,6.2-10.21,13.84s4.57,13.84,10.21,13.84,10.21-6.2,10.21-13.84-4.58-13.84-10.21-13.84" fill="#fff"/>
      <rect id="_사각형_765" data-name="사각형 765" width="306" height="266" fill="none"/>
    </g>
  </g>
</svg>