<?xml version="1.0" encoding="UTF-8"?>
<svg id="Layer_2" data-name="Layer 2" xmlns="http://www.w3.org/2000/svg" viewBox="0 0 232 229">
  <g id="Logo">
    <g id="symbol_05_01_0002_01" data-name="symbol 05 01 0002 01">
      <path id="_패스_946" data-name="패스 946" d="m116.33,190.49c27.56,0,49.91-22.34,49.91-49.9,0-13.36-5.35-26.17-14.87-35.55-9.21,19.35-32.37,27.58-51.73,18.36-8.05-3.83-14.53-10.31-18.36-18.36-19.63,19.35-19.85,50.95-.5,70.58,9.38,9.52,22.19,14.87,35.55,14.87" fill="#fff"/>
      <path id="_패스_947" data-name="패스 947" d="m116.33,119.83c17.39,0,31.48-14.09,31.48-31.48s-14.09-31.48-31.48-31.48c-17.39,0-31.48,14.09-31.48,31.48s14.09,31.48,31.48,31.48h0" fill="#fff"/>
      <path id="_패스_948" data-name="패스 948" d="m116.33,48.64c9.01,0,16.32-7.31,16.32-16.32,0-9.01-7.31-16.32-16.32-16.32-9.01,0-16.32,7.31-16.32,16.32,0,9.01,7.31,16.32,16.32,16.32" fill="#fff"/>
      <path id="_패스_949" data-name="패스 949" d="m159.41,178.24c-2.09,2.4-4.38,4.61-6.83,6.63,15.23,2.19,25.12,5.72,25.12,9.7,0,6.64-27.47,12.02-61.36,12.02s-61.37-5.38-61.37-12.02c0-3.98,9.9-7.51,25.12-9.7-2.46-2.02-4.74-4.24-6.84-6.63-30.15,3.06-50.77,9.22-50.77,16.33,0,10.15,42.01,18.39,93.84,18.39s93.84-8.23,93.84-18.39c0-7.11-20.62-13.28-50.77-16.33" fill="#fff"/>
      <rect id="_사각형_226" data-name="사각형 226" width="232" height="229" fill="none"/>
    </g>
  </g>
</svg>