<?xml version="1.0" encoding="UTF-8"?>
<svg id="Layer_2" data-name="Layer 2" xmlns="http://www.w3.org/2000/svg" viewBox="0 0 67 169">
  <g id="Logo">
    <g id="symbol_15_02_0001_01" data-name="symbol 15 02 0001 01">
      <path id="_패스_298" data-name="패스 298" d="m4.95,49.12c-1.49,0-2.69,3.28-2.69,7.33s1.21,7.33,2.69,7.33,2.69-3.28,2.69-7.33-1.2-7.33-2.69-7.33" fill="#fff"/>
      <path id="_패스_299" data-name="패스 299" d="m13.86,58.22c1.49,0,2.69-3.28,2.69-7.33s-1.21-7.34-2.69-7.34-2.69,3.28-2.69,7.33,1.2,7.34,2.69,7.34" fill="#fff"/>
      <path id="_패스_300" data-name="패스 300" d="m22.77,52.37c1.49,0,2.69-3.28,2.69-7.33s-1.21-7.33-2.69-7.33-2.69,3.28-2.69,7.33,1.2,7.33,2.69,7.33" fill="#fff"/>
      <path id="_패스_301" data-name="패스 301" d="m31.69,46.52c1.49,0,2.69-3.28,2.69-7.33s-1.2-7.33-2.69-7.33-2.69,3.28-2.69,7.33,1.2,7.33,2.69,7.33" fill="#fff"/>
      <path id="_패스_302" data-name="패스 302" d="m40.6,40.67c1.49,0,2.69-3.28,2.69-7.33s-1.2-7.33-2.69-7.33-2.69,3.28-2.69,7.33,1.2,7.33,2.69,7.33" fill="#fff"/>
      <path id="_패스_303" data-name="패스 303" d="m49.52,34.82c1.49,0,2.69-3.28,2.69-7.33s-1.21-7.33-2.69-7.33-2.69,3.28-2.69,7.33,1.2,7.33,2.69,7.33" fill="#fff"/>
      <path id="_패스_304" data-name="패스 304" d="m58.43,28.46c1.49,0,2.69-3.28,2.69-7.33s-1.21-7.33-2.69-7.33-2.69,3.28-2.69,7.33,1.21,7.33,2.69,7.33" fill="#fff"/>
      <path id="_패스_305" data-name="패스 305" d="m49.64,63.22c-.52.69-.7,1.59-.48,2.43l.59,2.41c.57,2.06-.27,4.26-2.08,5.4-16.29,9.04.23,47.26,3.7,54.83.28.72.97,1.21,1.74,1.25h10.34V62.46h-12.37c-.57.02-1.1.3-1.44.75" fill="#fff"/>
      <path id="_패스_306" data-name="패스 306" d="m49.39,129.18c-.6-1.3-1.34-2.97-2.15-4.91H7.92l55.52,34.24v-26.81h-10.33c-1.63-.03-3.09-1.02-3.72-2.52" fill="#fff"/>
      <path id="_패스_307" data-name="패스 307" d="m62.67,23.88c-.38,3.63-1.74,6.76-4.24,6.76-1.44,0-2.49-1.04-3.21-2.6l-1.38.77c-.24,4.01-1.6,7.68-4.32,7.68-1.65,0-2.8-1.36-3.5-3.32l-1.06.59c-.08,4.34-1.44,8.58-4.35,8.58-1.85,0-3.07-1.71-3.74-4.06l-.82.45c0,.15,0,.3,0,.45,0,4.48-1.35,9-4.36,9-2.05,0-3.33-2.09-3.93-4.83l-.66.37c.02.44.04.87.04,1.31,0,4.48-1.35,9-4.36,9-2.24,0-3.56-2.5-4.09-5.63l-.57.32c.07.72.11,1.43.11,2.15,0,4.48-1.35,9.01-4.36,9.01-2.43,0-3.78-2.95-4.21-6.44l-.52.29c.12.9.18,1.81.18,2.72,0,3.83-.99,7.68-3.16,8.72v56.92h40.19c-6.07-15.09-14.45-42.39.26-50.56.93-.68,1.34-1.87,1.02-2.98l-.59-2.41c-.37-1.49-.05-3.07.88-4.29.75-.99,1.91-1.57,3.15-1.59h12.37V23.45l-.77.43Z" fill="#fff"/>
      <rect id="_사각형_104" data-name="사각형 104" width="67" height="169" fill="none"/>
    </g>
  </g>
</svg>