<?xml version="1.0" encoding="UTF-8"?>
<svg id="Layer_2" data-name="Layer 2" xmlns="http://www.w3.org/2000/svg" viewBox="0 0 178 267">
  <g id="Logo">
    <g id="symbol_13_04_0005_01" data-name="symbol 13 04 0005 01">
      <path id="_패스_1026" data-name="패스 1026" d="m126.4,29.05c3.6.72,7.21,1.4,10.8,2.18,4.2.71,7.56,3.89,8.5,8.05.35,1.33.57,2.69.85,4.04.59,2.91,1.18,5.81,1.8,8.84.35-.14.58-.49.58-.87.8-3.82,1.62-7.63,2.37-11.46.28-1.55.9-3.02,1.81-4.31,1.03-1.4,2.38-2.54,3.93-3.32,1.15-.59,2.38-.97,3.66-1.14l5.85-1.18,5.51-1.12c-.34-.71-.8-.62-1.19-.7-3.86-.81-7.74-1.54-11.58-2.45-4.09-.83-7.25-4.1-7.94-8.22-.79-3.63-1.49-7.28-2.25-10.92-.1-.5-.07-1.08-.56-1.5-.52.52-.45,1.15-.57,1.7-.75,3.55-1.44,7.1-2.19,10.65-.83,4.38-4.3,7.77-8.7,8.51-3.69.73-7.38,1.49-11.06,2.24-.33.07-.76.01-.87.5.33.4.81.38,1.25.47" fill="#fff"/>
      <path id="_패스_1029" data-name="패스 1029" d="m38.37,165.67c-1.55-.02-3.08.43-4.37,1.3-1.28.9-1.99,2.4-3.35,5.36-2.01,4.36-1.94,5.69-1.88,6.27.12,1.18.67,3.39,1.92,3.66,1.72.37,2.82-1.14,3.34-2.82.19-.72.44-1.41.74-2.08.54-1.21.81-1.82,1.35-2.11.83-.44,1.83-.1,3.36.43.42.09.81.28,1.15.56.76.79.57,2.2.23,3.2-2.11,6.3-4.43,12.52-6.68,18.78-.61,1.71-1.68,2.93-3.62,2.55-1.62-.17-2.8-1.62-2.63-3.25.01-.11.03-.22.05-.33.3-2.2-1.2-1.92-2.35-1.58-.81.33-1.49.92-1.93,1.68,0,0-3.61,9.64-6.48,18.78-.14.45-.37,1.19-1.05,3.34-1.59,5.06-2.21,7-2.62,8.3-1.39,4.49-2.77,10.09-2.94,10.79-1.29,5.35-5.4,22.34-3.17,23.23,1.23.49,4.86-3.7,15.38-24.13h0l2.6-6.04,7.14-16.58h0c.11-.27.23-.55.33-.85,4.4-12.44,10.29-24.32,14.43-36.87,2.14-6.5-1.63-11.65-8.98-11.58" fill="#fff"/>
      <rect id="_사각형_397" data-name="사각형 397" width="178" height="267" fill="none"/>
    </g>
  </g>
</svg>