<?xml version="1.0" encoding="UTF-8"?>
<svg id="_레이어_2" data-name="레이어 2" xmlns="http://www.w3.org/2000/svg" viewBox="0 0 243 243">
  <g id="Logo">
    <g id="symbol_14_01_0005_01" data-name="symbol 14 01 0005 01">
      <path id="_패스_1119" data-name="패스 1119" d="m226.83,121.91c-.03,58.31-47.53,105.64-105.93,105.58-58.43-.07-105.83-47.5-105.72-105.79.19-58.4,47.65-105.6,106.05-105.45,58.34.14,105.63,47.46,105.6,105.66M116.42,25.66c-54.65,2.66-91.01,48.33-91.63,91.64h2.87c15.13,0,30.25,0,45.38,0,4.54,0,6.61,1.46,6.59,4.59s-2.07,4.55-6.63,4.55c-15.2,0-30.41,0-45.62,0-.92,0-1.85.09-2.77.13,2.58,53.97,47.93,90.62,91.8,91.33v-47.91c0-4.63,1.55-6.9,4.66-6.82,3.04.07,4.5,2.25,4.5,6.74,0,15.1,0,30.19,0,45.29v2.82c50-1.84,90.18-43.32,91.73-91.58h-2.85c-15.04,0-30.09,0-45.13,0-1.05.02-2.1-.04-3.14-.17-2.35-.27-4.04-2.39-3.77-4.73.03-.25.08-.5.15-.75.64-2.53,2.14-3.48,5.82-3.48,15.37-.02,30.73-.02,46.1,0h2.83c-1.76-49.48-42.99-89.95-91.75-91.56v48.13c0,4.46-1.5,6.66-4.54,6.7s-4.62-2.2-4.62-6.62c0-15.1,0-30.19,0-45.29v-3Z" fill="#fff"/>
      <path id="_패스_1120" data-name="패스 1120" d="m121,237.54c-63.88,0-115.67-51.79-115.67-115.67,0-63.88,51.79-115.67,115.67-115.67,63.88,0,115.66,51.79,115.67,115.67-.07,63.85-51.82,115.59-115.67,115.67m0-227.88c-61.97,0-112.21,50.24-112.21,112.21s50.24,112.21,112.21,112.21c61.97,0,112.21-50.24,112.21-112.21-.07-61.94-50.27-112.14-112.21-112.21" fill="#fff"/>
      <path id="_패스_1121" data-name="패스 1121" d="m156.95,129.23c-.33-1.32-1.27-2.41-2.53-2.93h-1c-3.13,0-6.27-.02-9.4.01-.69,0-1.04-.1-1.09-.9-.07-.9-.24-1.78-.51-2.64-.18-.59.02-.81.49-1.08,2.22-1.25,4.42-2.54,6.63-3.82.53-.31,1.34-.74,2.29-1.34,1.5-1.49,1.51-3.91.02-5.41-.97-.98-2.39-1.36-3.72-1l-8.66,4.96c-1.23-1.52-2.41-2.97-3.57-4.45-.15-.23-.21-.52-.17-.79.52-3.33-.15-6.73-1.9-9.61-.27-.3-.23-.77.07-1.03.03-.02.06-.05.09-.07.8-.75,1.57-1.55,2.35-2.33.58-.57,1.51-1.54,3.18-3.16,1.12-1.79.58-4.14-1.21-5.26-1.24-.78-2.81-.78-4.05,0-1.79,1.8-3.65,3.63-5.45,5.51-.39.57-1.17.73-1.76.35-3.83-1.84-8.29-1.82-12.1.07-.49.32-1.14.2-1.48-.29-.49-.51-2.59-2.7-5.57-5.69-1.75-1.17-4.12-.7-5.29,1.05-.87,1.29-.86,2.98.01,4.27,1.78,1.78,3.61,3.63,5.46,5.47.34.33.53.57.21,1.09-1.58,2.43-2.29,5.33-2.01,8.21.22,1.33-.24,2.68-1.22,3.6-.85.98-1.64,2.02-2.35,3.11l-8.74-5.04c-2.14-.37-4.18,1.07-4.55,3.21-.2,1.14.12,2.3.85,3.19.33.2.6.37.86.52,2.69,1.55,5.38,3.09,8.05,4.67.25.15.57.51.54.72-.2,1.28-.5,2.54-.78,3.9h-11.28c-2.06.69-3.17,2.93-2.47,4.99.39,1.17,1.31,2.08,2.47,2.47h11.3c.24,1.24.41,2.38.7,3.5.16.59-.02.81-.5,1.08-1.6.89-3.17,1.82-4.75,2.73-.98.57-2.38,1.39-4.18,2.42-1.68,1.18-2.09,3.5-.91,5.18,1.04,1.48,2.99,2,4.62,1.23l8.77-4.98c4.33,6.69,10.11,11.07,18.31,11.07s13.98-4.38,18.31-11.07l8.77,5.06c2.16.35,4.2-1.12,4.54-3.29.18-1.12-.13-2.26-.84-3.13l-9.53-5.51c.23-1.22.51-2.37.65-3.54.08-.62.33-.74.89-.74,3.22.02,6.44,0,9.66,0h.92c1.78-.75,2.82-2.62,2.53-4.53" fill="#fff"/>
      <rect id="_사각형_503" data-name="사각형 503" width="243" height="243" fill="none"/>
    </g>
  </g>
</svg>