<?xml version="1.0" encoding="UTF-8"?>
<svg id="Layer_2" data-name="Layer 2" xmlns="http://www.w3.org/2000/svg" viewBox="0 0 348 286">
  <g id="Logo">
    <g id="symbol_20_03_0004_01" data-name="symbol 20 03 0004 01">
      <path id="_패스_1550" data-name="패스 1550" d="m332.52,240.11c0-4.82-1.67-6.46-6.56-6.46-10.85-.01-21.71-.02-32.56,0-.97,0-1.93-.1-3.04-.15,3.56-7.98,2.86-16.04,1.84-24.01-.6-4.83-3.4-9.11-7.59-11.58-3.44-2.07-7.41-3.25-11.65-5.04v-2.55c0-9.92,0-19.85,0-29.77,0-4.03-.91-5.18-4.82-6.46-11.41-3.73-23.37-5.51-35.38-5.27-19.83.35-38.54,5.49-56.46,13.73-1.63.84-3.56.84-5.19,0-5.01-2.18-10.05-4.32-15.22-6.1-25.28-8.71-50.8-10.63-76.62-2.35-3.91,1.25-4.83,2.42-4.83,6.44-.02,10.03-.02,20.05,0,30.08v3.18c-12.98,1.48-19.86,9.19-19.84,21.82,0,6.05-.68,12.18,2.72,18.03-12.1,0-23.67.09-35.24-.06-3.03-.04-5.44.62-7.19,3.16v36.6h314.54c2.51-1.76,3.22-4.16,3.16-7.19-.17-8.68-.05-17.36-.06-26.05m-59.64-36.24c5.32-.03,9.72,4.14,9.98,9.45.1,1.85.02,3.72.02,5.58h-.01c0,1.86.12,3.73-.02,5.58-.44,5.45-5.22,9.51-10.67,9.06-4.89-.4-8.74-4.31-9.07-9.2-.18-3.71-.18-7.45,0-11.16.28-5.2,4.57-9.28,9.78-9.3m-92.38-32.47c18.01-8.14,36.69-13.53,56.61-12.64,7.99.36,15.9,2.31,23.85,3.49,1.69.25,2.13,1.1,2.12,2.73-.06,9.93.01,19.85-.1,29.78-.11,1.15-.66,2.21-1.55,2.94-5.39,3.89-8.5,10.2-8.29,16.84.07,6.35-.89,12.84,2.63,18.97h-76.86c-.11-.76-.19-1.52-.22-2.28-.01-18.82-.02-37.64-.03-56.45,0-1.53.12-2.59,1.85-3.37m-96.13-8.47c8.22-2.63,16.77-4.08,25.39-4.28,20.15-.63,39.06,4.48,57.19,12.87.91.49,1.54,1.38,1.71,2.4.1,19.74.07,39.49.07,59.58h-77.05c3.47-6.2,2.57-12.84,2.58-19.36.1-6.43-2.92-12.51-8.11-16.31-.88-.6-1.49-1.51-1.72-2.55-.12-10.74-.08-21.49-.08-32.35m-19.8,50.15c.41-5.45,5.17-9.54,10.62-9.13,4.88.37,8.76,4.25,9.13,9.13.2,3.71.18,7.44.01,11.16-.32,5.46-5,9.62-10.46,9.3-5.01-.29-9.01-4.29-9.3-9.3-.11-1.85-.02-3.72-.02-5.58s-.1-3.73.03-5.58m257.89,50.11H24.95v-19.46h297.51v19.46Z" fill="#fff"/>
      <path id="_패스_1551" data-name="패스 1551" d="m173.74,153.86c38.98,0,70.59-31.6,70.59-70.59S212.72,12.69,173.74,12.69c-38.98,0-70.59,31.6-70.59,70.59h0c.04,38.97,31.62,70.54,70.59,70.59m0-130.4c33.03,0,59.81,26.78,59.81,59.81,0,33.03-26.78,59.81-59.81,59.81-33.03,0-59.81-26.78-59.81-59.81h0c.04-33.02,26.79-59.78,59.81-59.81" fill="#fff"/>
      <path id="_패스_1552" data-name="패스 1552" d="m147.97,113.11c3.13,0,5.66-3.46,5.66-7.74s-2.54-7.74-5.66-7.74-5.66,3.46-5.66,7.74,2.54,7.74,5.66,7.74" fill="#fff"/>
      <path id="_패스_1553" data-name="패스 1553" d="m199.5,113.11c3.13,0,5.66-3.46,5.66-7.74s-2.54-7.74-5.66-7.74-5.66,3.46-5.66,7.74,2.54,7.74,5.66,7.74" fill="#fff"/>
      <rect id="_사각형_763" data-name="사각형 763" width="348" height="286" fill="none"/>
    </g>
  </g>
</svg>