<?xml version="1.0" encoding="UTF-8"?>
<svg id="Layer_2" data-name="Layer 2" xmlns="http://www.w3.org/2000/svg" viewBox="0 0 334 242">
  <g id="Logo">
    <g id="symbol_15_01_0004_02" data-name="symbol 15 01 0004 02">
      <path id="_패스_1134" data-name="패스 1134" d="m266.84,41.02c-25.56-26.8-66.38-32.11-97.94-12.73-18.81-10.96-41.19-14.01-62.24-8.48,3.31,10.19,2.8,21.24-1.43,31.09,26.63-12.32,58.21-.72,70.53,25.91s.72,58.21-25.91,70.53c-26.63,12.32-58.21.72-70.53-25.91-6.92-14.95-6.51-32.27,1.11-46.88-10.04,3.76-21.1,3.74-31.13-.05-8.97,28.49-1.74,59.6,18.88,81.22l65.76,68.96,6.35-44.56c12.65-1.98,24.66-6.9,35.06-14.38,38.94,19.13,86.01,3.07,105.14-35.87,14.52-29.55,9.07-65.01-13.65-88.84" fill="#fff"/>
      <rect id="_사각형_464" data-name="사각형 464" width="334" height="242" fill="none"/>
    </g>
  </g>
</svg>