<?xml version="1.0" encoding="UTF-8"?>
<svg id="_레이어_2" data-name="레이어 2" xmlns="http://www.w3.org/2000/svg" viewBox="0 0 288 279">
  <g id="Logo">
    <g id="symbol_05_04_0003_01" data-name="symbol 05 04 0003 01">
      <path id="_패스_1367" data-name="패스 1367" d="m123.1,272.48c-4.9-.33-9.81-.62-14.71-1-24.62-1.87-49.05-4.86-72.57-12.88-9.04-3.08-17.73-6.89-24.46-14.06-6.96-7.42-6.93-17.49.06-24.92,5.36-5.7,12.14-9.11,19.24-12,4.65-1.9,9.41-3.5,14.27-4.79,5-1.33,9.48.92,10.78,5.38,1.32,4.54-1.09,8.94-6.02,10.44-6.7,2.04-13.37,4.13-19.55,7.5-1.35.7-2.66,1.49-3.92,2.34-4.05,2.86-4.06,4.31-.14,7.21,2.77,1.99,5.77,3.64,8.94,4.9,11.58,4.79,23.71,7.57,36.01,9.7,21.04,3.48,42.32,5.35,63.65,5.58,30.64.58,61.07-1.17,91.16-7.22,9.8-1.8,19.36-4.69,28.52-8.6,2.89-1.22,5.63-2.79,8.15-4.66,3.41-2.64,3.43-3.98-.09-6.56-4.51-3.11-9.46-5.53-14.67-7.2-3.38-1.2-6.89-2.04-10.21-3.35-4.26-1.56-6.45-6.28-4.88-10.54.53-1.44,1.45-2.71,2.66-3.65,2-1.62,4.66-2.17,7.13-1.46,8.76,2.37,17.32,5.29,25.21,9.88,6.43,3.75,11.8,8.46,14.2,15.83v7.53c-2.49,7.66-8.14,12.46-14.82,16.29-4.13,2.35-8.47,4.31-12.96,5.87-24.05,8.42-49.06,11.53-74.29,13.44-4.89.37-9.8.67-14.7.99h-41.97Z" fill="#fff"/>
      <path id="_패스_1368" data-name="패스 1368" d="m228.64,115.72c-5.71-18.59-17.41-33.71-29.95-48.19-3.75-4.33-6.5-7.35-8.74-9.74-4.35-4.63-7.62-7.99-8.71-9.1L143.72,7.99s-13.43,13.81-24.61,25.94c-9.77,10.6-16.88,18.9-20.74,23.41-15.68,18.33-23.31,27.62-27.94,34.95-11.93,18.85-17.71,39.17-14.65,61.51,6.16,45.1,45.18,77.26,88.32,76.65,2.51.12,5.02.11,7.52-.03,24.38-2.55,44.97-12.69,60.51-31.68,20.16-24.62,25.89-52.52,16.51-83.02m-35.91,41.46c-2.2,12.87-9.59,24.28-20.43,31.55-22.3,15.69-53.1,10.33-68.79-11.97-.34-.48-.66-.96-.98-1.45-6.3-9.61-9.16-20.1-7.65-31.48,1.57-11.85,8.28-20.59,17.93-27.29,1.76-1.22,3.6-2.35,5.44-3.44,1.56-.92,2.03-2.07,1.12-3.7-.72-1.3-1.42-2.61-2.1-3.93-.5-.96-1.06-1.97-.1-2.95.77-.68,1.89-.8,2.79-.3,4.91,1.73,9.82,3.47,14.73,5.2,2.18.77,4.39,1.48,6.57,2.26,4,1.42,5.27,3.86,4.08,7.87-1.95,6.56-3.93,13.11-5.93,19.66-.37,1.2-.34,2.87-2.02,3.09-1.72.23-1.98-1.45-2.66-2.51-.4-.62-.71-1.3-1.07-1.95-1.63-2.98-2.56-3.17-5.3-.97-2.79,2.24-3.99,5.44-4.85,8.72-2.02,7.66-.79,14.65,5.29,20.15,6.47,5.85,14.11,7.73,22.33,4.59,5.51-1.97,10-6.06,12.5-11.35,1.78-3.91,2.47-9.29-1.13-20-6.38-18.98-18.68-32.01-29.51-52.4-2.01-3.39-3.01-7.28-2.9-11.21.45-7.6,5.88-13.59,7.61-15.5,2.53-2.64,5.22-5.13,8.05-7.45l4.27,7.61c4.66,8.29,13.3,22.65,18.73,31.92,2.32,3.95,8.99,16.86,17.66,32.65,5.96,10.85,8.54,22.37,6.32,34.58" fill="#fff"/>
      <rect id="_사각형_436" data-name="사각형 436" width="288" height="279" fill="none"/>
    </g>
  </g>
</svg>