<?xml version="1.0" encoding="UTF-8"?>
<svg id="Layer_2" data-name="Layer 2" xmlns="http://www.w3.org/2000/svg" viewBox="0 0 108 242">
  <g id="Logo">
    <g id="symbol_18_01_0002_01" data-name="symbol 18 01 0002 01">
      <path id="_패스_651" data-name="패스 651" d="m55.1,229.27c-.2-10-.38-20.46-.55-31.15-6.86-.39-13.6-1.93-19.95-4.55-3.65-1.59-7.06-3.67-10.14-6.18-.03-.02-.05-.05-.08-.07-6.71-5.52-11.53-13-13.76-21.4-.25-.97-.56-2.24-.78-3.19-.19-1.59-.62-3.28-.69-4.87l-.23-3.27c.02-.65,0-3.5.03-4.08.18-2.98.55-5.94,1.12-8.88.67-3.17,1.58-6.29,2.71-9.33,3.28-8.57,8.18-16.42,14.44-23.12,7.45-7.82,16.3-14.18,26.08-18.76-.04-5.06-.09-10.03-.12-14.91l-.33-61.5c-.02-1.6,1.27-2.91,2.87-2.93,0,0,0,0,.01,0h.01c.77,0,1.51.3,2.06.84,1.59,1.57,2.97,3.1,4.38,4.7,1.39,1.6,2.74,3.23,4.04,4.9,5.34,6.68,9.71,14.08,12.96,21.99,8.96,22.56.57,40.48-20.66,51.08-.11.06-.22.11-.34.17-.1,10.84-.2,21.85-.32,32.95.79-.3,1.59-.56,2.4-.77,19.02-4.46,31.49,5.3,36.14,18.96.17.5.33,1.01.49,1.53,3.39,11.96,1.16,24.82-6.06,34.94l-.78,23.6c-1.15.99-2.31,1.96-3.48,2.93l-.69-20.97c-.61.56-1.23,1.11-1.88,1.63-3.25,2.6-6.92,4.64-10.85,6.03l-.69,24.36c-.74.55-1.48,1.1-2.22,1.65l-.7-24.89c-4.11,1.04-8.34,1.54-12.58,1.48-.18,11.05-.37,22.01-.58,32.82-.41.26-.82.53-1.24.8-.04-1.58-.06-2.54-.06-2.54h0Zm2.75-100.07c-.12,11.6-.25,23.29-.4,34.99v.22c-.12,9.74-.26,19.49-.41,29.19,4.17.18,8.34-.26,12.38-1.32l-.96-33.89v-.5s-.17-5.74-.17-5.74c-.05-1.68,1.27-3.09,2.95-3.14,1.68-.05,3.09,1.27,3.14,2.95,0,.02,0,.03,0,.05v.15l-.07,2.7-.02.72-1,35.42c4.74-1.86,8.99-4.79,12.42-8.55l-.48-14.64c-.05-1.68,1.27-3.09,2.95-3.15s3.09,1.27,3.15,2.95c0,.02,0,.03,0,.05v.15l-.23,6.85c4.18-8.18,5.26-17.59,3.05-26.5-.12-.49-.26-.97-.41-1.45-2.64-8.54-8.69-15.57-18.2-18.15-2.73-.65-5.53-.98-8.34-1-3.19-.03-6.35.52-9.34,1.62h0Zm-35.9-2.85c-.9,1.43-1.9,3.75-2.68,5.27-1.17,2.71-2.16,5.49-2.96,8.33-.62,2.37-1.11,4.77-1.46,7.2-.07,1.05-.26,2.61-.34,3.65-.03.6-.04,3.04-.06,3.66l.18,2.91c.04,1.42.4,2.92.57,4.33.32,1.35.62,2.9,1.05,4.21l.92,2.75c.41.83,1.3,3.16,1.81,3.93,2.34,4.46,5.6,8.37,9.57,11.46l.05.04c7.23,5.67,16.46,8.66,25.9,9.39-.13-8.89-.26-17.95-.38-27.05v-.16c-.15-11.62-.28-23.33-.41-34.93-6.48,4.26-10.32,12.03-10.47,22.54-.44-9.45,2.86-18.93,10.45-23.99-.11-11.09-.22-22.06-.31-32.73-12.98,6.5-24.35,16.47-31.42,29.2h0Zm36.4-50.83c-.04,4.09-.07,8.22-.1,12.38,1.33-.76,2.63-1.57,3.88-2.4,25.8-17.27,12.57-44.93-3.48-63.99-.09,16.4-.28,54.02-.28,54.02h0Z" fill="#fff"/>
      <rect id="_사각형_233" data-name="사각형 233" width="108" height="242" fill="none"/>
    </g>
  </g>
</svg>