<?xml version="1.0" encoding="UTF-8"?>
<svg id="_레이어_2" data-name="레이어 2" xmlns="http://www.w3.org/2000/svg" viewBox="0 0 197 178">
  <g id="Logo">
    <g id="symbol_13_02_0001_01" data-name="symbol 13 02 0001 01">
      <rect id="_사각형_117" data-name="사각형 117" width="197" height="178" fill="none"/>
      <path id="_패스_330" data-name="패스 330" d="M177.17,35.3h-35.62c.08-6.6,.06-13.19,.02-19.79-.05-8.11-5.08-13.07-13.18-13.08-9.5,0-19,0-28.49,0-10.27,0-20.53-.03-30.8,.01-6.33-.15-11.65,4.73-12.03,11.05-.48,7.26-.18,14.53-.15,21.8H21.32c-9.7-.01-17.58,7.85-17.59,17.55h0v104.57c0,9.7,7.88,17.56,17.58,17.55H177.17c9.7,0,17.58-7.85,17.58-17.55V52.85c0-9.7-7.88-17.56-17.58-17.55h0Zm-100.49-14.82c7.54,.05,15.09,.03,22.63,.03s14.97,.02,22.45-.02c1.2,0,1.64,.28,1.62,1.55-.06,4.42-.07,8.84-.02,13.26h-48.28c.05-4.42,.04-8.83-.02-13.25-.02-1.26,.39-1.57,1.61-1.57Zm84.99,90.63c.41,5.44-2.18,9.37-6.42,12.32-7.12,4.97-15.2,6.21-23.65,5.53-4.81-.33-9.5-1.7-13.73-4.02-2.37-1.29-4.47-3.03-6.17-5.12-1.66-1.98-2.56-4.49-2.56-7.08,.02-4.16,.02-8.32,0-12.49-.01-1.09,.28-2.16,.86-3.09,1.35-2.25,2.63-4.54,3.93-6.82,4.96-8.44,9.91-16.87,14.88-25.3,.77-1.3,.38-1.63-1.01-1.62-5.97,.04-11.93,.04-17.9,0-.84-.08-1.62,.42-1.91,1.21-.86,1.82-2.3,3.29-4.1,4.18-.9,.35-1.43,1.28-1.28,2.24,.04,6.27,.02,12.55,.03,18.82-.02,11.53-.04,23.07-.06,34.6,0,7.64,.02,15.28-.02,22.92,8.19-.52,16.12-3.08,23.07-7.46,1.57-1.04,3.69-.61,4.73,.96s.61,3.69-.96,4.73c-.03,.02-.06,.04-.1,.06-8.86,5.59-19.1,8.58-29.58,8.62-.3,0-.6,0-.91,0-10.58-.17-20.88-3.4-29.67-9.28-1.59-1.01-2.05-3.12-1.04-4.71,1.01-1.59,3.12-2.05,4.71-1.04,.04,.03,.09,.06,.13,.09,6.86,4.55,14.76,7.29,22.97,7.98-.05-19.15-.08-38.3-.08-57.45,0-6.27-.01-12.55,.03-18.82,.15-.95-.38-1.88-1.28-2.24-1.8-.9-3.24-2.37-4.1-4.18-.29-.79-1.07-1.28-1.91-1.21-5.97,.04-11.93,.04-17.9,0-1.39,0-1.77,.32-1,1.62,4.98,8.42,9.94,16.86,14.88,25.3,.04,.12,.09,.24,.16,.35,6.14,7.05,4.83,15.56,4.43,23.77-.2,4.01-3.09,6.82-6.28,9.02-7.08,4.89-15.09,6.13-23.47,5.47-5.14-.31-10.13-1.84-14.57-4.46-5.22-3.18-8.58-7.44-8.02-13.97,.16-1.66,.16-3.33,0-4.99-.6-4.55,.65-9.15,3.46-12.77,.6-.91,1.13-1.86,1.58-2.84,4.37-7.44,8.75-14.88,13.12-22.32,.74-1.26,1.46-2.53,2.3-3.97-1.87-.24-3.76-.3-5.63-.16-1.16,0-1.7-.21-1.72-1.56-.08-5.02-.13-5.02,4.96-5.02,11.03,0,22.06-.02,33.09,.03,1.2,.17,2.37-.49,2.86-1.6,2.63-4.66,8.53-6.3,13.19-3.67,1.53,.87,2.8,2.14,3.67,3.67,.48,1.12,1.65,1.77,2.86,1.6,11.99-.05,23.99,0,35.98-.06,1.54,0,2.11,.32,2.08,1.98-.09,4.6,0,4.6-4.61,4.6h-2.83c.89,1.56,1.63,2.87,2.39,4.16,4.37,7.44,8.75,14.88,13.13,22.31,.22,.53,.48,1.04,.79,1.52,3.53,4.46,5.06,10.18,4.24,15.82-.12,1.28-.13,2.57,0,3.84h0Z" fill="#fff"/>
      <path id="_패스_331" data-name="패스 331" d="M99.19,56.96c-1.73,.09-3.13,1.45-3.25,3.18-.03,1.82,1.42,3.31,3.23,3.34,1.82,.03,3.31-1.42,3.34-3.23-.06-1.8-1.52-3.25-3.33-3.29Z" fill="#fff"/>
      <path id="_패스_332" data-name="패스 332" d="M80.7,109.49c-5.89,.06-11.79,.03-17.68,.03s-11.92,.03-17.88-.03c-1.3-.01-1.7,.32-1.79,1.69-.27,4,2.15,6.22,5.18,7.81,9.08,4.78,18.44,4.86,27.72,.72,3.45-1.54,6.69-3.64,6.48-8.36-.07-1.62-.63-1.87-2.03-1.86Z" fill="#fff"/>
      <path id="_패스_333" data-name="패스 333" d="M62.17,68.29c-4.18,7.23-8.38,14.45-12.58,21.67-1.94,3.3-3.94,6.57-5.81,9.91-1.14,2.03-.5,3.07,1.73,3.07,11.63,0,23.27,0,34.9,0,2.46,0,3.09-1.06,1.82-3.3-1.86-3.27-3.82-6.49-5.74-9.72-4.19-7.23-8.41-14.44-12.56-21.68-.75-1.31-1.16-.97-1.75,.05Z" fill="#fff"/>
      <path id="_패스_334" data-name="패스 334" d="M154.5,99.53c-1.88-3.19-3.75-6.38-5.63-9.57-.44-.78-.86-1.56-1.31-2.33-3.69-6.34-7.37-12.69-11.09-19-.4-.68-.79-2.37-1.92-.38-4.16,7.24-8.37,14.46-12.57,21.68-1.92,3.24-3.88,6.45-5.74,9.72-1.27,2.24-.64,3.3,1.81,3.3h35.09c1.91,0,2.43-.74,1.81-2.57-.12-.3-.27-.58-.45-.85Z" fill="#fff"/>
      <path id="_패스_335" data-name="패스 335" d="M153.19,109.48c-5.89,.09-11.79,.04-17.68,.04s-12.04,.03-18.07-.02c-1.21,0-1.58,.32-1.7,1.59-.35,3.82,1.88,5.94,4.72,7.68,3.59,2.12,7.64,3.37,11.8,3.64,6.48,.58,12.65-.38,18.28-3.76,2.66-1.6,4.71-3.69,4.57-7.22-.06-1.46-.36-1.98-1.92-1.95Z" fill="#fff"/>
    </g>
  </g>
</svg>