<?xml version="1.0" encoding="UTF-8"?>
<svg id="Layer_2" data-name="Layer 2" xmlns="http://www.w3.org/2000/svg" viewBox="0 0 95 93">
  <g id="Logo">
    <g id="symbol_03_23_0002_01" data-name="symbol 03 23 0002 01">
      <path id="_패스_913" data-name="패스 913" d="m12.35,82.18c-.87,0-1.57-.7-1.57-1.57v-8.35c0-.87.7-1.57,1.57-1.57.87,0,1.57.7,1.57,1.57h0v8.35c0,.87-.7,1.57-1.57,1.57m70.9-.07c-.87,0-1.57-.7-1.57-1.57v-8.35c.02-.87.74-1.55,1.61-1.53.84.02,1.51.69,1.53,1.53v8.35c0,.87-.7,1.57-1.57,1.57M12.35,65.47c-.87,0-1.57-.7-1.57-1.57v-8.35c0-.87.7-1.57,1.57-1.57.87,0,1.57.7,1.57,1.57v8.35c0,.87-.7,1.57-1.57,1.57m70.9-.07c-.87,0-1.57-.7-1.57-1.57h0v-8.35c-.02-.87.66-1.59,1.53-1.61.87-.02,1.59.66,1.61,1.53,0,.03,0,.05,0,.08v8.35c0,.87-.7,1.57-1.57,1.57h0M12.35,48.77c-.87,0-1.57-.7-1.57-1.57v-6.97c0-.48,0-.96.03-1.44.02-.87.73-1.56,1.6-1.54s1.56.73,1.54,1.6c0,.02,0,.04,0,.06-.02.44-.02.88-.02,1.32v6.97c0,.87-.7,1.57-1.57,1.57m70.9-.07c-.87,0-1.57-.7-1.57-1.57h0v-6.9c0-.47,0-.93-.03-1.39-.05-.87.61-1.61,1.48-1.66.87-.05,1.61.61,1.66,1.48,0,.02,0,.04,0,.05.02.5.03,1.01.03,1.51v6.9c0,.87-.7,1.57-1.57,1.57h0M13.67,32.18c-.87,0-1.57-.7-1.57-1.57,0-.14.02-.29.06-.43.79-2.8,1.91-5.5,3.33-8.04.43-.75,1.39-1.01,2.14-.58.74.43,1,1.36.6,2.11-1.3,2.32-2.32,4.79-3.05,7.36-.19.68-.81,1.14-1.51,1.15m68.25-.07c-.7,0-1.32-.47-1.51-1.14-.73-2.56-1.75-5.03-3.06-7.35-.43-.76-.16-1.71.6-2.14.76-.43,1.71-.16,2.14.6,1.43,2.54,2.55,5.23,3.35,8.03.24.83-.25,1.7-1.08,1.94-.14.04-.28.06-.43.06m-60.16-14.37c-.87,0-1.57-.7-1.57-1.57,0-.4.15-.78.42-1.07,1.97-2.14,4.19-4.04,6.61-5.66.72-.48,1.7-.29,2.18.43.48.72.29,1.7-.43,2.18-2.21,1.48-4.24,3.22-6.05,5.18-.3.32-.72.5-1.15.5m52.05-.05c-.44,0-.85-.18-1.15-.5-1.81-1.95-3.84-3.69-6.05-5.17-.72-.48-.91-1.46-.43-2.18.48-.72,1.46-.91,2.18-.43h0c2.42,1.62,4.64,3.51,6.62,5.64.59.64.55,1.63-.08,2.22-.29.27-.67.42-1.07.42m-38.31-9.16c-.87,0-1.57-.7-1.57-1.57,0-.66.41-1.24,1.02-1.47,2.73-1.01,5.57-1.69,8.46-2.03.86-.1,1.64.51,1.74,1.37.1.86-.51,1.64-1.38,1.74h0c-2.64.31-5.24.94-7.74,1.86-.17.07-.36.1-.54.1m24.54-.03c-.19,0-.37-.04-.54-.1-2.5-.92-5.1-1.54-7.75-1.84-.86-.11-1.47-.89-1.36-1.75.11-.85.87-1.45,1.72-1.36,2.89.34,5.74,1.01,8.47,2.02.81.3,1.23,1.2.93,2.02-.23.62-.81,1.03-1.47,1.03" fill="#fff"/>
      <rect id="_사각형_197" data-name="사각형 197" width="95" height="93" fill="none"/>
    </g>
  </g>
</svg>