<?xml version="1.0" encoding="UTF-8"?>
<svg id="_레이어_2" data-name="레이어 2" xmlns="http://www.w3.org/2000/svg" viewBox="0 0 216 202">
  <g id="Logo">
    <g id="symbol_15_02_0003_01" data-name="symbol 15 02 0003 01">
      <rect id="_사각형_273" data-name="사각형 273" width="216" height="202" fill="none"/>
      <path id="_패스_747" data-name="패스 747" d="M36.51,4.04c23.6,0,46.12,.02,68.64-.02,4.83-.1,9.33,2.41,11.79,6.57,10.47,16.25,20.72,32.64,31.2,48.87,1.71,2.65,.33,3.86-1.26,5.46-13.51,13.59-26.91,27.29-40.56,40.74-2.66,2.62-2.83,4.38-.85,7.48,11.83,18.5,23.47,37.13,35.13,55.74,3.09,4.93,4.17,10.1,1.01,15.45-2.99,5.07-7.62,6.38-13.29,6.33-25.55-.18-51.1-.1-76.65-.12h-6.74c5.72-5.53,11.75-10.72,18.06-15.55,1.88-1.43,9.58-7.2,9.59-7.2h0l8.79-.6c4.33-.3,11.97-.8,26.49-1.74,.5-2.59-1.26-3.98-2.27-5.58-8.93-14.25-17.91-28.47-26.94-42.66-5.79-9.16-5.31-13.8,2.22-21.34,11.41-11.42,22.77-22.9,34.29-34.21,2.29-2.25,2.94-3.9,.98-6.81-5.04-7.52-9.87-15.18-14.49-22.97-1.62-2.73-3.5-3.58-6.51-3.55-13.11,.15-26.22,.11-39.33,.15-2.02,0-3.96,.18-5.28-1.99-4.44-7.27-9.01-14.46-14.03-22.45Z" fill="#fff"/>
      <path id="_패스_748" data-name="패스 748" d="M5.17,197.5c-1.46-20.82-2.23-31.92-2.23-31.92h0s51.85-46.91,56.23-51.81c.28-.32,1.32-1.52,2.47-1.36,.63,.09,1.23,.67,1.92,1.9,2.85,5.14,5.98,10.11,9.37,14.9,.86,.96,1.34,2.21,1.33,3.51-.28,1.41-1.12,2.64-2.31,3.44-3.02,2.32-29.59,26.84-66.79,61.35Z" fill="#fff"/>
      <path id="_패스_749" data-name="패스 749" d="M156.46,72.5l9.03,14.01c8.36-12.09,12.29-17.97,14.33-21.09,.29-.44,4.19-6.44,4.19-6.44,5.51-.08,11.02-.15,16.55-.22,4.04-.05,8.07-.1,12.11-.14-16.45,25.87-28.12,44.46-32.07,51.53-1.2,2.1-2.7,4.02-4.45,5.7-1.4,1.35-7.66,7.65-13.79,6-2.6-.73-4.88-2.32-6.45-4.52-5.99-8.05-11.02-16.82-16.53-25.24-1.2-1.83,0-2.75,1.06-3.8,5.25-5.18,10.51-10.34,16.04-15.79Z" fill="#fff"/>
      <path id="_패스_750" data-name="패스 750" d="M183.95,29.34l-24.63,21.96-12.3-15.79,24.82-21.22,12.11,15.04Z" fill="#fff"/>
    </g>
  </g>
</svg>