<?xml version="1.0" encoding="UTF-8"?>
<svg id="Layer_2" data-name="Layer 2" xmlns="http://www.w3.org/2000/svg" viewBox="0 0 190 190">
  <g id="Logo">
    <g id="symbol_18_03_0002_01" data-name="symbol 18 03 0002 01">
      <path id="_합치기_22" data-name="합치기 22" d="m84.21,154.55c-8.08-5.77-15.64-12.21-22.62-19.27-.95-.98-1.82-1.94-2.63-2.87-15.4-17.73-6.2-27.8,18.28-23.36l-.29.38c-6.7.1-16.57.5-20.38,4.96-2.03,3.46,1.1,7.41,3.26,10.33.88,1.04,1.81,2.06,2.75,3.07,7.59,8.06,17.06,14.98,26.06,21.68,12.26,8.98,24.88,17.53,37.44,26.18-1.94.75-3.92,1.43-5.92,2.04-12.39-7.06-24.38-14.79-35.95-23.13ZM8.61,95.01c0-47.72,38.68-86.4,86.4-86.4h0c47.72,0,86.4,38.68,86.4,86.4h0c0,5.28-.48,10.54-1.43,15.74l-15.52-32.98-17.02-3.13-15.06-30.52-19.36,16.04-9.2,4.89-6.85,18.78-8.81,4.5-20.93-21.91-7.82,14.09h-6.06l-15.84,31.11-6.85-3.53-15.43,20.11c-4.37-10.52-6.62-21.79-6.6-33.18Z" fill="#fff"/>
      <rect id="_사각형_249" data-name="사각형 249" width="190" height="190" fill="none"/>
    </g>
  </g>
</svg>