<?xml version="1.0" encoding="UTF-8"?>
<svg id="_레이어_2" data-name="레이어 2" xmlns="http://www.w3.org/2000/svg" viewBox="0 0 357 330">
  <g id="Logo">
    <g>
      <path d="M3.16,233.45c116.27-3.42,234.06-3.45,350.33,0-116.27,3.45-234.06,3.42-350.33,0h0Z" fill="#fff"/>
      <path d="M353.49,324.4c-116.27,3.42-234.06,3.45-350.33,0,116.27-3.45,234.06-3.42,350.33,0h0Z" fill="#fff"/>
      <path d="M194.59,128.7c-1.5,1.21-3.46,3.74-4.79,5.98,0,0-2.16,3.66-3.16,8.11-2.54,11.31-3.28,90.76-5.03,91.2-.95,.24-2.02,.24-2.03,.24h0c-1.42-.22-2.8-1.3-2.8-1.3-7.11-96.68-15.27-119.93-15.27-119.93-5.83-16.61-9.87-21.92-12.15-29.98-.85-3.01-1.38-5.9-1.72-9.71-.89-10.03,1.16-18.5,5.41-30.26,5.39-14.94,14.3-39.65,24.34-40.39,4.26-.31,7.58,1.48,7.58,1.48,2.21,1.2,3.52,2.81,5.39,5.11,1.5,1.85,2.12,3.1,4.55,6.89,1.52,2.37,3.01,4.76,4.48,7.16,5.88,9.61,11.38,19.43,16.63,29.39,10.53,19.98,20.03,40.47,29.51,60.96,6.36,13.74,12.71,27.48,19.37,41.07,1.78,3.63,3.65,7.35,6.68,10.01,4.68,4.12,11.26,5.05,17.27,6.71,7.69,2.13,15.33,6.04,19.54,12.82,4.95,7.96,4.21,18.11,2.81,27.38-.51,3.35-1.13,6.82-3.07,9.61-3.28,4.7-8.49,6.01-14.22,7.55-6.32,1.69-12.05,3.22-17.72,.8-5.54-2.37-8.32-7.36-9.9-10.28-15.19-28.15-22.46-48.46-22.46-48.46-5.47-15.29-7.86-22.55-13.89-32.92-10.89-18.74-17.17-19.26-19.51-19.01-3.33,.35-9.2,3.31-14.14,8.33-.82,.84-1.54,1.33-1.69,1.45Z" fill="#fff"/>
      <path d="M106.35,231.93h0c-.76,.03-1.58,.09-2.45,.22-1.84,.26-3.42,.71-4.73,1.18,.11-7.2,.24-17.95,.31-31.01,.07-14.36,.21-27.98-.03-33.99-.91-22.63-5.09-45.96-17.97-64.57-.31,30.98,4.89,62.29-.67,92.77-1.38,7.58-3.61,15.39-8.99,20.9,4.58-43.83-.54-88-2.46-132.02-.39-8.9-.63-17.97,1.75-26.56,2.1-7.62,6.17-14.52,10.19-21.32,6.03-10.19,12.06-20.39,18.09-30.58,1.72-2.91,4.36-5.8,7.93-3.58,2.43,1.5,3.27,5.84,4.32,8.28,3.59,8.4,7.39,16.73,12.1,24.58,3.79,6.32,8.18,12.37,10.6,19.33,2.94,8.44,2.78,17.6,2.45,26.53-1.7,45.27-7.11,90.67-2.61,135.75-7.18-8.62-9.24-20.32-10.28-31.5-2.54-27.23-.59-54.66,1.36-81.94-8.76,10.73-13.66,24.2-16.07,37.85-2.42,13.65-2.5,27.59-2.58,41.45-.13,23.65-.26,48.22-.26,48.22Z" fill="#fff"/>
      <rect width="357" height="330" fill="none"/>
    </g>
  </g>
</svg>