<?xml version="1.0" encoding="UTF-8"?>
<svg id="Layer_2" data-name="Layer 2" xmlns="http://www.w3.org/2000/svg" viewBox="0 0 180 180">
  <g id="Logo">
    <g id="symbol_19_04_0001_01" data-name="symbol 19 04 0001 01">
      <path id="_패스_436" data-name="패스 436" d="m18.94,99.49c-1.95,0-3.53-1.6-3.53-3.55V15.96c0-1.95,1.58-3.54,3.53-3.55.15,0,.3,0,.45.03l97.27,12.08c1.77.22,3.1,1.73,3.11,3.52v14.11l5.41-.67v-13.44c0-4.52-3.37-8.33-7.85-8.89L20.06,7.07c-.37-.05-.75-.07-1.12-.07-4.94,0-8.94,4.02-8.94,8.96v79.99c0,4.94,3.99,8.95,8.93,8.96.55,0,1.1-.05,1.64-.15l34.18-6.26v-5.5l-35.16,6.43c-.22.04-.44.06-.66.06" fill="#fff"/>
      <path id="_패스_437" data-name="패스 437" d="m146.25,144.29l-36.21-7.14c.42,9.19,3.64,18.04,9.21,25.36l50.68,10.59c0-14.02-9.92-26.09-23.67-28.8" fill="#fff"/>
      <rect id="_사각형_152" data-name="사각형 152" width="180" height="180" fill="none"/>
    </g>
  </g>
</svg>