<?xml version="1.0" encoding="UTF-8"?>
<svg id="Layer_2" data-name="Layer 2" xmlns="http://www.w3.org/2000/svg" viewBox="0 0 154 137">
  <g id="Logo">
    <g id="symbol_09_07_0001_01" data-name="symbol 09 07 0001 01">
      <rect id="_사각형_102" data-name="사각형 102" x="64.1" y="68.52" width="4.93" height="1.85" fill="#fff"/>
      <rect id="_사각형_103" data-name="사각형 103" x="87.67" y="68.52" width="4.93" height="1.85" fill="#fff"/>
      <path id="_패스_715" data-name="패스 715" d="m95.53,70.37h43.56c-1.07,35.27-30.54,63-65.81,61.93-33.77-1.03-60.9-28.16-61.93-61.93h49.84v-1.85H9.47c0,36.31,29.43,65.75,65.74,65.75s65.75-29.43,65.75-65.74h0s-45.43-.01-45.43-.01v1.85Z" fill="#fff"/>
      <rect id="_사각형_104" data-name="사각형 104" x="79.82" y="68.52" width="4.93" height="1.85" fill="#fff"/>
      <rect id="_사각형_105" data-name="사각형 105" x="71.96" y="68.52" width="4.93" height="1.85" fill="#fff"/>
      <rect id="_사각형_106" data-name="사각형 106" x="64.1" y="23.64" width="4.93" height="44.89" fill="#fff"/>
      <rect id="_사각형_107" data-name="사각형 107" x="79.82" y="23.64" width="4.93" height="44.89" fill="#fff"/>
      <rect id="_사각형_108" data-name="사각형 108" x="71.96" y="23.64" width="4.93" height="44.89" fill="#fff"/>
      <path id="_패스_716" data-name="패스 716" d="m61.18,23.64h-2.55c-1.43,0-2.59-1.16-2.59-2.59s1.16-2.59,2.59-2.59h2.55v-1.77c0-.81.65-1.46,1.46-1.46s1.46.65,1.46,1.46v1.77h4.94v-1.77c0-.81.65-1.46,1.46-1.46s1.46.65,1.46,1.46v1.77h4.93v-1.77c0-.81.65-1.46,1.46-1.46s1.46.65,1.46,1.46v1.77h4.93v-1.77c0-.81.65-1.46,1.46-1.46s1.46.65,1.46,1.46v1.77h4.94v-1.77c0-.81.65-1.46,1.46-1.46s1.46.65,1.46,1.46v1.77h22.29C90.17-5.08,48.69-1.74,25.15,25.9c-.25.3-.5.6-.75.9h2.89c4.22.05,7.6,3.51,7.56,7.73-.05,4.15-3.4,7.51-7.56,7.56h-12.29c-3.66,8.33-5.54,17.33-5.53,26.43h51.72V23.64Zm-13.6,37.12h-18.82c-4.22-.05-7.6-3.51-7.56-7.73.05-4.15,3.4-7.51,7.56-7.56h18.81c4.22.05,7.6,3.51,7.56,7.73-.05,4.15-3.4,7.51-7.56,7.56" fill="#fff"/>
      <path id="_패스_717" data-name="패스 717" d="m95.53,68.52h45.43c0-5.48-.68-10.95-2.03-16.26h-12.78c-4.22.05-7.68-3.33-7.73-7.56s3.33-7.68,7.56-7.73c.06,0,.12,0,.17,0h6.75c-2.65-4.83-5.89-9.31-9.66-13.33h-27.72v44.88Z" fill="#fff"/>
      <path id="_패스_718" data-name="패스 718" d="m18.69,40.24h8.59c3.2.04,5.83-2.52,5.87-5.72.04-3.2-2.52-5.83-5.72-5.87-.05,0-.1,0-.15,0h-4.35c-2.76,3.61-5.13,7.49-7.09,11.58h2.85Z" fill="#fff"/>
      <path id="_패스_719" data-name="패스 719" d="m47.58,47.32h-18.81c-3.2,0-5.79,2.59-5.79,5.79s2.59,5.79,5.79,5.79h18.81c3.2,0,5.79-2.59,5.8-5.79,0-3.2-2.59-5.79-5.79-5.8h0" fill="#fff"/>
      <path id="_패스_720" data-name="패스 720" d="m126.16,38.82c-3.2,0-5.79,2.59-5.79,5.79s2.59,5.79,5.79,5.79h12.28c-1.14-4-2.67-7.88-4.55-11.59h-7.73Z" fill="#fff"/>
      <rect id="_사각형_109" data-name="사각형 109" x="87.67" y="23.64" width="4.93" height="44.89" fill="#fff"/>
      <path id="_패스_721" data-name="패스 721" d="m144.97,38.82c3.2,0,5.79,2.59,5.79,5.79,0,3.2-2.59,5.79-5.79,5.79h-6.54c.18.61.34,1.23.5,1.85h6.03c4.22-.05,7.6-3.51,7.56-7.73-.05-4.15-3.4-7.51-7.56-7.56h-12.06c.33.61.66,1.23.97,1.85h11.08Z" fill="#fff"/>
      <path id="_패스_722" data-name="패스 722" d="m8.48,40.24c-3.2.04-5.83-2.52-5.87-5.72-.04-3.2,2.52-5.83,5.72-5.87.05,0,.1,0,.15,0h14.46c.48-.63.97-1.24,1.46-1.85h-15.92c-4.22.05-7.6,3.51-7.56,7.73.05,4.15,3.4,7.51,7.56,7.56h6.52c.27-.62.55-1.24.85-1.85h-7.37Z" fill="#fff"/>
      <rect id="_사각형_2" data-name="사각형 2" width="154" height="137" fill="none"/>
    </g>
  </g>
</svg>