<?xml version="1.0" encoding="UTF-8"?>
<svg id="Layer_2" data-name="Layer 2" xmlns="http://www.w3.org/2000/svg" viewBox="0 0 298 250">
  <g id="Logo">
    <g id="symbol_01_03_0005_02" data-name="symbol 01 03 0005 02">
      <path id="_패스_1217" data-name="패스 1217" d="m5.31,116.48c1.58-4.86,2.66-9.97,4.85-14.54,4.23-8.65,10.83-15.92,19.04-20.96,1.4-.74,2.22-2.25,2.07-3.83-.11-14.31,6.68-24.09,20.15-28.86,4.04-1.43,8.27-2.34,12.44-3.38,1.53-.38,2.55-.7,2.93-2.66,2.53-13.22,15.18-24.98,28.76-26.47,8.38-.92,16.83-1.17,25.24-1.82,1.37-.02,2.71-.44,3.86-1.2,6.13-5.05,13.31-7.2,21.04-7.63,10.54-.59,20.58.85,29.08,7.97.87.73,2.45.76,3.72.85,8.51.63,17.07.79,25.51,1.85,14.31,1.79,26.9,14.01,28.77,26.41.31,2.08,1.61,2.29,3.18,2.75,5.45,1.62,11.08,2.9,16.22,5.24,11.13,5.06,16.28,14.22,16.09,26.34-.16,1.94.83,3.8,2.54,4.74,12.47,8.6,20.75,20,22.42,35.37,1.17,10.71-1.63,20.67-8.72,28.77-16.31,18.65-35.21,34.49-55.12,49.13-2.53,1.86-3.56,3.75-3.44,6.91.3,4.77.12,9.56-.55,14.29-3.68,21.65-28.7,32.67-47.29,21.02-2.54-1.59-5.01-4.34-7.62-4.47s-5.33,2.35-8.01,3.67c-7.96,4.17-17.47,4.15-25.41-.05-2.26-1.13-4.55-2.22-6.71-3.53-1.23-.87-2.91-.77-4.02.26-5.23,3.63-10.52,7.09-17.02,8.31-18.78,3.54-36.8-10.65-37.5-29.76-.14-3.84-.15-7.69-.02-11.53.16-1.67-.67-3.29-2.12-4.13-14.76-10.35-28.97-21.39-41.68-34.23-7-7.07-13.74-14.45-18.19-23.46-2-4.05-3.02-8.6-4.48-12.92v-8.44m27-24.68c-3.28,3.68-6.83,6.95-9.52,10.81-6.08,8.7-8.58,18.31-3.78,28.34,2.58,5.09,5.78,9.85,9.52,14.17,10.42,12.56,22.94,22.9,35.91,32.69,23.93,18.06,49.58,33.35,76.09,47.27,6.37,3.34,12.36,3.29,18.7-.04,18.26-9.57,35.93-20.24,52.9-31.95,20.1-13.89,39.1-29.13,56.22-46.6,3.15-3.21,6.58-6.32,8.98-10.06,10.8-16.88,1.98-35.25-10.72-44.01-.18.43-.34.88-.48,1.33-3.52,14.04-10.38,26.4-18.86,38-10.96,15-24.24,27.84-37.29,40.92-.47.46-.99.86-1.56,1.19-1.86,1.22-4.29,1.14-6.06-.2-1.86-1.09-2.76-3.29-2.2-5.37.46-1.51,1.28-2.88,2.38-4.01,4.86-5.09,9.91-9.98,14.78-15.06,12.08-12.61,23.71-25.61,31.61-41.41,5.4-10.8,8.79-22.1,7.95-34.34-.21-3.69-1.82-7.17-4.5-9.72-5.26-5.08-11.99-6.51-18.54-7.74-1.8,7.79-3.2,15.45-5.37,22.88-6.4,21.91-15.71,42.67-25.54,63.21-2.67,5.58-5.31,11.17-8.1,16.68-1.6,3.15-4.76,4.28-7.55,2.99-2.92-1.35-3.93-4.5-2.53-7.9.28-.69.62-1.36.94-2.04,6.39-13.76,12.99-27.42,19.1-41.3,6.91-15.69,13.05-31.7,16.31-48.63,1.15-6,2.14-12.15.54-18.12-2.56-9.55-9.45-14.9-18.86-16.75-4.75-.93-9.7-.84-14.56-1.19-1.62-.12-3.24-.16-5.1-.24,3.76,11.14,3.94,22.2,2.36,33.2-2.16,15.1-4.99,30.11-7.6,45.15-1.15,6.64-2.43,13.27-3.74,19.88-.7,3.56-3.52,5.62-6.61,5.02-3.15-.61-5.01-3.5-4.48-7.03.19-1.3.5-2.57.72-3.87,3.57-20.67,7.32-41.3,10.6-62.02,1.43-8.17.99-16.56-1.29-24.53-2.01-6.68-5.92-11.64-12.9-13.65-5.53-1.52-11.33-1.86-17-.99-9.56,1.3-15.31,6.71-17.67,16.01-1.76,6.84-2.15,13.95-1.14,20.94,2.54,17.22,5.6,34.37,8.5,51.54.9,5.36,2.04,10.67,2.93,16.03.79,4.73-1.97,8.08-6.08,7.58-2.71-.33-4.39-2.33-5.07-5.91-2.18-11.41-4.57-22.78-6.53-34.22-1.94-11.35-3.79-22.74-5.03-34.18-1.04-9.61-.56-19.27,2.82-28.98-4.88.29-9.34.59-13.8.81-17.39.83-26.93,12.76-24.49,30.02,1.83,12.72,5.28,25.14,10.29,36.98,8.18,19.5,17.14,38.67,25.77,57.99.62,1.26,1.13,2.56,1.54,3.9.68,2.6-.42,4.6-2.58,5.97-2.17,1.33-4.97.93-6.68-.94-.73-.85-1.33-1.81-1.79-2.83-6.45-13.84-13.1-27.58-19.25-41.55-7.36-16.72-13.93-33.76-17.39-51.81-.5-2.63-.87-5.3-1.43-8.76-5.08,1.81-9.96,3.12-14.46,5.24-6.41,3.02-9.21,8.68-9.06,15.58.09,4.4.59,8.78,1.48,13.09,2.81,13.38,9.41,24.99,17.4,35.87,10.2,13.89,22.47,25.91,34.58,38.07,1.02.96,1.91,2.06,2.63,3.26,1.2,2.03.81,4.63-.94,6.21-1.59,1.87-4.29,2.36-6.43,1.15-.98-.55-1.87-1.25-2.63-2.08-7.77-8.01-15.71-15.87-23.22-24.12-10-10.97-19.19-22.62-25.49-36.19-2.82-6.07-4.9-12.5-7.65-19.6m50.94,113.21c-1.18,10.23,2.57,18.29,10.4,22.58,7.56,4.14,16.23,3.3,23.18-2.31l-33.58-20.27m131.24.44l-32.49,20.22c6.44,5.31,15.52,6.01,22.7,1.74,7.39-4.18,11.16-12.54,9.8-21.96" fill="#fff"/>
      <rect id="_사각형_348" data-name="사각형 348" width="298" height="250" fill="none"/>
    </g>
  </g>
</svg>