<?xml version="1.0" encoding="UTF-8"?>
<svg id="_레이어_2" data-name="레이어 2" xmlns="http://www.w3.org/2000/svg" viewBox="0 0 180 211">
  <g id="Logo">
    <g id="symbol_12_02_0004_01" data-name="symbol 12 02 0004 01">
      <rect id="_사각형_299" data-name="사각형 299" width="180" height="211" fill="none"/>
      <path id="_패스_849" data-name="패스 849" d="M165.4,51.85C149.55,20.02,115.33,1.67,80.05,6.1,49.36,9.78,26.85,26.18,13.88,53.46-.3,83.26,1.84,113.85,23.21,139.26c20.02,23.81,43.63,44.61,66.61,67.67,21.12-20.82,41.44-40.19,61-60.3,25.22-25.94,30.59-63.1,14.58-94.78Zm-77.18,81.25h-10.15v-11.16h10.15v11.16Zm0-13.34h-10.15v-11.16h10.15v11.16Zm13.59,13.34h-10.15v-11.16h10.15v11.16Zm0-13.34h-10.15v-11.16h10.15v11.16Zm26.86,17.4c-.05-10.49-.1-20.97-.14-31.46l13.77-.16-46.39-44.2c-1.44-1.67-3.39-2.81-5.56-3.24-1.21-.15-2.44-.07-3.62,.23-8.01,2.14-33.03,30.35-47.65,43.99-1.62,1.51-2.94,2.68-3.41,3.09h16.89c.05,11.11,.1,22.23,.15,33.34-18.63-14.2-28.56-36.79-25.47-59.12,4.04-29.21,29.16-50.84,55.27-53.22,19.46-1.77,37.36,4.22,50.41,16.01,2.81,2.54,11.66,10.69,16.24,23.57,8.05,22.61-.48,50.03-20.49,71.16h0Z" fill="#fff"/>
    </g>
  </g>
</svg>