<?xml version="1.0" encoding="UTF-8"?>
<svg id="_레이어_2" data-name="레이어 2" xmlns="http://www.w3.org/2000/svg" viewBox="0 0 71 106">
  <g id="Logo">
    <g id="symbol_04_01_0001_01" data-name="symbol 04 01 0001 01">
      <rect id="_사각형_69" data-name="사각형 69" width="71" height="106" fill="none"/>
      <path id="_패스_292" data-name="패스 292" d="M62.95,36c-7.2-.01-14.4,0-22.04,0v-3.29c0-8.29,.02-16.58-.01-24.87-.02-3.75-1.74-6.08-4.79-6.72-2.69-.56-5.15,.83-6.72,3.97C19.91,23.96,10.45,42.85,1.01,61.73c-2.6,5.2,.04,9.25,5.95,9.27,6.48,.02,12.96,0,19.45,0h2.73c0,9.54-.01,18.65,0,27.75,0,4.03,1.58,6.37,4.66,7.09,2.84,.66,5.32-.82,7.06-4.29,9.35-18.63,18.68-37.26,28.01-55.9,2.79-5.59,.29-9.64-5.92-9.65Z" fill="#fff"/>
    </g>
  </g>
</svg>