<?xml version="1.0" encoding="UTF-8"?>
<svg id="_레이어_2" data-name="레이어 2" xmlns="http://www.w3.org/2000/svg" viewBox="0 0 105 105">
  <g id="Logo">
    <g id="symbol_08_03_0001_02" data-name="symbol 08 03 0001 02">
      <rect id="_사각형_83" data-name="사각형 83" width="105" height="105" fill="none"/>
      <path id="_패스_609" data-name="패스 609" d="M104.18,50.1c1.85,20.04-9.05,43.6-35.61,52.17-25.4,8.2-50.25-2.72-61.73-23.99,3.06-.77,6.1-1.49,9.12-2.3,12.97-3.45,25.36-8.51,37.68-13.72,1.44-.75,3.13-.86,4.65-.29,4.75,1.62,9.91,1.49,14.57-.37,9.86-3.65,19.73-7.29,29.61-10.91,.55-.2,1.11-.38,1.7-.59Z" fill="#fff"/>
      <path id="_패스_610" data-name="패스 610" d="M1.04,63.3c-.3-2.24-.65-4.24-.83-6.24C-2.24,30.24,17.51,5.17,44.23,1.27c16.49-2.41,30.99,2.01,43.49,13,1.21,1.07,1.99,2.22,.94,3.96-.62-.29-1.2-.57-1.78-.85-7.87-3.8-16.08-5.39-24.72-3.47-1.87,.44-3.65,1.22-5.25,2.3-4.33,2.91-4.91,8.13-1.41,11.98,1.5,1.65,3.24,3.09,4.96,4.71-3.45-.46-6.74-1.13-10.06-1.26-2.74-.18-5.49,.07-8.15,.75-5.97,1.74-7.63,8.44-3.46,13.05,1.29,1.42,2.62,2.8,4.04,4.31-13.46,5.86-27.46,10.39-41.8,13.55Z" fill="#fff"/>
    </g>
  </g>
</svg>