<?xml version="1.0" encoding="UTF-8"?>
<svg id="_레이어_2" data-name="레이어 2" xmlns="http://www.w3.org/2000/svg" viewBox="0 0 142 157">
  <g id="Logo">
    <g id="symbol_04_03_0001_01" data-name="symbol 04 03 0001 01">
      <rect id="_사각형_78" data-name="사각형 78" width="142" height="157" fill="none"/>
      <g id="_그룹_248" data-name="그룹 248">
        <path id="_패스_402" data-name="패스 402" d="M141.51,148.75c-3.51-11.06-7-22.13-10.49-33.2l-4.19-11.9,.3,.24c2.84-1.05,4.81-3.66,5.03-6.68v-26.84l7.3-.02c.63-.24,1.18-.65,1.58-1.19,.34-.45,.57-.98,.66-1.54,.18-.54,.28-1.1,.3-1.66,0-1.79-.65-3.51-1.85-4.83l-18.75-22.04v-2.15c-.7-2.56-2.55-4.45-5.01-6.16-13.29-9.24-26.47-18.64-39.68-27.99-4.24-3-7.12-3.05-11.35-.07-13.77,9.72-27.54,19.45-41.3,29.18-1.45,.97-2.55,2.36-3.17,3.99v3.31L2.23,61.13c-1.2,1.32-1.86,3.05-1.85,4.83,.02,.56,.12,1.12,.3,1.66,.09,.56,.32,1.09,.66,1.54,.41,.53,.96,.95,1.59,1.19l7.3,.02v26.85c.21,3.02,2.18,5.64,5.03,6.68l-6.03,17.12h-.02L.64,148.06c-1.37,4.33-.66,6.07,3.36,8.17H137.98c1.23-.86,2.36-1.84,3.38-2.94,1.01-1.34,.65-2.96,.15-4.53ZM64.41,11.31c-.23,.11-.46,.24-.66,.4,.21-.16,.43-.29,.66-.4h0Zm64.53,133.93c-.8,.88-1.69,1.66-2.67,2.32H15.79c-.06-.06-.1-.15-.17-.18-2.85-1.34-3.69-3.22-2.77-6.29,3.35-11.2,6.7-22.4,10.05-33.6,.82-2.74,1.63-5.48,2.44-8.21,.12-.41,.21-.83,.38-1.46-.65,0-1.14-.04-1.63,0-3.95,.37-5.95-1.78-5.84-6.02,.18-7.19,.05-14.39,.05-21.58v-1.78h-1.98c-1.84,.1-3.53-.99-4.2-2.7-.81-1.68-.53-3.68,.72-5.06,3.4-4.15,6.84-8.27,10.23-12.43,.81-1.25,2.14-2.07,3.63-2.24,.86,.03,1.72,.12,2.56,.28,0-.37-.02-.8,0-1.22,.03-2.23,1.1-4.32,2.9-5.63,11.66-8.71,23.32-17.42,34.99-26.13,2.61-1.94,5.36-1.82,8.2,.3,10.76,8.03,21.52,16.07,32.27,24.11,.63,.47,1.23,.95,1.88,1.4,2.14,1.4,3.39,3.81,3.29,6.37,0,.22,.03,.44,.05,.66,0,.04,.04,.07,.14,.22,2.99-1.23,4.9,.42,6.71,2.7,3.03,3.83,6.19,7.56,9.3,11.32,1.4,1.43,1.76,3.57,.92,5.38-.73,1.79-2.55,2.88-4.48,2.68-.5-.02-1.01,0-1.69,0v24.18c0,3.51-1.63,5.19-5.03,5.2h-2.38c.14,.56,.23,1,.36,1.43,4.12,13.77,8.24,27.53,12.36,41.3,.48,1.6,.96,3.25-.1,4.69h0Z" fill="#fff"/>
        <path id="_패스_403" data-name="패스 403" d="M107.46,63.89c2.3,.01,3.02,.74,3.02,3.09v26.39h8.8v-26.26c0-2.51,.69-3.22,3.17-3.22h3.64l-11.17-13.58-11.2,13.58c1.52,0,2.63,0,3.74,0Z" fill="#fff"/>
        <path id="_패스_404" data-name="패스 404" d="M41.49,61.21c1.15,1.41,1.37,3.38,.54,5.01-.65,1.62-2.25,2.67-4,2.62-.67,0-1.34,0-2.02,0v15.94h21.81v-24.25c0-6.02,3.68-9.84,9.45-9.85,2.4,0,4.8,0,7.19,0,6.12,0,9.71,3.73,9.71,10.11,0,7.46,0,14.91,0,22.37v1.53h21.82v-15.84c-.59,0-1.1-.02-1.6,0-1.93,.2-3.75-.91-4.45-2.71-.82-1.78-.48-3.88,.86-5.31,1.26-1.73,2.63-3.38,4.1-4.94,2.78-2.45,4.06-6.19,3.37-9.83-.01-.13-.01-.27,0-.4,.03-.98-.44-1.92-1.25-2.47-11.5-8.65-23-17.3-34.48-25.97-.86-.8-2.18-.8-3.04-.01-11.49,8.67-22.98,17.32-34.49,25.96-.85,.58-1.34,1.56-1.3,2.59,0,1.42,.08,2.85-.02,4.26-.08,1.1,.31,2.18,1.07,2.97,2.29,2.71,4.53,5.45,6.73,8.23Zm29.7-37.77c1.18,.11,2.06,1.13,2,2.32,0,1.21-.98,2.18-2.19,2.18-1.21,0-2.18-.98-2.18-2.18h0c0-.08,0-.17,.01-.25,.04-1.19,1.04-2.12,2.23-2.08,0,0,0,0,0,0,.04,0,.08,0,.12,0h0Zm-29.8,23c7.22-5.77,14.44-11.54,21.67-17.29,.64-.7,1.68-.85,2.49-.35,.6,.58,1.14,1.23,1.58,1.94-.37,.7-.83,1.36-1.37,1.95-7.24,5.82-14.49,11.61-21.77,17.38-.82,.82-2.15,.81-2.97-.01,0,0,0,0,0,0-.08-.08-.16-.17-.22-.27-.78-1-.6-2.45,.4-3.23h0c.06-.05,.12-.09,.19-.13h0Z" fill="#fff"/>
        <path id="_패스_405" data-name="패스 405" d="M73.35,133.89c9.29,0,18.59,.02,27.88-.01,3.14,0,5.7-2.54,5.7-5.68,0-3.14-2.54-5.69-5.68-5.7h-.01c-1.55-.02-3.1,0-4.65,0-17.81,0-35.62,0-53.44-.01-4.97-.03-8.97-4.08-8.94-9.05,0-.94,.16-1.88,.45-2.77,1.22-3.98,4.55-6.32,9.01-6.32,17.81,0,35.62,0,53.43,0,2.42,0,3.92-1.33,3.91-3.43s-1.5-3.41-3.93-3.42c-2.58-.01-5.16,0-7.74,0-13.6,0-27.19,.02-40.79-.01-4.53,.04-8.34-3.39-8.78-7.91-.05-.38-.15-.75-.21-1.07h-3.62c0,1.55,.04,3.01,0,4.47,.08,2.39-1.79,4.4-4.19,4.48h-.15c-1.03,0-1.3,.48-1.55,1.32-3.45,11.66-6.91,23.31-10.39,34.96-.91,3.04-1.82,6.08-2.77,9.27,3.21,0,6.26-.06,9.31,.03,1.07,.03,1.46-.31,1.69-1.38,1.14-5.22,4.26-7.73,9.45-7.74,12,0,24.01,0,36.01,0Z" fill="#fff"/>
        <path id="_패스_406" data-name="패스 406" d="M31.55,91.79v-24.63c0-2.62,.63-3.26,3.23-3.27h3.54c-3.82-4.64-7.44-9.05-11.16-13.58l-11.21,13.58h1.74q5.05,0,5.05,5.28v24.17h8.81v-1.56Z" fill="#fff"/>
        <path id="_패스_407" data-name="패스 407" d="M111.86,98.46c-.21-.71-.48-.98-1.23-1.01-2.92-.1-4.53-1.89-4.54-4.94,0-1.35,0-2.71,0-4.07H43.87c-.15,2.33,1.61,4.34,3.94,4.49,.19,.01,.37,.01,.56,0,10.07,.01,20.13,.02,30.2,0,6.2,0,12.39-.03,18.58,.01,4.4-.01,7.97,3.54,7.99,7.94h0c.01,4.4-3.54,7.97-7.94,7.99h-.15c-17.77,.01-35.53,.01-53.3,0-.47,0-.95-.02-1.42,.02-2.46,.25-4.25,2.45-4,4.91,0,0,0,0,0,0,.01,.1,.02,.2,.04,.31,.39,2.43,2.14,3.83,4.81,3.83,17.04,0,34.07,0,51.11,0,2.37,0,4.73-.06,7.1,.02,6.75,.23,11.29,7.2,8.98,13.71-1.5,4.24-5.19,6.74-9.97,6.74-21.21,0-42.42,0-63.63,0-2.98,0-4.58,1.46-4.93,4.46H125.03c-.06-.34-.09-.61-.16-.85-4.34-14.52-8.68-29.05-13.01-43.58Z" fill="#fff"/>
      </g>
    </g>
  </g>
</svg>