<?xml version="1.0" encoding="UTF-8"?>
<svg id="Layer_2" data-name="Layer 2" xmlns="http://www.w3.org/2000/svg" viewBox="0 0 109 109">
  <g id="Logo">
    <g id="symbol_10_04_0001_01" data-name="symbol 10 04 0001 01">
      <rect id="_사각형_130" data-name="사각형 130" x="0" y=".06" width="108.99" height="108.94" fill="none"/>
      <path id="_패스_777" data-name="패스 777" d="m39.92,30.15c-1.62-.55-3.38-.57-5.01-.06-2.26.79-4.08,2.49-5.03,4.69-1.09-2.23-3.04-3.92-5.4-4.69-1.63-.51-3.39-.49-5.01.06-4.49,1.82-5.3,8.52-1.83,14.96,2.87,5.32,7.77,8.8,11.92,8.82h.27c4.15-.02,9.05-3.5,11.92-8.82,3.47-6.44,2.65-13.14-1.83-14.96Z" fill="#fff"/>
      <path id="_패스_778" data-name="패스 778" d="m57.53,19.87c-.81-.27-1.69-.28-2.5-.03-1.13.4-2.04,1.25-2.51,2.35-.55-1.11-1.52-1.96-2.7-2.35-.82-.25-1.69-.24-2.5.03-2.24.91-2.65,4.26-.92,7.48,1.43,2.66,3.89,4.4,5.96,4.41h.14c2.07-.01,4.52-1.75,5.96-4.41,1.73-3.22,1.32-6.57-.92-7.48Z" fill="#fff"/>
      <path id="_패스_779" data-name="패스 779" d="m41.14,58.76v30.36c.14.48.27.96.44,1.54l16.25-17.51c-5.43-5.34-10.79-10.62-16.18-15.93-.15.45-.33.99-.51,1.53Z" fill="#fff"/>
      <path id="_패스_780" data-name="패스 780" d="m44.66,54.44c-.04.09-.07.18-.11.27.19.12.37.25.53.4,7.32,7.31,14.63,14.62,21.94,21.94,1.23,1.23,2.1,1.22,3.35-.02,7.31-7.32,14.63-14.63,21.94-21.94.17-.13.36-.25.56-.34l-.14-.3c-.71-.18-1.44-.3-2.17-.36-14.58-.02-29.16-.02-43.73,0-.73.06-1.46.17-2.18.34Z" fill="#fff"/>
      <path id="_패스_781" data-name="패스 781" d="m104.72,33.12C92.84,5.4,60.74-7.45,33.01,4.42c-12.91,5.52-23.19,15.8-28.71,28.7C-4.34,53.43.29,76.94,15.97,92.47c21.38,21.27,55.96,21.19,77.24-.18,4.88-4.9,8.78-10.68,11.5-17.03,5.71-13.47,5.71-28.67,0-42.14Zm-1.45,37.34c0-5.99,0-11.97-.02-17.96,0-.86-.19-1.71-.55-2.5-.94-2.05-3.05-3.29-5.3-3.12-14.38,0-28.76,0-43.15,0-.28,0-.57,0-.85.03-2.12.16-3.93,1.58-4.6,3.59h.72c13.51,0,27.02,0,40.54,0,.77-.01,1.53.05,2.29.2,4.29.84,7.35,4.64,7.26,9.01,0,6.33,0,12.66,0,18.99-1.09,1.97-2.31,3.86-3.65,5.67,0-6.34,0-12.67,0-19.01v-5.73c.03-.79-.15-1.58-.51-2.28l-15.91,15.59,13.79,14.71c-.8.91-1.62,1.81-2.48,2.67l-13.88-14.79c-.19.18-.35.33-.51.48-1.28,1.25-2.56,2.51-3.85,3.76-2.05,2.25-5.54,2.41-7.79.36-.13-.11-.25-.23-.36-.36-1.09-1.05-2.17-2.1-3.25-3.17-.26-.29-.5-.61-.71-.93l-16.45,17.6c.88.47,1.86.7,2.86.67,13.3,0,26.59,0,39.88,0-22.01,17.61-54.13,14.06-71.75-7.94C-2.55,64,1,31.89,23.01,14.28,45.01-3.33,77.14.22,94.76,22.22c7.27,9.07,11.22,20.36,11.2,31.98,0,5.53-.91,11.02-2.69,16.26h0Z" fill="#fff"/>
    </g>
  </g>
</svg>