<?xml version="1.0" encoding="UTF-8"?>
<svg id="_레이어_2" data-name="레이어 2" xmlns="http://www.w3.org/2000/svg" viewBox="0 0 100 125">
  <g id="Logo">
    <g id="symbol_19_03_0002_02" data-name="symbol 19 03 0002 02">
      <path id="_패스_638" data-name="패스 638" d="M96.72,61.15h-2.54c-.16-.01-.34-.02-.53-.01-.35,0-.7,0-1.05,.01h-.45s-.04,0-.06,0c-3.33,.04-6.66,.01-9.99,0-2.86,0-3.3-.46-3.31-3.39-.01-2.99,0-5.99,0-8.98,.03-1.04,0-2.09-.12-3.12h.1v-8.57h-.02c-.05-3.93-.01-7.87,0-11.8,.01-10.06-4.52-17.26-13.59-21.6-11.35-5.41-26.15,.85-30.3,12.72-1.16,3.6-1.7,7.37-1.58,11.16,0,4.09-1.16,5.18-5.19,5.27-2.35,.02-4.7,.17-7.03,.48-10.64,1.57-19.57,11.69-18.81,23.88,.7,11.2,10.38,20.98,21.6,21.11,2.43,.03,4.85,0,7.28,0h0c1.07,0,2.14,0,3.21,0,1.01,0,2.01,0,3.02,0h10v-.03c3.49-.04,6.99,0,10.48,.04,3.53,.03,3.96,.46,3.97,3.91,0,11.98,0,23.97,0,35.95,0,.45,0,.85,0,1.21v2.41c0,.53,.42,.95,.95,.95h15.12c.53,0,.95-.43,.95-.95h0v-4.56s0-.06,0-.08c-.06-11.92-.03-23.83-.02-35.75,0-2.42,.6-3.03,3.03-3.07,3.14-.05,6.28-.04,9.42-.07h.63c.09,.02,.18,.04,.27,.04h4.56c.53,0,.95-.43,.95-.95v-15.27c0-.52-.42-.95-.95-.95Zm-5.51,10.99c-3.17,.04-6.33,.05-9.5,.08-5.77,.06-9.04,3.29-9.07,9.04-.04,6.35,0,12.71-.01,19.06v15.98h-4.64c-.03-5.2,0-10.4,0-15.6h0c0-6.63,.05-13.27-.02-19.9-.05-5.15-3.3-8.41-8.42-8.55-3.35-.09-6.7-.11-10.05-.12-.87,0-1.57,0-2.13,.03h0l-8.38-.06-.03,.11c-4.76,.06-9.52,.02-14.28-.02-7.92-.08-15.01-6.05-16.18-13.57-1.36-8.14,3.39-16.07,11.22-18.7,2.95-1.01,5.92-.68,8.9-.75,5.75-.13,10.41-4.01,10.72-9.02,.13-2.14,.24-4.27,.3-6.41,.06-5.25,2.77-10.11,7.19-12.92,5.49-3.79,11.42-3.98,17.2-.86,5.37,2.71,8.71,8.27,8.59,14.28,.08,4.28,.04,8.57,.04,12.85h0v.02c0,.89-.01,1.58,0,2.1v6.45c.04,2.28,0,4.56,0,6.84h0c0,2.14-.05,4.28,0,6.41,.14,5.08,3.47,8.38,8.53,8.46,3.34,.05,6.68,.06,10.03,.01v4.75Z" fill="#fff"/>
      <rect id="_사각형_224" data-name="사각형 224" width="100" height="125" fill="none"/>
    </g>
  </g>
</svg>