<?xml version="1.0" encoding="UTF-8"?>
<svg id="_레이어_2" data-name="레이어 2" xmlns="http://www.w3.org/2000/svg" viewBox="0 0 153 196">
  <g id="Logo">
    <g id="symbol_08_03_0005_01" data-name="symbol 08 03 0005 01">
      <path id="_패스_1448" data-name="패스 1448" d="m25.48,12.32c6.08-4.29,13.17-6.94,20.58-7.69,16.17-1.72,32.4-1.12,48.61-.91,8.66.11,17.43.66,25.48,4.57,9.73,4.72,17.32,11.56,22.39,21.33,4.09,7.88,5.62,16.11,5.88,24.85.2,6.7.58,13.42,1.02,20.1.76,11.48.3,22.95.4,34.42.14,14.9-.6,29.79-2.22,44.6-.97,10.25-5.7,19.78-13.28,26.75-5.36-5.82-10.76-11.6-16.08-17.46-9.3-10.27-18.57-20.56-27.82-30.88-5.58-6.21-11.19-12.38-16.65-18.69-3.18-3.68-6.48-5.92-11.87-5.7-11.97.49-23.98.14-35.98.16-4.24,0-6.15,2.26-4.94,6.33,2.02,6.75,4.33,13.42,6.52,20.12,1.7,5.6,3.33,11.21,5.1,16.79,3.28,10.34,6.67,20.66,9.96,31,1.29,4.07,2.44,8.18,3.65,12.27-6.81-.57-13.38-2.79-19.14-6.48-12.55-7.78-19.75-19.18-22.22-33.58-.64-4.51-1.02-9.06-1.15-13.61-1.16-20.59-1.38-41.2-.91-61.8.1-4.49-.24-9.1.86-13.56l4.71-.04c10.35,0,20.7.08,31.05-.02,2.93.13,5.86-.35,8.6-1.41,7.28-3.23,11.82-11.33,10.46-18.7-1.4-8.22-8.43-14.3-16.76-14.5-1.63-.05-2.16-.5-2.35-2.19-.77-6.99-7.35-14.46-13.94-16.08m75.18,82.44c.16,0,.32-.02.48-.07,7.15.03,14.31-.05,21.46.12,6.68.16,13.89-4.72,12.8-13.94-.52-4.4-5.28-9.35-9.66-9.32-2.19.01-2.88-.79-3.42-2.78-1.31-4.83-4.11-8.46-9.23-9.8-.48-.36-1.01-.64-1.57-.83-7.9-1.26-14.39,2.53-16.83,9.88-.6,1.8-1.06,2.8-3.26,3.13-6.18.92-9.98,6.86-10.15,11.34-.21,5.62,4.69,11.61,9.84,12.11,3.16.3,6.36.13,9.54.17" fill="#fff"/>
      <rect id="_사각형_513" data-name="사각형 513" width="153" height="196" fill="none"/>
    </g>
  </g>
</svg>