<?xml version="1.0" encoding="UTF-8"?>
<svg id="Layer_2" data-name="Layer 2" xmlns="http://www.w3.org/2000/svg" viewBox="0 0 232 232">
  <g id="Logo">
    <g id="symbol_02_03_0004_01" data-name="symbol 02 03 0004 01">
      <path id="_합치기_46" data-name="합치기 46" d="m171.07,219.5c-2.81-.03-4.5-1.52-4.55-3.97-.06-2.51,1.66-4.23,4.48-4.27,4.95-.07,9.9-.02,14.86-.02.63,0,1.26,0,2.42,0-2.44-2.9-4.52-5.39-6.62-7.87-17.82-21.1-35.64-42.2-53.46-63.3-4.06-4.99-11.39-5.75-16.38-1.69-.65.53-1.23,1.12-1.75,1.77-19.63,23.23-39.26,46.47-58.88,69.71-.29.34-.54.7-1.06,1.38h2.37c26.86,0,53.73,0,80.59,0,.81-.02,1.63.01,2.44.1,2.08.17,3.66,1.95,3.56,4.04.02,2.14-1.62,3.93-3.75,4.09-.58.06-1.17.03-1.75.03-32.52,0-65.03,0-97.55,0-.23,0-.47,0-.7,0-1.34.07-2.65-.38-3.67-1.25-.67-.36-1.23-.88-1.64-1.52-.67-1.06-16.41-26.41-13.5-64.42,1.69-22.22,9.45-44.15,23.06-65.17,16.83-26.01,42.71-50.7,76.93-73.39.13-.08.26-.16.39-.23.08-.04.16-.07.24-.11.05-.02.1-.05.15-.07.11-.05.22-.09.34-.12l.06-.02c.12-.04.24-.07.37-.09h.05c.12-.04.24-.05.35-.06.02,0,.05,0,.07,0,.1-.01.21-.02.32-.02h.12c.09,0,.18,0,.27,0,.05,0,.11,0,.16,0,.07,0,.15.02.23.03l.2.03c.07.02.14.04.21.05s.14.03.21.05c.08.03.16.06.23.08.06.02.12.04.17.06.11.05.23.1.34.16.01,0,.03.02.05.02.14.07.28.15.41.24,34.21,22.69,60.1,47.37,76.92,73.38,13.6,21.03,21.36,42.95,23.05,65.17,2.9,38.01-12.83,63.36-13.5,64.42-1.22,1.48-2.95,2.47-4.85,2.76-5.73.02-11.46.03-17.19.02-2.61,0-5.21,0-7.81,0h-3.81c-1.07,0-2.13,0-3.18-.01Zm-37.08-85.23c21.07,24.92,42.1,49.87,63.09,74.85,1.09,1.3,2.16,2.2,3.74,2.2,2.35-4.11,14.32-26.89,11.73-58.87-3.73-46.14-36.07-90.95-93.58-129.71C61.46,61.51,29.12,106.31,25.38,152.46c-2.58,31.91,9.34,54.66,11.72,58.85,2.22-.31,3.73-1.66,5.32-3.54,20.55-24.52,41.15-48.99,61.82-73.4,3.74-4.36,9.21-6.84,14.95-6.79,5.68-.06,11.1,2.4,14.8,6.7Zm-52.56,63.18c-2.26-.03-4.07-1.9-4.04-4.16.03-2.26,1.9-4.07,4.16-4.04,2.19-.04,3.99,1.71,4.02,3.89,0,.08,0,.16,0,.24,0,2.25-1.84,4.07-4.09,4.07h-.04Zm27.64-4.42c-.07-2.28,1.73-4.19,4.01-4.25s4.19,1.73,4.25,4.01c.07,2.28-1.73,4.19-4.01,4.25-.02,0-.05,0-.07,0h-.06c-2.23.05-4.07-1.72-4.12-3.95,0-.02,0-.04,0-.06h0Zm22.08-10.17c-.04-2.27,1.78-4.14,4.05-4.17s4.14,1.78,4.17,4.05-1.78,4.14-4.05,4.17c0,0-.02,0-.03,0h-.03c-2.25.01-4.09-1.79-4.12-4.05h0Zm-37.42-7.83c0-2.27,1.83-4.11,4.1-4.12,2.23-.02,4.05,1.77,4.07,4,0,.04,0,.09,0,.13,0,2.26-1.83,4.09-4.08,4.09-2.26,0-4.09-1.83-4.09-4.08h0Zm21.1-5.16c-.04-2.28,1.78-4.17,4.06-4.21s4.17,1.78,4.21,4.06c.04,2.28-1.78,4.17-4.06,4.21-.03,0-.05,0-.08,0h-.02c-2.23.04-4.07-1.73-4.11-3.96,0-.03,0-.07,0-.1h0Zm22.48-.43c.04-2.26,1.9-4.07,4.16-4.03,2.21.03,4,1.82,4.03,4.03-.04,2.25-1.87,4.06-4.12,4.09-2.24,0-4.06-1.81-4.07-4.05,0-.01,0-.03,0-.04h0Zm-34.14-10.79c-.05-2.19,1.68-4,3.87-4.05.07,0,.14,0,.21,0,2.26.01,4.08,1.84,4.09,4.1-.13,2.23-1.92,4.01-4.16,4.11h-.07c-2.23-.08-3.98-1.93-3.94-4.16Zm26.45,2.12c-2.29-.02-4.13-1.9-4.11-4.2.02-2.29,1.9-4.13,4.2-4.11s4.13,1.9,4.11,4.2c-.02,2.26-1.85,4.08-4.11,4.11h-.09Zm-17.84-12.23c-.03-2.28,1.79-4.15,4.07-4.19,2.28-.03,4.15,1.79,4.19,4.07.03,2.28-1.78,4.15-4.06,4.19h-.08c-2.23-.06-4.03-1.84-4.12-4.07h0Zm-3.54-43.39c-.07-2.21,1.66-4.06,3.87-4.13.06,0,.12,0,.18,0,2.25-.07,4.13,1.7,4.2,3.95.07,2.25-1.7,4.13-3.95,4.2-.03,0-.07,0-.1,0h-.06c-2.24,0-4.08-1.78-4.13-4.02Zm15.28-8.75c-2.26-.01-4.08-1.85-4.07-4.11s1.85-4.08,4.11-4.07c.03,0,.07,0,.1,0,2.21-.01,4.02,1.77,4.04,3.98,0,.05,0,.11,0,.16-.05,2.24-1.89,4.04-4.13,4.04h-.05Zm-11.87-11.25c-2.25-.11-3.99-2.03-3.87-4.28.11-2.14,1.85-3.83,3.99-3.88,2.26-.03,4.11,1.77,4.14,4.02s-1.77,4.11-4.02,4.14c-.06,0-.12,0-.17,0-.02,0-.04,0-.07,0Zm3.67-35.22c-.04-2.28,1.78-4.16,4.06-4.2s4.16,1.78,4.2,4.06-1.78,4.16-4.06,4.2c-.01,0-.03,0-.04,0h-.02c-2.26,0-4.1-1.8-4.14-4.06Z" fill="#fff"/>
      <rect id="_사각형_421" data-name="사각형 421" width="232" height="232" fill="none"/>
    </g>
  </g>
</svg>