<?xml version="1.0" encoding="UTF-8"?>
<svg id="_레이어_2" data-name="레이어 2" xmlns="http://www.w3.org/2000/svg" viewBox="0 0 334 151">
  <g id="Logo">
    <g id="symbol_19_06_0002_01" data-name="symbol 19 06 0002 01">
      <rect id="_사각형_217" data-name="사각형 217" width="334" height="151" fill="none"/>
      <path id="_패스_622" data-name="패스 622" d="M30.78,119.62c-1.33,.03-2.43-1.02-2.47-2.34,0-.04,0-.07,0-.11-.17-1.98-.37-3.96-.65-5.92-2.05-14.19-6.28-18.53-20.24-20.62-1.83-.27-3.89-.2-3.9-2.61,0-2,1.79-2.16,3.44-2.47,15.42-2.92,19.2-7,21.05-22.57,.12-.99,.16-1.98,.21-2.98,.08-1.65,.3-3.54,2.31-3.54,2.31,0,2.56,1.93,2.66,3.87,.11,2.38,.39,4.75,.85,7.09,2.41,11.98,6.97,16.33,18.86,18.09,1.88,.28,4.62-.42,4.77,2.29,.18,3.2-2.72,2.57-4.82,2.86-13.27,1.83-18.18,7.86-19.65,24.01-.36,3.95-.99,5.08-2.42,4.96Z" fill="#fff"/>
      <path id="_패스_623" data-name="패스 623" d="M56.89,77.62c-.63,.02-1.16-.48-1.17-1.11,0-.02,0-.03,0-.05-.08-.94-.17-1.88-.31-2.81-.97-6.74-2.98-8.8-9.61-9.79-.87-.13-1.85-.1-1.85-1.24,0-.95,.85-1.02,1.64-1.17,7.32-1.39,9.12-3.32,10-10.72,.05-.47,.07-.94,.1-1.41,.04-.79,.14-1.68,1.1-1.68,1.1,0,1.22,.91,1.27,1.84,.05,1.13,.19,2.25,.4,3.37,1.15,5.69,3.31,7.76,8.96,8.59,.9,.13,2.19-.2,2.26,1.09,.09,1.52-1.29,1.22-2.29,1.36-6.3,.87-8.63,3.73-9.33,11.4-.17,1.88-.48,2.42-1.16,2.36Z" fill="#fff"/>
      <path id="_패스_624" data-name="패스 624" d="M262.76,148.93c-.48,.01-.88-.37-.89-.84,0-.01,0-.03,0-.04-.06-.71-.13-1.42-.23-2.13-.74-5.11-2.26-6.67-7.29-7.42-.66-.1-1.4-.07-1.4-.94,0-.72,.64-.78,1.24-.89,5.55-1.05,6.91-2.52,7.58-8.12,.04-.36,.06-.71,.08-1.07,.03-.6,.11-1.27,.83-1.27,.83,0,.92,.69,.96,1.39,.04,.86,.14,1.71,.3,2.55,.87,4.31,2.51,5.88,6.79,6.51,.68,.1,1.66-.15,1.71,.82,.07,1.15-.98,.92-1.73,1.03-4.78,.66-6.54,2.83-7.07,8.64-.12,1.42-.36,1.83-.87,1.79Z" fill="#fff"/>
      <path id="_패스_625" data-name="패스 625" d="M199.84,30.36c12.9-14.43,25.15-26.46,44.69-25.52,14.48,.69,25.08,8.89,34.82,18.57,1.32,1.24,2.53,2.6,3.6,4.06,4.49,6.57,9.83,11.36,17.88,14.03,8.59,2.85,13.3,9.93,13.39,19.55,.04,3.84-1.02,5.42-5.12,5.15-7.3-.49-14.53,.13-21.12,3.79-1.62,.8-3.12,1.83-4.45,3.06-1.39,1.43-4.27,2.86-2.26,5.35,2.3,2.86,4.07,.28,5.94-1.22,14.25-11.4,37.96-4.88,45.01,12.2,1.8,4.37,.19,4.93-3.79,4.92-40.11-.11-80.22-.13-120.32-.07-14.31,0-28.62-.14-42.93,.09-4.65,.08-5.68-1.11-3.83-5.44,3.25-7.58,8.98-11.8,16.95-12.75,4.69-.56,5.85-2.5,4.48-6.79-8.8-27.45,12.73-37.57,35.7-32.64,7.25,1.56,13.39,5.36,18.91,10.23,1.57,1.39,3.34,3.87,5.56,1.63,2.52-2.54-.14-4.35-1.84-5.9-11.24-10.23-24.54-14.16-41.27-12.29Z" fill="#fff"/>
      <circle id="_타원_11" data-name="타원 11" cx="43.34" cy="18.32" r="1.7" fill="#7b75a3"/>
      <circle id="_타원_12" data-name="타원 12" cx="18.32" cy="127.03" r="3.24" fill="#fff"/>
      <circle id="_타원_13" data-name="타원 13" cx="274.99" cy="117.68" r="2.32" fill="#fff"/>
    </g>
  </g>
</svg>