<?xml version="1.0" encoding="UTF-8"?>
<svg id="_레이어_2" data-name="레이어 2" xmlns="http://www.w3.org/2000/svg" viewBox="0 0 210 199">
  <g id="Logo">
    <g id="symbol_13_02_0004_01" data-name="symbol 13 02 0004 01">
      <path id="_패스_969" data-name="패스 969" d="m58.35,175.16c-5.09.26-10.17-.62-14.88-2.56-.69-.28-1.79-.45-1.79-1.33,0-.81,1.04-1.13,1.71-1.48,4.11-2.12,8.52-3.59,13.08-4.35,5.97-1.02,11.97-.38,17.92.38,2.02.31,3.99.9,5.85,1.77,1.23.55,1.23.94.17,1.69-2.65,1.74-5.57,3.02-8.65,3.81-4.49,1.32-9.04,2.49-13.4,2.07" fill="#fff"/>
      <path id="_패스_970" data-name="패스 970" d="m110.71,171.55c-2.46.18-1.95-.85-1.4-1.77,4.32-7.33,10.92-13.05,18.8-16.27,3.78-1.71,7.81-2.84,11.93-3.34.5-.05,1.06-.48,1.43.09.31.47-.22.83-.42,1.23-4.31,8.52-11.52,13.68-20.06,17.3-3.29,1.38-6.75,2.31-10.28,2.77" fill="#fff"/>
      <path id="_패스_971" data-name="패스 971" d="m44.51,128.23c.14-.6-.29-1.44.45-1.77.59-.27,1.08.34,1.56.67,10.03,6.67,16.65,17.39,18.14,29.34.16,1.1,1.15,2.61-.07,3.27-1.1.6-2.05-.9-2.96-1.57-9.38-6.76-15.55-17.09-17.05-28.55-.07-.46-.05-.92-.07-1.39" fill="#fff"/>
      <path id="_패스_972" data-name="패스 972" d="m143.15,159.8c1.45-8.23,4.2-15.67,9.48-22.05,2.77-3.45,6.06-6.45,9.73-8.91.66-.43,1.43-1.18,2.11-.75s-.02,1.33-.07,2.03c-.49,7.28-3.44,13.64-7.57,19.46-3.05,4.33-6.93,8-11.43,10.8-.52.32-1.11.87-1.78.46-.36-.21-.55-.63-.48-1.04" fill="#fff"/>
      <path id="_패스_973" data-name="패스 973" d="m172.35,155.1c4.72-.35,9.08.66,13.4,1.9.61.18,1.46.26,1.45,1.07-.01.7-.67,1.07-1.35,1.27-.32.08-.63.21-.91.39-5.39,3.47-11.49,4.94-17.69,5.7-3.67.28-7.37.13-11.01-.43-2.46-.43-4.89-1.01-7.28-1.73-.47-.11-1.03-.24-1.16-.64-.19-.59.39-.9.83-1.18,4.43-2.88,9.43-4.78,14.66-5.57,3.06-.41,6.1-1.17,9.06-.77" fill="#fff"/>
      <path id="_패스_974" data-name="패스 974" d="m148.96,176.7c-5.99-.69-13.89-2.17-21.05-6.35-.48-.28-1.24-.57-1.19-1.18.05-.73.8-.99,1.48-1.1,3.04-.49,6.12-.83,9.13-1.49,5.57-1.14,11.33-.85,16.75.85,3.96,1.02,7.73,2.68,11.14,4.93.42.29,1.04.48.9,1.14-.12.59-.74.47-1.15.57-4.59,1.11-9.06,2.86-16.01,2.62" fill="#fff"/>
      <path id="_패스_975" data-name="패스 975" d="m99.19,171.2c-4.65.34-8.53-1.49-12.32-3.19-5.15-2.24-9.82-5.44-13.77-9.42-2.14-2.33-3.98-4.91-5.49-7.69-.26-.44-.58-.95-.18-1.47.28-.36.7-.23,1.1-.16,9.19,1.59,17.35,5.3,23.92,12.03,2.91,2.79,5.21,6.17,6.74,9.9" fill="#fff"/>
      <path id="_패스_976" data-name="패스 976" d="m35.22,153.07c8.35-.3,16.59,1.96,23.63,6.46.4.24.78.5,1.14.79.61.53.92,1.06-.22,1.33-5.63,1.35-11.2,2.49-17.15,1.78-4.1-.56-8.15-1.45-12.1-2.65-3.17-.89-5.81-3.03-8.63-4.72-.29-.17-.57-.44-.47-.79.15-.52.65-.58,1.12-.65,4.21-.67,8.37-1.78,12.69-1.56" fill="#fff"/>
      <path id="_패스_977" data-name="패스 977" d="m153.33,22.98c.2-1.2-.5-2.86.76-3.3,1.09-.38,1.94,1.09,2.83,1.86,8.49,7.42,13.14,17.01,15.68,27.78.1.32.14.65.1.98-.11.54.48,1.23-.25,1.6-.53.27-1.02-.14-1.47-.4-10.59-5.63-17.33-16.53-17.65-28.51" fill="#fff"/>
      <path id="_패스_978" data-name="패스 978" d="m58.71,20.77c-.85,12.87-7.13,23.29-18.76,28.72-1.29.6-1.68.3-1.4-1.09,1-4.83,2.72-9.49,5.1-13.82,2.33-4.5,5.32-8.63,8.88-12.24,1.31-1.29,2.8-2.38,4.2-3.58.45-.38.92-.97,1.52-.74.79.3.37,1.14.46,1.75.03.33.03.66,0,.99" fill="#fff"/>
      <path id="_패스_979" data-name="패스 979" d="m160.92,153.34c-2.76,0-2.91-.23-1.77-2.23,3.21-5.42,7.86-9.84,13.43-12.77,4.72-2.65,9.91-4.36,15.28-5.03.57-.07,1.26-.31,1.64.28.35.55-.27.96-.51,1.4-3.84,7.16-9.83,11.88-17.09,15.24-3.51,1.52-7.2,2.57-10.99,3.12" fill="#fff"/>
      <path id="_패스_980" data-name="패스 980" d="m49.86,151.47c-7.5-.53-14.17-2.74-19.92-7.44-3.84-3.15-7.46-6.51-9.66-11.08-.28-.57-.93-1.24-.46-1.8.5-.59,1.33-.2,2.05-.09,6.35.93,12.37,3.4,17.54,7.21,4.16,3.04,7.58,6.98,10.02,11.52.21.54.35,1.11.43,1.68" fill="#fff"/>
      <path id="_패스_981" data-name="패스 981" d="m178.99,73.04c-3.54-1.04-6.85-2.74-9.76-5.01-4.45-3.41-8.24-7.6-11.19-12.36-1.41-2.22-2.44-4.66-3.04-7.21-.25-1.11-.46-1.92,1.45-1.31,8.43,2.71,14.57,8.14,19.47,15.34,1.9,2.84,3.38,5.94,4.39,9.21.38,1.16-.08,1.44-1.32,1.35" fill="#fff"/>
      <path id="_패스_982" data-name="패스 982" d="m31.11,70.76c-1.18.09-.84-.71-.73-1.3.47-2.53,2-4.56,3.17-6.76,3.5-6.56,9.03-11.07,15.28-14.75,2.16-1.13,4.44-2,6.8-2.6,1.54-.47.96.68.75,1.38-1.18,4.06-3.17,7.84-5.86,11.1-4.84,5.71-10.6,10.26-17.88,12.58-.31.1-.62.2-.94.28-.2.03-.39.06-.59.06" fill="#fff"/>
      <path id="_패스_983" data-name="패스 983" d="m205.28,68.36c-.39,7.62-3.4,14.88-8.53,20.54-2.24,2.52-4.83,4.7-7.68,6.49-.5.31-1.02.82-1.6.45-.48-.3-.33-.96-.3-1.48.27-7.23,2.79-14.19,7.2-19.92,2.41-3.15,5.3-5.88,8.58-8.11.59-.39,1.2-1.11,1.91-.75.76.38.33,1.31.43,1.99.02.26.02.53,0,.79" fill="#fff"/>
      <path id="_패스_984" data-name="패스 984" d="m27.74,65.17c-.19,3.9-.83,7.75-1.92,11.5-.46,1.48-1.04,1.17-1.68.33-3.78-4.94-6.32-10.71-7.4-16.84-.83-5.29-.4-10.71,1.23-15.81.14-.48.35-1.17.7-1.31.51-.21.91.43,1.22.84,4.78,6.1,7.52,13.55,7.84,21.29" fill="#fff"/>
      <path id="_패스_985" data-name="패스 985" d="m179.51,112.86c-.15,8.23-3.17,16.15-8.54,22.4-.25.3-.53.75-.93.62-.55-.18-.58-.84-.71-1.31-1.58-5.74-1.69-11.79-.33-17.58,1.24-5.47,3.73-10.59,7.29-14.93.92-1.13,1.26-.88,1.64.29,1.06,3.4,1.59,6.95,1.58,10.52" fill="#fff"/>
      <path id="_패스_986" data-name="패스 986" d="m203.92,110.97c1.39-.1,1.84.13,1.06,1.74-4.99,10.23-13.24,16.29-24.11,18.98-1.24.31-3.05,1.32-3.86.15-.69-1,.66-2.45,1.33-3.6,3.04-5.44,7.69-9.82,13.3-12.53,3.37-1.62,6.56-3.67,10.31-4.42.64-.19,1.31-.29,1.98-.3" fill="#fff"/>
      <path id="_패스_987" data-name="패스 987" d="m195.04,56.04c-.39,7.41-2.29,13.93-6.49,19.68-.78,1.06-1.44,2.2-2.2,3.27-.3.42-.66.99-1.22.89-.54-.1-.63-.74-.8-1.24-1.25-3.91-1.61-8.05-1.07-12.12.63-6.65,3.09-13,7.1-18.35.7-.92,1.49-2.45,2.43-2.27,1.08.21,1.12,1.94,1.31,3.06.43,2.45.67,4.94.94,7.06" fill="#fff"/>
      <path id="_패스_988" data-name="패스 988" d="m37.62,39.11c.5,6.86-1.9,12.87-5.07,18.67-.26.48-.52,1.07-1.07,1.06-.69-.02-.78-.79-1.02-1.29-1.49-3.38-2.36-7-2.54-10.69-.67-7.57.32-14.88,4.28-21.55.2-.34.46-.64.65-.99.7-1.32,1.18-.84,1.65.16,2.17,4.66,3.58,9.49,3.13,14.63" fill="#fff"/>
      <path id="_패스_989" data-name="패스 989" d="m183.19,117.32c1-7.64,3.55-14.25,9.02-19.54,2.88-2.78,5.38-6,9.11-7.77,1.04-.49,2.22-1.59,3.23-.88.89.62.14,1.97-.05,2.99-1.2,6.04-4.1,11.62-8.37,16.06-2.97,3.2-6.05,6.28-10.1,8.18-.89.47-1.85.8-2.84.97" fill="#fff"/>
      <path id="_패스_990" data-name="패스 990" d="m22.95,91.82c-.03.37.1.9-.29,1.22s-.73-.04-1.05-.26c-7.04-4.85-12.54-10.9-14.83-19.36-.95-3.16-1.48-6.42-1.57-9.72,0-1.54.63-1.78,1.78-.97,6.54,4.6,11.5,10.42,13.95,18.17,1.07,3.56,1.75,7.22,2.02,10.92" fill="#fff"/>
      <path id="_패스_991" data-name="패스 991" d="m5.63,85.58c3.84,1.33,7.24,3.67,9.87,6.76.99,1.16,2.06,2.22,3.06,3.36,4.13,4.85,6.75,10.79,7.55,17.11.09.57.5,1.41-.2,1.8-.63.36-1.24-.24-1.8-.56-9.87-5.64-16.43-13.67-18.1-25.2-.12-.85-.3-1.68-.44-2.53,0-.25.02-.5.06-.75" fill="#fff"/>
      <path id="_패스_992" data-name="패스 992" d="m30.26,109.97c-.24-3.12.54-6.05,1.29-8.98.17-.65.37-1.58,1.15-1.7.73-.11.99.77,1.31,1.3,2.52,4.15,5.37,8.15,6.18,13.11,1,6.12,1.71,12.24-.28,18.32-.13.44-.28.88-.46,1.3-.43.93-.9.98-1.52.09-3.94-5.61-7.09-11.49-7.35-18.58-.22-1.61-.32-3.24-.33-4.87" fill="#fff"/>
      <path id="_패스_993" data-name="패스 993" d="m183.83,43.33c.29,5.47-1.23,11.14-3.63,16.62-.42.97-.84,1.3-1.53.15-5.98-9.93-6.56-22.21-1.54-32.66.29-.62.41-1.59,1.27-1.57.77.02.78,1,1.05,1.55,3.23,6.66,4.47,8.63,4.39,15.9" fill="#fff"/>
      <path id="_패스_994" data-name="패스 994" d="m6.14,108.05c6.06,1.6,12.16,3.84,17.09,8.57,3.5,3.36,6.73,6.88,8.63,11.43.21.5.8,1.05.25,1.6-.41.4-.98.14-1.5.04-7.44-1.55-14.26-5.26-19.62-10.65-3.02-2.9-4.46-6.61-6.73-9.87-.23-.26-.27-.62-.12-.93.47-.76,1.07.03,2.01-.19" fill="#fff"/>
      <path id="_패스_995" data-name="패스 995" d="m25.46,95.74c.46-10.28,4.28-18.91,12.58-25.28.52-.4,1.1-1.17,1.85-.69.66.43.53,1.3.54,2.02.35,10.18-3.85,20-11.47,26.77-.79.72-1.67,2.01-2.72,1.62-1.17-.44-.72-1.96-.78-3.05-.02-.46,0-.93,0-1.39" fill="#fff"/>
      <path id="_패스_996" data-name="패스 996" d="m184.23,96.81c0,1.85-.03,3.11,0,4.36.04,1.62-.63,1.74-1.72.82-3.18-2.66-5.93-5.8-8.16-9.29-3.06-4.83-3.95-10.27-4.26-15.83.01-1.45.14-2.89.37-4.31.04-.38-.05-.85.38-1.05.54-.25.83.23,1.18.5,5.65,4.42,9.67,10.6,11.42,17.56.67,2.35.94,4.8.79,7.24" fill="#fff"/>
      <path id="_패스_997" data-name="패스 997" d="m160.18,100.97c-4.17-8.39-8.27-16.82-12.55-25.14-1.08-2.1-.53-4.24-.9-6.33-.18-1.02,1.12-.94,1.81-1.19,2.12-.76,3.99-1.79,4.55-4.19.86-3.71-1.76-6.55-6.41-6.4,3.62.88,5.15,2.71,4.68,5.16-.48,2.5-2.56,3.79-5.74,3.43-3.23-.37-6.12-1.84-9.09-3.02-3.31-1.41-6.74-2.55-10.24-3.39-4.56-.94-9.27-.88-13.81.16-2.72.58-3.97-.41-4-3.29-.01-1.04.12-2.08.17-3.12.51-9.46.67-18.89-2.45-28.03-.06-.17-.11-.35-.14-.54h-2.62c-.02.07-.04.15-.06.22-3.54,10.16-3.06,20.63-2.4,31.12.05.4.06.8.03,1.2-.27,1.9-1.65,3-3.39,2.57-7.77-1.89-15.24-.81-22.53,2.2-2.9,1.36-5.89,2.52-8.95,3.46-.93.26-1.87.42-2.83.5-3.02.18-4.96-1.2-5.3-3.68-.33-2.47,1.14-4.15,4.21-4.81-2.85-.36-5.08.95-5.8,3.42-.71,2.43.33,5.49,2.88,6.12,3.64.9,3.61,3.15,3.33,5.93-.15.95-.48,1.86-.96,2.68-4.28,8.69-8.54,17.39-12.9,26.04-.68,1.11-.54,2.54.35,3.49,2.65,3.48,6.53,4.64,10.51,5.14,5.52.69,11.06.56,16.11-2.35.81-.5,1.58-1.08,2.3-1.72,1.92-1.6,2.18-3.24.94-5.64-4.44-8.52-8.57-17.2-12.9-25.77-.94-1.86-.14-3.8-.65-5.66-.15-.54.37-.88.88-.92,5.9-.46,11.16-3.46,16.97-4.24,5.12-.63,10.32.29,14.91,2.65,1.26.58,2.03,1.89,1.92,3.27.46,14.72.72,29.45.98,44.18.23,13.01.64,26.02,1.06,39.03h0l-.02,20.59c-2.33-.43-4.64-1.02-7.02-1.35-6.13-.86-12.23-1.08-18.23.62-5.34,1.41-10.25,4.12-14.3,7.88.39.25.8.45,1.24.6,3.66.62,7.19,1.51,11.06,1.42,6.41-.11,12.69-1.82,18.27-4.97,1.75-.97,3.64-1.97,5.84-1.41-1.6,1.4-3.17,2.69-4.66,4.09-2.39,2.24-4.3,4.99-7.17,6.74-.66.4-1.81.8-.83,1.9.72.81,1.41,1.7,2.83.96,2.73-1.41,4.57-3.74,6.47-5.99,1.86-2.21,3.38-4.72,5.84-6.38,1.12-.76,2.28-1.49,3.62-.67,1.59.82,2.96,2,4.01,3.44,1.29,1.99,2.7,3.9,4.21,5.73,1.21,1.74,2.79,3.2,4.62,4.27,1.29.62,2.27-.03,3.1-1.01.58-.69.1-1.03-.41-1.41-4.44-3.29-7.72-7.74-11.95-11.93,4.71.9,8.43,3.09,12.28,4.92,3.26,1.61,6.83,2.49,10.46,2.57,3.88-.14,7.74-.48,11.58-1.02.56-.05,1.34.24,1.61-.42.31-.76-.47-1.17-.94-1.57-9.56-8.08-20.65-9.87-32.66-7.94-1.19.19-2.36.54-3.54.82v-19.99c.05-12.23.49-24.45.87-36.68.02-.48.06-.96.07-1.44.22-13.13.44-26.26.67-39.38.17-1.67.26-3.35.26-5.03-.24-2.79,1.03-4.11,3.52-5.15,6.2-2.61,13.15-2.75,19.45-.41,3.28,1.29,6.71,2.19,10.2,2.65,1.03.09,1.43.44,1.46,1.65.02,2.71-.67,5.38-2,7.75-4.06,7.9-7.92,15.91-11.95,23.83-.76,1.27-.57,2.89.46,3.95,1.96,2.26,4.61,3.81,7.54,4.41,5.61,1.47,11.54,1.21,17-.74,1.36-.49,2.63-1.2,3.75-2.11,2.55-1.99,2.86-3.44,1.41-6.36m-94.79-24.64c4.01,8.1,8.01,16.21,12.06,24.3.82,1.63.59,2.32-1.36,2.29-4.08-.06-8.16-.02-12.24-.01-3.92,0-7.85-.04-11.77.02-1.91.03-2.23-.61-1.39-2.28,4.05-8.08,8.05-16.19,12.06-24.29.29-.58.56-1.22,1.32-1.23s1.03.63,1.32,1.21m91.66,26.56c-3.91-.07-7.83-.02-11.75-.02s-7.99-.03-11.99.01c-1.65.02-2.22-.39-1.38-2.08,4.04-8.07,8.02-16.18,12.03-24.26.28-.56.48-1.28,1.23-1.34.93-.08,1.14.73,1.46,1.36,3.98,8.01,7.93,16.05,11.95,24.04.98,1.95.27,2.33-1.57,2.3" fill="#fff"/>
      <path id="_패스_998" data-name="패스 998" d="m109.38,13.43c0,4.69-2.07,8.49-4.63,8.49s-4.63-3.8-4.63-8.49,2.07-8.49,4.63-8.49,4.63,3.8,4.63,8.49" fill="#fff"/>
      <rect id="_사각형_391" data-name="사각형 391" width="210" height="199" fill="none"/>
    </g>
  </g>
</svg>