<?xml version="1.0" encoding="UTF-8"?>
<svg id="Layer_2" data-name="Layer 2" xmlns="http://www.w3.org/2000/svg" viewBox="0 0 136 130">
  <g id="Logo">
    <g id="symbol_03_14_0002_01" data-name="symbol 03 14 0002 01">
      <path id="_합치기_2" data-name="합치기 2" d="m10.67,121.45c-7.9-7.94-.63-28.74,16.49-51.72,1.44.85,2.86,1.64,4.25,2.37-13.22,16.97-19.75,31.08-15.36,35.49,5.77,5.8,28.35-7.13,52.24-29.37,2.24,5.61,6.92,9.89,12.71,11.61-23.22,21.56-47,34.85-61.05,34.85-3.93,0-7.11-1.04-9.29-3.24Zm60.41-45.67c-2.69-8.59,2.1-17.73,10.69-20.41,8.59-2.69,17.73,2.1,20.41,10.69,2.69,8.59-2.1,17.73-10.69,20.41-1.57.49-3.21.74-4.86.74-7.13,0-13.43-4.63-15.56-11.43h0Zm21.77-23.63c15.1-18.52,22.85-34.3,18.16-39.01-6.28-6.31-32.52,9.59-58.66,35.54-.07.07-.15.14-.22.22-.69.68-1.37,1.37-2.04,2.05-4.01,4.07-7.76,8.13-11.22,12.11-1.41-.77-2.87-1.62-4.39-2.56,3.83-4.56,8.02-9.15,12.52-13.7.46-.46.91-.92,1.37-1.38.32-.32.63-.62.95-.93C80.51,13.79,114.06-2.48,124.6,8.12c8.35,8.4-.24,31.16-19.52,55.69-2.13-5.52-6.62-9.8-12.24-11.66h0Z" fill="#fff"/>
      <rect id="_사각형_142" data-name="사각형 142" width="136" height="130" fill="none"/>
    </g>
  </g>
</svg>