<?xml version="1.0" encoding="UTF-8"?>
<svg id="_레이어_2" data-name="레이어 2" xmlns="http://www.w3.org/2000/svg" viewBox="0 0 250 231">
  <g id="Logo">
    <g id="symbol_17_06_0001_01" data-name="symbol 17 06 0001 01">
      <rect id="_사각형_145" data-name="사각형 145" width="250" height="231" fill="none"/>
      <path id="_패스_408" data-name="패스 408" d="M142.98,103.78c1.67,.59,3.38,1.06,5.12,1.43,4.69-.31,9.28-3.08,11.14-6.96,1.02-1.74,.46-3.97-1.26-5.02-1.78-1-4.03-.44-5.13,1.28-2.38,3.19-3.35,3.57-7.2,2.58-1.85-.67-3.89,.29-4.56,2.14-.79,1.65-.1,3.63,1.55,4.43,.11,.05,.21,.1,.32,.13Z" fill="#fff"/>
      <path id="_패스_409" data-name="패스 409" d="M246.33,57.11c-1.92-6.19-10.72-34.59-38.36-48.1-5.54-2.71-21.47-10.41-41.48-6.22-29.09,6.1-42.22,32.11-43.94,35.66-1.34-3.11-13.09-29.18-41.14-35.66-20.16-4.66-36.53,3.66-41.48,6.22-18.31,9.48-26.43,25.4-29.62,31.66-22.2,43.55,3.3,95.76,7.47,104.3,29.5,60.39,92.13,80.03,106.08,84.05,19.86-6.6,75.52-28.09,106.25-84.05,9.13-16.64,27.77-50.58,16.22-87.86Zm-49.67,84.23c2.44,4.72,1.2,10.23-3.01,13.89-.76,.58-1.71,.86-2.66,.76-6.52-1.2-13.02-2.48-19.48-3.92-1.05-.35-1.89-1.13-2.32-2.14-2.91-8.26,4.13-16.44,15.47-16.42,5.14,.19,9.75,3.2,12,7.83ZM72.34,61.19c8.31-7.27,18.47-12.08,29.36-13.89,27.43-4.78,55.62,9.99,65.1,35.74,.68,1.86,1.39,3.91,3.14,4.92,1.93,1.11,4.48,.56,6.51,1.49,6.48,3,.41,15.58,6.95,18.45-1.32,2.01-4.18,2.43-6.64,2.21s-4.97-.87-7.34-.21-4.37,3.37-3.11,5.42c.98,1.59,3.22,1.84,5.13,1.86,4.77,.05,9.54-.21,14.27-.78-.63,3.79-1.27,7.58-1.9,11.38-6.36-.95-12.81,1.04-17.53,5.4-4.56,4.35-6.78,10.62-5.96,16.87l-33.34-7.68c2.1-2.06,4.34-4.43,4.36-7.33s-3.81-5.59-6-3.63c-.6,.66-1.08,1.42-1.42,2.24-3.45,6.43-14.48,6.95-18.55,.87s.9-15.64,8.35-16.08c1.56-.09,3.31,.09,4.52-.87,1.47-1.18,1.25-3.61-.06-4.95-1.45-1.26-3.34-1.9-5.26-1.78-5.88,.15-11.27,3.35-14.21,8.45-2.75,5.03-3.3,10.97-1.52,16.43-.54-.25-1.14-.49-1.79-.72s-1.27-.42-1.85-.57l-.08-.02c-.11-.02-.22-.05-.33-.07l-20.61-4.21-8.73-2c-1.57-.23-3.06-.83-4.36-1.74-1.11-1.06-1.92-2.4-2.36-3.87-7.92-20.93-1.64-46.2,15.26-61.33Zm64.48,150.12c-2.92,1.13-5.98,1.83-9.1,2.08-4.05,.17-8.04-.96-11.88-2.23-9.04-3-17.77-6.84-26.09-11.47-33.02-18.37-59.04-48.66-70.86-83.81,15.04,11.13,32.59,18.4,51.1,21.16h0l22.85,5h0c36.27,9.3,72.82,17.47,109.66,24.5-19.8,17.72-40.33,35.89-65.68,44.79h0Z" fill="#fff"/>
    </g>
  </g>
</svg>