<?xml version="1.0" encoding="UTF-8"?>
<svg id="_레이어_2" data-name="레이어 2" xmlns="http://www.w3.org/2000/svg" viewBox="0 0 108 108">
  <g id="Logo">
    <g id="symbol_04_01_0006_02" data-name="symbol 04 01 0006 02">
      <rect id="_사각형_391" data-name="사각형 391" width="108" height="108" fill="none"/>
      <path id="_패스_1274" data-name="패스 1274" d="m105.67,74.1s0-1.21,0-6.9c.04-12.69.01-30.74,0-48.98.12-7.78-5.36-14.53-12.99-16.02-1.12-.22-2.26-.32-3.4-.31-23.51-.02-47.02-.02-70.53,0C9.86,1.71,2.51,8.79,2.35,17.68c0,.21,0,.42,0,.63,0,23.47,0,46.95,0,70.42-.19,8.9,6.87,16.28,15.77,16.47.24,0,.47,0,.71,0,23.47,0,46.95,0,70.42,0,8.91.17,16.26-6.92,16.43-15.82,0-.2,0-.4,0-.6,0-3.4.07-4.3,0-14.68m-13.53-64.85c2.86-.03,5.2,2.26,5.24,5.12.03,2.86-2.26,5.2-5.12,5.24-2.86.03-5.2-2.26-5.24-5.12,0,0,0-.02,0-.02-.03-2.85,2.27-5.19,5.12-5.21M15.79,97.83c-2.86-.02-5.17-2.35-5.15-5.21.02-2.86,2.35-5.17,5.21-5.15,2.86.02,5.17,2.35,5.15,5.21,0,0,0,.01,0,.02-.02,2.85-2.35,5.15-5.21,5.13m.02-78.23c-2.86,0-5.17-2.33-5.17-5.19s2.33-5.17,5.19-5.17c2.86,0,5.17,2.33,5.17,5.19,0,0,0,.01,0,.02-.02,2.85-2.34,5.15-5.19,5.15m65.54,25.91c-14.47,14.38-28.94,28.76-43.41,43.14-1.21,1.21-1.94,1.43-2.75.87-.84-.58-.88-1.21-.18-2.88,3.93-9.45,7.85-18.91,11.78-28.36.13-.32.25-.65.43-1.14-.51-.02-.92-.06-1.32-.06-5.97.01-11.93.02-17.9.04-.25,0-.5,0-.75,0-1.63-.08-2.32-1.21-1.55-2.63,2.87-5.29,5.75-10.58,8.65-15.85h0v-.02s.58-1.04.58-1.04c.07-.12.14-.24.22-.35.95-1.75,1.9-3.5,2.85-5.25.09-.2.21-.4.32-.59.23-.42.45-.83.68-1.24.03-.05.06-.11.09-.16l.96-1.76c1.74-3.17,3.47-6.34,5.18-9.53.43-.96,1.42-1.55,2.47-1.45,7.93.04,15.86.02,23.79.02.81,0,1.58.02,2.03.86s.02,1.5-.43,2.17c-4.55,6.83-9.1,13.67-13.64,20.51-.21.32-.4.65-.71,1.14,7.2,0,14.16,0,21.13,0,.97,0,2.08-.26,2.61.94.55,1.25-.41,1.9-1.13,2.62m10.81,52.32c-2.86,0-5.18-2.31-5.18-5.17,0-2.86,2.31-5.18,5.17-5.18s5.18,2.31,5.18,5.17c0,0,0,.02,0,.02,0,2.85-2.32,5.16-5.17,5.16" fill="#fff"/>
    </g>
  </g>
</svg>