<?xml version="1.0" encoding="UTF-8"?>
<svg id="Layer_2" data-name="Layer 2" xmlns="http://www.w3.org/2000/svg" viewBox="0 0 66 208">
  <g id="Logo">
    <g id="symbol_13_03_0003_02" data-name="symbol 13 03 0003 02">
      <path id="_패스_772" data-name="패스 772" d="m37.8,41.25c-1.09,0-1.98-.89-1.98-1.98,0-.11,0-.22.03-.33.2-.98,1.06-1.67,2.06-1.65h15.83v-10.21h-23.06c-.99.02-1.86-.67-2.06-1.65-.18-1.08.54-2.1,1.62-2.28.11-.02.22-.03.33-.03h23.16c0-7.25-5.88-13.13-13.13-13.13h0s-28.61,0-28.61,0v145.74l41.73,41.73v-71.21h-23.05c-.99.02-1.86-.67-2.06-1.65-.18-1.08.54-2.1,1.62-2.28.11-.02.22-.03.33-.03h23.16v-10.21h-15.83c-.99.02-1.86-.67-2.06-1.65-.18-1.08.54-2.1,1.62-2.29.11-.02.22-.03.33-.03h15.93v-10.21h-23.05c-.99.02-1.86-.67-2.06-1.65-.18-1.08.54-2.1,1.62-2.28.11-.02.22-.03.33-.03h23.16v-10.21h-15.83c-1,.02-1.86-.67-2.06-1.65-.18-1.08.54-2.1,1.62-2.28.11-.02.22-.03.33-.03h15.93v-10.21h-15.83c-.99.02-1.86-.67-2.06-1.65-.18-1.08.54-2.1,1.62-2.28.11-.02.22-.03.33-.03h15.93v-10.21h-23.05c-.99.02-1.86-.67-2.06-1.65-.18-1.08.54-2.1,1.62-2.28.11-.02.22-.03.33-.03h23.16v-10.21h-15.93Z" fill="#fff"/>
      <rect id="_사각형_281" data-name="사각형 281" width="66" height="208" fill="none"/>
    </g>
  </g>
</svg>