<?xml version="1.0" encoding="UTF-8"?>
<svg id="_레이어_2" data-name="레이어 2" xmlns="http://www.w3.org/2000/svg" viewBox="0 0 318 213">
  <g id="Logo">
    <g id="symbol_06_01_0006_01" data-name="symbol 06 01 0006 01">
      <rect id="_사각형_319" data-name="사각형 319" width="318" height="213" fill="none"/>
      <path id="_패스_1168" data-name="패스 1168" d="M6.18,203.01c-.42-3.68,3.53-4.95,6.53-6.52,31.17-16.3,62.37-32.57,93.61-48.8,15.84-8.25,31.76-16.42,47.46-24.82,3.41-1.82,5.65-2,9.22-.12,35.99,18.93,72.06,37.77,108.22,56.52,11.52,6.01,23.04,12.01,34.55,18.02,1.96,1.02,4.08,1.94,4.11,3.93,.03,1.71,.56,4.05-.68,4.99-2.05,1.57-4.11-.53-5.88-1.45-32.38-16.91-64.74-33.85-97.09-50.8-13.67-7.14-27.55-14.07-41.04-21.38-5.28-2.86-9.93-2.21-14.5,.2-9.78,5.15-19.21,10.66-29,15.8-35.66,18.75-71.36,37.44-107.11,56.09-2.13,1.12-4.36,2.67-7.04,1.86-.94-.29-.94-2.3-1.37-3.52Z" fill="#fff"/>
      <path id="_패스_1169" data-name="패스 1169" d="M309.67,175.75c-.06,.18,1.23,1.91-1.02,2.41-2.21,.49-3.7-1.04-5.33-1.89-32.16-16.79-64.32-33.59-96.46-50.4-13.92-7.27-28-14.39-41.65-21.92-5.32-2.94-9.17-3.06-14.71-.14-44.53,23.43-89.21,46.7-134.04,69.81-2.68,1.39-6.07,5.55-9.17,2.61-3.08-2.92-.05-6.29,4.46-8.61,30.6-15.79,61.11-31.66,91.54-47.62,16.33-8.51,32.75-16.92,48.92-25.6,4.06-2.18,6.98-2.04,10.93,.03,47.46,24.88,94.97,49.7,142.55,74.46,2.82,1.47,4.96,3.08,3.99,6.87Z" fill="#fff"/>
      <path id="_패스_1170" data-name="패스 1170" d="M308.59,163.96c-18.73-9.75-36.65-19.14-54.67-28.43-27.68-14.27-54.55-29.41-83.1-42.77-4.75-2.22-7.91-7.35-14.2-6.43-5.24,.77-9.08,4.57-13.62,6.94-43.2,22.53-86.52,44.94-129.95,67.24-2.03,1.05-4.97,4.09-7.23,1.4-1.98-2.35-1.86-5.34,2.76-7.72,47.23-24.36,94.31-48.89,141.24-73.57,6.12-3.23,10.22-2.99,16.2,.18,44.22,23.38,88.73,46.44,133.06,69.7,5.66,2.96,14.01,5.03,9.51,13.47Z" fill="#fff"/>
      <path id="_패스_1171" data-name="패스 1171" d="M309.63,192.44c-4.57,.29-6.69-2.19-9.43-3.62-44.41-23.14-88.75-46.35-133.02-69.64-6.65-3.52-11.26-3.99-18.34-.24-43.91,23.27-88.18,46.16-132.47,69.04-2.65,1.37-6.16,5.44-9.18,2.4-3.08-3.1,.44-6.14,4.87-8.43,46.89-24.31,93.67-48.72,140.36-73.23,4.03-2.12,6.89-2.03,10.87,.08,28.16,14.92,56.42,29.74,84.77,44.46,19.09,9.95,38.11,19.99,57.52,29.59,5.64,2.79,4.19,6,4.05,9.59Z" fill="#fff"/>
      <path id="_패스_1172" data-name="패스 1172" d="M309.96,145.26c-.25,1.17,.79,2.85-1.37,3.38-2.23,.54-3.78-.96-5.39-1.79-21.15-11-42.27-22.02-63.36-33.08-25.62-13.38-51.34-26.65-76.78-40.21-4.26-2.27-7.01-1.87-10.83,.13C105.99,97.95,59.71,122.17,13.39,146.35c-2.05,1.07-4.71,3.33-6.37,.99-1.64-2.31-1.57-5.53,2.32-7.58,10.05-5.3,19.99-10.7,30.07-15.97,21.58-11.3,42.73-23.1,64.99-33.61,16.31-7.7,31.01-16.94,47.15-24.75,4.84-2.34,8.13-2.3,12.53,.05,17.28,9.24,34.69,18.34,52.1,27.45,28.98,15.17,57.97,30.32,86.98,45.47,3.24,1.7,7.62,2.9,6.81,6.89Z" fill="#fff"/>
      <path id="_패스_1173" data-name="패스 1173" d="M7.71,90.41c-2.49-4.93-1.08-7.86,4.06-10.53C58.26,55.74,104.66,31.49,150.96,7.13c5.06-2.66,8.81-2.99,13.97-.12,13.58,7.54,27.57,14.68,41.41,21.96,2.16,1.14,4.62,2.14,4.56,4.43-.04,1.48,.18,3.47-.95,4.31-1.8,1.32-3.66-.42-5.23-1.24-12.95-6.72-26.08-13.26-38.69-20.32-5.45-3.05-9.18-3.5-15.16-.33C107.3,38.91,63.4,61.66,19.6,84.5c-3.76,1.96-7.64,3.8-11.88,5.91Z" fill="#fff"/>
      <path id="_패스_1174" data-name="패스 1174" d="M6.66,101.78c-.37-3.92,1.8-5.33,4.27-6.62C58.21,70.48,105.47,45.79,152.72,21.08c3.39-1.77,5.9-1.77,9.33,.09,14.42,7.81,29.07,15.4,43.61,23.08,1.46,.63,2.83,1.46,4.08,2.44,1.95,1.87,2.23,4.45,.63,6.15-2.33,2.47-4.65-.2-6.42-1.1-13.01-6.65-26.06-13.28-38.67-20.33-5.43-3.04-9.46-3.65-15.43-.49-39.54,20.94-79.34,41.61-119.05,62.37-6.2,3.24-12.39,6.48-18.58,9.73-1.43,.75-3.21,1.92-4.65,1.01-.66-.55-1-1.4-.91-2.26Z" fill="#fff"/>
      <path id="_패스_1175" data-name="패스 1175" d="M7.4,134.03c-3.8-6.5,2.59-9.03,8.07-11.89,34.96-18.22,69.92-36.43,104.89-54.64,10.29-5.36,20.67-10.65,30.8-16.17,4.05-2.21,7.21-2.65,11.61-.24,14.12,7.73,28.56,15.15,42.93,22.62,2.05,.94,3.75,2.51,4.85,4.48,.64,1.25,.86,2.68-.42,3.71-1.74,1.4-3.08-.12-4.48-.68-14.48-5.77-27.46-13.26-40.61-20.45-6.27-3.43-10.07-2.86-15.89,.21-43.87,23.15-87.88,46.14-132.05,68.97-3.01,1.56-5.61,3.84-9.69,4.08Z" fill="#fff"/>
      <path id="_패스_1176" data-name="패스 1176" d="M6.55,114.85c-.14-2.49,1.7-3.7,4-4.9,47.3-24.77,94.57-49.57,141.8-74.42,3.33-1.75,6.02-1.93,9.46-.08,15.17,8.15,30.43,16.21,45.79,24.17,2.44,1.27,3.58,2.78,3.46,4.89-.07,1.24,.52,2.89-1.51,3.36-1.07,.25-2.77-.4-3.89-.96-13.52-6.8-27.6-13.09-40.2-20.72-6.55-3.97-10.4-3.54-16.48-.33C104.1,69.5,59.11,93.04,14.02,116.47c-1.83,.96-3.45,2.86-6.01,2.17-2.42-.65-1.16-2.64-1.46-3.8Z" fill="#fff"/>
      <path id="_패스_1177" data-name="패스 1177" d="M269.65,69.57l.08,36.95c.16,1.1-.23,2.2-1.03,2.96-1.09,.69-2.44,.87-3.68,.47-1.13-.35-2.11-1.04-2.82-1.99-1.59-2.08-1.64-4.6-1.65-6.99-.07-21.9-.13-43.79-.2-65.69,0-2.26-.33-5.48,1.35-7.5,1.43-1.72,4.81-1.47,6.36,.05,1.43,1.4,1.49,3.3,1.5,5.06l.08,36.68Z" fill="#fff"/>
      <path id="_패스_1178" data-name="패스 1178" d="M255.85,64.36c0,11.28,.07,22.56-.07,33.84-.02,1.68,1.39,4.49-2.45,4.6-2.67,.04-5.1-1.54-6.14-4-.45-1.43-.62-2.93-.51-4.43-.02-20.65-.03-41.29-.01-61.94,0-.85,.02-1.7,0-2.55-.04-2.67,2.39-3.95,5.44-4.12,3.97-.21,3.56,2.34,3.57,4.12,.1,11.49,.05,22.99,.05,34.48h.11Z" fill="#fff"/>
      <path id="_패스_1179" data-name="패스 1179" d="M228.82,58.36c.01,9.38,.01,18.75,0,28.13,.05,.65-.06,1.31-.34,1.9-.41,.69-1.15,1.1-1.95,1.1-.68-.06-1.34-.29-1.9-.68-1.75-.86-3.3-2.07-4.56-3.55-1.17-1.66-1.2-3.62-1.2-5.5l-.11-49.8c0-.97-.34-2.88,.47-3.71s3.62-1.19,4.89-1.19c1.72,0,3.53,.64,4.23,1.8,.33,.66,.47,1.4,.41,2.14,.03,9.79,.05,19.58,.06,29.36Z" fill="#fff"/>
      <path id="_패스_1180" data-name="패스 1180" d="M241.2,95.99c-2.6-.7-5.32-1.51-6.96-3.16-1.83-1.85-1.9-4.31-1.9-6.61l.04-54.27c0-1.42-.67-3.94,.09-5.24,.63-1.08,3.09-1.57,4.53-1.64,1.49-.07,3.13,.43,3.7,1.45,.21,.46,.31,.96,.29,1.47,.61,22.66,1.22,45.34,.22,68Z" fill="#fff"/>
      <path id="_패스_1181" data-name="패스 1181" d="M310.08,86.11c-.03,.63-.1,1.26-.21,1.88-.04,.6-.3,1.16-.73,1.57-1.24,1.03-3.51,.27-5.02-.53l-21.68-11.44c-2.03-1.07-4.13-2.2-5.36-3.81-1.21-1.57-1.27-6.62,2.59-6.33,.84,.11,1.65,.38,2.39,.79l21.88,10.62c2,.97,4.09,2.01,5.2,3.59,.71,1.08,1.04,2.36,.94,3.65Z" fill="#fff"/>
      <path id="_패스_1182" data-name="패스 1182" d="M309.1,105.93l-26.88-13.6c-1.9-.96-3.86-1.97-5.04-3.44-1.54-1.92-.87-6.45,3.3-5.99,1.15,.19,2.25,.59,3.25,1.19l20.38,10.63c2.1,1.1,4.29,2.27,5.34,4.01,1.36,2.24,.51,4.83-.35,7.2Z" fill="#fff"/>
      <path id="_패스_1183" data-name="패스 1183" d="M279.68,112.54c.95-.17,1.94-.02,2.79,.44,8.19,4.21,16.23,8.58,24.1,13.11,1.21,.57,2.27,1.41,3.1,2.45,1.11,1.75,.21,3.8-.7,5.61-15.51-8.24-26.26-13.81-29.32-15.02-.68-.25-1.29-.68-1.76-1.23-1.1-1.66-.64-3.9,1.02-4.99,.24-.16,.49-.28,.76-.38Z" fill="#fff"/>
      <path id="_패스_1184" data-name="패스 1184" d="M278.43,100.57c-.08-1.13,.55-2.18,1.58-2.64,.73-.09,1.48,0,2.17,.27h0s7.33,4.12,15.48,7.96c4.58,2.16,9.33,4.05,11.67,7.43,.79,.93,1.09,2.17,.82,3.35-.59,1.32-1.97,2.09-3.4,1.9-.63-.11-1.24-.33-1.81-.64-7.18-3.5-14.22-7.17-21.09-11-1.88-1.05-3.82-2.17-4.83-3.75-.47-.89-.68-1.89-.6-2.89Z" fill="#fff"/>
    </g>
  </g>
</svg>