<?xml version="1.0" encoding="UTF-8"?>
<svg id="Layer_2" data-name="Layer 2" xmlns="http://www.w3.org/2000/svg" viewBox="0 0 320 192">
  <g id="Logo">
    <g id="symbol_18_02_0002_01" data-name="symbol 18 02 0002 01">
      <path id="_합치기_21" data-name="합치기 21" d="m187.87,181.74H20v-2.88h19.4v-20.3c-7.84-1.48-13.79-14.95-13.79-31.88,0-17.96,6.69-32.03,15.23-32.03s15.24,14.07,15.24,32.03c0,16.94-5.95,30.4-13.79,31.88v20.3h90.25v-42.46c0-15.28,12.39-27.67,27.67-27.67s27.67,12.39,27.67,27.67v42.46h90.25v-20.3c-7.84-1.48-13.79-14.95-13.79-31.88,0-17.96,6.69-32.03,15.24-32.03s15.23,14.07,15.23,32.03c0,16.94-5.95,30.4-13.79,31.88v20.3h19.39v2.88h-112.53Zm-52.47-45.34v42.46h49.59v-42.46c0-13.69-11.1-24.79-24.79-24.79s-24.79,11.1-24.79,24.79h0Zm131.8-9.73c0,15.8,5.66,29.15,12.36,29.15s12.35-13.35,12.35-29.15-5.66-29.15-12.35-29.15-12.35,13.35-12.35,29.16h0Zm-238.73,0c0,15.8,5.66,29.15,12.35,29.15s12.36-13.35,12.36-29.15-5.66-29.15-12.36-29.15-12.35,13.35-12.35,29.16h0Zm192.02,47.62v-2.88h37.91v2.88h-37.91Zm-158.51,0v-2.88h37.91v2.88h-37.91Zm187.87-6.56v-87.97h2.88v87.97h-2.88Zm-11.84,0v-87.97h2.88v87.97h-2.88Zm-11.83,0v-87.97h2.88v87.97h-2.88Zm-134.84,0v-87.97h2.88v87.97h-2.88Zm-11.83,0v-87.97h2.88v87.97h-2.88Zm-11.84,0v-87.97h2.88v87.97h-2.88Zm152.84-91.65v-2.88h37.91v2.88h-37.91Zm-158.51,0v-2.88h37.91v2.88h-37.91Zm158.2-7.73l-59.99-44.12-59.99,44.12h-38.22v-2.88h37.28l60.94-44.81,60.94,44.81h37.28v2.88h-38.22Zm-68.86-16.24c0-4.9,3.98-8.88,8.88-8.87s8.87,3.98,8.87,8.88c0,4.9-3.97,8.87-8.87,8.87-4.9,0-8.87-3.98-8.88-8.88h0Zm2.88,0c0,3.31,2.69,6,6,6s6-2.69,6-6-2.69-6-6-6c-3.31,0-6,2.68-6,6h0s0,0,0,0Zm65.82,5.73l-59.82-44.27-59.83,44.28h-52.3v-2.88h51.35l60.78-44.98,60.78,44.98h51.35v2.88h-52.3Z" fill="#fff"/>
      <rect id="_사각형_246" data-name="사각형 246" width="320" height="192" fill="none"/>
    </g>
  </g>
</svg>