<?xml version="1.0" encoding="UTF-8"?>
<svg id="Layer_2" data-name="Layer 2" xmlns="http://www.w3.org/2000/svg" viewBox="0 0 276 129">
  <g id="Logo">
    <g id="symbol_16_05_0001_02" data-name="symbol 16 05 0001 02">
      <path id="_합치기_8" data-name="합치기 8" d="m202.28,102.29c0-11.44,9.27-20.71,20.71-20.71s20.71,9.27,20.71,20.71c0,11.44-9.27,20.71-20.71,20.71-11.44,0-20.71-9.27-20.71-20.71Zm-170.79,0c0-11.44,9.27-20.71,20.71-20.71,11.44,0,20.71,9.27,20.71,20.71,0,11.44-9.27,20.71-20.71,20.71-11.44,0-20.71-9.27-20.71-20.71Zm128.84,3.1v-11.3h11.09v11.3h-11.09Zm-57.89,0v-11.3h11.09v11.3h-11.09Zm138.89-23.8c0-5.72,4.63-10.35,10.35-10.35,5.72,0,10.35,4.63,10.35,10.35,0,5.72-4.63,10.35-10.35,10.36h0c-5.72,0-10.35-4.63-10.35-10.35Zm-228.21,0c0-5.72,4.63-10.35,10.35-10.36,5.72,0,10.35,4.63,10.36,10.35,0,5.72-4.63,10.35-10.35,10.36h0c-5.72,0-10.35-4.63-10.35-10.35Zm185.47,2.23c-10.72-8.57-25.95-8.58-36.69-.02-1.91,1.51-4.61,1.51-6.52,0-10.73-8.55-25.94-8.55-36.67,0-1.92,1.51-4.63,1.5-6.55-.02-10.7-8.51-25.85-8.53-36.56-.04-1.92,1.55-4.65,1.57-6.59.06-5.2-4.16-11.67-6.42-18.33-6.42-.4,0-.8,0-1.2.02-2.9.09-5.33-2.18-5.43-5.09-.01-.43.03-.86.12-1.28,5.25-23.83,19.43-44.74,39.62-58.44,2.75,3.81,9.34,8.22,24.73,10.55,9.45,1.31,18.99,1.93,28.53,1.86,9.54.07,19.08-.55,28.53-1.86,15.7-2.37,22.24-6.92,24.9-10.78,20.38,13.7,34.69,34.72,39.97,58.7.58,2.88-1.29,5.68-4.17,6.26-.47.09-.94.12-1.42.09-.47-.02-.96-.04-1.44-.04-6.66,0-13.13,2.25-18.33,6.42-.93.74-2.08,1.15-3.27,1.16-1.17,0-2.31-.4-3.23-1.14Zm-75.89-26.44c0,5.57,6.53,10.09,14.59,10.09s14.6-4.52,14.6-10.09-6.54-10.09-14.6-10.09-14.59,4.52-14.59,10.09Zm43.96-.56c0,3.41,2.76,6.16,6.17,6.16,2.71,0,5.1-1.77,5.89-4.37.17-.58.26-1.19.26-1.79.04-3.4-2.68-6.2-6.09-6.24-3.4-.04-6.2,2.68-6.24,6.09,0,.05,0,.1,0,.16Zm-71.07,0c0,3.4,2.76,6.17,6.17,6.17,3.4,0,6.17-2.76,6.17-6.17s-2.76-6.17-6.17-6.17c-3.4,0-6.16,2.74-6.16,6.13,0,.01,0,.02,0,.03Zm139.33,0c0-3.53,2.87-6.4,6.4-6.4s6.4,2.87,6.4,6.4-2.87,6.4-6.4,6.4h0c-3.53,0-6.4-2.87-6.4-6.4h0s0,0,0,0Zm-207.5,0c0-3.53,2.87-6.4,6.4-6.4s6.4,2.87,6.4,6.4c0,3.53-2.87,6.4-6.4,6.4s-6.4-2.87-6.4-6.4c0,0,0,0,0,0h0Z" fill="#fff"/>
      <rect id="_사각형_168" data-name="사각형 168" width="276" height="129" fill="none"/>
    </g>
  </g>
</svg>