<?xml version="1.0" encoding="UTF-8"?>
<svg id="Layer_2" data-name="Layer 2" xmlns="http://www.w3.org/2000/svg" viewBox="0 0 274 274">
  <g id="Logo">
    <g id="symbol_07_01_0007_01" data-name="symbol 07 01 0007 01">
      <path id="_패스_1487" data-name="패스 1487" d="m80.59,137.42c-.3-31,24.98-57.8,56.03-59.4,33.87-2.21,62.94,25.41,62.8,59.4.18,34-28.91,61.66-62.8,59.43-31.06-1.61-56.33-28.43-56.03-59.43m0,0c-.13,30.29,25.85,54.84,56.03,52.63,27.32-1.6,49.53-25.35,49.27-52.63.3-27.28-21.92-51.08-49.27-52.67-30.19-2.19-56.16,22.37-56.03,52.67" fill="#fff"/>
      <path id="_패스_1488" data-name="패스 1488" d="m15.64,137.42c-.52-66.52,54.39-122.93,120.98-124.34,69.42-2.39,128.11,54.82,127.74,124.34.4,69.54-58.3,126.78-127.74,124.38-66.59-1.42-121.51-57.85-120.98-124.38m0,0c-.34,65.83,55.24,119.96,120.98,117.58,62.89-1.45,114.68-54.74,114.22-117.58.5-62.84-51.3-116.18-114.22-117.62C70.88,17.44,15.29,71.58,15.64,137.42" fill="#fff"/>
      <rect id="_사각형_521" data-name="사각형 521" width="274" height="274" fill="none"/>
    </g>
  </g>
</svg>