<?xml version="1.0" encoding="UTF-8"?>
<svg id="Layer_2" data-name="Layer 2" xmlns="http://www.w3.org/2000/svg" viewBox="0 0 154 154">
  <g id="Logo">
    <g id="symbol_21_02_0004_01" data-name="symbol 21 02 0004 01">
      <path id="_패스_857" data-name="패스 857" d="m48.82,71.93c-1.32-.14-2.65-.21-3.98-.21-20.9,0-37.84,16.94-37.84,37.83,0,20.9,16.94,37.84,37.83,37.84,17.7,0,33.04-12.27,36.92-29.54l-32.93-16.75v-29.17Z" fill="#fff"/>
      <path id="_패스_858" data-name="패스 858" d="m114.54,7c-17.55,0-32.79,12.07-36.82,29.14l26.87,13.67v31.53c20.16,5.5,40.96-6.39,46.46-26.55,5.5-20.16-6.39-40.96-26.55-46.46-3.24-.88-6.59-1.33-9.95-1.33" fill="#fff"/>
      <rect id="_사각형_303" data-name="사각형 303" width="154" height="154" fill="none"/>
    </g>
  </g>
</svg>