<?xml version="1.0" encoding="UTF-8"?>
<svg id="_레이어_2" data-name="레이어 2" xmlns="http://www.w3.org/2000/svg" viewBox="0 0 252 254">
  <g id="Logo">
    <g id="symbol_20_01_0007_01" data-name="symbol 20 01 0007 01">
      <path id="_패스_1487" data-name="패스 1487" d="m8.03,97.32c.31-17.22,7.35-31.02,21.42-40.99,22.17-15.72,44.5-31.21,66.69-46.91,2.77-1.96,4.36-1.98,6.21,1.09,5.12,8.45,10.46,16.76,15.77,25.1,1.29,1.93,1.78,4.29,1.37,6.57-7.28,46.94-14.45,93.9-21.8,140.83-.62,3.98.38,6.55,3.32,9.26,7.38,6.79,14.5,13.87,21.53,21.03,2.55,2.59,4.31,3.13,7.13.24,7.64-7.85,15.52-15.47,23.42-23.06,1.63-1.42,2.34-3.62,1.83-5.73-5.54-36.44-11.02-72.89-16.44-109.35-1.62-10.83-3.28-21.66-4.98-32.47-.57-3.05.08-6.21,1.81-8.78,5.07-7.75,9.99-15.6,14.78-23.53,1.58-2.61,2.89-3.54,5.76-1.5,23.32,16.5,47.02,32.48,70,49.44,20.3,14.98,24.79,44.93,10.37,66.15-23.07,33.97-46.37,67.78-69.9,101.44-18.57,26.45-59.36,27.3-78.82,1.52-12.46-16.5-23.75-33.87-35.51-50.89s-23.44-34.09-35.16-51.14c-5.83-8.28-8.91-18.18-8.8-28.3" fill="#fff"/>
      <path id="_패스_1488" data-name="패스 1488" d="m137.47,146.43s0-.64.01-1.5c0-.25,0-.6,0-.84l-11.08-13.05-11.65,13.42c.04,1.35.06,3.14-.02,5.24-.07,3.25-.41,6.49-1,9.69-1.28,5.74-2.96,11.38-4.55,17.35,10,4.83,13.28,14.21,15.5,24.3.18-8.34.2-16.6.13-24.85-.15-.7-.52-1.34-1.06-1.81-1.34-1.33-1.35-3.49-.02-4.83,0,0,.01-.01.02-.02,1.2-1.34,3.25-1.45,4.59-.25.08.07.15.14.22.22,1.29,1.37,1.3,3.51.01,4.88-.63.74-1.01,1.66-1.09,2.63-.1,4.93-.05,9.85-.05,14.78v9.26c2.37-10.14,5.7-19.54,16.04-24.5-.4-1.12-.74-2.1-1.09-3.07-3.24-8.66-4.9-17.82-4.92-27.06" fill="#fff"/>
      <rect id="_사각형_746" data-name="사각형 746" width="252" height="254" fill="none"/>
    </g>
  </g>
</svg>