<?xml version="1.0" encoding="UTF-8"?>
<svg id="Layer_2" data-name="Layer 2" xmlns="http://www.w3.org/2000/svg" viewBox="0 0 80 80">
  <g id="Logo">
    <g id="symbol_09_10_0001_01" data-name="symbol 09 10 0001 01">
      <path id="_패스_668" data-name="패스 668" d="m49.27,21.44c-9.39,4.9-26.28,13.71-32.39,30.28h56.27v-30.93h-22.63c-.41.22-.82.43-1.25.65" fill="#fff"/>
      <path id="_패스_669" data-name="패스 669" d="m15.56,74.08h57.59v-16.65H15.29c-1.01,5.51-.91,11.17.28,16.65" fill="#fff"/>
      <path id="_패스_670" data-name="패스 670" d="m53.94,18.93h19.21V3.93c-1.33,1.91-3.23,6.13-19.21,14.99" fill="#fff"/>
      <path id="_패스_671" data-name="패스 671" d="m20.12,54.76c.03-.86-.64-1.59-1.5-1.62s-1.59.64-1.62,1.5.64,1.59,1.5,1.62c.02,0,.04,0,.06,0,.84.02,1.54-.66,1.56-1.5" fill="#fff"/>
      <path id="_패스_672" data-name="패스 672" d="m26.66,54.76c.03-.86-.64-1.59-1.5-1.62-.86-.03-1.59.64-1.62,1.5s.64,1.59,1.5,1.62c.02,0,.04,0,.06,0,.84.02,1.54-.66,1.56-1.5" fill="#fff"/>
      <path id="_패스_673" data-name="패스 673" d="m33.19,54.76c.03-.86-.64-1.59-1.5-1.62-.86-.03-1.59.64-1.62,1.5s.64,1.59,1.5,1.62c.02,0,.04,0,.06,0,.84.02,1.54-.66,1.56-1.5" fill="#fff"/>
      <path id="_패스_674" data-name="패스 674" d="m39.72,54.76c.03-.86-.64-1.59-1.5-1.62-.86-.03-1.59.64-1.62,1.5s.64,1.59,1.5,1.62c.02,0,.04,0,.06,0,.84.02,1.54-.66,1.56-1.5" fill="#fff"/>
      <path id="_패스_675" data-name="패스 675" d="m46.25,54.76c.03-.86-.64-1.59-1.5-1.62-.86-.03-1.59.64-1.62,1.5s.64,1.59,1.5,1.62c.02,0,.04,0,.06,0,.84.02,1.54-.66,1.56-1.5" fill="#fff"/>
      <path id="_패스_676" data-name="패스 676" d="m52.78,54.76c.03-.86-.64-1.59-1.5-1.62-.86-.03-1.59.64-1.62,1.5-.03.86.64,1.59,1.5,1.62.02,0,.04,0,.06,0,.84.02,1.54-.66,1.56-1.5" fill="#fff"/>
      <path id="_패스_677" data-name="패스 677" d="m59.31,54.76c.03-.86-.64-1.59-1.5-1.62-.86-.03-1.59.64-1.62,1.5-.03.86.64,1.59,1.5,1.62.02,0,.04,0,.06,0,.84.02,1.54-.66,1.56-1.5" fill="#fff"/>
      <path id="_패스_678" data-name="패스 678" d="m65.84,54.76c.03-.86-.64-1.59-1.5-1.62-.86-.03-1.59.64-1.62,1.5-.03.86.64,1.59,1.5,1.62.02,0,.04,0,.06,0,.84.02,1.54-.66,1.56-1.5" fill="#fff"/>
      <path id="_패스_679" data-name="패스 679" d="m72.37,54.76c.03-.86-.64-1.59-1.5-1.62-.86-.03-1.59.64-1.62,1.5-.03.86.64,1.59,1.5,1.62.02,0,.04,0,.06,0,.84.01,1.54-.66,1.56-1.5" fill="#fff"/>
      <rect id="_사각형_2" data-name="사각형 2" width="80" height="80" fill="none"/>
    </g>
  </g>
</svg>