<?xml version="1.0" encoding="UTF-8"?>
<svg id="_레이어_2" data-name="레이어 2" xmlns="http://www.w3.org/2000/svg" viewBox="0 0 177 177">
  <g id="Tag">
    <g id="symbol_03_23_0001_01" data-name="symbol 03 23 0001 01">
      <rect id="_사각형_81" data-name="사각형 81" width="177" height="177" fill="none"/>
      <path id="_패스_587" data-name="패스 587" d="M146.79,101.72c.36-.26,.52-.39,.7-.51,5.34-3.71,7.67-9.76,6.03-15.67-1.62-5.97-6.91-10.22-13.09-10.51-3.91-.19-7.83-.15-11.76-.11h-15.49c-7.16,0-14.31,0-21.47-.01-4.49-.01-6.29-3.03-4.13-6.95,3.06-5.27,5.47-10.9,7.15-16.76,1.87-7.07,3.6-14.19,5-21.37,1.55-7.74-2.96-15.41-10.48-17.82-.95-.32-1.94-.54-2.91-.82h-4.17c-.13,.09-.26,.17-.41,.22-7.36,1.52-11.52,6.12-13.13,13.39-1.17,5.26-2.35,10.54-4.02,15.65-3.76,11.49-10.66,21.38-16.7,31.68-1.97,3.09-4.78,5.55-8.1,7.1-2.13-5.1-5.91-7.17-11.19-7.04-5.39,.13-10.79,.03-16.18,.03-6.92,0-11.03,4.13-11.03,11.09,0,16.22,0,32.43,0,48.65h0v16.6h.01c-.01,5.67-.03,11.35,.01,17.02-.07,3.45,1.74,6.68,4.72,8.42,1.17,.62,2.38,1.15,3.62,1.59H31.88c3.72-1.11,6.6-3.18,7.87-7.04,.21-.65,.37-1.31,.57-2.06,.49,0,.92,.02,1.34,0,7.07-.26,14.1,1.24,20.44,4.37,5.23,2.49,10.94,3.79,16.73,3.8,9.93,.05,19.86,.03,29.8,.02,5.93,0,11.86-.01,17.78-.08,3.24,.1,6.39-1.01,8.85-3.12,5.97-5.06,6.82-13.95,1.91-20.05-.21-.27-.37-.57-.61-.94,5.13-1.76,8.56-5.07,9.9-10.22,1.36-5.21-.1-9.79-3.77-13.82,5.1-2.18,8.35-5.81,9.24-11.19,.89-5.41-1.06-9.93-5.14-13.55ZM29.55,170.78c-5.77,.01-11.53,.01-17.3,0-3.99,0-6.02-2.03-6.03-6.01,0-5.4,0-10.8-.01-16.21h0v-13.43c.02-.37,0-.75,0-1.12v-2.05h0c0-16.35,0-32.7,0-49.04,0-3.76,2.11-5.87,5.85-5.87,5.82,0,11.64,0,17.46,0,3.76,0,5.89,2.1,5.89,5.84,0,27.34,0,54.69,0,82.04,0,3.75-2.11,5.85-5.87,5.86Zm117.45-55.42c-1.18,4.39-4.75,7.02-9.68,7.04-2.76,0-5.52,0-8.28,0-.92-2.46-3.27-4.1-5.89-4.1h-30.01c-3.48,0-6.29,2.82-6.29,6.3h0c0,3.48,2.81,6.3,6.29,6.3h30.02c2.45,0,4.68-1.43,5.71-3.66,.91,0,1.81,0,2.72,0,1.17-.02,2.34,.11,3.49,.38,5.03,1.27,8.08,6.38,6.81,11.41-1.05,4.15-4.76,7.06-9.04,7.09-1.21,.01-2.43,.02-3.64,.02-.78-2.69-3.24-4.54-6.04-4.55h-30.01c-3.48,0-6.29,2.82-6.29,6.29h0c0,3.48,2.81,6.3,6.29,6.31h30.02c2.12,0,4.09-1.07,5.26-2.84,3.77,.83,6.6,3.95,7.05,7.78,.69,4.4-1.85,8.67-6.05,10.15-1.54,.42-3.14,.61-4.74,.56-14.95,.05-29.9,.05-44.86,.06-5.68,.03-11.29-1.23-16.41-3.7-6.55-3.2-13.79-4.75-21.07-4.52-.67,.02-1.34,0-1.97,0-.05-.25-.09-.49-.11-.74,0-25.15-.02-50.3-.04-75.45-.04-.75,.44-1.43,1.17-1.64,5.12-2.51,9.37-6.51,12.19-11.47,2.48-4.25,4.9-8.52,7.39-12.76,4.98-8.25,8.66-17.21,10.9-26.58,.62-3.36,1.42-6.68,2.38-9.96,1.86-5.3,7.53-8.23,12.93-6.69,5.42,1.42,8.85,6.75,7.9,12.27-1,5.35-2.19,10.68-3.43,15.98-1.73,7.34-4.5,14.4-8.24,20.96-1.35,2.09-1.83,4.62-1.34,7.06,1.04,4.46,4.51,7.05,9.58,7.07,7.24,.03,14.47,.01,21.71,0h0s16.6,.01,16.6,.01h0c3.64,.02,7.31-.15,10.93,.19,5.12,.55,8.83,5.14,8.29,10.26-.12,1.09-.42,2.15-.91,3.13-1.86,3.74-5.04,5.32-9.14,5.31-3.42,0-6.84,0-10.26,0-1.03-2.22-3.26-3.63-5.7-3.63h-30.01c-3.48,.13-6.19,3.06-6.06,6.53,.12,3.29,2.76,5.93,6.06,6.06h30.01c2.64,0,5-1.65,5.9-4.14h7.16c1.07-.01,2.13,.06,3.19,.21,5.13,.83,8.62,5.66,7.79,10.79-.05,.3-.11,.6-.19,.9h0Z" fill="#fff"/>
      <path d="M176.15,54.15c-.02-.11-.05-.22-.08-.33V28.43c0-.86-.65-1.58-1.51-1.67l-22.75-2.26c-.05,0-.11,0-.16,0-.93,0-1.68,.75-1.68,1.67v21.25c-1.65-.86-3.77-1.2-6.01-.83-4.6,.77-7.73,4.19-7.13,7.8,.38,1.89,1.64,3.48,3.39,4.28,1.28,.62,2.7,.94,4.12,.92,.59,0,1.19-.05,1.77-.14,2.01-.31,3.87-1.24,5.32-2.66,.92-.87,1.52-2,1.75-3.21,.09-.21,.14-.45,.14-.7v-13.75l19.4,2.36v8.34c-1.63-.8-3.68-1.11-5.85-.75-4.6,.77-7.73,4.19-7.13,7.8,.38,1.89,1.64,3.48,3.39,4.28,1.28,.62,2.69,.94,4.12,.92,.59,0,1.19-.05,1.77-.14,2.01-.31,3.87-1.23,5.32-2.66,1.4-1.33,2.07-3.24,1.81-5.15Zm-27.1,.31c-1.99,1.82-4.86,2.3-7.33,1.23-.79-.33-1.37-1.01-1.58-1.84-.28-1.7,1.72-3.51,4.38-3.95,.4-.07,.81-.1,1.22-.1,2.16,0,3.97,.98,4.22,2.41,.07,.85-.27,1.68-.9,2.25Zm4.28-18.69v-7.75l19.4,1.92v8.19l-19.4-2.36Zm11.3,22.41c-.79-.33-1.37-1.01-1.59-1.84-.28-1.7,1.72-3.51,4.38-3.95,.4-.07,.81-.1,1.22-.1,1.99,0,3.67,.83,4.11,2.08,.02,.13,.05,.26,.1,.38,.05,.83-.28,1.65-.9,2.21-1.99,1.82-4.86,2.3-7.33,1.23Z" fill="#fff"/>
      <path d="M135.88,8.98c-1.2-2.55-3.19-4.64-5.67-5.96-2.69-1.35-5.78-1.72-8.71-1.02-.02,0-.04,0-.05,.01-.89,.24-1.42,1.16-1.18,2.05l4.73,17.7c-1.55-.26-3.31-.04-5.03,.75-1.67,.73-3.06,1.96-3.99,3.53-.41,.63-.68,1.35-.79,2.1-.39,2.82,1.57,5.42,4.39,5.81,.5,.1,1.02,.15,1.53,.15,1.3,0,2.57-.3,3.75-.84,1.67-.73,3.06-1.96,3.99-3.53,.72-1.18,.95-2.57,.69-3.9,0-.03,0-.06-.01-.09l-.03-.12c-.03-.11-.05-.22-.09-.33l-5.42-20.28c1.63-.09,3.25,.24,4.7,.98,1.86,1,3.33,2.58,4.22,4.5,.77,1.55,1.18,3.25,1.19,4.98,0,.92,.75,1.67,1.67,1.67h0c.92,0,1.67-.76,1.67-1.68,0-2.25-.54-4.46-1.54-6.47Zm-9.95,19.1c-1.22,1.9-3.44,2.91-5.68,2.58-.4-.02-.78-.16-1.08-.41-.79-.64-.91-1.79-.28-2.58,.58-.95,1.44-1.69,2.46-2.13,.74-.34,1.54-.53,2.35-.54,.97-.11,1.93,.33,2.47,1.15l.02,.06c.2,.63,.11,1.31-.25,1.86Z" fill="#fff"/>
    </g>
  </g>
</svg>