<?xml version="1.0" encoding="UTF-8"?>
<svg id="_레이어_2" data-name="레이어 2" xmlns="http://www.w3.org/2000/svg" viewBox="0 0 215 215">
  <g id="Logo">
    <g id="symbol_15_01_0002_02" data-name="symbol 15 01 0002 02">
      <rect id="_사각형_186" data-name="사각형 186" width="215" height="215" fill="none"/>
      <path id="_패스_518" data-name="패스 518" d="M196.79,85.93c9.23-.07,16.49,7.56,16.48,17.32,0,8.84-7.64,16.32-16.63,16.3-9.21,.13-16.79-7.23-16.92-16.44,0-.15,0-.31,0-.46-.06-9.33,7.41-16.64,17.08-16.72Z" fill="#fff"/>
      <path id="_패스_519" data-name="패스 519" d="M102.1,1.88c9.41,.14,16.91,7.88,16.77,17.29-.14,9.32-7.75,16.8-17.07,16.77-9.25-.09-17.09-7.92-17.05-17.02,.03-9.44,7.72-17.07,17.16-17.04,.06,0,.12,0,.19,0Z" fill="#fff"/>
      <path id="_패스_520" data-name="패스 520" d="M129.06,196.75c.08,9.38-7.46,17.04-16.84,17.12-9.38,.08-17.04-7.46-17.12-16.84,0-.12,0-.24,0-.36,.37-10.12,7.37-16.93,17.12-16.99,9.35,.05,16.88,7.66,16.84,17.01,0,.02,0,.04,0,.06Z" fill="#fff"/>
      <path id="_패스_521" data-name="패스 521" d="M96.25,64.73c-4.59,5.38-10.93,6.64-17.47,7.45-2.53,.31-5.22-.68-7.57,1-5.3-4.54-10.53-9.17-14.81-14.71-4.17-5.39-3.53-11.91,1.35-16.19,4.76-4.17,11.49-3.74,16.35,.79,7.56,7.04,13.99,15.24,22.15,21.66Z" fill="#fff"/>
      <path id="_패스_522" data-name="패스 522" d="M117.77,150.92c4.01-5.44,10.11-6.35,16.12-7.34,3.04-.5,6.14-.6,9.21-.89,5.38,4.18,9.58,9.55,14.37,14.32,4.21,4.19,3.39,12.16-.85,15.94-5.06,4.52-11.91,4.36-16.96-.56-6.54-6.38-12.98-12.86-19.48-19.29-.77-.76-1.61-1.46-2.41-2.19Z" fill="#fff"/>
      <path id="_패스_523" data-name="패스 523" d="M63.25,118.28c4.76,3.81,6.23,9.3,7.25,14.88,.64,3.5,.65,7.12,.94,10.69-4.1,5.11-8.66,9.82-13.64,14.07-4.86,4.42-12.38,4.06-16.8-.8-4.28-4.71-4.1-11.94,.41-16.43,6.01-6.24,12.21-12.3,18.3-18.46,1.24-1.25,2.36-2.63,3.54-3.95Z" fill="#fff"/>
      <path id="_패스_524" data-name="패스 524" d="M150.92,96.66c-2.21-.07-2.72-1.96-3.65-3.4-4.23-6.6-4.52-14.07-4.79-21.54,4.4-5.72,9.52-10.84,15.23-15.23,4.53-3.36,10.97-2.33,14.92,1.83,3.98,4.18,4.61,11,.75,15.32-5.08,5.69-10.67,10.93-16.03,16.38-2.16,2.2-4.29,4.43-6.44,6.65Z" fill="#fff"/>
      <path id="_패스_525" data-name="패스 525" d="M16.85,129.22c-9.02-.03-16.08-7.41-16.04-16.77,.04-8.7,7.58-16.08,16.43-16.1,8.96-.16,16.36,6.97,16.53,15.93,0,.12,0,.23,0,.35,.06,9.75-6.96,16.62-16.92,16.59Z" fill="#fff"/>
    </g>
  </g>
</svg>