<?xml version="1.0" encoding="UTF-8"?>
<svg id="Layer_2" data-name="Layer 2" xmlns="http://www.w3.org/2000/svg" viewBox="0 0 300 300">
  <g id="Logo">
    <g id="symbol_19_02_0004_01" data-name="symbol 19 02 0004 01">
      <path id="_패스_1513" data-name="패스 1513" d="m273.23,181.9c-2.84-2.48-3.84-5.16-3.82-8.98.18-27.94.07-55.89.16-83.83.06-1.53.58-3.01,1.49-4.24,3.65-4.93,3.62-10.31-.48-16.45,4.21-5.58,4.39-11.32-.04-17.1,4.31-5.69,4.38-11.43-.01-17.16,3.46-4.51,4.36-9.29,1.73-14.48-1.82-3.6-5.06-5.32-8.61-6.65h-61.44c-8.01,1.53-13.9,6.38-19.15,12.23-.83.93-1.85,1.7-2.62,2.67-1.27,1.61-3.27,2.46-5.31,2.28-28.31-.08-56.62-.09-84.93-.03-2.18,0-4.09-.13-5.83-1.8-1.25-.99-2.71-1.68-4.27-2.03-4.38-1.32-8.19.17-11.63,2.77-5.78-4.36-11.43-4.3-17.11,0-5.71-4.35-11.44-4.34-17.14.01-4.54-3.5-9.39-4.45-14.5-1.68-5.23,2.84-6.72,7.56-6.67,13.26.13,16.65.26,33.3-.04,49.94-.17,9.45,2.54,17.53,9.93,23.39,6.03,4.78,8.18,10.42,7.4,17.97-.62,5.96-.12,12.04-.12,18.17h8.02c0-10.48.03-20.79-.05-31.1-.15-.85-.58-1.62-1.22-2.19-3.48-3.57-7.03-7.07-10.56-10.59-3.25-3.01-5.13-7.22-5.22-11.65-.1-18.61-.07-37.21-.04-55.82-.17-2.54,1.75-4.72,4.29-4.89.09,0,.17,0,.26,0,2.56.01,4.45,2.02,4.5,4.94.06,3.2.02,6.41.02,9.61v15.53h8.02c0-8.37-.02-16.56.01-24.74.01-3.29,1.92-5.41,4.67-5.34,2.65.07,4.39,2.1,4.4,5.29.03,7.3.01,14.6.01,21.9v2.93h8.02v-3c0-7.12-.01-14.24,0-21.37,0-3.56,1.74-5.73,4.53-5.77,2.82-.03,4.55,2.09,4.56,5.68.02,7.21,0,14.42.01,21.63,0,.93.08,1.87.13,2.78h7.89v-7.62c0-5.7-.03-11.4.01-17.09.03-3.3,1.92-5.42,4.66-5.36,2.67.05,4.35,2.05,4.42,5.27.02.71,0,1.42,0,2.14v48.24h16.9c.77,6.26-.21,11.76-4.58,16.26-3.47,3.58-6.97,7.14-10.57,10.58-1.24,1.14-1.9,2.77-1.79,4.45.05,28.67.06,57.33.03,86,0,1.02-.09,2.04-.13,3.05h-43.19v-59.74h-8.02v11.41c0,16.38,0,32.76-.02,49.14,0,.94.07,2.17-.45,2.77-5.06,5.78-4.95,11.67-.58,17.73-4.43,5.75-4.23,11.49,0,17.11-4.36,5.78-4.27,11.43,0,17.09-.32.46-.62.89-.91,1.33-2.73,4.13-3.18,8.47-.91,12.89,2.02,4.33,6.43,7.05,11.21,6.9,18.61.06,37.21.05,55.82-.02,6.22.02,12.21-2.39,16.68-6.71,2.98-2.8,5.74-5.86,8.79-8.57,1.14-1.01,2.59-1.61,4.11-1.71,16.38-.12,32.76-.08,49.14-.08h11.14c7.43,0,14.71.05,21.99-.02,3.71-.03,7.03.16,10.44,2.53,4.83,3.36,10.02,2,14.58-1.49,5.79,4.47,11.52,4.24,17.14.03,5.79,4.36,11.44,4.26,17.09-.02,3.36,2.55,6.99,3.89,11.24,2.92,5.35-1.23,8.21-4.91,9.9-9.8v-61.44c-1.58-8.65-7.12-14.73-13.39-20.22M93.14,81.48h-3.36v-43.35h3.19c28.67,0,57.33.01,85.99.04,1.67.1,3.3-.57,4.42-1.82,3.18-3.36,6.53-6.56,9.78-9.86,3.43-3.59,8.21-5.57,13.17-5.48,17.89.01,35.79.01,53.68,0,3.55,0,5.73,1.77,5.73,4.55s-2.16,4.53-5.72,4.54c-7.12.01-14.24.01-21.36,0h-3.1v8.01h3.97c6.77,0,13.53-.01,20.3,0,3.74,0,5.97,1.77,5.92,4.64-.05,2.8-2.16,4.45-5.79,4.46-8.01.01-16.01,0-24.26,0v8.01h4.46c6.68,0,13.35-.02,20.03,0,3.36.01,5.49,1.78,5.56,4.47.07,2.82-2.07,4.61-5.62,4.62-8.09.02-16.17,0-24.46,0v7.86c.88.05,1.81.14,2.74.14,7.03.01,14.07,0,21.1.02,1.06-.04,2.12.09,3.15.38,2.1.54,3.41,2.62,3.02,4.75-.15,2.15-1.9,3.84-4.06,3.92-.89.06-1.78.08-2.67.06h-48.79v16.9c-6.47.84-12.06-.32-16.66-4.88-3.41-3.39-6.86-6.74-10.18-10.22-1.13-1.25-2.76-1.92-4.44-1.83-28.58.05-57.15.06-85.73.04m-3.48,42.37c.09-1.44.66-2.81,1.61-3.9,2.29-2.6,4.84-4.98,7.31-7.41,5.42-5.06,8.38-12.2,8.15-19.61-.02-.89.04-1.78.09-2.66,0-.16.15-.31.39-.78h2.69c21.9,0,43.79-.01,65.68-.04,1.68-.09,3.31.61,4.41,1.88,2.3,2.47,4.77,4.79,7.15,7.2,5.06,5.41,12.21,8.37,19.62,8.1.8-.02,1.6.01,2.4.04.28.06.56.14.83.25.04.82.13,1.75.13,2.68,0,21.98.04,43.97-.07,65.95-.11,1.52-.7,2.97-1.7,4.13-2.06,2.34-4.25,4.56-6.56,6.65-6.05,5.68-9.14,12.57-8.81,20.93.03.78-.07,1.57-.12,2.77h-3.18c-21.72,0-43.43.01-65.15.04-1.85.16-3.67-.57-4.91-1.97-2.07-2.32-4.43-4.38-6.57-6.64-5.58-5.87-12.34-8.86-20.49-8.57-.87.03-1.74-.07-2.82-.12-.06-1-.15-1.86-.15-2.72,0-22.07-.03-44.15.06-66.22m120.26,137.68h-25.68v-.1h-9.19c-18.52-.01-37.04-.04-55.55.04-1.02.13-1.96.6-2.68,1.34-3.59,3.46-7.07,7.03-10.61,10.55-3.28,3.35-7.8,5.22-12.49,5.15-18.07.02-36.15.02-54.22,0-3.36,0-5.48-1.76-5.54-4.47-.06-2.81,2.11-4.61,5.64-4.61,6.77-.02,13.53,0,20.3,0h4.19v-8.01h-3.03c-7.21,0-14.42.02-21.63-.01-3.32-.01-5.46-1.85-5.47-4.56-.01-2.73,2.09-4.52,5.44-4.53,7.3-.02,14.6,0,21.9-.01.93,0,1.87-.08,2.76-.13v-7.88h-3.09c-7.12,0-14.24.02-21.37,0-3.51-.01-5.69-1.86-5.64-4.66.05-2.74,2.1-4.42,5.53-4.43,6.77-.02,13.53,0,20.3,0h4.31v-8.01h-13.4c-4.01,0-8.02.08-12.02-.05-2.54.06-4.66-1.95-4.72-4.49,0-.09,0-.17,0-.26.11-2.49,2-4.18,4.84-4.3.8-.04,1.6-.01,2.4-.01h48.46v-16.92c6.61-.8,12.26.51,16.88,5.22,3.24,3.3,6.61,6.48,9.78,9.86,1.19,1.32,2.91,2.01,4.68,1.89,28.58-.05,57.16-.07,85.73-.04h3.16v43.47Zm68.68-1.53c0,3.52-1.81,5.7-4.61,5.66s-4.47-2.18-4.47-5.78c-.01-8.01,0-16.01,0-24.26h-8.02v2.83c0,7.21.02,14.42,0,21.63-.01,3.37-1.74,5.49-4.45,5.57-2.81.08-4.63-2.07-4.64-5.6-.02-8.09,0-16.18,0-24.47h-8.02v10.18c0,4.9.04,9.79-.02,14.69-.04,3.11-1.93,5.19-4.55,5.2-2.65.01-4.5-2.04-4.51-5.18-.03-7.3-.01-14.6-.01-21.9v-3.03h-7.89c-.05.98-.13,1.93-.13,2.87-.01,7.03,0,14.06-.02,21.1.03.89-.04,1.78-.22,2.65-.5,2.17-2.52,3.65-4.74,3.48-2.23-.16-3.98-1.98-4.06-4.22-.13-2.75-.06-5.52-.06-8.28v-43.15h-16.92c-.79-6.36.29-11.91,4.77-16.46,3.31-3.36,6.6-6.75,10.03-9.99,1.46-1.28,2.26-3.17,2.16-5.11-.07-28.49-.08-56.97-.05-85.45v-3.32h43.34v3.02c0,28.66-.01,57.33-.04,85.99-.13,1.76.56,3.48,1.87,4.67,3.44,3.22,6.71,6.63,10.04,9.98,3.42,3.34,5.32,7.94,5.24,12.73,0,17.98,0,35.96,0,53.94" fill="#fff"/>
      <path id="_패스_1514" data-name="패스 1514" d="m119.2,151.21c0-4.47,2.84-8.09,6.34-8.09s6.34,3.62,6.34,8.09-2.84,8.09-6.34,8.09-6.34-3.62-6.34-8.09" fill="#fff"/>
      <path id="_패스_1515" data-name="패스 1515" d="m167.73,151.21c0-4.47,2.84-8.09,6.34-8.09s6.34,3.62,6.34,8.09-2.84,8.09-6.34,8.09-6.34-3.62-6.34-8.09" fill="#fff"/>
      <path id="_패스_1516" data-name="패스 1516" d="m150.24,175.77c-7.1-.07-14.03-2.15-19.99-6.01-1.43-1.04-1.75-3.05-.7-4.49,1.04-1.43,3.04-1.75,4.47-.72.64.46,15.4,10.74,31.67-.07,1.46-1,3.46-.63,4.46.84,1,1.46.63,3.46-.84,4.46-.02.02-.05.03-.07.05-5.6,3.84-12.22,5.91-19.01,5.94" fill="#fff"/>
      <rect id="_사각형_753" data-name="사각형 753" width="300" height="300" fill="none"/>
    </g>
  </g>
</svg>