<?xml version="1.0" encoding="UTF-8"?>
<svg id="_레이어_2" data-name="레이어 2" xmlns="http://www.w3.org/2000/svg" viewBox="0 0 302 302">
  <g id="_레이어_1-2" data-name="레이어 1">
    <g>
      <rect width="302" height="302" fill="none"/>
      <g>
        <path d="M144.57,301.43c-.68-.07-1.35-.16-2.02-.25,.67,.09,1.35,.18,2.02,.25Z" fill="none"/>
        <path d="M55.89,158.07c.09,2.68,.23,5.34,.41,7.98h0c-.18-2.64-.31-5.3-.41-7.98Z" fill="none"/>
        <path d="M139.34,300.64c-2.08-.41-4.14-.92-6.18-1.54,2.04,.62,4.1,1.13,6.18,1.54Z" fill="none"/>
        <path d="M132.85,299.01c-3.03-.93-6-2.09-8.92-3.47,2.92,1.38,5.9,2.54,8.92,3.47Z" fill="none"/>
        <path d="M160.83,300.98c-.18,.03-.37,.05-.55,.08,.18-.03,.37-.05,.55-.08Z" fill="none"/>
        <path d="M156.34,301.54c-.27,.02-.54,.05-.82,.07,.27-.02,.54-.04,.82-.07Z" fill="none"/>
        <path d="M123.65,295.4c-2.92-1.4-5.78-3.01-8.58-4.83,2.8,1.82,5.66,3.43,8.58,4.83Z" fill="none"/>
        <path d="M158.61,301.3c-.26,.03-.53,.06-.79,.09,.26-.03,.53-.06,.79-.09Z" fill="none"/>
        <path d="M153.98,301.7c-.24,.01-.48,.03-.72,.04,.24,0,.48-.02,.72-.04Z" fill="none"/>
        <path d="M163.67,300.44c-.22,.05-.45,.1-.67,.14,.22-.04,.45-.1,.67-.14Z" fill="none"/>
        <path d="M148.76,301.73c-.47-.02-.94-.05-1.41-.08,.47,.03,.94,.06,1.41,.08Z" fill="none"/>
        <path d="M114.82,290.41c-2.8-1.84-5.53-3.88-8.19-6.12,2.66,2.24,5.39,4.28,8.19,6.12Z" fill="none"/>
        <path d="M57.16,175.88c-.24-2.16-.44-4.34-.62-6.53,.18,2.19,.39,4.37,.62,6.53Z" fill="none"/>
        <path d="M55.88,157.87c-.04-1.2-.07-2.4-.09-3.6,.02,1.2,.05,2.4,.09,3.6Z" fill="none"/>
        <path d="M64.07,211.94c-.4-1.42-.78-2.86-1.16-4.31,.37,1.45,.76,2.88,1.16,4.31Z" fill="none"/>
        <path d="M55.77,153.73c-.02-1.36-.04-2.72-.04-4.09,0,1.37,.01,2.73,.04,4.09Z" fill="none"/>
        <path d="M62.73,206.93c-1.16-4.57-2.19-9.24-3.08-14.01,.89,4.77,1.91,9.45,3.08,14.01Z" fill="none"/>
        <path d="M91.28,268.16c-2.35-3.03-4.61-6.23-6.77-9.59,2.16,3.36,4.42,6.56,6.77,9.59Z" fill="none"/>
        <path d="M98.49,276.58c-1.68-1.78-3.33-3.64-4.94-5.58,1.61,1.94,3.25,3.8,4.94,5.58Z" fill="none"/>
        <path d="M84.41,258.42c-2.11-3.3-4.13-6.76-6.05-10.36,1.91,3.6,3.93,7.06,6.05,10.36Z" fill="none"/>
        <path d="M78.13,247.62c-.6-1.13-1.19-2.28-1.76-3.44,.58,1.16,1.17,2.31,1.76,3.44Z" fill="none"/>
        <path d="M146.62,301.61c-.61-.05-1.23-.1-1.84-.16,.61,.06,1.22,.12,1.84,.16Z" fill="none"/>
        <path d="M225.09,245.25c-.57,1.13-1.15,2.24-1.74,3.34,.59-1.1,1.17-2.22,1.74-3.34Z" fill="none"/>
        <path d="M223.17,248.94c-.65,1.2-1.31,2.39-1.98,3.56,.67-1.17,1.33-2.35,1.98-3.56Z" fill="none"/>
        <path d="M220.78,253.2c-.56,.97-1.14,1.93-1.72,2.87,.58-.95,1.15-1.9,1.72-2.87Z" fill="none"/>
        <path d="M237.32,214.05c-.88,3.02-1.83,5.99-2.83,8.89,1-2.91,1.95-5.87,2.83-8.89Z" fill="none"/>
        <path d="M218.64,256.75c-.69,1.11-1.39,2.21-2.1,3.29,.71-1.08,1.41-2.18,2.1-3.29Z" fill="none"/>
        <path d="M229.09,236.78c-1.15,2.63-2.36,5.2-3.61,7.71,1.25-2.51,2.46-5.07,3.61-7.71Z" fill="none"/>
        <path d="M234.31,223.44c-.46,1.32-.93,2.62-1.41,3.91,.48-1.29,.95-2.6,1.41-3.91Z" fill="none"/>
        <path d="M230.97,232.32c-.51,1.27-1.04,2.52-1.58,3.76,.54-1.24,1.07-2.49,1.58-3.76Z" fill="none"/>
        <path d="M216.2,260.54c-.61,.92-1.23,1.83-1.86,2.72,.63-.89,1.25-1.8,1.86-2.72Z" fill="none"/>
        <path d="M232.72,227.84c-.53,1.42-1.08,2.83-1.64,4.22,.56-1.39,1.11-2.8,1.64-4.22Z" fill="none"/>
        <path d="M239.94,204.23c-.75,3.13-1.57,6.21-2.45,9.23,.88-3.03,1.69-6.1,2.45-9.23Z" fill="none"/>
        <path d="M166.04,299.89c-.29,.07-.57,.15-.86,.21,.29-.07,.57-.14,.86-.21Z" fill="none"/>
        <path d="M173.06,297.67c-.22,.08-.45,.17-.67,.26,.22-.08,.45-.17,.67-.26Z" fill="none"/>
        <path d="M213.81,264.02c-.74,1.04-1.49,2.06-2.25,3.06,.76-1,1.51-2.03,2.25-3.06Z" fill="none"/>
        <path d="M175.43,296.72c-.3,.13-.59,.25-.89,.37,.3-.12,.6-.25,.89-.37Z" fill="none"/>
        <path d="M168.25,299.29c-.29,.09-.59,.17-.89,.25,.3-.08,.59-.16,.89-.25Z" fill="none"/>
        <path d="M197.17,282.74c-4.01,3.55-8.2,6.66-12.53,9.28,4.34-2.62,8.52-5.72,12.53-9.28Z" fill="none"/>
        <path d="M177.55,295.78c-.31,.14-.62,.29-.94,.43,.31-.14,.62-.28,.94-.43Z" fill="none"/>
        <path d="M208.64,270.77c-1.81,2.2-3.67,4.3-5.58,6.3,1.91-1.99,3.77-4.09,5.58-6.3Z" fill="none"/>
        <path d="M179.62,294.79c-.3,.15-.61,.3-.91,.44,.3-.15,.61-.29,.91-.44Z" fill="none"/>
        <path d="M170.4,298.62c-.27,.09-.54,.17-.81,.26,.27-.09,.54-.17,.81-.26Z" fill="none"/>
        <polygon points="154.1 152.32 163.62 161.84 163.62 155.07 154.1 145.55 154.1 152.32" fill="none"/>
        <path d="M166.82,220.61c10.13-12.5,22.61-22.92,36.73-31.04v-13.03c-12.91,3.77-25.23,8.79-36.73,14.98v29.09Z" fill="none"/>
        <polygon points="154.1 164.02 163.62 173.54 163.62 166.37 154.1 156.85 154.1 164.02" fill="none"/>
        <path d="M163.62,224.74v-31.43c-29.44,16.64-53.29,41.12-67.65,72.21,12.68,16.13,27.58,26.32,43.39,29.69,.4-15.38,3.6-30.5,9.63-44.85,3.89-9.26,8.82-17.81,14.63-25.62Z" fill="none"/>
        <polygon points="154.1 177.36 163.62 186.88 163.62 178.07 154.1 168.55 154.1 177.36" fill="none"/>
        <polygon points="176.34 145.55 166.82 155.07 166.82 161.84 176.34 152.32 176.34 145.55" fill="none"/>
        <path d="M57.57,179.43c.38,3.05,.82,6.08,1.31,9.06h0c-.49-2.99-.93-6.01-1.31-9.06Z" fill="none"/>
        <path d="M165.22,131.53c-.87,0-3.17,0-3.17,6.86v10.58l3.17,3.17,3.17-3.17v-10.58c0-6.86-2.3-6.86-3.17-6.86Z" fill="none"/>
        <polygon points="166.82 186.88 176.34 177.36 176.34 168.55 166.82 178.07 166.82 186.88" fill="none"/>
        <path d="M211.48,258c.79-1.18,1.58-2.38,2.35-3.62,8.9-14.21,15.74-30.84,20.33-48.96-6.95,7.2-12.53,15.56-16.45,24.89-3.73,8.87-5.8,18.2-6.24,27.69Z" fill="none"/>
        <path d="M114.25,82.2c19.38,0,35.15-15.77,35.15-35.15,0-11.81-5.86-22.27-14.83-28.65-1.46,2.49-2.95,5.28-4.55,8.37-.85,1.64-1.73,3.31-2.64,4.99,4.31,3.7,7.05,9.18,7.05,15.29,0,11.13-9.05,20.18-20.18,20.18-5.8,0-11.03-2.48-14.71-6.41-4.75,3.09-8.92,5.82-12.55,8.39,6.45,7.92,16.27,13,27.26,13Z" fill="none"/>
        <path d="M206.76,187.79c10.22-5.53,21.24-9.89,32.83-13,.19-1.79,.36-3.58,.51-5.39-11.42,1.19-22.57,3.29-33.34,6.24v12.15Z" fill="none"/>
        <path d="M191.05,238.94c-6.3,14.99-8.66,31.06-7.13,47.26,8.72-5.64,16.9-13.55,24.27-23.53-.11-11.53,2.07-22.88,6.58-33.61,4.75-11.31,11.84-21.25,20.81-29.5,.76-3.4,1.41-6.87,2.01-10.37-20.71,10.9-37.32,27.82-46.53,49.73Z" fill="none"/>
        <polygon points="194.04 127.43 203.56 136.94 203.56 130.17 194.04 120.65 194.04 127.43" fill="none"/>
        <polygon points="194.04 139.12 203.56 148.64 203.56 141.47 194.04 131.95 194.04 139.12" fill="none"/>
        <polygon points="216.28 120.65 206.76 130.17 206.76 136.94 216.28 127.43 216.28 120.65" fill="none"/>
        <path d="M205.16,106.63c-.87,0-3.17,0-3.17,6.86v10.58l3.17,3.17,3.17-3.17v-10.58c0-6.86-2.3-6.86-3.17-6.86Z" fill="none"/>
        <path d="M151.94,251.6c-5.94,14.13-9.05,29.04-9.39,44.2,2.79,.43,5.61,.65,8.44,.65,10.31,0,20.39-2.87,29.89-8.37-1.88-17.25,.5-34.4,7.22-50.37,9.82-23.37,27.79-41.25,50.14-52.43,.36-2.34,.68-4.69,.97-7.07-39.21,10.85-71.72,36.4-87.27,73.39Z" fill="none"/>
        <polygon points="216.28 131.95 206.76 141.47 206.76 148.64 216.28 139.12 216.28 131.95" fill="none"/>
        <polygon points="206.76 161.98 216.28 152.46 216.28 143.65 206.76 153.17 206.76 161.98" fill="none"/>
        <path d="M131.23,47.06c0-4.9-2.1-9.31-5.43-12.41-4.35,7.69-9.63,15.3-17.46,20.44-2.12,1.39-4.13,2.7-6.08,3.97,3.07,3.07,7.32,4.98,12,4.98,9.36,0,16.98-7.61,16.98-16.98Z" fill="none"/>
        <polygon points="176.34 156.85 166.82 166.37 166.82 173.54 176.34 164.02 176.34 156.85" fill="none"/>
        <path d="M197.17,282.73c2-1.78,3.96-3.66,5.87-5.66-1.91,1.99-3.87,3.88-5.87,5.66Z" fill="none"/>
        <path d="M132.42,11.78c-.25,.37-.5,.75-.75,1.13h0c.25-.38,.5-.76,.75-1.13Z" fill="none"/>
        <path d="M129.99,15.64c-1.78,3.04-3.48,6.32-5.22,9.66,1.75-3.34,3.44-6.62,5.22-9.66h0Z" fill="none"/>
        <path d="M86.79,62.85c-.98,.67-1.93,1.32-2.84,1.97h0c.92-.65,1.87-1.31,2.84-1.97Z" fill="none"/>
        <path d="M96.8,188.41v-7.63c-3.74-1.54-7.56-2.97-11.47-4.28-7.63-2.56-15.43-4.61-23.35-6.17,.22,2.58,.48,5.14,.79,7.69,12.69,5.16,24.13,11.94,34.04,20.17v-9.78Z" fill="none"/>
        <path d="M110.53,46.5c-.2,.19-.41,.38-.61,.57,.2-.19,.41-.37,.61-.57Z" fill="none"/>
        <path d="M74.47,240.24c.6,1.29,1.21,2.57,1.84,3.82-.62-1.26-1.24-2.53-1.84-3.82h0Z" fill="none"/>
        <path d="M86.35,173.46c2.38,.8,4.72,1.64,7.03,2.52l-9.3-9.3v-46.66h3.2v9l4.75,4.75v-30.85h3.2v14.28c.88-.58,1.93-.88,3.17-.88s2.29,.3,3.17,.88v-14.28h3.2v30.85l4.75-4.75v-9h3.2v46.66l-12.2,12.2c15.26,6.57,29.02,15.04,41.03,25.15,6.6-5.05,13.59-9.65,20.93-13.77l-11.58-11.58v-46.66h3.2v9l4.75,4.75v-30.85h3.2v14.28c.88-.58,1.93-.88,3.17-.88s2.29,.3,3.17,.88v-14.28h3.2v30.85l4.75-4.75v-9h3.2v46.66l-5.74,5.74c9.48-4.5,19.44-8.24,29.75-11.21v-6.71l-12.72-12.72v-46.66h3.2v9l4.75,4.75v-30.85h3.2v14.28c.88-.58,1.93-.88,3.17-.88s2.29,.3,3.17,.88v-14.28h3.2v30.85l4.75-4.75v-9h3.2v46.66l-12.72,12.72v5.81c10.85-2.93,22.09-4.99,33.58-6.17,.37-5.45,.58-10.95,.58-16.51,0-39.46-9.61-76.16-27.06-103.34-16.87-26.27-39.2-40.75-62.87-40.75-6.37,0-10.58,3.69-14.75,10.12,9.88,6.94,16.35,18.42,16.35,31.38,0,21.14-17.2,38.35-38.35,38.35-12.06,0-22.82-5.6-29.86-14.33-7.54,5.57-12.59,10.61-16.02,17.46-5.39,10.78-7.3,26.77-7.3,61.1,0,5.86,.24,11.66,.65,17.39,8.35,1.6,16.58,3.74,24.62,6.44ZM170.07,62.81c3.05,0,5.12,.9,6.46,1.86,1.87-4.43,7.07-12.96,19.26-12.96,10.93,0,19.81,10.07,19.81,22.44,0,.88-.72,1.6-1.6,1.6s-1.6-.72-1.6-1.6c0-10.61-7.45-19.24-16.61-19.24-13.79,0-16.92,12.55-17.05,13.08-.15,.65-.7,1.14-1.36,1.22-.67,.08-1.31-.26-1.62-.85-.04-.07-1.38-2.35-5.69-2.35s-5.97,4.13-6.45,6.54h39.76c.88,0,1.6,.72,1.6,1.6s-.72,1.6-1.6,1.6h-41.59c-.44,0-.86-.18-1.16-.5-.3-.32-.46-.75-.44-1.18,.19-3.89,2.51-11.26,9.88-11.26Z" fill="none"/>
        <path d="M180.91,294.12c.25-.13,.5-.26,.75-.39h0c-.25,.13-.5,.26-.75,.39Z" fill="none"/>
        <path d="M98.66,276.77c2.5,2.64,5.09,5.09,7.75,7.34-2.66-2.26-5.25-4.71-7.75-7.34Z" fill="none"/>
        <path d="M91.16,232.42c-5.48-13.43-14.04-25.1-25.07-34.5,4.51,21.05,11.97,40.32,22.08,56.46,1.81,2.89,3.69,5.64,5.62,8.25,1.07-2.26,2.19-4.49,3.36-6.68-.89-7.97-2.85-15.87-5.98-23.54Z" fill="none"/>
        <polygon points="87.28 165.36 96.8 174.88 96.8 166.07 87.28 156.55 87.28 165.36" fill="none"/>
        <polygon points="87.28 140.33 96.8 149.85 96.8 143.07 87.28 133.55 87.28 140.33" fill="none"/>
        <polygon points="87.28 152.03 96.8 161.54 96.8 154.37 87.28 144.85 87.28 152.03" fill="none"/>
        <polygon points="109.52 144.85 100 154.37 100 161.54 109.52 152.03 109.52 144.85" fill="none"/>
        <path d="M94.12,231.21c2.68,6.57,4.53,13.29,5.62,20.09,5.17-8.93,11.15-17.24,17.86-24.9-12.59-19.58-31.25-34.99-54.35-44.74,.52,3.81,1.11,7.58,1.81,11.3,12.92,10.12,22.88,23.11,29.06,38.25Z" fill="none"/>
        <path d="M100,200.97c7.63,6.81,14.27,14.5,19.8,22.97,5.89-6.46,12.31-12.42,19.16-17.89-11.45-9.56-24.52-17.6-38.97-23.91v18.82Z" fill="none"/>
        <polygon points="100 174.88 109.52 165.36 109.52 156.55 100 166.07 100 174.88" fill="none"/>
        <polygon points="109.52 133.55 100 143.07 100 149.85 109.52 140.33 109.52 133.55" fill="none"/>
        <path d="M98.4,119.54c-.87,0-3.17,0-3.17,6.86v10.58l3.17,3.17,3.17-3.17v-10.58c0-6.86-2.3-6.86-3.17-6.86Z" fill="none"/>
        <path d="M58.74,101.07c.04-.21,.09-.42,.13-.63-.04,.21-.09,.42-.13,.63Z" fill="none"/>
        <path d="M63.44,86.49c.08-.17,.17-.34,.26-.51-.09,.17-.17,.34-.26,.51Z" fill="none"/>
        <path d="M61.77,90.33c.07-.17,.13-.34,.2-.51-.07,.17-.14,.34-.2,.51Z" fill="none"/>
        <path d="M62.25,89.14c.08-.18,.15-.37,.23-.55-.08,.18-.16,.36-.23,.55Z" fill="none"/>
        <path d="M60.72,93.33c.06-.2,.13-.4,.19-.6-.07,.2-.13,.4-.19,.6Z" fill="none"/>
        <path d="M62.76,87.95c.08-.17,.15-.34,.23-.51-.08,.17-.15,.34-.23,.51Z" fill="none"/>
        <path d="M61.16,92c.06-.18,.12-.36,.18-.53-.06,.18-.12,.35-.18,.53Z" fill="none"/>
        <path d="M60.31,94.66c.06-.2,.12-.39,.18-.58-.06,.19-.12,.39-.18,.58Z" fill="none"/>
        <path d="M59.09,99.43c.05-.22,.1-.43,.15-.64-.05,.21-.1,.43-.15,.64Z" fill="none"/>
        <path d="M59.43,97.95c.05-.21,.1-.43,.16-.64-.05,.21-.1,.42-.16,.64Z" fill="none"/>
        <path d="M59.82,96.4c.06-.23,.12-.45,.18-.67-.06,.22-.12,.45-.18,.67Z" fill="none"/>
        <polygon points="194.04 152.46 203.56 161.98 203.56 153.17 194.04 143.65 194.04 152.46" fill="none"/>
        <path d="M68.46,78.56c.11-.14,.23-.29,.35-.43-.12,.14-.23,.28-.35,.43Z" fill="none"/>
        <path d="M69.22,77.64c.12-.15,.25-.3,.38-.44-.13,.15-.25,.3-.38,.44Z" fill="none"/>
        <path d="M70.01,76.72c.13-.14,.25-.28,.38-.42-.13,.14-.25,.28-.38,.42Z" fill="none"/>
        <path d="M67.49,79.82c.1-.14,.2-.28,.31-.41-.1,.14-.2,.28-.31,.41Z" fill="none"/>
        <path d="M64.62,84.24c.09-.16,.18-.33,.28-.49-.09,.16-.19,.32-.28,.49Z" fill="none"/>
        <path d="M65.28,83.11c.13-.21,.26-.42,.39-.63-.13,.21-.26,.42-.39,.63Z" fill="none"/>
        <path d="M64.04,85.32c.09-.17,.18-.33,.27-.5-.09,.17-.18,.33-.27,.5Z" fill="none"/>
        <path d="M66.77,80.82c.11-.15,.22-.31,.32-.46-.11,.15-.22,.31-.32,.46Z" fill="none"/>
        <path d="M66.1,81.81c.1-.16,.21-.31,.31-.46-.1,.15-.21,.31-.31,.46Z" fill="none"/>
        <path d="M56.87,114.81c.02-.18,.03-.36,.05-.54-.02,.18-.03,.36-.05,.54Z" fill="none"/>
        <path d="M55.88,134.74c0-.3,.01-.59,.02-.88,0,.29-.01,.59-.02,.88Z" fill="none"/>
        <path d="M55.83,137.37c0-.25,0-.5,.01-.74,0,.25,0,.49-.01,.74Z" fill="none"/>
        <path d="M55.95,132.04c0-.24,.01-.49,.02-.73,0,.24-.01,.49-.02,.73Z" fill="none"/>
        <path d="M56.04,128.93c0-.21,.02-.41,.02-.62,0,.21-.02,.41-.02,.62Z" fill="none"/>
        <path d="M56.24,124.18c.01-.26,.02-.52,.04-.77-.01,.26-.03,.52-.04,.77Z" fill="none"/>
        <path d="M56.13,126.55c.01-.28,.02-.55,.04-.82-.01,.27-.02,.55-.04,.82Z" fill="none"/>
        <path d="M55.79,140.62c0-.2,0-.4,0-.59,0,.2,0,.4,0,.59Z" fill="none"/>
        <path d="M55.74,146.68c0-.29,0-.58,0-.87,0,.29,0,.58,0,.87Z" fill="none"/>
        <path d="M55.76,143.75c0-.31,0-.63,0-.94,0,.31,0,.62,0,.94Z" fill="none"/>
        <path d="M57.83,106.39c.03-.21,.06-.41,.09-.61-.03,.2-.06,.4-.09,.61Z" fill="none"/>
        <path d="M57.29,110.57c.03-.25,.06-.51,.09-.76-.03,.25-.06,.5-.09,.76Z" fill="none"/>
        <path d="M58.37,103.05c.04-.22,.08-.44,.12-.66-.04,.22-.08,.44-.12,.66Z" fill="none"/>
        <path d="M57.52,108.67c.03-.22,.05-.43,.08-.65-.03,.21-.06,.43-.08,.65Z" fill="none"/>
        <path d="M58.09,104.72c.04-.24,.08-.47,.12-.7-.04,.23-.08,.46-.12,.7Z" fill="none"/>
        <path d="M56.53,119.15c.02-.26,.04-.52,.05-.78-.02,.26-.04,.52-.05,.78Z" fill="none"/>
        <path d="M57.09,112.44c.02-.23,.05-.46,.07-.69-.02,.23-.05,.46-.07,.69Z" fill="none"/>
        <path d="M56.39,121.32c0-.14,.02-.28,.03-.42,0,.14-.02,.28-.03,.42Z" fill="none"/>
        <path d="M56.68,117.05c.02-.26,.04-.52,.06-.78-.02,.26-.04,.52-.06,.78Z" fill="none"/>
        <path d="M71.06,75.57c.15-.16,.31-.32,.47-.49-.16,.16-.31,.32-.47,.49Z" fill="none"/>
        <path d="M133.76,9.91c.41-.55,.83-1.08,1.26-1.59-.43,.51-.85,1.04-1.26,1.59Z" fill="none"/>
        <path d="M146.63,.69c.19-.04,.38-.08,.58-.11-.19,.04-.39,.07-.58,.11Z" fill="none"/>
        <path d="M144.92,1.15c.11-.04,.23-.06,.34-.1-.11,.03-.23,.06-.34,.1Z" fill="none"/>
        <path d="M148.51,.38c.19-.02,.38-.05,.57-.07-.19,.02-.38,.04-.57,.07Z" fill="none"/>
        <path d="M142.84,1.99c.17-.08,.34-.17,.52-.24-.18,.08-.35,.16-.52,.24Z" fill="none"/>
        <path d="M213.34,36.15c1.15,1.55,2.28,3.15,3.38,4.78-1.1-1.64-2.23-3.23-3.38-4.78Z" fill="none"/>
        <path d="M136.69,6.47c.21-.21,.41-.41,.62-.62-.21,.2-.42,.41-.62,.62Z" fill="none"/>
        <path d="M141.26,2.83c.19-.11,.38-.22,.58-.33-.19,.11-.39,.22-.58,.33Z" fill="none"/>
        <path d="M223.71,52.49c.76,1.4,1.51,2.82,2.23,4.26-.73-1.44-1.48-2.86-2.23-4.26Z" fill="none"/>
        <path d="M138.01,5.22c.19-.17,.37-.34,.56-.5-.19,.16-.38,.33-.56,.5Z" fill="none"/>
        <path d="M139.82,3.76c.17-.12,.34-.23,.51-.34-.17,.11-.34,.22-.51,.34Z" fill="none"/>
        <path d="M245.5,168.91c-.12,1.51-.26,3-.4,4.5,.15-1.49,.28-2.99,.4-4.5Z" fill="none"/>
        <path d="M244.75,176.79c-.22,1.94-.47,3.87-.73,5.78,.26-1.91,.51-3.84,.73-5.78Z" fill="none"/>
        <path d="M243.47,186.31c-.2,1.29-.41,2.58-.63,3.86,.22-1.28,.43-2.57,.63-3.86Z" fill="none"/>
        <path d="M242.82,190.26c-.22,1.28-.45,2.56-.69,3.82,.24-1.27,.47-2.54,.69-3.82Z" fill="none"/>
        <path d="M135.48,7.77c.21-.24,.42-.46,.63-.69-.21,.23-.42,.45-.63,.69Z" fill="none"/>
        <path d="M246.26,149.81c0,1.28-.01,2.56-.03,3.84,.02-1.28,.03-2.56,.03-3.84Z" fill="none"/>
        <path d="M246.12,157.87c-.09,2.62-.22,5.22-.39,7.8,.17-2.58,.3-5.18,.39-7.8Z" fill="none"/>
        <path d="M233.32,73.74c.49,1.32,.98,2.65,1.44,4-.47-1.35-.95-2.68-1.44-4Z" fill="none"/>
        <path d="M241.08,100.36c.11,.5,.22,1,.32,1.5-.11-.5-.21-1-.32-1.5Z" fill="none"/>
        <path d="M246.21,154.17c-.02,1.18-.05,2.35-.09,3.52,.04-1.17,.07-2.34,.09-3.52Z" fill="none"/>
        <path d="M86.81,62.84c.97-.66,1.97-1.34,3-2.02-1.03,.69-2.03,1.36-3,2.02Z" fill="none"/>
        <path d="M77.07,70.02c.29-.24,.58-.47,.88-.71-.3,.24-.59,.47-.88,.71Z" fill="none"/>
        <path d="M241.13,198.98c-.34,1.57-.69,3.13-1.06,4.68,.37-1.55,.73-3.11,1.06-4.68Z" fill="none"/>
        <path d="M79.59,68.03c.21-.16,.41-.31,.62-.47-.21,.16-.42,.32-.62,.47Z" fill="none"/>
        <path d="M71.98,74.62c.14-.15,.29-.29,.44-.43-.15,.14-.29,.29-.44,.43Z" fill="none"/>
        <path d="M80.68,67.2c.22-.16,.43-.32,.65-.49-.22,.16-.44,.32-.65,.49Z" fill="none"/>
        <path d="M75.07,71.71c.17-.15,.33-.29,.5-.44-.17,.15-.34,.29-.5,.44Z" fill="none"/>
        <path d="M73.83,72.84c.24-.22,.48-.44,.72-.66-.24,.22-.49,.44-.72,.66Z" fill="none"/>
        <path d="M72.86,73.75c.15-.14,.3-.29,.45-.43-.15,.14-.3,.29-.45,.43Z" fill="none"/>
        <path d="M76.05,70.87c.17-.15,.35-.29,.52-.44-.18,.15-.35,.29-.52,.44Z" fill="none"/>
        <path d="M89.86,60.79c1.02-.68,2.07-1.37,3.14-2.08-1.08,.71-2.13,1.4-3.14,2.08Z" fill="none"/>
        <path d="M78.52,68.86c.2-.15,.39-.31,.59-.46-.2,.15-.4,.31-.59,.46Z" fill="none"/>
        <path d="M114.36,42.29c.12-.15,.24-.31,.36-.46-.12,.15-.24,.31-.36,.46Z" fill="none"/>
        <path d="M112.33,44.66c.05-.05,.1-.11,.15-.16-.05,.05-.1,.11-.15,.16Z" fill="none"/>
        <path d="M116.16,39.92c.12-.17,.24-.33,.36-.5-.12,.17-.24,.33-.36,.5Z" fill="none"/>
        <path d="M132.7,11.36c.24-.34,.48-.68,.72-1.01-.24,.33-.48,.67-.72,1.01Z" fill="none"/>
        <path d="M107.7,48.96c.22-.17,.43-.35,.65-.53-.22,.18-.43,.36-.65,.53Z" fill="none"/>
        <path d="M93.13,58.63c1.07-.7,2.16-1.41,3.29-2.15-1.13,.73-2.22,1.45-3.29,2.15Z" fill="none"/>
        <path d="M101.93,52.9c.17-.11,.34-.22,.51-.33-.17,.11-.34,.22-.51,.33Z" fill="none"/>
        <path d="M161.79,75.75h41.59c.88,0,1.6-.72,1.6-1.6s-.72-1.6-1.6-1.6h-39.76c.48-2.41,1.97-6.54,6.45-6.54s5.65,2.28,5.69,2.35c.31,.6,.95,.93,1.62,.85,.66-.08,1.21-.57,1.36-1.22,.13-.53,3.25-13.08,17.05-13.08,9.16,0,16.61,8.63,16.61,19.24,0,.88,.72,1.6,1.6,1.6s1.6-.72,1.6-1.6c0-12.38-8.89-22.44-19.81-22.44-12.19,0-17.38,8.54-19.26,12.96-1.33-.96-3.4-1.86-6.46-1.86-7.37,0-9.68,7.37-9.88,11.26-.02,.44,.14,.87,.44,1.18,.3,.32,.72,.5,1.16,.5Z" fill="#fff"/>
        <path d="M55.74,149.64c0,1.37,.01,2.73,.04,4.09,0,.18,0,.36,.01,.54,.02,1.2,.05,2.4,.09,3.6,0,.07,0,.14,0,.2,.09,2.68,.23,5.34,.41,7.98h0c.07,1.1,.15,2.2,.24,3.29,.18,2.19,.39,4.37,.62,6.53,.13,1.19,.27,2.37,.41,3.55,.38,3.05,.82,6.08,1.31,9.06h0c.24,1.49,.51,2.96,.78,4.43,.89,4.77,1.91,9.45,3.08,14.01,.06,.23,.12,.47,.18,.7,.37,1.45,.76,2.88,1.16,4.31,2.83,10.06,6.33,19.54,10.4,28.3h0c.6,1.29,1.21,2.57,1.84,3.82,.02,.04,.04,.08,.06,.12,.58,1.16,1.17,2.31,1.76,3.44,.08,.15,.16,.3,.24,.45,1.91,3.6,3.93,7.06,6.05,10.36,.03,.05,.07,.1,.1,.15,2.16,3.36,4.42,6.56,6.77,9.59,.75,.96,1.51,1.91,2.27,2.84,1.61,1.94,3.25,3.8,4.94,5.58,.06,.06,.12,.12,.18,.18,2.5,2.64,5.09,5.09,7.75,7.34,.07,.06,.14,.12,.21,.18,2.66,2.24,5.39,4.28,8.19,6.12,.08,.05,.17,.11,.25,.16,2.8,1.82,5.66,3.43,8.58,4.83,.09,.04,.19,.09,.28,.13,2.92,1.38,5.9,2.54,8.92,3.47,.1,.03,.2,.06,.31,.09,2.04,.62,4.1,1.13,6.18,1.54,1.07,.21,2.14,.38,3.21,.53,.67,.09,1.35,.18,2.02,.25,.07,0,.14,.01,.21,.02,.61,.06,1.22,.12,1.84,.16,.24,.02,.48,.03,.72,.04,.47,.03,.94,.06,1.41,.08,.75,.03,1.49,.05,2.24,.05s1.51-.02,2.26-.05c.24,0,.48-.02,.72-.04,.52-.03,1.03-.06,1.55-.09,.27-.02,.54-.04,.82-.07,.49-.04,.99-.09,1.48-.15,.26-.03,.53-.06,.79-.09,.56-.07,1.12-.15,1.67-.24,.18-.03,.37-.05,.55-.08,.72-.12,1.45-.25,2.17-.4,.22-.05,.45-.1,.67-.14,.5-.11,1.01-.22,1.51-.34,.29-.07,.57-.14,.86-.21,.44-.11,.88-.23,1.32-.35,.3-.08,.59-.16,.89-.25,.45-.13,.9-.27,1.34-.41,.27-.09,.54-.17,.81-.26,.66-.22,1.33-.45,1.99-.69,.22-.08,.45-.17,.67-.26,.49-.19,.99-.38,1.48-.58,.3-.12,.6-.25,.89-.37,.4-.17,.8-.34,1.19-.51,.31-.14,.62-.28,.94-.43,.39-.18,.77-.36,1.16-.55,.3-.15,.61-.29,.91-.44,.43-.22,.86-.44,1.29-.67,.25-.13,.5-.26,.75-.39h0c1-.54,1.99-1.12,2.98-1.71,4.34-2.62,8.52-5.72,12.53-9.28,0,0,0,0,0,0,2-1.78,3.96-3.66,5.87-5.66,0,0,0,0,.01-.01,1.91-1.99,3.77-4.09,5.58-6.3,.99-1.2,1.96-2.42,2.92-3.68,.76-1,1.51-2.03,2.25-3.06,.18-.25,.36-.51,.54-.76,.63-.89,1.25-1.8,1.86-2.72,.11-.17,.22-.33,.34-.5,.71-1.08,1.41-2.18,2.1-3.29,.14-.22,.28-.45,.42-.68,.58-.95,1.15-1.9,1.72-2.87,.14-.24,.28-.47,.41-.71,.67-1.17,1.33-2.35,1.98-3.56,.06-.11,.12-.23,.18-.34,.59-1.1,1.17-2.22,1.74-3.34,.13-.25,.26-.51,.39-.77,1.25-2.51,2.46-5.07,3.61-7.71,.1-.23,.2-.47,.3-.7,.54-1.24,1.07-2.49,1.58-3.76,.04-.09,.07-.17,.11-.26,.56-1.39,1.11-2.8,1.64-4.22,.06-.16,.12-.32,.18-.49,.48-1.29,.95-2.6,1.41-3.91,.06-.17,.12-.33,.17-.5,1-2.91,1.95-5.87,2.83-8.89,.06-.2,.12-.39,.17-.59,.88-3.03,1.69-6.1,2.45-9.23,.05-.19,.09-.38,.13-.56,.37-1.55,.73-3.11,1.06-4.68,.35-1.62,.68-3.25,.99-4.9,.24-1.27,.47-2.54,.69-3.82,0-.03,0-.06,.01-.09,.22-1.28,.43-2.57,.63-3.86,.19-1.24,.37-2.49,.55-3.74,.26-1.91,.51-3.84,.73-5.78,.13-1.12,.24-2.25,.35-3.38,.15-1.49,.28-2.99,.4-4.5,.09-1.08,.16-2.16,.23-3.25,.17-2.58,.3-5.18,.39-7.8,0-.06,0-.12,0-.17,.04-1.17,.07-2.34,.09-3.52,0-.17,0-.34,.01-.52,.02-1.28,.03-2.56,.03-3.84,0-.06,0-.12,0-.18,0-16.8-1.71-32.85-4.86-47.78-.11-.5-.21-1-.32-1.5-1.72-7.87-3.83-15.43-6.32-22.61-.47-1.35-.95-2.68-1.44-4-1.44-3.87-2.98-7.63-4.63-11.26-.89-1.95-1.8-3.86-2.74-5.73-.73-1.44-1.48-2.86-2.23-4.26-2.2-4.05-4.53-7.91-6.98-11.56-1.1-1.64-2.23-3.23-3.38-4.78-.58-.78-1.16-1.54-1.75-2.3-1.76-2.26-3.58-4.43-5.45-6.49-.62-.69-1.25-1.36-1.88-2.03-1.9-1.99-3.85-3.88-5.84-5.65-1.99-1.78-4.04-3.44-6.12-4.99-2.78-2.07-5.63-3.93-8.55-5.58C173.54,3.35,162.51,.22,151,.22c-.66,0-1.3,.04-1.92,.09-.19,.02-.38,.04-.57,.07-.44,.05-.87,.12-1.3,.2-.19,.04-.39,.07-.58,.11-.47,.1-.92,.23-1.37,.36-.11,.03-.23,.06-.34,.1-.54,.18-1.06,.38-1.57,.6-.18,.08-.35,.16-.52,.24-.34,.16-.68,.33-1.01,.51-.19,.11-.39,.22-.58,.33-.31,.19-.62,.38-.92,.59-.17,.11-.34,.22-.51,.34-.43,.3-.84,.63-1.25,.96-.19,.16-.38,.33-.56,.5-.24,.21-.47,.42-.7,.64-.21,.2-.42,.41-.62,.62-.2,.2-.39,.4-.58,.61-.21,.23-.42,.45-.63,.69-.15,.18-.3,.36-.46,.54-.43,.51-.85,1.04-1.26,1.59-.11,.15-.22,.29-.34,.44-.24,.33-.48,.67-.72,1.01-.1,.14-.19,.28-.29,.42-.25,.37-.5,.75-.75,1.13h0c-.57,.88-1.13,1.8-1.68,2.73h0c-1.78,3.04-3.48,6.32-5.22,9.66-2.5,4.79-5.11,9.68-8.25,14.12-.12,.17-.24,.33-.36,.5-.47,.65-.94,1.28-1.44,1.9-.12,.15-.24,.31-.36,.46-.61,.75-1.23,1.49-1.88,2.21-.05,.05-.1,.11-.15,.16-.58,.63-1.18,1.24-1.8,1.84-.2,.19-.41,.38-.61,.57-.51,.47-1.03,.92-1.57,1.36-.22,.18-.43,.36-.65,.53-.74,.58-1.5,1.15-2.3,1.67-1.01,.66-1.99,1.31-2.96,1.94-.17,.11-.34,.22-.51,.33-1.91,1.25-3.75,2.44-5.51,3.59-1.13,.73-2.22,1.45-3.29,2.15-.04,.03-.09,.06-.13,.08-1.08,.71-2.13,1.4-3.14,2.08-.02,.01-.03,.02-.05,.03-1.03,.69-2.03,1.36-3,2.02,0,0,0,0-.01,0-.98,.67-1.93,1.32-2.84,1.97h0c-.9,.63-1.77,1.26-2.61,1.89-.22,.16-.44,.32-.65,.49-.16,.12-.32,.24-.47,.36-.21,.16-.42,.32-.62,.47-.16,.12-.32,.25-.48,.37-.2,.15-.4,.31-.59,.46-.19,.15-.38,.3-.57,.45-.3,.24-.59,.47-.88,.71-.17,.14-.33,.27-.5,.41-.18,.15-.35,.29-.52,.44-.16,.13-.32,.27-.47,.4-.17,.15-.34,.29-.5,.44-.18,.15-.35,.31-.52,.46-.24,.22-.49,.44-.72,.66-.17,.16-.35,.32-.52,.48-.15,.14-.3,.29-.45,.43-.15,.14-.3,.29-.45,.43-.15,.14-.29,.29-.44,.43-.15,.16-.31,.31-.46,.47-.16,.16-.31,.32-.47,.49-.23,.24-.45,.48-.67,.72-.13,.14-.25,.28-.38,.42-.14,.16-.28,.32-.42,.48-.13,.15-.25,.3-.38,.44-.14,.16-.27,.33-.41,.49-.12,.14-.23,.28-.35,.43-.22,.28-.45,.57-.66,.85-.1,.14-.2,.28-.31,.41-.13,.18-.27,.36-.4,.54-.11,.15-.22,.31-.32,.46-.12,.17-.24,.35-.36,.53-.1,.15-.21,.31-.31,.46-.14,.22-.29,.44-.43,.67-.13,.21-.26,.42-.39,.63-.13,.21-.26,.43-.38,.64-.09,.16-.19,.32-.28,.49-.11,.19-.21,.38-.32,.58-.09,.17-.18,.33-.27,.5-.11,.22-.23,.44-.34,.66-.09,.17-.17,.34-.26,.51-.15,.31-.3,.63-.45,.95-.08,.17-.15,.34-.23,.51-.09,.21-.19,.42-.28,.64-.08,.18-.16,.36-.23,.55-.09,.23-.19,.45-.28,.68-.07,.17-.14,.34-.2,.51-.14,.37-.28,.75-.42,1.13-.06,.18-.12,.35-.18,.53-.08,.24-.17,.49-.25,.74-.07,.2-.13,.4-.19,.6-.08,.24-.15,.49-.23,.74-.06,.19-.12,.39-.18,.58-.1,.35-.21,.71-.31,1.07-.06,.22-.12,.45-.18,.67-.08,.3-.16,.61-.24,.91-.05,.21-.1,.42-.16,.64-.07,.28-.13,.55-.2,.83-.05,.21-.1,.43-.15,.64-.07,.33-.15,.67-.22,1.01-.04,.21-.09,.42-.13,.63-.09,.43-.17,.87-.25,1.32-.04,.22-.08,.44-.12,.66-.06,.32-.11,.64-.17,.96-.04,.23-.08,.46-.12,.7-.06,.35-.11,.71-.17,1.06-.03,.2-.06,.4-.09,.61-.08,.54-.15,1.08-.23,1.63-.03,.21-.06,.43-.08,.65-.05,.38-.1,.76-.14,1.14-.03,.25-.06,.5-.09,.76-.04,.39-.09,.78-.13,1.17-.02,.23-.05,.46-.07,.69-.06,.6-.12,1.21-.18,1.84-.02,.18-.03,.36-.05,.54-.04,.48-.08,.97-.12,1.46-.02,.26-.04,.52-.06,.78-.03,.44-.07,.88-.1,1.32-.02,.26-.04,.52-.05,.78-.04,.58-.08,1.16-.11,1.75,0,.14-.02,.28-.03,.42-.04,.69-.08,1.38-.11,2.09-.01,.26-.03,.52-.04,.77-.02,.51-.05,1.03-.07,1.55-.01,.27-.02,.55-.04,.82-.02,.58-.05,1.17-.07,1.76,0,.21-.02,.41-.02,.62-.03,.78-.05,1.58-.08,2.38,0,.24-.01,.49-.02,.73-.02,.6-.03,1.2-.05,1.81,0,.29-.01,.59-.02,.88-.01,.62-.03,1.25-.04,1.89,0,.25,0,.49-.01,.74-.01,.87-.03,1.76-.04,2.65,0,.2,0,.4,0,.59,0,.72-.02,1.46-.02,2.2,0,.31,0,.62,0,.94,0,.68,0,1.37-.01,2.06,0,.29,0,.58,0,.87,0,.97,0,1.95,0,2.95h0Zm6.24,20.69c7.92,1.56,15.72,3.61,23.35,6.17,3.91,1.31,7.74,2.74,11.47,4.28v17.41c-9.91-8.23-21.35-15.02-34.04-20.17-.31-2.54-.56-5.11-.79-7.69Zm38.03-8.78v-7.17l9.52-9.52v7.17l-9.52,9.52Zm9.52-4.99v8.81l-9.52,9.52v-8.81l9.52-9.52Zm-9.52-6.71v-6.77l9.52-9.52v6.77l-9.52,9.52Zm1.57-12.87l-3.17,3.17-3.17-3.17v-10.58c0-6.86,2.3-6.86,3.17-6.86s3.17,0,3.17,6.86v10.58Zm37.4,69.07c-6.86,5.46-13.27,11.43-19.16,17.89-5.54-8.47-12.17-16.16-19.8-22.97v-18.82c14.45,6.31,27.52,14.35,38.97,23.91Zm-42.17-62.98v6.77l-9.52-9.52v-6.77l9.52,9.52Zm0,11.3v7.17l-9.52-9.52v-7.17l9.52,9.52Zm0,11.7v8.81l-9.52-9.52v-8.81l9.52,9.52Zm-33.55,15.59c23.1,9.75,41.75,25.16,54.35,44.74-6.7,7.65-12.68,15.97-17.86,24.9-1.09-6.79-2.94-13.52-5.62-20.09-6.18-15.15-16.14-28.13-29.06-38.25-.7-3.71-1.29-7.49-1.81-11.3Zm24.91,72.72c-10.11-16.14-17.57-35.42-22.08-56.46,11.04,9.39,19.59,21.07,25.07,34.5,3.13,7.67,5.09,15.57,5.98,23.54-1.17,2.19-2.29,4.42-3.36,6.68-1.93-2.61-3.8-5.36-5.62-8.25Zm7.81,11.13c14.36-31.09,38.21-55.57,67.65-72.21v31.43c-5.81,7.81-10.74,16.36-14.63,25.62-6.03,14.35-9.23,29.47-9.63,44.85-15.81-3.36-30.72-13.56-43.39-29.69Zm70.85-91.98v-7.17l9.52-9.52v7.17l-9.52,9.52Zm9.52-4.99v8.81l-9.52,9.52v-8.81l9.52-9.52Zm-9.52-6.71v-6.77l9.52-9.52v6.77l-9.52,9.52Zm1.57-12.87l-3.17,3.17-3.17-3.17v-10.58c0-6.86,2.3-6.86,3.17-6.86s3.17,0,3.17,6.86v10.58Zm35.17,27.57v13.03c-14.12,8.12-26.6,18.54-36.73,31.04v-29.09c11.51-6.2,23.83-11.21,36.73-14.98Zm-39.94-21.47v6.77l-9.52-9.52v-6.77l9.52,9.52Zm0,11.3v7.17l-9.52-9.52v-7.17l9.52,9.52Zm0,11.7v8.81l-9.52-9.52v-8.81l9.52,9.52Zm50.22,76.32c-.77,1.23-1.56,2.43-2.35,3.62,.44-9.5,2.51-18.82,6.24-27.69,3.92-9.33,9.5-17.68,16.45-24.89-4.59,18.13-11.44,34.76-20.33,48.96Zm21.74-54.81c-8.97,8.25-16.05,18.18-20.81,29.5-4.51,10.73-6.69,22.08-6.58,33.61-7.37,9.98-15.55,17.88-24.27,23.53-1.52-16.2,.83-32.27,7.13-47.26,9.21-21.91,25.82-38.83,46.53-49.73-.6,3.5-1.25,6.96-2.01,10.37Zm2.67-14.3c-22.35,11.18-40.32,29.06-50.14,52.43-6.71,15.97-9.1,33.12-7.22,50.37-9.5,5.5-19.57,8.37-29.89,8.37-2.83,0-5.65-.22-8.44-.65,.33-15.16,3.45-30.07,9.39-44.2,15.55-36.99,48.06-62.54,87.27-73.39-.29,2.37-.61,4.73-.97,7.07Zm-31.49-36.63v-7.17l9.52-9.52v7.17l-9.52,9.52Zm9.52-4.99v8.81l-9.52,9.52v-8.81l9.52-9.52Zm-9.52-6.71v-6.77l9.52-9.52v6.77l-9.52,9.52Zm1.57-12.87l-3.17,3.17-3.17-3.17v-10.58c0-6.86,2.3-6.86,3.17-6.86s3.17,0,3.17,6.86v10.58Zm-4.77,6.09v6.77l-9.52-9.52v-6.77l9.52,9.52Zm0,11.3v7.17l-9.52-9.52v-7.17l9.52,9.52Zm0,11.7v8.81l-9.52-9.52v-8.81l9.52,9.52Zm36.03,21.62c-11.58,3.11-22.61,7.47-32.83,13v-12.15c10.77-2.95,21.92-5.05,33.34-6.24-.15,1.8-.32,3.6-.51,5.39ZM108.33,55.09c7.83-5.14,13.12-12.75,17.46-20.44,3.33,3.1,5.43,7.51,5.43,12.41,0,9.36-7.62,16.98-16.98,16.98-4.68,0-8.93-1.9-12-4.98,1.95-1.27,3.96-2.58,6.08-3.97Zm-8.79,5.73c3.68,3.94,8.91,6.41,14.71,6.41,11.13,0,20.18-9.05,20.18-20.18,0-6.11-2.74-11.59-7.05-15.29,.91-1.68,1.78-3.36,2.64-4.99,1.61-3.09,3.1-5.88,4.55-8.37,8.96,6.38,14.83,16.84,14.83,28.65,0,19.38-15.77,35.15-35.15,35.15-10.99,0-20.81-5.07-27.26-13,3.63-2.56,7.8-5.29,12.55-8.39Zm-31.16,27.72c3.43-6.85,8.47-11.89,16.02-17.46,7.04,8.73,17.8,14.33,29.86,14.33,21.14,0,38.35-17.2,38.35-38.35,0-12.96-6.47-24.44-16.35-31.38,4.17-6.43,8.37-10.12,14.75-10.12,23.67,0,46,14.47,62.87,40.75,17.45,27.18,27.06,63.87,27.06,103.34,0,5.56-.21,11.07-.58,16.51-11.49,1.17-22.73,3.24-33.58,6.17v-5.81l12.72-12.72v-46.66h-3.2v9l-4.75,4.75v-30.85h-3.2v14.28c-.88-.58-1.93-.88-3.17-.88s-2.29,.3-3.17,.88v-14.28h-3.2v30.85l-4.75-4.75v-9h-3.2v46.66l12.72,12.72v6.71c-10.32,2.97-20.27,6.71-29.75,11.21l5.74-5.74v-46.66h-3.2v9l-4.75,4.75v-30.85h-3.2v14.28c-.88-.58-1.93-.88-3.17-.88s-2.29,.3-3.17,.88v-14.28h-3.2v30.85l-4.75-4.75v-9h-3.2v46.66l11.58,11.58c-7.33,4.12-14.33,8.72-20.93,13.77-12-10.11-25.77-18.58-41.03-25.15l12.2-12.2v-46.66h-3.2v9l-4.75,4.75v-30.85h-3.2v14.28c-.88-.58-1.93-.88-3.17-.88s-2.29,.3-3.17,.88v-14.28h-3.2v30.85l-4.75-4.75v-9h-3.2v46.66l9.3,9.3c-2.31-.88-4.66-1.73-7.03-2.52-8.04-2.7-16.27-4.83-24.62-6.44-.41-5.73-.65-11.53-.65-17.39,0-34.33,1.91-50.32,7.3-61.1Z" fill="#fff"/>
      </g>
    </g>
  </g>
</svg>