<?xml version="1.0" encoding="UTF-8"?>
<svg id="_레이어_2" data-name="레이어 2" xmlns="http://www.w3.org/2000/svg" viewBox="0 0 286 284">
  <g id="Logo">
    <g id="symbol_04_01_0005_01" data-name="symbol 04 01 0005 01">
      <rect id="_사각형_392" data-name="사각형 392" width="286" height="284" fill="none"/>
      <path id="_패스_1209" data-name="패스 1209" d="m129.91,207.86c-1.38-.03-2.73-.43-3.9-1.16-6.78-4.02-12.08-10.12-15.12-17.4-1.78-4.19-2.8-8.67-2.99-13.22-.17-2.01.51-4,1.86-5.49,1.47-1.47,3.49-2.27,5.57-2.19,3.95-.02,7.96-.02,11.84-.02h5.02c.23,0,.45,0,.68,0-1.35-2.31-2.68-4.63-3.99-6.89-1.63-2.83-3.27-5.66-4.92-8.49-.75-1.31-1.08-2.82-.93-4.33.15-2.28,1.49-4.31,3.53-5.33,2.79-1.5,5.74-2.7,8.79-3.56,1.85-.43,3.73-.72,5.62-.85,2.34-.19,4.7-.19,7.04,0,1.89.14,3.77.42,5.62.85,3.05.86,6,2.05,8.79,3.56,2.04,1.03,3.38,3.06,3.53,5.34.15,1.5-.18,3.02-.93,4.33-1.65,2.82-3.29,5.65-4.92,8.49-1.3,2.26-2.64,4.59-3.99,6.89.35,0,.7,0,1.05,0h4.64c3.88,0,7.89,0,11.84.02,2.08-.07,4.1.72,5.57,2.19,1.36,1.49,2.03,3.48,1.86,5.49-.2,4.55-1.21,9.03-2.99,13.22-3.03,7.28-8.33,13.38-15.11,17.4-3.04,2.09-7.2,1.32-9.29-1.72-.13-.2-.26-.4-.37-.61-.61-.97-1.17-1.97-1.7-2.93l-.13-.23c-.81-1.45-1.69-2.91-2.54-4.32-.81-1.35-1.65-2.74-2.45-4.15-.27-.49-.53-.99-.79-1.49-.39-.76-.77-1.5-1.2-2.16-.43.66-.81,1.4-1.2,2.16-.26.5-.52,1-.79,1.49-.8,1.41-1.64,2.8-2.45,4.15-.85,1.41-1.73,2.87-2.54,4.32l-.13.23c-.54.96-1.09,1.96-1.7,2.93-1.17,2.1-3.36,3.43-5.76,3.49m-7.37-35.16c-2.39,0-4.8,0-7.19.02-.9-.05-1.79.25-2.46.85-.52.65-.77,1.49-.68,2.32.17,4.04,1.07,8.01,2.65,11.72,2.68,6.43,7.36,11.83,13.36,15.38,1.59.95,2.79.66,3.78-.92.55-.88,1.05-1.78,1.59-2.74l.13-.23c.84-1.51,1.74-3,2.61-4.45.8-1.32,1.62-2.69,2.39-4.05.25-.44.48-.89.71-1.35.77-1.69,1.82-3.25,3.1-4.6l.63-.61h2.64l.63.61c1.28,1.35,2.33,2.91,3.1,4.6.23.45.47.91.72,1.35.76,1.36,1.59,2.72,2.39,4.05.87,1.44,1.77,2.93,2.61,4.45l.13.23c.53.96,1.04,1.86,1.59,2.73.99,1.58,2.2,1.87,3.78.92,5.99-3.55,10.68-8.95,13.35-15.38,1.58-3.72,2.48-7.69,2.65-11.72.09-.83-.15-1.66-.68-2.32-.68-.6-1.56-.9-2.46-.85-3.93-.02-7.93-.02-11.8-.02h-5.02c-.3,0-.6,0-.9-.01-.61-.01-1.19-.02-1.74.02-1.2.2-2.42-.28-3.15-1.26-.54-1.11-.43-2.42.3-3.42,1.7-2.89,3.4-5.85,5.05-8.71,1.64-2.84,3.28-5.68,4.93-8.51.31-.57.43-1.22.35-1.86-.05-.78-.52-1.48-1.24-1.8-2.52-1.36-5.17-2.43-7.92-3.21-1.59-.36-3.2-.59-4.83-.71-2.1-.17-4.22-.17-6.32,0-1.62.12-3.24.35-4.82.71-2.75.78-5.41,1.86-7.92,3.21-.71.32-1.19,1.01-1.23,1.79-.09.64.04,1.29.35,1.86,1.66,2.83,3.3,5.67,4.93,8.51,1.65,2.86,3.36,5.82,5.05,8.71.73.99.85,2.31.3,3.42-.73.98-1.95,1.46-3.15,1.26-.55-.04-1.13-.03-1.74-.02-.42,0-.85.01-1.27.01h-9.26" fill="#fff"/>
      <path id="_패스_1210" data-name="패스 1210" d="m209.66,239.16H79.31c-.55,0-1.08-.19-1.51-.53-.1-.03-.32-.07-.48-.1-.55-.08-1.09-.23-1.6-.44-8.13-3.54-11.35-10.79-8.6-19.38,1.6-5.01,3.47-9.99,5.28-14.8.59-1.58,1.18-3.15,1.77-4.73,1.42-3.84,2.85-7.68,4.3-11.51,1.52-4.04,3.02-8.08,4.52-12.12,1.42-3.84,2.82-7.68,4.21-11.54,1.39-3.83,2.79-7.65,4.19-11.48,2.78-7.53,5.77-15.59,8.81-23.51.71-1.84.88-3.85.5-5.79-.48-2.8-.84-5.63-1.18-8.38l-.04-.3c-.21-1.66-.39-3.33-.58-4.99-.21-1.86-.43-3.78-.67-5.65-.11-.88-.24-1.75-.37-2.63-.26-1.8-.53-3.63-.68-5.51-3.71-.8-6.07-4.46-5.27-8.17.05-.23.11-.45.18-.67.78-2.25,2.66-3.95,4.98-4.51.62-.15,1.27-.23,1.91-.23,13.17,0,26.34,0,39.51.02h11.97c13.17,0,26.34-.02,39.51-.02.64,0,1.29.07,1.91.23,2.32.55,4.2,2.25,4.98,4.51,1.17,3.61-.81,7.49-4.43,8.66-.22.07-.45.13-.67.18-.15,1.88-.41,3.72-.68,5.51-.13.88-.26,1.75-.37,2.63-.24,1.88-.46,3.8-.67,5.65-.19,1.66-.38,3.33-.58,4.99l-.04.3c-.34,2.74-.7,5.58-1.18,8.38-.38,1.94-.21,3.94.5,5.79,3.04,7.93,6.04,15.99,8.82,23.51,1.41,3.82,2.81,7.65,4.19,11.48,1.4,3.85,2.8,7.69,4.21,11.54,1.49,4.03,2.99,8.06,4.51,12.08,1.44,3.85,2.88,7.69,4.31,11.55.58,1.58,1.17,3.15,1.77,4.72,1.81,4.82,3.68,9.8,5.29,14.81,2.75,8.6-.47,15.84-8.6,19.38-.51.21-1.05.36-1.6.44-.16.03-.38.07-.48.1-.43.34-.96.53-1.51.53m-129.65-4.86h128.95c.58-.27,1.19-.46,1.82-.55.18-.03.36-.07.53-.12,7.4-3.22,7.3-9.09,5.91-13.44-1.57-4.89-3.42-9.82-5.21-14.58-.6-1.58-1.19-3.16-1.78-4.75-1.42-3.85-2.86-7.69-4.3-11.52-1.51-4.03-3.02-8.07-4.52-12.11-1.42-3.85-2.83-7.7-4.22-11.56-1.39-3.82-2.78-7.64-4.18-11.45-2.77-7.51-5.76-15.55-8.79-23.46-1.02-2.66-1.28-5.56-.75-8.36.47-2.68.81-5.46,1.15-8.15l.04-.31c.2-1.64.39-3.29.57-4.93.21-1.88.43-3.82.68-5.73.12-.9.25-1.81.38-2.71.4-2.35.64-4.71.74-7.09.02-1.34,1.13-2.41,2.47-2.39.02,0,.04,0,.06,0,.88.17,1.78-.14,2.36-.82.42-.49.55-1.17.34-1.78-.25-.69-.84-1.2-1.56-1.35-.24-.06-.49-.08-.73-.08-13.17,0-26.34,0-39.51.02h-11.98c-13.17,0-26.34-.02-39.51-.02-.25,0-.49.02-.73.08-.72.15-1.31.66-1.56,1.35-.21.61-.08,1.29.35,1.78.58.68,1.48,1,2.36.82,1.34-.06,2.48.98,2.54,2.33,0,.02,0,.04,0,.06.09,2.38.34,4.75.73,7.09.13.9.26,1.81.38,2.71.25,1.91.46,3.85.68,5.73.18,1.65.37,3.29.58,4.93l.04.31c.34,2.69.68,5.47,1.15,8.15.53,2.8.27,5.7-.75,8.36-3.04,7.9-6.02,15.94-8.79,23.45-1.41,3.81-2.8,7.63-4.18,11.45-1.4,3.86-2.81,7.71-4.22,11.56-1.5,4.05-3.01,8.1-4.54,12.14-1.44,3.83-2.87,7.66-4.29,11.49-.59,1.59-1.18,3.17-1.78,4.76-1.79,4.76-3.64,9.68-5.2,14.57-1.39,4.35-1.5,10.22,5.91,13.44.17.05.35.09.53.12.63.09,1.25.28,1.82.55" fill="#fff"/>
      <path id="_패스_1211" data-name="패스 1211" d="m159.38,70.88c-8.23,0-14.9-6.67-14.9-14.9s6.67-14.9,14.9-14.9,14.9,6.67,14.9,14.9h0c0,8.23-6.67,14.89-14.9,14.9m0-24.11c-5.09,0-9.21,4.12-9.21,9.21s4.12,9.21,9.21,9.21c5.09,0,9.21-4.12,9.21-9.21,0-5.08-4.13-9.2-9.21-9.21" fill="#fff"/>
      <path id="_패스_1212" data-name="패스 1212" d="m122.84,46.77c-6.21,0-11.24-5.03-11.24-11.24s5.03-11.24,11.24-11.24,11.24,5.03,11.24,11.24h0c0,6.21-5.04,11.23-11.24,11.24m0-16.79c-3.07,0-5.55,2.49-5.55,5.55,0,3.07,2.49,5.55,5.55,5.55,3.07,0,5.55-2.49,5.55-5.55,0-3.07-2.49-5.55-5.55-5.55" fill="#fff"/>
      <path id="_패스_1213" data-name="패스 1213" d="m279.53,141.9c.48,44.59-22.62,88.17-59.15,113.6-92.26,63.84-217.31-1.23-217.98-113.6C2.6,41.72,105.48-25.11,197.01,15.08c49.22,21.39,83.26,73.06,82.52,126.82m-.83,0c.55-53.14-33.61-104.1-82.91-123.88C107.88-18.34,10.5,46.72,10.68,141.9c-.16,95.18,97.2,160.24,185.12,123.87,49.29-19.78,83.46-70.73,82.91-123.87" fill="#fff"/>
    </g>
  </g>
</svg>