<?xml version="1.0" encoding="UTF-8"?>
<svg id="_레이어_2" data-name="레이어 2" xmlns="http://www.w3.org/2000/svg" viewBox="0 0 264 206">
  <g id="Logo">
    <g id="symbol_08_04_0003_01" data-name="symbol 08 04 0003 01">
      <path id="_패스_1467" data-name="패스 1467" d="m160.76,7c-14.29-.02-28.41,3.15-41.32,9.26-.32-.06-.65-.09-.98-.09h-.04c-19.36.14-50.88.27-54.58.07-3-.48-5.82,1.57-6.29,4.57-.35,2.21.68,4.42,2.59,5.57,1.18.71,1.66,1,18.14,1,5.64,0,13.16-.03,23.21-.1-4.98,3.86-9.57,8.18-13.71,12.92H26.07c-3.04-.02-5.52,2.43-5.54,5.46-.02,3.04,2.43,5.52,5.46,5.54h53.46c-29.15,44.84-16.43,104.81,28.41,133.96.02.01.04.03.06.04h-50.67c-3.04,0-5.5,2.46-5.5,5.5s2.46,5.5,5.5,5.5h72.42c.33,0,.65-.03.97-.09,50.9,16.62,105.64-11.16,122.26-62.06s-11.16-105.64-62.06-122.26c-9.71-3.17-19.87-4.79-30.08-4.79m-70.71,147.15l13.77-13.77c4.89-4.78,9.8-9.55,14.38-14.6,3.47-3.82,7.23-5.23,12.37-5.12,14.89.31,29.79.12,44.68.1,2.83,0,4.96,1.08,6.16,3.66,1.9,4.07-1.12,8.55-5.83,8.57-9.93.04-19.86,0-29.79.02-3.88,0-6.62,2.58-6.6,6.14.02,3.53,2.77,6.07,6.67,6.08,10.06.01,20.12.05,30.17-.01,8.54.05,15.96-5.83,17.86-14.16.12-.68.41-1.32.84-1.86,6.32-6.38,12.63-12.75,19.05-19.03,2.08-2.03,4.74-2.15,7.31-1.05,2.52,1.08,3.62,3.21,3.66,5.96.04,2.12-.83,4.16-2.4,5.59-11.41,11.37-22.79,22.76-34.15,34.18-1.67,1.77-4.03,2.72-6.46,2.63-15.21-.06-30.43-.02-45.64-.04-3.16-.16-6.25.96-8.57,3.12-5.14,5.05-10.26,10.13-15.34,15.25-8.61-5.84-16.11-13.17-22.15-21.65m53.55-74.09c0,4.29,2.47,6.77,6.74,6.78,7.7.01,15.4.01,23.1,0,4.4,0,6.82-2.44,6.82-6.88.01-7.19.01-14.39,0-21.58v-2h18.34v2.33c0,15.28,0,30.55-.01,45.83-.02.94.13,1.89.43,2.78-2.81,2.82-5.61,5.68-8.49,8.57-3.8-4.6-8.42-7.26-14.16-7.29-17-.1-33.99-.1-50.99,0h-.12c.01-16.66.02-33.32,0-49.99v-2.23h18.34c0,8.04,0,15.87,0,23.7m12.31-23.68h11.99v18.11h-11.99v-18.11Zm4.85,134.32c-9.65,0-19.23-1.6-28.35-4.76-.56-.32-1.17-.54-1.8-.65-2.54-.94-5.02-2-7.44-3.16,3.63-3.64,7.26-7.29,10.87-10.95.92-1.03,2.25-1.6,3.63-1.54,14.96.06,29.92.03,44.88.04,4.84.17,9.54-1.65,13.01-5.03,12.2-12.11,24.4-24.21,36.44-36.48,6.23-6.35,6.73-16.89,1.57-24.13-5.2-7.12-14.61-9.74-22.73-6.33.01-15.53.01-31.07,0-46.6,0-4.67-2.38-7.05-7.04-7.05-27.88,0-55.75,0-83.63,0-4.81,0-7.11,2.32-7.12,7.16v43.35c0,5.47-.01,10.95,0,16.42,0,.86.15,1.72.45,2.53-6.5,6.32-12.9,12.74-19.29,19.16l-10.72,10.65c-21.74-42.69-4.75-94.92,37.94-116.65,42.69-21.74,94.92-4.75,116.65,37.94,21.74,42.69,4.75,94.92-37.94,116.65-12.19,6.21-25.68,9.44-39.37,9.44" fill="#fff"/>
      <path id="_패스_1468" data-name="패스 1468" d="m74.04,167.66c0-3.04-2.46-5.5-5.5-5.5H28.35c-3.04,0-5.51,2.45-5.52,5.48,0,3.04,2.45,5.51,5.48,5.52h40.22c3.04,0,5.5-2.46,5.5-5.5h0" fill="#fff"/>
      <path id="_패스_1469" data-name="패스 1469" d="m49.93,111.85c0-3.04-2.46-5.5-5.5-5.5H7.63c-3.04-.02-5.51,2.43-5.53,5.47-.02,3.04,2.43,5.51,5.47,5.53h36.87c3.04,0,5.5-2.46,5.5-5.5" fill="#fff"/>
      <rect id="_사각형_522" data-name="사각형 522" width="264" height="206" fill="none"/>
    </g>
  </g>
</svg>