<?xml version="1.0" encoding="UTF-8"?>
<svg id="_레이어_2" data-name="레이어 2" xmlns="http://www.w3.org/2000/svg" viewBox="0 0 139 172">
  <g id="Logo">
    <g id="symbol_17_01_0004_01" data-name="symbol 17 01 0004 01">
      <path id="_패스_1166" data-name="패스 1166" d="m128.05,37.68c-6.12-3.43-10.05-8.28-12.92-14.56-1.74-3.81-4.19-6.08-7-6.71-3.14-.7-5.93,1.03-9.13,3.05-4.61,2.75-8.3,6.81-10.57,11.68-1.58,3.61-.9,4.59-2.82,7.62-2.24,3.54-4.18,3.78-6.72,6.58-1.2,1.34-2.2,2.84-2.97,4.47-.39-1.93-1.05-3.8-1.94-5.56-1.85-3.58-3.65-4.3-4.9-8.52-.97-3.28-.13-3.66-1.25-7.69-.88-3.04-2.19-5.94-3.89-8.61-1.01-1.71-2.18-3.32-3.51-4.79-5.55-6.19-11.61-6.3-16.39.31-4.11,5.69-9.38,9.03-15.94,11.17-3.99,1.29-6.52,3.46-7.46,6.19-1.06,3.04.34,6.01,1.99,9.42,2.2,4.9,5.82,9.02,10.39,11.84,3.4,1.98,4.46,1.42,7.25,3.67,3.26,2.63,3.28,4.59,5.77,7.43,1.7,1.9,3.76,3.45,6.05,4.56-2.49.42-4.89,1.26-7.1,2.49-3.51,1.99-4.16,3.81-8.33,5.21-3.24,1.1-3.66.27-7.64,1.54-3.01.99-5.86,2.41-8.46,4.21-1.67,1.07-3.23,2.31-4.66,3.69-5.98,5.77-5.86,11.84.93,16.37,5.84,3.9,9.38,9.03,11.75,15.52,1.44,3.93,3.71,6.39,6.47,7.23,3.08.94,6-.57,9.34-2.34,4.81-2.38,8.8-6.15,11.44-10.82,1.86-3.47,1.25-4.51,3.39-7.38,2.51-3.36,4.46-3.45,7.21-6.04,1.12-1.07,2.11-2.28,2.93-3.6-4.6,14.94-11.41,28.53-21.11,39.08-10.63,11.56-21.31,17.45-28.03,20.23-.37,1.31-.26,2.7.31,3.93,1.08,1.81,3.57,1.51,4.69,1.38,10.5-1.26,20.25-11.44,20.25-11.44,12.21-11.91,20.44-27.3,23.58-44.07.74-3.73,1.25-7.51,1.52-11.3.33,2.43,1.07,4.78,2.18,6.96,1.86,3.58,3.67,4.29,4.92,8.51.97,3.28.12,3.68,1.23,7.72.87,3.05,2.19,5.95,3.9,8.62,1.01,1.71,2.19,3.31,3.53,4.78,5.58,6.16,11.72,6.2,16.59-.51,4.18-5.77,9.53-9.2,16.18-11.42,4.04-1.35,6.61-3.56,7.58-6.32,1.08-3.07-.32-6.04-1.97-9.45-2.2-4.9-5.85-9.01-10.46-11.78-3.43-1.96-4.51-1.38-7.31-3.6-3.29-2.61-3.29-4.58-5.8-7.4-2.01-2.2-4.49-3.92-7.25-5.02,3.04-.54,5.93-1.69,8.51-3.39,3.35-2.25,3.86-4.12,7.9-5.84,3.14-1.34,3.62-.55,7.49-2.13,2.92-1.22,5.65-2.86,8.11-4.85,1.59-1.2,3.05-2.55,4.36-4.04,5.52-6.22,4.93-12.26-2.19-16.25m-36.28,29.53c-2.29,4-4.79,5.16-5,6.05-.06.05-.12.1-.17.17-.6.9,1.69,2.51,3.45,7.46,1.6,4.53.68,7.77-2.48,9.98-1,.72-2.16,1.19-3.38,1.34-2.76.32-4.97-1.2-6.6-2.38-4.16-3-4.76-5.92-5.76-5.65-.06.02-.12.05-.18.08-.93-.3-2.53,1.91-7.19,3.77-4.46,1.78-7.7,1-9.98-2.03-.75-.96-1.23-2.09-1.42-3.29-.39-2.71,1.07-4.96,2.2-6.62,2.88-4.23,5.76-4.96,5.46-5.93-.08-.19-.22-.35-.39-.46-1.35-2.07-2.48-4.28-3.39-6.58-1.61-4.53-.71-7.73,2.4-9.89.98-.71,2.13-1.16,3.34-1.3,2.73-.29,4.92,1.25,6.53,2.45,1.94,1.51,3.63,3.31,5.01,5.34.08.24.24.45.45.58.95.49,2.3-1.96,7.01-4.27,4.31-2.11,7.6-1.59,10.1,1.25.82.9,1.39,1.99,1.67,3.17.6,2.68-.68,5.03-1.68,6.77" fill="#fff"/>
      <rect id="_사각형_517" data-name="사각형 517" width="139" height="172" fill="none"/>
    </g>
  </g>
</svg>