<?xml version="1.0" encoding="UTF-8"?>
<svg id="_레이어_2" data-name="레이어 2" xmlns="http://www.w3.org/2000/svg" viewBox="0 0 145 72">
  <g id="Tag">
    <g id="symbol_03_15_0001_01" data-name="symbol 03 15 0001 01">
      <rect id="_사각형_70" data-name="사각형 70" width="145" height="72" fill="none"/>
      <path id="_패스_460" data-name="패스 460" d="M98.97,68.14l24.06-6.08-.13-.53-27.15,3.84c.22-.46,.27-.81,.45-.9,13.1-6.33,26.21-12.64,39.34-18.91-.25-.31-.48-.64-.68-.98-.12,.06-.24,.12-.36,.17-11.92,4.53-23.91,8.87-35.89,13.23-1.25,.33-2.51,.6-3.79,.78l18.69-13.67-.61-.87-21.24,12.58-.54-.83c4.09-4.24,8.12-8.54,12.26-12.74l-.91-.63s-2.54,1.61-4.9,3.17c-2.56,1.69-2.68,1.86-4.52,3.05-1.79,1.16-3.27,2.03-4.21,2.57l-.77-.7,13.49-21.71-.75-.46-16.44,21.73-.71-.48,12.68-35.88-1.46-.32h0s-.64,1.32-.67,1.38c-.62,1.28-2.49,5.18-3.05,6.38-3.32,7.04-5.79,12.6-9.9,21.44-.48,1.03-1.09,1.99-1.64,2.98l-.72-.26,4.04-24.35-.64-.11c-2.31,8.64-4.63,17.27-6.94,25.91l-.86-.02c-.73-15.59-1.47-31.18-2.2-46.78h-.51l-2.47,44.94-.93,.02-5.8-24.32-.78,.15c1.22,8.65,2.45,17.3,3.68,25.96l-.99,.27L44.96,6.18l-.88,.37c4.97,13.53,9.94,27.07,14.91,40.6l-.96,.44-13.17-18.44-.85,.6,13.02,21.93-.73,.61L21.42,20.7l-.5,.54c10.23,11.25,20.46,22.51,30.68,33.76l-.55,.65-21.93-13.49-.37,.55,21.61,16.39-.49,.81L6.39,44.32l-.31,.82,39.93,18.72-.3,.7-24.14-4.1-.16,.84,25.26,6.81-.12,.96L.49,71.31l.02,.44H144.13v-.4s-45.13-2.18-45.13-2.18c0-.35-.02-.69-.03-1.04Z" fill="#fff"/>
    </g>
  </g>
</svg>