<?xml version="1.0" encoding="UTF-8"?>
<svg id="Layer_2" data-name="Layer 2" xmlns="http://www.w3.org/2000/svg" viewBox="0 0 214 214">
  <g id="Logo">
    <g id="symbol_17_03_0002_01" data-name="symbol 17 03 0002 01">
      <path id="_합치기_19" data-name="합치기 19" d="m12.7,106.72c-.03-17.16,4.38-34.04,12.78-49v7.11c0,9.72,7.89,17.6,17.61,17.61,9.72-.01,17.6-7.89,17.61-17.61v-8.59h8.6c9.72-.01,17.6-7.89,17.62-17.61-.01-9.72-7.89-17.6-17.62-17.61h-8.35c15.66-9.52,33.64-14.54,51.97-14.51,55.35,0,100.21,44.87,100.21,100.21,0,6.89-.7,13.76-2.1,20.5h-114.76c-12.32,0-22.3,9.98-22.3,22.3h0c0,12.32,9.98,22.3,22.29,22.31h25.45v34.72c-2.9.25-5.83.39-8.79.39-55.35,0-100.21-44.86-100.22-100.2h0Zm109.08-7.51c0,12.35,10.02,22.37,22.37,22.37h0c12.35,0,22.37-10.01,22.37-22.37,0-12.35-10.01-22.37-22.36-22.37h0c-12.35,0-22.37,10.01-22.37,22.37h0s0,0,0,0Zm44.53,72.6h22.78c-6.56,7.67-14.24,14.31-22.78,19.7v-19.7Z" fill="#fff"/>
      <rect id="_사각형_222" data-name="사각형 222" width="214" height="214" fill="none"/>
    </g>
  </g>
</svg>