<?xml version="1.0" encoding="UTF-8"?>
<svg id="Layer_2" data-name="Layer 2" xmlns="http://www.w3.org/2000/svg" viewBox="0 0 288 288">
  <g id="Logo">
    <g id="symbol_01_03_0006_01" data-name="symbol 01 03 0006 01">
      <path id="_합치기_41" data-name="합치기 41" d="m66.92,248.24c0-1.81.27-3.62.79-5.36-1.41-1.1-2.79-2.22-4.16-3.37-2,1.04-4.22,1.58-6.47,1.58-7.81.01-14.15-6.31-14.16-14.12,0-2.52.67-4.99,1.94-7.17-8.07-10.62-14.35-22.5-18.6-35.15-2.52,1.32-4.97,2.79-7.37,4.32-6.16,3.95-10.71,2.39-12.82-4.56-.11-.24-.25-.46-.41-.67v-7.6c1.61-3.8,1.11-7.6,0-11.4v-9.78c.38-1.19.71-2.39,1.15-3.56,1.83-4.88,7.14-6.3,11.27-3.07.65.5,1.29,1.01,1.93,1.53-.05-1.36-.08-2.73-.08-4.1-.02-20.04,4.9-39.78,14.32-57.47-.14-.5-.25-1.02-.32-1.53-.41-3.18.05-6.47.11-9.72.04-2.24.1-4.48.08-6.71-.05-4.51-.37-9.03-.12-13.52.16-3.03,1.36-5.91,4.64-7.06,3.25-1.15,5.89,0,8.43,2.18,2.87,2.49,5.9,4.78,9.07,6.85,0,0,.01.02.03.02,4.21,2.7,8.34,2.61,12.46-.71,3.07-2.47,6.29-4.74,9.64-6.8,4.64-2.86,9.5-5.32,14.55-7.37-.05-.34-.11-.68-.16-1.01-.33-1.63-.54-3.29-.61-4.95-.08-5.52,4.26-10.08,9.77-10.29,2.04-.18,4.1-.05,6.1.38,3.94.93,7.51,3.01,10.26,5.97.25.25.49.5.73.77,2.37,2.61,4.61,5.44,7.4,7.52,2.29,1.71,5.26,3.38,7.98,3.47,17.99.59,28.91,11.61,38.3,25.1,1.46,1.76,1.45,4.31-.03,6.06-8.1,9.78-17.72,17.26-30.56,19.71-1.51.27-3.05.4-4.59.39-6.99,0-12.72,2.72-17.68,7.58-4.92,4.83-11.08,6.63-17.87,6.34-5.51-.19-9.87-4.71-9.85-10.23.09-1.65.27-3.29.53-4.91-9.23-1.69-17.51-5.38-25.49-9.9-3.58-2.03-7.46-1.39-10.98.34-3.46,1.76-6.82,3.71-10.06,5.83-1.53,1.02-3.33,1.58-5.17,1.61-8.26,16.1-12.56,33.94-12.54,52.04,0,3.59.18,7.15.5,10.66,4.09,2.49,8.11,2.18,12.13-1.06,7.28-5.85,15.38-10.59,24.04-14.07-.35-2.04-.59-4.09-.69-6.15.05-5.67,4.27-9.72,9.91-10.14,6.99-.5,12.46,2.21,17.04,7.26,2.25,2.47,4.55,4.9,6.92,7.26,2.45,2.49,5.8,3.89,9.3,3.88,10.92,0,19.5,4.96,26.67,12.58,3.51,3.72,6.39,8.05,9.47,12.18,1.68,2.26,1.38,4.51-.37,6.7-9.39,11.76-20.8,19.71-36.54,19.82-4.3.1-8.42,1.75-11.59,4.66-3.9,3.38-7.69,6.94-12.93,8.15-4.17.96-8.42,1.68-12.46-.41-4.94-2.56-6.24-6.29-4.95-13.68-3.12-.73-6.2-1.62-9.23-2.67-4.89-1.87-9.65-4.04-14.27-6.5-2.12-1.25-4.53-1.94-6.99-2.01,3.87,11.46,9.54,22.24,16.79,31.93,7.06-3.35,15.5-.35,18.85,6.71,1.93,4.07,1.81,8.83-.33,12.8.78.65,1.56,1.29,2.36,1.92,7.01-7.55,18.81-7.98,26.36-.97,7.55,7.01,7.98,18.81.97,26.36s-18.81,7.98-26.36.97c-3.81-3.54-5.97-8.5-5.96-13.7h-.01Zm11.79-7.69c-2.19,1.96-3.44,4.75-3.44,7.68v.04c.03,5.69,4.65,10.29,10.34,10.3,4.99-.02,9.26-3.58,10.17-8.49.11-.61.17-1.23.18-1.85,0-5.7-4.62-10.33-10.32-10.34-2.55,0-5.02.94-6.92,2.65h0Zm-22.01-19.43c-3.05.21-5.42,2.74-5.43,5.8,0,.23.01.47.04.7.31,2.54,2.24,4.58,4.76,5.02.33.06.67.1,1.01.1,2.94,0,5.42-2.2,5.78-5.12.03-.23.04-.46.05-.69,0-3.21-2.61-5.82-5.82-5.82-.13,0-.26,0-.39.02Zm-12.82-45.86c8.6,4.83,17.96,8.17,27.67,9.88,4.64.79,5.83,3.68,3.74,7.93-.84,1.71-1.37,3.58-2.17,5.72,1.52.12,2.41.27,3.29.24,3.75-.1,7.31-1.67,9.91-4.38,5.69-5.98,13.58-9.38,21.83-9.41,2.08-.04,4.14-.31,6.16-.8,8.29-1.94,14.5-7.06,20.37-13.79-3.26-3.61-6.18-7.32-9.59-10.52-4.75-4.53-10.96-7.22-17.52-7.58-4.29-.44-8.46-1.7-12.27-3.73-3.02-1.53-5.32-4.5-7.94-6.82-2.74-2.43-5.3-5.13-8.31-7.15-.84-.56-2.16-.42-3.48-.28-.6.06-1.19.12-1.74.12.34,1.61.67,3.21,1,4.82.04.08.08.16.14.24,2.37,4.67,1.61,6.78-3.34,8.77-8.83,3.52-17.16,8.19-24.77,13.88-5.89,4.42-10.95,5.91-16.62,4.48-2.53-.69-4.96-1.74-7.19-3.11-.67-.39-1.32-.81-1.96-1.23-1.96-1.28-3.82-2.65-5.6-3.87v21.31c1.46-.88,3.04-1.88,4.66-2.79,1.13-.63,2.28-1.21,3.43-1.74,2.53-1.2,5.22-2.03,7.99-2.47.97-.14,1.94-.21,2.92-.21,3.29,0,6.53.86,9.39,2.48Zm27.45-97.49c8.84,4.95,18.45,8.36,28.43,10.1,4.07.66,5.33,3.78,3.53,7.52-.87,1.81-1.52,3.73-2.45,6.04,1.24.17,2.5.26,3.75.27,3.56-.2,6.92-1.72,9.41-4.27,5.71-5.74,12.5-9.33,20.68-9.42,11.87-.14,20.68-6.03,28.54-14.38-1.33-1.69-2.54-3.38-3.9-4.93-6.64-7.54-14.18-13.18-24.91-13.54-8.13-.28-14.53-4.42-19.54-10.8-1.46-1.84-3.07-3.55-4.82-5.12-1.01-.94-2.25-1.62-3.59-1.98-1.83-.43-3.74-.34-5.52.25.2.54.37,1.05.54,1.55.34,1.08.75,2.14,1.23,3.17,2.42,4.83,1.71,6.98-3.35,9-9.38,3.83-18.22,8.86-26.31,14.96-2.41,1.73-5.17,2.92-8.08,3.49-2.45.49-4.99.39-7.4-.27-2.8-.82-5.46-2.05-7.89-3.66-.47-.3-.95-.61-1.42-.91-1.76-1.17-3.43-2.48-4.97-3.6v21.43c1.59-.96,3.15-2,4.79-2.89.63-.35,1.27-.68,1.91-.99,3.79-2.05,8-3.19,12.3-3.34,3.16,0,6.26.8,9.03,2.32Zm109.22,184.72h0c-2.75-1.42-4.61-4.11-4.98-7.18-.19-2.07-.01-4.15.52-6.16-.54-.27-1.09-.5-1.67-.67-7.81-1.59-15.29-4.52-22.1-8.66-3.81-2.47-8.65-2.7-12.68-.62-3.55,1.78-7,3.76-10.32,5.94-5.11,3.23-10.48,1.39-11.72-4.47-.61-2.86-.32-5.91-.36-8.88-.04-3.66-.05-7.34.02-11,.08-4.14-.23-8.37.48-12.4,1.12-6.31,7.2-8.04,12.18-3.95,3.17,2.69,6.49,5.19,9.95,7.49,4.04,2.59,8.08,2.43,12.02-.75,6.91-5.57,14.57-10.14,22.75-13.59.57-.24,1.09-.58,1.78-.94-1.37-4.91-1.84-9.51,2.14-13.11,4.22-3.83,9.44-3.9,14.29-1.99,3.49,1.37,6.59,3.95,9.53,6.4,2.83,2.36,4.99,5.54,7.89,7.78,2.05,1.58,4.84,3.05,7.31,3.08,7.98.07,15.73,2.68,22.11,7.47,8.69-13.87,14.29-29.45,16.4-45.68-.46.13-.93.27-1.4.39-2.55.62-5.15.96-7.77,1.01-5.84.19-11.01,1.89-15.26,6.02-4.46,4.57-10.42,7.38-16.78,7.92-8.67.72-14.2-5.28-12.35-13.83.07-.33.12-.68.21-1.2-2.41-.47-4.78-1.1-7.1-1.88-5.59-2.28-11.24-4.51-16.57-7.3-4.31-2.26-8.45-2.68-12.69-.61-3.55,1.79-7,3.77-10.33,5.93-5.36,3.37-10.74,1.34-11.92-4.9-.51-2.71-.23-5.56-.24-8.36-.01-3.67.02-7.34.07-11.01.05-3.96-.3-7.99.31-11.87,1.08-6.89,7.09-8.82,12.47-4.4,3.04,2.56,6.21,4.96,9.5,7.18,4.21,2.76,8.34,2.64,12.48-.71,7.32-5.87,15.46-10.64,24.16-14.15-.37-2.08-.6-4.19-.69-6.3.13-5.66,4.37-9.67,10.04-10.02,6.87-.43,12.28,2.27,16.81,7.22,2.44,2.67,4.73,5.59,7.61,7.69,2.37,1.72,5.48,3.31,8.3,3.38,2.31.05,4.61.32,6.88.79-5.09-16.16-13.7-30.99-25.21-43.42-8.71,5.5-20.22,2.89-25.71-5.81-3.03-4.8-3.71-10.71-1.84-16.07-.85-.48-1.7-.95-2.56-1.41-5.36,5.68-14.3,5.95-19.99.59-2.82-2.66-4.42-6.36-4.44-10.23,0-.03,0-.05,0-.08,0-7.82,6.34-14.16,14.16-14.16s14.16,6.34,14.16,14.16c0,.75-.07,1.51-.19,2.25,1.1.59,2.19,1.18,3.27,1.8,7.25-7.32,19.06-7.39,26.39-.14,6.22,6.16,7.33,15.81,2.66,23.21,13.91,14.93,23.88,33.1,29,52.86,4.16,2.28,7.94,5.17,11.23,8.59,3.49,3.79,6.76,7.77,9.8,11.93,1.66,1.85,1.63,4.66-.07,6.47-4.85,6.06-10.83,11.13-17.61,14.92-1.77,19.48-8.21,38.25-18.76,54.72,1.61,1.59,3.17,3.28,4.68,5.06,1.87,2.2,3.51,4.6,5.17,6.97,1.43,2.05,1.67,4.25-.02,6.27-8.35,9.96-18.2,17.57-31.44,19.74-2.22.36-4.5.34-6.76.53-4.64.33-9.03,2.27-12.39,5.48-3.6,3.37-7.44,6.38-12.41,7.43-2.06.5-4.18.79-6.3.86-2.14.04-4.24-.51-6.08-1.6h0Zm-25.24-31.5c8.6,4.84,17.96,8.16,27.69,9.81,4.27.7,5.58,3.66,3.69,7.59-.54,1.11-.97,2.28-1.43,3.52-.28.78-.58,1.58-.91,2.44,5.36.88,9.45-.38,12.76-3.69,6.12-6.23,14.46-9.8,23.2-9.93.13,0,.25-.02.37-.02,10.88-.33,18.79-6.56,26.21-14.37-2.16-2.3-4.18-4.59-6.25-6.78-.98-1.03-1.97-2.05-3-3.02-1-.95-2.05-1.84-3.16-2.66-4.54-3.48-10.05-5.46-15.76-5.66-8.15-.29-14.68-3.98-19.85-10.23-1.64-2.05-3.42-3.97-5.34-5.76-2.41-2.32-5.97-3.01-9.07-1.74.43,1.52.95,3.01,1.56,4.46,2.6,5.28,1.99,7.17-3.47,9.33-8.81,3.34-17.06,8.01-24.46,13.83-7.42,6.01-15.4,6.15-23.64,1.36-2.76-1.61-5.33-3.56-7.68-5.16v21.17c-.21,0,0,.07.14,0,1.48-.87,2.93-1.8,4.42-2.63,4.68-2.61,9.48-4.41,14.37-4.41,3.37,0,6.68.88,9.61,2.54h0Zm26.47-88.16c8.69,4.86,18.13,8.22,27.93,9.94,4.28.74,5.51,3.63,3.59,7.61-.86,1.8-1.46,3.72-2.34,6,1.79.08,2.85.23,3.9.16,3.56-.21,6.91-1.77,9.36-4.35,5.58-5.61,12.25-9.23,20.19-9.29,4.29-.01,8.53-.85,12.51-2.45,3.01-1.23,5.85-2.84,8.45-4.79,2.86-2.15,5.51-4.55,7.94-7.18-1.44-1.82-2.65-3.53-4.04-5.07-1.62-1.82-3.34-3.54-5.15-5.17-2.81-2.58-6.04-4.67-9.56-6.16-2.85-1.16-5.87-1.8-8.94-1.9-8.24-.3-14.88-3.94-20.12-10.28-1.69-2.12-3.54-4.11-5.55-5.93-2.43-2.25-5.96-2.83-8.98-1.48.93,2.2,1.75,4.16,2.59,6.11,1.31,3.04.56,5.23-2.38,6.76-.73.37-1.47.69-2.23.98-9.15,3.7-17.75,8.62-25.59,14.62-2.02,1.51-4.3,2.64-6.73,3.32-6.87,1.87-12.75-.92-18.32-4.58-1.77-1.16-3.43-2.49-4.89-3.56v21.38c1.42-.86,3-1.87,4.64-2.79,4.65-2.59,9.44-4.41,14.31-4.41,3.3,0,6.54.87,9.41,2.5Zm29.11-99.02c-2.4,1.63-4,4.2-4.41,7.08-.08.49-.11.98-.12,1.47,0,5.72,4.62,10.36,10.34,10.36s10.36-4.62,10.36-10.34c0-5.71-4.62-10.36-10.34-10.36-2.08,0-4.11.62-5.83,1.79Zm-27.43-13.78c-2.83,1.53-3.88,5.06-2.35,7.89,1.01,1.88,2.98,3.05,5.11,3.05.57,0,1.13-.09,1.67-.25,2.46-.74,4.15-3,4.15-5.57,0-.63-.1-1.25-.31-1.85-.8-2.37-3.01-3.97-5.51-3.97-.96,0-1.91.24-2.76.7h0Zm10.13,196.89v-9.27c-.02-2.3,1.84-4.19,4.14-4.21,2.3-.02,4.19,1.84,4.2,4.14v9.34c-.02,2.3-1.9,4.16-4.2,4.14-2.28-.02-4.12-1.86-4.14-4.14Zm29.86-.11s-.1-.01-.14-.02c-2.44-.07-4.35-2.1-4.28-4.54,0-.07,0-.13.01-.2.11-2.46,2.17-4.38,4.63-4.29,2.24.07,4.11,1.75,4.41,3.98.03.18.05.36.05.54,0,2.5-2.03,4.53-4.53,4.53h-.05s-.07,0-.1,0Zm-141.09-55.51v-9.27c.02-2.3,1.9-4.16,4.2-4.14,2.28.02,4.12,1.86,4.14,4.14v9.27c-.02,2.3-1.9,4.16-4.2,4.14-2.28-.02-4.12-1.86-4.14-4.14Zm29.83-.05c-2.54-.09-4.52-2.22-4.43-4.76v-.06c.17-2.46,2.21-4.36,4.67-4.35,2.45.16,4.39,2.13,4.5,4.59-.07,2.52-2.1,4.53-4.62,4.59-.05,0-.08,0-.12,0Zm108.18-31.04v-9.27c0-2.3,1.87-4.17,4.17-4.17s4.17,1.87,4.17,4.17v9.27c0,2.3-1.87,4.17-4.17,4.17s-4.17-1.87-4.17-4.17Zm25.3-6c.02-2.54,2.1-4.59,4.64-4.57h.05c2.44.17,4.36,2.15,4.45,4.6-.06,2.46-2.03,4.44-4.48,4.51h-.1c-2.47.05-4.51-1.91-4.56-4.38,0-.05,0-.11,0-.17h0Zm-138.9-58.07v-9.27c0-2.3,1.87-4.17,4.17-4.17s4.17,1.87,4.17,4.17v9.27c0,2.3-1.87,4.17-4.17,4.17s-4.17-1.87-4.17-4.17h0Zm33.26-2.19c-2.44-.15-4.39-2.12-4.51-4.56.04-2.56,2.13-4.61,4.69-4.59,2.46.06,4.44,2.04,4.49,4.5-.03,2.52-2.04,4.57-4.56,4.65h-.1Z" fill="#fff"/>
      <rect id="_사각형_370" data-name="사각형 370" width="288" height="288" fill="none"/>
    </g>
  </g>
</svg>