<?xml version="1.0" encoding="UTF-8"?>
<svg id="_레이어_2" data-name="레이어 2" xmlns="http://www.w3.org/2000/svg" viewBox="0 0 193 218">
  <g id="Logo">
    <g id="symbol_07_02_0002_01" data-name="symbol 07 02 0002 01">
      <rect id="_사각형_232" data-name="사각형 232" width="193" height="218" fill="none"/>
      <path id="_패스_960" data-name="패스 960" d="M190.01,58.47c0-.06,0-.12,0-.19v-.35s-.02,.03-.02,.03c-.09-1.39-.87-2.64-2.08-3.34L102.26,5.37v-.03s-2.29-1.33-2.29-1.33c-1.47-1.05-3.45-1.06-4.93-.01C66.04,20.81,37.01,37.58,7.96,54.3c-1.56,.72-2.49,2.34-2.32,4.05,.07,8.01,.04,16.02,.04,24.03h0v29.38h.1c-.04,2.64-.09,5.5-.11,8.23-.02,2.63-.01,7.06,.01,15.93,.03,11.82,.09,23.31,.09,23.31,.13,.71,.35,1.41,.67,2.06,.32,.56,.78,1.04,1.32,1.4,11.9,8.61,85.26,49.4,87.57,50.74,1.3,.91,3.04,.9,4.33-.03,29.1-16.86,58.22-33.68,87.37-50.45,1.55-.74,2.47-2.37,2.3-4.08-.06-10.13,0-20.25-.05-30.38-.01-2.23-.07-4.98-.09-10.47,0,0-.02-5.69,0-12.01,.03-7.85,.29-24.98,.82-47.56Zm-16.81-2.66l-52.32,7.37-15.23-46.2,67.54,38.83Zm2.6,103.74c-6.54,3.8-12.42,7.3-18.41,10.58-.75,.41-2.27-.07-3.18-.58-9.59-5.45-19.14-10.98-28.69-16.5-16.69-9.65-33.39-19.28-50.09-28.91-.89-.51-2.33-.97-3.12-.61-2.46,1.13-4.72,2.68-7.42,4.27l82.9,47.89c-6.02,3.51-11.49,6.59-16.84,9.87-1.93,1.18-3.38,1-5.26-.1-9.32-5.49-18.73-10.82-28.09-16.23-16.6-9.6-33.19-19.19-49.79-28.78-.99-.57-2.54-1.11-3.42-.73-2.58,1.26-5.09,2.67-7.51,4.22l82.98,47.92c-7.12,4.12-13.74,7.85-20.22,11.78-1.31,.93-3.07,.9-4.35-.07-26.04-15.09-52.11-30.13-78.2-45.14-1.95-.89-3.11-2.91-2.89-5.04,.08-14.03,.07-28.07,.06-42.1v-21.88c.05-.41,.07-.83,.06-1.24-.14-8.25,.01-16.51-.11-24.77-.21-1.82,.78-3.57,2.45-4.34,7.2-4.03,14.31-8.2,21.45-12.33,18.92-10.93,37.84-21.86,56.77-32.77,.26-.15,.55-.3,.85-.45l4.83,14.66c-18.32,10.58-36.63,21.17-54.94,31.77-3.35,1.91-6.15,4.64-8.15,7.94-3.32,5.52-5.12,14.09-1.62,20.49,1.76,3.21,5.1,6.36,6.64,7.8,.95,1.06,2.06,1.98,3.29,2.71,7.65,3.91,15.2,3.38,22.51-.69,8.7-4.84,17.32-9.85,25.87-14.94,1.55-1.17,3.7-1.15,5.23,.04,2.68,1.75,5.55,3.24,8.33,4.84l27.47,15.76,.03-.04,3.27,1.89c3.3,2.25,6.93,4.04,10.41,6.04h.02s17.56,10.13,17.56,10.13c3.01,1.76,5.43,3.28,7.17,4.4,2.46,1.59,6.65,4.36,6.65,4.36,0,0,.16,5.86,.21,7.79,.09,3.27,.18,7.98,.18,14.05-2.25-1.27-3.81-2.14-5.36-3.03-20.35-11.75-30.95-17.86-48.99-28.25-8.7-5.01-16.13-9.22-21.8-12.44-3.59,.61-6.97,2.08-9.86,4.29l81.11,46.43Zm4.91-39.88c-1.16-.53-2.34-1.09-3.54-1.69-.64-.32-1.27-.64-1.88-.96l.03-.04-38.68-22.08-.03,.05c-4.63-2.66-9.26-5.32-13.89-7.98-5.63-3.23-11.27-6.46-17.44-10-5.22-3.2-7.71-3.6-9.01-3.26-.21,.06-2.63,.74-2.63,.74-4.91,2.35-8.78,4.52-11.38,6.06-4,2.36-9.73,5.53-17.26,9.9-3.23,1.87-6.53,3.24-10.35,2.67-7.55-1-12.86-7.93-11.87-15.48,.58-4.42,3.27-8.29,7.21-10.38,17.76-10.27,35.52-20.54,53.29-30.81l10.78,32.7c.63,1.92,2.55,3.11,4.55,2.83l62.35-8.78-.13,2.9c-.14,3.09-.25,15.06-.12,53.6h0Z" fill="#fff"/>
    </g>
  </g>
</svg>