<?xml version="1.0" encoding="UTF-8"?>
<svg id="_레이어_2" data-name="레이어 2" xmlns="http://www.w3.org/2000/svg" viewBox="0 0 215 139">
  <g id="Logo">
    <g id="symbol_14_02_0005_02" data-name="symbol 14 02 0005 02">
      <path id="_패스_1111" data-name="패스 1111" d="m159.91,77.77c-2.27-17.78-4.1-34.29-.16-50.73,2.19-9.12,7.03-17.05,17.58-21.25,6.14-2.45,11.15-2.17,14.1.5,2.8,2.53,2.86,6.7,2.89,8.52.27,17.26,3.96,38.15,5.93,46.35,3.42,14.25,7.27,13.62,9.36,27.33,1.01,6.64,2.7,17.71-.75,25.83-8.5,20.02-48.78,23.5-74.87,20.96-35.04-3.41-48.56-18.09-84.22-20.21-4.02-.24-30.23-1.63-30.23-1.63,0,0-10.37.96-14.32-3.93-.96-1.23-1.57-2.69-1.78-4.23-.32-1.75-.17-3.56.45-5.23,2.12-5.51,11.93-8.28,12.65-8.47,25.3-6.5,56.54-2.97,56.54-2.97,0,0,41.55,4.69,78.33-.56,2.97-.42,7.58-1.39,8.96-4.62.88-2.05.15-4.3-.45-5.66" fill="#fff"/>
      <path id="_패스_1112" data-name="패스 1112" d="m89.86,130.93c-1.58,2.43-4.12,1.59-6.25,1.6-20.52.06-41.04.05-61.56-.02-4.12-.01-8.58-.38-8.66-5.64-.07-4.76,3.1-8.12,7.94-8.38,23.14-1.2,46.28,2.46,67.93,10.74.36.14.4,1.09.61,1.7" fill="#fff"/>
      <rect id="_사각형_508" data-name="사각형 508" width="215" height="139" fill="none"/>
    </g>
  </g>
</svg>