<?xml version="1.0" encoding="UTF-8"?>
<svg id="Layer_2" data-name="Layer 2" xmlns="http://www.w3.org/2000/svg" viewBox="0 0 390 181">
  <g id="Logo">
    <g id="symbol_12_02_0001_01" data-name="symbol 12 02 0001 01">
      <path id="_패스_293" data-name="패스 293" d="m362.39,162.47h-97.89c-1.53,0-2.78-1.24-2.78-2.77h0v-68.8h-26.18v68.8c0,1.53-1.24,2.78-2.78,2.78h-28.56c-1.53,0-2.78-1.24-2.78-2.78h0V24.24h-54.04v60.35l12.28-7.98c1.29-.84,3-.47,3.84.81.29.45.45.98.45,1.51v80.75c0,1.53-1.24,2.78-2.78,2.78h-16.57c-1.53,0-2.78-1.24-2.78-2.78h0v-64.87l-12.08,7.85v57.03c0,1.53-1.24,2.78-2.78,2.78H26.01c-1.53,0-2.78-1.24-2.78-2.78s1.24-2.78,2.78-2.78h98.2v-55.76c0-.94.48-1.82,1.26-2.33l16.37-10.63V21.47c0-1.53,1.24-2.78,2.78-2.78,0,0,0,0,0,0h59.59c1.53,0,2.78,1.24,2.78,2.78h0v135.44h23.01v-66.02h-17.24c-1.53,0-2.78-1.24-2.78-2.78h0v-39.85c0-1.53,1.24-2.78,2.78-2.78h20.01c1.53,0,2.78,1.24,2.78,2.78h0v37.07h28.96c1.53,0,2.78,1.24,2.78,2.78h0v68.8h95.12c1.53,0,2.78,1.24,2.78,2.78s-1.24,2.78-2.78,2.78m-215-5.55h11.01v-72.85l-11.02,7.16v65.7Zm68.15-71.58h14.46v-34.29h-14.46v34.29Z" fill="#fff"/>
      <rect id="_사각형_98" data-name="사각형 98" width="390" height="181" fill="none"/>
    </g>
  </g>
</svg>